<svg width="38" height="26" viewBox="0 0 38 26" fill="none" xmlns="http://www.w3.org/2000/svg">
<path d="M19.1553 11.4728V9.36328" stroke="#250A20" stroke-width="1.2" stroke-miterlimit="10" stroke-linecap="round" stroke-linejoin="round"/>
<path d="M21.535 22.8133L19.1611 25.7882L16.7872 22.8133H21.541H21.535ZM21.535 22.8133V21.5452M21.535 22.8133H16.7812V20.0367M21.535 17.9693V19.9946L16.7812 18.4862V16.4608M21.535 16.4128L16.7812 14.9043V12.933H21.535V16.4128ZM14.9302 5.39062C15.441 7.00127 14.5996 9.30907 14.5996 9.30907H23.7106C23.7106 9.30907 22.9533 6.70679 23.374 5.41466L14.9302 5.39062Z" stroke="#250A20" stroke-width="1.2" stroke-miterlimit="10" stroke-linejoin="round"/>
<path d="M15.9883 5.38478H22.3227V1.64062H15.9883V5.38478Z" stroke="#250A20" stroke-width="1.2" stroke-miterlimit="10" stroke-linejoin="round"/>
<path d="M37.5452 6.04574C37.5993 5.33056 37.5693 4.62139 37.377 3.91824C37.1065 2.95065 36.5175 2.07921 35.6461 1.55034C33.777 0.408465 30.8923 0.775068 29.0533 1.81478C27.6169 2.62611 27.4667 4.02041 27.4186 5.54091C27.3885 6.58062 27.3585 7.66841 27.5508 8.6961C27.7431 9.72379 28.2299 10.6072 28.6807 11.5328C29.6122 13.4379 29.6903 15.4692 29.7745 17.5547C29.8165 18.7026 29.8886 19.8625 30.1891 20.9743C30.4596 21.9839 30.9043 23.4504 31.962 23.9011C32.7013 24.2196 33.152 23.4504 33.4044 22.8794C33.9273 21.7015 34.5223 20.4755 34.8528 19.2314C35.0632 18.4622 35.0872 17.6508 35.1052 16.8575C35.1232 16.0522 35.1052 15.2409 35.2314 14.4476C35.3396 13.7324 35.604 13.0473 35.8745 12.3802C36.4454 10.9558 36.9082 9.49541 37.2327 7.99895C37.3709 7.3619 37.4972 6.70682 37.5512 6.05776L37.5452 6.04574Z" stroke="#250A20" stroke-width="1.2" stroke-miterlimit="10" stroke-linecap="round" stroke-linejoin="round"/>
<path d="M29.667 12.2951C29.667 12.2951 33.4893 13.3889 35.3944 12.0547" stroke="#250A20" stroke-width="1.2" stroke-linecap="round" stroke-linejoin="round"/>
<path d="M10.9081 6.14586C10.9613 5.43464 10.9317 4.7294 10.7427 4.03014C10.4768 3.06791 9.89787 2.2013 9.04123 1.67536C7.20388 0.539803 4.3681 0.904376 2.5603 1.93833C1.14832 2.74517 1.00062 4.13174 0.953358 5.64382C0.923819 6.67778 0.89428 7.75954 1.08333 8.78154C1.27238 9.80354 1.75092 10.6821 2.19401 11.6025C3.10973 13.4971 3.18653 15.5172 3.26924 17.5911C3.3106 18.7326 3.38149 19.8861 3.67688 20.9917C3.94274 21.9958 4.37992 23.4541 5.4197 23.9023C6.14637 24.2191 6.58946 23.4541 6.83759 22.8863C7.34567 21.7149 7.93646 20.4957 8.26139 19.2585C8.46226 18.4935 8.49179 17.6867 8.50952 16.8978C8.52724 16.0969 8.50952 15.2901 8.63358 14.5012C8.73992 13.7899 8.99987 13.1086 9.26572 12.4452C9.82697 11.0287 10.2819 9.57643 10.6009 8.08826C10.7368 7.45474 10.8608 6.80328 10.914 6.15781L10.9081 6.14586Z" stroke="#250A20" stroke-width="1.2" stroke-miterlimit="10" stroke-linecap="round" stroke-linejoin="round"/>
<path d="M2.93164 12.3395C2.93164 12.3395 6.93584 13.9907 8.93164 11.9766" stroke="#250A20" stroke-width="1.2" stroke-linecap="round" stroke-linejoin="round"/>
</svg>
