<svg width="33" height="33" viewBox="0 0 33 33" fill="none" xmlns="http://www.w3.org/2000/svg">
<path d="M28.1807 8.49087H27.5007H26.8207H25.6441C26.6162 9.65397 27.3861 11.0062 27.8872 12.5095L27.8874 12.5101C28.9259 15.6357 28.6876 18.9828 27.2184 21.9264L27.2179 21.9272C25.7438 24.8705 23.2079 27.0719 20.0813 28.1108L20.0811 28.1108C18.8171 28.5305 17.5044 28.7489 16.184 28.7489C10.8673 28.7489 6.16289 25.3573 4.48535 20.3044M28.1807 8.49087L1.47997 21.3023C-0.240366 16.137 0.911518 10.7084 4.06758 6.74326V7.13081V7.81087V8.49087H4.74758H5.42763H6.73811C4.08651 11.6652 3.08463 16.0969 4.48535 20.3044M28.1807 8.49087V7.81087V7.13081V6.57802M28.1807 8.49087V6.57802M4.48535 20.3044L5.13071 20.0902M4.48535 20.3044C4.48541 20.3046 4.48547 20.3048 4.48553 20.305L5.13071 20.0902M5.13071 20.0902C6.71591 24.8649 11.1602 28.0689 16.184 28.0689C17.4292 28.0689 18.6696 27.8629 19.8668 27.4654L5.13071 20.0902ZM28.1807 6.57802C29.3246 7.97332 30.2419 9.59297 30.8579 11.3993V11.4029L30.8928 11.5076C33.5995 19.6276 29.2047 28.4044 21.0838 31.1114C19.4588 31.6531 17.8074 31.9098 16.184 31.9098C9.6916 31.9098 3.6453 27.7981 1.48002 21.3025L28.1807 6.57802Z" stroke="#0B221A" stroke-width="1.36"/>
<path d="M24.3753 2.68686L24.5228 2.76355H24.5276C24.8613 2.93908 25.1892 3.1255 25.5128 3.32289V3.68312V5.2157H23.0895H22.4095V5.4575L21.802 5.64964L21.8009 5.65001L9.85227 9.45306V7.10734V5.8957V5.2157H9.17227H6.77766V3.75496V3.31754C7.14148 3.0953 7.51565 2.88484 7.89794 2.68833L7.89796 2.68836L7.90328 2.68556C8.35497 2.44831 8.8277 2.23241 9.31774 2.03362L9.31775 2.03363L9.32104 2.03228C9.36964 2.01226 9.41694 1.99139 9.45575 1.97427L9.45872 1.97296C9.49874 1.9553 9.53051 1.94133 9.56068 1.92882C14.0484 0.163901 18.8209 0.33449 22.9599 2.03228C23.4427 2.23192 23.9172 2.44866 24.3753 2.68686Z" stroke="#0B221A" stroke-width="1.36"/>
<path d="M16.1261 25.2647L10.564 19.7026L22.4047 15.9176V18.9861L16.1261 25.2647Z" stroke="#0B221A" stroke-width="1.36"/>
<path d="M22.4051 12.6784L9.84309 16.6929V12.6852L22.4051 8.67502V12.6784Z" stroke="#0B221A" stroke-width="1.36"/>
</svg>
