<svg width="33" height="33" viewBox="0 0 33 33" fill="none" xmlns="http://www.w3.org/2000/svg">
<mask id="mask0_17126_9679" style="mask-type:luminance" maskUnits="userSpaceOnUse" x="0" y="0" width="33" height="33">
<path d="M0 32.5897H32.372V0H0V32.5897Z" fill="white"/>
</mask>
<g mask="url(#mask0_17126_9679)">
<path d="M4.48545 20.3045C6.16316 25.3572 10.8675 28.749 16.1841 28.749C17.5043 28.749 18.8173 28.5305 20.0811 28.1106H20.0815C23.2079 27.0716 25.7439 24.8704 27.2179 21.927L27.2183 21.9262C28.6874 18.9828 28.9259 15.6357 27.8873 12.51V12.5096C27.3861 11.0062 26.6162 9.65425 25.6441 8.49092L28.0452 8.69955L28.1805 6.57812C29.3246 7.97351 30.2419 9.59302 30.8579 11.3992V11.403L30.8927 11.5077C33.5992 19.6275 29.2048 28.4046 21.0838 31.1115C19.4586 31.6531 17.8074 31.9101 16.1841 31.9101C9.77635 31.9101 3.80288 27.905 1.52385 21.4292C-0.240037 16.1376 0.911572 10.7087 4.06782 6.74367L4.35959 8.67876L6.7384 8.4913C4.08672 11.6657 3.08477 16.0971 4.48545 20.3048L4.48583 20.3052" stroke="#250A20" stroke-width="1.35986" stroke-miterlimit="22.9256"/>
<path fill-rule="evenodd" clip-rule="evenodd" d="M24.376 2.68664L24.5234 2.76337H24.5283C24.862 2.93874 25.1897 3.12506 25.5132 3.32273V3.68292V5.2155H23.0902H22.4103V5.45701L21.8025 5.64938L21.8014 5.64976L9.85293 9.45268V7.10713V5.89543V5.2155H9.173H6.77832V3.75473V3.31706C7.14228 3.09483 7.51645 2.88469 7.89856 2.68816L7.90423 2.68513C8.35588 2.44816 8.82831 2.23197 9.31851 2.03317L9.32191 2.03204C9.37029 2.01201 9.41753 1.99122 9.45646 1.97383L9.45949 1.9727C9.49955 1.95494 9.5313 1.94095 9.56153 1.92848C14.0493 0.163461 18.8216 0.334294 22.9606 2.03204C23.4432 2.23159 23.9179 2.44854 24.376 2.68664Z" stroke="#250A20" stroke-width="1.35986" stroke-miterlimit="22.9256"/>
<path fill-rule="evenodd" clip-rule="evenodd" d="M16.1267 25.2654L10.5645 19.7035L22.4056 15.918V18.9869L16.1267 25.2654Z" stroke="#250A20" stroke-width="1.35986" stroke-miterlimit="22.9256"/>
<path fill-rule="evenodd" clip-rule="evenodd" d="M22.405 12.6774L9.84277 16.692V12.6842L22.405 8.67383V12.6774Z" stroke="#250A20" stroke-width="1.35986" stroke-miterlimit="22.9256"/>
</g>
</svg>
