<svg width="52" height="44" viewBox="0 0 52 44" fill="none" xmlns="http://www.w3.org/2000/svg">
<path d="M51.1396 37.4606V20.9922H-0.000976562V37.4606C-0.000976562 40.8115 11.4472 43.528 25.5686 43.528C39.6899 43.528 51.1381 40.8115 51.1381 37.4606H51.1396Z" fill="#EEBCCC"/>
<path d="M51.1396 23.5966V20.9952H48.6639C44.5546 18.9488 35.7587 17.5352 25.5686 17.5352C15.3799 17.5352 6.58551 18.9488 2.47475 20.9952H-0.000976562V23.5966C-0.000976562 23.5996 -0.000976562 23.6011 -0.000976562 23.6026C-0.000976562 26.9534 11.4472 29.67 25.5686 29.67C39.6914 29.67 51.1381 26.9534 51.1381 23.6026C51.1381 23.6011 51.1381 23.5981 51.1381 23.5966H51.1396Z" fill="#DCAEBD"/>
<path d="M25.5715 27.0645C39.6929 27.0645 51.1411 24.3479 51.1411 20.9971C51.1411 17.6463 39.6929 14.9297 25.5715 14.9297C11.4501 14.9297 0.00195312 17.6463 0.00195312 20.9971C0.00195312 24.3494 11.4501 27.0645 25.5715 27.0645Z" fill="#E5B5C4"/>
<g filter="url(#filter0_d_16537_8094)">
<path d="M32.1044 2.1554C32.1044 1.72458 31.4388 1.36856 30.1254 1.10079C28.9077 0.852467 27.2921 0.714844 25.5733 0.714844C23.856 0.714844 22.2389 0.852467 21.0228 1.10079C19.7094 1.36856 19.0422 1.72458 19.0422 2.1554C19.0422 2.15839 19.0422 2.16139 19.0422 2.16438C19.0362 2.17934 19.0332 2.19579 19.0332 2.21225V3.09035C19.0332 3.12774 19.0467 3.4718 19.4999 3.94301L19.5014 3.94451C19.7393 4.18236 20.5381 5.72614 20.4064 6.89893C20.4035 6.92436 20.4079 6.94979 20.4199 6.97223C20.4349 7.00214 20.583 7.26542 21.2711 7.52272C22.1567 7.85182 23.5134 8.03133 25.307 8.05377C25.3145 8.05526 25.322 8.05526 25.331 8.05526C25.4118 8.05676 25.491 8.05676 25.5673 8.05526C25.6092 8.05676 25.6511 8.05676 25.6945 8.05676C25.7304 8.05676 25.7678 8.05676 25.8037 8.05526C25.8112 8.05526 25.8201 8.05377 25.8276 8.05377C27.6212 8.03133 28.9795 7.85182 29.8636 7.52272C29.88 7.51674 29.892 7.51075 29.907 7.50477C29.4791 7.8608 28.8912 8.13455 28.1328 8.31705C27.2248 8.53545 26.0984 8.6267 24.7775 8.58332C22.6144 8.51451 20.6518 8.10612 20.4334 8.05975C20.1447 7.99692 19.8649 8.17793 19.7976 8.46514C19.7348 8.75236 19.9173 9.03808 20.203 9.1009C20.2239 9.10539 22.3496 9.57211 24.7416 9.6499C24.9645 9.65588 25.1814 9.66037 25.3938 9.66037C26.5337 9.66037 27.5404 9.55716 28.3811 9.35371C29.708 9.03508 30.6654 8.45916 31.2249 7.64539C31.3056 7.52721 31.337 7.3851 31.3101 7.24448C31.2832 7.10536 31.2054 6.98419 31.0887 6.90491C30.978 6.82712 30.8494 6.80469 30.7267 6.81964C30.6385 5.65732 31.4014 4.17787 31.6347 3.94451L31.6362 3.94301C32.091 3.47031 32.1044 3.12774 32.1044 3.09035V2.21225C32.1044 2.20477 32.103 2.19729 32.103 2.1913C32.1044 2.17934 32.1044 2.16587 32.1044 2.15391V2.1554ZM31.8397 2.17036C31.7753 2.24366 31.53 2.47254 30.8105 2.70739C30.0446 2.95721 28.5756 3.26387 25.8919 3.32819C25.7872 3.32969 25.681 3.32969 25.5748 3.32969C25.4626 3.32969 25.3519 3.32819 25.2412 3.32819C22.5621 3.26237 21.0961 2.95721 20.3317 2.70739C19.6435 2.48301 19.3892 2.26311 19.3114 2.18083C19.3099 2.17186 19.3099 2.16288 19.3099 2.15391C19.3099 1.95346 19.7722 1.62585 21.0781 1.35958C22.2778 1.11425 23.8755 0.979619 25.5763 0.979619C27.2772 0.979619 28.8748 1.11425 30.0745 1.35958C31.3789 1.62585 31.8427 1.95495 31.8427 2.15391C31.8427 2.15839 31.8412 2.16288 31.8412 2.16887L31.8397 2.17036Z" fill="#7B3972"/>
</g>
<g filter="url(#filter1_d_16537_8094)">
<path d="M30.4307 13.2416L30.8795 12.5565L30.9199 12.4952C30.9947 12.6866 31.0291 12.9125 31.0455 13.1563C31.1039 13.0845 31.1772 13.0217 31.2295 12.9454C31.3103 12.8272 31.3417 12.6851 31.3148 12.5445C31.2879 12.4054 31.2101 12.2842 31.0934 12.2034C30.8525 12.0359 30.5205 12.0987 30.3529 12.3396C29.946 12.9305 29.2011 13.3598 28.139 13.6171C27.2295 13.8355 26.103 13.9237 24.7836 13.8834C23.9579 13.8564 23.1636 13.7801 22.4814 13.6949V14.0988V14.365V14.7704C23.1591 14.8527 23.9355 14.923 24.7448 14.9499C24.9676 14.9574 25.186 14.9604 25.3985 14.9604C26.5383 14.9604 27.5451 14.8572 28.3858 14.6552C28.9557 14.5176 29.4434 14.3232 29.8757 14.0943L30.4322 13.2431L30.4307 13.2416Z" fill="#7B3972"/>
</g>
<g filter="url(#filter2_d_16537_8094)">
<path d="M20.2926 13.7594L20.2747 13.3555C20.0503 13.3749 19.8558 13.5305 19.8005 13.7653C19.7376 14.0526 19.9201 14.3368 20.2059 14.4011C20.2089 14.4026 20.2507 14.4101 20.3225 14.4265L20.3031 14.0122L20.2926 13.7609V13.7594Z" fill="#7B3972"/>
</g>
<g filter="url(#filter3_d_16537_8094)">
<path d="M31.0716 14.0606C31.0507 14.0471 31.0252 14.0441 31.0028 14.0352C30.9489 14.4331 30.8562 14.8594 30.7275 15.3112C30.913 15.1586 31.0776 14.994 31.2167 14.8145C31.3065 14.6993 31.3424 14.5512 31.3154 14.4091C31.2885 14.264 31.1988 14.1384 31.0716 14.0606Z" fill="#7B3972"/>
</g>
<path d="M24.7062 15.5697C23.7967 15.5443 23.0577 15.4665 22.4788 15.3797V15.5248L22.3322 15.7642L22.1976 15.9841L21.9717 16.3535C22.6224 16.4657 23.5259 16.5779 24.6733 16.6108C24.8977 16.6168 25.1176 16.6198 25.3315 16.6198C26.4803 16.6198 27.4946 16.5271 28.3442 16.3476C28.3697 16.3416 28.3891 16.3341 28.4146 16.3281L28.7451 15.8225L28.9411 15.5218L29.3211 14.9414C28.977 15.097 28.5836 15.2316 28.1154 15.3303C27.1924 15.5263 26.0465 15.6101 24.7077 15.5697H24.7062Z" fill="#7B3972"/>
<g filter="url(#filter4_d_16537_8094)">
<path d="M30.3497 8.80957C29.9428 9.40045 29.1978 9.82828 28.1357 10.0856C27.2262 10.304 26.1028 10.3967 24.7804 10.3533C22.5096 10.28 20.4572 9.83277 20.4363 9.82828C20.1461 9.76695 19.8679 9.94646 19.8005 10.2352C19.7377 10.5224 19.9187 10.8081 20.2059 10.8709C20.2284 10.8754 22.3526 11.3421 24.7445 11.4184C24.9674 11.4259 25.1858 11.4289 25.3982 11.4289C26.5381 11.4289 27.5449 11.3257 28.3871 11.1222C29.7139 10.8021 30.6713 10.2277 31.2308 9.41392C31.3116 9.29724 31.343 9.15513 31.316 9.01451C31.2906 8.87389 31.2113 8.75273 31.0931 8.67195C30.8538 8.5059 30.5187 8.56574 30.3512 8.80807L30.3497 8.80957Z" fill="#7B3972"/>
</g>
<path d="M21.6229 16.9219L21.3955 17.2929L21.2549 17.5217L21.041 17.8703C21.0964 17.9017 21.1577 17.9286 21.225 17.9406C22.2452 18.1096 23.7965 18.3101 25.3911 18.3101C25.5901 18.3101 25.792 18.3071 25.991 18.3011C26.4143 18.2861 26.8062 18.2517 27.1847 18.2069L27.4704 17.7701L27.6679 17.4679L27.9731 17.0027C27.6858 17.0655 27.3852 17.1134 27.08 17.1493C25.0515 17.3856 22.7344 17.0984 21.6229 16.9234V16.9219Z" fill="#7B3972"/>
<path d="M30.5639 15.8413C30.5191 15.9775 30.4697 16.1136 30.4203 16.2512C30.362 16.4158 30.3051 16.5803 30.2408 16.7464C30.1585 16.9633 30.0673 17.1802 29.9775 17.3956C30.3201 17.2026 30.6178 16.9812 30.8676 16.7284C31.0725 16.519 31.0696 16.1824 30.8601 15.9745C30.7808 15.8952 30.6657 15.8593 30.5654 15.8398L30.5639 15.8413Z" fill="#7B3972"/>
<path d="M21.6615 18.3903C21.5224 18.3663 21.3803 18.4007 21.2651 18.483C21.1484 18.5653 21.0721 18.6895 21.0482 18.8301C21.0003 19.1203 21.1978 19.3955 21.488 19.4434C22.9599 19.6857 24.3167 19.8084 25.5209 19.8084C25.7438 19.8084 25.9398 19.7889 26.1522 19.7815L26.4185 19.3731L26.595 19.1023L26.8762 18.673C25.4596 18.8151 23.7109 18.7268 21.66 18.3903H21.6615Z" fill="#7B3972"/>
<path d="M29.9404 17.8665C29.888 17.853 29.8342 17.8545 29.7803 17.8575C29.707 18.0265 29.6322 18.1941 29.5559 18.3601C29.5006 18.4828 29.4423 18.6025 29.3854 18.7221C29.2972 18.9121 29.2089 19.1006 29.1191 19.2831C29.4707 19.1559 29.7968 19.0123 30.0825 18.8403C30.3338 18.6892 30.4176 18.3616 30.2665 18.1088C30.1932 17.9876 30.0765 17.9009 29.9404 17.8665Z" fill="#7B3972"/>
<path d="M29.2403 19.7559C29.1012 19.8232 28.9456 19.877 28.7931 19.9309C28.7018 20.1074 28.6151 20.2749 28.5268 20.4395C28.4714 20.5457 28.4146 20.6534 28.3622 20.7536C28.2725 20.9197 28.1872 21.0753 28.1064 21.2219C28.7063 21.0977 29.2493 20.9346 29.7026 20.7162C29.9659 20.5891 30.0795 20.2705 29.9509 20.0027C29.8223 19.7394 29.5036 19.6287 29.2388 19.7559H29.2403Z" fill="#7B3972"/>
<path d="M23.0635 20.2887C22.9139 20.2722 22.7808 20.3141 22.6716 20.4053C22.5609 20.4951 22.4921 20.6222 22.4771 20.7629C22.4607 20.905 22.5026 21.0441 22.5923 21.1548C22.6821 21.2655 22.8107 21.3358 22.9513 21.3493C23.6843 21.427 24.3814 21.4644 25.0456 21.4749L25.3029 21.0815L25.4749 20.8197L25.7427 20.4113C24.8063 20.4293 23.8713 20.3739 23.065 20.2902L23.0635 20.2887Z" fill="#7B3972"/>
<g filter="url(#filter5_d_16537_8094)">
<path d="M31.0916 10.4378C30.8508 10.2703 30.5157 10.3331 30.3497 10.574C29.9428 11.1648 29.1993 11.5942 28.1357 11.85C27.2262 12.0699 26.1013 12.1581 24.7804 12.1177C22.5096 12.0444 20.4572 11.5986 20.4363 11.5927C20.1461 11.5298 19.8663 11.7108 19.8005 11.9996C19.7377 12.2853 19.9187 12.571 20.2134 12.6368C20.345 12.6652 21.1094 12.8208 22.1641 12.9614C22.2688 12.9749 22.3705 12.9883 22.4797 13.0018C23.1588 13.0841 23.9352 13.1559 24.743 13.1813C24.9659 13.1888 25.1843 13.1933 25.3967 13.1933C26.5351 13.1933 27.5403 13.0901 28.3855 12.8866C29.7124 12.5665 30.6698 11.9921 31.2308 11.1783C31.3968 10.936 31.3355 10.6039 31.0931 10.4363L31.0916 10.4378Z" fill="#7B3972"/>
</g>
<defs>
<filter id="filter0_d_16537_8094" x="14.1268" y="-1.73838" width="22.8842" height="18.7582" filterUnits="userSpaceOnUse" color-interpolation-filters="sRGB">
<feFlood flood-opacity="0" result="BackgroundImageFix"/>
<feColorMatrix in="SourceAlpha" type="matrix" values="0 0 0 0 0 0 0 0 0 0 0 0 0 0 0 0 0 0 127 0" result="hardAlpha"/>
<feOffset dy="2.45322"/>
<feGaussianBlur stdDeviation="2.45322"/>
<feColorMatrix type="matrix" values="0 0 0 0 0 0 0 0 0 0 0 0 0 0 0 0 0 0 0.08 0"/>
<feBlend mode="normal" in2="BackgroundImageFix" result="effect1_dropShadow_16537_8094"/>
<feBlend mode="normal" in="SourceGraphic" in2="effect1_dropShadow_16537_8094" result="shape"/>
</filter>
<filter id="filter1_d_16537_8094" x="17.575" y="9.65615" width="18.6557" height="12.6644" filterUnits="userSpaceOnUse" color-interpolation-filters="sRGB">
<feFlood flood-opacity="0" result="BackgroundImageFix"/>
<feColorMatrix in="SourceAlpha" type="matrix" values="0 0 0 0 0 0 0 0 0 0 0 0 0 0 0 0 0 0 127 0" result="hardAlpha"/>
<feOffset dy="2.45322"/>
<feGaussianBlur stdDeviation="2.45322"/>
<feColorMatrix type="matrix" values="0 0 0 0 0 0 0 0 0 0 0 0 0 0 0 0 0 0 0.08 0"/>
<feBlend mode="normal" in2="BackgroundImageFix" result="effect1_dropShadow_16537_8094"/>
<feBlend mode="normal" in="SourceGraphic" in2="effect1_dropShadow_16537_8094" result="shape"/>
</filter>
<filter id="filter2_d_16537_8094" x="14.8816" y="10.9022" width="10.3471" height="10.8832" filterUnits="userSpaceOnUse" color-interpolation-filters="sRGB">
<feFlood flood-opacity="0" result="BackgroundImageFix"/>
<feColorMatrix in="SourceAlpha" type="matrix" values="0 0 0 0 0 0 0 0 0 0 0 0 0 0 0 0 0 0 127 0" result="hardAlpha"/>
<feOffset dy="2.45322"/>
<feGaussianBlur stdDeviation="2.45322"/>
<feColorMatrix type="matrix" values="0 0 0 0 0 0 0 0 0 0 0 0 0 0 0 0 0 0 0.08 0"/>
<feBlend mode="normal" in2="BackgroundImageFix" result="effect1_dropShadow_16537_8094"/>
<feBlend mode="normal" in="SourceGraphic" in2="effect1_dropShadow_16537_8094" result="shape"/>
</filter>
<filter id="filter3_d_16537_8094" x="25.8211" y="11.5819" width="10.4096" height="11.0902" filterUnits="userSpaceOnUse" color-interpolation-filters="sRGB">
<feFlood flood-opacity="0" result="BackgroundImageFix"/>
<feColorMatrix in="SourceAlpha" type="matrix" values="0 0 0 0 0 0 0 0 0 0 0 0 0 0 0 0 0 0 127 0" result="hardAlpha"/>
<feOffset dy="2.45322"/>
<feGaussianBlur stdDeviation="2.45322"/>
<feColorMatrix type="matrix" values="0 0 0 0 0 0 0 0 0 0 0 0 0 0 0 0 0 0 0.08 0"/>
<feBlend mode="normal" in2="BackgroundImageFix" result="effect1_dropShadow_16537_8094"/>
<feBlend mode="normal" in="SourceGraphic" in2="effect1_dropShadow_16537_8094" result="shape"/>
</filter>
<filter id="filter4_d_16537_8094" x="14.8816" y="6.1249" width="21.35" height="12.6644" filterUnits="userSpaceOnUse" color-interpolation-filters="sRGB">
<feFlood flood-opacity="0" result="BackgroundImageFix"/>
<feColorMatrix in="SourceAlpha" type="matrix" values="0 0 0 0 0 0 0 0 0 0 0 0 0 0 0 0 0 0 127 0" result="hardAlpha"/>
<feOffset dy="2.45322"/>
<feGaussianBlur stdDeviation="2.45322"/>
<feColorMatrix type="matrix" values="0 0 0 0 0 0 0 0 0 0 0 0 0 0 0 0 0 0 0.08 0"/>
<feBlend mode="normal" in2="BackgroundImageFix" result="effect1_dropShadow_16537_8094"/>
<feBlend mode="normal" in="SourceGraphic" in2="effect1_dropShadow_16537_8094" result="shape"/>
</filter>
<filter id="filter5_d_16537_8094" x="14.8816" y="7.89053" width="21.349" height="12.6605" filterUnits="userSpaceOnUse" color-interpolation-filters="sRGB">
<feFlood flood-opacity="0" result="BackgroundImageFix"/>
<feColorMatrix in="SourceAlpha" type="matrix" values="0 0 0 0 0 0 0 0 0 0 0 0 0 0 0 0 0 0 127 0" result="hardAlpha"/>
<feOffset dy="2.45322"/>
<feGaussianBlur stdDeviation="2.45322"/>
<feColorMatrix type="matrix" values="0 0 0 0 0 0 0 0 0 0 0 0 0 0 0 0 0 0 0.08 0"/>
<feBlend mode="normal" in2="BackgroundImageFix" result="effect1_dropShadow_16537_8094"/>
<feBlend mode="normal" in="SourceGraphic" in2="effect1_dropShadow_16537_8094" result="shape"/>
</filter>
</defs>
</svg>
