<svg width="28" height="19" viewBox="0 0 28 19" fill="none" xmlns="http://www.w3.org/2000/svg">
<path d="M6.48221 1.68741C6.38006 1.78956 6.21662 1.78956 6.11447 1.68741L5.54243 1.11946C5.44028 1.01731 5.44028 0.853872 5.54243 0.751722C5.64458 0.649572 5.80802 0.649572 5.91017 0.751722L6.48221 1.32376C6.58436 1.42591 6.58436 1.58935 6.48221 1.6915V1.68741Z" fill="#250A20"/>
<path d="M7.09517 1.68741C7.19732 1.78956 7.36076 1.78956 7.46291 1.68741L8.03495 1.11537C8.1371 1.01322 8.1371 0.849783 8.03495 0.747633C7.9328 0.645483 7.76936 0.645483 7.66721 0.747633L7.09517 1.31967C6.99302 1.42182 6.99302 1.58526 7.09517 1.68741Z" fill="#250A20"/>
<path d="M6.48221 2.37794C6.38006 2.27579 6.21662 2.27579 6.11447 2.37794L5.54243 2.94998C5.44028 3.05213 5.44028 3.21557 5.54243 3.31772C5.64458 3.41987 5.80802 3.41987 5.91017 3.31772L6.48221 2.74568C6.58436 2.64353 6.58436 2.48009 6.48221 2.37794Z" fill="#250A20"/>
<path d="M7.09517 2.37794C7.19732 2.27579 7.36076 2.27579 7.46291 2.37794L8.03495 2.94998C8.1371 3.05213 8.1371 3.21557 8.03495 3.31772C7.9328 3.41987 7.76936 3.41987 7.66721 3.31772L7.09517 2.74568C6.99302 2.64353 6.99302 2.48009 7.09517 2.37794Z" fill="#250A20"/>
<path d="M4.39807 17.9701C4.4757 17.8925 4.60237 17.8925 4.68 17.9701L5.12129 18.4114C5.19892 18.489 5.19892 18.6157 5.12129 18.6933C5.04366 18.7709 4.91699 18.7709 4.83936 18.6933L4.39807 18.252C4.32044 18.1744 4.32044 18.0477 4.39807 17.9701Z" fill="#250A20"/>
<path d="M3.92793 17.9701C3.8503 17.8925 3.72363 17.8925 3.646 17.9701L3.20471 18.4114C3.12708 18.489 3.12708 18.6157 3.20471 18.6933C3.28234 18.7709 3.40901 18.7709 3.48664 18.6933L3.92793 18.252C4.00556 18.1744 4.00556 18.0477 3.92793 17.9701Z" fill="#250A20"/>
<path d="M4.39807 17.4389C4.4757 17.5166 4.60237 17.5166 4.68 17.4389L5.12129 16.9976C5.19892 16.92 5.19892 16.7933 5.12129 16.7157C5.04366 16.6381 4.91699 16.6381 4.83936 16.7157L4.39807 17.157C4.32044 17.2346 4.32044 17.3613 4.39807 17.4389Z" fill="#250A20"/>
<path d="M3.92793 17.4389C3.8503 17.5166 3.72363 17.5166 3.646 17.4389L3.20471 16.9976C3.12708 16.92 3.12708 16.7933 3.20471 16.7157C3.28234 16.6381 3.40901 16.6381 3.48664 16.7157L3.92793 17.157C4.00556 17.2346 4.00556 17.3613 3.92793 17.4389Z" fill="#250A20"/>
<path d="M26.5115 3.57106C26.5646 3.51794 26.6504 3.51794 26.7036 3.57106L26.9977 3.86525C27.0509 3.91837 27.0509 4.00417 26.9977 4.05729C26.9446 4.11041 26.8588 4.11041 26.8057 4.05729L26.5115 3.7631C26.4584 3.70998 26.4584 3.62418 26.5115 3.57106Z" fill="#250A20"/>
<path d="M26.1931 3.57106C26.1399 3.51794 26.0541 3.51794 26.001 3.57106L25.7068 3.86525C25.6537 3.91837 25.6537 4.00417 25.7068 4.05729C25.7599 4.11041 25.8458 4.11041 25.8989 4.05729L26.1931 3.7631C26.2462 3.70998 26.2462 3.62418 26.1931 3.57106Z" fill="#250A20"/>
<path d="M26.5115 3.2115C26.5646 3.26461 26.6504 3.26461 26.7036 3.2115L26.9977 2.9173C27.0509 2.86419 27.0509 2.77838 26.9977 2.72526C26.9446 2.67215 26.8588 2.67215 26.8057 2.72526L26.5115 3.01945C26.4584 3.07257 26.4584 3.15838 26.5115 3.2115Z" fill="#250A20"/>
<path d="M26.1931 3.2115C26.1399 3.26461 26.0541 3.26461 26.001 3.2115L25.7068 2.9173C25.6537 2.86419 25.6537 2.77838 25.7068 2.72526C25.7599 2.67215 25.8458 2.67215 25.8989 2.72526L26.1931 3.01945C26.2462 3.07257 26.2462 3.15838 26.1931 3.2115Z" fill="#250A20"/>
<path d="M21.0727 10.7542C21.04 10.7787 20.991 10.8114 20.9338 10.8523C20.8684 10.8972 20.7867 10.9463 20.6968 11.0035C20.6519 11.0321 20.5987 11.0607 20.5456 11.0934C20.4925 11.1261 20.4353 11.1587 20.3781 11.1914C20.3168 11.2241 20.2555 11.2568 20.1901 11.2936C20.1248 11.3263 20.0553 11.359 19.9858 11.3957C19.9164 11.4284 19.8428 11.4611 19.7693 11.4979C19.6957 11.5347 19.6181 11.5633 19.5364 11.6C19.377 11.6654 19.2136 11.7267 19.042 11.788C18.9562 11.8166 18.8704 11.8452 18.7846 11.8738C18.6947 11.8983 18.6089 11.9269 18.519 11.9514C18.3433 12.0005 18.1635 12.0495 17.9837 12.0903C17.808 12.1312 17.6282 12.1639 17.4607 12.1966C17.2891 12.2252 17.1216 12.2538 16.9663 12.2742C16.8069 12.2946 16.6558 12.311 16.5168 12.3232C16.239 12.3478 16.0061 12.36 15.8426 12.36C15.6792 12.3641 15.5852 12.36 15.5852 12.36C15.5852 12.36 15.6792 12.3723 15.8426 12.3886C16.0061 12.405 16.239 12.4172 16.5209 12.4254C16.6639 12.4295 16.8151 12.4295 16.9785 12.4254C17.142 12.4213 17.3095 12.4131 17.4893 12.4009C17.665 12.3886 17.8489 12.3723 18.0368 12.3478C18.2207 12.3273 18.4086 12.2987 18.5966 12.266C18.6906 12.2497 18.7846 12.2334 18.8785 12.2129C18.9725 12.1925 19.0624 12.1721 19.1564 12.1516C19.3403 12.1067 19.52 12.0617 19.6916 12.0127C19.7775 11.9882 19.8633 11.9637 19.945 11.9351C20.0267 11.9065 20.1084 11.882 20.1861 11.8534C20.1901 11.8493 20.1983 11.8493 20.2024 11.8493C19.9777 12.0944 19.7366 12.3355 19.4873 12.5643C18.568 13.406 17.4975 14.1047 16.4024 14.5869C15.1725 15.1262 13.9059 15.4 12.6474 15.4C11.3889 15.4 10.1222 15.1262 8.89236 14.5869C7.79323 14.1047 6.72679 13.406 5.80744 12.5643C5.55411 12.3314 5.31712 12.0944 5.09239 11.8493C5.09648 11.8534 5.10465 11.8534 5.10873 11.8534C5.18637 11.882 5.26809 11.9065 5.34981 11.9351C5.43153 11.9637 5.51733 11.9882 5.60314 12.0127C5.77475 12.0617 5.95454 12.1108 6.1384 12.1516C6.2283 12.1721 6.32227 12.1925 6.41625 12.2129C6.51023 12.2293 6.60421 12.2497 6.69819 12.266C6.88614 12.2987 7.0741 12.3273 7.25797 12.3478C7.44184 12.3723 7.62571 12.3845 7.8014 12.4009C7.9771 12.4131 8.14871 12.4213 8.31215 12.4254C8.47559 12.4295 8.62678 12.4295 8.76979 12.4254C9.05172 12.4213 9.28462 12.405 9.44806 12.3886C9.6115 12.3723 9.70548 12.36 9.70548 12.36C9.70548 12.36 9.6115 12.3641 9.44806 12.36C9.28462 12.3559 9.05172 12.3478 8.77387 12.3232C8.63495 12.311 8.48377 12.2946 8.32441 12.2742C8.16506 12.2538 8.00162 12.2293 7.83001 12.1966C7.6584 12.1639 7.4827 12.1312 7.307 12.0903C7.1313 12.0495 6.95152 12.0045 6.77173 11.9514C6.68184 11.9269 6.59604 11.8983 6.50614 11.8738C6.42034 11.8452 6.33453 11.8166 6.24873 11.788C6.07712 11.7267 5.91367 11.6654 5.75432 11.6C5.67669 11.5673 5.59905 11.5347 5.52551 11.4979C5.45196 11.4652 5.37841 11.4325 5.30895 11.3957C5.23949 11.359 5.17002 11.3263 5.10465 11.2936C5.03927 11.2609 4.97798 11.2241 4.91669 11.1914C4.8554 11.1587 4.80228 11.1261 4.74917 11.0934C4.69605 11.0607 4.64702 11.0321 4.59798 11.0035C4.50401 10.9463 4.42229 10.8931 4.35691 10.8523C4.29971 10.8114 4.25068 10.7787 4.21799 10.7542C3.62143 9.90025 3.21283 9.02585 3.06165 8.24134C3.46208 8.48241 4.07089 8.80112 4.90035 9.11983C6.39991 9.69187 8.96183 10.3783 12.6515 10.3783C16.3411 10.3783 18.9031 9.69595 20.4067 9.11983C21.2402 8.80112 21.845 8.48241 22.2454 8.24134C22.0942 9.02585 21.6856 9.89617 21.0891 10.7542H21.0727ZM22.7602 7.2893C22.6458 7.23618 22.511 7.25253 22.4129 7.33425C22.3843 7.35877 19.4833 9.72864 12.6351 9.72864C9.06806 9.72864 6.60012 9.07897 5.15777 8.53145C3.59692 7.93898 2.86552 7.34242 2.86144 7.33425C2.76337 7.25253 2.62854 7.23618 2.51413 7.2893C2.39972 7.34242 2.32617 7.45683 2.32617 7.58349C2.32617 8.39252 2.61219 9.3323 3.15154 10.3048C3.68681 11.265 4.45089 12.2129 5.35798 13.0383C6.33045 13.929 7.45818 14.6686 8.62269 15.1794C9.93838 15.7555 11.2908 16.0497 12.6433 16.0497C13.9958 16.0497 15.3482 15.7555 16.6639 15.1794C17.8243 14.6686 18.9562 13.929 19.9286 13.0383C20.8357 12.2088 21.5998 11.265 22.1351 10.3048C22.6744 9.33639 22.9604 8.39252 22.9604 7.58349C22.9604 7.45683 22.8869 7.34242 22.7725 7.2893H22.7602Z" fill="#250A20"/>
<path d="M2.55525 6.23104C2.58794 6.21469 2.61655 6.19835 2.64923 6.18201C2.71461 6.1534 2.7759 6.12071 2.83719 6.0962C2.86988 6.08394 2.89848 6.0676 2.93117 6.05534C2.95977 6.04308 2.99246 6.03082 3.02106 6.01856C3.04966 6.00631 3.08235 5.99405 3.11095 5.98179C3.13955 5.96953 3.17224 5.96136 3.20084 5.9491C3.22944 5.93684 3.25805 5.92459 3.28665 5.91641C3.31525 5.90824 3.34385 5.90007 3.36837 5.88781C3.39697 5.87964 3.42149 5.86738 3.446 5.85921C3.47052 5.85104 3.49912 5.84287 3.51955 5.83469C3.61761 5.80201 3.70342 5.77749 3.77697 5.74889C3.85052 5.72437 3.90772 5.70803 3.94858 5.69577C3.98944 5.68351 4.00987 5.67534 4.00987 5.67534C4.00987 5.67534 3.98944 5.66717 3.94858 5.65491C3.92815 5.65083 3.90363 5.64265 3.87503 5.63448C3.84643 5.62631 3.81374 5.61814 3.77288 5.60997C3.69525 5.59362 3.60127 5.57319 3.49503 5.56502C3.46643 5.56093 3.44192 5.55685 3.40923 5.55685C3.38063 5.55276 3.35202 5.55276 3.31934 5.55276C3.25805 5.54868 3.19267 5.54868 3.12321 5.54868C3.09052 5.54868 3.05375 5.54868 3.02106 5.54868C2.98428 5.55276 2.94751 5.55276 2.91482 5.55685C2.84127 5.56093 2.76364 5.57319 2.68601 5.58545C2.64515 5.58953 2.60837 5.59771 2.56751 5.60588C2.52665 5.61405 2.48579 5.62222 2.44493 5.63039C2.36321 5.65082 2.28149 5.67534 2.19977 5.70803C2.03225 5.76523 1.86472 5.84287 1.70537 5.94502C1.54601 6.04308 1.39075 6.16566 1.25591 6.3005C1.12107 6.43534 0.998491 6.5906 0.900427 6.74996C0.798277 6.90931 0.720644 7.07684 0.66344 7.24028C0.630752 7.322 0.610322 7.40372 0.585806 7.48544C0.573548 7.5263 0.565376 7.56716 0.557204 7.60393C0.549032 7.64479 0.54086 7.68156 0.536774 7.72242C0.524516 7.80006 0.512258 7.87361 0.508172 7.94715C0.504086 7.98393 0.504086 8.0207 0.5 8.05339C0.5 8.09016 0.5 8.12285 0.5 8.15554C0.5 8.225 0.5 8.28629 0.504086 8.34758C0.508172 8.37618 0.508172 8.40887 0.508172 8.43747C0.512258 8.46607 0.512258 8.49468 0.516344 8.51919C0.528602 8.62543 0.549032 8.71941 0.565376 8.79296C0.573548 8.82973 0.58172 8.8665 0.589892 8.89511C0.598064 8.92371 0.606236 8.94822 0.610322 8.96865C0.62258 9.00951 0.630752 9.02994 0.630752 9.02994C0.630752 9.02994 0.638924 9.00951 0.651182 8.96865C0.667526 8.92779 0.683869 8.87059 0.708385 8.80113C0.732901 8.72758 0.757417 8.64177 0.794191 8.54371C0.802363 8.51919 0.810535 8.49468 0.818707 8.47016C0.826879 8.44565 0.835051 8.41704 0.847309 8.39253C0.859567 8.36801 0.86774 8.33941 0.875912 8.31081C0.884084 8.28221 0.896341 8.2536 0.908599 8.225C0.920857 8.1964 0.929029 8.1678 0.941287 8.1392C0.953545 8.11059 0.965803 8.08199 0.978061 8.0493C1.00258 7.98801 1.02709 7.92672 1.0557 7.86543C1.0843 7.80414 1.1129 7.74286 1.14559 7.67748C1.16193 7.64479 1.17827 7.61619 1.19462 7.5835C1.21096 7.55081 1.23139 7.52221 1.24774 7.48952C1.3172 7.36694 1.39483 7.24436 1.48472 7.12587C1.57053 7.00738 1.66451 6.89705 1.77074 6.7949C1.87289 6.69275 1.9873 6.59878 2.10171 6.51297C2.2202 6.42716 2.34278 6.34953 2.46536 6.28007C2.49805 6.26372 2.52665 6.24329 2.55934 6.22695L2.55525 6.23104Z" fill="#250A20"/>
<path d="M24.775 8.12285C24.7709 8.08607 24.7709 8.05339 24.7668 8.01661C24.7627 7.94306 24.7504 7.86952 24.7423 7.79188C24.7382 7.75102 24.7259 7.71425 24.7178 7.67339C24.7096 7.63253 24.7014 7.59575 24.6892 7.55489C24.6687 7.47317 24.6442 7.39145 24.6156 7.30974C24.5584 7.14221 24.4808 6.97468 24.3786 6.81942C24.2765 6.66006 24.158 6.50888 24.0231 6.36996C23.8842 6.23512 23.733 6.11663 23.5737 6.01448C23.4143 5.91233 23.2468 5.83878 23.0793 5.77749C22.9975 5.74889 22.9117 5.72437 22.8341 5.70394C22.7932 5.69168 22.7524 5.68351 22.7115 5.67942C22.6707 5.67125 22.6339 5.66308 22.593 5.65491C22.5154 5.64265 22.4378 5.63039 22.3642 5.63039C22.3274 5.62631 22.2907 5.6263 22.258 5.62222C22.2212 5.62222 22.1885 5.61813 22.1558 5.61813C22.0864 5.61813 22.0251 5.61813 21.9638 5.62222C21.9311 5.62222 21.9025 5.62631 21.8739 5.62631C21.8453 5.63039 21.8167 5.63039 21.7922 5.63448C21.6859 5.64674 21.592 5.66716 21.5143 5.67942C21.4776 5.68759 21.4408 5.69577 21.4122 5.70394C21.3836 5.71211 21.3591 5.72028 21.3386 5.72437C21.2978 5.73663 21.2773 5.7448 21.2773 5.7448C21.2773 5.7448 21.2978 5.75297 21.3386 5.76523C21.3795 5.78157 21.4367 5.79792 21.5102 5.81835C21.5838 5.84286 21.6696 5.86738 21.7677 5.90415C21.7922 5.91233 21.8167 5.9205 21.8412 5.92867C21.8657 5.93684 21.8943 5.94501 21.9188 5.95727C21.9434 5.96544 21.972 5.9777 22.0006 5.98587C22.0292 5.99404 22.0578 6.0063 22.0864 6.01856C22.115 6.03082 22.1436 6.03899 22.1763 6.05125C22.2049 6.06351 22.2376 6.07576 22.2662 6.08802C22.3274 6.11254 22.3887 6.13705 22.45 6.16566C22.5113 6.19426 22.5726 6.22286 22.638 6.25146C22.6707 6.26781 22.6993 6.28415 22.732 6.30049C22.7646 6.31684 22.7932 6.33727 22.8259 6.35361C22.9485 6.42307 23.0752 6.50071 23.1896 6.58651C23.3081 6.67232 23.4184 6.7663 23.5206 6.86845C23.6227 6.9706 23.7167 7.08092 23.8066 7.19941C23.8965 7.31382 23.97 7.4364 24.0436 7.56307C24.0599 7.59575 24.0803 7.62436 24.0967 7.65704C24.113 7.68973 24.1294 7.72242 24.1457 7.75102C24.1743 7.81231 24.207 7.8736 24.2356 7.93898C24.2479 7.97167 24.2642 8.00027 24.2765 8.03296C24.2928 8.06156 24.301 8.09425 24.3132 8.12285C24.3255 8.15145 24.3378 8.18414 24.35 8.21274C24.3623 8.24134 24.3704 8.26994 24.3827 8.29855C24.3909 8.32715 24.4031 8.35575 24.4154 8.38435C24.4236 8.41295 24.4358 8.44156 24.444 8.46607C24.4522 8.49059 24.4644 8.51919 24.4726 8.54371C24.4808 8.56822 24.4889 8.59682 24.4971 8.61725C24.5298 8.71532 24.5584 8.80112 24.5829 8.87058C24.6074 8.94413 24.6238 9.00134 24.636 9.0422C24.6483 9.08306 24.6565 9.10349 24.6565 9.10349C24.6565 9.10349 24.6646 9.08306 24.6769 9.0422C24.681 9.02177 24.6891 8.99725 24.6973 8.96865C24.7055 8.94005 24.7137 8.90736 24.7218 8.87058C24.7382 8.79295 24.7586 8.69897 24.7668 8.59274C24.7709 8.56822 24.775 8.53962 24.775 8.51102C24.779 8.48241 24.779 8.45381 24.779 8.42113C24.7831 8.35984 24.7831 8.29446 24.7831 8.22908C24.7831 8.1964 24.7831 8.15962 24.7831 8.12693L24.775 8.12285Z" fill="#250A20"/>
</svg>
