<svg width="14" height="15" viewBox="0 0 14 15" fill="none" xmlns="http://www.w3.org/2000/svg">
<path d="M8.07643 5.23348C8.07643 5.12206 8.03216 5.0152 7.95337 4.93641C7.87459 4.85762 7.76772 4.81335 7.6563 4.81335C7.54487 4.81335 7.43801 4.85762 7.35922 4.93641C7.28044 5.0152 7.23617 5.12206 7.23617 5.23348V6.49386H5.97579C5.86437 6.49386 5.75751 6.53813 5.67872 6.61692C5.59993 6.6957 5.55566 6.80257 5.55566 6.91399C5.55566 7.02541 5.59993 7.13228 5.67872 7.21106C5.75751 7.28985 5.86437 7.33412 5.97579 7.33412H7.23617V8.5945C7.23617 8.70592 7.28044 8.81278 7.35922 8.89157C7.43801 8.97036 7.54487 9.01463 7.6563 9.01463C7.76772 9.01463 7.87459 8.97036 7.95337 8.89157C8.03216 8.81278 8.07643 8.70592 8.07643 8.5945V7.33412H9.33681C9.44823 7.33412 9.55509 7.28985 9.63388 7.21106C9.71267 7.13228 9.75694 7.02541 9.75694 6.91399C9.75694 6.80257 9.71267 6.6957 9.63388 6.61692C9.55509 6.53813 9.44823 6.49386 9.33681 6.49386H8.07643V5.23348Z" fill="#363330"/>
<path d="M0.933799 1.45233C0.822374 1.45233 0.715513 1.49659 0.636724 1.57538C0.557935 1.65417 0.513672 1.76103 0.513672 1.87246C0.513672 1.98388 0.557935 2.09074 0.636724 2.16953C0.715513 2.24832 0.822374 2.29259 0.933799 2.29259H1.86648L2.20342 3.64287L3.46212 10.3523C3.48015 10.4486 3.53124 10.5355 3.60657 10.5981C3.68191 10.6607 3.77674 10.695 3.87469 10.6951H4.71494C4.26924 10.6951 3.8418 10.8722 3.52664 11.1873C3.21149 11.5025 3.03443 11.9299 3.03443 12.3756C3.03443 12.8213 3.21149 13.2488 3.52664 13.5639C3.8418 13.8791 4.26924 14.0561 4.71494 14.0561C5.16064 14.0561 5.58809 13.8791 5.90324 13.5639C6.2184 13.2488 6.39545 12.8213 6.39545 12.3756C6.39545 11.9299 6.2184 11.5025 5.90324 11.1873C5.58809 10.8722 5.16064 10.6951 4.71494 10.6951H10.5967C10.151 10.6951 9.72358 10.8722 9.40842 11.1873C9.09327 11.5025 8.91621 11.9299 8.91621 12.3756C8.91621 12.8213 9.09327 13.2488 9.40842 13.5639C9.72358 13.8791 10.151 14.0561 10.5967 14.0561C11.0424 14.0561 11.4699 13.8791 11.785 13.5639C12.1002 13.2488 12.2772 12.8213 12.2772 12.3756C12.2772 11.9299 12.1002 11.5025 11.785 11.1873C11.4699 10.8722 11.0424 10.6951 10.5967 10.6951H11.437C11.5349 10.695 11.6298 10.6607 11.7051 10.5981C11.7804 10.5355 11.8315 10.4486 11.8495 10.3523L13.1099 3.63027C13.1213 3.56964 13.1191 3.50724 13.1037 3.44753C13.0882 3.38782 13.0597 3.33224 13.0203 3.28476C12.981 3.23728 12.9316 3.19905 12.8758 3.17279C12.82 3.14654 12.759 3.1329 12.6974 3.13284H2.94201L2.6017 1.77079C2.57902 1.67986 2.5266 1.59912 2.45275 1.54142C2.37891 1.48372 2.28789 1.45236 2.19418 1.45233H0.933799ZM4.22339 9.85487L3.12014 3.97309H12.1915L11.0883 9.85487H4.22339ZM5.5552 12.3756C5.5552 12.5985 5.46667 12.8122 5.30909 12.9698C5.15151 13.1274 4.93779 13.2159 4.71494 13.2159C4.49209 13.2159 4.27837 13.1274 4.12079 12.9698C3.96322 12.8122 3.87469 12.5985 3.87469 12.3756C3.87469 12.1528 3.96322 11.9391 4.12079 11.7815C4.27837 11.6239 4.49209 11.5354 4.71494 11.5354C4.93779 11.5354 5.15151 11.6239 5.30909 11.7815C5.46667 11.9391 5.5552 12.1528 5.5552 12.3756ZM11.437 12.3756C11.437 12.5985 11.3485 12.8122 11.1909 12.9698C11.0333 13.1274 10.8196 13.2159 10.5967 13.2159C10.3739 13.2159 10.1602 13.1274 10.0026 12.9698C9.845 12.8122 9.75647 12.5985 9.75647 12.3756C9.75647 12.1528 9.845 11.9391 10.0026 11.7815C10.1602 11.6239 10.3739 11.5354 10.5967 11.5354C10.8196 11.5354 11.0333 11.6239 11.1909 11.7815C11.3485 11.9391 11.437 12.1528 11.437 12.3756Z" fill="#363330"/>
</svg>
