<svg width="15" height="15" viewBox="0 0 15 15" fill="none" xmlns="http://www.w3.org/2000/svg">
<path d="M8.28834 5.23348C8.28834 5.12206 8.24408 5.0152 8.16529 4.93641C8.0865 4.85762 7.97964 4.81335 7.86821 4.81335C7.75679 4.81335 7.64993 4.85762 7.57114 4.93641C7.49235 5.0152 7.44809 5.12206 7.44809 5.23348V6.49386H6.18771C6.07628 6.49386 5.96942 6.53813 5.89063 6.61692C5.81184 6.6957 5.76758 6.80257 5.76758 6.91399C5.76758 7.02541 5.81184 7.13228 5.89063 7.21106C5.96942 7.28985 6.07628 7.33412 6.18771 7.33412H7.44809V8.5945C7.44809 8.70592 7.49235 8.81278 7.57114 8.89157C7.64993 8.97036 7.75679 9.01463 7.86821 9.01463C7.97964 9.01463 8.0865 8.97036 8.16529 8.89157C8.24408 8.81278 8.28834 8.70592 8.28834 8.5945V7.33412H9.54872C9.66015 7.33412 9.76701 7.28985 9.8458 7.21106C9.92459 7.13228 9.96885 7.02541 9.96885 6.91399C9.96885 6.80257 9.92459 6.6957 9.8458 6.61692C9.76701 6.53813 9.66015 6.49386 9.54872 6.49386H8.28834V5.23348Z" fill="#363330"/>
<path d="M1.14571 1.45227C1.03429 1.45227 0.927427 1.49653 0.848638 1.57532C0.769849 1.65411 0.725586 1.76097 0.725586 1.8724C0.725586 1.98382 0.769849 2.09068 0.848638 2.16947C0.927427 2.24826 1.03429 2.29252 1.14571 2.29252H2.0784L2.41534 3.64281L3.67404 10.3522C3.69206 10.4485 3.74315 10.5355 3.81849 10.5981C3.89382 10.6607 3.98866 10.695 4.0866 10.6951H4.92686C4.48116 10.6951 4.05371 10.8721 3.73856 11.1873C3.4234 11.5024 3.24635 11.9299 3.24635 12.3756C3.24635 12.8213 3.4234 13.2487 3.73856 13.5639C4.05371 13.879 4.48116 14.0561 4.92686 14.0561C5.37256 14.0561 5.8 13.879 6.11516 13.5639C6.43031 13.2487 6.60737 12.8213 6.60737 12.3756C6.60737 11.9299 6.43031 11.5024 6.11516 11.1873C5.8 10.8721 5.37256 10.6951 4.92686 10.6951H10.8086C10.3629 10.6951 9.93549 10.8721 9.62034 11.1873C9.30518 11.5024 9.12813 11.9299 9.12813 12.3756C9.12813 12.8213 9.30518 13.2487 9.62034 13.5639C9.93549 13.879 10.3629 14.0561 10.8086 14.0561C11.2543 14.0561 11.6818 13.879 11.9969 13.5639C12.3121 13.2487 12.4891 12.8213 12.4891 12.3756C12.4891 11.9299 12.3121 11.5024 11.9969 11.1873C11.6818 10.8721 11.2543 10.6951 10.8086 10.6951H11.6489C11.7468 10.695 11.8417 10.6607 11.917 10.5981C11.9923 10.5355 12.0434 10.4485 12.0615 10.3522L13.3218 3.63021C13.3332 3.56957 13.331 3.50718 13.3156 3.44747C13.3001 3.38775 13.2716 3.33218 13.2323 3.2847C13.1929 3.23722 13.1435 3.19899 13.0877 3.17273C13.0319 3.14648 12.971 3.13284 12.9093 3.13278H3.15392L2.81362 1.77073C2.79094 1.6798 2.73851 1.59906 2.66467 1.54136C2.59082 1.48365 2.49981 1.4523 2.40609 1.45227H1.14571ZM4.43531 9.85481L3.33205 3.97303H12.4034L11.3002 9.85481H4.43531ZM5.76711 12.3756C5.76711 12.5984 5.67858 12.8121 5.52101 12.9697C5.36343 13.1273 5.14971 13.2158 4.92686 13.2158C4.70401 13.2158 4.49029 13.1273 4.33271 12.9697C4.17513 12.8121 4.0866 12.5984 4.0866 12.3756C4.0866 12.1527 4.17513 11.939 4.33271 11.7814C4.49029 11.6238 4.70401 11.5353 4.92686 11.5353C5.14971 11.5353 5.36343 11.6238 5.52101 11.7814C5.67858 11.939 5.76711 12.1527 5.76711 12.3756ZM11.6489 12.3756C11.6489 12.5984 11.5604 12.8121 11.4028 12.9697C11.2452 13.1273 11.0315 13.2158 10.8086 13.2158C10.5858 13.2158 10.3721 13.1273 10.2145 12.9697C10.0569 12.8121 9.96838 12.5984 9.96838 12.3756C9.96838 12.1527 10.0569 11.939 10.2145 11.7814C10.3721 11.6238 10.5858 11.5353 10.8086 11.5353C11.0315 11.5353 11.2452 11.6238 11.4028 11.7814C11.5604 11.939 11.6489 12.1527 11.6489 12.3756Z" fill="#363330"/>
</svg>
