<svg width="14" height="15" viewBox="0 0 14 15" fill="none" xmlns="http://www.w3.org/2000/svg">
<path d="M7.94361 5.34347C7.94361 5.23204 7.89935 5.12518 7.82056 5.04639C7.74177 4.9676 7.63491 4.92334 7.52349 4.92334C7.41206 4.92334 7.3052 4.9676 7.22641 5.04639C7.14762 5.12518 7.10336 5.23204 7.10336 5.34347V6.60385H5.84298C5.73155 6.60385 5.62469 6.64811 5.5459 6.7269C5.46711 6.80569 5.42285 6.91255 5.42285 7.02398C5.42285 7.1354 5.46711 7.24226 5.5459 7.32105C5.62469 7.39984 5.73155 7.4441 5.84298 7.4441H7.10336V8.70448C7.10336 8.81591 7.14762 8.92277 7.22641 9.00156C7.3052 9.08035 7.41206 9.12461 7.52349 9.12461C7.63491 9.12461 7.74177 9.08035 7.82056 9.00156C7.89935 8.92277 7.94361 8.81591 7.94361 8.70448V7.4441H9.204C9.31542 7.4441 9.42228 7.39984 9.50107 7.32105C9.57986 7.24226 9.62412 7.1354 9.62412 7.02398C9.62412 6.91255 9.57986 6.80569 9.50107 6.7269C9.42228 6.64811 9.31542 6.60385 9.204 6.60385H7.94361V5.34347Z" fill="#363330"/>
<path d="M0.800986 1.56232C0.689562 1.56232 0.582701 1.60658 0.503912 1.68537C0.425123 1.76416 0.380859 1.87102 0.380859 1.98244C0.380859 2.09387 0.425123 2.20073 0.503912 2.27952C0.582701 2.35831 0.689562 2.40257 0.800986 2.40257H1.73367L2.07061 3.75286L3.32931 10.4623C3.34733 10.5586 3.39843 10.6455 3.47376 10.7081C3.54909 10.7707 3.64393 10.805 3.74188 10.8051H4.58213C4.13643 10.8051 3.70899 10.9822 3.39383 11.2973C3.07868 11.6125 2.90162 12.0399 2.90162 12.4856C2.90162 12.9313 3.07868 13.3588 3.39383 13.6739C3.70899 13.9891 4.13643 14.1661 4.58213 14.1661C5.02783 14.1661 5.45527 13.9891 5.77043 13.6739C6.08559 13.3588 6.26264 12.9313 6.26264 12.4856C6.26264 12.0399 6.08559 11.6125 5.77043 11.2973C5.45527 10.9822 5.02783 10.8051 4.58213 10.8051H10.4639C10.0182 10.8051 9.59077 10.9822 9.27561 11.2973C8.96045 11.6125 8.7834 12.0399 8.7834 12.4856C8.7834 12.9313 8.96045 13.3588 9.27561 13.6739C9.59077 13.9891 10.0182 14.1661 10.4639 14.1661C10.9096 14.1661 11.3371 13.9891 11.6522 13.6739C11.9674 13.3588 12.1444 12.9313 12.1444 12.4856C12.1444 12.0399 11.9674 11.6125 11.6522 11.2973C11.3371 10.9822 10.9096 10.8051 10.4639 10.8051H11.3042C11.4021 10.805 11.4969 10.7707 11.5723 10.7081C11.6476 10.6455 11.6987 10.5586 11.7167 10.4623L12.9771 3.74026C12.9885 3.67962 12.9863 3.61723 12.9708 3.55752C12.9554 3.4978 12.9269 3.44223 12.8875 3.39475C12.8482 3.34726 12.7988 3.30904 12.743 3.28278C12.6872 3.25652 12.6262 3.24288 12.5645 3.24283H2.80919L2.46889 1.88077C2.44621 1.78984 2.39378 1.70911 2.31994 1.6514C2.2461 1.5937 2.15508 1.56234 2.06137 1.56232H0.800986ZM4.09058 9.96486L2.98733 4.08308H12.0587L10.9555 9.96486H4.09058ZM5.42238 12.4856C5.42238 12.7085 5.33386 12.9222 5.17628 13.0798C5.0187 13.2373 4.80498 13.3259 4.58213 13.3259C4.35928 13.3259 4.14556 13.2373 3.98798 13.0798C3.8304 12.9222 3.74188 12.7085 3.74188 12.4856C3.74188 12.2628 3.8304 12.0491 3.98798 11.8915C4.14556 11.7339 4.35928 11.6454 4.58213 11.6454C4.80498 11.6454 5.0187 11.7339 5.17628 11.8915C5.33386 12.0491 5.42238 12.2628 5.42238 12.4856ZM11.3042 12.4856C11.3042 12.7085 11.2156 12.9222 11.0581 13.0798C10.9005 13.2373 10.6868 13.3259 10.4639 13.3259C10.2411 13.3259 10.0273 13.2373 9.86976 13.0798C9.71218 12.9222 9.62366 12.7085 9.62366 12.4856C9.62366 12.2628 9.71218 12.0491 9.86976 11.8915C10.0273 11.7339 10.2411 11.6454 10.4639 11.6454C10.6868 11.6454 10.9005 11.7339 11.0581 11.8915C11.2156 12.0491 11.3042 12.2628 11.3042 12.4856Z" fill="#363330"/>
</svg>
