<svg width="14" height="15" viewBox="0 0 14 15" fill="none" xmlns="http://www.w3.org/2000/svg">
<path d="M7.86842 5.23348C7.86842 5.12206 7.82416 5.0152 7.74537 4.93641C7.66658 4.85762 7.55972 4.81335 7.44829 4.81335C7.33687 4.81335 7.23001 4.85762 7.15122 4.93641C7.07243 5.0152 7.02816 5.12206 7.02816 5.23348V6.49386H5.76778C5.65636 6.49386 5.5495 6.53813 5.47071 6.61692C5.39192 6.6957 5.34766 6.80257 5.34766 6.91399C5.34766 7.02541 5.39192 7.13228 5.47071 7.21106C5.5495 7.28985 5.65636 7.33412 5.76778 7.33412H7.02816V8.5945C7.02816 8.70592 7.07243 8.81278 7.15122 8.89157C7.23001 8.97036 7.33687 9.01463 7.44829 9.01463C7.55972 9.01463 7.66658 8.97036 7.74537 8.89157C7.82416 8.81278 7.86842 8.70592 7.86842 8.5945V7.33412H9.1288C9.24022 7.33412 9.34709 7.28985 9.42588 7.21106C9.50466 7.13228 9.54893 7.02541 9.54893 6.91399C9.54893 6.80257 9.50466 6.6957 9.42588 6.61692C9.34709 6.53813 9.24022 6.49386 9.1288 6.49386H7.86842V5.23348Z" fill="#363330"/>
<path d="M0.725791 1.45227C0.614367 1.45227 0.507506 1.49653 0.428716 1.57532C0.349927 1.65411 0.305664 1.76097 0.305664 1.8724C0.305664 1.98382 0.349927 2.09068 0.428716 2.16947C0.507506 2.24826 0.614367 2.29252 0.725791 2.29252H1.65847L1.99542 3.64281L3.25412 10.3522C3.27214 10.4485 3.32323 10.5355 3.39856 10.5981C3.4739 10.6607 3.56873 10.695 3.66668 10.6951H4.50694C4.06124 10.6951 3.63379 10.8721 3.31864 11.1873C3.00348 11.5024 2.82643 11.9299 2.82643 12.3756C2.82643 12.8213 3.00348 13.2487 3.31864 13.5639C3.63379 13.879 4.06124 14.0561 4.50694 14.0561C4.95263 14.0561 5.38008 13.879 5.69523 13.5639C6.01039 13.2487 6.18744 12.8213 6.18744 12.3756C6.18744 11.9299 6.01039 11.5024 5.69523 11.1873C5.38008 10.8721 4.95263 10.6951 4.50694 10.6951H10.3887C9.94302 10.6951 9.51557 10.8721 9.20042 11.1873C8.88526 11.5024 8.70821 11.9299 8.70821 12.3756C8.70821 12.8213 8.88526 13.2487 9.20042 13.5639C9.51557 13.879 9.94302 14.0561 10.3887 14.0561C10.8344 14.0561 11.2619 13.879 11.577 13.5639C11.8922 13.2487 12.0692 12.8213 12.0692 12.3756C12.0692 11.9299 11.8922 11.5024 11.577 11.1873C11.2619 10.8721 10.8344 10.6951 10.3887 10.6951H11.229C11.3269 10.695 11.4218 10.6607 11.4971 10.5981C11.5724 10.5355 11.6235 10.4485 11.6415 10.3522L12.9019 3.63021C12.9133 3.56957 12.9111 3.50718 12.8956 3.44747C12.8802 3.38775 12.8517 3.33218 12.8123 3.2847C12.773 3.23722 12.7236 3.19899 12.6678 3.17273C12.612 3.14648 12.551 3.13284 12.4894 3.13278H2.734L2.3937 1.77073C2.37102 1.6798 2.31859 1.59906 2.24475 1.54136C2.1709 1.48365 2.07989 1.4523 1.98617 1.45227H0.725791ZM4.01539 9.85481L2.91213 3.97303H11.9835L10.8803 9.85481H4.01539ZM5.34719 12.3756C5.34719 12.5984 5.25866 12.8121 5.10108 12.9697C4.94351 13.1273 4.72978 13.2158 4.50694 13.2158C4.28409 13.2158 4.07036 13.1273 3.91279 12.9697C3.75521 12.8121 3.66668 12.5984 3.66668 12.3756C3.66668 12.1527 3.75521 11.939 3.91279 11.7814C4.07036 11.6238 4.28409 11.5353 4.50694 11.5353C4.72978 11.5353 4.94351 11.6238 5.10108 11.7814C5.25866 11.939 5.34719 12.1527 5.34719 12.3756ZM11.229 12.3756C11.229 12.5984 11.1404 12.8121 10.9829 12.9697C10.8253 13.1273 10.6116 13.2158 10.3887 13.2158C10.1659 13.2158 9.95214 13.1273 9.79457 12.9697C9.63699 12.8121 9.54846 12.5984 9.54846 12.3756C9.54846 12.1527 9.63699 11.939 9.79457 11.7814C9.95214 11.6238 10.1659 11.5353 10.3887 11.5353C10.6116 11.5353 10.8253 11.6238 10.9829 11.7814C11.1404 11.939 11.229 12.1527 11.229 12.3756Z" fill="#363330"/>
</svg>
