<svg width="14" height="14" viewBox="0 0 14 14" fill="none" xmlns="http://www.w3.org/2000/svg">
<path d="M7.85377 5.03597C7.85377 4.92455 7.80951 4.81769 7.73072 4.7389C7.65193 4.66011 7.54507 4.61584 7.43364 4.61584C7.32222 4.61584 7.21536 4.66011 7.13657 4.7389C7.05778 4.81769 7.01352 4.92455 7.01352 5.03597V6.29635H5.75313C5.64171 6.29635 5.53485 6.34062 5.45606 6.41941C5.37727 6.49819 5.33301 6.60506 5.33301 6.71648C5.33301 6.8279 5.37727 6.93477 5.45606 7.01355C5.53485 7.09234 5.64171 7.13661 5.75313 7.13661H7.01352V8.39699C7.01352 8.50841 7.05778 8.61527 7.13657 8.69406C7.21536 8.77285 7.32222 8.81712 7.43364 8.81712C7.54507 8.81712 7.65193 8.77285 7.73072 8.69406C7.80951 8.61527 7.85377 8.50841 7.85377 8.39699V7.13661H9.11415C9.22558 7.13661 9.33244 7.09234 9.41123 7.01355C9.49002 6.93477 9.53428 6.8279 9.53428 6.71648C9.53428 6.60506 9.49002 6.49819 9.41123 6.41941C9.33244 6.34062 9.22558 6.29635 9.11415 6.29635H7.85377V5.03597Z" fill="#363330"/>
<path d="M0.711143 1.25476C0.599718 1.25476 0.492857 1.29902 0.414068 1.37781C0.335279 1.4566 0.291016 1.56346 0.291016 1.67489C0.291016 1.78631 0.335279 1.89317 0.414068 1.97196C0.492857 2.05075 0.599718 2.09501 0.711143 2.09501H1.64382L1.98077 3.4453L3.23947 10.1547C3.25749 10.251 3.30858 10.338 3.38392 10.4006C3.45925 10.4632 3.55409 10.4975 3.65203 10.4976H4.49229C4.04659 10.4976 3.61914 10.6746 3.30399 10.9898C2.98883 11.3049 2.81178 11.7324 2.81178 12.1781C2.81178 12.6238 2.98883 13.0512 3.30399 13.3664C3.61914 13.6815 4.04659 13.8586 4.49229 13.8586C4.93799 13.8586 5.36543 13.6815 5.68059 13.3664C5.99574 13.0512 6.1728 12.6238 6.1728 12.1781C6.1728 11.7324 5.99574 11.3049 5.68059 10.9898C5.36543 10.6746 4.93799 10.4976 4.49229 10.4976H10.3741C9.92837 10.4976 9.50092 10.6746 9.18577 10.9898C8.87061 11.3049 8.69356 11.7324 8.69356 12.1781C8.69356 12.6238 8.87061 13.0512 9.18577 13.3664C9.50092 13.6815 9.92837 13.8586 10.3741 13.8586C10.8198 13.8586 11.2472 13.6815 11.5624 13.3664C11.8775 13.0512 12.0546 12.6238 12.0546 12.1781C12.0546 11.7324 11.8775 11.3049 11.5624 10.9898C11.2472 10.6746 10.8198 10.4976 10.3741 10.4976H11.2143C11.3123 10.4975 11.4071 10.4632 11.4824 10.4006C11.5578 10.338 11.6089 10.251 11.6269 10.1547L12.8873 3.4327C12.8986 3.37206 12.8965 3.30967 12.881 3.24996C12.8655 3.19024 12.8371 3.13467 12.7977 3.08719C12.7583 3.03971 12.709 3.00148 12.6531 2.97522C12.5973 2.94897 12.5364 2.93533 12.4747 2.93527H2.71935L2.37905 1.57322C2.35637 1.48229 2.30394 1.40155 2.2301 1.34385C2.15625 1.28614 2.06524 1.25479 1.97152 1.25476H0.711143ZM4.00074 9.6573L2.89748 3.77552H11.9689L10.8656 9.6573H4.00074ZM5.33254 12.1781C5.33254 12.4009 5.24401 12.6146 5.08644 12.7722C4.92886 12.9298 4.71514 13.0183 4.49229 13.0183C4.26944 13.0183 4.05572 12.9298 3.89814 12.7722C3.74056 12.6146 3.65203 12.4009 3.65203 12.1781C3.65203 11.9552 3.74056 11.7415 3.89814 11.5839C4.05572 11.4263 4.26944 11.3378 4.49229 11.3378C4.71514 11.3378 4.92886 11.4263 5.08644 11.5839C5.24401 11.7415 5.33254 11.9552 5.33254 12.1781ZM11.2143 12.1781C11.2143 12.4009 11.1258 12.6146 10.9682 12.7722C10.8106 12.9298 10.5969 13.0183 10.3741 13.0183C10.1512 13.0183 9.9375 12.9298 9.77992 12.7722C9.62234 12.6146 9.53381 12.4009 9.53381 12.1781C9.53381 11.9552 9.62234 11.7415 9.77992 11.5839C9.9375 11.4263 10.1512 11.3378 10.3741 11.3378C10.5969 11.3378 10.8106 11.4263 10.9682 11.5839C11.1258 11.7415 11.2143 11.9552 11.2143 12.1781Z" fill="#363330"/>
</svg>
