<svg width="15" height="15" viewBox="0 0 15 15" fill="none" xmlns="http://www.w3.org/2000/svg">
<path d="M8.33033 5.23348C8.33033 5.12206 8.28607 5.0152 8.20728 4.93641C8.12849 4.85762 8.02163 4.81335 7.91021 4.81335C7.79878 4.81335 7.69192 4.85762 7.61313 4.93641C7.53434 5.0152 7.49008 5.12206 7.49008 5.23348V6.49386H6.2297C6.11827 6.49386 6.01141 6.53813 5.93262 6.61692C5.85383 6.6957 5.80957 6.80257 5.80957 6.91399C5.80957 7.02541 5.85383 7.13228 5.93262 7.21106C6.01141 7.28985 6.11827 7.33412 6.2297 7.33412H7.49008V8.5945C7.49008 8.70592 7.53434 8.81278 7.61313 8.89157C7.69192 8.97036 7.79878 9.01463 7.91021 9.01463C8.02163 9.01463 8.12849 8.97036 8.20728 8.89157C8.28607 8.81278 8.33033 8.70592 8.33033 8.5945V7.33412H9.59071C9.70214 7.33412 9.809 7.28985 9.88779 7.21106C9.96658 7.13228 10.0108 7.02541 10.0108 6.91399C10.0108 6.80257 9.96658 6.6957 9.88779 6.61692C9.809 6.53813 9.70214 6.49386 9.59071 6.49386H8.33033V5.23348Z" fill="#363330"/>
<path d="M1.18771 1.45227C1.07628 1.45227 0.96942 1.49653 0.890631 1.57532C0.811841 1.65411 0.767578 1.76097 0.767578 1.8724C0.767578 1.98382 0.811841 2.09068 0.890631 2.16947C0.96942 2.24826 1.07628 2.29252 1.18771 2.29252H2.12039L2.45733 3.64281L3.71603 10.3522C3.73405 10.4485 3.78515 10.5355 3.86048 10.5981C3.93581 10.6607 4.03065 10.695 4.1286 10.6951H4.96885C4.52315 10.6951 4.09571 10.8721 3.78055 11.1873C3.46539 11.5024 3.28834 11.9299 3.28834 12.3756C3.28834 12.8213 3.46539 13.2487 3.78055 13.5639C4.09571 13.879 4.52315 14.0561 4.96885 14.0561C5.41455 14.0561 5.84199 13.879 6.15715 13.5639C6.4723 13.2487 6.64936 12.8213 6.64936 12.3756C6.64936 11.9299 6.4723 11.5024 6.15715 11.1873C5.84199 10.8721 5.41455 10.6951 4.96885 10.6951H10.8506C10.4049 10.6951 9.97749 10.8721 9.66233 11.1873C9.34717 11.5024 9.17012 11.9299 9.17012 12.3756C9.17012 12.8213 9.34717 13.2487 9.66233 13.5639C9.97749 13.879 10.4049 14.0561 10.8506 14.0561C11.2963 14.0561 11.7238 13.879 12.0389 13.5639C12.3541 13.2487 12.5311 12.8213 12.5311 12.3756C12.5311 11.9299 12.3541 11.5024 12.0389 11.1873C11.7238 10.8721 11.2963 10.6951 10.8506 10.6951H11.6909C11.7888 10.695 11.8837 10.6607 11.959 10.5981C12.0343 10.5355 12.0854 10.4485 12.1034 10.3522L13.3638 3.63021C13.3752 3.56957 13.373 3.50718 13.3576 3.44747C13.3421 3.38775 13.3136 3.33218 13.2743 3.2847C13.2349 3.23722 13.1855 3.19899 13.1297 3.17273C13.0739 3.14648 13.013 3.13284 12.9513 3.13278H3.19591L2.85561 1.77073C2.83293 1.6798 2.7805 1.59906 2.70666 1.54136C2.63282 1.48365 2.5418 1.4523 2.44809 1.45227H1.18771ZM4.4773 9.85481L3.37405 3.97303H12.4454L11.3422 9.85481H4.4773ZM5.8091 12.3756C5.8091 12.5984 5.72058 12.8121 5.563 12.9697C5.40542 13.1273 5.1917 13.2158 4.96885 13.2158C4.746 13.2158 4.53228 13.1273 4.3747 12.9697C4.21712 12.8121 4.1286 12.5984 4.1286 12.3756C4.1286 12.1527 4.21712 11.939 4.3747 11.7814C4.53228 11.6238 4.746 11.5353 4.96885 11.5353C5.1917 11.5353 5.40542 11.6238 5.563 11.7814C5.72058 11.939 5.8091 12.1527 5.8091 12.3756ZM11.6909 12.3756C11.6909 12.5984 11.6024 12.8121 11.4448 12.9697C11.2872 13.1273 11.0735 13.2158 10.8506 13.2158C10.6278 13.2158 10.4141 13.1273 10.2565 12.9697C10.0989 12.8121 10.0104 12.5984 10.0104 12.3756C10.0104 12.1527 10.0989 11.939 10.2565 11.7814C10.4141 11.6238 10.6278 11.5353 10.8506 11.5353C11.0735 11.5353 11.2872 11.6238 11.4448 11.7814C11.6024 11.939 11.6909 12.1527 11.6909 12.3756Z" fill="#363330"/>
</svg>
