<svg width="15" height="15" viewBox="0 0 15 15" fill="none" xmlns="http://www.w3.org/2000/svg">
<path d="M8.41041 5.34347C8.41041 5.23204 8.36615 5.12518 8.28736 5.04639C8.20857 4.9676 8.10171 4.92334 7.99028 4.92334C7.87886 4.92334 7.772 4.9676 7.69321 5.04639C7.61442 5.12518 7.57016 5.23204 7.57016 5.34347V6.60385H6.30978C6.19835 6.60385 6.09149 6.64811 6.0127 6.7269C5.93391 6.80569 5.88965 6.91255 5.88965 7.02398C5.88965 7.1354 5.93391 7.24226 6.0127 7.32105C6.09149 7.39984 6.19835 7.4441 6.30978 7.4441H7.57016V8.70448C7.57016 8.81591 7.61442 8.92277 7.69321 9.00156C7.772 9.08035 7.87886 9.12461 7.99028 9.12461C8.10171 9.12461 8.20857 9.08035 8.28736 9.00156C8.36615 8.92277 8.41041 8.81591 8.41041 8.70448V7.4441H9.67079C9.78222 7.4441 9.88908 7.39984 9.96787 7.32105C10.0467 7.24226 10.0909 7.1354 10.0909 7.02398C10.0909 6.91255 10.0467 6.80569 9.96787 6.7269C9.88908 6.64811 9.78222 6.60385 9.67079 6.60385H8.41041V5.34347Z" fill="#363330"/>
<path d="M1.26778 1.56232C1.15636 1.56232 1.0495 1.60658 0.970709 1.68537C0.89192 1.76416 0.847656 1.87102 0.847656 1.98244C0.847656 2.09387 0.89192 2.20073 0.970709 2.27952C1.0495 2.35831 1.15636 2.40257 1.26778 2.40257H2.20047L2.53741 3.75286L3.79611 10.4623C3.81413 10.5586 3.86522 10.6455 3.94056 10.7081C4.01589 10.7707 4.11073 10.805 4.20867 10.8051H5.04893C4.60323 10.8051 4.17578 10.9822 3.86063 11.2973C3.54547 11.6125 3.36842 12.0399 3.36842 12.4856C3.36842 12.9313 3.54547 13.3588 3.86063 13.6739C4.17578 13.9891 4.60323 14.1661 5.04893 14.1661C5.49463 14.1661 5.92207 13.9891 6.23723 13.6739C6.55238 13.3588 6.72944 12.9313 6.72944 12.4856C6.72944 12.0399 6.55238 11.6125 6.23723 11.2973C5.92207 10.9822 5.49463 10.8051 5.04893 10.8051H10.9307C10.485 10.8051 10.0576 10.9822 9.74241 11.2973C9.42725 11.6125 9.2502 12.0399 9.2502 12.4856C9.2502 12.9313 9.42725 13.3588 9.74241 13.6739C10.0576 13.9891 10.485 14.1661 10.9307 14.1661C11.3764 14.1661 11.8038 13.9891 12.119 13.6739C12.4342 13.3588 12.6112 12.9313 12.6112 12.4856C12.6112 12.0399 12.4342 11.6125 12.119 11.2973C11.8038 10.9822 11.3764 10.8051 10.9307 10.8051H11.771C11.8689 10.805 11.9637 10.7707 12.0391 10.7081C12.1144 10.6455 12.1655 10.5586 12.1835 10.4623L13.4439 3.74026C13.4553 3.67962 13.4531 3.61723 13.4376 3.55752C13.4222 3.4978 13.3937 3.44223 13.3543 3.39475C13.3149 3.34726 13.2656 3.30904 13.2098 3.28278C13.154 3.25652 13.093 3.24288 13.0313 3.24283H3.27599L2.93569 1.88077C2.91301 1.78984 2.86058 1.70911 2.78674 1.6514C2.71289 1.5937 2.62188 1.56234 2.52816 1.56232H1.26778ZM4.55738 9.96486L3.45412 4.08308H12.5255L11.4223 9.96486H4.55738ZM5.88918 12.4856C5.88918 12.7085 5.80065 12.9222 5.64308 13.0798C5.4855 13.2373 5.27178 13.3259 5.04893 13.3259C4.82608 13.3259 4.61236 13.2373 4.45478 13.0798C4.2972 12.9222 4.20867 12.7085 4.20867 12.4856C4.20867 12.2628 4.2972 12.0491 4.45478 11.8915C4.61236 11.7339 4.82608 11.6454 5.04893 11.6454C5.27178 11.6454 5.4855 11.7339 5.64308 11.8915C5.80065 12.0491 5.88918 12.2628 5.88918 12.4856ZM11.771 12.4856C11.771 12.7085 11.6824 12.9222 11.5249 13.0798C11.3673 13.2373 11.1536 13.3259 10.9307 13.3259C10.7079 13.3259 10.4941 13.2373 10.3366 13.0798C10.179 12.9222 10.0905 12.7085 10.0905 12.4856C10.0905 12.2628 10.179 12.0491 10.3366 11.8915C10.4941 11.7339 10.7079 11.6454 10.9307 11.6454C11.1536 11.6454 11.3673 11.7339 11.5249 11.8915C11.6824 12.0491 11.771 12.2628 11.771 12.4856Z" fill="#363330"/>
</svg>
