<svg width="14" height="15" viewBox="0 0 14 15" fill="none" xmlns="http://www.w3.org/2000/svg">
<path d="M8.07643 5.23348C8.07643 5.12206 8.03216 5.0152 7.95337 4.93641C7.87459 4.85762 7.76772 4.81335 7.6563 4.81335C7.54487 4.81335 7.43801 4.85762 7.35922 4.93641C7.28044 5.0152 7.23617 5.12206 7.23617 5.23348V6.49386H5.97579C5.86437 6.49386 5.75751 6.53813 5.67872 6.61692C5.59993 6.6957 5.55566 6.80257 5.55566 6.91399C5.55566 7.02541 5.59993 7.13228 5.67872 7.21106C5.75751 7.28985 5.86437 7.33412 5.97579 7.33412H7.23617V8.5945C7.23617 8.70592 7.28044 8.81278 7.35922 8.89157C7.43801 8.97036 7.54487 9.01463 7.6563 9.01463C7.76772 9.01463 7.87459 8.97036 7.95337 8.89157C8.03216 8.81278 8.07643 8.70592 8.07643 8.5945V7.33412H9.33681C9.44823 7.33412 9.55509 7.28985 9.63388 7.21106C9.71267 7.13228 9.75694 7.02541 9.75694 6.91399C9.75694 6.80257 9.71267 6.6957 9.63388 6.61692C9.55509 6.53813 9.44823 6.49386 9.33681 6.49386H8.07643V5.23348Z" fill="#363330"/>
<path d="M0.933799 1.45227C0.822374 1.45227 0.715513 1.49653 0.636724 1.57532C0.557935 1.65411 0.513672 1.76097 0.513672 1.8724C0.513672 1.98382 0.557935 2.09068 0.636724 2.16947C0.715513 2.24826 0.822374 2.29252 0.933799 2.29252H1.86648L2.20342 3.64281L3.46212 10.3522C3.48015 10.4485 3.53124 10.5355 3.60657 10.5981C3.68191 10.6607 3.77674 10.695 3.87469 10.6951H4.71494C4.26924 10.6951 3.8418 10.8721 3.52664 11.1873C3.21149 11.5024 3.03443 11.9299 3.03443 12.3756C3.03443 12.8213 3.21149 13.2487 3.52664 13.5639C3.8418 13.879 4.26924 14.0561 4.71494 14.0561C5.16064 14.0561 5.58809 13.879 5.90324 13.5639C6.2184 13.2487 6.39545 12.8213 6.39545 12.3756C6.39545 11.9299 6.2184 11.5024 5.90324 11.1873C5.58809 10.8721 5.16064 10.6951 4.71494 10.6951H10.5967C10.151 10.6951 9.72358 10.8721 9.40842 11.1873C9.09327 11.5024 8.91621 11.9299 8.91621 12.3756C8.91621 12.8213 9.09327 13.2487 9.40842 13.5639C9.72358 13.879 10.151 14.0561 10.5967 14.0561C11.0424 14.0561 11.4699 13.879 11.785 13.5639C12.1002 13.2487 12.2772 12.8213 12.2772 12.3756C12.2772 11.9299 12.1002 11.5024 11.785 11.1873C11.4699 10.8721 11.0424 10.6951 10.5967 10.6951H11.437C11.5349 10.695 11.6298 10.6607 11.7051 10.5981C11.7804 10.5355 11.8315 10.4485 11.8495 10.3522L13.1099 3.63021C13.1213 3.56957 13.1191 3.50718 13.1037 3.44747C13.0882 3.38775 13.0597 3.33218 13.0203 3.2847C12.981 3.23722 12.9316 3.19899 12.8758 3.17273C12.82 3.14648 12.759 3.13284 12.6974 3.13278H2.94201L2.6017 1.77073C2.57902 1.6798 2.5266 1.59906 2.45275 1.54136C2.37891 1.48365 2.28789 1.4523 2.19418 1.45227H0.933799ZM4.22339 9.85481L3.12014 3.97303H12.1915L11.0883 9.85481H4.22339ZM5.5552 12.3756C5.5552 12.5984 5.46667 12.8121 5.30909 12.9697C5.15151 13.1273 4.93779 13.2158 4.71494 13.2158C4.49209 13.2158 4.27837 13.1273 4.12079 12.9697C3.96322 12.8121 3.87469 12.5984 3.87469 12.3756C3.87469 12.1527 3.96322 11.939 4.12079 11.7814C4.27837 11.6238 4.49209 11.5353 4.71494 11.5353C4.93779 11.5353 5.15151 11.6238 5.30909 11.7814C5.46667 11.939 5.5552 12.1527 5.5552 12.3756ZM11.437 12.3756C11.437 12.5984 11.3485 12.8121 11.1909 12.9697C11.0333 13.1273 10.8196 13.2158 10.5967 13.2158C10.3739 13.2158 10.1602 13.1273 10.0026 12.9697C9.845 12.8121 9.75647 12.5984 9.75647 12.3756C9.75647 12.1527 9.845 11.939 10.0026 11.7814C10.1602 11.6238 10.3739 11.5353 10.5967 11.5353C10.8196 11.5353 11.0333 11.6238 11.1909 11.7814C11.3485 11.939 11.437 12.1527 11.437 12.3756Z" fill="#363330"/>
</svg>
