<svg width="15" height="15" viewBox="0 0 15 15" fill="none" xmlns="http://www.w3.org/2000/svg">
<path d="M8.28736 5.23348C8.28736 5.12206 8.2431 5.0152 8.16431 4.93641C8.08552 4.85762 7.97866 4.81335 7.86724 4.81335C7.75581 4.81335 7.64895 4.85762 7.57016 4.93641C7.49137 5.0152 7.44711 5.12206 7.44711 5.23348V6.49386H6.18673C6.0753 6.49386 5.96844 6.53813 5.88965 6.61692C5.81086 6.6957 5.7666 6.80257 5.7666 6.91399C5.7666 7.02541 5.81086 7.13228 5.88965 7.21106C5.96844 7.28985 6.0753 7.33412 6.18673 7.33412H7.44711V8.5945C7.44711 8.70592 7.49137 8.81278 7.57016 8.89157C7.64895 8.97036 7.75581 9.01463 7.86724 9.01463C7.97866 9.01463 8.08552 8.97036 8.16431 8.89157C8.2431 8.81278 8.28736 8.70592 8.28736 8.5945V7.33412H9.54775C9.65917 7.33412 9.76603 7.28985 9.84482 7.21106C9.92361 7.13228 9.96787 7.02541 9.96787 6.91399C9.96787 6.80257 9.92361 6.6957 9.84482 6.61692C9.76603 6.53813 9.65917 6.49386 9.54775 6.49386H8.28736V5.23348Z" fill="#363330"/>
<path d="M1.14474 1.45227C1.03331 1.45227 0.926451 1.49653 0.847662 1.57532C0.768873 1.65411 0.724609 1.76097 0.724609 1.8724C0.724609 1.98382 0.768873 2.09068 0.847662 2.16947C0.926451 2.24826 1.03331 2.29252 1.14474 2.29252H2.07742L2.41436 3.64281L3.67306 10.3522C3.69108 10.4485 3.74218 10.5355 3.81751 10.5981C3.89284 10.6607 3.98768 10.695 4.08563 10.6951H4.92588C4.48018 10.6951 4.05274 10.8721 3.73758 11.1873C3.42243 11.5024 3.24537 11.9299 3.24537 12.3756C3.24537 12.8213 3.42243 13.2487 3.73758 13.5639C4.05274 13.879 4.48018 14.0561 4.92588 14.0561C5.37158 14.0561 5.79902 13.879 6.11418 13.5639C6.42934 13.2487 6.60639 12.8213 6.60639 12.3756C6.60639 11.9299 6.42934 11.5024 6.11418 11.1873C5.79902 10.8721 5.37158 10.6951 4.92588 10.6951H10.8077C10.362 10.6951 9.93452 10.8721 9.61936 11.1873C9.3042 11.5024 9.12715 11.9299 9.12715 12.3756C9.12715 12.8213 9.3042 13.2487 9.61936 13.5639C9.93452 13.879 10.362 14.0561 10.8077 14.0561C11.2534 14.0561 11.6808 13.879 11.996 13.5639C12.3111 13.2487 12.4882 12.8213 12.4882 12.3756C12.4882 11.9299 12.3111 11.5024 11.996 11.1873C11.6808 10.8721 11.2534 10.6951 10.8077 10.6951H11.6479C11.7459 10.695 11.8407 10.6607 11.916 10.5981C11.9914 10.5355 12.0425 10.4485 12.0605 10.3522L13.3209 3.63021C13.3322 3.56957 13.3301 3.50718 13.3146 3.44747C13.2991 3.38775 13.2707 3.33218 13.2313 3.2847C13.1919 3.23722 13.1425 3.19899 13.0867 3.17273C13.0309 3.14648 12.97 3.13284 12.9083 3.13278H3.15294L2.81264 1.77073C2.78996 1.6798 2.73753 1.59906 2.66369 1.54136C2.58985 1.48365 2.49883 1.4523 2.40512 1.45227H1.14474ZM4.43433 9.85481L3.33108 3.97303H12.4025L11.2992 9.85481H4.43433ZM5.76613 12.3756C5.76613 12.5984 5.67761 12.8121 5.52003 12.9697C5.36245 13.1273 5.14873 13.2158 4.92588 13.2158C4.70303 13.2158 4.48931 13.1273 4.33173 12.9697C4.17415 12.8121 4.08563 12.5984 4.08563 12.3756C4.08563 12.1527 4.17415 11.939 4.33173 11.7814C4.48931 11.6238 4.70303 11.5353 4.92588 11.5353C5.14873 11.5353 5.36245 11.6238 5.52003 11.7814C5.67761 11.939 5.76613 12.1527 5.76613 12.3756ZM11.6479 12.3756C11.6479 12.5984 11.5594 12.8121 11.4018 12.9697C11.2442 13.1273 11.0305 13.2158 10.8077 13.2158C10.5848 13.2158 10.3711 13.1273 10.2135 12.9697C10.0559 12.8121 9.96741 12.5984 9.96741 12.3756C9.96741 12.1527 10.0559 11.939 10.2135 11.7814C10.3711 11.6238 10.5848 11.5353 10.8077 11.5353C11.0305 11.5353 11.2442 11.6238 11.4018 11.7814C11.5594 11.939 11.6479 12.1527 11.6479 12.3756Z" fill="#363330"/>
</svg>
