<svg width="15" height="15" viewBox="0 0 15 15" fill="none" xmlns="http://www.w3.org/2000/svg">
<path d="M8.32838 5.34347C8.32838 5.23204 8.28412 5.12518 8.20533 5.04639C8.12654 4.9676 8.01968 4.92334 7.90825 4.92334C7.79683 4.92334 7.68997 4.9676 7.61118 5.04639C7.53239 5.12518 7.48813 5.23204 7.48813 5.34347V6.60385H6.22774C6.11632 6.60385 6.00946 6.64811 5.93067 6.7269C5.85188 6.80569 5.80762 6.91255 5.80762 7.02398C5.80762 7.1354 5.85188 7.24226 5.93067 7.32105C6.00946 7.39984 6.11632 7.4441 6.22774 7.4441H7.48813V8.70448C7.48813 8.81591 7.53239 8.92277 7.61118 9.00156C7.68997 9.08035 7.79683 9.12461 7.90825 9.12461C8.01968 9.12461 8.12654 9.08035 8.20533 9.00156C8.28412 8.92277 8.32838 8.81591 8.32838 8.70448V7.4441H9.58876C9.70019 7.4441 9.80705 7.39984 9.88584 7.32105C9.96463 7.24226 10.0089 7.1354 10.0089 7.02398C10.0089 6.91255 9.96463 6.80569 9.88584 6.7269C9.80705 6.64811 9.70019 6.60385 9.58876 6.60385H8.32838V5.34347Z" fill="#363330"/>
<path d="M1.18575 1.56232C1.07433 1.56232 0.967467 1.60658 0.888677 1.68537C0.809888 1.76416 0.765625 1.87102 0.765625 1.98244C0.765625 2.09387 0.809888 2.20073 0.888677 2.27952C0.967467 2.35831 1.07433 2.40257 1.18575 2.40257H2.11843L2.45538 3.75286L3.71408 10.4623C3.7321 10.5586 3.78319 10.6455 3.85853 10.7081C3.93386 10.7707 4.0287 10.805 4.12664 10.8051H4.9669C4.5212 10.8051 4.09375 10.9822 3.7786 11.2973C3.46344 11.6125 3.28639 12.0399 3.28639 12.4856C3.28639 12.9313 3.46344 13.3588 3.7786 13.6739C4.09375 13.9891 4.5212 14.1661 4.9669 14.1661C5.41259 14.1661 5.84004 13.9891 6.1552 13.6739C6.47035 13.3588 6.6474 12.9313 6.6474 12.4856C6.6474 12.0399 6.47035 11.6125 6.1552 11.2973C5.84004 10.9822 5.41259 10.8051 4.9669 10.8051H10.8487C10.403 10.8051 9.97553 10.9822 9.66038 11.2973C9.34522 11.6125 9.16817 12.0399 9.16817 12.4856C9.16817 12.9313 9.34522 13.3588 9.66038 13.6739C9.97553 13.9891 10.403 14.1661 10.8487 14.1661C11.2944 14.1661 11.7218 13.9891 12.037 13.6739C12.3521 13.3588 12.5292 12.9313 12.5292 12.4856C12.5292 12.0399 12.3521 11.6125 12.037 11.2973C11.7218 10.9822 11.2944 10.8051 10.8487 10.8051H11.6889C11.7869 10.805 11.8817 10.7707 11.957 10.7081C12.0324 10.6455 12.0835 10.5586 12.1015 10.4623L13.3619 3.74026C13.3732 3.67962 13.3711 3.61723 13.3556 3.55752C13.3401 3.4978 13.3117 3.44223 13.2723 3.39475C13.2329 3.34726 13.1836 3.30904 13.1277 3.28278C13.0719 3.25652 13.011 3.24288 12.9493 3.24283H3.19396L2.85366 1.88077C2.83098 1.78984 2.77855 1.70911 2.70471 1.6514C2.63086 1.5937 2.53985 1.56234 2.44613 1.56232H1.18575ZM4.47535 9.96486L3.37209 4.08308H12.4435L11.3402 9.96486H4.47535ZM5.80715 12.4856C5.80715 12.7085 5.71862 12.9222 5.56105 13.0798C5.40347 13.2373 5.18975 13.3259 4.9669 13.3259C4.74405 13.3259 4.53033 13.2373 4.37275 13.0798C4.21517 12.9222 4.12664 12.7085 4.12664 12.4856C4.12664 12.2628 4.21517 12.0491 4.37275 11.8915C4.53033 11.7339 4.74405 11.6454 4.9669 11.6454C5.18975 11.6454 5.40347 11.7339 5.56105 11.8915C5.71862 12.0491 5.80715 12.2628 5.80715 12.4856ZM11.6889 12.4856C11.6889 12.7085 11.6004 12.9222 11.4428 13.0798C11.2852 13.2373 11.0715 13.3259 10.8487 13.3259C10.6258 13.3259 10.4121 13.2373 10.2545 13.0798C10.0969 12.9222 10.0084 12.7085 10.0084 12.4856C10.0084 12.2628 10.0969 12.0491 10.2545 11.8915C10.4121 11.7339 10.6258 11.6454 10.8487 11.6454C11.0715 11.6454 11.2852 11.7339 11.4428 11.8915C11.6004 12.0491 11.6889 12.2628 11.6889 12.4856Z" fill="#363330"/>
</svg>
