<svg width="15" height="14" viewBox="0 0 15 14" fill="none" xmlns="http://www.w3.org/2000/svg">
<path d="M8.36842 5.03597C8.36842 4.92455 8.32416 4.81769 8.24537 4.7389C8.16658 4.66011 8.05972 4.61584 7.94829 4.61584C7.83687 4.61584 7.73001 4.66011 7.65122 4.7389C7.57243 4.81769 7.52816 4.92455 7.52816 5.03597V6.29635H6.26778C6.15636 6.29635 6.0495 6.34062 5.97071 6.41941C5.89192 6.49819 5.84766 6.60506 5.84766 6.71648C5.84766 6.8279 5.89192 6.93477 5.97071 7.01355C6.0495 7.09234 6.15636 7.13661 6.26778 7.13661H7.52816V8.39699C7.52816 8.50841 7.57243 8.61527 7.65122 8.69406C7.73001 8.77285 7.83687 8.81712 7.94829 8.81712C8.05972 8.81712 8.16658 8.77285 8.24537 8.69406C8.32416 8.61527 8.36842 8.50841 8.36842 8.39699V7.13661H9.6288C9.74022 7.13661 9.84709 7.09234 9.92588 7.01355C10.0047 6.93477 10.0489 6.8279 10.0489 6.71648C10.0489 6.60506 10.0047 6.49819 9.92588 6.41941C9.84709 6.34062 9.74022 6.29635 9.6288 6.29635H8.36842V5.03597Z" fill="#363330"/>
<path d="M1.22579 1.25476C1.11437 1.25476 1.00751 1.29902 0.928716 1.37781C0.849927 1.4566 0.805664 1.56346 0.805664 1.67489C0.805664 1.78631 0.849927 1.89317 0.928716 1.97196C1.00751 2.05075 1.11437 2.09501 1.22579 2.09501H2.15847L2.49542 3.4453L3.75412 10.1547C3.77214 10.251 3.82323 10.338 3.89856 10.4006C3.9739 10.4632 4.06873 10.4975 4.16668 10.4976H5.00694C4.56124 10.4976 4.13379 10.6746 3.81864 10.9898C3.50348 11.3049 3.32643 11.7324 3.32643 12.1781C3.32643 12.6238 3.50348 13.0512 3.81864 13.3664C4.13379 13.6815 4.56124 13.8586 5.00694 13.8586C5.45263 13.8586 5.88008 13.6815 6.19523 13.3664C6.51039 13.0512 6.68744 12.6238 6.68744 12.1781C6.68744 11.7324 6.51039 11.3049 6.19523 10.9898C5.88008 10.6746 5.45263 10.4976 5.00694 10.4976H10.8887C10.443 10.4976 10.0156 10.6746 9.70042 10.9898C9.38526 11.3049 9.20821 11.7324 9.20821 12.1781C9.20821 12.6238 9.38526 13.0512 9.70042 13.3664C10.0156 13.6815 10.443 13.8586 10.8887 13.8586C11.3344 13.8586 11.7619 13.6815 12.077 13.3664C12.3922 13.0512 12.5692 12.6238 12.5692 12.1781C12.5692 11.7324 12.3922 11.3049 12.077 10.9898C11.7619 10.6746 11.3344 10.4976 10.8887 10.4976H11.729C11.8269 10.4975 11.9218 10.4632 11.9971 10.4006C12.0724 10.338 12.1235 10.251 12.1415 10.1547L13.4019 3.4327C13.4133 3.37206 13.4111 3.30967 13.3956 3.24996C13.3802 3.19024 13.3517 3.13467 13.3123 3.08719C13.273 3.03971 13.2236 3.00148 13.1678 2.97522C13.112 2.94897 13.051 2.93533 12.9894 2.93527H3.234L2.8937 1.57322C2.87102 1.48229 2.81859 1.40155 2.74475 1.34385C2.6709 1.28614 2.57989 1.25479 2.48617 1.25476H1.22579ZM4.51539 9.6573L3.41213 3.77552H12.4835L11.3803 9.6573H4.51539ZM5.84719 12.1781C5.84719 12.4009 5.75866 12.6146 5.60108 12.7722C5.44351 12.9298 5.22978 13.0183 5.00694 13.0183C4.78409 13.0183 4.57036 12.9298 4.41279 12.7722C4.25521 12.6146 4.16668 12.4009 4.16668 12.1781C4.16668 11.9552 4.25521 11.7415 4.41279 11.5839C4.57036 11.4263 4.78409 11.3378 5.00694 11.3378C5.22978 11.3378 5.44351 11.4263 5.60108 11.5839C5.75866 11.7415 5.84719 11.9552 5.84719 12.1781ZM11.729 12.1781C11.729 12.4009 11.6404 12.6146 11.4829 12.7722C11.3253 12.9298 11.1116 13.0183 10.8887 13.0183C10.6659 13.0183 10.4521 12.9298 10.2946 12.7722C10.137 12.6146 10.0485 12.4009 10.0485 12.1781C10.0485 11.9552 10.137 11.7415 10.2946 11.5839C10.4521 11.4263 10.6659 11.3378 10.8887 11.3378C11.1116 11.3378 11.3253 11.4263 11.4829 11.5839C11.6404 11.7415 11.729 11.9552 11.729 12.1781Z" fill="#363330"/>
</svg>
