<svg width="14" height="14" viewBox="0 0 14 14" fill="none" xmlns="http://www.w3.org/2000/svg">
<path d="M7.94361 5.03597C7.94361 4.92455 7.89935 4.81769 7.82056 4.7389C7.74177 4.66011 7.63491 4.61584 7.52349 4.61584C7.41206 4.61584 7.3052 4.66011 7.22641 4.7389C7.14762 4.81769 7.10336 4.92455 7.10336 5.03597V6.29635H5.84298C5.73155 6.29635 5.62469 6.34062 5.5459 6.41941C5.46711 6.49819 5.42285 6.60506 5.42285 6.71648C5.42285 6.8279 5.46711 6.93477 5.5459 7.01355C5.62469 7.09234 5.73155 7.13661 5.84298 7.13661H7.10336V8.39699C7.10336 8.50841 7.14762 8.61527 7.22641 8.69406C7.3052 8.77285 7.41206 8.81712 7.52349 8.81712C7.63491 8.81712 7.74177 8.77285 7.82056 8.69406C7.89935 8.61527 7.94361 8.50841 7.94361 8.39699V7.13661H9.204C9.31542 7.13661 9.42228 7.09234 9.50107 7.01355C9.57986 6.93477 9.62412 6.8279 9.62412 6.71648C9.62412 6.60506 9.57986 6.49819 9.50107 6.41941C9.42228 6.34062 9.31542 6.29635 9.204 6.29635H7.94361V5.03597Z" fill="#363330"/>
<path d="M0.800986 1.25476C0.689562 1.25476 0.582701 1.29902 0.503912 1.37781C0.425123 1.4566 0.380859 1.56346 0.380859 1.67489C0.380859 1.78631 0.425123 1.89317 0.503912 1.97196C0.582701 2.05075 0.689562 2.09501 0.800986 2.09501H1.73367L2.07061 3.4453L3.32931 10.1547C3.34733 10.251 3.39843 10.338 3.47376 10.4006C3.54909 10.4632 3.64393 10.4975 3.74188 10.4976H4.58213C4.13643 10.4976 3.70899 10.6746 3.39383 10.9898C3.07868 11.3049 2.90162 11.7324 2.90162 12.1781C2.90162 12.6238 3.07868 13.0512 3.39383 13.3664C3.70899 13.6815 4.13643 13.8586 4.58213 13.8586C5.02783 13.8586 5.45527 13.6815 5.77043 13.3664C6.08559 13.0512 6.26264 12.6238 6.26264 12.1781C6.26264 11.7324 6.08559 11.3049 5.77043 10.9898C5.45527 10.6746 5.02783 10.4976 4.58213 10.4976H10.4639C10.0182 10.4976 9.59077 10.6746 9.27561 10.9898C8.96045 11.3049 8.7834 11.7324 8.7834 12.1781C8.7834 12.6238 8.96045 13.0512 9.27561 13.3664C9.59077 13.6815 10.0182 13.8586 10.4639 13.8586C10.9096 13.8586 11.3371 13.6815 11.6522 13.3664C11.9674 13.0512 12.1444 12.6238 12.1444 12.1781C12.1444 11.7324 11.9674 11.3049 11.6522 10.9898C11.3371 10.6746 10.9096 10.4976 10.4639 10.4976H11.3042C11.4021 10.4975 11.4969 10.4632 11.5723 10.4006C11.6476 10.338 11.6987 10.251 11.7167 10.1547L12.9771 3.4327C12.9885 3.37206 12.9863 3.30967 12.9708 3.24996C12.9554 3.19024 12.9269 3.13467 12.8875 3.08719C12.8482 3.03971 12.7988 3.00148 12.743 2.97522C12.6872 2.94897 12.6262 2.93533 12.5645 2.93527H2.80919L2.46889 1.57322C2.44621 1.48229 2.39378 1.40155 2.31994 1.34385C2.2461 1.28614 2.15508 1.25479 2.06137 1.25476H0.800986ZM4.09058 9.6573L2.98733 3.77552H12.0587L10.9555 9.6573H4.09058ZM5.42238 12.1781C5.42238 12.4009 5.33386 12.6146 5.17628 12.7722C5.0187 12.9298 4.80498 13.0183 4.58213 13.0183C4.35928 13.0183 4.14556 12.9298 3.98798 12.7722C3.8304 12.6146 3.74188 12.4009 3.74188 12.1781C3.74188 11.9552 3.8304 11.7415 3.98798 11.5839C4.14556 11.4263 4.35928 11.3378 4.58213 11.3378C4.80498 11.3378 5.0187 11.4263 5.17628 11.5839C5.33386 11.7415 5.42238 11.9552 5.42238 12.1781ZM11.3042 12.1781C11.3042 12.4009 11.2156 12.6146 11.0581 12.7722C10.9005 12.9298 10.6868 13.0183 10.4639 13.0183C10.2411 13.0183 10.0273 12.9298 9.86976 12.7722C9.71218 12.6146 9.62366 12.4009 9.62366 12.1781C9.62366 11.9552 9.71218 11.7415 9.86976 11.5839C10.0273 11.4263 10.2411 11.3378 10.4639 11.3378C10.6868 11.3378 10.9005 11.4263 11.0581 11.5839C11.2156 11.7415 11.3042 11.9552 11.3042 12.1781Z" fill="#363330"/>
</svg>
