<svg width="14" height="15" viewBox="0 0 14 15" fill="none" xmlns="http://www.w3.org/2000/svg">
<path d="M8.00123 5.23348C8.00123 5.12206 7.95697 5.0152 7.87818 4.93641C7.79939 4.85762 7.69253 4.81335 7.5811 4.81335C7.46968 4.81335 7.36282 4.85762 7.28403 4.93641C7.20524 5.0152 7.16098 5.12206 7.16098 5.23348V6.49386H5.9006C5.78917 6.49386 5.68231 6.53813 5.60352 6.61692C5.52473 6.6957 5.48047 6.80257 5.48047 6.91399C5.48047 7.02541 5.52473 7.13228 5.60352 7.21106C5.68231 7.28985 5.78917 7.33412 5.9006 7.33412H7.16098V8.5945C7.16098 8.70592 7.20524 8.81278 7.28403 8.89157C7.36282 8.97036 7.46968 9.01463 7.5811 9.01463C7.69253 9.01463 7.79939 8.97036 7.87818 8.89157C7.95697 8.81278 8.00123 8.70592 8.00123 8.5945V7.33412H9.26161C9.37304 7.33412 9.4799 7.28985 9.55869 7.21106C9.63748 7.13228 9.68174 7.02541 9.68174 6.91399C9.68174 6.80257 9.63748 6.6957 9.55869 6.61692C9.4799 6.53813 9.37304 6.49386 9.26161 6.49386H8.00123V5.23348Z" fill="#363330"/>
<path d="M0.858604 1.45233C0.747179 1.45233 0.640318 1.49659 0.561529 1.57538C0.48274 1.65417 0.438477 1.76103 0.438477 1.87246C0.438477 1.98388 0.48274 2.09074 0.561529 2.16953C0.640318 2.24832 0.747179 2.29259 0.858604 2.29259H1.79129L2.12823 3.64287L3.38693 10.3523C3.40495 10.4486 3.45604 10.5355 3.53138 10.5981C3.60671 10.6607 3.70155 10.695 3.79949 10.6951H4.63975C4.19405 10.6951 3.76661 10.8722 3.45145 11.1873C3.13629 11.5025 2.95924 11.9299 2.95924 12.3756C2.95924 12.8213 3.13629 13.2488 3.45145 13.5639C3.76661 13.8791 4.19405 14.0561 4.63975 14.0561C5.08545 14.0561 5.51289 13.8791 5.82805 13.5639C6.1432 13.2488 6.32026 12.8213 6.32026 12.3756C6.32026 11.9299 6.1432 11.5025 5.82805 11.1873C5.51289 10.8722 5.08545 10.6951 4.63975 10.6951H10.5215C10.0758 10.6951 9.64839 10.8722 9.33323 11.1873C9.01807 11.5025 8.84102 11.9299 8.84102 12.3756C8.84102 12.8213 9.01807 13.2488 9.33323 13.5639C9.64839 13.8791 10.0758 14.0561 10.5215 14.0561C10.9672 14.0561 11.3947 13.8791 11.7098 13.5639C12.025 13.2488 12.202 12.8213 12.202 12.3756C12.202 11.9299 12.025 11.5025 11.7098 11.1873C11.3947 10.8722 10.9672 10.6951 10.5215 10.6951H11.3618C11.4597 10.695 11.5546 10.6607 11.6299 10.5981C11.7052 10.5355 11.7563 10.4486 11.7743 10.3523L13.0347 3.63027C13.0461 3.56964 13.0439 3.50724 13.0285 3.44753C13.013 3.38782 12.9845 3.33224 12.9452 3.28476C12.9058 3.23728 12.8564 3.19905 12.8006 3.17279C12.7448 3.14654 12.6839 3.1329 12.6222 3.13284H2.86681L2.52651 1.77079C2.50383 1.67986 2.4514 1.59912 2.37756 1.54142C2.30371 1.48372 2.2127 1.45236 2.11899 1.45233H0.858604ZM4.1482 9.85487L3.04495 3.97309H12.1163L11.0131 9.85487H4.1482ZM5.48 12.3756C5.48 12.5985 5.39148 12.8122 5.2339 12.9698C5.07632 13.1274 4.8626 13.2159 4.63975 13.2159C4.4169 13.2159 4.20318 13.1274 4.0456 12.9698C3.88802 12.8122 3.79949 12.5985 3.79949 12.3756C3.79949 12.1528 3.88802 11.9391 4.0456 11.7815C4.20318 11.6239 4.4169 11.5354 4.63975 11.5354C4.8626 11.5354 5.07632 11.6239 5.2339 11.7815C5.39148 11.9391 5.48 12.1528 5.48 12.3756ZM11.3618 12.3756C11.3618 12.5985 11.2733 12.8122 11.1157 12.9698C10.9581 13.1274 10.7444 13.2159 10.5215 13.2159C10.2987 13.2159 10.085 13.1274 9.92738 12.9698C9.7698 12.8122 9.68127 12.5985 9.68127 12.3756C9.68127 12.1528 9.7698 11.9391 9.92738 11.7815C10.085 11.6239 10.2987 11.5354 10.5215 11.5354C10.7444 11.5354 10.9581 11.6239 11.1157 11.7815C11.2733 11.9391 11.3618 12.1528 11.3618 12.3756Z" fill="#363330"/>
</svg>
