<svg width="14" height="15" viewBox="0 0 14 15" fill="none" xmlns="http://www.w3.org/2000/svg">
<path d="M7.58424 5.23348C7.58424 5.12206 7.53998 5.0152 7.46119 4.93641C7.3824 4.85762 7.27554 4.81335 7.16411 4.81335C7.05269 4.81335 6.94583 4.85762 6.86704 4.93641C6.78825 5.0152 6.74398 5.12206 6.74398 5.23348V6.49386H5.4836C5.37218 6.49386 5.26532 6.53813 5.18653 6.61692C5.10774 6.6957 5.06348 6.80257 5.06348 6.91399C5.06348 7.02541 5.10774 7.13228 5.18653 7.21106C5.26532 7.28985 5.37218 7.33412 5.4836 7.33412H6.74398V8.5945C6.74398 8.70592 6.78825 8.81278 6.86704 8.89157C6.94583 8.97036 7.05269 9.01463 7.16411 9.01463C7.27554 9.01463 7.3824 8.97036 7.46119 8.89157C7.53998 8.81278 7.58424 8.70592 7.58424 8.5945V7.33412H8.84462C8.95605 7.33412 9.06291 7.28985 9.1417 7.21106C9.22048 7.13228 9.26475 7.02541 9.26475 6.91399C9.26475 6.80257 9.22048 6.6957 9.1417 6.61692C9.06291 6.53813 8.95605 6.49386 8.84462 6.49386H7.58424V5.23348Z" fill="#363330"/>
<path d="M0.441611 1.45227C0.330187 1.45227 0.223326 1.49653 0.144537 1.57532C0.0657476 1.65411 0.0214844 1.76097 0.0214844 1.8724C0.0214844 1.98382 0.0657476 2.09068 0.144537 2.16947C0.223326 2.24826 0.330187 2.29252 0.441611 2.29252H1.37429L1.71124 3.64281L2.96994 10.3522C2.98796 10.4485 3.03905 10.5355 3.11439 10.5981C3.18972 10.6607 3.28455 10.695 3.3825 10.6951H4.22276C3.77706 10.6951 3.34961 10.8721 3.03446 11.1873C2.7193 11.5024 2.54225 11.9299 2.54225 12.3756C2.54225 12.8213 2.7193 13.2487 3.03446 13.5639C3.34961 13.879 3.77706 14.0561 4.22276 14.0561C4.66845 14.0561 5.0959 13.879 5.41105 13.5639C5.72621 13.2487 5.90326 12.8213 5.90326 12.3756C5.90326 11.9299 5.72621 11.5024 5.41105 11.1873C5.0959 10.8721 4.66845 10.6951 4.22276 10.6951H10.1045C9.65884 10.6951 9.23139 10.8721 8.91624 11.1873C8.60108 11.5024 8.42403 11.9299 8.42403 12.3756C8.42403 12.8213 8.60108 13.2487 8.91624 13.5639C9.23139 13.879 9.65884 14.0561 10.1045 14.0561C10.5502 14.0561 10.9777 13.879 11.2928 13.5639C11.608 13.2487 11.785 12.8213 11.785 12.3756C11.785 11.9299 11.608 11.5024 11.2928 11.1873C10.9777 10.8721 10.5502 10.6951 10.1045 10.6951H10.9448C11.0427 10.695 11.1376 10.6607 11.2129 10.5981C11.2882 10.5355 11.3393 10.4485 11.3574 10.3522L12.6177 3.63021C12.6291 3.56957 12.6269 3.50718 12.6115 3.44747C12.596 3.38775 12.5675 3.33218 12.5282 3.2847C12.4888 3.23722 12.4394 3.19899 12.3836 3.17273C12.3278 3.14648 12.2669 3.13284 12.2052 3.13278H2.44982L2.10952 1.77073C2.08684 1.6798 2.03441 1.59906 1.96057 1.54136C1.88672 1.48365 1.79571 1.4523 1.70199 1.45227H0.441611ZM3.73121 9.85481L2.62795 3.97303H11.6993L10.5961 9.85481H3.73121ZM5.06301 12.3756C5.06301 12.5984 4.97448 12.8121 4.81691 12.9697C4.65933 13.1273 4.4456 13.2158 4.22276 13.2158C3.99991 13.2158 3.78618 13.1273 3.62861 12.9697C3.47103 12.8121 3.3825 12.5984 3.3825 12.3756C3.3825 12.1527 3.47103 11.939 3.62861 11.7814C3.78618 11.6238 3.99991 11.5353 4.22276 11.5353C4.4456 11.5353 4.65933 11.6238 4.81691 11.7814C4.97448 11.939 5.06301 12.1527 5.06301 12.3756ZM10.9448 12.3756C10.9448 12.5984 10.8563 12.8121 10.6987 12.9697C10.5411 13.1273 10.3274 13.2158 10.1045 13.2158C9.88169 13.2158 9.66796 13.1273 9.51039 12.9697C9.35281 12.8121 9.26428 12.5984 9.26428 12.3756C9.26428 12.1527 9.35281 11.939 9.51039 11.7814C9.66796 11.6238 9.88169 11.5353 10.1045 11.5353C10.3274 11.5353 10.5411 11.6238 10.6987 11.7814C10.8563 11.939 10.9448 12.1527 10.9448 12.3756Z" fill="#363330"/>
</svg>
