<svg width="17" height="17" viewBox="0 0 17 17" fill="none" xmlns="http://www.w3.org/2000/svg">
<path d="M3.60968 4.05199V7.94028C3.60968 8.52471 4.08378 9.0018 4.6712 9.0018H8.55949M14.5678 5.82021V1.93192C14.5678 1.34748 14.0937 0.870392 13.5063 0.870392H4.6712C4.08677 0.870392 3.60968 1.3445 3.60968 1.93192V3.3453M9.2632 8.99882H10.3098L12.1943 10.8744C12.418 11.095 12.7966 10.937 12.7966 10.6239V8.99882H13.5033C14.0878 8.99882 14.5649 8.52471 14.5649 7.93729V6.52391M5.72975 11.4707V12.8841C5.72975 13.4686 6.20385 13.9457 6.79127 13.9457H10.7869L13.2857 15.9554C13.5182 16.1403 13.8612 15.9763 13.8612 15.6811V13.9457H15.2745C15.859 13.9457 16.3361 13.4715 16.3361 12.8841V6.87577C16.3361 6.29133 15.862 5.81424 15.2745 5.81424H9.26618M5.73273 8.99584V10.7641M8.55949 5.81722H6.79127C6.20684 5.81722 5.72975 6.29133 5.72975 6.87875V8.29213M1.13477 3.3453H8.20465C8.78909 3.3453 9.26618 3.81941 9.26618 4.40683V10.4152C9.26618 10.9996 8.79207 11.4767 8.20465 11.4767H3.85717L2.09789 13.3135C1.87724 13.5431 1.4896 13.3881 1.4896 13.069V11.4767H1.13477C0.550333 11.4767 0.0732422 11.0026 0.0732422 10.4152V4.40683C0.0732422 3.82239 0.547351 3.3453 1.13477 3.3453Z" stroke="white" stroke-width="0.70669" stroke-miterlimit="10"/>
</svg>
