<svg width="16" height="15" viewBox="0 0 16 15" fill="none" xmlns="http://www.w3.org/2000/svg">
<path d="M8.76918 5.35104C8.76918 5.231 8.72149 5.11588 8.63661 5.031C8.55173 4.94612 8.43661 4.89844 8.31657 4.89844C8.19654 4.89844 8.08141 4.94612 7.99653 5.031C7.91165 5.11588 7.86397 5.231 7.86397 5.35104V6.70885H6.50616C6.38612 6.70885 6.271 6.75653 6.18612 6.84141C6.10124 6.92629 6.05356 7.04141 6.05356 7.16145C6.05356 7.28149 6.10124 7.39661 6.18612 7.48149C6.271 7.56637 6.38612 7.61406 6.50616 7.61406H7.86397V8.97186C7.86397 9.0919 7.91165 9.20702 7.99653 9.2919C8.08141 9.37678 8.19654 9.42447 8.31657 9.42447C8.43661 9.42447 8.55173 9.37678 8.63661 9.2919C8.72149 9.20702 8.76918 9.0919 8.76918 8.97186V7.61406H10.127C10.247 7.61406 10.3621 7.56637 10.447 7.48149C10.5319 7.39661 10.5796 7.28149 10.5796 7.16145C10.5796 7.04141 10.5319 6.92629 10.447 6.84141C10.3621 6.75653 10.247 6.70885 10.127 6.70885H8.76918V5.35104Z" fill="#363330"/>
<path d="M1.07492 1.27734C0.95488 1.27734 0.839758 1.32503 0.754879 1.40991C0.669999 1.49479 0.622314 1.60991 0.622314 1.72995C0.622314 1.84998 0.669999 1.96511 0.754879 2.04999C0.839758 2.13486 0.95488 2.18255 1.07492 2.18255H2.0797L2.44268 3.63722L3.79868 10.8653C3.8181 10.969 3.87314 11.0627 3.9543 11.1301C4.03545 11.1975 4.13762 11.2345 4.24314 11.2346H5.14834C4.66819 11.2346 4.20771 11.4253 3.86819 11.7649C3.52867 12.1044 3.33793 12.5649 3.33793 13.045C3.33793 13.5252 3.52867 13.9857 3.86819 14.3252C4.20771 14.6647 4.66819 14.8554 5.14834 14.8554C5.6285 14.8554 6.08898 14.6647 6.4285 14.3252C6.76802 13.9857 6.95876 13.5252 6.95876 13.045C6.95876 12.5649 6.76802 12.1044 6.4285 11.7649C6.08898 11.4253 5.6285 11.2346 5.14834 11.2346H11.4848C11.0046 11.2346 10.5442 11.4253 10.2046 11.7649C9.86511 12.1044 9.67437 12.5649 9.67437 13.045C9.67437 13.5252 9.86511 13.9857 10.2046 14.3252C10.5442 14.6647 11.0046 14.8554 11.4848 14.8554C11.9649 14.8554 12.4254 14.6647 12.7649 14.3252C13.1045 13.9857 13.2952 13.5252 13.2952 13.045C13.2952 12.5649 13.1045 12.1044 12.7649 11.7649C12.4254 11.4253 11.9649 11.2346 11.4848 11.2346H12.39C12.4955 11.2345 12.5977 11.1975 12.6788 11.1301C12.76 11.0627 12.815 10.969 12.8344 10.8653L14.1923 3.62364C14.2045 3.55832 14.2022 3.4911 14.1855 3.42677C14.1688 3.36244 14.1382 3.30257 14.0958 3.25142C14.0533 3.20027 14.0002 3.15909 13.94 3.1308C13.8799 3.10251 13.8143 3.08782 13.7478 3.08776H3.23836L2.87175 1.62042C2.84732 1.52246 2.79084 1.43548 2.71129 1.37332C2.63174 1.31115 2.53369 1.27737 2.43273 1.27734H1.07492ZM4.6188 10.3294L3.43026 3.99296H13.2029L12.0143 10.3294H4.6188ZM6.05355 13.045C6.05355 13.2851 5.95818 13.5153 5.78842 13.6851C5.61866 13.8549 5.38842 13.9502 5.14834 13.9502C4.90827 13.9502 4.67803 13.8549 4.50827 13.6851C4.33851 13.5153 4.24314 13.2851 4.24314 13.045C4.24314 12.8049 4.33851 12.5747 4.50827 12.4049C4.67803 12.2352 4.90827 12.1398 5.14834 12.1398C5.38842 12.1398 5.61866 12.2352 5.78842 12.4049C5.95818 12.5747 6.05355 12.8049 6.05355 13.045ZM12.39 13.045C12.39 13.2851 12.2946 13.5153 12.1249 13.6851C11.9551 13.8549 11.7249 13.9502 11.4848 13.9502C11.2447 13.9502 11.0145 13.8549 10.8447 13.6851C10.675 13.5153 10.5796 13.2851 10.5796 13.045C10.5796 12.8049 10.675 12.5747 10.8447 12.4049C11.0145 12.2352 11.2447 12.1398 11.4848 12.1398C11.7249 12.1398 11.9551 12.2352 12.1249 12.4049C12.2946 12.5747 12.39 12.8049 12.39 13.045Z" fill="#363330"/>
</svg>
