<svg width="12" height="13" viewBox="0 0 12 13" fill="none" xmlns="http://www.w3.org/2000/svg">
<path d="M5.90237 0.964844C6.09591 0.964844 6.28152 1.04173 6.41838 1.17858C6.55523 1.31543 6.63211 1.50104 6.63211 1.69458V6.073H11.0105C11.2041 6.073 11.3897 6.14988 11.5265 6.28673C11.6634 6.42358 11.7403 6.6092 11.7403 6.80273C11.7403 6.99627 11.6634 7.18188 11.5265 7.31874C11.3897 7.45559 11.2041 7.53247 11.0105 7.53247H6.63211V11.9109C6.63211 12.1044 6.55523 12.29 6.41838 12.4269C6.28152 12.5637 6.09591 12.6406 5.90237 12.6406C5.70884 12.6406 5.52322 12.5637 5.38637 12.4269C5.24952 12.29 5.17264 12.1044 5.17264 11.9109V7.53247H0.79422C0.600682 7.53247 0.415071 7.45559 0.278218 7.31874C0.141366 7.18188 0.0644836 6.99627 0.0644836 6.80273C0.0644836 6.6092 0.141366 6.42358 0.278218 6.28673C0.415071 6.14988 0.600682 6.073 0.79422 6.073H5.17264V1.69458C5.17264 1.50104 5.24952 1.31543 5.38637 1.17858C5.52322 1.04173 5.70884 0.964844 5.90237 0.964844V0.964844Z" fill="#363330"/>
</svg>
