<svg width="12" height="13" viewBox="0 0 12 13" fill="none" xmlns="http://www.w3.org/2000/svg">
<path d="M5.90237 0.763672C6.09591 0.763672 6.28152 0.840555 6.41838 0.977407C6.55523 1.11426 6.63211 1.29987 6.63211 1.49341V5.87183H11.0105C11.2041 5.87183 11.3897 5.94871 11.5265 6.08556C11.6634 6.22241 11.7403 6.40802 11.7403 6.60156C11.7403 6.7951 11.6634 6.98071 11.5265 7.11756C11.3897 7.25442 11.2041 7.3313 11.0105 7.3313H6.63211V11.7097C6.63211 11.9033 6.55523 12.0889 6.41838 12.2257C6.28152 12.3626 6.09591 12.4395 5.90237 12.4395C5.70884 12.4395 5.52322 12.3626 5.38637 12.2257C5.24952 12.0889 5.17264 11.9033 5.17264 11.7097V7.3313H0.79422C0.600682 7.3313 0.415071 7.25442 0.278218 7.11756C0.141366 6.98071 0.0644836 6.7951 0.0644836 6.60156C0.0644836 6.40802 0.141366 6.22241 0.278218 6.08556C0.415071 5.94871 0.600682 5.87183 0.79422 5.87183H5.17264V1.49341C5.17264 1.29987 5.24952 1.11426 5.38637 0.977407C5.52322 0.840555 5.70884 0.763672 5.90237 0.763672V0.763672Z" fill="#363330"/>
</svg>
