<svg width="12" height="13" viewBox="0 0 12 13" fill="none" xmlns="http://www.w3.org/2000/svg">
<path d="M5.90237 0.363281C6.09591 0.363281 6.28152 0.440164 6.41838 0.577016C6.55523 0.713868 6.63211 0.899479 6.63211 1.09302V5.47144H11.0105C11.2041 5.47144 11.3897 5.54832 11.5265 5.68517C11.6634 5.82202 11.7403 6.00763 11.7403 6.20117C11.7403 6.39471 11.6634 6.58032 11.5265 6.71717C11.3897 6.85403 11.2041 6.93091 11.0105 6.93091H6.63211V11.3093C6.63211 11.5029 6.55523 11.6885 6.41838 11.8253C6.28152 11.9622 6.09591 12.0391 5.90237 12.0391C5.70884 12.0391 5.52322 11.9622 5.38637 11.8253C5.24952 11.6885 5.17264 11.5029 5.17264 11.3093V6.93091H0.79422C0.600682 6.93091 0.415071 6.85403 0.278218 6.71717C0.141366 6.58032 0.0644836 6.39471 0.0644836 6.20117C0.0644836 6.00763 0.141366 5.82202 0.278218 5.68517C0.415071 5.54832 0.600682 5.47144 0.79422 5.47144H5.17264V1.09302C5.17264 0.899479 5.24952 0.713868 5.38637 0.577016C5.52322 0.440164 5.70884 0.363281 5.90237 0.363281V0.363281Z" fill="#363330"/>
</svg>
