<svg width="12" height="13" viewBox="0 0 12 13" fill="none" xmlns="http://www.w3.org/2000/svg">
<path d="M5.94337 0.363281C6.13691 0.363281 6.32252 0.440164 6.45938 0.577016C6.59623 0.713868 6.67311 0.899479 6.67311 1.09302V5.47144H11.0515C11.2451 5.47144 11.4307 5.54832 11.5675 5.68517C11.7044 5.82202 11.7813 6.00763 11.7813 6.20117C11.7813 6.39471 11.7044 6.58032 11.5675 6.71717C11.4307 6.85403 11.2451 6.93091 11.0515 6.93091H6.67311V11.3093C6.67311 11.5029 6.59623 11.6885 6.45938 11.8253C6.32252 11.9622 6.13691 12.0391 5.94337 12.0391C5.74984 12.0391 5.56423 11.9622 5.42737 11.8253C5.29052 11.6885 5.21364 11.5029 5.21364 11.3093V6.93091H0.83522C0.641682 6.93091 0.456071 6.85403 0.319219 6.71717C0.182367 6.58032 0.105484 6.39471 0.105484 6.20117C0.105484 6.00763 0.182367 5.82202 0.319219 5.68517C0.456071 5.54832 0.641682 5.47144 0.83522 5.47144H5.21364V1.09302C5.21364 0.899479 5.29052 0.713868 5.42737 0.577016C5.56423 0.440164 5.74984 0.363281 5.94337 0.363281V0.363281Z" fill="#363330"/>
</svg>
