<svg width="12" height="13" viewBox="0 0 12 13" fill="none" xmlns="http://www.w3.org/2000/svg">
<path d="M5.94337 0.763672C6.13691 0.763672 6.32252 0.840555 6.45938 0.977407C6.59623 1.11426 6.67311 1.29987 6.67311 1.49341V5.87183H11.0515C11.2451 5.87183 11.4307 5.94871 11.5675 6.08556C11.7044 6.22241 11.7813 6.40802 11.7813 6.60156C11.7813 6.7951 11.7044 6.98071 11.5675 7.11756C11.4307 7.25442 11.2451 7.3313 11.0515 7.3313H6.67311V11.7097C6.67311 11.9033 6.59623 12.0889 6.45938 12.2257C6.32252 12.3626 6.13691 12.4395 5.94337 12.4395C5.74984 12.4395 5.56423 12.3626 5.42737 12.2257C5.29052 12.0889 5.21364 11.9033 5.21364 11.7097V7.3313H0.83522C0.641682 7.3313 0.456071 7.25442 0.319219 7.11756C0.182367 6.98071 0.105484 6.7951 0.105484 6.60156C0.105484 6.40802 0.182367 6.22241 0.319219 6.08556C0.456071 5.94871 0.641682 5.87183 0.83522 5.87183H5.21364V1.49341C5.21364 1.29987 5.29052 1.11426 5.42737 0.977407C5.56423 0.840555 5.74984 0.763672 5.94337 0.763672V0.763672Z" fill="#363330"/>
</svg>
