<svg width="12" height="13" viewBox="0 0 12 13" fill="none" xmlns="http://www.w3.org/2000/svg">
<path d="M5.94337 0.964844C6.13691 0.964844 6.32252 1.04173 6.45938 1.17858C6.59623 1.31543 6.67311 1.50104 6.67311 1.69458V6.073H11.0515C11.2451 6.073 11.4307 6.14988 11.5675 6.28673C11.7044 6.42358 11.7813 6.6092 11.7813 6.80273C11.7813 6.99627 11.7044 7.18188 11.5675 7.31874C11.4307 7.45559 11.2451 7.53247 11.0515 7.53247H6.67311V11.9109C6.67311 12.1044 6.59623 12.29 6.45938 12.4269C6.32252 12.5637 6.13691 12.6406 5.94337 12.6406C5.74984 12.6406 5.56423 12.5637 5.42737 12.4269C5.29052 12.29 5.21364 12.1044 5.21364 11.9109V7.53247H0.83522C0.641682 7.53247 0.456071 7.45559 0.319219 7.31874C0.182367 7.18188 0.105484 6.99627 0.105484 6.80273C0.105484 6.6092 0.182367 6.42358 0.319219 6.28673C0.456071 6.14988 0.641682 6.073 0.83522 6.073H5.21364V1.69458C5.21364 1.50104 5.29052 1.31543 5.42737 1.17858C5.56423 1.04173 5.74984 0.964844 5.94337 0.964844V0.964844Z" fill="#363330"/>
</svg>
