<svg width="26" height="28" viewBox="0 0 26 28" fill="none" xmlns="http://www.w3.org/2000/svg">
<path d="M23.0019 24.2817C22.8041 23.632 22.5499 22.954 22.2109 22.2195C21.9002 21.5133 21.5329 20.7789 21.1092 20.0727C21.0527 20.1574 20.9962 20.2704 20.9397 20.3551C20.8832 20.4399 20.8267 20.5529 20.7702 20.6376C20.7137 20.7224 20.6572 20.8071 20.5725 20.9201C20.516 21.0049 20.4312 21.0896 20.3747 21.1743C20.3747 21.1743 20.3747 21.1743 20.3465 21.2026C20.3465 21.2026 20.3465 21.2026 20.3182 21.2308C20.3182 21.2308 20.3182 21.2308 20.29 21.2591C20.29 21.2591 20.29 21.2591 20.2618 21.2873L20.2053 21.3438C20.2618 21.5133 20.3182 21.7111 20.403 21.9088C20.4877 22.1348 20.5725 22.3608 20.629 22.5585C20.6855 22.7845 20.742 22.9822 20.7702 23.1517C20.7985 23.3212 20.7985 23.4342 20.7137 23.519C20.6855 23.5472 20.6855 23.5472 20.6572 23.5755C20.629 23.6037 20.6007 23.6037 20.5725 23.6037C20.5442 23.6037 20.516 23.632 20.4877 23.632C20.4595 23.632 20.4312 23.632 20.3747 23.632C20.3182 23.632 20.2618 23.632 20.177 23.6037C20.1205 23.5755 20.0358 23.5755 19.951 23.5472C19.8663 23.519 19.8098 23.4907 19.725 23.4625C19.6403 23.4342 19.5555 23.3777 19.4708 23.3495C19.3578 23.293 19.2448 23.2365 19.1318 23.18C19.0188 23.1235 18.8776 23.0387 18.7646 22.9822C18.6233 22.8975 18.5103 22.841 18.3691 22.7563C18.2279 22.6715 18.1149 22.5868 17.9736 22.502C18.5103 21.9653 19.0188 21.4003 19.4708 20.7789C19.9228 20.1574 20.3465 19.5359 20.742 18.858C21.1092 18.18 21.4482 17.4738 21.7024 16.7676C21.9567 16.0614 22.1826 15.3269 22.3239 14.5642C22.6629 12.8975 22.6346 11.3156 22.3239 9.90321C22.0132 8.51904 21.4482 7.30436 20.629 6.31566C19.838 5.35522 18.8211 4.59251 17.6346 4.11229C16.4765 3.63206 15.177 3.43432 13.7364 3.51907C12.8042 3.57556 11.872 3.7733 10.968 4.08404C10.0641 4.39477 9.18837 4.79025 8.36916 5.29872C7.54996 5.80719 6.759 6.37216 5.99629 7.05012C5.26183 7.69984 4.58387 8.4343 3.9624 9.2535C3.79291 8.94277 3.65167 8.66028 3.53868 8.40605C3.42568 8.15181 3.34094 7.89758 3.31269 7.69984C3.25619 7.5021 3.25619 7.30436 3.25619 7.16312C3.28444 7.02187 3.31269 6.88063 3.39744 6.79589C3.42568 6.76764 3.45393 6.73939 3.51043 6.71114C3.56693 6.68289 3.59518 6.65464 3.65167 6.6264C3.70817 6.59815 3.76467 6.5699 3.84941 6.5699C3.90591 6.54165 3.99065 6.54165 4.0754 6.54165C4.16014 6.54165 4.24489 6.54165 4.32963 6.54165C4.41438 6.54165 4.49913 6.5699 4.61212 6.59815C4.69686 6.6264 4.80986 6.68289 4.8946 6.73939C4.97935 6.79589 5.09234 6.88063 5.17709 6.96538C5.26183 6.85238 5.37483 6.73939 5.45957 6.65464C5.54432 6.54165 5.65731 6.4569 5.7703 6.34391C5.8833 6.25917 5.99629 6.14617 6.10929 6.06143C6.22228 5.97668 6.33527 5.89194 6.44827 5.80719C6.44827 5.80719 6.47652 5.80719 6.47652 5.77894L6.50476 5.75069C6.50476 5.75069 6.53301 5.75069 6.53301 5.72245C6.53301 5.72245 6.56126 5.72245 6.56126 5.6942C6.36352 5.49646 6.10929 5.35522 5.8833 5.21397C5.65731 5.07273 5.40308 4.98799 5.14884 4.90324C4.8946 4.8185 4.64037 4.79025 4.41438 4.762C4.16014 4.73375 3.93416 4.73375 3.70817 4.73375C3.53868 4.73375 3.39744 4.762 3.25619 4.79025C3.11495 4.8185 2.97371 4.84674 2.86072 4.90324C2.74772 4.95974 2.63473 4.98799 2.54998 5.04448C2.46524 5.10098 2.38049 5.15748 2.324 5.24222C2.12626 5.43996 2.01326 5.72245 1.98501 6.03318C1.92852 6.34391 1.95677 6.73939 2.04151 7.16312C2.12626 7.58684 2.2675 8.06707 2.46524 8.57554C2.66298 9.08401 2.94546 9.64898 3.25619 10.2704C3.03021 10.6094 2.83247 10.9484 2.63473 11.3156C2.43699 11.6546 2.2675 12.0218 2.09801 12.3891C1.92852 12.7563 1.78728 13.1235 1.64603 13.519C1.50479 13.9145 1.3918 14.2817 1.2788 14.6772C0.883326 16.1744 0.770332 17.6433 0.883326 18.971C1.02457 20.3269 1.3918 21.5698 2.01326 22.6433C2.63473 23.7449 3.51043 24.6489 4.55562 25.3269C5.62906 26.0048 6.92849 26.4286 8.39741 26.5133C8.82114 26.5415 9.27311 26.5415 9.72509 26.5133C10.1771 26.4851 10.6008 26.4286 11.0528 26.3156C11.5047 26.2308 11.9285 26.1178 12.3804 25.9483C12.8324 25.8071 13.2561 25.6376 13.6799 25.4399L12.6347 23.4907C12.3239 23.6037 12.0132 23.7167 11.7307 23.8014C11.42 23.8862 11.1093 23.9709 10.7985 24.0274C10.4878 24.0839 10.1771 24.1122 9.86633 24.1404C9.5556 24.1687 9.24486 24.1687 8.93413 24.1404C7.74769 24.0839 6.7025 23.7732 5.8268 23.2365C4.9511 22.6998 4.24489 21.9935 3.73642 21.1178C3.22795 20.2421 2.88896 19.2534 2.77597 18.1518C2.66298 17.0783 2.74772 15.8919 3.05846 14.649C3.36919 13.4343 3.87766 12.2761 4.55562 11.2026C5.20534 10.1575 6.02454 9.197 6.92849 8.3778C7.83244 7.55859 8.84938 6.88063 9.92282 6.40041C10.9963 5.92019 12.1262 5.60945 13.2844 5.55296C14.4426 5.49646 15.516 5.66595 16.42 6.06143C17.3522 6.45691 18.1714 7.07837 18.7928 7.86933C19.4425 8.66028 19.8945 9.64898 20.1205 10.7789C20.3465 11.9089 20.3465 13.18 20.064 14.5077C19.951 15.1009 19.7815 15.6659 19.5555 16.2309C19.3296 16.7958 19.1036 17.3326 18.7928 17.8693C18.5103 18.406 18.1714 18.9145 17.8041 19.3947C17.4369 19.8749 17.0414 20.3269 16.6177 20.7506C16.6177 20.6094 16.646 20.4681 16.646 20.3269C16.646 20.1856 16.6742 20.0444 16.6742 19.9032C16.6742 19.7619 16.6742 19.6489 16.7024 19.5359C16.7024 19.4229 16.7024 19.3382 16.7024 19.2817C16.7024 19.2252 16.7024 19.1687 16.6742 19.1405C16.6742 19.1122 16.646 19.084 16.646 19.0557C16.6177 19.0275 16.6177 19.0275 16.5895 18.9992C16.5612 18.9992 16.533 18.9992 16.533 18.971C16.5047 18.971 16.5047 18.971 16.4765 18.971C16.4482 18.971 16.4482 18.971 16.42 18.971C16.3917 18.971 16.3917 18.971 16.3917 18.971C16.3917 18.971 16.3917 18.971 16.3635 18.971L12.7194 20.1574C12.7194 20.1574 12.6912 20.1574 12.6347 20.1856C12.6064 20.2139 12.5499 20.2421 12.4934 20.2704C12.4652 20.3269 12.4087 20.3834 12.4087 20.4399C12.4087 20.5246 12.4087 20.6094 12.4934 20.7506V20.7789V20.8071V20.8354V20.8636C12.6629 21.2026 12.8889 21.6546 13.1714 22.1348C13.4539 22.6433 13.7364 23.2082 14.0471 23.7732C14.3578 24.3382 14.6403 24.9031 14.9228 25.3551C15.177 25.8353 15.403 26.2308 15.5443 26.485C15.5443 26.5133 15.5725 26.5415 15.5725 26.5415C15.5725 26.5698 15.6008 26.5698 15.6008 26.598C15.6008 26.6263 15.629 26.6263 15.629 26.6545C15.629 26.6828 15.6573 26.6828 15.6573 26.6828C15.6855 26.7393 15.7138 26.7958 15.742 26.8523C15.7703 26.9088 15.7985 26.937 15.8267 26.9653C15.855 26.9935 15.8832 27.0218 15.9115 27.0218C15.9397 27.0218 15.968 27.05 15.9962 27.05C16.0527 27.05 16.081 27.05 16.1092 27.0218C16.1375 26.9935 16.1657 26.9653 16.194 26.9088C16.2222 26.8805 16.2505 26.824 16.2505 26.7675C16.2787 26.711 16.2787 26.6828 16.2787 26.6545C16.2787 26.6545 16.2787 26.6263 16.2787 26.598C16.2787 26.5698 16.2787 26.5698 16.2787 26.5415C16.2787 26.5133 16.2787 26.485 16.2787 26.4568C16.2787 26.4286 16.2787 26.4003 16.2787 26.3721C16.2787 26.2591 16.307 26.1178 16.307 25.9483C16.307 25.8071 16.3352 25.6376 16.3352 25.4964C16.3352 25.3551 16.3635 25.2421 16.3635 25.1291C16.3635 25.0444 16.3635 24.9596 16.3635 24.9596C16.8719 25.2704 17.3522 25.5529 17.8606 25.8353C18.3691 26.1178 18.8493 26.3721 19.3013 26.5698C19.7815 26.7958 20.2053 26.9653 20.629 27.1065C21.0527 27.2478 21.4199 27.3325 21.7589 27.3325C21.8154 27.3325 21.8437 27.3325 21.9002 27.3325C21.9567 27.3325 21.9849 27.3325 22.0414 27.3325C22.0697 27.3325 22.1261 27.3325 22.1544 27.3325C22.1826 27.3325 22.2391 27.3325 22.2674 27.3043C22.3239 27.3043 22.3804 27.276 22.4369 27.2478C22.4934 27.2195 22.5499 27.2195 22.5781 27.1913C22.6346 27.163 22.6629 27.1348 22.7194 27.1065C22.7476 27.0783 22.8041 27.05 22.8324 26.9935C23.0583 26.7393 23.1713 26.3438 23.1713 25.8636C23.1713 25.3834 23.0583 24.7901 22.8606 24.1404L23.0019 24.2817Z" fill="#FDC600"/>
<path d="M9.89341 11.8297C10.1476 11.8297 10.3736 11.9144 10.5149 12.0557C10.6844 12.1969 10.7409 12.3947 10.7409 12.6489C10.7409 12.9031 10.6561 13.1291 10.4866 13.2704C10.3171 13.4116 10.0911 13.4964 9.80866 13.4964C9.15895 13.4964 8.84821 13.2139 8.84821 12.6771H7.91602V12.7336C7.91602 13.2421 8.08551 13.6376 8.42449 13.8918C8.76347 14.1743 9.21544 14.2873 9.80866 14.2873C10.3454 14.2873 10.7974 14.1461 11.1646 13.8353C11.5318 13.5529 11.7296 13.1291 11.7296 12.6207C11.7296 12.4229 11.7013 12.2534 11.6448 12.1122C11.5883 11.9427 11.5318 11.8297 11.4471 11.745C11.3906 11.6602 11.3058 11.5755 11.2211 11.519C11.1363 11.4625 11.0516 11.406 11.0233 11.406C10.9951 11.3777 10.9668 11.3777 10.9386 11.3777L10.9951 11.3495C11.0516 11.3212 11.1081 11.293 11.1646 11.2082C11.2211 11.1517 11.3058 11.067 11.3623 10.9822C11.4188 10.8975 11.4753 10.7845 11.5318 10.6433C11.5883 10.502 11.5883 10.3325 11.5883 10.1913C11.5883 9.71106 11.4188 9.34383 11.1081 9.0896C10.7974 8.83536 10.3454 8.69412 9.78041 8.69412C9.24369 8.69412 8.79172 8.83536 8.45274 9.0896C8.11375 9.34383 7.94426 9.73931 7.94426 10.2195V10.276H8.87646C8.87646 10.0218 8.96121 9.82406 9.10245 9.68282C9.27194 9.56982 9.46968 9.48508 9.75216 9.48508C10.0346 9.48508 10.2606 9.54157 10.4019 9.68282C10.5431 9.82406 10.6279 9.99355 10.6279 10.2195C10.6279 10.4738 10.5431 10.6715 10.4019 10.8128C10.2324 10.954 10.0346 11.0387 9.78041 11.0387H8.84821V11.8579L9.83691 11.8862L9.89341 11.8297ZM15.9951 14.2308V13.3551H13.7352L15.0346 12.0557C15.3736 11.7167 15.6278 11.406 15.7691 11.1235C15.9103 10.841 15.9668 10.5303 15.9668 10.2195C15.9668 9.71106 15.7973 9.31559 15.4866 9.0331C15.1759 8.75062 14.7239 8.60938 14.1589 8.60938C13.594 8.60938 13.142 8.75062 12.8312 9.0331C12.4923 9.31559 12.3228 9.71106 12.3228 10.2195V10.276H13.255C13.255 9.71106 13.5375 9.45683 14.1307 9.45683C14.6956 9.45683 14.9781 9.71106 14.9781 10.2478C14.9781 10.4738 14.9216 10.6715 14.8369 10.8693C14.7521 11.067 14.5826 11.2647 14.3567 11.4907L12.4358 13.3551V14.2308H15.9668H15.9951Z" fill="#FDC600"/>
<path d="M9.2727 18.8947V14.7422H8.56649V17.906L6.92808 14.7422H5.91113V18.8947H6.61734V15.7309L8.284 18.8947H9.30095H9.2727ZM10.6004 18.4992C10.6004 18.3862 10.5721 18.3297 10.4874 18.245C10.4026 18.1885 10.3179 18.1602 10.2049 18.1602C10.0919 18.1602 10.0072 18.1885 9.92241 18.245C9.83767 18.3015 9.80942 18.3862 9.80942 18.4992V18.6122C9.80942 18.7252 9.83767 18.81 9.92241 18.8665C10.0072 18.923 10.0919 18.9512 10.2049 18.9512C10.3179 18.9512 10.4026 18.923 10.4874 18.8665C10.5721 18.81 10.6004 18.7252 10.6004 18.6122V18.4992ZM13.5947 17.7648H12.945C12.945 18.1602 12.7473 18.358 12.3235 18.358C11.9281 18.358 11.7021 18.1602 11.7021 17.7365V17.1151C11.7021 16.6913 11.8998 16.4936 12.3235 16.4936C12.7473 16.4936 12.945 16.6913 12.945 17.0868H13.5947V17.0303C13.5947 16.6631 13.4817 16.3806 13.2557 16.1829C13.0297 15.9851 12.719 15.9004 12.3235 15.9004C11.9281 15.9004 11.6173 16.0134 11.3913 16.2111C11.1653 16.4088 11.0523 16.6913 11.0523 17.0586V17.793C11.0523 18.1602 11.1653 18.4427 11.3913 18.6405C11.6173 18.8382 11.9281 18.9512 12.3235 18.9512C12.719 18.9512 13.0297 18.8665 13.2557 18.6687C13.4817 18.471 13.5947 18.1885 13.5947 17.8213V17.793V17.7648ZM18.1427 18.8947V16.8043C18.1427 16.5218 18.058 16.2959 17.9167 16.1546C17.7755 15.9851 17.5777 15.9286 17.3235 15.9286C17.0975 15.9286 16.8715 15.9851 16.6455 16.1264L16.3348 16.3241C16.2218 16.0699 15.9676 15.9286 15.6286 15.9286C15.4026 15.9286 15.2049 15.9851 15.0071 16.0981L14.7529 16.2676V15.9569H14.0749V18.8947H14.7529V16.8608L15.0919 16.6348C15.2331 16.5501 15.3461 16.5218 15.4309 16.5218C15.6286 16.5218 15.7416 16.6348 15.7416 16.8891V18.8947H16.4196V16.8608L16.7868 16.6348C16.928 16.5501 17.041 16.5218 17.154 16.5218C17.3518 16.5218 17.4647 16.6348 17.4647 16.8891V18.8947H18.1427Z" fill="#FDC600"/>
<path d="M20.2058 11.0679C23.0024 11.0679 25.2905 8.77975 25.2905 5.98316C25.2905 3.18656 23.0024 0.898438 20.2058 0.898438C17.4092 0.898438 15.1211 3.18656 15.1211 5.98316C15.1211 8.77975 17.4092 11.0679 20.2058 11.0679Z" fill="#FDC600"/>
<path d="M20.2058 11.0679C23.0024 11.0679 25.2905 8.77975 25.2905 5.98316C25.2905 3.18656 23.0024 0.898438 20.2058 0.898438C17.4092 0.898438 15.1211 3.18656 15.1211 5.98316C15.1211 8.77975 17.4092 11.0679 20.2058 11.0679Z" stroke="white" stroke-width="1.04519"/>
<path d="M22.0128 8.88464V8.31967H20.7699V3.46094H20.1201C19.7247 3.82817 19.3574 4.05415 18.9902 4.16715V4.76037C19.4139 4.67562 19.7812 4.47788 20.1484 4.11065V8.29142H18.5947V8.85639H22.0128V8.88464Z" fill="#FEFEFE"/>
</svg>
