<svg width="17" height="17" viewBox="0 0 17 17" fill="none" xmlns="http://www.w3.org/2000/svg">
<path d="M8.77063 4.45312C8.90324 4.45312 9.03042 4.50581 9.12419 4.59958C9.21797 4.69335 9.27064 4.82053 9.27064 4.95314V7.95323H12.2707C12.4033 7.95323 12.5305 8.00591 12.6243 8.09968C12.7181 8.19345 12.7708 8.32063 12.7708 8.45325C12.7708 8.58586 12.7181 8.71304 12.6243 8.80681C12.5305 8.90058 12.4033 8.95326 12.2707 8.95326H9.27064V11.9534C9.27064 12.086 9.21797 12.2131 9.12419 12.3069C9.03042 12.4007 8.90324 12.4534 8.77063 12.4534C8.63802 12.4534 8.51084 12.4007 8.41707 12.3069C8.32329 12.2131 8.27061 12.086 8.27061 11.9534V8.95326H5.27052C5.13791 8.95326 5.01073 8.90058 4.91696 8.80681C4.82319 8.71304 4.77051 8.58586 4.77051 8.45325C4.77051 8.32063 4.82319 8.19345 4.91696 8.09968C5.01073 8.00591 5.13791 7.95323 5.27052 7.95323H8.27061V4.95314C8.27061 4.82053 8.32329 4.69335 8.41707 4.59958C8.51084 4.50581 8.63802 4.45312 8.77063 4.45312Z" fill="#CFCCC9"/>
</svg>
