<svg width="25" height="26" viewBox="0 0 25 26" fill="none" xmlns="http://www.w3.org/2000/svg">
<path d="M22.2768 23.0511C22.0987 22.4278 21.8316 21.76 21.5199 21.0922C21.2083 20.4022 20.8522 19.7122 20.4737 19.0221C20.4292 19.1112 20.3624 19.2002 20.3179 19.2892C20.2512 19.3783 20.2066 19.4673 20.1399 19.5563C20.0731 19.6454 20.0286 19.7344 19.9618 19.8235C19.895 19.9125 19.8282 20.0015 19.7614 20.0683C19.7614 20.0683 19.7614 20.0683 19.7392 20.0906C19.7392 20.0906 19.7392 20.0906 19.7169 20.1128C19.7169 20.1128 19.7169 20.1128 19.6947 20.1351C19.6947 20.1351 19.6947 20.1351 19.6724 20.1573L19.6056 20.2241C19.6501 20.3799 19.7169 20.558 19.806 20.7806C19.8727 20.9809 19.9618 21.2035 20.0286 21.4039C20.0953 21.6042 20.1399 21.8045 20.1621 21.9604C20.1844 22.1162 20.1844 22.2497 20.1176 22.2942C20.0953 22.3165 20.0731 22.3388 20.0508 22.3388C20.0286 22.361 20.0063 22.361 19.9618 22.3833C19.9395 22.3833 19.895 22.4055 19.8727 22.4055C19.8505 22.4055 19.806 22.4055 19.7614 22.4055C19.6947 22.4055 19.6501 22.4055 19.5834 22.3833C19.5166 22.361 19.4498 22.361 19.383 22.3165C19.3163 22.2942 19.2272 22.272 19.1604 22.2275C19.0714 22.2052 19.0046 22.1607 18.9156 22.1162C18.8043 22.0717 18.693 22.0049 18.5817 21.9381C18.4704 21.8713 18.3368 21.8045 18.2255 21.7378C18.1143 21.671 17.9807 21.6042 17.8471 21.5152C17.7136 21.4484 17.58 21.3594 17.4687 21.2703C17.9807 20.7583 18.4704 20.2019 18.9156 19.6231C19.3608 19.0444 19.7614 18.4211 20.1176 17.7756C20.4737 17.1301 20.7854 16.4623 21.0302 15.7722C21.2751 15.0822 21.4977 14.3699 21.6312 13.6576C21.9429 12.0549 21.9429 10.5413 21.6312 9.20572C21.3419 7.87016 20.7854 6.71267 20.0063 5.77778C19.2495 4.84288 18.2701 4.13058 17.1571 3.66313C16.0441 3.21795 14.7976 3.01761 13.4175 3.10665C12.5271 3.17343 11.6368 3.3515 10.7464 3.64088C9.87827 3.93025 9.05468 4.33092 8.25334 4.79836C7.452 5.26581 6.69518 5.84455 5.98288 6.46782C5.27058 7.09108 4.62506 7.80338 4.04631 8.5602C3.8905 8.27083 3.75694 7.98146 3.64565 7.7366C3.53435 7.49175 3.46757 7.2469 3.42305 7.04656C3.37853 6.84623 3.35627 6.66815 3.37853 6.51234C3.40079 6.35652 3.44531 6.24522 3.51209 6.15619C3.53435 6.13393 3.57887 6.11167 3.60113 6.06715C3.64565 6.04489 3.69016 6.02263 3.73468 6.00037C3.7792 5.97811 3.84598 5.95585 3.91276 5.93359C3.97954 5.91133 4.04631 5.91133 4.11309 5.91133C4.20213 5.91133 4.26891 5.91133 4.35795 5.91133C4.44698 5.93359 4.53602 5.93359 4.62506 5.97811C4.7141 6.00037 4.80313 6.04489 4.89217 6.11167C4.98121 6.17845 5.07025 6.24522 5.15928 6.312C5.24832 6.20071 5.33736 6.11167 5.4264 6.00037C5.51543 5.91133 5.62673 5.80004 5.71577 5.711C5.82707 5.62196 5.9161 5.53292 6.0274 5.44389C6.1387 5.35485 6.24999 5.26581 6.36129 5.19903L6.38355 5.17677L6.40581 5.15451L6.42807 5.13225L6.45033 5.11C6.24999 4.93192 6.0274 4.7761 5.80481 4.64255C5.58221 4.53125 5.33736 4.41995 5.09251 4.35318C4.84765 4.2864 4.62506 4.24188 4.38021 4.21962C4.15761 4.19736 3.91276 4.19736 3.71242 4.19736C3.55661 4.19736 3.42305 4.21962 3.2895 4.24188C3.15594 4.26414 3.02238 4.30866 2.91109 4.35318C2.79979 4.39769 2.68849 4.44221 2.59945 4.50899C2.51042 4.55351 2.44364 4.62029 2.37686 4.68707C2.19878 4.8874 2.08749 5.13225 2.04297 5.44389C1.99845 5.75552 2.02071 6.11167 2.08749 6.5346C2.15427 6.95752 2.31008 7.40271 2.48816 7.89242C2.68849 8.40439 2.93335 8.93861 3.24498 9.4951C3.04464 9.80673 2.84431 10.1406 2.66623 10.4745C2.48816 10.8084 2.31008 11.1646 2.15427 11.5207C1.99845 11.8769 1.84263 12.233 1.73134 12.5892C1.59778 12.9453 1.48648 13.3237 1.37519 13.7021C0.996778 15.149 0.885481 16.5291 1.01904 17.8201C1.15259 19.1112 1.50874 20.3132 2.10975 21.3371C2.71075 22.3833 3.53435 23.2737 4.55828 23.8969C5.60447 24.5424 6.82874 24.9654 8.23108 25.0322C8.65401 25.0544 9.07694 25.0544 9.49987 25.0322C9.92279 25.0099 10.3457 24.9431 10.7687 24.8541C11.1916 24.765 11.6145 24.6537 12.0374 24.5202C12.4604 24.3866 12.8833 24.2086 13.284 24.0305L12.2823 22.1607C11.9929 22.272 11.7035 22.3833 11.4142 22.4723C11.1248 22.5614 10.8132 22.6281 10.5238 22.6727C10.2344 22.7172 9.92279 22.7617 9.63342 22.784C9.34405 22.8062 9.05468 22.8062 8.74305 22.784C7.60782 22.7394 6.60614 22.4278 5.76029 21.9158C4.93669 21.4039 4.24665 20.7138 3.75694 19.8902C3.26724 19.0666 2.9556 18.0872 2.84431 17.041C2.73301 15.9948 2.82205 14.8596 3.11142 13.7021C3.42305 12.5224 3.91276 11.4317 4.53602 10.4077C5.15928 9.40606 5.93836 8.49342 6.80648 7.71434C7.6746 6.93527 8.65401 6.28974 9.65568 5.8223C10.6796 5.35485 11.7703 5.06548 12.861 4.9987C13.974 4.93192 14.9979 5.10999 15.8883 5.4884C16.8009 5.86681 17.5578 6.46782 18.1588 7.22464C18.7598 8.00372 19.205 8.93861 19.4276 10.0071C19.6501 11.0978 19.6501 12.2998 19.383 13.5908C19.2717 14.1473 19.1159 14.7038 18.9156 15.2603C18.7153 15.7945 18.4704 16.3287 18.181 16.8407C17.8917 17.3527 17.58 17.8424 17.2461 18.2876C16.89 18.755 16.5116 19.1779 16.1109 19.6009C16.1109 19.4673 16.1332 19.3337 16.1332 19.1779C16.1332 19.0444 16.1554 18.8886 16.1554 18.7773C16.1554 18.6437 16.1777 18.5324 16.1777 18.4211C16.1777 18.3098 16.1777 18.243 16.1777 18.1763C16.1777 18.1317 16.1777 18.0872 16.1554 18.0427C16.1554 17.9982 16.1332 17.9759 16.1109 17.9537C16.0886 17.9314 16.0664 17.9091 16.0441 17.9091C16.0219 17.9091 15.9996 17.8869 15.9773 17.8869C15.9551 17.8869 15.9328 17.8869 15.9106 17.8869C15.8883 17.8869 15.8883 17.8869 15.8661 17.9091C15.8438 17.9091 15.8438 17.9091 15.8215 17.9314H15.7993L12.3045 19.0666C12.3045 19.0666 12.26 19.0666 12.2378 19.0889C12.1933 19.1112 12.1487 19.1334 12.1042 19.1779C12.0597 19.2225 12.0374 19.267 12.0152 19.356C12.0152 19.4228 12.0152 19.5341 12.082 19.6454V19.6676V19.6899V19.7122V19.7344C12.2378 20.046 12.4604 20.469 12.7275 20.9587C12.9946 21.4484 13.284 21.9826 13.5733 22.5168C13.8627 23.0511 14.1521 23.5853 14.3969 24.0527C14.6418 24.5202 14.8644 24.8986 14.9757 25.1434C14.9979 25.1657 14.9979 25.188 14.9979 25.2102C14.9979 25.2325 15.0202 25.2547 15.0202 25.2547C15.0202 25.277 15.0425 25.277 15.0425 25.2993C15.0425 25.3215 15.0647 25.3215 15.0647 25.3438C15.087 25.4106 15.1315 25.4551 15.1538 25.4996C15.176 25.5441 15.2205 25.5886 15.2428 25.6109C15.265 25.6332 15.3096 25.6554 15.3318 25.6777C15.3541 25.6999 15.3763 25.6999 15.3986 25.6999C15.4431 25.6999 15.4876 25.6777 15.5099 25.6554C15.5544 25.6332 15.5767 25.5886 15.5989 25.5441C15.6212 25.4996 15.6435 25.4551 15.6657 25.4106C15.688 25.366 15.688 25.3215 15.688 25.2993C15.688 25.2993 15.688 25.277 15.688 25.2547C15.688 25.2325 15.688 25.2102 15.688 25.188C15.688 25.1657 15.688 25.1434 15.688 25.1212C15.688 25.0989 15.688 25.0544 15.688 25.0322C15.688 24.9209 15.7102 24.7873 15.7102 24.6315C15.7102 24.4979 15.7325 24.3421 15.7325 24.2086C15.7325 24.075 15.7548 23.9637 15.7548 23.8747C15.7548 23.7856 15.7548 23.7188 15.7548 23.7188C16.2222 24.0082 16.7119 24.2976 17.1794 24.5424C17.6468 24.8096 18.1143 25.0544 18.5594 25.2547C19.0046 25.4551 19.4276 25.6332 19.8282 25.7667C20.2289 25.9003 20.585 25.967 20.8967 25.9893C20.9412 25.9893 20.9857 25.9893 21.0302 25.9893C21.0747 25.9893 21.1193 25.9893 21.1638 25.9893C21.2083 25.9893 21.2528 25.9893 21.2751 25.9893C21.3196 25.9893 21.3419 25.9893 21.3864 25.967C21.4532 25.967 21.4977 25.9448 21.5422 25.9225C21.5867 25.9003 21.6312 25.878 21.6758 25.8557C21.7203 25.8335 21.7648 25.8112 21.8093 25.7667C21.8538 25.7445 21.8761 25.6999 21.9206 25.6554C22.1432 25.4106 22.2545 25.0544 22.2322 24.587C22.2322 24.1195 22.1209 23.563 21.9429 22.9398L22.2768 23.0511Z" fill="#FDC600"/>
<path d="M11.4814 13.445V12.6214H10.3239V8.125H9.45582C9.09967 8.45889 8.699 8.68148 8.27607 8.81504V9.6609C8.47641 9.63864 8.699 9.57186 8.89934 9.46056C9.09967 9.34927 9.27775 9.23797 9.38904 9.12667V12.6214H7.91992V13.445H11.4592H11.4814ZM14.7536 11.8423C14.7536 12.1094 14.6645 12.332 14.4864 12.4878C14.3084 12.6437 14.0858 12.7327 13.8187 12.7327C13.2177 12.7327 12.9283 12.4656 12.9283 11.9536H12.0157V12.0204C12.0157 12.5101 12.1715 12.8663 12.5054 13.1334C12.8392 13.4005 13.2622 13.534 13.8187 13.534C14.3306 13.534 14.7536 13.3782 15.132 13.0666C15.4881 12.755 15.6662 12.3543 15.6662 11.8201C15.6662 11.3081 15.5104 10.9074 15.1987 10.6181C14.8871 10.3509 14.4642 10.2174 13.9522 10.2174H13.1286V8.97086H15.4881V8.125H12.2605V10.9742H13.8854C14.1526 10.9742 14.3751 11.041 14.531 11.1968C14.6868 11.3526 14.7758 11.5529 14.7758 11.8201V11.8423H14.7536Z" fill="#FDC600"/>
<path d="M9.12214 17.8907V13.9062H8.45436V16.9335L6.87394 13.9062H5.89453V17.8907H6.56231V14.8634L8.14273 17.8907H9.09988H9.12214ZM10.3909 17.5123C10.3909 17.401 10.3687 17.3342 10.2796 17.2897C10.2129 17.2452 10.1238 17.2006 10.0125 17.2006C9.90122 17.2006 9.81218 17.2229 9.74541 17.2897C9.67863 17.3342 9.63411 17.4232 9.63411 17.5123V17.6236C9.63411 17.7349 9.67863 17.8016 9.74541 17.8462C9.81218 17.8907 9.90122 17.9352 10.0125 17.9352C10.1238 17.9352 10.2129 17.9129 10.2796 17.8462C10.3464 17.8016 10.3909 17.7126 10.3909 17.6236V17.5123ZM13.2624 16.8222H12.6391C12.6391 17.2006 12.4388 17.3787 12.0381 17.3787C11.6375 17.3787 11.4594 17.1784 11.4594 16.7777V16.199C11.4594 15.7983 11.6597 15.598 12.0381 15.598C12.4388 15.598 12.6391 15.776 12.6391 16.1544H13.2624V16.1099C13.2624 15.7538 13.1511 15.4867 12.9285 15.3086C12.7059 15.1305 12.4165 15.0192 12.0381 15.0192C11.6597 15.0192 11.3703 15.1083 11.1477 15.3086C10.9252 15.5089 10.8139 15.776 10.8139 16.1322V16.8222C10.8139 17.1784 10.9252 17.4455 11.1477 17.6236C11.3703 17.8239 11.6597 17.9129 12.0381 17.9129C12.4165 17.9129 12.7059 17.8239 12.9285 17.6458C13.1511 17.4678 13.2624 17.2006 13.2624 16.8445V16.8V16.8222ZM17.6252 17.8907V15.9096C17.6252 15.6425 17.5585 15.4199 17.4249 15.2863C17.2913 15.1305 17.091 15.0637 16.8462 15.0637C16.6236 15.0637 16.401 15.1305 16.2006 15.2641L15.889 15.4421C15.7777 15.1973 15.5551 15.0637 15.2212 15.0637C15.0209 15.0637 14.8205 15.1305 14.6202 15.2418L14.3754 15.3976V15.1083H13.7298V17.9352H14.3754V15.9986L14.7093 15.7983C14.8428 15.7315 14.9541 15.687 15.0431 15.687C15.2435 15.687 15.3325 15.7983 15.3325 16.0432V17.9575H15.978V16.0209L16.3119 15.8206C16.4455 15.7538 16.5568 15.7093 16.6458 15.7093C16.8462 15.7093 16.9352 15.8206 16.9352 16.0654V17.9797H17.5807L17.6252 17.8907Z" fill="#FDC600"/>
<path d="M19.6053 10.3902C22.2987 10.3902 24.4801 8.20882 24.4801 5.51543C24.4801 2.82205 22.2987 0.640625 19.6053 0.640625C16.9119 0.640625 14.7305 2.82205 14.7305 5.51543C14.7305 8.20882 16.9119 10.3902 19.6053 10.3902Z" fill="#FDC600"/>
<path d="M19.6053 10.3902C22.2987 10.3902 24.4801 8.20882 24.4801 5.51543C24.4801 2.82205 22.2987 0.640625 19.6053 0.640625C16.9119 0.640625 14.7305 2.82205 14.7305 5.51543C14.7305 8.20882 16.9119 10.3902 19.6053 10.3902Z" stroke="white" stroke-width="0.845857"/>
<path d="M21.3188 8.29581V7.76159H20.1168V3.10938H19.4935C19.1151 3.44327 18.759 3.68812 18.4028 3.79942V4.3559C18.8035 4.28912 19.1596 4.08879 19.5158 3.73264V7.76159H18.0244V8.29581H21.3188Z" fill="#FEFEFE"/>
</svg>
