<svg width="25" height="26" viewBox="0 0 25 26" fill="none" xmlns="http://www.w3.org/2000/svg">
<path d="M22.2768 22.4964C22.0987 21.8731 21.8316 21.2053 21.5199 20.5376C21.2083 19.8475 20.8522 19.1575 20.4737 18.4674C20.4292 18.5565 20.3624 18.6455 20.3179 18.7345C20.2512 18.8236 20.2066 18.9126 20.1399 19.0017C20.0731 19.0907 20.0286 19.1797 19.9618 19.2688C19.895 19.3578 19.8282 19.4468 19.7614 19.5136C19.7614 19.5136 19.7614 19.5136 19.7392 19.5359C19.7392 19.5359 19.7392 19.5359 19.7169 19.5581C19.7169 19.5581 19.7169 19.5581 19.6947 19.5804C19.6947 19.5804 19.6947 19.5804 19.6724 19.6027L19.6056 19.6694C19.6501 19.8253 19.7169 20.0033 19.806 20.2259C19.8727 20.4263 19.9618 20.6488 20.0286 20.8492C20.0953 21.0495 20.1399 21.2499 20.1621 21.4057C20.1844 21.5615 20.1844 21.695 20.1176 21.7396C20.0953 21.7618 20.0731 21.7841 20.0508 21.7841C20.0286 21.8063 20.0063 21.8063 19.9618 21.8286C19.9395 21.8286 19.895 21.8509 19.8727 21.8509C19.8505 21.8509 19.806 21.8509 19.7614 21.8509C19.6947 21.8509 19.6501 21.8509 19.5834 21.8286C19.5166 21.8063 19.4498 21.8063 19.383 21.7618C19.3163 21.7396 19.2272 21.7173 19.1604 21.6728C19.0714 21.6505 19.0046 21.606 18.9156 21.5615C18.8043 21.517 18.693 21.4502 18.5817 21.3834C18.4704 21.3166 18.3368 21.2499 18.2255 21.1831C18.1143 21.1163 17.9807 21.0495 17.8471 20.9605C17.7136 20.8937 17.58 20.8047 17.4687 20.7156C17.9807 20.2037 18.4704 19.6472 18.9156 19.0684C19.3608 18.4897 19.7614 17.8664 20.1176 17.2209C20.4737 16.5754 20.7854 15.9076 21.0302 15.2176C21.2751 14.5275 21.4977 13.8152 21.6312 13.1029C21.9429 11.5002 21.9429 9.9866 21.6312 8.65104C21.3419 7.31547 20.7854 6.15798 20.0063 5.22309C19.2495 4.28819 18.2701 3.57589 17.1571 3.10845C16.0441 2.66326 14.7976 2.46292 13.4175 2.55196C12.5271 2.61874 11.6368 2.79682 10.7464 3.08619C9.87827 3.37556 9.05468 3.77623 8.25334 4.24368C7.452 4.71112 6.69518 5.28987 5.98288 5.91313C5.27058 6.53639 4.62506 7.24869 4.04631 8.00551C3.8905 7.71614 3.75694 7.42677 3.64565 7.18192C3.53435 6.93706 3.46757 6.69221 3.42305 6.49187C3.37853 6.29154 3.35627 6.11346 3.37853 5.95765C3.40079 5.80183 3.44531 5.69054 3.51209 5.6015C3.53435 5.57924 3.57887 5.55698 3.60113 5.51246C3.64565 5.4902 3.69016 5.46794 3.73468 5.44568C3.7792 5.42342 3.84598 5.40116 3.91276 5.3789C3.97954 5.35665 4.04631 5.35665 4.11309 5.35665C4.20213 5.35665 4.26891 5.35665 4.35795 5.35665C4.44698 5.37891 4.53602 5.3789 4.62506 5.42342C4.7141 5.44568 4.80313 5.4902 4.89217 5.55698C4.98121 5.62376 5.07025 5.69054 5.15928 5.75731C5.24832 5.64602 5.33736 5.55698 5.4264 5.44568C5.51543 5.35665 5.62673 5.24535 5.71577 5.15631C5.82707 5.06727 5.9161 4.97824 6.0274 4.8892C6.1387 4.80016 6.24999 4.71112 6.36129 4.64435L6.38355 4.62209L6.40581 4.59983L6.42807 4.57757L6.45033 4.55531C6.24999 4.37723 6.0274 4.22142 5.80481 4.08786C5.58221 3.97656 5.33736 3.86527 5.09251 3.79849C4.84765 3.73171 4.62506 3.68719 4.38021 3.66493C4.15761 3.64267 3.91276 3.64267 3.71242 3.64267C3.55661 3.64267 3.42305 3.66493 3.2895 3.68719C3.15594 3.70945 3.02238 3.75397 2.91109 3.79849C2.79979 3.84301 2.68849 3.88753 2.59945 3.9543C2.51042 3.99882 2.44364 4.0656 2.37686 4.13238C2.19878 4.33271 2.08749 4.57757 2.04297 4.8892C1.99845 5.20083 2.02071 5.55698 2.08749 5.97991C2.15427 6.40284 2.31008 6.84803 2.48816 7.33773C2.68849 7.8497 2.93335 8.38392 3.24498 8.94041C3.04464 9.25204 2.84431 9.58593 2.66623 9.91982C2.48816 10.2537 2.31008 10.6099 2.15427 10.966C1.99845 11.3222 1.84263 11.6783 1.73134 12.0345C1.59778 12.3906 1.48648 12.769 1.37519 13.1474C0.996778 14.5943 0.885481 15.9744 1.01904 17.2654C1.15259 18.5565 1.50874 19.7585 2.10975 20.7824C2.71075 21.8286 3.53435 22.719 4.55828 23.3422C5.60447 23.9878 6.82874 24.4107 8.23108 24.4775C8.65401 24.4997 9.07694 24.4997 9.49987 24.4775C9.92279 24.4552 10.3457 24.3884 10.7687 24.2994C11.1916 24.2104 11.6145 24.0991 12.0374 23.9655C12.4604 23.8319 12.8833 23.6539 13.284 23.4758L12.2823 21.606C11.9929 21.7173 11.7035 21.8286 11.4142 21.9176C11.1248 22.0067 10.8132 22.0735 10.5238 22.118C10.2344 22.1625 9.92279 22.207 9.63342 22.2293C9.34405 22.2515 9.05468 22.2515 8.74305 22.2293C7.60782 22.1847 6.60614 21.8731 5.76029 21.3611C4.93669 20.8492 4.24665 20.1591 3.75694 19.3355C3.26724 18.5119 2.9556 17.5325 2.84431 16.4863C2.73301 15.4402 2.82205 14.3049 3.11142 13.1474C3.42305 11.9677 3.91276 10.877 4.53602 9.85304C5.15928 8.85137 5.93836 7.93874 6.80648 7.15966C7.6746 6.38058 8.65401 5.73506 9.65568 5.26761C10.6796 4.80016 11.7703 4.51079 12.861 4.44401C13.974 4.37723 14.9979 4.55531 15.8883 4.93372C16.8009 5.31213 17.5578 5.91313 18.1588 6.66995C18.7598 7.44903 19.205 8.38392 19.4276 9.45237C19.6501 10.5431 19.6501 11.7451 19.383 13.0361C19.2717 13.5926 19.1159 14.1491 18.9156 14.7056C18.7153 15.2398 18.4704 15.774 18.181 16.286C17.8917 16.798 17.58 17.2877 17.2461 17.7329C16.89 18.2003 16.5116 18.6232 16.1109 19.0462C16.1109 18.9126 16.1332 18.7791 16.1332 18.6232C16.1332 18.4897 16.1554 18.3339 16.1554 18.2226C16.1554 18.089 16.1777 17.9777 16.1777 17.8664C16.1777 17.7551 16.1777 17.6884 16.1777 17.6216C16.1777 17.5771 16.1777 17.5325 16.1554 17.488C16.1554 17.4435 16.1332 17.4212 16.1109 17.399C16.0886 17.3767 16.0664 17.3545 16.0441 17.3545C16.0219 17.3545 15.9996 17.3322 15.9773 17.3322C15.9551 17.3322 15.9328 17.3322 15.9106 17.3322C15.8883 17.3322 15.8883 17.3322 15.8661 17.3545C15.8438 17.3545 15.8438 17.3545 15.8215 17.3767H15.7993L12.3045 18.5119C12.3045 18.5119 12.26 18.5119 12.2378 18.5342C12.1933 18.5565 12.1487 18.5787 12.1042 18.6232C12.0597 18.6678 12.0374 18.7123 12.0152 18.8013C12.0152 18.8681 12.0152 18.9794 12.082 19.0907V19.1129V19.1352V19.1575V19.1797C12.2378 19.4914 12.4604 19.9143 12.7275 20.404C12.9946 20.8937 13.284 21.4279 13.5733 21.9622C13.8627 22.4964 14.1521 23.0306 14.3969 23.4981C14.6418 23.9655 14.8644 24.3439 14.9757 24.5888C14.9979 24.611 14.9979 24.6333 14.9979 24.6555C14.9979 24.6778 15.0202 24.7001 15.0202 24.7001C15.0202 24.7223 15.0425 24.7223 15.0425 24.7446C15.0425 24.7668 15.0647 24.7668 15.0647 24.7891C15.087 24.8559 15.1315 24.9004 15.1538 24.9449C15.176 24.9894 15.2205 25.0339 15.2428 25.0562C15.265 25.0785 15.3096 25.1007 15.3318 25.123C15.3541 25.1452 15.3763 25.1452 15.3986 25.1452C15.4431 25.1452 15.4876 25.123 15.5099 25.1007C15.5544 25.0785 15.5767 25.0339 15.5989 24.9894C15.6212 24.9449 15.6435 24.9004 15.6657 24.8559C15.688 24.8114 15.688 24.7668 15.688 24.7446C15.688 24.7446 15.688 24.7223 15.688 24.7001C15.688 24.6778 15.688 24.6555 15.688 24.6333C15.688 24.611 15.688 24.5888 15.688 24.5665C15.688 24.5442 15.688 24.4997 15.688 24.4775C15.688 24.3662 15.7102 24.2326 15.7102 24.0768C15.7102 23.9432 15.7325 23.7874 15.7325 23.6539C15.7325 23.5203 15.7548 23.409 15.7548 23.32C15.7548 23.2309 15.7548 23.1642 15.7548 23.1642C16.2222 23.4535 16.7119 23.7429 17.1794 23.9878C17.6468 24.2549 18.1143 24.4997 18.5594 24.7001C19.0046 24.9004 19.4276 25.0785 19.8282 25.212C20.2289 25.3456 20.585 25.4124 20.8967 25.4346C20.9412 25.4346 20.9857 25.4346 21.0302 25.4346C21.0747 25.4346 21.1193 25.4346 21.1638 25.4346C21.2083 25.4346 21.2528 25.4346 21.2751 25.4346C21.3196 25.4346 21.3419 25.4346 21.3864 25.4124C21.4532 25.4124 21.4977 25.3901 21.5422 25.3678C21.5867 25.3456 21.6312 25.3233 21.6758 25.3011C21.7203 25.2788 21.7648 25.2565 21.8093 25.212C21.8538 25.1898 21.8761 25.1452 21.9206 25.1007C22.1432 24.8559 22.2545 24.4997 22.2322 24.0323C22.2322 23.5648 22.1209 23.0083 21.9429 22.3851L22.2768 22.4964Z" fill="#FDC600"/>
<path d="M11.4814 12.8903V12.0667H10.3239V7.57031H9.45582C9.09967 7.9042 8.699 8.1268 8.27607 8.26035V9.10621C8.47641 9.08395 8.699 9.01717 8.89934 8.90588C9.09967 8.79458 9.27775 8.68328 9.38904 8.57199V12.0667H7.91992V12.8903H11.4592H11.4814ZM14.7536 11.2876C14.7536 11.5547 14.6645 11.7773 14.4864 11.9332C14.3084 12.089 14.0858 12.178 13.8187 12.178C13.2177 12.178 12.9283 11.9109 12.9283 11.3989H12.0157V11.4657C12.0157 11.9554 12.1715 12.3116 12.5054 12.5787C12.8392 12.8458 13.2622 12.9793 13.8187 12.9793C14.3306 12.9793 14.7536 12.8235 15.132 12.5119C15.4881 12.2003 15.6662 11.7996 15.6662 11.2654C15.6662 10.7534 15.5104 10.3527 15.1987 10.0634C14.8871 9.79625 14.4642 9.6627 13.9522 9.6627H13.1286V8.41617H15.4881V7.57031H12.2605V10.4195H13.8854C14.1526 10.4195 14.3751 10.4863 14.531 10.6421C14.6868 10.7979 14.7758 10.9983 14.7758 11.2654V11.2876H14.7536Z" fill="#FDC600"/>
<path d="M9.12214 17.336V13.3516H8.45436V16.3788L6.87394 13.3516H5.89453V17.336H6.56231V14.3087L8.14273 17.336H9.09988H9.12214ZM10.3909 16.9576C10.3909 16.8463 10.3687 16.7795 10.2796 16.735C10.2129 16.6905 10.1238 16.646 10.0125 16.646C9.90122 16.646 9.81218 16.6682 9.74541 16.735C9.67863 16.7795 9.63411 16.8685 9.63411 16.9576V17.0689C9.63411 17.1802 9.67863 17.247 9.74541 17.2915C9.81218 17.336 9.90122 17.3805 10.0125 17.3805C10.1238 17.3805 10.2129 17.3583 10.2796 17.2915C10.3464 17.247 10.3909 17.1579 10.3909 17.0689V16.9576ZM13.2624 16.2675H12.6391C12.6391 16.646 12.4388 16.824 12.0381 16.824C11.6375 16.824 11.4594 16.6237 11.4594 16.223V15.6443C11.4594 15.2436 11.6597 15.0433 12.0381 15.0433C12.4388 15.0433 12.6391 15.2214 12.6391 15.5998H13.2624V15.5552C13.2624 15.1991 13.1511 14.932 12.9285 14.7539C12.7059 14.5758 12.4165 14.4645 12.0381 14.4645C11.6597 14.4645 11.3703 14.5536 11.1477 14.7539C10.9252 14.9542 10.8139 15.2214 10.8139 15.5775V16.2675C10.8139 16.6237 10.9252 16.8908 11.1477 17.0689C11.3703 17.2692 11.6597 17.3583 12.0381 17.3583C12.4165 17.3583 12.7059 17.2692 12.9285 17.0911C13.1511 16.9131 13.2624 16.646 13.2624 16.2898V16.2453V16.2675ZM17.6252 17.336V15.3549C17.6252 15.0878 17.5585 14.8652 17.4249 14.7316C17.2913 14.5758 17.091 14.5091 16.8462 14.5091C16.6236 14.5091 16.401 14.5758 16.2006 14.7094L15.889 14.8875C15.7777 14.6426 15.5551 14.5091 15.2212 14.5091C15.0209 14.5091 14.8205 14.5758 14.6202 14.6871L14.3754 14.8429V14.5536H13.7298V17.3805H14.3754V15.4439L14.7093 15.2436C14.8428 15.1768 14.9541 15.1323 15.0431 15.1323C15.2435 15.1323 15.3325 15.2436 15.3325 15.4885V17.4028H15.978V15.4662L16.3119 15.2659C16.4455 15.1991 16.5568 15.1546 16.6458 15.1546C16.8462 15.1546 16.9352 15.2659 16.9352 15.5107V17.425H17.5807L17.6252 17.336Z" fill="#FDC600"/>
<path d="M19.6053 9.83555C22.2987 9.83555 24.4801 7.65413 24.4801 4.96074C24.4801 2.26736 22.2987 0.0859375 19.6053 0.0859375C16.9119 0.0859375 14.7305 2.26736 14.7305 4.96074C14.7305 7.65413 16.9119 9.83555 19.6053 9.83555Z" fill="#FDC600"/>
<path d="M19.6053 9.83555C22.2987 9.83555 24.4801 7.65413 24.4801 4.96074C24.4801 2.26736 22.2987 0.0859375 19.6053 0.0859375C16.9119 0.0859375 14.7305 2.26736 14.7305 4.96074C14.7305 7.65413 16.9119 9.83555 19.6053 9.83555Z" stroke="white" stroke-width="0.845857"/>
<path d="M21.3188 7.74113V7.2069H20.1168V2.55469H19.4935C19.1151 2.88858 18.759 3.13343 18.4028 3.24473V3.80121C18.8035 3.73444 19.1596 3.5341 19.5158 3.17795V7.2069H18.0244V7.74113H21.3188Z" fill="#FEFEFE"/>
</svg>
