<svg width="17" height="17" viewBox="0 0 17 17" fill="none" xmlns="http://www.w3.org/2000/svg">
<path d="M8.77063 4.42969C8.90324 4.42969 9.03042 4.48237 9.12419 4.57614C9.21797 4.66991 9.27064 4.79709 9.27064 4.9297V7.92979H12.2707C12.4033 7.92979 12.5305 7.98247 12.6243 8.07625C12.7181 8.17002 12.7708 8.2972 12.7708 8.42981C12.7708 8.56242 12.7181 8.6896 12.6243 8.78337C12.5305 8.87714 12.4033 8.92982 12.2707 8.92982H9.27064V11.9299C9.27064 12.0625 9.21797 12.1897 9.12419 12.2835C9.03042 12.3773 8.90324 12.4299 8.77063 12.4299C8.63802 12.4299 8.51084 12.3773 8.41707 12.2835C8.32329 12.1897 8.27061 12.0625 8.27061 11.9299V8.92982H5.27052C5.13791 8.92982 5.01073 8.87714 4.91696 8.78337C4.82319 8.6896 4.77051 8.56242 4.77051 8.42981C4.77051 8.2972 4.82319 8.17002 4.91696 8.07625C5.01073 7.98247 5.13791 7.92979 5.27052 7.92979H8.27061V4.9297C8.27061 4.79709 8.32329 4.66991 8.41707 4.57614C8.51084 4.48237 8.63802 4.42969 8.77063 4.42969Z" fill="#CFCCC9"/>
</svg>
