<svg width="17" height="16" viewBox="0 0 17 16" fill="none" xmlns="http://www.w3.org/2000/svg">
<path d="M8.77063 4.00781C8.90324 4.00781 9.03042 4.06049 9.12419 4.15426C9.21797 4.24803 9.27064 4.37522 9.27064 4.50783V7.50792H12.2707C12.4033 7.50792 12.5305 7.5606 12.6243 7.65437C12.7181 7.74814 12.7708 7.87532 12.7708 8.00793C12.7708 8.14055 12.7181 8.26773 12.6243 8.3615C12.5305 8.45527 12.4033 8.50795 12.2707 8.50795H9.27064V11.508C9.27064 11.6407 9.21797 11.7678 9.12419 11.8616C9.03042 11.9554 8.90324 12.0081 8.77063 12.0081C8.63802 12.0081 8.51084 11.9554 8.41707 11.8616C8.32329 11.7678 8.27061 11.6407 8.27061 11.508V8.50795H5.27052C5.13791 8.50795 5.01073 8.45527 4.91696 8.3615C4.82319 8.26773 4.77051 8.14055 4.77051 8.00793C4.77051 7.87532 4.82319 7.74814 4.91696 7.65437C5.01073 7.5606 5.13791 7.50792 5.27052 7.50792H8.27061V4.50783C8.27061 4.37522 8.32329 4.24803 8.41707 4.15426C8.51084 4.06049 8.63802 4.00781 8.77063 4.00781Z" fill="#CFCCC9"/>
</svg>
