<svg width="15" height="15" viewBox="0 0 15 15" fill="none" xmlns="http://www.w3.org/2000/svg">
<path d="M8.54908 5.39669C8.54908 5.28526 8.50482 5.1784 8.42603 5.09961C8.34724 5.02083 8.24038 4.97656 8.12896 4.97656C8.01753 4.97656 7.91067 5.02083 7.83188 5.09961C7.75309 5.1784 7.70883 5.28526 7.70883 5.39669V6.65707H6.44845C6.33702 6.65707 6.23016 6.70133 6.15137 6.78012C6.07258 6.85891 6.02832 6.96577 6.02832 7.0772C6.02832 7.18862 6.07258 7.29548 6.15137 7.37427C6.23016 7.45306 6.33702 7.49732 6.44845 7.49732H7.70883V8.75771C7.70883 8.86913 7.75309 8.97599 7.83188 9.05478C7.91067 9.13357 8.01753 9.17783 8.12896 9.17783C8.24038 9.17783 8.34724 9.13357 8.42603 9.05478C8.50482 8.97599 8.54908 8.86913 8.54908 8.75771V7.49732H9.80946C9.92089 7.49732 10.0278 7.45306 10.1065 7.37427C10.1853 7.29548 10.2296 7.18862 10.2296 7.0772C10.2296 6.96577 10.1853 6.85891 10.1065 6.78012C10.0278 6.70133 9.92089 6.65707 9.80946 6.65707H8.54908V5.39669Z" fill="#363330"/>
<path d="M1.40646 1.61328C1.29503 1.61328 1.18817 1.65754 1.10938 1.73633C1.03059 1.81512 0.986328 1.92198 0.986328 2.03341C0.986328 2.14483 1.03059 2.25169 1.10938 2.33048C1.18817 2.40927 1.29503 2.45354 1.40646 2.45354H2.33914L2.67608 3.80382L3.93478 10.5133C3.9528 10.6095 4.0039 10.6965 4.07923 10.7591C4.15456 10.8217 4.2494 10.856 4.34735 10.8561H5.1876C4.7419 10.8561 4.31446 11.0331 3.9993 11.3483C3.68414 11.6634 3.50709 12.0909 3.50709 12.5366C3.50709 12.9823 3.68414 13.4097 3.9993 13.7249C4.31446 14.04 4.7419 14.2171 5.1876 14.2171C5.6333 14.2171 6.06074 14.04 6.3759 13.7249C6.69105 13.4097 6.86811 12.9823 6.86811 12.5366C6.86811 12.0909 6.69105 11.6634 6.3759 11.3483C6.06074 11.0331 5.6333 10.8561 5.1876 10.8561H11.0694C10.6237 10.8561 10.1962 11.0331 9.88108 11.3483C9.56592 11.6634 9.38887 12.0909 9.38887 12.5366C9.38887 12.9823 9.56592 13.4097 9.88108 13.7249C10.1962 14.04 10.6237 14.2171 11.0694 14.2171C11.5151 14.2171 11.9425 14.04 12.2577 13.7249C12.5728 13.4097 12.7499 12.9823 12.7499 12.5366C12.7499 12.0909 12.5728 11.6634 12.2577 11.3483C11.9425 11.0331 11.5151 10.8561 11.0694 10.8561H11.9096C12.0076 10.856 12.1024 10.8217 12.1777 10.7591C12.2531 10.6965 12.3042 10.6095 12.3222 10.5133L13.5826 3.79122C13.5939 3.73058 13.5918 3.66819 13.5763 3.60848C13.5608 3.54877 13.5324 3.49319 13.493 3.44571C13.4536 3.39823 13.4043 3.36 13.3484 3.33374C13.2926 3.30749 13.2317 3.29385 13.17 3.29379H3.41466L3.07436 1.93174C3.05168 1.84081 2.99925 1.76007 2.92541 1.70237C2.85157 1.64467 2.76055 1.61331 2.66684 1.61328H1.40646ZM4.69605 10.0158L3.5928 4.13404H12.6642L11.5609 10.0158H4.69605ZM6.02785 12.5366C6.02785 12.7594 5.93933 12.9732 5.78175 13.1307C5.62417 13.2883 5.41045 13.3768 5.1876 13.3768C4.96475 13.3768 4.75103 13.2883 4.59345 13.1307C4.43587 12.9732 4.34735 12.7594 4.34735 12.5366C4.34735 12.3137 4.43587 12.1 4.59345 11.9424C4.75103 11.7849 4.96475 11.6963 5.1876 11.6963C5.41045 11.6963 5.62417 11.7849 5.78175 11.9424C5.93933 12.1 6.02785 12.3137 6.02785 12.5366ZM11.9096 12.5366C11.9096 12.7594 11.8211 12.9732 11.6635 13.1307C11.5059 13.2883 11.2922 13.3768 11.0694 13.3768C10.8465 13.3768 10.6328 13.2883 10.4752 13.1307C10.3177 12.9732 10.2291 12.7594 10.2291 12.5366C10.2291 12.3137 10.3177 12.1 10.4752 11.9424C10.6328 11.7849 10.8465 11.6963 11.0694 11.6963C11.2922 11.6963 11.5059 11.7849 11.6635 11.9424C11.8211 12.1 11.9096 12.3137 11.9096 12.5366Z" fill="#363330"/>
</svg>
