<svg width="14" height="15" viewBox="0 0 14 15" fill="none" xmlns="http://www.w3.org/2000/svg">
<path d="M7.92506 5.39669C7.92506 5.28526 7.8808 5.1784 7.80201 5.09961C7.72322 5.02083 7.61636 4.97656 7.50493 4.97656C7.39351 4.97656 7.28665 5.02083 7.20786 5.09961C7.12907 5.1784 7.08481 5.28526 7.08481 5.39669V6.65707H5.82442C5.713 6.65707 5.60614 6.70133 5.52735 6.78012C5.44856 6.85891 5.4043 6.96577 5.4043 7.0772C5.4043 7.18862 5.44856 7.29548 5.52735 7.37427C5.60614 7.45306 5.713 7.49732 5.82442 7.49732H7.08481V8.75771C7.08481 8.86913 7.12907 8.97599 7.20786 9.05478C7.28665 9.13357 7.39351 9.17783 7.50493 9.17783C7.61636 9.17783 7.72322 9.13357 7.80201 9.05478C7.8808 8.97599 7.92506 8.86913 7.92506 8.75771V7.49732H9.18544C9.29687 7.49732 9.40373 7.45306 9.48252 7.37427C9.56131 7.29548 9.60557 7.18862 9.60557 7.0772C9.60557 6.96577 9.56131 6.85891 9.48252 6.78012C9.40373 6.70133 9.29687 6.65707 9.18544 6.65707H7.92506V5.39669Z" fill="#363330"/>
<path d="M0.782432 1.61328C0.671007 1.61328 0.564146 1.65754 0.485357 1.73633C0.406568 1.81512 0.362305 1.92198 0.362305 2.03341C0.362305 2.14483 0.406568 2.25169 0.485357 2.33048C0.564146 2.40927 0.671007 2.45354 0.782432 2.45354H1.71511L2.05206 3.80382L3.31076 10.5133C3.32878 10.6095 3.37987 10.6965 3.45521 10.7591C3.53054 10.8217 3.62538 10.856 3.72332 10.8561H4.56358C4.11788 10.8561 3.69043 11.0331 3.37528 11.3483C3.06012 11.6634 2.88307 12.0909 2.88307 12.5366C2.88307 12.9823 3.06012 13.4097 3.37528 13.7249C3.69043 14.04 4.11788 14.2171 4.56358 14.2171C5.00927 14.2171 5.43672 14.04 5.75187 13.7249C6.06703 13.4097 6.24408 12.9823 6.24408 12.5366C6.24408 12.0909 6.06703 11.6634 5.75187 11.3483C5.43672 11.0331 5.00927 10.8561 4.56358 10.8561H10.4454C9.99966 10.8561 9.57221 11.0331 9.25706 11.3483C8.9419 11.6634 8.76485 12.0909 8.76485 12.5366C8.76485 12.9823 8.9419 13.4097 9.25706 13.7249C9.57221 14.04 9.99966 14.2171 10.4454 14.2171C10.8911 14.2171 11.3185 14.04 11.6337 13.7249C11.9488 13.4097 12.1259 12.9823 12.1259 12.5366C12.1259 12.0909 11.9488 11.6634 11.6337 11.3483C11.3185 11.0331 10.8911 10.8561 10.4454 10.8561H11.2856C11.3836 10.856 11.4784 10.8217 11.5537 10.7591C11.6291 10.6965 11.6802 10.6095 11.6982 10.5133L12.9586 3.79122C12.9699 3.73058 12.9678 3.66819 12.9523 3.60848C12.9368 3.54877 12.9084 3.49319 12.869 3.44571C12.8296 3.39823 12.7802 3.36 12.7244 3.33374C12.6686 3.30749 12.6077 3.29385 12.546 3.29379H2.79064L2.45034 1.93174C2.42766 1.84081 2.37523 1.76007 2.30139 1.70237C2.22754 1.64467 2.13653 1.61331 2.04281 1.61328H0.782432ZM4.07203 10.0158L2.96877 4.13404H12.0402L10.9369 10.0158H4.07203ZM5.40383 12.5366C5.40383 12.7594 5.3153 12.9732 5.15773 13.1307C5.00015 13.2883 4.78643 13.3768 4.56358 13.3768C4.34073 13.3768 4.127 13.2883 3.96943 13.1307C3.81185 12.9732 3.72332 12.7594 3.72332 12.5366C3.72332 12.3137 3.81185 12.1 3.96943 11.9424C4.127 11.7849 4.34073 11.6963 4.56358 11.6963C4.78643 11.6963 5.00015 11.7849 5.15773 11.9424C5.3153 12.1 5.40383 12.3137 5.40383 12.5366ZM11.2856 12.5366C11.2856 12.7594 11.1971 12.9732 11.0395 13.1307C10.8819 13.2883 10.6682 13.3768 10.4454 13.3768C10.2225 13.3768 10.0088 13.2883 9.85121 13.1307C9.69363 12.9732 9.6051 12.7594 9.6051 12.5366C9.6051 12.3137 9.69363 12.1 9.85121 11.9424C10.0088 11.7849 10.2225 11.6963 10.4454 11.6963C10.6682 11.6963 10.8819 11.7849 11.0395 11.9424C11.1971 12.1 11.2856 12.3137 11.2856 12.5366Z" fill="#363330"/>
</svg>
