<svg width="15" height="14" viewBox="0 0 15 14" fill="none" xmlns="http://www.w3.org/2000/svg">
<path d="M8.35377 4.66231C8.35377 4.55089 8.30951 4.44403 8.23072 4.36524C8.15193 4.28645 8.04507 4.24219 7.93364 4.24219C7.82222 4.24219 7.71536 4.28645 7.63657 4.36524C7.55778 4.44403 7.51352 4.55089 7.51352 4.66231V5.9227H6.25313C6.14171 5.9227 6.03485 5.96696 5.95606 6.04575C5.87727 6.12454 5.83301 6.2314 5.83301 6.34282C5.83301 6.45425 5.87727 6.56111 5.95606 6.6399C6.03485 6.71869 6.14171 6.76295 6.25313 6.76295H7.51352V8.02333C7.51352 8.13476 7.55778 8.24162 7.63657 8.32041C7.71536 8.3992 7.82222 8.44346 7.93364 8.44346C8.04507 8.44346 8.15193 8.3992 8.23072 8.32041C8.30951 8.24162 8.35377 8.13476 8.35377 8.02333V6.76295H9.61415C9.72558 6.76295 9.83244 6.71869 9.91123 6.6399C9.99002 6.56111 10.0343 6.45425 10.0343 6.34282C10.0343 6.2314 9.99002 6.12454 9.91123 6.04575C9.83244 5.96696 9.72558 5.9227 9.61415 5.9227H8.35377V4.66231Z" fill="#363330"/>
<path d="M1.21114 0.878906C1.09972 0.878906 0.992857 0.923169 0.914068 1.00196C0.835279 1.08075 0.791016 1.18761 0.791016 1.29903C0.791016 1.41046 0.835279 1.51732 0.914068 1.59611C0.992857 1.6749 1.09972 1.71916 1.21114 1.71916H2.14382L2.48077 3.06945L3.73947 9.77888C3.75749 9.87515 3.80858 9.9621 3.88392 10.0247C3.95925 10.0873 4.05409 10.1216 4.15203 10.1217H4.99229C4.54659 10.1217 4.11914 10.2988 3.80399 10.6139C3.48883 10.9291 3.31178 11.3565 3.31178 11.8022C3.31178 12.2479 3.48883 12.6754 3.80399 12.9905C4.11914 13.3057 4.54659 13.4827 4.99229 13.4827C5.43799 13.4827 5.86543 13.3057 6.18059 12.9905C6.49574 12.6754 6.6728 12.2479 6.6728 11.8022C6.6728 11.3565 6.49574 10.9291 6.18059 10.6139C5.86543 10.2988 5.43799 10.1217 4.99229 10.1217H10.8741C10.4284 10.1217 10.0009 10.2988 9.68577 10.6139C9.37061 10.9291 9.19356 11.3565 9.19356 11.8022C9.19356 12.2479 9.37061 12.6754 9.68577 12.9905C10.0009 13.3057 10.4284 13.4827 10.8741 13.4827C11.3198 13.4827 11.7472 13.3057 12.0624 12.9905C12.3775 12.6754 12.5546 12.2479 12.5546 11.8022C12.5546 11.3565 12.3775 10.9291 12.0624 10.6139C11.7472 10.2988 11.3198 10.1217 10.8741 10.1217H11.7143C11.8123 10.1216 11.9071 10.0873 11.9824 10.0247C12.0578 9.9621 12.1089 9.87515 12.1269 9.77888L13.3873 3.05685C13.3986 2.99621 13.3965 2.93382 13.381 2.8741C13.3655 2.81439 13.3371 2.75882 13.2977 2.71134C13.2583 2.66385 13.209 2.62563 13.1531 2.59937C13.0973 2.57311 13.0364 2.55947 12.9747 2.55941H3.21935L2.87905 1.19736C2.85637 1.10643 2.80394 1.0257 2.7301 0.967994C2.65625 0.91029 2.56524 0.878932 2.47152 0.878906H1.21114ZM4.50074 9.28145L3.39748 3.39967H12.4689L11.3656 9.28145H4.50074ZM5.83254 11.8022C5.83254 12.0251 5.74401 12.2388 5.58644 12.3964C5.42886 12.5539 5.21514 12.6425 4.99229 12.6425C4.76944 12.6425 4.55572 12.5539 4.39814 12.3964C4.24056 12.2388 4.15203 12.0251 4.15203 11.8022C4.15203 11.5794 4.24056 11.3656 4.39814 11.2081C4.55572 11.0505 4.76944 10.962 4.99229 10.962C5.21514 10.962 5.42886 11.0505 5.58644 11.2081C5.74401 11.3656 5.83254 11.5794 5.83254 11.8022ZM11.7143 11.8022C11.7143 12.0251 11.6258 12.2388 11.4682 12.3964C11.3106 12.5539 11.0969 12.6425 10.8741 12.6425C10.6512 12.6425 10.4375 12.5539 10.2799 12.3964C10.1223 12.2388 10.0338 12.0251 10.0338 11.8022C10.0338 11.5794 10.1223 11.3656 10.2799 11.2081C10.4375 11.0505 10.6512 10.962 10.8741 10.962C11.0969 10.962 11.3106 11.0505 11.4682 11.2081C11.6258 11.3656 11.7143 11.5794 11.7143 11.8022Z" fill="#363330"/>
</svg>
