<svg width="15" height="15" viewBox="0 0 15 15" fill="none" xmlns="http://www.w3.org/2000/svg">
<path d="M8.20143 5.50606C8.20143 5.39464 8.15716 5.28778 8.07837 5.20899C7.99959 5.1302 7.89272 5.08594 7.7813 5.08594C7.66987 5.08594 7.56301 5.1302 7.48422 5.20899C7.40544 5.28778 7.36117 5.39464 7.36117 5.50606V6.76645H6.10079C5.98937 6.76645 5.88251 6.81071 5.80372 6.8895C5.72493 6.96829 5.68066 7.07515 5.68066 7.18657C5.68066 7.298 5.72493 7.40486 5.80372 7.48365C5.88251 7.56244 5.98937 7.6067 6.10079 7.6067H7.36117V8.86708C7.36117 8.97851 7.40544 9.08537 7.48422 9.16416C7.56301 9.24295 7.66987 9.28721 7.7813 9.28721C7.89272 9.28721 7.99959 9.24295 8.07837 9.16416C8.15716 9.08537 8.20143 8.97851 8.20143 8.86708V7.6067H9.46181C9.57323 7.6067 9.68009 7.56244 9.75888 7.48365C9.83767 7.40486 9.88194 7.298 9.88194 7.18657C9.88194 7.07515 9.83767 6.96829 9.75888 6.8895C9.68009 6.81071 9.57323 6.76645 9.46181 6.76645H8.20143V5.50606Z" fill="#363330"/>
<path d="M1.0588 1.72266C0.947374 1.72266 0.840513 1.76692 0.761724 1.84571C0.682935 1.9245 0.638672 2.03136 0.638672 2.14278C0.638672 2.25421 0.682935 2.36107 0.761724 2.43986C0.840513 2.51865 0.947374 2.56291 1.0588 2.56291H1.99148L2.32842 3.9132L3.58712 10.6226C3.60515 10.7189 3.65624 10.8059 3.73157 10.8685C3.80691 10.9311 3.90174 10.9654 3.99969 10.9655H4.83994C4.39424 10.9655 3.9668 11.1425 3.65164 11.4577C3.33649 11.7728 3.15943 12.2003 3.15943 12.646C3.15943 13.0917 3.33649 13.5191 3.65164 13.8343C3.9668 14.1494 4.39424 14.3265 4.83994 14.3265C5.28564 14.3265 5.71309 14.1494 6.02824 13.8343C6.3434 13.5191 6.52045 13.0917 6.52045 12.646C6.52045 12.2003 6.3434 11.7728 6.02824 11.4577C5.71309 11.1425 5.28564 10.9655 4.83994 10.9655H10.7217C10.276 10.9655 9.84858 11.1425 9.53342 11.4577C9.21827 11.7728 9.04121 12.2003 9.04121 12.646C9.04121 13.0917 9.21827 13.5191 9.53342 13.8343C9.84858 14.1494 10.276 14.3265 10.7217 14.3265C11.1674 14.3265 11.5949 14.1494 11.91 13.8343C12.2252 13.5191 12.4022 13.0917 12.4022 12.646C12.4022 12.2003 12.2252 11.7728 11.91 11.4577C11.5949 11.1425 11.1674 10.9655 10.7217 10.9655H11.562C11.6599 10.9654 11.7548 10.9311 11.8301 10.8685C11.9054 10.8059 11.9565 10.7189 11.9745 10.6226L13.2349 3.9006C13.2463 3.83996 13.2441 3.77757 13.2287 3.71785C13.2132 3.65814 13.1847 3.60257 13.1453 3.55509C13.106 3.5076 13.0566 3.46938 13.0008 3.44312C12.945 3.41686 12.884 3.40322 12.8224 3.40316H3.06701L2.7267 2.04111C2.70402 1.95018 2.6516 1.86945 2.57775 1.81174C2.50391 1.75404 2.41289 1.72268 2.31918 1.72266H1.0588ZM4.34839 10.1252L3.24514 4.24342H12.3165L11.2133 10.1252H4.34839V10.1252ZM5.6802 12.646C5.6802 12.8688 5.59167 13.0825 5.43409 13.2401C5.27651 13.3977 5.06279 13.4862 4.83994 13.4862C4.61709 13.4862 4.40337 13.3977 4.24579 13.2401C4.08822 13.0825 3.99969 12.8688 3.99969 12.646C3.99969 12.4231 4.08822 12.2094 4.24579 12.0518C4.40337 11.8942 4.61709 11.8057 4.83994 11.8057C5.06279 11.8057 5.27651 11.8942 5.43409 12.0518C5.59167 12.2094 5.6802 12.4231 5.6802 12.646V12.646ZM11.562 12.646C11.562 12.8688 11.4735 13.0825 11.3159 13.2401C11.1583 13.3977 10.9446 13.4862 10.7217 13.4862C10.4989 13.4862 10.2852 13.3977 10.1276 13.2401C9.97 13.0825 9.88147 12.8688 9.88147 12.646C9.88147 12.4231 9.97 12.2094 10.1276 12.0518C10.2852 11.8942 10.4989 11.8057 10.7217 11.8057C10.9446 11.8057 11.1583 11.8942 11.3159 12.0518C11.4735 12.2094 11.562 12.4231 11.562 12.646V12.646Z" fill="#363330"/>
</svg>
