<svg width="15" height="14" viewBox="0 0 15 14" fill="none" xmlns="http://www.w3.org/2000/svg">
<path d="M8.53443 4.77169C8.53443 4.66026 8.49017 4.5534 8.41138 4.47461C8.33259 4.39583 8.22573 4.35156 8.11431 4.35156C8.00288 4.35156 7.89602 4.39583 7.81723 4.47461C7.73844 4.5534 7.69418 4.66026 7.69418 4.77169V6.03207H6.4338C6.32237 6.03207 6.21551 6.07633 6.13672 6.15512C6.05794 6.23391 6.01367 6.34077 6.01367 6.4522C6.01367 6.56362 6.05794 6.67048 6.13672 6.74927C6.21551 6.82806 6.32237 6.87233 6.4338 6.87233H7.69418V8.13271C7.69418 8.24413 7.73844 8.35099 7.81723 8.42978C7.89602 8.50857 8.00288 8.55283 8.11431 8.55283C8.22573 8.55283 8.33259 8.50857 8.41138 8.42978C8.49017 8.35099 8.53443 8.24413 8.53443 8.13271V6.87233H9.79482C9.90624 6.87233 10.0131 6.82806 10.0919 6.74927C10.1707 6.67048 10.2149 6.56362 10.2149 6.4522C10.2149 6.34077 10.1707 6.23391 10.0919 6.15512C10.0131 6.07633 9.90624 6.03207 9.79482 6.03207H8.53443V4.77169Z" fill="#363330"/>
<path d="M1.39181 0.988281C1.28038 0.988281 1.17352 1.03254 1.09473 1.11133C1.01594 1.19012 0.97168 1.29698 0.97168 1.40841C0.97168 1.51983 1.01594 1.62669 1.09473 1.70548C1.17352 1.78427 1.28038 1.82854 1.39181 1.82854H2.32449L2.66143 3.17882L3.92013 9.88825C3.93815 9.98453 3.98925 10.0715 4.06458 10.1341C4.13991 10.1967 4.23475 10.231 4.3327 10.2311H5.17295C4.72725 10.2311 4.29981 10.4081 3.98465 10.7233C3.6695 11.0384 3.49244 11.4659 3.49244 11.9116C3.49244 12.3573 3.6695 12.7847 3.98465 13.0999C4.29981 13.415 4.72725 13.5921 5.17295 13.5921C5.61865 13.5921 6.04609 13.415 6.36125 13.0999C6.67641 12.7847 6.85346 12.3573 6.85346 11.9116C6.85346 11.4659 6.67641 11.0384 6.36125 10.7233C6.04609 10.4081 5.61865 10.2311 5.17295 10.2311H11.0547C10.609 10.2311 10.1816 10.4081 9.86643 10.7233C9.55128 11.0384 9.37422 11.4659 9.37422 11.9116C9.37422 12.3573 9.55128 12.7847 9.86643 13.0999C10.1816 13.415 10.609 13.5921 11.0547 13.5921C11.5004 13.5921 11.9279 13.415 12.243 13.0999C12.5582 12.7847 12.7352 12.3573 12.7352 11.9116C12.7352 11.4659 12.5582 11.0384 12.243 10.7233C11.9279 10.4081 11.5004 10.2311 11.0547 10.2311H11.895C11.9929 10.231 12.0878 10.1967 12.1631 10.1341C12.2384 10.0715 12.2895 9.98453 12.3075 9.88825L13.5679 3.16622C13.5793 3.10558 13.5771 3.04319 13.5617 2.98348C13.5462 2.92377 13.5177 2.86819 13.4784 2.82071C13.439 2.77323 13.3896 2.735 13.3338 2.70874C13.278 2.68249 13.2171 2.66885 13.1554 2.66879H3.40001L3.05971 1.30674C3.03703 1.21581 2.9846 1.13507 2.91076 1.07737C2.83692 1.01967 2.7459 0.988307 2.65219 0.988281H1.39181ZM4.6814 9.39082L3.57815 3.50904H12.6495L11.5463 9.39082H4.6814V9.39082ZM6.01321 11.9116C6.01321 12.1344 5.92468 12.3482 5.7671 12.5057C5.60952 12.6633 5.3958 12.7518 5.17295 12.7518C4.9501 12.7518 4.73638 12.6633 4.5788 12.5057C4.42122 12.3482 4.3327 12.1344 4.3327 11.9116C4.3327 11.6887 4.42122 11.475 4.5788 11.3174C4.73638 11.1599 4.9501 11.0713 5.17295 11.0713C5.3958 11.0713 5.60952 11.1599 5.7671 11.3174C5.92468 11.475 6.01321 11.6887 6.01321 11.9116V11.9116ZM11.895 11.9116C11.895 12.1344 11.8065 12.3482 11.6489 12.5057C11.4913 12.6633 11.2776 12.7518 11.0547 12.7518C10.8319 12.7518 10.6182 12.6633 10.4606 12.5057C10.303 12.3482 10.2145 12.1344 10.2145 11.9116C10.2145 11.6887 10.303 11.475 10.4606 11.3174C10.6182 11.1599 10.8319 11.0713 11.0547 11.0713C11.2776 11.0713 11.4913 11.1599 11.6489 11.3174C11.8065 11.475 11.895 11.6887 11.895 11.9116V11.9116Z" fill="#363330"/>
</svg>
