<svg width="34" height="36" viewBox="0 0 34 36" fill="none" xmlns="http://www.w3.org/2000/svg">
<path d="M30.3068 31.7486C30.0548 30.8958 29.7059 29.9655 29.2602 29.0158C28.8338 28.0661 28.3492 27.097 27.8065 26.1473C27.729 26.283 27.6515 26.3993 27.574 26.5156C27.4964 26.6318 27.4189 26.7675 27.3414 26.8838C27.2639 27.0001 27.167 27.1164 27.0894 27.2327C26.9925 27.349 26.915 27.4653 26.8181 27.5815L26.7987 27.6009L26.7793 27.6203L26.7599 27.6397L26.7406 27.6591L26.663 27.756C26.7406 27.9692 26.8375 28.2405 26.9344 28.5118C27.0313 28.8026 27.1476 29.0933 27.2445 29.384C27.3414 29.6747 27.4189 29.9461 27.4383 30.1593C27.4771 30.3725 27.4577 30.5469 27.3802 30.6438C27.3608 30.6632 27.322 30.702 27.2832 30.7213C27.2445 30.7407 27.2057 30.7601 27.167 30.7795C27.1282 30.7989 27.0894 30.7989 27.0313 30.7989C26.9925 30.7989 26.9344 30.7989 26.8956 30.7989C26.8181 30.7989 26.7406 30.7795 26.6437 30.7601C26.5468 30.7407 26.4498 30.7213 26.3529 30.6826C26.256 30.6438 26.1397 30.605 26.0428 30.5663C25.9265 30.5275 25.8103 30.4694 25.694 30.4112C25.5389 30.3337 25.3839 30.2562 25.2288 30.1787C25.0738 30.1011 24.8993 30.0042 24.7443 29.9073C24.5698 29.8104 24.3954 29.7135 24.221 29.5972C24.0465 29.4809 23.8721 29.384 23.6783 29.2677C24.3954 28.5506 25.0738 27.7947 25.6746 26.9807C26.2948 26.1667 26.8569 25.3139 27.3414 24.4224C27.8453 23.5308 28.2717 22.6005 28.6206 21.6508C28.9694 20.7011 29.2602 19.7127 29.454 18.7242C29.8997 16.4953 29.8804 14.4022 29.4734 12.5415C29.0663 10.7003 28.2911 9.09164 27.2251 7.7737C26.1785 6.47514 24.8218 5.48669 23.2519 4.8471C21.7208 4.22689 19.9764 3.93617 18.0771 4.07184C16.8366 4.14937 15.5962 4.42071 14.3946 4.80833C13.1929 5.21535 12.03 5.75803 10.9253 6.417C9.82056 7.07596 8.77396 7.85122 7.78551 8.74277C6.81644 9.61493 5.90551 10.6034 5.09149 11.65C4.87829 11.243 4.68448 10.8553 4.54881 10.5065C4.41314 10.1576 4.29685 9.84751 4.2387 9.55679C4.18056 9.28545 4.16118 9.03349 4.18056 8.82029C4.19994 8.6071 4.25809 8.45205 4.37437 8.33576C4.41314 8.297 4.4519 8.25823 4.51004 8.21947C4.56819 8.18071 4.62633 8.14194 4.70386 8.12256C4.78138 8.0838 4.85891 8.06442 4.95582 8.04504C5.05272 8.02566 5.14963 8.00627 5.24654 8.00627C5.36283 8.00627 5.47912 8.00627 5.59541 8.02566C5.71169 8.04504 5.84736 8.06442 5.96365 8.12256C6.07994 8.16133 6.21561 8.21947 6.3319 8.297C6.46757 8.37452 6.58386 8.47143 6.71953 8.58772C6.83582 8.43267 6.97149 8.297 7.10716 8.16133C7.24283 8.02566 7.3785 7.88999 7.51417 7.7737C7.64984 7.65741 7.80489 7.52174 7.94056 7.40545C8.09561 7.28916 8.25066 7.17287 8.40572 7.05658C8.4251 7.05658 8.4251 7.0372 8.44448 7.0372C8.46386 7.01782 8.46386 7.01782 8.48324 7.01782C8.50262 7.01782 8.50262 6.99844 8.522 6.99844C8.54139 6.99844 8.54139 6.97906 8.56077 6.97906C8.27005 6.7271 7.97932 6.5139 7.64984 6.33947C7.33974 6.16504 7.01025 6.02937 6.68077 5.93246C6.35128 5.83555 6.0218 5.77741 5.69231 5.73864C5.36283 5.69988 5.05272 5.69988 4.762 5.71926C4.54881 5.73864 4.35499 5.75803 4.16118 5.79679C3.96736 5.83555 3.79293 5.87431 3.63788 5.93246C3.48283 5.9906 3.32778 6.04875 3.21149 6.12627C3.0952 6.2038 2.97891 6.28132 2.90138 6.37823C2.64942 6.64957 2.49437 6.99844 2.43623 7.44421C2.37808 7.8706 2.39747 8.37452 2.49437 8.95597C2.61066 9.51803 2.78509 10.1576 3.05644 10.8553C3.32778 11.5531 3.67664 12.2896 4.10303 13.0842C3.81231 13.53 3.54097 13.9951 3.28901 14.4603C3.03705 14.9255 2.78509 15.41 2.5719 15.8945C2.3587 16.3791 2.14551 16.883 1.97107 17.3869C1.79664 17.8908 1.62221 18.4141 1.48654 18.9374C0.963239 20.9337 0.808187 22.8718 0.98262 24.6549C1.15705 26.4574 1.68035 28.1242 2.49437 29.5584C3.32778 31.0121 4.47128 32.2331 5.88613 33.1246C7.32035 34.0356 9.0453 34.5976 10.9834 34.7139C11.5649 34.7527 12.1463 34.7333 12.7278 34.6945C13.3092 34.6558 13.91 34.5589 14.4915 34.4426C15.0729 34.3263 15.6738 34.1712 16.2552 33.9774C16.8366 33.7836 17.4181 33.551 17.9995 33.2991L16.6235 30.6826C16.2164 30.8376 15.8094 30.9927 15.4024 31.109C14.9954 31.2253 14.5884 31.3222 14.1814 31.3997C13.7744 31.4772 13.3674 31.5354 12.941 31.5547C12.534 31.5741 12.127 31.5935 11.7199 31.5741C10.15 31.4966 8.75458 31.0702 7.59169 30.3531C6.42881 29.6554 5.4985 28.6863 4.82015 27.5234C4.1418 26.3799 3.69602 25.0426 3.54097 23.5696C3.38592 22.116 3.50221 20.5461 3.9286 18.918C4.33561 17.29 5.03334 15.7589 5.90551 14.3634C6.77767 12.9679 7.84365 11.6887 9.0453 10.6228C10.247 9.53741 11.6037 8.64586 13.0185 7.98689C14.4527 7.32792 15.9451 6.92091 17.4762 6.84339C19.0074 6.74648 20.4222 6.99844 21.6626 7.52174C22.9224 8.06442 23.9884 8.87844 24.8218 9.92504C25.6746 10.991 26.2754 12.309 26.5855 13.7819C26.8956 15.2743 26.8956 16.9605 26.5274 18.7436C26.3723 19.5189 26.1397 20.2941 25.8684 21.05C25.5777 21.8059 25.2482 22.523 24.8606 23.2401C24.4729 23.9378 24.0272 24.6162 23.5426 25.2558C23.0581 25.8954 22.5348 26.4962 21.9727 27.0582C21.9921 26.8644 21.9921 26.6706 22.0115 26.4768C22.0309 26.283 22.0309 26.0892 22.0309 25.9147C22.0309 25.7403 22.0503 25.5659 22.0503 25.4302C22.0503 25.2945 22.0503 25.1782 22.0503 25.1007C22.0503 25.0232 22.0503 24.965 22.0309 24.9069C22.0115 24.8681 21.9921 24.8294 21.9727 24.7906C21.9534 24.7712 21.9146 24.7518 21.8952 24.7325C21.8758 24.7131 21.8371 24.7131 21.7983 24.7131C21.7789 24.7131 21.7402 24.7131 21.7208 24.7131C21.7014 24.7131 21.682 24.7325 21.6626 24.7325C21.6432 24.7325 21.6239 24.7518 21.6239 24.7518C21.6045 24.7518 21.6045 24.7712 21.6045 24.7712L16.7591 26.3411C16.7591 26.3411 16.701 26.3605 16.6622 26.3799C16.6041 26.3993 16.5459 26.438 16.4878 26.4962C16.4296 26.5543 16.3909 26.6318 16.3715 26.7481C16.3715 26.845 16.3909 26.9807 16.4684 27.1551C16.4684 27.1745 16.4878 27.1745 16.4878 27.1745C16.4878 27.1939 16.4878 27.1939 16.5072 27.1939C16.5072 27.2133 16.5072 27.2133 16.5265 27.2327C16.5265 27.2327 16.5265 27.2521 16.5459 27.2714C16.7591 27.7172 17.0692 28.2987 17.4375 28.977C17.7863 29.6554 18.1933 30.4112 18.6004 31.1477C19.0074 31.9036 19.395 32.6401 19.7439 33.2603C20.0927 33.8999 20.3835 34.4232 20.5579 34.7527C20.5773 34.7721 20.5966 34.8108 20.5966 34.8302C20.616 34.8496 20.616 34.8883 20.6354 34.9077C20.6548 34.9271 20.6548 34.9465 20.6742 34.9659C20.6936 34.9853 20.6936 35.0046 20.6936 35.024C20.7323 35.1015 20.7905 35.1791 20.8292 35.2372C20.868 35.2954 20.9068 35.3535 20.9455 35.3923C20.9843 35.431 21.023 35.4504 21.0618 35.4698C21.1006 35.4892 21.1393 35.4892 21.1587 35.4892C21.2169 35.4892 21.275 35.4698 21.3138 35.431C21.3719 35.3923 21.4107 35.3535 21.4494 35.2954C21.4882 35.2372 21.5076 35.1791 21.527 35.1209C21.5463 35.0628 21.5657 35.0046 21.5657 34.9659C21.5657 34.9465 21.5657 34.9271 21.5657 34.9077C21.5657 34.8883 21.5657 34.8496 21.5657 34.8302C21.5657 34.7914 21.5657 34.7721 21.5657 34.7333C21.5657 34.6945 21.5657 34.6558 21.5657 34.617C21.5851 34.462 21.5851 34.2681 21.6045 34.0743C21.6239 33.8805 21.6239 33.6673 21.6432 33.4929C21.6626 33.2991 21.6626 33.144 21.6626 33.0083C21.6626 32.8921 21.682 32.7951 21.682 32.7951C22.341 33.2022 23.0193 33.5898 23.6589 33.9387C24.3179 34.3069 24.9575 34.6364 25.5777 34.9271C26.1979 35.2178 26.7987 35.4698 27.3414 35.6442C27.8841 35.8187 28.388 35.9349 28.8338 35.9543C28.8919 35.9543 28.9501 35.9543 29.0082 35.9543C29.0663 35.9543 29.1245 35.9543 29.1826 35.9543C29.2408 35.9543 29.2989 35.9543 29.3377 35.9349C29.3958 35.9349 29.4346 35.9156 29.4927 35.9156C29.5703 35.8962 29.6478 35.8768 29.7059 35.8574C29.7835 35.838 29.8416 35.7993 29.8997 35.7799C29.9579 35.7411 30.016 35.7024 30.0742 35.6636C30.1323 35.6248 30.1905 35.5667 30.2292 35.5279C30.5393 35.1985 30.675 34.6751 30.675 34.0356C30.675 33.396 30.52 32.6207 30.268 31.7486H30.3068Z" fill="#833376"/>
<path d="M15.2092 18.4108V17.2867H13.6199V11.0458H12.4376C11.9337 11.511 11.391 11.8211 10.8096 11.9955V13.1584C11.1003 13.1196 11.391 13.0227 11.6624 12.8677C11.9531 12.7126 12.1857 12.5576 12.3407 12.4025V17.2673H10.3057V18.3914L15.2092 18.4108ZM21.198 13.1584C21.198 12.4801 20.9655 11.9374 20.5003 11.5304C20.0352 11.1234 19.4343 10.9102 18.6978 10.9102C17.9613 10.9102 17.3605 11.104 16.8954 11.511C16.4302 11.918 16.1976 12.4607 16.1976 13.1196V16.2401C16.1976 16.9184 16.4302 17.4417 16.8954 17.8487C17.3605 18.2557 17.9613 18.4495 18.6978 18.4495C19.4343 18.4495 20.0352 18.2363 20.5003 17.8293C20.9655 17.4223 21.198 16.8796 21.198 16.2013V13.1196V13.1584ZM19.9382 16.1431C19.9382 16.5308 19.8413 16.8409 19.6088 17.0541C19.3956 17.2673 19.0855 17.3836 18.7172 17.3836C18.3296 17.3836 18.0389 17.2673 17.8257 17.0541C17.6125 16.8409 17.4962 16.5308 17.4962 16.1431V13.2165C17.4962 12.8289 17.5931 12.5188 17.8257 12.3056C18.0389 12.0924 18.349 11.9761 18.7366 11.9761C19.1242 11.9761 19.4343 12.0924 19.6475 12.3056C19.8607 12.5188 19.977 12.8289 19.977 13.2165L19.9576 16.1431H19.9382Z" fill="#833376"/>
<path d="M11.7984 24.594V19.0703H10.8681V23.2761L8.67799 19.0703H7.32129V24.594H8.2516V20.3883L10.4611 24.594H11.7984ZM13.7365 24.0707C13.7365 23.9351 13.6978 23.8188 13.6009 23.7412C13.504 23.6637 13.3683 23.625 13.2133 23.625C13.0582 23.625 12.9419 23.6637 12.845 23.7412C12.7481 23.8188 12.7093 23.9157 12.7093 24.0707V24.2258C12.7093 24.3614 12.7675 24.4777 12.8644 24.5359C12.9613 24.6134 13.0776 24.6522 13.2326 24.6522C13.3877 24.6522 13.5234 24.6134 13.6203 24.5359C13.7172 24.4584 13.7559 24.3614 13.7559 24.2258L13.7365 24.0707ZM17.8842 23.1017H17.012C17.012 23.625 16.7407 23.8769 16.1786 23.8769C15.6359 23.8769 15.3646 23.6056 15.3646 23.0435V22.2295C15.3646 21.6674 15.6359 21.3961 16.1786 21.3961C16.7213 21.3961 17.012 21.648 17.012 22.1907H17.8842V22.1132C17.8842 21.6287 17.7291 21.2604 17.4384 21.0085C17.1283 20.7565 16.7213 20.6208 16.2174 20.6208C15.7135 20.6208 15.2871 20.7565 14.9963 21.0278C14.6862 21.2992 14.5312 21.6868 14.5312 22.1713V23.1404C14.5312 23.625 14.6862 23.9932 14.9963 24.2645C15.3064 24.5359 15.7135 24.6716 16.2174 24.6716C16.7407 24.6716 17.1477 24.5553 17.4578 24.2839C17.7679 24.032 17.9229 23.6443 17.9229 23.1792L17.9036 23.121L17.8842 23.1017ZM24.1056 24.594V21.8419C24.1056 21.4542 24.0087 21.1635 23.8149 20.9697C23.6211 20.7565 23.3497 20.6596 23.0203 20.6596C22.7102 20.6596 22.4194 20.7565 22.1287 20.9309L21.7023 21.1829C21.5473 20.834 21.2372 20.6596 20.772 20.6596C20.4813 20.6596 20.21 20.7371 19.958 20.8922L19.6091 21.1054V20.6984H18.7176V24.6134H19.6091V21.9194L20.0743 21.6287C20.2681 21.5318 20.4231 21.4736 20.5394 21.4736C20.8108 21.4736 20.9464 21.6287 20.9464 21.9581V24.6134H21.838V21.9194L22.3031 21.6287C22.497 21.5318 22.652 21.4736 22.7683 21.4736C23.0396 21.4736 23.1753 21.6287 23.1753 21.9581V24.6134H24.0862L24.1056 24.594Z" fill="#833376"/>
<path d="M26.6049 14.1845C30.3456 14.1845 33.3691 11.161 33.3691 7.42038C33.3691 3.67976 30.3456 0.65625 26.6049 0.65625C22.8643 0.65625 19.8408 3.67976 19.8408 7.42038C19.8408 11.161 22.8643 14.1845 26.6049 14.1845Z" fill="#833376"/>
<path d="M26.6049 14.1845C30.3456 14.1845 33.3691 11.161 33.3691 7.42038C33.3691 3.67976 30.3456 0.65625 26.6049 0.65625C22.8643 0.65625 19.8408 3.67976 19.8408 7.42038C19.8408 11.161 22.8643 14.1845 26.6049 14.1845Z" stroke="white" stroke-width="1.31794"/>
<path d="M28.814 11.276V10.5007H25.4998L27.593 8.38817C28.0388 7.9424 28.3489 7.53539 28.5233 7.16714C28.6977 6.79889 28.7753 6.43064 28.7753 6.04301C28.7753 5.44219 28.6008 4.93827 28.2132 4.57002C27.845 4.20178 27.3023 4.02734 26.5852 4.02734C25.9262 4.02734 25.3835 4.20178 24.9571 4.55064C24.5501 4.89951 24.3369 5.36466 24.3369 5.94611V6.02363H25.1509C25.1509 5.61662 25.2672 5.30652 25.5192 5.09332C25.7711 4.89951 26.12 4.78322 26.5658 4.78322C27.0309 4.78322 27.3798 4.88013 27.6124 5.11271C27.845 5.3259 27.9612 5.636 27.9612 6.04301C27.9612 6.3725 27.9031 6.66322 27.748 6.93456C27.6124 7.22528 27.3604 7.53539 27.0309 7.88425L24.492 10.5007V11.276L28.7946 11.2954L28.814 11.276Z" fill="#FEFEFE"/>
</svg>
