<svg width="33" height="36" viewBox="0 0 33 36" fill="none" xmlns="http://www.w3.org/2000/svg">
<path d="M29.5548 31.4829C29.3028 30.6301 28.954 29.6998 28.5082 28.7501C28.0818 27.8004 27.5973 26.8314 27.0546 25.8817C26.9771 26.0174 26.8995 26.1336 26.822 26.2499C26.7445 26.3662 26.667 26.5019 26.5894 26.6182C26.5119 26.7345 26.415 26.8508 26.3375 26.967C26.2406 27.0833 26.163 27.1996 26.0661 27.3159L26.0468 27.3353L26.0274 27.3547L26.008 27.3741L25.9886 27.3934L25.9111 27.4903C25.9886 27.7035 26.0855 27.9749 26.1824 28.2462C26.2793 28.5369 26.3956 28.8277 26.4925 29.1184C26.5894 29.4091 26.667 29.6805 26.6863 29.8936C26.7251 30.1068 26.7057 30.2813 26.6282 30.3782C26.6088 30.3976 26.5701 30.4363 26.5313 30.4557C26.4925 30.4751 26.4538 30.4945 26.415 30.5139C26.3762 30.5332 26.3375 30.5332 26.2793 30.5332C26.2406 30.5332 26.1824 30.5332 26.1437 30.5332C26.0661 30.5332 25.9886 30.5139 25.8917 30.4945C25.7948 30.4751 25.6979 30.4557 25.601 30.4169C25.5041 30.3782 25.3878 30.3394 25.2909 30.3007C25.1746 30.2619 25.0583 30.2038 24.942 30.1456C24.787 30.0681 24.6319 29.9906 24.4769 29.913C24.3218 29.8355 24.1474 29.7386 23.9923 29.6417C23.8179 29.5448 23.6435 29.4479 23.469 29.3316C23.2946 29.2153 23.1202 29.1184 22.9263 29.0021C23.6435 28.285 24.3218 27.5291 24.9226 26.7151C25.5428 25.9011 26.1049 25.0483 26.5894 24.1567C27.0934 23.2652 27.5197 22.3349 27.8686 21.3852C28.2175 20.4355 28.5082 19.447 28.702 18.4586C29.1478 16.2297 29.1284 14.1365 28.7214 12.2759C28.3144 10.4347 27.5391 8.82601 26.4732 7.50807C25.4266 6.20951 24.0699 5.22106 22.5 4.58147C20.9688 3.96127 19.2245 3.67054 17.3251 3.80621C16.0847 3.88374 14.8443 4.15508 13.6426 4.54271C12.441 4.94972 11.2781 5.4924 10.1734 6.15137C9.06861 6.81034 8.02201 7.5856 7.03356 8.47714C6.06448 9.34931 5.15356 10.3378 4.33953 11.3844C4.12634 10.9774 3.93252 10.5897 3.79685 10.2409C3.66118 9.89199 3.54489 9.58189 3.48675 9.29117C3.42861 9.01982 3.40922 8.76787 3.42861 8.55467C3.44799 8.34147 3.50613 8.18642 3.62242 8.07013C3.66118 8.03137 3.69995 7.99261 3.75809 7.95385C3.81624 7.91508 3.87438 7.87632 3.95191 7.85694C4.02943 7.81817 4.10696 7.79879 4.20386 7.77941C4.30077 7.76003 4.39768 7.74065 4.49459 7.74065C4.61087 7.74065 4.72716 7.74065 4.84345 7.76003C4.95974 7.77941 5.09541 7.79879 5.2117 7.85694C5.32799 7.8957 5.46366 7.95385 5.57995 8.03137C5.71562 8.1089 5.83191 8.2058 5.96758 8.32209C6.08387 8.16704 6.21954 8.03137 6.35521 7.8957C6.49088 7.76003 6.62655 7.62436 6.76222 7.50807C6.89789 7.39178 7.05294 7.25611 7.18861 7.13982C7.34366 7.02354 7.49871 6.90725 7.65376 6.79096C7.67314 6.79096 7.67314 6.77158 7.69253 6.77158C7.71191 6.75219 7.71191 6.75219 7.73129 6.75219C7.75067 6.75219 7.75067 6.73281 7.77005 6.73281C7.78943 6.73281 7.78943 6.71343 7.80881 6.71343C7.51809 6.46147 7.22737 6.24828 6.89789 6.07384C6.58778 5.89941 6.2583 5.76374 5.92881 5.66683C5.59933 5.56993 5.26984 5.51178 4.94036 5.47302C4.61087 5.43426 4.30077 5.43426 4.01005 5.45364C3.79685 5.47302 3.60304 5.4924 3.40922 5.53116C3.21541 5.56993 3.04098 5.60869 2.88593 5.66683C2.73087 5.72498 2.57582 5.78312 2.45953 5.86065C2.34325 5.93817 2.22696 6.0157 2.14943 6.11261C1.89747 6.38395 1.74242 6.73281 1.68428 7.17859C1.62613 7.60498 1.64551 8.1089 1.74242 8.69034C1.85871 9.2524 2.03314 9.89199 2.30448 10.5897C2.57582 11.2875 2.92469 12.0239 3.35108 12.8186C3.06036 13.2644 2.78902 13.7295 2.53706 14.1947C2.2851 14.6598 2.03314 15.1444 1.81995 15.6289C1.60675 16.1134 1.39355 16.6174 1.21912 17.1213C1.04469 17.6252 0.870255 18.1485 0.734585 18.6718C0.211285 20.6681 0.0562338 22.6062 0.230667 24.3893C0.4051 26.1918 0.928399 27.8586 1.74242 29.2928C2.57582 30.7464 3.71933 31.9675 5.13417 32.859C6.5684 33.7699 8.29335 34.332 10.2315 34.4483C10.8129 34.487 11.3944 34.4677 11.9758 34.4289C12.5573 34.3901 13.1581 34.2932 13.7395 34.1769C14.321 34.0607 14.9218 33.9056 15.5032 33.7118C16.0847 33.518 16.6661 33.2854 17.2476 33.0334L15.8715 30.4169C15.4645 30.572 15.0575 30.7271 14.6505 30.8433C14.2435 30.9596 13.8364 31.0565 13.4294 31.1341C13.0224 31.2116 12.6154 31.2697 12.189 31.2891C11.782 31.3085 11.375 31.3279 10.968 31.3085C9.39809 31.231 8.00263 30.8046 6.83974 30.0875C5.67685 29.3897 4.74654 28.4207 4.06819 27.2578C3.38984 26.1143 2.94407 24.7769 2.78902 23.304C2.63397 21.8503 2.75026 20.2804 3.17665 18.6524C3.58366 17.0244 4.28139 15.4932 5.15356 14.0978C6.02572 12.7023 7.0917 11.4231 8.29335 10.3571C9.495 9.27178 10.8517 8.38024 12.2665 7.72127C13.7008 7.0623 15.1931 6.65529 16.7243 6.57776C18.2554 6.48085 19.6703 6.73281 20.9107 7.25611C22.1705 7.79879 23.2364 8.61281 24.0699 9.65941C24.9226 10.7254 25.5235 12.0433 25.8336 13.5163C26.1437 15.0087 26.1437 16.6949 25.7754 18.478C25.6204 19.2532 25.3878 20.0285 25.1164 20.7844C24.8257 21.5402 24.4962 22.2574 24.1086 22.9745C23.721 23.6722 23.2752 24.3506 22.7907 24.9901C22.3061 25.6297 21.7828 26.2306 21.2208 26.7926C21.2402 26.5988 21.2402 26.405 21.2595 26.2112C21.2789 26.0174 21.2789 25.8235 21.2789 25.6491C21.2789 25.4747 21.2983 25.3002 21.2983 25.1646C21.2983 25.0289 21.2983 24.9126 21.2983 24.8351C21.2983 24.7576 21.2983 24.6994 21.2789 24.6413C21.2595 24.6025 21.2402 24.5637 21.2208 24.525C21.2014 24.5056 21.1626 24.4862 21.1433 24.4668C21.1239 24.4475 21.0851 24.4475 21.0463 24.4475C21.027 24.4475 20.9882 24.4475 20.9688 24.4475C20.9494 24.4475 20.9301 24.4668 20.9107 24.4668C20.8913 24.4668 20.8719 24.4862 20.8719 24.4862C20.8525 24.4862 20.8525 24.5056 20.8525 24.5056L16.0072 26.0755C16.0072 26.0755 15.949 26.0949 15.9103 26.1143C15.8521 26.1336 15.794 26.1724 15.7358 26.2306C15.6777 26.2887 15.6389 26.3662 15.6195 26.4825C15.6195 26.5794 15.6389 26.7151 15.7164 26.8895C15.7164 26.9089 15.7358 26.9089 15.7358 26.9089C15.7358 26.9283 15.7358 26.9283 15.7552 26.9283C15.7552 26.9477 15.7552 26.9477 15.7746 26.967C15.7746 26.967 15.7746 26.9864 15.794 27.0058C16.0072 27.4516 16.3173 28.033 16.6855 28.7114C17.0344 29.3897 17.4414 30.1456 17.8484 30.8821C18.2554 31.638 18.643 32.3745 18.9919 32.9947C19.3408 33.6343 19.6315 34.1576 19.8059 34.4871C19.8253 34.5064 19.8447 34.5452 19.8447 34.5646C19.8641 34.584 19.8641 34.6227 19.8835 34.6421C19.9028 34.6615 19.9028 34.6809 19.9222 34.7002C19.9416 34.7196 19.9416 34.739 19.9416 34.7584C19.9804 34.8359 20.0385 34.9134 20.0773 34.9716C20.116 35.0297 20.1548 35.0879 20.1936 35.1266C20.2323 35.1654 20.2711 35.1848 20.3099 35.2042C20.3486 35.2235 20.3874 35.2235 20.4068 35.2235C20.4649 35.2235 20.523 35.2042 20.5618 35.1654C20.62 35.1266 20.6587 35.0879 20.6975 35.0297C20.7362 34.9716 20.7556 34.9134 20.775 34.8553C20.7944 34.7972 20.8138 34.739 20.8138 34.7002C20.8138 34.6809 20.8138 34.6615 20.8138 34.6421C20.8138 34.6227 20.8138 34.584 20.8138 34.5646C20.8138 34.5258 20.8138 34.5064 20.8138 34.4677C20.8138 34.4289 20.8138 34.3901 20.8138 34.3514C20.8331 34.1963 20.8331 34.0025 20.8525 33.8087C20.8719 33.6149 20.8719 33.4017 20.8913 33.2273C20.9107 33.0334 20.9107 32.8784 20.9107 32.7427C20.9107 32.6264 20.9301 32.5295 20.9301 32.5295C21.589 32.9365 22.2674 33.3242 22.907 33.673C23.5659 34.0413 24.2055 34.3708 24.8257 34.6615C25.4459 34.9522 26.0468 35.2042 26.5894 35.3786C27.1321 35.553 27.636 35.6693 28.0818 35.6887C28.14 35.6887 28.1981 35.6887 28.2562 35.6887C28.3144 35.6887 28.3725 35.6887 28.4307 35.6887C28.4888 35.6887 28.547 35.6887 28.5857 35.6693C28.6439 35.6693 28.6826 35.6499 28.7408 35.6499C28.8183 35.6306 28.8958 35.6112 28.954 35.5918C29.0315 35.5724 29.0896 35.5337 29.1478 35.5143C29.2059 35.4755 29.2641 35.4367 29.3222 35.398C29.3804 35.3592 29.4385 35.3011 29.4773 35.2623C29.7874 34.9328 29.923 34.4095 29.923 33.7699C29.923 33.1303 29.768 32.3551 29.516 31.4829H29.5548Z" fill="#833376"/>
<path d="M14.4572 18.1452V17.021H12.8679V10.7802H11.6857C11.1818 11.2454 10.6391 11.5555 10.0576 11.7299V12.8928C10.3483 12.854 10.6391 12.7571 10.9104 12.6021C11.2011 12.447 11.4337 12.292 11.5888 12.1369V17.0016H9.55371V18.1258L14.4572 18.1452ZM20.4461 12.8928C20.4461 12.2144 20.2135 11.6717 19.7484 11.2647C19.2832 10.8577 18.6824 10.6445 17.9459 10.6445C17.2094 10.6445 16.6086 10.8383 16.1434 11.2454C15.6782 11.6524 15.4457 12.195 15.4457 12.854V15.9744C15.4457 16.6528 15.6782 17.1761 16.1434 17.5831C16.6086 17.9901 17.2094 18.1839 17.9459 18.1839C18.6824 18.1839 19.2832 17.9707 19.7484 17.5637C20.2135 17.1567 20.4461 16.614 20.4461 15.9357V12.854V12.8928ZM19.1863 15.8775C19.1863 16.2652 19.0894 16.5753 18.8568 16.7885C18.6436 17.0016 18.3335 17.1179 17.9653 17.1179C17.5776 17.1179 17.2869 17.0016 17.0737 16.7885C16.8605 16.5753 16.7442 16.2652 16.7442 15.8775V12.9509C16.7442 12.5633 16.8411 12.2532 17.0737 12.04C17.2869 11.8268 17.597 11.7105 17.9846 11.7105C18.3723 11.7105 18.6824 11.8268 18.8956 12.04C19.1088 12.2532 19.2251 12.5633 19.2251 12.9509L19.2057 15.8775H19.1863Z" fill="#833376"/>
<path d="M11.0465 24.3284V18.8047H10.1161V23.0105L7.92604 18.8047H6.56934V24.3284H7.49965V20.1226L9.70913 24.3284H11.0465ZM12.9846 23.8051C12.9846 23.6694 12.9458 23.5531 12.8489 23.4756C12.752 23.3981 12.6163 23.3593 12.4613 23.3593C12.3062 23.3593 12.19 23.3981 12.093 23.4756C11.9961 23.5531 11.9574 23.6501 11.9574 23.8051V23.9602C11.9574 24.0958 12.0155 24.2121 12.1124 24.2703C12.2093 24.3478 12.3256 24.3865 12.4807 24.3865C12.6357 24.3865 12.7714 24.3478 12.8683 24.2703C12.9652 24.1927 13.004 24.0958 13.004 23.9602L12.9846 23.8051ZM17.1322 22.836H16.2601C16.2601 23.3593 15.9887 23.6113 15.4267 23.6113C14.884 23.6113 14.6126 23.3399 14.6126 22.7779V21.9639C14.6126 21.4018 14.884 21.1305 15.4267 21.1305C15.9693 21.1305 16.2601 21.3824 16.2601 21.9251H17.1322V21.8476C17.1322 21.363 16.9772 20.9948 16.6865 20.7428C16.3764 20.4909 15.9693 20.3552 15.4654 20.3552C14.9615 20.3552 14.5351 20.4909 14.2444 20.7622C13.9343 21.0336 13.7792 21.4212 13.7792 21.9057V22.8748C13.7792 23.3593 13.9343 23.7276 14.2444 23.9989C14.5545 24.2703 14.9615 24.4059 15.4654 24.4059C15.9887 24.4059 16.3957 24.2896 16.7058 24.0183C17.0159 23.7663 17.171 23.3787 17.171 22.9136L17.1516 22.8554L17.1322 22.836ZM23.3537 24.3284V21.5762C23.3537 21.1886 23.2568 20.8979 23.063 20.7041C22.8691 20.4909 22.5978 20.394 22.2683 20.394C21.9582 20.394 21.6675 20.4909 21.3768 20.6653L20.9504 20.9173C20.7953 20.5684 20.4852 20.394 20.0201 20.394C19.7293 20.394 19.458 20.4715 19.206 20.6265L18.8572 20.8397V20.4327H17.9656V24.3478H18.8572V21.6538L19.3223 21.363C19.5161 21.2661 19.6712 21.208 19.7875 21.208C20.0588 21.208 20.1945 21.363 20.1945 21.6925V24.3478H21.086V21.6538L21.5512 21.363C21.745 21.2661 21.9001 21.208 22.0164 21.208C22.2877 21.208 22.4234 21.363 22.4234 21.6925V24.3478H23.3343L23.3537 24.3284Z" fill="#833376"/>
<path d="M25.853 13.9189C29.5936 13.9189 32.6171 10.8954 32.6171 7.15475C32.6171 3.41413 29.5936 0.390625 25.853 0.390625C22.1124 0.390625 19.0889 3.41413 19.0889 7.15475C19.0889 10.8954 22.1124 13.9189 25.853 13.9189Z" fill="#833376"/>
<path d="M25.853 13.9189C29.5936 13.9189 32.6171 10.8954 32.6171 7.15475C32.6171 3.41413 29.5936 0.390625 25.853 0.390625C22.1124 0.390625 19.0889 3.41413 19.0889 7.15475C19.0889 10.8954 22.1124 13.9189 25.853 13.9189Z" stroke="white" stroke-width="1.31794"/>
<path d="M28.0621 11.0104V10.2351H24.7478L26.841 8.12255C27.2868 7.67677 27.5969 7.26976 27.7714 6.90151C27.9458 6.53327 28.0233 6.16502 28.0233 5.77739C28.0233 5.17656 27.8489 4.67265 27.4613 4.3044C27.093 3.93615 26.5503 3.76172 25.8332 3.76172C25.1742 3.76172 24.6316 3.93615 24.2052 4.28502C23.7982 4.63388 23.585 5.09904 23.585 5.68048V5.75801H24.399C24.399 5.351 24.5153 5.04089 24.7672 4.8277C25.0192 4.63388 25.3681 4.5176 25.8138 4.5176C26.279 4.5176 26.6278 4.6145 26.8604 4.84708C27.093 5.06028 27.2093 5.37038 27.2093 5.77739C27.2093 6.10687 27.1511 6.3976 26.9961 6.66894C26.8604 6.95966 26.6085 7.26976 26.279 7.61863L23.74 10.2351V11.0104L28.0427 11.0298L28.0621 11.0104Z" fill="#FEFEFE"/>
</svg>
