<svg width="17" height="17" viewBox="0 0 17 17" fill="none" xmlns="http://www.w3.org/2000/svg">
<path d="M8.50696 4.64062C8.63957 4.64062 8.76675 4.69331 8.86052 4.78708C8.95429 4.88085 9.00697 5.00803 9.00697 5.14064V8.14073H12.0071C12.1397 8.14073 12.2669 8.19341 12.3606 8.28718C12.4544 8.38095 12.5071 8.50813 12.5071 8.64075C12.5071 8.77336 12.4544 8.90054 12.3606 8.99431C12.2669 9.08808 12.1397 9.14076 12.0071 9.14076H9.00697V12.1409C9.00697 12.2735 8.95429 12.4006 8.86052 12.4944C8.76675 12.5882 8.63957 12.6409 8.50696 12.6409C8.37435 12.6409 8.24716 12.5882 8.15339 12.4944C8.05962 12.4006 8.00694 12.2735 8.00694 12.1409V9.14076H5.00685C4.87424 9.14076 4.74706 9.08808 4.65329 8.99431C4.55952 8.90054 4.50684 8.77336 4.50684 8.64075C4.50684 8.50813 4.55952 8.38095 4.65329 8.28718C4.74706 8.19341 4.87424 8.14073 5.00685 8.14073H8.00694V5.14064C8.00694 5.00803 8.05962 4.88085 8.15339 4.78708C8.24716 4.69331 8.37435 4.64062 8.50696 4.64062Z" fill="#CFCCC9"/>
</svg>
