<svg width="15" height="14" viewBox="0 0 15 14" fill="none" xmlns="http://www.w3.org/2000/svg">
<path d="M8.33424 4.9006C8.33424 4.78917 8.28998 4.68231 8.21119 4.60352C8.1324 4.52473 8.02554 4.48047 7.91411 4.48047C7.80269 4.48047 7.69583 4.52473 7.61704 4.60352C7.53825 4.68231 7.49398 4.78917 7.49398 4.9006V6.16098H6.2336C6.12218 6.16098 6.01532 6.20524 5.93653 6.28403C5.85774 6.36282 5.81348 6.46968 5.81348 6.5811C5.81348 6.69253 5.85774 6.79939 5.93653 6.87818C6.01532 6.95697 6.12218 7.00123 6.2336 7.00123H7.49398V8.26161C7.49398 8.37304 7.53825 8.4799 7.61704 8.55869C7.69583 8.63748 7.80269 8.68174 7.91411 8.68174C8.02554 8.68174 8.1324 8.63748 8.21119 8.55869C8.28998 8.4799 8.33424 8.37304 8.33424 8.26161V7.00123H9.59462C9.70605 7.00123 9.81291 6.95697 9.8917 6.87818C9.97048 6.79939 10.0147 6.69253 10.0147 6.5811C10.0147 6.46968 9.97048 6.36282 9.8917 6.28403C9.81291 6.20524 9.70605 6.16098 9.59462 6.16098H8.33424V4.9006Z" fill="#363330"/>
<path d="M1.19161 1.11719C1.08019 1.11719 0.973326 1.16145 0.894537 1.24024C0.815748 1.31903 0.771484 1.42589 0.771484 1.53731C0.771484 1.64874 0.815748 1.7556 0.894537 1.83439C0.973326 1.91318 1.08019 1.95744 1.19161 1.95744H2.12429L2.46124 3.30773L3.71994 10.0172C3.73796 10.1134 3.78905 10.2004 3.86439 10.263C3.93972 10.3256 4.03455 10.3599 4.1325 10.36H4.97276C4.52706 10.36 4.09961 10.537 3.78446 10.8522C3.4693 11.1673 3.29225 11.5948 3.29225 12.0405C3.29225 12.4862 3.4693 12.9136 3.78446 13.2288C4.09961 13.5439 4.52706 13.721 4.97276 13.721C5.41845 13.721 5.8459 13.5439 6.16105 13.2288C6.47621 12.9136 6.65326 12.4862 6.65326 12.0405C6.65326 11.5948 6.47621 11.1673 6.16105 10.8522C5.8459 10.537 5.41845 10.36 4.97276 10.36H10.8545C10.4088 10.36 9.98139 10.537 9.66624 10.8522C9.35108 11.1673 9.17403 11.5948 9.17403 12.0405C9.17403 12.4862 9.35108 12.9136 9.66624 13.2288C9.98139 13.5439 10.4088 13.721 10.8545 13.721C11.3002 13.721 11.7277 13.5439 12.0428 13.2288C12.358 12.9136 12.535 12.4862 12.535 12.0405C12.535 11.5948 12.358 11.1673 12.0428 10.8522C11.7277 10.537 11.3002 10.36 10.8545 10.36H11.6948C11.7927 10.3599 11.8876 10.3256 11.9629 10.263C12.0382 10.2004 12.0893 10.1134 12.1074 10.0172L13.3677 3.29513C13.3791 3.23449 13.3769 3.1721 13.3615 3.11239C13.346 3.05267 13.3175 2.9971 13.2782 2.94962C13.2388 2.90213 13.1894 2.86391 13.1336 2.83765C13.0778 2.81139 13.0169 2.79775 12.9552 2.7977H3.19982L2.85952 1.43564C2.83684 1.34471 2.78441 1.26398 2.71057 1.20628C2.63672 1.14857 2.54571 1.11721 2.45199 1.11719H1.19161ZM4.48121 9.51973L3.37795 3.63795H12.4493L11.3461 9.51973H4.48121ZM5.81301 12.0405C5.81301 12.2633 5.72448 12.4771 5.56691 12.6346C5.40933 12.7922 5.1956 12.8807 4.97276 12.8807C4.74991 12.8807 4.53618 12.7922 4.37861 12.6346C4.22103 12.4771 4.1325 12.2633 4.1325 12.0405C4.1325 11.8176 4.22103 11.6039 4.37861 11.4463C4.53618 11.2888 4.74991 11.2002 4.97276 11.2002C5.1956 11.2002 5.40933 11.2888 5.56691 11.4463C5.72448 11.6039 5.81301 11.8176 5.81301 12.0405ZM11.6948 12.0405C11.6948 12.2633 11.6063 12.4771 11.4487 12.6346C11.2911 12.7922 11.0774 12.8807 10.8545 12.8807C10.6317 12.8807 10.418 12.7922 10.2604 12.6346C10.1028 12.4771 10.0143 12.2633 10.0143 12.0405C10.0143 11.8176 10.1028 11.6039 10.2604 11.4463C10.418 11.2888 10.6317 11.2002 10.8545 11.2002C11.0774 11.2002 11.2911 11.2888 11.4487 11.4463C11.6063 11.6039 11.6948 11.8176 11.6948 12.0405Z" fill="#363330"/>
</svg>
