<svg width="14" height="14" viewBox="0 0 14 14" fill="none" xmlns="http://www.w3.org/2000/svg">
<path d="M7.58912 5.08419C7.58912 4.97276 7.54486 4.8659 7.46607 4.78711C7.38728 4.70833 7.28042 4.66406 7.16899 4.66406C7.05757 4.66406 6.95071 4.70833 6.87192 4.78711C6.79313 4.8659 6.74887 4.97276 6.74887 5.08419V6.34457H5.48849C5.37706 6.34457 5.2702 6.38883 5.19141 6.46762C5.11262 6.54641 5.06836 6.65327 5.06836 6.7647C5.06836 6.87612 5.11262 6.98298 5.19141 7.06177C5.2702 7.14056 5.37706 7.18482 5.48849 7.18482H6.74887V8.44521C6.74887 8.55663 6.79313 8.66349 6.87192 8.74228C6.95071 8.82107 7.05757 8.86533 7.16899 8.86533C7.28042 8.86533 7.38728 8.82107 7.46607 8.74228C7.54486 8.66349 7.58912 8.55663 7.58912 8.44521V7.18482H8.8495C8.96093 7.18482 9.06779 7.14056 9.14658 7.06177C9.22537 6.98298 9.26963 6.87612 9.26963 6.7647C9.26963 6.65327 9.22537 6.54641 9.14658 6.46762C9.06779 6.38883 8.96093 6.34457 8.8495 6.34457H7.58912V5.08419Z" fill="#363330"/>
<path d="M0.446494 1.30078C0.33507 1.30078 0.228209 1.34504 0.14942 1.42383C0.0706305 1.50262 0.0263672 1.60948 0.0263672 1.72091C0.0263672 1.83233 0.0706305 1.93919 0.14942 2.01798C0.228209 2.09677 0.33507 2.14104 0.446494 2.14104H1.37918L1.71612 3.49132L2.97482 10.2008C2.99284 10.297 3.04394 10.384 3.11927 10.4466C3.1946 10.5092 3.28944 10.5435 3.38738 10.5436H4.22764C3.78194 10.5436 3.3545 10.7206 3.03934 11.0358C2.72418 11.3509 2.54713 11.7784 2.54713 12.2241C2.54713 12.6698 2.72418 13.0972 3.03934 13.4124C3.3545 13.7275 3.78194 13.9046 4.22764 13.9046C4.67334 13.9046 5.10078 13.7275 5.41594 13.4124C5.73109 13.0972 5.90815 12.6698 5.90815 12.2241C5.90815 11.7784 5.73109 11.3509 5.41594 11.0358C5.10078 10.7206 4.67334 10.5436 4.22764 10.5436H10.1094C9.66372 10.5436 9.23628 10.7206 8.92112 11.0358C8.60596 11.3509 8.42891 11.7784 8.42891 12.2241C8.42891 12.6698 8.60596 13.0972 8.92112 13.4124C9.23628 13.7275 9.66372 13.9046 10.1094 13.9046C10.5551 13.9046 10.9826 13.7275 11.2977 13.4124C11.6129 13.0972 11.7899 12.6698 11.7899 12.2241C11.7899 11.7784 11.6129 11.3509 11.2977 11.0358C10.9826 10.7206 10.5551 10.5436 10.1094 10.5436H10.9497C11.0476 10.5435 11.1425 10.5092 11.2178 10.4466C11.2931 10.384 11.3442 10.297 11.3622 10.2008L12.6226 3.47872C12.634 3.41808 12.6318 3.35569 12.6163 3.29598C12.6009 3.23627 12.5724 3.18069 12.533 3.13321C12.4937 3.08573 12.4443 3.0475 12.3885 3.02124C12.3327 2.99499 12.2717 2.98135 12.2101 2.98129H2.4547L2.1144 1.61924C2.09172 1.52831 2.03929 1.44757 1.96545 1.38987C1.89161 1.33217 1.80059 1.30081 1.70688 1.30078H0.446494ZM3.73609 9.70332L2.63284 3.82154H11.7042L10.601 9.70332H3.73609ZM5.06789 12.2241C5.06789 12.4469 4.97937 12.6607 4.82179 12.8182C4.66421 12.9758 4.45049 13.0643 4.22764 13.0643C4.00479 13.0643 3.79107 12.9758 3.63349 12.8182C3.47591 12.6607 3.38738 12.4469 3.38738 12.2241C3.38738 12.0012 3.47591 11.7875 3.63349 11.6299C3.79107 11.4724 4.00479 11.3838 4.22764 11.3838C4.45049 11.3838 4.66421 11.4724 4.82179 11.6299C4.97937 11.7875 5.06789 12.0012 5.06789 12.2241ZM10.9497 12.2241C10.9497 12.4469 10.8611 12.6607 10.7036 12.8182C10.546 12.9758 10.3323 13.0643 10.1094 13.0643C9.88657 13.0643 9.67285 12.9758 9.51527 12.8182C9.35769 12.6607 9.26916 12.4469 9.26916 12.2241C9.26916 12.0012 9.35769 11.7875 9.51527 11.6299C9.67285 11.4724 9.88657 11.3838 10.1094 11.3838C10.3323 11.3838 10.546 11.4724 10.7036 11.6299C10.8611 11.7875 10.9497 12.0012 10.9497 12.2241Z" fill="#363330"/>
</svg>
