<svg width="15" height="14" viewBox="0 0 15 14" fill="none" xmlns="http://www.w3.org/2000/svg">
<path d="M8.50807 5.09591C8.50807 4.98448 8.4638 4.87762 8.38502 4.79883C8.30623 4.72004 8.19936 4.67578 8.08794 4.67578C7.97652 4.67578 7.86965 4.72004 7.79087 4.79883C7.71208 4.87762 7.66781 4.98448 7.66781 5.09591V6.35629H6.40743C6.29601 6.35629 6.18915 6.40055 6.11036 6.47934C6.03157 6.55813 5.9873 6.66499 5.9873 6.77642C5.9873 6.88784 6.03157 6.9947 6.11036 7.07349C6.18915 7.15228 6.29601 7.19654 6.40743 7.19654H7.66781V8.45693C7.66781 8.56835 7.71208 8.67521 7.79087 8.754C7.86965 8.83279 7.97652 8.87705 8.08794 8.87705C8.19936 8.87705 8.30623 8.83279 8.38502 8.754C8.4638 8.67521 8.50807 8.56835 8.50807 8.45693V7.19654H9.76845C9.87987 7.19654 9.98673 7.15228 10.0655 7.07349C10.1443 6.9947 10.1886 6.88784 10.1886 6.77642C10.1886 6.66499 10.1443 6.55813 10.0655 6.47934C9.98673 6.40055 9.87987 6.35629 9.76845 6.35629H8.50807V5.09591Z" fill="#363330"/>
<path d="M1.36544 1.3125C1.25401 1.3125 1.14715 1.35676 1.06836 1.43555C0.989576 1.51434 0.945313 1.6212 0.945312 1.73263C0.945313 1.84405 0.989576 1.95091 1.06836 2.0297C1.14715 2.10849 1.25401 2.15275 1.36544 2.15275H2.29812L2.63506 3.50304L3.89376 10.2125C3.91179 10.3087 3.96288 10.3957 4.03821 10.4583C4.11355 10.5209 4.20838 10.5552 4.30633 10.5553H5.14658C4.70089 10.5553 4.27344 10.7323 3.95828 11.0475C3.64313 11.3627 3.46608 11.7901 3.46608 12.2358C3.46608 12.6815 3.64313 13.1089 3.95828 13.4241C4.27344 13.7393 4.70089 13.9163 5.14658 13.9163C5.59228 13.9163 6.01973 13.7393 6.33488 13.4241C6.65004 13.1089 6.82709 12.6815 6.82709 12.2358C6.82709 11.7901 6.65004 11.3627 6.33488 11.0475C6.01973 10.7323 5.59228 10.5553 5.14658 10.5553H11.0284C10.5827 10.5553 10.1552 10.7323 9.84007 11.0475C9.52491 11.3627 9.34785 11.7901 9.34785 12.2358C9.34785 12.6815 9.52491 13.1089 9.84007 13.4241C10.1552 13.7393 10.5827 13.9163 11.0284 13.9163C11.4741 13.9163 11.9015 13.7393 12.2167 13.4241C12.5318 13.1089 12.7089 12.6815 12.7089 12.2358C12.7089 11.7901 12.5318 11.3627 12.2167 11.0475C11.9015 10.7323 11.4741 10.5553 11.0284 10.5553H11.8686C11.9666 10.5552 12.0614 10.5209 12.1367 10.4583C12.2121 10.3957 12.2632 10.3087 12.2812 10.2125L13.5416 3.49044C13.5529 3.4298 13.5508 3.36741 13.5353 3.3077C13.5198 3.24798 13.4914 3.19241 13.452 3.14493C13.4126 3.09745 13.3633 3.05922 13.3074 3.03296C13.2516 3.00671 13.1907 2.99307 13.129 2.99301H3.37365L3.03334 1.63096C3.01067 1.54003 2.95824 1.45929 2.88439 1.40159C2.81055 1.34388 2.71954 1.31253 2.62582 1.3125H1.36544ZM4.65504 9.71504L3.55178 3.83326H12.6232L11.5199 9.71504H4.65504ZM5.98684 12.2358C5.98684 12.4587 5.89831 12.6724 5.74073 12.83C5.58315 12.9875 5.36943 13.0761 5.14658 13.0761C4.92373 13.0761 4.71001 12.9875 4.55243 12.83C4.39486 12.6724 4.30633 12.4587 4.30633 12.2358C4.30633 12.013 4.39486 11.7992 4.55243 11.6417C4.71001 11.4841 4.92373 11.3955 5.14658 11.3955C5.36943 11.3955 5.58315 11.4841 5.74073 11.6417C5.89831 11.7992 5.98684 12.013 5.98684 12.2358ZM11.8686 12.2358C11.8686 12.4587 11.7801 12.6724 11.6225 12.83C11.4649 12.9875 11.2512 13.0761 11.0284 13.0761C10.8055 13.0761 10.5918 12.9875 10.4342 12.83C10.2766 12.6724 10.1881 12.4587 10.1881 12.2358C10.1881 12.013 10.2766 11.7992 10.4342 11.6417C10.5918 11.4841 10.8055 11.3955 11.0284 11.3955C11.2512 11.3955 11.4649 11.4841 11.6225 11.6417C11.7801 11.7992 11.8686 12.013 11.8686 12.2358Z" fill="#363330"/>
</svg>
