<svg width="28" height="31" viewBox="0 0 28 31" fill="none" xmlns="http://www.w3.org/2000/svg">
<path d="M25.1274 26.5529C24.9183 25.8496 24.6142 25.0893 24.2721 24.291C23.9299 23.5117 23.5118 22.7134 23.0746 21.9341C23.0176 22.0481 22.9415 22.1432 22.8845 22.2382C22.8275 22.3332 22.7514 22.4473 22.6944 22.5423C22.6184 22.6374 22.5614 22.7324 22.4853 22.8464C22.4093 22.9415 22.3333 23.0365 22.2572 23.1316L22.2382 23.1506L22.2192 23.1696L22.2002 23.1886L22.1812 23.2076L22.1052 23.2836C22.1622 23.4547 22.2382 23.6828 22.3333 23.9109C22.4283 24.139 22.5043 24.3861 22.5804 24.6332C22.6564 24.8612 22.7134 25.0893 22.7514 25.2794C22.7705 25.4695 22.7705 25.6025 22.6944 25.6786C22.6754 25.6976 22.6564 25.7166 22.6184 25.7356C22.5994 25.7546 22.5614 25.7736 22.5234 25.7736C22.4853 25.7926 22.4473 25.7926 22.4283 25.7926C22.3903 25.7926 22.3523 25.7926 22.3143 25.7926C22.2572 25.7926 22.1812 25.7736 22.1052 25.7736C22.0292 25.7546 21.9531 25.7356 21.8771 25.7166C21.8011 25.6976 21.706 25.6596 21.611 25.6216C21.5159 25.5835 21.4209 25.5455 21.3259 25.4885C21.2118 25.4315 21.0788 25.3745 20.9457 25.2984C20.8127 25.2224 20.6796 25.1464 20.5466 25.0703C20.4135 24.9943 20.2614 24.8993 20.1094 24.8232C19.9573 24.7282 19.8053 24.6332 19.6722 24.5571C20.2614 23.9679 20.8127 23.3406 21.3259 22.6754C21.8391 22.0101 22.2953 21.2878 22.7134 20.5655C23.1316 19.8242 23.4737 19.0639 23.7779 18.2656C24.063 17.4863 24.3101 16.6689 24.4621 15.8516C24.8233 14.0079 24.8043 12.2782 24.4621 10.7386C24.139 9.21795 23.4927 7.88741 22.5994 6.80398C21.725 5.73955 20.6226 4.92222 19.3301 4.39C18.0566 3.8768 16.612 3.6487 15.0533 3.74374C14.0269 3.81977 13.0005 4.02886 12.0121 4.35199C11.0237 4.67512 10.0733 5.1313 9.14196 5.68252C8.2296 6.23375 7.35524 6.88001 6.55692 7.6023C5.7586 8.32459 4.9983 9.14192 4.33303 10.0163C4.14295 9.67413 3.99089 9.37001 3.87684 9.06589C3.7628 8.78077 3.66776 8.51466 3.61074 8.28657C3.55371 8.05848 3.53471 7.8494 3.55371 7.67833C3.57272 7.50726 3.62974 7.37421 3.72478 7.27917C3.74379 7.24115 3.80081 7.22214 3.83883 7.18413C3.87684 7.14611 3.93387 7.12711 4.0099 7.1081C4.06692 7.08909 4.14295 7.07008 4.21898 7.05108C4.29501 7.03207 4.37104 7.03207 4.44707 7.01306C4.54211 7.01306 4.63715 7.01306 4.73219 7.03207C4.82723 7.05108 4.94127 7.07008 5.03631 7.1081C5.13135 7.14611 5.24539 7.18413 5.34043 7.26016C5.45448 7.31718 5.54952 7.39321 5.64456 7.50726C5.73959 7.39321 5.85364 7.26016 5.96769 7.14611C6.08173 7.03207 6.19578 6.91802 6.30982 6.82298C6.42387 6.72795 6.53792 6.6139 6.67097 6.51886C6.78502 6.42382 6.91807 6.32878 7.05112 6.23375C7.07013 6.23375 7.07013 6.21474 7.08914 6.21474C7.10815 6.21474 7.10815 6.19573 7.12715 6.19573C7.14616 6.19573 7.14616 6.17672 7.16517 6.17672C7.18418 6.17672 7.18418 6.15772 7.20318 6.15772C6.97509 5.94863 6.72799 5.77756 6.46188 5.6255C6.19578 5.49245 5.92967 5.3784 5.66356 5.30237C5.39746 5.22634 5.11234 5.16932 4.84623 5.1313C4.58013 5.09329 4.31402 5.09329 4.08593 5.11229C3.91486 5.1313 3.74379 5.15031 3.59173 5.16932C3.43967 5.20733 3.28761 5.24535 3.15455 5.28336C3.0215 5.32138 2.90745 5.3784 2.79341 5.45443C2.69837 5.51146 2.60333 5.58749 2.5273 5.66352C2.31822 5.89161 2.20417 6.17672 2.14715 6.53787C2.09012 6.89901 2.10913 7.31718 2.20417 7.77337C2.29921 8.24856 2.45127 8.76176 2.67936 9.33199C2.90745 9.90222 3.19257 10.5295 3.55371 11.1757C3.30661 11.5369 3.09753 11.917 2.86944 12.3162C2.66035 12.6963 2.47028 13.0955 2.2802 13.4947C2.09012 13.8938 1.93806 14.312 1.786 14.7302C1.63394 15.1483 1.50089 15.5855 1.38684 16.0037C0.949664 17.6573 0.816611 19.254 0.968672 20.7176C1.12073 22.2002 1.5389 23.5877 2.20417 24.7662C2.88845 25.9637 3.83883 26.9711 4.9983 27.7124C6.17677 28.4537 7.60234 28.9289 9.21799 29.0239C9.69319 29.0429 10.1874 29.0429 10.6626 29.0049C11.1568 28.9669 11.632 28.8909 12.1262 28.7958C12.6204 28.7008 13.0956 28.5677 13.5707 28.4157C14.0459 28.2636 14.5401 28.0735 14.9963 27.8455L13.8559 25.6976C13.5327 25.8306 13.1906 25.9447 12.8485 26.0397C12.5063 26.1348 12.1642 26.2108 11.8411 26.2868C11.4989 26.3438 11.1568 26.4009 10.8146 26.4199C10.4725 26.4389 10.1304 26.4389 9.80723 26.4389C8.51471 26.3819 7.35524 26.0207 6.40486 25.4315C5.45448 24.8612 4.67516 24.0629 4.10494 23.0935C3.53471 22.1432 3.19257 21.0407 3.05951 19.8432C2.92646 18.6457 3.0215 17.3532 3.36364 16.0037C3.70577 14.6731 4.276 13.3996 4.9983 12.2402C5.72059 11.0807 6.59494 10.0353 7.60234 9.14192C8.59074 8.24856 9.71219 7.50726 10.8717 6.97504C12.0501 6.44283 13.2856 6.10069 14.5401 6.02466C15.8137 5.94863 16.9731 6.15772 17.9995 6.59489C19.0259 7.03207 19.9193 7.71634 20.6036 8.59069C21.3069 9.46505 21.8011 10.5485 22.0482 11.784C22.2953 13.0195 22.2953 14.407 22.0101 15.8706C21.8771 16.5169 21.687 17.1441 21.4589 17.7714C21.2308 18.3986 20.9457 18.9879 20.6226 19.5771C20.2995 20.1664 19.9383 20.7176 19.5392 21.2498C19.14 21.782 18.7028 22.2762 18.2466 22.7514C18.2466 22.5993 18.2656 22.4283 18.2656 22.2762C18.2656 22.1241 18.2846 21.9531 18.2846 21.801C18.2846 21.649 18.3037 21.5159 18.3037 21.4019C18.3037 21.2878 18.3037 21.1928 18.3037 21.1167C18.3037 21.0597 18.3037 21.0027 18.2846 20.9647C18.2656 20.9267 18.2656 20.8886 18.2466 20.8696C18.2276 20.8506 18.2086 20.8316 18.1896 20.8126C18.1706 20.7936 18.1326 20.7936 18.1136 20.7936C18.0946 20.7936 18.0756 20.7936 18.0566 20.7936C18.0375 20.7936 18.0185 20.7936 17.9995 20.8126C17.9805 20.8126 17.9615 20.8316 17.9615 20.8316H17.9425L13.9509 22.1432C13.9509 22.1432 13.9129 22.1622 13.8559 22.1812C13.8178 22.2002 13.7608 22.2382 13.7038 22.2762C13.6658 22.3332 13.6278 22.3903 13.6088 22.4853C13.6088 22.5803 13.6278 22.6754 13.6848 22.8084C13.6848 22.8084 13.6848 22.8274 13.7038 22.8274C13.7038 22.8274 13.7038 22.8464 13.7228 22.8464C13.7228 22.8464 13.7228 22.8654 13.7418 22.8654C13.7418 22.8654 13.7418 22.8845 13.7608 22.8845C13.9319 23.2456 14.198 23.7398 14.4831 24.291C14.7872 24.8422 15.1104 25.4695 15.4335 26.0777C15.7756 26.705 16.0988 27.3132 16.3839 27.8264C16.669 28.3587 16.9161 28.7958 17.0492 29.0619C17.0682 29.0809 17.0682 29.1 17.0872 29.138C17.1062 29.157 17.1062 29.176 17.1252 29.195C17.1442 29.214 17.1442 29.233 17.1442 29.252C17.1442 29.271 17.1632 29.29 17.1632 29.29C17.2012 29.3661 17.2392 29.4231 17.2772 29.4611C17.3153 29.5181 17.3533 29.5561 17.3723 29.5751C17.4103 29.6132 17.4293 29.6322 17.4673 29.6512C17.5053 29.6702 17.5243 29.6702 17.5624 29.6702C17.6194 29.6702 17.6574 29.6512 17.6954 29.6322C17.7334 29.6132 17.7714 29.5561 17.8095 29.5181C17.8475 29.4801 17.8665 29.4231 17.8855 29.3661C17.9045 29.309 17.9045 29.271 17.9235 29.233C17.9235 29.214 17.9235 29.214 17.9235 29.195C17.9235 29.176 17.9235 29.157 17.9235 29.119C17.9235 29.1 17.9235 29.0619 17.9235 29.0239C17.9235 28.9859 17.9235 28.9669 17.9235 28.9289C17.9235 28.7958 17.9425 28.6438 17.9425 28.4727C17.9425 28.3016 17.9615 28.1306 17.9615 27.9785C17.9615 27.8264 17.9805 27.6934 17.9805 27.5793C17.9805 27.4843 17.9995 27.4083 17.9995 27.3893C18.5508 27.7124 19.102 28.0355 19.6342 28.3397C20.1854 28.6438 20.7176 28.9099 21.2308 29.157C21.744 29.4041 22.2382 29.5942 22.6944 29.7462C23.1506 29.8983 23.5688 29.9933 23.9299 30.0123C23.9869 30.0123 24.025 30.0123 24.082 30.0123C24.139 30.0123 24.177 30.0123 24.215 30.0123C24.2531 30.0123 24.3101 30.0123 24.3481 29.9933C24.3861 29.9933 24.4431 29.9743 24.4811 29.9743C24.5382 29.9553 24.6142 29.9363 24.6712 29.9173C24.7282 29.8983 24.7853 29.8793 24.8423 29.8413C24.8993 29.8222 24.9373 29.7842 24.9944 29.7462C25.0324 29.7082 25.0894 29.6702 25.1274 29.6322C25.3935 29.3661 25.5076 28.9289 25.4886 28.3967C25.4886 27.8645 25.3555 27.2182 25.1464 26.5149L25.1274 26.5529Z" fill="#833376"/>
<path d="M12.5439 15.5525V14.6021H10.0539L11.4985 13.1955C11.8786 12.8154 12.1447 12.4732 12.3158 12.1501C12.4679 11.827 12.5439 11.5039 12.5439 11.1617C12.5439 10.6105 12.3728 10.1733 12.0307 9.8692C11.6885 9.56508 11.2134 9.41302 10.5861 9.41302C9.97786 9.41302 9.48366 9.56508 9.12251 9.8692C8.76137 10.1733 8.57129 10.6105 8.57129 11.1617V11.2187H9.61671C9.61671 10.6105 9.93984 10.3064 10.5861 10.3064C11.1943 10.3064 11.5175 10.5915 11.5175 11.1807C11.5175 11.4088 11.4605 11.6369 11.3464 11.846C11.2324 12.0551 11.0613 12.2832 10.8142 12.5493L8.70434 14.5831V15.5335H12.5819L12.5439 15.5525ZM17.6189 11.2187C17.6189 10.6675 17.4289 10.2113 17.0487 9.88821C16.6686 9.54607 16.1744 9.375 15.5471 9.375C14.9389 9.375 14.4447 9.54607 14.0455 9.8692C13.6653 10.2113 13.4753 10.6485 13.4753 11.1997V13.7848C13.4753 14.336 13.6653 14.7732 14.0455 15.1153C14.4256 15.4575 14.9198 15.6095 15.5471 15.6095C16.1553 15.6095 16.6495 15.4384 17.0487 15.0963C17.4289 14.7542 17.6189 14.317 17.6189 13.7658V11.2187ZM16.5735 13.6897C16.5735 14.0129 16.4785 14.26 16.3074 14.431C16.1363 14.6021 15.8892 14.6971 15.5661 14.6971C15.243 14.6971 14.9959 14.6021 14.8248 14.431C14.6537 14.26 14.5587 13.9939 14.5587 13.6897V11.2758C14.5587 10.9526 14.6537 10.7055 14.8248 10.5155C14.9959 10.3444 15.262 10.2494 15.5851 10.2494C15.9082 10.2494 16.1553 10.3444 16.3264 10.5155C16.5165 10.6865 16.5925 10.9526 16.5925 11.2758L16.5735 13.6897Z" fill="#833376"/>
<path d="M9.82616 20.6478V16.0859H9.06585V19.5643L7.26012 16.0859H6.13867V20.6478H6.89898V17.1884L8.72371 20.6478H9.82616ZM11.4228 20.2106C11.4228 20.0966 11.3848 20.0015 11.3088 19.9445C11.2327 19.8875 11.1187 19.8495 11.0046 19.8495C10.8906 19.8495 10.7765 19.8875 10.7005 19.9445C10.6245 20.0015 10.5865 20.0966 10.5865 20.2106V20.3437C10.5865 20.4577 10.6245 20.5527 10.7005 20.6098C10.7765 20.6668 10.8906 20.7048 11.0046 20.7048C11.1377 20.7048 11.2327 20.6668 11.3088 20.6098C11.3848 20.5527 11.4228 20.4577 11.4228 20.3437L11.4038 20.2106H11.4228ZM14.8632 19.4123H14.1409C14.1409 19.8495 13.9128 20.0585 13.4566 20.0585C13.0194 20.0585 12.7914 19.8304 12.7914 19.3743V18.709C12.7914 18.2528 13.0194 18.0247 13.4566 18.0247C13.9128 18.0247 14.1409 18.2338 14.1409 18.671H14.8632V18.614C14.8632 18.2148 14.7491 17.9107 14.483 17.7016C14.2359 17.4925 13.8938 17.3785 13.4756 17.3785C13.0575 17.3785 12.7153 17.4925 12.4682 17.7206C12.2211 17.9487 12.0881 18.2528 12.0881 18.652V19.4503C12.0881 19.8495 12.2211 20.1536 12.4682 20.3817C12.7153 20.6098 13.0575 20.7048 13.4756 20.7048C13.9128 20.7048 14.2549 20.6098 14.502 20.3817C14.7491 20.1726 14.8822 19.8685 14.8822 19.4693L14.8632 19.4313V19.4123ZM19.9953 20.6478V18.3669C19.9953 18.0627 19.9192 17.8156 19.7482 17.6446C19.5961 17.4735 19.368 17.3785 19.0829 17.3785C18.8168 17.3785 18.5887 17.4545 18.3416 17.6065L17.9804 17.8156C17.8474 17.5305 17.5813 17.3785 17.2201 17.3785C16.992 17.3785 16.764 17.4545 16.5359 17.5685L16.2507 17.7396V17.3975H15.5285V20.6288H16.2698V18.4049L16.6499 18.1578C16.802 18.0817 16.935 18.0437 17.0301 18.0437C17.2582 18.0437 17.3722 18.1768 17.3722 18.4429V20.6288H18.1135V18.4049L18.5127 18.1578C18.6647 18.0627 18.7978 18.0247 18.8928 18.0247C19.1209 18.0247 19.2349 18.1578 19.2349 18.4239V20.6098H19.9762L19.9953 20.6478Z" fill="#833376"/>
<path d="M22.0677 12.071C25.147 12.071 27.656 9.58103 27.656 6.48278C27.656 3.40354 25.166 0.894531 22.0677 0.894531C18.9885 0.894531 16.4795 3.38453 16.4795 6.48278C16.4795 9.56202 18.9695 12.071 22.0677 12.071Z" fill="#833376"/>
<path d="M22.0677 12.071C25.147 12.071 27.656 9.58103 27.656 6.48278C27.656 3.40354 25.166 0.894531 22.0677 0.894531C18.9885 0.894531 16.4795 3.38453 16.4795 6.48278C16.4795 9.56202 18.9695 12.071 22.0677 12.071Z" stroke="white" stroke-width="1.08344"/>
<path d="M24.0438 9.66086V9.05261H22.6752V3.73047H21.972C21.5538 4.12963 21.1356 4.37673 20.7365 4.52879V5.17505C21.1926 5.09902 21.6108 4.87093 22.01 4.47177V9.07162H20.2803V9.67986H24.0438V9.66086Z" fill="#FEFEFE"/>
</svg>
