<svg width="34" height="36" viewBox="0 0 34 36" fill="none" xmlns="http://www.w3.org/2000/svg">
<path d="M30.3351 31.4126C30.0831 30.5598 29.7343 29.6295 29.2885 28.6798C28.8621 27.7301 28.3775 26.7611 27.8349 25.8114C27.7573 25.947 27.6798 26.0633 27.6023 26.1796C27.5248 26.2959 27.4472 26.4316 27.3697 26.5479C27.2922 26.6642 27.1953 26.7804 27.1178 26.8967C27.0208 27.013 26.9433 27.1293 26.8464 27.2456L26.827 27.265L26.8077 27.2844L26.7883 27.3037L26.7689 27.3231L26.6914 27.42C26.7689 27.6332 26.8658 27.9046 26.9627 28.1759C27.0596 28.4666 27.1759 28.7574 27.2728 29.0481C27.3697 29.3388 27.4472 29.6101 27.4666 29.8233C27.5054 30.0365 27.486 30.211 27.4085 30.3079C27.3891 30.3273 27.3503 30.366 27.3116 30.3854C27.2728 30.4048 27.234 30.4242 27.1953 30.4435C27.1565 30.4629 27.1178 30.4629 27.0596 30.4629C27.0208 30.4629 26.9627 30.4629 26.9239 30.4629C26.8464 30.4629 26.7689 30.4435 26.672 30.4242C26.5751 30.4048 26.4782 30.3854 26.3813 30.3466C26.2844 30.3079 26.1681 30.2691 26.0712 30.2303C25.9549 30.1916 25.8386 30.1334 25.7223 30.0753C25.5672 29.9978 25.4122 29.9202 25.2571 29.8427C25.1021 29.7652 24.9277 29.6683 24.7726 29.5714C24.5982 29.4745 24.4237 29.3776 24.2493 29.2613C24.0749 29.145 23.9004 29.0481 23.7066 28.9318C24.4237 28.2147 25.1021 27.4588 25.7029 26.6448C26.3231 25.8308 26.8852 24.978 27.3697 24.0864C27.8736 23.1949 28.3 22.2646 28.6489 21.3149C28.9978 20.3652 29.2885 19.3767 29.4823 18.3883C29.9281 16.1594 29.9087 14.0662 29.5017 12.2056C29.0947 10.3644 28.3194 8.7557 27.2534 7.43776C26.2068 6.1392 24.8501 5.15075 23.2802 4.51116C21.7491 3.89095 20.0048 3.60023 18.1054 3.7359C16.865 3.81343 15.6246 4.08477 14.4229 4.4724C13.2213 4.87941 12.0584 5.42209 10.9536 6.08106C9.84888 6.74003 8.80228 7.51529 7.81383 8.40683C6.84476 9.279 5.93383 10.2675 5.11981 11.314C4.90661 10.907 4.7128 10.5194 4.57713 10.1705C4.44146 9.82168 4.32517 9.51157 4.26702 9.22085C4.20888 8.94951 4.1895 8.69755 4.20888 8.48436C4.22826 8.27116 4.28641 8.11611 4.40269 7.99982C4.44146 7.96106 4.48022 7.9223 4.53836 7.88353C4.59651 7.84477 4.65465 7.80601 4.73218 7.78662C4.8097 7.74786 4.88723 7.72848 4.98414 7.7091C5.08104 7.68972 5.17795 7.67034 5.27486 7.67034C5.39115 7.67034 5.50744 7.67034 5.62373 7.68972C5.74001 7.7091 5.87568 7.72848 5.99197 7.78662C6.10826 7.82539 6.24393 7.88353 6.36022 7.96106C6.49589 8.03858 6.61218 8.13549 6.74785 8.25178C6.86414 8.09673 6.99981 7.96106 7.13548 7.82539C7.27115 7.68972 7.40682 7.55405 7.54249 7.43776C7.67816 7.32147 7.83321 7.1858 7.96888 7.06951C8.12393 6.95322 8.27898 6.83693 8.43404 6.72065C8.45342 6.72065 8.45342 6.70126 8.4728 6.70126C8.49218 6.68188 8.49218 6.68188 8.51156 6.68188C8.53094 6.68188 8.53094 6.6625 8.55032 6.6625C8.56971 6.6625 8.56971 6.64312 8.58909 6.64312C8.29837 6.39116 8.00764 6.17796 7.67816 6.00353C7.36806 5.8291 7.03857 5.69343 6.70909 5.59652C6.3796 5.49961 6.05012 5.44147 5.72063 5.40271C5.39115 5.36394 5.08105 5.36394 4.79032 5.38333C4.57713 5.40271 4.38331 5.42209 4.1895 5.46085C3.99568 5.49961 3.82125 5.53838 3.6662 5.59652C3.51115 5.65467 3.3561 5.71281 3.23981 5.79034C3.12352 5.86786 3.00723 5.94539 2.9297 6.04229C2.67775 6.31363 2.52269 6.6625 2.46455 7.10827C2.4064 7.53467 2.42579 8.03858 2.52269 8.62003C2.63898 9.18209 2.81342 9.82168 3.08476 10.5194C3.3561 11.2171 3.70496 11.9536 4.13135 12.7483C3.84063 13.194 3.56929 13.6592 3.31733 14.1244C3.06537 14.5895 2.81342 15.074 2.60022 15.5586C2.38702 16.0431 2.17383 16.547 1.99939 17.051C1.82496 17.5549 1.65053 18.0782 1.51486 18.6015C0.991559 20.5978 0.836507 22.5359 1.01094 24.319C1.18537 26.1215 1.70867 27.7883 2.52269 29.2225C3.3561 30.6761 4.4996 31.8971 5.91445 32.7887C7.34867 33.6996 9.07362 34.2617 11.0118 34.378C11.5932 34.4167 12.1747 34.3974 12.7561 34.3586C13.3375 34.3198 13.9384 34.2229 14.5198 34.1066C15.1013 33.9903 15.7021 33.8353 16.2835 33.6415C16.865 33.4477 17.4464 33.2151 18.0279 32.9631L16.6518 30.3466C16.2448 30.5017 15.8377 30.6567 15.4307 30.773C15.0237 30.8893 14.6167 30.9862 14.2097 31.0637C13.8027 31.1413 13.3957 31.1994 12.9693 31.2188C12.5623 31.2382 12.1553 31.2576 11.7483 31.2382C10.1784 31.1607 8.7829 30.7343 7.62002 30.0171C6.45713 29.3194 5.52682 28.3503 4.84847 27.1875C4.17012 26.044 3.72434 24.7066 3.56929 23.2336C3.41424 21.78 3.53053 20.2101 3.95692 18.5821C4.36393 16.9541 5.06166 15.4229 5.93383 14.0275C6.80599 12.632 7.87197 11.3528 9.07362 10.2868C10.2753 9.20147 11.632 8.30992 13.0468 7.65096C14.481 6.99199 15.9734 6.58498 17.5046 6.50745C19.0357 6.41054 20.4505 6.6625 21.6909 7.1858C22.9507 7.72848 24.0167 8.5425 24.8501 9.5891C25.7029 10.6551 26.3037 11.973 26.6138 13.446C26.9239 14.9384 26.9239 16.6246 26.5557 18.4077C26.4006 19.1829 26.1681 19.9582 25.8967 20.7141C25.606 21.4699 25.2765 22.187 24.8889 22.9042C24.5013 23.6019 24.0555 24.2802 23.5709 24.9198C23.0864 25.5594 22.5631 26.1602 22.0011 26.7223C22.0204 26.5285 22.0204 26.3347 22.0398 26.1409C22.0592 25.947 22.0592 25.7532 22.0592 25.5788C22.0592 25.4044 22.0786 25.2299 22.0786 25.0943C22.0786 24.9586 22.0786 24.8423 22.0786 24.7648C22.0786 24.6872 22.0786 24.6291 22.0592 24.571C22.0398 24.5322 22.0204 24.4934 22.0011 24.4547C21.9817 24.4353 21.9429 24.4159 21.9235 24.3965C21.9041 24.3771 21.8654 24.3771 21.8266 24.3771C21.8072 24.3771 21.7685 24.3771 21.7491 24.3771C21.7297 24.3771 21.7103 24.3965 21.6909 24.3965C21.6716 24.3965 21.6522 24.4159 21.6522 24.4159C21.6328 24.4159 21.6328 24.4353 21.6328 24.4353L16.7874 26.0052C16.7874 26.0052 16.7293 26.0246 16.6905 26.044C16.6324 26.0633 16.5742 26.1021 16.5161 26.1602C16.458 26.2184 16.4192 26.2959 16.3998 26.4122C16.3998 26.5091 16.4192 26.6448 16.4967 26.8192C16.4967 26.8386 16.5161 26.8386 16.5161 26.8386C16.5161 26.858 16.5161 26.858 16.5355 26.858C16.5355 26.8774 16.5355 26.8774 16.5549 26.8967C16.5549 26.8967 16.5549 26.9161 16.5742 26.9355C16.7874 27.3813 17.0975 27.9627 17.4658 28.6411C17.8147 29.3194 18.2217 30.0753 18.6287 30.8118C19.0357 31.5677 19.4233 32.3042 19.7722 32.9244C20.1211 33.564 20.4118 34.0873 20.5862 34.4167C20.6056 34.4361 20.625 34.4749 20.625 34.4943C20.6444 34.5136 20.6444 34.5524 20.6637 34.5718C20.6831 34.5912 20.6831 34.6106 20.7025 34.6299C20.7219 34.6493 20.7219 34.6687 20.7219 34.6881C20.7606 34.7656 20.8188 34.8431 20.8575 34.9013C20.8963 34.9594 20.9351 35.0176 20.9738 35.0563C21.0126 35.0951 21.0514 35.1145 21.0901 35.1339C21.1289 35.1532 21.1676 35.1532 21.187 35.1532C21.2452 35.1532 21.3033 35.1339 21.3421 35.0951C21.4002 35.0563 21.439 35.0176 21.4778 34.9594C21.5165 34.9013 21.5359 34.8431 21.5553 34.785C21.5747 34.7268 21.594 34.6687 21.594 34.6299C21.594 34.6106 21.594 34.5912 21.594 34.5718C21.594 34.5524 21.594 34.5136 21.594 34.4943C21.594 34.4555 21.594 34.4361 21.594 34.3974C21.594 34.3586 21.594 34.3198 21.594 34.2811C21.6134 34.126 21.6134 33.9322 21.6328 33.7384C21.6522 33.5446 21.6522 33.3314 21.6716 33.1569C21.6909 32.9631 21.6909 32.8081 21.6909 32.6724C21.6909 32.5561 21.7103 32.4592 21.7103 32.4592C22.3693 32.8662 23.0476 33.2539 23.6872 33.6027C24.3462 33.971 24.9858 34.3004 25.606 34.5912C26.2262 34.8819 26.827 35.1339 27.3697 35.3083C27.9124 35.4827 28.4163 35.599 28.8621 35.6184C28.9202 35.6184 28.9784 35.6184 29.0365 35.6184C29.0947 35.6184 29.1528 35.6184 29.211 35.6184C29.2691 35.6184 29.3272 35.6184 29.366 35.599C29.4241 35.599 29.4629 35.5796 29.5211 35.5796C29.5986 35.5602 29.6761 35.5409 29.7343 35.5215C29.8118 35.5021 29.8699 35.4633 29.9281 35.444C29.9862 35.4052 30.0444 35.3664 30.1025 35.3277C30.1606 35.2889 30.2188 35.2308 30.2575 35.192C30.5677 34.8625 30.7033 34.3392 30.7033 33.6996C30.7033 33.06 30.5483 32.2848 30.2963 31.4126H30.3351Z" fill="#833376"/>
<path d="M15.2375 18.0748V16.9507H13.6482V10.7099H12.4659C11.962 11.175 11.4193 11.4851 10.8379 11.6596V12.8225C11.1286 12.7837 11.4193 12.6868 11.6907 12.5317C11.9814 12.3767 12.214 12.2216 12.369 12.0666V16.9313H10.334V18.0555L15.2375 18.0748ZM21.2264 12.8225C21.2264 12.1441 20.9938 11.6014 20.5286 11.1944C20.0635 10.7874 19.4626 10.5742 18.7262 10.5742C17.9897 10.5742 17.3888 10.768 16.9237 11.175C16.4585 11.5821 16.2259 12.1247 16.2259 12.7837V15.9041C16.2259 16.5825 16.4585 17.1058 16.9237 17.5128C17.3888 17.9198 17.9897 18.1136 18.7262 18.1136C19.4626 18.1136 20.0635 17.9004 20.5286 17.4934C20.9938 17.0864 21.2264 16.5437 21.2264 15.8654V12.7837V12.8225ZM19.9666 15.8072C19.9666 16.1948 19.8697 16.5049 19.6371 16.7181C19.4239 16.9313 19.1138 17.0476 18.7455 17.0476C18.3579 17.0476 18.0672 16.9313 17.854 16.7181C17.6408 16.5049 17.5245 16.1948 17.5245 15.8072V12.8806C17.5245 12.493 17.6214 12.1829 17.854 11.9697C18.0672 11.7565 18.3773 11.6402 18.7649 11.6402C19.1525 11.6402 19.4626 11.7565 19.6758 11.9697C19.889 12.1829 20.0053 12.493 20.0053 12.8806L19.9859 15.8072H19.9666Z" fill="#833376"/>
<path d="M11.8267 24.2581V18.7344H10.8964V22.9401L8.70631 18.7344H7.34961V24.2581H8.27992V20.0523L10.4894 24.2581H11.8267ZM13.7649 23.7348C13.7649 23.5991 13.7261 23.4828 13.6292 23.4053C13.5323 23.3278 13.3966 23.289 13.2416 23.289C13.0865 23.289 12.9702 23.3278 12.8733 23.4053C12.7764 23.4828 12.7377 23.5797 12.7377 23.7348V23.8898C12.7377 24.0255 12.7958 24.1418 12.8927 24.1999C12.9896 24.2775 13.1059 24.3162 13.261 24.3162C13.416 24.3162 13.5517 24.2775 13.6486 24.1999C13.7455 24.1224 13.7843 24.0255 13.7843 23.8898L13.7649 23.7348ZM17.9125 22.7657H17.0403C17.0403 23.289 16.769 23.541 16.2069 23.541C15.6643 23.541 15.3929 23.2696 15.3929 22.7076V21.8936C15.3929 21.3315 15.6643 21.0601 16.2069 21.0601C16.7496 21.0601 17.0403 21.3121 17.0403 21.8548H17.9125V21.7773C17.9125 21.2927 17.7574 20.9245 17.4667 20.6725C17.1566 20.4206 16.7496 20.2849 16.2457 20.2849C15.7418 20.2849 15.3154 20.4206 15.0247 20.6919C14.7146 20.9632 14.5595 21.3509 14.5595 21.8354V22.8045C14.5595 23.289 14.7146 23.6573 15.0247 23.9286C15.3348 24.1999 15.7418 24.3356 16.2457 24.3356C16.769 24.3356 17.176 24.2193 17.4861 23.948C17.7962 23.696 17.9513 23.3084 17.9513 22.8432L17.9319 22.7851L17.9125 22.7657ZM24.1339 24.2581V21.5059C24.1339 21.1183 24.037 20.8276 23.8432 20.6338C23.6494 20.4206 23.3781 20.3237 23.0486 20.3237C22.7385 20.3237 22.4478 20.4206 22.157 20.595L21.7306 20.847C21.5756 20.4981 21.2655 20.3237 20.8003 20.3237C20.5096 20.3237 20.2383 20.4012 19.9863 20.5562L19.6374 20.7694V20.3624H18.7459V24.2775H19.6374V21.5834L20.1026 21.2927C20.2964 21.1958 20.4515 21.1377 20.5678 21.1377C20.8391 21.1377 20.9748 21.2927 20.9748 21.6222V24.2775H21.8663V21.5834L22.3315 21.2927C22.5253 21.1958 22.6803 21.1377 22.7966 21.1377C23.068 21.1377 23.2036 21.2927 23.2036 21.6222V24.2775H24.1146L24.1339 24.2581Z" fill="#833376"/>
<path d="M26.6333 13.8486C30.3739 13.8486 33.3974 10.8251 33.3974 7.08444C33.3974 3.34382 30.3739 0.320312 26.6333 0.320312C22.8926 0.320312 19.8691 3.34382 19.8691 7.08444C19.8691 10.8251 22.8926 13.8486 26.6333 13.8486Z" fill="#833376"/>
<path d="M26.6333 13.8486C30.3739 13.8486 33.3974 10.8251 33.3974 7.08444C33.3974 3.34382 30.3739 0.320312 26.6333 0.320312C22.8926 0.320312 19.8691 3.34382 19.8691 7.08444C19.8691 10.8251 22.8926 13.8486 26.6333 13.8486Z" stroke="white" stroke-width="1.31794"/>
<path d="M28.8424 10.9401V10.1648H25.5281L27.6213 8.05223C28.0671 7.60646 28.3772 7.19945 28.5516 6.8312C28.7261 6.46295 28.8036 6.09471 28.8036 5.70708C28.8036 5.10625 28.6292 4.60233 28.2415 4.23409C27.8733 3.86584 27.3306 3.69141 26.6135 3.69141C25.9545 3.69141 25.4118 3.86584 24.9854 4.21471C24.5784 4.56357 24.3652 5.02873 24.3652 5.61017V5.6877H25.1793C25.1793 5.28069 25.2955 4.97058 25.5475 4.75739C25.7995 4.56357 26.1483 4.44728 26.5941 4.44728C27.0593 4.44728 27.4081 4.54419 27.6407 4.77677C27.8733 4.98996 27.9896 5.30007 27.9896 5.70708C27.9896 6.03656 27.9314 6.32728 27.7764 6.59862C27.6407 6.88935 27.3887 7.19945 27.0593 7.54832L24.5203 10.1648V10.9401L28.823 10.9595L28.8424 10.9401Z" fill="#FEFEFE"/>
</svg>
