<svg width="28" height="30" viewBox="0 0 28 30" fill="none" xmlns="http://www.w3.org/2000/svg">
<path d="M25.1274 26.4123C24.9183 25.709 24.6142 24.9487 24.2721 24.1504C23.9299 23.3711 23.5118 22.5728 23.0746 21.7934C23.0176 21.9075 22.9415 22.0025 22.8845 22.0976C22.8275 22.1926 22.7514 22.3067 22.6944 22.4017C22.6184 22.4967 22.5614 22.5918 22.4853 22.7058C22.4093 22.8008 22.3333 22.8959 22.2572 22.9909L22.2382 23.0099L22.2192 23.0289L22.2002 23.048L22.1812 23.067L22.1052 23.143C22.1622 23.3141 22.2382 23.5422 22.3333 23.7702C22.4283 23.9983 22.5043 24.2454 22.5804 24.4925C22.6564 24.7206 22.7134 24.9487 22.7514 25.1388C22.7705 25.3289 22.7705 25.4619 22.6944 25.538C22.6754 25.557 22.6564 25.576 22.6184 25.595C22.5994 25.614 22.5614 25.633 22.5234 25.633C22.4853 25.652 22.4473 25.652 22.4283 25.652C22.3903 25.652 22.3523 25.652 22.3143 25.652C22.2572 25.652 22.1812 25.633 22.1052 25.633C22.0292 25.614 21.9531 25.595 21.8771 25.576C21.8011 25.557 21.706 25.5189 21.611 25.4809C21.5159 25.4429 21.4209 25.4049 21.3259 25.3479C21.2118 25.2909 21.0788 25.2338 20.9457 25.1578C20.8127 25.0818 20.6796 25.0057 20.5466 24.9297C20.4135 24.8537 20.2614 24.7586 20.1094 24.6826C19.9573 24.5876 19.8053 24.4925 19.6722 24.4165C20.2614 23.8273 20.8127 23.2 21.3259 22.5347C21.8391 21.8695 22.2953 21.1472 22.7134 20.4249C23.1316 19.6836 23.4737 18.9233 23.7779 18.125C24.063 17.3457 24.3101 16.5283 24.4621 15.711C24.8233 13.8673 24.8043 12.1376 24.4621 10.5979C24.139 9.07732 23.4927 7.74679 22.5994 6.66335C21.725 5.59892 20.6226 4.78159 19.3301 4.24938C18.0566 3.73617 16.612 3.50808 15.0533 3.60312C14.0269 3.67915 13.0005 3.88823 12.0121 4.21136C11.0237 4.53449 10.0733 4.99068 9.14196 5.5419C8.2296 6.09312 7.35524 6.73938 6.55692 7.46167C5.7586 8.18396 4.9983 9.00129 4.33303 9.87564C4.14295 9.53351 3.99089 9.22938 3.87684 8.92526C3.7628 8.64015 3.66776 8.37404 3.61074 8.14595C3.55371 7.91786 3.53471 7.70877 3.55371 7.5377C3.57272 7.36663 3.62974 7.23358 3.72478 7.13854C3.74379 7.10053 3.80081 7.08152 3.83883 7.0435C3.87684 7.00549 3.93387 6.98648 4.0099 6.96747C4.06692 6.94847 4.14295 6.92946 4.21898 6.91045C4.29501 6.89144 4.37104 6.89144 4.44707 6.87243C4.54211 6.87243 4.63715 6.87243 4.73219 6.89144C4.82723 6.91045 4.94127 6.92946 5.03631 6.96747C5.13135 7.00549 5.24539 7.0435 5.34043 7.11953C5.45448 7.17656 5.54952 7.25259 5.64456 7.36663C5.73959 7.25259 5.85364 7.11953 5.96769 7.00549C6.08173 6.89144 6.19578 6.7774 6.30982 6.68236C6.42387 6.58732 6.53792 6.47327 6.67097 6.37824C6.78502 6.2832 6.91807 6.18816 7.05112 6.09312C7.07013 6.09312 7.07013 6.07411 7.08914 6.07411C7.10815 6.07411 7.10815 6.05511 7.12715 6.05511C7.14616 6.05511 7.14616 6.0361 7.16517 6.0361C7.18418 6.0361 7.18418 6.01709 7.20318 6.01709C6.97509 5.80801 6.72799 5.63694 6.46188 5.48488C6.19578 5.35182 5.92967 5.23778 5.66356 5.16175C5.39746 5.08572 5.11234 5.02869 4.84623 4.99068C4.58013 4.95266 4.31402 4.95266 4.08593 4.97167C3.91486 4.99068 3.74379 5.00968 3.59173 5.02869C3.43967 5.06671 3.28761 5.10472 3.15455 5.14274C3.0215 5.18075 2.90745 5.23778 2.79341 5.31381C2.69837 5.37083 2.60333 5.44686 2.5273 5.52289C2.31822 5.75098 2.20417 6.0361 2.14715 6.39724C2.09012 6.75839 2.10913 7.17656 2.20417 7.63274C2.29921 8.10793 2.45127 8.62114 2.67936 9.19137C2.90745 9.7616 3.19257 10.3889 3.55371 11.0351C3.30661 11.3963 3.09753 11.7764 2.86944 12.1756C2.66035 12.5557 2.47028 12.9549 2.2802 13.354C2.09012 13.7532 1.93806 14.1714 1.786 14.5895C1.63394 15.0077 1.50089 15.4449 1.38684 15.8631C0.949664 17.5167 0.816611 19.1134 0.968672 20.577C1.12073 22.0596 1.5389 23.4471 2.20417 24.6256C2.88845 25.8231 3.83883 26.8305 4.9983 27.5718C6.17677 28.3131 7.60234 28.7883 9.21799 28.8833C9.69319 28.9023 10.1874 28.9023 10.6626 28.8643C11.1568 28.8263 11.632 28.7502 12.1262 28.6552C12.6204 28.5602 13.0956 28.4271 13.5707 28.2751C14.0459 28.123 14.5401 27.9329 14.9963 27.7048L13.8559 25.557C13.5327 25.69 13.1906 25.8041 12.8485 25.8991C12.5063 25.9941 12.1642 26.0702 11.8411 26.1462C11.4989 26.2032 11.1568 26.2602 10.8146 26.2793C10.4725 26.2983 10.1304 26.2983 9.80723 26.2983C8.51471 26.2412 7.35524 25.8801 6.40486 25.2909C5.45448 24.7206 4.67516 23.9223 4.10494 22.9529C3.53471 22.0025 3.19257 20.9001 3.05951 19.7026C2.92646 18.5051 3.0215 17.2126 3.36364 15.8631C3.70577 14.5325 4.276 13.259 4.9983 12.0995C5.72059 10.9401 6.59494 9.89465 7.60234 9.00129C8.59074 8.10793 9.71219 7.36663 10.8717 6.83442C12.0501 6.30221 13.2856 5.96007 14.5401 5.88404C15.8137 5.80801 16.9731 6.01709 17.9995 6.45427C19.0259 6.89144 19.9193 7.57572 20.6036 8.45007C21.3069 9.32442 21.8011 10.4079 22.0482 11.6434C22.2953 12.8789 22.2953 14.2664 22.0101 15.73C21.8771 16.3763 21.687 17.0035 21.4589 17.6308C21.2308 18.258 20.9457 18.8473 20.6226 19.4365C20.2995 20.0257 19.9383 20.577 19.5392 21.1092C19.14 21.6414 18.7028 22.1356 18.2466 22.6108C18.2466 22.4587 18.2656 22.2876 18.2656 22.1356C18.2656 21.9835 18.2846 21.8125 18.2846 21.6604C18.2846 21.5083 18.3037 21.3753 18.3037 21.2612C18.3037 21.1472 18.3037 21.0521 18.3037 20.9761C18.3037 20.9191 18.3037 20.8621 18.2846 20.8241C18.2656 20.786 18.2656 20.748 18.2466 20.729C18.2276 20.71 18.2086 20.691 18.1896 20.672C18.1706 20.653 18.1326 20.653 18.1136 20.653C18.0946 20.653 18.0756 20.653 18.0566 20.653C18.0375 20.653 18.0185 20.653 17.9995 20.672C17.9805 20.672 17.9615 20.691 17.9615 20.691H17.9425L13.9509 22.0025C13.9509 22.0025 13.9129 22.0215 13.8559 22.0405C13.8178 22.0596 13.7608 22.0976 13.7038 22.1356C13.6658 22.1926 13.6278 22.2496 13.6088 22.3447C13.6088 22.4397 13.6278 22.5347 13.6848 22.6678C13.6848 22.6678 13.6848 22.6868 13.7038 22.6868C13.7038 22.6868 13.7038 22.7058 13.7228 22.7058C13.7228 22.7058 13.7228 22.7248 13.7418 22.7248C13.7418 22.7248 13.7418 22.7438 13.7608 22.7438C13.9319 23.105 14.198 23.5992 14.4831 24.1504C14.7872 24.7016 15.1104 25.3289 15.4335 25.9371C15.7756 26.5644 16.0988 27.1726 16.3839 27.6858C16.669 28.218 16.9161 28.6552 17.0492 28.9213C17.0682 28.9403 17.0682 28.9593 17.0872 28.9973C17.1062 29.0164 17.1062 29.0354 17.1252 29.0544C17.1442 29.0734 17.1442 29.0924 17.1442 29.1114C17.1442 29.1304 17.1632 29.1494 17.1632 29.1494C17.2012 29.2254 17.2392 29.2825 17.2772 29.3205C17.3153 29.3775 17.3533 29.4155 17.3723 29.4345C17.4103 29.4725 17.4293 29.4915 17.4673 29.5106C17.5053 29.5296 17.5243 29.5296 17.5624 29.5296C17.6194 29.5296 17.6574 29.5106 17.6954 29.4915C17.7334 29.4725 17.7714 29.4155 17.8095 29.3775C17.8475 29.3395 17.8665 29.2825 17.8855 29.2254C17.9045 29.1684 17.9045 29.1304 17.9235 29.0924C17.9235 29.0734 17.9235 29.0734 17.9235 29.0544C17.9235 29.0354 17.9235 29.0164 17.9235 28.9783C17.9235 28.9593 17.9235 28.9213 17.9235 28.8833C17.9235 28.8453 17.9235 28.8263 17.9235 28.7883C17.9235 28.6552 17.9425 28.5031 17.9425 28.3321C17.9425 28.161 17.9615 27.9899 17.9615 27.8379C17.9615 27.6858 17.9805 27.5528 17.9805 27.4387C17.9805 27.3437 17.9995 27.2677 17.9995 27.2486C18.5508 27.5718 19.102 27.8949 19.6342 28.199C20.1854 28.5031 20.7176 28.7693 21.2308 29.0164C21.744 29.2635 22.2382 29.4535 22.6944 29.6056C23.1506 29.7577 23.5688 29.8527 23.9299 29.8717C23.9869 29.8717 24.025 29.8717 24.082 29.8717C24.139 29.8717 24.177 29.8717 24.215 29.8717C24.2531 29.8717 24.3101 29.8717 24.3481 29.8527C24.3861 29.8527 24.4431 29.8337 24.4811 29.8337C24.5382 29.8147 24.6142 29.7957 24.6712 29.7767C24.7282 29.7577 24.7853 29.7386 24.8423 29.7006C24.8993 29.6816 24.9373 29.6436 24.9944 29.6056C25.0324 29.5676 25.0894 29.5296 25.1274 29.4915C25.3935 29.2254 25.5076 28.7883 25.4886 28.256C25.4886 27.7238 25.3555 27.0776 25.1464 26.3743L25.1274 26.4123Z" fill="#833376"/>
<path d="M12.5439 15.4119V14.4615H10.0539L11.4985 13.0549C11.8786 12.6748 12.1447 12.3326 12.3158 12.0095C12.4679 11.6864 12.5439 11.3632 12.5439 11.0211C12.5439 10.4699 12.3728 10.0327 12.0307 9.72857C11.6885 9.42445 11.2134 9.27239 10.5861 9.27239C9.97786 9.27239 9.48366 9.42445 9.12251 9.72857C8.76137 10.0327 8.57129 10.4699 8.57129 11.0211V11.0781H9.61671C9.61671 10.4699 9.93984 10.1658 10.5861 10.1658C11.1943 10.1658 11.5175 10.4509 11.5175 11.0401C11.5175 11.2682 11.4605 11.4963 11.3464 11.7054C11.2324 11.9145 11.0613 12.1425 10.8142 12.4087L8.70434 14.4425V15.3929H12.5819L12.5439 15.4119ZM17.6189 11.0781C17.6189 10.5269 17.4289 10.0707 17.0487 9.74758C16.6686 9.40544 16.1744 9.23438 15.5471 9.23438C14.9389 9.23438 14.4447 9.40544 14.0455 9.72857C13.6653 10.0707 13.4753 10.5079 13.4753 11.0591V13.6442C13.4753 14.1954 13.6653 14.6325 14.0455 14.9747C14.4256 15.3168 14.9198 15.4689 15.5471 15.4689C16.1553 15.4689 16.6495 15.2978 17.0487 14.9557C17.4289 14.6135 17.6189 14.1764 17.6189 13.6251V11.0781ZM16.5735 13.5491C16.5735 13.8722 16.4785 14.1193 16.3074 14.2904C16.1363 14.4615 15.8892 14.5565 15.5661 14.5565C15.243 14.5565 14.9959 14.4615 14.8248 14.2904C14.6537 14.1193 14.5587 13.8532 14.5587 13.5491V11.1351C14.5587 10.812 14.6537 10.5649 14.8248 10.3748C14.9959 10.2038 15.262 10.1087 15.5851 10.1087C15.9082 10.1087 16.1553 10.2038 16.3264 10.3748C16.5165 10.5459 16.5925 10.812 16.5925 11.1351L16.5735 13.5491Z" fill="#833376"/>
<path d="M9.82616 20.5071V15.9453H9.06585V19.4237L7.26012 15.9453H6.13867V20.5071H6.89898V17.0478L8.72371 20.5071H9.82616ZM11.4228 20.07C11.4228 19.9559 11.3848 19.8609 11.3088 19.8039C11.2327 19.7468 11.1187 19.7088 11.0046 19.7088C10.8906 19.7088 10.7765 19.7468 10.7005 19.8039C10.6245 19.8609 10.5865 19.9559 10.5865 20.07V20.203C10.5865 20.3171 10.6245 20.4121 10.7005 20.4691C10.7765 20.5262 10.8906 20.5642 11.0046 20.5642C11.1377 20.5642 11.2327 20.5262 11.3088 20.4691C11.3848 20.4121 11.4228 20.3171 11.4228 20.203L11.4038 20.07H11.4228ZM14.8632 19.2717H14.1409C14.1409 19.7088 13.9128 19.9179 13.4566 19.9179C13.0194 19.9179 12.7914 19.6898 12.7914 19.2336V18.5684C12.7914 18.1122 13.0194 17.8841 13.4566 17.8841C13.9128 17.8841 14.1409 18.0932 14.1409 18.5304H14.8632V18.4733C14.8632 18.0742 14.7491 17.77 14.483 17.561C14.2359 17.3519 13.8938 17.2378 13.4756 17.2378C13.0575 17.2378 12.7153 17.3519 12.4682 17.58C12.2211 17.8081 12.0881 18.1122 12.0881 18.5113V19.3097C12.0881 19.7088 12.2211 20.0129 12.4682 20.241C12.7153 20.4691 13.0575 20.5642 13.4756 20.5642C13.9128 20.5642 14.2549 20.4691 14.502 20.241C14.7491 20.032 14.8822 19.7278 14.8822 19.3287L14.8632 19.2907V19.2717ZM19.9953 20.5071V18.2262C19.9953 17.9221 19.9192 17.675 19.7482 17.5039C19.5961 17.3329 19.368 17.2378 19.0829 17.2378C18.8168 17.2378 18.5887 17.3139 18.3416 17.4659L17.9804 17.675C17.8474 17.3899 17.5813 17.2378 17.2201 17.2378C16.992 17.2378 16.764 17.3139 16.5359 17.4279L16.2507 17.599V17.2568H15.5285V20.4881H16.2698V18.2642L16.6499 18.0171C16.802 17.9411 16.935 17.9031 17.0301 17.9031C17.2582 17.9031 17.3722 18.0362 17.3722 18.3023V20.4881H18.1135V18.2642L18.5127 18.0171C18.6647 17.9221 18.7978 17.8841 18.8928 17.8841C19.1209 17.8841 19.2349 18.0171 19.2349 18.2833V20.4691H19.9762L19.9953 20.5071Z" fill="#833376"/>
<path d="M22.0677 11.9304C25.147 11.9304 27.656 9.4404 27.656 6.34216C27.656 3.26292 25.166 0.753906 22.0677 0.753906C18.9885 0.753906 16.4795 3.24391 16.4795 6.34216C16.4795 9.4214 18.9695 11.9304 22.0677 11.9304Z" fill="#833376"/>
<path d="M22.0677 11.9304C25.147 11.9304 27.656 9.4404 27.656 6.34216C27.656 3.26292 25.166 0.753906 22.0677 0.753906C18.9885 0.753906 16.4795 3.24391 16.4795 6.34216C16.4795 9.4214 18.9695 11.9304 22.0677 11.9304Z" stroke="white" stroke-width="1.08344"/>
<path d="M24.0438 9.52023V8.91199H22.6752V3.58984H21.972C21.5538 3.989 21.1356 4.2361 20.7365 4.38817V5.03443C21.1926 4.95839 21.6108 4.7303 22.01 4.33114V8.93099H20.2803V9.53924H24.0438V9.52023Z" fill="#FEFEFE"/>
</svg>
