<svg width="33" height="36" viewBox="0 0 33 36" fill="none" xmlns="http://www.w3.org/2000/svg">
<path d="M29.8351 31.4829C29.5831 30.6301 29.2343 29.6998 28.7885 28.7501C28.3621 27.8004 27.8775 26.8314 27.3349 25.8817C27.2573 26.0174 27.1798 26.1336 27.1023 26.2499C27.0248 26.3662 26.9472 26.5019 26.8697 26.6182C26.7922 26.7345 26.6953 26.8508 26.6178 26.967C26.5208 27.0833 26.4433 27.1996 26.3464 27.3159L26.327 27.3353L26.3077 27.3547L26.2883 27.3741L26.2689 27.3934L26.1914 27.4903C26.2689 27.7035 26.3658 27.9749 26.4627 28.2462C26.5596 28.5369 26.6759 28.8277 26.7728 29.1184C26.8697 29.4091 26.9472 29.6805 26.9666 29.8936C27.0054 30.1068 26.986 30.2813 26.9085 30.3782C26.8891 30.3976 26.8503 30.4363 26.8116 30.4557C26.7728 30.4751 26.734 30.4945 26.6953 30.5139C26.6565 30.5332 26.6178 30.5332 26.5596 30.5332C26.5208 30.5332 26.4627 30.5332 26.4239 30.5332C26.3464 30.5332 26.2689 30.5139 26.172 30.4945C26.0751 30.4751 25.9782 30.4557 25.8813 30.4169C25.7844 30.3782 25.6681 30.3394 25.5712 30.3007C25.4549 30.2619 25.3386 30.2038 25.2223 30.1456C25.0672 30.0681 24.9122 29.9906 24.7571 29.913C24.6021 29.8355 24.4277 29.7386 24.2726 29.6417C24.0982 29.5448 23.9237 29.4479 23.7493 29.3316C23.5749 29.2153 23.4004 29.1184 23.2066 29.0021C23.9237 28.285 24.6021 27.5291 25.2029 26.7151C25.8231 25.9011 26.3852 25.0483 26.8697 24.1567C27.3736 23.2652 27.8 22.3349 28.1489 21.3852C28.4978 20.4355 28.7885 19.447 28.9823 18.4586C29.4281 16.2297 29.4087 14.1365 29.0017 12.2759C28.5947 10.4347 27.8194 8.82601 26.7534 7.50807C25.7068 6.20951 24.3501 5.22106 22.7802 4.58147C21.2491 3.96127 19.5048 3.67054 17.6054 3.80621C16.365 3.88374 15.1246 4.15508 13.9229 4.54271C12.7213 4.94972 11.5584 5.4924 10.4536 6.15137C9.34888 6.81034 8.30228 7.5856 7.31383 8.47714C6.34476 9.34931 5.43383 10.3378 4.61981 11.3844C4.40661 10.9774 4.2128 10.5897 4.07713 10.2409C3.94146 9.89199 3.82517 9.58189 3.76702 9.29117C3.70888 9.01982 3.6895 8.76787 3.70888 8.55467C3.72826 8.34147 3.78641 8.18642 3.90269 8.07013C3.94146 8.03137 3.98022 7.99261 4.03836 7.95385C4.09651 7.91508 4.15465 7.87632 4.23218 7.85694C4.3097 7.81817 4.38723 7.79879 4.48414 7.77941C4.58104 7.76003 4.67795 7.74065 4.77486 7.74065C4.89115 7.74065 5.00744 7.74065 5.12373 7.76003C5.24001 7.77941 5.37568 7.79879 5.49197 7.85694C5.60826 7.8957 5.74393 7.95385 5.86022 8.03137C5.99589 8.1089 6.11218 8.2058 6.24785 8.32209C6.36414 8.16704 6.49981 8.03137 6.63548 7.8957C6.77115 7.76003 6.90682 7.62436 7.04249 7.50807C7.17816 7.39178 7.33321 7.25611 7.46888 7.13982C7.62393 7.02354 7.77898 6.90725 7.93404 6.79096C7.95342 6.79096 7.95342 6.77158 7.9728 6.77158C7.99218 6.75219 7.99218 6.75219 8.01156 6.75219C8.03094 6.75219 8.03094 6.73281 8.05032 6.73281C8.06971 6.73281 8.06971 6.71343 8.08909 6.71343C7.79837 6.46147 7.50764 6.24828 7.17816 6.07384C6.86806 5.89941 6.53857 5.76374 6.20909 5.66683C5.8796 5.56993 5.55012 5.51178 5.22063 5.47302C4.89115 5.43426 4.58105 5.43426 4.29032 5.45364C4.07713 5.47302 3.88331 5.4924 3.6895 5.53116C3.49568 5.56993 3.32125 5.60869 3.1662 5.66683C3.01115 5.72498 2.8561 5.78312 2.73981 5.86065C2.62352 5.93817 2.50723 6.0157 2.4297 6.11261C2.17775 6.38395 2.02269 6.73281 1.96455 7.17859C1.9064 7.60498 1.92579 8.1089 2.02269 8.69034C2.13898 9.2524 2.31342 9.89199 2.58476 10.5897C2.8561 11.2875 3.20496 12.0239 3.63135 12.8186C3.34063 13.2644 3.06929 13.7295 2.81733 14.1947C2.56537 14.6598 2.31342 15.1444 2.10022 15.6289C1.88702 16.1134 1.67383 16.6174 1.49939 17.1213C1.32496 17.6252 1.15053 18.1485 1.01486 18.6718C0.491559 20.6681 0.336507 22.6062 0.51094 24.3893C0.685373 26.1918 1.20867 27.8586 2.02269 29.2928C2.8561 30.7464 3.9996 31.9675 5.41445 32.859C6.84867 33.7699 8.57362 34.332 10.5118 34.4483C11.0932 34.487 11.6747 34.4677 12.2561 34.4289C12.8375 34.3901 13.4384 34.2932 14.0198 34.1769C14.6013 34.0607 15.2021 33.9056 15.7835 33.7118C16.365 33.518 16.9464 33.2854 17.5279 33.0334L16.1518 30.4169C15.7448 30.572 15.3377 30.7271 14.9307 30.8433C14.5237 30.9596 14.1167 31.0565 13.7097 31.1341C13.3027 31.2116 12.8957 31.2697 12.4693 31.2891C12.0623 31.3085 11.6553 31.3279 11.2483 31.3085C9.67837 31.231 8.2829 30.8046 7.12002 30.0875C5.95713 29.3897 5.02682 28.4207 4.34847 27.2578C3.67012 26.1143 3.22434 24.7769 3.06929 23.304C2.91424 21.8503 3.03053 20.2804 3.45692 18.6524C3.86393 17.0244 4.56166 15.4932 5.43383 14.0978C6.30599 12.7023 7.37197 11.4231 8.57362 10.3571C9.77527 9.27178 11.132 8.38024 12.5468 7.72127C13.981 7.0623 15.4734 6.65529 17.0046 6.57776C18.5357 6.48085 19.9505 6.73281 21.1909 7.25611C22.4507 7.79879 23.5167 8.61281 24.3501 9.65941C25.2029 10.7254 25.8037 12.0433 26.1138 13.5163C26.4239 15.0087 26.4239 16.6949 26.0557 18.478C25.9006 19.2532 25.6681 20.0285 25.3967 20.7844C25.106 21.5402 24.7765 22.2574 24.3889 22.9745C24.0013 23.6722 23.5555 24.3506 23.0709 24.9901C22.5864 25.6297 22.0631 26.2306 21.5011 26.7926C21.5204 26.5988 21.5204 26.405 21.5398 26.2112C21.5592 26.0174 21.5592 25.8235 21.5592 25.6491C21.5592 25.4747 21.5786 25.3002 21.5786 25.1646C21.5786 25.0289 21.5786 24.9126 21.5786 24.8351C21.5786 24.7576 21.5786 24.6994 21.5592 24.6413C21.5398 24.6025 21.5204 24.5637 21.5011 24.525C21.4817 24.5056 21.4429 24.4862 21.4235 24.4668C21.4041 24.4475 21.3654 24.4475 21.3266 24.4475C21.3072 24.4475 21.2685 24.4475 21.2491 24.4475C21.2297 24.4475 21.2103 24.4668 21.1909 24.4668C21.1716 24.4668 21.1522 24.4862 21.1522 24.4862C21.1328 24.4862 21.1328 24.5056 21.1328 24.5056L16.2874 26.0755C16.2874 26.0755 16.2293 26.0949 16.1905 26.1143C16.1324 26.1336 16.0742 26.1724 16.0161 26.2306C15.958 26.2887 15.9192 26.3662 15.8998 26.4825C15.8998 26.5794 15.9192 26.7151 15.9967 26.8895C15.9967 26.9089 16.0161 26.9089 16.0161 26.9089C16.0161 26.9283 16.0161 26.9283 16.0355 26.9283C16.0355 26.9477 16.0355 26.9477 16.0549 26.967C16.0549 26.967 16.0549 26.9864 16.0742 27.0058C16.2874 27.4516 16.5975 28.033 16.9658 28.7114C17.3147 29.3897 17.7217 30.1456 18.1287 30.8821C18.5357 31.638 18.9233 32.3745 19.2722 32.9947C19.6211 33.6343 19.9118 34.1576 20.0862 34.4871C20.1056 34.5064 20.125 34.5452 20.125 34.5646C20.1444 34.584 20.1444 34.6227 20.1637 34.6421C20.1831 34.6615 20.1831 34.6809 20.2025 34.7002C20.2219 34.7196 20.2219 34.739 20.2219 34.7584C20.2606 34.8359 20.3188 34.9134 20.3575 34.9716C20.3963 35.0297 20.4351 35.0879 20.4738 35.1266C20.5126 35.1654 20.5514 35.1848 20.5901 35.2042C20.6289 35.2235 20.6676 35.2235 20.687 35.2235C20.7452 35.2235 20.8033 35.2042 20.8421 35.1654C20.9002 35.1266 20.939 35.0879 20.9778 35.0297C21.0165 34.9716 21.0359 34.9134 21.0553 34.8553C21.0747 34.7972 21.094 34.739 21.094 34.7002C21.094 34.6809 21.094 34.6615 21.094 34.6421C21.094 34.6227 21.094 34.584 21.094 34.5646C21.094 34.5258 21.094 34.5064 21.094 34.4677C21.094 34.4289 21.094 34.3901 21.094 34.3514C21.1134 34.1963 21.1134 34.0025 21.1328 33.8087C21.1522 33.6149 21.1522 33.4017 21.1716 33.2273C21.1909 33.0334 21.1909 32.8784 21.1909 32.7427C21.1909 32.6264 21.2103 32.5295 21.2103 32.5295C21.8693 32.9365 22.5476 33.3242 23.1872 33.673C23.8462 34.0413 24.4858 34.3708 25.106 34.6615C25.7262 34.9522 26.327 35.2042 26.8697 35.3786C27.4124 35.553 27.9163 35.6693 28.3621 35.6887C28.4202 35.6887 28.4784 35.6887 28.5365 35.6887C28.5947 35.6887 28.6528 35.6887 28.711 35.6887C28.7691 35.6887 28.8272 35.6887 28.866 35.6693C28.9241 35.6693 28.9629 35.6499 29.0211 35.6499C29.0986 35.6306 29.1761 35.6112 29.2343 35.5918C29.3118 35.5724 29.3699 35.5337 29.4281 35.5143C29.4862 35.4755 29.5444 35.4367 29.6025 35.398C29.6606 35.3592 29.7188 35.3011 29.7575 35.2623C30.0677 34.9328 30.2033 34.4095 30.2033 33.7699C30.2033 33.1303 30.0483 32.3551 29.7963 31.4829H29.8351Z" fill="#833376"/>
<path d="M14.7375 18.1452V17.021H13.1482V10.7802H11.9659C11.462 11.2454 10.9193 11.5555 10.3379 11.7299V12.8928C10.6286 12.854 10.9193 12.7571 11.1907 12.6021C11.4814 12.447 11.714 12.292 11.869 12.1369V17.0016H9.83398V18.1258L14.7375 18.1452ZM20.7264 12.8928C20.7264 12.2144 20.4938 11.6717 20.0286 11.2647C19.5635 10.8577 18.9626 10.6445 18.2262 10.6445C17.4897 10.6445 16.8888 10.8383 16.4237 11.2454C15.9585 11.6524 15.7259 12.195 15.7259 12.854V15.9744C15.7259 16.6528 15.9585 17.1761 16.4237 17.5831C16.8888 17.9901 17.4897 18.1839 18.2262 18.1839C18.9626 18.1839 19.5635 17.9707 20.0286 17.5637C20.4938 17.1567 20.7264 16.614 20.7264 15.9357V12.854V12.8928ZM19.4666 15.8775C19.4666 16.2652 19.3697 16.5753 19.1371 16.7885C18.9239 17.0016 18.6138 17.1179 18.2455 17.1179C17.8579 17.1179 17.5672 17.0016 17.354 16.7885C17.1408 16.5753 17.0245 16.2652 17.0245 15.8775V12.9509C17.0245 12.5633 17.1214 12.2532 17.354 12.04C17.5672 11.8268 17.8773 11.7105 18.2649 11.7105C18.6525 11.7105 18.9626 11.8268 19.1758 12.04C19.389 12.2532 19.5053 12.5633 19.5053 12.9509L19.4859 15.8775H19.4666Z" fill="#833376"/>
<path d="M11.3267 24.3284V18.8047H10.3964V23.0105L8.20631 18.8047H6.84961V24.3284H7.77992V20.1226L9.9894 24.3284H11.3267ZM13.2649 23.8051C13.2649 23.6694 13.2261 23.5531 13.1292 23.4756C13.0323 23.3981 12.8966 23.3593 12.7416 23.3593C12.5865 23.3593 12.4702 23.3981 12.3733 23.4756C12.2764 23.5531 12.2377 23.6501 12.2377 23.8051V23.9602C12.2377 24.0958 12.2958 24.2121 12.3927 24.2703C12.4896 24.3478 12.6059 24.3865 12.761 24.3865C12.916 24.3865 13.0517 24.3478 13.1486 24.2703C13.2455 24.1927 13.2843 24.0958 13.2843 23.9602L13.2649 23.8051ZM17.4125 22.836H16.5403C16.5403 23.3593 16.269 23.6113 15.7069 23.6113C15.1643 23.6113 14.8929 23.3399 14.8929 22.7779V21.9639C14.8929 21.4018 15.1643 21.1305 15.7069 21.1305C16.2496 21.1305 16.5403 21.3824 16.5403 21.9251H17.4125V21.8476C17.4125 21.363 17.2574 20.9948 16.9667 20.7428C16.6566 20.4909 16.2496 20.3552 15.7457 20.3552C15.2418 20.3552 14.8154 20.4909 14.5247 20.7622C14.2146 21.0336 14.0595 21.4212 14.0595 21.9057V22.8748C14.0595 23.3593 14.2146 23.7276 14.5247 23.9989C14.8348 24.2703 15.2418 24.4059 15.7457 24.4059C16.269 24.4059 16.676 24.2896 16.9861 24.0183C17.2962 23.7663 17.4513 23.3787 17.4513 22.9136L17.4319 22.8554L17.4125 22.836ZM23.6339 24.3284V21.5762C23.6339 21.1886 23.537 20.8979 23.3432 20.7041C23.1494 20.4909 22.8781 20.394 22.5486 20.394C22.2385 20.394 21.9478 20.4909 21.657 20.6653L21.2306 20.9173C21.0756 20.5684 20.7655 20.394 20.3003 20.394C20.0096 20.394 19.7383 20.4715 19.4863 20.6265L19.1374 20.8397V20.4327H18.2459V24.3478H19.1374V21.6538L19.6026 21.363C19.7964 21.2661 19.9515 21.208 20.0678 21.208C20.3391 21.208 20.4748 21.363 20.4748 21.6925V24.3478H21.3663V21.6538L21.8315 21.363C22.0253 21.2661 22.1803 21.208 22.2966 21.208C22.568 21.208 22.7036 21.363 22.7036 21.6925V24.3478H23.6146L23.6339 24.3284Z" fill="#833376"/>
<path d="M26.1333 13.9189C29.8739 13.9189 32.8974 10.8954 32.8974 7.15475C32.8974 3.41413 29.8739 0.390625 26.1333 0.390625C22.3926 0.390625 19.3691 3.41413 19.3691 7.15475C19.3691 10.8954 22.3926 13.9189 26.1333 13.9189Z" fill="#833376"/>
<path d="M26.1333 13.9189C29.8739 13.9189 32.8974 10.8954 32.8974 7.15475C32.8974 3.41413 29.8739 0.390625 26.1333 0.390625C22.3926 0.390625 19.3691 3.41413 19.3691 7.15475C19.3691 10.8954 22.3926 13.9189 26.1333 13.9189Z" stroke="white" stroke-width="1.31794"/>
<path d="M28.3424 11.0104V10.2351H25.0281L27.1213 8.12255C27.5671 7.67677 27.8772 7.26976 28.0516 6.90151C28.2261 6.53327 28.3036 6.16502 28.3036 5.77739C28.3036 5.17656 28.1292 4.67265 27.7415 4.3044C27.3733 3.93615 26.8306 3.76172 26.1135 3.76172C25.4545 3.76172 24.9118 3.93615 24.4854 4.28502C24.0784 4.63388 23.8652 5.09904 23.8652 5.68048V5.75801H24.6793C24.6793 5.351 24.7955 5.04089 25.0475 4.8277C25.2995 4.63388 25.6483 4.5176 26.0941 4.5176C26.5593 4.5176 26.9081 4.6145 27.1407 4.84708C27.3733 5.06028 27.4896 5.37038 27.4896 5.77739C27.4896 6.10687 27.4314 6.3976 27.2764 6.66894C27.1407 6.95966 26.8887 7.26976 26.5593 7.61863L24.0203 10.2351V11.0104L28.323 11.0298L28.3424 11.0104Z" fill="#FEFEFE"/>
</svg>
