<svg width="17" height="17" viewBox="0 0 17 17" fill="none" xmlns="http://www.w3.org/2000/svg">
<path d="M8.50696 4.9375C8.63957 4.9375 8.76675 4.99018 8.86052 5.08395C8.95429 5.17772 9.00697 5.3049 9.00697 5.43752V8.43761H12.0071C12.1397 8.43761 12.2669 8.49029 12.3606 8.58406C12.4544 8.67783 12.5071 8.80501 12.5071 8.93762C12.5071 9.07023 12.4544 9.19741 12.3606 9.29119C12.2669 9.38496 12.1397 9.43764 12.0071 9.43764H9.00697V12.4377C9.00697 12.5703 8.95429 12.6975 8.86052 12.7913C8.76675 12.8851 8.63957 12.9377 8.50696 12.9377C8.37435 12.9377 8.24716 12.8851 8.15339 12.7913C8.05962 12.6975 8.00694 12.5703 8.00694 12.4377V9.43764H5.00685C4.87424 9.43764 4.74706 9.38496 4.65329 9.29119C4.55952 9.19741 4.50684 9.07023 4.50684 8.93762C4.50684 8.80501 4.55952 8.67783 4.65329 8.58406C4.74706 8.49029 4.87424 8.43761 5.00685 8.43761H8.00694V5.43752C8.00694 5.3049 8.05962 5.17772 8.15339 5.08395C8.24716 4.99018 8.37435 4.9375 8.50696 4.9375Z" fill="#CFCCC9"/>
</svg>
