<svg width="33" height="33" viewBox="0 0 33 33" fill="none" xmlns="http://www.w3.org/2000/svg">
<path d="M16.3093 26.2358C21.7347 26.2358 26.144 21.8829 26.2351 16.4791H32.3974C32.3059 25.2852 25.137 32.3976 16.3093 32.3976C7.47929 32.3976 0.312672 25.2852 0.221219 16.4791H6.38356C6.47459 21.8829 10.8839 26.2358 16.3093 26.2358Z" fill="white" stroke="#CFCCC9" stroke-width="0.341059"/>
<path d="M16.3093 0C25.2881 0 32.5688 7.28073 32.5688 16.2595H26.066C26.066 10.8713 21.6975 6.50285 16.3093 6.50285C10.9211 6.50285 6.55266 10.8713 6.55266 16.2595H0.0498047C0.0498047 7.28073 7.32816 0 16.3093 0Z" fill="#837550"/>
<path d="M3.28226 19.6407C5.09414 19.6407 6.56451 18.1703 6.56451 16.3584C6.56451 14.5465 5.09414 13.0762 3.28226 13.0762C1.47038 13.0762 0 14.5465 0 16.3584C0 18.1703 1.47038 19.6407 3.28226 19.6407Z" fill="white"/>
<path d="M29.3389 19.6407C31.1508 19.6407 32.6212 18.1703 32.6212 16.3584C32.6212 14.5465 31.1508 13.0762 29.3389 13.0762C27.527 13.0762 26.0566 14.5465 26.0566 16.3584C26.0566 18.1703 27.527 19.6407 29.3389 19.6407Z" fill="white"/>
</svg>
