<svg width="17" height="16" viewBox="0 0 17 16" fill="none" xmlns="http://www.w3.org/2000/svg">
<path d="M4.10968 3.29293V7.18121C4.10968 7.76565 4.58378 8.24274 5.1712 8.24274H9.05949M15.0678 5.06114V1.17285C15.0678 0.588419 14.5937 0.111328 14.0063 0.111328H5.1712C4.58677 0.111328 4.10968 0.585437 4.10968 1.17285V2.58623M9.7632 8.23976H10.8098L12.6943 10.1153C12.918 10.336 13.2966 10.1779 13.2966 9.86485V8.23976H14.0033C14.5878 8.23976 15.0649 7.76565 15.0649 7.17823V5.76485M6.22975 10.7117V12.1251C6.22975 12.7095 6.70385 13.1866 7.29127 13.1866H11.2869L13.7857 15.1963C14.0182 15.3812 14.3612 15.2172 14.3612 14.922V13.1866H15.7745C16.359 13.1866 16.8361 12.7125 16.8361 12.1251V6.1167C16.8361 5.53227 16.362 5.05518 15.7745 5.05518H9.76618M6.23273 8.23678V10.005M9.05949 5.05816H7.29127C6.70684 5.05816 6.22975 5.53227 6.22975 6.11969V7.53307M1.63477 2.58623H8.70465C9.28909 2.58623 9.76618 3.06034 9.76618 3.64776V9.65612C9.76618 10.2406 9.29207 10.7176 8.70465 10.7176H4.35717L2.59789 12.5544C2.37724 12.784 1.9896 12.629 1.9896 12.3099V10.7176H1.63477C1.05033 10.7176 0.573242 10.2435 0.573242 9.65612V3.64776C0.573242 3.06333 1.04735 2.58623 1.63477 2.58623Z" stroke="white" stroke-width="0.70669" stroke-miterlimit="10"/>
</svg>
