<svg width="19" height="19" viewBox="0 0 19 19" fill="none" xmlns="http://www.w3.org/2000/svg">
<path d="M10.3931 6.8547C10.3931 6.70316 10.3329 6.55783 10.2257 6.45068C10.1186 6.34352 9.97325 6.28333 9.82172 6.28333C9.67018 6.28333 9.52485 6.34352 9.41769 6.45068C9.31054 6.55783 9.25034 6.70316 9.25034 6.8547V8.56882H7.53622C7.38468 8.56882 7.23935 8.62902 7.1322 8.73618C7.02504 8.84333 6.96484 8.98866 6.96484 9.1402C6.96484 9.29174 7.02504 9.43707 7.1322 9.54422C7.23935 9.65137 7.38468 9.71157 7.53622 9.71157H9.25034V11.4257C9.25034 11.5772 9.31054 11.7226 9.41769 11.8297C9.52485 11.9369 9.67018 11.9971 9.82172 11.9971C9.97325 11.9971 10.1186 11.9369 10.2257 11.8297C10.3329 11.7226 10.3931 11.5772 10.3931 11.4257V9.71157H12.1072C12.2588 9.71157 12.4041 9.65137 12.5112 9.54422C12.6184 9.43707 12.6786 9.29174 12.6786 9.1402C12.6786 8.98866 12.6184 8.84333 12.5112 8.73618C12.4041 8.62902 12.2588 8.56882 12.1072 8.56882H10.3931V6.8547Z" fill="#363330"/>
<path d="M0.678796 1.71228C0.527259 1.71228 0.381927 1.77248 0.274774 1.87963C0.16762 1.98679 0.107422 2.13212 0.107422 2.28365C0.107422 2.43519 0.16762 2.58052 0.274774 2.68768C0.381927 2.79483 0.527259 2.85503 0.678796 2.85503H1.94725L2.40549 4.69143L4.11733 13.8163C4.14184 13.9472 4.21133 14.0655 4.31378 14.1506C4.41623 14.2357 4.54521 14.2824 4.67842 14.2825H5.82117C5.21502 14.2825 4.63369 14.5233 4.20508 14.9519C3.77646 15.3805 3.53567 15.9619 3.53567 16.568C3.53567 17.1742 3.77646 17.7555 4.20508 18.1841C4.63369 18.6127 5.21502 18.8535 5.82117 18.8535C6.42732 18.8535 7.00865 18.6127 7.43726 18.1841C7.86587 17.7555 8.10667 17.1742 8.10667 16.568C8.10667 15.9619 7.86587 15.3805 7.43726 14.9519C7.00865 14.5233 6.42732 14.2825 5.82117 14.2825H13.8204C13.2143 14.2825 12.6329 14.5233 12.2043 14.9519C11.7757 15.3805 11.5349 15.9619 11.5349 16.568C11.5349 17.1742 11.7757 17.7555 12.2043 18.1841C12.6329 18.6127 13.2143 18.8535 13.8204 18.8535C14.4266 18.8535 15.0079 18.6127 15.4365 18.1841C15.8651 17.7555 16.1059 17.1742 16.1059 16.568C16.1059 15.9619 15.8651 15.3805 15.4365 14.9519C15.0079 14.5233 14.4266 14.2825 13.8204 14.2825H14.9632C15.0964 14.2824 15.2253 14.2357 15.3278 14.1506C15.4303 14.0655 15.4997 13.9472 15.5243 13.8163L17.2384 4.67429C17.2538 4.59182 17.2509 4.50697 17.2298 4.42576C17.2088 4.34455 17.1701 4.26897 17.1165 4.20439C17.063 4.13982 16.9959 4.08783 16.9199 4.05212C16.844 4.01641 16.7612 3.99786 16.6773 3.99778H3.40997L2.94715 2.14538C2.91631 2.02172 2.84501 1.91192 2.74458 1.83344C2.64415 1.75496 2.52037 1.71232 2.39292 1.71228H0.678796ZM5.15266 13.1398L3.65223 5.14053H15.9893L14.4889 13.1398H5.15266V13.1398ZM6.96392 16.568C6.96392 16.8711 6.84352 17.1618 6.62921 17.3761C6.41491 17.5904 6.12424 17.7108 5.82117 17.7108C5.51809 17.7108 5.22743 17.5904 5.01312 17.3761C4.79882 17.1618 4.67842 16.8711 4.67842 16.568C4.67842 16.2649 4.79882 15.9743 5.01312 15.76C5.22743 15.5457 5.51809 15.4253 5.82117 15.4253C6.12424 15.4253 6.41491 15.5457 6.62921 15.76C6.84352 15.9743 6.96392 16.2649 6.96392 16.568V16.568ZM14.9632 16.568C14.9632 16.8711 14.8428 17.1618 14.6285 17.3761C14.4142 17.5904 14.1235 17.7108 13.8204 17.7108C13.5173 17.7108 13.2267 17.5904 13.0124 17.3761C12.7981 17.1618 12.6777 16.8711 12.6777 16.568C12.6777 16.2649 12.7981 15.9743 13.0124 15.76C13.2267 15.5457 13.5173 15.4253 13.8204 15.4253C14.1235 15.4253 14.4142 15.5457 14.6285 15.76C14.8428 15.9743 14.9632 16.2649 14.9632 16.568V16.568Z" fill="#363330"/>
</svg>
