<svg width="14" height="35" viewBox="0 0 14 35" fill="none" xmlns="http://www.w3.org/2000/svg">
<path d="M7.72172 18.5559C7.34393 18.5739 6.26651 19.1715 5.1951 20.2689C3.7179 21.7841 3.66793 23.1174 3.7159 23.6171C3.7179 23.6231 3.7179 23.6291 3.7179 23.6351C3.76388 23.765 3.83584 23.9009 3.88781 23.9629C3.94578 23.897 4.0817 23.6811 4.23562 23.0194C4.51147 21.8261 5.20909 21.1964 6.01865 20.4648C6.44042 20.083 6.87818 19.6892 7.32993 19.1615C7.62777 18.8117 7.70373 18.6298 7.72172 18.5539V18.5559Z" fill="#250A20"/>
<path d="M10.1863 24.9544C10.1144 24.9884 9.94246 25.0983 9.64263 25.4621C9.19287 26.0038 8.88704 26.5135 8.59919 27.0053C8.0455 27.9487 7.59374 28.7683 6.52432 29.304C6.3764 29.378 6.25647 29.4439 6.15652 29.5039C6.12254 29.5998 6.10655 29.6978 6.16452 29.7538C6.23448 29.8197 6.31844 29.8597 6.41039 29.8817C7.00606 29.7178 7.99752 29.2221 8.957 27.7668C9.80853 26.4875 10.2323 25.3262 10.1863 24.9564V24.9544Z" fill="#250A20"/>
<path d="M10.2158 24.0189L10.8994 24.0569L11.0034 22.9455L10.3198 22.9075L10.2158 24.0189Z" fill="#250A20"/>
<path d="M9.65467 30.0316L9.59471 30.6673C9.59471 30.7532 9.58071 31.0311 9.58071 31.221L9.57472 31.229L9.57272 31.239C9.44479 32.3603 9.061 32.6982 8.57326 33.026C8.28342 33.2199 7.73372 33.3358 7.10606 33.3358C6.21255 33.3358 5.52293 33.1219 5.32503 32.918C5.12314 32.7082 4.8433 32.2484 4.66539 31.5848C4.66339 31.5688 4.6594 31.5508 4.6554 31.5348L4.61142 31.5328L4.4775 31.5248L3.96777 31.4968C3.98376 31.5988 4.00175 31.6967 4.02574 31.7827C4.20764 32.4663 4.51947 33.0859 4.86329 33.4398C5.30504 33.8975 6.34648 34.0594 7.10406 34.0594C7.54782 34.0594 8.37737 34.0055 8.92107 33.6416C9.6027 33.1879 10.2204 32.6142 10.2803 30.6573L10.2843 30.5094L10.3263 30.0696L9.81858 30.0436L9.65268 30.0336L9.65467 30.0316Z" fill="#250A20"/>
<path d="M4.54692 30.8572H4.56292L4.46697 29.7478L4.29906 29.7378L3.77734 29.7098L3.78934 29.8357L3.89528 30.8212L4.417 30.8492L4.54692 30.8572Z" fill="#250A20"/>
<path d="M9.7168 29.362L9.88471 29.372L10.3944 29.4L10.4984 28.2866L9.82274 28.2506L9.7168 29.362Z" fill="#250A20"/>
<path d="M9.88676 27.561L9.88477 27.581L10.5624 27.6189L10.6663 26.5115L10.5164 26.5035C10.3705 26.8134 10.1626 27.1632 9.88477 27.563L9.88676 27.561Z" fill="#250A20"/>
<path d="M11.5479 9.78464L12.2455 9.82262L12.3514 8.71323L11.6518 8.67325L11.5479 9.78464Z" fill="#250A20"/>
<path d="M11.3818 11.5637L12.0775 11.6017L12.1834 10.4923L11.4838 10.4543L11.3818 11.5637Z" fill="#250A20"/>
<path d="M2.78862 11.7616L2.08301 11.7216L2.19095 12.843L2.89257 12.883L2.78862 11.7616Z" fill="#250A20"/>
<path d="M11.7139 8.00361L12.4155 8.04358L12.5194 6.93619L11.8178 6.89621L11.7139 8.00361Z" fill="#250A20"/>
<path d="M11.2158 13.3427L11.9094 13.3807L12.0154 12.2713L11.3198 12.2333L11.2158 13.3427Z" fill="#250A20"/>
<path d="M11.0479 15.1218L11.7415 15.1617L11.8474 14.0503L11.1518 14.0124L11.0479 15.1218Z" fill="#250A20"/>
<path d="M10.3838 22.2399L11.0674 22.2758L11.1734 21.1664L10.4877 21.1305L10.3838 22.2399Z" fill="#250A20"/>
<path d="M10.7158 18.6818L11.4054 18.7198L11.5094 17.6104L10.8198 17.5704L10.7158 18.6818Z" fill="#250A20"/>
<path d="M10.5498 20.4608L11.2354 20.4988L11.3414 19.3894L10.6537 19.3514L10.5498 20.4608Z" fill="#250A20"/>
<path d="M10.8818 16.9028L11.5735 16.9388L11.6774 15.8314L10.9858 15.7914L10.8818 16.9028Z" fill="#250A20"/>
<path d="M11.8789 6.22658L12.5825 6.26456L12.6885 5.15717L11.9828 5.11719L11.8789 6.22658Z" fill="#250A20"/>
<path d="M1.97295 2.68051C1.67111 2.61455 1.42325 2.53459 1.23535 2.43665L1.33929 3.85187L2.05291 3.89185L1.97295 2.68051Z" fill="#250A20"/>
<path d="M12.0469 4.44755L12.7505 4.48553L12.9104 2.43265C12.7285 2.53059 12.4866 2.60655 12.1948 2.67452L12.0469 4.44755Z" fill="#250A20"/>
<path d="M2.22087 5.69088L2.11493 4.56949L1.40332 4.52951L1.50926 5.6509L1.53725 5.6549L2.22087 5.69088Z" fill="#250A20"/>
<path d="M3.46027 18.9516L2.76465 18.9137L2.87059 20.0351L3.56421 20.073L3.46027 18.9516Z" fill="#250A20"/>
<path d="M3.68216 21.3364L3.62819 20.7507L2.93457 20.7127L3.04051 21.8341L3.4283 21.8561C3.49626 21.6902 3.58022 21.5183 3.68216 21.3384V21.3364Z" fill="#250A20"/>
<path d="M4.40578 29.0702L4.29984 27.9448L3.61621 27.9088L3.72215 29.0322L4.23787 29.0602L4.40578 29.0702Z" fill="#250A20"/>
<path d="M2.28281 6.36652L1.5752 6.32654L1.67914 7.44993L2.38875 7.4899L2.28281 6.36652Z" fill="#250A20"/>
<path d="M3.96804 24.3847C3.89608 24.3767 3.82811 24.3607 3.76615 24.3347L3.27441 24.3087L3.38236 25.4341L4.06998 25.4721L3.96804 24.3847Z" fill="#250A20"/>
<path d="M2.70067 18.236L3.39629 18.276L3.29035 17.1546L2.59473 17.1166L2.70067 18.236Z" fill="#250A20"/>
<path d="M3.12442 15.3556L2.4248 15.3176L2.53075 16.439L3.22837 16.477L3.12442 15.3556Z" fill="#250A20"/>
<path d="M3.44629 26.1097L3.55223 27.2311L4.23786 27.2691L4.13192 26.1477L3.44629 26.1097Z" fill="#250A20"/>
<path d="M2.9565 13.5586L2.25488 13.5206L2.36083 14.642L3.06044 14.68L2.9565 13.5586Z" fill="#250A20"/>
<path d="M2.62065 9.96254L1.91504 9.92456L2.01898 11.0459L2.7246 11.0839L2.62065 9.96254Z" fill="#250A20"/>
<path d="M2.45078 8.16554L1.74316 8.12756L1.85111 9.24695L2.55672 9.28693L2.45078 8.16554Z" fill="#250A20"/>
<path d="M13.3885 4.5215L12.7489 4.48752L12.0453 4.44754L2.05073 3.89185L1.33712 3.85387L0.849382 3.82788H0.83539C0.655488 3.82788 0.507569 3.96581 0.497574 4.14371C0.487579 4.32961 0.627503 4.48752 0.813402 4.49951L1.39908 4.5315L2.1107 4.57148L6.19847 4.79935L8.04546 4.9013L11.9793 5.11918L12.6809 5.15716L13.3446 5.19514C13.3526 5.19713 13.3586 5.19713 13.3666 5.19713C13.5425 5.19713 13.6904 5.05721 13.7004 4.87931C13.7124 4.69341 13.5704 4.5355 13.3846 4.5255L13.3885 4.5215Z" fill="#250A20"/>
<path d="M2.22083 5.69089L1.5392 5.65291L1.51122 5.65091L1.01349 5.62293C0.827592 5.61293 0.671677 5.75685 0.659683 5.93876C0.649689 6.12465 0.789613 6.28257 0.975511 6.29456L1.57319 6.32854L2.2828 6.36652L8.04966 6.68635L11.8196 6.89623L12.5212 6.93421L13.1969 6.97219H13.2128C13.3907 6.97219 13.5407 6.83227 13.5487 6.65437C13.5547 6.56441 13.5247 6.47846 13.4627 6.4105C13.4047 6.34453 13.3208 6.30456 13.2328 6.30056L12.5852 6.26458L11.8836 6.2246L2.22283 5.68889L2.22083 5.69089Z" fill="#250A20"/>
<path d="M8.08568 7.80373L2.38879 7.4899L1.67918 7.45192L1.47729 7.44192L1.17545 7.42393C0.989551 7.40994 0.829638 7.55586 0.821643 7.74176C0.817645 7.83171 0.847628 7.91567 0.907596 7.98363C0.967563 8.05159 1.04952 8.09157 1.13947 8.09557L1.74514 8.12755L2.45275 8.16553L8.0497 8.47536L11.6537 8.67525L12.3534 8.71323L13.035 8.75121C13.041 8.75121 13.049 8.75121 13.053 8.75121C13.2309 8.75121 13.3808 8.61329 13.3888 8.43338C13.3988 8.24948 13.2569 8.08957 13.071 8.07958L12.4153 8.0416L11.7137 8.00362L8.08568 7.80173V7.80373Z" fill="#250A20"/>
<path d="M2.55633 9.28693L1.84871 9.24895L1.33299 9.21896H1.317C1.1391 9.21896 0.991179 9.35889 0.981185 9.53679C0.975188 9.62674 1.00717 9.7127 1.06514 9.77866C1.12511 9.84662 1.20706 9.8866 1.29701 9.8886L1.91068 9.92458L2.61629 9.96256L11.4835 10.4523L12.1831 10.4903L12.8787 10.5283H12.8947C13.0726 10.5283 13.2205 10.3883 13.2285 10.2104C13.2345 10.1205 13.2025 10.0345 13.1446 9.96656C13.0846 9.90059 13.0026 9.86061 12.9127 9.85662L12.245 9.82064L11.5454 9.78266L2.55433 9.28493L2.55633 9.28693Z" fill="#250A20"/>
<path d="M2.72439 11.084L2.02077 11.046L1.49905 11.016C1.31315 11.006 1.15524 11.1499 1.14525 11.3318C1.13925 11.4218 1.17123 11.5077 1.2312 11.5757C1.28917 11.6417 1.37312 11.6816 1.46107 11.6856L2.08473 11.7196L2.78835 11.7596L11.3197 12.2293L12.0153 12.2673L12.7169 12.3053C12.7249 12.3073 12.7309 12.3073 12.7369 12.3073C12.9148 12.3073 13.0628 12.1674 13.0727 11.9895C13.0827 11.8056 12.9408 11.6476 12.7549 11.6357L12.0773 11.5977L11.3817 11.5597L2.72439 11.082V11.084Z" fill="#250A20"/>
<path d="M8.08548 13.1688L6.23849 13.0649L2.89031 12.881L2.1887 12.843L1.65299 12.813C1.46909 12.803 1.31118 12.9449 1.29918 13.1308C1.29518 13.2208 1.32517 13.3067 1.38513 13.3727C1.4451 13.4407 1.52706 13.4786 1.61701 13.4846L2.25066 13.5186L2.95228 13.5566L6.20051 13.7345L8.04551 13.8384L11.1498 14.0103L11.8434 14.0483L12.559 14.0883H12.575C12.7529 14.0883 12.9009 13.9484 12.9089 13.7705C12.9189 13.5866 12.7769 13.4287 12.591 13.4167L11.9034 13.3787L11.2098 13.3407L8.08149 13.1668L8.08548 13.1688Z" fill="#250A20"/>
<path d="M8.08578 14.9598L6.23879 14.8559L3.06052 14.68L2.3589 14.642L1.8152 14.612H1.8012C1.6213 14.612 1.47338 14.75 1.46339 14.9299C1.45339 15.1138 1.59532 15.2717 1.78121 15.2837L2.42286 15.3196L3.12248 15.3576L6.2048 15.5275L8.0498 15.6295L10.9862 15.7914L11.6778 15.8294L12.3994 15.8693C12.4054 15.8693 12.4134 15.8713 12.4174 15.8713C12.5953 15.8713 12.7432 15.7314 12.7532 15.5535C12.7572 15.4636 12.7273 15.3796 12.6673 15.3116C12.6073 15.2457 12.5254 15.2057 12.4354 15.2017L11.7398 15.1637L11.0482 15.1258L8.08578 14.9638V14.9598Z" fill="#250A20"/>
<path d="M8.08505 16.7468L6.23805 16.6429L3.22569 16.477L2.52807 16.439L1.97637 16.407C1.79247 16.399 1.63456 16.541 1.62257 16.7229C1.61257 16.9088 1.7545 17.0667 1.94039 17.0787L2.59204 17.1146L3.28966 17.1526L6.20207 17.3145L8.04707 17.4165L10.8176 17.5704L11.5072 17.6084L12.2408 17.6484L12.2568 17.6504C12.4347 17.6504 12.5826 17.5104 12.5906 17.3325C12.5966 17.2426 12.5666 17.1566 12.5066 17.0907C12.4447 17.0247 12.3647 16.9847 12.2748 16.9807L11.5691 16.9407L10.8795 16.9028L8.08305 16.7488L8.08505 16.7468Z" fill="#250A20"/>
<path d="M8.75324 18.5739C8.68527 18.7518 8.54135 18.9656 8.31348 19.2215L10.6542 19.3514L11.3418 19.3894L12.0854 19.4314H12.1014C12.2793 19.4314 12.4272 19.2915 12.4372 19.1136C12.4432 19.0236 12.4112 18.9377 12.3513 18.8717C12.2913 18.8037 12.2094 18.7637 12.1194 18.7598L11.4058 18.7198L10.7182 18.6818L8.75524 18.5739H8.75324Z" fill="#250A20"/>
<path d="M5.80044 19.0816C6.11427 18.8437 6.4241 18.6358 6.72194 18.4619L6.2402 18.4359L3.39575 18.278L2.70013 18.24L2.14044 18.2101C1.95454 18.2001 1.79662 18.342 1.78663 18.5259C1.77664 18.7098 1.91856 18.8697 2.10446 18.8817L2.7641 18.9177L3.45972 18.9557L5.80044 19.0856V19.0816Z" fill="#250A20"/>
<path d="M4.05568 20.7727C4.2116 20.5648 4.3935 20.3489 4.60538 20.131L3.56395 20.073L2.86833 20.0351L2.29664 20.0031H2.28265C2.10475 20.0031 1.95483 20.143 1.94483 20.3209C1.93484 20.5068 2.07676 20.6647 2.26266 20.6747L2.93429 20.7127L3.62792 20.7507L4.05568 20.7747V20.7727Z" fill="#250A20"/>
<path d="M7.22797 20.2769C7.06806 20.4168 6.91014 20.5488 6.76022 20.6747C6.66628 20.7547 6.57433 20.8326 6.48438 20.9086L10.4882 21.1305L11.1738 21.1684L11.9234 21.2104C11.9294 21.2104 11.9374 21.2104 11.9454 21.2104C12.1233 21.2104 12.2692 21.0725 12.2812 20.8926C12.2912 20.7087 12.1473 20.5508 11.9634 20.5368L11.2378 20.4988L10.5502 20.4608L7.22797 20.2769Z" fill="#250A20"/>
<path d="M3.09826 22.5097H3.10026L3.10426 22.5117L3.21819 22.5177C3.26017 22.3158 3.32813 22.0919 3.42608 21.8561L3.04029 21.8341L2.46061 21.8021C2.27271 21.7921 2.11879 21.936 2.1068 22.1199C2.1028 22.2099 2.13278 22.2958 2.19275 22.3618C2.25272 22.4298 2.33467 22.4697 2.42463 22.4737L3.09826 22.5117V22.5097Z" fill="#250A20"/>
<path d="M5.44933 21.966C5.3094 22.1659 5.19147 22.3798 5.10352 22.6196L10.3227 22.9095L11.0083 22.9475L11.7719 22.9894H11.7859C11.9638 22.9894 12.1117 22.8515 12.1217 22.6716C12.1277 22.5817 12.0957 22.4957 12.0357 22.4298C11.9778 22.3638 11.8938 22.3218 11.8059 22.3178L11.0703 22.2778L10.3866 22.2399L5.45133 21.968L5.44933 21.966Z" fill="#250A20"/>
<path d="M4.79123 23.7191C4.6673 24.0369 4.49339 24.2807 4.22754 24.3607L8.04746 24.5726L9.41471 24.6485C9.78251 24.3187 10.0104 24.2708 10.1623 24.2728C10.3762 24.2728 10.5581 24.3867 10.656 24.5826C10.678 24.6286 10.7 24.6745 10.718 24.7205L10.8319 24.7265L11.6015 24.7685C11.6075 24.7705 11.6155 24.7705 11.6215 24.7705C11.7994 24.7705 11.9473 24.6306 11.9573 24.4527C11.9673 24.2668 11.8254 24.1088 11.6395 24.0988L10.8959 24.0569L10.2143 24.0189L4.78723 23.7191H4.79123Z" fill="#250A20"/>
<path d="M3.20035 23.6991C3.20035 23.6991 3.19036 23.6451 3.18636 23.6291H3.18436C3.18436 23.6311 3.18436 23.6351 3.18636 23.6371L3.18436 23.6291L2.62467 23.5971C2.43877 23.5891 2.28086 23.731 2.27086 23.9149C2.26686 24.0029 2.29685 24.0889 2.35681 24.1568C2.41678 24.2228 2.49874 24.2648 2.58869 24.2688L3.27831 24.3067L3.77004 24.3327C3.45622 24.2028 3.27431 23.863 3.20235 23.6991H3.20035Z" fill="#250A20"/>
<path d="M8.10988 26.3676C8.13986 26.3116 8.17584 26.2517 8.21382 26.1917C8.39772 25.9039 8.4357 25.8139 8.49567 25.716L4.07008 25.4701L3.38246 25.4321L2.71482 25.3941H2.70083C2.52292 25.3941 2.37301 25.5321 2.36501 25.71C2.35901 25.7999 2.389 25.8879 2.44897 25.9538C2.50893 26.0198 2.59089 26.0598 2.68084 26.0638L3.44842 26.1057L4.13405 26.1437L8.11188 26.3656L8.10988 26.3676Z" fill="#250A20"/>
<path d="M11.4161 25.8779L10.7645 25.8399C10.7125 26.0398 10.6325 26.2577 10.5166 26.4995L10.6665 26.5075L11.3801 26.5475H11.3961C11.574 26.5475 11.7219 26.4096 11.7319 26.2297C11.7379 26.1397 11.708 26.0538 11.648 25.9878C11.588 25.9219 11.5061 25.8819 11.4161 25.8779Z" fill="#250A20"/>
<path d="M7.16754 28.1047C7.51335 27.8948 7.64128 27.6969 7.72124 27.463L4.23714 27.2711L3.54951 27.2331L2.87188 27.1952C2.68398 27.1852 2.52807 27.3291 2.51808 27.513C2.50808 27.6989 2.65 27.8548 2.8339 27.8668L3.61148 27.9088L4.29711 27.9468L7.16554 28.1047H7.16754Z" fill="#250A20"/>
<path d="M9.71236 27.8048C9.60242 27.9547 9.49847 28.0947 9.39453 28.2266L9.8203 28.2486L10.4979 28.2866L11.2175 28.3265C11.2235 28.3265 11.2315 28.3265 11.2375 28.3265C11.4154 28.3265 11.5633 28.1886 11.5713 28.0087C11.5773 27.9188 11.5474 27.8328 11.4854 27.7668C11.4254 27.6989 11.3435 27.6589 11.2535 27.6529L10.5599 27.6149L9.88227 27.577L9.87027 27.575C9.8183 27.6489 9.76633 27.7249 9.71036 27.8008L9.71236 27.8048Z" fill="#250A20"/>
<path d="M9.71681 29.362L8.46349 29.292C8.16165 29.5879 7.9018 29.7858 7.66992 29.9217L9.65484 30.0316L9.82075 30.0416L10.3305 30.0696L10.4984 30.0796L11.216 30.1196C11.222 30.1196 11.23 30.1216 11.234 30.1216C11.4119 30.1216 11.5598 29.9797 11.5698 29.8037C11.5738 29.7138 11.5438 29.6278 11.4838 29.5619C11.4239 29.4959 11.3419 29.4559 11.252 29.4519L10.5603 29.414L10.3904 29.404L9.88072 29.376L9.71481 29.366L9.71681 29.362Z" fill="#250A20"/>
<path d="M4.46697 29.7478L5.36648 29.7978C5.33649 29.7398 5.3205 29.6898 5.31451 29.6518C5.28052 29.4739 5.3305 29.304 5.47242 29.1321L4.405 29.0721L4.23509 29.0641L3.72137 29.0342L3.55147 29.0262L2.87184 28.9882C2.68594 28.9782 2.53002 29.1221 2.52003 29.306C2.51003 29.4919 2.65196 29.6498 2.83586 29.6598L3.61343 29.7038L3.77534 29.7138L4.29706 29.7418L4.46297 29.7518L4.46697 29.7478Z" fill="#250A20"/>
<path d="M4.61301 31.5348L4.65899 31.5368L6.13419 31.6188L6.51998 31.6408H6.53996C6.71787 31.6408 6.86579 31.5008 6.87578 31.3229C6.88578 31.137 6.74185 30.9791 6.55795 30.9691L4.56504 30.8592L4.54905 30.8572L4.41912 30.8512L3.8974 30.8212L3.86742 30.8192L3.73749 30.8132L2.87796 30.7652C2.69206 30.7552 2.53415 30.8992 2.52415 31.0831C2.51816 31.173 2.55014 31.257 2.61011 31.3249C2.67007 31.3909 2.75203 31.4329 2.84198 31.4349L3.79346 31.4888L3.94138 31.4968L3.96137 31.4988L3.97536 31.5008L4.48508 31.5268L4.61901 31.5348H4.61301Z" fill="#250A20"/>
<path d="M2.8838 2.83444C4.00519 2.98635 5.49238 3.06831 7.06752 3.06831C8.64666 3.06831 10.1318 2.98635 11.2532 2.83444C11.609 2.78846 11.9249 2.73649 12.1967 2.67452C12.4886 2.60856 12.7304 2.5306 12.9123 2.43266C13.1622 2.29873 13.3001 2.12682 13.3001 1.89495C13.3001 1.34125 12.5185 1.12537 11.2532 0.955461C10.1338 0.805542 8.64666 0.721588 7.06752 0.721588C5.49238 0.721588 4.00519 0.803543 2.8838 0.955461C1.62049 1.12537 0.836914 1.34125 0.836914 1.89495C0.836914 2.12882 0.978837 2.30273 1.2347 2.43865C1.42259 2.5366 1.67046 2.61656 1.9723 2.68252C2.23815 2.74049 2.54398 2.79046 2.8838 2.83644V2.83444ZM1.64447 1.86497C1.64447 1.59911 2.3261 1.49517 3.4295 1.41321C4.40897 1.33925 5.70626 1.29927 7.08151 1.29927C8.45876 1.29927 9.75605 1.33925 10.7355 1.41321C11.8369 1.49517 12.5205 1.59911 12.5205 1.86497C12.5205 1.9769 12.4006 2.05886 12.1827 2.12282C12.0228 2.1708 11.8129 2.20878 11.5571 2.24076C11.3192 2.27074 11.0454 2.29473 10.7355 2.31872C9.75605 2.39068 8.45876 2.43066 7.08151 2.43066C5.70626 2.43066 4.40897 2.39068 3.4295 2.31872C3.13166 2.29673 2.86581 2.27274 2.63393 2.24476C2.37008 2.21278 2.1542 2.1748 1.99029 2.12682C1.76641 2.06286 1.64447 1.9789 1.64447 1.86497Z" fill="#250A20"/>
<path d="M6.90599 2.12882C8.31322 2.12882 9.4546 2.01288 9.4546 1.86896C9.4546 1.72504 8.31322 1.6091 6.90599 1.6091C5.49875 1.6091 4.35938 1.72504 4.35938 1.86896C4.35938 2.01288 5.49875 2.12882 6.90599 2.12882Z" fill="#250A20"/>
</svg>
