<svg width="21" height="29" viewBox="0 0 21 29" fill="none" xmlns="http://www.w3.org/2000/svg">
<path d="M4.2873 4.95963L5.19782 20.2603M0.961931 2.54478L1.87245 28.6529M20.5875 2.54478L19.677 28.6529M16.6981 4.95963L15.7875 20.2603M0.813477 7.3151C0.813477 7.3151 1.3776 8.20582 2.73348 7.76046M1.0708 12.6001C1.0708 12.6001 1.63492 13.4908 2.9908 13.0454M1.19946 17.499C1.19946 17.499 1.76358 18.3898 3.11946 17.9444M18.717 5.88994C18.717 5.88994 20.2906 5.95922 20.8845 4.732M18.529 10.4029C18.529 10.4029 20.1026 10.4722 20.6964 9.245M18.3409 15.2326C18.3409 15.2326 19.9146 15.3019 20.5084 14.0747M18.2222 20.0623C18.2222 20.0623 19.7958 20.1316 20.3896 18.9044M12.2642 23.9716C12.2642 23.9716 10.7995 21.3588 8.30546 23.2096M12.2642 26.1391C12.2642 26.1391 10.7995 23.5263 8.30546 25.377M12.2642 28.3065C12.2642 28.3065 10.7995 25.6937 8.30546 27.5444M3.34709 3.50478C1.86255 3.16828 0.961931 2.73282 0.961931 2.25776C0.961931 1.19879 5.36607 0.347656 10.7896 0.347656C16.2131 0.347656 20.6172 1.19879 20.6172 2.25776C20.6172 2.76251 19.6177 3.21777 17.9847 3.55426" stroke="#250A20" stroke-width="1.2" stroke-miterlimit="10" stroke-linecap="round"/>
</svg>
