<svg width="21" height="21" viewBox="0 0 21 21" fill="none" xmlns="http://www.w3.org/2000/svg">
<path d="M10.8127 5.22656C10.977 5.22656 11.1345 5.29181 11.2506 5.40795C11.3668 5.52409 11.432 5.68161 11.432 5.84585V9.56159H15.1477C15.312 9.56159 15.4695 9.62683 15.5856 9.74297C15.7018 9.85911 15.767 10.0166 15.767 10.1809C15.767 10.3451 15.7018 10.5026 15.5856 10.6188C15.4695 10.7349 15.312 10.8002 15.1477 10.8002H11.432V14.5159C11.432 14.6801 11.3668 14.8377 11.2506 14.9538C11.1345 15.0699 10.977 15.1352 10.8127 15.1352C10.6485 15.1352 10.4909 15.0699 10.3748 14.9538C10.2587 14.8377 10.1934 14.6801 10.1934 14.5159V10.8002H6.47769C6.31344 10.8002 6.15592 10.7349 6.03978 10.6188C5.92364 10.5026 5.8584 10.3451 5.8584 10.1809C5.8584 10.0166 5.92364 9.85911 6.03978 9.74297C6.15592 9.62683 6.31344 9.56159 6.47769 9.56159H10.1934V5.84585C10.1934 5.68161 10.2587 5.52409 10.3748 5.40795C10.4909 5.29181 10.6485 5.22656 10.8127 5.22656V5.22656Z" fill="#363330"/>
</svg>
