<svg width="21" height="21" viewBox="0 0 21 21" fill="none" xmlns="http://www.w3.org/2000/svg">
<path d="M10.4397 5.47168C10.6039 5.47168 10.7614 5.53693 10.8776 5.65307C10.9937 5.7692 11.059 5.92672 11.059 6.09097V9.80671H14.7747C14.9389 9.80671 15.0965 9.87195 15.2126 9.98809C15.3287 10.1042 15.394 10.2617 15.394 10.426C15.394 10.5902 15.3287 10.7478 15.2126 10.8639C15.0965 10.98 14.9389 11.0453 14.7747 11.0453H11.059V14.761C11.059 14.9253 10.9937 15.0828 10.8776 15.1989C10.7614 15.3151 10.6039 15.3803 10.4397 15.3803C10.2754 15.3803 10.1179 15.3151 10.0018 15.1989C9.88562 15.0828 9.82038 14.9253 9.82038 14.761V11.0453H6.10464C5.9404 11.0453 5.78288 10.98 5.66674 10.8639C5.5506 10.7478 5.48535 10.5902 5.48535 10.426C5.48535 10.2617 5.5506 10.1042 5.66674 9.98809C5.78288 9.87195 5.9404 9.80671 6.10464 9.80671H9.82038V6.09097C9.82038 5.92672 9.88562 5.7692 10.0018 5.65307C10.1179 5.53693 10.2754 5.47168 10.4397 5.47168Z" fill="#363330"/>
</svg>
