<svg width="21" height="21" viewBox="0 0 21 21" fill="none" xmlns="http://www.w3.org/2000/svg">
<path d="M10.4397 5.27051C10.6039 5.27051 10.7614 5.33575 10.8776 5.45189C10.9937 5.56803 11.059 5.72555 11.059 5.8898V9.60553H14.7747C14.9389 9.60553 15.0965 9.67078 15.2126 9.78692C15.3287 9.90306 15.394 10.0606 15.394 10.2248C15.394 10.3891 15.3287 10.5466 15.2126 10.6627C15.0965 10.7789 14.9389 10.8441 14.7747 10.8441H11.059V14.5598C11.059 14.7241 10.9937 14.8816 10.8776 14.9978C10.7614 15.1139 10.6039 15.1791 10.4397 15.1791C10.2754 15.1791 10.1179 15.1139 10.0018 14.9978C9.88562 14.8816 9.82038 14.7241 9.82038 14.5598V10.8441H6.10464C5.9404 10.8441 5.78288 10.7789 5.66674 10.6627C5.5506 10.5466 5.48535 10.3891 5.48535 10.2248C5.48535 10.0606 5.5506 9.90306 5.66674 9.78692C5.78288 9.67078 5.9404 9.60553 6.10464 9.60553H9.82038V5.8898C9.82038 5.72555 9.88562 5.56803 10.0018 5.45189C10.1179 5.33575 10.2754 5.27051 10.4397 5.27051Z" fill="#363330"/>
</svg>
