<svg width="21" height="21" viewBox="0 0 21 21" fill="none" xmlns="http://www.w3.org/2000/svg">
<path d="M10.6936 5.47168C10.8578 5.47168 11.0153 5.53693 11.1315 5.65307C11.2476 5.7692 11.3129 5.92672 11.3129 6.09097V9.80671H15.0286C15.1928 9.80671 15.3504 9.87195 15.4665 9.98809C15.5826 10.1042 15.6479 10.2617 15.6479 10.426C15.6479 10.5902 15.5826 10.7478 15.4665 10.8639C15.3504 10.98 15.1928 11.0453 15.0286 11.0453H11.3129V14.761C11.3129 14.9253 11.2476 15.0828 11.1315 15.1989C11.0153 15.3151 10.8578 15.3803 10.6936 15.3803C10.5293 15.3803 10.3718 15.3151 10.2557 15.1989C10.1395 15.0828 10.0743 14.9253 10.0743 14.761V11.0453H6.35855C6.1943 11.0453 6.03678 10.98 5.92064 10.8639C5.8045 10.7478 5.73926 10.5902 5.73926 10.426C5.73926 10.2617 5.8045 10.1042 5.92064 9.98809C6.03678 9.87195 6.1943 9.80671 6.35855 9.80671H10.0743V6.09097C10.0743 5.92672 10.1395 5.7692 10.2557 5.65307C10.3718 5.53693 10.5293 5.47168 10.6936 5.47168Z" fill="#363330"/>
</svg>
