<svg width="21" height="21" viewBox="0 0 21 21" fill="none" xmlns="http://www.w3.org/2000/svg">
<path d="M10.8127 5.27051C10.977 5.27051 11.1345 5.33575 11.2506 5.45189C11.3668 5.56803 11.432 5.72555 11.432 5.8898V9.60553H15.1477C15.312 9.60553 15.4695 9.67078 15.5856 9.78692C15.7018 9.90306 15.767 10.0606 15.767 10.2248C15.767 10.3891 15.7018 10.5466 15.5856 10.6627C15.4695 10.7789 15.312 10.8441 15.1477 10.8441H11.432V14.5598C11.432 14.7241 11.3668 14.8816 11.2506 14.9978C11.1345 15.1139 10.977 15.1791 10.8127 15.1791C10.6485 15.1791 10.4909 15.1139 10.3748 14.9978C10.2587 14.8816 10.1934 14.7241 10.1934 14.5598V10.8441H6.47769C6.31344 10.8441 6.15592 10.7789 6.03978 10.6627C5.92364 10.5466 5.8584 10.3891 5.8584 10.2248C5.8584 10.0606 5.92364 9.90306 6.03978 9.78692C6.15592 9.67078 6.31344 9.60553 6.47769 9.60553H10.1934V5.8898C10.1934 5.72555 10.2587 5.56803 10.3748 5.45189C10.4909 5.33575 10.6485 5.27051 10.8127 5.27051Z" fill="#363330"/>
</svg>
