<svg width="21" height="21" viewBox="0 0 21 21" fill="none" xmlns="http://www.w3.org/2000/svg">
<path d="M10.6565 5.42773C10.8207 5.42773 10.9782 5.49298 11.0944 5.60912C11.2105 5.72526 11.2758 5.88278 11.2758 6.04702V9.76276H14.9915C15.1557 9.76276 15.3133 9.82801 15.4294 9.94415C15.5455 10.0603 15.6108 10.2178 15.6108 10.382C15.6108 10.5463 15.5455 10.7038 15.4294 10.82C15.3133 10.9361 15.1557 11.0013 14.9915 11.0013H11.2758V14.7171C11.2758 14.8813 11.2105 15.0388 11.0944 15.155C10.9782 15.2711 10.8207 15.3364 10.6565 15.3364C10.4922 15.3364 10.3347 15.2711 10.2186 15.155C10.1024 15.0388 10.0372 14.8813 10.0372 14.7171V11.0013H6.32144C6.15719 11.0013 5.99967 10.9361 5.88353 10.82C5.76739 10.7038 5.70215 10.5463 5.70215 10.382C5.70215 10.2178 5.76739 10.0603 5.88353 9.94415C5.99967 9.82801 6.15719 9.76276 6.32144 9.76276H10.0372V6.04702C10.0372 5.88278 10.1024 5.72526 10.2186 5.60912C10.3347 5.49298 10.4922 5.42773 10.6565 5.42773Z" fill="#363330"/>
</svg>
