<svg width="21" height="21" viewBox="0 0 21 21" fill="none" xmlns="http://www.w3.org/2000/svg">
<path d="M10.1858 5.42773C10.35 5.42773 10.5075 5.49298 10.6237 5.60912C10.7398 5.72526 10.805 5.88278 10.805 6.04702V9.76276H14.5208C14.685 9.76276 14.8426 9.82801 14.9587 9.94415C15.0748 10.0603 15.1401 10.2178 15.1401 10.382C15.1401 10.5463 15.0748 10.7038 14.9587 10.82C14.8426 10.9361 14.685 11.0013 14.5208 11.0013H10.805V14.7171C10.805 14.8813 10.7398 15.0388 10.6237 15.155C10.5075 15.2711 10.35 15.3364 10.1858 15.3364C10.0215 15.3364 9.864 15.2711 9.74786 15.155C9.63172 15.0388 9.56647 14.8813 9.56647 14.7171V11.0013H5.85073C5.68649 11.0013 5.52897 10.9361 5.41283 10.82C5.29669 10.7038 5.23145 10.5463 5.23145 10.382C5.23145 10.2178 5.29669 10.0603 5.41283 9.94415C5.52897 9.82801 5.68649 9.76276 5.85073 9.76276H9.56647V6.04702C9.56647 5.88278 9.63172 5.72526 9.74786 5.60912C9.864 5.49298 10.0215 5.42773 10.1858 5.42773Z" fill="#363330"/>
</svg>
