<svg width="21" height="21" viewBox="0 0 21 21" fill="none" xmlns="http://www.w3.org/2000/svg">
<path d="M10.1858 5.22656C10.35 5.22656 10.5075 5.29181 10.6237 5.40795C10.7398 5.52409 10.805 5.68161 10.805 5.84585V9.56159H14.5208C14.685 9.56159 14.8426 9.62683 14.9587 9.74297C15.0748 9.85911 15.1401 10.0166 15.1401 10.1809C15.1401 10.3451 15.0748 10.5026 14.9587 10.6188C14.8426 10.7349 14.685 10.8002 14.5208 10.8002H10.805V14.5159C10.805 14.6801 10.7398 14.8377 10.6237 14.9538C10.5075 15.0699 10.35 15.1352 10.1858 15.1352C10.0215 15.1352 9.864 15.0699 9.74786 14.9538C9.63172 14.8377 9.56647 14.6801 9.56647 14.5159V10.8002H5.85073C5.68649 10.8002 5.52897 10.7349 5.41283 10.6188C5.29669 10.5026 5.23145 10.3451 5.23145 10.1809C5.23145 10.0166 5.29669 9.85911 5.41283 9.74297C5.52897 9.62683 5.68649 9.56159 5.85073 9.56159H9.56647V5.84585C9.56647 5.68161 9.63172 5.52409 9.74786 5.40795C9.864 5.29181 10.0215 5.22656 10.1858 5.22656V5.22656Z" fill="#363330"/>
</svg>
