<svg width="21" height="21" viewBox="0 0 21 21" fill="none" xmlns="http://www.w3.org/2000/svg">
<path d="M10.3205 5.27051C10.4848 5.27051 10.6423 5.33575 10.7584 5.45189C10.8746 5.56803 10.9398 5.72555 10.9398 5.8898V9.60553H14.6556C14.8198 9.60553 14.9773 9.67078 15.0935 9.78692C15.2096 9.90306 15.2748 10.0606 15.2748 10.2248C15.2748 10.3891 15.2096 10.5466 15.0935 10.6627C14.9773 10.7789 14.8198 10.8441 14.6556 10.8441H10.9398V14.5598C10.9398 14.7241 10.8746 14.8816 10.7584 14.9978C10.6423 15.1139 10.4848 15.1791 10.3205 15.1791C10.1563 15.1791 9.99876 15.1139 9.88262 14.9978C9.76648 14.8816 9.70124 14.7241 9.70124 14.5598V10.8441H5.9855C5.82125 10.8441 5.66374 10.7789 5.5476 10.6627C5.43146 10.5466 5.36621 10.3891 5.36621 10.2248C5.36621 10.0606 5.43146 9.90306 5.5476 9.78692C5.66374 9.67078 5.82125 9.60553 5.9855 9.60553H9.70124V5.8898C9.70124 5.72555 9.76648 5.56803 9.88262 5.45189C9.99876 5.33575 10.1563 5.27051 10.3205 5.27051Z" fill="#363330"/>
</svg>
