<svg width="21" height="21" viewBox="0 0 21 21" fill="none" xmlns="http://www.w3.org/2000/svg">
<path d="M10.8127 5.42773C10.977 5.42773 11.1345 5.49298 11.2506 5.60912C11.3668 5.72526 11.432 5.88278 11.432 6.04702V9.76276H15.1477C15.312 9.76276 15.4695 9.82801 15.5856 9.94415C15.7018 10.0603 15.767 10.2178 15.767 10.382C15.767 10.5463 15.7018 10.7038 15.5856 10.82C15.4695 10.9361 15.312 11.0013 15.1477 11.0013H11.432V14.7171C11.432 14.8813 11.3668 15.0388 11.2506 15.155C11.1345 15.2711 10.977 15.3364 10.8127 15.3364C10.6485 15.3364 10.4909 15.2711 10.3748 15.155C10.2587 15.0388 10.1934 14.8813 10.1934 14.7171V11.0013H6.47769C6.31344 11.0013 6.15592 10.9361 6.03978 10.82C5.92364 10.7038 5.8584 10.5463 5.8584 10.382C5.8584 10.2178 5.92364 10.0603 6.03978 9.94415C6.15592 9.82801 6.31344 9.76276 6.47769 9.76276H10.1934V6.04702C10.1934 5.88278 10.2587 5.72526 10.3748 5.60912C10.4909 5.49298 10.6485 5.42773 10.8127 5.42773Z" fill="#363330"/>
</svg>
