<svg width="21" height="21" viewBox="0 0 21 21" fill="none" xmlns="http://www.w3.org/2000/svg">
<path d="M10.6565 5.22656C10.8207 5.22656 10.9782 5.29181 11.0944 5.40795C11.2105 5.52409 11.2758 5.68161 11.2758 5.84585V9.56159H14.9915C15.1557 9.56159 15.3133 9.62683 15.4294 9.74297C15.5455 9.85911 15.6108 10.0166 15.6108 10.1809C15.6108 10.3451 15.5455 10.5026 15.4294 10.6188C15.3133 10.7349 15.1557 10.8002 14.9915 10.8002H11.2758V14.5159C11.2758 14.6801 11.2105 14.8377 11.0944 14.9538C10.9782 15.0699 10.8207 15.1352 10.6565 15.1352C10.4922 15.1352 10.3347 15.0699 10.2186 14.9538C10.1024 14.8377 10.0372 14.6801 10.0372 14.5159V10.8002H6.32144C6.15719 10.8002 5.99967 10.7349 5.88353 10.6188C5.76739 10.5026 5.70215 10.3451 5.70215 10.1809C5.70215 10.0166 5.76739 9.85911 5.88353 9.74297C5.99967 9.62683 6.15719 9.56159 6.32144 9.56159H10.0372V5.84585C10.0372 5.68161 10.1024 5.52409 10.2186 5.40795C10.3347 5.29181 10.4922 5.22656 10.6565 5.22656V5.22656Z" fill="#363330"/>
</svg>
