<svg width="21" height="21" viewBox="0 0 21 21" fill="none" xmlns="http://www.w3.org/2000/svg">
<path d="M10.8127 5.47168C10.977 5.47168 11.1345 5.53693 11.2506 5.65307C11.3668 5.7692 11.432 5.92672 11.432 6.09097V9.80671H15.1477C15.312 9.80671 15.4695 9.87195 15.5856 9.98809C15.7018 10.1042 15.767 10.2617 15.767 10.426C15.767 10.5902 15.7018 10.7478 15.5856 10.8639C15.4695 10.98 15.312 11.0453 15.1477 11.0453H11.432V14.761C11.432 14.9253 11.3668 15.0828 11.2506 15.1989C11.1345 15.3151 10.977 15.3803 10.8127 15.3803C10.6485 15.3803 10.4909 15.3151 10.3748 15.1989C10.2587 15.0828 10.1934 14.9253 10.1934 14.761V11.0453H6.47769C6.31344 11.0453 6.15592 10.98 6.03978 10.8639C5.92364 10.7478 5.8584 10.5902 5.8584 10.426C5.8584 10.2617 5.92364 10.1042 6.03978 9.98809C6.15592 9.87195 6.31344 9.80671 6.47769 9.80671H10.1934V6.09097C10.1934 5.92672 10.2587 5.7692 10.3748 5.65307C10.4909 5.53693 10.6485 5.47168 10.8127 5.47168Z" fill="#363330"/>
</svg>
