<svg width="21" height="21" viewBox="0 0 21 21" fill="none" xmlns="http://www.w3.org/2000/svg">
<path d="M10.8127 5.38379C10.977 5.38379 11.1345 5.44904 11.2506 5.56517C11.3668 5.68131 11.432 5.83883 11.432 6.00308V9.71881H15.1477C15.312 9.71881 15.4695 9.78406 15.5856 9.9002C15.7018 10.0163 15.767 10.1739 15.767 10.3381C15.767 10.5023 15.7018 10.6599 15.5856 10.776C15.4695 10.8921 15.312 10.9574 15.1477 10.9574H11.432V14.6731C11.432 14.8374 11.3668 14.9949 11.2506 15.111C11.1345 15.2272 10.977 15.2924 10.8127 15.2924C10.6485 15.2924 10.4909 15.2272 10.3748 15.111C10.2587 14.9949 10.1934 14.8374 10.1934 14.6731V10.9574H6.47769C6.31344 10.9574 6.15592 10.8921 6.03978 10.776C5.92364 10.6599 5.8584 10.5023 5.8584 10.3381C5.8584 10.1739 5.92364 10.0163 6.03978 9.9002C6.15592 9.78406 6.31344 9.71881 6.47769 9.71881H10.1934V6.00308C10.1934 5.83883 10.2587 5.68131 10.3748 5.56517C10.4909 5.44904 10.6485 5.38379 10.8127 5.38379Z" fill="#363330"/>
</svg>
