<svg width="21" height="21" viewBox="0 0 21 21" fill="none" xmlns="http://www.w3.org/2000/svg">
<path d="M10.3205 5.47168C10.4848 5.47168 10.6423 5.53693 10.7584 5.65307C10.8746 5.7692 10.9398 5.92672 10.9398 6.09097V9.80671H14.6556C14.8198 9.80671 14.9773 9.87195 15.0935 9.98809C15.2096 10.1042 15.2748 10.2617 15.2748 10.426C15.2748 10.5902 15.2096 10.7478 15.0935 10.8639C14.9773 10.98 14.8198 11.0453 14.6556 11.0453H10.9398V14.761C10.9398 14.9253 10.8746 15.0828 10.7584 15.1989C10.6423 15.3151 10.4848 15.3803 10.3205 15.3803C10.1563 15.3803 9.99876 15.3151 9.88262 15.1989C9.76648 15.0828 9.70124 14.9253 9.70124 14.761V11.0453H5.9855C5.82125 11.0453 5.66374 10.98 5.5476 10.8639C5.43146 10.7478 5.36621 10.5902 5.36621 10.426C5.36621 10.2617 5.43146 10.1042 5.5476 9.98809C5.66374 9.87195 5.82125 9.80671 5.9855 9.80671H9.70124V6.09097C9.70124 5.92672 9.76648 5.7692 9.88262 5.65307C9.99876 5.53693 10.1563 5.47168 10.3205 5.47168Z" fill="#363330"/>
</svg>
