<svg width="20" height="21" viewBox="0 0 20 21" fill="none" xmlns="http://www.w3.org/2000/svg">
<path d="M10.0666 5.47168C10.2309 5.47168 10.3884 5.53693 10.5045 5.65307C10.6207 5.7692 10.6859 5.92672 10.6859 6.09097V9.80671H14.4016C14.5659 9.80671 14.7234 9.87195 14.8396 9.98809C14.9557 10.1042 15.0209 10.2617 15.0209 10.426C15.0209 10.5902 14.9557 10.7478 14.8396 10.8639C14.7234 10.98 14.5659 11.0453 14.4016 11.0453H10.6859V14.761C10.6859 14.9253 10.6207 15.0828 10.5045 15.1989C10.3884 15.3151 10.2309 15.3803 10.0666 15.3803C9.90237 15.3803 9.74486 15.3151 9.62872 15.1989C9.51258 15.0828 9.44733 14.9253 9.44733 14.761V11.0453H5.73159C5.56735 11.0453 5.40983 10.98 5.29369 10.8639C5.17755 10.7478 5.1123 10.5902 5.1123 10.426C5.1123 10.2617 5.17755 10.1042 5.29369 9.98809C5.40983 9.87195 5.56735 9.80671 5.73159 9.80671H9.44733V6.09097C9.44733 5.92672 9.51258 5.7692 9.62872 5.65307C9.74486 5.53693 9.90237 5.47168 10.0666 5.47168Z" fill="#363330"/>
</svg>
