<svg width="21" height="21" viewBox="0 0 21 21" fill="none" xmlns="http://www.w3.org/2000/svg">
<path d="M10.343 5.22656C10.5072 5.22656 10.6648 5.29181 10.7809 5.40795C10.897 5.52409 10.9623 5.68161 10.9623 5.84585V9.56159H14.678C14.8423 9.56159 14.9998 9.62683 15.1159 9.74297C15.2321 9.85911 15.2973 10.0166 15.2973 10.1809C15.2973 10.3451 15.2321 10.5026 15.1159 10.6188C14.9998 10.7349 14.8423 10.8002 14.678 10.8002H10.9623V14.5159C10.9623 14.6801 10.897 14.8377 10.7809 14.9538C10.6648 15.0699 10.5072 15.1352 10.343 15.1352C10.1787 15.1352 10.0212 15.0699 9.90508 14.9538C9.78894 14.8377 9.7237 14.6801 9.7237 14.5159V10.8002H6.00796C5.84372 10.8002 5.6862 10.7349 5.57006 10.6188C5.45392 10.5026 5.38867 10.3451 5.38867 10.1809C5.38867 10.0166 5.45392 9.85911 5.57006 9.74297C5.6862 9.62683 5.84372 9.56159 6.00796 9.56159H9.7237V5.84585C9.7237 5.68161 9.78894 5.52409 9.90508 5.40795C10.0212 5.29181 10.1787 5.22656 10.343 5.22656V5.22656Z" fill="#363330"/>
</svg>
