<svg width="21" height="21" viewBox="0 0 21 21" fill="none" xmlns="http://www.w3.org/2000/svg">
<path d="M10.8127 5.58496C10.977 5.58496 11.1345 5.65021 11.2506 5.76635C11.3668 5.88249 11.432 6.04 11.432 6.20425V9.91999H15.1477C15.312 9.91999 15.4695 9.98523 15.5856 10.1014C15.7018 10.2175 15.767 10.375 15.767 10.5393C15.767 10.7035 15.7018 10.861 15.5856 10.9772C15.4695 11.0933 15.312 11.1586 15.1477 11.1586H11.432V14.8743C11.432 15.0385 11.3668 15.1961 11.2506 15.3122C11.1345 15.4283 10.977 15.4936 10.8127 15.4936C10.6485 15.4936 10.4909 15.4283 10.3748 15.3122C10.2587 15.1961 10.1934 15.0385 10.1934 14.8743V11.1586H6.47769C6.31344 11.1586 6.15592 11.0933 6.03978 10.9772C5.92364 10.861 5.8584 10.7035 5.8584 10.5393C5.8584 10.375 5.92364 10.2175 6.03978 10.1014C6.15592 9.98523 6.31344 9.91999 6.47769 9.91999H10.1934V6.20425C10.1934 6.04 10.2587 5.88249 10.3748 5.76635C10.4909 5.65021 10.6485 5.58496 10.8127 5.58496Z" fill="#363330"/>
</svg>
