<svg width="21" height="21" viewBox="0 0 21 21" fill="none" xmlns="http://www.w3.org/2000/svg">
<path d="M10.343 5.42773C10.5072 5.42773 10.6648 5.49298 10.7809 5.60912C10.897 5.72526 10.9623 5.88278 10.9623 6.04702V9.76276H14.678C14.8423 9.76276 14.9998 9.82801 15.1159 9.94415C15.2321 10.0603 15.2973 10.2178 15.2973 10.382C15.2973 10.5463 15.2321 10.7038 15.1159 10.82C14.9998 10.9361 14.8423 11.0013 14.678 11.0013H10.9623V14.7171C10.9623 14.8813 10.897 15.0388 10.7809 15.155C10.6648 15.2711 10.5072 15.3364 10.343 15.3364C10.1787 15.3364 10.0212 15.2711 9.90508 15.155C9.78894 15.0388 9.7237 14.8813 9.7237 14.7171V11.0013H6.00796C5.84372 11.0013 5.6862 10.9361 5.57006 10.82C5.45392 10.7038 5.38867 10.5463 5.38867 10.382C5.38867 10.2178 5.45392 10.0603 5.57006 9.94415C5.6862 9.82801 5.84372 9.76276 6.00796 9.76276H9.7237V6.04702C9.7237 5.88278 9.78894 5.72526 9.90508 5.60912C10.0212 5.49298 10.1787 5.42773 10.343 5.42773Z" fill="#363330"/>
</svg>
