<svg width="21" height="21" viewBox="0 0 21 21" fill="none" xmlns="http://www.w3.org/2000/svg">
<path d="M10.4992 5.22656C10.6635 5.22656 10.821 5.29181 10.9371 5.40795C11.0533 5.52409 11.1185 5.68161 11.1185 5.84585V9.56159H14.8343C14.9985 9.56159 15.156 9.62683 15.2722 9.74297C15.3883 9.85911 15.4536 10.0166 15.4536 10.1809C15.4536 10.3451 15.3883 10.5026 15.2722 10.6188C15.156 10.7349 14.9985 10.8002 14.8343 10.8002H11.1185V14.5159C11.1185 14.6801 11.0533 14.8377 10.9371 14.9538C10.821 15.0699 10.6635 15.1352 10.4992 15.1352C10.335 15.1352 10.1775 15.0699 10.0613 14.9538C9.94519 14.8377 9.87995 14.6801 9.87995 14.5159V10.8002H6.16421C5.99997 10.8002 5.84245 10.7349 5.72631 10.6188C5.61017 10.5026 5.54492 10.3451 5.54492 10.1809C5.54492 10.0166 5.61017 9.85911 5.72631 9.74297C5.84245 9.62683 5.99997 9.56159 6.16421 9.56159H9.87995V5.84585C9.87995 5.68161 9.94519 5.52409 10.0613 5.40795C10.1775 5.29181 10.335 5.22656 10.4992 5.22656V5.22656Z" fill="#363330"/>
</svg>
