<svg width="21" height="21" viewBox="0 0 21 21" fill="none" xmlns="http://www.w3.org/2000/svg">
<path d="M10.4397 5.58496C10.6039 5.58496 10.7614 5.65021 10.8776 5.76635C10.9937 5.88249 11.059 6.04 11.059 6.20425V9.91999H14.7747C14.9389 9.91999 15.0965 9.98523 15.2126 10.1014C15.3287 10.2175 15.394 10.375 15.394 10.5393C15.394 10.7035 15.3287 10.861 15.2126 10.9772C15.0965 11.0933 14.9389 11.1586 14.7747 11.1586H11.059V14.8743C11.059 15.0385 10.9937 15.1961 10.8776 15.3122C10.7614 15.4283 10.6039 15.4936 10.4397 15.4936C10.2754 15.4936 10.1179 15.4283 10.0018 15.3122C9.88562 15.1961 9.82038 15.0385 9.82038 14.8743V11.1586H6.10464C5.9404 11.1586 5.78288 11.0933 5.66674 10.9772C5.5506 10.861 5.48535 10.7035 5.48535 10.5393C5.48535 10.375 5.5506 10.2175 5.66674 10.1014C5.78288 9.98523 5.9404 9.91999 6.10464 9.91999H9.82038V6.20425C9.82038 6.04 9.88562 5.88249 10.0018 5.76635C10.1179 5.65021 10.2754 5.58496 10.4397 5.58496Z" fill="#363330"/>
</svg>
