<svg width="21" height="21" viewBox="0 0 21 21" fill="none" xmlns="http://www.w3.org/2000/svg">
<path d="M10.4397 5.38379C10.6039 5.38379 10.7614 5.44904 10.8776 5.56517C10.9937 5.68131 11.059 5.83883 11.059 6.00308V9.71881H14.7747C14.9389 9.71881 15.0965 9.78406 15.2126 9.9002C15.3287 10.0163 15.394 10.1739 15.394 10.3381C15.394 10.5023 15.3287 10.6599 15.2126 10.776C15.0965 10.8921 14.9389 10.9574 14.7747 10.9574H11.059V14.6731C11.059 14.8374 10.9937 14.9949 10.8776 15.111C10.7614 15.2272 10.6039 15.2924 10.4397 15.2924C10.2754 15.2924 10.1179 15.2272 10.0018 15.111C9.88562 14.9949 9.82038 14.8374 9.82038 14.6731V10.9574H6.10464C5.9404 10.9574 5.78288 10.8921 5.66674 10.776C5.5506 10.6599 5.48535 10.5023 5.48535 10.3381C5.48535 10.1739 5.5506 10.0163 5.66674 9.9002C5.78288 9.78406 5.9404 9.71881 6.10464 9.71881H9.82038V6.00308C9.82038 5.83883 9.88562 5.68131 10.0018 5.56517C10.1179 5.44904 10.2754 5.38379 10.4397 5.38379Z" fill="#363330"/>
</svg>
