<svg width="20" height="21" viewBox="0 0 20 21" fill="none" xmlns="http://www.w3.org/2000/svg">
<path d="M10.0666 5.27051C10.2309 5.27051 10.3884 5.33575 10.5045 5.45189C10.6207 5.56803 10.6859 5.72555 10.6859 5.8898V9.60553H14.4016C14.5659 9.60553 14.7234 9.67078 14.8396 9.78692C14.9557 9.90306 15.0209 10.0606 15.0209 10.2248C15.0209 10.3891 14.9557 10.5466 14.8396 10.6627C14.7234 10.7789 14.5659 10.8441 14.4016 10.8441H10.6859V14.5598C10.6859 14.7241 10.6207 14.8816 10.5045 14.9978C10.3884 15.1139 10.2309 15.1791 10.0666 15.1791C9.90237 15.1791 9.74486 15.1139 9.62872 14.9978C9.51258 14.8816 9.44733 14.7241 9.44733 14.5598V10.8441H5.73159C5.56735 10.8441 5.40983 10.7789 5.29369 10.6627C5.17755 10.5466 5.1123 10.3891 5.1123 10.2248C5.1123 10.0606 5.17755 9.90306 5.29369 9.78692C5.40983 9.67078 5.56735 9.60553 5.73159 9.60553H9.44733V5.8898C9.44733 5.72555 9.51258 5.56803 9.62872 5.45189C9.74486 5.33575 9.90237 5.27051 10.0666 5.27051Z" fill="#363330"/>
</svg>
