<svg width="21" height="21" viewBox="0 0 21 21" fill="none" xmlns="http://www.w3.org/2000/svg">
<path d="M10.4992 5.42773C10.6635 5.42773 10.821 5.49298 10.9371 5.60912C11.0533 5.72526 11.1185 5.88278 11.1185 6.04702V9.76276H14.8343C14.9985 9.76276 15.156 9.82801 15.2722 9.94415C15.3883 10.0603 15.4536 10.2178 15.4536 10.382C15.4536 10.5463 15.3883 10.7038 15.2722 10.82C15.156 10.9361 14.9985 11.0013 14.8343 11.0013H11.1185V14.7171C11.1185 14.8813 11.0533 15.0388 10.9371 15.155C10.821 15.2711 10.6635 15.3364 10.4992 15.3364C10.335 15.3364 10.1775 15.2711 10.0613 15.155C9.94519 15.0388 9.87995 14.8813 9.87995 14.7171V11.0013H6.16421C5.99997 11.0013 5.84245 10.9361 5.72631 10.82C5.61017 10.7038 5.54492 10.5463 5.54492 10.382C5.54492 10.2178 5.61017 10.0603 5.72631 9.94415C5.84245 9.82801 5.99997 9.76276 6.16421 9.76276H9.87995V6.04702C9.87995 5.88278 9.94519 5.72526 10.0613 5.60912C10.1775 5.49298 10.335 5.42773 10.4992 5.42773Z" fill="#363330"/>
</svg>
