<svg width="21" height="21" viewBox="0 0 21 21" fill="none" xmlns="http://www.w3.org/2000/svg">
<path d="M10.6936 5.27051C10.8578 5.27051 11.0153 5.33575 11.1315 5.45189C11.2476 5.56803 11.3129 5.72555 11.3129 5.8898V9.60553H15.0286C15.1928 9.60553 15.3504 9.67078 15.4665 9.78692C15.5826 9.90306 15.6479 10.0606 15.6479 10.2248C15.6479 10.3891 15.5826 10.5466 15.4665 10.6627C15.3504 10.7789 15.1928 10.8441 15.0286 10.8441H11.3129V14.5598C11.3129 14.7241 11.2476 14.8816 11.1315 14.9978C11.0153 15.1139 10.8578 15.1791 10.6936 15.1791C10.5293 15.1791 10.3718 15.1139 10.2557 14.9978C10.1395 14.8816 10.0743 14.7241 10.0743 14.5598V10.8441H6.35855C6.1943 10.8441 6.03678 10.7789 5.92064 10.6627C5.8045 10.5466 5.73926 10.3891 5.73926 10.2248C5.73926 10.0606 5.8045 9.90306 5.92064 9.78692C6.03678 9.67078 6.1943 9.60553 6.35855 9.60553H10.0743V5.8898C10.0743 5.72555 10.1395 5.56803 10.2557 5.45189C10.3718 5.33575 10.5293 5.27051 10.6936 5.27051Z" fill="#363330"/>
</svg>
