<svg width="32" height="33" viewBox="0 0 32 33" fill="none" xmlns="http://www.w3.org/2000/svg">
<path d="M32 16.9756C32 16.9756 26 5.97559 16 5.97559C6 5.97559 0 16.9756 0 16.9756C0 16.9756 6 27.9756 16 27.9756C26 27.9756 32 16.9756 32 16.9756ZM2.346 16.9756C3.31303 15.5058 4.42528 14.137 5.666 12.8896C8.24 10.3116 11.76 7.97559 16 7.97559C20.24 7.97559 23.758 10.3116 26.336 12.8896C27.5767 14.137 28.689 15.5058 29.656 16.9756C29.54 17.1496 29.412 17.3416 29.266 17.5516C28.596 18.5116 27.606 19.7916 26.336 21.0616C23.758 23.6396 20.238 25.9756 16 25.9756C11.76 25.9756 8.242 23.6396 5.664 21.0616C4.42329 19.8142 3.31104 18.4453 2.344 16.9756H2.346Z" fill="white"/>
<path d="M16 11.9756C14.6739 11.9756 13.4021 12.5024 12.4645 13.4401C11.5268 14.3777 11 15.6495 11 16.9756C11 18.3017 11.5268 19.5734 12.4645 20.5111C13.4021 21.4488 14.6739 21.9756 16 21.9756C17.3261 21.9756 18.5979 21.4488 19.5355 20.5111C20.4732 19.5734 21 18.3017 21 16.9756C21 15.6495 20.4732 14.3777 19.5355 13.4401C18.5979 12.5024 17.3261 11.9756 16 11.9756ZM9 16.9756C9 15.1191 9.7375 13.3386 11.0503 12.0258C12.363 10.7131 14.1435 9.97559 16 9.97559C17.8565 9.97559 19.637 10.7131 20.9497 12.0258C22.2625 13.3386 23 15.1191 23 16.9756C23 18.8321 22.2625 20.6126 20.9497 21.9253C19.637 23.2381 17.8565 23.9756 16 23.9756C14.1435 23.9756 12.363 23.2381 11.0503 21.9253C9.7375 20.6126 9 18.8321 9 16.9756Z" fill="white"/>
</svg>
