<svg width="32" height="33" viewBox="0 0 32 33" fill="none" xmlns="http://www.w3.org/2000/svg">
<path d="M32 16.1523C32 16.1523 26 5.15234 16 5.15234C6 5.15234 0 16.1523 0 16.1523C0 16.1523 6 27.1523 16 27.1523C26 27.1523 32 16.1523 32 16.1523ZM2.346 16.1523C3.31303 14.6826 4.42528 13.3137 5.666 12.0663C8.24 9.48834 11.76 7.15234 16 7.15234C20.24 7.15234 23.758 9.48834 26.336 12.0663C27.5767 13.3137 28.689 14.6826 29.656 16.1523C29.54 16.3263 29.412 16.5183 29.266 16.7283C28.596 17.6883 27.606 18.9683 26.336 20.2383C23.758 22.8163 20.238 25.1523 16 25.1523C11.76 25.1523 8.242 22.8163 5.664 20.2383C4.42329 18.991 3.31104 17.6221 2.344 16.1523H2.346Z" fill="white"/>
<path d="M16 11.1523C14.6739 11.1523 13.4021 11.6791 12.4645 12.6168C11.5268 13.5545 11 14.8263 11 16.1523C11 17.4784 11.5268 18.7502 12.4645 19.6879C13.4021 20.6256 14.6739 21.1523 16 21.1523C17.3261 21.1523 18.5979 20.6256 19.5355 19.6879C20.4732 18.7502 21 17.4784 21 16.1523C21 14.8263 20.4732 13.5545 19.5355 12.6168C18.5979 11.6791 17.3261 11.1523 16 11.1523ZM9 16.1523C9 14.2958 9.7375 12.5154 11.0503 11.2026C12.363 9.88984 14.1435 9.15234 16 9.15234C17.8565 9.15234 19.637 9.88984 20.9497 11.2026C22.2625 12.5154 23 14.2958 23 16.1523C23 18.0089 22.2625 19.7893 20.9497 21.1021C19.637 22.4148 17.8565 23.1523 16 23.1523C14.1435 23.1523 12.363 22.4148 11.0503 21.1021C9.7375 19.7893 9 18.0089 9 16.1523Z" fill="white"/>
</svg>
