<svg width="21" height="21" viewBox="0 0 21 21" fill="none" xmlns="http://www.w3.org/2000/svg">
<path d="M10.4397 5.29297C10.6039 5.29297 10.7614 5.35822 10.8776 5.47435C10.9937 5.59049 11.059 5.74801 11.059 5.91226V9.62799H14.7747C14.9389 9.62799 15.0965 9.69324 15.2126 9.80938C15.3287 9.92552 15.394 10.083 15.394 10.2473C15.394 10.4115 15.3287 10.569 15.2126 10.6852C15.0965 10.8013 14.9389 10.8666 14.7747 10.8666H11.059V14.5823C11.059 14.7466 10.9937 14.9041 10.8776 15.0202C10.7614 15.1364 10.6039 15.2016 10.4397 15.2016C10.2754 15.2016 10.1179 15.1364 10.0018 15.0202C9.88562 14.9041 9.82038 14.7466 9.82038 14.5823V10.8666H6.10464C5.9404 10.8666 5.78288 10.8013 5.66674 10.6852C5.5506 10.569 5.48535 10.4115 5.48535 10.2473C5.48535 10.083 5.5506 9.92552 5.66674 9.80938C5.78288 9.69324 5.9404 9.62799 6.10464 9.62799H9.82038V5.91226C9.82038 5.74801 9.88562 5.59049 10.0018 5.47435C10.1179 5.35822 10.2754 5.29297 10.4397 5.29297Z" fill="#363330"/>
</svg>
