<svg width="31" height="31" viewBox="0 0 31 31" fill="none" xmlns="http://www.w3.org/2000/svg">
<path d="M30.6967 15.6727C30.6967 15.6727 24.9881 5.20703 15.4738 5.20703C5.95954 5.20703 0.250977 15.6727 0.250977 15.6727C0.250977 15.6727 5.95954 26.1384 15.4738 26.1384C24.9881 26.1384 30.6967 15.6727 30.6967 15.6727ZM2.48303 15.6727C3.40308 14.2744 4.46131 12.972 5.64176 11.7852C8.09074 9.33242 11.4398 7.10989 15.4738 7.10989C19.5079 7.10989 22.855 9.33242 25.3078 11.7852C26.4882 12.972 27.5465 14.2744 28.4665 15.6727C28.3561 15.8383 28.2344 16.021 28.0955 16.2208C27.458 17.1341 26.5161 18.352 25.3078 19.5603C22.855 22.013 19.506 24.2356 15.4738 24.2356C11.4398 24.2356 8.09264 22.013 5.63986 19.5603C4.45942 18.3735 3.40119 17.0711 2.48112 15.6727H2.48303Z" fill="white"/>
<path d="M15.4744 10.9146C14.2128 10.9146 13.0028 11.4158 12.1106 12.3079C11.2185 13.2 10.7173 14.41 10.7173 15.6717C10.7173 16.9334 11.2185 18.1434 12.1106 19.0355C13.0028 19.9277 14.2128 20.4288 15.4744 20.4288C16.7361 20.4288 17.9461 19.9277 18.8382 19.0355C19.7304 18.1434 20.2316 16.9334 20.2316 15.6717C20.2316 14.41 19.7304 13.2 18.8382 12.3079C17.9461 11.4158 16.7361 10.9146 15.4744 10.9146ZM8.81445 15.6717C8.81445 13.9054 9.51613 12.2114 10.7651 10.9624C12.0141 9.71339 13.7081 9.01172 15.4744 9.01172C17.2408 9.01172 18.9348 9.71339 20.1838 10.9624C21.4328 12.2114 22.1344 13.9054 22.1344 15.6717C22.1344 17.4381 21.4328 19.132 20.1838 20.381C18.9348 21.63 17.2408 22.3317 15.4744 22.3317C13.7081 22.3317 12.0141 21.63 10.7651 20.381C9.51613 19.132 8.81445 17.4381 8.81445 15.6717Z" fill="white"/>
</svg>
