<svg width="80" height="35" viewBox="0 0 80 35" fill="none" xmlns="http://www.w3.org/2000/svg">
<path d="M17.5839 0.720703C8.38118 0.720703 0.891113 8.21077 0.891113 17.4156C0.891113 26.6183 8.37905 34.1083 17.5839 34.1083C26.7887 34.1083 34.2766 26.6183 34.2766 17.4156C34.2766 8.21077 26.7887 0.720703 17.5839 0.720703ZM17.5839 32.9269C9.03138 32.9269 2.07252 25.9681 2.07252 17.4156C2.07252 8.86309 9.03138 1.90424 17.5839 1.90424C26.1363 1.90424 33.0952 8.86309 33.0952 17.4156C33.0952 25.9681 26.1363 32.9269 17.5839 32.9269Z" fill="#3C1635"/>
<path d="M22.6984 13.6316L22.7239 13.6167V11.9551H12.7201L11.9871 13.23H20.7223L6.98306 21.6422L6.95968 21.6571L6.95331 22.9108H25.9685V21.6359H9.42875L22.6984 13.6316Z" fill="#3C1635"/>
<path d="M28.1337 13.8027H26.8737V22.9077H27.3666C27.6046 22.9077 27.7937 22.8376 27.9276 22.6952C28.1507 22.4615 28.1358 22.1236 28.1337 22.1109V13.8027Z" fill="#3C1635"/>
<path d="M27.5112 13.2035C27.8511 13.2035 28.1316 12.9272 28.1316 12.5851C28.1316 12.2452 27.8532 11.9668 27.5112 11.9668C27.1712 11.9668 26.8928 12.2452 26.8928 12.5851C26.8928 12.9272 27.1712 13.2035 27.5112 13.2035Z" fill="#3C1635"/>
<path d="M46.9471 21.6519V14.8036L44.7372 21.6519H43.5069L41.3184 14.8163V21.6519H40.1454L40.1561 13.1738H42.0366L44.1444 20.0222L46.2862 13.1738H48.1327V21.6519H46.9471Z" fill="#3C1635"/>
<path d="M53.7274 21.6526V20.8664L53.0432 21.2871C52.5651 21.5761 52.0892 21.7163 51.6196 21.7099C51.0586 21.7099 50.6103 21.5378 50.2809 21.1915C49.9516 20.8451 49.7858 20.384 49.7858 19.8061V15.6584H50.9481V19.6679C50.9481 19.9633 51.0289 20.2013 51.1882 20.3798C51.3476 20.5583 51.5643 20.6475 51.8384 20.6475C52.0955 20.6475 52.3973 20.5476 52.7394 20.35L53.7189 19.7699V15.6562H54.8578V21.6483H53.7295L53.7274 21.6526Z" fill="#3C1635"/>
<path d="M56.4961 13.1738H57.669V21.6519H56.4961V13.1738Z" fill="#3C1635"/>
<path d="M61.9081 21.652C61.2239 21.652 60.6863 21.4778 60.2911 21.1293C59.8958 20.7787 59.6982 20.2709 59.6982 19.6016V16.6629H58.7421V15.66H59.711V14.043H60.8733V15.66H62.6156V16.6629H60.8733V19.5442C60.8733 19.9394 60.9625 20.2178 61.141 20.3814C61.3195 20.545 61.5978 20.6257 61.9782 20.6257H62.6624V21.652H61.9102H61.9081Z" fill="#3C1635"/>
<path d="M65.1314 13.9393C65.1314 14.1136 65.0677 14.2538 64.9423 14.36C64.8169 14.4663 64.6597 14.5194 64.4706 14.5194C64.2645 14.5194 64.103 14.4684 63.9797 14.3664C63.8586 14.2644 63.797 14.1221 63.797 13.9393V13.6992C63.797 13.5165 63.8586 13.3741 63.9797 13.2721C64.1009 13.1701 64.2645 13.1191 64.4706 13.1191C64.6597 13.1191 64.8169 13.1723 64.9423 13.2785C65.0677 13.3847 65.1314 13.5271 65.1314 13.7013V13.9415V13.9393ZM63.8777 15.6583H65.0507V21.6525H63.8777V15.6583Z" fill="#3C1635"/>
<path d="M72.4239 21.6519L69.7912 16.8668L67.5134 19.6801V21.6519H66.9779V13.1738H67.5134V18.9279L72.1604 13.1738H72.8446L70.1673 16.4227L73.038 21.6519H72.4239Z" fill="#3C1635"/>
<path d="M75.0778 13.6208C75.0778 13.727 75.0417 13.812 74.9695 13.8779C74.8972 13.9438 74.808 13.9756 74.7017 13.9756C74.587 13.9756 74.4935 13.9438 74.4234 13.8779C74.3511 13.8141 74.315 13.7291 74.315 13.6208V13.472C74.315 13.3658 74.3511 13.2787 74.4234 13.2149C74.4956 13.1512 74.5891 13.1172 74.7017 13.1172C74.808 13.1172 74.8972 13.1491 74.9695 13.2149C75.0417 13.2787 75.0778 13.3637 75.0778 13.472V13.6208ZM74.417 15.7159H74.9865V21.6527H74.417V15.7159Z" fill="#3C1635"/>
<path d="M79.2829 21.6525C78.6752 21.6525 78.2056 21.4804 77.8699 21.134C77.5363 20.7877 77.3684 20.2968 77.3684 19.6594V16.2172H76.2869V15.7157H77.3812V14.0859H77.9166V15.7157H79.8523V16.2172H77.9166V19.6466C77.9166 20.1779 78.0314 20.5561 78.2587 20.7792C78.4861 21.0023 78.8431 21.1149 79.3296 21.1149H79.9118V21.6504H79.285L79.2829 21.6525Z" fill="#3C1635"/>
</svg>
