<svg width="15" height="15" viewBox="0 0 15 15" fill="none" xmlns="http://www.w3.org/2000/svg">
<path d="M8.33375 5.48922C8.33375 5.37779 8.28949 5.27093 8.2107 5.19214C8.13191 5.11336 8.02505 5.06909 7.91362 5.06909C7.8022 5.06909 7.69534 5.11336 7.61655 5.19214C7.53776 5.27093 7.4935 5.37779 7.4935 5.48922V6.7496H6.23312C6.12169 6.7496 6.01483 6.79386 5.93604 6.87265C5.85725 6.95144 5.81299 7.0583 5.81299 7.16973C5.81299 7.28115 5.85725 7.38801 5.93604 7.4668C6.01483 7.54559 6.12169 7.58985 6.23312 7.58985H7.4935V8.85024C7.4935 8.96166 7.53776 9.06852 7.61655 9.14731C7.69534 9.2261 7.8022 9.27036 7.91362 9.27036C8.02505 9.27036 8.13191 9.2261 8.2107 9.14731C8.28949 9.06852 8.33375 8.96166 8.33375 8.85024V7.58985H9.59413C9.70556 7.58985 9.81242 7.54559 9.89121 7.4668C9.97 7.38801 10.0143 7.28115 10.0143 7.16973C10.0143 7.0583 9.97 6.95144 9.89121 6.87265C9.81242 6.79386 9.70556 6.7496 9.59413 6.7496H8.33375V5.48922Z" fill="#363330"/>
<path d="M1.19161 1.70825C1.08019 1.70825 0.973326 1.75252 0.894537 1.8313C0.815748 1.91009 0.771484 2.01695 0.771484 2.12838C0.771484 2.2398 0.815748 2.34666 0.894537 2.42545C0.973326 2.50424 1.08019 2.54851 1.19161 2.54851H2.12429L2.46124 3.89879L3.71994 10.6082C3.73796 10.7045 3.78905 10.7915 3.86439 10.854C3.93972 10.9166 4.03455 10.951 4.1325 10.951H4.97276C4.52706 10.951 4.09961 11.1281 3.78446 11.4433C3.4693 11.7584 3.29225 12.1859 3.29225 12.6316C3.29225 13.0773 3.4693 13.5047 3.78446 13.8199C4.09961 14.135 4.52706 14.3121 4.97276 14.3121C5.41845 14.3121 5.8459 14.135 6.16105 13.8199C6.47621 13.5047 6.65326 13.0773 6.65326 12.6316C6.65326 12.1859 6.47621 11.7584 6.16105 11.4433C5.8459 11.1281 5.41845 10.951 4.97276 10.951H10.8545C10.4088 10.951 9.98139 11.1281 9.66624 11.4433C9.35108 11.7584 9.17403 12.1859 9.17403 12.6316C9.17403 13.0773 9.35108 13.5047 9.66624 13.8199C9.98139 14.135 10.4088 14.3121 10.8545 14.3121C11.3002 14.3121 11.7277 14.135 12.0428 13.8199C12.358 13.5047 12.535 13.0773 12.535 12.6316C12.535 12.1859 12.358 11.7584 12.0428 11.4433C11.7277 11.1281 11.3002 10.951 10.8545 10.951H11.6948C11.7927 10.951 11.8876 10.9166 11.9629 10.854C12.0382 10.7915 12.0893 10.7045 12.1074 10.6082L13.3677 3.88619C13.3791 3.82556 13.3769 3.76316 13.3615 3.70345C13.346 3.64374 13.3175 3.58816 13.2782 3.54068C13.2388 3.4932 13.1894 3.45497 13.1336 3.42872C13.0778 3.40246 13.0169 3.38882 12.9552 3.38876H3.19982L2.85952 2.02671C2.83684 1.93578 2.78441 1.85504 2.71057 1.79734C2.63672 1.73964 2.54571 1.70828 2.45199 1.70825H1.19161ZM4.48121 10.1108L3.37795 4.22901H12.4493L11.3461 10.1108H4.48121ZM5.81301 12.6316C5.81301 12.8544 5.72448 13.0681 5.56691 13.2257C5.40933 13.3833 5.1956 13.4718 4.97276 13.4718C4.74991 13.4718 4.53618 13.3833 4.37861 13.2257C4.22103 13.0681 4.1325 12.8544 4.1325 12.6316C4.1325 12.4087 4.22103 12.195 4.37861 12.0374C4.53618 11.8798 4.74991 11.7913 4.97276 11.7913C5.1956 11.7913 5.40933 11.8798 5.56691 12.0374C5.72448 12.195 5.81301 12.4087 5.81301 12.6316ZM11.6948 12.6316C11.6948 12.8544 11.6063 13.0681 11.4487 13.2257C11.2911 13.3833 11.0774 13.4718 10.8545 13.4718C10.6317 13.4718 10.418 13.3833 10.2604 13.2257C10.1028 13.0681 10.0143 12.8544 10.0143 12.6316C10.0143 12.4087 10.1028 12.195 10.2604 12.0374C10.418 11.8798 10.6317 11.7913 10.8545 11.7913C11.0774 11.7913 11.2911 11.8798 11.4487 12.0374C11.6063 12.195 11.6948 12.4087 11.6948 12.6316Z" fill="#363330"/>
</svg>
