<svg width="17" height="16" viewBox="0 0 17 16" fill="none" xmlns="http://www.w3.org/2000/svg">
<path d="M3.60919 3.89034V7.77862C3.60919 8.36306 4.0833 8.84015 4.67071 8.84015H8.559M14.5674 5.65855V1.77027C14.5674 1.18583 14.0933 0.70874 13.5058 0.70874H4.67071C4.08628 0.70874 3.60919 1.18285 3.60919 1.77027V3.18365M9.26271 8.83717H10.3093L12.1938 10.7127C12.4175 10.9334 12.7962 10.7753 12.7962 10.4623V8.83717H13.5029C14.0873 8.83717 14.5644 8.36306 14.5644 7.77564V6.36226M5.72926 11.3091V12.7225C5.72926 13.3069 6.20337 13.784 6.79078 13.784H10.7864L13.2852 15.7937C13.5178 15.9786 13.8607 15.8146 13.8607 15.5194V13.784H15.274C15.8585 13.784 16.3356 13.3099 16.3356 12.7225V6.71412C16.3356 6.12968 15.8615 5.65259 15.274 5.65259H9.26569M5.73224 8.83419V10.6024M8.559 5.65557H6.79078C6.20635 5.65557 5.72926 6.12968 5.72926 6.7171V8.13048M1.13428 3.18365H8.20417C8.7886 3.18365 9.26569 3.65776 9.26569 4.24517V10.2535C9.26569 10.838 8.79158 11.3151 8.20417 11.3151H3.85668L2.09741 13.1519C1.87675 13.3815 1.48912 13.2264 1.48912 12.9073V11.3151H1.13428C0.549844 11.3151 0.0727539 10.8409 0.0727539 10.2535V4.24517C0.0727539 3.66074 0.546863 3.18365 1.13428 3.18365Z" stroke="white" stroke-width="0.70669" stroke-miterlimit="10"/>
</svg>
