<svg width="21" height="21" viewBox="0 0 21 21" fill="none" xmlns="http://www.w3.org/2000/svg">
<path d="M10.5881 5.53906C10.7523 5.53906 10.9099 5.60431 11.026 5.72045C11.1421 5.83659 11.2074 5.99411 11.2074 6.15835V9.87409H14.9231C15.0874 9.87409 15.2449 9.93933 15.361 10.0555C15.4772 10.1716 15.5424 10.3291 15.5424 10.4934C15.5424 10.6576 15.4772 10.8151 15.361 10.9313C15.2449 11.0474 15.0874 11.1127 14.9231 11.1127H11.2074V14.8284C11.2074 14.9926 11.1421 15.1502 11.026 15.2663C10.9099 15.3824 10.7523 15.4477 10.5881 15.4477C10.4239 15.4477 10.2663 15.3824 10.1502 15.2663C10.0341 15.1502 9.96881 14.9926 9.96881 14.8284V11.1127H6.25308C6.08883 11.1127 5.93131 11.0474 5.81517 10.9313C5.69904 10.8151 5.63379 10.6576 5.63379 10.4934C5.63379 10.3291 5.69904 10.1716 5.81517 10.0555C5.93131 9.93933 6.08883 9.87409 6.25308 9.87409H9.96881V6.15835C9.96881 5.99411 10.0341 5.83659 10.1502 5.72045C10.2663 5.60431 10.4239 5.53906 10.5881 5.53906Z" fill="#363330"/>
</svg>
