<svg width="21" height="21" viewBox="0 0 21 21" fill="none" xmlns="http://www.w3.org/2000/svg">
<path d="M10.3147 5.53906C10.4789 5.53906 10.6364 5.60431 10.7526 5.72045C10.8687 5.83659 10.934 5.99411 10.934 6.15835V9.87409H14.6497C14.8139 9.87409 14.9715 9.93933 15.0876 10.0555C15.2037 10.1716 15.269 10.3291 15.269 10.4934C15.269 10.6576 15.2037 10.8151 15.0876 10.9313C14.9715 11.0474 14.8139 11.1127 14.6497 11.1127H10.934V14.8284C10.934 14.9926 10.8687 15.1502 10.7526 15.2663C10.6364 15.3824 10.4789 15.4477 10.3147 15.4477C10.1504 15.4477 9.9929 15.3824 9.87676 15.2663C9.76062 15.1502 9.69538 14.9926 9.69538 14.8284V11.1127H5.97964C5.8154 11.1127 5.65788 11.0474 5.54174 10.9313C5.4256 10.8151 5.36035 10.6576 5.36035 10.4934C5.36035 10.3291 5.4256 10.1716 5.54174 10.0555C5.65788 9.93933 5.8154 9.87409 5.97964 9.87409H9.69538V6.15835C9.69538 5.99411 9.76062 5.83659 9.87676 5.72045C9.9929 5.60431 10.1504 5.53906 10.3147 5.53906Z" fill="#363330"/>
</svg>
