<svg width="21" height="20" viewBox="0 0 21 20" fill="none" xmlns="http://www.w3.org/2000/svg">
<path d="M10.8625 5.10938C11.0268 5.10937 11.1843 5.17462 11.3004 5.29076C11.4166 5.4069 11.4818 5.56442 11.4818 5.72866V9.4444H15.1975C15.3618 9.4444 15.5193 9.50965 15.6354 9.62579C15.7516 9.74193 15.8168 9.89944 15.8168 10.0637C15.8168 10.2279 15.7516 10.3855 15.6354 10.5016C15.5193 10.6177 15.3618 10.683 15.1975 10.683H11.4818V14.3987C11.4818 14.563 11.4166 14.7205 11.3004 14.8366C11.1843 14.9528 11.0268 15.018 10.8625 15.018C10.6983 15.018 10.5408 14.9528 10.4246 14.8366C10.3085 14.7205 10.2432 14.563 10.2432 14.3987V10.683H6.52749C6.36325 10.683 6.20573 10.6177 6.08959 10.5016C5.97345 10.3855 5.9082 10.2279 5.9082 10.0637C5.9082 9.89944 5.97345 9.74193 6.08959 9.62579C6.20573 9.50965 6.36325 9.4444 6.52749 9.4444H10.2432V5.72866C10.2432 5.56442 10.3085 5.4069 10.4246 5.29076C10.5408 5.17462 10.6983 5.10937 10.8625 5.10938Z" fill="#363330"/>
</svg>
