<svg width="21" height="21" viewBox="0 0 21 21" fill="none" xmlns="http://www.w3.org/2000/svg">
<path d="M10.3147 5.61719C10.4789 5.61719 10.6364 5.68243 10.7526 5.79857C10.8687 5.91471 10.934 6.07223 10.934 6.23648V9.95221H14.6497C14.8139 9.95221 14.9715 10.0175 15.0876 10.1336C15.2037 10.2497 15.269 10.4073 15.269 10.5715C15.269 10.7357 15.2037 10.8933 15.0876 11.0094C14.9715 11.1255 14.8139 11.1908 14.6497 11.1908H10.934V14.9065C10.934 15.0708 10.8687 15.2283 10.7526 15.3444C10.6364 15.4606 10.4789 15.5258 10.3147 15.5258C10.1504 15.5258 9.9929 15.4606 9.87676 15.3444C9.76062 15.2283 9.69538 15.0708 9.69538 14.9065V11.1908H5.97964C5.8154 11.1908 5.65788 11.1255 5.54174 11.0094C5.4256 10.8933 5.36035 10.7357 5.36035 10.5715C5.36035 10.4073 5.4256 10.2497 5.54174 10.1336C5.65788 10.0175 5.8154 9.95221 5.97964 9.95221H9.69538V6.23648C9.69538 6.07223 9.76062 5.91471 9.87676 5.79857C9.9929 5.68243 10.1504 5.61719 10.3147 5.61719Z" fill="#363330"/>
</svg>
