<svg width="21" height="21" viewBox="0 0 21 21" fill="none" xmlns="http://www.w3.org/2000/svg">
<path d="M10.8625 5.1875C11.0268 5.1875 11.1843 5.25275 11.3004 5.36889C11.4166 5.48503 11.4818 5.64254 11.4818 5.80679V9.52253H15.1975C15.3618 9.52253 15.5193 9.58777 15.6354 9.70391C15.7516 9.82005 15.8168 9.97757 15.8168 10.1418C15.8168 10.3061 15.7516 10.4636 15.6354 10.5797C15.5193 10.6959 15.3618 10.7611 15.1975 10.7611H11.4818V14.4768C11.4818 14.6411 11.4166 14.7986 11.3004 14.9147C11.1843 15.0309 11.0268 15.0961 10.8625 15.0961C10.6983 15.0961 10.5408 15.0309 10.4246 14.9147C10.3085 14.7986 10.2432 14.6411 10.2432 14.4768V10.7611H6.52749C6.36325 10.7611 6.20573 10.6959 6.08959 10.5797C5.97345 10.4636 5.9082 10.3061 5.9082 10.1418C5.9082 9.97757 5.97345 9.82005 6.08959 9.70391C6.20573 9.58777 6.36325 9.52253 6.52749 9.52253H10.2432V5.80679C10.2432 5.64254 10.3085 5.48503 10.4246 5.36889C10.5408 5.25275 10.6983 5.1875 10.8625 5.1875Z" fill="#363330"/>
</svg>
