<svg width="21" height="21" viewBox="0 0 21 21" fill="none" xmlns="http://www.w3.org/2000/svg">
<path d="M10.5881 5.61719C10.7523 5.61719 10.9099 5.68243 11.026 5.79857C11.1421 5.91471 11.2074 6.07223 11.2074 6.23648V9.95221H14.9231C15.0874 9.95221 15.2449 10.0175 15.361 10.1336C15.4772 10.2497 15.5424 10.4073 15.5424 10.5715C15.5424 10.7357 15.4772 10.8933 15.361 11.0094C15.2449 11.1255 15.0874 11.1908 14.9231 11.1908H11.2074V14.9065C11.2074 15.0708 11.1421 15.2283 11.026 15.3444C10.9099 15.4606 10.7523 15.5258 10.5881 15.5258C10.4239 15.5258 10.2663 15.4606 10.1502 15.3444C10.0341 15.2283 9.96881 15.0708 9.96881 14.9065V11.1908H6.25308C6.08883 11.1908 5.93131 11.1255 5.81517 11.0094C5.69904 10.8933 5.63379 10.7357 5.63379 10.5715C5.63379 10.4073 5.69904 10.2497 5.81517 10.1336C5.93131 10.0175 6.08883 9.95221 6.25308 9.95221H9.96881V6.23648C9.96881 6.07223 10.0341 5.91471 10.1502 5.79857C10.2663 5.68243 10.4239 5.61719 10.5881 5.61719Z" fill="#363330"/>
</svg>
