<svg width="31" height="31" viewBox="0 0 31 31" fill="none" xmlns="http://www.w3.org/2000/svg">
<path d="M30.722 15.6688C30.722 15.6688 25.0135 5.20312 15.4992 5.20312C5.98493 5.20312 0.276367 15.6688 0.276367 15.6688C0.276367 15.6688 5.98493 26.1345 15.4992 26.1345C25.0135 26.1345 30.722 15.6688 30.722 15.6688ZM2.50842 15.6688C3.42847 14.2705 4.4867 12.9681 5.66716 11.7813C8.11613 9.32851 11.4652 7.10598 15.4992 7.10598C19.5333 7.10598 22.8804 9.32851 25.3332 11.7813C26.5136 12.9681 27.5718 14.2705 28.4919 15.6688C28.3815 15.8344 28.2598 16.017 28.1208 16.2168C27.4834 17.1302 26.5415 18.348 25.3332 19.5564C22.8804 22.0091 19.5314 24.2317 15.4992 24.2317C11.4652 24.2317 8.11803 22.0091 5.66525 19.5564C4.48481 18.3696 3.42658 17.0672 2.50651 15.6688H2.50842Z" fill="white"/>
<path d="M15.4998 10.9107C14.2382 10.9107 13.0282 11.4119 12.136 12.304C11.2439 13.1961 10.7427 14.4061 10.7427 15.6678C10.7427 16.9295 11.2439 18.1395 12.136 19.0316C13.0282 19.9237 14.2382 20.4249 15.4998 20.4249C16.7615 20.4249 17.9715 19.9237 18.8636 19.0316C19.7558 18.1395 20.257 16.9295 20.257 15.6678C20.257 14.4061 19.7558 13.1961 18.8636 12.304C17.9715 11.4119 16.7615 10.9107 15.4998 10.9107ZM8.83984 15.6678C8.83984 13.9015 9.54152 12.2075 10.7905 10.9585C12.0395 9.70949 13.7335 9.00781 15.4998 9.00781C17.2662 9.00781 18.9602 9.70949 20.2092 10.9585C21.4582 12.2075 22.1598 13.9015 22.1598 15.6678C22.1598 17.4341 21.4582 19.1281 20.2092 20.3771C18.9602 21.6261 17.2662 22.3278 15.4998 22.3278C13.7335 22.3278 12.0395 21.6261 10.7905 20.3771C9.54152 19.1281 8.83984 17.4341 8.83984 15.6678Z" fill="white"/>
</svg>
