<svg width="31" height="31" viewBox="0 0 31 31" fill="none" xmlns="http://www.w3.org/2000/svg">
<path d="M30.723 15.661C30.723 15.661 25.0145 5.19531 15.5002 5.19531C5.98591 5.19531 0.277344 15.661 0.277344 15.661C0.277344 15.661 5.98591 26.1267 15.5002 26.1267C25.0145 26.1267 30.723 15.661 30.723 15.661ZM2.50939 15.661C3.42945 14.2627 4.48768 12.9603 5.66813 11.7735C8.11711 9.3207 11.4661 7.09817 15.5002 7.09817C19.5342 7.09817 22.8814 9.3207 25.3341 11.7735C26.5146 12.9603 27.5728 14.2627 28.4929 15.661C28.3825 15.8266 28.2607 16.0092 28.1218 16.209C27.4844 17.1224 26.5424 18.3402 25.3341 19.5485C22.8814 22.0013 19.5323 24.2239 15.5002 24.2239C11.4661 24.2239 8.11901 22.0013 5.66623 19.5485C4.48579 18.3618 3.42756 17.0594 2.50749 15.661H2.50939Z" fill="white"/>
<path d="M15.5008 10.9029C14.2391 10.9029 13.0291 11.4041 12.137 12.2962C11.2449 13.1883 10.7437 14.3983 10.7437 15.66C10.7437 16.9217 11.2449 18.1317 12.137 19.0238C13.0291 19.9159 14.2391 20.4171 15.5008 20.4171C16.7625 20.4171 17.9725 19.9159 18.8646 19.0238C19.7568 18.1317 20.2579 16.9217 20.2579 15.66C20.2579 14.3983 19.7568 13.1883 18.8646 12.2962C17.9725 11.4041 16.7625 10.9029 15.5008 10.9029ZM8.84082 15.66C8.84082 13.8937 9.5425 12.1997 10.7915 10.9507C12.0405 9.70168 13.7345 9 15.5008 9C17.2672 9 18.9611 9.70168 20.2101 10.9507C21.4591 12.1997 22.1608 13.8937 22.1608 15.66C22.1608 17.4263 21.4591 19.1203 20.2101 20.3693C18.9611 21.6183 17.2672 22.32 15.5008 22.32C13.7345 22.32 12.0405 21.6183 10.7915 20.3693C9.5425 19.1203 8.84082 17.4263 8.84082 15.66Z" fill="white"/>
</svg>
