<svg width="52" height="56" viewBox="0 0 52 56" fill="none" xmlns="http://www.w3.org/2000/svg">
<path d="M51.393 49.3351V32.7852H0.000976562V49.3351C0.000976562 52.7026 11.5057 55.4325 25.697 55.4325C39.8883 55.4325 51.393 52.7026 51.393 49.3351Z" fill="#EEBCCC"/>
<path d="M51.3921 35.3985V32.7853H48.9046C44.7754 30.7289 35.9346 29.3086 25.696 29.3086C15.4574 29.3086 6.6182 30.7304 2.48744 32.7853H0V35.3985H0.00149665C0.00149665 35.4015 0 35.403 0 35.4045C0 38.7719 11.5048 41.5018 25.696 41.5018C39.8888 41.5018 51.3921 38.7719 51.3921 35.4045C51.3921 35.403 51.3921 35.4 51.3921 35.3985Z" fill="#DCAEBD"/>
<path d="M25.696 38.8861C39.8873 38.8861 51.3921 36.1562 51.3921 32.7888C51.3921 29.4213 39.8873 26.6914 25.696 26.6914C11.5048 26.6914 0 29.4213 0 32.7888C0 36.1577 11.5048 38.8861 25.696 38.8861Z" fill="#E5B5C4"/>
<path d="M38.8858 3.91674L36.3101 0.897992C35.9404 0.448996 35.4195 0.134699 34.8224 0.038913C34.7999 0.0359197 34.7775 0.034423 34.755 0.0329264C34.6503 0.0194565 34.5485 0 34.4407 0H16.873C15.535 0 14.4395 1.09555 14.4395 2.43356V5.40142C14.4395 6.73943 15.535 7.83498 16.873 7.83498H24.6811V11.3536H26.5668V7.83498H34.4407C34.5485 7.83498 34.6518 7.81702 34.755 7.80355C34.7775 7.80055 34.7999 7.80055 34.8224 7.79606C35.4195 7.70028 35.9404 7.38598 36.3101 6.93699L38.8858 3.91824V3.91674ZM35.4734 2.84663C35.4734 3.24325 35.4076 3.4887 35.3327 3.77456C35.2834 3.96314 35.231 4.1562 35.1891 4.4271C35.1801 4.49295 35.1696 4.57826 35.1576 4.67405C35.0798 5.31162 34.975 6.18267 34.4871 6.18267C34.1983 6.18417 34.113 5.78456 34.0052 5.28169C33.9379 4.9644 33.8121 4.37172 33.6535 4.37172C33.4574 4.37172 33.3766 4.87909 33.3168 5.25026C33.2404 5.73068 33.1686 6.18417 32.8244 6.18567C32.5026 6.18567 32.3454 5.65735 32.1524 4.61418C32.1404 4.54683 32.1284 4.48697 32.1179 4.43758C32.067 4.17267 31.9997 3.9796 31.9368 3.79252C31.844 3.51564 31.7542 3.25372 31.7527 2.85412C31.7527 2.71044 31.7677 2.58322 31.7932 2.46948L31.8276 2.34974C31.9338 2.03545 32.1539 1.84537 32.4891 1.7885C32.5684 1.77503 32.6433 1.76904 32.7136 1.76904C32.968 1.76755 33.1252 1.85585 33.2644 1.93068C33.3871 1.99803 33.4844 2.05191 33.652 2.05191C33.866 2.05191 34.0247 1.98905 34.1938 1.9232C34.3689 1.85585 34.55 1.78401 34.785 1.78401C35.4719 1.78401 35.4719 2.55778 35.4734 2.84813V2.84663ZM15.083 12.2591L12.5088 15.2778L15.083 18.2966C15.4527 18.7471 15.9735 19.0599 16.5722 19.1557C16.5947 19.1601 16.6171 19.1601 16.6396 19.1631C16.7443 19.1766 16.8461 19.1946 16.9538 19.1946H24.6811V19.1871H26.5668V19.1946H34.5216C35.8596 19.1946 36.9551 18.1005 36.9551 16.761V13.7932C36.9551 12.4536 35.8596 11.3596 34.5216 11.3596H16.9538C16.8461 11.3596 16.7443 11.3776 16.6396 11.391C16.6171 11.394 16.5947 11.394 16.5722 11.397C15.9735 11.4928 15.4527 11.8071 15.083 12.2561V12.2591ZM16.005 14.1553C16.005 14.0117 16.0184 13.8844 16.0454 13.7707L16.0798 13.651C16.1861 13.3367 16.4061 13.1466 16.7413 13.0897C16.8206 13.0763 16.8955 13.0703 16.9643 13.0703C17.2203 13.0688 17.3774 13.1571 17.5166 13.2319C17.6393 13.2993 17.7366 13.3531 17.9027 13.3531C18.1167 13.3531 18.2769 13.2903 18.4445 13.2244C18.6196 13.1571 18.8007 13.0852 19.0357 13.0852C19.7227 13.0837 19.7227 13.859 19.7227 14.1494C19.7242 14.546 19.6583 14.7929 19.5835 15.0773C19.5341 15.2659 19.4817 15.4589 19.4398 15.7313C19.4308 15.7972 19.4188 15.8825 19.4069 15.9768C19.329 16.6143 19.2243 17.4854 18.7364 17.4854C18.4475 17.4854 18.3622 17.0888 18.2544 16.5859C18.1856 16.2671 18.0614 15.6759 17.9012 15.6759C17.7052 15.6759 17.6243 16.1833 17.5645 16.553C17.4882 17.0334 17.4148 17.4869 17.0721 17.4884C16.7488 17.4884 16.5917 16.9601 16.4001 15.9169C16.3866 15.8496 16.3761 15.7897 16.3657 15.7403C16.3148 15.4754 16.2474 15.2823 16.1846 15.0952C16.0903 14.8184 16.0005 14.5564 16.0005 14.1568L16.005 14.1553ZM26.5668 19.1946H24.6811V33.2631H26.5668V19.1946Z" fill="#7B3972"/>
</svg>
