<svg width="15" height="15" viewBox="0 0 15 15" fill="none" xmlns="http://www.w3.org/2000/svg">
<path d="M8.17979 5.31784C8.17979 5.1978 8.13211 5.08268 8.04723 4.9978C7.96235 4.91292 7.84723 4.86523 7.72719 4.86523C7.60715 4.86523 7.49203 4.91292 7.40715 4.9978C7.32227 5.08268 7.27458 5.1978 7.27458 5.31784V6.67565H5.91678C5.79674 6.67565 5.68162 6.72333 5.59674 6.80821C5.51186 6.89309 5.46417 7.00821 5.46417 7.12825C5.46417 7.24829 5.51186 7.36341 5.59674 7.44829C5.68162 7.53317 5.79674 7.58085 5.91678 7.58085H7.27458V8.93866C7.27458 9.0587 7.32227 9.17382 7.40715 9.2587C7.49203 9.34358 7.60715 9.39126 7.72719 9.39126C7.84723 9.39126 7.96235 9.34358 8.04723 9.2587C8.13211 9.17382 8.17979 9.0587 8.17979 8.93866V7.58085H9.5376C9.65764 7.58085 9.77276 7.53317 9.85764 7.44829C9.94252 7.36341 9.9902 7.24829 9.9902 7.12825C9.9902 7.00821 9.94252 6.89309 9.85764 6.80821C9.77276 6.72333 9.65764 6.67565 9.5376 6.67565H8.17979V5.31784Z" fill="#363330"/>
<path d="M0.485562 1.24414C0.365524 1.24414 0.250403 1.29183 0.165523 1.3767C0.0806438 1.46158 0.032959 1.57671 0.032959 1.69674C0.032959 1.81678 0.0806438 1.9319 0.165523 2.01678C0.250403 2.10166 0.365524 2.14935 0.485562 2.14935H1.49034L1.85333 3.60401L3.20933 10.8321C3.22874 10.9358 3.28379 11.0295 3.36494 11.0969C3.4461 11.1643 3.54827 11.2013 3.65378 11.2014H4.55899C4.07884 11.2014 3.61835 11.3921 3.27883 11.7317C2.93932 12.0712 2.74858 12.5317 2.74858 13.0118C2.74858 13.492 2.93932 13.9525 3.27883 14.292C3.61835 14.6315 4.07884 14.8222 4.55899 14.8222C5.03914 14.8222 5.49963 14.6315 5.83914 14.292C6.17866 13.9525 6.3694 13.492 6.3694 13.0118C6.3694 12.5317 6.17866 12.0712 5.83914 11.7317C5.49963 11.3921 5.03914 11.2014 4.55899 11.2014H10.8954C10.4153 11.2014 9.95479 11.3921 9.61528 11.7317C9.27576 12.0712 9.08502 12.5317 9.08502 13.0118C9.08502 13.492 9.27576 13.9525 9.61528 14.292C9.95479 14.6315 10.4153 14.8222 10.8954 14.8222C11.3756 14.8222 11.8361 14.6315 12.1756 14.292C12.5151 13.9525 12.7058 13.492 12.7058 13.0118C12.7058 12.5317 12.5151 12.0712 12.1756 11.7317C11.8361 11.3921 11.3756 11.2014 10.8954 11.2014H11.8006C11.9062 11.2013 12.0083 11.1643 12.0895 11.0969C12.1706 11.0295 12.2257 10.9358 12.2451 10.8321L13.6029 3.59043C13.6151 3.52511 13.6128 3.4579 13.5961 3.39357C13.5795 3.32924 13.5488 3.26937 13.5064 3.21822C13.464 3.16706 13.4108 3.12588 13.3507 3.0976C13.2905 3.06931 13.2249 3.05461 13.1584 3.05455H2.649L2.2824 1.58721C2.25796 1.48926 2.20148 1.40228 2.12193 1.34011C2.04238 1.27795 1.94433 1.24417 1.84337 1.24414H0.485562ZM4.02944 10.2962L2.84091 3.95976H12.6135L11.425 10.2962H4.02944ZM5.4642 13.0118C5.4642 13.2519 5.36883 13.4821 5.19907 13.6519C5.02931 13.8217 4.79906 13.917 4.55899 13.917C4.31891 13.917 4.08867 13.8217 3.91891 13.6519C3.74915 13.4821 3.65378 13.2519 3.65378 13.0118C3.65378 12.7717 3.74915 12.5415 3.91891 12.3717C4.08867 12.202 4.31891 12.1066 4.55899 12.1066C4.79906 12.1066 5.02931 12.202 5.19907 12.3717C5.36883 12.5415 5.4642 12.7717 5.4642 13.0118ZM11.8006 13.0118C11.8006 13.2519 11.7053 13.4821 11.5355 13.6519C11.3657 13.8217 11.1355 13.917 10.8954 13.917C10.6554 13.917 10.4251 13.8217 10.2554 13.6519C10.0856 13.4821 9.99022 13.2519 9.99022 13.0118C9.99022 12.7717 10.0856 12.5415 10.2554 12.3717C10.4251 12.202 10.6554 12.1066 10.8954 12.1066C11.1355 12.1066 11.3657 12.202 11.5355 12.3717C11.7053 12.5415 11.8006 12.7717 11.8006 13.0118Z" fill="#363330"/>
</svg>
