<svg width="16" height="15" viewBox="0 0 16 15" fill="none" xmlns="http://www.w3.org/2000/svg">
<path d="M8.75352 5.06002C8.75352 4.93999 8.70584 4.82487 8.62096 4.73999C8.53608 4.65511 8.42096 4.60742 8.30092 4.60742C8.18088 4.60742 8.06576 4.65511 7.98088 4.73999C7.896 4.82487 7.84831 4.93999 7.84831 5.06002V6.41783H6.49051C6.37047 6.41783 6.25535 6.46552 6.17047 6.5504C6.08559 6.63528 6.0379 6.7504 6.0379 6.87044C6.0379 6.99047 6.08559 7.1056 6.17047 7.19048C6.25535 7.27536 6.37047 7.32304 6.49051 7.32304H7.84831V8.68085C7.84831 8.80089 7.896 8.91601 7.98088 9.00089C8.06576 9.08577 8.18088 9.13345 8.30092 9.13345C8.42096 9.13345 8.53608 9.08577 8.62096 9.00089C8.70584 8.91601 8.75352 8.80089 8.75352 8.68085V7.32304H10.1113C10.2314 7.32304 10.3465 7.27536 10.4314 7.19048C10.5162 7.1056 10.5639 6.99047 10.5639 6.87044C10.5639 6.7504 10.5162 6.63528 10.4314 6.5504C10.3465 6.46552 10.2314 6.41783 10.1113 6.41783H8.75352V5.06002Z" fill="#363330"/>
<path d="M1.05929 0.986328C0.939255 0.986328 0.824133 1.03401 0.739254 1.11889C0.654374 1.20377 0.606689 1.31889 0.606689 1.43893C0.606689 1.55897 0.654374 1.67409 0.739254 1.75897C0.824133 1.84385 0.939255 1.89153 1.05929 1.89153H2.06407L2.42706 3.3462L3.78306 10.5743C3.80247 10.678 3.85752 10.7717 3.93867 10.8391C4.01983 10.9065 4.122 10.9435 4.22751 10.9436H5.13272C4.65257 10.9436 4.19208 11.1343 3.85256 11.4739C3.51305 11.8134 3.32231 12.2739 3.32231 12.754C3.32231 13.2342 3.51305 13.6946 3.85256 14.0342C4.19208 14.3737 4.65257 14.5644 5.13272 14.5644C5.61287 14.5644 6.07336 14.3737 6.41287 14.0342C6.75239 13.6946 6.94313 13.2342 6.94313 12.754C6.94313 12.2739 6.75239 11.8134 6.41287 11.4739C6.07336 11.1343 5.61287 10.9436 5.13272 10.9436H11.4692C10.989 10.9436 10.5285 11.1343 10.189 11.4739C9.84949 11.8134 9.65875 12.2739 9.65875 12.754C9.65875 13.2342 9.84949 13.6946 10.189 14.0342C10.5285 14.3737 10.989 14.5644 11.4692 14.5644C11.9493 14.5644 12.4098 14.3737 12.7493 14.0342C13.0888 13.6946 13.2796 13.2342 13.2796 12.754C13.2796 12.2739 13.0888 11.8134 12.7493 11.4739C12.4098 11.1343 11.9493 10.9436 11.4692 10.9436H12.3744C12.4799 10.9435 12.5821 10.9065 12.6632 10.8391C12.7444 10.7717 12.7994 10.678 12.8188 10.5743L14.1766 3.33262C14.1889 3.2673 14.1866 3.20009 14.1699 3.13576C14.1532 3.07143 14.1226 3.01156 14.0801 2.9604C14.0377 2.90925 13.9845 2.86807 13.9244 2.83978C13.8643 2.8115 13.7986 2.7968 13.7322 2.79674H3.22273L2.85613 1.3294C2.83169 1.23144 2.77521 1.14447 2.69566 1.0823C2.61611 1.02014 2.51806 0.986356 2.4171 0.986328H1.05929ZM4.60317 10.0384L3.41464 3.70195H13.1872L11.9987 10.0384H4.60317ZM6.03793 12.754C6.03793 12.9941 5.94256 13.2243 5.7728 13.3941C5.60304 13.5638 5.3728 13.6592 5.13272 13.6592C4.89264 13.6592 4.6624 13.5638 4.49264 13.3941C4.32288 13.2243 4.22751 12.9941 4.22751 12.754C4.22751 12.5139 4.32288 12.2837 4.49264 12.1139C4.6624 11.9442 4.89264 11.8488 5.13272 11.8488C5.3728 11.8488 5.60304 11.9442 5.7728 12.1139C5.94256 12.2837 6.03793 12.5139 6.03793 12.754ZM12.3744 12.754C12.3744 12.9941 12.279 13.2243 12.1092 13.3941C11.9395 13.5638 11.7092 13.6592 11.4692 13.6592C11.2291 13.6592 10.9988 13.5638 10.8291 13.3941C10.6593 13.2243 10.564 12.9941 10.564 12.754C10.564 12.5139 10.6593 12.2837 10.8291 12.1139C10.9988 11.9442 11.2291 11.8488 11.4692 11.8488C11.7092 11.8488 11.9395 11.9442 12.1092 12.1139C12.279 12.2837 12.3744 12.5139 12.3744 12.754Z" fill="#363330"/>
</svg>
