<svg width="16" height="16" viewBox="0 0 16 16" fill="none" xmlns="http://www.w3.org/2000/svg">
<path d="M8.86949 5.86276C8.86949 5.74272 8.8218 5.6276 8.73692 5.54272C8.65204 5.45784 8.53692 5.41016 8.41688 5.41016C8.29685 5.41016 8.18173 5.45784 8.09685 5.54272C8.01197 5.6276 7.96428 5.74272 7.96428 5.86276V7.22057H6.60647C6.48643 7.22057 6.37131 7.26825 6.28643 7.35313C6.20155 7.43801 6.15387 7.55313 6.15387 7.67317C6.15387 7.79321 6.20155 7.90833 6.28643 7.99321C6.37131 8.07809 6.48643 8.12577 6.60647 8.12577H7.96428V9.48358C7.96428 9.60362 8.01197 9.71874 8.09685 9.80362C8.18173 9.8885 8.29685 9.93619 8.41688 9.93619C8.53692 9.93619 8.65204 9.8885 8.73692 9.80362C8.8218 9.71874 8.86949 9.60362 8.86949 9.48358V8.12577H10.2273C10.3473 8.12577 10.4625 8.07809 10.5473 7.99321C10.6322 7.90833 10.6799 7.79321 10.6799 7.67317C10.6799 7.55313 10.6322 7.43801 10.5473 7.35313C10.4625 7.26825 10.3473 7.22057 10.2273 7.22057H8.86949V5.86276Z" fill="#363330"/>
<path d="M1.17526 1.78906C1.05522 1.78906 0.9401 1.83675 0.855221 1.92163C0.770341 2.00651 0.722656 2.12163 0.722656 2.24167C0.722656 2.3617 0.770341 2.47682 0.855221 2.5617C0.9401 2.64658 1.05522 2.69427 1.17526 2.69427H2.18004L2.54303 4.14893L3.89902 11.377C3.91844 11.4807 3.97348 11.5744 4.05464 11.6418C4.13579 11.7093 4.23796 11.7462 4.34348 11.7463H5.24869C4.76854 11.7463 4.30805 11.9371 3.96853 12.2766C3.62901 12.6161 3.43827 13.0766 3.43827 13.5567C3.43827 14.0369 3.62901 14.4974 3.96853 14.8369C4.30805 15.1764 4.76854 15.3672 5.24869 15.3672C5.72884 15.3672 6.18932 15.1764 6.52884 14.8369C6.86836 14.4974 7.0591 14.0369 7.0591 13.5567C7.0591 13.0766 6.86836 12.6161 6.52884 12.2766C6.18932 11.9371 5.72884 11.7463 5.24869 11.7463H11.5851C11.105 11.7463 10.6445 11.9371 10.305 12.2766C9.96546 12.6161 9.77472 13.0766 9.77472 13.5567C9.77472 14.0369 9.96546 14.4974 10.305 14.8369C10.6445 15.1764 11.105 15.3672 11.5851 15.3672C12.0653 15.3672 12.5258 15.1764 12.8653 14.8369C13.2048 14.4974 13.3955 14.0369 13.3955 13.5567C13.3955 13.0766 13.2048 12.6161 12.8653 12.2766C12.5258 11.9371 12.0653 11.7463 11.5851 11.7463H12.4903C12.5959 11.7462 12.698 11.7093 12.7792 11.6418C12.8603 11.5744 12.9154 11.4807 12.9348 11.377L14.2926 4.13536C14.3048 4.07003 14.3025 4.00282 14.2858 3.93849C14.2692 3.87416 14.2385 3.81429 14.1961 3.76314C14.1537 3.71199 14.1005 3.6708 14.0404 3.64252C13.9802 3.61423 13.9146 3.59954 13.8481 3.59947H3.3387L2.97209 2.13214C2.94766 2.03418 2.89118 1.9472 2.81163 1.88504C2.73208 1.82287 2.63403 1.78909 2.53307 1.78906H1.17526ZM4.71914 10.8411L3.53061 4.50468H13.3032L12.1147 10.8411H4.71914ZM6.15389 13.5567C6.15389 13.7968 6.05852 14.0271 5.88876 14.1968C5.719 14.3666 5.48876 14.4619 5.24869 14.4619C5.00861 14.4619 4.77837 14.3666 4.60861 14.1968C4.43885 14.0271 4.34348 13.7968 4.34348 13.5567C4.34348 13.3167 4.43885 13.0864 4.60861 12.9167C4.77837 12.7469 5.00861 12.6515 5.24869 12.6515C5.48876 12.6515 5.719 12.7469 5.88876 12.9167C6.05852 13.0864 6.15389 13.3167 6.15389 13.5567ZM12.4903 13.5567C12.4903 13.7968 12.395 14.0271 12.2252 14.1968C12.0554 14.3666 11.8252 14.4619 11.5851 14.4619C11.3451 14.4619 11.1148 14.3666 10.9451 14.1968C10.7753 14.0271 10.6799 13.7968 10.6799 13.5567C10.6799 13.3167 10.7753 13.0864 10.9451 12.9167C11.1148 12.7469 11.3451 12.6515 11.5851 12.6515C11.8252 12.6515 12.0554 12.7469 12.2252 12.9167C12.395 13.0864 12.4903 13.3167 12.4903 13.5567Z" fill="#363330"/>
</svg>
