<svg width="31" height="33" viewBox="0 0 31 33" fill="none" xmlns="http://www.w3.org/2000/svg">
<path d="M27.2186 28.8059C26.9822 28.0323 26.6599 27.1727 26.2731 26.3132C25.8863 25.4536 25.435 24.5726 24.9407 23.6915C24.8763 23.799 24.8118 23.9279 24.7259 24.0353C24.6614 24.1428 24.5754 24.2717 24.511 24.3792C24.425 24.4866 24.3605 24.5941 24.2746 24.7015C24.1886 24.8089 24.1027 24.9164 24.0167 25.0238L23.9952 25.0453L23.9737 25.0668L23.9523 25.0883L23.9308 25.1098L23.8448 25.1957C23.9093 25.3891 23.9952 25.6255 24.1027 25.8834C24.1886 26.1413 24.2961 26.4206 24.382 26.6785C24.468 26.9363 24.5325 27.1942 24.5539 27.3876C24.5754 27.581 24.5754 27.7529 24.4895 27.8174C24.468 27.8389 24.4465 27.8604 24.4035 27.8819C24.382 27.9033 24.3391 27.9248 24.2961 27.9248C24.2531 27.9463 24.2316 27.9463 24.1886 27.9463C24.1457 27.9463 24.1027 27.9463 24.0597 27.9463C23.9952 27.9463 23.9093 27.9248 23.8233 27.9248C23.7374 27.9033 23.6514 27.8819 23.5655 27.8604C23.4795 27.8389 23.3721 27.7959 23.2861 27.7529C23.1787 27.7099 23.0712 27.667 22.9638 27.624C22.8348 27.5595 22.6844 27.4951 22.534 27.4091C22.3836 27.3231 22.2331 27.2372 22.0827 27.1512C21.9323 27.0653 21.7604 26.9793 21.61 26.8719C21.4381 26.7644 21.2876 26.6785 21.1157 26.571C21.7604 25.9264 22.3836 25.2172 22.9423 24.4866C23.501 23.7345 24.0167 22.9609 24.468 22.1443C24.9193 21.3277 25.3061 20.4897 25.6284 19.6086C25.9507 18.7491 26.2086 17.8465 26.3805 16.944C26.7888 14.9026 26.7673 12.9901 26.3805 11.2924C26.0152 9.6163 25.3061 8.13356 24.3176 6.95167C23.3506 5.76978 22.1257 4.86725 20.7074 4.28705C19.3107 3.70685 17.699 3.47047 15.9799 3.57792C14.841 3.66387 13.7021 3.90025 12.6061 4.26556C11.5102 4.63087 10.4572 5.12512 9.44725 5.72681C8.43727 6.32849 7.47027 7.03763 6.58923 7.85421C5.6867 8.64929 4.87012 9.55183 4.11801 10.5188C3.92461 10.1535 3.7527 9.78821 3.62376 9.48736C3.49483 9.16503 3.38738 8.88567 3.34441 8.62781C3.27994 8.36994 3.25845 8.15505 3.27994 7.96165C3.30143 7.76825 3.3659 7.61783 3.45185 7.51038C3.47334 7.46741 3.51632 7.44592 3.58078 7.40294C3.62376 7.35996 3.68823 7.33847 3.7527 7.31698C3.81716 7.29549 3.90312 7.27401 3.98907 7.25252C4.07503 7.23103 4.16098 7.23103 4.24694 7.20954C4.35438 7.20954 4.46183 7.20954 4.56927 7.23103C4.67672 7.25252 4.78416 7.27401 4.9131 7.31698C5.02054 7.35996 5.14947 7.40294 5.25692 7.48889C5.36436 7.55336 5.4933 7.63932 5.60074 7.74676C5.70819 7.61783 5.83712 7.48889 5.94456 7.35996C6.0735 7.23103 6.18094 7.12358 6.30987 6.99465C6.43881 6.88721 6.56774 6.75827 6.69667 6.65083C6.82561 6.54338 6.97603 6.43594 7.12645 6.32849C7.14794 6.32849 7.14794 6.30701 7.16943 6.30701C7.19092 6.30701 7.19092 6.28552 7.21241 6.28552C7.2339 6.28552 7.2339 6.26403 7.25539 6.26403C7.27687 6.26403 7.27687 6.24254 7.29836 6.24254C7.0405 6.00616 6.76114 5.81276 6.48178 5.66234C6.20243 5.51192 5.90159 5.38298 5.60074 5.29703C5.2999 5.21107 4.99905 5.14661 4.69821 5.12512C4.39736 5.10363 4.11801 5.08214 3.83865 5.10363C3.64525 5.12512 3.47334 5.14661 3.30143 5.16809C3.12952 5.21107 2.9791 5.25405 2.82867 5.29703C2.67825 5.34001 2.54932 5.40447 2.44187 5.49043C2.33443 5.55489 2.22698 5.64085 2.16252 5.72681C1.92614 5.98467 1.79721 6.30701 1.73274 6.69381C1.66827 7.08061 1.68976 7.55336 1.79721 8.0691C1.90465 8.58483 2.07656 9.16503 2.31294 9.8097C2.57081 10.4329 2.87165 11.1205 3.27994 11.8511C3.02207 12.2594 2.76421 12.6677 2.52783 13.0975C2.29145 13.5273 2.07656 13.9571 1.88316 14.4083C1.68976 14.8596 1.49636 15.3109 1.34594 15.7836C1.17403 16.2564 1.0451 16.7291 0.916162 17.2019C0.443406 19.0284 0.292984 20.7905 0.443406 22.4237C0.593828 24.0783 1.06658 25.5825 1.8187 26.8934C2.57081 28.2257 3.62376 29.3216 4.9131 30.1382C6.22392 30.9548 7.79261 31.4705 9.57619 31.5779C10.1134 31.5994 10.6291 31.5994 11.1664 31.5565C11.7036 31.5135 12.2408 31.449 12.778 31.3416C13.3153 31.2341 13.8525 31.0837 14.3897 30.9118C14.9269 30.7399 15.4427 30.525 15.9799 30.2886L14.712 27.9033C14.3467 28.0538 13.9814 28.1827 13.5946 28.2901C13.2293 28.3976 12.8425 28.4835 12.4772 28.548C12.1119 28.6125 11.7251 28.6555 11.3598 28.6984C10.9945 28.7199 10.6077 28.7199 10.2423 28.7199C8.80259 28.6555 7.53474 28.2687 6.48178 27.624C5.42883 26.9793 4.56927 26.0983 3.9461 25.0453C3.32292 23.9924 2.93612 22.7675 2.7857 21.4352C2.63527 20.1244 2.74272 18.6846 3.12952 17.2019C3.51632 15.7191 4.1395 14.3224 4.93458 13.033C5.72967 11.7652 6.71816 10.6048 7.8141 9.61629C8.91003 8.62781 10.1349 7.81123 11.4242 7.20954C12.7351 6.60785 14.1103 6.24254 15.4856 6.15658C16.8824 6.07063 18.1717 6.30701 19.3107 6.77976C20.4496 7.27401 21.4381 8.02612 22.1902 8.97163C22.9638 9.93863 23.5225 11.142 23.8018 12.4958C24.0812 13.8711 24.0812 15.3968 23.7589 17.03C23.6084 17.7391 23.415 18.4482 23.1572 19.1359C22.8993 19.8235 22.5985 20.4897 22.2331 21.1343C21.8893 21.779 21.481 22.4022 21.0298 22.9824C20.6 23.5626 20.1057 24.1213 19.6115 24.637C19.6115 24.4651 19.633 24.2932 19.633 24.0998C19.633 23.9279 19.6545 23.7345 19.6545 23.5841C19.6545 23.4122 19.676 23.2617 19.676 23.1328C19.676 23.0039 19.676 22.8964 19.676 22.832C19.676 22.7675 19.676 22.703 19.6545 22.66C19.633 22.6171 19.633 22.5741 19.6115 22.5526C19.59 22.5311 19.5685 22.5096 19.547 22.5096C19.5255 22.4881 19.4826 22.4881 19.4611 22.4881C19.4396 22.4881 19.4181 22.4881 19.3966 22.4881C19.3751 22.4881 19.3536 22.4881 19.3321 22.5096C19.3107 22.5096 19.3107 22.5311 19.2892 22.5311H19.2677L14.841 23.9709C14.841 23.9709 14.798 23.9924 14.755 24.0138C14.712 24.0353 14.6476 24.0783 14.6046 24.1213C14.5616 24.1858 14.5186 24.2502 14.4971 24.3362C14.4971 24.4221 14.5186 24.5511 14.5831 24.7015C14.5831 24.7015 14.5831 24.723 14.6046 24.723C14.6046 24.723 14.6046 24.7445 14.6261 24.7445C14.6261 24.7445 14.6261 24.766 14.6476 24.766C14.6476 24.766 14.6476 24.7875 14.6691 24.7875C14.8625 25.1957 15.1418 25.733 15.4856 26.3347C15.808 26.9578 16.1733 27.6455 16.5386 28.3116C16.9039 28.9993 17.2692 29.6654 17.5915 30.2456C17.9139 30.8258 18.1717 31.3201 18.3437 31.6209C18.3651 31.6424 18.3651 31.6639 18.3866 31.7069C18.4081 31.7284 18.4081 31.7499 18.4296 31.7713C18.4511 31.7928 18.4511 31.8143 18.4511 31.8358C18.4511 31.8573 18.4726 31.8788 18.4726 31.8788C18.5156 31.9647 18.5585 32.0292 18.6015 32.0722C18.6445 32.1367 18.6875 32.1796 18.709 32.2011C18.7519 32.2441 18.7734 32.2656 18.8164 32.2871C18.8594 32.3086 18.8809 32.3086 18.9024 32.3086C18.9668 32.3086 19.0098 32.2871 19.0528 32.2656C19.0958 32.2441 19.1387 32.1796 19.1602 32.1367C19.1817 32.0937 19.2247 32.0292 19.2462 31.9862C19.2677 31.9433 19.2677 31.8788 19.2892 31.8358C19.2892 31.8143 19.2892 31.8143 19.2892 31.7928C19.2892 31.7713 19.2892 31.7499 19.2892 31.7069C19.2892 31.6854 19.2892 31.6424 19.2892 31.6209C19.2892 31.5779 19.2892 31.5565 19.2892 31.5135C19.2892 31.3631 19.3107 31.1911 19.3107 31.0192C19.3107 30.8473 19.3321 30.6539 19.3321 30.482C19.3321 30.3101 19.3536 30.1597 19.3536 30.0522C19.3536 29.9448 19.3751 29.8588 19.3751 29.8588C19.9768 30.2241 20.6 30.568 21.1802 30.9118C21.7819 31.2341 22.3621 31.5565 22.9423 31.8143C23.501 32.0722 24.0597 32.3086 24.5539 32.459C25.0482 32.6309 25.5209 32.7169 25.9077 32.7598C25.9722 32.7598 26.0152 32.7598 26.0797 32.7598C26.1226 32.7598 26.1871 32.7598 26.2301 32.7598C26.2731 32.7598 26.3375 32.7598 26.3805 32.7383C26.4235 32.7383 26.4665 32.7169 26.5309 32.7169C26.5954 32.6954 26.6599 32.6954 26.7243 32.6739C26.7888 32.6524 26.8533 32.6309 26.9177 32.5879C26.9822 32.5664 27.0252 32.5235 27.0896 32.4805C27.1326 32.4375 27.1971 32.3945 27.2401 32.3515C27.5194 32.0507 27.6483 31.5779 27.6483 30.9763C27.6483 30.3961 27.4979 29.6869 27.283 28.8918L27.2186 28.8059Z" fill="#929392"/>
<path d="M11.2092 13.7C11.5316 13.7 11.768 13.786 11.9614 13.9579C12.1548 14.1298 12.2407 14.3662 12.2407 14.6885C12.2407 15.0109 12.1333 15.2687 11.9399 15.4406C11.725 15.6125 11.4671 15.72 11.1233 15.72C10.3497 15.72 9.96289 15.3762 9.96289 14.71H8.82397V14.796C8.82397 15.4191 9.03886 15.8919 9.44715 16.2142C9.85544 16.5581 10.4142 16.7085 11.1233 16.7085C11.768 16.7085 12.3052 16.5366 12.7564 16.1713C13.2077 15.8274 13.4226 15.3117 13.4226 14.6885C13.4226 14.4736 13.3796 14.2587 13.3152 14.0653C13.2507 13.8719 13.1647 13.7215 13.1003 13.6141C13.0143 13.5066 12.9284 13.3992 12.8209 13.3347C12.7135 13.2488 12.6275 13.2058 12.5845 13.1843C12.5416 13.1628 12.4986 13.1413 12.4771 13.1413L12.563 13.0983C12.6275 13.0769 12.692 13.0124 12.7779 12.9264C12.8639 12.8405 12.9498 12.7545 13.0143 12.6471C13.1003 12.5396 13.1647 12.3892 13.2292 12.2173C13.2937 12.0454 13.3152 11.852 13.3152 11.6586C13.3152 11.0784 13.1218 10.6271 12.735 10.3048C12.3482 9.98246 11.8109 9.81055 11.1448 9.81055C10.4786 9.81055 9.96289 9.96097 9.5546 10.3048C9.14631 10.6271 8.95291 11.0784 8.95291 11.6586V11.7231H10.0703C10.0703 11.4007 10.1778 11.1643 10.3497 11.0139C10.5431 10.8635 10.801 10.7775 11.1448 10.7775C11.4886 10.7775 11.768 10.8635 11.9399 11.0139C12.1118 11.1858 12.2192 11.4007 12.2192 11.6801C12.2192 11.9809 12.1333 12.2388 11.9399 12.4107C11.7465 12.5826 11.5101 12.6686 11.2092 12.6686H10.0703V13.6571L11.2737 13.6785L11.2092 13.7ZM18.8378 16.6225V15.5696H16.0872L17.6774 14.0009C18.1072 13.5926 18.408 13.2058 18.5799 12.862C18.7518 12.5181 18.8378 12.1528 18.8378 11.7875C18.8378 11.1858 18.6444 10.6916 18.2791 10.3693C17.8923 10.0254 17.3766 9.85352 16.6889 9.85352C16.0013 9.85352 15.464 10.0254 15.0558 10.3693C14.6475 10.7131 14.4541 11.1858 14.4541 11.809V11.8735H15.593C15.593 11.2073 15.9368 10.8635 16.6674 10.8635C17.3551 10.8635 17.6989 11.1858 17.6989 11.8305C17.6989 12.0884 17.6344 12.3247 17.527 12.5611C17.4195 12.7975 17.2046 13.0554 16.9253 13.3347L14.6045 15.5911V16.644H18.8808L18.8378 16.6225Z" fill="#929392"/>
<path d="M10.3285 22.2745V17.2246H9.49043V21.0711L7.49196 17.2246H6.24561V22.2745H7.08367V18.4495L9.10363 22.2745H10.3285ZM12.0906 21.8017C12.0906 21.6728 12.0476 21.5869 11.9617 21.5009C11.8757 21.4364 11.7683 21.3935 11.6178 21.3935C11.4889 21.3935 11.3815 21.4364 11.2955 21.5009C11.2095 21.5654 11.1666 21.6728 11.1666 21.8017V21.9522C11.1666 22.0811 11.2095 22.1671 11.2955 22.253C11.3815 22.3175 11.4889 22.3605 11.6393 22.3605C11.7897 22.3605 11.8972 22.3175 11.9831 22.253C12.0691 22.1885 12.1121 22.0811 12.1121 21.9522L12.0906 21.8017ZM15.8941 20.9207H15.099C15.099 21.3935 14.8412 21.6298 14.3469 21.6298C13.8527 21.6298 13.6163 21.372 13.6163 20.8777V20.1256C13.6163 19.6099 13.8527 19.3735 14.3469 19.3735C14.8412 19.3735 15.099 19.6099 15.099 20.0826H15.8941V20.0182C15.8941 19.5884 15.7652 19.2446 15.4858 19.0082C15.2065 18.7718 14.8412 18.6429 14.3684 18.6429C13.8957 18.6429 13.5303 18.7718 13.251 19.0082C12.9716 19.2661 12.8212 19.6099 12.8212 20.0397V20.9207C12.8212 21.3505 12.9716 21.6943 13.251 21.9522C13.5303 22.1885 13.8957 22.3175 14.3684 22.3175C14.8412 22.3175 15.228 22.21 15.5073 21.9737C15.7867 21.7373 15.9371 21.3935 15.9371 20.9637L15.9156 20.9207H15.8941ZM21.5672 22.2745V19.7603C21.5672 19.4165 21.4812 19.1586 21.3093 18.9652C21.1374 18.7718 20.8795 18.6859 20.5787 18.6859C20.2993 18.6859 20.02 18.7718 19.7621 18.9222L19.3753 19.1586C19.2249 18.8363 18.9455 18.6859 18.5373 18.6859C18.2794 18.6859 18.0215 18.7503 17.7851 18.9007L17.4628 19.0941V18.7288H16.6462V22.296H17.4628V19.8463L17.8926 19.5884C18.0645 19.5024 18.2149 19.4595 18.3224 19.4595C18.5802 19.4595 18.6877 19.6099 18.6877 19.9107V22.3175H19.5043V19.8677L19.934 19.6099C20.1059 19.5239 20.2564 19.4595 20.3638 19.4595C20.6217 19.4595 20.7506 19.6099 20.7506 19.8892V22.3175H21.5672V22.2745Z" fill="#929392"/>
<path d="M23.8448 12.776C27.24 12.776 30.0121 10.0255 30.0121 6.60872C30.0121 3.19198 27.2615 0.441406 23.8448 0.441406C20.4281 0.441406 17.6775 3.19198 17.6775 6.60872C17.6775 10.004 20.4281 12.776 23.8448 12.776Z" fill="#929392"/>
<path d="M23.8448 12.776C27.24 12.776 30.0121 10.0255 30.0121 6.60872C30.0121 3.19198 27.2615 0.441406 23.8448 0.441406C20.4281 0.441406 17.6775 3.19198 17.6775 6.60872C17.6775 10.004 20.4281 12.776 23.8448 12.776Z" stroke="white" stroke-width="0.623178"/>
<path d="M26.0366 10.1322V9.46608H24.5324V3.57812H23.7588C23.286 4.0079 22.8347 4.30875 22.3835 4.45917V5.1683C22.8777 5.08235 23.3505 4.82448 23.7802 4.3947V9.48757H21.8677V10.1537H26.0366V10.1322Z" fill="#FEFEFE"/>
</svg>
