<svg width="32" height="33" viewBox="0 0 32 33" fill="none" xmlns="http://www.w3.org/2000/svg">
<path d="M32 16.6641C32 16.6641 26 5.66406 16 5.66406C6 5.66406 0 16.6641 0 16.6641C0 16.6641 6 27.6641 16 27.6641C26 27.6641 32 16.6641 32 16.6641ZM2.346 16.6641C3.31303 15.1943 4.42528 13.8254 5.666 12.5781C8.24 10.0001 11.76 7.66406 16 7.66406C20.24 7.66406 23.758 10.0001 26.336 12.5781C27.5767 13.8254 28.689 15.1943 29.656 16.6641C29.54 16.8381 29.412 17.0301 29.266 17.2401C28.596 18.2001 27.606 19.4801 26.336 20.7501C23.758 23.3281 20.238 25.6641 16 25.6641C11.76 25.6641 8.242 23.3281 5.664 20.7501C4.42329 19.5027 3.31104 18.1338 2.344 16.6641H2.346Z" fill="white"/>
<path d="M16 11.6641C14.6739 11.6641 13.4021 12.1908 12.4645 13.1285C11.5268 14.0662 11 15.338 11 16.6641C11 17.9901 11.5268 19.2619 12.4645 20.1996C13.4021 21.1373 14.6739 21.6641 16 21.6641C17.3261 21.6641 18.5979 21.1373 19.5355 20.1996C20.4732 19.2619 21 17.9901 21 16.6641C21 15.338 20.4732 14.0662 19.5355 13.1285C18.5979 12.1908 17.3261 11.6641 16 11.6641ZM9 16.6641C9 14.8075 9.7375 13.0271 11.0503 11.7143C12.363 10.4016 14.1435 9.66406 16 9.66406C17.8565 9.66406 19.637 10.4016 20.9497 11.7143C22.2625 13.0271 23 14.8075 23 16.6641C23 18.5206 22.2625 20.3011 20.9497 21.6138C19.637 22.9266 17.8565 23.6641 16 23.6641C14.1435 23.6641 12.363 22.9266 11.0503 21.6138C9.7375 20.3011 9 18.5206 9 16.6641Z" fill="white"/>
</svg>
