<svg width="10" height="11" viewBox="0 0 10 11" fill="none" xmlns="http://www.w3.org/2000/svg">
<path d="M9.66355 5.28246C9.66355 6.55784 9.1569 7.78098 8.25507 8.68281C7.35324 9.58464 6.1301 10.0913 4.85472 10.0913C3.57934 10.0913 2.3562 9.58464 1.45437 8.68281C0.552541 7.78098 0.0458984 6.55784 0.0458984 5.28246C0.0458984 4.00708 0.552541 2.78393 1.45437 1.8821C2.3562 0.980275 3.57934 0.473633 4.85472 0.473633C6.1301 0.473633 7.35324 0.980275 8.25507 1.8821C9.1569 2.78393 9.66355 4.00708 9.66355 5.28246ZM7.27717 3.46111C7.23423 3.41833 7.1831 3.38464 7.12685 3.36206C7.07059 3.33949 7.01036 3.32849 6.94976 3.32972C6.88916 3.33096 6.82942 3.3444 6.77413 3.36925C6.71884 3.3941 6.66913 3.42984 6.62798 3.47434L4.54035 6.13422L3.28224 4.87551C3.19677 4.79588 3.08374 4.75252 2.96694 4.75458C2.85015 4.75664 2.73871 4.80396 2.65611 4.88656C2.57352 4.96916 2.5262 5.08059 2.52414 5.19739C2.52208 5.31418 2.56543 5.42722 2.64507 5.51268L4.23559 7.1038C4.27843 7.14657 4.32946 7.18027 4.38561 7.20289C4.44177 7.22552 4.5019 7.2366 4.56243 7.23547C4.62296 7.23435 4.68265 7.22105 4.73793 7.19636C4.7932 7.17167 4.84294 7.1361 4.88418 7.09178L7.28378 4.09227C7.36559 4.00722 7.41078 3.89347 7.40965 3.77547C7.40853 3.65746 7.36118 3.5446 7.27777 3.46111H7.27717Z" fill="#7B3972"/>
</svg>
