<svg width="10" height="10" viewBox="0 0 10 10" fill="none" xmlns="http://www.w3.org/2000/svg">
<path d="M9.66355 4.87718C9.66355 6.15256 9.1569 7.37571 8.25507 8.27753C7.35324 9.17936 6.1301 9.68601 4.85472 9.68601C3.57934 9.68601 2.3562 9.17936 1.45437 8.27753C0.552541 7.37571 0.0458984 6.15256 0.0458984 4.87718C0.0458984 3.6018 0.552541 2.37866 1.45437 1.47683C2.3562 0.575002 3.57934 0.0683594 4.85472 0.0683594C6.1301 0.0683594 7.35324 0.575002 8.25507 1.47683C9.1569 2.37866 9.66355 3.6018 9.66355 4.87718ZM7.27717 3.05584C7.23423 3.01305 7.1831 2.97936 7.12685 2.95679C7.07059 2.93421 7.01036 2.92321 6.94976 2.92445C6.88916 2.92568 6.82942 2.93913 6.77413 2.96397C6.71884 2.98882 6.66913 3.02456 6.62798 3.06907L4.54035 5.72895L3.28224 4.47024C3.19677 4.3906 3.08374 4.34725 2.96694 4.34931C2.85015 4.35137 2.73871 4.39868 2.65611 4.48128C2.57352 4.56388 2.5262 4.67532 2.52414 4.79211C2.52208 4.90891 2.56543 5.02194 2.64507 5.10741L4.23559 6.69852C4.27843 6.74129 4.32946 6.775 4.38561 6.79762C4.44177 6.82024 4.5019 6.83132 4.56243 6.8302C4.62296 6.82908 4.68265 6.81578 4.73793 6.79109C4.7932 6.7664 4.84294 6.73083 4.88418 6.6865L7.28378 3.687C7.36559 3.60194 7.41078 3.4882 7.40965 3.37019C7.40853 3.25219 7.36118 3.13932 7.27777 3.05584H7.27717Z" fill="#7B3972"/>
</svg>
