<svg width="10" height="11" viewBox="0 0 10 11" fill="none" xmlns="http://www.w3.org/2000/svg">
<path d="M9.66355 5.68871C9.66355 6.96409 9.1569 8.18723 8.25507 9.08906C7.35324 9.99089 6.1301 10.4975 4.85472 10.4975C3.57934 10.4975 2.3562 9.99089 1.45437 9.08906C0.552541 8.18723 0.0458984 6.96409 0.0458984 5.68871C0.0458984 4.41333 0.552541 3.19018 1.45437 2.28835C2.3562 1.38653 3.57934 0.879883 4.85472 0.879883C6.1301 0.879883 7.35324 1.38653 8.25507 2.28835C9.1569 3.19018 9.66355 4.41333 9.66355 5.68871ZM7.27717 3.86736C7.23423 3.82458 7.1831 3.79089 7.12685 3.76831C7.07059 3.74574 7.01036 3.73474 6.94976 3.73597C6.88916 3.73721 6.82942 3.75065 6.77413 3.7755C6.71884 3.80035 6.66913 3.83609 6.62798 3.88059L4.54035 6.54047L3.28224 5.28176C3.19677 5.20213 3.08374 5.15877 2.96694 5.16083C2.85015 5.16289 2.73871 5.21021 2.65611 5.29281C2.57352 5.37541 2.5262 5.48684 2.52414 5.60364C2.52208 5.72043 2.56543 5.83347 2.64507 5.91893L4.23559 7.51005C4.27843 7.55282 4.32946 7.58652 4.38561 7.60914C4.44177 7.63177 4.5019 7.64285 4.56243 7.64172C4.62296 7.6406 4.68265 7.6273 4.73793 7.60261C4.7932 7.57792 4.84294 7.54235 4.88418 7.49803L7.28378 4.49852C7.36559 4.41347 7.41078 4.29972 7.40965 4.18172C7.40853 4.06371 7.36118 3.95085 7.27777 3.86736H7.27717Z" fill="#7B3972"/>
</svg>
