<svg width="11" height="11" viewBox="0 0 11 11" fill="none" xmlns="http://www.w3.org/2000/svg">
<path d="M10.353 5.28246C10.353 6.55784 9.84636 7.78098 8.94453 8.68281C8.0427 9.58464 6.81955 10.0913 5.54418 10.0913C4.2688 10.0913 3.04565 9.58464 2.14382 8.68281C1.24199 7.78098 0.735352 6.55784 0.735352 5.28246C0.735352 4.00708 1.24199 2.78393 2.14382 1.8821C3.04565 0.980275 4.2688 0.473633 5.54418 0.473633C6.81955 0.473633 8.0427 0.980275 8.94453 1.8821C9.84636 2.78393 10.353 4.00708 10.353 5.28246ZM7.96662 3.46111C7.92368 3.41833 7.87256 3.38464 7.8163 3.36206C7.76005 3.33949 7.69982 3.32849 7.63921 3.32972C7.57861 3.33096 7.51888 3.3444 7.46359 3.36925C7.4083 3.3941 7.35859 3.42984 7.31743 3.47434L5.2298 6.13422L3.97169 4.87551C3.88623 4.79588 3.77319 4.75252 3.6564 4.75458C3.5396 4.75664 3.42817 4.80396 3.34557 4.88656C3.26297 4.96916 3.21565 5.08059 3.21359 5.19739C3.21153 5.31418 3.25489 5.42722 3.33452 5.51268L4.92504 7.1038C4.96789 7.14657 5.01891 7.18027 5.07506 7.20289C5.13122 7.22552 5.19136 7.2366 5.25189 7.23547C5.31242 7.23435 5.3721 7.22105 5.42738 7.19636C5.48266 7.17167 5.5324 7.1361 5.57363 7.09178L7.97323 4.09227C8.05504 4.00722 8.10023 3.89347 8.09911 3.77547C8.09798 3.65746 8.05063 3.5446 7.96722 3.46111H7.96662Z" fill="#7B3972"/>
</svg>
