<svg width="10" height="11" viewBox="0 0 10 11" fill="none" xmlns="http://www.w3.org/2000/svg">
<path d="M9.81882 5.47093C9.81882 6.74631 9.31218 7.96946 8.41035 8.87128C7.50852 9.77311 6.28537 10.2798 5.01 10.2798C3.73462 10.2798 2.51147 9.77311 1.60964 8.87128C0.707814 7.96946 0.201172 6.74631 0.201172 5.47093C0.201172 4.19555 0.707814 2.97241 1.60964 2.07058C2.51147 1.16875 3.73462 0.662109 5.01 0.662109C6.28537 0.662109 7.50852 1.16875 8.41035 2.07058C9.31218 2.97241 9.81882 4.19555 9.81882 5.47093ZM7.43244 3.64959C7.3895 3.6068 7.33838 3.57311 7.28212 3.55054C7.22587 3.52796 7.16564 3.51696 7.10503 3.5182C7.04443 3.51943 6.9847 3.53288 6.92941 3.55772C6.87412 3.58257 6.82441 3.61831 6.78325 3.66282L4.69562 6.3227L3.43751 5.06399C3.35205 4.98435 3.23901 4.941 3.12222 4.94306C3.00542 4.94512 2.89399 4.99243 2.81139 5.07503C2.72879 5.15763 2.68147 5.26907 2.67941 5.38586C2.67735 5.50266 2.72071 5.61569 2.80034 5.70116L4.39086 7.29227C4.43371 7.33504 4.48473 7.36875 4.54088 7.39137C4.59704 7.41399 4.65718 7.42507 4.71771 7.42395C4.77824 7.42283 4.83792 7.40953 4.8932 7.38484C4.94848 7.36015 4.99822 7.32458 5.03945 7.28025L7.43905 4.28075C7.52086 4.19569 7.56605 4.08195 7.56493 3.96394C7.5638 3.84594 7.51645 3.73307 7.43304 3.64959H7.43244Z" fill="#7B3972"/>
</svg>
