<svg width="11" height="11" viewBox="0 0 11 11" fill="none" xmlns="http://www.w3.org/2000/svg">
<path d="M10.1977 5.47093C10.1977 6.74631 9.69108 7.96946 8.78925 8.87128C7.88742 9.77311 6.66428 10.2798 5.3889 10.2798C4.11352 10.2798 2.89038 9.77311 1.98855 8.87128C1.08672 7.96946 0.580078 6.74631 0.580078 5.47093C0.580078 4.19555 1.08672 2.97241 1.98855 2.07058C2.89038 1.16875 4.11352 0.662109 5.3889 0.662109C6.66428 0.662109 7.88742 1.16875 8.78925 2.07058C9.69108 2.97241 10.1977 4.19555 10.1977 5.47093ZM7.81135 3.64959C7.76841 3.6068 7.71728 3.57311 7.66103 3.55054C7.60477 3.52796 7.54454 3.51696 7.48394 3.5182C7.42334 3.51943 7.3636 3.53288 7.30831 3.55772C7.25302 3.58257 7.20331 3.61831 7.16216 3.66282L5.07452 6.3227L3.81642 5.06399C3.73095 4.98435 3.61792 4.941 3.50112 4.94306C3.38433 4.94512 3.27289 4.99243 3.19029 5.07503C3.1077 5.15763 3.06038 5.26907 3.05832 5.38586C3.05626 5.50266 3.09961 5.61569 3.17925 5.70116L4.76977 7.29227C4.81261 7.33504 4.86364 7.36875 4.91979 7.39137C4.97595 7.41399 5.03608 7.42507 5.09661 7.42395C5.15714 7.42283 5.21683 7.40953 5.27211 7.38484C5.32738 7.36015 5.37712 7.32458 5.41836 7.28025L7.81796 4.28075C7.89977 4.19569 7.94496 4.08195 7.94383 3.96394C7.94271 3.84594 7.89536 3.73307 7.81195 3.64959H7.81135Z" fill="#7B3972"/>
</svg>
