<svg width="11" height="11" viewBox="0 0 11 11" fill="none" xmlns="http://www.w3.org/2000/svg">
<path d="M10.0415 5.47093C10.0415 6.74631 9.53483 7.96946 8.633 8.87128C7.73117 9.77311 6.50803 10.2798 5.23265 10.2798C3.95727 10.2798 2.73413 9.77311 1.8323 8.87128C0.930471 7.96946 0.423828 6.74631 0.423828 5.47093C0.423828 4.19555 0.930471 2.97241 1.8323 2.07058C2.73413 1.16875 3.95727 0.662109 5.23265 0.662109C6.50803 0.662109 7.73117 1.16875 8.633 2.07058C9.53483 2.97241 10.0415 4.19555 10.0415 5.47093ZM7.6551 3.64959C7.61216 3.6068 7.56103 3.57311 7.50478 3.55054C7.44852 3.52796 7.38829 3.51696 7.32769 3.5182C7.26709 3.51943 7.20735 3.53288 7.15206 3.55772C7.09677 3.58257 7.04706 3.61831 7.00591 3.66282L4.91827 6.3227L3.66017 5.06399C3.5747 4.98435 3.46167 4.941 3.34487 4.94306C3.22808 4.94512 3.11664 4.99243 3.03404 5.07503C2.95145 5.15763 2.90413 5.26907 2.90207 5.38586C2.90001 5.50266 2.94336 5.61569 3.023 5.70116L4.61352 7.29227C4.65636 7.33504 4.70739 7.36875 4.76354 7.39137C4.8197 7.41399 4.87983 7.42507 4.94036 7.42395C5.00089 7.42283 5.06058 7.40953 5.11586 7.38484C5.17113 7.36015 5.22087 7.32458 5.26211 7.28025L7.66171 4.28075C7.74352 4.19569 7.78871 4.08195 7.78758 3.96394C7.78646 3.84594 7.73911 3.73307 7.6557 3.64959H7.6551Z" fill="#7B3972"/>
</svg>
