<svg width="10" height="10" viewBox="0 0 10 10" fill="none" xmlns="http://www.w3.org/2000/svg">
<path d="M9.8862 4.87718C9.8862 6.15256 9.37956 7.37571 8.47773 8.27753C7.5759 9.17936 6.35276 9.68601 5.07738 9.68601C3.802 9.68601 2.57886 9.17936 1.67703 8.27753C0.775197 7.37571 0.268555 6.15256 0.268555 4.87718C0.268555 3.6018 0.775197 2.37866 1.67703 1.47683C2.57886 0.575002 3.802 0.0683594 5.07738 0.0683594C6.35276 0.0683594 7.5759 0.575002 8.47773 1.47683C9.37956 2.37866 9.8862 3.6018 9.8862 4.87718ZM7.49982 3.05584C7.45689 3.01305 7.40576 2.97936 7.34951 2.95679C7.29325 2.93421 7.23302 2.92321 7.17242 2.92445C7.11181 2.92568 7.05208 2.93913 6.99679 2.96397C6.9415 2.98882 6.89179 3.02456 6.85063 3.06907L4.763 5.72895L3.50489 4.47024C3.41943 4.3906 3.3064 4.34725 3.1896 4.34931C3.07281 4.35137 2.96137 4.39868 2.87877 4.48128C2.79617 4.56388 2.74886 4.67532 2.7468 4.79211C2.74474 4.90891 2.78809 5.02194 2.86772 5.10741L4.45824 6.69852C4.50109 6.74129 4.55211 6.775 4.60827 6.79762C4.66442 6.82024 4.72456 6.83132 4.78509 6.8302C4.84562 6.82908 4.9053 6.81578 4.96058 6.79109C5.01586 6.7664 5.0656 6.73083 5.10683 6.6865L7.50644 3.687C7.58824 3.60194 7.63343 3.4882 7.63231 3.37019C7.63119 3.25219 7.58384 3.13932 7.50042 3.05584H7.49982Z" fill="#7B3972"/>
</svg>
