<svg width="11" height="11" viewBox="0 0 11 11" fill="none" xmlns="http://www.w3.org/2000/svg">
<path d="M10.1977 5.68871C10.1977 6.96409 9.69108 8.18723 8.78925 9.08906C7.88742 9.99089 6.66428 10.4975 5.3889 10.4975C4.11352 10.4975 2.89038 9.99089 1.98855 9.08906C1.08672 8.18723 0.580078 6.96409 0.580078 5.68871C0.580078 4.41333 1.08672 3.19018 1.98855 2.28835C2.89038 1.38653 4.11352 0.879883 5.3889 0.879883C6.66428 0.879883 7.88742 1.38653 8.78925 2.28835C9.69108 3.19018 10.1977 4.41333 10.1977 5.68871ZM7.81135 3.86736C7.76841 3.82458 7.71728 3.79089 7.66103 3.76831C7.60477 3.74574 7.54454 3.73474 7.48394 3.73597C7.42334 3.73721 7.3636 3.75065 7.30831 3.7755C7.25302 3.80035 7.20331 3.83609 7.16216 3.88059L5.07452 6.54047L3.81642 5.28176C3.73095 5.20213 3.61792 5.15877 3.50112 5.16083C3.38433 5.16289 3.27289 5.21021 3.19029 5.29281C3.1077 5.37541 3.06038 5.48684 3.05832 5.60364C3.05626 5.72043 3.09961 5.83347 3.17925 5.91893L4.76977 7.51005C4.81261 7.55282 4.86364 7.58652 4.91979 7.60914C4.97595 7.63177 5.03608 7.64285 5.09661 7.64172C5.15714 7.6406 5.21683 7.6273 5.27211 7.60261C5.32738 7.57792 5.37712 7.54235 5.41836 7.49803L7.81796 4.49852C7.89977 4.41347 7.94496 4.29972 7.94383 4.18172C7.94271 4.06371 7.89536 3.95085 7.81195 3.86736H7.81135Z" fill="#7B3972"/>
</svg>
