<svg width="11" height="10" viewBox="0 0 11 10" fill="none" xmlns="http://www.w3.org/2000/svg">
<path d="M10.353 4.87718C10.353 6.15256 9.84636 7.37571 8.94453 8.27753C8.0427 9.17936 6.81955 9.68601 5.54418 9.68601C4.2688 9.68601 3.04565 9.17936 2.14382 8.27753C1.24199 7.37571 0.735352 6.15256 0.735352 4.87718C0.735352 3.6018 1.24199 2.37866 2.14382 1.47683C3.04565 0.575002 4.2688 0.0683594 5.54418 0.0683594C6.81955 0.0683594 8.0427 0.575002 8.94453 1.47683C9.84636 2.37866 10.353 3.6018 10.353 4.87718ZM7.96662 3.05584C7.92368 3.01305 7.87256 2.97936 7.8163 2.95679C7.76005 2.93421 7.69982 2.92321 7.63921 2.92445C7.57861 2.92568 7.51888 2.93913 7.46359 2.96397C7.4083 2.98882 7.35859 3.02456 7.31743 3.06907L5.2298 5.72895L3.97169 4.47024C3.88623 4.3906 3.77319 4.34725 3.6564 4.34931C3.5396 4.35137 3.42817 4.39868 3.34557 4.48128C3.26297 4.56388 3.21565 4.67532 3.21359 4.79211C3.21153 4.90891 3.25489 5.02194 3.33452 5.10741L4.92504 6.69852C4.96789 6.74129 5.01891 6.775 5.07506 6.79762C5.13122 6.82024 5.19136 6.83132 5.25189 6.8302C5.31242 6.82908 5.3721 6.81578 5.42738 6.79109C5.48266 6.7664 5.5324 6.73083 5.57363 6.6865L7.97323 3.687C8.05504 3.60194 8.10023 3.4882 8.09911 3.37019C8.09798 3.25219 8.05063 3.13932 7.96722 3.05584H7.96662Z" fill="#7B3972"/>
</svg>
