<svg width="11" height="11" viewBox="0 0 11 11" fill="none" xmlns="http://www.w3.org/2000/svg">
<path d="M10.5083 5.47093C10.5083 6.74631 10.0016 7.96946 9.0998 8.87128C8.19797 9.77311 6.97483 10.2798 5.69945 10.2798C4.42407 10.2798 3.20093 9.77311 2.2991 8.87128C1.39727 7.96946 0.890625 6.74631 0.890625 5.47093C0.890625 4.19555 1.39727 2.97241 2.2991 2.07058C3.20093 1.16875 4.42407 0.662109 5.69945 0.662109C6.97483 0.662109 8.19797 1.16875 9.0998 2.07058C10.0016 2.97241 10.5083 4.19555 10.5083 5.47093ZM8.12189 3.64959C8.07896 3.6068 8.02783 3.57311 7.97158 3.55054C7.91532 3.52796 7.85509 3.51696 7.79449 3.5182C7.73388 3.51943 7.67415 3.53288 7.61886 3.55772C7.56357 3.58257 7.51386 3.61831 7.4727 3.66282L5.38507 6.3227L4.12696 5.06399C4.0415 4.98435 3.92847 4.941 3.81167 4.94306C3.69488 4.94512 3.58344 4.99243 3.50084 5.07503C3.41824 5.15763 3.37093 5.26907 3.36887 5.38586C3.36681 5.50266 3.41016 5.61569 3.48979 5.70116L5.08031 7.29227C5.12316 7.33504 5.17418 7.36875 5.23034 7.39137C5.28649 7.41399 5.34663 7.42507 5.40716 7.42395C5.46769 7.42283 5.52737 7.40953 5.58265 7.38484C5.63793 7.36015 5.68767 7.32458 5.7289 7.28025L8.12851 4.28075C8.21031 4.19569 8.2555 4.08195 8.25438 3.96394C8.25326 3.84594 8.20591 3.73307 8.12249 3.64959H8.12189Z" fill="#7B3972"/>
</svg>
