<svg width="10" height="11" viewBox="0 0 10 11" fill="none" xmlns="http://www.w3.org/2000/svg">
<path d="M9.8862 5.68871C9.8862 6.96409 9.37956 8.18723 8.47773 9.08906C7.5759 9.99089 6.35276 10.4975 5.07738 10.4975C3.802 10.4975 2.57886 9.99089 1.67703 9.08906C0.775197 8.18723 0.268555 6.96409 0.268555 5.68871C0.268555 4.41333 0.775197 3.19018 1.67703 2.28835C2.57886 1.38653 3.802 0.879883 5.07738 0.879883C6.35276 0.879883 7.5759 1.38653 8.47773 2.28835C9.37956 3.19018 9.8862 4.41333 9.8862 5.68871ZM7.49982 3.86736C7.45689 3.82458 7.40576 3.79089 7.34951 3.76831C7.29325 3.74574 7.23302 3.73474 7.17242 3.73597C7.11181 3.73721 7.05208 3.75065 6.99679 3.7755C6.9415 3.80035 6.89179 3.83609 6.85063 3.88059L4.763 6.54047L3.50489 5.28176C3.41943 5.20213 3.3064 5.15877 3.1896 5.16083C3.07281 5.16289 2.96137 5.21021 2.87877 5.29281C2.79617 5.37541 2.74886 5.48684 2.7468 5.60364C2.74474 5.72043 2.78809 5.83347 2.86772 5.91893L4.45824 7.51005C4.50109 7.55282 4.55211 7.58652 4.60827 7.60914C4.66442 7.63177 4.72456 7.64285 4.78509 7.64172C4.84562 7.6406 4.9053 7.6273 4.96058 7.60261C5.01586 7.57792 5.0656 7.54235 5.10683 7.49803L7.50644 4.49852C7.58824 4.41347 7.63343 4.29972 7.63231 4.18172C7.63119 4.06371 7.58384 3.95085 7.50042 3.86736H7.49982Z" fill="#7B3972"/>
</svg>
