<svg width="10" height="10" viewBox="0 0 10 10" fill="none" xmlns="http://www.w3.org/2000/svg">
<path d="M9.81882 4.87718C9.81882 6.15256 9.31218 7.37571 8.41035 8.27753C7.50852 9.17936 6.28537 9.68601 5.01 9.68601C3.73462 9.68601 2.51147 9.17936 1.60964 8.27753C0.707814 7.37571 0.201172 6.15256 0.201172 4.87718C0.201172 3.6018 0.707814 2.37866 1.60964 1.47683C2.51147 0.575002 3.73462 0.0683594 5.01 0.0683594C6.28537 0.0683594 7.50852 0.575002 8.41035 1.47683C9.31218 2.37866 9.81882 3.6018 9.81882 4.87718ZM7.43244 3.05584C7.3895 3.01305 7.33838 2.97936 7.28212 2.95679C7.22587 2.93421 7.16564 2.92321 7.10503 2.92445C7.04443 2.92568 6.9847 2.93913 6.92941 2.96397C6.87412 2.98882 6.82441 3.02456 6.78325 3.06907L4.69562 5.72895L3.43751 4.47024C3.35205 4.3906 3.23901 4.34725 3.12222 4.34931C3.00542 4.35137 2.89399 4.39868 2.81139 4.48128C2.72879 4.56388 2.68147 4.67532 2.67941 4.79211C2.67735 4.90891 2.72071 5.02194 2.80034 5.10741L4.39086 6.69852C4.43371 6.74129 4.48473 6.775 4.54088 6.79762C4.59704 6.82024 4.65718 6.83132 4.71771 6.8302C4.77824 6.82908 4.83792 6.81578 4.8932 6.79109C4.94848 6.7664 4.99822 6.73083 5.03945 6.6865L7.43905 3.687C7.52086 3.60194 7.56605 3.4882 7.56493 3.37019C7.5638 3.25219 7.51645 3.13932 7.43304 3.05584H7.43244Z" fill="#7B3972"/>
</svg>
