<svg width="10" height="11" viewBox="0 0 10 11" fill="none" xmlns="http://www.w3.org/2000/svg">
<path d="M9.66355 5.47093C9.66355 6.74631 9.1569 7.96946 8.25507 8.87128C7.35324 9.77311 6.1301 10.2798 4.85472 10.2798C3.57934 10.2798 2.3562 9.77311 1.45437 8.87128C0.552541 7.96946 0.0458984 6.74631 0.0458984 5.47093C0.0458984 4.19555 0.552541 2.97241 1.45437 2.07058C2.3562 1.16875 3.57934 0.662109 4.85472 0.662109C6.1301 0.662109 7.35324 1.16875 8.25507 2.07058C9.1569 2.97241 9.66355 4.19555 9.66355 5.47093ZM7.27717 3.64959C7.23423 3.6068 7.1831 3.57311 7.12685 3.55054C7.07059 3.52796 7.01036 3.51696 6.94976 3.5182C6.88916 3.51943 6.82942 3.53288 6.77413 3.55772C6.71884 3.58257 6.66913 3.61831 6.62798 3.66282L4.54035 6.3227L3.28224 5.06399C3.19677 4.98435 3.08374 4.941 2.96694 4.94306C2.85015 4.94512 2.73871 4.99243 2.65611 5.07503C2.57352 5.15763 2.5262 5.26907 2.52414 5.38586C2.52208 5.50266 2.56543 5.61569 2.64507 5.70116L4.23559 7.29227C4.27843 7.33504 4.32946 7.36875 4.38561 7.39137C4.44177 7.41399 4.5019 7.42507 4.56243 7.42395C4.62296 7.42283 4.68265 7.40953 4.73793 7.38484C4.7932 7.36015 4.84294 7.32458 4.88418 7.28025L7.28378 4.28075C7.36559 4.19569 7.41078 4.08195 7.40965 3.96394C7.40853 3.84594 7.36118 3.73307 7.27777 3.64959H7.27717Z" fill="#7B3972"/>
</svg>
