<svg width="11" height="11" viewBox="0 0 11 11" fill="none" xmlns="http://www.w3.org/2000/svg">
<path d="M10.0415 5.28246C10.0415 6.55784 9.53483 7.78098 8.633 8.68281C7.73117 9.58464 6.50803 10.0913 5.23265 10.0913C3.95727 10.0913 2.73413 9.58464 1.8323 8.68281C0.930471 7.78098 0.423828 6.55784 0.423828 5.28246C0.423828 4.00708 0.930471 2.78393 1.8323 1.8821C2.73413 0.980275 3.95727 0.473633 5.23265 0.473633C6.50803 0.473633 7.73117 0.980275 8.633 1.8821C9.53483 2.78393 10.0415 4.00708 10.0415 5.28246ZM7.6551 3.46111C7.61216 3.41833 7.56103 3.38464 7.50478 3.36206C7.44852 3.33949 7.38829 3.32849 7.32769 3.32972C7.26709 3.33096 7.20735 3.3444 7.15206 3.36925C7.09677 3.3941 7.04706 3.42984 7.00591 3.47434L4.91827 6.13422L3.66017 4.87551C3.5747 4.79588 3.46167 4.75252 3.34487 4.75458C3.22808 4.75664 3.11664 4.80396 3.03404 4.88656C2.95145 4.96916 2.90413 5.08059 2.90207 5.19739C2.90001 5.31418 2.94336 5.42722 3.023 5.51268L4.61352 7.1038C4.65636 7.14657 4.70739 7.18027 4.76354 7.20289C4.8197 7.22552 4.87983 7.2366 4.94036 7.23547C5.00089 7.23435 5.06058 7.22105 5.11586 7.19636C5.17113 7.17167 5.22087 7.1361 5.26211 7.09178L7.66171 4.09227C7.74352 4.00722 7.78871 3.89347 7.78758 3.77547C7.78646 3.65746 7.73911 3.5446 7.6557 3.46111H7.6551Z" fill="#7B3972"/>
</svg>
