<svg width="10" height="11" viewBox="0 0 10 11" fill="none" xmlns="http://www.w3.org/2000/svg">
<path d="M9.8862 5.47093C9.8862 6.74631 9.37956 7.96946 8.47773 8.87128C7.5759 9.77311 6.35276 10.2798 5.07738 10.2798C3.802 10.2798 2.57886 9.77311 1.67703 8.87128C0.775197 7.96946 0.268555 6.74631 0.268555 5.47093C0.268555 4.19555 0.775197 2.97241 1.67703 2.07058C2.57886 1.16875 3.802 0.662109 5.07738 0.662109C6.35276 0.662109 7.5759 1.16875 8.47773 2.07058C9.37956 2.97241 9.8862 4.19555 9.8862 5.47093ZM7.49982 3.64959C7.45689 3.6068 7.40576 3.57311 7.34951 3.55054C7.29325 3.52796 7.23302 3.51696 7.17242 3.5182C7.11181 3.51943 7.05208 3.53288 6.99679 3.55772C6.9415 3.58257 6.89179 3.61831 6.85063 3.66282L4.763 6.3227L3.50489 5.06399C3.41943 4.98435 3.3064 4.941 3.1896 4.94306C3.07281 4.94512 2.96137 4.99243 2.87877 5.07503C2.79617 5.15763 2.74886 5.26907 2.7468 5.38586C2.74474 5.50266 2.78809 5.61569 2.86772 5.70116L4.45824 7.29227C4.50109 7.33504 4.55211 7.36875 4.60827 7.39137C4.66442 7.41399 4.72456 7.42507 4.78509 7.42395C4.84562 7.42283 4.9053 7.40953 4.96058 7.38484C5.01586 7.36015 5.0656 7.32458 5.10683 7.28025L7.50644 4.28075C7.58824 4.19569 7.63343 4.08195 7.63231 3.96394C7.63119 3.84594 7.58384 3.73307 7.50042 3.64959H7.49982Z" fill="#7B3972"/>
</svg>
