<svg width="11" height="11" viewBox="0 0 11 11" fill="none" xmlns="http://www.w3.org/2000/svg">
<path d="M10.353 5.68871C10.353 6.96409 9.84636 8.18723 8.94453 9.08906C8.0427 9.99089 6.81955 10.4975 5.54418 10.4975C4.2688 10.4975 3.04565 9.99089 2.14382 9.08906C1.24199 8.18723 0.735352 6.96409 0.735352 5.68871C0.735352 4.41333 1.24199 3.19018 2.14382 2.28835C3.04565 1.38653 4.2688 0.879883 5.54418 0.879883C6.81955 0.879883 8.0427 1.38653 8.94453 2.28835C9.84636 3.19018 10.353 4.41333 10.353 5.68871ZM7.96662 3.86736C7.92368 3.82458 7.87256 3.79089 7.8163 3.76831C7.76005 3.74574 7.69982 3.73474 7.63921 3.73597C7.57861 3.73721 7.51888 3.75065 7.46359 3.7755C7.4083 3.80035 7.35859 3.83609 7.31743 3.88059L5.2298 6.54047L3.97169 5.28176C3.88623 5.20213 3.77319 5.15877 3.6564 5.16083C3.5396 5.16289 3.42817 5.21021 3.34557 5.29281C3.26297 5.37541 3.21565 5.48684 3.21359 5.60364C3.21153 5.72043 3.25489 5.83347 3.33452 5.91893L4.92504 7.51005C4.96789 7.55282 5.01891 7.58652 5.07506 7.60914C5.13122 7.63177 5.19136 7.64285 5.25189 7.64172C5.31242 7.6406 5.3721 7.6273 5.42738 7.60261C5.48266 7.57792 5.5324 7.54235 5.57363 7.49803L7.97323 4.49852C8.05504 4.41347 8.10023 4.29972 8.09911 4.18172C8.09798 4.06371 8.05063 3.95085 7.96722 3.86736H7.96662Z" fill="#7B3972"/>
</svg>
