<svg width="11" height="11" viewBox="0 0 11 11" fill="none" xmlns="http://www.w3.org/2000/svg">
<path d="M10.5083 5.68871C10.5083 6.96409 10.0016 8.18723 9.0998 9.08906C8.19797 9.99089 6.97483 10.4975 5.69945 10.4975C4.42407 10.4975 3.20093 9.99089 2.2991 9.08906C1.39727 8.18723 0.890625 6.96409 0.890625 5.68871C0.890625 4.41333 1.39727 3.19018 2.2991 2.28835C3.20093 1.38653 4.42407 0.879883 5.69945 0.879883C6.97483 0.879883 8.19797 1.38653 9.0998 2.28835C10.0016 3.19018 10.5083 4.41333 10.5083 5.68871ZM8.12189 3.86736C8.07896 3.82458 8.02783 3.79089 7.97158 3.76831C7.91532 3.74574 7.85509 3.73474 7.79449 3.73597C7.73388 3.73721 7.67415 3.75065 7.61886 3.7755C7.56357 3.80035 7.51386 3.83609 7.4727 3.88059L5.38507 6.54047L4.12696 5.28176C4.0415 5.20213 3.92847 5.15877 3.81167 5.16083C3.69488 5.16289 3.58344 5.21021 3.50084 5.29281C3.41824 5.37541 3.37093 5.48684 3.36887 5.60364C3.36681 5.72043 3.41016 5.83347 3.48979 5.91893L5.08031 7.51005C5.12316 7.55282 5.17418 7.58652 5.23034 7.60914C5.28649 7.63177 5.34663 7.64285 5.40716 7.64172C5.46769 7.6406 5.52737 7.6273 5.58265 7.60261C5.63793 7.57792 5.68767 7.54235 5.7289 7.49803L8.12851 4.49852C8.21031 4.41347 8.2555 4.29972 8.25438 4.18172C8.25326 4.06371 8.20591 3.95085 8.12249 3.86736H8.12189Z" fill="#7B3972"/>
</svg>
