<svg width="10" height="11" viewBox="0 0 10 11" fill="none" xmlns="http://www.w3.org/2000/svg">
<path d="M9.81882 5.68871C9.81882 6.96409 9.31218 8.18723 8.41035 9.08906C7.50852 9.99089 6.28537 10.4975 5.01 10.4975C3.73462 10.4975 2.51147 9.99089 1.60964 9.08906C0.707814 8.18723 0.201172 6.96409 0.201172 5.68871C0.201172 4.41333 0.707814 3.19018 1.60964 2.28835C2.51147 1.38653 3.73462 0.879883 5.01 0.879883C6.28537 0.879883 7.50852 1.38653 8.41035 2.28835C9.31218 3.19018 9.81882 4.41333 9.81882 5.68871ZM7.43244 3.86736C7.3895 3.82458 7.33838 3.79089 7.28212 3.76831C7.22587 3.74574 7.16564 3.73474 7.10503 3.73597C7.04443 3.73721 6.9847 3.75065 6.92941 3.7755C6.87412 3.80035 6.82441 3.83609 6.78325 3.88059L4.69562 6.54047L3.43751 5.28176C3.35205 5.20213 3.23901 5.15877 3.12222 5.16083C3.00542 5.16289 2.89399 5.21021 2.81139 5.29281C2.72879 5.37541 2.68147 5.48684 2.67941 5.60364C2.67735 5.72043 2.72071 5.83347 2.80034 5.91893L4.39086 7.51005C4.43371 7.55282 4.48473 7.58652 4.54088 7.60914C4.59704 7.63177 4.65718 7.64285 4.71771 7.64172C4.77824 7.6406 4.83792 7.6273 4.8932 7.60261C4.94848 7.57792 4.99822 7.54235 5.03945 7.49803L7.43905 4.49852C7.52086 4.41347 7.56605 4.29972 7.56493 4.18172C7.5638 4.06371 7.51645 3.95085 7.43304 3.86736H7.43244Z" fill="#7B3972"/>
</svg>
