<svg width="11" height="11" viewBox="0 0 11 11" fill="none" xmlns="http://www.w3.org/2000/svg">
<path d="M10.0415 5.68871C10.0415 6.96409 9.53483 8.18723 8.633 9.08906C7.73117 9.99089 6.50803 10.4975 5.23265 10.4975C3.95727 10.4975 2.73413 9.99089 1.8323 9.08906C0.930471 8.18723 0.423828 6.96409 0.423828 5.68871C0.423828 4.41333 0.930471 3.19018 1.8323 2.28835C2.73413 1.38653 3.95727 0.879883 5.23265 0.879883C6.50803 0.879883 7.73117 1.38653 8.633 2.28835C9.53483 3.19018 10.0415 4.41333 10.0415 5.68871ZM7.6551 3.86736C7.61216 3.82458 7.56103 3.79089 7.50478 3.76831C7.44852 3.74574 7.38829 3.73474 7.32769 3.73597C7.26709 3.73721 7.20735 3.75065 7.15206 3.7755C7.09677 3.80035 7.04706 3.83609 7.00591 3.88059L4.91827 6.54047L3.66017 5.28176C3.5747 5.20213 3.46167 5.15877 3.34487 5.16083C3.22808 5.16289 3.11664 5.21021 3.03404 5.29281C2.95145 5.37541 2.90413 5.48684 2.90207 5.60364C2.90001 5.72043 2.94336 5.83347 3.023 5.91893L4.61352 7.51005C4.65636 7.55282 4.70739 7.58652 4.76354 7.60914C4.8197 7.63177 4.87983 7.64285 4.94036 7.64172C5.00089 7.6406 5.06058 7.6273 5.11586 7.60261C5.17113 7.57792 5.22087 7.54235 5.26211 7.49803L7.66171 4.49852C7.74352 4.41347 7.78871 4.29972 7.78758 4.18172C7.78646 4.06371 7.73911 3.95085 7.6557 3.86736H7.6551Z" fill="#7B3972"/>
</svg>
