<svg width="11" height="11" viewBox="0 0 11 11" fill="none" xmlns="http://www.w3.org/2000/svg">
<path d="M10.1977 5.28246C10.1977 6.55784 9.69108 7.78098 8.78925 8.68281C7.88742 9.58464 6.66428 10.0913 5.3889 10.0913C4.11352 10.0913 2.89038 9.58464 1.98855 8.68281C1.08672 7.78098 0.580078 6.55784 0.580078 5.28246C0.580078 4.00708 1.08672 2.78393 1.98855 1.8821C2.89038 0.980275 4.11352 0.473633 5.3889 0.473633C6.66428 0.473633 7.88742 0.980275 8.78925 1.8821C9.69108 2.78393 10.1977 4.00708 10.1977 5.28246ZM7.81135 3.46111C7.76841 3.41833 7.71728 3.38464 7.66103 3.36206C7.60477 3.33949 7.54454 3.32849 7.48394 3.32972C7.42334 3.33096 7.3636 3.3444 7.30831 3.36925C7.25302 3.3941 7.20331 3.42984 7.16216 3.47434L5.07452 6.13422L3.81642 4.87551C3.73095 4.79588 3.61792 4.75252 3.50112 4.75458C3.38433 4.75664 3.27289 4.80396 3.19029 4.88656C3.1077 4.96916 3.06038 5.08059 3.05832 5.19739C3.05626 5.31418 3.09961 5.42722 3.17925 5.51268L4.76977 7.1038C4.81261 7.14657 4.86364 7.18027 4.91979 7.20289C4.97595 7.22552 5.03608 7.2366 5.09661 7.23547C5.15714 7.23435 5.21683 7.22105 5.27211 7.19636C5.32738 7.17167 5.37712 7.1361 5.41836 7.09178L7.81796 4.09227C7.89977 4.00722 7.94496 3.89347 7.94383 3.77547C7.94271 3.65746 7.89536 3.5446 7.81195 3.46111H7.81135Z" fill="#7B3972"/>
</svg>
