<svg width="11" height="11" viewBox="0 0 11 11" fill="none" xmlns="http://www.w3.org/2000/svg">
<path d="M10.5083 5.28246C10.5083 6.55784 10.0016 7.78098 9.0998 8.68281C8.19797 9.58464 6.97483 10.0913 5.69945 10.0913C4.42407 10.0913 3.20093 9.58464 2.2991 8.68281C1.39727 7.78098 0.890625 6.55784 0.890625 5.28246C0.890625 4.00708 1.39727 2.78393 2.2991 1.8821C3.20093 0.980275 4.42407 0.473633 5.69945 0.473633C6.97483 0.473633 8.19797 0.980275 9.0998 1.8821C10.0016 2.78393 10.5083 4.00708 10.5083 5.28246ZM8.12189 3.46111C8.07896 3.41833 8.02783 3.38464 7.97158 3.36206C7.91532 3.33949 7.85509 3.32849 7.79449 3.32972C7.73388 3.33096 7.67415 3.3444 7.61886 3.36925C7.56357 3.3941 7.51386 3.42984 7.4727 3.47434L5.38507 6.13422L4.12696 4.87551C4.0415 4.79588 3.92847 4.75252 3.81167 4.75458C3.69488 4.75664 3.58344 4.80396 3.50084 4.88656C3.41824 4.96916 3.37093 5.08059 3.36887 5.19739C3.36681 5.31418 3.41016 5.42722 3.48979 5.51268L5.08031 7.1038C5.12316 7.14657 5.17418 7.18027 5.23034 7.20289C5.28649 7.22552 5.34663 7.2366 5.40716 7.23547C5.46769 7.23435 5.52737 7.22105 5.58265 7.19636C5.63793 7.17167 5.68767 7.1361 5.7289 7.09178L8.12851 4.09227C8.21031 4.00722 8.2555 3.89347 8.25438 3.77547C8.25326 3.65746 8.20591 3.5446 8.12249 3.46111H8.12189Z" fill="#7B3972"/>
</svg>
