<svg width="11" height="11" viewBox="0 0 11 11" fill="none" xmlns="http://www.w3.org/2000/svg">
<path d="M10.353 5.47093C10.353 6.74631 9.84636 7.96946 8.94453 8.87128C8.0427 9.77311 6.81955 10.2798 5.54418 10.2798C4.2688 10.2798 3.04565 9.77311 2.14382 8.87128C1.24199 7.96946 0.735352 6.74631 0.735352 5.47093C0.735352 4.19555 1.24199 2.97241 2.14382 2.07058C3.04565 1.16875 4.2688 0.662109 5.54418 0.662109C6.81955 0.662109 8.0427 1.16875 8.94453 2.07058C9.84636 2.97241 10.353 4.19555 10.353 5.47093ZM7.96662 3.64959C7.92368 3.6068 7.87256 3.57311 7.8163 3.55054C7.76005 3.52796 7.69982 3.51696 7.63921 3.5182C7.57861 3.51943 7.51888 3.53288 7.46359 3.55772C7.4083 3.58257 7.35859 3.61831 7.31743 3.66282L5.2298 6.3227L3.97169 5.06399C3.88623 4.98435 3.77319 4.941 3.6564 4.94306C3.5396 4.94512 3.42817 4.99243 3.34557 5.07503C3.26297 5.15763 3.21565 5.26907 3.21359 5.38586C3.21153 5.50266 3.25489 5.61569 3.33452 5.70116L4.92504 7.29227C4.96789 7.33504 5.01891 7.36875 5.07506 7.39137C5.13122 7.41399 5.19136 7.42507 5.25189 7.42395C5.31242 7.42283 5.3721 7.40953 5.42738 7.38484C5.48266 7.36015 5.5324 7.32458 5.57363 7.28025L7.97323 4.28075C8.05504 4.19569 8.10023 4.08195 8.09911 3.96394C8.09798 3.84594 8.05063 3.73307 7.96722 3.64959H7.96662Z" fill="#7B3972"/>
</svg>
