<svg width="11" height="10" viewBox="0 0 11 10" fill="none" xmlns="http://www.w3.org/2000/svg">
<path d="M10.1977 4.87718C10.1977 6.15256 9.69108 7.37571 8.78925 8.27753C7.88742 9.17936 6.66428 9.68601 5.3889 9.68601C4.11352 9.68601 2.89038 9.17936 1.98855 8.27753C1.08672 7.37571 0.580078 6.15256 0.580078 4.87718C0.580078 3.6018 1.08672 2.37866 1.98855 1.47683C2.89038 0.575002 4.11352 0.0683594 5.3889 0.0683594C6.66428 0.0683594 7.88742 0.575002 8.78925 1.47683C9.69108 2.37866 10.1977 3.6018 10.1977 4.87718ZM7.81135 3.05584C7.76841 3.01305 7.71728 2.97936 7.66103 2.95679C7.60477 2.93421 7.54454 2.92321 7.48394 2.92445C7.42334 2.92568 7.3636 2.93913 7.30831 2.96397C7.25302 2.98882 7.20331 3.02456 7.16216 3.06907L5.07452 5.72895L3.81642 4.47024C3.73095 4.3906 3.61792 4.34725 3.50112 4.34931C3.38433 4.35137 3.27289 4.39868 3.19029 4.48128C3.1077 4.56388 3.06038 4.67532 3.05832 4.79211C3.05626 4.90891 3.09961 5.02194 3.17925 5.10741L4.76977 6.69852C4.81261 6.74129 4.86364 6.775 4.91979 6.79762C4.97595 6.82024 5.03608 6.83132 5.09661 6.8302C5.15714 6.82908 5.21683 6.81578 5.27211 6.79109C5.32738 6.7664 5.37712 6.73083 5.41836 6.6865L7.81796 3.687C7.89977 3.60194 7.94496 3.4882 7.94383 3.37019C7.94271 3.25219 7.89536 3.13932 7.81195 3.05584H7.81135Z" fill="#7B3972"/>
</svg>
