<svg width="10" height="11" viewBox="0 0 10 11" fill="none" xmlns="http://www.w3.org/2000/svg">
<path d="M9.8862 5.28246C9.8862 6.55784 9.37956 7.78098 8.47773 8.68281C7.5759 9.58464 6.35276 10.0913 5.07738 10.0913C3.802 10.0913 2.57886 9.58464 1.67703 8.68281C0.775197 7.78098 0.268555 6.55784 0.268555 5.28246C0.268555 4.00708 0.775197 2.78393 1.67703 1.8821C2.57886 0.980275 3.802 0.473633 5.07738 0.473633C6.35276 0.473633 7.5759 0.980275 8.47773 1.8821C9.37956 2.78393 9.8862 4.00708 9.8862 5.28246ZM7.49982 3.46111C7.45689 3.41833 7.40576 3.38464 7.34951 3.36206C7.29325 3.33949 7.23302 3.32849 7.17242 3.32972C7.11181 3.33096 7.05208 3.3444 6.99679 3.36925C6.9415 3.3941 6.89179 3.42984 6.85063 3.47434L4.763 6.13422L3.50489 4.87551C3.41943 4.79588 3.3064 4.75252 3.1896 4.75458C3.07281 4.75664 2.96137 4.80396 2.87877 4.88656C2.79617 4.96916 2.74886 5.08059 2.7468 5.19739C2.74474 5.31418 2.78809 5.42722 2.86772 5.51268L4.45824 7.1038C4.50109 7.14657 4.55211 7.18027 4.60827 7.20289C4.66442 7.22552 4.72456 7.2366 4.78509 7.23547C4.84562 7.23435 4.9053 7.22105 4.96058 7.19636C5.01586 7.17167 5.0656 7.1361 5.10683 7.09178L7.50644 4.09227C7.58824 4.00722 7.63343 3.89347 7.63231 3.77547C7.63119 3.65746 7.58384 3.5446 7.50042 3.46111H7.49982Z" fill="#7B3972"/>
</svg>
