<svg width="11" height="10" viewBox="0 0 11 10" fill="none" xmlns="http://www.w3.org/2000/svg">
<path d="M10.5083 4.87718C10.5083 6.15256 10.0016 7.37571 9.0998 8.27753C8.19797 9.17936 6.97483 9.68601 5.69945 9.68601C4.42407 9.68601 3.20093 9.17936 2.2991 8.27753C1.39727 7.37571 0.890625 6.15256 0.890625 4.87718C0.890625 3.6018 1.39727 2.37866 2.2991 1.47683C3.20093 0.575002 4.42407 0.0683594 5.69945 0.0683594C6.97483 0.0683594 8.19797 0.575002 9.0998 1.47683C10.0016 2.37866 10.5083 3.6018 10.5083 4.87718ZM8.12189 3.05584C8.07896 3.01305 8.02783 2.97936 7.97158 2.95679C7.91532 2.93421 7.85509 2.92321 7.79449 2.92445C7.73388 2.92568 7.67415 2.93913 7.61886 2.96397C7.56357 2.98882 7.51386 3.02456 7.4727 3.06907L5.38507 5.72895L4.12696 4.47024C4.0415 4.3906 3.92847 4.34725 3.81167 4.34931C3.69488 4.35137 3.58344 4.39868 3.50084 4.48128C3.41824 4.56388 3.37093 4.67532 3.36887 4.79211C3.36681 4.90891 3.41016 5.02194 3.48979 5.10741L5.08031 6.69852C5.12316 6.74129 5.17418 6.775 5.23034 6.79762C5.28649 6.82024 5.34663 6.83132 5.40716 6.8302C5.46769 6.82908 5.52737 6.81578 5.58265 6.79109C5.63793 6.7664 5.68767 6.73083 5.7289 6.6865L8.12851 3.687C8.21031 3.60194 8.2555 3.4882 8.25438 3.37019C8.25326 3.25219 8.20591 3.13932 8.12249 3.05584H8.12189Z" fill="#7B3972"/>
</svg>
