<svg width="11" height="10" viewBox="0 0 11 10" fill="none" xmlns="http://www.w3.org/2000/svg">
<path d="M10.0415 4.87718C10.0415 6.15256 9.53483 7.37571 8.633 8.27753C7.73117 9.17936 6.50803 9.68601 5.23265 9.68601C3.95727 9.68601 2.73413 9.17936 1.8323 8.27753C0.930471 7.37571 0.423828 6.15256 0.423828 4.87718C0.423828 3.6018 0.930471 2.37866 1.8323 1.47683C2.73413 0.575002 3.95727 0.0683594 5.23265 0.0683594C6.50803 0.0683594 7.73117 0.575002 8.633 1.47683C9.53483 2.37866 10.0415 3.6018 10.0415 4.87718ZM7.6551 3.05584C7.61216 3.01305 7.56103 2.97936 7.50478 2.95679C7.44852 2.93421 7.38829 2.92321 7.32769 2.92445C7.26709 2.92568 7.20735 2.93913 7.15206 2.96397C7.09677 2.98882 7.04706 3.02456 7.00591 3.06907L4.91827 5.72895L3.66017 4.47024C3.5747 4.3906 3.46167 4.34725 3.34487 4.34931C3.22808 4.35137 3.11664 4.39868 3.03404 4.48128C2.95145 4.56388 2.90413 4.67532 2.90207 4.79211C2.90001 4.90891 2.94336 5.02194 3.023 5.10741L4.61352 6.69852C4.65636 6.74129 4.70739 6.775 4.76354 6.79762C4.8197 6.82024 4.87983 6.83132 4.94036 6.8302C5.00089 6.82908 5.06058 6.81578 5.11586 6.79109C5.17113 6.7664 5.22087 6.73083 5.26211 6.6865L7.66171 3.687C7.74352 3.60194 7.78871 3.4882 7.78758 3.37019C7.78646 3.25219 7.73911 3.13932 7.6557 3.05584H7.6551Z" fill="#7B3972"/>
</svg>
