<svg width="10" height="11" viewBox="0 0 10 11" fill="none" xmlns="http://www.w3.org/2000/svg">
<path d="M9.81882 5.28246C9.81882 6.55784 9.31218 7.78098 8.41035 8.68281C7.50852 9.58464 6.28537 10.0913 5.01 10.0913C3.73462 10.0913 2.51147 9.58464 1.60964 8.68281C0.707814 7.78098 0.201172 6.55784 0.201172 5.28246C0.201172 4.00708 0.707814 2.78393 1.60964 1.8821C2.51147 0.980275 3.73462 0.473633 5.01 0.473633C6.28537 0.473633 7.50852 0.980275 8.41035 1.8821C9.31218 2.78393 9.81882 4.00708 9.81882 5.28246ZM7.43244 3.46111C7.3895 3.41833 7.33838 3.38464 7.28212 3.36206C7.22587 3.33949 7.16564 3.32849 7.10503 3.32972C7.04443 3.33096 6.9847 3.3444 6.92941 3.36925C6.87412 3.3941 6.82441 3.42984 6.78325 3.47434L4.69562 6.13422L3.43751 4.87551C3.35205 4.79588 3.23901 4.75252 3.12222 4.75458C3.00542 4.75664 2.89399 4.80396 2.81139 4.88656C2.72879 4.96916 2.68147 5.08059 2.67941 5.19739C2.67735 5.31418 2.72071 5.42722 2.80034 5.51268L4.39086 7.1038C4.43371 7.14657 4.48473 7.18027 4.54088 7.20289C4.59704 7.22552 4.65718 7.2366 4.71771 7.23547C4.77824 7.23435 4.83792 7.22105 4.8932 7.19636C4.94848 7.17167 4.99822 7.1361 5.03945 7.09178L7.43905 4.09227C7.52086 4.00722 7.56605 3.89347 7.56493 3.77547C7.5638 3.65746 7.51645 3.5446 7.43304 3.46111H7.43244Z" fill="#7B3972"/>
</svg>
