<svg width="17" height="17" viewBox="0 0 17 17" fill="none" xmlns="http://www.w3.org/2000/svg">
<path d="M8.50696 4.57031C8.63957 4.57031 8.76675 4.62299 8.86052 4.71676C8.95429 4.81053 9.00697 4.93772 9.00697 5.07033V8.07042H12.0071C12.1397 8.07042 12.2669 8.1231 12.3606 8.21687C12.4544 8.31064 12.5071 8.43782 12.5071 8.57043C12.5071 8.70305 12.4544 8.83023 12.3606 8.924C12.2669 9.01777 12.1397 9.07045 12.0071 9.07045H9.00697V12.0705C9.00697 12.2032 8.95429 12.3303 8.86052 12.4241C8.76675 12.5179 8.63957 12.5706 8.50696 12.5706C8.37435 12.5706 8.24716 12.5179 8.15339 12.4241C8.05962 12.3303 8.00694 12.2032 8.00694 12.0705V9.07045H5.00685C4.87424 9.07045 4.74706 9.01777 4.65329 8.924C4.55952 8.83023 4.50684 8.70305 4.50684 8.57043C4.50684 8.43782 4.55952 8.31064 4.65329 8.21687C4.74706 8.1231 4.87424 8.07042 5.00685 8.07042H8.00694V5.07033C8.00694 4.93772 8.05962 4.81053 8.15339 4.71676C8.24716 4.62299 8.37435 4.57031 8.50696 4.57031Z" fill="#CFCCC9"/>
</svg>
