<svg width="16" height="16" viewBox="0 0 16 16" fill="none" xmlns="http://www.w3.org/2000/svg">
<path d="M8.75352 5.55612C8.75352 5.43608 8.70584 5.32096 8.62096 5.23608C8.53608 5.1512 8.42096 5.10352 8.30092 5.10352C8.18088 5.10352 8.06576 5.1512 7.98088 5.23608C7.896 5.32096 7.84831 5.43608 7.84831 5.55612V6.91393H6.49051C6.37047 6.91393 6.25535 6.96161 6.17047 7.04649C6.08559 7.13137 6.0379 7.24649 6.0379 7.36653C6.0379 7.48657 6.08559 7.60169 6.17047 7.68657C6.25535 7.77145 6.37047 7.81913 6.49051 7.81913H7.84831V9.17694C7.84831 9.29698 7.896 9.4121 7.98088 9.49698C8.06576 9.58186 8.18088 9.62955 8.30092 9.62955C8.42096 9.62955 8.53608 9.58186 8.62096 9.49698C8.70584 9.4121 8.75352 9.29698 8.75352 9.17694V7.81913H10.1113C10.2314 7.81913 10.3465 7.77145 10.4314 7.68657C10.5162 7.60169 10.5639 7.48657 10.5639 7.36653C10.5639 7.24649 10.5162 7.13137 10.4314 7.04649C10.3465 6.96161 10.2314 6.91393 10.1113 6.91393H8.75352V5.55612Z" fill="#363330"/>
<path d="M1.05929 1.48242C0.939255 1.48242 0.824133 1.53011 0.739254 1.61499C0.654374 1.69987 0.606689 1.81499 0.606689 1.93502C0.606689 2.05506 0.654374 2.17018 0.739254 2.25506C0.824133 2.33994 0.939255 2.38763 1.05929 2.38763H2.06407L2.42706 3.84229L3.78306 11.0704C3.80247 11.1741 3.85752 11.2678 3.93867 11.3352C4.01983 11.4026 4.122 11.4396 4.22751 11.4397H5.13272C4.65257 11.4397 4.19208 11.6304 3.85256 11.9699C3.51305 12.3095 3.32231 12.7699 3.32231 13.2501C3.32231 13.7303 3.51305 14.1907 3.85256 14.5303C4.19208 14.8698 4.65257 15.0605 5.13272 15.0605C5.61287 15.0605 6.07336 14.8698 6.41287 14.5303C6.75239 14.1907 6.94313 13.7303 6.94313 13.2501C6.94313 12.7699 6.75239 12.3095 6.41287 11.9699C6.07336 11.6304 5.61287 11.4397 5.13272 11.4397H11.4692C10.989 11.4397 10.5285 11.6304 10.189 11.9699C9.84949 12.3095 9.65875 12.7699 9.65875 13.2501C9.65875 13.7303 9.84949 14.1907 10.189 14.5303C10.5285 14.8698 10.989 15.0605 11.4692 15.0605C11.9493 15.0605 12.4098 14.8698 12.7493 14.5303C13.0888 14.1907 13.2796 13.7303 13.2796 13.2501C13.2796 12.7699 13.0888 12.3095 12.7493 11.9699C12.4098 11.6304 11.9493 11.4397 11.4692 11.4397H12.3744C12.4799 11.4396 12.5821 11.4026 12.6632 11.3352C12.7444 11.2678 12.7994 11.1741 12.8188 11.0704L14.1766 3.82872C14.1889 3.76339 14.1866 3.69618 14.1699 3.63185C14.1532 3.56752 14.1226 3.50765 14.0801 3.4565C14.0377 3.40535 13.9845 3.36416 13.9244 3.33588C13.8643 3.30759 13.7986 3.2929 13.7322 3.29283H3.22273L2.85613 1.82549C2.83169 1.72754 2.77521 1.64056 2.69566 1.5784C2.61611 1.51623 2.51806 1.48245 2.4171 1.48242H1.05929ZM4.60317 10.5345L3.41464 4.19804H13.1872L11.9987 10.5345H4.60317ZM6.03793 13.2501C6.03793 13.4902 5.94256 13.7204 5.7728 13.8902C5.60304 14.0599 5.3728 14.1553 5.13272 14.1553C4.89264 14.1553 4.6624 14.0599 4.49264 13.8902C4.32288 13.7204 4.22751 13.4902 4.22751 13.2501C4.22751 13.01 4.32288 12.7798 4.49264 12.61C4.6624 12.4403 4.89264 12.3449 5.13272 12.3449C5.3728 12.3449 5.60304 12.4403 5.7728 12.61C5.94256 12.7798 6.03793 13.01 6.03793 13.2501ZM12.3744 13.2501C12.3744 13.4902 12.279 13.7204 12.1092 13.8902C11.9395 14.0599 11.7092 14.1553 11.4692 14.1553C11.2291 14.1553 10.9988 14.0599 10.8291 13.8902C10.6593 13.7204 10.564 13.4902 10.564 13.2501C10.564 13.01 10.6593 12.7798 10.8291 12.61C10.9988 12.4403 11.2291 12.3449 11.4692 12.3449C11.7092 12.3449 11.9395 12.4403 12.1092 12.61C12.279 12.7798 12.3744 13.01 12.3744 13.2501Z" fill="#363330"/>
</svg>
