<svg width="16" height="15" viewBox="0 0 16 15" fill="none" xmlns="http://www.w3.org/2000/svg">
<path d="M8.89109 5.41549C8.89109 5.29546 8.84341 5.18033 8.75853 5.09546C8.67365 5.01058 8.55853 4.96289 8.43849 4.96289C8.31845 4.96289 8.20333 5.01058 8.11845 5.09546C8.03357 5.18033 7.98589 5.29546 7.98589 5.41549V6.7733H6.62808C6.50804 6.7733 6.39292 6.82099 6.30804 6.90587C6.22316 6.99075 6.17548 7.10587 6.17548 7.22591C6.17548 7.34594 6.22316 7.46106 6.30804 7.54594C6.39292 7.63082 6.50804 7.67851 6.62808 7.67851H7.98589V9.03632C7.98589 9.15636 8.03357 9.27148 8.11845 9.35636C8.20333 9.44124 8.31845 9.48892 8.43849 9.48892C8.55853 9.48892 8.67365 9.44124 8.75853 9.35636C8.84341 9.27148 8.89109 9.15636 8.89109 9.03632V7.67851H10.2489C10.3689 7.67851 10.4841 7.63082 10.5689 7.54594C10.6538 7.46106 10.7015 7.34594 10.7015 7.22591C10.7015 7.10587 10.6538 6.99075 10.5689 6.90587C10.4841 6.82099 10.3689 6.7733 10.2489 6.7733H8.89109V5.41549Z" fill="#363330"/>
<path d="M1.19687 1.3418C1.07683 1.3418 0.961707 1.38948 0.876827 1.47436C0.791948 1.55924 0.744263 1.67436 0.744263 1.7944C0.744263 1.91444 0.791948 2.02956 0.876827 2.11444C0.961707 2.19932 1.07683 2.247 1.19687 2.247H2.20164L2.56463 3.70167L3.92063 10.9297C3.94005 11.0335 3.99509 11.1271 4.07625 11.1946C4.1574 11.262 4.25957 11.299 4.36509 11.2991H5.27029C4.79014 11.2991 4.32966 11.4898 3.99014 11.8293C3.65062 12.1688 3.45988 12.6293 3.45988 13.1095C3.45988 13.5896 3.65062 14.0501 3.99014 14.3896C4.32966 14.7291 4.79014 14.9199 5.27029 14.9199C5.75044 14.9199 6.21093 14.7291 6.55045 14.3896C6.88997 14.0501 7.0807 13.5896 7.0807 13.1095C7.0807 12.6293 6.88997 12.1688 6.55045 11.8293C6.21093 11.4898 5.75044 11.2991 5.27029 11.2991H11.6067C11.1266 11.2991 10.6661 11.4898 10.3266 11.8293C9.98706 12.1688 9.79632 12.6293 9.79632 13.1095C9.79632 13.5896 9.98706 14.0501 10.3266 14.3896C10.6661 14.7291 11.1266 14.9199 11.6067 14.9199C12.0869 14.9199 12.5474 14.7291 12.8869 14.3896C13.2264 14.0501 13.4171 13.5896 13.4171 13.1095C13.4171 12.6293 13.2264 12.1688 12.8869 11.8293C12.5474 11.4898 12.0869 11.2991 11.6067 11.2991H12.5119C12.6175 11.299 12.7196 11.262 12.8008 11.1946C12.8819 11.1271 12.937 11.0335 12.9564 10.9297L14.3142 3.68809C14.3264 3.62277 14.3241 3.55555 14.3074 3.49122C14.2908 3.42689 14.2601 3.36703 14.2177 3.31587C14.1753 3.26472 14.1221 3.22354 14.062 3.19525C14.0018 3.16697 13.9362 3.15227 13.8698 3.15221H3.36031L2.9937 1.68487C2.96927 1.58691 2.91279 1.49994 2.83323 1.43777C2.75368 1.37561 2.65563 1.34182 2.55467 1.3418H1.19687ZM4.74075 10.3939L3.55221 4.05742H13.3248L12.1363 10.3939H4.74075ZM6.1755 13.1095C6.1755 13.3496 6.08013 13.5798 5.91037 13.7496C5.74061 13.9193 5.51037 14.0147 5.27029 14.0147C5.03022 14.0147 4.79997 13.9193 4.63022 13.7496C4.46046 13.5798 4.36509 13.3496 4.36509 13.1095C4.36509 12.8694 4.46046 12.6392 4.63022 12.4694C4.79997 12.2996 5.03022 12.2043 5.27029 12.2043C5.51037 12.2043 5.74061 12.2996 5.91037 12.4694C6.08013 12.6392 6.1755 12.8694 6.1755 13.1095ZM12.5119 13.1095C12.5119 13.3496 12.4166 13.5798 12.2468 13.7496C12.0771 13.9193 11.8468 14.0147 11.6067 14.0147C11.3667 14.0147 11.1364 13.9193 10.9667 13.7496C10.7969 13.5798 10.7015 13.3496 10.7015 13.1095C10.7015 12.8694 10.7969 12.6392 10.9667 12.4694C11.1364 12.2996 11.3667 12.2043 11.6067 12.2043C11.8468 12.2043 12.0771 12.2996 12.2468 12.4694C12.4166 12.6392 12.5119 12.8694 12.5119 13.1095Z" fill="#363330"/>
</svg>
