<svg width="15" height="15" viewBox="0 0 15 15" fill="none" xmlns="http://www.w3.org/2000/svg">
<path d="M8.51915 5.02096C8.51915 4.90092 8.47146 4.7858 8.38658 4.70092C8.3017 4.61604 8.18658 4.56836 8.06654 4.56836C7.94651 4.56836 7.83138 4.61604 7.7465 4.70092C7.66162 4.7858 7.61394 4.90092 7.61394 5.02096V6.37877H6.25613C6.13609 6.37877 6.02097 6.42646 5.93609 6.51134C5.85121 6.59622 5.80353 6.71134 5.80353 6.83137C5.80353 6.95141 5.85121 7.06653 5.93609 7.15141C6.02097 7.23629 6.13609 7.28398 6.25613 7.28398H7.61394V8.64179C7.61394 8.76182 7.66162 8.87695 7.7465 8.96183C7.83138 9.04671 7.94651 9.09439 8.06654 9.09439C8.18658 9.09439 8.3017 9.04671 8.38658 8.96183C8.47146 8.87695 8.51915 8.76182 8.51915 8.64179V7.28398H9.87696C9.99699 7.28398 10.1121 7.23629 10.197 7.15141C10.2819 7.06653 10.3296 6.95141 10.3296 6.83137C10.3296 6.71134 10.2819 6.59622 10.197 6.51134C10.1121 6.42646 9.99699 6.37877 9.87696 6.37877H8.51915V5.02096Z" fill="#363330"/>
<path d="M0.824917 0.947266C0.70488 0.947266 0.589758 0.99495 0.504879 1.07983C0.419999 1.16471 0.372314 1.27983 0.372314 1.39987C0.372314 1.51991 0.419999 1.63503 0.504879 1.71991C0.589758 1.80479 0.70488 1.85247 0.824917 1.85247H1.8297L2.19268 3.30714L3.54868 10.5352C3.5681 10.6389 3.62314 10.7326 3.7043 10.8C3.78545 10.8675 3.88762 10.9044 3.99314 10.9045H4.89834C4.41819 10.9045 3.95771 11.0953 3.61819 11.4348C3.27867 11.7743 3.08793 12.2348 3.08793 12.7149C3.08793 13.1951 3.27867 13.6556 3.61819 13.9951C3.95771 14.3346 4.41819 14.5254 4.89834 14.5254C5.3785 14.5254 5.83898 14.3346 6.1785 13.9951C6.51802 13.6556 6.70876 13.1951 6.70876 12.7149C6.70876 12.2348 6.51802 11.7743 6.1785 11.4348C5.83898 11.0953 5.3785 10.9045 4.89834 10.9045H11.2348C10.7546 10.9045 10.2942 11.0953 9.95463 11.4348C9.61511 11.7743 9.42437 12.2348 9.42437 12.7149C9.42437 13.1951 9.61511 13.6556 9.95463 13.9951C10.2942 14.3346 10.7546 14.5254 11.2348 14.5254C11.7149 14.5254 12.1754 14.3346 12.5149 13.9951C12.8545 13.6556 13.0452 13.1951 13.0452 12.7149C13.0452 12.2348 12.8545 11.7743 12.5149 11.4348C12.1754 11.0953 11.7149 10.9045 11.2348 10.9045H12.14C12.2455 10.9044 12.3477 10.8675 12.4288 10.8C12.51 10.7326 12.565 10.6389 12.5844 10.5352L13.9423 3.29356C13.9545 3.22824 13.9522 3.16102 13.9355 3.09669C13.9188 3.03236 13.8882 2.9725 13.8458 2.92134C13.8033 2.87019 13.7502 2.82901 13.69 2.80072C13.6299 2.77243 13.5643 2.75774 13.4978 2.75768H2.98836L2.62175 1.29034C2.59732 1.19238 2.54084 1.1054 2.46129 1.04324C2.38174 0.981076 2.28369 0.947294 2.18273 0.947266H0.824917ZM4.3688 9.99933L3.18026 3.66288H12.9529L11.7643 9.99933H4.3688ZM5.80355 12.7149C5.80355 12.955 5.70818 13.1853 5.53842 13.355C5.36866 13.5248 5.13842 13.6201 4.89834 13.6201C4.65827 13.6201 4.42803 13.5248 4.25827 13.355C4.08851 13.1853 3.99314 12.955 3.99314 12.7149C3.99314 12.4749 4.08851 12.2446 4.25827 12.0749C4.42803 11.9051 4.65827 11.8097 4.89834 11.8097C5.13842 11.8097 5.36866 11.9051 5.53842 12.0749C5.70818 12.2446 5.80355 12.4749 5.80355 12.7149ZM12.14 12.7149C12.14 12.955 12.0446 13.1853 11.8749 13.355C11.7051 13.5248 11.4749 13.6201 11.2348 13.6201C10.9947 13.6201 10.7645 13.5248 10.5947 13.355C10.425 13.1853 10.3296 12.955 10.3296 12.7149C10.3296 12.4749 10.425 12.2446 10.5947 12.0749C10.7645 11.9051 10.9947 11.8097 11.2348 11.8097C11.4749 11.8097 11.7051 11.9051 11.8749 12.0749C12.0446 12.2446 12.14 12.4749 12.14 12.7149Z" fill="#363330"/>
</svg>
