<svg width="15" height="16" viewBox="0 0 15 16" fill="none" xmlns="http://www.w3.org/2000/svg">
<path d="M8.58079 5.80026C8.58079 5.68022 8.53311 5.5651 8.44823 5.48022C8.36335 5.39534 8.24823 5.34766 8.12819 5.34766C8.00815 5.34766 7.89303 5.39534 7.80815 5.48022C7.72327 5.5651 7.67559 5.68022 7.67559 5.80026V7.15807H6.31778C6.19774 7.15807 6.08262 7.20575 5.99774 7.29063C5.91286 7.37551 5.86517 7.49063 5.86517 7.61067C5.86517 7.73071 5.91286 7.84583 5.99774 7.93071C6.08262 8.01559 6.19774 8.06327 6.31778 8.06327H7.67559V9.42108C7.67559 9.54112 7.72327 9.65624 7.80815 9.74112C7.89303 9.826 8.00815 9.87369 8.12819 9.87369C8.24823 9.87369 8.36335 9.826 8.44823 9.74112C8.53311 9.65624 8.58079 9.54112 8.58079 9.42108V8.06327H9.9386C10.0586 8.06327 10.1738 8.01559 10.2586 7.93071C10.3435 7.84583 10.3912 7.73071 10.3912 7.61067C10.3912 7.49063 10.3435 7.37551 10.2586 7.29063C10.1738 7.20575 10.0586 7.15807 9.9386 7.15807H8.58079V5.80026Z" fill="#363330"/>
<path d="M0.886563 1.72656C0.766525 1.72656 0.651404 1.77425 0.566524 1.85913C0.481645 1.94401 0.43396 2.05913 0.43396 2.17917C0.43396 2.2992 0.481645 2.41432 0.566524 2.4992C0.651404 2.58408 0.766525 2.63177 0.886563 2.63177H1.89134L2.25433 4.08643L3.61033 11.3145C3.62974 11.4182 3.68479 11.5119 3.76594 11.5793C3.8471 11.6468 3.94927 11.6837 4.05478 11.6838H4.95999C4.47984 11.6838 4.01935 11.8746 3.67984 12.2141C3.34032 12.5536 3.14958 13.0141 3.14958 13.4942C3.14958 13.9744 3.34032 14.4349 3.67984 14.7744C4.01935 15.1139 4.47984 15.3047 4.95999 15.3047C5.44014 15.3047 5.90063 15.1139 6.24014 14.7744C6.57966 14.4349 6.7704 13.9744 6.7704 13.4942C6.7704 13.0141 6.57966 12.5536 6.24014 12.2141C5.90063 11.8746 5.44014 11.6838 4.95999 11.6838H11.2964C10.8163 11.6838 10.3558 11.8746 10.0163 12.2141C9.67676 12.5536 9.48602 13.0141 9.48602 13.4942C9.48602 13.9744 9.67676 14.4349 10.0163 14.7744C10.3558 15.1139 10.8163 15.3047 11.2964 15.3047C11.7766 15.3047 12.2371 15.1139 12.5766 14.7744C12.9161 14.4349 13.1068 13.9744 13.1068 13.4942C13.1068 13.0141 12.9161 12.5536 12.5766 12.2141C12.2371 11.8746 11.7766 11.6838 11.2964 11.6838H12.2016C12.3072 11.6837 12.4093 11.6468 12.4905 11.5793C12.5716 11.5119 12.6267 11.4182 12.6461 11.3145L14.0039 4.07286C14.0161 4.00753 14.0138 3.94032 13.9971 3.87599C13.9805 3.81166 13.9498 3.75179 13.9074 3.70064C13.865 3.64949 13.8118 3.6083 13.7517 3.58002C13.6915 3.55173 13.6259 3.53704 13.5594 3.53697H3.05001L2.6834 2.06964C2.65896 1.97168 2.60248 1.8847 2.52293 1.82254C2.44338 1.76037 2.34533 1.72659 2.24437 1.72656H0.886563ZM4.43044 10.7786L3.24191 4.44218H13.0145L11.826 10.7786H4.43044ZM5.8652 13.4942C5.8652 13.7343 5.76983 13.9646 5.60007 14.1343C5.43031 14.3041 5.20007 14.3994 4.95999 14.3994C4.71991 14.3994 4.48967 14.3041 4.31991 14.1343C4.15015 13.9646 4.05478 13.7343 4.05478 13.4942C4.05478 13.2542 4.15015 13.0239 4.31991 12.8542C4.48967 12.6844 4.71991 12.589 4.95999 12.589C5.20007 12.589 5.43031 12.6844 5.60007 12.8542C5.76983 13.0239 5.8652 13.2542 5.8652 13.4942ZM12.2016 13.4942C12.2016 13.7343 12.1063 13.9646 11.9365 14.1343C11.7668 14.3041 11.5365 14.3994 11.2964 14.3994C11.0564 14.3994 10.8261 14.3041 10.6564 14.1343C10.4866 13.9646 10.3912 13.7343 10.3912 13.4942C10.3912 13.2542 10.4866 13.0239 10.6564 12.8542C10.8261 12.6844 11.0564 12.589 11.2964 12.589C11.5365 12.589 11.7668 12.6844 11.9365 12.8542C12.1063 13.0239 12.2016 13.2542 12.2016 13.4942Z" fill="#363330"/>
</svg>
