<svg width="31" height="33" viewBox="0 0 31 33" fill="none" xmlns="http://www.w3.org/2000/svg">
<path d="M27.2912 28.9035C27.0548 28.1299 26.7325 27.2704 26.3457 26.4108C25.9589 25.5513 25.5076 24.6702 25.0134 23.7892C24.9489 23.8966 24.8844 24.0256 24.7985 24.133C24.734 24.2404 24.6481 24.3694 24.5836 24.4768C24.4976 24.5843 24.4332 24.6917 24.3472 24.7992C24.2613 24.9066 24.1753 25.014 24.0894 25.1215L24.0679 25.143L24.0464 25.1645L24.0249 25.186L24.0034 25.2074L23.9174 25.2934C23.9819 25.4868 24.0679 25.7232 24.1753 25.981C24.2613 26.2389 24.3687 26.5183 24.4547 26.7761C24.5406 27.034 24.6051 27.2919 24.6266 27.4853C24.6481 27.6787 24.6481 27.8506 24.5621 27.915C24.5406 27.9365 24.5191 27.958 24.4762 27.9795C24.4547 28.001 24.4117 28.0225 24.3687 28.0225C24.3257 28.044 24.3042 28.044 24.2613 28.044C24.2183 28.044 24.1753 28.044 24.1323 28.044C24.0679 28.044 23.9819 28.0225 23.896 28.0225C23.81 28.001 23.724 27.9795 23.6381 27.958C23.5521 27.9365 23.4447 27.8936 23.3587 27.8506C23.2513 27.8076 23.1438 27.7646 23.0364 27.7216C22.9075 27.6572 22.757 27.5927 22.6066 27.5068C22.4562 27.4208 22.3058 27.3348 22.1554 27.2489C22.0049 27.1629 21.833 27.077 21.6826 26.9695C21.5107 26.8621 21.3603 26.7761 21.1884 26.6687C21.833 26.024 22.4562 25.3149 23.0149 24.5843C23.5736 23.8322 24.0894 23.0586 24.5406 22.242C24.9919 21.4254 25.3787 20.5873 25.701 19.7063C26.0234 18.8467 26.2812 17.9442 26.4531 17.0417C26.8614 15.0002 26.8399 13.0877 26.4531 11.3901C26.0878 9.71395 25.3787 8.23122 24.3902 7.04933C23.4232 5.86744 22.1983 4.96491 20.7801 4.38471C19.3833 3.80451 17.7716 3.56813 16.0525 3.67557C14.9136 3.76153 13.7747 3.99791 12.6788 4.36322C11.5828 4.72853 10.5299 5.22277 9.51988 5.82446C8.50991 6.42615 7.54291 7.13528 6.66186 7.95186C5.75933 8.74695 4.94275 9.64948 4.19064 10.6165C3.99724 10.2512 3.82533 9.88586 3.69639 9.58502C3.56746 9.26268 3.46002 8.98333 3.41704 8.72546C3.35257 8.4676 3.33108 8.25271 3.35257 8.05931C3.37406 7.86591 3.43853 7.71548 3.52448 7.60804C3.54597 7.56506 3.58895 7.54357 3.65342 7.5006C3.69639 7.45762 3.76086 7.43613 3.82533 7.41464C3.88979 7.39315 3.97575 7.37166 4.06171 7.35017C4.14766 7.32868 4.23362 7.32868 4.31957 7.3072C4.42702 7.3072 4.53446 7.3072 4.64191 7.32868C4.74935 7.35017 4.85679 7.37166 4.98573 7.41464C5.09317 7.45762 5.22211 7.5006 5.32955 7.58655C5.43699 7.65102 5.56593 7.73697 5.67337 7.84442C5.78082 7.71548 5.90975 7.58655 6.01719 7.45762C6.14613 7.32868 6.25357 7.22124 6.38251 7.09231C6.51144 6.98486 6.64037 6.85593 6.76931 6.74848C6.89824 6.64104 7.04866 6.5336 7.19908 6.42615C7.22057 6.42615 7.22057 6.40466 7.24206 6.40466C7.26355 6.40466 7.26355 6.38317 7.28504 6.38317C7.30653 6.38317 7.30653 6.36168 7.32802 6.36168C7.34951 6.36168 7.34951 6.3402 7.371 6.3402C7.11313 6.10382 6.83377 5.91042 6.55442 5.76C6.27506 5.60957 5.97422 5.48064 5.67337 5.39468C5.37253 5.30873 5.07168 5.24426 4.77084 5.22277C4.46999 5.20128 4.19064 5.1798 3.91128 5.20128C3.71788 5.22277 3.54597 5.24426 3.37406 5.26575C3.20215 5.30873 3.05173 5.35171 2.9013 5.39468C2.75088 5.43766 2.62195 5.50213 2.5145 5.58808C2.40706 5.65255 2.29962 5.73851 2.23515 5.82446C1.99877 6.08233 1.86984 6.40466 1.80537 6.79146C1.7409 7.17826 1.76239 7.65102 1.86984 8.16675C1.97728 8.68248 2.14919 9.26268 2.38557 9.90735C2.64344 10.5305 2.94428 11.2182 3.35257 11.9488C3.09471 12.3571 2.83684 12.7654 2.60046 13.1952C2.36408 13.6249 2.14919 14.0547 1.95579 14.506C1.76239 14.9572 1.56899 15.4085 1.41857 15.8813C1.24666 16.354 1.11773 16.8268 0.988794 17.2995C0.516038 19.1261 0.365616 20.8882 0.516038 22.5213C0.66646 24.176 1.13922 25.6802 1.89133 26.991C2.64344 28.3233 3.69639 29.4193 4.98573 30.2358C6.29655 31.0524 7.86524 31.5682 9.64882 31.6756C10.186 31.6971 10.7018 31.6971 11.239 31.6541C11.7762 31.6111 12.3134 31.5467 12.8507 31.4392C13.3879 31.3318 13.9251 31.1814 14.4623 31.0094C14.9996 30.8375 15.5153 30.6226 16.0525 30.3863L14.7847 28.001C14.4194 28.1514 14.054 28.2804 13.6672 28.3878C13.3019 28.4952 12.9151 28.5812 12.5498 28.6457C12.1845 28.7101 11.7977 28.7531 11.4324 28.7961C11.0671 28.8176 10.6803 28.8176 10.315 28.8176C8.87522 28.7531 7.60737 28.3663 6.55442 27.7216C5.50146 27.077 4.64191 26.1959 4.01873 25.143C3.39555 24.09 3.00875 22.8652 2.85833 21.5328C2.70791 20.222 2.81535 18.7823 3.20215 17.2995C3.58895 15.8168 4.21213 14.42 5.00722 13.1307C5.80231 11.8628 6.79079 10.7024 7.88673 9.71395C8.98266 8.72546 10.2075 7.90888 11.4969 7.3072C12.8077 6.70551 14.183 6.3402 15.5583 6.25424C16.955 6.16828 18.2444 6.40466 19.3833 6.87742C20.5222 7.37166 21.5107 8.12377 22.2628 9.06928C23.0364 10.0363 23.5951 11.2397 23.8745 12.5935C24.1538 13.9688 24.1538 15.4945 23.8315 17.1276C23.6811 17.8368 23.4877 18.5459 23.2298 19.2335C22.9719 19.9212 22.6711 20.5873 22.3058 21.232C21.962 21.8767 21.5537 22.4998 21.1024 23.08C20.6726 23.6602 20.1784 24.219 19.6841 24.7347C19.6841 24.5628 19.7056 24.3909 19.7056 24.1975C19.7056 24.0256 19.7271 23.8322 19.7271 23.6817C19.7271 23.5098 19.7486 23.3594 19.7486 23.2305C19.7486 23.1015 19.7486 22.9941 19.7486 22.9296C19.7486 22.8652 19.7486 22.8007 19.7271 22.7577C19.7056 22.7147 19.7056 22.6718 19.6841 22.6503C19.6626 22.6288 19.6412 22.6073 19.6197 22.6073C19.5982 22.5858 19.5552 22.5858 19.5337 22.5858C19.5122 22.5858 19.4907 22.5858 19.4692 22.5858C19.4478 22.5858 19.4263 22.5858 19.4048 22.6073C19.3833 22.6073 19.3833 22.6288 19.3618 22.6288H19.3403L14.9136 24.0685C14.9136 24.0685 14.8706 24.09 14.8276 24.1115C14.7847 24.133 14.7202 24.176 14.6772 24.219C14.6342 24.2834 14.5913 24.3479 14.5698 24.4338C14.5698 24.5198 14.5913 24.6487 14.6557 24.7992C14.6557 24.7992 14.6557 24.8206 14.6772 24.8206C14.6772 24.8206 14.6772 24.8421 14.6987 24.8421C14.6987 24.8421 14.6987 24.8636 14.7202 24.8636C14.7202 24.8636 14.7202 24.8851 14.7417 24.8851C14.9351 25.2934 15.2144 25.8306 15.5583 26.4323C15.8806 27.0555 16.2459 27.7431 16.6112 28.4093C16.9765 29.0969 17.3418 29.7631 17.6642 30.3433C17.9865 30.9235 18.2444 31.4177 18.4163 31.7186C18.4378 31.7401 18.4378 31.7616 18.4593 31.8045C18.4808 31.826 18.4808 31.8475 18.5022 31.869C18.5237 31.8905 18.5237 31.912 18.5237 31.9335C18.5237 31.955 18.5452 31.9764 18.5452 31.9764C18.5882 32.0624 18.6312 32.1269 18.6742 32.1698C18.7171 32.2343 18.7601 32.2773 18.7816 32.2988C18.8246 32.3418 18.8461 32.3632 18.889 32.3847C18.932 32.4062 18.9535 32.4062 18.975 32.4062C19.0395 32.4062 19.0824 32.3847 19.1254 32.3632C19.1684 32.3418 19.2114 32.2773 19.2329 32.2343C19.2544 32.1913 19.2973 32.1269 19.3188 32.0839C19.3403 32.0409 19.3403 31.9764 19.3618 31.9335C19.3618 31.912 19.3618 31.912 19.3618 31.8905C19.3618 31.869 19.3618 31.8475 19.3618 31.8045C19.3618 31.783 19.3618 31.7401 19.3618 31.7186C19.3618 31.6756 19.3618 31.6541 19.3618 31.6111C19.3618 31.4607 19.3833 31.2888 19.3833 31.1169C19.3833 30.945 19.4048 30.7516 19.4048 30.5797C19.4048 30.4078 19.4263 30.2573 19.4263 30.1499C19.4263 30.0424 19.4478 29.9565 19.4478 29.9565C20.0494 30.3218 20.6726 30.6656 21.2528 31.0094C21.8545 31.3318 22.4347 31.6541 23.0149 31.912C23.5736 32.1698 24.1323 32.4062 24.6266 32.5566C25.1208 32.7286 25.5936 32.8145 25.9804 32.8575C26.0448 32.8575 26.0878 32.8575 26.1523 32.8575C26.1953 32.8575 26.2597 32.8575 26.3027 32.8575C26.3457 32.8575 26.4102 32.8575 26.4531 32.836C26.4961 32.836 26.5391 32.8145 26.6036 32.8145C26.668 32.793 26.7325 32.793 26.797 32.7715C26.8614 32.75 26.9259 32.7286 26.9904 32.6856C27.0548 32.6641 27.0978 32.6211 27.1623 32.5781C27.2052 32.5352 27.2697 32.4922 27.3127 32.4492C27.592 32.1484 27.721 31.6756 27.721 31.0739C27.721 30.4937 27.5706 29.7846 27.3557 28.9895L27.2912 28.9035Z" fill="#929392"/>
<path d="M11.2819 13.7977C11.6042 13.7977 11.8406 13.8836 12.034 14.0556C12.2274 14.2275 12.3133 14.4638 12.3133 14.7862C12.3133 15.1085 12.2059 15.3664 12.0125 15.5383C11.7976 15.7102 11.5397 15.8176 11.1959 15.8176C10.4223 15.8176 10.0355 15.4738 10.0355 14.8077H8.89661V14.8936C8.89661 15.5168 9.1115 15.9896 9.51978 16.3119C9.92807 16.6557 10.4868 16.8061 11.1959 16.8061C11.8406 16.8061 12.3778 16.6342 12.8291 16.2689C13.2803 15.9251 13.4952 15.4094 13.4952 14.7862C13.4952 14.5713 13.4523 14.3564 13.3878 14.163C13.3233 13.9696 13.2374 13.8192 13.1729 13.7117C13.0869 13.6043 13.001 13.4968 12.8935 13.4324C12.7861 13.3464 12.7001 13.3034 12.6572 13.282C12.6142 13.2605 12.5712 13.239 12.5497 13.239L12.6357 13.196C12.7001 13.1745 12.7646 13.11 12.8506 13.0241C12.9365 12.9381 13.0225 12.8522 13.0869 12.7447C13.1729 12.6373 13.2374 12.4869 13.3018 12.315C13.3663 12.143 13.3878 11.9496 13.3878 11.7562C13.3878 11.176 13.1944 10.7248 12.8076 10.4024C12.4208 10.0801 11.8836 9.9082 11.2174 9.9082C10.5513 9.9082 10.0355 10.0586 9.62723 10.4024C9.21894 10.7248 9.02554 11.176 9.02554 11.7562V11.8207H10.143C10.143 11.4984 10.2504 11.262 10.4223 11.1116C10.6157 10.9612 10.8736 10.8752 11.2174 10.8752C11.5612 10.8752 11.8406 10.9612 12.0125 11.1116C12.1844 11.2835 12.2919 11.4984 12.2919 11.7777C12.2919 12.0786 12.2059 12.3364 12.0125 12.5084C11.8191 12.6803 11.5827 12.7662 11.2819 12.7662H10.143V13.7547L11.3463 13.7762L11.2819 13.7977ZM18.9104 16.7202V15.6672H16.1599L17.75 14.0985C18.1798 13.6902 18.4807 13.3034 18.6526 12.9596C18.8245 12.6158 18.9104 12.2505 18.9104 11.8852C18.9104 11.2835 18.717 10.7892 18.3517 10.4669C17.9649 10.1231 17.4492 9.95118 16.7615 9.95118C16.0739 9.95118 15.5367 10.1231 15.1284 10.4669C14.7201 10.8107 14.5267 11.2835 14.5267 11.9067V11.9711H15.6656C15.6656 11.305 16.0094 10.9612 16.7401 10.9612C17.4277 10.9612 17.7715 11.2835 17.7715 11.9282C17.7715 12.186 17.7071 12.4224 17.5996 12.6588C17.4922 12.8952 17.2773 13.153 16.9979 13.4324L14.6771 15.6887V16.7417H18.9534L18.9104 16.7202Z" fill="#929392"/>
<path d="M10.4011 22.3722V17.3223H9.56306V21.1688L7.56459 17.3223H6.31824V22.3722H7.1563V18.5471L9.17626 22.3722H10.4011ZM12.1632 21.8994C12.1632 21.7705 12.1202 21.6845 12.0343 21.5986C11.9483 21.5341 11.8409 21.4911 11.6905 21.4911C11.5615 21.4911 11.4541 21.5341 11.3681 21.5986C11.2822 21.663 11.2392 21.7705 11.2392 21.8994V22.0498C11.2392 22.1788 11.2822 22.2647 11.3681 22.3507C11.4541 22.4151 11.5615 22.4581 11.7119 22.4581C11.8624 22.4581 11.9698 22.4151 12.0558 22.3507C12.1417 22.2862 12.1847 22.1788 12.1847 22.0498L12.1632 21.8994ZM15.9668 21.0184H15.1717C15.1717 21.4911 14.9138 21.7275 14.4195 21.7275C13.9253 21.7275 13.6889 21.4696 13.6889 20.9754V20.2233C13.6889 19.7075 13.9253 19.4712 14.4195 19.4712C14.9138 19.4712 15.1717 19.7075 15.1717 20.1803H15.9668V20.1158C15.9668 19.686 15.8378 19.3422 15.5585 19.1058C15.2791 18.8695 14.9138 18.7405 14.441 18.7405C13.9683 18.7405 13.603 18.8695 13.3236 19.1058C13.0443 19.3637 12.8938 19.7075 12.8938 20.1373V21.0184C12.8938 21.4481 13.0443 21.792 13.3236 22.0498C13.603 22.2862 13.9683 22.4151 14.441 22.4151C14.9138 22.4151 15.3006 22.3077 15.58 22.0713C15.8593 21.8349 16.0097 21.4911 16.0097 21.0613L15.9882 21.0184H15.9668ZM21.6398 22.3722V19.858C21.6398 19.5141 21.5539 19.2563 21.3819 19.0629C21.21 18.8695 20.9522 18.7835 20.6513 18.7835C20.372 18.7835 20.0926 18.8695 19.8348 19.0199L19.448 19.2563C19.2975 18.9339 19.0182 18.7835 18.6099 18.7835C18.352 18.7835 18.0942 18.848 17.8578 18.9984L17.5354 19.1918V18.8265H16.7189V22.3936H17.5354V19.9439L17.9652 19.686C18.1371 19.6001 18.2876 19.5571 18.395 19.5571C18.6529 19.5571 18.7603 19.7075 18.7603 20.0084V22.4151H19.5769V19.9654L20.0067 19.7075C20.1786 19.6216 20.329 19.5571 20.4364 19.5571C20.6943 19.5571 20.8232 19.7075 20.8232 19.9869V22.4151H21.6398V22.3722Z" fill="#929392"/>
<path d="M23.9174 12.8737C27.3127 12.8737 30.0847 10.1231 30.0847 6.70637C30.0847 3.28964 27.3342 0.539062 23.9174 0.539062C20.5007 0.539062 17.7501 3.28964 17.7501 6.70637C17.7501 10.1016 20.5007 12.8737 23.9174 12.8737Z" fill="#929392"/>
<path d="M23.9174 12.8737C27.3127 12.8737 30.0847 10.1231 30.0847 6.70637C30.0847 3.28964 27.3342 0.539062 23.9174 0.539062C20.5007 0.539062 17.7501 3.28964 17.7501 6.70637C17.7501 10.1016 20.5007 12.8737 23.9174 12.8737Z" stroke="white" stroke-width="0.623178"/>
<path d="M26.1092 10.2299V9.56374H24.605V3.67578H23.8314C23.3586 4.10556 22.9074 4.4064 22.4561 4.55683V5.26596C22.9503 5.18 23.4231 4.92214 23.8529 4.49236V9.58523H21.9404V10.2514H26.1092V10.2299Z" fill="#FEFEFE"/>
</svg>
