<svg width="15" height="14" viewBox="0 0 15 14" fill="none" xmlns="http://www.w3.org/2000/svg">
<path d="M8.28639 4.74825C8.28639 4.63683 8.24212 4.52997 8.16334 4.45118C8.08455 4.37239 7.97769 4.32812 7.86626 4.32812C7.75484 4.32812 7.64797 4.37239 7.56919 4.45118C7.4904 4.52997 7.44613 4.63683 7.44613 4.74825V6.00863H6.18575C6.07433 6.00863 5.96747 6.0529 5.88868 6.13169C5.80989 6.21047 5.76562 6.31734 5.76562 6.42876C5.76562 6.54019 5.80989 6.64705 5.88868 6.72584C5.96747 6.80462 6.07433 6.84889 6.18575 6.84889H7.44613V8.10927C7.44613 8.22069 7.4904 8.32755 7.56919 8.40634C7.64797 8.48513 7.75484 8.5294 7.86626 8.5294C7.97769 8.5294 8.08455 8.48513 8.16334 8.40634C8.24212 8.32755 8.28639 8.22069 8.28639 8.10927V6.84889H9.54677C9.65819 6.84889 9.76505 6.80462 9.84384 6.72584C9.92263 6.64705 9.9669 6.54019 9.9669 6.42876C9.9669 6.31734 9.92263 6.21047 9.84384 6.13169C9.76505 6.0529 9.65819 6.00863 9.54677 6.00863H8.28639V4.74825Z" fill="#363330"/>
<path d="M1.14376 0.964844C1.03234 0.964844 0.925474 1.00911 0.846685 1.0879C0.767896 1.16669 0.723633 1.27355 0.723633 1.38497C0.723633 1.4964 0.767896 1.60326 0.846685 1.68205C0.925474 1.76083 1.03234 1.8051 1.14376 1.8051H2.07644L2.41338 3.15539L3.67209 9.86482C3.69011 9.96109 3.7412 10.048 3.81653 10.1106C3.89187 10.1732 3.9867 10.2075 4.08465 10.2076H4.9249C4.47921 10.2076 4.05176 10.3847 3.7366 10.6999C3.42145 11.015 3.2444 11.4424 3.2444 11.8881C3.2444 12.3338 3.42145 12.7613 3.7366 13.0764C4.05176 13.3916 4.47921 13.5687 4.9249 13.5687C5.3706 13.5687 5.79805 13.3916 6.1132 13.0764C6.42836 12.7613 6.60541 12.3338 6.60541 11.8881C6.60541 11.4424 6.42836 11.015 6.1132 10.6999C5.79805 10.3847 5.3706 10.2076 4.9249 10.2076H10.8067C10.361 10.2076 9.93354 10.3847 9.61839 10.6999C9.30323 11.015 9.12617 11.4424 9.12617 11.8881C9.12617 12.3338 9.30323 12.7613 9.61839 13.0764C9.93354 13.3916 10.361 13.5687 10.8067 13.5687C11.2524 13.5687 11.6798 13.3916 11.995 13.0764C12.3101 12.7613 12.4872 12.3338 12.4872 11.8881C12.4872 11.4424 12.3101 11.015 11.995 10.6999C11.6798 10.3847 11.2524 10.2076 10.8067 10.2076H11.6469C11.7449 10.2075 11.8397 10.1732 11.9151 10.1106C11.9904 10.048 12.0415 9.96109 12.0595 9.86482L13.3199 3.14278C13.3312 3.08215 13.3291 3.01976 13.3136 2.96004C13.2981 2.90033 13.2697 2.84476 13.2303 2.79727C13.1909 2.74979 13.1416 2.71156 13.0857 2.68531C13.0299 2.65905 12.969 2.64541 12.9073 2.64535H3.15197L2.81166 1.2833C2.78899 1.19237 2.73656 1.11164 2.66271 1.05393C2.58887 0.996228 2.49786 0.96487 2.40414 0.964844H1.14376ZM4.43336 9.36739L3.3301 3.48561H12.4015L11.2982 9.36739H4.43336ZM5.76516 11.8881C5.76516 12.111 5.67663 12.3247 5.51905 12.4823C5.36147 12.6399 5.14775 12.7284 4.9249 12.7284C4.70205 12.7284 4.48833 12.6399 4.33075 12.4823C4.17318 12.3247 4.08465 12.111 4.08465 11.8881C4.08465 11.6653 4.17318 11.4516 4.33075 11.294C4.48833 11.1364 4.70205 11.0479 4.9249 11.0479C5.14775 11.0479 5.36147 11.1364 5.51905 11.294C5.67663 11.4516 5.76516 11.6653 5.76516 11.8881ZM11.6469 11.8881C11.6469 12.111 11.5584 12.3247 11.4008 12.4823C11.2433 12.6399 11.0295 12.7284 10.8067 12.7284C10.5838 12.7284 10.3701 12.6399 10.2125 12.4823C10.055 12.3247 9.96643 12.111 9.96643 11.8881C9.96643 11.6653 10.055 11.4516 10.2125 11.294C10.3701 11.1364 10.5838 11.0479 10.8067 11.0479C11.0295 11.0479 11.2433 11.1364 11.4008 11.294C11.5584 11.4516 11.6469 11.6653 11.6469 11.8881Z" fill="#363330"/>
</svg>
