<svg width="15" height="15" viewBox="0 0 15 15" fill="none" xmlns="http://www.w3.org/2000/svg">
<path d="M8.28639 5.45919C8.28639 5.34776 8.24212 5.2409 8.16334 5.16211C8.08455 5.08333 7.97769 5.03906 7.86626 5.03906C7.75484 5.03906 7.64797 5.08333 7.56919 5.16211C7.4904 5.2409 7.44613 5.34776 7.44613 5.45919V6.71957H6.18575C6.07433 6.71957 5.96747 6.76383 5.88868 6.84262C5.80989 6.92141 5.76562 7.02827 5.76562 7.1397C5.76562 7.25112 5.80989 7.35798 5.88868 7.43677C5.96747 7.51556 6.07433 7.55982 6.18575 7.55982H7.44613V8.82021C7.44613 8.93163 7.4904 9.03849 7.56919 9.11728C7.64797 9.19607 7.75484 9.24033 7.86626 9.24033C7.97769 9.24033 8.08455 9.19607 8.16334 9.11728C8.24212 9.03849 8.28639 8.93163 8.28639 8.82021V7.55982H9.54677C9.65819 7.55982 9.76505 7.51556 9.84384 7.43677C9.92263 7.35798 9.9669 7.25112 9.9669 7.1397C9.9669 7.02827 9.92263 6.92141 9.84384 6.84262C9.76505 6.76383 9.65819 6.71957 9.54677 6.71957H8.28639V5.45919Z" fill="#363330"/>
<path d="M1.14376 1.67578C1.03234 1.67578 0.925474 1.72004 0.846685 1.79883C0.767896 1.87762 0.723633 1.98448 0.723633 2.09591C0.723633 2.20733 0.767896 2.31419 0.846685 2.39298C0.925474 2.47177 1.03234 2.51604 1.14376 2.51604H2.07644L2.41338 3.86632L3.67209 10.5758C3.69011 10.672 3.7412 10.759 3.81653 10.8216C3.89187 10.8842 3.9867 10.9185 4.08465 10.9186H4.9249C4.47921 10.9186 4.05176 11.0956 3.7366 11.4108C3.42145 11.7259 3.2444 12.1534 3.2444 12.5991C3.2444 13.0448 3.42145 13.4722 3.7366 13.7874C4.05176 14.1025 4.47921 14.2796 4.9249 14.2796C5.3706 14.2796 5.79805 14.1025 6.1132 13.7874C6.42836 13.4722 6.60541 13.0448 6.60541 12.5991C6.60541 12.1534 6.42836 11.7259 6.1132 11.4108C5.79805 11.0956 5.3706 10.9186 4.9249 10.9186H10.8067C10.361 10.9186 9.93354 11.0956 9.61839 11.4108C9.30323 11.7259 9.12617 12.1534 9.12617 12.5991C9.12617 13.0448 9.30323 13.4722 9.61839 13.7874C9.93354 14.1025 10.361 14.2796 10.8067 14.2796C11.2524 14.2796 11.6798 14.1025 11.995 13.7874C12.3101 13.4722 12.4872 13.0448 12.4872 12.5991C12.4872 12.1534 12.3101 11.7259 11.995 11.4108C11.6798 11.0956 11.2524 10.9186 10.8067 10.9186H11.6469C11.7449 10.9185 11.8397 10.8842 11.9151 10.8216C11.9904 10.759 12.0415 10.672 12.0595 10.5758L13.3199 3.85372C13.3312 3.79308 13.3291 3.73069 13.3136 3.67098C13.2981 3.61127 13.2697 3.55569 13.2303 3.50821C13.1909 3.46073 13.1416 3.4225 13.0857 3.39624C13.0299 3.36999 12.969 3.35635 12.9073 3.35629H3.15197L2.81166 1.99424C2.78899 1.90331 2.73656 1.82257 2.66271 1.76487C2.58887 1.70717 2.49786 1.67581 2.40414 1.67578H1.14376ZM4.43336 10.0783L3.3301 4.19654H12.4015L11.2982 10.0783H4.43336ZM5.76516 12.5991C5.76516 12.8219 5.67663 13.0357 5.51905 13.1932C5.36147 13.3508 5.14775 13.4393 4.9249 13.4393C4.70205 13.4393 4.48833 13.3508 4.33075 13.1932C4.17318 13.0357 4.08465 12.8219 4.08465 12.5991C4.08465 12.3762 4.17318 12.1625 4.33075 12.0049C4.48833 11.8474 4.70205 11.7588 4.9249 11.7588C5.14775 11.7588 5.36147 11.8474 5.51905 12.0049C5.67663 12.1625 5.76516 12.3762 5.76516 12.5991ZM11.6469 12.5991C11.6469 12.8219 11.5584 13.0357 11.4008 13.1932C11.2433 13.3508 11.0295 13.4393 10.8067 13.4393C10.5838 13.4393 10.3701 13.3508 10.2125 13.1932C10.055 13.0357 9.96643 12.8219 9.96643 12.5991C9.96643 12.3762 10.055 12.1625 10.2125 12.0049C10.3701 11.8474 10.5838 11.7588 10.8067 11.7588C11.0295 11.7588 11.2433 11.8474 11.4008 12.0049C11.5584 12.1625 11.6469 12.3762 11.6469 12.5991Z" fill="#363330"/>
</svg>
