<svg width="14" height="14" viewBox="0 0 14 14" fill="none" xmlns="http://www.w3.org/2000/svg">
<path d="M7.61158 4.63106C7.61158 4.51964 7.56732 4.41278 7.48853 4.33399C7.40974 4.2552 7.30288 4.21094 7.19146 4.21094C7.08003 4.21094 6.97317 4.2552 6.89438 4.33399C6.81559 4.41278 6.77133 4.51964 6.77133 4.63106V5.89145H5.51095C5.39952 5.89145 5.29266 5.93571 5.21387 6.0145C5.13508 6.09329 5.09082 6.20015 5.09082 6.31157C5.09082 6.423 5.13508 6.52986 5.21387 6.60865C5.29266 6.68744 5.39952 6.7317 5.51095 6.7317H6.77133V7.99208C6.77133 8.10351 6.81559 8.21037 6.89438 8.28916C6.97317 8.36795 7.08003 8.41221 7.19146 8.41221C7.30288 8.41221 7.40974 8.36795 7.48853 8.28916C7.56732 8.21037 7.61158 8.10351 7.61158 7.99208V6.7317H8.87196C8.98339 6.7317 9.09025 6.68744 9.16904 6.60865C9.24783 6.52986 9.29209 6.423 9.29209 6.31157C9.29209 6.20015 9.24783 6.09329 9.16904 6.0145C9.09025 5.93571 8.98339 5.89145 8.87196 5.89145H7.61158V4.63106Z" fill="#363330"/>
<path d="M0.468955 0.847656C0.357531 0.847656 0.25067 0.891919 0.171881 0.970709C0.0930914 1.0495 0.0488281 1.15636 0.0488281 1.26778C0.0488281 1.37921 0.0930914 1.48607 0.171881 1.56486C0.25067 1.64365 0.357531 1.68791 0.468955 1.68791H1.40164L1.73858 3.0382L2.99728 9.74763C3.0153 9.8439 3.0664 9.93085 3.14173 9.99345C3.21706 10.0561 3.3119 10.0904 3.40985 10.0905H4.2501C3.8044 10.0905 3.37696 10.2675 3.0618 10.5827C2.74664 10.8978 2.56959 11.3253 2.56959 11.771C2.56959 12.2167 2.74664 12.6441 3.0618 12.9593C3.37696 13.2744 3.8044 13.4515 4.2501 13.4515C4.6958 13.4515 5.12324 13.2744 5.4384 12.9593C5.75355 12.6441 5.93061 12.2167 5.93061 11.771C5.93061 11.3253 5.75355 10.8978 5.4384 10.5827C5.12324 10.2675 4.6958 10.0905 4.2501 10.0905H10.1319C9.68618 10.0905 9.25874 10.2675 8.94358 10.5827C8.62842 10.8978 8.45137 11.3253 8.45137 11.771C8.45137 12.2167 8.62842 12.6441 8.94358 12.9593C9.25874 13.2744 9.68618 13.4515 10.1319 13.4515C10.5776 13.4515 11.005 13.2744 11.3202 12.9593C11.6353 12.6441 11.8124 12.2167 11.8124 11.771C11.8124 11.3253 11.6353 10.8978 11.3202 10.5827C11.005 10.2675 10.5776 10.0905 10.1319 10.0905H10.9721C11.0701 10.0904 11.1649 10.0561 11.2402 9.99345C11.3156 9.93085 11.3667 9.8439 11.3847 9.74763L12.6451 3.0256C12.6564 2.96496 12.6543 2.90257 12.6388 2.84285C12.6233 2.78314 12.5949 2.72757 12.5555 2.68009C12.5161 2.6326 12.4668 2.59438 12.4109 2.56812C12.3551 2.54186 12.2942 2.52822 12.2325 2.52816H2.47716L2.13686 1.16611C2.11418 1.07518 2.06175 0.994448 1.98791 0.936744C1.91407 0.87904 1.82305 0.847682 1.72934 0.847656H0.468955ZM3.75855 9.2502L2.6553 3.36842H11.7267L10.6234 9.2502H3.75855ZM5.09035 11.771C5.09035 11.9938 5.00183 12.2075 4.84425 12.3651C4.68667 12.5227 4.47295 12.6112 4.2501 12.6112C4.02725 12.6112 3.81353 12.5227 3.65595 12.3651C3.49837 12.2075 3.40985 11.9938 3.40985 11.771C3.40985 11.5481 3.49837 11.3344 3.65595 11.1768C3.81353 11.0192 4.02725 10.9307 4.2501 10.9307C4.47295 10.9307 4.68667 11.0192 4.84425 11.1768C5.00183 11.3344 5.09035 11.5481 5.09035 11.771ZM10.9721 11.771C10.9721 11.9938 10.8836 12.2075 10.726 12.3651C10.5684 12.5227 10.3547 12.6112 10.1319 12.6112C9.90903 12.6112 9.69531 12.5227 9.53773 12.3651C9.38015 12.2075 9.29163 11.9938 9.29163 11.771C9.29163 11.5481 9.38015 11.3344 9.53773 11.1768C9.69531 11.0192 9.90903 10.9307 10.1319 10.9307C10.3547 10.9307 10.5684 11.0192 10.726 11.1768C10.8836 11.3344 10.9721 11.5481 10.9721 11.771Z" fill="#363330"/>
</svg>
