<svg width="14" height="15" viewBox="0 0 14 15" fill="none" xmlns="http://www.w3.org/2000/svg">
<path d="M8.06373 5.39669C8.06373 5.28526 8.01947 5.1784 7.94068 5.09961C7.86189 5.02083 7.75503 4.97656 7.6436 4.97656C7.53218 4.97656 7.42532 5.02083 7.34653 5.09961C7.26774 5.1784 7.22348 5.28526 7.22348 5.39669V6.65707H5.9631C5.85167 6.65707 5.74481 6.70133 5.66602 6.78012C5.58723 6.85891 5.54297 6.96577 5.54297 7.0772C5.54297 7.18862 5.58723 7.29548 5.66602 7.37427C5.74481 7.45306 5.85167 7.49732 5.9631 7.49732H7.22348V8.75771C7.22348 8.86913 7.26774 8.97599 7.34653 9.05478C7.42532 9.13357 7.53218 9.17783 7.6436 9.17783C7.75503 9.17783 7.86189 9.13357 7.94068 9.05478C8.01947 8.97599 8.06373 8.86913 8.06373 8.75771V7.49732H9.32411C9.43554 7.49732 9.5424 7.45306 9.62119 7.37427C9.69998 7.29548 9.74424 7.18862 9.74424 7.0772C9.74424 6.96577 9.69998 6.85891 9.62119 6.78012C9.5424 6.70133 9.43554 6.65707 9.32411 6.65707H8.06373V5.39669Z" fill="#363330"/>
<path d="M0.921104 1.61328C0.809679 1.61328 0.702818 1.65754 0.624029 1.73633C0.54524 1.81512 0.500977 1.92198 0.500977 2.03341C0.500977 2.14483 0.54524 2.25169 0.624029 2.33048C0.702818 2.40927 0.809679 2.45354 0.921104 2.45354H1.85379L2.19073 3.80382L3.44943 10.5133C3.46745 10.6095 3.51854 10.6965 3.59388 10.7591C3.66921 10.8217 3.76405 10.856 3.86199 10.8561H4.70225C4.25655 10.8561 3.82911 11.0331 3.51395 11.3483C3.19879 11.6634 3.02174 12.0909 3.02174 12.5366C3.02174 12.9823 3.19879 13.4097 3.51395 13.7249C3.82911 14.04 4.25655 14.2171 4.70225 14.2171C5.14795 14.2171 5.57539 14.04 5.89055 13.7249C6.2057 13.4097 6.38276 12.9823 6.38276 12.5366C6.38276 12.0909 6.2057 11.6634 5.89055 11.3483C5.57539 11.0331 5.14795 10.8561 4.70225 10.8561H10.584C10.1383 10.8561 9.71089 11.0331 9.39573 11.3483C9.08057 11.6634 8.90352 12.0909 8.90352 12.5366C8.90352 12.9823 9.08057 13.4097 9.39573 13.7249C9.71089 14.04 10.1383 14.2171 10.584 14.2171C11.0297 14.2171 11.4572 14.04 11.7723 13.7249C12.0875 13.4097 12.2645 12.9823 12.2645 12.5366C12.2645 12.0909 12.0875 11.6634 11.7723 11.3483C11.4572 11.0331 11.0297 10.8561 10.584 10.8561H11.4243C11.5222 10.856 11.6171 10.8217 11.6924 10.7591C11.7677 10.6965 11.8188 10.6095 11.8368 10.5133L13.0972 3.79122C13.1086 3.73058 13.1064 3.66819 13.091 3.60848C13.0755 3.54877 13.047 3.49319 13.0077 3.44571C12.9683 3.39823 12.9189 3.36 12.8631 3.33374C12.8073 3.30749 12.7464 3.29385 12.6847 3.29379H2.92931L2.58901 1.93174C2.56633 1.84081 2.5139 1.76007 2.44006 1.70237C2.36621 1.64467 2.2752 1.61331 2.18149 1.61328H0.921104ZM4.2107 10.0158L3.10745 4.13404H12.1788L11.0756 10.0158H4.2107ZM5.5425 12.5366C5.5425 12.7594 5.45398 12.9732 5.2964 13.1307C5.13882 13.2883 4.9251 13.3768 4.70225 13.3768C4.4794 13.3768 4.26568 13.2883 4.1081 13.1307C3.95052 12.9732 3.86199 12.7594 3.86199 12.5366C3.86199 12.3137 3.95052 12.1 4.1081 11.9424C4.26568 11.7849 4.4794 11.6963 4.70225 11.6963C4.9251 11.6963 5.13882 11.7849 5.2964 11.9424C5.45398 12.1 5.5425 12.3137 5.5425 12.5366ZM11.4243 12.5366C11.4243 12.7594 11.3358 12.9732 11.1782 13.1307C11.0206 13.2883 10.8069 13.3768 10.584 13.3768C10.3612 13.3768 10.1475 13.2883 9.98988 13.1307C9.8323 12.9732 9.74377 12.7594 9.74377 12.5366C9.74377 12.3137 9.8323 12.1 9.98988 11.9424C10.1475 11.7849 10.3612 11.6963 10.584 11.6963C10.8069 11.6963 11.0206 11.7849 11.1782 11.9424C11.3358 12.1 11.4243 12.3137 11.4243 12.5366Z" fill="#363330"/>
</svg>
