<svg width="15" height="14" viewBox="0 0 15 14" fill="none" xmlns="http://www.w3.org/2000/svg">
<path d="M8.33424 4.76778C8.33424 4.65636 8.28998 4.5495 8.21119 4.47071C8.1324 4.39192 8.02554 4.34766 7.91411 4.34766C7.80269 4.34766 7.69583 4.39192 7.61704 4.47071C7.53825 4.5495 7.49398 4.65636 7.49398 4.76778V6.02816H6.2336C6.12218 6.02816 6.01532 6.07243 5.93653 6.15122C5.85774 6.23001 5.81348 6.33687 5.81348 6.44829C5.81348 6.55972 5.85774 6.66658 5.93653 6.74537C6.01532 6.82416 6.12218 6.86842 6.2336 6.86842H7.49398V8.1288C7.49398 8.24022 7.53825 8.34709 7.61704 8.42588C7.69583 8.50466 7.80269 8.54893 7.91411 8.54893C8.02554 8.54893 8.1324 8.50466 8.21119 8.42588C8.28998 8.34709 8.33424 8.24022 8.33424 8.1288V6.86842H9.59462C9.70605 6.86842 9.81291 6.82416 9.8917 6.74537C9.97048 6.66658 10.0147 6.55972 10.0147 6.44829C10.0147 6.33687 9.97048 6.23001 9.8917 6.15122C9.81291 6.07243 9.70605 6.02816 9.59462 6.02816H8.33424V4.76778Z" fill="#363330"/>
<path d="M1.19161 0.984375C1.08019 0.984375 0.973326 1.02864 0.894537 1.10743C0.815748 1.18622 0.771484 1.29308 0.771484 1.4045C0.771484 1.51593 0.815748 1.62279 0.894537 1.70158C0.973326 1.78037 1.08019 1.82463 1.19161 1.82463H2.12429L2.46124 3.17492L3.71994 9.88435C3.73796 9.98062 3.78905 10.0676 3.86439 10.1302C3.93972 10.1928 4.03455 10.2271 4.1325 10.2272H4.97276C4.52706 10.2272 4.09961 10.4042 3.78446 10.7194C3.4693 11.0345 3.29225 11.462 3.29225 11.9077C3.29225 12.3534 3.4693 12.7808 3.78446 13.096C4.09961 13.4111 4.52706 13.5882 4.97276 13.5882C5.41845 13.5882 5.8459 13.4111 6.16105 13.096C6.47621 12.7808 6.65326 12.3534 6.65326 11.9077C6.65326 11.462 6.47621 11.0345 6.16105 10.7194C5.8459 10.4042 5.41845 10.2272 4.97276 10.2272H10.8545C10.4088 10.2272 9.98139 10.4042 9.66624 10.7194C9.35108 11.0345 9.17403 11.462 9.17403 11.9077C9.17403 12.3534 9.35108 12.7808 9.66624 13.096C9.98139 13.4111 10.4088 13.5882 10.8545 13.5882C11.3002 13.5882 11.7277 13.4111 12.0428 13.096C12.358 12.7808 12.535 12.3534 12.535 11.9077C12.535 11.462 12.358 11.0345 12.0428 10.7194C11.7277 10.4042 11.3002 10.2272 10.8545 10.2272H11.6948C11.7927 10.2271 11.8876 10.1928 11.9629 10.1302C12.0382 10.0676 12.0893 9.98062 12.1074 9.88435L13.3677 3.16231C13.3791 3.10168 13.3769 3.03929 13.3615 2.97957C13.346 2.91986 13.3175 2.86429 13.2782 2.8168C13.2388 2.76932 13.1894 2.73109 13.1336 2.70484C13.0778 2.67858 13.0169 2.66494 12.9552 2.66488H3.19982L2.85952 1.30283C2.83684 1.2119 2.78441 1.13117 2.71057 1.07346C2.63672 1.01576 2.54571 0.984401 2.45199 0.984375H1.19161ZM4.48121 9.38692L3.37795 3.50514H12.4493L11.3461 9.38692H4.48121ZM5.81301 11.9077C5.81301 12.1305 5.72448 12.3443 5.56691 12.5018C5.40933 12.6594 5.1956 12.7479 4.97276 12.7479C4.74991 12.7479 4.53618 12.6594 4.37861 12.5018C4.22103 12.3443 4.1325 12.1305 4.1325 11.9077C4.1325 11.6848 4.22103 11.4711 4.37861 11.3135C4.53618 11.156 4.74991 11.0674 4.97276 11.0674C5.1956 11.0674 5.40933 11.156 5.56691 11.3135C5.72448 11.4711 5.81301 11.6848 5.81301 11.9077ZM11.6948 11.9077C11.6948 12.1305 11.6063 12.3443 11.4487 12.5018C11.2911 12.6594 11.0774 12.7479 10.8545 12.7479C10.6317 12.7479 10.418 12.6594 10.2604 12.5018C10.1028 12.3443 10.0143 12.1305 10.0143 11.9077C10.0143 11.6848 10.1028 11.4711 10.2604 11.3135C10.418 11.156 10.6317 11.0674 10.8545 11.0674C11.0774 11.0674 11.2911 11.156 11.4487 11.3135C11.6063 11.4711 11.6948 11.6848 11.6948 11.9077Z" fill="#363330"/>
</svg>
