<svg width="14" height="14" viewBox="0 0 14 14" fill="none" xmlns="http://www.w3.org/2000/svg">
<path d="M7.56373 4.93575C7.56373 4.82433 7.51947 4.71747 7.44068 4.63868C7.36189 4.55989 7.25503 4.51562 7.1436 4.51562C7.03218 4.51562 6.92532 4.55989 6.84653 4.63868C6.76774 4.71747 6.72348 4.82433 6.72348 4.93575V6.19613H5.4631C5.35167 6.19613 5.24481 6.2404 5.16602 6.31919C5.08723 6.39797 5.04297 6.50484 5.04297 6.61626C5.04297 6.72769 5.08723 6.83455 5.16602 6.91334C5.24481 6.99212 5.35167 7.03639 5.4631 7.03639H6.72348V8.29677C6.72348 8.40819 6.76774 8.51505 6.84653 8.59384C6.92532 8.67263 7.03218 8.7169 7.1436 8.7169C7.25503 8.7169 7.36189 8.67263 7.44068 8.59384C7.51947 8.51505 7.56373 8.40819 7.56373 8.29677V7.03639H8.82411C8.93554 7.03639 9.0424 6.99212 9.12119 6.91334C9.19998 6.83455 9.24424 6.72769 9.24424 6.61626C9.24424 6.50484 9.19998 6.39797 9.12119 6.31919C9.0424 6.2404 8.93554 6.19613 8.82411 6.19613H7.56373V4.93575Z" fill="#363330"/>
<path d="M0.421104 1.15234C0.309679 1.15234 0.202818 1.19661 0.124029 1.2754C0.0452398 1.35419 0.000976563 1.46105 0.000976562 1.57247C0.000976563 1.6839 0.0452398 1.79076 0.124029 1.86955C0.202818 1.94833 0.309679 1.9926 0.421104 1.9926H1.35379L1.69073 3.34289L2.94943 10.0523C2.96745 10.1486 3.01854 10.2355 3.09388 10.2981C3.16921 10.3607 3.26405 10.395 3.36199 10.3951H4.20225C3.75655 10.3951 3.32911 10.5722 3.01395 10.8874C2.69879 11.2025 2.52174 11.6299 2.52174 12.0756C2.52174 12.5213 2.69879 12.9488 3.01395 13.2639C3.32911 13.5791 3.75655 13.7562 4.20225 13.7562C4.64795 13.7562 5.07539 13.5791 5.39055 13.2639C5.7057 12.9488 5.88276 12.5213 5.88276 12.0756C5.88276 11.6299 5.7057 11.2025 5.39055 10.8874C5.07539 10.5722 4.64795 10.3951 4.20225 10.3951H10.084C9.63833 10.3951 9.21089 10.5722 8.89573 10.8874C8.58057 11.2025 8.40352 11.6299 8.40352 12.0756C8.40352 12.5213 8.58057 12.9488 8.89573 13.2639C9.21089 13.5791 9.63833 13.7562 10.084 13.7562C10.5297 13.7562 10.9572 13.5791 11.2723 13.2639C11.5875 12.9488 11.7645 12.5213 11.7645 12.0756C11.7645 11.6299 11.5875 11.2025 11.2723 10.8874C10.9572 10.5722 10.5297 10.3951 10.084 10.3951H10.9243C11.0222 10.395 11.1171 10.3607 11.1924 10.2981C11.2677 10.2355 11.3188 10.1486 11.3368 10.0523L12.5972 3.33028C12.6086 3.26965 12.6064 3.20726 12.591 3.14754C12.5755 3.08783 12.547 3.03226 12.5077 2.98477C12.4683 2.93729 12.4189 2.89906 12.3631 2.87281C12.3073 2.84655 12.2464 2.83291 12.1847 2.83285H2.42931L2.08901 1.4708C2.06633 1.37987 2.0139 1.29914 1.94006 1.24143C1.86621 1.18373 1.7752 1.15237 1.68149 1.15234H0.421104ZM3.7107 9.55489L2.60745 3.67311H11.6788L10.5756 9.55489H3.7107ZM5.0425 12.0756C5.0425 12.2985 4.95398 12.5122 4.7964 12.6698C4.63882 12.8274 4.4251 12.9159 4.20225 12.9159C3.9794 12.9159 3.76568 12.8274 3.6081 12.6698C3.45052 12.5122 3.36199 12.2985 3.36199 12.0756C3.36199 11.8528 3.45052 11.6391 3.6081 11.4815C3.76568 11.3239 3.9794 11.2354 4.20225 11.2354C4.4251 11.2354 4.63882 11.3239 4.7964 11.4815C4.95398 11.6391 5.0425 11.8528 5.0425 12.0756ZM10.9243 12.0756C10.9243 12.2985 10.8358 12.5122 10.6782 12.6698C10.5206 12.8274 10.3069 12.9159 10.084 12.9159C9.86118 12.9159 9.64746 12.8274 9.48988 12.6698C9.3323 12.5122 9.24377 12.2985 9.24377 12.0756C9.24377 11.8528 9.3323 11.6391 9.48988 11.4815C9.64746 11.3239 9.86118 11.2354 10.084 11.2354C10.3069 11.2354 10.5206 11.3239 10.6782 11.4815C10.8358 11.6391 10.9243 11.8528 10.9243 12.0756Z" fill="#363330"/>
</svg>
