<svg width="17" height="17" viewBox="0 0 17 17" fill="none" xmlns="http://www.w3.org/2000/svg">
<path d="M8.50696 4.74219C8.63957 4.74219 8.76675 4.79487 8.86052 4.88864C8.95429 4.98241 9.00697 5.10959 9.00697 5.2422V8.24229H12.0071C12.1397 8.24229 12.2669 8.29497 12.3606 8.38875C12.4544 8.48252 12.5071 8.6097 12.5071 8.74231C12.5071 8.87492 12.4544 9.0021 12.3606 9.09587C12.2669 9.18964 12.1397 9.24232 12.0071 9.24232H9.00697V12.2424C9.00697 12.375 8.95429 12.5022 8.86052 12.596C8.76675 12.6898 8.63957 12.7424 8.50696 12.7424C8.37435 12.7424 8.24716 12.6898 8.15339 12.596C8.05962 12.5022 8.00694 12.375 8.00694 12.2424V9.24232H5.00685C4.87424 9.24232 4.74706 9.18964 4.65329 9.09587C4.55952 9.0021 4.50684 8.87492 4.50684 8.74231C4.50684 8.6097 4.55952 8.48252 4.65329 8.38875C4.74706 8.29497 4.87424 8.24229 5.00685 8.24229H8.00694V5.2422C8.00694 5.10959 8.05962 4.98241 8.15339 4.88864C8.24716 4.79487 8.37435 4.74219 8.50696 4.74219Z" fill="#CFCCC9"/>
</svg>
