<svg width="17" height="17" viewBox="0 0 17 17" fill="none" xmlns="http://www.w3.org/2000/svg">
<path d="M8.0802 4.29297C8.21281 4.29297 8.33999 4.34565 8.43376 4.43942C8.52754 4.53319 8.58021 4.66037 8.58021 4.79298V7.79308H11.5803C11.7129 7.79308 11.8401 7.84576 11.9339 7.93953C12.0276 8.0333 12.0803 8.16048 12.0803 8.29309C12.0803 8.4257 12.0276 8.55288 11.9339 8.64666C11.8401 8.74043 11.7129 8.79311 11.5803 8.79311H8.58021V11.7932C8.58021 11.9258 8.52754 12.053 8.43376 12.1468C8.33999 12.2405 8.21281 12.2932 8.0802 12.2932C7.94759 12.2932 7.82041 12.2405 7.72664 12.1468C7.63286 12.053 7.58018 11.9258 7.58018 11.7932V8.79311H4.58009C4.44748 8.79311 4.3203 8.74043 4.22653 8.64666C4.13276 8.55288 4.08008 8.4257 4.08008 8.29309C4.08008 8.16048 4.13276 8.0333 4.22653 7.93953C4.3203 7.84576 4.44748 7.79308 4.58009 7.79308H7.58018V4.79298C7.58018 4.66037 7.63286 4.53319 7.72664 4.43942C7.82041 4.34565 7.94759 4.29297 8.0802 4.29297Z" fill="#CFCCC9"/>
</svg>
