<svg width="17" height="17" viewBox="0 0 17 17" fill="none" xmlns="http://www.w3.org/2000/svg">
<path d="M8.50696 4.03516C8.63957 4.03516 8.76675 4.08784 8.86052 4.18161C8.95429 4.27538 9.00697 4.40256 9.00697 4.53517V7.53526H12.0071C12.1397 7.53526 12.2669 7.58794 12.3606 7.68171C12.4544 7.77548 12.5071 7.90267 12.5071 8.03528C12.5071 8.16789 12.4544 8.29507 12.3606 8.38884C12.2669 8.48261 12.1397 8.53529 12.0071 8.53529H9.00697V11.5354C9.00697 11.668 8.95429 11.7952 8.86052 11.8889C8.76675 11.9827 8.63957 12.0354 8.50696 12.0354C8.37435 12.0354 8.24716 11.9827 8.15339 11.8889C8.05962 11.7952 8.00694 11.668 8.00694 11.5354V8.53529H5.00685C4.87424 8.53529 4.74706 8.48261 4.65329 8.38884C4.55952 8.29507 4.50684 8.16789 4.50684 8.03528C4.50684 7.90267 4.55952 7.77548 4.65329 7.68171C4.74706 7.58794 4.87424 7.53526 5.00685 7.53526H8.00694V4.53517C8.00694 4.40256 8.05962 4.27538 8.15339 4.18161C8.24716 4.08784 8.37435 4.03516 8.50696 4.03516Z" fill="#CFCCC9"/>
</svg>
