<svg width="14" height="15" viewBox="0 0 14 15" fill="none" xmlns="http://www.w3.org/2000/svg">
<path d="M7.78834 5.28341C7.78834 5.17198 7.74408 5.06512 7.66529 4.98633C7.5865 4.90754 7.47964 4.86328 7.36821 4.86328C7.25679 4.86328 7.14993 4.90754 7.07114 4.98633C6.99235 5.06512 6.94809 5.17198 6.94809 5.28341V6.54379H5.68771C5.57628 6.54379 5.46942 6.58805 5.39063 6.66684C5.31184 6.74563 5.26758 6.85249 5.26758 6.96392C5.26758 7.07534 5.31184 7.1822 5.39063 7.26099C5.46942 7.33978 5.57628 7.38404 5.68771 7.38404H6.94809V8.64443C6.94809 8.75585 6.99235 8.86271 7.07114 8.9415C7.14993 9.02029 7.25679 9.06455 7.36821 9.06455C7.47964 9.06455 7.5865 9.02029 7.66529 8.9415C7.74408 8.86271 7.78834 8.75585 7.78834 8.64443V7.38404H9.04872C9.16015 7.38404 9.26701 7.33978 9.3458 7.26099C9.42459 7.1822 9.46885 7.07534 9.46885 6.96392C9.46885 6.85249 9.42459 6.74563 9.3458 6.66684C9.26701 6.58805 9.16015 6.54379 9.04872 6.54379H7.78834V5.28341Z" fill="#363330"/>
<path d="M0.645713 1.50195C0.534288 1.50195 0.427427 1.54622 0.348638 1.62501C0.269849 1.70379 0.225586 1.81066 0.225586 1.92208C0.225586 2.0335 0.269849 2.14037 0.348638 2.21915C0.427427 2.29794 0.534288 2.34221 0.645713 2.34221H1.5784L1.91534 3.6925L3.17404 10.4019C3.19206 10.4982 3.24315 10.5852 3.31849 10.6477C3.39382 10.7103 3.48866 10.7447 3.5866 10.7447H4.42686C3.98116 10.7447 3.55371 10.9218 3.23856 11.237C2.9234 11.5521 2.74635 11.9796 2.74635 12.4253C2.74635 12.871 2.9234 13.2984 3.23856 13.6136C3.55371 13.9287 3.98116 14.1058 4.42686 14.1058C4.87256 14.1058 5.3 13.9287 5.61516 13.6136C5.93031 13.2984 6.10737 12.871 6.10737 12.4253C6.10737 11.9796 5.93031 11.5521 5.61516 11.237C5.3 10.9218 4.87256 10.7447 4.42686 10.7447H10.3086C9.86294 10.7447 9.43549 10.9218 9.12034 11.237C8.80518 11.5521 8.62813 11.9796 8.62813 12.4253C8.62813 12.871 8.80518 13.2984 9.12034 13.6136C9.43549 13.9287 9.86294 14.1058 10.3086 14.1058C10.7543 14.1058 11.1818 13.9287 11.4969 13.6136C11.8121 13.2984 11.9891 12.871 11.9891 12.4253C11.9891 11.9796 11.8121 11.5521 11.4969 11.237C11.1818 10.9218 10.7543 10.7447 10.3086 10.7447H11.1489C11.2468 10.7447 11.3417 10.7103 11.417 10.6477C11.4923 10.5852 11.5434 10.4982 11.5615 10.4019L12.8218 3.67989C12.8332 3.61926 12.831 3.55687 12.8156 3.49715C12.8001 3.43744 12.7716 3.38187 12.7323 3.33438C12.6929 3.2869 12.6435 3.24867 12.5877 3.22242C12.5319 3.19616 12.471 3.18252 12.4093 3.18246H2.65392L2.31362 1.82041C2.29094 1.72948 2.23851 1.64874 2.16467 1.59104C2.09082 1.53334 1.99981 1.50198 1.90609 1.50195H0.645713ZM3.93531 9.9045L2.83205 4.02272H11.9034L10.8002 9.9045H3.93531ZM5.26711 12.4253C5.26711 12.6481 5.17858 12.8618 5.02101 13.0194C4.86343 13.177 4.64971 13.2655 4.42686 13.2655C4.20401 13.2655 3.99029 13.177 3.83271 13.0194C3.67513 12.8618 3.5866 12.6481 3.5866 12.4253C3.5866 12.2024 3.67513 11.9887 3.83271 11.8311C3.99029 11.6735 4.20401 11.585 4.42686 11.585C4.64971 11.585 4.86343 11.6735 5.02101 11.8311C5.17858 11.9887 5.26711 12.2024 5.26711 12.4253ZM11.1489 12.4253C11.1489 12.6481 11.0604 12.8618 10.9028 13.0194C10.7452 13.177 10.5315 13.2655 10.3086 13.2655C10.0858 13.2655 9.87207 13.177 9.71449 13.0194C9.55691 12.8618 9.46838 12.6481 9.46838 12.4253C9.46838 12.2024 9.55691 11.9887 9.71449 11.8311C9.87207 11.6735 10.0858 11.585 10.3086 11.585C10.5315 11.585 10.7452 11.6735 10.9028 11.8311C11.0604 11.9887 11.1489 12.2024 11.1489 12.4253Z" fill="#363330"/>
</svg>
