<svg width="15" height="14" viewBox="0 0 15 14" fill="none" xmlns="http://www.w3.org/2000/svg">
<path d="M8.33424 4.91036C8.33424 4.79894 8.28998 4.69208 8.21119 4.61329C8.1324 4.5345 8.02554 4.49023 7.91411 4.49023C7.80269 4.49023 7.69583 4.5345 7.61704 4.61329C7.53825 4.69208 7.49398 4.79894 7.49398 4.91036V6.17074H6.2336C6.12218 6.17074 6.01532 6.21501 5.93653 6.2938C5.85774 6.37258 5.81348 6.47945 5.81348 6.59087C5.81348 6.70229 5.85774 6.80916 5.93653 6.88794C6.01532 6.96673 6.12218 7.011 6.2336 7.011H7.49398V8.27138C7.49398 8.3828 7.53825 8.48966 7.61704 8.56845C7.69583 8.64724 7.80269 8.69151 7.91411 8.69151C8.02554 8.69151 8.1324 8.64724 8.21119 8.56845C8.28998 8.48966 8.33424 8.3828 8.33424 8.27138V7.011H9.59462C9.70605 7.011 9.81291 6.96673 9.8917 6.88794C9.97048 6.80916 10.0147 6.70229 10.0147 6.59087C10.0147 6.47945 9.97048 6.37258 9.8917 6.2938C9.81291 6.21501 9.70605 6.17074 9.59462 6.17074H8.33424V4.91036Z" fill="#363330"/>
<path d="M1.19161 1.12891C1.08019 1.12891 0.973326 1.17317 0.894537 1.25196C0.815748 1.33075 0.771484 1.43761 0.771484 1.54903C0.771484 1.66046 0.815748 1.76732 0.894537 1.84611C0.973326 1.9249 1.08019 1.96916 1.19161 1.96916H2.12429L2.46124 3.31945L3.71994 10.0289C3.73796 10.1252 3.78905 10.2121 3.86439 10.2747C3.93972 10.3373 4.03455 10.3716 4.1325 10.3717H4.97276C4.52706 10.3717 4.09961 10.5488 3.78446 10.8639C3.4693 11.1791 3.29225 11.6065 3.29225 12.0522C3.29225 12.4979 3.4693 12.9254 3.78446 13.2405C4.09961 13.5557 4.52706 13.7327 4.97276 13.7327C5.41845 13.7327 5.8459 13.5557 6.16105 13.2405C6.47621 12.9254 6.65326 12.4979 6.65326 12.0522C6.65326 11.6065 6.47621 11.1791 6.16105 10.8639C5.8459 10.5488 5.41845 10.3717 4.97276 10.3717H10.8545C10.4088 10.3717 9.98139 10.5488 9.66624 10.8639C9.35108 11.1791 9.17403 11.6065 9.17403 12.0522C9.17403 12.4979 9.35108 12.9254 9.66624 13.2405C9.98139 13.5557 10.4088 13.7327 10.8545 13.7327C11.3002 13.7327 11.7277 13.5557 12.0428 13.2405C12.358 12.9254 12.535 12.4979 12.535 12.0522C12.535 11.6065 12.358 11.1791 12.0428 10.8639C11.7277 10.5488 11.3002 10.3717 10.8545 10.3717H11.6948C11.7927 10.3716 11.8876 10.3373 11.9629 10.2747C12.0382 10.2121 12.0893 10.1252 12.1074 10.0289L13.3677 3.30685C13.3791 3.24621 13.3769 3.18382 13.3615 3.1241C13.346 3.06439 13.3175 3.00882 13.2782 2.96134C13.2388 2.91385 13.1894 2.87563 13.1336 2.84937C13.0778 2.82311 13.0169 2.80947 12.9552 2.80941H3.19982L2.85952 1.44736C2.83684 1.35643 2.78441 1.2757 2.71057 1.21799C2.63672 1.16029 2.54571 1.12893 2.45199 1.12891H1.19161ZM4.48121 9.53145L3.37795 3.64967H12.4493L11.3461 9.53145H4.48121ZM5.81301 12.0522C5.81301 12.2751 5.72448 12.4888 5.56691 12.6464C5.40933 12.8039 5.1956 12.8925 4.97276 12.8925C4.74991 12.8925 4.53618 12.8039 4.37861 12.6464C4.22103 12.4888 4.1325 12.2751 4.1325 12.0522C4.1325 11.8294 4.22103 11.6156 4.37861 11.4581C4.53618 11.3005 4.74991 11.212 4.97276 11.212C5.1956 11.212 5.40933 11.3005 5.56691 11.4581C5.72448 11.6156 5.81301 11.8294 5.81301 12.0522ZM11.6948 12.0522C11.6948 12.2751 11.6063 12.4888 11.4487 12.6464C11.2911 12.8039 11.0774 12.8925 10.8545 12.8925C10.6317 12.8925 10.418 12.8039 10.2604 12.6464C10.1028 12.4888 10.0143 12.2751 10.0143 12.0522C10.0143 11.8294 10.1028 11.6156 10.2604 11.4581C10.418 11.3005 10.6317 11.212 10.8545 11.212C11.0774 11.212 11.2911 11.3005 11.4487 11.4581C11.6063 11.6156 11.6948 11.8294 11.6948 12.0522Z" fill="#363330"/>
</svg>
