<svg width="14" height="15" viewBox="0 0 14 15" fill="none" xmlns="http://www.w3.org/2000/svg">
<path d="M7.78834 5.46212C7.78834 5.35069 7.74408 5.24383 7.66529 5.16504C7.5865 5.08626 7.47964 5.04199 7.36821 5.04199C7.25679 5.04199 7.14993 5.08626 7.07114 5.16504C6.99235 5.24383 6.94809 5.35069 6.94809 5.46212V6.7225H5.68771C5.57628 6.7225 5.46942 6.76676 5.39063 6.84555C5.31184 6.92434 5.26758 7.0312 5.26758 7.14263C5.26758 7.25405 5.31184 7.36091 5.39063 7.4397C5.46942 7.51849 5.57628 7.56275 5.68771 7.56275H6.94809V8.82314C6.94809 8.93456 6.99235 9.04142 7.07114 9.12021C7.14993 9.199 7.25679 9.24326 7.36821 9.24326C7.47964 9.24326 7.5865 9.199 7.66529 9.12021C7.74408 9.04142 7.78834 8.93456 7.78834 8.82314V7.56275H9.04872C9.16015 7.56275 9.26701 7.51849 9.3458 7.4397C9.42459 7.36091 9.46885 7.25405 9.46885 7.14263C9.46885 7.0312 9.42459 6.92434 9.3458 6.84555C9.26701 6.76676 9.16015 6.7225 9.04872 6.7225H7.78834V5.46212Z" fill="#363330"/>
<path d="M0.645713 1.68066C0.534288 1.68066 0.427427 1.72493 0.348638 1.80372C0.269849 1.88251 0.225586 1.98937 0.225586 2.10079C0.225586 2.21222 0.269849 2.31908 0.348638 2.39787C0.427427 2.47666 0.534288 2.52092 0.645713 2.52092H1.5784L1.91534 3.87121L3.17404 10.5806C3.19206 10.6769 3.24315 10.7639 3.31849 10.8265C3.39382 10.8891 3.48866 10.9234 3.5866 10.9235H4.42686C3.98116 10.9235 3.55371 11.1005 3.23856 11.4157C2.9234 11.7308 2.74635 12.1583 2.74635 12.604C2.74635 13.0497 2.9234 13.4771 3.23856 13.7923C3.55371 14.1074 3.98116 14.2845 4.42686 14.2845C4.87256 14.2845 5.3 14.1074 5.61516 13.7923C5.93031 13.4771 6.10737 13.0497 6.10737 12.604C6.10737 12.1583 5.93031 11.7308 5.61516 11.4157C5.3 11.1005 4.87256 10.9235 4.42686 10.9235H10.3086C9.86294 10.9235 9.43549 11.1005 9.12034 11.4157C8.80518 11.7308 8.62813 12.1583 8.62813 12.604C8.62813 13.0497 8.80518 13.4771 9.12034 13.7923C9.43549 14.1074 9.86294 14.2845 10.3086 14.2845C10.7543 14.2845 11.1818 14.1074 11.4969 13.7923C11.8121 13.4771 11.9891 13.0497 11.9891 12.604C11.9891 12.1583 11.8121 11.7308 11.4969 11.4157C11.1818 11.1005 10.7543 10.9235 10.3086 10.9235H11.1489C11.2468 10.9234 11.3417 10.8891 11.417 10.8265C11.4923 10.7639 11.5434 10.6769 11.5615 10.5806L12.8218 3.8586C12.8332 3.79797 12.831 3.73558 12.8156 3.67586C12.8001 3.61615 12.7716 3.56058 12.7323 3.51309C12.6929 3.46561 12.6435 3.42738 12.5877 3.40113C12.5319 3.37487 12.471 3.36123 12.4093 3.36117H2.65392L2.31362 1.99912C2.29094 1.90819 2.23851 1.82746 2.16467 1.76975C2.09082 1.71205 1.99981 1.68069 1.90609 1.68066H0.645713ZM3.93531 10.0832L2.83205 4.20143H11.9034L10.8002 10.0832H3.93531ZM5.26711 12.604C5.26711 12.8268 5.17858 13.0405 5.02101 13.1981C4.86343 13.3557 4.64971 13.4442 4.42686 13.4442C4.20401 13.4442 3.99029 13.3557 3.83271 13.1981C3.67513 13.0405 3.5866 12.8268 3.5866 12.604C3.5866 12.3811 3.67513 12.1674 3.83271 12.0098C3.99029 11.8522 4.20401 11.7637 4.42686 11.7637C4.64971 11.7637 4.86343 11.8522 5.02101 12.0098C5.17858 12.1674 5.26711 12.3811 5.26711 12.604ZM11.1489 12.604C11.1489 12.8268 11.0604 13.0405 10.9028 13.1981C10.7452 13.3557 10.5315 13.4442 10.3086 13.4442C10.0858 13.4442 9.87207 13.3557 9.71449 13.1981C9.55691 13.0405 9.46838 12.8268 9.46838 12.604C9.46838 12.3811 9.55691 12.1674 9.71449 12.0098C9.87207 11.8522 10.0858 11.7637 10.3086 11.7637C10.5315 11.7637 10.7452 11.8522 10.9028 12.0098C11.0604 12.1674 11.1489 12.3811 11.1489 12.604Z" fill="#363330"/>
</svg>
