<svg width="15" height="15" viewBox="0 0 15 15" fill="none" xmlns="http://www.w3.org/2000/svg">
<path d="M8.35865 5.59396C8.35865 5.48253 8.31439 5.37567 8.2356 5.29688C8.15681 5.21809 8.04995 5.17383 7.93853 5.17383C7.8271 5.17383 7.72024 5.21809 7.64145 5.29688C7.56266 5.37567 7.5184 5.48253 7.5184 5.59396V6.85434H6.25802C6.14659 6.85434 6.03973 6.8986 5.96094 6.97739C5.88215 7.05618 5.83789 7.16304 5.83789 7.27446C5.83789 7.38589 5.88215 7.49275 5.96094 7.57154C6.03973 7.65033 6.14659 7.69459 6.25802 7.69459H7.5184V8.95497C7.5184 9.0664 7.56266 9.17326 7.64145 9.25205C7.72024 9.33084 7.8271 9.3751 7.93853 9.3751C8.04995 9.3751 8.15681 9.33084 8.2356 9.25205C8.31439 9.17326 8.35865 9.0664 8.35865 8.95497V7.69459H9.61903C9.73046 7.69459 9.83732 7.65033 9.91611 7.57154C9.9949 7.49275 10.0392 7.38589 10.0392 7.27446C10.0392 7.16304 9.9949 7.05618 9.91611 6.97739C9.83732 6.8986 9.73046 6.85434 9.61903 6.85434H8.35865V5.59396Z" fill="#363330"/>
<path d="M1.21603 1.8125C1.1046 1.8125 0.99774 1.85676 0.918951 1.93555C0.840162 2.01434 0.795898 2.1212 0.795898 2.23263C0.795898 2.34405 0.840162 2.45091 0.918951 2.5297C0.99774 2.60849 1.1046 2.65275 1.21603 2.65275H2.14871L2.48565 4.00304L3.74435 10.7125C3.76237 10.8087 3.81347 10.8957 3.8888 10.9583C3.96413 11.0209 4.05897 11.0552 4.15692 11.0553H4.99717C4.55147 11.0553 4.12403 11.2323 3.80887 11.5475C3.49371 11.8627 3.31666 12.2901 3.31666 12.7358C3.31666 13.1815 3.49371 13.6089 3.80887 13.9241C4.12403 14.2393 4.55147 14.4163 4.99717 14.4163C5.44287 14.4163 5.87031 14.2393 6.18547 13.9241C6.50063 13.6089 6.67768 13.1815 6.67768 12.7358C6.67768 12.2901 6.50063 11.8627 6.18547 11.5475C5.87031 11.2323 5.44287 11.0553 4.99717 11.0553H10.8789C10.4333 11.0553 10.0058 11.2323 9.69065 11.5475C9.37549 11.8627 9.19844 12.2901 9.19844 12.7358C9.19844 13.1815 9.37549 13.6089 9.69065 13.9241C10.0058 14.2393 10.4333 14.4163 10.8789 14.4163C11.3246 14.4163 11.7521 14.2393 12.0672 13.9241C12.3824 13.6089 12.5595 13.1815 12.5595 12.7358C12.5595 12.2901 12.3824 11.8627 12.0672 11.5475C11.7521 11.2323 11.3246 11.0553 10.8789 11.0553H11.7192C11.8172 11.0552 11.912 11.0209 11.9873 10.9583C12.0627 10.8957 12.1137 10.8087 12.1318 10.7125L13.3921 3.99044C13.4035 3.9298 13.4014 3.86741 13.3859 3.8077C13.3704 3.74798 13.342 3.69241 13.3026 3.64493C13.2632 3.59745 13.2138 3.55922 13.158 3.53296C13.1022 3.50671 13.0413 3.49307 12.9796 3.49301H3.22423L2.88393 2.13096C2.86125 2.04003 2.80882 1.95929 2.73498 1.90159C2.66114 1.84388 2.57012 1.81253 2.47641 1.8125H1.21603ZM4.50562 10.215L3.40237 4.33326H12.4738L11.3705 10.215H4.50562ZM5.83742 12.7358C5.83742 12.9587 5.7489 13.1724 5.59132 13.33C5.43374 13.4875 5.22002 13.5761 4.99717 13.5761C4.77432 13.5761 4.5606 13.4875 4.40302 13.33C4.24544 13.1724 4.15692 12.9587 4.15692 12.7358C4.15692 12.513 4.24544 12.2992 4.40302 12.1417C4.5606 11.9841 4.77432 11.8955 4.99717 11.8955C5.22002 11.8955 5.43374 11.9841 5.59132 12.1417C5.7489 12.2992 5.83742 12.513 5.83742 12.7358ZM11.7192 12.7358C11.7192 12.9587 11.6307 13.1724 11.4731 13.33C11.3155 13.4875 11.1018 13.5761 10.8789 13.5761C10.6561 13.5761 10.4424 13.4875 10.2848 13.33C10.1272 13.1724 10.0387 12.9587 10.0387 12.7358C10.0387 12.513 10.1272 12.2992 10.2848 12.1417C10.4424 11.9841 10.6561 11.8955 10.8789 11.8955C11.1018 11.8955 11.3155 11.9841 11.4731 12.1417C11.6307 12.2992 11.7192 12.513 11.7192 12.7358Z" fill="#363330"/>
</svg>
