<svg width="15" height="14" viewBox="0 0 15 14" fill="none" xmlns="http://www.w3.org/2000/svg">
<path d="M8.2776 5.08321C8.2776 4.97179 8.23334 4.86493 8.15455 4.78614C8.07576 4.70735 7.9689 4.66309 7.85747 4.66309C7.74605 4.66309 7.63919 4.70735 7.5604 4.78614C7.48161 4.86493 7.43734 4.97179 7.43734 5.08321V6.34359H6.17696C6.06554 6.34359 5.95868 6.38786 5.87989 6.46665C5.8011 6.54544 5.75684 6.6523 5.75684 6.76372C5.75684 6.87515 5.8011 6.98201 5.87989 7.0608C5.95868 7.13959 6.06554 7.18385 6.17696 7.18385H7.43734V8.44423C7.43734 8.55565 7.48161 8.66252 7.5604 8.7413C7.63919 8.82009 7.74605 8.86436 7.85747 8.86436C7.9689 8.86436 8.07576 8.82009 8.15455 8.7413C8.23334 8.66252 8.2776 8.55565 8.2776 8.44423V7.18385H9.53798C9.6494 7.18385 9.75627 7.13959 9.83505 7.0608C9.91384 6.98201 9.95811 6.87515 9.95811 6.76372C9.95811 6.6523 9.91384 6.54544 9.83505 6.46665C9.75627 6.38786 9.6494 6.34359 9.53798 6.34359H8.2776V5.08321Z" fill="#363330"/>
<path d="M1.13497 1.30176C1.02355 1.30176 0.916685 1.34602 0.837896 1.42481C0.759107 1.5036 0.714844 1.61046 0.714844 1.72188C0.714844 1.83331 0.759107 1.94017 0.837896 2.01896C0.916685 2.09775 1.02355 2.14201 1.13497 2.14201H2.06765L2.4046 3.4923L3.6633 10.2017C3.68132 10.298 3.73241 10.385 3.80774 10.4476C3.88308 10.5102 3.97791 10.5445 4.07586 10.5446H4.91611C4.47042 10.5446 4.04297 10.7216 3.72782 11.0368C3.41266 11.3519 3.23561 11.7794 3.23561 12.2251C3.23561 12.6708 3.41266 13.0982 3.72782 13.4134C4.04297 13.7285 4.47042 13.9056 4.91611 13.9056C5.36181 13.9056 5.78926 13.7285 6.10441 13.4134C6.41957 13.0982 6.59662 12.6708 6.59662 12.2251C6.59662 11.7794 6.41957 11.3519 6.10441 11.0368C5.78926 10.7216 5.36181 10.5446 4.91611 10.5446H10.7979C10.3522 10.5446 9.92475 10.7216 9.6096 11.0368C9.29444 11.3519 9.11739 11.7794 9.11739 12.2251C9.11739 12.6708 9.29444 13.0982 9.6096 13.4134C9.92475 13.7285 10.3522 13.9056 10.7979 13.9056C11.2436 13.9056 11.671 13.7285 11.9862 13.4134C12.3013 13.0982 12.4784 12.6708 12.4784 12.2251C12.4784 11.7794 12.3013 11.3519 11.9862 11.0368C11.671 10.7216 11.2436 10.5446 10.7979 10.5446H11.6381C11.7361 10.5445 11.8309 10.5102 11.9063 10.4476C11.9816 10.385 12.0327 10.298 12.0507 10.2017L13.3111 3.4797C13.3224 3.41906 13.3203 3.35667 13.3048 3.29696C13.2893 3.23724 13.2609 3.18167 13.2215 3.13419C13.1821 3.0867 13.1328 3.04848 13.077 3.02222C13.0211 2.99596 12.9602 2.98232 12.8985 2.98227H3.14318L2.80288 1.62021C2.7802 1.52929 2.72777 1.44855 2.65392 1.39085C2.58008 1.33314 2.48907 1.30178 2.39535 1.30176H1.13497ZM4.42457 9.7043L3.32131 3.82252H12.3927L11.2894 9.7043H4.42457ZM5.75637 12.2251C5.75637 12.4479 5.66784 12.6616 5.51026 12.8192C5.35269 12.9768 5.13896 13.0653 4.91611 13.0653C4.69327 13.0653 4.47954 12.9768 4.32197 12.8192C4.16439 12.6616 4.07586 12.4479 4.07586 12.2251C4.07586 12.0022 4.16439 11.7885 4.32197 11.6309C4.47954 11.4733 4.69327 11.3848 4.91611 11.3848C5.13896 11.3848 5.35269 11.4733 5.51026 11.6309C5.66784 11.7885 5.75637 12.0022 5.75637 12.2251ZM11.6381 12.2251C11.6381 12.4479 11.5496 12.6616 11.392 12.8192C11.2345 12.9768 11.0207 13.0653 10.7979 13.0653C10.575 13.0653 10.3613 12.9768 10.2037 12.8192C10.0462 12.6616 9.95764 12.4479 9.95764 12.2251C9.95764 12.0022 10.0462 11.7885 10.2037 11.6309C10.3613 11.4733 10.575 11.3848 10.7979 11.3848C11.0207 11.3848 11.2345 11.4733 11.392 11.6309C11.5496 11.7885 11.6381 12.0022 11.6381 12.2251Z" fill="#363330"/>
</svg>
