<svg width="14" height="14" viewBox="0 0 14 14" fill="none" xmlns="http://www.w3.org/2000/svg">
<path d="M7.87721 4.74435C7.87721 4.63292 7.83294 4.52606 7.75416 4.44727C7.67537 4.36848 7.56851 4.32422 7.45708 4.32422C7.34566 4.32422 7.23879 4.36848 7.16001 4.44727C7.08122 4.52606 7.03695 4.63292 7.03695 4.74435V6.00473H5.77657C5.66515 6.00473 5.55829 6.04899 5.4795 6.12778C5.40071 6.20657 5.35645 6.31343 5.35645 6.42485C5.35645 6.53628 5.40071 6.64314 5.4795 6.72193C5.55829 6.80072 5.66515 6.84498 5.77657 6.84498H7.03695V8.10536C7.03695 8.21679 7.08122 8.32365 7.16001 8.40244C7.23879 8.48123 7.34566 8.52549 7.45708 8.52549C7.56851 8.52549 7.67537 8.48123 7.75416 8.40244C7.83294 8.32365 7.87721 8.21679 7.87721 8.10536V6.84498H9.13759C9.24901 6.84498 9.35588 6.80072 9.43466 6.72193C9.51345 6.64314 9.55772 6.53628 9.55772 6.42485C9.55772 6.31343 9.51345 6.20657 9.43466 6.12778C9.35588 6.04899 9.24901 6.00473 9.13759 6.00473H7.87721V4.74435Z" fill="#363330"/>
<path d="M0.73458 0.962891C0.623156 0.962891 0.516295 1.00715 0.437506 1.08594C0.358716 1.16473 0.314453 1.27159 0.314453 1.38302C0.314453 1.49444 0.358716 1.6013 0.437506 1.68009C0.516295 1.75888 0.623156 1.80314 0.73458 1.80314H1.66726L2.0042 3.15343L3.26291 9.86286C3.28093 9.95914 3.33202 10.0461 3.40735 10.1087C3.48269 10.1713 3.57752 10.2056 3.67547 10.2057H4.51572C4.07003 10.2057 3.64258 10.3827 3.32743 10.6979C3.01227 11.0131 2.83522 11.4405 2.83522 11.8862C2.83522 12.3319 3.01227 12.7593 3.32743 13.0745C3.64258 13.3897 4.07003 13.5667 4.51572 13.5667C4.96142 13.5667 5.38887 13.3897 5.70402 13.0745C6.01918 12.7593 6.19623 12.3319 6.19623 11.8862C6.19623 11.4405 6.01918 11.0131 5.70402 10.6979C5.38887 10.3827 4.96142 10.2057 4.51572 10.2057H10.3975C9.95181 10.2057 9.52436 10.3827 9.20921 10.6979C8.89405 11.0131 8.717 11.4405 8.717 11.8862C8.717 12.3319 8.89405 12.7593 9.20921 13.0745C9.52436 13.3897 9.95181 13.5667 10.3975 13.5667C10.8432 13.5667 11.2706 13.3897 11.5858 13.0745C11.901 12.7593 12.078 12.3319 12.078 11.8862C12.078 11.4405 11.901 11.0131 11.5858 10.6979C11.2706 10.3827 10.8432 10.2057 10.3975 10.2057H11.2378C11.3357 10.2056 11.4305 10.1713 11.5059 10.1087C11.5812 10.0461 11.6323 9.95914 11.6503 9.86286L12.9107 3.14083C12.9221 3.08019 12.9199 3.0178 12.9044 2.95809C12.889 2.89837 12.8605 2.8428 12.8211 2.79532C12.7817 2.74784 12.7324 2.70961 12.6766 2.68335C12.6207 2.6571 12.5598 2.64346 12.4981 2.6434H2.74279L2.40248 1.28135C2.37981 1.19042 2.32738 1.10968 2.25353 1.05198C2.17969 0.994275 2.08868 0.962917 1.99496 0.962891H0.73458ZM4.02418 9.36543L2.92092 3.48365H11.9923L10.8891 9.36543H4.02418ZM5.35598 11.8862C5.35598 12.109 5.26745 12.3228 5.10987 12.4803C4.9523 12.6379 4.73857 12.7264 4.51572 12.7264C4.29288 12.7264 4.07915 12.6379 3.92158 12.4803C3.764 12.3228 3.67547 12.109 3.67547 11.8862C3.67547 11.6633 3.764 11.4496 3.92158 11.292C4.07915 11.1345 4.29288 11.0459 4.51572 11.0459C4.73857 11.0459 4.9523 11.1345 5.10987 11.292C5.26745 11.4496 5.35598 11.6633 5.35598 11.8862ZM11.2378 11.8862C11.2378 12.109 11.1492 12.3228 10.9917 12.4803C10.8341 12.6379 10.6204 12.7264 10.3975 12.7264C10.1747 12.7264 9.96093 12.6379 9.80336 12.4803C9.64578 12.3228 9.55725 12.109 9.55725 11.8862C9.55725 11.6633 9.64578 11.4496 9.80336 11.292C9.96093 11.1345 10.1747 11.0459 10.3975 11.0459C10.6204 11.0459 10.8341 11.1345 10.9917 11.292C11.1492 11.4496 11.2378 11.6633 11.2378 11.8862Z" fill="#363330"/>
</svg>
