<svg width="14" height="15" viewBox="0 0 14 15" fill="none" xmlns="http://www.w3.org/2000/svg">
<path d="M7.93775 5.39278C7.93775 5.28136 7.89349 5.1745 7.8147 5.09571C7.73591 5.01692 7.62905 4.97266 7.51763 4.97266C7.4062 4.97266 7.29934 5.01692 7.22055 5.09571C7.14176 5.1745 7.0975 5.28136 7.0975 5.39278V6.65316H5.83712C5.72569 6.65316 5.61883 6.69743 5.54004 6.77622C5.46126 6.85501 5.41699 6.96187 5.41699 7.07329C5.41699 7.18472 5.46126 7.29158 5.54004 7.37037C5.61883 7.44916 5.72569 7.49342 5.83712 7.49342H7.0975V8.7538C7.0975 8.86522 7.14176 8.97209 7.22055 9.05088C7.29934 9.12966 7.4062 9.17393 7.51763 9.17393C7.62905 9.17393 7.73591 9.12966 7.8147 9.05088C7.89349 8.97209 7.93775 8.86522 7.93775 8.7538V7.49342H9.19814C9.30956 7.49342 9.41642 7.44916 9.49521 7.37037C9.574 7.29158 9.61826 7.18472 9.61826 7.07329C9.61826 6.96187 9.574 6.85501 9.49521 6.77622C9.41642 6.69743 9.30956 6.65316 9.19814 6.65316H7.93775V5.39278Z" fill="#363330"/>
<path d="M0.795127 1.61133C0.683702 1.61133 0.576842 1.65559 0.498052 1.73438C0.419263 1.81317 0.375 1.92003 0.375 2.03146C0.375 2.14288 0.419263 2.24974 0.498052 2.32853C0.576842 2.40732 0.683702 2.45158 0.795127 2.45158H1.72781L2.06475 3.80187L3.32345 10.5113C3.34147 10.6076 3.39257 10.6945 3.4679 10.7571C3.54323 10.8197 3.63807 10.854 3.73602 10.8541H4.57627C4.13057 10.8541 3.70313 11.0312 3.38797 11.3463C3.07282 11.6615 2.89576 12.0889 2.89576 12.5346C2.89576 12.9803 3.07282 13.4078 3.38797 13.7229C3.70313 14.0381 4.13057 14.2151 4.57627 14.2151C5.02197 14.2151 5.44941 14.0381 5.76457 13.7229C6.07973 13.4078 6.25678 12.9803 6.25678 12.5346C6.25678 12.0889 6.07973 11.6615 5.76457 11.3463C5.44941 11.0312 5.02197 10.8541 4.57627 10.8541H10.4581C10.0124 10.8541 9.58491 11.0312 9.26975 11.3463C8.9546 11.6615 8.77754 12.0889 8.77754 12.5346C8.77754 12.9803 8.9546 13.4078 9.26975 13.7229C9.58491 14.0381 10.0124 14.2151 10.4581 14.2151C10.9037 14.2151 11.3312 14.0381 11.6463 13.7229C11.9615 13.4078 12.1386 12.9803 12.1386 12.5346C12.1386 12.0889 11.9615 11.6615 11.6463 11.3463C11.3312 11.0312 10.9037 10.8541 10.4581 10.8541H11.2983C11.3963 10.854 11.4911 10.8197 11.5664 10.7571C11.6418 10.6945 11.6928 10.6076 11.7109 10.5113L12.9713 3.78927C12.9826 3.72863 12.9805 3.66624 12.965 3.60653C12.9495 3.54681 12.9211 3.49124 12.8817 3.44376C12.8423 3.39628 12.7929 3.35805 12.7371 3.33179C12.6813 3.30553 12.6204 3.29189 12.5587 3.29184H2.80333L2.46303 1.92978C2.44035 1.83886 2.38792 1.75812 2.31408 1.70042C2.24024 1.64271 2.14922 1.61135 2.05551 1.61133H0.795127ZM4.08472 10.0139L2.98147 4.13209H12.0529L10.9496 10.0139H4.08472ZM5.41653 12.5346C5.41653 12.7575 5.328 12.9712 5.17042 13.1288C5.01284 13.2864 4.79912 13.3749 4.57627 13.3749C4.35342 13.3749 4.1397 13.2864 3.98212 13.1288C3.82454 12.9712 3.73602 12.7575 3.73602 12.5346C3.73602 12.3118 3.82454 12.0981 3.98212 11.9405C4.1397 11.7829 4.35342 11.6944 4.57627 11.6944C4.79912 11.6944 5.01284 11.7829 5.17042 11.9405C5.328 12.0981 5.41653 12.3118 5.41653 12.5346ZM11.2983 12.5346C11.2983 12.7575 11.2098 12.9712 11.0522 13.1288C10.8946 13.2864 10.6809 13.3749 10.4581 13.3749C10.2352 13.3749 10.0215 13.2864 9.8639 13.1288C9.70632 12.9712 9.6178 12.7575 9.6178 12.5346C9.6178 12.3118 9.70632 12.0981 9.8639 11.9405C10.0215 11.7829 10.2352 11.6944 10.4581 11.6944C10.6809 11.6944 10.8946 11.7829 11.0522 11.9405C11.2098 12.0981 11.2983 12.3118 11.2983 12.5346Z" fill="#363330"/>
</svg>
