<svg width="14" height="14" viewBox="0 0 14 14" fill="none" xmlns="http://www.w3.org/2000/svg">
<path d="M7.78932 5.09396C7.78932 4.98253 7.74505 4.87567 7.66627 4.79688C7.58748 4.71809 7.48061 4.67383 7.36919 4.67383C7.25777 4.67383 7.1509 4.71809 7.07212 4.79688C6.99333 4.87567 6.94906 4.98253 6.94906 5.09396V6.35434H5.68868C5.57726 6.35434 5.4704 6.3986 5.39161 6.47739C5.31282 6.55618 5.26855 6.66304 5.26855 6.77446C5.26855 6.88589 5.31282 6.99275 5.39161 7.07154C5.4704 7.15033 5.57726 7.19459 5.68868 7.19459H6.94906V8.45497C6.94906 8.5664 6.99333 8.67326 7.07212 8.75205C7.1509 8.83084 7.25777 8.8751 7.36919 8.8751C7.48061 8.8751 7.58748 8.83084 7.66627 8.75205C7.74505 8.67326 7.78932 8.5664 7.78932 8.45497V7.19459H9.0497C9.16112 7.19459 9.26798 7.15033 9.34677 7.07154C9.42556 6.99275 9.46983 6.88589 9.46983 6.77446C9.46983 6.66304 9.42556 6.55618 9.34677 6.47739C9.26798 6.3986 9.16112 6.35434 9.0497 6.35434H7.78932V5.09396Z" fill="#363330"/>
<path d="M0.64669 1.3125C0.535265 1.3125 0.428404 1.35676 0.349615 1.43555C0.270826 1.51434 0.226563 1.6212 0.226562 1.73263C0.226563 1.84405 0.270826 1.95091 0.349615 2.0297C0.428404 2.10849 0.535265 2.15275 0.64669 2.15275H1.57937L1.91631 3.50304L3.17501 10.2125C3.19304 10.3087 3.24413 10.3957 3.31946 10.4583C3.3948 10.5209 3.48963 10.5552 3.58758 10.5553H4.42783C3.98214 10.5553 3.55469 10.7323 3.23953 11.0475C2.92438 11.3627 2.74733 11.7901 2.74733 12.2358C2.74733 12.6815 2.92438 13.1089 3.23953 13.4241C3.55469 13.7393 3.98214 13.9163 4.42783 13.9163C4.87353 13.9163 5.30098 13.7393 5.61613 13.4241C5.93129 13.1089 6.10834 12.6815 6.10834 12.2358C6.10834 11.7901 5.93129 11.3627 5.61613 11.0475C5.30098 10.7323 4.87353 10.5553 4.42783 10.5553H10.3096C9.86391 10.5553 9.43647 10.7323 9.12132 11.0475C8.80616 11.3627 8.6291 11.7901 8.6291 12.2358C8.6291 12.6815 8.80616 13.1089 9.12132 13.4241C9.43647 13.7393 9.86391 13.9163 10.3096 13.9163C10.7553 13.9163 11.1828 13.7393 11.4979 13.4241C11.8131 13.1089 11.9901 12.6815 11.9901 12.2358C11.9901 11.7901 11.8131 11.3627 11.4979 11.0475C11.1828 10.7323 10.7553 10.5553 10.3096 10.5553H11.1499C11.2478 10.5552 11.3427 10.5209 11.418 10.4583C11.4933 10.3957 11.5444 10.3087 11.5624 10.2125L12.8228 3.49044C12.8342 3.4298 12.832 3.36741 12.8165 3.3077C12.8011 3.24798 12.7726 3.19241 12.7332 3.14493C12.6939 3.09745 12.6445 3.05922 12.5887 3.03296C12.5329 3.00671 12.4719 2.99307 12.4102 2.99301H2.6549L2.31459 1.63096C2.29192 1.54003 2.23949 1.45929 2.16564 1.40159C2.0918 1.34388 2.00079 1.31253 1.90707 1.3125H0.64669ZM3.93629 9.71504L2.83303 3.83326H11.9044L10.8012 9.71504H3.93629ZM5.26809 12.2358C5.26809 12.4587 5.17956 12.6724 5.02198 12.83C4.8644 12.9875 4.65068 13.0761 4.42783 13.0761C4.20498 13.0761 3.99126 12.9875 3.83368 12.83C3.67611 12.6724 3.58758 12.4587 3.58758 12.2358C3.58758 12.013 3.67611 11.7992 3.83368 11.6417C3.99126 11.4841 4.20498 11.3955 4.42783 11.3955C4.65068 11.3955 4.8644 11.4841 5.02198 11.6417C5.17956 11.7992 5.26809 12.013 5.26809 12.2358ZM11.1499 12.2358C11.1499 12.4587 11.0613 12.6724 10.9038 12.83C10.7462 12.9875 10.5325 13.0761 10.3096 13.0761C10.0868 13.0761 9.87304 12.9875 9.71546 12.83C9.55789 12.6724 9.46936 12.4587 9.46936 12.2358C9.46936 12.013 9.55789 11.7992 9.71546 11.6417C9.87304 11.4841 10.0868 11.3955 10.3096 11.3955C10.5325 11.3955 10.7462 11.4841 10.9038 11.6417C11.0613 11.7992 11.1499 12.013 11.1499 12.2358Z" fill="#363330"/>
</svg>
