<svg width="17" height="17" viewBox="0 0 17 17" fill="none" xmlns="http://www.w3.org/2000/svg">
<path d="M8.32629 4.92578C8.45891 4.92578 8.58609 4.97846 8.67986 5.07223C8.77363 5.166 8.82631 5.29318 8.82631 5.4258V8.42589H11.8264C11.959 8.42589 12.0862 8.47857 12.18 8.57234C12.2737 8.66611 12.3264 8.79329 12.3264 8.9259C12.3264 9.05852 12.2737 9.1857 12.18 9.27947C12.0862 9.37324 11.959 9.42592 11.8264 9.42592H8.82631V12.426C8.82631 12.5586 8.77363 12.6858 8.67986 12.7796C8.58609 12.8733 8.45891 12.926 8.32629 12.926C8.19368 12.926 8.0665 12.8733 7.97273 12.7796C7.87896 12.6858 7.82628 12.5586 7.82628 12.426V9.42592H4.82619C4.69357 9.42592 4.56639 9.37324 4.47262 9.27947C4.37885 9.1857 4.32617 9.05852 4.32617 8.9259C4.32617 8.79329 4.37885 8.66611 4.47262 8.57234C4.56639 8.47857 4.69357 8.42589 4.82619 8.42589H7.82628V5.4258C7.82628 5.29318 7.87896 5.166 7.97273 5.07223C8.0665 4.97846 8.19368 4.92578 8.32629 4.92578Z" fill="#CFCCC9"/>
</svg>
