<svg width="17" height="17" viewBox="0 0 17 17" fill="none" xmlns="http://www.w3.org/2000/svg">
<path d="M8.50696 4.33203C8.63957 4.33203 8.76675 4.38471 8.86052 4.47848C8.95429 4.57225 9.00697 4.69943 9.00697 4.83205V7.83214H12.0071C12.1397 7.83214 12.2669 7.88482 12.3606 7.97859C12.4544 8.07236 12.5071 8.19954 12.5071 8.33215C12.5071 8.46477 12.4544 8.59195 12.3606 8.68572C12.2669 8.77949 12.1397 8.83217 12.0071 8.83217H9.00697V11.8323C9.00697 11.9649 8.95429 12.0921 8.86052 12.1858C8.76675 12.2796 8.63957 12.3323 8.50696 12.3323C8.37435 12.3323 8.24716 12.2796 8.15339 12.1858C8.05962 12.0921 8.00694 11.9649 8.00694 11.8323V8.83217H5.00685C4.87424 8.83217 4.74706 8.77949 4.65329 8.68572C4.55952 8.59195 4.50684 8.46477 4.50684 8.33215C4.50684 8.19954 4.55952 8.07236 4.65329 7.97859C4.74706 7.88482 4.87424 7.83214 5.00685 7.83214H8.00694V4.83205C8.00694 4.69943 8.05962 4.57225 8.15339 4.47848C8.24716 4.38471 8.37435 4.33203 8.50696 4.33203Z" fill="#CFCCC9"/>
</svg>
