<svg width="17" height="17" viewBox="0 0 17 17" fill="none" xmlns="http://www.w3.org/2000/svg">
<path d="M8.50696 4.62891C8.63957 4.62891 8.76675 4.68159 8.86052 4.77536C8.95429 4.86913 9.00697 4.99631 9.00697 5.12892V8.12901H12.0071C12.1397 8.12901 12.2669 8.18169 12.3606 8.27546C12.4544 8.36923 12.5071 8.49642 12.5071 8.62903C12.5071 8.76164 12.4544 8.88882 12.3606 8.98259C12.2669 9.07636 12.1397 9.12904 12.0071 9.12904H9.00697V12.1291C9.00697 12.2617 8.95429 12.3889 8.86052 12.4827C8.76675 12.5765 8.63957 12.6291 8.50696 12.6291C8.37435 12.6291 8.24716 12.5765 8.15339 12.4827C8.05962 12.3889 8.00694 12.2617 8.00694 12.1291V9.12904H5.00685C4.87424 9.12904 4.74706 9.07636 4.65329 8.98259C4.55952 8.88882 4.50684 8.76164 4.50684 8.62903C4.50684 8.49642 4.55952 8.36923 4.65329 8.27546C4.74706 8.18169 4.87424 8.12901 5.00685 8.12901H8.00694V5.12892C8.00694 4.99631 8.05962 4.86913 8.15339 4.77536C8.24716 4.68159 8.37435 4.62891 8.50696 4.62891Z" fill="#CFCCC9"/>
</svg>
