<svg width="17" height="17" viewBox="0 0 17 17" fill="none" xmlns="http://www.w3.org/2000/svg">
<path d="M8.50696 4.07617C8.63957 4.07617 8.76675 4.12885 8.86052 4.22262C8.95429 4.31639 9.00697 4.44357 9.00697 4.57619V7.57628H12.0071C12.1397 7.57628 12.2669 7.62896 12.3606 7.72273C12.4544 7.8165 12.5071 7.94368 12.5071 8.07629C12.5071 8.20891 12.4544 8.33609 12.3606 8.42986C12.2669 8.52363 12.1397 8.57631 12.0071 8.57631H9.00697V11.5764C9.00697 11.709 8.95429 11.8362 8.86052 11.93C8.76675 12.0237 8.63957 12.0764 8.50696 12.0764C8.37435 12.0764 8.24716 12.0237 8.15339 11.93C8.05962 11.8362 8.00694 11.709 8.00694 11.5764V8.57631H5.00685C4.87424 8.57631 4.74706 8.52363 4.65329 8.42986C4.55952 8.33609 4.50684 8.20891 4.50684 8.07629C4.50684 7.94368 4.55952 7.8165 4.65329 7.72273C4.74706 7.62896 4.87424 7.57628 5.00685 7.57628H8.00694V4.57619C8.00694 4.44357 8.05962 4.31639 8.15339 4.22262C8.24716 4.12885 8.37435 4.07617 8.50696 4.07617Z" fill="#CFCCC9"/>
</svg>
