<svg width="26" height="28" viewBox="0 0 26 28" fill="none" xmlns="http://www.w3.org/2000/svg">
<path d="M22.9958 24.6847C22.8079 24.0403 22.5394 23.3153 22.1903 22.5903C21.8681 21.8654 21.4922 21.1135 21.0625 20.3886C21.0088 20.496 20.9551 20.5765 20.8746 20.6839C20.8209 20.7913 20.7403 20.8719 20.6866 20.9793C20.6329 21.0598 20.5524 21.1672 20.4987 21.2478C20.4181 21.3283 20.3644 21.4357 20.2839 21.5163C20.2839 21.5163 20.2839 21.5163 20.257 21.5432C20.257 21.5432 20.257 21.5432 20.2302 21.57C20.2302 21.57 20.2302 21.57 20.2033 21.5969C20.2033 21.5969 20.2033 21.5969 20.1765 21.6237L20.1228 21.7043C20.1765 21.8654 20.257 22.0802 20.3376 22.295C20.4181 22.5098 20.4987 22.7514 20.5792 22.9663C20.6598 23.1811 20.7135 23.3959 20.7403 23.557C20.7672 23.7181 20.7672 23.8523 20.6866 23.9329C20.6598 23.9597 20.6329 23.9597 20.6061 23.9866C20.5792 24.0134 20.5524 24.0134 20.5255 24.0134C20.4987 24.0134 20.4718 24.0403 20.4181 24.0403C20.3913 24.0403 20.3376 24.0403 20.3107 24.0403C20.257 24.0403 20.1765 24.0403 20.1228 24.0134C20.0422 23.9866 19.9885 23.9866 19.908 23.9597C19.8274 23.9329 19.7468 23.906 19.6663 23.8792C19.5857 23.8523 19.5052 23.7986 19.3978 23.7718C19.2904 23.7181 19.1561 23.6644 19.0487 23.5838C18.9145 23.5301 18.8071 23.4496 18.6728 23.369C18.5385 23.2885 18.4043 23.2079 18.27 23.1274C18.1358 23.0468 18.0015 22.9663 17.8673 22.8589C18.4311 22.3218 18.9413 21.7311 19.3978 21.0867C19.8811 20.4691 20.3107 19.7978 20.6866 19.1266C21.0625 18.4284 21.3848 17.7303 21.6801 16.9785C21.9486 16.2535 22.1634 15.5017 22.3245 14.723C22.6736 13.0045 22.6468 11.3935 22.3245 9.97036C22.0023 8.54726 21.4116 7.31211 20.5792 6.31863C19.7737 5.32514 18.7265 4.57331 17.5182 4.06314C16.3368 3.57982 14.9942 3.36501 13.5443 3.47242C12.5776 3.52612 11.6378 3.74093 10.6981 4.03629C9.78512 4.33165 8.87218 4.76127 8.0398 5.27144C7.18057 5.78161 6.37504 6.37233 5.62321 7.07045C4.87138 7.74173 4.17325 8.49356 3.55568 9.32594C3.39457 9.00373 3.23347 8.70837 3.12606 8.43986C3.01866 8.17135 2.93811 7.92969 2.8844 7.71488C2.8307 7.50007 2.8307 7.31211 2.8307 7.15101C2.85755 6.9899 2.8844 6.85565 2.99181 6.77509C3.01866 6.74824 3.04551 6.72139 3.09921 6.69454C3.15291 6.66769 3.20662 6.64084 3.26032 6.61399C3.31402 6.58714 3.36772 6.56028 3.44828 6.56028C3.52883 6.53343 3.58253 6.53343 3.66308 6.53343C3.74364 6.53343 3.82419 6.53343 3.93159 6.53343C4.01215 6.53343 4.11955 6.56028 4.2001 6.61399C4.30751 6.64084 4.38806 6.69454 4.49547 6.74824C4.60287 6.80194 4.68342 6.8825 4.79083 6.96305C4.89823 6.85565 4.97878 6.74824 5.08619 6.64084C5.19359 6.53343 5.301 6.42603 5.4084 6.34548C5.5158 6.23807 5.62321 6.15752 5.73061 6.05012C5.83802 5.96956 5.97227 5.86216 6.07968 5.78161C6.07968 5.78161 6.10653 5.78161 6.10653 5.75475L6.13338 5.7279C6.13338 5.7279 6.16023 5.7279 6.16023 5.70105C6.16023 5.70105 6.18708 5.70105 6.18708 5.6742C5.97227 5.48624 5.73061 5.32514 5.48895 5.19088C5.24729 5.05663 5.00564 4.94922 4.73712 4.89552C4.49547 4.81497 4.22696 4.76127 3.9853 4.73442C3.74364 4.70756 3.50198 4.70756 3.26032 4.70756C3.09921 4.70756 2.93811 4.73442 2.80385 4.76127C2.6696 4.78812 2.53534 4.84182 2.40109 4.86867C2.26683 4.92237 2.15943 4.97607 2.07887 5.02978C1.97147 5.08348 1.89092 5.16403 1.83721 5.21773C1.64926 5.43254 1.515 5.70105 1.48815 6.02326C1.43445 6.34548 1.4613 6.74824 1.54185 7.17786C1.62241 7.60747 1.75666 8.11764 1.97147 8.62781C2.18628 9.16483 2.45479 9.7287 2.777 10.3463C2.56219 10.6953 2.34738 11.0444 2.15943 11.3935C1.97147 11.7425 1.78351 12.1184 1.62241 12.4944C1.4613 12.8703 1.30019 13.2462 1.16594 13.649C1.03168 14.0517 0.897429 14.4276 0.790025 14.8304C0.38726 16.3609 0.253005 17.8646 0.38726 19.234C0.521515 20.6302 0.92428 21.8922 1.54185 22.9931C2.18628 24.1209 3.04551 25.0606 4.1464 25.7319C5.24729 26.43 6.56299 26.8597 8.06665 26.9402C8.52312 26.9671 8.95273 26.9671 9.4092 26.9402C9.86567 26.9134 10.3221 26.8328 10.7786 26.7523C11.2351 26.6717 11.6915 26.5374 12.1212 26.4032C12.5776 26.2421 13.0072 26.081 13.4637 25.8662L12.4165 23.8523C12.1212 23.9866 11.7989 24.094 11.4767 24.1746C11.1545 24.2551 10.8592 24.3357 10.5369 24.3894C10.2147 24.4431 9.89252 24.4968 9.59716 24.4968C9.27495 24.5236 8.97959 24.5236 8.65737 24.4968C7.44908 24.4431 6.37504 24.1209 5.48895 23.557C4.60287 23.02 3.87789 22.2681 3.34087 21.382C2.8307 20.496 2.48164 19.4756 2.37424 18.3479C2.26683 17.247 2.34738 16.0387 2.6696 14.7767C2.99181 13.5415 3.50198 12.3333 4.17325 11.2592C4.84453 10.1852 5.67691 9.21854 6.58985 8.38615C7.52963 7.55377 8.54997 6.85565 9.65086 6.37233C10.7518 5.86216 11.9063 5.5668 13.0878 5.48624C14.2692 5.40569 15.3433 5.59365 16.3099 6.02326C17.2766 6.42603 18.0821 7.07045 18.7265 7.87598C19.3709 8.70837 19.8542 9.70185 20.0691 10.8564C20.3107 12.011 20.3107 13.2999 20.0154 14.6693C19.8811 15.26 19.72 15.8507 19.5052 16.4415C19.2904 17.0322 19.0219 17.5692 18.7265 18.1331C18.4311 18.6701 18.0821 19.1803 17.733 19.6904C17.3571 20.1737 16.9543 20.6571 16.5247 21.0867C16.5247 20.9524 16.5516 20.7913 16.5516 20.6302C16.5516 20.4691 16.5784 20.3349 16.5784 20.2006C16.5784 20.0663 16.5784 19.9321 16.6053 19.8247C16.6053 19.7173 16.6053 19.6367 16.6053 19.5562C16.6053 19.5025 16.6053 19.4488 16.5784 19.4219C16.5784 19.3951 16.5516 19.3682 16.5247 19.3414C16.4979 19.3145 16.4979 19.3145 16.471 19.2877C16.4442 19.2877 16.4173 19.2608 16.3905 19.2608C16.3636 19.2608 16.3368 19.2608 16.3368 19.2608C16.3099 19.2608 16.3099 19.2608 16.2831 19.2877C16.2562 19.2877 16.2562 19.2877 16.2562 19.3145H16.2294L12.4971 20.5228C12.4971 20.5228 12.4702 20.5228 12.4165 20.5497C12.3628 20.5765 12.336 20.6034 12.2823 20.6571C12.2286 20.7108 12.2017 20.7645 12.2017 20.845C12.2017 20.9256 12.2017 21.033 12.2823 21.1404V21.1672V21.1941V21.2209V21.2478C12.4434 21.5969 12.685 22.0533 12.9535 22.5635C13.222 23.0737 13.5443 23.6644 13.8396 24.2283C14.1618 24.7921 14.4572 25.3829 14.7257 25.8662C14.9942 26.3495 15.209 26.7791 15.3433 27.0208C15.3433 27.0476 15.3701 27.0745 15.3701 27.0745C15.3701 27.1013 15.397 27.1013 15.397 27.1282C15.397 27.155 15.4238 27.155 15.4238 27.1819C15.4238 27.2087 15.4507 27.2087 15.4507 27.2356C15.4775 27.2893 15.5312 27.343 15.5581 27.3967C15.5849 27.4504 15.6118 27.4772 15.6655 27.5041C15.6923 27.5309 15.7192 27.5578 15.746 27.5578C15.7729 27.5578 15.7997 27.5846 15.8266 27.5846C15.8803 27.5846 15.9072 27.5846 15.9609 27.5578C15.9877 27.5309 16.0414 27.5041 16.0683 27.4504C16.0951 27.3967 16.122 27.3698 16.122 27.3161C16.1488 27.2624 16.1488 27.2356 16.1488 27.2087C16.1488 27.2087 16.1488 27.1819 16.1488 27.155C16.1488 27.1282 16.1488 27.1282 16.1488 27.1013C16.1488 27.0745 16.1488 27.0476 16.1488 27.0208C16.1488 26.9939 16.1488 26.9671 16.1488 26.9134C16.1488 26.7791 16.1757 26.6448 16.1757 26.4837C16.1757 26.3226 16.2025 26.1615 16.2025 26.0273C16.2025 25.893 16.2294 25.7588 16.2294 25.6514C16.2294 25.544 16.2294 25.4903 16.2294 25.4903C16.7395 25.7856 17.2497 26.1078 17.7599 26.3763C18.27 26.6448 18.7534 26.9134 19.2367 27.1282C19.72 27.343 20.1765 27.5309 20.5792 27.6652C21.0088 27.7994 21.3848 27.88 21.7338 27.9068C21.7875 27.9068 21.8144 27.9068 21.8681 27.9068C21.9218 27.9068 21.9486 27.9068 22.0023 27.9068C22.056 27.9068 22.0829 27.9068 22.1366 27.9068C22.1903 27.9068 22.2171 27.9068 22.244 27.88C22.2977 27.88 22.3514 27.8531 22.4051 27.8263C22.4588 27.7994 22.5125 27.7994 22.5662 27.7726C22.6199 27.7457 22.6468 27.7189 22.7005 27.692C22.7542 27.6652 22.781 27.6115 22.8079 27.5846C23.0495 27.3161 23.1569 26.9402 23.1569 26.43C23.1569 25.9199 23.0495 25.3291 22.8347 24.6847H22.9958Z" fill="#FCB8C4"/>
<path d="M11.2611 14.4258V13.5397H8.95192L10.2945 12.224C10.6435 11.875 10.912 11.5527 11.0463 11.2574C11.1806 10.962 11.2611 10.6667 11.2611 10.3445C11.2611 9.83428 11.1 9.43152 10.7778 9.13615C10.4556 8.84079 9.99911 8.70654 9.43523 8.70654C8.87136 8.70654 8.4149 8.84079 8.06583 9.13615C7.71677 9.43152 7.55566 9.83428 7.55566 10.3445V10.3982H8.5223C8.5223 9.83428 8.81766 9.53892 9.40838 9.53892C9.97226 9.53892 10.2676 9.80743 10.2676 10.3445C10.2676 10.5593 10.2139 10.7741 10.1065 10.962C9.99911 11.15 9.838 11.3648 9.59634 11.6064L7.63622 13.5129V14.399H11.2343L11.2611 14.4258ZM15.9869 10.3982C15.9869 9.88798 15.7989 9.45837 15.4499 9.16301C15.1008 8.84079 14.6175 8.67969 14.0536 8.67969C13.4897 8.67969 13.0064 8.84079 12.6574 9.13615C12.3083 9.45837 12.1203 9.86113 12.1203 10.3713V12.7879C12.1203 13.2981 12.3083 13.7277 12.6574 14.023C13.0064 14.3453 13.4897 14.4795 14.0536 14.4795C14.6175 14.4795 15.1008 14.3184 15.4499 13.9962C15.7989 13.674 15.9869 13.2712 15.9869 12.761V10.3982ZM15.0202 12.7073C15.0202 13.0027 14.9397 13.2444 14.7786 13.4055C14.6175 13.5666 14.3758 13.6471 14.0805 13.6471C13.7851 13.6471 13.5434 13.5666 13.3823 13.4055C13.2212 13.2444 13.1407 13.0027 13.1407 12.7073V10.4519C13.1407 10.1565 13.2212 9.91483 13.3823 9.75373C13.5434 9.59262 13.7851 9.51207 14.0805 9.51207C14.3758 9.51207 14.6175 9.59262 14.7786 9.75373C14.9397 9.91483 15.0202 10.1565 15.0202 10.4519L14.9934 12.7073H15.0202Z" fill="#FCB8C4"/>
<path d="M8.73869 19.18V14.9375H8.01371V18.1865L6.34895 14.9375H5.30176V19.18H6.02674V15.9578L7.71835 19.18H8.73869ZM10.2155 18.7772C10.2155 18.6698 10.1886 18.5892 10.1081 18.5355C10.0275 18.4818 9.94698 18.455 9.81273 18.455C9.70533 18.455 9.59792 18.4818 9.54422 18.5355C9.46367 18.5892 9.43681 18.6698 9.43681 18.7772V18.8846C9.43681 18.992 9.46367 19.0726 9.54422 19.1263C9.62477 19.18 9.70533 19.2068 9.83958 19.2068C9.94698 19.2068 10.0544 19.18 10.1349 19.1263C10.2155 19.0726 10.2423 18.992 10.2423 18.8846V18.7772H10.2155ZM13.4108 18.0254H12.7395C12.7395 18.4281 12.5247 18.6161 12.0951 18.6161C11.6655 18.6161 11.4775 18.4013 11.4775 17.9717V17.3541C11.4775 16.9245 11.6923 16.7097 12.0951 16.7097C12.5247 16.7097 12.7395 16.8976 12.7395 17.3272H13.4108V17.2735C13.4108 16.8976 13.3034 16.6291 13.0617 16.4143C12.82 16.2263 12.5247 16.1189 12.1219 16.1189C11.7192 16.1189 11.4238 16.2264 11.1821 16.4412C10.9405 16.656 10.8331 16.9513 10.8331 17.3272V18.0791C10.8331 18.455 10.9405 18.7235 11.1821 18.9383C11.4238 19.1531 11.7192 19.2337 12.1219 19.2337C12.5247 19.2337 12.8469 19.1263 13.0617 18.9383C13.3034 18.7503 13.4108 18.455 13.4108 18.0791V18.0254ZM18.1902 19.18V17.0587C18.1902 16.7634 18.1097 16.5486 17.9754 16.3875C17.8143 16.2264 17.6264 16.1458 17.3579 16.1458C17.1162 16.1458 16.9014 16.2263 16.6597 16.3606L16.3375 16.5486C16.2033 16.2801 15.9616 16.1458 15.6126 16.1458C15.3977 16.1458 15.1829 16.1995 14.9681 16.3338L14.6996 16.4949V16.1726H14.0283V19.18H14.7265V17.1124L15.0755 16.8976C15.2098 16.8171 15.344 16.7902 15.4246 16.7902C15.6394 16.7902 15.7468 16.9245 15.7468 17.1661V19.2068H16.4449V17.1393L16.8208 16.9245C16.9551 16.8439 17.0894 16.8171 17.1699 16.8171C17.3847 16.8171 17.4921 16.9513 17.4921 17.193V19.2337H18.1902V19.18Z" fill="#FCB8C4"/>
<path d="M20.1227 11.177C22.9957 11.177 25.3049 8.84095 25.3049 5.99475C25.3049 3.12169 22.9689 0.8125 20.1227 0.8125C17.2496 0.8125 14.9404 3.14854 14.9404 5.99475C14.9404 8.86781 17.2765 11.177 20.1227 11.177Z" fill="#FCB8C4"/>
<path d="M20.1227 11.177C22.9957 11.177 25.3049 8.84095 25.3049 5.99475C25.3049 3.12169 22.9689 0.8125 20.1227 0.8125C17.2496 0.8125 14.9404 3.14854 14.9404 5.99475C14.9404 8.86781 17.2765 11.177 20.1227 11.177Z" stroke="white" stroke-width="1.10089"/>
<path d="M21.976 8.94928V8.38541H20.714V3.41797H20.0696C19.6668 3.79388 19.2909 4.03554 18.915 4.14295V4.73367C19.3446 4.65312 19.7205 4.43831 20.0964 4.08924V8.38541H18.4854V8.94928H22.0028H21.976Z" fill="#FEFEFE"/>
</svg>
