<svg width="17" height="17" viewBox="0 0 17 17" fill="none" xmlns="http://www.w3.org/2000/svg">
<path d="M8.66636 16.2331C13.0532 16.2331 16.5349 12.6818 16.5349 8.3646C16.5349 3.97773 12.9836 0.496094 8.66636 0.496094C4.27949 0.496094 0.797852 4.04737 0.797852 8.3646C0.797852 12.7515 4.34912 16.2331 8.66636 16.2331Z" fill="#FCB8C4"/>
<path d="M11.2436 12.8187V11.9135H7.34421L9.78136 9.40673C10.2688 8.84967 10.6866 8.43187 10.8955 7.94444C11.1044 7.52665 11.174 7.10885 11.174 6.62142C11.174 5.92509 10.9651 5.36803 10.5473 4.8806C10.1295 4.4628 9.50283 4.25391 8.66723 4.25391C7.90127 4.25391 7.27458 4.4628 6.78715 4.8806C6.29972 5.2984 6.09082 5.85546 6.09082 6.48216V6.55179H7.06568C7.06568 6.06436 7.20494 5.71619 7.48348 5.43766C7.76201 5.22877 8.1798 5.0895 8.66723 5.0895C9.2243 5.0895 9.64209 5.22877 9.85099 5.5073C10.1295 5.78583 10.2688 6.13399 10.2688 6.62142C10.2688 6.96958 10.1992 7.31775 9.99026 7.66591C9.85099 8.01408 9.57246 8.36224 9.15466 8.78004L6.16045 11.8439V12.7491H11.174L11.2436 12.8187Z" fill="#FEFEFE"/>
</svg>
