<svg width="17" height="17" viewBox="0 0 17 17" fill="none" xmlns="http://www.w3.org/2000/svg">
<path d="M8.66636 16.1276C13.0532 16.1276 16.5349 12.5764 16.5349 8.25913C16.5349 3.87226 12.9836 0.390625 8.66636 0.390625C4.27949 0.390625 0.797852 3.9419 0.797852 8.25913C0.797852 12.646 4.34912 16.1276 8.66636 16.1276Z" fill="#FCB8C4"/>
<path d="M11.2436 12.7133V11.808H7.34421L9.78136 9.30126C10.2688 8.7442 10.6866 8.3264 10.8955 7.83897C11.1044 7.42118 11.174 7.00338 11.174 6.51595C11.174 5.81962 10.9651 5.26256 10.5473 4.77513C10.1295 4.35734 9.50283 4.14844 8.66723 4.14844C7.90127 4.14844 7.27458 4.35734 6.78715 4.77513C6.29972 5.19293 6.09082 5.74999 6.09082 6.37669V6.44632H7.06568C7.06568 5.95889 7.20494 5.61073 7.48348 5.33219C7.76201 5.1233 8.1798 4.98403 8.66723 4.98403C9.2243 4.98403 9.64209 5.1233 9.85099 5.40183C10.1295 5.68036 10.2688 6.02852 10.2688 6.51595C10.2688 6.86412 10.1992 7.21228 9.99026 7.56044C9.85099 7.90861 9.57246 8.25677 9.15466 8.67457L6.16045 11.7384V12.6436H11.174L11.2436 12.7133Z" fill="#FEFEFE"/>
</svg>
