<svg width="26" height="28" viewBox="0 0 26 28" fill="none" xmlns="http://www.w3.org/2000/svg">
<path d="M22.9958 24.6691C22.8079 24.0247 22.5394 23.2997 22.1903 22.5747C21.8681 21.8497 21.4922 21.0979 21.0625 20.3729C21.0088 20.4803 20.9551 20.5609 20.8746 20.6683C20.8209 20.7757 20.7403 20.8563 20.6866 20.9637C20.6329 21.0442 20.5524 21.1516 20.4987 21.2322C20.4181 21.3127 20.3644 21.4201 20.2839 21.5007C20.2839 21.5007 20.2839 21.5007 20.257 21.5275C20.257 21.5275 20.257 21.5275 20.2302 21.5544C20.2302 21.5544 20.2302 21.5544 20.2033 21.5812C20.2033 21.5812 20.2033 21.5812 20.1765 21.6081L20.1228 21.6886C20.1765 21.8497 20.257 22.0645 20.3376 22.2794C20.4181 22.4942 20.4987 22.7358 20.5792 22.9506C20.6598 23.1654 20.7135 23.3802 20.7403 23.5414C20.7672 23.7025 20.7672 23.8367 20.6866 23.9173C20.6598 23.9441 20.6329 23.9441 20.6061 23.971C20.5792 23.9978 20.5524 23.9978 20.5255 23.9978C20.4987 23.9978 20.4718 24.0247 20.4181 24.0247C20.3913 24.0247 20.3376 24.0247 20.3107 24.0247C20.257 24.0247 20.1765 24.0247 20.1228 23.9978C20.0422 23.971 19.9885 23.971 19.908 23.9441C19.8274 23.9173 19.7468 23.8904 19.6663 23.8636C19.5857 23.8367 19.5052 23.783 19.3978 23.7562C19.2904 23.7025 19.1561 23.6488 19.0487 23.5682C18.9145 23.5145 18.8071 23.434 18.6728 23.3534C18.5385 23.2728 18.4043 23.1923 18.27 23.1117C18.1358 23.0312 18.0015 22.9506 17.8673 22.8432C18.4311 22.3062 18.9413 21.7155 19.3978 21.0711C19.8811 20.4535 20.3107 19.7822 20.6866 19.1109C21.0625 18.4128 21.3848 17.7147 21.6801 16.9629C21.9486 16.2379 22.1634 15.486 22.3245 14.7074C22.6736 12.9889 22.6468 11.3778 22.3245 9.95474C22.0023 8.53163 21.4116 7.29649 20.5792 6.303C19.7737 5.30951 18.7265 4.55768 17.5182 4.04751C16.3368 3.5642 14.9942 3.34939 13.5443 3.45679C12.5776 3.51049 11.6378 3.7253 10.6981 4.02066C9.78512 4.31602 8.87218 4.74564 8.0398 5.25581C7.18057 5.76598 6.37504 6.3567 5.62321 7.05483C4.87138 7.7261 4.17325 8.47793 3.55568 9.31032C3.39457 8.9881 3.23347 8.69274 3.12606 8.42423C3.01866 8.15572 2.93811 7.91406 2.8844 7.69925C2.8307 7.48445 2.8307 7.29649 2.8307 7.13538C2.85755 6.97428 2.8844 6.84002 2.99181 6.75947C3.01866 6.73262 3.04551 6.70577 3.09921 6.67892C3.15291 6.65206 3.20662 6.62521 3.26032 6.59836C3.31402 6.57151 3.36772 6.54466 3.44828 6.54466C3.52883 6.51781 3.58253 6.51781 3.66308 6.51781C3.74364 6.51781 3.82419 6.51781 3.93159 6.51781C4.01215 6.51781 4.11955 6.54466 4.2001 6.59836C4.30751 6.62521 4.38806 6.67892 4.49547 6.73262C4.60287 6.78632 4.68342 6.86687 4.79083 6.94743C4.89823 6.84002 4.97878 6.73262 5.08619 6.62521C5.19359 6.51781 5.301 6.4104 5.4084 6.32985C5.5158 6.22245 5.62321 6.14189 5.73061 6.03449C5.83802 5.95394 5.97227 5.84653 6.07968 5.76598C6.07968 5.76598 6.10653 5.76598 6.10653 5.73913L6.13338 5.71228C6.13338 5.71228 6.16023 5.71228 6.16023 5.68543C6.16023 5.68543 6.18708 5.68543 6.18708 5.65858C5.97227 5.47062 5.73061 5.30951 5.48895 5.17526C5.24729 5.041 5.00564 4.9336 4.73712 4.8799C4.49547 4.79934 4.22696 4.74564 3.9853 4.71879C3.74364 4.69194 3.50198 4.69194 3.26032 4.69194C3.09921 4.69194 2.93811 4.71879 2.80385 4.74564C2.6696 4.77249 2.53534 4.82619 2.40109 4.85305C2.26683 4.90675 2.15943 4.96045 2.07887 5.01415C1.97147 5.06785 1.89092 5.14841 1.83721 5.20211C1.64926 5.41692 1.515 5.68543 1.48815 6.00764C1.43445 6.32985 1.4613 6.73262 1.54185 7.16223C1.62241 7.59185 1.75666 8.10202 1.97147 8.61219C2.18628 9.14921 2.45479 9.71308 2.777 10.3307C2.56219 10.6797 2.34738 11.0288 2.15943 11.3778C1.97147 11.7269 1.78351 12.1028 1.62241 12.4787C1.4613 12.8546 1.30019 13.2306 1.16594 13.6333C1.03168 14.0361 0.897429 14.412 0.790025 14.8148C0.38726 16.3453 0.253005 17.8489 0.38726 19.2183C0.521515 20.6146 0.92428 21.8766 1.54185 22.9775C2.18628 24.1052 3.04551 25.045 4.1464 25.7163C5.24729 26.4144 6.56299 26.844 8.06665 26.9246C8.52312 26.9514 8.95273 26.9514 9.4092 26.9246C9.86567 26.8977 10.3221 26.8172 10.7786 26.7366C11.2351 26.6561 11.6915 26.5218 12.1212 26.3876C12.5776 26.2265 13.0072 26.0654 13.4637 25.8505L12.4165 23.8367C12.1212 23.971 11.7989 24.0784 11.4767 24.1589C11.1545 24.2395 10.8592 24.32 10.5369 24.3737C10.2147 24.4274 9.89252 24.4811 9.59716 24.4811C9.27495 24.508 8.97959 24.508 8.65737 24.4811C7.44908 24.4274 6.37504 24.1052 5.48895 23.5414C4.60287 23.0043 3.87789 22.2525 3.34087 21.3664C2.8307 20.4803 2.48164 19.46 2.37424 18.3323C2.26683 17.2314 2.34738 16.0231 2.6696 14.7611C2.99181 13.5259 3.50198 12.3176 4.17325 11.2436C4.84453 10.1695 5.67691 9.20291 6.58985 8.37053C7.52963 7.53815 8.54997 6.84002 9.65086 6.3567C10.7518 5.84653 11.9063 5.55117 13.0878 5.47062C14.2692 5.39007 15.3433 5.57802 16.3099 6.00764C17.2766 6.4104 18.0821 7.05483 18.7265 7.86036C19.3709 8.69274 19.8542 9.68623 20.0691 10.8408C20.3107 11.9954 20.3107 13.2843 20.0154 14.6537C19.8811 15.2444 19.72 15.8351 19.5052 16.4258C19.2904 17.0166 19.0219 17.5536 18.7265 18.1174C18.4311 18.6545 18.0821 19.1646 17.733 19.6748C17.3571 20.1581 16.9543 20.6414 16.5247 21.0711C16.5247 20.9368 16.5516 20.7757 16.5516 20.6146C16.5516 20.4535 16.5784 20.3192 16.5784 20.185C16.5784 20.0507 16.5784 19.9165 16.6053 19.8091C16.6053 19.7017 16.6053 19.6211 16.6053 19.5406C16.6053 19.4869 16.6053 19.4331 16.5784 19.4063C16.5784 19.3794 16.5516 19.3526 16.5247 19.3257C16.4979 19.2989 16.4979 19.2989 16.471 19.272C16.4442 19.272 16.4173 19.2452 16.3905 19.2452C16.3636 19.2452 16.3368 19.2452 16.3368 19.2452C16.3099 19.2452 16.3099 19.2452 16.2831 19.272C16.2562 19.272 16.2562 19.272 16.2562 19.2989H16.2294L12.4971 20.5072C12.4971 20.5072 12.4702 20.5072 12.4165 20.534C12.3628 20.5609 12.336 20.5877 12.2823 20.6414C12.2286 20.6951 12.2017 20.7488 12.2017 20.8294C12.2017 20.91 12.2017 21.0174 12.2823 21.1248V21.1516V21.1785V21.2053V21.2322C12.4434 21.5812 12.685 22.0377 12.9535 22.5479C13.222 23.058 13.5443 23.6488 13.8396 24.2126C14.1618 24.7765 14.4572 25.3672 14.7257 25.8505C14.9942 26.3339 15.209 26.7635 15.3433 27.0051C15.3433 27.032 15.3701 27.0588 15.3701 27.0588C15.3701 27.0857 15.397 27.0857 15.397 27.1125C15.397 27.1394 15.4238 27.1394 15.4238 27.1662C15.4238 27.1931 15.4507 27.1931 15.4507 27.2199C15.4775 27.2736 15.5312 27.3273 15.5581 27.3811C15.5849 27.4348 15.6118 27.4616 15.6655 27.4885C15.6923 27.5153 15.7192 27.5422 15.746 27.5422C15.7729 27.5422 15.7997 27.569 15.8266 27.569C15.8803 27.569 15.9072 27.569 15.9609 27.5422C15.9877 27.5153 16.0414 27.4885 16.0683 27.4348C16.0951 27.3811 16.122 27.3542 16.122 27.3005C16.1488 27.2468 16.1488 27.2199 16.1488 27.1931C16.1488 27.1931 16.1488 27.1662 16.1488 27.1394C16.1488 27.1125 16.1488 27.1125 16.1488 27.0857C16.1488 27.0588 16.1488 27.032 16.1488 27.0051C16.1488 26.9783 16.1488 26.9514 16.1488 26.8977C16.1488 26.7635 16.1757 26.6292 16.1757 26.4681C16.1757 26.307 16.2025 26.1459 16.2025 26.0117C16.2025 25.8774 16.2294 25.7431 16.2294 25.6357C16.2294 25.5283 16.2294 25.4746 16.2294 25.4746C16.7395 25.77 17.2497 26.0922 17.7599 26.3607C18.27 26.6292 18.7534 26.8977 19.2367 27.1125C19.72 27.3274 20.1765 27.5153 20.5792 27.6496C21.0088 27.7838 21.3848 27.8644 21.7338 27.8912C21.7875 27.8912 21.8144 27.8912 21.8681 27.8912C21.9218 27.8912 21.9486 27.8912 22.0023 27.8912C22.056 27.8912 22.0829 27.8912 22.1366 27.8912C22.1903 27.8912 22.2171 27.8912 22.244 27.8644C22.2977 27.8644 22.3514 27.8375 22.4051 27.8107C22.4588 27.7838 22.5125 27.7838 22.5662 27.757C22.6199 27.7301 22.6468 27.7033 22.7005 27.6764C22.7542 27.6496 22.781 27.5959 22.8079 27.569C23.0495 27.3005 23.1569 26.9246 23.1569 26.4144C23.1569 25.9042 23.0495 25.3135 22.8347 24.6691H22.9958Z" fill="#FCB8C4"/>
<path d="M11.2611 14.4102V13.5241H8.95192L10.2945 12.2084C10.6435 11.8593 10.912 11.5371 11.0463 11.2418C11.1806 10.9464 11.2611 10.651 11.2611 10.3288C11.2611 9.81866 11.1 9.41589 10.7778 9.12053C10.4556 8.82517 9.99911 8.69091 9.43523 8.69091C8.87136 8.69091 8.4149 8.82517 8.06583 9.12053C7.71677 9.41589 7.55566 9.81866 7.55566 10.3288V10.3825H8.5223C8.5223 9.81866 8.81766 9.5233 9.40838 9.5233C9.97226 9.5233 10.2676 9.79181 10.2676 10.3288C10.2676 10.5436 10.2139 10.7584 10.1065 10.9464C9.99911 11.1344 9.838 11.3492 9.59634 11.5908L7.63622 13.4972V14.3833H11.2343L11.2611 14.4102ZM15.9869 10.3825C15.9869 9.87236 15.7989 9.44274 15.4499 9.14738C15.1008 8.82517 14.6175 8.66406 14.0536 8.66406C13.4897 8.66406 13.0064 8.82517 12.6574 9.12053C12.3083 9.44274 12.1203 9.84551 12.1203 10.3557V12.7723C12.1203 13.2824 12.3083 13.7121 12.6574 14.0074C13.0064 14.3296 13.4897 14.4639 14.0536 14.4639C14.6175 14.4639 15.1008 14.3028 15.4499 13.9806C15.7989 13.6584 15.9869 13.2556 15.9869 12.7454V10.3825ZM15.0202 12.6917C15.0202 12.9871 14.9397 13.2287 14.7786 13.3898C14.6175 13.5509 14.3758 13.6315 14.0805 13.6315C13.7851 13.6315 13.5434 13.5509 13.3823 13.3898C13.2212 13.2287 13.1407 12.9871 13.1407 12.6917V10.4362C13.1407 10.1409 13.2212 9.89921 13.3823 9.7381C13.5434 9.577 13.7851 9.49644 14.0805 9.49644C14.3758 9.49644 14.6175 9.577 14.7786 9.7381C14.9397 9.89921 15.0202 10.1409 15.0202 10.4362L14.9934 12.6917H15.0202Z" fill="#FCB8C4"/>
<path d="M8.73869 19.1643V14.9219H8.01371V18.1708L6.34895 14.9219H5.30176V19.1643H6.02674V15.9422L7.71835 19.1643H8.73869ZM10.2155 18.7616C10.2155 18.6542 10.1886 18.5736 10.1081 18.5199C10.0275 18.4662 9.94698 18.4394 9.81273 18.4394C9.70533 18.4394 9.59792 18.4662 9.54422 18.5199C9.46367 18.5736 9.43681 18.6542 9.43681 18.7616V18.869C9.43681 18.9764 9.46367 19.0569 9.54422 19.1106C9.62477 19.1643 9.70533 19.1912 9.83958 19.1912C9.94698 19.1912 10.0544 19.1643 10.1349 19.1106C10.2155 19.0569 10.2423 18.9764 10.2423 18.869V18.7616H10.2155ZM13.4108 18.0097H12.7395C12.7395 18.4125 12.5247 18.6005 12.0951 18.6005C11.6655 18.6005 11.4775 18.3857 11.4775 17.956V17.3385C11.4775 16.9089 11.6923 16.694 12.0951 16.694C12.5247 16.694 12.7395 16.882 12.7395 17.3116H13.4108V17.2579C13.4108 16.882 13.3034 16.6135 13.0617 16.3987C12.82 16.2107 12.5247 16.1033 12.1219 16.1033C11.7192 16.1033 11.4238 16.2107 11.1821 16.4255C10.9405 16.6403 10.8331 16.9357 10.8331 17.3116V18.0634C10.8331 18.4394 10.9405 18.7079 11.1821 18.9227C11.4238 19.1375 11.7192 19.218 12.1219 19.218C12.5247 19.218 12.8469 19.1106 13.0617 18.9227C13.3034 18.7347 13.4108 18.4394 13.4108 18.0634V18.0097ZM18.1902 19.1643V17.0431C18.1902 16.7477 18.1097 16.5329 17.9754 16.3718C17.8143 16.2107 17.6264 16.1302 17.3579 16.1302C17.1162 16.1302 16.9014 16.2107 16.6597 16.345L16.3375 16.5329C16.2033 16.2644 15.9616 16.1302 15.6126 16.1302C15.3977 16.1302 15.1829 16.1839 14.9681 16.3181L14.6996 16.4792V16.157H14.0283V19.1643H14.7265V17.0968L15.0755 16.882C15.2098 16.8014 15.344 16.7746 15.4246 16.7746C15.6394 16.7746 15.7468 16.9089 15.7468 17.1505V19.1912H16.4449V17.1237L16.8208 16.9089C16.9551 16.8283 17.0894 16.8014 17.1699 16.8014C17.3847 16.8014 17.4921 16.9357 17.4921 17.1774V19.218H18.1902V19.1643Z" fill="#FCB8C4"/>
<path d="M20.1227 11.1614C22.9957 11.1614 25.3049 8.82533 25.3049 5.97912C25.3049 3.10606 22.9689 0.796875 20.1227 0.796875C17.2496 0.796875 14.9404 3.13291 14.9404 5.97912C14.9404 8.85218 17.2765 11.1614 20.1227 11.1614Z" fill="#FCB8C4"/>
<path d="M20.1227 11.1614C22.9957 11.1614 25.3049 8.82533 25.3049 5.97912C25.3049 3.10606 22.9689 0.796875 20.1227 0.796875C17.2496 0.796875 14.9404 3.13291 14.9404 5.97912C14.9404 8.85218 17.2765 11.1614 20.1227 11.1614Z" stroke="white" stroke-width="1.10089"/>
<path d="M21.976 8.93365V8.36978H20.714V3.40234H20.0696C19.6668 3.77826 19.2909 4.01992 18.915 4.12732V4.71804C19.3446 4.63749 19.7205 4.42268 20.0964 4.07362V8.36978H18.4854V8.93365H22.0028H21.976Z" fill="#FEFEFE"/>
</svg>
