<svg width="17" height="17" viewBox="0 0 17 17" fill="none" xmlns="http://www.w3.org/2000/svg">
<path d="M8.65854 16.1394C13.0454 16.1394 16.527 12.5881 16.527 8.27085C16.527 3.88398 12.9758 0.402344 8.65854 0.402344C4.27168 0.402344 0.790039 3.95362 0.790039 8.27085C0.790039 12.6577 4.34131 16.1394 8.65854 16.1394Z" fill="#FCB8C4"/>
<path d="M11.2358 12.725V11.8198H7.3364L9.77355 9.31298C10.261 8.75592 10.6788 8.33812 10.8877 7.85069C11.0966 7.4329 11.1662 7.0151 11.1662 6.52767C11.1662 5.83134 10.9573 5.27428 10.5395 4.78685C10.1217 4.36905 9.49501 4.16016 8.65942 4.16016C7.89346 4.16016 7.26677 4.36905 6.77934 4.78685C6.29191 5.20465 6.08301 5.76171 6.08301 6.38841V6.45804H7.05787C7.05787 5.97061 7.19713 5.62244 7.47566 5.34391C7.75419 5.13502 8.17199 4.99575 8.65942 4.99575C9.21648 4.99575 9.63428 5.13502 9.84318 5.41355C10.1217 5.69208 10.261 6.04024 10.261 6.52767C10.261 6.87583 10.1913 7.224 9.98244 7.57216C9.84318 7.92033 9.56465 8.26849 9.14685 8.68629L6.15264 11.7501V12.6554H11.1662L11.2358 12.725Z" fill="#FEFEFE"/>
</svg>
