<svg width="17" height="17" viewBox="0 0 17 17" fill="none" xmlns="http://www.w3.org/2000/svg">
<path d="M8.50696 4.35156C8.63957 4.35156 8.76675 4.40424 8.86052 4.49801C8.95429 4.59178 9.00697 4.71897 9.00697 4.85158V7.85167H12.0071C12.1397 7.85167 12.2669 7.90435 12.3606 7.99812C12.4544 8.09189 12.5071 8.21907 12.5071 8.35168C12.5071 8.4843 12.4544 8.61148 12.3606 8.70525C12.2669 8.79902 12.1397 8.8517 12.0071 8.8517H9.00697V11.8518C9.00697 11.9844 8.95429 12.1116 8.86052 12.2054C8.76675 12.2991 8.63957 12.3518 8.50696 12.3518C8.37435 12.3518 8.24716 12.2991 8.15339 12.2054C8.05962 12.1116 8.00694 11.9844 8.00694 11.8518V8.8517H5.00685C4.87424 8.8517 4.74706 8.79902 4.65329 8.70525C4.55952 8.61148 4.50684 8.4843 4.50684 8.35168C4.50684 8.21907 4.55952 8.09189 4.65329 7.99812C4.74706 7.90435 4.87424 7.85167 5.00685 7.85167H8.00694V4.85158C8.00694 4.71897 8.05962 4.59178 8.15339 4.49801C8.24716 4.40424 8.37435 4.35156 8.50696 4.35156Z" fill="#CFCCC9"/>
</svg>
