<svg width="17" height="17" viewBox="0 0 17 17" fill="none" xmlns="http://www.w3.org/2000/svg">
<path d="M8.50696 4.05469C8.63957 4.05469 8.76675 4.10737 8.86052 4.20114C8.95429 4.29491 9.00697 4.42209 9.00697 4.5547V7.55479H12.0071C12.1397 7.55479 12.2669 7.60747 12.3606 7.70125C12.4544 7.79502 12.5071 7.9222 12.5071 8.05481C12.5071 8.18742 12.4544 8.3146 12.3606 8.40837C12.2669 8.50214 12.1397 8.55482 12.0071 8.55482H9.00697V11.5549C9.00697 11.6875 8.95429 11.8147 8.86052 11.9085C8.76675 12.0023 8.63957 12.0549 8.50696 12.0549C8.37435 12.0549 8.24716 12.0023 8.15339 11.9085C8.05962 11.8147 8.00694 11.6875 8.00694 11.5549V8.55482H5.00685C4.87424 8.55482 4.74706 8.50214 4.65329 8.40837C4.55952 8.3146 4.50684 8.18742 4.50684 8.05481C4.50684 7.9222 4.55952 7.79502 4.65329 7.70125C4.74706 7.60747 4.87424 7.55479 5.00685 7.55479H8.00694V4.5547C8.00694 4.42209 8.05962 4.29491 8.15339 4.20114C8.24716 4.10737 8.37435 4.05469 8.50696 4.05469Z" fill="#CFCCC9"/>
</svg>
