<svg width="14" height="14" viewBox="0 0 14 14" fill="none" xmlns="http://www.w3.org/2000/svg">
<path d="M7.58863 4.99532C7.58863 4.8839 7.54437 4.77704 7.46558 4.69825C7.38679 4.61946 7.27993 4.5752 7.16851 4.5752C7.05708 4.5752 6.95022 4.61946 6.87143 4.69825C6.79264 4.77704 6.74838 4.8839 6.74838 4.99532V6.2557H5.488C5.37657 6.2557 5.26971 6.29997 5.19092 6.37876C5.11213 6.45755 5.06787 6.56441 5.06787 6.67583C5.06787 6.78726 5.11213 6.89412 5.19092 6.97291C5.26971 7.05169 5.37657 7.09596 5.488 7.09596H6.74838V8.35634C6.74838 8.46776 6.79264 8.57463 6.87143 8.65341C6.95022 8.7322 7.05708 8.77647 7.16851 8.77647C7.27993 8.77647 7.38679 8.7322 7.46558 8.65341C7.54437 8.57463 7.58863 8.46776 7.58863 8.35634V7.09596H8.84901C8.96044 7.09596 9.0673 7.05169 9.14609 6.97291C9.22488 6.89412 9.26914 6.78726 9.26914 6.67583C9.26914 6.56441 9.22488 6.45755 9.14609 6.37876C9.0673 6.29997 8.96044 6.2557 8.84901 6.2557H7.58863V4.99532Z" fill="#363330"/>
<path d="M0.446494 1.21436C0.33507 1.21436 0.228209 1.25862 0.14942 1.33741C0.0706305 1.4162 0.0263672 1.52306 0.0263672 1.63448C0.0263672 1.74591 0.0706305 1.85277 0.14942 1.93156C0.228209 2.01035 0.33507 2.05461 0.446494 2.05461H1.37918L1.71612 3.4049L2.97482 10.1143C2.99284 10.2106 3.04394 10.2976 3.11927 10.3602C3.1946 10.4228 3.28944 10.4571 3.38738 10.4572H4.22764C3.78194 10.4572 3.3545 10.6342 3.03934 10.9494C2.72418 11.2645 2.54713 11.692 2.54713 12.1377C2.54713 12.5834 2.72418 13.0108 3.03934 13.326C3.3545 13.6411 3.78194 13.8182 4.22764 13.8182C4.67334 13.8182 5.10078 13.6411 5.41594 13.326C5.73109 13.0108 5.90815 12.5834 5.90815 12.1377C5.90815 11.692 5.73109 11.2645 5.41594 10.9494C5.10078 10.6342 4.67334 10.4572 4.22764 10.4572H10.1094C9.66372 10.4572 9.23628 10.6342 8.92112 10.9494C8.60596 11.2645 8.42891 11.692 8.42891 12.1377C8.42891 12.5834 8.60596 13.0108 8.92112 13.326C9.23628 13.6411 9.66372 13.8182 10.1094 13.8182C10.5551 13.8182 10.9826 13.6411 11.2977 13.326C11.6129 13.0108 11.7899 12.5834 11.7899 12.1377C11.7899 11.692 11.6129 11.2645 11.2977 10.9494C10.9826 10.6342 10.5551 10.4572 10.1094 10.4572H10.9497C11.0476 10.4571 11.1425 10.4228 11.2178 10.3602C11.2931 10.2976 11.3442 10.2106 11.3622 10.1143L12.6226 3.39229C12.634 3.33166 12.6318 3.26927 12.6163 3.20955C12.6009 3.14984 12.5724 3.09427 12.533 3.04678C12.4937 2.9993 12.4443 2.96108 12.3885 2.93482C12.3327 2.90856 12.2717 2.89492 12.2101 2.89486H2.4547L2.1144 1.53281C2.09172 1.44188 2.03929 1.36115 1.96545 1.30344C1.89161 1.24574 1.80059 1.21438 1.70688 1.21436H0.446494ZM3.73609 9.6169L2.63284 3.73512H11.7042L10.601 9.6169H3.73609ZM5.06789 12.1377C5.06789 12.3605 4.97937 12.5742 4.82179 12.7318C4.66421 12.8894 4.45049 12.9779 4.22764 12.9779C4.00479 12.9779 3.79107 12.8894 3.63349 12.7318C3.47591 12.5742 3.38738 12.3605 3.38738 12.1377C3.38738 11.9148 3.47591 11.7011 3.63349 11.5435C3.79107 11.3859 4.00479 11.2974 4.22764 11.2974C4.45049 11.2974 4.66421 11.3859 4.82179 11.5435C4.97937 11.7011 5.06789 11.9148 5.06789 12.1377ZM10.9497 12.1377C10.9497 12.3605 10.8611 12.5742 10.7036 12.7318C10.546 12.8894 10.3323 12.9779 10.1094 12.9779C9.88657 12.9779 9.67285 12.8894 9.51527 12.7318C9.35769 12.5742 9.26916 12.3605 9.26916 12.1377C9.26916 11.9148 9.35769 11.7011 9.51527 11.5435C9.67285 11.3859 9.88657 11.2974 10.1094 11.2974C10.3323 11.2974 10.546 11.3859 10.7036 11.5435C10.8611 11.7011 10.9497 11.9148 10.9497 12.1377Z" fill="#363330"/>
</svg>
