<svg width="15" height="15" viewBox="0 0 15 15" fill="none" xmlns="http://www.w3.org/2000/svg">
<path d="M8.22096 5.59444C8.22096 5.48302 8.17669 5.37616 8.09791 5.29737C8.01912 5.21858 7.91226 5.17432 7.80083 5.17432C7.68941 5.17432 7.58254 5.21858 7.50376 5.29737C7.42497 5.37616 7.3807 5.48302 7.3807 5.59444V6.85482H6.12032C6.0089 6.85482 5.90204 6.89909 5.82325 6.97788C5.74446 7.05667 5.7002 7.16353 5.7002 7.27495C5.7002 7.38638 5.74446 7.49324 5.82325 7.57203C5.90204 7.65082 6.0089 7.69508 6.12032 7.69508H7.3807V8.95546C7.3807 9.06688 7.42497 9.17375 7.50376 9.25254C7.58254 9.33132 7.68941 9.37559 7.80083 9.37559C7.91226 9.37559 8.01912 9.33132 8.09791 9.25254C8.17669 9.17375 8.22096 9.06688 8.22096 8.95546V7.69508H9.48134C9.59276 7.69508 9.69963 7.65082 9.77841 7.57203C9.8572 7.49324 9.90147 7.38638 9.90147 7.27495C9.90147 7.16353 9.8572 7.05667 9.77841 6.97788C9.69963 6.89909 9.59276 6.85482 9.48134 6.85482H8.22096V5.59444Z" fill="#363330"/>
<path d="M1.07882 1.81348C0.967394 1.81348 0.860533 1.85774 0.781744 1.93653C0.702955 2.01532 0.658691 2.12218 0.658691 2.2336C0.658691 2.34503 0.702955 2.45189 0.781744 2.53068C0.860533 2.60947 0.967394 2.65373 1.07882 2.65373H2.0115L2.34844 4.00402L3.60714 10.7134C3.62517 10.8097 3.67626 10.8967 3.75159 10.9593C3.82692 11.0219 3.92176 11.0562 4.01971 11.0563H4.85996C4.41426 11.0563 3.98682 11.2333 3.67166 11.5485C3.35651 11.8636 3.17945 12.2911 3.17945 12.7368C3.17945 13.1825 3.35651 13.6099 3.67166 13.9251C3.98682 14.2402 4.41426 14.4173 4.85996 14.4173C5.30566 14.4173 5.73311 14.2402 6.04826 13.9251C6.36342 13.6099 6.54047 13.1825 6.54047 12.7368C6.54047 12.2911 6.36342 11.8636 6.04826 11.5485C5.73311 11.2333 5.30566 11.0563 4.85996 11.0563H10.7417C10.296 11.0563 9.8686 11.2333 9.55344 11.5485C9.23829 11.8636 9.06123 12.2911 9.06123 12.7368C9.06123 13.1825 9.23829 13.6099 9.55344 13.9251C9.8686 14.2402 10.296 14.4173 10.7417 14.4173C11.1874 14.4173 11.6149 14.2402 11.93 13.9251C12.2452 13.6099 12.4223 13.1825 12.4223 12.7368C12.4223 12.2911 12.2452 11.8636 11.93 11.5485C11.6149 11.2333 11.1874 11.0563 10.7417 11.0563H11.582C11.6799 11.0562 11.7748 11.0219 11.8501 10.9593C11.9254 10.8967 11.9765 10.8097 11.9946 10.7134L13.2549 3.99142C13.2663 3.93078 13.2642 3.86839 13.2487 3.80867C13.2332 3.74896 13.2047 3.69339 13.1654 3.64591C13.126 3.59842 13.0766 3.5602 13.0208 3.53394C12.965 3.50768 12.9041 3.49404 12.8424 3.49398H3.08703L2.74672 2.13193C2.72404 2.041 2.67161 1.96027 2.59777 1.90256C2.52393 1.84486 2.43291 1.8135 2.3392 1.81348H1.07882ZM4.36841 10.216L3.26516 4.33424H12.3365L11.2333 10.216H4.36841ZM5.70022 12.7368C5.70022 12.9596 5.61169 13.1734 5.45411 13.3309C5.29653 13.4885 5.08281 13.577 4.85996 13.577C4.63711 13.577 4.42339 13.4885 4.26581 13.3309C4.10824 13.1734 4.01971 12.9596 4.01971 12.7368C4.01971 12.5139 4.10824 12.3002 4.26581 12.1426C4.42339 11.9851 4.63711 11.8965 4.85996 11.8965C5.08281 11.8965 5.29653 11.9851 5.45411 12.1426C5.61169 12.3002 5.70022 12.5139 5.70022 12.7368ZM11.582 12.7368C11.582 12.9596 11.4935 13.1734 11.3359 13.3309C11.1783 13.4885 10.9646 13.577 10.7417 13.577C10.5189 13.577 10.3052 13.4885 10.1476 13.3309C9.99002 13.1734 9.90149 12.9596 9.90149 12.7368C9.90149 12.5139 9.99002 12.3002 10.1476 12.1426C10.3052 11.9851 10.5189 11.8965 10.7417 11.8965C10.9646 11.8965 11.1783 11.9851 11.3359 12.1426C11.4935 12.3002 11.582 12.5139 11.582 12.7368Z" fill="#363330"/>
</svg>
