<svg width="15" height="15" viewBox="0 0 15 15" fill="none" xmlns="http://www.w3.org/2000/svg">
<path d="M8.33375 5.30587C8.33375 5.19444 8.28949 5.08758 8.2107 5.00879C8.13191 4.93001 8.02505 4.88574 7.91362 4.88574C7.8022 4.88574 7.69534 4.93001 7.61655 5.00879C7.53776 5.08758 7.4935 5.19444 7.4935 5.30587V6.56625H6.23312C6.12169 6.56625 6.01483 6.61051 5.93604 6.6893C5.85725 6.76809 5.81299 6.87495 5.81299 6.98638C5.81299 7.0978 5.85725 7.20466 5.93604 7.28345C6.01483 7.36224 6.12169 7.4065 6.23312 7.4065H7.4935V8.66689C7.4935 8.77831 7.53776 8.88517 7.61655 8.96396C7.69534 9.04275 7.8022 9.08701 7.91362 9.08701C8.02505 9.08701 8.13191 9.04275 8.2107 8.96396C8.28949 8.88517 8.33375 8.77831 8.33375 8.66689V7.4065H9.59413C9.70556 7.4065 9.81242 7.36224 9.89121 7.28345C9.97 7.20466 10.0143 7.0978 10.0143 6.98638C10.0143 6.87495 9.97 6.76809 9.89121 6.6893C9.81242 6.61051 9.70556 6.56625 9.59413 6.56625H8.33375V5.30587Z" fill="#363330"/>
<path d="M1.19161 1.5249C1.08019 1.5249 0.973326 1.56917 0.894537 1.64795C0.815748 1.72674 0.771484 1.8336 0.771484 1.94503C0.771484 2.05645 0.815748 2.16332 0.894537 2.2421C0.973326 2.32089 1.08019 2.36516 1.19161 2.36516H2.12429L2.46124 3.71545L3.71994 10.4249C3.73796 10.5211 3.78905 10.6081 3.86439 10.6707C3.93972 10.7333 4.03455 10.7676 4.1325 10.7677H4.97276C4.52706 10.7677 4.09961 10.9448 3.78446 11.2599C3.4693 11.5751 3.29225 12.0025 3.29225 12.4482C3.29225 12.8939 3.4693 13.3213 3.78446 13.6365C4.09961 13.9517 4.52706 14.1287 4.97276 14.1287C5.41845 14.1287 5.8459 13.9517 6.16105 13.6365C6.47621 13.3213 6.65326 12.8939 6.65326 12.4482C6.65326 12.0025 6.47621 11.5751 6.16105 11.2599C5.8459 10.9448 5.41845 10.7677 4.97276 10.7677H10.8545C10.4088 10.7677 9.98139 10.9448 9.66624 11.2599C9.35108 11.5751 9.17403 12.0025 9.17403 12.4482C9.17403 12.8939 9.35108 13.3213 9.66624 13.6365C9.98139 13.9517 10.4088 14.1287 10.8545 14.1287C11.3002 14.1287 11.7277 13.9517 12.0428 13.6365C12.358 13.3213 12.535 12.8939 12.535 12.4482C12.535 12.0025 12.358 11.5751 12.0428 11.2599C11.7277 10.9448 11.3002 10.7677 10.8545 10.7677H11.6948C11.7927 10.7676 11.8876 10.7333 11.9629 10.6707C12.0382 10.6081 12.0893 10.5211 12.1074 10.4249L13.3677 3.70284C13.3791 3.64221 13.3769 3.57982 13.3615 3.5201C13.346 3.46039 13.3175 3.40481 13.2782 3.35733C13.2388 3.30985 13.1894 3.27162 13.1336 3.24537C13.0778 3.21911 13.0169 3.20547 12.9552 3.20541H3.19982L2.85952 1.84336C2.83684 1.75243 2.78441 1.67169 2.71057 1.61399C2.63672 1.55629 2.54571 1.52493 2.45199 1.5249H1.19161ZM4.48121 9.92744L3.37795 4.04566H12.4493L11.3461 9.92744H4.48121ZM5.81301 12.4482C5.81301 12.6711 5.72448 12.8848 5.56691 13.0424C5.40933 13.1999 5.1956 13.2885 4.97276 13.2885C4.74991 13.2885 4.53618 13.1999 4.37861 13.0424C4.22103 12.8848 4.1325 12.6711 4.1325 12.4482C4.1325 12.2254 4.22103 12.0116 4.37861 11.8541C4.53618 11.6965 4.74991 11.608 4.97276 11.608C5.1956 11.608 5.40933 11.6965 5.56691 11.8541C5.72448 12.0116 5.81301 12.2254 5.81301 12.4482ZM11.6948 12.4482C11.6948 12.6711 11.6063 12.8848 11.4487 13.0424C11.2911 13.1999 11.0774 13.2885 10.8545 13.2885C10.6317 13.2885 10.418 13.1999 10.2604 13.0424C10.1028 12.8848 10.0143 12.6711 10.0143 12.4482C10.0143 12.2254 10.1028 12.0116 10.2604 11.8541C10.418 11.6965 10.6317 11.608 10.8545 11.608C11.0774 11.608 11.2911 11.6965 11.4487 11.8541C11.6063 12.0116 11.6948 12.2254 11.6948 12.4482Z" fill="#363330"/>
</svg>
