<svg width="14" height="15" viewBox="0 0 14 15" fill="none" xmlns="http://www.w3.org/2000/svg">
<path d="M8.115 5.49532C8.115 5.3839 8.07074 5.27704 7.99195 5.19825C7.91316 5.11946 7.8063 5.0752 7.69487 5.0752C7.58345 5.0752 7.47659 5.11946 7.3978 5.19825C7.31901 5.27704 7.27475 5.3839 7.27475 5.49532V6.7557H6.01437C5.90294 6.7557 5.79608 6.79997 5.71729 6.87876C5.6385 6.95755 5.59424 7.06441 5.59424 7.17583C5.59424 7.28726 5.6385 7.39412 5.71729 7.47291C5.79608 7.55169 5.90294 7.59596 6.01437 7.59596H7.27475V8.85634C7.27475 8.96776 7.31901 9.07463 7.3978 9.15341C7.47659 9.2322 7.58345 9.27647 7.69487 9.27647C7.8063 9.27647 7.91316 9.2322 7.99195 9.15341C8.07074 9.07463 8.115 8.96776 8.115 8.85634V7.59596H9.37538C9.48681 7.59596 9.59367 7.55169 9.67246 7.47291C9.75125 7.39412 9.79551 7.28726 9.79551 7.17583C9.79551 7.06441 9.75125 6.95755 9.67246 6.87876C9.59367 6.79997 9.48681 6.7557 9.37538 6.7557H8.115V5.49532Z" fill="#363330"/>
<path d="M0.972861 1.71436C0.861437 1.71436 0.754576 1.75862 0.675787 1.83741C0.596998 1.9162 0.552734 2.02306 0.552734 2.13448C0.552734 2.24591 0.596998 2.35277 0.675787 2.43156C0.754576 2.51035 0.861437 2.55461 0.972861 2.55461H1.90554L2.24249 3.9049L3.50119 10.6143C3.51921 10.7106 3.5703 10.7976 3.64564 10.8602C3.72097 10.9228 3.8158 10.9571 3.91375 10.9572H4.75401C4.30831 10.9572 3.88086 11.1342 3.56571 11.4494C3.25055 11.7645 3.0735 12.192 3.0735 12.6377C3.0735 13.0834 3.25055 13.5108 3.56571 13.826C3.88086 14.1411 4.30831 14.3182 4.75401 14.3182C5.1997 14.3182 5.62715 14.1411 5.9423 13.826C6.25746 13.5108 6.43451 13.0834 6.43451 12.6377C6.43451 12.192 6.25746 11.7645 5.9423 11.4494C5.62715 11.1342 5.1997 10.9572 4.75401 10.9572H10.6358C10.1901 10.9572 9.76264 11.1342 9.44749 11.4494C9.13233 11.7645 8.95528 12.192 8.95528 12.6377C8.95528 13.0834 9.13233 13.5108 9.44749 13.826C9.76264 14.1411 10.1901 14.3182 10.6358 14.3182C11.0815 14.3182 11.5089 14.1411 11.8241 13.826C12.1392 13.5108 12.3163 13.0834 12.3163 12.6377C12.3163 12.192 12.1392 11.7645 11.8241 11.4494C11.5089 11.1342 11.0815 10.9572 10.6358 10.9572H11.476C11.574 10.9571 11.6688 10.9228 11.7442 10.8602C11.8195 10.7976 11.8706 10.7106 11.8886 10.6143L13.149 3.89229C13.1603 3.83166 13.1582 3.76927 13.1427 3.70955C13.1272 3.64984 13.0988 3.59427 13.0594 3.54678C13.02 3.4993 12.9707 3.46108 12.9149 3.43482C12.859 3.40856 12.7981 3.39492 12.7364 3.39486H2.98107L2.64077 2.03281C2.61809 1.94188 2.56566 1.86115 2.49182 1.80344C2.41797 1.74574 2.32696 1.71438 2.23324 1.71436H0.972861ZM4.26246 10.1169L3.1592 4.23512H12.2306L11.1273 10.1169H4.26246ZM5.59426 12.6377C5.59426 12.8605 5.50573 13.0742 5.34816 13.2318C5.19058 13.3894 4.97685 13.4779 4.75401 13.4779C4.53116 13.4779 4.31743 13.3894 4.15986 13.2318C4.00228 13.0742 3.91375 12.8605 3.91375 12.6377C3.91375 12.4148 4.00228 12.2011 4.15986 12.0435C4.31743 11.8859 4.53116 11.7974 4.75401 11.7974C4.97685 11.7974 5.19058 11.8859 5.34816 12.0435C5.50573 12.2011 5.59426 12.4148 5.59426 12.6377ZM11.476 12.6377C11.476 12.8605 11.3875 13.0742 11.2299 13.2318C11.0724 13.3894 10.8586 13.4779 10.6358 13.4779C10.4129 13.4779 10.1992 13.3894 10.0416 13.2318C9.88406 13.0742 9.79553 12.8605 9.79553 12.6377C9.79553 12.4148 9.88406 12.2011 10.0416 12.0435C10.1992 11.8859 10.4129 11.7974 10.6358 11.7974C10.8586 11.7974 11.0724 11.8859 11.2299 12.0435C11.3875 12.2011 11.476 12.4148 11.476 12.6377Z" fill="#363330"/>
</svg>
