<svg width="31" height="34" viewBox="0 0 31 34" fill="none" xmlns="http://www.w3.org/2000/svg">
<path d="M27.3161 29.2863C27.0797 28.5127 26.7574 27.6532 26.3706 26.7936C25.9838 25.9341 25.5325 25.053 25.0383 24.172C24.9738 24.2794 24.9093 24.4084 24.8234 24.5158C24.7589 24.6233 24.673 24.7522 24.6085 24.8596C24.5225 24.9671 24.4581 25.0745 24.3721 25.182C24.2862 25.2894 24.2002 25.3969 24.1143 25.5043L24.0928 25.5258L24.0713 25.5473L24.0498 25.5688L24.0283 25.5903L23.9423 25.6762C24.0068 25.8696 24.0928 26.106 24.2002 26.3639C24.2862 26.6217 24.3936 26.9011 24.4796 27.1589C24.5655 27.4168 24.63 27.6747 24.6515 27.8681C24.673 28.0615 24.673 28.2334 24.587 28.2979C24.5655 28.3193 24.544 28.3408 24.5011 28.3623C24.4796 28.3838 24.4366 28.4053 24.3936 28.4053C24.3506 28.4268 24.3291 28.4268 24.2862 28.4268C24.2432 28.4268 24.2002 28.4268 24.1572 28.4268C24.0928 28.4268 24.0068 28.4053 23.9209 28.4053C23.8349 28.3838 23.7489 28.3623 23.663 28.3408C23.577 28.3193 23.4696 28.2764 23.3836 28.2334C23.2762 28.1904 23.1687 28.1474 23.0613 28.1045C22.9324 28.04 22.7819 27.9755 22.6315 27.8896C22.4811 27.8036 22.3307 27.7177 22.1803 27.6317C22.0298 27.5457 21.8579 27.4598 21.7075 27.3523C21.5356 27.2449 21.3852 27.1589 21.2133 27.0515C21.8579 26.4068 22.4811 25.6977 23.0398 24.9671C23.5985 24.215 24.1143 23.4414 24.5655 22.6248C25.0168 21.8082 25.4036 20.9701 25.7259 20.0891C26.0483 19.2295 26.3061 18.327 26.478 17.4245C26.8863 15.383 26.8648 13.4705 26.478 11.7729C26.1127 10.0968 25.4036 8.61403 24.4151 7.43214C23.4481 6.25025 22.2232 5.34772 20.805 4.76752C19.4082 4.18732 17.7965 3.95094 16.0774 4.05839C14.9385 4.14434 13.7996 4.38072 12.7037 4.74603C11.6077 5.11134 10.5548 5.60559 9.54479 6.20727C8.53481 6.80896 7.56781 7.5181 6.68676 8.33467C5.78423 9.12976 4.96765 10.0323 4.21554 10.9993C4.02214 10.634 3.85023 10.2687 3.7213 9.96783C3.59236 9.6455 3.48492 9.36614 3.44194 9.10827C3.37747 8.85041 3.35599 8.63552 3.37747 8.44212C3.39896 8.24872 3.46343 8.0983 3.54939 7.99085C3.57087 7.94787 3.61385 7.92639 3.67832 7.88341C3.7213 7.84043 3.78576 7.81894 3.85023 7.79745C3.9147 7.77596 4.00065 7.75447 4.08661 7.73299C4.17256 7.7115 4.25852 7.7115 4.34447 7.69001C4.45192 7.69001 4.55936 7.69001 4.66681 7.7115C4.77425 7.73299 4.8817 7.75447 5.01063 7.79745C5.11807 7.84043 5.24701 7.88341 5.35445 7.96936C5.4619 8.03383 5.59083 8.11979 5.69828 8.22723C5.80572 8.0983 5.93465 7.96936 6.0421 7.84043C6.17103 7.7115 6.27847 7.60405 6.40741 7.47512C6.53634 7.36767 6.66528 7.23874 6.79421 7.1313C6.92314 7.02385 7.07356 6.91641 7.22399 6.80896C7.24548 6.80896 7.24548 6.78747 7.26696 6.78747C7.28845 6.78747 7.28845 6.76599 7.30994 6.76599C7.33143 6.76599 7.33143 6.7445 7.35292 6.7445C7.37441 6.7445 7.37441 6.72301 7.3959 6.72301C7.13803 6.48663 6.85868 6.29323 6.57932 6.14281C6.29996 5.99239 5.99912 5.86345 5.69828 5.7775C5.39743 5.69154 5.09659 5.62707 4.79574 5.60559C4.4949 5.5841 4.21554 5.56261 3.93619 5.5841C3.74279 5.60559 3.57087 5.62707 3.39896 5.64856C3.22705 5.69154 3.07663 5.73452 2.92621 5.7775C2.77578 5.82047 2.64685 5.88494 2.53941 5.9709C2.43196 6.03536 2.32452 6.12132 2.26005 6.20727C2.02367 6.46514 1.89474 6.78747 1.83027 7.17427C1.76581 7.56107 1.7873 8.03383 1.89474 8.54956C2.00218 9.0653 2.1741 9.6455 2.41047 10.2902C2.66834 10.9133 2.96919 11.601 3.37747 12.3316C3.11961 12.7399 2.86174 13.1482 2.62536 13.578C2.38899 14.0077 2.1741 14.4375 1.9807 14.8888C1.7873 15.3401 1.5939 15.7913 1.44347 16.2641C1.27156 16.7368 1.14263 17.2096 1.0137 17.6823C0.54094 19.5089 0.390518 21.271 0.54094 22.9041C0.691363 24.5588 1.16412 26.063 1.91623 27.3738C2.66834 28.7061 3.7213 29.8021 5.01063 30.6187C6.32145 31.4352 7.89014 31.951 9.67372 32.0584C10.2109 32.0799 10.7267 32.0799 11.2639 32.0369C11.8011 31.9939 12.3383 31.9295 12.8756 31.822C13.4128 31.7146 13.95 31.5642 14.4872 31.3923C15.0245 31.2203 15.5402 31.0055 16.0774 30.7691L14.8096 28.3838C14.4443 28.5342 14.0789 28.6632 13.6921 28.7706C13.3268 28.8781 12.94 28.964 12.5747 29.0285C12.2094 29.0929 11.8226 29.1359 11.4573 29.1789C11.092 29.2004 10.7052 29.2004 10.3399 29.2004C8.90012 29.1359 7.63228 28.7491 6.57932 28.1045C5.52636 27.4598 4.66681 26.5787 4.04363 25.5258C3.42045 24.4728 3.03365 23.248 2.88323 21.9157C2.73281 20.6048 2.84025 19.1651 3.22705 17.6823C3.61385 16.1996 4.23703 14.8028 5.03212 13.5135C5.82721 12.2457 6.8157 11.0853 7.91163 10.0968C9.00756 9.10827 10.2324 8.2917 11.5218 7.69001C12.8326 7.08832 14.2079 6.72301 15.5832 6.63705C16.9799 6.5511 18.2693 6.78747 19.4082 7.26023C20.5471 7.75447 21.5356 8.50659 22.2877 9.4521C23.0613 10.4191 23.62 11.6225 23.8994 12.9763C24.1787 14.3516 24.1787 15.8773 23.8564 17.5104C23.706 18.2196 23.5126 18.9287 23.2547 19.6163C22.9968 20.304 22.696 20.9701 22.3307 21.6148C21.9869 22.2595 21.5786 22.8827 21.1273 23.4629C20.6975 24.0431 20.2033 24.6018 19.709 25.1175C19.709 24.9456 19.7305 24.7737 19.7305 24.5803C19.7305 24.4084 19.752 24.215 19.752 24.0645C19.752 23.8926 19.7735 23.7422 19.7735 23.6133C19.7735 23.4843 19.7735 23.3769 19.7735 23.3124C19.7735 23.248 19.7735 23.1835 19.752 23.1405C19.7305 23.0975 19.7305 23.0546 19.709 23.0331C19.6875 23.0116 19.6661 22.9901 19.6446 22.9901C19.6231 22.9686 19.5801 22.9686 19.5586 22.9686C19.5371 22.9686 19.5156 22.9686 19.4941 22.9686C19.4727 22.9686 19.4512 22.9686 19.4297 22.9901C19.4082 22.9901 19.4082 23.0116 19.3867 23.0116H19.3652L14.9385 24.4513C14.9385 24.4513 14.8955 24.4728 14.8525 24.4943C14.8096 24.5158 14.7451 24.5588 14.7021 24.6018C14.6591 24.6662 14.6162 24.7307 14.5947 24.8167C14.5947 24.9026 14.6162 25.0315 14.6806 25.182C14.6806 25.182 14.6806 25.2035 14.7021 25.2035C14.7021 25.2035 14.7021 25.2249 14.7236 25.2249C14.7236 25.2249 14.7236 25.2464 14.7451 25.2464C14.7451 25.2464 14.7451 25.2679 14.7666 25.2679C14.96 25.6762 15.2393 26.2134 15.5832 26.8151C15.9055 27.4383 16.2708 28.1259 16.6361 28.7921C17.0014 29.4797 17.3667 30.1459 17.6891 30.7261C18.0114 31.3063 18.2693 31.8005 18.4412 32.1014C18.4627 32.1229 18.4627 32.1444 18.4842 32.1873C18.5057 32.2088 18.5057 32.2303 18.5271 32.2518C18.5486 32.2733 18.5486 32.2948 18.5486 32.3163C18.5486 32.3378 18.5701 32.3593 18.5701 32.3593C18.6131 32.4452 18.6561 32.5097 18.6991 32.5527C18.742 32.6171 18.785 32.6601 18.8065 32.6816C18.8495 32.7246 18.871 32.7461 18.9139 32.7675C18.9569 32.789 18.9784 32.789 18.9999 32.789C19.0644 32.789 19.1073 32.7675 19.1503 32.7461C19.1933 32.7246 19.2363 32.6601 19.2578 32.6171C19.2793 32.5741 19.3222 32.5097 19.3437 32.4667C19.3652 32.4237 19.3652 32.3593 19.3867 32.3163C19.3867 32.2948 19.3867 32.2948 19.3867 32.2733C19.3867 32.2518 19.3867 32.2303 19.3867 32.1873C19.3867 32.1659 19.3867 32.1229 19.3867 32.1014C19.3867 32.0584 19.3867 32.0369 19.3867 31.9939C19.3867 31.8435 19.4082 31.6716 19.4082 31.4997C19.4082 31.3278 19.4297 31.1344 19.4297 30.9625C19.4297 30.7906 19.4512 30.6401 19.4512 30.5327C19.4512 30.4253 19.4727 30.3393 19.4727 30.3393C20.0743 30.7046 20.6975 31.0484 21.2777 31.3923C21.8794 31.7146 22.4596 32.0369 23.0398 32.2948C23.5985 32.5527 24.1572 32.789 24.6515 32.9395C25.1457 33.1114 25.6185 33.1973 26.0053 33.2403C26.0697 33.2403 26.1127 33.2403 26.1772 33.2403C26.2202 33.2403 26.2846 33.2403 26.3276 33.2403C26.3706 33.2403 26.4351 33.2403 26.478 33.2188C26.521 33.2188 26.564 33.1973 26.6285 33.1973C26.6929 33.1758 26.7574 33.1758 26.8219 33.1543C26.8863 33.1329 26.9508 33.1114 27.0153 33.0684C27.0797 33.0469 27.1227 33.0039 27.1872 32.9609C27.2301 32.918 27.2946 32.875 27.3376 32.832C27.6169 32.5312 27.7459 32.0584 27.7459 31.4567C27.7459 30.8765 27.5955 30.1674 27.3806 29.3723L27.3161 29.2863Z" fill="#929392"/>
<path d="M11.3067 14.18C11.629 14.18 11.8654 14.266 12.0588 14.4379C12.2522 14.6098 12.3381 14.8462 12.3381 15.1685C12.3381 15.4908 12.2307 15.7487 12.0373 15.9206C11.8224 16.0925 11.5645 16.2 11.2207 16.2C10.4471 16.2 10.0603 15.8562 10.0603 15.19H8.92139V15.276C8.92139 15.8991 9.13628 16.3719 9.54456 16.6942C9.95285 17.038 10.5116 17.1885 11.2207 17.1885C11.8654 17.1885 12.4026 17.0166 12.8539 16.6512C13.3051 16.3074 13.52 15.7917 13.52 15.1685C13.52 14.9536 13.477 14.7387 13.4126 14.5453C13.3481 14.3519 13.2621 14.2015 13.1977 14.0941C13.1117 13.9866 13.0258 13.8792 12.9183 13.8147C12.8109 13.7287 12.7249 13.6858 12.6819 13.6643C12.639 13.6428 12.596 13.6213 12.5745 13.6213L12.6605 13.5783C12.7249 13.5568 12.7894 13.4924 12.8753 13.4064C12.9613 13.3205 13.0473 13.2345 13.1117 13.1271C13.1977 13.0196 13.2621 12.8692 13.3266 12.6973C13.3911 12.5254 13.4126 12.332 13.4126 12.1386C13.4126 11.5584 13.2192 11.1071 12.8324 10.7848C12.4456 10.4624 11.9083 10.2905 11.2422 10.2905C10.576 10.2905 10.0603 10.4409 9.65201 10.7848C9.24372 11.1071 9.05032 11.5584 9.05032 12.1386V12.203H10.1677C10.1677 11.8807 10.2752 11.6443 10.4471 11.4939C10.6405 11.3435 10.8984 11.2575 11.2422 11.2575C11.586 11.2575 11.8654 11.3435 12.0373 11.4939C12.2092 11.6658 12.3166 11.8807 12.3166 12.1601C12.3166 12.4609 12.2307 12.7188 12.0373 12.8907C11.8439 13.0626 11.6075 13.1485 11.3067 13.1485H10.1677V14.137L11.3711 14.1585L11.3067 14.18ZM18.9352 17.1025V16.0495H16.1846L17.7748 14.4809C18.2046 14.0726 18.5054 13.6858 18.6773 13.3419C18.8493 12.9981 18.9352 12.6328 18.9352 12.2675C18.9352 11.6658 18.7418 11.1716 18.3765 10.8492C17.9897 10.5054 17.474 10.3335 16.7863 10.3335C16.0987 10.3335 15.5615 10.5054 15.1532 10.8492C14.7449 11.1931 14.5515 11.6658 14.5515 12.289V12.3535H15.6904C15.6904 11.6873 16.0342 11.3435 16.7648 11.3435C17.4525 11.3435 17.7963 11.6658 17.7963 12.3105C17.7963 12.5683 17.7318 12.8047 17.6244 13.0411C17.5169 13.2775 17.3021 13.5353 17.0227 13.8147L14.7019 16.071V17.124H18.9782L18.9352 17.1025Z" fill="#929392"/>
<path d="M10.4262 22.754V17.7041H9.58808V21.5506L7.58962 17.7041H6.34326V22.754H7.18133V18.929L9.20128 22.754H10.4262ZM12.1882 22.2812C12.1882 22.1523 12.1453 22.0663 12.0593 21.9804C11.9734 21.9159 11.8659 21.8729 11.7155 21.8729C11.5866 21.8729 11.4791 21.9159 11.3932 21.9804C11.3072 22.0449 11.2642 22.1523 11.2642 22.2812V22.4317C11.2642 22.5606 11.3072 22.6465 11.3932 22.7325C11.4791 22.797 11.5866 22.8399 11.737 22.8399C11.8874 22.8399 11.9948 22.797 12.0808 22.7325C12.1668 22.668 12.2097 22.5606 12.2097 22.4317L12.1882 22.2812ZM15.9918 21.4002H15.1967C15.1967 21.8729 14.9388 22.1093 14.4446 22.1093C13.9503 22.1093 13.714 21.8515 13.714 21.3572V20.6051C13.714 20.0894 13.9503 19.853 14.4446 19.853C14.9388 19.853 15.1967 20.0894 15.1967 20.5621H15.9918V20.4977C15.9918 20.0679 15.8628 19.7241 15.5835 19.4877C15.3041 19.2513 14.9388 19.1224 14.4661 19.1224C13.9933 19.1224 13.628 19.2513 13.3486 19.4877C13.0693 19.7455 12.9189 20.0894 12.9189 20.5191V21.4002C12.9189 21.83 13.0693 22.1738 13.3486 22.4317C13.628 22.668 13.9933 22.797 14.4661 22.797C14.9388 22.797 15.3256 22.6895 15.605 22.4531C15.8843 22.2168 16.0348 21.8729 16.0348 21.4432L16.0133 21.4002H15.9918ZM21.6648 22.754V20.2398C21.6648 19.896 21.5789 19.6381 21.407 19.4447C21.2351 19.2513 20.9772 19.1653 20.6764 19.1653C20.397 19.1653 20.1176 19.2513 19.8598 19.4017L19.473 19.6381C19.3226 19.3158 19.0432 19.1653 18.6349 19.1653C18.377 19.1653 18.1192 19.2298 17.8828 19.3802L17.5605 19.5736V19.2083H16.7439V22.7755H17.5605V20.3257L17.9902 20.0679C18.1622 19.9819 18.3126 19.9389 18.42 19.9389C18.6779 19.9389 18.7853 20.0894 18.7853 20.3902V22.797H19.6019V20.3472L20.0317 20.0894C20.2036 20.0034 20.354 19.9389 20.4615 19.9389C20.7193 19.9389 20.8483 20.0894 20.8483 20.3687V22.797H21.6648V22.754Z" fill="#929392"/>
<path d="M23.9422 13.256C27.3375 13.256 30.1095 10.5054 30.1095 7.0887C30.1095 3.67196 27.3589 0.921387 23.9422 0.921387C20.5255 0.921387 17.7749 3.67196 17.7749 7.0887C17.7749 10.4839 20.5255 13.256 23.9422 13.256Z" fill="#929392"/>
<path d="M23.9422 13.256C27.3375 13.256 30.1095 10.5054 30.1095 7.0887C30.1095 3.67196 27.3589 0.921387 23.9422 0.921387C20.5255 0.921387 17.7749 3.67196 17.7749 7.0887C17.7749 10.4839 20.5255 13.256 23.9422 13.256Z" stroke="white" stroke-width="0.623178"/>
<path d="M26.1342 10.6127V9.94655H24.63V4.05859H23.8564C23.3836 4.48837 22.9323 4.78922 22.4811 4.93964V5.64877C22.9753 5.56282 23.4481 5.30495 23.8778 4.87517V9.96804H21.9653V10.6342H26.1342V10.6127Z" fill="#FEFEFE"/>
</svg>
