<svg width="31" height="33" viewBox="0 0 31 33" fill="none" xmlns="http://www.w3.org/2000/svg">
<path d="M27.3161 28.6428C27.0797 27.8692 26.7574 27.0096 26.3706 26.1501C25.9838 25.2905 25.5325 24.4095 25.0383 23.5284C24.9738 23.6359 24.9093 23.7648 24.8234 23.8723C24.7589 23.9797 24.673 24.1086 24.6085 24.2161C24.5225 24.3235 24.4581 24.431 24.3721 24.5384C24.2862 24.6459 24.2002 24.7533 24.1143 24.8607L24.0928 24.8822L24.0713 24.9037L24.0498 24.9252L24.0283 24.9467L23.9423 25.0327C24.0068 25.2261 24.0928 25.4624 24.2002 25.7203C24.2862 25.9782 24.3936 26.2575 24.4796 26.5154C24.5655 26.7733 24.63 27.0311 24.6515 27.2245C24.673 27.4179 24.673 27.5898 24.587 27.6543C24.5655 27.6758 24.544 27.6973 24.5011 27.7188C24.4796 27.7403 24.4366 27.7617 24.3936 27.7617C24.3506 27.7832 24.3291 27.7832 24.2862 27.7832C24.2432 27.7832 24.2002 27.7832 24.1572 27.7832C24.0928 27.7832 24.0068 27.7617 23.9209 27.7617C23.8349 27.7403 23.7489 27.7188 23.663 27.6973C23.577 27.6758 23.4696 27.6328 23.3836 27.5898C23.2762 27.5469 23.1687 27.5039 23.0613 27.4609C22.9324 27.3964 22.7819 27.332 22.6315 27.246C22.4811 27.1601 22.3307 27.0741 22.1803 26.9881C22.0298 26.9022 21.8579 26.8162 21.7075 26.7088C21.5356 26.6013 21.3852 26.5154 21.2133 26.4079C21.8579 25.7633 22.4811 25.0541 23.0398 24.3235C23.5985 23.5714 24.1143 22.7978 24.5655 21.9812C25.0168 21.1647 25.4036 20.3266 25.7259 19.4455C26.0483 18.586 26.3061 17.6835 26.478 16.7809C26.8863 14.7395 26.8648 12.827 26.478 11.1293C26.1127 9.45321 25.4036 7.97048 24.4151 6.78859C23.4481 5.6067 22.2232 4.70416 20.805 4.12396C19.4082 3.54376 17.7965 3.30739 16.0774 3.41483C14.9385 3.50079 13.7996 3.73716 12.7037 4.10248C11.6077 4.46779 10.5548 4.96203 9.54479 5.56372C8.53481 6.16541 7.56781 6.87454 6.68676 7.69112C5.78423 8.48621 4.96765 9.38874 4.21554 10.3557C4.02214 9.99043 3.85023 9.62512 3.7213 9.32428C3.59236 9.00194 3.48492 8.72259 3.44194 8.46472C3.37747 8.20685 3.35599 7.99196 3.37747 7.79856C3.39896 7.60517 3.46343 7.45474 3.54939 7.3473C3.57087 7.30432 3.61385 7.28283 3.67832 7.23985C3.7213 7.19688 3.78576 7.17539 3.85023 7.1539C3.9147 7.13241 4.00065 7.11092 4.08661 7.08943C4.17256 7.06794 4.25852 7.06794 4.34447 7.04645C4.45192 7.04645 4.55936 7.04645 4.66681 7.06794C4.77425 7.08943 4.8817 7.11092 5.01063 7.1539C5.11807 7.19688 5.24701 7.23985 5.35445 7.32581C5.4619 7.39028 5.59083 7.47623 5.69828 7.58368C5.80572 7.45474 5.93465 7.32581 6.0421 7.19688C6.17103 7.06794 6.27847 6.9605 6.40741 6.83156C6.53634 6.72412 6.66528 6.59519 6.79421 6.48774C6.92314 6.3803 7.07356 6.27285 7.22399 6.16541C7.24548 6.16541 7.24548 6.14392 7.26696 6.14392C7.28845 6.14392 7.28845 6.12243 7.30994 6.12243C7.33143 6.12243 7.33143 6.10094 7.35292 6.10094C7.37441 6.10094 7.37441 6.07945 7.3959 6.07945C7.13803 5.84308 6.85868 5.64968 6.57932 5.49925C6.29996 5.34883 5.99912 5.2199 5.69828 5.13394C5.39743 5.04799 5.09659 4.98352 4.79574 4.96203C4.4949 4.94054 4.21554 4.91905 3.93619 4.94054C3.74279 4.96203 3.57087 4.98352 3.39896 5.00501C3.22705 5.04799 3.07663 5.09096 2.92621 5.13394C2.77578 5.17692 2.64685 5.24139 2.53941 5.32734C2.43196 5.39181 2.32452 5.47776 2.26005 5.56372C2.02367 5.82159 1.89474 6.14392 1.83027 6.53072C1.76581 6.91752 1.7873 7.39028 1.89474 7.90601C2.00218 8.42174 2.1741 9.00194 2.41047 9.64661C2.66834 10.2698 2.96919 10.9574 3.37747 11.6881C3.11961 12.0963 2.86174 12.5046 2.62536 12.9344C2.38899 13.3642 2.1741 13.794 1.9807 14.2452C1.7873 14.6965 1.5939 15.1478 1.44347 15.6205C1.27156 16.0933 1.14263 16.566 1.0137 17.0388C0.54094 18.8653 0.390518 20.6274 0.54094 22.2606C0.691363 23.9152 1.16412 25.4195 1.91623 26.7303C2.66834 28.0626 3.7213 29.1585 5.01063 29.9751C6.32145 30.7917 7.89014 31.3074 9.67372 31.4149C10.2109 31.4363 10.7267 31.4363 11.2639 31.3934C11.8011 31.3504 12.3383 31.2859 12.8756 31.1785C13.4128 31.071 13.95 30.9206 14.4872 30.7487C15.0245 30.5768 15.5402 30.3619 16.0774 30.1255L14.8096 27.7403C14.4443 27.8907 14.0789 28.0196 13.6921 28.1271C13.3268 28.2345 12.94 28.3205 12.5747 28.3849C12.2094 28.4494 11.8226 28.4924 11.4573 28.5353C11.092 28.5568 10.7052 28.5568 10.3399 28.5568C8.90012 28.4924 7.63228 28.1056 6.57932 27.4609C5.52636 26.8162 4.66681 25.9352 4.04363 24.8822C3.42045 23.8293 3.03365 22.6044 2.88323 21.2721C2.73281 19.9613 2.84025 18.5215 3.22705 17.0388C3.61385 15.5561 4.23703 14.1593 5.03212 12.8699C5.82721 11.6021 6.8157 10.4417 7.91163 9.45321C9.00756 8.46472 10.2324 7.64814 11.5218 7.04645C12.8326 6.44476 14.2079 6.07945 15.5832 5.9935C16.9799 5.90754 18.2693 6.14392 19.4082 6.61668C20.5471 7.11092 21.5356 7.86303 22.2877 8.80854C23.0613 9.77554 23.62 10.9789 23.8994 12.3327C24.1787 13.708 24.1787 15.2337 23.8564 16.8669C23.706 17.576 23.5126 18.2851 23.2547 18.9728C22.9968 19.6604 22.696 20.3266 22.3307 20.9713C21.9869 21.6159 21.5786 22.2391 21.1273 22.8193C20.6975 23.3995 20.2033 23.9582 19.709 24.4739C19.709 24.302 19.7305 24.1301 19.7305 23.9367C19.7305 23.7648 19.752 23.5714 19.752 23.421C19.752 23.2491 19.7735 23.0987 19.7735 22.9697C19.7735 22.8408 19.7735 22.7333 19.7735 22.6689C19.7735 22.6044 19.7735 22.5399 19.752 22.497C19.7305 22.454 19.7305 22.411 19.709 22.3895C19.6875 22.368 19.6661 22.3465 19.6446 22.3465C19.6231 22.3251 19.5801 22.3251 19.5586 22.3251C19.5371 22.3251 19.5156 22.3251 19.4941 22.3251C19.4727 22.3251 19.4512 22.3251 19.4297 22.3465C19.4082 22.3465 19.4082 22.368 19.3867 22.368H19.3652L14.9385 23.8078C14.9385 23.8078 14.8955 23.8293 14.8525 23.8508C14.8096 23.8723 14.7451 23.9152 14.7021 23.9582C14.6591 24.0227 14.6162 24.0871 14.5947 24.1731C14.5947 24.2591 14.6162 24.388 14.6806 24.5384C14.6806 24.5384 14.6806 24.5599 14.7021 24.5599C14.7021 24.5599 14.7021 24.5814 14.7236 24.5814C14.7236 24.5814 14.7236 24.6029 14.7451 24.6029C14.7451 24.6029 14.7451 24.6244 14.7666 24.6244C14.96 25.0327 15.2393 25.5699 15.5832 26.1716C15.9055 26.7947 16.2708 27.4824 16.6361 28.1485C17.0014 28.8362 17.3667 29.5023 17.6891 30.0825C18.0114 30.6627 18.2693 31.157 18.4412 31.4578C18.4627 31.4793 18.4627 31.5008 18.4842 31.5438C18.5057 31.5653 18.5057 31.5868 18.5271 31.6083C18.5486 31.6297 18.5486 31.6512 18.5486 31.6727C18.5486 31.6942 18.5701 31.7157 18.5701 31.7157C18.6131 31.8017 18.6561 31.8661 18.6991 31.9091C18.742 31.9736 18.785 32.0165 18.8065 32.038C18.8495 32.081 18.871 32.1025 18.9139 32.124C18.9569 32.1455 18.9784 32.1455 18.9999 32.1455C19.0644 32.1455 19.1073 32.124 19.1503 32.1025C19.1933 32.081 19.2363 32.0165 19.2578 31.9736C19.2793 31.9306 19.3222 31.8661 19.3437 31.8231C19.3652 31.7802 19.3652 31.7157 19.3867 31.6727C19.3867 31.6512 19.3867 31.6512 19.3867 31.6297C19.3867 31.6083 19.3867 31.5868 19.3867 31.5438C19.3867 31.5223 19.3867 31.4793 19.3867 31.4578C19.3867 31.4149 19.3867 31.3934 19.3867 31.3504C19.3867 31.2 19.4082 31.0281 19.4082 30.8561C19.4082 30.6842 19.4297 30.4908 19.4297 30.3189C19.4297 30.147 19.4512 29.9966 19.4512 29.8891C19.4512 29.7817 19.4727 29.6957 19.4727 29.6957C20.0743 30.0611 20.6975 30.4049 21.2777 30.7487C21.8794 31.071 22.4596 31.3934 23.0398 31.6512C23.5985 31.9091 24.1572 32.1455 24.6515 32.2959C25.1457 32.4678 25.6185 32.5538 26.0053 32.5967C26.0697 32.5967 26.1127 32.5967 26.1772 32.5967C26.2202 32.5967 26.2846 32.5967 26.3276 32.5967C26.3706 32.5967 26.4351 32.5967 26.478 32.5753C26.521 32.5753 26.564 32.5538 26.6285 32.5538C26.6929 32.5323 26.7574 32.5323 26.8219 32.5108C26.8863 32.4893 26.9508 32.4678 27.0153 32.4248C27.0797 32.4033 27.1227 32.3604 27.1872 32.3174C27.2301 32.2744 27.2946 32.2314 27.3376 32.1885C27.6169 31.8876 27.7459 31.4149 27.7459 30.8132C27.7459 30.233 27.5955 29.5238 27.3806 28.7287L27.3161 28.6428Z" fill="#929392"/>
<path d="M11.3067 13.5365C11.629 13.5365 11.8654 13.6224 12.0588 13.7943C12.2522 13.9662 12.3381 14.2026 12.3381 14.525C12.3381 14.8473 12.2307 15.1052 12.0373 15.2771C11.8224 15.449 11.5645 15.5564 11.2207 15.5564C10.4471 15.5564 10.0603 15.2126 10.0603 14.5464H8.92139V14.6324C8.92139 15.2556 9.13628 15.7283 9.54456 16.0507C9.95285 16.3945 10.5116 16.5449 11.2207 16.5449C11.8654 16.5449 12.4026 16.373 12.8539 16.0077C13.3051 15.6639 13.52 15.1481 13.52 14.525C13.52 14.3101 13.477 14.0952 13.4126 13.9018C13.3481 13.7084 13.2621 13.558 13.1977 13.4505C13.1117 13.3431 13.0258 13.2356 12.9183 13.1712C12.8109 13.0852 12.7249 13.0422 12.6819 13.0207C12.639 12.9992 12.596 12.9778 12.5745 12.9778L12.6605 12.9348C12.7249 12.9133 12.7894 12.8488 12.8753 12.7629C12.9613 12.6769 13.0473 12.591 13.1117 12.4835C13.1977 12.3761 13.2621 12.2256 13.3266 12.0537C13.3911 11.8818 13.4126 11.6884 13.4126 11.495C13.4126 10.9148 13.2192 10.4636 12.8324 10.1412C12.4456 9.81888 11.9083 9.64697 11.2422 9.64697C10.576 9.64697 10.0603 9.79739 9.65201 10.1412C9.24372 10.4636 9.05032 10.9148 9.05032 11.495V11.5595H10.1677C10.1677 11.2372 10.2752 11.0008 10.4471 10.8504C10.6405 10.6999 10.8984 10.614 11.2422 10.614C11.586 10.614 11.8654 10.6999 12.0373 10.8504C12.2092 11.0223 12.3166 11.2372 12.3166 11.5165C12.3166 11.8174 12.2307 12.0752 12.0373 12.2471C11.8439 12.419 11.6075 12.505 11.3067 12.505H10.1677V13.4935L11.3711 13.515L11.3067 13.5365ZM18.9352 16.459V15.406H16.1846L17.7748 13.8373C18.2046 13.429 18.5054 13.0422 18.6773 12.6984C18.8493 12.3546 18.9352 11.9893 18.9352 11.624C18.9352 11.0223 18.7418 10.528 18.3765 10.2057C17.9897 9.86186 17.474 9.68995 16.7863 9.68995C16.0987 9.68995 15.5615 9.86186 15.1532 10.2057C14.7449 10.5495 14.5515 11.0223 14.5515 11.6454V11.7099H15.6904C15.6904 11.0438 16.0342 10.6999 16.7648 10.6999C17.4525 10.6999 17.7963 11.0223 17.7963 11.6669C17.7963 11.9248 17.7318 12.1612 17.6244 12.3976C17.5169 12.6339 17.3021 12.8918 17.0227 13.1712L14.7019 15.4275V16.4804H18.9782L18.9352 16.459Z" fill="#929392"/>
<path d="M10.4262 22.1104V17.0605H9.58808V20.9071L7.58962 17.0605H6.34326V22.1104H7.18133V18.2854L9.20128 22.1104H10.4262ZM12.1882 21.6377C12.1882 21.5087 12.1453 21.4228 12.0593 21.3368C11.9734 21.2724 11.8659 21.2294 11.7155 21.2294C11.5866 21.2294 11.4791 21.2724 11.3932 21.3368C11.3072 21.4013 11.2642 21.5087 11.2642 21.6377V21.7881C11.2642 21.917 11.3072 22.003 11.3932 22.0889C11.4791 22.1534 11.5866 22.1964 11.737 22.1964C11.8874 22.1964 11.9948 22.1534 12.0808 22.0889C12.1668 22.0245 12.2097 21.917 12.2097 21.7881L12.1882 21.6377ZM15.9918 20.7566H15.1967C15.1967 21.2294 14.9388 21.4658 14.4446 21.4658C13.9503 21.4658 13.714 21.2079 13.714 20.7137V19.9615C13.714 19.4458 13.9503 19.2094 14.4446 19.2094C14.9388 19.2094 15.1967 19.4458 15.1967 19.9186H15.9918V19.8541C15.9918 19.4243 15.8628 19.0805 15.5835 18.8441C15.3041 18.6077 14.9388 18.4788 14.4661 18.4788C13.9933 18.4788 13.628 18.6077 13.3486 18.8441C13.0693 19.102 12.9189 19.4458 12.9189 19.8756V20.7566C12.9189 21.1864 13.0693 21.5302 13.3486 21.7881C13.628 22.0245 13.9933 22.1534 14.4661 22.1534C14.9388 22.1534 15.3256 22.046 15.605 21.8096C15.8843 21.5732 16.0348 21.2294 16.0348 20.7996L16.0133 20.7566H15.9918ZM21.6648 22.1104V19.5962C21.6648 19.2524 21.5789 18.9945 21.407 18.8011C21.2351 18.6077 20.9772 18.5218 20.6764 18.5218C20.397 18.5218 20.1176 18.6077 19.8598 18.7582L19.473 18.9945C19.3226 18.6722 19.0432 18.5218 18.6349 18.5218C18.377 18.5218 18.1192 18.5863 17.8828 18.7367L17.5605 18.9301V18.5648H16.7439V22.1319H17.5605V19.6822L17.9902 19.4243C18.1622 19.3384 18.3126 19.2954 18.42 19.2954C18.6779 19.2954 18.7853 19.4458 18.7853 19.7467V22.1534H19.6019V19.7037L20.0317 19.4458C20.2036 19.3599 20.354 19.2954 20.4615 19.2954C20.7193 19.2954 20.8483 19.4458 20.8483 19.7252V22.1534H21.6648V22.1104Z" fill="#929392"/>
<path d="M23.9422 12.6125C27.3375 12.6125 30.1095 9.86188 30.1095 6.44514C30.1095 3.02841 27.3589 0.277832 23.9422 0.277832C20.5255 0.277832 17.7749 3.02841 17.7749 6.44514C17.7749 9.84039 20.5255 12.6125 23.9422 12.6125Z" fill="#929392"/>
<path d="M23.9422 12.6125C27.3375 12.6125 30.1095 9.86188 30.1095 6.44514C30.1095 3.02841 27.3589 0.277832 23.9422 0.277832C20.5255 0.277832 17.7749 3.02841 17.7749 6.44514C17.7749 9.84039 20.5255 12.6125 23.9422 12.6125Z" stroke="white" stroke-width="0.623178"/>
<path d="M26.1342 9.96915V9.303H24.63V3.41504H23.8564C23.3836 3.84482 22.9323 4.14566 22.4811 4.29608V5.00522C22.9753 4.91926 23.4481 4.66139 23.8778 4.23162V9.32448H21.9653V9.99064H26.1342V9.96915Z" fill="#FEFEFE"/>
</svg>
