<svg width="17" height="16" viewBox="0 0 17 16" fill="none" xmlns="http://www.w3.org/2000/svg">
<path d="M8.50745 4.00537C8.64006 4.00537 8.76724 4.05805 8.86101 4.15182C8.95478 4.24559 9.00746 4.37277 9.00746 4.50539V7.50548H12.0076C12.1402 7.50548 12.2673 7.55816 12.3611 7.65193C12.4549 7.7457 12.5076 7.87288 12.5076 8.00549C12.5076 8.1381 12.4549 8.26529 12.3611 8.35906C12.2673 8.45283 12.1402 8.50551 12.0076 8.50551H9.00746V11.5056C9.00746 11.6382 8.95478 11.7654 8.86101 11.8592C8.76724 11.9529 8.64006 12.0056 8.50745 12.0056C8.37483 12.0056 8.24765 11.9529 8.15388 11.8592C8.06011 11.7654 8.00743 11.6382 8.00743 11.5056V8.50551H5.00734C4.87473 8.50551 4.74755 8.45283 4.65378 8.35906C4.56 8.26529 4.50732 8.1381 4.50732 8.00549C4.50732 7.87288 4.56 7.7457 4.65378 7.65193C4.74755 7.55816 4.87473 7.50548 5.00734 7.50548H8.00743V4.50539C8.00743 4.37277 8.06011 4.24559 8.15388 4.15182C8.24765 4.05805 8.37483 4.00537 8.50745 4.00537Z" fill="#CFCCC9"/>
</svg>
