<svg width="14" height="14" viewBox="0 0 14 14" fill="none" xmlns="http://www.w3.org/2000/svg">
<path d="M7.78346 5.09981C7.78346 4.98839 7.73919 4.88153 7.66041 4.80274C7.58162 4.72395 7.47476 4.67969 7.36333 4.67969C7.25191 4.67969 7.14504 4.72395 7.06626 4.80274C6.98747 4.88153 6.9432 4.98839 6.9432 5.09981V6.3602H5.68282C5.5714 6.3602 5.46454 6.40446 5.38575 6.48325C5.30696 6.56204 5.2627 6.6689 5.2627 6.78032C5.2627 6.89175 5.30696 6.99861 5.38575 7.0774C5.46454 7.15619 5.5714 7.20045 5.68282 7.20045H6.9432V8.46083C6.9432 8.57226 6.98747 8.67912 7.06626 8.75791C7.14504 8.8367 7.25191 8.88096 7.36333 8.88096C7.47476 8.88096 7.58162 8.8367 7.66041 8.75791C7.73919 8.67912 7.78346 8.57226 7.78346 8.46083V7.20045H9.04384C9.15526 7.20045 9.26213 7.15619 9.34091 7.0774C9.4197 6.99861 9.46397 6.89175 9.46397 6.78032C9.46397 6.6689 9.4197 6.56204 9.34091 6.48325C9.26213 6.40446 9.15526 6.3602 9.04384 6.3602H7.78346V5.09981Z" fill="#363330"/>
<path d="M0.641319 1.31885C0.529894 1.31885 0.423033 1.36311 0.344244 1.4419C0.265455 1.52069 0.221191 1.62755 0.221191 1.73897C0.221191 1.8504 0.265455 1.95726 0.344244 2.03605C0.423033 2.11484 0.529894 2.1591 0.641319 2.1591H1.574L1.91094 3.50939L3.16964 10.2188C3.18767 10.3151 3.23876 10.402 3.31409 10.4646C3.38942 10.5272 3.48426 10.5616 3.58221 10.5616H4.42246C3.97676 10.5616 3.54932 10.7387 3.23416 11.0539C2.91901 11.369 2.74195 11.7965 2.74195 12.2422C2.74195 12.6879 2.91901 13.1153 3.23416 13.4305C3.54932 13.7456 3.97676 13.9227 4.42246 13.9227C4.86816 13.9227 5.29561 13.7456 5.61076 13.4305C5.92592 13.1153 6.10297 12.6879 6.10297 12.2422C6.10297 11.7965 5.92592 11.369 5.61076 11.0539C5.29561 10.7387 4.86816 10.5616 4.42246 10.5616H10.3042C9.85854 10.5616 9.4311 10.7387 9.11594 11.0539C8.80079 11.369 8.62373 11.7965 8.62373 12.2422C8.62373 12.6879 8.80079 13.1153 9.11594 13.4305C9.4311 13.7456 9.85854 13.9227 10.3042 13.9227C10.7499 13.9227 11.1774 13.7456 11.4925 13.4305C11.8077 13.1153 11.9848 12.6879 11.9848 12.2422C11.9848 11.7965 11.8077 11.369 11.4925 11.0539C11.1774 10.7387 10.7499 10.5616 10.3042 10.5616H11.1445C11.2424 10.5616 11.3373 10.5272 11.4126 10.4646C11.4879 10.402 11.539 10.3151 11.5571 10.2188L12.8174 3.49679C12.8288 3.43615 12.8267 3.37376 12.8112 3.31405C12.7957 3.25433 12.7672 3.19876 12.7279 3.15128C12.6885 3.10379 12.6391 3.06557 12.5833 3.03931C12.5275 3.01305 12.4666 2.99941 12.4049 2.99936H2.64953L2.30922 1.6373C2.28654 1.54637 2.23411 1.46564 2.16027 1.40794C2.08643 1.35023 1.99541 1.31887 1.9017 1.31885H0.641319ZM3.93091 9.72139L2.82766 3.83961H11.899L10.7958 9.72139H3.93091ZM5.26272 12.2422C5.26272 12.465 5.17419 12.6787 5.01661 12.8363C4.85903 12.9939 4.64531 13.0824 4.42246 13.0824C4.19961 13.0824 3.98589 12.9939 3.82831 12.8363C3.67074 12.6787 3.58221 12.465 3.58221 12.2422C3.58221 12.0193 3.67074 11.8056 3.82831 11.648C3.98589 11.4904 4.19961 11.4019 4.42246 11.4019C4.64531 11.4019 4.85903 11.4904 5.01661 11.648C5.17419 11.8056 5.26272 12.0193 5.26272 12.2422ZM11.1445 12.2422C11.1445 12.465 11.056 12.6787 10.8984 12.8363C10.7408 12.9939 10.5271 13.0824 10.3042 13.0824C10.0814 13.0824 9.86767 12.9939 9.71009 12.8363C9.55252 12.6787 9.46399 12.465 9.46399 12.2422C9.46399 12.0193 9.55252 11.8056 9.71009 11.648C9.86767 11.4904 10.0814 11.4019 10.3042 11.4019C10.5271 11.4019 10.7408 11.4904 10.8984 11.648C11.056 11.8056 11.1445 12.0193 11.1445 12.2422Z" fill="#363330"/>
</svg>
