<svg width="15" height="15" viewBox="0 0 15 15" fill="none" xmlns="http://www.w3.org/2000/svg">
<path d="M8.33375 5.42306C8.33375 5.31163 8.28949 5.20477 8.2107 5.12598C8.13191 5.04719 8.02505 5.00293 7.91362 5.00293C7.8022 5.00293 7.69534 5.04719 7.61655 5.12598C7.53776 5.20477 7.4935 5.31163 7.4935 5.42306V6.68344H6.23312C6.12169 6.68344 6.01483 6.7277 5.93604 6.80649C5.85725 6.88528 5.81299 6.99214 5.81299 7.10357C5.81299 7.21499 5.85725 7.32185 5.93604 7.40064C6.01483 7.47943 6.12169 7.52369 6.23312 7.52369H7.4935V8.78407C7.4935 8.8955 7.53776 9.00236 7.61655 9.08115C7.69534 9.15994 7.8022 9.2042 7.91362 9.2042C8.02505 9.2042 8.13191 9.15994 8.2107 9.08115C8.28949 9.00236 8.33375 8.8955 8.33375 8.78407V7.52369H9.59413C9.70556 7.52369 9.81242 7.47943 9.89121 7.40064C9.97 7.32185 10.0143 7.21499 10.0143 7.10357C10.0143 6.99214 9.97 6.88528 9.89121 6.80649C9.81242 6.7277 9.70556 6.68344 9.59413 6.68344H8.33375V5.42306Z" fill="#363330"/>
<path d="M1.19161 1.64209C1.08019 1.64209 0.973326 1.68635 0.894537 1.76514C0.815748 1.84393 0.771484 1.95079 0.771484 2.06222C0.771484 2.17364 0.815748 2.2805 0.894537 2.35929C0.973326 2.43808 1.08019 2.48234 1.19161 2.48234H2.12429L2.46124 3.83263L3.71994 10.5421C3.73796 10.6383 3.78905 10.7253 3.86439 10.7879C3.93972 10.8505 4.03455 10.8848 4.1325 10.8849H4.97276C4.52706 10.8849 4.09961 11.0619 3.78446 11.3771C3.4693 11.6923 3.29225 12.1197 3.29225 12.5654C3.29225 13.0111 3.4693 13.4385 3.78446 13.7537C4.09961 14.0688 4.52706 14.2459 4.97276 14.2459C5.41845 14.2459 5.8459 14.0688 6.16105 13.7537C6.47621 13.4385 6.65326 13.0111 6.65326 12.5654C6.65326 12.1197 6.47621 11.6923 6.16105 11.3771C5.8459 11.0619 5.41845 10.8849 4.97276 10.8849H10.8545C10.4088 10.8849 9.98139 11.0619 9.66624 11.3771C9.35108 11.6923 9.17403 12.1197 9.17403 12.5654C9.17403 13.0111 9.35108 13.4385 9.66624 13.7537C9.98139 14.0688 10.4088 14.2459 10.8545 14.2459C11.3002 14.2459 11.7277 14.0688 12.0428 13.7537C12.358 13.4385 12.535 13.0111 12.535 12.5654C12.535 12.1197 12.358 11.6923 12.0428 11.3771C11.7277 11.0619 11.3002 10.8849 10.8545 10.8849H11.6948C11.7927 10.8848 11.8876 10.8505 11.9629 10.7879C12.0382 10.7253 12.0893 10.6383 12.1074 10.5421L13.3677 3.82003C13.3791 3.75939 13.3769 3.697 13.3615 3.63729C13.346 3.57757 13.3175 3.522 13.2782 3.47452C13.2388 3.42704 13.1894 3.38881 13.1336 3.36255C13.0778 3.3363 13.0169 3.32266 12.9552 3.3226H3.19982L2.85952 1.96055C2.83684 1.86962 2.78441 1.78888 2.71057 1.73118C2.63672 1.67347 2.54571 1.64212 2.45199 1.64209H1.19161ZM4.48121 10.0446L3.37795 4.16285H12.4493L11.3461 10.0446H4.48121ZM5.81301 12.5654C5.81301 12.7882 5.72448 13.002 5.56691 13.1595C5.40933 13.3171 5.1956 13.4056 4.97276 13.4056C4.74991 13.4056 4.53618 13.3171 4.37861 13.1595C4.22103 13.002 4.1325 12.7882 4.1325 12.5654C4.1325 12.3425 4.22103 12.1288 4.37861 11.9712C4.53618 11.8137 4.74991 11.7251 4.97276 11.7251C5.1956 11.7251 5.40933 11.8137 5.56691 11.9712C5.72448 12.1288 5.81301 12.3425 5.81301 12.5654ZM11.6948 12.5654C11.6948 12.7882 11.6063 13.002 11.4487 13.1595C11.2911 13.3171 11.0774 13.4056 10.8545 13.4056C10.6317 13.4056 10.418 13.3171 10.2604 13.1595C10.1028 13.002 10.0143 12.7882 10.0143 12.5654C10.0143 12.3425 10.1028 12.1288 10.2604 11.9712C10.418 11.8137 10.6317 11.7251 10.8545 11.7251C11.0774 11.7251 11.2911 11.8137 11.4487 11.9712C11.6063 12.1288 11.6948 12.3425 11.6948 12.5654Z" fill="#363330"/>
</svg>
