<svg width="15" height="14" viewBox="0 0 15 14" fill="none" xmlns="http://www.w3.org/2000/svg">
<path d="M8.33375 5.14962C8.33375 5.03819 8.28949 4.93133 8.2107 4.85254C8.13191 4.77376 8.02505 4.72949 7.91362 4.72949C7.8022 4.72949 7.69534 4.77376 7.61655 4.85254C7.53776 4.93133 7.4935 5.03819 7.4935 5.14962V6.41H6.23312C6.12169 6.41 6.01483 6.45426 5.93604 6.53305C5.85725 6.61184 5.81299 6.7187 5.81299 6.83013C5.81299 6.94155 5.85725 7.04841 5.93604 7.1272C6.01483 7.20599 6.12169 7.25025 6.23312 7.25025H7.4935V8.51064C7.4935 8.62206 7.53776 8.72892 7.61655 8.80771C7.69534 8.8865 7.8022 8.93076 7.91362 8.93076C8.02505 8.93076 8.13191 8.8865 8.2107 8.80771C8.28949 8.72892 8.33375 8.62206 8.33375 8.51064V7.25025H9.59413C9.70556 7.25025 9.81242 7.20599 9.89121 7.1272C9.97 7.04841 10.0143 6.94155 10.0143 6.83013C10.0143 6.7187 9.97 6.61184 9.89121 6.53305C9.81242 6.45426 9.70556 6.41 9.59413 6.41H8.33375V5.14962Z" fill="#363330"/>
<path d="M1.19161 1.36865C1.08019 1.36865 0.973326 1.41292 0.894537 1.4917C0.815748 1.57049 0.771484 1.67735 0.771484 1.78878C0.771484 1.9002 0.815748 2.00707 0.894537 2.08585C0.973326 2.16464 1.08019 2.20891 1.19161 2.20891H2.12429L2.46124 3.5592L3.71994 10.2686C3.73796 10.3649 3.78905 10.4519 3.86439 10.5144C3.93972 10.577 4.03455 10.6114 4.1325 10.6114H4.97276C4.52706 10.6114 4.09961 10.7885 3.78446 11.1037C3.4693 11.4188 3.29225 11.8463 3.29225 12.292C3.29225 12.7377 3.4693 13.1651 3.78446 13.4803C4.09961 13.7954 4.52706 13.9725 4.97276 13.9725C5.41845 13.9725 5.8459 13.7954 6.16105 13.4803C6.47621 13.1651 6.65326 12.7377 6.65326 12.292C6.65326 11.8463 6.47621 11.4188 6.16105 11.1037C5.8459 10.7885 5.41845 10.6114 4.97276 10.6114H10.8545C10.4088 10.6114 9.98139 10.7885 9.66624 11.1037C9.35108 11.4188 9.17403 11.8463 9.17403 12.292C9.17403 12.7377 9.35108 13.1651 9.66624 13.4803C9.98139 13.7954 10.4088 13.9725 10.8545 13.9725C11.3002 13.9725 11.7277 13.7954 12.0428 13.4803C12.358 13.1651 12.535 12.7377 12.535 12.292C12.535 11.8463 12.358 11.4188 12.0428 11.1037C11.7277 10.7885 11.3002 10.6114 10.8545 10.6114H11.6948C11.7927 10.6114 11.8876 10.577 11.9629 10.5144C12.0382 10.4519 12.0893 10.3649 12.1074 10.2686L13.3677 3.54659C13.3791 3.48596 13.3769 3.42357 13.3615 3.36385C13.346 3.30414 13.3175 3.24856 13.2782 3.20108C13.2388 3.1536 13.1894 3.11537 13.1336 3.08912C13.0778 3.06286 13.0169 3.04922 12.9552 3.04916H3.19982L2.85952 1.68711C2.83684 1.59618 2.78441 1.51544 2.71057 1.45774C2.63672 1.40004 2.54571 1.36868 2.45199 1.36865H1.19161ZM4.48121 9.77119L3.37795 3.88941H12.4493L11.3461 9.77119H4.48121ZM5.81301 12.292C5.81301 12.5148 5.72448 12.7285 5.56691 12.8861C5.40933 13.0437 5.1956 13.1322 4.97276 13.1322C4.74991 13.1322 4.53618 13.0437 4.37861 12.8861C4.22103 12.7285 4.1325 12.5148 4.1325 12.292C4.1325 12.0691 4.22103 11.8554 4.37861 11.6978C4.53618 11.5402 4.74991 11.4517 4.97276 11.4517C5.1956 11.4517 5.40933 11.5402 5.56691 11.6978C5.72448 11.8554 5.81301 12.0691 5.81301 12.292ZM11.6948 12.292C11.6948 12.5148 11.6063 12.7285 11.4487 12.8861C11.2911 13.0437 11.0774 13.1322 10.8545 13.1322C10.6317 13.1322 10.418 13.0437 10.2604 12.8861C10.1028 12.7285 10.0143 12.5148 10.0143 12.292C10.0143 12.0691 10.1028 11.8554 10.2604 11.6978C10.418 11.5402 10.6317 11.4517 10.8545 11.4517C11.0774 11.4517 11.2911 11.5402 11.4487 11.6978C11.6063 11.8554 11.6948 12.0691 11.6948 12.292Z" fill="#363330"/>
</svg>
