<svg width="17" height="17" viewBox="0 0 17 17" fill="none" xmlns="http://www.w3.org/2000/svg">
<path d="M8.41573 16.2123C12.8104 16.2123 16.2836 12.6682 16.2836 8.34444C16.2836 3.94977 12.7395 0.476562 8.41573 0.476562C4.02106 0.476562 0.547852 4.02065 0.547852 8.34444C0.547852 12.7391 4.09194 16.2123 8.41573 16.2123Z" fill="#FDC600"/>
<path d="M8.55752 8.91257C9.05369 8.91257 9.47898 9.05434 9.76251 9.33786C10.046 9.62139 10.1878 9.9758 10.1878 10.472C10.1878 10.9681 10.046 11.3934 9.69163 11.677C9.33722 11.9605 8.98281 12.1023 8.41576 12.1023C7.8487 12.1023 7.42341 11.9605 7.069 11.7478C6.78548 11.4643 6.57283 11.1099 6.57283 10.6137H5.65137V10.6846C5.65137 11.3934 5.93489 11.9605 6.43107 12.3149C6.92724 12.7402 7.56518 12.882 8.41576 12.882C9.12458 12.882 9.76251 12.6693 10.3296 12.244C10.8966 11.8187 11.1093 11.1808 11.1093 10.4011C11.1093 10.1176 11.0384 9.83404 10.9675 9.62139C10.8966 9.40875 10.7549 9.1961 10.684 9.05434C10.5422 8.91257 10.4004 8.77081 10.2587 8.69993C10.1169 8.62905 10.046 8.55816 9.97516 8.48728C9.90427 8.48728 9.90427 8.4164 9.83339 8.4164L9.97516 8.34552C10.046 8.34552 10.1878 8.27464 10.2587 8.13287C10.4004 8.06199 10.4713 7.92023 10.6131 7.77846C10.7549 7.6367 10.8257 7.49494 10.8966 7.21141C10.9675 6.99876 11.0384 6.71524 11.0384 6.50259C11.0384 5.86466 10.8257 5.2976 10.3296 4.87231C9.83339 4.44702 9.26634 4.23438 8.41576 4.23438C7.63606 4.23438 7.069 4.44702 6.57283 4.80143C6.07666 5.15584 5.86401 5.72289 5.86401 6.36083V6.43171H6.78548C6.78548 6.00642 6.92724 5.65201 7.21077 5.43937C7.49429 5.22672 7.91958 5.08496 8.41576 5.08496C8.98281 5.08496 9.33722 5.22672 9.62075 5.43937C9.90427 5.72289 10.046 6.00642 10.046 6.43171C10.046 6.92788 9.90427 7.28229 9.62075 7.56582C9.33722 7.84935 8.98281 7.99111 8.48664 7.99111H7.21077V8.84169H8.55752V8.91257Z" fill="#FEFEFE"/>
</svg>
