<svg width="30" height="32" viewBox="0 0 30 32" fill="none" xmlns="http://www.w3.org/2000/svg">
<path d="M26.5664 27.9193C26.3459 27.1696 26.0151 26.3317 25.6402 25.4717C25.2654 24.6338 24.8244 23.7738 24.3392 22.9138C24.2731 23.0241 24.2069 23.1343 24.1408 23.2446C24.0746 23.3548 24.0085 23.4651 23.9203 23.5753C23.8541 23.6856 23.7659 23.7958 23.6998 23.884C23.6116 23.9943 23.5454 24.0825 23.4572 24.1928C23.4572 24.1928 23.4572 24.2148 23.4352 24.2148C23.4352 24.2148 23.4352 24.2369 23.4131 24.2369L23.3911 24.2589L23.369 24.281L23.3029 24.3692C23.369 24.5676 23.4572 24.7881 23.5454 25.0527C23.6336 25.2953 23.7439 25.582 23.8321 25.8245C23.9203 26.0891 23.9864 26.3317 24.0085 26.5081C24.0305 26.7065 24.0305 26.8609 23.9644 26.9271C23.9423 26.9491 23.9203 26.9712 23.8762 26.9932C23.8541 27.0153 23.81 27.0153 23.788 27.0373C23.7439 27.0373 23.7218 27.0594 23.6777 27.0594C23.6336 27.0594 23.5895 27.0594 23.5454 27.0594C23.4793 27.0594 23.3911 27.0373 23.3249 27.0373C23.2367 27.0153 23.1485 26.9932 23.0603 26.9712C22.9721 26.9491 22.8839 26.905 22.7736 26.8609C22.6854 26.8168 22.5752 26.7727 22.4649 26.7286C22.3326 26.6624 22.2003 26.5963 22.046 26.5301C21.9137 26.464 21.7593 26.3758 21.6049 26.2876C21.4506 26.1994 21.2962 26.1112 21.1419 26.023C20.9875 25.9348 20.8332 25.8245 20.6568 25.7363C21.2962 25.0968 21.8916 24.4133 22.4429 23.6856C22.9941 22.9579 23.5013 22.1861 23.9423 21.3923C24.3833 20.5985 24.7582 19.7606 25.089 18.9226C25.3977 18.0626 25.6623 17.2027 25.8387 16.3206C26.2356 14.3361 26.2136 12.4618 25.8387 10.7859C25.4859 9.15415 24.7803 7.6988 23.8321 6.53011C22.8839 5.38347 21.6932 4.47939 20.304 3.92812C18.9368 3.37685 17.3712 3.11224 15.6733 3.24454C14.5487 3.31069 13.4462 3.55325 12.3877 3.90607C11.3293 4.25888 10.2929 4.74399 9.30063 5.33936C8.30834 5.93473 7.38221 6.61831 6.50018 7.41214C5.61815 8.20596 4.82432 9.06594 4.09665 10.0141C3.89819 9.63926 3.74384 9.3085 3.61153 8.99979C3.47923 8.69108 3.39102 8.40442 3.32487 8.16186C3.25872 7.9193 3.23667 7.6988 3.25872 7.52239C3.28077 7.34598 3.32487 7.19163 3.43513 7.08137C3.45718 7.03727 3.50128 7.01522 3.56743 6.97112C3.61153 6.94907 3.67768 6.90497 3.74384 6.88292C3.80999 6.86087 3.87614 6.83882 3.96434 6.81677C4.05255 6.79471 4.14075 6.79471 4.22895 6.77266C4.31716 6.77266 4.42741 6.77266 4.53766 6.77266C4.64792 6.79471 4.75817 6.81677 4.86842 6.86087C4.97868 6.90497 5.08893 6.94907 5.19919 7.01522C5.30944 7.08137 5.41969 7.16958 5.52995 7.27983C5.6402 7.14753 5.75045 7.01522 5.86071 6.90497C5.97096 6.77266 6.10327 6.66241 6.21352 6.55216C6.34583 6.4419 6.45608 6.33165 6.61043 6.22139C6.74274 6.11114 6.87504 6.02294 7.0294 5.91268C7.05145 5.91268 7.05145 5.89063 7.0735 5.89063C7.09555 5.89063 7.09555 5.86858 7.1176 5.86858C7.1176 5.86858 7.13965 5.84653 7.1617 5.84653C7.1617 5.84653 7.18375 5.82448 7.2058 5.82448C6.96325 5.60397 6.67659 5.40552 6.38993 5.25116C6.10327 5.09681 5.81661 4.98655 5.52995 4.89835C5.24329 4.81015 4.93458 4.74399 4.64792 4.72194C4.36126 4.69989 4.0746 4.67784 3.80999 4.69989C3.63358 4.72194 3.43513 4.74399 3.28077 4.76604C3.10436 4.81015 2.95001 4.85425 2.8177 4.89835C2.6854 4.94245 2.5531 5.0086 2.44284 5.07476C2.33259 5.14091 2.24439 5.20706 2.15618 5.29526C1.93567 5.53782 1.80337 5.84653 1.73722 6.24345C1.67107 6.61831 1.69312 7.08137 1.80337 7.58854C1.89157 8.09571 2.06798 8.66903 2.31054 9.28645C2.5531 9.90387 2.86181 10.5654 3.23667 11.2931C2.97206 11.69 2.7295 12.1089 2.50899 12.5279C2.28849 12.9469 2.06798 13.3658 1.86952 13.8069C1.67107 14.2479 1.49466 14.6889 1.3403 15.152C1.18595 15.615 1.03159 16.0781 0.92134 16.5411C0.458274 18.3273 0.303919 20.0472 0.458274 21.6349C0.612629 23.2446 1.0757 24.722 1.80337 26.0009C2.5531 27.3019 3.56743 28.3824 4.82432 29.1762C6.10327 29.9921 7.64682 30.4772 9.38883 30.5875C9.896 30.6095 10.4252 30.6095 10.9544 30.5654C11.4837 30.5213 12.0129 30.4552 12.52 30.3449C13.0493 30.2347 13.5785 30.1024 14.0856 29.926C14.6149 29.7495 15.122 29.5511 15.6292 29.3085L14.3944 26.9712C14.0415 27.1255 13.6667 27.2358 13.3139 27.346C12.939 27.4563 12.5862 27.5445 12.2113 27.6106C11.8365 27.6768 11.4837 27.7209 11.1088 27.7429C10.7339 27.765 10.3811 27.765 10.0063 27.765C8.595 27.6988 7.36016 27.324 6.32377 26.6845C5.28739 26.0671 4.44946 25.2071 3.85409 24.1707C3.23667 23.1564 2.86181 21.9436 2.7295 20.6426C2.5972 19.3636 2.6854 17.9524 3.06026 16.497C3.43513 15.0417 4.0305 13.6746 4.82432 12.4177C5.5961 11.1608 6.56633 10.0362 7.62477 9.06594C8.70526 8.09571 9.896 7.30188 11.1749 6.72856C12.4539 6.15524 13.799 5.78038 15.1441 5.71423C16.5112 5.62602 17.7681 5.84653 18.8707 6.33165C19.9952 6.81677 20.9434 7.54444 21.6932 8.49262C22.4429 9.4408 22.9941 10.6095 23.2588 11.9325C23.5234 13.2776 23.5234 14.7771 23.2147 16.3647C23.0823 17.0704 22.8618 17.7539 22.6193 18.4155C22.3767 19.077 22.068 19.7385 21.7152 20.3559C21.3624 20.9734 20.9875 21.5908 20.5465 22.1641C20.1275 22.7374 19.6424 23.2666 19.1573 23.7738C19.1573 23.5974 19.1794 23.421 19.1794 23.2666C19.1794 23.0902 19.2014 22.9138 19.2014 22.7595C19.2014 22.6051 19.2235 22.4507 19.2235 22.3184C19.2235 22.1861 19.2235 22.0979 19.2235 22.0097C19.2235 21.9436 19.2235 21.8774 19.2014 21.8333C19.1794 21.7892 19.1794 21.7672 19.1573 21.7231C19.1353 21.701 19.1132 21.679 19.0912 21.679C19.0691 21.679 19.0471 21.6569 19.003 21.6569C18.9809 21.6569 18.9589 21.6569 18.9368 21.6569C18.9148 21.6569 18.8927 21.6569 18.8707 21.679C18.8486 21.679 18.8486 21.701 18.8266 21.701H18.8045L14.4826 23.1123C14.4826 23.1123 14.4385 23.1343 14.3944 23.1564C14.3502 23.1784 14.2841 23.2225 14.24 23.2666C14.1959 23.3107 14.1518 23.3989 14.1518 23.4871C14.1518 23.5753 14.1738 23.7076 14.24 23.8399C14.24 23.8399 14.24 23.862 14.262 23.862C14.262 23.862 14.262 23.884 14.2841 23.884C14.2841 23.884 14.2841 23.9061 14.3061 23.9061C14.3061 23.9061 14.3061 23.9282 14.3282 23.9282C14.5267 24.3251 14.7913 24.8543 15.122 25.4497C15.4307 26.045 15.8056 26.7286 16.1584 27.3901C16.5112 28.0516 16.864 28.7132 17.1727 29.2865C17.4815 29.8598 17.7461 30.3229 17.9004 30.6316C17.9225 30.6536 17.9225 30.6757 17.9445 30.6977C17.9666 30.7198 17.9666 30.7418 17.9886 30.7639C17.9886 30.7859 18.0107 30.808 18.0107 30.83C18.0107 30.8521 18.0327 30.8521 18.0327 30.8741C18.0768 30.9403 18.1209 31.0064 18.143 31.0726C18.1871 31.1167 18.2091 31.1608 18.2532 31.2049C18.2973 31.227 18.3194 31.2711 18.3635 31.2711C18.3855 31.2931 18.4296 31.2931 18.4517 31.2931C18.4958 31.2931 18.5619 31.2711 18.606 31.249C18.6501 31.2269 18.6943 31.1828 18.7163 31.1167C18.7384 31.0726 18.7825 31.0064 18.7825 30.9623C18.8045 30.9182 18.8045 30.8521 18.8266 30.83C18.8266 30.808 18.8266 30.808 18.8266 30.7859C18.8266 30.7639 18.8266 30.7418 18.8266 30.7198C18.8266 30.6977 18.8266 30.6536 18.8266 30.6316C18.8266 30.5875 18.8266 30.5654 18.8266 30.5213C18.8266 30.367 18.8486 30.2126 18.8486 30.0362C18.8486 29.8598 18.8707 29.6834 18.8707 29.507C18.8707 29.3306 18.8927 29.1983 18.8927 29.088C18.8927 28.9778 18.8927 28.9116 18.8927 28.8896C19.4881 29.2424 20.0834 29.5952 20.6568 29.9039C21.2521 30.2347 21.8255 30.5213 22.3767 30.7859C22.928 31.0505 23.4572 31.2711 23.9423 31.4254C24.4274 31.5798 24.8905 31.69 25.2874 31.7121C25.3315 31.7121 25.3977 31.7121 25.4418 31.7121C25.4859 31.7121 25.552 31.7121 25.5961 31.7121C25.6402 31.7121 25.6843 31.7121 25.7505 31.69C25.7946 31.69 25.8387 31.668 25.8828 31.668C25.9489 31.6459 26.0151 31.6459 26.0813 31.6239C26.1474 31.6018 26.2136 31.5798 26.2577 31.5577C26.3238 31.5357 26.3679 31.4916 26.412 31.4695C26.4561 31.4254 26.5002 31.3813 26.5443 31.3372C26.831 31.0505 26.9412 30.5875 26.9412 29.9921C26.9412 29.4188 26.8089 28.7132 26.5664 27.9634V27.9193Z" fill="#FDC600"/>
<path d="M13.0946 16.0408V15.0264H11.6613V9.46963H10.6028C10.1618 9.88859 9.6767 10.1753 9.14748 10.3076V11.3439C9.41209 11.2998 9.65465 11.2116 9.91926 11.0793C10.1839 10.947 10.3823 10.8147 10.5367 10.6604V15.0044H8.72852V16.0187H13.0946V16.0408ZM18.4529 11.366C18.4529 10.7706 18.2544 10.2855 17.8355 9.91064C17.4165 9.55783 16.8873 9.35938 16.2258 9.35938C15.5643 9.35938 15.013 9.53578 14.6161 9.88859C14.1971 10.2414 13.9986 10.7265 13.9986 11.3219V14.1223C13.9986 14.7177 14.1971 15.2028 14.6161 15.5556C15.035 15.9084 15.5643 16.0849 16.2258 16.0849C16.8873 16.0849 17.4165 15.9084 17.8355 15.5336C18.2544 15.1808 18.4529 14.6957 18.4529 14.0782V11.3219V11.366ZM17.3283 14.0341C17.3283 14.3869 17.2401 14.6516 17.0417 14.85C16.8432 15.0485 16.5786 15.1367 16.2478 15.1367C15.895 15.1367 15.6304 15.0485 15.454 14.85C15.2555 14.6516 15.1673 14.3869 15.1673 14.0341V11.4101C15.1673 11.0573 15.2555 10.7927 15.454 10.5942C15.6525 10.3958 15.9171 10.3076 16.2699 10.3076C16.6227 10.3076 16.8873 10.3958 17.0858 10.5942C17.2842 10.7927 17.3724 11.0573 17.3724 11.4101L17.3504 14.0341H17.3283Z" fill="#FDC600"/>
<path d="M10.0283 21.5487V16.6094H9.19037V20.358L7.2499 16.6094H6.03711V21.5487H6.87504V17.8001L8.83756 21.5487H10.0283ZM11.7483 21.0857C11.7483 20.9534 11.7042 20.8652 11.616 20.799C11.5277 20.7329 11.4175 20.7108 11.2852 20.7108C11.1529 20.7108 11.0426 20.7549 10.9544 20.799C10.8662 20.8652 10.8221 20.9534 10.8221 21.0857V21.218C10.8221 21.3503 10.8662 21.4385 10.9544 21.5046C11.0426 21.5708 11.1529 21.6149 11.2852 21.6149C11.4175 21.6149 11.5277 21.5708 11.616 21.5046C11.7042 21.4385 11.7483 21.3503 11.7483 21.218L11.7262 21.0857H11.7483ZM15.4528 20.2257H14.681C14.681 20.6888 14.4384 20.9313 13.9533 20.9313C13.4682 20.9313 13.2257 20.6888 13.2257 20.1816V19.4539C13.2257 18.9688 13.4682 18.7042 13.9533 18.7042C14.4384 18.7042 14.681 18.9468 14.681 19.4098H15.4528V19.3437C15.4528 18.9247 15.3205 18.5939 15.0559 18.3514C14.7913 18.1309 14.4164 17.9986 13.9533 17.9986C13.4903 17.9986 13.1375 18.1088 12.8508 18.3734C12.5862 18.616 12.4318 18.9688 12.4318 19.3878V20.2478C12.4318 20.6667 12.5641 21.0195 12.8508 21.24C13.1154 21.4826 13.4903 21.5928 13.9533 21.5928C14.4164 21.5928 14.7913 21.4826 15.0559 21.24C15.3205 20.9975 15.4748 20.6667 15.4748 20.2478L15.4528 20.2036V20.2257ZM21.0096 21.5487V19.0791C21.0096 18.7483 20.9214 18.4837 20.745 18.2852C20.5686 18.1088 20.326 17.9986 20.0393 17.9986C19.7527 17.9986 19.4881 18.0868 19.2455 18.2411L18.8706 18.4837C18.7163 18.175 18.4517 18.0206 18.0327 18.0206C17.7902 18.0206 17.5256 18.0868 17.305 18.2411L16.9963 18.4175V18.0427H16.2025V21.5267H16.9963V19.1232L17.4153 18.8586C17.5917 18.7703 17.724 18.7262 17.8343 18.7262C18.0768 18.7262 18.2091 18.8806 18.2091 19.1673V21.5267H19.003V19.1232L19.4219 18.8586C19.5983 18.7703 19.7306 18.7262 19.8409 18.7262C20.0834 18.7262 20.2157 18.8806 20.2157 19.1452V21.5267H21.0316L21.0096 21.5487Z" fill="#FDC600"/>
<path d="M23.2587 12.2635C26.5884 12.2635 29.3006 9.57331 29.3006 6.2216C29.3006 2.89193 26.6104 0.179688 23.2587 0.179688C19.929 0.179688 17.2168 2.86988 17.2168 6.2216C17.2168 9.55126 19.907 12.2635 23.2587 12.2635Z" fill="#FDC600"/>
<path d="M23.2587 12.2635C26.5884 12.2635 29.3006 9.57331 29.3006 6.2216C29.3006 2.89193 26.6104 0.179688 23.2587 0.179688C19.929 0.179688 17.2168 2.86988 17.2168 6.2216C17.2168 9.55126 19.907 12.2635 23.2587 12.2635Z" stroke="white" stroke-width="1.27894"/>
<path d="M25.3988 9.66122V8.9556H22.444L24.3183 7.05923C24.7153 6.66232 25.0019 6.28746 25.1563 5.9567C25.3106 5.62593 25.3988 5.29517 25.3988 4.94236C25.3988 4.39109 25.2445 3.95008 24.8917 3.64137C24.5609 3.31061 24.0758 3.15625 23.4363 3.15625C22.8409 3.15625 22.3558 3.31061 21.981 3.61932C21.6061 3.92803 21.4297 4.34699 21.4297 4.87621V4.94236H22.1574C22.1574 4.5675 22.2676 4.30289 22.4881 4.12648C22.7086 3.95008 23.0173 3.83982 23.4143 3.83982C23.8332 3.83982 24.1419 3.92803 24.3404 4.12648C24.5388 4.32494 24.6491 4.58955 24.6491 4.94236C24.6491 5.22902 24.5829 5.49363 24.4506 5.73619C24.3183 5.97875 24.0978 6.26541 23.8112 6.59617L21.5399 8.93355V9.63917H25.3768L25.3988 9.66122Z" fill="#FEFEFE"/>
</svg>
