<svg width="28" height="30" viewBox="0 0 28 30" fill="none" xmlns="http://www.w3.org/2000/svg">
<path d="M25.0364 25.9373C24.8328 25.2449 24.5273 24.471 24.1811 23.6767C23.8348 22.9028 23.4275 22.1086 22.9795 21.3143C22.9184 21.4161 22.8573 21.518 22.7962 21.6198C22.7351 21.7216 22.674 21.8235 22.5925 21.9253C22.5314 22.0271 22.45 22.1289 22.3889 22.2104C22.3074 22.3122 22.2463 22.3937 22.1649 22.4955C22.1649 22.4955 22.1649 22.5159 22.1445 22.5159C22.1445 22.5159 22.1445 22.5362 22.1241 22.5362L22.1038 22.5566L22.0834 22.577L22.0223 22.6584C22.0834 22.8417 22.1649 23.0454 22.2463 23.2898C22.3278 23.5138 22.4296 23.7785 22.5111 24.0026C22.5925 24.247 22.6536 24.471 22.674 24.6339C22.6944 24.8172 22.6944 24.9597 22.6333 25.0208C22.6129 25.0412 22.5925 25.0616 22.5518 25.0819C22.5314 25.1023 22.4907 25.1023 22.4704 25.1227C22.4296 25.1227 22.4093 25.143 22.3685 25.143C22.3278 25.143 22.2871 25.143 22.2463 25.143C22.1852 25.143 22.1038 25.1227 22.0427 25.1227C21.9612 25.1023 21.8797 25.0819 21.7983 25.0616C21.7168 25.0412 21.6354 25.0005 21.5335 24.9597C21.4521 24.919 21.3502 24.8783 21.2484 24.8376C21.1262 24.7765 21.004 24.7154 20.8615 24.6543C20.7393 24.5932 20.5967 24.5117 20.4542 24.4302C20.3116 24.3488 20.169 24.2673 20.0265 24.1859C19.8839 24.1044 19.7414 24.0026 19.5784 23.9211C20.169 23.3305 20.7189 22.6992 21.2281 22.0271C21.7372 21.355 22.2056 20.6422 22.6129 19.9091C23.0202 19.1759 23.3664 18.402 23.6719 17.6281C23.957 16.8339 24.2014 16.0396 24.3643 15.225C24.7309 13.3921 24.7106 11.661 24.3643 10.1132C24.0385 8.6062 23.3868 7.26207 22.5111 6.18269C21.6354 5.12369 20.5356 4.2887 19.2526 3.77956C17.9899 3.27042 16.544 3.02603 14.9758 3.14822C13.9372 3.20932 12.9189 3.43334 11.9413 3.75919C10.9638 4.08504 10.0066 4.53308 9.09017 5.08295C8.17372 5.63282 7.31837 6.26416 6.50374 6.99732C5.68912 7.73048 4.95596 8.52473 4.2839 9.40045C4.10061 9.05424 3.95805 8.74876 3.83585 8.46364C3.71366 8.17852 3.6322 7.91377 3.5711 7.68975C3.51 7.46573 3.48964 7.26207 3.51 7.09914C3.53037 6.93622 3.5711 6.79366 3.67293 6.69183C3.69329 6.6511 3.73403 6.63074 3.79512 6.59001C3.83585 6.56964 3.89695 6.52891 3.95805 6.50854C4.01914 6.48818 4.08024 6.46781 4.1617 6.44745C4.24316 6.42708 4.32463 6.42708 4.40609 6.40672C4.48755 6.40672 4.58938 6.40672 4.69121 6.40672C4.79303 6.42708 4.89486 6.44745 4.99669 6.48818C5.09852 6.52891 5.20035 6.56964 5.30217 6.63074C5.404 6.69183 5.50583 6.7733 5.60766 6.87512C5.70949 6.75293 5.81131 6.63074 5.91314 6.52891C6.01497 6.40672 6.13716 6.30489 6.23899 6.20306C6.36118 6.10123 6.46301 5.9994 6.60557 5.89758C6.72776 5.79575 6.84996 5.71429 6.99252 5.61246C7.01288 5.61246 7.01288 5.59209 7.03325 5.59209C7.05361 5.59209 7.05361 5.57173 7.07398 5.57173C7.07398 5.57173 7.09434 5.55136 7.11471 5.55136C7.11471 5.55136 7.13508 5.531 7.15544 5.531C6.93142 5.32734 6.66667 5.14405 6.40192 5.00149C6.13716 4.85893 5.87241 4.7571 5.60766 4.67564C5.34291 4.59418 5.05779 4.53308 4.79304 4.51272C4.52828 4.49235 4.26353 4.47199 4.01914 4.49235C3.85622 4.51272 3.67293 4.53308 3.53037 4.55345C3.36745 4.59418 3.22489 4.63491 3.10269 4.67564C2.9805 4.71637 2.85831 4.77747 2.75648 4.83857C2.65465 4.89966 2.57319 4.96076 2.49173 5.04222C2.28807 5.26624 2.16588 5.55136 2.10478 5.91794C2.04368 6.26416 2.06405 6.69183 2.16588 7.16024C2.24734 7.62865 2.41026 8.15815 2.63428 8.72839C2.85831 9.29863 3.14342 9.90959 3.48964 10.5817C3.24525 10.9482 3.02123 11.3352 2.81757 11.7221C2.61392 12.1091 2.41026 12.496 2.22697 12.9033C2.04368 13.3106 1.88076 13.718 1.7382 14.1456C1.59564 14.5733 1.45308 15.001 1.35125 15.4287C0.923577 17.0783 0.781018 18.6668 0.923577 20.1331C1.06614 21.6198 1.49381 22.9843 2.16588 24.1655C2.85831 25.3671 3.79512 26.365 4.95596 27.0981C6.13716 27.8517 7.56275 28.2997 9.17163 28.4015C9.64004 28.4219 10.1288 28.4219 10.6176 28.3812C11.1064 28.3404 11.5951 28.2793 12.0635 28.1775C12.5523 28.0757 13.0411 27.9535 13.5095 27.7906C13.9983 27.6276 14.4667 27.4443 14.9351 27.2203L13.7946 25.0616C13.4688 25.2041 13.1226 25.306 12.7967 25.4078C12.4505 25.5096 12.1246 25.5911 11.7784 25.6522C11.4322 25.7133 11.1064 25.754 10.7601 25.7744C10.4139 25.7947 10.0881 25.7947 9.74187 25.7947C8.43847 25.7336 7.298 25.3874 6.34082 24.7968C5.38364 24.2266 4.60974 23.4323 4.05987 22.4751C3.48964 21.5383 3.14342 20.4182 3.02123 19.2167C2.89904 18.0355 2.9805 16.7321 3.32671 15.3879C3.67293 14.0438 4.2228 12.7811 4.95596 11.6203C5.66875 10.4595 6.56484 9.42082 7.54239 8.52473C8.5403 7.62865 9.64004 6.89549 10.8212 6.36598C12.0024 5.83648 13.2447 5.49027 14.487 5.42917C15.7497 5.34771 16.9105 5.55136 17.9288 5.9994C18.9675 6.44745 19.8432 7.11951 20.5356 7.99523C21.2281 8.87095 21.7372 9.95033 21.9816 11.1723C22.226 12.4146 22.226 13.7994 21.9408 15.2657C21.8187 15.9174 21.615 16.5488 21.391 17.1597C21.167 17.7707 20.8818 18.3817 20.556 18.9519C20.2301 19.5221 19.8839 20.0924 19.4766 20.6219C19.0897 21.1514 18.6416 21.6402 18.1936 22.1086C18.1936 21.9456 18.2139 21.7827 18.2139 21.6402C18.2139 21.4772 18.2343 21.3143 18.2343 21.1718C18.2343 21.0292 18.2547 20.8866 18.2547 20.7644C18.2547 20.6422 18.2547 20.5608 18.2547 20.4793C18.2547 20.4182 18.2547 20.3571 18.2343 20.3164C18.2139 20.2757 18.2139 20.2553 18.1936 20.2146C18.1732 20.1942 18.1528 20.1738 18.1325 20.1738C18.1121 20.1738 18.0918 20.1535 18.051 20.1535C18.0307 20.1535 18.0103 20.1535 17.9899 20.1535C17.9696 20.1535 17.9492 20.1535 17.9288 20.1738C17.9085 20.1738 17.9085 20.1942 17.8881 20.1942H17.8677L13.8761 21.4976C13.8761 21.4976 13.8353 21.518 13.7946 21.5383C13.7539 21.5587 13.6928 21.5994 13.6521 21.6402C13.6113 21.6809 13.5706 21.7624 13.5706 21.8438C13.5706 21.9253 13.591 22.0475 13.6521 22.1697C13.6521 22.1697 13.6521 22.19 13.6724 22.19C13.6724 22.19 13.6724 22.2104 13.6928 22.2104C13.6928 22.2104 13.6928 22.2308 13.7132 22.2308C13.7132 22.2308 13.7132 22.2511 13.7335 22.2511C13.9168 22.6177 14.1612 23.1065 14.4667 23.6564C14.7518 24.2062 15.098 24.8376 15.4239 25.4485C15.7497 26.0595 16.0756 26.6705 16.3607 27.2C16.6458 27.7295 16.8902 28.1571 17.0327 28.4423C17.0531 28.4626 17.0531 28.483 17.0735 28.5034C17.0938 28.5237 17.0938 28.5441 17.1142 28.5645C17.1142 28.5848 17.1346 28.6052 17.1346 28.6256C17.1346 28.6459 17.1549 28.6459 17.1549 28.6663C17.1957 28.7274 17.2364 28.7885 17.2568 28.8496C17.2975 28.8903 17.3179 28.931 17.3586 28.9718C17.3993 28.9921 17.4197 29.0329 17.4604 29.0329C17.4808 29.0532 17.5215 29.0532 17.5419 29.0532C17.5826 29.0532 17.6437 29.0329 17.6844 29.0125C17.7252 28.9921 17.7659 28.9514 17.7863 28.8903C17.8066 28.8496 17.8474 28.7885 17.8474 28.7477C17.8677 28.707 17.8677 28.6459 17.8881 28.6256C17.8881 28.6052 17.8881 28.6052 17.8881 28.5848C17.8881 28.5645 17.8881 28.5441 17.8881 28.5237C17.8881 28.5034 17.8881 28.4626 17.8881 28.4423C17.8881 28.4015 17.8881 28.3812 17.8881 28.3404C17.8881 28.1979 17.9085 28.0553 17.9085 27.8924C17.9085 27.7295 17.9288 27.5665 17.9288 27.4036C17.9288 27.2407 17.9492 27.1185 17.9492 27.0167C17.9492 26.9148 17.9492 26.8537 17.9492 26.8334C18.4991 27.1592 19.0489 27.4851 19.5784 27.7702C20.1283 28.0757 20.6578 28.3404 21.167 28.5848C21.6761 28.8292 22.1649 29.0329 22.6129 29.1754C23.061 29.318 23.4886 29.4198 23.8552 29.4402C23.8959 29.4402 23.957 29.4402 23.9978 29.4402C24.0385 29.4402 24.0996 29.4402 24.1403 29.4402C24.1811 29.4402 24.2218 29.4402 24.2829 29.4198C24.3236 29.4198 24.3643 29.3994 24.4051 29.3994C24.4662 29.3791 24.5273 29.3791 24.5884 29.3587C24.6495 29.3383 24.7106 29.318 24.7513 29.2976C24.8124 29.2773 24.8531 29.2365 24.8939 29.2162C24.9346 29.1754 24.9753 29.1347 25.016 29.094C25.2808 28.8292 25.3826 28.4015 25.3826 27.8517C25.3826 27.3222 25.2604 26.6705 25.0364 25.978V25.9373Z" fill="#FDC600"/>
<path d="M12.5939 14.9676V14.0308H11.2701V8.8987H10.2926C9.88529 9.28565 9.43724 9.5504 8.94847 9.67259V10.6298C9.19286 10.589 9.41688 10.5076 9.66126 10.3854C9.90565 10.2632 10.0889 10.141 10.2315 9.99844V14.0105H8.56152V14.9473H12.5939V14.9676ZM17.5427 10.6501C17.5427 10.1003 17.3595 9.65223 16.9725 9.30601C16.5856 8.98017 16.0968 8.79688 15.4858 8.79688C14.8749 8.79688 14.3657 8.9598 13.9991 9.28565C13.6122 9.6115 13.4289 10.0595 13.4289 10.6094V13.1958C13.4289 13.7457 13.6122 14.1938 13.9991 14.5196C14.3861 14.8454 14.8749 15.0084 15.4858 15.0084C16.0968 15.0084 16.5856 14.8454 16.9725 14.4992C17.3595 14.1734 17.5427 13.7253 17.5427 13.1551V10.6094V10.6501ZM16.5041 13.1144C16.5041 13.4402 16.4226 13.6846 16.2393 13.8679C16.0561 14.0512 15.8117 14.1327 15.5062 14.1327C15.1803 14.1327 14.9359 14.0512 14.773 13.8679C14.5897 13.6846 14.5083 13.4402 14.5083 13.1144V10.6909C14.5083 10.365 14.5897 10.1206 14.773 9.93735C14.9563 9.75406 15.2007 9.67259 15.5265 9.67259C15.8524 9.67259 16.0968 9.75406 16.2801 9.93735C16.4634 10.1206 16.5448 10.365 16.5448 10.6909L16.5245 13.1144H16.5041Z" fill="#FDC600"/>
<path d="M9.76234 20.0541V15.4922H8.98845V18.9543L7.19628 15.4922H6.07617V20.0541H6.85006V16.5919L8.6626 20.0541H9.76234ZM11.3509 19.6264C11.3509 19.5042 11.3101 19.4227 11.2287 19.3616C11.1472 19.3005 11.0454 19.2802 10.9232 19.2802C10.801 19.2802 10.6992 19.3209 10.6177 19.3616C10.5362 19.4227 10.4955 19.5042 10.4955 19.6264V19.7486C10.4955 19.8708 10.5362 19.9522 10.6177 20.0133C10.6992 20.0744 10.801 20.1152 10.9232 20.1152C11.0454 20.1152 11.1472 20.0744 11.2287 20.0133C11.3101 19.9522 11.3509 19.8708 11.3509 19.7486L11.3305 19.6264H11.3509ZM14.7723 18.8321H14.0595C14.0595 19.2598 13.8355 19.4838 13.3874 19.4838C12.9394 19.4838 12.7153 19.2598 12.7153 18.7914V18.1193C12.7153 17.6713 12.9394 17.4269 13.3874 17.4269C13.8355 17.4269 14.0595 17.6509 14.0595 18.0786H14.7723V18.0175C14.7723 17.6306 14.6501 17.3251 14.4057 17.1011C14.1613 16.8974 13.8151 16.7752 13.3874 16.7752C12.9597 16.7752 12.6339 16.877 12.3691 17.1214C12.1247 17.3455 11.9822 17.6713 11.9822 18.0582V18.8525C11.9822 19.2395 12.1044 19.5653 12.3691 19.769C12.6135 19.993 12.9597 20.0948 13.3874 20.0948C13.8151 20.0948 14.1613 19.993 14.4057 19.769C14.6501 19.5449 14.7926 19.2395 14.7926 18.8525L14.7723 18.8118V18.8321ZM19.9044 20.0541V17.7731C19.9044 17.4676 19.8229 17.2233 19.66 17.04C19.4971 16.877 19.2731 16.7752 19.0083 16.7752C18.7436 16.7752 18.4992 16.8567 18.2751 16.9992L17.9289 17.2233C17.7864 16.9381 17.542 16.7956 17.155 16.7956C16.931 16.7956 16.6866 16.8567 16.483 16.9992L16.1979 17.1622V16.8159H15.4647V20.0337H16.1979V17.8139L16.5848 17.5695C16.7477 17.488 16.8699 17.4473 16.9718 17.4473C17.1958 17.4473 17.318 17.5898 17.318 17.8546V20.0337H18.0511V17.8139L18.4381 17.5695C18.601 17.488 18.7232 17.4473 18.825 17.4473C19.049 17.4473 19.1712 17.5898 19.1712 17.8342V20.0337H19.9248L19.9044 20.0541Z" fill="#FDC600"/>
<path d="M21.9815 11.4806C25.0567 11.4806 27.5617 8.99605 27.5617 5.90048C27.5617 2.82528 25.0771 0.320312 21.9815 0.320312C18.9063 0.320312 16.4014 2.80491 16.4014 5.90048C16.4014 8.97568 18.886 11.4806 21.9815 11.4806Z" fill="#FDC600"/>
<path d="M21.9815 11.4806C25.0567 11.4806 27.5617 8.99605 27.5617 5.90048C27.5617 2.82528 25.0771 0.320312 21.9815 0.320312C18.9063 0.320312 16.4014 2.80491 16.4014 5.90048C16.4014 8.97568 18.886 11.4806 21.9815 11.4806Z" stroke="white" stroke-width="1.1812"/>
<path d="M23.9578 9.07816V8.42646H21.2288L22.9599 6.67502C23.3265 6.30844 23.5912 5.96222 23.7338 5.65674C23.8763 5.35126 23.9578 5.04577 23.9578 4.71992C23.9578 4.21078 23.8152 3.80347 23.4894 3.51836C23.1839 3.21287 22.7359 3.07031 22.1453 3.07031C21.5954 3.07031 21.1473 3.21287 20.8011 3.49799C20.4549 3.78311 20.292 4.17005 20.292 4.65883V4.71992H20.9641C20.9641 4.37371 21.0659 4.12932 21.2695 3.9664C21.4732 3.80347 21.7583 3.70165 22.1249 3.70165C22.5118 3.70165 22.797 3.78311 22.9802 3.9664C23.1635 4.14969 23.2654 4.39407 23.2654 4.71992C23.2654 4.98468 23.2043 5.22906 23.0821 5.45308C22.9599 5.67711 22.7562 5.94186 22.4915 6.24734L20.3938 8.40609V9.05779H23.9374L23.9578 9.07816Z" fill="#FEFEFE"/>
</svg>
