<svg width="28" height="30" viewBox="0 0 28 30" fill="none" xmlns="http://www.w3.org/2000/svg">
<path d="M24.5364 26.1404C24.3328 25.448 24.0273 24.6741 23.6811 23.8798C23.3348 23.106 22.9275 22.3117 22.4795 21.5174C22.4184 21.6193 22.3573 21.7211 22.2962 21.8229C22.2351 21.9247 22.174 22.0266 22.0925 22.1284C22.0314 22.2302 21.95 22.3321 21.8889 22.4135C21.8074 22.5153 21.7463 22.5968 21.6649 22.6986C21.6649 22.6986 21.6649 22.719 21.6445 22.719C21.6445 22.719 21.6445 22.7394 21.6241 22.7394L21.6038 22.7597L21.5834 22.7801L21.5223 22.8616C21.5834 23.0449 21.6649 23.2485 21.7463 23.4929C21.8278 23.7169 21.9296 23.9817 22.0111 24.2057C22.0925 24.4501 22.1536 24.6741 22.174 24.837C22.1944 25.0203 22.1944 25.1629 22.1333 25.224C22.1129 25.2443 22.0925 25.2647 22.0518 25.2851C22.0314 25.3054 21.9907 25.3054 21.9704 25.3258C21.9296 25.3258 21.9093 25.3462 21.8685 25.3462C21.8278 25.3462 21.7871 25.3462 21.7463 25.3462C21.6852 25.3462 21.6038 25.3258 21.5427 25.3258C21.4612 25.3054 21.3797 25.2851 21.2983 25.2647C21.2168 25.2443 21.1354 25.2036 21.0335 25.1629C20.9521 25.1221 20.8502 25.0814 20.7484 25.0407C20.6262 24.9796 20.504 24.9185 20.3615 24.8574C20.2393 24.7963 20.0967 24.7148 19.9542 24.6334C19.8116 24.5519 19.669 24.4704 19.5265 24.389C19.3839 24.3075 19.2414 24.2057 19.0784 24.1242C19.669 23.5336 20.2189 22.9023 20.7281 22.2302C21.2372 21.5582 21.7056 20.8454 22.1129 20.1122C22.5202 19.3791 22.8664 18.6052 23.1719 17.8313C23.457 17.037 23.7014 16.2428 23.8643 15.4281C24.2309 13.5952 24.2106 11.8642 23.8643 10.3164C23.5385 8.80932 22.8868 7.46519 22.0111 6.38582C21.1354 5.32681 20.0356 4.49182 18.7526 3.98268C17.4899 3.47354 16.044 3.22916 14.4758 3.35135C13.4372 3.41245 12.4189 3.63647 11.4413 3.96232C10.4638 4.28817 9.50662 4.73621 8.59017 5.28608C7.67372 5.83595 6.81837 6.46728 6.00374 7.20044C5.18912 7.9336 4.45596 8.72786 3.7839 9.60358C3.60061 9.25736 3.45805 8.95188 3.33585 8.66676C3.21366 8.38165 3.1322 8.11689 3.0711 7.89287C3.01 7.66885 2.98964 7.46519 3.01 7.30227C3.03037 7.13935 3.0711 6.99679 3.17293 6.89496C3.19329 6.85423 3.23403 6.83386 3.29512 6.79313C3.33585 6.77277 3.39695 6.73203 3.45805 6.71167C3.51914 6.6913 3.58024 6.67094 3.6617 6.65057C3.74316 6.63021 3.82463 6.63021 3.90609 6.60984C3.98755 6.60984 4.08938 6.60984 4.19121 6.60984C4.29303 6.63021 4.39486 6.65057 4.49669 6.6913C4.59852 6.73203 4.70035 6.77277 4.80217 6.83386C4.904 6.89496 5.00583 6.97642 5.10766 7.07825C5.20949 6.95606 5.31131 6.83386 5.41314 6.73203C5.51497 6.60984 5.63716 6.50801 5.73899 6.40619C5.86118 6.30436 5.96301 6.20253 6.10557 6.1007C6.22776 5.99887 6.34996 5.91741 6.49252 5.81558C6.51288 5.81558 6.51288 5.79522 6.53325 5.79522C6.55361 5.79522 6.55361 5.77485 6.57398 5.77485C6.57398 5.77485 6.59434 5.75449 6.61471 5.75449C6.61471 5.75449 6.63508 5.73412 6.65544 5.73412C6.43142 5.53047 6.16667 5.34718 5.90192 5.20462C5.63716 5.06206 5.37241 4.96023 5.10766 4.87877C4.84291 4.79731 4.55779 4.73621 4.29304 4.71584C4.02828 4.69548 3.76353 4.67511 3.51914 4.69548C3.35622 4.71584 3.17293 4.73621 3.03037 4.75657C2.86745 4.7973 2.72489 4.83804 2.60269 4.87877C2.4805 4.9195 2.35831 4.9806 2.25648 5.04169C2.15465 5.10279 2.07319 5.16388 1.99173 5.24535C1.78807 5.46937 1.66588 5.75449 1.60478 6.12107C1.54368 6.46728 1.56405 6.89496 1.66588 7.36337C1.74734 7.83178 1.91026 8.36128 2.13428 8.93152C2.35831 9.50175 2.64342 10.1127 2.98964 10.7848C2.74525 11.1514 2.52123 11.5383 2.31757 11.9253C2.11392 12.3122 1.91026 12.6991 1.72697 13.1065C1.54368 13.5138 1.38076 13.9211 1.2382 14.3488C1.09564 14.7764 0.953082 15.2041 0.851254 15.6318C0.423577 17.2814 0.281018 18.8699 0.423577 20.3362C0.566136 21.8229 0.993813 23.1874 1.66588 24.3686C2.35831 25.5702 3.29512 26.5681 4.45596 27.3013C5.63716 28.0548 7.06275 28.5028 8.67163 28.6047C9.14004 28.625 9.62881 28.625 10.1176 28.5843C10.6064 28.5436 11.0951 28.4825 11.5635 28.3806C12.0523 28.2788 12.5411 28.1566 13.0095 27.9937C13.4983 27.8308 13.9667 27.6475 14.4351 27.4235L13.2946 25.2647C12.9688 25.4073 12.6226 25.5091 12.2967 25.6109C11.9505 25.7127 11.6246 25.7942 11.2784 25.8553C10.9322 25.9164 10.6064 25.9571 10.2601 25.9775C9.91393 25.9979 9.58808 25.9979 9.24187 25.9979C7.93847 25.9368 6.798 25.5906 5.84082 25C4.88364 24.4297 4.10974 23.6355 3.55987 22.6783C2.98964 21.7415 2.64342 20.6214 2.52123 19.4198C2.39904 18.2386 2.4805 16.9352 2.82671 15.5911C3.17293 14.2469 3.7228 12.9843 4.45596 11.8234C5.16875 10.6626 6.06484 9.62394 7.04239 8.72786C8.0403 7.83177 9.14004 7.09861 10.3212 6.56911C11.5024 6.0396 12.7447 5.69339 13.987 5.63229C15.2497 5.55083 16.4105 5.75449 17.4288 6.20253C18.4675 6.65057 19.3432 7.32264 20.0356 8.19836C20.7281 9.07407 21.2372 10.1535 21.4816 11.3754C21.726 12.6177 21.726 14.0025 21.4408 15.4689C21.3187 16.1206 21.115 16.7519 20.891 17.3629C20.667 17.9738 20.3818 18.5848 20.056 19.155C19.7301 19.7253 19.3839 20.2955 18.9766 20.825C18.5897 21.3545 18.1416 21.8433 17.6936 22.3117C17.6936 22.1488 17.7139 21.9858 17.7139 21.8433C17.7139 21.6804 17.7343 21.5174 17.7343 21.3749C17.7343 21.2323 17.7547 21.0898 17.7547 20.9676C17.7547 20.8454 17.7547 20.7639 17.7547 20.6824C17.7547 20.6214 17.7547 20.5603 17.7343 20.5195C17.7139 20.4788 17.7139 20.4584 17.6936 20.4177C17.6732 20.3973 17.6528 20.377 17.6325 20.377C17.6121 20.377 17.5918 20.3566 17.551 20.3566C17.5307 20.3566 17.5103 20.3566 17.4899 20.3566C17.4696 20.3566 17.4492 20.3566 17.4288 20.377C17.4085 20.377 17.4085 20.3973 17.3881 20.3973H17.3677L13.3761 21.7007C13.3761 21.7007 13.3353 21.7211 13.2946 21.7415C13.2539 21.7618 13.1928 21.8026 13.1521 21.8433C13.1113 21.884 13.0706 21.9655 13.0706 22.0469C13.0706 22.1284 13.091 22.2506 13.1521 22.3728C13.1521 22.3728 13.1521 22.3932 13.1724 22.3932C13.1724 22.3932 13.1724 22.4135 13.1928 22.4135C13.1928 22.4135 13.1928 22.4339 13.2132 22.4339C13.2132 22.4339 13.2132 22.4543 13.2335 22.4543C13.4168 22.8208 13.6612 23.3096 13.9667 23.8595C14.2518 24.4093 14.598 25.0407 14.9239 25.6516C15.2497 26.2626 15.5756 26.8736 15.8607 27.4031C16.1458 27.9326 16.3902 28.3603 16.5327 28.6454C16.5531 28.6658 16.5531 28.6861 16.5735 28.7065C16.5938 28.7268 16.5938 28.7472 16.6142 28.7676C16.6142 28.7879 16.6346 28.8083 16.6346 28.8287C16.6346 28.849 16.6549 28.849 16.6549 28.8694C16.6957 28.9305 16.7364 28.9916 16.7568 29.0527C16.7975 29.0934 16.8179 29.1342 16.8586 29.1749C16.8993 29.1953 16.9197 29.236 16.9604 29.236C16.9808 29.2564 17.0215 29.2564 17.0419 29.2564C17.0826 29.2564 17.1437 29.236 17.1844 29.2156C17.2252 29.1953 17.2659 29.1545 17.2863 29.0934C17.3066 29.0527 17.3474 28.9916 17.3474 28.9509C17.3677 28.9101 17.3677 28.849 17.3881 28.8287C17.3881 28.8083 17.3881 28.8083 17.3881 28.7879C17.3881 28.7676 17.3881 28.7472 17.3881 28.7268C17.3881 28.7065 17.3881 28.6658 17.3881 28.6454C17.3881 28.6047 17.3881 28.5843 17.3881 28.5436C17.3881 28.401 17.4085 28.2584 17.4085 28.0955C17.4085 27.9326 17.4288 27.7697 17.4288 27.6067C17.4288 27.4438 17.4492 27.3216 17.4492 27.2198C17.4492 27.118 17.4492 27.0569 17.4492 27.0365C17.9991 27.3624 18.5489 27.6882 19.0784 27.9733C19.6283 28.2788 20.1578 28.5436 20.667 28.7879C21.1761 29.0323 21.6649 29.236 22.1129 29.3785C22.561 29.5211 22.9886 29.6229 23.3552 29.6433C23.3959 29.6433 23.457 29.6433 23.4978 29.6433C23.5385 29.6433 23.5996 29.6433 23.6403 29.6433C23.6811 29.6433 23.7218 29.6433 23.7829 29.6229C23.8236 29.6229 23.8643 29.6026 23.9051 29.6026C23.9662 29.5822 24.0273 29.5822 24.0884 29.5618C24.1495 29.5415 24.2106 29.5211 24.2513 29.5007C24.3124 29.4804 24.3531 29.4396 24.3939 29.4193C24.4346 29.3785 24.4753 29.3378 24.516 29.2971C24.7808 29.0323 24.8826 28.6047 24.8826 28.0548C24.8826 27.5253 24.7604 26.8736 24.5364 26.1812V26.1404Z" fill="#FDC600"/>
<path d="M12.0939 15.1708V14.234H10.7701V9.10183H9.7926C9.38529 9.48877 8.93724 9.75353 8.44847 9.87572V10.8329C8.69286 10.7922 8.91688 10.7107 9.16126 10.5885C9.40565 10.4663 9.58894 10.3441 9.7315 10.2016V14.2136H8.06152V15.1504H12.0939V15.1708ZM17.0427 10.8533C17.0427 10.3034 16.8595 9.85535 16.4725 9.50914C16.0856 9.18329 15.5968 9 14.9858 9C14.3749 9 13.8657 9.16292 13.4991 9.48877C13.1122 9.81462 12.9289 10.2627 12.9289 10.8125V13.399C12.9289 13.9488 13.1122 14.3969 13.4991 14.7227C13.8861 15.0486 14.3749 15.2115 14.9858 15.2115C15.5968 15.2115 16.0856 15.0486 16.4725 14.7024C16.8595 14.3765 17.0427 13.9285 17.0427 13.3582V10.8125V10.8533ZM16.0041 13.3175C16.0041 13.6433 15.9226 13.8877 15.7393 14.071C15.5561 14.2543 15.3117 14.3358 15.0062 14.3358C14.6803 14.3358 14.4359 14.2543 14.273 14.071C14.0897 13.8877 14.0083 13.6433 14.0083 13.3175V10.894C14.0083 10.5681 14.0897 10.3238 14.273 10.1405C14.4563 9.95718 14.7007 9.87572 15.0265 9.87572C15.3524 9.87572 15.5968 9.95718 15.7801 10.1405C15.9634 10.3238 16.0448 10.5681 16.0448 10.894L16.0245 13.3175H16.0041Z" fill="#FDC600"/>
<path d="M9.26234 20.2572V15.6953H8.48845V19.1575L6.69628 15.6953H5.57617V20.2572H6.35006V16.7951L8.1626 20.2572H9.26234ZM10.8509 19.8295C10.8509 19.7073 10.8101 19.6259 10.7287 19.5648C10.6472 19.5037 10.5454 19.4833 10.4232 19.4833C10.301 19.4833 10.1992 19.524 10.1177 19.5648C10.0362 19.6259 9.9955 19.7073 9.9955 19.8295V19.9517C9.9955 20.0739 10.0362 20.1554 10.1177 20.2165C10.1992 20.2776 10.301 20.3183 10.4232 20.3183C10.5454 20.3183 10.6472 20.2776 10.7287 20.2165C10.8101 20.1554 10.8509 20.0739 10.8509 19.9517L10.8305 19.8295H10.8509ZM14.2723 19.0353H13.5595C13.5595 19.4629 13.3355 19.687 12.8874 19.687C12.4394 19.687 12.2153 19.4629 12.2153 18.9945V18.3225C12.2153 17.8744 12.4394 17.63 12.8874 17.63C13.3355 17.63 13.5595 17.8541 13.5595 18.2817H14.2723V18.2206C14.2723 17.8337 14.1501 17.5282 13.9057 17.3042C13.6613 17.1005 13.3151 16.9783 12.8874 16.9783C12.4597 16.9783 12.1339 17.0802 11.8691 17.3246C11.6247 17.5486 11.4822 17.8744 11.4822 18.2614V19.0556C11.4822 19.4426 11.6044 19.7684 11.8691 19.9721C12.1135 20.1961 12.4597 20.2979 12.8874 20.2979C13.3151 20.2979 13.6613 20.1961 13.9057 19.9721C14.1501 19.7481 14.2926 19.4426 14.2926 19.0556L14.2723 19.0149V19.0353ZM19.4044 20.2572V17.9763C19.4044 17.6708 19.3229 17.4264 19.16 17.2431C18.9971 17.0802 18.7731 16.9783 18.5083 16.9783C18.2436 16.9783 17.9992 17.0598 17.7751 17.2024L17.4289 17.4264C17.2864 17.1413 17.042 16.9987 16.655 16.9987C16.431 16.9987 16.1866 17.0598 15.983 17.2024L15.6979 17.3653V17.0191H14.9647V20.2368H15.6979V18.017L16.0848 17.7726C16.2477 17.6911 16.3699 17.6504 16.4718 17.6504C16.6958 17.6504 16.818 17.793 16.818 18.0577V20.2368H17.5511V18.017L17.9381 17.7726C18.101 17.6911 18.2232 17.6504 18.325 17.6504C18.549 17.6504 18.6712 17.793 18.6712 18.0374V20.2368H19.4248L19.4044 20.2572Z" fill="#FDC600"/>
<path d="M21.4815 11.6838C24.5567 11.6838 27.0617 9.19917 27.0617 6.1036C27.0617 3.0284 24.5771 0.523438 21.4815 0.523438C18.4063 0.523438 15.9014 3.00804 15.9014 6.1036C15.9014 9.1788 18.386 11.6838 21.4815 11.6838Z" fill="#FDC600"/>
<path d="M21.4815 11.6838C24.5567 11.6838 27.0617 9.19917 27.0617 6.1036C27.0617 3.0284 24.5771 0.523438 21.4815 0.523438C18.4063 0.523438 15.9014 3.00804 15.9014 6.1036C15.9014 9.1788 18.386 11.6838 21.4815 11.6838Z" stroke="white" stroke-width="1.1812"/>
<path d="M23.4578 9.28128V8.62958H20.7288L22.4599 6.87814C22.8265 6.51156 23.0912 6.16535 23.2338 5.85986C23.3763 5.55438 23.4578 5.2489 23.4578 4.92305C23.4578 4.41391 23.3152 4.0066 22.9894 3.72148C22.6839 3.416 22.2359 3.27344 21.6453 3.27344C21.0954 3.27344 20.6473 3.416 20.3011 3.70111C19.9549 3.98623 19.792 4.37318 19.792 4.86195V4.92305H20.4641C20.4641 4.57683 20.5659 4.33245 20.7695 4.16952C20.9732 4.0066 21.2583 3.90477 21.6249 3.90477C22.0118 3.90477 22.297 3.98623 22.4802 4.16952C22.6635 4.35281 22.7654 4.5972 22.7654 4.92305C22.7654 5.1878 22.7043 5.43219 22.5821 5.65621C22.4599 5.88023 22.2562 6.14498 21.9915 6.45047L19.8938 8.60922V9.26092H23.4374L23.4578 9.28128Z" fill="#FEFEFE"/>
</svg>
