<svg width="29" height="32" viewBox="0 0 29 32" fill="none" xmlns="http://www.w3.org/2000/svg">
<path d="M26.1933 27.9193C25.9728 27.1696 25.6421 26.3317 25.2672 25.4717C24.8923 24.6338 24.4513 23.7738 23.9662 22.9138C23.9 23.0241 23.8339 23.1343 23.7677 23.2446C23.7016 23.3548 23.6354 23.4651 23.5472 23.5753C23.4811 23.6856 23.3929 23.7958 23.3267 23.884C23.2385 23.9943 23.1724 24.0825 23.0842 24.1928C23.0842 24.1928 23.0842 24.2148 23.0621 24.2148C23.0621 24.2148 23.0621 24.2369 23.0401 24.2369L23.018 24.2589L22.996 24.281L22.9298 24.3692C22.996 24.5676 23.0842 24.7881 23.1724 25.0527C23.2606 25.2953 23.3708 25.582 23.459 25.8245C23.5472 26.0891 23.6134 26.3317 23.6354 26.5081C23.6575 26.7065 23.6575 26.8609 23.5913 26.9271C23.5693 26.9491 23.5472 26.9712 23.5031 26.9932C23.4811 27.0153 23.437 27.0153 23.4149 27.0373C23.3708 27.0373 23.3488 27.0594 23.3047 27.0594C23.2606 27.0594 23.2165 27.0594 23.1724 27.0594C23.1062 27.0594 23.018 27.0373 22.9519 27.0373C22.8637 27.0153 22.7755 26.9932 22.6873 26.9712C22.5991 26.9491 22.5108 26.905 22.4006 26.8609C22.3124 26.8168 22.2021 26.7727 22.0919 26.7286C21.9596 26.6624 21.8273 26.5963 21.6729 26.5301C21.5406 26.464 21.3863 26.3758 21.2319 26.2876C21.0775 26.1994 20.9232 26.1112 20.7688 26.023C20.6145 25.9348 20.4601 25.8245 20.2837 25.7363C20.9232 25.0968 21.5186 24.4133 22.0698 23.6856C22.6211 22.9579 23.1283 22.1861 23.5693 21.3923C24.0103 20.5985 24.3852 19.7606 24.7159 18.9226C25.0246 18.0626 25.2892 17.2027 25.4656 16.3206C25.8626 14.3361 25.8405 12.4618 25.4656 10.7859C25.1128 9.15415 24.4072 7.6988 23.459 6.53011C22.5108 5.38347 21.3201 4.47939 19.9309 3.92812C18.5638 3.37685 16.9982 3.11224 15.3002 3.24454C14.1757 3.31069 13.0731 3.55325 12.0147 3.90607C10.9562 4.25888 9.91986 4.74399 8.92758 5.33936C7.9353 5.93473 7.00916 6.61831 6.12713 7.41214C5.2451 8.20596 4.45128 9.06594 3.7236 10.0141C3.52514 9.63926 3.37079 9.3085 3.23848 8.99979C3.10618 8.69108 3.01798 8.40442 2.95183 8.16186C2.88567 7.9193 2.86362 7.6988 2.88567 7.52239C2.90772 7.34598 2.95182 7.19163 3.06208 7.08137C3.08413 7.03727 3.12823 7.01522 3.19438 6.97112C3.23848 6.94907 3.30464 6.90497 3.37079 6.88292C3.43694 6.86087 3.50309 6.83882 3.5913 6.81677C3.6795 6.79471 3.7677 6.79471 3.85591 6.77266C3.94411 6.77266 4.05436 6.77266 4.16462 6.77266C4.27487 6.79471 4.38512 6.81677 4.49538 6.86087C4.60563 6.90497 4.71589 6.94907 4.82614 7.01522C4.93639 7.08137 5.04665 7.16958 5.1569 7.27983C5.26715 7.14753 5.37741 7.01522 5.48766 6.90497C5.59792 6.77266 5.73022 6.66241 5.84047 6.55216C5.97278 6.4419 6.08303 6.33165 6.23739 6.22139C6.36969 6.11114 6.502 6.02294 6.65635 5.91268C6.6784 5.91268 6.6784 5.89063 6.70045 5.89063C6.7225 5.89063 6.7225 5.86858 6.74455 5.86858C6.74455 5.86858 6.76661 5.84653 6.78866 5.84653C6.78866 5.84653 6.81071 5.82448 6.83276 5.82448C6.5902 5.60397 6.30354 5.40552 6.01688 5.25116C5.73022 5.09681 5.44356 4.98655 5.1569 4.89835C4.87024 4.81015 4.56153 4.74399 4.27487 4.72194C3.98821 4.69989 3.70155 4.67784 3.43694 4.69989C3.26054 4.72194 3.06208 4.74399 2.90772 4.76604C2.73132 4.81015 2.57696 4.85425 2.44466 4.89835C2.31235 4.94245 2.18005 5.0086 2.06979 5.07476C1.95954 5.14091 1.87134 5.20706 1.78314 5.29526C1.56263 5.53782 1.43032 5.84653 1.36417 6.24345C1.29802 6.61831 1.32007 7.08137 1.43032 7.58854C1.51853 8.09571 1.69493 8.66903 1.93749 9.28645C2.18005 9.90387 2.48876 10.5654 2.86362 11.2931C2.59901 11.69 2.35645 12.1089 2.13595 12.5279C1.91544 12.9469 1.69493 13.3658 1.49648 13.8069C1.29802 14.2479 1.12161 14.6889 0.967257 15.152C0.812902 15.615 0.658547 16.0781 0.548293 16.5411C0.085227 18.3273 -0.0691283 20.0472 0.085227 21.6349C0.239582 23.2446 0.702648 24.722 1.43032 26.0009C2.18005 27.3019 3.19438 28.3824 4.45128 29.1762C5.73022 29.9921 7.27377 30.4772 9.01578 30.5875C9.52295 30.6095 10.0522 30.6095 10.5814 30.5654C11.1106 30.5213 11.6398 30.4552 12.147 30.3449C12.6762 30.2347 13.2054 30.1024 13.7126 29.926C14.2418 29.7495 14.749 29.5511 15.2561 29.3085L14.0213 26.9712C13.6685 27.1255 13.2936 27.2358 12.9408 27.346C12.566 27.4563 12.2131 27.5445 11.8383 27.6106C11.4634 27.6768 11.1106 27.7209 10.7357 27.7429C10.3609 27.765 10.0081 27.765 9.6332 27.765C8.22196 27.6988 6.98711 27.324 5.95073 26.6845C4.91434 26.0671 4.07641 25.2071 3.48104 24.1707C2.86362 23.1564 2.48876 21.9436 2.35645 20.6426C2.22415 19.3636 2.31235 17.9524 2.68722 16.497C3.06208 15.0417 3.65745 13.6746 4.45128 12.4177C5.22305 11.1608 6.19329 10.0362 7.25172 9.06594C8.33221 8.09571 9.52295 7.30188 10.8019 6.72856C12.0808 6.15524 13.4259 5.78038 14.771 5.71423C16.1382 5.62602 17.3951 5.84653 18.4976 6.33165C19.6222 6.81677 20.5704 7.54444 21.3201 8.49262C22.0698 9.4408 22.6211 10.6095 22.8857 11.9325C23.1503 13.2776 23.1503 14.7771 22.8416 16.3647C22.7093 17.0704 22.4888 17.7539 22.2462 18.4155C22.0037 19.077 21.695 19.7385 21.3422 20.3559C20.9893 20.9734 20.6145 21.5908 20.1735 22.1641C19.7545 22.7374 19.2694 23.2666 18.7843 23.7738C18.7843 23.5974 18.8063 23.421 18.8063 23.2666C18.8063 23.0902 18.8284 22.9138 18.8284 22.7595C18.8284 22.6051 18.8504 22.4507 18.8504 22.3184C18.8504 22.1861 18.8504 22.0979 18.8504 22.0097C18.8504 21.9436 18.8504 21.8774 18.8284 21.8333C18.8063 21.7892 18.8063 21.7672 18.7843 21.7231C18.7622 21.701 18.7402 21.679 18.7181 21.679C18.6961 21.679 18.674 21.6569 18.6299 21.6569C18.6079 21.6569 18.5858 21.6569 18.5638 21.6569C18.5417 21.6569 18.5197 21.6569 18.4976 21.679C18.4756 21.679 18.4756 21.701 18.4535 21.701H18.4315L14.1095 23.1123C14.1095 23.1123 14.0654 23.1343 14.0213 23.1564C13.9772 23.1784 13.911 23.2225 13.8669 23.2666C13.8228 23.3107 13.7787 23.3989 13.7787 23.4871C13.7787 23.5753 13.8008 23.7076 13.8669 23.8399C13.8669 23.8399 13.8669 23.862 13.889 23.862C13.889 23.862 13.889 23.884 13.911 23.884C13.911 23.884 13.9111 23.9061 13.9331 23.9061C13.9331 23.9061 13.9331 23.9282 13.9552 23.9282C14.1536 24.3251 14.4182 24.8543 14.749 25.4497C15.0577 26.045 15.4326 26.7286 15.7854 27.3901C16.1382 28.0516 16.491 28.7132 16.7997 29.2865C17.1084 29.8598 17.373 30.3229 17.5274 30.6316C17.5494 30.6536 17.5494 30.6757 17.5715 30.6977C17.5935 30.7198 17.5935 30.7418 17.6156 30.7639C17.6156 30.7859 17.6376 30.808 17.6376 30.83C17.6376 30.8521 17.6597 30.8521 17.6597 30.8741C17.7038 30.9403 17.7479 31.0064 17.7699 31.0726C17.814 31.1167 17.8361 31.1608 17.8802 31.2049C17.9243 31.227 17.9463 31.2711 17.9904 31.2711C18.0125 31.2931 18.0566 31.2931 18.0786 31.2931C18.1227 31.2931 18.1889 31.2711 18.233 31.249C18.2771 31.2269 18.3212 31.1828 18.3433 31.1167C18.3653 31.0726 18.4094 31.0064 18.4094 30.9623C18.4315 30.9182 18.4315 30.8521 18.4535 30.83C18.4535 30.808 18.4535 30.808 18.4535 30.7859C18.4535 30.7639 18.4535 30.7418 18.4535 30.7198C18.4535 30.6977 18.4535 30.6536 18.4535 30.6316C18.4535 30.5875 18.4535 30.5654 18.4535 30.5213C18.4535 30.367 18.4756 30.2126 18.4756 30.0362C18.4756 29.8598 18.4976 29.6834 18.4976 29.507C18.4976 29.3306 18.5197 29.1983 18.5197 29.088C18.5197 28.9778 18.5197 28.9116 18.5197 28.8896C19.115 29.2424 19.7104 29.5952 20.2837 29.9039C20.8791 30.2347 21.4524 30.5213 22.0037 30.7859C22.5549 31.0505 23.0842 31.2711 23.5693 31.4254C24.0544 31.5798 24.5175 31.69 24.9144 31.7121C24.9585 31.7121 25.0246 31.7121 25.0687 31.7121C25.1128 31.7121 25.179 31.7121 25.2231 31.7121C25.2672 31.7121 25.3113 31.7121 25.3774 31.69C25.4215 31.69 25.4656 31.668 25.5097 31.668C25.5759 31.6459 25.6421 31.6459 25.7082 31.6239C25.7744 31.6018 25.8405 31.5798 25.8846 31.5577C25.9508 31.5357 25.9949 31.4916 26.039 31.4695C26.0831 31.4254 26.1272 31.3813 26.1713 31.3372C26.4579 31.0505 26.5682 30.5875 26.5682 29.9921C26.5682 29.4188 26.4359 28.7132 26.1933 27.9634V27.9193Z" fill="#FDC600"/>
<path d="M12.7215 16.0408V15.0264H11.2882V9.46963H10.2298C9.78877 9.88859 9.30365 10.1753 8.77443 10.3076V11.3439C9.03904 11.2998 9.2816 11.2116 9.54621 11.0793C9.81082 10.947 10.0093 10.8147 10.1636 10.6604V15.0044H8.35547V16.0187H12.7215V16.0408ZM18.0799 11.366C18.0799 10.7706 17.8814 10.2855 17.4624 9.91064C17.0435 9.55783 16.5142 9.35938 15.8527 9.35938C15.1912 9.35938 14.6399 9.53578 14.243 9.88859C13.8241 10.2414 13.6256 10.7265 13.6256 11.3219V14.1223C13.6256 14.7177 13.8241 15.2028 14.243 15.5556C14.662 15.9084 15.1912 16.0849 15.8527 16.0849C16.5142 16.0849 17.0435 15.9084 17.4624 15.5336C17.8814 15.1808 18.0799 14.6957 18.0799 14.0782V11.3219V11.366ZM16.9553 14.0341C16.9553 14.3869 16.8671 14.6516 16.6686 14.85C16.4701 15.0485 16.2055 15.1367 15.8748 15.1367C15.522 15.1367 15.2574 15.0485 15.081 14.85C14.8825 14.6516 14.7943 14.3869 14.7943 14.0341V11.4101C14.7943 11.0573 14.8825 10.7927 15.081 10.5942C15.2794 10.3958 15.544 10.3076 15.8968 10.3076C16.2496 10.3076 16.5142 10.3958 16.7127 10.5942C16.9112 10.7927 16.9994 11.0573 16.9994 11.4101L16.9773 14.0341H16.9553Z" fill="#FDC600"/>
<path d="M9.65525 21.5487V16.6094H8.81732V20.358L6.87685 16.6094H5.66406V21.5487H6.50199V17.8001L8.46451 21.5487H9.65525ZM11.3752 21.0857C11.3752 20.9534 11.3311 20.8652 11.2429 20.799C11.1547 20.7329 11.0444 20.7108 10.9121 20.7108C10.7798 20.7108 10.6696 20.7549 10.5814 20.799C10.4932 20.8652 10.4491 20.9534 10.4491 21.0857V21.218C10.4491 21.3503 10.4932 21.4385 10.5814 21.5046C10.6696 21.5708 10.7798 21.6149 10.9121 21.6149C11.0444 21.6149 11.1547 21.5708 11.2429 21.5046C11.3311 21.4385 11.3752 21.3503 11.3752 21.218L11.3532 21.0857H11.3752ZM15.0797 20.2257H14.308C14.308 20.6888 14.0654 20.9313 13.5803 20.9313C13.0952 20.9313 12.8526 20.6888 12.8526 20.1816V19.4539C12.8526 18.9688 13.0952 18.7042 13.5803 18.7042C14.0654 18.7042 14.308 18.9468 14.308 19.4098H15.0797V19.3437C15.0797 18.9247 14.9474 18.5939 14.6828 18.3514C14.4182 18.1309 14.0433 17.9986 13.5803 17.9986C13.1172 17.9986 12.7644 18.1088 12.4777 18.3734C12.2131 18.616 12.0588 18.9688 12.0588 19.3878V20.2478C12.0588 20.6667 12.1911 21.0195 12.4777 21.24C12.7424 21.4826 13.1172 21.5928 13.5803 21.5928C14.0433 21.5928 14.4182 21.4826 14.6828 21.24C14.9474 20.9975 15.1018 20.6667 15.1018 20.2478L15.0797 20.2036V20.2257ZM20.6365 21.5487V19.0791C20.6365 18.7483 20.5483 18.4837 20.3719 18.2852C20.1955 18.1088 19.953 17.9986 19.6663 17.9986C19.3796 17.9986 19.115 18.0868 18.8725 18.2411L18.4976 18.4837C18.3432 18.175 18.0786 18.0206 17.6597 18.0206C17.4171 18.0206 17.1525 18.0868 16.932 18.2411L16.6233 18.4175V18.0427H15.8295V21.5267H16.6233V19.1232L17.0423 18.8586C17.2187 18.7703 17.351 18.7262 17.4612 18.7262C17.7038 18.7262 17.8361 18.8806 17.8361 19.1673V21.5267H18.6299V19.1232L19.0489 18.8586C19.2253 18.7703 19.3576 18.7262 19.4678 18.7262C19.7104 18.7262 19.8427 18.8806 19.8427 19.1452V21.5267H20.6586L20.6365 21.5487Z" fill="#FDC600"/>
<path d="M22.8857 12.2635C26.2153 12.2635 28.9276 9.57331 28.9276 6.2216C28.9276 2.89193 26.2374 0.179688 22.8857 0.179688C19.556 0.179688 16.8438 2.86988 16.8438 6.2216C16.8438 9.55126 19.5339 12.2635 22.8857 12.2635Z" fill="#FDC600"/>
<path d="M22.8857 12.2635C26.2153 12.2635 28.9276 9.57331 28.9276 6.2216C28.9276 2.89193 26.2374 0.179688 22.8857 0.179688C19.556 0.179688 16.8438 2.86988 16.8438 6.2216C16.8438 9.55126 19.5339 12.2635 22.8857 12.2635Z" stroke="white" stroke-width="1.27894"/>
<path d="M25.0258 9.66122V8.9556H22.071L23.9453 7.05923C24.3422 6.66232 24.6289 6.28746 24.7832 5.9567C24.9376 5.62593 25.0258 5.29517 25.0258 4.94236C25.0258 4.39109 24.8714 3.95008 24.5186 3.64137C24.1878 3.31061 23.7027 3.15625 23.0633 3.15625C22.4679 3.15625 21.9828 3.31061 21.6079 3.61932C21.233 3.92803 21.0566 4.34699 21.0566 4.87621V4.94236H21.7843C21.7843 4.5675 21.8946 4.30289 22.1151 4.12648C22.3356 3.95008 22.6443 3.83982 23.0412 3.83982C23.4602 3.83982 23.7689 3.92803 23.9673 4.12648C24.1658 4.32494 24.2761 4.58955 24.2761 4.94236C24.2761 5.22902 24.2099 5.49363 24.0776 5.73619C23.9453 5.97875 23.7248 6.26541 23.4381 6.59617L21.1669 8.93355V9.63917H25.0037L25.0258 9.66122Z" fill="#FEFEFE"/>
</svg>
