<svg width="17" height="17" viewBox="0 0 17 17" fill="none" xmlns="http://www.w3.org/2000/svg">
<path d="M8.16573 16.3217C12.5604 16.3217 16.0336 12.7776 16.0336 8.45382C16.0336 4.05915 12.4895 0.585938 8.16573 0.585938C3.77106 0.585938 0.297852 4.13003 0.297852 8.45382C0.297852 12.8485 3.84194 16.3217 8.16573 16.3217Z" fill="#FDC600"/>
<path d="M8.30752 9.02195C8.80369 9.02195 9.22898 9.16371 9.51251 9.44724C9.79604 9.73077 9.9378 10.0852 9.9378 10.5813C9.9378 11.0775 9.79604 11.5028 9.44163 11.7863C9.08722 12.0699 8.73281 12.2116 8.16576 12.2116C7.5987 12.2116 7.17341 12.0699 6.819 11.8572C6.53548 11.5737 6.32283 11.2193 6.32283 10.7231H5.40137V10.794C5.40137 11.5028 5.68489 12.0699 6.18107 12.4243C6.67724 12.8496 7.31518 12.9913 8.16576 12.9913C8.87458 12.9913 9.51251 12.7787 10.0796 12.3534C10.6466 11.9281 10.8593 11.2902 10.8593 10.5105C10.8593 10.2269 10.7884 9.94341 10.7175 9.73077C10.6466 9.51812 10.5049 9.30548 10.434 9.16371C10.2922 9.02195 10.1504 8.88018 10.0087 8.8093C9.86692 8.73842 9.79604 8.66754 9.72516 8.59666C9.65427 8.59666 9.65427 8.52578 9.58339 8.52578L9.72516 8.45489C9.79604 8.45489 9.9378 8.38401 10.0087 8.24225C10.1504 8.17137 10.2213 8.0296 10.3631 7.88784C10.5049 7.74608 10.5757 7.60431 10.6466 7.32079C10.7175 7.10814 10.7884 6.82461 10.7884 6.61197C10.7884 5.97403 10.5757 5.40698 10.0796 4.98169C9.58339 4.5564 9.01634 4.34375 8.16576 4.34375C7.38606 4.34375 6.819 4.5564 6.32283 4.9108C5.82666 5.26521 5.61401 5.83227 5.61401 6.4702V6.54109H6.53548C6.53548 6.11579 6.67724 5.76139 6.96077 5.54874C7.24429 5.33609 7.66958 5.19433 8.16576 5.19433C8.73281 5.19433 9.08722 5.33609 9.37075 5.54874C9.65427 5.83227 9.79604 6.11579 9.79604 6.54109C9.79604 7.03726 9.65427 7.39167 9.37075 7.67519C9.08722 7.95872 8.73281 8.10049 8.23664 8.10049H6.96077V8.95107H8.30752V9.02195Z" fill="#FEFEFE"/>
</svg>
