<svg width="16" height="17" viewBox="0 0 16 17" fill="none" xmlns="http://www.w3.org/2000/svg">
<path d="M7.86104 16.2358C12.2557 16.2358 15.7289 12.6917 15.7289 8.36788C15.7289 3.97321 12.1848 0.5 7.86104 0.5C3.46637 0.5 -0.00683594 4.04409 -0.00683594 8.36788C-0.00683594 12.7626 3.53725 16.2358 7.86104 16.2358Z" fill="#FDC600"/>
<path d="M8.00283 8.93601C8.49901 8.93601 8.9243 9.07777 9.20782 9.3613C9.49135 9.64483 9.63311 9.99924 9.63311 10.4954C9.63311 10.9916 9.49135 11.4169 9.13694 11.7004C8.78253 11.9839 8.42812 12.1257 7.86107 12.1257C7.29402 12.1257 6.86872 11.9839 6.51432 11.7713C6.23079 11.4878 6.01814 11.1333 6.01814 10.6372H5.09668V10.7081C5.09668 11.4169 5.38021 11.9839 5.87638 12.3383C6.37255 12.7636 7.01049 12.9054 7.86107 12.9054C8.56989 12.9054 9.20782 12.6927 9.77488 12.2675C10.3419 11.8422 10.5546 11.2042 10.5546 10.4245C10.5546 10.141 10.4837 9.85747 10.4128 9.64483C10.3419 9.43218 10.2002 9.21954 10.1293 9.07777C9.98752 8.93601 9.84576 8.79425 9.704 8.72337C9.56223 8.65248 9.49135 8.5816 9.42047 8.51072C9.34959 8.51072 9.34959 8.43984 9.27871 8.43984L9.42047 8.36896C9.49135 8.36896 9.63311 8.29807 9.704 8.15631C9.84576 8.08543 9.91664 7.94367 10.0584 7.8019C10.2002 7.66014 10.2711 7.51837 10.3419 7.23485C10.4128 7.0222 10.4837 6.73868 10.4837 6.52603C10.4837 5.88809 10.2711 5.32104 9.77488 4.89575C9.27871 4.47046 8.71165 4.25781 7.86107 4.25781C7.08137 4.25781 6.51432 4.47046 6.01814 4.82487C5.52197 5.17928 5.30932 5.74633 5.30932 6.38427V6.45515H6.23079C6.23079 6.02986 6.37255 5.67545 6.65608 5.4628C6.93961 5.25016 7.3649 5.10839 7.86107 5.10839C8.42812 5.10839 8.78253 5.25016 9.06606 5.4628C9.34959 5.74633 9.49135 6.02986 9.49135 6.45515C9.49135 6.95132 9.34959 7.30573 9.06606 7.58926C8.78253 7.87278 8.42812 8.01455 7.93195 8.01455H6.65608V8.86513H8.00283V8.93601Z" fill="#FEFEFE"/>
</svg>
