<svg width="17" height="17" viewBox="0 0 17 17" fill="none" xmlns="http://www.w3.org/2000/svg">
<path d="M8.66573 16.4311C13.0604 16.4311 16.5336 12.887 16.5336 8.56319C16.5336 4.16852 12.9895 0.695312 8.66573 0.695312C4.27106 0.695312 0.797852 4.2394 0.797852 8.56319C0.797852 12.9579 4.34194 16.4311 8.66573 16.4311Z" fill="#FDC600"/>
<path d="M8.80752 9.13132C9.30369 9.13132 9.72898 9.27309 10.0125 9.55661C10.296 9.84014 10.4378 10.1946 10.4378 10.6907C10.4378 11.1869 10.296 11.6122 9.94163 11.8957C9.58722 12.1792 9.23281 12.321 8.66576 12.321C8.0987 12.321 7.67341 12.1792 7.319 11.9666C7.03548 11.6831 6.82283 11.3287 6.82283 10.8325H5.90137V10.9034C5.90137 11.6122 6.18489 12.1792 6.68107 12.5336C7.17724 12.9589 7.81518 13.1007 8.66576 13.1007C9.37458 13.1007 10.0125 12.8881 10.5796 12.4628C11.1466 12.0375 11.3593 11.3995 11.3593 10.6198C11.3593 10.3363 11.2884 10.0528 11.2175 9.84014C11.1466 9.6275 11.0049 9.41485 10.934 9.27309C10.7922 9.13132 10.6504 8.98956 10.5087 8.91868C10.3669 8.8478 10.296 8.77691 10.2252 8.70603C10.1543 8.70603 10.1543 8.63515 10.0834 8.63515L10.2252 8.56427C10.296 8.56427 10.4378 8.49339 10.5087 8.35162C10.6504 8.28074 10.7213 8.13898 10.8631 7.99721C11.0049 7.85545 11.0757 7.71369 11.1466 7.43016C11.2175 7.21751 11.2884 6.93399 11.2884 6.72134C11.2884 6.08341 11.0757 5.51635 10.5796 5.09106C10.0834 4.66577 9.51634 4.45312 8.66576 4.45312C7.88606 4.45312 7.319 4.66577 6.82283 5.02018C6.32666 5.37459 6.11401 5.94164 6.11401 6.57958V6.65046H7.03548C7.03548 6.22517 7.17724 5.87076 7.46077 5.65812C7.74429 5.44547 8.16958 5.30371 8.66576 5.30371C9.23281 5.30371 9.58722 5.44547 9.87075 5.65812C10.1543 5.94164 10.296 6.22517 10.296 6.65046C10.296 7.14663 10.1543 7.50104 9.87075 7.78457C9.58722 8.0681 9.23281 8.20986 8.73664 8.20986H7.46077V9.06044H8.80752V9.13132Z" fill="#FEFEFE"/>
</svg>
