<svg width="26" height="29" viewBox="0 0 26 29" fill="none" xmlns="http://www.w3.org/2000/svg">
<path d="M23.5615 25.3284C23.3466 24.6569 23.078 23.9048 22.7288 23.1528C22.3797 22.4007 22.0036 21.6218 21.5739 20.8697C21.5202 20.9772 21.4665 21.0846 21.3859 21.1652C21.3322 21.2726 21.2516 21.3532 21.1979 21.4606C21.1441 21.5681 21.0636 21.6487 20.983 21.7561C20.9024 21.8635 20.8487 21.9441 20.7681 22.0247C20.7681 22.0247 20.7681 22.0247 20.7413 22.0515C20.7413 22.0515 20.7413 22.0515 20.7144 22.0784C20.7144 22.0784 20.7144 22.0784 20.6875 22.1053C20.6875 22.1053 20.6875 22.1053 20.6607 22.1321L20.607 22.2127C20.6607 22.3739 20.7413 22.5887 20.8218 22.8305C20.9024 23.0453 20.983 23.2871 21.0636 23.5288C21.1441 23.7437 21.1979 23.9854 21.2247 24.1466C21.2516 24.3346 21.2516 24.4689 21.171 24.5226C21.1441 24.5494 21.1173 24.5763 21.0904 24.5763C21.0636 24.6032 21.0367 24.6032 21.0099 24.6032C20.983 24.6032 20.9561 24.63 20.9024 24.63C20.8756 24.63 20.8218 24.63 20.795 24.63C20.7413 24.63 20.6607 24.63 20.607 24.6032C20.5264 24.5763 20.4458 24.5763 20.3921 24.5494C20.3115 24.5226 20.2309 24.4957 20.1504 24.4689C20.0698 24.442 19.9623 24.3883 19.8818 24.3346C19.7743 24.2809 19.64 24.2271 19.5057 24.1466C19.3714 24.066 19.2371 24.0123 19.1029 23.9317C18.9686 23.8511 18.8343 23.7705 18.7 23.69C18.5657 23.6094 18.4045 23.5019 18.2702 23.4214C18.8343 22.8573 19.3714 22.2396 19.8818 21.5949C20.3652 20.9503 20.8218 20.252 21.2247 19.5536C21.6276 18.8284 21.9768 18.1032 22.2454 17.3243C22.5408 16.5723 22.7557 15.7934 22.9169 14.9876C23.266 13.2149 23.2392 11.5227 22.9169 10.0455C22.5945 8.56824 21.9768 7.279 21.1173 6.23149C20.2847 5.21084 19.2103 4.40507 17.9479 3.89475C16.7124 3.38442 15.3157 3.16955 13.8116 3.27698C12.8178 3.35756 11.824 3.54558 10.8571 3.86789C9.91702 4.1902 8.97694 4.61994 8.09059 5.15713C7.20424 5.69431 6.3716 6.31207 5.59269 7.01041C4.81377 7.70875 4.08858 8.48766 3.44396 9.34716C3.25594 9.02485 3.12165 8.70254 3.01421 8.43395C2.90677 8.16535 2.82619 7.89676 2.77248 7.68189C2.71876 7.46702 2.6919 7.25214 2.71876 7.09099C2.74562 6.92983 2.79933 6.79554 2.87991 6.6881C2.90677 6.66124 2.93363 6.63438 2.98735 6.60752C3.04107 6.58066 3.09479 6.5538 3.1485 6.52694C3.20222 6.50009 3.2828 6.47323 3.33652 6.47323C3.4171 6.44637 3.49767 6.44637 3.57825 6.44637C3.65883 6.44637 3.76627 6.44637 3.84684 6.44637C3.95428 6.47323 4.03486 6.47323 4.14229 6.52694C4.24973 6.5538 4.33031 6.60752 4.43774 6.66124C4.54518 6.71496 4.65262 6.79554 4.7332 6.90297C4.84063 6.79554 4.92121 6.66124 5.02865 6.5538C5.13608 6.44637 5.24352 6.33893 5.35096 6.23149C5.45839 6.12406 5.56583 6.04348 5.70013 5.93604C5.80756 5.82861 5.94186 5.74803 6.07615 5.66745L6.10301 5.64059L6.12987 5.61373L6.15673 5.58687C6.15673 5.58687 6.18359 5.58687 6.18359 5.56001C5.96872 5.372 5.72698 5.18399 5.45839 5.04969C5.21666 4.91539 4.94807 4.80796 4.67948 4.72738C4.41089 4.6468 4.14229 4.59308 3.90056 4.56622C3.63197 4.53937 3.39024 4.53937 3.1485 4.53937C2.98735 4.53937 2.82619 4.56622 2.66504 4.59308C2.50388 4.61994 2.36959 4.67366 2.23529 4.70052C2.101 4.75424 1.99356 4.80796 1.88612 4.86168C1.77869 4.91539 1.69811 4.99597 1.64439 5.04969C1.45638 5.26456 1.32208 5.56001 1.26836 5.88232C1.21464 6.23149 1.2415 6.63438 1.32208 7.09099C1.40266 7.54759 1.56381 8.05792 1.77869 8.5951C1.99356 9.15914 2.26215 9.75004 2.61132 10.3947C2.36959 10.7438 2.15471 11.1199 1.9667 11.4959C1.75183 11.8719 1.56381 12.2479 1.40266 12.6508C1.21464 13.0537 1.08035 13.4298 0.919193 13.8595C0.784897 14.2624 0.650601 14.6921 0.543165 15.095C0.113418 16.7066 0.00598109 18.2375 0.140277 19.6611C0.274573 21.1115 0.70432 22.4276 1.34894 23.5825C2.02042 24.7375 2.93363 25.7044 4.06172 26.4296C5.21666 27.1548 6.58648 27.6114 8.14431 27.692C8.60092 27.7188 9.08438 27.7188 9.54099 27.692C10.0245 27.6651 10.4811 27.5845 10.9645 27.504C11.448 27.3965 11.9046 27.2891 12.3612 27.1279C12.8178 26.9668 13.3013 26.7788 13.7579 26.5907L12.6567 24.4957C12.3343 24.63 12.012 24.7375 11.6897 24.8449C11.3674 24.9523 11.0451 25.0061 10.6959 25.0866C10.3736 25.1403 10.0513 25.1941 9.70214 25.2209C9.37983 25.2478 9.05752 25.2478 8.73521 25.2209C7.47283 25.1672 6.3716 24.818 5.43153 24.254C4.51832 23.69 3.76626 22.911 3.20222 21.9978C2.66504 21.0846 2.31587 20.0102 2.18157 18.8553C2.04728 17.7004 2.15471 16.438 2.47702 15.1487C2.79934 13.8595 3.36338 12.624 4.06172 11.4959C4.76005 10.3678 5.61955 9.37402 6.58648 8.51452C7.55341 7.65503 8.62778 6.92983 9.75586 6.41951C10.8839 5.90918 12.0926 5.56001 13.3281 5.5063C14.5637 5.42572 15.6917 5.64059 16.6855 6.04348C17.6793 6.47323 18.5388 7.11785 19.2103 7.97734C19.8818 8.83683 20.3652 9.88434 20.607 11.0661C20.8487 12.2748 20.8487 13.6178 20.5532 15.0413C20.419 15.6591 20.2578 16.2768 20.0161 16.8946C19.8012 17.4855 19.5326 18.0764 19.2103 18.6404C18.888 19.2045 18.5388 19.7417 18.1628 20.252C17.7868 20.7623 17.357 21.2458 16.9273 21.7024C16.9273 21.5412 16.9541 21.4069 16.9541 21.2458C16.9541 21.0846 16.981 20.9235 16.981 20.7892C16.981 20.6549 16.981 20.5206 17.0078 20.3863C17.0078 20.2788 17.0078 20.1714 17.0078 20.1177C17.0078 20.064 17.0078 20.0102 16.981 19.9565C16.981 19.9297 16.9541 19.876 16.9273 19.876C16.9004 19.8491 16.9004 19.8491 16.8735 19.8222C16.8467 19.8222 16.8198 19.7954 16.793 19.7954C16.7661 19.7954 16.7392 19.7954 16.7392 19.7954C16.7124 19.7954 16.7124 19.7954 16.6855 19.8222C16.6587 19.8222 16.6587 19.8222 16.6587 19.8491H16.6318L12.7641 21.1115C12.7641 21.1115 12.7372 21.1115 12.6835 21.1383C12.6298 21.1652 12.5761 21.1921 12.5492 21.2458C12.4955 21.2995 12.4686 21.3532 12.4686 21.4338C12.4686 21.5144 12.4686 21.6218 12.5492 21.7561V21.783V21.8098V21.8367V21.8635C12.7104 22.2127 12.979 22.6962 13.2476 23.2333C13.543 23.7705 13.8653 24.3883 14.1876 24.9792C14.5099 25.5701 14.8322 26.161 15.1008 26.6713C15.3694 27.1816 15.6112 27.6114 15.7455 27.88C15.7455 27.9068 15.7723 27.9337 15.7723 27.9337C15.7723 27.9606 15.7992 27.9874 15.7992 27.9874C15.7992 28.0143 15.826 28.0143 15.826 28.0411C15.826 28.068 15.8529 28.068 15.8529 28.0949C15.8798 28.1754 15.9335 28.2292 15.9603 28.256C15.9872 28.3097 16.0409 28.3366 16.0678 28.3634C16.0946 28.3903 16.1215 28.4172 16.1483 28.444C16.1752 28.4709 16.2021 28.4709 16.2289 28.4709C16.2826 28.4709 16.3095 28.4709 16.3632 28.444C16.3901 28.4172 16.4438 28.3634 16.4707 28.3366C16.4975 28.2829 16.5244 28.256 16.5512 28.2023C16.5781 28.1486 16.5781 28.1217 16.5781 28.068C16.5781 28.068 16.5781 28.0411 16.5781 28.0143C16.5781 27.9874 16.5781 27.9606 16.5781 27.9606C16.5781 27.9337 16.5781 27.9068 16.5781 27.88C16.5781 27.8531 16.5781 27.8263 16.5781 27.7725C16.5781 27.6383 16.6049 27.504 16.6049 27.3428C16.6049 27.1816 16.6318 27.0205 16.6318 26.8593C16.6318 26.6982 16.6587 26.5639 16.6587 26.4833C16.6587 26.3759 16.6587 26.3222 16.6587 26.2953C17.1959 26.6176 17.733 26.9131 18.2434 27.2085C18.7805 27.504 19.2909 27.7725 19.7743 27.9874C20.2578 28.2292 20.7413 28.4172 21.171 28.5515C21.6008 28.6858 22.0036 28.7932 22.3528 28.7932C22.4065 28.7932 22.4603 28.7932 22.4871 28.7932C22.5408 28.7932 22.5677 28.7932 22.6214 28.7932C22.6751 28.7932 22.702 28.7932 22.7557 28.7932C22.8094 28.7932 22.8363 28.7932 22.89 28.7663C22.9437 28.7663 22.9974 28.7395 23.078 28.7126C23.1317 28.6858 23.1854 28.6589 23.2392 28.632C23.2929 28.6052 23.3466 28.5783 23.3735 28.5515C23.4272 28.5246 23.454 28.4709 23.5078 28.444C23.7495 28.1754 23.8569 27.7725 23.8569 27.2354C23.8569 26.725 23.7226 26.1073 23.5346 25.4089L23.5615 25.3284Z" fill="#FDC600"/>
<path d="M9.62089 12.0874C9.88948 12.0874 10.1312 12.168 10.2924 12.3291C10.4535 12.4903 10.5341 12.7051 10.5341 12.9737C10.5341 13.2692 10.4535 13.4841 10.2655 13.6452C10.0775 13.8064 9.83576 13.8869 9.56717 13.8869C8.89569 13.8869 8.54652 13.5915 8.54652 13.0006H7.55273V13.0812C7.55273 13.6184 7.74075 14.0212 8.08992 14.3167C8.46595 14.6121 8.94941 14.7464 9.56717 14.7464C10.1312 14.7464 10.6147 14.5853 10.9907 14.2898C11.3936 13.9675 11.5816 13.5378 11.5816 12.9737C11.5816 12.7857 11.5548 12.5977 11.4742 12.4365C11.4205 12.2754 11.3399 12.1411 11.2862 12.0337C11.2056 11.9531 11.125 11.8456 11.0444 11.7919C10.937 11.7114 10.8833 11.6845 10.8296 11.6576C10.7758 11.6308 10.749 11.6308 10.7221 11.6308L10.8027 11.6039C10.8564 11.5771 10.9101 11.5233 10.9907 11.4696C11.0713 11.389 11.125 11.3085 11.2056 11.2279C11.2862 11.1473 11.3399 11.013 11.3936 10.8519C11.4473 10.6907 11.4742 10.5295 11.4742 10.3684C11.4742 9.85807 11.313 9.48204 10.9638 9.18659C10.6147 8.89114 10.1581 8.75684 9.56717 8.75684C9.00313 8.75684 8.51966 8.89114 8.1705 9.18659C7.82133 9.48204 7.63331 9.85807 7.63331 10.3684V10.4221H8.60024C8.60024 10.1535 8.68082 9.93865 8.84197 9.80435C9.00313 9.67006 9.24486 9.58948 9.54031 9.58948C9.86262 9.58948 10.0775 9.67006 10.2387 9.80435C10.3998 9.93865 10.4804 10.1535 10.4804 10.3953C10.4804 10.6638 10.3998 10.8787 10.2387 11.0399C10.0775 11.201 9.86262 11.2816 9.59403 11.2816H8.60024V12.1411L9.64775 12.168L9.62089 12.0874ZM16.094 14.639V13.7258H13.6766L15.0733 12.356C15.4493 11.9799 15.7179 11.6576 15.8522 11.3622C16.0134 11.0399 16.0671 10.7444 16.0671 10.4221C16.0671 9.88493 15.9059 9.48204 15.5568 9.15973C15.2345 8.86428 14.751 8.70312 14.1601 8.70312C13.5692 8.70312 13.0857 8.86428 12.7366 9.15973C12.3874 9.45518 12.1994 9.88493 12.1994 10.4221V10.4758H13.1932C13.1932 9.88493 13.5155 9.58948 14.1332 9.58948C14.7241 9.58948 15.0196 9.88493 15.0196 10.449C15.0196 10.6638 14.9659 10.8787 14.8584 11.0936C14.751 11.3085 14.5898 11.5233 14.3481 11.7651L12.3068 13.7526V14.6659H16.0671L16.094 14.639Z" fill="#FDC600"/>
<path d="M8.97657 19.608V15.2031H8.22451V18.5605L6.47866 15.2031H5.4043V19.608H6.15635V16.2506L7.92906 19.608H9.00343H8.97657ZM10.3732 19.2051C10.3732 19.0977 10.3464 19.0171 10.2658 18.9365C10.1852 18.8828 10.0778 18.856 9.97036 18.856C9.86292 18.856 9.75548 18.8828 9.6749 18.9365C9.59433 18.9903 9.56747 19.0708 9.56747 19.2051V19.3394C9.56747 19.4469 9.62119 19.5275 9.6749 19.608C9.75548 19.6617 9.86292 19.6886 9.97036 19.6886C10.1047 19.6886 10.1852 19.6617 10.2658 19.608C10.3464 19.5543 10.3732 19.4737 10.3732 19.3394V19.2051ZM13.5426 18.4262H12.8443C12.8443 18.8291 12.6294 19.044 12.1728 19.044C11.7431 19.044 11.5282 18.8291 11.5282 18.3725V17.7279C11.5282 17.2713 11.7431 17.0564 12.1728 17.0564C12.6026 17.0564 12.8443 17.2713 12.8443 17.6742H13.5426V17.6205C13.5426 17.2444 13.4352 16.949 13.1666 16.7341C12.9249 16.5192 12.6026 16.4118 12.1728 16.4118C11.7699 16.4118 11.4476 16.5192 11.2059 16.7341C10.9641 16.949 10.8298 17.2444 10.8298 17.6473V18.4262C10.8298 18.8023 10.9641 19.0977 11.2059 19.3126C11.4476 19.5275 11.7699 19.6349 12.1728 19.6349C12.5757 19.6349 12.9249 19.5275 13.1666 19.3394C13.4083 19.1246 13.5426 18.8291 13.5426 18.4531V18.3994V18.4262ZM18.3773 19.608V17.4056C18.3773 17.1101 18.2967 16.8684 18.1355 16.7072C17.9744 16.5461 17.7595 16.4655 17.4909 16.4655C17.2492 16.4655 17.0075 16.5461 16.7657 16.6804L16.4166 16.8953C16.2823 16.6267 16.0405 16.4655 15.6645 16.4655C15.4496 16.4655 15.2079 16.5192 15.0199 16.6535L14.7513 16.8147V16.4924H14.0529V19.608H14.7781V17.4593L15.1542 17.2176C15.3153 17.137 15.4228 17.1101 15.5302 17.1101C15.7451 17.1101 15.8525 17.2444 15.8525 17.4862V19.608H16.5777V17.4593L16.9537 17.2176C17.1149 17.137 17.2223 17.0833 17.3298 17.0833C17.5446 17.0833 17.6521 17.2176 17.6521 17.4593V19.5812H18.3773V19.608Z" fill="#FDC600"/>
<path d="M20.5803 11.2818C23.5617 11.2818 25.979 8.86444 25.979 5.88307C25.979 2.9017 23.5617 0.484375 20.5803 0.484375C17.599 0.484375 15.1816 2.9017 15.1816 5.88307C15.1816 8.86444 17.599 11.2818 20.5803 11.2818Z" fill="#FDC600"/>
<path d="M20.5803 11.2818C23.5617 11.2818 25.979 8.86443 25.979 5.88307C25.979 2.9017 23.5617 0.484375 20.5803 0.484375C17.599 0.484375 15.1816 2.9017 15.1816 5.88307C15.1816 8.86443 17.599 11.2818 20.5803 11.2818Z" stroke="white" stroke-width="1.08511"/>
<path d="M22.5137 8.97442V8.38352H21.1976V3.22656H20.5261C20.1232 3.60259 19.7203 3.87118 19.3174 3.97862V4.59638C19.7472 4.5158 20.1769 4.30093 20.553 3.9249V8.38352H18.8877V8.97442H22.5405H22.5137Z" fill="#FEFEFE"/>
</svg>
