<svg width="17" height="17" viewBox="0 0 17 17" fill="none" xmlns="http://www.w3.org/2000/svg">
<path d="M8.66573 16.3217C13.0604 16.3217 16.5336 12.7776 16.5336 8.45382C16.5336 4.05915 12.9895 0.585938 8.66573 0.585938C4.27106 0.585938 0.797852 4.13003 0.797852 8.45382C0.797852 12.8485 4.34194 16.3217 8.66573 16.3217Z" fill="#FDC600"/>
<path d="M8.80752 9.02195C9.30369 9.02195 9.72898 9.16371 10.0125 9.44724C10.296 9.73077 10.4378 10.0852 10.4378 10.5813C10.4378 11.0775 10.296 11.5028 9.94163 11.7863C9.58722 12.0699 9.23281 12.2116 8.66576 12.2116C8.0987 12.2116 7.67341 12.0699 7.319 11.8572C7.03548 11.5737 6.82283 11.2193 6.82283 10.7231H5.90137V10.794C5.90137 11.5028 6.18489 12.0699 6.68107 12.4243C7.17724 12.8496 7.81518 12.9913 8.66576 12.9913C9.37458 12.9913 10.0125 12.7787 10.5796 12.3534C11.1466 11.9281 11.3593 11.2902 11.3593 10.5105C11.3593 10.2269 11.2884 9.94341 11.2175 9.73077C11.1466 9.51812 11.0049 9.30548 10.934 9.16371C10.7922 9.02195 10.6504 8.88018 10.5087 8.8093C10.3669 8.73842 10.296 8.66754 10.2252 8.59666C10.1543 8.59666 10.1543 8.52578 10.0834 8.52578L10.2252 8.45489C10.296 8.45489 10.4378 8.38401 10.5087 8.24225C10.6504 8.17137 10.7213 8.0296 10.8631 7.88784C11.0049 7.74608 11.0757 7.60431 11.1466 7.32079C11.2175 7.10814 11.2884 6.82461 11.2884 6.61197C11.2884 5.97403 11.0757 5.40698 10.5796 4.98169C10.0834 4.5564 9.51634 4.34375 8.66576 4.34375C7.88606 4.34375 7.319 4.5564 6.82283 4.9108C6.32666 5.26521 6.11401 5.83227 6.11401 6.4702V6.54109H7.03548C7.03548 6.11579 7.17724 5.76139 7.46077 5.54874C7.74429 5.33609 8.16958 5.19433 8.66576 5.19433C9.23281 5.19433 9.58722 5.33609 9.87075 5.54874C10.1543 5.83227 10.296 6.11579 10.296 6.54109C10.296 7.03726 10.1543 7.39167 9.87075 7.67519C9.58722 7.95872 9.23281 8.10049 8.73664 8.10049H7.46077V8.95107H8.80752V9.02195Z" fill="#FEFEFE"/>
</svg>
