<svg width="30" height="33" viewBox="0 0 30 33" fill="none" xmlns="http://www.w3.org/2000/svg">
<path d="M26.416 28.685C26.1955 27.9352 25.8647 27.0973 25.4898 26.2373C25.115 25.3994 24.674 24.5394 24.1889 23.6794C24.1227 23.7897 24.0565 23.8999 23.9904 24.0102C23.9242 24.1205 23.8581 24.2307 23.7699 24.341C23.7037 24.4512 23.6155 24.5615 23.5494 24.6497C23.4612 24.7599 23.395 24.8481 23.3068 24.9584C23.3068 24.9584 23.3068 24.9804 23.2848 24.9804C23.2848 24.9804 23.2848 25.0025 23.2627 25.0025L23.2407 25.0245L23.2186 25.0466L23.1525 25.1348C23.2186 25.3332 23.3068 25.5538 23.395 25.8184C23.4832 26.0609 23.5935 26.3476 23.6817 26.5901C23.7699 26.8547 23.836 27.0973 23.8581 27.2737C23.8801 27.4722 23.8801 27.6265 23.814 27.6927C23.7919 27.7147 23.7699 27.7368 23.7258 27.7588C23.7037 27.7809 23.6596 27.7809 23.6376 27.8029C23.5935 27.8029 23.5714 27.825 23.5273 27.825C23.4832 27.825 23.4391 27.825 23.395 27.825C23.3289 27.825 23.2407 27.8029 23.1745 27.8029C23.0863 27.7809 22.9981 27.7588 22.9099 27.7368C22.8217 27.7147 22.7335 27.6706 22.6232 27.6265C22.535 27.5824 22.4248 27.5383 22.3145 27.4942C22.1822 27.4281 22.0499 27.3619 21.8956 27.2958C21.7633 27.2296 21.6089 27.1414 21.4546 27.0532C21.3002 26.965 21.1458 26.8768 20.9915 26.7886C20.8371 26.7004 20.6828 26.5901 20.5064 26.5019C21.1458 25.8625 21.7412 25.1789 22.2925 24.4512C22.8438 23.7235 23.3509 22.9518 23.7919 22.1579C24.233 21.3641 24.6078 20.5262 24.9386 19.6883C25.2473 18.8283 25.5119 17.9683 25.6883 17.0863C26.0852 15.1017 26.0632 13.2274 25.6883 11.5515C25.3355 9.91977 24.6299 8.46442 23.6817 7.29573C22.7335 6.14909 21.5428 5.24501 20.1536 4.69374C18.7864 4.14247 17.2208 3.87786 15.5229 4.01017C14.3983 4.07632 13.2958 4.31888 12.2373 4.67169C11.1789 5.0245 10.1425 5.50962 9.15024 6.10499C8.15795 6.70036 7.23182 7.38393 6.34979 8.17776C5.46776 8.97159 4.67393 9.83157 3.94626 10.7797C3.7478 10.4049 3.59345 10.0741 3.46114 9.76542C3.32884 9.4567 3.24063 9.17004 3.17448 8.92749C3.10833 8.68493 3.08628 8.46442 3.10833 8.28801C3.13038 8.11161 3.17448 7.95725 3.28473 7.847C3.30679 7.8029 3.35089 7.78085 3.41704 7.73675C3.46114 7.71469 3.52729 7.67059 3.59345 7.64854C3.6596 7.62649 3.72575 7.60444 3.81395 7.58239C3.90216 7.56034 3.99036 7.56034 4.07856 7.53829C4.16677 7.53829 4.27702 7.53829 4.38727 7.53829C4.49753 7.56034 4.60778 7.58239 4.71803 7.62649C4.82829 7.67059 4.93854 7.71469 5.0488 7.78085C5.15905 7.847 5.2693 7.9352 5.37956 8.04546C5.48981 7.91315 5.60006 7.78085 5.71032 7.67059C5.82057 7.53829 5.95288 7.42804 6.06313 7.31778C6.19544 7.20753 6.30569 7.09727 6.46004 6.98702C6.59235 6.87677 6.72465 6.78856 6.87901 6.67831C6.90106 6.67831 6.90106 6.65626 6.92311 6.65626C6.94516 6.65626 6.94516 6.63421 6.96721 6.63421C6.96721 6.63421 6.98926 6.61216 7.01131 6.61216C7.01131 6.61216 7.03336 6.59011 7.05541 6.59011C6.81286 6.3696 6.5262 6.17114 6.23954 6.01679C5.95288 5.86243 5.66622 5.75218 5.37956 5.66397C5.0929 5.57577 4.78419 5.50962 4.49753 5.48757C4.21087 5.46552 3.92421 5.44347 3.6596 5.46552C3.48319 5.48757 3.28474 5.50962 3.13038 5.53167C2.95397 5.57577 2.79962 5.61987 2.66731 5.66397C2.53501 5.70808 2.4027 5.77423 2.29245 5.84038C2.1822 5.90653 2.09399 5.97268 2.00579 6.06089C1.78528 6.30345 1.65298 6.61216 1.58683 7.00907C1.52067 7.38393 1.54273 7.847 1.65298 8.35417C1.74118 8.86133 1.91759 9.43465 2.16015 10.0521C2.4027 10.6695 2.71142 11.331 3.08628 12.0587C2.82167 12.4556 2.57911 12.8746 2.3586 13.2935C2.1381 13.7125 1.91759 14.1315 1.71913 14.5725C1.52067 15.0135 1.34427 15.4545 1.18991 15.9176C1.03556 16.3806 0.881203 16.8437 0.770949 17.3068C0.307883 19.0929 0.153528 20.8128 0.307883 22.4005C0.462239 24.0102 0.925304 25.4876 1.65298 26.7665C2.4027 28.0675 3.41704 29.148 4.67393 29.9419C5.95288 30.7577 7.49643 31.2428 9.23844 31.3531C9.74561 31.3752 10.2748 31.3752 10.804 31.3311C11.3333 31.287 11.8625 31.2208 12.3696 31.1105C12.8989 31.0003 13.4281 30.868 13.9352 30.6916C14.4645 30.5152 14.9716 30.3167 15.4788 30.0742L14.244 27.7368C13.8911 27.8911 13.5163 28.0014 13.1635 28.1116C12.7886 28.2219 12.4358 28.3101 12.0609 28.3763C11.6861 28.4424 11.3333 28.4865 10.9584 28.5086C10.5835 28.5306 10.2307 28.5306 9.85586 28.5306C8.44461 28.4645 7.20977 28.0896 6.17338 27.4501C5.137 26.8327 4.29907 25.9727 3.7037 24.9363C3.08628 23.922 2.71142 22.7092 2.57911 21.4082C2.44681 20.1293 2.53501 18.718 2.90987 17.2627C3.28473 15.8073 3.88011 14.4402 4.67393 13.1833C5.44571 11.9264 6.41594 10.8018 7.47438 9.83157C8.55487 8.86133 9.74561 8.06751 11.0246 7.49419C12.3035 6.92087 13.6486 6.546 14.9937 6.47985C16.3608 6.39165 17.6177 6.61216 18.7203 7.09727C19.8449 7.58239 20.793 8.31007 21.5428 9.25825C22.2925 10.2064 22.8438 11.3751 23.1084 12.6982C23.373 14.0433 23.373 15.5427 23.0643 17.1304C22.932 17.836 22.7115 18.5196 22.4689 19.1811C22.2263 19.8426 21.9176 20.5041 21.5648 21.1216C21.212 21.739 20.8371 22.3564 20.3961 22.9297C19.9772 23.503 19.492 24.0323 19.0069 24.5394C19.0069 24.363 19.029 24.1866 19.029 24.0323C19.029 23.8558 19.051 23.6794 19.051 23.5251C19.051 23.3707 19.0731 23.2164 19.0731 23.0841C19.0731 22.9518 19.0731 22.8636 19.0731 22.7754C19.0731 22.7092 19.0731 22.6431 19.051 22.599C19.029 22.5549 19.029 22.5328 19.0069 22.4887C18.9849 22.4667 18.9628 22.4446 18.9408 22.4446C18.9187 22.4446 18.8967 22.4225 18.8526 22.4225C18.8305 22.4225 18.8085 22.4225 18.7864 22.4225C18.7644 22.4225 18.7423 22.4225 18.7203 22.4446C18.6982 22.4446 18.6982 22.4666 18.6762 22.4666H18.6541L14.3322 23.8779C14.3322 23.8779 14.2881 23.8999 14.244 23.922C14.1999 23.944 14.1337 23.9882 14.0896 24.0323C14.0455 24.0764 14.0014 24.1646 14.0014 24.2528C14.0014 24.341 14.0235 24.4733 14.0896 24.6056C14.0896 24.6056 14.0896 24.6276 14.1117 24.6276C14.1117 24.6276 14.1117 24.6497 14.1337 24.6497C14.1337 24.6497 14.1337 24.6717 14.1558 24.6717C14.1558 24.6717 14.1558 24.6938 14.1778 24.6938C14.3763 25.0907 14.6409 25.6199 14.9716 26.2153C15.2803 26.8106 15.6552 27.4942 16.008 28.1557C16.3608 28.8173 16.7136 29.4788 17.0224 30.0521C17.3311 30.6254 17.5957 31.0885 17.75 31.3972C17.7721 31.4193 17.7721 31.4413 17.7941 31.4634C17.8162 31.4854 17.8162 31.5075 17.8382 31.5295C17.8382 31.5516 17.8603 31.5736 17.8603 31.5957C17.8603 31.6177 17.8823 31.6177 17.8823 31.6398C17.9264 31.7059 17.9705 31.7721 17.9926 31.8382C18.0367 31.8823 18.0587 31.9264 18.1028 31.9705C18.1469 31.9926 18.169 32.0367 18.2131 32.0367C18.2351 32.0587 18.2792 32.0587 18.3013 32.0587C18.3454 32.0587 18.4116 32.0367 18.4557 32.0146C18.4998 31.9926 18.5439 31.9485 18.5659 31.8823C18.588 31.8382 18.6321 31.7721 18.6321 31.728C18.6541 31.6839 18.6541 31.6177 18.6762 31.5957C18.6762 31.5736 18.6762 31.5736 18.6762 31.5516C18.6762 31.5295 18.6762 31.5075 18.6762 31.4854C18.6762 31.4634 18.6762 31.4193 18.6762 31.3972C18.6762 31.3531 18.6762 31.3311 18.6762 31.287C18.6762 31.1326 18.6982 30.9782 18.6982 30.8018C18.6982 30.6254 18.7203 30.449 18.7203 30.2726C18.7203 30.0962 18.7423 29.9639 18.7423 29.8537C18.7423 29.7434 18.7423 29.6772 18.7423 29.6552C19.3377 30.008 19.9331 30.3608 20.5064 30.6695C21.1017 31.0003 21.6751 31.287 22.2263 31.5516C22.7776 31.8162 23.3068 32.0367 23.7919 32.191C24.2771 32.3454 24.7401 32.4556 25.137 32.4777C25.1811 32.4777 25.2473 32.4777 25.2914 32.4777C25.3355 32.4777 25.4016 32.4777 25.4457 32.4777C25.4898 32.4777 25.5339 32.4777 25.6001 32.4556C25.6442 32.4556 25.6883 32.4336 25.7324 32.4336C25.7986 32.4115 25.8647 32.4115 25.9309 32.3895C25.997 32.3674 26.0632 32.3454 26.1073 32.3233C26.1734 32.3013 26.2175 32.2572 26.2616 32.2351C26.3057 32.191 26.3498 32.1469 26.3939 32.1028C26.6806 31.8162 26.7908 31.3531 26.7908 30.7577C26.7908 30.1844 26.6585 29.4788 26.416 28.7291V28.685Z" fill="#FDC600"/>
<path d="M12.9442 16.8064V15.792H11.5109V10.2353H10.4524C10.0114 10.6542 9.52631 10.9409 8.99709 11.0732V12.1096C9.2617 12.0655 9.50426 11.9773 9.76887 11.845C10.0335 11.7127 10.2319 11.5804 10.3863 11.426V15.77H8.57812V16.7843H12.9442V16.8064ZM18.3025 12.1316C18.3025 11.5362 18.1041 11.0511 17.6851 10.6763C17.2661 10.3235 16.7369 10.125 16.0754 10.125C15.4139 10.125 14.8626 10.3014 14.4657 10.6542C14.0467 11.007 13.8483 11.4921 13.8483 12.0875V14.888C13.8483 15.4833 14.0467 15.9684 14.4657 16.3213C14.8846 16.6741 15.4139 16.8505 16.0754 16.8505C16.7369 16.8505 17.2661 16.6741 17.6851 16.2992C18.1041 15.9464 18.3025 15.4613 18.3025 14.8439V12.0875V12.1316ZM17.1779 14.7998C17.1779 15.1526 17.0897 15.4172 16.8913 15.6156C16.6928 15.8141 16.4282 15.9023 16.0974 15.9023C15.7446 15.9023 15.48 15.8141 15.3036 15.6156C15.1051 15.4172 15.0169 15.1526 15.0169 14.7998V12.1757C15.0169 11.8229 15.1051 11.5583 15.3036 11.3598C15.5021 11.1614 15.7667 11.0732 16.1195 11.0732C16.4723 11.0732 16.7369 11.1614 16.9354 11.3598C17.1338 11.5583 17.222 11.8229 17.222 12.1757L17.2 14.7998H17.1779Z" fill="#FDC600"/>
<path d="M9.87791 22.3144V17.375H9.03998V21.1236L7.09951 17.375H5.88672V22.3144H6.72465V18.5657L8.68716 22.3144H9.87791ZM11.5979 21.8513C11.5979 21.719 11.5538 21.6308 11.4656 21.5646C11.3774 21.4985 11.2671 21.4764 11.1348 21.4764C11.0025 21.4764 10.8922 21.5205 10.804 21.5646C10.7158 21.6308 10.6717 21.719 10.6717 21.8513V21.9836C10.6717 22.1159 10.7158 22.2041 10.804 22.2703C10.8922 22.3364 11.0025 22.3805 11.1348 22.3805C11.2671 22.3805 11.3774 22.3364 11.4656 22.2703C11.5538 22.2041 11.5979 22.1159 11.5979 21.9836L11.5758 21.8513H11.5979ZM15.3024 20.9913H14.5306C14.5306 21.4544 14.2881 21.6969 13.8029 21.6969C13.3178 21.6969 13.0753 21.4544 13.0753 20.9472V20.2195C13.0753 19.7344 13.3178 19.4698 13.8029 19.4698C14.2881 19.4698 14.5306 19.7124 14.5306 20.1754H15.3024V20.1093C15.3024 19.6903 15.1701 19.3596 14.9055 19.117C14.6409 18.8965 14.266 18.7642 13.8029 18.7642C13.3399 18.7642 12.9871 18.8745 12.7004 19.1391C12.4358 19.3816 12.2814 19.7344 12.2814 20.1534V21.0134C12.2814 21.4323 12.4137 21.7852 12.7004 22.0057C12.965 22.2482 13.3399 22.3585 13.8029 22.3585C14.266 22.3585 14.6409 22.2482 14.9055 22.0057C15.1701 21.7631 15.3244 21.4323 15.3244 21.0134L15.3024 20.9693V20.9913ZM20.8592 22.3144V19.8447C20.8592 19.5139 20.771 19.2493 20.5946 19.0509C20.4182 18.8745 20.1756 18.7642 19.8889 18.7642C19.6023 18.7642 19.3377 18.8524 19.0951 19.0068L18.7203 19.2493C18.5659 18.9406 18.3013 18.7862 17.8823 18.7862C17.6398 18.7862 17.3752 18.8524 17.1547 19.0068L16.8459 19.1832V18.8083H16.0521V22.2923H16.8459V19.8888L17.2649 19.6242C17.4413 19.536 17.5736 19.4919 17.6839 19.4919C17.9264 19.4919 18.0587 19.6462 18.0587 19.9329V22.2923H18.8526V19.8888L19.2715 19.6242C19.4479 19.536 19.5802 19.4919 19.6905 19.4919C19.9331 19.4919 20.0654 19.6462 20.0654 19.9108V22.2923H20.8812L20.8592 22.3144Z" fill="#FDC600"/>
<path d="M23.1083 13.0291C26.438 13.0291 29.1502 10.3389 29.1502 6.98722C29.1502 3.65756 26.46 0.945312 23.1083 0.945312C19.7786 0.945312 17.0664 3.6355 17.0664 6.98722C17.0664 10.3169 19.7566 13.0291 23.1083 13.0291Z" fill="#FDC600"/>
<path d="M23.1083 13.0291C26.438 13.0291 29.1502 10.3389 29.1502 6.98722C29.1502 3.65756 26.46 0.945312 23.1083 0.945312C19.7786 0.945312 17.0664 3.6355 17.0664 6.98722C17.0664 10.3169 19.7566 13.0291 23.1083 13.0291Z" stroke="white" stroke-width="1.27894"/>
<path d="M25.2484 10.4268V9.72122H22.2936L24.1679 7.82486C24.5649 7.42795 24.8515 7.05308 25.0059 6.72232C25.1602 6.39156 25.2484 6.0608 25.2484 5.70799C25.2484 5.15672 25.0941 4.7157 24.7413 4.40699C24.4105 4.07623 23.9254 3.92188 23.2859 3.92188C22.6905 3.92188 22.2054 4.07623 21.8306 4.38494C21.4557 4.69365 21.2793 5.11262 21.2793 5.64183V5.70799H22.007C22.007 5.33312 22.1172 5.06851 22.3377 4.89211C22.5582 4.7157 22.867 4.60545 23.2639 4.60545C23.6828 4.60545 23.9915 4.69365 24.19 4.89211C24.3885 5.09056 24.4987 5.35517 24.4987 5.70799C24.4987 5.99465 24.4326 6.25925 24.3003 6.50181C24.1679 6.74437 23.9474 7.03103 23.6608 7.36179L21.3896 9.69917V10.4048H25.2264L25.2484 10.4268Z" fill="#FEFEFE"/>
</svg>
