<svg width="15" height="15" viewBox="0 0 15 15" fill="none" xmlns="http://www.w3.org/2000/svg">
<path d="M8.60801 5.45456C8.60801 5.33452 8.56033 5.2194 8.47545 5.13452C8.39057 5.04964 8.27545 5.00195 8.15541 5.00195C8.03537 5.00195 7.92025 5.04964 7.83537 5.13452C7.75049 5.2194 7.70281 5.33452 7.70281 5.45456V6.81237H6.345C6.22496 6.81237 6.10984 6.86005 6.02496 6.94493C5.94008 7.02981 5.8924 7.14493 5.8924 7.26497C5.8924 7.38501 5.94008 7.50013 6.02496 7.58501C6.10984 7.66989 6.22496 7.71757 6.345 7.71757H7.70281V9.07538C7.70281 9.19542 7.75049 9.31054 7.83537 9.39542C7.92025 9.4803 8.03537 9.52798 8.15541 9.52798C8.27545 9.52798 8.39057 9.4803 8.47545 9.39542C8.56033 9.31054 8.60801 9.19542 8.60801 9.07538V7.71757H9.96582C10.0859 7.71757 10.201 7.66989 10.2859 7.58501C10.3707 7.50013 10.4184 7.38501 10.4184 7.26497C10.4184 7.14493 10.3707 7.02981 10.2859 6.94493C10.201 6.86005 10.0859 6.81237 9.96582 6.81237H8.60801V5.45456Z" fill="#363330"/>
<path d="M0.913785 1.38086C0.793747 1.38086 0.678626 1.42854 0.593746 1.51342C0.508866 1.5983 0.461182 1.71342 0.461182 1.83346C0.461182 1.9535 0.508866 2.06862 0.593746 2.1535C0.678626 2.23838 0.793747 2.28607 0.913785 2.28607H1.91856L2.28155 3.74073L3.63755 10.9688C3.65697 11.0725 3.71201 11.1662 3.79316 11.2336C3.87432 11.3011 3.97649 11.338 4.08201 11.3381H4.98721C4.50706 11.3381 4.04658 11.5289 3.70706 11.8684C3.36754 12.2079 3.1768 12.6684 3.1768 13.1485C3.1768 13.6287 3.36754 14.0892 3.70706 14.4287C4.04658 14.7682 4.50706 14.959 4.98721 14.959C5.46736 14.959 5.92785 14.7682 6.26737 14.4287C6.60688 14.0892 6.79762 13.6287 6.79762 13.1485C6.79762 12.6684 6.60688 12.2079 6.26737 11.8684C5.92785 11.5289 5.46736 11.3381 4.98721 11.3381H11.3237C10.8435 11.3381 10.383 11.5289 10.0435 11.8684C9.70398 12.2079 9.51324 12.6684 9.51324 13.1485C9.51324 13.6287 9.70398 14.0892 10.0435 14.4287C10.383 14.7682 10.8435 14.959 11.3237 14.959C11.8038 14.959 12.2643 14.7682 12.6038 14.4287C12.9433 14.0892 13.1341 13.6287 13.1341 13.1485C13.1341 12.6684 12.9433 12.2079 12.6038 11.8684C12.2643 11.5289 11.8038 11.3381 11.3237 11.3381H12.2289C12.3344 11.338 12.4365 11.3011 12.5177 11.2336C12.5989 11.1662 12.6539 11.0725 12.6733 10.9688L14.0311 3.72715C14.0434 3.66183 14.041 3.59462 14.0244 3.53029C14.0077 3.46596 13.977 3.40609 13.9346 3.35494C13.8922 3.30378 13.839 3.2626 13.7789 3.23431C13.7188 3.20603 13.6531 3.19133 13.5867 3.19127H3.07723L2.71062 1.72393C2.68619 1.62597 2.6297 1.539 2.55015 1.47683C2.4706 1.41467 2.37255 1.38089 2.27159 1.38086H0.913785ZM4.45767 10.4329L3.26913 4.09648H13.0417L11.8532 10.4329H4.45767ZM5.89242 13.1485C5.89242 13.3886 5.79705 13.6189 5.62729 13.7886C5.45753 13.9584 5.22729 14.0537 4.98721 14.0537C4.74714 14.0537 4.51689 13.9584 4.34713 13.7886C4.17738 13.6189 4.08201 13.3886 4.08201 13.1485C4.08201 12.9085 4.17738 12.6782 4.34713 12.5085C4.51689 12.3387 4.74714 12.2433 4.98721 12.2433C5.22729 12.2433 5.45753 12.3387 5.62729 12.5085C5.79705 12.6782 5.89242 12.9085 5.89242 13.1485ZM12.2289 13.1485C12.2289 13.3886 12.1335 13.6189 11.9637 13.7886C11.794 13.9584 11.5637 14.0537 11.3237 14.0537C11.0836 14.0537 10.8533 13.9584 10.6836 13.7886C10.5138 13.6189 10.4184 13.3886 10.4184 13.1485C10.4184 12.9085 10.5138 12.6782 10.6836 12.5085C10.8533 12.3387 11.0836 12.2433 11.3237 12.2433C11.5637 12.2433 11.794 12.3387 11.9637 12.5085C12.1335 12.6782 12.2289 12.9085 12.2289 13.1485Z" fill="#363330"/>
</svg>
