<svg width="16" height="16" viewBox="0 0 16 16" fill="none" xmlns="http://www.w3.org/2000/svg">
<path d="M8.67369 5.96237C8.67369 5.84233 8.626 5.72721 8.54112 5.64233C8.45624 5.55745 8.34112 5.50977 8.22108 5.50977C8.10105 5.50977 7.98592 5.55745 7.90104 5.64233C7.81617 5.72721 7.76848 5.84233 7.76848 5.96237V7.32018H6.41067C6.29063 7.32018 6.17551 7.36786 6.09063 7.45274C6.00575 7.53762 5.95807 7.65274 5.95807 7.77278C5.95807 7.89282 6.00575 8.00794 6.09063 8.09282C6.17551 8.1777 6.29063 8.22538 6.41067 8.22538H7.76848V9.58319C7.76848 9.70323 7.81617 9.81835 7.90104 9.90323C7.98592 9.98811 8.10105 10.0358 8.22108 10.0358C8.34112 10.0358 8.45624 9.98811 8.54112 9.90323C8.626 9.81835 8.67369 9.70323 8.67369 9.58319V8.22538H10.0315C10.1515 8.22538 10.2667 8.1777 10.3515 8.09282C10.4364 8.00794 10.4841 7.89282 10.4841 7.77278C10.4841 7.65274 10.4364 7.53762 10.3515 7.45274C10.2667 7.36786 10.1515 7.32018 10.0315 7.32018H8.67369V5.96237Z" fill="#363330"/>
<path d="M0.979458 1.88867C0.859421 1.88867 0.744299 1.93636 0.65942 2.02124C0.57454 2.10612 0.526855 2.22124 0.526855 2.34127C0.526855 2.46131 0.57454 2.57643 0.65942 2.66131C0.744299 2.74619 0.859421 2.79388 0.979458 2.79388H1.98424L2.34722 4.24854L3.70322 11.4766C3.72264 11.5803 3.77768 11.674 3.85884 11.7414C3.93999 11.8089 4.04216 11.8458 4.14768 11.8459H5.05289C4.57273 11.8459 4.11225 12.0367 3.77273 12.3762C3.43321 12.7157 3.24247 13.1762 3.24247 13.6564C3.24247 14.1365 3.43321 14.597 3.77273 14.9365C4.11225 15.276 4.57273 15.4668 5.05289 15.4668C5.53304 15.4668 5.99352 15.276 6.33304 14.9365C6.67256 14.597 6.8633 14.1365 6.8633 13.6564C6.8633 13.1762 6.67256 12.7157 6.33304 12.3762C5.99352 12.0367 5.53304 11.8459 5.05289 11.8459H11.3893C10.9092 11.8459 10.4487 12.0367 10.1092 12.3762C9.76966 12.7157 9.57892 13.1762 9.57892 13.6564C9.57892 14.1365 9.76966 14.597 10.1092 14.9365C10.4487 15.276 10.9092 15.4668 11.3893 15.4668C11.8695 15.4668 12.33 15.276 12.6695 14.9365C13.009 14.597 13.1997 14.1365 13.1997 13.6564C13.1997 13.1762 13.009 12.7157 12.6695 12.3762C12.33 12.0367 11.8695 11.8459 11.3893 11.8459H12.2945C12.4001 11.8458 12.5022 11.8089 12.5834 11.7414C12.6645 11.674 12.7196 11.5803 12.739 11.4766L14.0968 4.23497C14.109 4.16964 14.1067 4.10243 14.09 4.0381C14.0734 3.97377 14.0427 3.9139 14.0003 3.86275C13.9579 3.8116 13.9047 3.77041 13.8446 3.74213C13.7844 3.71384 13.7188 3.69915 13.6523 3.69908H3.1429L2.77629 2.23174C2.75186 2.13379 2.69538 2.04681 2.61583 1.98465C2.53628 1.92248 2.43823 1.8887 2.33727 1.88867H0.979458ZM4.52334 10.9407L3.3348 4.60429H13.1074L11.9189 10.9407H4.52334ZM5.95809 13.6564C5.95809 13.8964 5.86272 14.1267 5.69296 14.2964C5.5232 14.4662 5.29296 14.5616 5.05289 14.5616C4.81281 14.5616 4.58257 14.4662 4.41281 14.2964C4.24305 14.1267 4.14768 13.8964 4.14768 13.6564C4.14768 13.4163 4.24305 13.186 4.41281 13.0163C4.58257 12.8465 4.81281 12.7511 5.05289 12.7511C5.29296 12.7511 5.5232 12.8465 5.69296 13.0163C5.86272 13.186 5.95809 13.4163 5.95809 13.6564ZM12.2945 13.6564C12.2945 13.8964 12.1992 14.1267 12.0294 14.2964C11.8596 14.4662 11.6294 14.5616 11.3893 14.5616C11.1493 14.5616 10.919 14.4662 10.7493 14.2964C10.5795 14.1267 10.4841 13.8964 10.4841 13.6564C10.4841 13.4163 10.5795 13.186 10.7493 13.0163C10.919 12.8465 11.1493 12.7511 11.3893 12.7511C11.6294 12.7511 11.8596 12.8465 12.0294 13.0163C12.1992 13.186 12.2945 13.4163 12.2945 13.6564Z" fill="#363330"/>
</svg>
