<svg width="15" height="15" viewBox="0 0 15 15" fill="none" xmlns="http://www.w3.org/2000/svg">
<path d="M8.15757 5.04635C8.15757 4.92632 8.10989 4.81119 8.02501 4.72631C7.94013 4.64143 7.82501 4.59375 7.70497 4.59375C7.58493 4.59375 7.46981 4.64143 7.38493 4.72631C7.30005 4.81119 7.25237 4.92632 7.25237 5.04635V6.40416H5.89456C5.77452 6.40416 5.6594 6.45185 5.57452 6.53673C5.48964 6.62161 5.44196 6.73673 5.44196 6.85677C5.44196 6.9768 5.48964 7.09192 5.57452 7.1768C5.6594 7.26168 5.77452 7.30937 5.89456 7.30937H7.25237V8.66718C7.25237 8.78721 7.30005 8.90234 7.38493 8.98722C7.46981 9.0721 7.58493 9.11978 7.70497 9.11978C7.82501 9.11978 7.94013 9.0721 8.02501 8.98722C8.10989 8.90234 8.15757 8.78721 8.15757 8.66718V7.30937H9.51538C9.63542 7.30937 9.75054 7.26168 9.83542 7.1768C9.9203 7.09192 9.96799 6.9768 9.96799 6.85677C9.96799 6.73673 9.9203 6.62161 9.83542 6.53673C9.75054 6.45185 9.63542 6.40416 9.51538 6.40416H8.15757V5.04635Z" fill="#363330"/>
<path d="M0.463345 0.972656C0.343307 0.972656 0.228186 1.02034 0.143307 1.10522C0.058427 1.1901 0.0107422 1.30522 0.0107422 1.42526C0.0107422 1.5453 0.058427 1.66042 0.143307 1.7453C0.228186 1.83018 0.343307 1.87786 0.463345 1.87786H1.46812L1.83111 3.33253L3.18711 10.5606C3.20653 10.6643 3.26157 10.758 3.34272 10.8254C3.42388 10.8929 3.52605 10.9298 3.63157 10.9299H4.53677C4.05662 10.9299 3.59614 11.1207 3.25662 11.4602C2.9171 11.7997 2.72636 12.2602 2.72636 12.7403C2.72636 13.2205 2.9171 13.681 3.25662 14.0205C3.59614 14.36 4.05662 14.5507 4.53677 14.5507C5.01692 14.5507 5.47741 14.36 5.81693 14.0205C6.15645 13.681 6.34718 13.2205 6.34718 12.7403C6.34718 12.2602 6.15645 11.7997 5.81693 11.4602C5.47741 11.1207 5.01692 10.9299 4.53677 10.9299H10.8732C10.3931 10.9299 9.93258 11.1207 9.59306 11.4602C9.25354 11.7997 9.0628 12.2602 9.0628 12.7403C9.0628 13.2205 9.25354 13.681 9.59306 14.0205C9.93258 14.36 10.3931 14.5507 10.8732 14.5507C11.3534 14.5507 11.8139 14.36 12.1534 14.0205C12.4929 13.681 12.6836 13.2205 12.6836 12.7403C12.6836 12.2602 12.4929 11.7997 12.1534 11.4602C11.8139 11.1207 11.3534 10.9299 10.8732 10.9299H11.7784C11.8839 10.9298 11.9861 10.8929 12.0673 10.8254C12.1484 10.758 12.2035 10.6643 12.2229 10.5606L13.5807 3.31895C13.5929 3.25363 13.5906 3.18641 13.5739 3.12208C13.5573 3.05775 13.5266 2.99789 13.4842 2.94673C13.4418 2.89558 13.3886 2.8544 13.3285 2.82611C13.2683 2.79783 13.2027 2.78313 13.1362 2.78307H2.62679L2.26018 1.31573C2.23575 1.21777 2.17926 1.13079 2.09971 1.06863C2.02016 1.00647 1.92211 0.972684 1.82115 0.972656H0.463345ZM4.00723 10.0247L2.81869 3.68827H12.5913L11.4028 10.0247H4.00723ZM5.44198 12.7403C5.44198 12.9804 5.34661 13.2107 5.17685 13.3804C5.00709 13.5502 4.77685 13.6455 4.53677 13.6455C4.2967 13.6455 4.06645 13.5502 3.8967 13.3804C3.72694 13.2107 3.63157 12.9804 3.63157 12.7403C3.63157 12.5003 3.72694 12.27 3.8967 12.1003C4.06645 11.9305 4.2967 11.8351 4.53677 11.8351C4.77685 11.8351 5.00709 11.9305 5.17685 12.1003C5.34661 12.27 5.44198 12.5003 5.44198 12.7403ZM11.7784 12.7403C11.7784 12.9804 11.6831 13.2107 11.5133 13.3804C11.3435 13.5502 11.1133 13.6455 10.8732 13.6455C10.6331 13.6455 10.4029 13.5502 10.2331 13.3804C10.0634 13.2107 9.96801 12.9804 9.96801 12.7403C9.96801 12.5003 10.0634 12.27 10.2331 12.1003C10.4029 11.9305 10.6331 11.8351 10.8732 11.8351C11.1133 11.8351 11.3435 11.9305 11.5133 12.1003C11.6831 12.27 11.7784 12.5003 11.7784 12.7403Z" fill="#363330"/>
</svg>
