<svg width="15" height="16" viewBox="0 0 15 16" fill="none" xmlns="http://www.w3.org/2000/svg">
<path d="M8.38298 5.58737C8.38298 5.46733 8.33529 5.35221 8.25041 5.26733C8.16553 5.18245 8.05041 5.13477 7.93037 5.13477C7.81034 5.13477 7.69521 5.18245 7.61033 5.26733C7.52545 5.35221 7.47777 5.46733 7.47777 5.58737V6.94518H6.11996C5.99992 6.94518 5.8848 6.99286 5.79992 7.07774C5.71504 7.16262 5.66736 7.27774 5.66736 7.39778C5.66736 7.51782 5.71504 7.63294 5.79992 7.71782C5.8848 7.8027 5.99992 7.85038 6.11996 7.85038H7.47777V9.20819C7.47777 9.32823 7.52545 9.44335 7.61033 9.52823C7.69521 9.61311 7.81034 9.6608 7.93037 9.6608C8.05041 9.6608 8.16553 9.61311 8.25041 9.52823C8.33529 9.44335 8.38298 9.32823 8.38298 9.20819V7.85038H9.74079C9.86082 7.85038 9.97594 7.8027 10.0608 7.71782C10.1457 7.63294 10.1934 7.51782 10.1934 7.39778C10.1934 7.27774 10.1457 7.16262 10.0608 7.07774C9.97594 6.99286 9.86082 6.94518 9.74079 6.94518H8.38298V5.58737Z" fill="#363330"/>
<path d="M0.688748 1.51367C0.56871 1.51367 0.453589 1.56136 0.368709 1.64624C0.28383 1.73112 0.236145 1.84624 0.236145 1.96627C0.236145 2.08631 0.28383 2.20143 0.368709 2.28631C0.453589 2.37119 0.56871 2.41888 0.688748 2.41888H1.69353L2.05651 3.87354L3.41251 11.1016C3.43193 11.2053 3.48697 11.299 3.56813 11.3664C3.64928 11.4339 3.75145 11.4708 3.85697 11.4709H4.76218C4.28202 11.4709 3.82154 11.6617 3.48202 12.0012C3.1425 12.3407 2.95176 12.8012 2.95176 13.2814C2.95176 13.7615 3.1425 14.222 3.48202 14.5615C3.82154 14.901 4.28202 15.0918 4.76218 15.0918C5.24233 15.0918 5.70281 14.901 6.04233 14.5615C6.38185 14.222 6.57259 13.7615 6.57259 13.2814C6.57259 12.8012 6.38185 12.3407 6.04233 12.0012C5.70281 11.6617 5.24233 11.4709 4.76218 11.4709H11.0986C10.6185 11.4709 10.158 11.6617 9.81846 12.0012C9.47894 12.3407 9.28821 12.8012 9.28821 13.2814C9.28821 13.7615 9.47894 14.222 9.81846 14.5615C10.158 14.901 10.6185 15.0918 11.0986 15.0918C11.5788 15.0918 12.0393 14.901 12.3788 14.5615C12.7183 14.222 12.909 13.7615 12.909 13.2814C12.909 12.8012 12.7183 12.3407 12.3788 12.0012C12.0393 11.6617 11.5788 11.4709 11.0986 11.4709H12.0038C12.1093 11.4708 12.2115 11.4339 12.2927 11.3664C12.3738 11.299 12.4289 11.2053 12.4483 11.1016L13.8061 3.85997C13.8183 3.79464 13.816 3.72743 13.7993 3.6631C13.7827 3.59877 13.752 3.5389 13.7096 3.48775C13.6672 3.4366 13.614 3.39541 13.5539 3.36713C13.4937 3.33884 13.4281 3.32415 13.3616 3.32408H2.85219L2.48558 1.85674C2.46115 1.75879 2.40467 1.67181 2.32512 1.60965C2.24557 1.54748 2.14752 1.5137 2.04656 1.51367H0.688748ZM4.23263 10.5657L3.04409 4.22929H12.8167L11.6282 10.5657H4.23263ZM5.66738 13.2814C5.66738 13.5214 5.57201 13.7517 5.40225 13.9214C5.23249 14.0912 5.00225 14.1866 4.76218 14.1866C4.5221 14.1866 4.29186 14.0912 4.1221 13.9214C3.95234 13.7517 3.85697 13.5214 3.85697 13.2814C3.85697 13.0413 3.95234 12.811 4.1221 12.6413C4.29186 12.4715 4.5221 12.3761 4.76218 12.3761C5.00225 12.3761 5.23249 12.4715 5.40225 12.6413C5.57201 12.811 5.66738 13.0413 5.66738 13.2814ZM12.0038 13.2814C12.0038 13.5214 11.9085 13.7517 11.7387 13.9214C11.5689 14.0912 11.3387 14.1866 11.0986 14.1866C10.8585 14.1866 10.6283 14.0912 10.4585 13.9214C10.2888 13.7517 10.1934 13.5214 10.1934 13.2814C10.1934 13.0413 10.2888 12.811 10.4585 12.6413C10.6283 12.4715 10.8585 12.3761 11.0986 12.3761C11.3387 12.3761 11.5689 12.4715 11.7387 12.6413C11.9085 12.811 12.0038 13.0413 12.0038 13.2814Z" fill="#363330"/>
</svg>
