<svg width="15" height="16" viewBox="0 0 15 16" fill="none" xmlns="http://www.w3.org/2000/svg">
<path d="M8.42479 5.95456C8.42479 5.83452 8.3771 5.7194 8.29222 5.63452C8.20734 5.54964 8.09222 5.50195 7.97218 5.50195C7.85214 5.50195 7.73702 5.54964 7.65214 5.63452C7.56726 5.7194 7.51958 5.83452 7.51958 5.95456V7.31237H6.16177C6.04173 7.31237 5.92661 7.36005 5.84173 7.44493C5.75685 7.52981 5.70917 7.64493 5.70917 7.76497C5.70917 7.88501 5.75685 8.00013 5.84173 8.08501C5.92661 8.16989 6.04173 8.21757 6.16177 8.21757H7.51958V9.57538C7.51958 9.69542 7.56726 9.81054 7.65214 9.89542C7.73702 9.9803 7.85214 10.028 7.97218 10.028C8.09222 10.028 8.20734 9.9803 8.29222 9.89542C8.3771 9.81054 8.42479 9.69542 8.42479 9.57538V8.21757H9.78259C9.90263 8.21757 10.0178 8.16989 10.1026 8.08501C10.1875 8.00013 10.2352 7.88501 10.2352 7.76497C10.2352 7.64493 10.1875 7.52981 10.1026 7.44493C10.0178 7.36005 9.90263 7.31237 9.78259 7.31237H8.42479V5.95456Z" fill="#363330"/>
<path d="M0.730557 1.88086C0.610519 1.88086 0.495398 1.92854 0.410518 2.01342C0.325639 2.0983 0.277954 2.21342 0.277954 2.33346C0.277954 2.4535 0.325639 2.56862 0.410518 2.6535C0.495398 2.73838 0.610519 2.78607 0.730557 2.78607H1.73534L2.09832 4.24073L3.45432 11.4688C3.47374 11.5725 3.52878 11.6662 3.60994 11.7336C3.69109 11.8011 3.79326 11.838 3.89878 11.8381H4.80398C4.32383 11.8381 3.86335 12.0289 3.52383 12.3684C3.18431 12.7079 2.99357 13.1684 2.99357 13.6485C2.99357 14.1287 3.18431 14.5892 3.52383 14.9287C3.86335 15.2682 4.32383 15.459 4.80398 15.459C5.28414 15.459 5.74462 15.2682 6.08414 14.9287C6.42366 14.5892 6.6144 14.1287 6.6144 13.6485C6.6144 13.1684 6.42366 12.7079 6.08414 12.3684C5.74462 12.0289 5.28414 11.8381 4.80398 11.8381H11.1404C10.6603 11.8381 10.1998 12.0289 9.86027 12.3684C9.52075 12.7079 9.33001 13.1684 9.33001 13.6485C9.33001 14.1287 9.52075 14.5892 9.86027 14.9287C10.1998 15.2682 10.6603 15.459 11.1404 15.459C11.6206 15.459 12.0811 15.2682 12.4206 14.9287C12.7601 14.5892 12.9508 14.1287 12.9508 13.6485C12.9508 13.1684 12.7601 12.7079 12.4206 12.3684C12.0811 12.0289 11.6206 11.8381 11.1404 11.8381H12.0456C12.1512 11.838 12.2533 11.8011 12.3345 11.7336C12.4156 11.6662 12.4707 11.5725 12.4901 11.4688L13.8479 4.22715C13.8601 4.16183 13.8578 4.09462 13.8411 4.03029C13.8245 3.96596 13.7938 3.90609 13.7514 3.85494C13.709 3.80378 13.6558 3.7626 13.5957 3.73431C13.5355 3.70603 13.4699 3.69133 13.4034 3.69127H2.894L2.52739 2.22393C2.50296 2.12597 2.44648 2.039 2.36693 1.97683C2.28738 1.91467 2.18932 1.88089 2.08837 1.88086H0.730557ZM4.27444 10.9329L3.0859 4.59648H12.8585L11.67 10.9329H4.27444ZM5.70919 13.6485C5.70919 13.8886 5.61382 14.1189 5.44406 14.2886C5.2743 14.4584 5.04406 14.5537 4.80398 14.5537C4.56391 14.5537 4.33367 14.4584 4.16391 14.2886C3.99415 14.1189 3.89878 13.8886 3.89878 13.6485C3.89878 13.4085 3.99415 13.1782 4.16391 13.0085C4.33367 12.8387 4.56391 12.7433 4.80398 12.7433C5.04406 12.7433 5.2743 12.8387 5.44406 13.0085C5.61382 13.1782 5.70919 13.4085 5.70919 13.6485ZM12.0456 13.6485C12.0456 13.8886 11.9503 14.1189 11.7805 14.2886C11.6107 14.4584 11.3805 14.5537 11.1404 14.5537C10.9004 14.5537 10.6701 14.4584 10.5003 14.2886C10.3306 14.1189 10.2352 13.8886 10.2352 13.6485C10.2352 13.4085 10.3306 13.1782 10.5003 13.0085C10.6701 12.8387 10.9004 12.7433 11.1404 12.7433C11.3805 12.7433 11.6107 12.8387 11.7805 13.0085C11.9503 13.1782 12.0456 13.4085 12.0456 13.6485Z" fill="#363330"/>
</svg>
