<svg width="31" height="33" viewBox="0 0 31 33" fill="none" xmlns="http://www.w3.org/2000/svg">
<path d="M27.2912 28.6809C27.0548 27.9073 26.7325 27.0477 26.3457 26.1882C25.9589 25.3286 25.5076 24.4476 25.0134 23.5665C24.9489 23.674 24.8844 23.8029 24.7985 23.9103C24.734 24.0178 24.6481 24.1467 24.5836 24.2542C24.4976 24.3616 24.4332 24.4691 24.3472 24.5765C24.2613 24.6839 24.1753 24.7914 24.0894 24.8988L24.0679 24.9203L24.0464 24.9418L24.0249 24.9633L24.0034 24.9848L23.9174 25.0707C23.9819 25.2641 24.0679 25.5005 24.1753 25.7584C24.2613 26.0163 24.3687 26.2956 24.4547 26.5535C24.5406 26.8113 24.6051 27.0692 24.6266 27.2626C24.6481 27.456 24.6481 27.6279 24.5621 27.6924C24.5406 27.7139 24.5191 27.7354 24.4762 27.7569C24.4547 27.7783 24.4117 27.7998 24.3687 27.7998C24.3257 27.8213 24.3042 27.8213 24.2613 27.8213C24.2183 27.8213 24.1753 27.8213 24.1323 27.8213C24.0679 27.8213 23.9819 27.7998 23.896 27.7998C23.81 27.7783 23.724 27.7569 23.6381 27.7354C23.5521 27.7139 23.4447 27.6709 23.3587 27.6279C23.2513 27.5849 23.1438 27.542 23.0364 27.499C22.9075 27.4345 22.757 27.3701 22.6066 27.2841C22.4562 27.1981 22.3058 27.1122 22.1554 27.0262C22.0049 26.9403 21.833 26.8543 21.6826 26.7469C21.5107 26.6394 21.3603 26.5535 21.1884 26.446C21.833 25.8014 22.4562 25.0922 23.0149 24.3616C23.5736 23.6095 24.0894 22.8359 24.5406 22.0193C24.9919 21.2027 25.3787 20.3647 25.701 19.4836C26.0234 18.6241 26.2812 17.7215 26.4531 16.819C26.8614 14.7776 26.8399 12.8651 26.4531 11.1674C26.0878 9.4913 25.3787 8.00856 24.3902 6.82667C23.4232 5.64478 22.1983 4.74225 20.7801 4.16205C19.3833 3.58185 17.7716 3.34547 16.0525 3.45292C14.9136 3.53887 13.7747 3.77525 12.6788 4.14056C11.5828 4.50587 10.5299 5.00012 9.51988 5.60181C8.50991 6.20349 7.54291 6.91263 6.66186 7.72921C5.75933 8.52429 4.94275 9.42683 4.19064 10.3938C3.99724 10.0285 3.82533 9.66321 3.69639 9.36236C3.56746 9.04003 3.46002 8.76067 3.41704 8.50281C3.35257 8.24494 3.33108 8.03005 3.35257 7.83665C3.37406 7.64325 3.43853 7.49283 3.52448 7.38538C3.54597 7.34241 3.58895 7.32092 3.65342 7.27794C3.69639 7.23496 3.76086 7.21347 3.82533 7.19198C3.88979 7.17049 3.97575 7.14901 4.06171 7.12752C4.14766 7.10603 4.23362 7.10603 4.31957 7.08454C4.42702 7.08454 4.53446 7.08454 4.64191 7.10603C4.74935 7.12752 4.85679 7.14901 4.98573 7.19198C5.09317 7.23496 5.22211 7.27794 5.32955 7.36389C5.43699 7.42836 5.56593 7.51432 5.67337 7.62176C5.78082 7.49283 5.90975 7.36389 6.01719 7.23496C6.14613 7.10603 6.25357 6.99858 6.38251 6.86965C6.51144 6.76221 6.64037 6.63327 6.76931 6.52583C6.89824 6.41838 7.04866 6.31094 7.19908 6.20349C7.22057 6.20349 7.22057 6.18201 7.24206 6.18201C7.26355 6.18201 7.26355 6.16052 7.28504 6.16052C7.30653 6.16052 7.30653 6.13903 7.32802 6.13903C7.34951 6.13903 7.34951 6.11754 7.371 6.11754C7.11313 5.88116 6.83377 5.68776 6.55442 5.53734C6.27506 5.38692 5.97422 5.25798 5.67337 5.17203C5.37253 5.08607 5.07168 5.02161 4.77084 5.00012C4.46999 4.97863 4.19064 4.95714 3.91128 4.97863C3.71788 5.00012 3.54597 5.02161 3.37406 5.04309C3.20215 5.08607 3.05173 5.12905 2.9013 5.17203C2.75088 5.21501 2.62195 5.27947 2.5145 5.36543C2.40706 5.42989 2.29962 5.51585 2.23515 5.60181C1.99877 5.85967 1.86984 6.18201 1.80537 6.56881C1.7409 6.95561 1.76239 7.42836 1.86984 7.9441C1.97728 8.45983 2.14919 9.04003 2.38557 9.6847C2.64344 10.3079 2.94428 10.9955 3.35257 11.7261C3.09471 12.1344 2.83684 12.5427 2.60046 12.9725C2.36408 13.4023 2.14919 13.8321 1.95579 14.2833C1.76239 14.7346 1.56899 15.1859 1.41857 15.6586C1.24666 16.1314 1.11773 16.6041 0.988794 17.0769C0.516038 18.9034 0.365616 20.6655 0.516038 22.2987C0.66646 23.9533 1.13922 25.4575 1.89133 26.7684C2.64344 28.1007 3.69639 29.1966 4.98573 30.0132C6.29655 30.8298 7.86524 31.3455 9.64882 31.4529C10.186 31.4744 10.7018 31.4744 11.239 31.4315C11.7762 31.3885 12.3134 31.324 12.8507 31.2166C13.3879 31.1091 13.9251 30.9587 14.4623 30.7868C14.9996 30.6149 15.5153 30.4 16.0525 30.1636L14.7847 27.7783C14.4194 27.9288 14.054 28.0577 13.6672 28.1651C13.3019 28.2726 12.9151 28.3585 12.5498 28.423C12.1845 28.4875 11.7977 28.5305 11.4324 28.5734C11.0671 28.5949 10.6803 28.5949 10.315 28.5949C8.87522 28.5305 7.60737 28.1437 6.55442 27.499C5.50146 26.8543 4.64191 25.9733 4.01873 24.9203C3.39555 23.8674 3.00875 22.6425 2.85833 21.3102C2.70791 19.9994 2.81535 18.5596 3.20215 17.0769C3.58895 15.5941 4.21213 14.1974 5.00722 12.908C5.80231 11.6402 6.79079 10.4798 7.88673 9.49129C8.98266 8.50281 10.2075 7.68623 11.4969 7.08454C12.8077 6.48285 14.183 6.11754 15.5583 6.03158C16.955 5.94563 18.2444 6.18201 19.3833 6.65476C20.5222 7.14901 21.5107 7.90112 22.2628 8.84663C23.0364 9.81363 23.5951 11.017 23.8745 12.3708C24.1538 13.7461 24.1538 15.2718 23.8315 16.905C23.6811 17.6141 23.4877 18.3232 23.2298 19.0109C22.9719 19.6985 22.6711 20.3647 22.3058 21.0093C21.962 21.654 21.5537 22.2772 21.1024 22.8574C20.6726 23.4376 20.1784 23.9963 19.6841 24.512C19.6841 24.3401 19.7056 24.1682 19.7056 23.9748C19.7056 23.8029 19.7271 23.6095 19.7271 23.4591C19.7271 23.2872 19.7486 23.1367 19.7486 23.0078C19.7486 22.8789 19.7486 22.7714 19.7486 22.707C19.7486 22.6425 19.7486 22.578 19.7271 22.535C19.7056 22.4921 19.7056 22.4491 19.6841 22.4276C19.6626 22.4061 19.6412 22.3846 19.6197 22.3846C19.5982 22.3631 19.5552 22.3631 19.5337 22.3631C19.5122 22.3631 19.4907 22.3631 19.4692 22.3631C19.4478 22.3631 19.4263 22.3631 19.4048 22.3846C19.3833 22.3846 19.3833 22.4061 19.3618 22.4061H19.3403L14.9136 23.8459C14.9136 23.8459 14.8706 23.8674 14.8276 23.8888C14.7847 23.9103 14.7202 23.9533 14.6772 23.9963C14.6342 24.0608 14.5913 24.1252 14.5698 24.2112C14.5698 24.2971 14.5913 24.4261 14.6557 24.5765C14.6557 24.5765 14.6557 24.598 14.6772 24.598C14.6772 24.598 14.6772 24.6195 14.6987 24.6195C14.6987 24.6195 14.6987 24.641 14.7202 24.641C14.7202 24.641 14.7202 24.6625 14.7417 24.6625C14.9351 25.0707 15.2144 25.608 15.5583 26.2097C15.8806 26.8328 16.2459 27.5205 16.6112 28.1866C16.9765 28.8743 17.3418 29.5404 17.6642 30.1206C17.9865 30.7008 18.2444 31.1951 18.4163 31.4959C18.4378 31.5174 18.4378 31.5389 18.4593 31.5819C18.4808 31.6034 18.4808 31.6249 18.5022 31.6463C18.5237 31.6678 18.5237 31.6893 18.5237 31.7108C18.5237 31.7323 18.5452 31.7538 18.5452 31.7538C18.5882 31.8397 18.6312 31.9042 18.6742 31.9472C18.7171 32.0117 18.7601 32.0546 18.7816 32.0761C18.8246 32.1191 18.8461 32.1406 18.889 32.1621C18.932 32.1836 18.9535 32.1836 18.975 32.1836C19.0395 32.1836 19.0824 32.1621 19.1254 32.1406C19.1684 32.1191 19.2114 32.0546 19.2329 32.0117C19.2544 31.9687 19.2973 31.9042 19.3188 31.8612C19.3403 31.8183 19.3403 31.7538 19.3618 31.7108C19.3618 31.6893 19.3618 31.6893 19.3618 31.6678C19.3618 31.6463 19.3618 31.6249 19.3618 31.5819C19.3618 31.5604 19.3618 31.5174 19.3618 31.4959C19.3618 31.4529 19.3618 31.4315 19.3618 31.3885C19.3618 31.2381 19.3833 31.0661 19.3833 30.8942C19.3833 30.7223 19.4048 30.5289 19.4048 30.357C19.4048 30.1851 19.4263 30.0347 19.4263 29.9272C19.4263 29.8198 19.4478 29.7338 19.4478 29.7338C20.0494 30.0991 20.6726 30.443 21.2528 30.7868C21.8545 31.1091 22.4347 31.4315 23.0149 31.6893C23.5736 31.9472 24.1323 32.1836 24.6266 32.334C25.1208 32.5059 25.5936 32.5919 25.9804 32.6348C26.0448 32.6348 26.0878 32.6348 26.1523 32.6348C26.1953 32.6348 26.2597 32.6348 26.3027 32.6348C26.3457 32.6348 26.4102 32.6348 26.4531 32.6133C26.4961 32.6133 26.5391 32.5919 26.6036 32.5919C26.668 32.5704 26.7325 32.5704 26.797 32.5489C26.8614 32.5274 26.9259 32.5059 26.9904 32.4629C27.0548 32.4414 27.0978 32.3985 27.1623 32.3555C27.2052 32.3125 27.2697 32.2695 27.3127 32.2265C27.592 31.9257 27.721 31.4529 27.721 30.8513C27.721 30.2711 27.5706 29.5619 27.3557 28.7668L27.2912 28.6809Z" fill="#929392"/>
<path d="M11.2819 13.575C11.6042 13.575 11.8406 13.661 12.034 13.8329C12.2274 14.0048 12.3133 14.2412 12.3133 14.5635C12.3133 14.8859 12.2059 15.1437 12.0125 15.3156C11.7976 15.4875 11.5397 15.595 11.1959 15.595C10.4223 15.595 10.0355 15.2512 10.0355 14.585H8.89661V14.671C8.89661 15.2941 9.1115 15.7669 9.51978 16.0892C9.92807 16.4331 10.4868 16.5835 11.1959 16.5835C11.8406 16.5835 12.3778 16.4116 12.8291 16.0463C13.2803 15.7024 13.4952 15.1867 13.4952 14.5635C13.4952 14.3486 13.4523 14.1337 13.3878 13.9403C13.3233 13.7469 13.2374 13.5965 13.1729 13.4891C13.0869 13.3816 13.001 13.2742 12.8935 13.2097C12.7861 13.1238 12.7001 13.0808 12.6572 13.0593C12.6142 13.0378 12.5712 13.0163 12.5497 13.0163L12.6357 12.9733C12.7001 12.9519 12.7646 12.8874 12.8506 12.8014C12.9365 12.7155 13.0225 12.6295 13.0869 12.5221C13.1729 12.4146 13.2374 12.2642 13.3018 12.0923C13.3663 11.9204 13.3878 11.727 13.3878 11.5336C13.3878 10.9534 13.1944 10.5021 12.8076 10.1798C12.4208 9.85746 11.8836 9.68555 11.2174 9.68555C10.5513 9.68555 10.0355 9.83597 9.62723 10.1798C9.21894 10.5021 9.02554 10.9534 9.02554 11.5336V11.5981H10.143C10.143 11.2757 10.2504 11.0393 10.4223 10.8889C10.6157 10.7385 10.8736 10.6525 11.2174 10.6525C11.5612 10.6525 11.8406 10.7385 12.0125 10.8889C12.1844 11.0608 12.2919 11.2757 12.2919 11.5551C12.2919 11.8559 12.2059 12.1138 12.0125 12.2857C11.8191 12.4576 11.5827 12.5436 11.2819 12.5436H10.143V13.5321L11.3463 13.5535L11.2819 13.575ZM18.9104 16.4975V15.4446H16.1599L17.75 13.8759C18.1798 13.4676 18.4807 13.0808 18.6526 12.737C18.8245 12.3931 18.9104 12.0278 18.9104 11.6625C18.9104 11.0608 18.717 10.5666 18.3517 10.2443C17.9649 9.90044 17.4492 9.72852 16.7615 9.72852C16.0739 9.72852 15.5367 9.90044 15.1284 10.2443C14.7201 10.5881 14.5267 11.0608 14.5267 11.684V11.7485H15.6656C15.6656 11.0823 16.0094 10.7385 16.7401 10.7385C17.4277 10.7385 17.7715 11.0608 17.7715 11.7055C17.7715 11.9634 17.7071 12.1997 17.5996 12.4361C17.4922 12.6725 17.2773 12.9304 16.9979 13.2097L14.6771 15.4661V16.519H18.9534L18.9104 16.4975Z" fill="#929392"/>
<path d="M10.4011 22.1495V17.0996H9.56306V20.9461L7.56459 17.0996H6.31824V22.1495H7.1563V18.3245L9.17626 22.1495H10.4011ZM12.1632 21.6767C12.1632 21.5478 12.1202 21.4619 12.0343 21.3759C11.9483 21.3114 11.8409 21.2685 11.6905 21.2685C11.5615 21.2685 11.4541 21.3114 11.3681 21.3759C11.2822 21.4404 11.2392 21.5478 11.2392 21.6767V21.8272C11.2392 21.9561 11.2822 22.0421 11.3681 22.128C11.4541 22.1925 11.5615 22.2355 11.7119 22.2355C11.8624 22.2355 11.9698 22.1925 12.0558 22.128C12.1417 22.0635 12.1847 21.9561 12.1847 21.8272L12.1632 21.6767ZM15.9668 20.7957H15.1717C15.1717 21.2685 14.9138 21.5048 14.4195 21.5048C13.9253 21.5048 13.6889 21.247 13.6889 20.7527V20.0006C13.6889 19.4849 13.9253 19.2485 14.4195 19.2485C14.9138 19.2485 15.1717 19.4849 15.1717 19.9576H15.9668V19.8932C15.9668 19.4634 15.8378 19.1196 15.5585 18.8832C15.2791 18.6468 14.9138 18.5179 14.441 18.5179C13.9683 18.5179 13.603 18.6468 13.3236 18.8832C13.0443 19.1411 12.8938 19.4849 12.8938 19.9147V20.7957C12.8938 21.2255 13.0443 21.5693 13.3236 21.8272C13.603 22.0635 13.9683 22.1925 14.441 22.1925C14.9138 22.1925 15.3006 22.085 15.58 21.8487C15.8593 21.6123 16.0097 21.2685 16.0097 20.8387L15.9882 20.7957H15.9668ZM21.6398 22.1495V19.6353C21.6398 19.2915 21.5539 19.0336 21.3819 18.8402C21.21 18.6468 20.9522 18.5609 20.6513 18.5609C20.372 18.5609 20.0926 18.6468 19.8348 18.7972L19.448 19.0336C19.2975 18.7113 19.0182 18.5609 18.6099 18.5609C18.352 18.5609 18.0942 18.6253 17.8578 18.7757L17.5354 18.9691V18.6038H16.7189V22.171H17.5354V19.7213L17.9652 19.4634C18.1371 19.3774 18.2876 19.3345 18.395 19.3345C18.6529 19.3345 18.7603 19.4849 18.7603 19.7857V22.1925H19.5769V19.7427L20.0067 19.4849C20.1786 19.3989 20.329 19.3345 20.4364 19.3345C20.6943 19.3345 20.8232 19.4849 20.8232 19.7642V22.1925H21.6398V22.1495Z" fill="#929392"/>
<path d="M23.9174 12.651C27.3127 12.651 30.0847 9.90045 30.0847 6.48372C30.0847 3.06698 27.3342 0.316406 23.9174 0.316406C20.5007 0.316406 17.7501 3.06698 17.7501 6.48372C17.7501 9.87896 20.5007 12.651 23.9174 12.651Z" fill="#929392"/>
<path d="M23.9174 12.651C27.3127 12.651 30.0847 9.90045 30.0847 6.48372C30.0847 3.06698 27.3342 0.316406 23.9174 0.316406C20.5007 0.316406 17.7501 3.06698 17.7501 6.48372C17.7501 9.87896 20.5007 12.651 23.9174 12.651Z" stroke="white" stroke-width="0.623178"/>
<path d="M26.1092 10.0072V9.34108H24.605V3.45312H23.8314C23.3586 3.8829 22.9074 4.18375 22.4561 4.33417V5.0433C22.9503 4.95735 23.4231 4.69948 23.8529 4.2697V9.36257H21.9404V10.0287H26.1092V10.0072Z" fill="#FEFEFE"/>
</svg>
