<svg width="21" height="21" viewBox="0 0 21 21" fill="none" xmlns="http://www.w3.org/2000/svg">
<path d="M10.8127 5.29297C10.977 5.29297 11.1345 5.35822 11.2506 5.47435C11.3668 5.59049 11.432 5.74801 11.432 5.91226V9.62799H15.1477C15.312 9.62799 15.4695 9.69324 15.5856 9.80938C15.7018 9.92552 15.767 10.083 15.767 10.2473C15.767 10.4115 15.7018 10.569 15.5856 10.6852C15.4695 10.8013 15.312 10.8666 15.1477 10.8666H11.432V14.5823C11.432 14.7466 11.3668 14.9041 11.2506 15.0202C11.1345 15.1364 10.977 15.2016 10.8127 15.2016C10.6485 15.2016 10.4909 15.1364 10.3748 15.0202C10.2587 14.9041 10.1934 14.7466 10.1934 14.5823V10.8666H6.47769C6.31344 10.8666 6.15592 10.8013 6.03978 10.6852C5.92364 10.569 5.8584 10.4115 5.8584 10.2473C5.8584 10.083 5.92364 9.92552 6.03978 9.80938C6.15592 9.69324 6.31344 9.62799 6.47769 9.62799H10.1934V5.91226C10.1934 5.74801 10.2587 5.59049 10.3748 5.47435C10.4909 5.35822 10.6485 5.29297 10.8127 5.29297Z" fill="#363330"/>
</svg>
