<svg width="38" height="37" viewBox="0 0 38 37" fill="none" xmlns="http://www.w3.org/2000/svg">
<path d="M37.0317 18.3595C37.0317 18.3595 30.2646 5.95312 18.986 5.95312C7.70754 5.95312 0.94043 18.3595 0.94043 18.3595C0.94043 18.3595 7.70754 30.7659 18.986 30.7659C30.2646 30.7659 37.0317 18.3595 37.0317 18.3595ZM3.58637 18.3595C4.67703 16.7018 5.93149 15.1579 7.33083 13.7511C10.2339 10.8435 14.204 8.20883 18.986 8.20883C23.7681 8.20883 27.7359 10.8435 30.6435 13.7511C32.0429 15.1579 33.2973 16.7018 34.388 18.3595C34.2572 18.5557 34.1128 18.7723 33.9481 19.0091C33.1925 20.0919 32.0759 21.5355 30.6435 22.9679C27.7359 25.8755 23.7659 28.5101 18.986 28.5101C14.204 28.5101 10.2362 25.8755 7.32858 22.9679C5.92924 21.561 4.67479 20.0171 3.58411 18.3595H3.58637Z" fill="white"/>
<path d="M18.9858 12.7245C17.4902 12.7245 16.0558 13.3186 14.9982 14.3762C13.9407 15.4337 13.3465 16.8681 13.3465 18.3637C13.3465 19.8593 13.9407 21.2937 14.9982 22.3513C16.0558 23.4088 17.4902 24.003 18.9858 24.003C20.4814 24.003 21.9158 23.4088 22.9733 22.3513C24.0309 21.2937 24.625 19.8593 24.625 18.3637C24.625 16.8681 24.0309 15.4337 22.9733 14.3762C21.9158 13.3186 20.4814 12.7245 18.9858 12.7245ZM11.0908 18.3637C11.0908 16.2698 11.9226 14.2617 13.4032 12.7811C14.8838 11.3005 16.8919 10.4688 18.9858 10.4688C21.0797 10.4688 23.0878 11.3005 24.5684 12.7811C26.0489 14.2617 26.8807 16.2698 26.8807 18.3637C26.8807 20.4576 26.0489 22.4657 24.5684 23.9463C23.0878 25.4269 21.0797 26.2587 18.9858 26.2587C16.8919 26.2587 14.8838 25.4269 13.4032 23.9463C11.9226 22.4657 11.0908 20.4576 11.0908 18.3637Z" fill="white"/>
</svg>
