<svg width="14" height="14" viewBox="0 0 14 14" fill="none" xmlns="http://www.w3.org/2000/svg">
<path d="M8.0857 5.0881C8.0857 4.97667 8.04144 4.86981 7.96265 4.79102C7.88386 4.71223 7.777 4.66797 7.66558 4.66797C7.55415 4.66797 7.44729 4.71223 7.3685 4.79102C7.28971 4.86981 7.24545 4.97667 7.24545 5.0881V6.34848H5.98507C5.87364 6.34848 5.76678 6.39274 5.68799 6.47153C5.6092 6.55032 5.56494 6.65718 5.56494 6.7686C5.56494 6.88003 5.6092 6.98689 5.68799 7.06568C5.76678 7.14447 5.87364 7.18873 5.98507 7.18873H7.24545V8.44911C7.24545 8.56054 7.28971 8.6674 7.3685 8.74619C7.44729 8.82498 7.55415 8.86924 7.66558 8.86924C7.777 8.86924 7.88386 8.82498 7.96265 8.74619C8.04144 8.6674 8.0857 8.56054 8.0857 8.44911V7.18873H9.34609C9.45751 7.18873 9.56437 7.14447 9.64316 7.06568C9.72195 6.98689 9.76621 6.88003 9.76621 6.7686C9.76621 6.65718 9.72195 6.55032 9.64316 6.47153C9.56437 6.39274 9.45751 6.34848 9.34609 6.34848H8.0857V5.0881Z" fill="#363330"/>
<path d="M0.943565 1.30713C0.83214 1.30713 0.725279 1.35139 0.64649 1.43018C0.567701 1.50897 0.523438 1.61583 0.523438 1.72726C0.523438 1.83868 0.567701 1.94554 0.64649 2.02433C0.725279 2.10312 0.83214 2.14738 0.943565 2.14738H1.87625L2.21319 3.49767L3.47189 10.2071C3.48991 10.3034 3.54101 10.3903 3.61634 10.4529C3.69167 10.5155 3.78651 10.5498 3.88445 10.5499H4.72471C4.27901 10.5499 3.85157 10.727 3.53641 11.0421C3.22125 11.3573 3.0442 11.7847 3.0442 12.2304C3.0442 12.6761 3.22125 13.1036 3.53641 13.4187C3.85157 13.7339 4.27901 13.9109 4.72471 13.9109C5.17041 13.9109 5.59785 13.7339 5.91301 13.4187C6.22816 13.1036 6.40522 12.6761 6.40522 12.2304C6.40522 11.7847 6.22816 11.3573 5.91301 11.0421C5.59785 10.727 5.17041 10.5499 4.72471 10.5499H10.6065C10.1608 10.5499 9.73335 10.727 9.41819 11.0421C9.10303 11.3573 8.92598 11.7847 8.92598 12.2304C8.92598 12.6761 9.10303 13.1036 9.41819 13.4187C9.73335 13.7339 10.1608 13.9109 10.6065 13.9109C11.0522 13.9109 11.4796 13.7339 11.7948 13.4187C12.1099 13.1036 12.287 12.6761 12.287 12.2304C12.287 11.7847 12.1099 11.3573 11.7948 11.0421C11.4796 10.727 11.0522 10.5499 10.6065 10.5499H11.4467C11.5447 10.5498 11.6395 10.5155 11.7149 10.4529C11.7902 10.3903 11.8413 10.3034 11.8593 10.2071L13.1197 3.48507C13.131 3.42443 13.1289 3.36204 13.1134 3.30233C13.0979 3.24261 13.0695 3.18704 13.0301 3.13956C12.9907 3.09208 12.9414 3.05385 12.8856 3.02759C12.8297 3.00134 12.7688 2.98769 12.7071 2.98764H2.95177L2.61147 1.62559C2.58879 1.53466 2.53636 1.45392 2.46252 1.39622C2.38868 1.33851 2.29766 1.30715 2.20395 1.30713H0.943565ZM4.23316 9.70967L3.12991 3.82789H12.2013L11.098 9.70967H4.23316ZM5.56496 12.2304C5.56496 12.4533 5.47644 12.667 5.31886 12.8246C5.16128 12.9822 4.94756 13.0707 4.72471 13.0707C4.50186 13.0707 4.28814 12.9822 4.13056 12.8246C3.97298 12.667 3.88445 12.4533 3.88445 12.2304C3.88445 12.0076 3.97298 11.7939 4.13056 11.6363C4.28814 11.4787 4.50186 11.3902 4.72471 11.3902C4.94756 11.3902 5.16128 11.4787 5.31886 11.6363C5.47644 11.7939 5.56496 12.0076 5.56496 12.2304ZM11.4467 12.2304C11.4467 12.4533 11.3582 12.667 11.2006 12.8246C11.0431 12.9822 10.8293 13.0707 10.6065 13.0707C10.3836 13.0707 10.1699 12.9822 10.0123 12.8246C9.85476 12.667 9.76623 12.4533 9.76623 12.2304C9.76623 12.0076 9.85476 11.7939 10.0123 11.6363C10.1699 11.4787 10.3836 11.3902 10.6065 11.3902C10.8293 11.3902 11.0431 11.4787 11.2006 11.6363C11.3582 11.7939 11.4467 12.0076 11.4467 12.2304Z" fill="#363330"/>
</svg>
