<svg width="32" height="33" viewBox="0 0 32 33" fill="none" xmlns="http://www.w3.org/2000/svg">
<path d="M32 16.6045C32 16.6045 26 5.60449 16 5.60449C6 5.60449 0 16.6045 0 16.6045C0 16.6045 6 27.6045 16 27.6045C26 27.6045 32 16.6045 32 16.6045ZM2.346 16.6045C3.31303 15.1347 4.42528 13.7659 5.666 12.5185C8.24 9.94049 11.76 7.60449 16 7.60449C20.24 7.60449 23.758 9.94049 26.336 12.5185C27.5767 13.7659 28.689 15.1347 29.656 16.6045C29.54 16.7785 29.412 16.9705 29.266 17.1805C28.596 18.1405 27.606 19.4205 26.336 20.6905C23.758 23.2685 20.238 25.6045 16 25.6045C11.76 25.6045 8.242 23.2685 5.664 20.6905C4.42329 19.4431 3.31104 18.0742 2.344 16.6045H2.346Z" fill="white"/>
<path d="M16 11.6045C14.6739 11.6045 13.4021 12.1313 12.4645 13.069C11.5268 14.0066 11 15.2784 11 16.6045C11 17.9306 11.5268 19.2023 12.4645 20.14C13.4021 21.0777 14.6739 21.6045 16 21.6045C17.3261 21.6045 18.5979 21.0777 19.5355 20.14C20.4732 19.2023 21 17.9306 21 16.6045C21 15.2784 20.4732 14.0066 19.5355 13.069C18.5979 12.1313 17.3261 11.6045 16 11.6045ZM9 16.6045C9 14.748 9.7375 12.9675 11.0503 11.6547C12.363 10.342 14.1435 9.60449 16 9.60449C17.8565 9.60449 19.637 10.342 20.9497 11.6547C22.2625 12.9675 23 14.748 23 16.6045C23 18.461 22.2625 20.2415 20.9497 21.5542C19.637 22.867 17.8565 23.6045 16 23.6045C14.1435 23.6045 12.363 22.867 11.0503 21.5542C9.7375 20.2415 9 18.461 9 16.6045Z" fill="white"/>
</svg>
