<svg width="16" height="15" viewBox="0 0 16 15" fill="none" xmlns="http://www.w3.org/2000/svg">
<path d="M8.78099 5.49557C8.78099 5.37553 8.73331 5.26041 8.64843 5.17553C8.56355 5.09065 8.44843 5.04297 8.32839 5.04297C8.20835 5.04297 8.09323 5.09065 8.00835 5.17553C7.92347 5.26041 7.87579 5.37553 7.87579 5.49557V6.85338H6.51798C6.39794 6.85338 6.28282 6.90107 6.19794 6.98595C6.11306 7.07082 6.06538 7.18595 6.06538 7.30598C6.06538 7.42602 6.11306 7.54114 6.19794 7.62602C6.28282 7.7109 6.39794 7.75859 6.51798 7.75859H7.87579V9.1164C7.87579 9.23643 7.92347 9.35156 8.00835 9.43643C8.09323 9.52131 8.20835 9.569 8.32839 9.569C8.44843 9.569 8.56355 9.52131 8.64843 9.43643C8.73331 9.35156 8.78099 9.23643 8.78099 9.1164V7.75859H10.1388C10.2588 7.75859 10.374 7.7109 10.4588 7.62602C10.5437 7.54114 10.5914 7.42602 10.5914 7.30598C10.5914 7.18595 10.5437 7.07082 10.4588 6.98595C10.374 6.90107 10.2588 6.85338 10.1388 6.85338H8.78099V5.49557Z" fill="#363330"/>
<path d="M1.08674 1.42188C0.966705 1.42188 0.851584 1.46956 0.766704 1.55444C0.681825 1.63932 0.63414 1.75444 0.63414 1.87448C0.63414 1.99452 0.681825 2.10964 0.766704 2.19452C0.851584 2.2794 0.966705 2.32708 1.08674 2.32708H2.09152L2.45451 3.78175L3.81051 11.0098C3.82992 11.1135 3.88497 11.2072 3.96612 11.2746C4.04728 11.3421 4.14945 11.379 4.25496 11.3791H5.16017C4.68002 11.3791 4.21953 11.5699 3.88002 11.9094C3.5405 12.2489 3.34976 12.7094 3.34976 13.1896C3.34976 13.6697 3.5405 14.1302 3.88002 14.4697C4.21953 14.8092 4.68002 15 5.16017 15C5.64032 15 6.10081 14.8092 6.44032 14.4697C6.77984 14.1302 6.97058 13.6697 6.97058 13.1896C6.97058 12.7094 6.77984 12.2489 6.44032 11.9094C6.10081 11.5699 5.64032 11.3791 5.16017 11.3791H11.4966C11.0165 11.3791 10.556 11.5699 10.2165 11.9094C9.87694 12.2489 9.6862 12.7094 9.6862 13.1896C9.6862 13.6697 9.87694 14.1302 10.2165 14.4697C10.556 14.8092 11.0165 15 11.4966 15C11.9768 15 12.4372 14.8092 12.7768 14.4697C13.1163 14.1302 13.307 13.6697 13.307 13.1896C13.307 12.7094 13.1163 12.2489 12.7768 11.9094C12.4372 11.5699 11.9768 11.3791 11.4966 11.3791H12.4018C12.5073 11.379 12.6095 11.3421 12.6907 11.2746C12.7718 11.2072 12.8269 11.1135 12.8463 11.0098L14.2041 3.76817C14.2163 3.70285 14.214 3.63563 14.1973 3.5713C14.1806 3.50697 14.15 3.4471 14.1076 3.39595C14.0652 3.3448 14.012 3.30362 13.9518 3.27533C13.8917 3.24704 13.8261 3.23235 13.7596 3.23229H3.25019L2.88358 1.76495C2.85914 1.66699 2.80266 1.58001 2.72311 1.51785C2.64356 1.45569 2.54551 1.4219 2.44455 1.42188H1.08674ZM4.63062 10.4739L3.44209 4.13749H13.2147L12.0262 10.4739H4.63062ZM6.06538 13.1896C6.06538 13.4296 5.97001 13.6599 5.80025 13.8296C5.63049 13.9994 5.40025 14.0948 5.16017 14.0948C4.92009 14.0948 4.68985 13.9994 4.52009 13.8296C4.35033 13.6599 4.25496 13.4296 4.25496 13.1896C4.25496 12.9495 4.35033 12.7192 4.52009 12.5495C4.68985 12.3797 4.92009 12.2843 5.16017 12.2843C5.40025 12.2843 5.63049 12.3797 5.80025 12.5495C5.97001 12.7192 6.06538 12.9495 6.06538 13.1896ZM12.4018 13.1896C12.4018 13.4296 12.3064 13.6599 12.1367 13.8296C11.9669 13.9994 11.7367 14.0948 11.4966 14.0948C11.2565 14.0948 11.0263 13.9994 10.8565 13.8296C10.6868 13.6599 10.5914 13.4296 10.5914 13.1896C10.5914 12.9495 10.6868 12.7192 10.8565 12.5495C11.0263 12.3797 11.2565 12.2843 11.4966 12.2843C11.7367 12.2843 11.9669 12.3797 12.1367 12.5495C12.3064 12.7192 12.4018 12.9495 12.4018 13.1896Z" fill="#363330"/>
</svg>
