<svg width="15" height="16" viewBox="0 0 15 16" fill="none" xmlns="http://www.w3.org/2000/svg">
<path d="M8.51918 5.91745C8.51918 5.79741 8.47149 5.68229 8.38661 5.59741C8.30173 5.51253 8.18661 5.46484 8.06657 5.46484C7.94654 5.46484 7.83141 5.51253 7.74653 5.59741C7.66165 5.68229 7.61397 5.79741 7.61397 5.91745V7.27526H6.25616C6.13612 7.27526 6.021 7.32294 5.93612 7.40782C5.85124 7.4927 5.80356 7.60782 5.80356 7.72786C5.80356 7.8479 5.85124 7.96302 5.93612 8.0479C6.021 8.13278 6.13612 8.18046 6.25616 8.18046H7.61397V9.53827C7.61397 9.65831 7.66165 9.77343 7.74653 9.85831C7.83141 9.94319 7.94654 9.99087 8.06657 9.99087C8.18661 9.99087 8.30173 9.94319 8.38661 9.85831C8.47149 9.77343 8.51918 9.65831 8.51918 9.53827V8.18046H9.87699C9.99702 8.18046 10.1121 8.13278 10.197 8.0479C10.2819 7.96302 10.3296 7.8479 10.3296 7.72786C10.3296 7.60782 10.2819 7.4927 10.197 7.40782C10.1121 7.32294 9.99702 7.27526 9.87699 7.27526H8.51918V5.91745Z" fill="#363330"/>
<path d="M0.824917 1.84375C0.70488 1.84375 0.589758 1.89143 0.504879 1.97631C0.419999 2.06119 0.372314 2.17632 0.372314 2.29635C0.372314 2.41639 0.419999 2.53151 0.504879 2.61639C0.589758 2.70127 0.70488 2.74896 0.824917 2.74896H1.8297L2.19268 4.20362L3.54868 11.4317C3.5681 11.5354 3.62314 11.6291 3.7043 11.6965C3.78545 11.764 3.88762 11.8009 3.99314 11.801H4.89834C4.41819 11.801 3.95771 11.9918 3.61819 12.3313C3.27867 12.6708 3.08793 13.1313 3.08793 13.6114C3.08793 14.0916 3.27867 14.5521 3.61819 14.8916C3.95771 15.2311 4.41819 15.4218 4.89834 15.4218C5.3785 15.4218 5.83898 15.2311 6.1785 14.8916C6.51802 14.5521 6.70876 14.0916 6.70876 13.6114C6.70876 13.1313 6.51802 12.6708 6.1785 12.3313C5.83898 11.9918 5.3785 11.801 4.89834 11.801H11.2348C10.7546 11.801 10.2942 11.9918 9.95463 12.3313C9.61511 12.6708 9.42437 13.1313 9.42437 13.6114C9.42437 14.0916 9.61511 14.5521 9.95463 14.8916C10.2942 15.2311 10.7546 15.4218 11.2348 15.4218C11.7149 15.4218 12.1754 15.2311 12.5149 14.8916C12.8545 14.5521 13.0452 14.0916 13.0452 13.6114C13.0452 13.1313 12.8545 12.6708 12.5149 12.3313C12.1754 11.9918 11.7149 11.801 11.2348 11.801H12.14C12.2455 11.8009 12.3477 11.764 12.4288 11.6965C12.51 11.6291 12.565 11.5354 12.5844 11.4317L13.9423 4.19004C13.9545 4.12472 13.9522 4.05751 13.9355 3.99318C13.9188 3.92885 13.8882 3.86898 13.8458 3.81783C13.8033 3.76667 13.7502 3.72549 13.69 3.69721C13.6299 3.66892 13.5643 3.65422 13.4978 3.65416H2.98836L2.62175 2.18682C2.59732 2.08887 2.54084 2.00189 2.46129 1.93972C2.38174 1.87756 2.28369 1.84378 2.18273 1.84375H0.824917ZM4.3688 10.8958L3.18026 4.55937H12.9529L11.7643 10.8958H4.3688ZM5.80355 13.6114C5.80355 13.8515 5.70818 14.0817 5.53842 14.2515C5.36866 14.4213 5.13842 14.5166 4.89834 14.5166C4.65827 14.5166 4.42803 14.4213 4.25827 14.2515C4.08851 14.0817 3.99314 13.8515 3.99314 13.6114C3.99314 13.3714 4.08851 13.1411 4.25827 12.9714C4.42803 12.8016 4.65827 12.7062 4.89834 12.7062C5.13842 12.7062 5.36866 12.8016 5.53842 12.9714C5.70818 13.1411 5.80355 13.3714 5.80355 13.6114ZM12.14 13.6114C12.14 13.8515 12.0446 14.0817 11.8749 14.2515C11.7051 14.4213 11.4749 14.5166 11.2348 14.5166C10.9947 14.5166 10.7645 14.4213 10.5947 14.2515C10.425 14.0817 10.3296 13.8515 10.3296 13.6114C10.3296 13.3714 10.425 13.1411 10.5947 12.9714C10.7645 12.8016 10.9947 12.7062 11.2348 12.7062C11.4749 12.7062 11.7051 12.8016 11.8749 12.9714C12.0446 13.1411 12.14 13.3714 12.14 13.6114Z" fill="#363330"/>
</svg>
