<svg width="16" height="16" viewBox="0 0 16 16" fill="none" xmlns="http://www.w3.org/2000/svg">
<path d="M8.75355 5.9194C8.75355 5.79936 8.70587 5.68424 8.62099 5.59936C8.53611 5.51448 8.42099 5.4668 8.30095 5.4668C8.18091 5.4668 8.06579 5.51448 7.98091 5.59936C7.89603 5.68424 7.84835 5.79936 7.84835 5.9194V7.27721H6.49054C6.3705 7.27721 6.25538 7.32489 6.1705 7.40977C6.08562 7.49465 6.03793 7.60977 6.03793 7.72981C6.03793 7.84985 6.08562 7.96497 6.1705 8.04985C6.25538 8.13473 6.3705 8.18242 6.49054 8.18242H7.84835V9.54022C7.84835 9.66026 7.89603 9.77538 7.98091 9.86026C8.06579 9.94514 8.18091 9.99283 8.30095 9.99283C8.42099 9.99283 8.53611 9.94514 8.62099 9.86026C8.70587 9.77538 8.75355 9.66026 8.75355 9.54022V8.18242H10.1114C10.2314 8.18242 10.3465 8.13473 10.4314 8.04985C10.5163 7.96497 10.564 7.84985 10.564 7.72981C10.564 7.60977 10.5163 7.49465 10.4314 7.40977C10.3465 7.32489 10.2314 7.27721 10.1114 7.27721H8.75355V5.9194Z" fill="#363330"/>
<path d="M1.05929 1.8457C0.939255 1.8457 0.824133 1.89339 0.739254 1.97827C0.654374 2.06315 0.606689 2.17827 0.606689 2.29831C0.606689 2.41834 0.654374 2.53347 0.739254 2.61834C0.824133 2.70322 0.939255 2.75091 1.05929 2.75091H2.06407L2.42706 4.20558L3.78306 11.4336C3.80247 11.5374 3.85752 11.631 3.93867 11.6985C4.01983 11.7659 4.122 11.8029 4.22751 11.803H5.13272C4.65257 11.803 4.19208 11.9937 3.85256 12.3332C3.51305 12.6727 3.32231 13.1332 3.32231 13.6134C3.32231 14.0935 3.51305 14.554 3.85256 14.8935C4.19208 15.2331 4.65257 15.4238 5.13272 15.4238C5.61287 15.4238 6.07336 15.2331 6.41287 14.8935C6.75239 14.554 6.94313 14.0935 6.94313 13.6134C6.94313 13.1332 6.75239 12.6727 6.41287 12.3332C6.07336 11.9937 5.61287 11.803 5.13272 11.803H11.4692C10.989 11.803 10.5285 11.9937 10.189 12.3332C9.84949 12.6727 9.65875 13.1332 9.65875 13.6134C9.65875 14.0935 9.84949 14.554 10.189 14.8935C10.5285 15.2331 10.989 15.4238 11.4692 15.4238C11.9493 15.4238 12.4098 15.2331 12.7493 14.8935C13.0888 14.554 13.2796 14.0935 13.2796 13.6134C13.2796 13.1332 13.0888 12.6727 12.7493 12.3332C12.4098 11.9937 11.9493 11.803 11.4692 11.803H12.3744C12.4799 11.8029 12.5821 11.7659 12.6632 11.6985C12.7444 11.631 12.7994 11.5374 12.8188 11.4336L14.1766 4.192C14.1889 4.12667 14.1866 4.05946 14.1699 3.99513C14.1532 3.9308 14.1226 3.87093 14.0801 3.81978C14.0377 3.76863 13.9845 3.72744 13.9244 3.69916C13.8643 3.67087 13.7986 3.65618 13.7322 3.65612H3.22273L2.85613 2.18878C2.83169 2.09082 2.77521 2.00384 2.69566 1.94168C2.61611 1.87951 2.51806 1.84573 2.4171 1.8457H1.05929ZM4.60317 10.8978L3.41464 4.56132H13.1872L11.9987 10.8978H4.60317ZM6.03793 13.6134C6.03793 13.8535 5.94256 14.0837 5.7728 14.2535C5.60304 14.4232 5.3728 14.5186 5.13272 14.5186C4.89264 14.5186 4.6624 14.4232 4.49264 14.2535C4.32288 14.0837 4.22751 13.8535 4.22751 13.6134C4.22751 13.3733 4.32288 13.1431 4.49264 12.9733C4.6624 12.8035 4.89264 12.7082 5.13272 12.7082C5.3728 12.7082 5.60304 12.8035 5.7728 12.9733C5.94256 13.1431 6.03793 13.3733 6.03793 13.6134ZM12.3744 13.6134C12.3744 13.8535 12.279 14.0837 12.1092 14.2535C11.9395 14.4232 11.7092 14.5186 11.4692 14.5186C11.2291 14.5186 10.9988 14.4232 10.8291 14.2535C10.6593 14.0837 10.564 13.8535 10.564 13.6134C10.564 13.3733 10.6593 13.1431 10.8291 12.9733C10.9988 12.8035 11.2291 12.7082 11.4692 12.7082C11.7092 12.7082 11.9395 12.8035 12.1092 12.9733C12.279 13.1431 12.3744 13.3733 12.3744 13.6134Z" fill="#363330"/>
</svg>
