<svg width="16" height="15" viewBox="0 0 16 15" fill="none" xmlns="http://www.w3.org/2000/svg">
<path d="M8.78099 4.99557C8.78099 4.87553 8.73331 4.76041 8.64843 4.67553C8.56355 4.59065 8.44843 4.54297 8.32839 4.54297C8.20835 4.54297 8.09323 4.59065 8.00835 4.67553C7.92347 4.76041 7.87579 4.87553 7.87579 4.99557V6.35338H6.51798C6.39794 6.35338 6.28282 6.40107 6.19794 6.48595C6.11306 6.57082 6.06538 6.68595 6.06538 6.80598C6.06538 6.92602 6.11306 7.04114 6.19794 7.12602C6.28282 7.2109 6.39794 7.25859 6.51798 7.25859H7.87579V8.6164C7.87579 8.73643 7.92347 8.85156 8.00835 8.93643C8.09323 9.02131 8.20835 9.069 8.32839 9.069C8.44843 9.069 8.56355 9.02131 8.64843 8.93643C8.73331 8.85156 8.78099 8.73643 8.78099 8.6164V7.25859H10.1388C10.2588 7.25859 10.374 7.2109 10.4588 7.12602C10.5437 7.04114 10.5914 6.92602 10.5914 6.80598C10.5914 6.68595 10.5437 6.57082 10.4588 6.48595C10.374 6.40107 10.2588 6.35338 10.1388 6.35338H8.78099V4.99557Z" fill="#363330"/>
<path d="M1.08674 0.921875C0.966705 0.921875 0.851584 0.96956 0.766704 1.05444C0.681825 1.13932 0.63414 1.25444 0.63414 1.37448C0.63414 1.49452 0.681825 1.60964 0.766704 1.69452C0.851584 1.7794 0.966705 1.82708 1.08674 1.82708H2.09152L2.45451 3.28175L3.81051 10.5098C3.82992 10.6135 3.88497 10.7072 3.96612 10.7746C4.04728 10.8421 4.14945 10.879 4.25496 10.8791H5.16017C4.68002 10.8791 4.21953 11.0699 3.88002 11.4094C3.5405 11.7489 3.34976 12.2094 3.34976 12.6896C3.34976 13.1697 3.5405 13.6302 3.88002 13.9697C4.21953 14.3092 4.68002 14.5 5.16017 14.5C5.64032 14.5 6.10081 14.3092 6.44032 13.9697C6.77984 13.6302 6.97058 13.1697 6.97058 12.6896C6.97058 12.2094 6.77984 11.7489 6.44032 11.4094C6.10081 11.0699 5.64032 10.8791 5.16017 10.8791H11.4966C11.0165 10.8791 10.556 11.0699 10.2165 11.4094C9.87694 11.7489 9.6862 12.2094 9.6862 12.6896C9.6862 13.1697 9.87694 13.6302 10.2165 13.9697C10.556 14.3092 11.0165 14.5 11.4966 14.5C11.9768 14.5 12.4372 14.3092 12.7768 13.9697C13.1163 13.6302 13.307 13.1697 13.307 12.6896C13.307 12.2094 13.1163 11.7489 12.7768 11.4094C12.4372 11.0699 11.9768 10.8791 11.4966 10.8791H12.4018C12.5073 10.879 12.6095 10.8421 12.6907 10.7746C12.7718 10.7072 12.8269 10.6135 12.8463 10.5098L14.2041 3.26817C14.2163 3.20285 14.214 3.13563 14.1973 3.0713C14.1806 3.00697 14.15 2.9471 14.1076 2.89595C14.0652 2.8448 14.012 2.80362 13.9518 2.77533C13.8917 2.74704 13.8261 2.73235 13.7596 2.73229H3.25019L2.88358 1.26495C2.85914 1.16699 2.80266 1.08001 2.72311 1.01785C2.64356 0.955685 2.54551 0.921903 2.44455 0.921875H1.08674ZM4.63062 9.97394L3.44209 3.63749H13.2147L12.0262 9.97394H4.63062ZM6.06538 12.6896C6.06538 12.9296 5.97001 13.1599 5.80025 13.3296C5.63049 13.4994 5.40025 13.5948 5.16017 13.5948C4.92009 13.5948 4.68985 13.4994 4.52009 13.3296C4.35033 13.1599 4.25496 12.9296 4.25496 12.6896C4.25496 12.4495 4.35033 12.2192 4.52009 12.0495C4.68985 11.8797 4.92009 11.7843 5.16017 11.7843C5.40025 11.7843 5.63049 11.8797 5.80025 12.0495C5.97001 12.2192 6.06538 12.4495 6.06538 12.6896ZM12.4018 12.6896C12.4018 12.9296 12.3064 13.1599 12.1367 13.3296C11.9669 13.4994 11.7367 13.5948 11.4966 13.5948C11.2565 13.5948 11.0263 13.4994 10.8565 13.3296C10.6868 13.1599 10.5914 12.9296 10.5914 12.6896C10.5914 12.4495 10.6868 12.2192 10.8565 12.0495C11.0263 11.8797 11.2565 11.7843 11.4966 11.7843C11.7367 11.7843 11.9669 11.8797 12.1367 12.0495C12.3064 12.2192 12.4018 12.4495 12.4018 12.6896Z" fill="#363330"/>
</svg>
