<svg width="15" height="16" viewBox="0 0 15 16" fill="none" xmlns="http://www.w3.org/2000/svg">
<path d="M8.25354 5.91745C8.25354 5.79741 8.20586 5.68229 8.12098 5.59741C8.0361 5.51253 7.92098 5.46484 7.80094 5.46484C7.6809 5.46484 7.56578 5.51253 7.4809 5.59741C7.39602 5.68229 7.34834 5.79741 7.34834 5.91745V7.27526H5.99053C5.87049 7.27526 5.75537 7.32294 5.67049 7.40782C5.58561 7.4927 5.53793 7.60782 5.53793 7.72786C5.53793 7.8479 5.58561 7.96302 5.67049 8.0479C5.75537 8.13278 5.87049 8.18046 5.99053 8.18046H7.34834V9.53827C7.34834 9.65831 7.39602 9.77343 7.4809 9.85831C7.56578 9.94319 7.6809 9.99087 7.80094 9.99087C7.92098 9.99087 8.0361 9.94319 8.12098 9.85831C8.20586 9.77343 8.25354 9.65831 8.25354 9.53827V8.18046H9.61135C9.73139 8.18046 9.84651 8.13278 9.93139 8.0479C10.0163 7.96302 10.064 7.8479 10.064 7.72786C10.064 7.60782 10.0163 7.4927 9.93139 7.40782C9.84651 7.32294 9.73139 7.27526 9.61135 7.27526H8.25354V5.91745Z" fill="#363330"/>
<path d="M0.559292 1.84375C0.439255 1.84375 0.324133 1.89143 0.239254 1.97631C0.154374 2.06119 0.106689 2.17632 0.106689 2.29635C0.106689 2.41639 0.154374 2.53151 0.239254 2.61639C0.324133 2.70127 0.439255 2.74896 0.559292 2.74896H1.56407L1.92706 4.20362L3.28306 11.4317C3.30247 11.5354 3.35752 11.6291 3.43867 11.6965C3.51983 11.764 3.622 11.8009 3.72751 11.801H4.63272C4.15257 11.801 3.69208 11.9918 3.35256 12.3313C3.01305 12.6708 2.82231 13.1313 2.82231 13.6114C2.82231 14.0916 3.01305 14.5521 3.35256 14.8916C3.69208 15.2311 4.15257 15.4218 4.63272 15.4218C5.11287 15.4218 5.57336 15.2311 5.91287 14.8916C6.25239 14.5521 6.44313 14.0916 6.44313 13.6114C6.44313 13.1313 6.25239 12.6708 5.91287 12.3313C5.57336 11.9918 5.11287 11.801 4.63272 11.801H10.9692C10.489 11.801 10.0285 11.9918 9.68901 12.3313C9.34949 12.6708 9.15875 13.1313 9.15875 13.6114C9.15875 14.0916 9.34949 14.5521 9.68901 14.8916C10.0285 15.2311 10.489 15.4218 10.9692 15.4218C11.4493 15.4218 11.9098 15.2311 12.2493 14.8916C12.5888 14.5521 12.7796 14.0916 12.7796 13.6114C12.7796 13.1313 12.5888 12.6708 12.2493 12.3313C11.9098 11.9918 11.4493 11.801 10.9692 11.801H11.8744C11.9799 11.8009 12.0821 11.764 12.1632 11.6965C12.2444 11.6291 12.2994 11.5354 12.3188 11.4317L13.6766 4.19004C13.6889 4.12472 13.6866 4.05751 13.6699 3.99318C13.6532 3.92885 13.6226 3.86898 13.5801 3.81783C13.5377 3.76667 13.4845 3.72549 13.4244 3.69721C13.3643 3.66892 13.2986 3.65422 13.2322 3.65416H2.72273L2.35613 2.18682C2.33169 2.08887 2.27521 2.00189 2.19566 1.93972C2.11611 1.87756 2.01806 1.84378 1.9171 1.84375H0.559292ZM4.10317 10.8958L2.91464 4.55937H12.6872L11.4987 10.8958H4.10317ZM5.53793 13.6114C5.53793 13.8515 5.44256 14.0817 5.2728 14.2515C5.10304 14.4213 4.8728 14.5166 4.63272 14.5166C4.39264 14.5166 4.1624 14.4213 3.99264 14.2515C3.82288 14.0817 3.72751 13.8515 3.72751 13.6114C3.72751 13.3714 3.82288 13.1411 3.99264 12.9714C4.1624 12.8016 4.39264 12.7062 4.63272 12.7062C4.8728 12.7062 5.10304 12.8016 5.2728 12.9714C5.44256 13.1411 5.53793 13.3714 5.53793 13.6114ZM11.8744 13.6114C11.8744 13.8515 11.779 14.0817 11.6092 14.2515C11.4395 14.4213 11.2092 14.5166 10.9692 14.5166C10.7291 14.5166 10.4988 14.4213 10.3291 14.2515C10.1593 14.0817 10.064 13.8515 10.064 13.6114C10.064 13.3714 10.1593 13.1411 10.3291 12.9714C10.4988 12.8016 10.7291 12.7062 10.9692 12.7062C11.2092 12.7062 11.4395 12.8016 11.6092 12.9714C11.779 13.1411 11.8744 13.3714 11.8744 13.6114Z" fill="#363330"/>
</svg>
