<svg width="15" height="15" viewBox="0 0 15 15" fill="none" xmlns="http://www.w3.org/2000/svg">
<path d="M8.25355 4.99557C8.25355 4.87553 8.20587 4.76041 8.12099 4.67553C8.03611 4.59065 7.92099 4.54297 7.80095 4.54297C7.68091 4.54297 7.56579 4.59065 7.48091 4.67553C7.39603 4.76041 7.34835 4.87553 7.34835 4.99557V6.35338H5.99054C5.8705 6.35338 5.75538 6.40107 5.6705 6.48595C5.58562 6.57082 5.53793 6.68595 5.53793 6.80598C5.53793 6.92602 5.58562 7.04114 5.6705 7.12602C5.75538 7.2109 5.8705 7.25859 5.99054 7.25859H7.34835V8.6164C7.34835 8.73643 7.39603 8.85156 7.48091 8.93643C7.56579 9.02131 7.68091 9.069 7.80095 9.069C7.92099 9.069 8.03611 9.02131 8.12099 8.93643C8.20587 8.85156 8.25355 8.73643 8.25355 8.6164V7.25859H9.61136C9.7314 7.25859 9.84652 7.2109 9.9314 7.12602C10.0163 7.04114 10.064 6.92602 10.064 6.80598C10.064 6.68595 10.0163 6.57082 9.9314 6.48595C9.84652 6.40107 9.7314 6.35338 9.61136 6.35338H8.25355V4.99557Z" fill="#363330"/>
<path d="M0.559292 0.921875C0.439255 0.921875 0.324133 0.96956 0.239254 1.05444C0.154374 1.13932 0.106689 1.25444 0.106689 1.37448C0.106689 1.49452 0.154374 1.60964 0.239254 1.69452C0.324133 1.7794 0.439255 1.82708 0.559292 1.82708H1.56407L1.92706 3.28175L3.28306 10.5098C3.30247 10.6135 3.35752 10.7072 3.43867 10.7746C3.51983 10.8421 3.622 10.879 3.72751 10.8791H4.63272C4.15257 10.8791 3.69208 11.0699 3.35256 11.4094C3.01305 11.7489 2.82231 12.2094 2.82231 12.6896C2.82231 13.1697 3.01305 13.6302 3.35256 13.9697C3.69208 14.3092 4.15257 14.5 4.63272 14.5C5.11287 14.5 5.57336 14.3092 5.91287 13.9697C6.25239 13.6302 6.44313 13.1697 6.44313 12.6896C6.44313 12.2094 6.25239 11.7489 5.91287 11.4094C5.57336 11.0699 5.11287 10.8791 4.63272 10.8791H10.9692C10.489 10.8791 10.0285 11.0699 9.68901 11.4094C9.34949 11.7489 9.15875 12.2094 9.15875 12.6896C9.15875 13.1697 9.34949 13.6302 9.68901 13.9697C10.0285 14.3092 10.489 14.5 10.9692 14.5C11.4493 14.5 11.9098 14.3092 12.2493 13.9697C12.5888 13.6302 12.7796 13.1697 12.7796 12.6896C12.7796 12.2094 12.5888 11.7489 12.2493 11.4094C11.9098 11.0699 11.4493 10.8791 10.9692 10.8791H11.8744C11.9799 10.879 12.0821 10.8421 12.1632 10.7746C12.2444 10.7072 12.2994 10.6135 12.3188 10.5098L13.6766 3.26817C13.6889 3.20285 13.6866 3.13563 13.6699 3.0713C13.6532 3.00697 13.6226 2.9471 13.5801 2.89595C13.5377 2.8448 13.4845 2.80362 13.4244 2.77533C13.3643 2.74704 13.2986 2.73235 13.2322 2.73229H2.72273L2.35613 1.26495C2.33169 1.16699 2.27521 1.08001 2.19566 1.01785C2.11611 0.955685 2.01806 0.921903 1.9171 0.921875H0.559292ZM4.10317 9.97394L2.91464 3.63749H12.6872L11.4987 9.97394H4.10317ZM5.53793 12.6896C5.53793 12.9296 5.44256 13.1599 5.2728 13.3296C5.10304 13.4994 4.8728 13.5948 4.63272 13.5948C4.39264 13.5948 4.1624 13.4994 3.99264 13.3296C3.82288 13.1599 3.72751 12.9296 3.72751 12.6896C3.72751 12.4495 3.82288 12.2192 3.99264 12.0495C4.1624 11.8797 4.39264 11.7843 4.63272 11.7843C4.8728 11.7843 5.10304 11.8797 5.2728 12.0495C5.44256 12.2192 5.53793 12.4495 5.53793 12.6896ZM11.8744 12.6896C11.8744 12.9296 11.779 13.1599 11.6092 13.3296C11.4395 13.4994 11.2092 13.5948 10.9692 13.5948C10.7291 13.5948 10.4988 13.4994 10.3291 13.3296C10.1593 13.1599 10.064 12.9296 10.064 12.6896C10.064 12.4495 10.1593 12.2192 10.3291 12.0495C10.4988 11.8797 10.7291 11.7843 10.9692 11.7843C11.2092 11.7843 11.4395 11.8797 11.6092 12.0495C11.779 12.2192 11.8744 12.4495 11.8744 12.6896Z" fill="#363330"/>
</svg>
