<svg width="13" height="13" viewBox="0 0 13 13" fill="none" xmlns="http://www.w3.org/2000/svg">
<path d="M6.73438 0.566406C6.92791 0.566406 7.11352 0.643289 7.25038 0.780141C7.38723 0.916993 7.46411 1.1026 7.46411 1.29614V5.67456H11.8425C12.0361 5.67456 12.2217 5.75144 12.3585 5.8883C12.4954 6.02515 12.5723 6.21076 12.5723 6.4043C12.5723 6.59784 12.4954 6.78345 12.3585 6.9203C12.2217 7.05715 12.0361 7.13403 11.8425 7.13403H7.46411V11.5125C7.46411 11.706 7.38723 11.8916 7.25038 12.0285C7.11352 12.1653 6.92791 12.2422 6.73438 12.2422C6.54084 12.2422 6.35523 12.1653 6.21837 12.0285C6.08152 11.8916 6.00464 11.706 6.00464 11.5125V7.13403H1.62622C1.43268 7.13403 1.24707 7.05715 1.11022 6.9203C0.973367 6.78345 0.896484 6.59784 0.896484 6.4043C0.896484 6.21076 0.973367 6.02515 1.11022 5.8883C1.24707 5.75144 1.43268 5.67456 1.62622 5.67456H6.00464V1.29614C6.00464 1.1026 6.08152 0.916993 6.21837 0.780141C6.35523 0.643289 6.54084 0.566406 6.73438 0.566406V0.566406Z" fill="#363330"/>
</svg>
