<svg width="13" height="13" viewBox="0 0 13 13" fill="none" xmlns="http://www.w3.org/2000/svg">
<path d="M6.73438 0.867188C6.92791 0.867188 7.11352 0.94407 7.25038 1.08092C7.38723 1.21777 7.46411 1.40339 7.46411 1.59692V5.97534H11.8425C12.0361 5.97534 12.2217 6.05222 12.3585 6.18908C12.4954 6.32593 12.5723 6.51154 12.5723 6.70508C12.5723 6.89862 12.4954 7.08423 12.3585 7.22108C12.2217 7.35793 12.0361 7.43481 11.8425 7.43481H7.46411V11.8132C7.46411 12.0068 7.38723 12.1924 7.25038 12.3292C7.11352 12.4661 6.92791 12.543 6.73438 12.543C6.54084 12.543 6.35523 12.4661 6.21837 12.3292C6.08152 12.1924 6.00464 12.0068 6.00464 11.8132V7.43481H1.62622C1.43268 7.43481 1.24707 7.35793 1.11022 7.22108C0.973367 7.08423 0.896484 6.89862 0.896484 6.70508C0.896484 6.51154 0.973367 6.32593 1.11022 6.18908C1.24707 6.05222 1.43268 5.97534 1.62622 5.97534H6.00464V1.59692C6.00464 1.40339 6.08152 1.21777 6.21837 1.08092C6.35523 0.94407 6.54084 0.867188 6.73438 0.867188V0.867188Z" fill="#363330"/>
</svg>
