<svg width="13" height="12" viewBox="0 0 13 12" fill="none" xmlns="http://www.w3.org/2000/svg">
<path d="M6.73438 0.164062C6.92791 0.164063 7.11352 0.240945 7.25038 0.377797C7.38723 0.514649 7.46411 0.700261 7.46411 0.893799V5.27222H11.8425C12.0361 5.27222 12.2217 5.3491 12.3585 5.48595C12.4954 5.6228 12.5723 5.80841 12.5723 6.00195C12.5723 6.19549 12.4954 6.3811 12.3585 6.51795C12.2217 6.65481 12.0361 6.73169 11.8425 6.73169H7.46411V11.1101C7.46411 11.3036 7.38723 11.4893 7.25038 11.6261C7.11352 11.763 6.92791 11.8398 6.73438 11.8398C6.54084 11.8398 6.35523 11.763 6.21837 11.6261C6.08152 11.4893 6.00464 11.3036 6.00464 11.1101V6.73169H1.62622C1.43268 6.73169 1.24707 6.65481 1.11022 6.51795C0.973367 6.3811 0.896484 6.19549 0.896484 6.00195C0.896484 5.80841 0.973367 5.6228 1.11022 5.48595C1.24707 5.3491 1.43268 5.27222 1.62622 5.27222H6.00464V0.893799C6.00464 0.700261 6.08152 0.514649 6.21837 0.377797C6.35523 0.240945 6.54084 0.164063 6.73438 0.164063V0.164062Z" fill="#363330"/>
</svg>
