<svg width="13" height="12" viewBox="0 0 13 12" fill="none" xmlns="http://www.w3.org/2000/svg">
<path d="M6.73438 0.265625C6.92791 0.265625 7.11352 0.342508 7.25038 0.47936C7.38723 0.616212 7.46411 0.801823 7.46411 0.995361V5.37378H11.8425C12.0361 5.37378 12.2217 5.45066 12.3585 5.58751C12.4954 5.72437 12.5723 5.90998 12.5723 6.10352C12.5723 6.29705 12.4954 6.48267 12.3585 6.61952C12.2217 6.75637 12.0361 6.83325 11.8425 6.83325H7.46411V11.2117C7.46411 11.4052 7.38723 11.5908 7.25038 11.7277C7.11352 11.8645 6.92791 11.9414 6.73438 11.9414C6.54084 11.9414 6.35523 11.8645 6.21837 11.7277C6.08152 11.5908 6.00464 11.4052 6.00464 11.2117V6.83325H1.62622C1.43268 6.83325 1.24707 6.75637 1.11022 6.61952C0.973367 6.48267 0.896484 6.29705 0.896484 6.10352C0.896484 5.90998 0.973367 5.72437 1.11022 5.58751C1.24707 5.45066 1.43268 5.37378 1.62622 5.37378H6.00464V0.995361C6.00464 0.801823 6.08152 0.616212 6.21837 0.47936C6.35523 0.342508 6.54084 0.265625 6.73438 0.265625V0.265625Z" fill="#363330"/>
</svg>
