<svg width="13" height="13" viewBox="0 0 13 13" fill="none" xmlns="http://www.w3.org/2000/svg">
<path d="M6.73438 0.765625C6.92791 0.765625 7.11352 0.842508 7.25038 0.97936C7.38723 1.11621 7.46411 1.30182 7.46411 1.49536V5.87378H11.8425C12.0361 5.87378 12.2217 5.95066 12.3585 6.08751C12.4954 6.22437 12.5723 6.40998 12.5723 6.60352C12.5723 6.79705 12.4954 6.98267 12.3585 7.11952C12.2217 7.25637 12.0361 7.33325 11.8425 7.33325H7.46411V11.7117C7.46411 11.9052 7.38723 12.0908 7.25038 12.2277C7.11352 12.3645 6.92791 12.4414 6.73438 12.4414C6.54084 12.4414 6.35523 12.3645 6.21837 12.2277C6.08152 12.0908 6.00464 11.9052 6.00464 11.7117V7.33325H1.62622C1.43268 7.33325 1.24707 7.25637 1.11022 7.11952C0.973367 6.98267 0.896484 6.79705 0.896484 6.60352C0.896484 6.40998 0.973367 6.22437 1.11022 6.08751C1.24707 5.95066 1.43268 5.87378 1.62622 5.87378H6.00464V1.49536C6.00464 1.30182 6.08152 1.11621 6.21837 0.97936C6.35523 0.842508 6.54084 0.765625 6.73438 0.765625V0.765625Z" fill="#363330"/>
</svg>
