<svg width="13" height="13" viewBox="0 0 13 13" fill="none" xmlns="http://www.w3.org/2000/svg">
<path d="M6.73438 0.464844C6.92791 0.464844 7.11352 0.541726 7.25038 0.678579C7.38723 0.815431 7.46411 1.00104 7.46411 1.19458V5.573H11.8425C12.0361 5.573 12.2217 5.64988 12.3585 5.78673C12.4954 5.92358 12.5723 6.1092 12.5723 6.30273C12.5723 6.49627 12.4954 6.68188 12.3585 6.81874C12.2217 6.95559 12.0361 7.03247 11.8425 7.03247H7.46411V11.4109C7.46411 11.6044 7.38723 11.79 7.25038 11.9269C7.11352 12.0637 6.92791 12.1406 6.73438 12.1406C6.54084 12.1406 6.35523 12.0637 6.21837 11.9269C6.08152 11.79 6.00464 11.6044 6.00464 11.4109V7.03247H1.62622C1.43268 7.03247 1.24707 6.95559 1.11022 6.81874C0.973367 6.68188 0.896484 6.49627 0.896484 6.30273C0.896484 6.1092 0.973367 5.92358 1.11022 5.78673C1.24707 5.64988 1.43268 5.573 1.62622 5.573H6.00464V1.19458C6.00464 1.00104 6.08152 0.815431 6.21837 0.678579C6.35523 0.541726 6.54084 0.464844 6.73438 0.464844V0.464844Z" fill="#363330"/>
</svg>
