<svg width="55" height="53" viewBox="0 0 55 53" fill="none" xmlns="http://www.w3.org/2000/svg">
<path d="M7.69638 10.4202C7.54655 10.4202 7.39671 10.3902 7.24687 10.3902C6.55762 10.2704 6.07815 10.0306 5.89834 9.64104C5.71854 9.28143 5.77847 8.83192 6.04818 8.2925C6.49769 7.42345 6.97717 7.00391 7.48661 7.00391C7.81625 7.00391 8.17586 7.15374 8.65534 7.45342C8.83514 7.57329 9.55436 7.9329 9.64426 8.41237C9.76413 8.89185 9.28466 9.91074 8.95501 10.0905C8.95501 10.0905 8.86511 10.1505 8.80518 10.1804L8.77521 10.2104C8.74524 10.2404 8.71528 10.2404 8.68531 10.2404C8.68531 10.2404 8.65534 10.2404 8.65534 10.2704H8.62537C8.59541 10.2704 8.56544 10.3003 8.53547 10.3003C8.5055 10.3003 8.47554 10.3003 8.47554 10.3303C8.44557 10.3303 8.4156 10.3603 8.38563 10.3603C8.35567 10.3603 8.05599 10.4202 8.02603 10.4202H7.99606C7.99606 10.4202 7.96609 10.4202 7.93612 10.4202C7.87619 10.4202 7.84622 10.4202 7.78629 10.4202H7.72635H7.69638Z" fill="#929292"/>
<path d="M28.4633 10.4202C28.6131 10.4202 28.763 10.3902 28.9128 10.3902C29.6021 10.2704 30.0815 10.0306 30.2613 9.64104C30.4412 9.28143 30.3812 8.83192 30.1115 8.2925C29.662 7.42345 29.1825 7.00391 28.6731 7.00391C28.3434 7.00391 27.9838 7.15374 27.5043 7.45342C27.3245 7.57329 26.6053 7.9329 26.5154 8.41237C26.3956 8.89185 26.875 9.91074 27.2047 10.0905C27.2047 10.0905 27.2946 10.1505 27.3545 10.1804L27.3845 10.2104C27.4144 10.2404 27.4444 10.2404 27.4744 10.2404C27.4744 10.2404 27.5043 10.2404 27.5043 10.2704H27.5343C27.5643 10.2704 27.5942 10.3003 27.6242 10.3003C27.6542 10.3003 27.6841 10.3003 27.6841 10.3303C27.7141 10.3303 27.7441 10.3603 27.7741 10.3603C27.804 10.3603 28.1037 10.4202 28.1337 10.4202H28.1636C28.1936 10.4202 28.1936 10.4202 28.2236 10.4202C28.2835 10.4202 28.3135 10.4202 28.3734 10.4202H28.4333H28.4633Z" fill="#929292"/>
<path d="M16.5965 4.48543C16.0571 4.48543 15.5176 4.33559 15.0382 3.37664C15.0082 3.28673 14.9782 3.2268 14.9483 3.16686C14.9183 3.10693 14.8883 3.04699 14.8584 2.95709C14.6486 2.38771 14.6486 1.9382 14.8584 1.60856C15.0681 1.24895 15.4877 1.00921 16.147 0.91931C16.3867 0.889342 16.5965 0.859375 16.7763 0.859375C17.1958 0.859375 17.4955 0.949277 17.6753 1.15905C17.915 1.39879 17.975 1.8483 17.915 2.59748C17.7652 4.36556 17.2258 4.5154 16.6264 4.5154L16.5965 4.48543Z" fill="#929292"/>
<path d="M13.1501 5.56478C12.7006 5.56478 12.281 5.32504 11.7716 4.78563C11.7117 4.72569 11.6817 4.69572 11.6517 4.63579C11.2621 4.18628 11.1123 3.7967 11.1722 3.43709C11.2322 3.07748 11.5618 2.71788 12.1312 2.4182C12.6107 2.17846 13.0003 2.05859 13.2999 2.05859C13.8393 2.05859 14.139 2.4182 14.3788 3.34719C14.7983 4.96543 14.3188 5.2651 13.7494 5.47488C13.5397 5.53481 13.3599 5.56478 13.1801 5.56478H13.1501Z" fill="#929292"/>
<path d="M10.603 7.5732C10.3033 7.5732 9.94371 7.4833 9.4942 7.27353C9.4942 7.27353 9.4942 7.27353 9.46423 7.27353C9.4043 7.24356 9.34436 7.21359 9.28443 7.18363C8.74502 6.91392 8.44534 6.58428 8.35544 6.22467C8.26554 5.86506 8.41537 5.44552 8.80495 4.96604C9.25446 4.39666 9.64404 4.12695 9.97368 4.12695C10.3333 4.12695 10.6929 4.39666 11.1424 4.99601C12.1913 6.34454 11.8916 6.79405 11.4421 7.18363C11.1424 7.45333 10.8727 7.54324 10.5431 7.54324L10.603 7.5732Z" fill="#929292"/>
<path d="M5.71863 14.1059C5.53882 14.1059 5.38899 14.1059 5.20918 14.0759C4.66977 14.016 4.16032 13.7163 3.89062 13.2668C3.65088 12.8772 3.65088 12.4277 3.83068 11.9482C4.37009 10.6596 4.90951 10.5098 5.26912 10.5098C5.56879 10.5098 5.95837 10.6296 6.40788 10.9293C6.73752 11.1091 6.97726 11.3189 7.15706 11.5287C7.18703 11.5586 7.217 11.5886 7.24696 11.6485C7.3069 11.7085 7.33687 11.7984 7.36683 11.8583C7.3968 11.8883 7.3968 11.9182 7.3968 11.9782C7.3968 12.0081 7.42677 12.0681 7.42677 12.098C7.42677 12.128 7.42677 12.158 7.45674 12.2179C7.45674 12.2479 7.45674 12.2778 7.45674 12.3078C7.45674 12.3378 7.45674 12.3677 7.45674 12.3977C7.45674 12.4277 7.45674 12.4576 7.45674 12.4876V12.5176C7.45674 12.5475 7.45674 12.5775 7.45674 12.6075C7.45674 12.6375 7.45674 12.6674 7.42677 12.6974V12.7274C7.42677 12.7573 7.3968 12.7873 7.3968 12.8173V12.8472C7.3968 12.8772 7.36683 12.8772 7.36683 12.9072V12.9371C7.36683 12.9671 7.33687 12.9971 7.33687 13.027L7.3069 13.057C7.3069 13.087 7.27693 13.1169 7.27693 13.1469C7.24696 13.1769 7.24696 13.2068 7.217 13.2668L7.18703 13.2967C7.18703 13.3267 7.15706 13.3267 7.15706 13.3567L7.12709 13.3866C7.12709 13.4166 7.09713 13.4166 7.09713 13.4466C7.09713 13.4765 7.06716 13.4765 7.06716 13.5065L7.03719 13.5365C7.03719 13.5664 7.00722 13.5664 7.00722 13.5964L6.97726 13.6264C6.88736 13.7163 6.79745 13.7762 6.67758 13.8361C6.64762 13.8361 6.61765 13.8661 6.58768 13.8661C6.55771 13.8961 6.52775 13.8961 6.49778 13.8961C6.28801 13.956 6.04827 13.986 5.77856 13.986H5.74859L5.71863 14.1059Z" fill="#929292"/>
<path d="M30.4711 14.1059C30.6509 14.1059 30.8008 14.1059 30.9806 14.0759C31.52 14.016 32.0294 13.7163 32.2991 13.2668C32.5389 12.8772 32.5389 12.4277 32.3591 11.9482C31.8197 10.6596 31.2802 10.5098 30.9206 10.5098C30.621 10.5098 30.2314 10.6296 29.7819 10.9293C29.4522 11.1091 29.2125 11.3189 29.0327 11.5287C29.0027 11.5586 28.9728 11.5886 28.9428 11.6485C28.8829 11.7085 28.8529 11.7984 28.8229 11.8583C28.793 11.8883 28.793 11.9182 28.793 11.9782C28.793 12.0081 28.763 12.0681 28.763 12.098C28.763 12.128 28.763 12.158 28.733 12.2179C28.733 12.2479 28.733 12.2778 28.733 12.3078C28.733 12.3378 28.733 12.3677 28.733 12.3977C28.733 12.4277 28.733 12.4576 28.733 12.4876V12.5176C28.733 12.5475 28.733 12.5775 28.763 12.6075C28.763 12.6375 28.793 12.6674 28.793 12.6974V12.7274C28.793 12.7573 28.8229 12.7873 28.8229 12.8173V12.8472C28.8229 12.8772 28.8229 12.8772 28.8529 12.9072V12.9371C28.8529 12.9671 28.8829 12.9971 28.8829 13.027V13.057C28.8829 13.087 28.9128 13.1169 28.9128 13.1469C28.9428 13.1769 28.9428 13.2068 28.9728 13.2668L29.0027 13.2967C29.0027 13.3267 29.0327 13.3267 29.0327 13.3567L29.0627 13.3866C29.0627 13.4166 29.0926 13.4166 29.0926 13.4466C29.0926 13.4765 29.1226 13.4765 29.1226 13.5065L29.1526 13.5365C29.1526 13.5664 29.1825 13.5664 29.1825 13.5964L29.2125 13.6264C29.3024 13.7163 29.3923 13.7762 29.5122 13.8361C29.5421 13.8361 29.5721 13.8661 29.6021 13.8661C29.632 13.8961 29.662 13.8961 29.692 13.8961C29.9017 13.956 30.1115 13.986 30.4112 13.986H30.4412L30.4711 14.1059Z" fill="#929292"/>
<path d="M2.72167 24.2655C2.21222 24.2655 1.76271 24.2056 1.58291 24.1756C1.49301 24.1756 1.43307 24.1456 1.34317 24.0857C0.623951 23.6961 0.234375 22.917 0.234375 21.8681C0.234375 20.9091 0.414179 20.2499 0.773788 19.8902C1.04349 19.5906 1.46304 19.4707 2.03242 19.4707C2.24219 19.4707 2.48193 19.5007 2.72167 19.5306C3.47085 19.6505 4.04023 19.8603 4.45978 20.1899C4.54968 20.2499 4.60961 20.3098 4.66955 20.3398C5.02916 20.6994 5.20896 21.1489 5.2689 21.8681C5.2689 21.958 5.2689 22.0179 5.29886 22.1078C5.32883 22.7072 5.14903 23.1867 4.75945 23.5463C4.51971 23.756 4.22004 23.9358 3.83046 24.1156C3.80049 24.1156 3.77053 24.1456 3.74056 24.1456C3.50082 24.2355 3.14121 24.2655 2.75164 24.2655H2.72167Z" fill="#929292"/>
<path d="M33.4384 24.2655C33.9479 24.2655 34.3974 24.2056 34.5772 24.1756C34.6671 24.1756 34.727 24.1456 34.8169 24.0857C35.5362 23.6961 35.9257 22.917 35.9257 21.8681C35.9257 20.9091 35.7459 20.2499 35.3863 19.8902C35.1166 19.5906 34.6971 19.4707 34.1277 19.4707C33.9179 19.4707 33.6782 19.5007 33.4384 19.5306C32.6893 19.6505 32.1199 19.8603 31.7003 20.1899C31.6104 20.2499 31.5505 20.3098 31.4906 20.3398C31.131 20.6994 30.9511 21.1489 30.8912 21.8681C30.8912 21.958 30.8912 22.0179 30.8912 22.1078C30.8612 22.7072 31.041 23.1867 31.4306 23.5463C31.6704 23.756 31.97 23.9358 32.3596 24.1156C32.3896 24.1156 32.4195 24.1456 32.4495 24.1456C32.6893 24.2355 33.0489 24.2655 33.4384 24.2655Z" fill="#929292"/>
<path d="M4.13064 19.2011C3.9808 19.2011 3.83097 19.2011 3.68113 19.1711C3.56126 19.1412 3.47136 19.1412 3.38146 19.1112C3.23162 19.0812 3.05181 19.0213 2.84204 18.9314C2.4225 18.7815 2.09286 18.5118 1.85312 18.1522C1.49351 17.5529 1.37364 16.8337 1.52348 16.0545C1.76322 14.9457 2.48243 14.3164 3.47136 14.3164C3.95084 14.3164 4.46028 14.4662 4.90979 14.7659C6.25833 15.6649 6.37819 16.4141 6.31826 16.9236C6.31826 17.0135 6.28829 17.1034 6.28829 17.1933C6.28829 17.1933 6.28829 17.1933 6.28829 17.2232C6.25833 17.3131 6.25833 17.3731 6.22836 17.463V17.4929L6.19839 17.5829V17.6128L6.16842 17.6728C6.16842 17.7027 6.13846 17.7627 6.13846 17.7926C6.10849 17.8526 6.07852 17.9125 6.04855 17.9724C5.92868 18.2421 5.74888 18.4519 5.53911 18.6617C5.29937 18.8714 4.9997 19.0513 4.70002 19.1112C4.67005 19.1112 4.67005 19.1112 4.64009 19.1412C4.55018 19.1711 4.49025 19.1711 4.43031 19.1711C4.34041 19.1711 4.22054 19.2011 4.13064 19.2011Z" fill="#929292"/>
<path d="M32.06 19.2011C32.2099 19.2011 32.3597 19.2011 32.5095 19.1711C32.6294 19.1412 32.7193 19.1412 32.8092 19.1112C32.959 19.0812 33.1388 19.0213 33.3486 18.9314C33.7682 18.7815 34.0978 18.5118 34.3375 18.1522C34.6971 17.5529 34.817 16.8337 34.6672 16.0545C34.4274 14.9457 33.7082 14.3164 32.7193 14.3164C32.2398 14.3164 31.7304 14.4662 31.2809 14.7659C29.9323 15.6649 29.8125 16.4141 29.8724 16.9236C29.8724 17.0135 29.9024 17.1034 29.9024 17.1933C29.9024 17.1933 29.9024 17.1933 29.9024 17.2232C29.9323 17.3131 29.9323 17.3731 29.9623 17.463V17.4929L29.9923 17.5829L30.0222 17.6128L30.0522 17.6728C30.0522 17.7027 30.0822 17.7627 30.0822 17.7926C30.1121 17.8526 30.1421 17.9125 30.1721 17.9724C30.2919 18.2421 30.4717 18.4519 30.6815 18.6617C30.9213 18.8714 31.2209 19.0513 31.5206 19.1112C31.5506 19.1112 31.5506 19.1112 31.5805 19.1412C31.6704 19.1711 31.7304 19.1711 31.7903 19.1711C31.8802 19.1711 32.0001 19.2011 32.09 19.2011H32.06Z" fill="#929292"/>
<path d="M19.9234 4.4861C19.324 4.4861 18.7546 4.33626 18.6048 2.56819C18.5449 1.819 18.6048 1.36949 18.8445 1.12975C19.0244 0.91998 19.324 0.830078 19.7436 0.830078C19.9234 0.830078 20.1331 0.860046 20.3729 0.890013C21.0322 1.00988 21.4517 1.21965 21.6615 1.57926C21.8713 1.9089 21.8413 2.35841 21.6615 2.9278C21.6315 2.98773 21.6015 3.04766 21.6015 3.1076V3.13757C21.5716 3.1975 21.5416 3.25744 21.5116 3.34734C21.0322 4.33626 20.4928 4.4861 19.9533 4.4861H19.9234Z" fill="#929292"/>
<path d="M23.3691 5.56478C23.1893 5.56478 23.0095 5.53481 22.7997 5.47488C22.2303 5.2651 21.7508 4.96543 22.1704 3.34719C22.4101 2.4182 22.7098 2.05859 23.2492 2.05859C23.5489 2.05859 23.9385 2.17846 24.4179 2.4182C24.9873 2.71788 25.287 3.04752 25.3769 3.43709C25.4368 3.7967 25.287 4.18628 24.8974 4.60582C24.8375 4.66576 24.8075 4.69572 24.7476 4.75566C24.2381 5.29507 23.8186 5.53481 23.3691 5.53481V5.56478Z" fill="#929292"/>
<path d="M25.9168 7.57253C25.5871 7.57253 25.3174 7.45266 25.0178 7.21292C24.5982 6.82335 24.2686 6.37384 25.3174 5.0253C25.767 4.42596 26.1565 4.15625 26.4862 4.15625C26.8458 4.15625 27.2354 4.42596 27.6849 4.99534C28.0445 5.47481 28.1943 5.89436 28.1344 6.25397C28.0445 6.61358 27.7448 6.94322 27.2354 7.18296C27.1754 7.21292 27.1155 7.24289 27.0555 7.27286C26.606 7.48263 26.2464 7.57253 25.9468 7.57253H25.9168Z" fill="#929292"/>
<path d="M2.69139 30.019C3.051 30.019 3.44057 29.9591 3.74025 29.8392C4.6093 29.5096 5.08878 29.0001 5.23861 28.3109C5.32852 27.9513 5.35848 27.5617 5.29855 27.1421C5.20865 26.4529 4.99888 26.0334 4.6093 25.6737C4.18976 25.2542 3.59041 25.0145 2.69139 24.8646C2.48162 24.8347 2.27184 24.8047 2.09204 24.8047C1.49269 24.8047 1.07315 24.9545 0.773474 25.2542C0.383898 25.6737 0.204094 26.393 0.264028 27.4118C0.383898 29.7793 2.00214 30.019 2.69139 30.019Z" fill="#929292"/>
<path d="M33.4977 30.019C33.1381 30.019 32.7485 29.9591 32.4488 29.8392C31.5798 29.5096 31.1003 29.0001 30.9504 28.3109C30.8605 27.9513 30.8306 27.5617 30.8905 27.1421C30.9804 26.4529 31.1902 26.0334 31.5798 25.6737C31.9993 25.2542 32.6286 25.0145 33.4977 24.8646C33.7074 24.8347 33.9172 24.8047 34.097 24.8047C34.6964 24.8047 35.1159 24.9545 35.4156 25.2542C35.8052 25.6737 35.985 26.393 35.925 27.4118C35.8052 29.7793 34.1869 30.019 33.4977 30.019Z" fill="#929292"/>
<path d="M1.40301 44.4326V40.0274H0.71376V44.4326H1.40301ZM4.87923 44.4326V42.275C4.87923 41.9753 4.78933 41.7355 4.60952 41.5557C4.42972 41.3759 4.18998 41.286 3.8903 41.286C3.6206 41.286 3.35089 41.346 3.11115 41.4958L2.75154 41.7056V41.286H2.15219V44.4026H2.75154V42.275L3.29096 41.9753C3.47076 41.8854 3.6206 41.8254 3.77043 41.8254C3.92027 41.8254 4.04014 41.8854 4.13004 41.9753C4.21994 42.0652 4.24991 42.1851 4.24991 42.3349V44.4026H4.84926L4.87923 44.4326ZM7.72613 43.4736L7.15675 43.7733C6.97694 43.8632 6.82711 43.9232 6.6473 43.9232C6.4675 43.9232 6.34763 43.8632 6.22776 43.7733C6.13786 43.6535 6.07792 43.5336 6.07792 43.3538V42.4248C6.07792 42.245 6.13786 42.1251 6.22776 42.0052C6.31766 41.8854 6.4675 41.8554 6.6473 41.8554C6.82711 41.8554 6.97694 41.8854 7.15675 41.9753L7.72613 42.275V43.4736ZM8.32548 44.4026V39.9974H7.72613V41.6756L7.33655 41.4658C7.09681 41.316 6.82711 41.2561 6.58737 41.2561C6.25773 41.2561 5.98802 41.346 5.77825 41.5557C5.56848 41.7655 5.47858 42.0053 5.47858 42.3349V43.4137C5.47858 43.7134 5.56848 43.9831 5.77825 44.1629C5.98802 44.3727 6.25773 44.4626 6.5574 44.4626C6.82711 44.4626 7.06685 44.4026 7.33655 44.2528L7.72613 44.043V44.4026H8.32548ZM9.67401 44.4026V41.286H9.04469V44.4026H9.67401ZM9.70398 40.2671C9.70398 40.1772 9.67401 40.1173 9.61407 40.0574C9.55414 39.9974 9.46424 39.9675 9.34437 39.9675C9.2245 39.9675 9.1346 39.9974 9.07466 40.0574C9.01473 40.1173 8.98476 40.1772 8.98476 40.2671V40.387C8.98476 40.4769 9.01473 40.5368 9.07466 40.5968C9.1346 40.6567 9.2245 40.6867 9.34437 40.6867C9.43427 40.6867 9.52417 40.6567 9.61407 40.5968C9.67401 40.5368 9.70398 40.4769 9.70398 40.387V40.2671ZM13.0304 43.2339H12.431C12.431 43.6834 12.1613 43.8932 11.6519 43.8932C11.1724 43.8932 10.9027 43.6535 10.9027 43.174V42.4847C10.9027 42.0052 11.1424 41.7655 11.6519 41.7655C12.1613 41.7655 12.431 41.9753 12.431 42.4248H13.0304V42.3649C13.0304 42.0052 12.9105 41.7056 12.6707 41.4958C12.431 41.286 12.1014 41.1961 11.6818 41.1961C11.2623 41.1961 10.9626 41.316 10.6929 41.5258C10.4532 41.7355 10.3333 42.0352 10.3333 42.3948V43.174C10.3333 43.5636 10.4532 43.8632 10.6929 44.073C10.9326 44.2828 11.2623 44.4026 11.6818 44.4026C12.1014 44.4026 12.431 44.3127 12.6707 44.103C12.9105 43.8932 13.0304 43.6235 13.0304 43.2339ZM15.6975 43.4736L15.158 43.7434C14.9483 43.8632 14.7385 43.9232 14.5287 43.9232C14.4089 43.9232 14.289 43.8932 14.2291 43.8033C14.1691 43.7434 14.1092 43.6235 14.1092 43.5036C14.1092 43.2039 14.319 43.0541 14.7085 43.0541H15.6675V43.4437L15.6975 43.4736ZM16.2968 44.3727V42.3649C16.2968 42.0052 16.1769 41.7056 15.9372 41.5258C15.6975 41.316 15.3678 41.2261 14.9483 41.2261C14.5287 41.2261 14.1991 41.316 13.9593 41.5258C13.6896 41.7355 13.5698 41.9753 13.5698 42.3349V42.3649H14.1691C14.1691 41.9453 14.4388 41.7655 14.9483 41.7655C15.4577 41.7655 15.6975 41.9753 15.6975 42.4548V42.6346H14.6486C14.319 42.6346 14.0193 42.7245 13.8095 42.8743C13.5997 43.0241 13.4799 43.2639 13.4799 43.5636C13.4799 43.8333 13.5698 44.043 13.7496 44.1929C13.9294 44.3427 14.1392 44.4326 14.4388 44.4326C14.7085 44.4326 15.0082 44.3427 15.3378 44.1929L15.6975 44.0131V44.4026H16.3268L16.2968 44.3727ZM19.1437 43.4437L18.5743 43.7434C18.3945 43.8333 18.2447 43.8932 18.0649 43.8932C17.8851 43.8932 17.7652 43.8333 17.6453 43.7434C17.5554 43.6235 17.4955 43.5036 17.4955 43.3238V42.3948C17.4955 42.215 17.5554 42.0951 17.6453 41.9753C17.7352 41.8554 17.8851 41.8254 18.0649 41.8254C18.2447 41.8254 18.3945 41.8554 18.5743 41.9453L19.1437 42.245V43.4437ZM19.7431 44.3727V39.9675H19.1437V41.6456L18.7541 41.4359C18.5144 41.286 18.2447 41.2261 18.0049 41.2261C17.6753 41.2261 17.4056 41.316 17.1958 41.5258C16.9861 41.7355 16.8962 41.9753 16.8962 42.3049V43.3837C16.8962 43.6834 16.9861 43.9531 17.1958 44.1329C17.4056 44.3427 17.6753 44.4326 17.975 44.4326C18.2447 44.4326 18.4844 44.3727 18.7541 44.2228L19.1437 44.0131V44.3727H19.7431ZM22.6499 43.114C22.6499 43.3538 22.59 43.5636 22.4102 43.7134C22.2603 43.8632 22.0505 43.9232 21.8108 43.9232C21.5711 43.9232 21.3613 43.8632 21.2115 43.7134C21.0616 43.5636 20.9717 43.3837 20.9717 43.114V42.5746C20.9717 42.3349 21.0317 42.1251 21.2115 41.9753C21.3613 41.8254 21.5711 41.7655 21.8108 41.7655C22.0505 41.7655 22.2603 41.8254 22.4102 41.9753C22.56 42.1251 22.6499 42.3049 22.6499 42.5746V43.114ZM23.2492 42.5147C23.2492 42.1251 23.1294 41.8254 22.8297 41.5857C22.56 41.346 22.2303 41.2261 21.7808 41.2261C21.3613 41.2261 21.0017 41.346 20.732 41.5857C20.4623 41.8254 20.3124 42.1251 20.3124 42.5147V43.174C20.3124 43.5636 20.4623 43.8632 20.732 44.103C21.0017 44.3427 21.3313 44.4626 21.7808 44.4626C22.2004 44.4626 22.56 44.3427 22.8297 44.103C23.0994 43.8632 23.2492 43.5636 23.2492 43.174V42.5147ZM27.7443 43.2938C27.7443 43.4737 27.6844 43.5935 27.5945 43.7134C27.5046 43.8333 27.3548 43.8632 27.175 43.8632C26.9952 43.8632 26.8453 43.8033 26.6655 43.7134L26.0961 43.4137V42.215L26.6655 41.9153C26.8453 41.8254 26.9952 41.7655 27.175 41.7655C27.3548 41.7655 27.4746 41.8254 27.5945 41.9153C27.6844 42.0352 27.7443 42.1551 27.7443 42.3349V43.2639V43.2938ZM26.0961 45.4815V44.0131L26.4857 44.2228C26.7255 44.3727 26.9952 44.4326 27.2349 44.4326C27.5645 44.4326 27.8342 44.3427 28.0141 44.1329C28.2238 43.9232 28.3137 43.6834 28.3137 43.3538V42.275C28.3137 41.9753 28.2238 41.7056 28.0141 41.5258C27.8043 41.346 27.5346 41.2261 27.2349 41.2261C26.9652 41.2261 26.7255 41.286 26.4557 41.4359L26.0662 41.6456V41.2561H25.4668V45.4515H26.0662L26.0961 45.4815ZM31.0408 43.4736L30.5013 43.7434C30.2916 43.8632 30.0818 43.9232 29.872 43.9232C29.7522 43.9232 29.6323 43.8932 29.5724 43.8033C29.5124 43.7434 29.4525 43.6235 29.4525 43.5036C29.4525 43.2039 29.6623 43.0541 30.0518 43.0541H31.0108V43.4437L31.0408 43.4736ZM31.6401 44.3727V42.3649C31.6401 42.0052 31.5202 41.7056 31.2805 41.5258C31.0408 41.316 30.7111 41.2261 30.2916 41.2261C29.872 41.2261 29.5424 41.316 29.3026 41.5258C29.0329 41.7355 28.9131 41.9753 28.9131 42.3349V42.3649H29.5124C29.5124 41.9453 29.7821 41.7655 30.2916 41.7655C30.7711 41.7655 31.0408 41.9753 31.0408 42.4548V42.6346H29.9919C29.6623 42.6346 29.3626 42.7245 29.1528 42.8743C28.943 43.0241 28.8232 43.2639 28.8232 43.5636C28.8232 43.8333 28.9131 44.043 29.0929 44.1929C29.2727 44.3427 29.4825 44.4326 29.7821 44.4326C30.0518 44.4326 30.3515 44.3427 30.6811 44.1929L31.0408 44.0131V44.4026H31.6701L31.6401 44.3727ZM32.9287 44.3727V42.3049L33.1984 42.0952C33.4082 41.9453 33.6479 41.8554 33.9176 41.8554H34.0675V41.2261H33.9176C33.618 41.2261 33.3482 41.346 33.0785 41.5557L32.9287 41.7056V41.2261H32.3294V44.3427H32.9587L32.9287 44.3727ZM36.4948 43.4437L35.9554 43.7134C35.7456 43.8333 35.5359 43.8932 35.3261 43.8932C35.2062 43.8932 35.0864 43.8632 35.0264 43.7733C34.9665 43.7134 34.9066 43.5935 34.9066 43.4736C34.9066 43.174 35.1163 43.0241 35.5059 43.0241H36.4649V43.4137L36.4948 43.4437ZM37.0942 44.3427V42.3349C37.0942 41.9753 36.9743 41.6756 36.7346 41.4958C36.4948 41.286 36.1652 41.1961 35.7456 41.1961C35.3261 41.1961 34.9965 41.286 34.7567 41.4958C34.487 41.7056 34.3671 41.9453 34.3671 42.3049V42.3349H34.9665C34.9665 41.9153 35.2362 41.7355 35.7456 41.7355C36.2251 41.7355 36.4948 41.9453 36.4948 42.4248V42.6046H35.446C35.1163 42.6046 34.8167 42.6945 34.6069 42.8443C34.3971 42.9942 34.2772 43.2339 34.2772 43.5336C34.2772 43.8033 34.3671 44.0131 34.5469 44.1629C34.7267 44.3127 34.9365 44.4026 35.2362 44.4026C35.5059 44.4026 35.8056 44.3127 36.1352 44.1629L36.4948 43.9831V44.3727H37.1241L37.0942 44.3427ZM41.1697 44.3427V43.8033H40.8101C40.6004 43.8033 40.4505 43.7733 40.3606 43.6834C40.2707 43.5935 40.2108 43.4437 40.2108 43.2339V41.7355H41.1398V41.2261H40.2108V40.387H39.5815V41.2261H39.072V41.7355H39.5815V43.2639C39.5815 43.6235 39.6714 43.8932 39.9111 44.073C40.1209 44.2528 40.4206 44.3427 40.7802 44.3427H41.1997H41.1697ZM43.717 43.0841C43.717 43.3238 43.657 43.5336 43.4772 43.6834C43.3274 43.8333 43.1176 43.8932 42.8779 43.8932C42.6381 43.8932 42.4284 43.8333 42.2785 43.6834C42.1287 43.5336 42.0388 43.3538 42.0388 43.0841V42.5447C42.0388 42.3049 42.0987 42.0952 42.2785 41.9453C42.4284 41.7955 42.6381 41.7355 42.8779 41.7355C43.1176 41.7355 43.3274 41.7955 43.4772 41.9453C43.6271 42.0952 43.717 42.275 43.717 42.5447V43.0841ZM44.3163 42.4847C44.3163 42.0952 44.1964 41.7955 43.8968 41.5557C43.6271 41.316 43.2974 41.1961 42.8479 41.1961C42.4284 41.1961 42.0688 41.316 41.799 41.5557C41.5293 41.7955 41.3795 42.0952 41.3795 42.4847V43.144C41.3795 43.5336 41.5293 43.8333 41.799 44.073C42.0688 44.3127 42.3984 44.4326 42.8479 44.4326C43.2675 44.4326 43.6271 44.3127 43.8968 44.073C44.1665 43.8333 44.3163 43.5336 44.3163 43.144V42.4847ZM47.1033 43.4137L46.5339 43.7134C46.3541 43.8033 46.2043 43.8632 46.0245 43.8632C45.8446 43.8632 45.7248 43.8033 45.6049 43.7134C45.515 43.5935 45.4551 43.4737 45.4551 43.2938V42.3649C45.4551 42.1851 45.515 42.0652 45.6049 41.9453C45.6948 41.8254 45.8446 41.7955 46.0245 41.7955C46.2043 41.7955 46.3541 41.8254 46.5339 41.9153L47.1033 42.215V43.4137ZM47.7026 44.3427V39.9375H47.1033V41.6157L46.7137 41.4059C46.474 41.2561 46.2043 41.1961 45.9645 41.1961C45.6349 41.1961 45.3652 41.286 45.1554 41.4958C44.9456 41.7056 44.8557 41.9453 44.8557 42.275V43.3538C44.8557 43.6535 44.9456 43.9232 45.1554 44.103C45.3652 44.3127 45.6349 44.4026 45.9346 44.4026C46.2043 44.4026 46.444 44.3427 46.7137 44.1929L47.1033 43.9831V44.3427H47.7026ZM50.4896 43.4437L49.9502 43.7134C49.7404 43.8333 49.5306 43.8932 49.3209 43.8932C49.201 43.8932 49.0811 43.8632 49.0212 43.7733C48.9613 43.7134 48.9013 43.5935 48.9013 43.4736C48.9013 43.174 49.1111 43.0241 49.5007 43.0241H50.4596V43.4137L50.4896 43.4437ZM51.0889 44.3427V42.3349C51.0889 41.9753 50.9691 41.6756 50.7293 41.4958C50.4896 41.286 50.16 41.1961 49.7404 41.1961C49.3209 41.1961 48.9912 41.286 48.7515 41.4958C48.4818 41.7056 48.3619 41.9453 48.3619 42.3049V42.3349H48.9613C48.9613 41.9153 49.231 41.7355 49.7404 41.7355C50.2499 41.7355 50.4896 41.9453 50.4896 42.4248V42.6046H49.4407C49.1111 42.6046 48.8114 42.6945 48.6016 42.8443C48.3919 42.9942 48.272 43.2339 48.272 43.5336C48.272 43.8033 48.3619 44.0131 48.5417 44.1629C48.7215 44.3127 48.9313 44.4026 49.231 44.4026C49.5007 44.4026 49.8003 44.3127 50.13 44.1629L50.4896 43.9831V44.3727H51.1189L51.0889 44.3427ZM54.3254 42.245V42.215C54.3254 41.9153 54.2056 41.6456 53.9658 41.4658C53.7261 41.286 53.3964 41.1961 52.9769 41.1961C52.5573 41.1961 52.2577 41.286 52.0179 41.4658C51.7782 41.6456 51.6583 41.8554 51.6583 42.1551C51.6583 42.3948 51.7482 42.5746 51.8681 42.7245C52.0179 42.8743 52.1678 42.9342 52.3775 42.9942C52.5873 43.0241 52.7971 43.0541 52.9769 43.0841C53.1867 43.114 53.3365 43.144 53.4863 43.2039C53.6362 43.2639 53.6961 43.3538 53.6961 43.5036C53.6961 43.6235 53.6362 43.7434 53.5163 43.8033C53.3964 43.8932 53.2166 43.9232 52.9769 43.9232C52.4674 43.9232 52.2277 43.7434 52.2277 43.3837H51.5984V43.4137C51.5984 43.7134 51.7183 43.9531 51.958 44.1329C52.1977 44.3127 52.5274 44.4026 52.9769 44.4026C53.3964 44.4026 53.7261 44.3127 53.9658 44.1329C54.2056 43.9531 54.3254 43.7434 54.3254 43.4437C54.3254 43.2339 54.2655 43.0841 54.1756 42.9642C54.0857 42.8443 53.9358 42.7544 53.786 42.7245C53.6362 42.6945 53.4564 42.6346 53.2766 42.6046C53.0968 42.5746 52.9469 42.5447 52.7671 42.5447C52.6173 42.5147 52.4974 42.4847 52.3775 42.4248C52.2876 42.3649 52.2277 42.275 52.2277 42.1251C52.2277 42.0052 52.2876 41.8854 52.4075 41.8254C52.5274 41.7355 52.7072 41.7056 52.9469 41.7056C53.4264 41.7056 53.6661 41.8854 53.6661 42.245L54.2655 42.275L54.3254 42.245Z" fill="#929292"/>
<path d="M2.72148 50.6077L2.18206 50.8775C1.97229 50.9973 1.76252 51.0573 1.55275 51.0573C1.43288 51.0573 1.31301 51.0273 1.25308 50.9374C1.19314 50.8775 1.13321 50.7576 1.13321 50.6377C1.13321 50.338 1.34298 50.1882 1.73255 50.1882H2.69151V50.5778L2.72148 50.6077ZM3.32083 51.5068V49.499C3.32083 49.1393 3.20096 48.8397 2.96122 48.6599C2.72148 48.4501 2.39184 48.3602 1.97229 48.3602C1.55275 48.3602 1.22311 48.4501 0.983369 48.6599C0.713663 48.8696 0.593793 49.1094 0.593793 49.469V49.499H1.19314C1.19314 49.0794 1.46285 48.8996 1.97229 48.8996C2.45177 48.8996 2.72148 49.1094 2.72148 49.5889V49.7687H1.67262C1.34298 49.7687 1.0433 49.8586 0.833532 50.0084C0.623761 50.1582 0.503891 50.398 0.503891 50.6976C0.503891 50.9674 0.593793 51.1771 0.773598 51.327C0.953402 51.4768 1.16317 51.5667 1.46285 51.5667C1.73255 51.5667 2.03223 51.4768 2.36187 51.327L2.72148 51.1472V51.5367H3.35079L3.32083 51.5068ZM6.5573 49.409V49.3791C6.5573 49.0794 6.43743 48.8097 6.19769 48.6299C5.95796 48.4501 5.62831 48.3602 5.20877 48.3602C4.78923 48.3602 4.48955 48.4501 4.24981 48.6299C4.01008 48.8097 3.89021 49.0195 3.89021 49.3192C3.89021 49.5589 3.95014 49.7387 4.09998 49.8885C4.24981 50.0384 4.39965 50.0983 4.60942 50.1582C4.8192 50.1882 5.02897 50.2182 5.20877 50.2481C5.41854 50.2781 5.56838 50.3081 5.71822 50.368C5.86805 50.4279 5.92799 50.5178 5.92799 50.6677C5.92799 50.7875 5.86805 50.9074 5.74818 50.9674C5.62831 51.0573 5.44851 51.0872 5.20877 51.0872C4.69933 51.0872 4.45959 50.9074 4.45959 50.5478H3.83027V50.5778C3.83027 50.8775 3.95014 51.1172 4.18988 51.297C4.42962 51.4768 4.75926 51.5667 5.20877 51.5667C5.62831 51.5667 5.95796 51.4768 6.19769 51.297C6.43743 51.1172 6.5573 50.9074 6.5573 50.6077C6.5573 50.398 6.49737 50.2481 6.40747 50.1283C6.31756 50.0084 6.16773 49.9185 6.01789 49.8885C5.86805 49.8586 5.68825 49.7986 5.50844 49.7687C5.32864 49.7387 5.1788 49.7087 4.999 49.7087C4.84916 49.6788 4.72929 49.6488 4.60942 49.5889C4.51952 49.5289 4.45959 49.439 4.45959 49.2892C4.45959 49.1693 4.51952 49.0494 4.63939 48.9895C4.75926 48.8996 4.93906 48.8696 5.1788 48.8696C5.65828 48.8696 5.89802 49.0494 5.89802 49.409L6.49737 49.439L6.5573 49.409ZM9.40421 51.5367V49.469L9.67391 49.2592C9.88368 49.1094 10.1234 49.0195 10.3931 49.0195H10.543V48.3902H10.3632C10.0635 48.3902 9.79378 48.51 9.52408 48.7198L9.37424 48.8696V48.3902H8.77489V51.5068H9.40421V51.5367ZM13.5996 50.5478H13.0003C13.0003 50.9074 12.7306 51.0872 12.2211 51.0872C11.9814 51.0872 11.7716 51.0273 11.6218 50.9074C11.472 50.7875 11.412 50.6077 11.412 50.368V50.1882H13.5996V49.6488C13.5996 49.2592 13.4798 48.9296 13.2101 48.7198C12.9404 48.4801 12.6107 48.3602 12.1912 48.3602C11.7716 48.3602 11.442 48.4801 11.1723 48.7198C10.9026 48.9595 10.7827 49.2592 10.7827 49.6488V50.398C10.7827 50.7576 10.9026 51.0573 11.1723 51.267C11.442 51.4768 11.7716 51.5967 12.1912 51.5967C12.6107 51.5967 12.9404 51.5068 13.1801 51.327C13.4198 51.1472 13.5397 50.9074 13.5397 50.6077V50.5778L13.5996 50.5478ZM13.0303 49.7687H11.412V49.6788C11.412 49.439 11.472 49.2592 11.6218 49.1094C11.7716 48.9595 11.9514 48.8996 12.2211 48.8996C12.4609 48.8996 12.6706 48.9595 12.8205 49.0794C12.9703 49.1993 13.0303 49.4091 13.0303 49.6488V49.7387V49.7687ZM15.997 51.327C16.2068 51.327 16.3566 51.3569 16.4465 51.4169C16.5364 51.4768 16.5964 51.5667 16.5964 51.7165C16.5964 52.0462 16.2967 52.226 15.7273 52.226C15.4277 52.226 15.1879 52.1661 15.068 52.0462C14.9482 51.9263 14.8882 51.7465 14.8882 51.4768V51.327H15.997ZM15.4277 49.9485C15.0081 49.9485 14.8283 49.7687 14.8283 49.439C14.8283 49.2592 14.8882 49.1094 14.9781 49.0195C15.068 48.9296 15.2478 48.8996 15.4576 48.8996H15.7573C16.1768 48.8996 16.3866 49.0794 16.3866 49.409C16.3866 49.7687 16.1469 49.9185 15.6974 49.9185H15.4576L15.4277 49.9485ZM15.7273 50.398C16.0869 50.398 16.3866 50.3081 16.5964 50.1283C16.8062 49.9485 16.926 49.7087 16.926 49.409C16.926 49.1693 16.8661 49.0195 16.7462 48.9296H17.2257V48.4201H15.3977C15.0381 48.4201 14.7684 48.51 14.5586 48.6898C14.3488 48.8696 14.2589 49.1094 14.2589 49.439C14.2589 49.5589 14.2889 49.6788 14.3189 49.7687C14.3488 49.8586 14.4088 49.9185 14.4088 49.9485C14.4387 49.9784 14.4687 50.0084 14.4687 50.0084C14.3189 50.0384 14.229 50.1283 14.1391 50.2182C14.0492 50.3081 14.0192 50.4579 14.0192 50.6077C14.0192 50.8775 14.1091 51.0573 14.3488 51.1472V51.4468C14.3488 52.256 14.8283 52.6455 15.7573 52.6455C16.2068 52.6455 16.5664 52.5556 16.8062 52.3758C17.0759 52.196 17.1957 51.9563 17.1957 51.6566C17.1957 51.0872 16.8062 50.8175 16.057 50.8175H14.7684C14.6185 50.8175 14.5286 50.7576 14.5286 50.6077C14.5286 50.4579 14.6185 50.398 14.7684 50.398H15.7273ZM18.2446 51.5367V48.4201H17.6153V51.5367H18.2446ZM18.2746 47.4012C18.2746 47.3113 18.2446 47.2514 18.1846 47.1915C18.1247 47.1315 18.0348 47.1016 17.9149 47.1016C17.7951 47.1016 17.7052 47.1315 17.6452 47.1915C17.5853 47.2514 17.5553 47.3113 17.5553 47.4012V47.5211C17.5553 47.611 17.5853 47.6709 17.6452 47.7309C17.7052 47.7908 17.7951 47.8208 17.9149 47.8208C18.0048 47.8208 18.0947 47.7908 18.1846 47.7309C18.2446 47.6709 18.2746 47.611 18.2746 47.5211V47.4012ZM21.1514 50.2481C21.1514 50.4879 21.0915 50.6977 20.9117 50.8475C20.7618 50.9973 20.5521 51.0573 20.3123 51.0573C20.0726 51.0573 19.8628 50.9973 19.713 50.8475C19.5632 50.6977 19.4732 50.5178 19.4732 50.2481V49.7087C19.4732 49.469 19.5332 49.2592 19.713 49.1094C19.8628 48.9595 20.0726 48.8996 20.3123 48.8996C20.5521 48.8996 20.7618 48.9595 20.9117 49.1094C21.0615 49.2592 21.1514 49.439 21.1514 49.7087V50.2481ZM21.7508 49.6488C21.7508 49.2592 21.6309 48.9595 21.3312 48.7198C21.0615 48.4801 20.7319 48.3602 20.2824 48.3602C19.8628 48.3602 19.5032 48.4801 19.2335 48.7198C18.9638 48.9595 18.814 49.2592 18.814 49.6488V50.3081C18.814 50.6977 18.9638 50.9973 19.2335 51.2371C19.5032 51.4768 19.8329 51.5967 20.2824 51.5967C20.7019 51.5967 21.0615 51.4768 21.3312 51.2371C21.6009 50.9973 21.7508 50.6977 21.7508 50.3081V49.6488ZM21.571 47.1315H21.0615C21.0615 47.3713 20.9716 47.4911 20.7918 47.4911C20.7019 47.4911 20.642 47.4612 20.5521 47.4012C20.4622 47.3413 20.3723 47.2814 20.2524 47.1915C20.1325 47.1315 20.0127 47.1016 19.8628 47.1016C19.6231 47.1016 19.4433 47.1615 19.3234 47.3113C19.2035 47.4612 19.1136 47.641 19.1136 47.8807V47.9107H19.6531C19.6531 47.7908 19.683 47.7009 19.713 47.641C19.7729 47.581 19.8329 47.5511 19.9228 47.5511C19.9827 47.5511 20.0426 47.581 20.1026 47.611C20.1625 47.641 20.2224 47.7009 20.2824 47.7309C20.3423 47.7908 20.4022 47.8208 20.5221 47.8507C20.612 47.8807 20.7319 47.9107 20.8218 47.9107C21.0615 47.9107 21.2413 47.8208 21.3612 47.7009C21.4811 47.5511 21.541 47.3713 21.541 47.1315L21.511 47.1016L21.571 47.1315ZM25.0772 50.5478H24.4778C24.4778 50.9074 24.2081 51.0872 23.6987 51.0872C23.4589 51.0872 23.2491 51.0273 23.0993 50.9074C22.9495 50.7875 22.8895 50.6077 22.8895 50.368V50.1882H25.0772V49.6488C25.0772 49.2592 24.9573 48.9296 24.6876 48.7198C24.4179 48.4801 24.0882 48.3602 23.6687 48.3602C23.2491 48.3602 22.9195 48.4801 22.6498 48.7198C22.3801 48.9595 22.2602 49.2592 22.2602 49.6488V50.398C22.2602 50.7576 22.3801 51.0573 22.6498 51.267C22.9195 51.4768 23.2491 51.5967 23.6687 51.5967C24.0882 51.5967 24.4179 51.5068 24.6576 51.327C24.8973 51.1472 25.0172 50.9074 25.0172 50.6077V50.5778L25.0772 50.5478ZM24.5078 49.7687H22.8895V49.6788C22.8895 49.439 22.9794 49.2592 23.0993 49.1094C23.2491 48.9595 23.4289 48.8996 23.6987 48.8996C23.9384 48.8996 24.1482 48.9595 24.298 49.0794C24.4478 49.1993 24.5078 49.4091 24.5078 49.6488V49.7387V49.7687ZM28.3136 49.439V49.409C28.3136 49.1094 28.1938 48.8397 27.954 48.6599C27.7143 48.4801 27.3846 48.3902 26.9651 48.3902C26.5456 48.3902 26.2459 48.4801 26.0061 48.6599C25.7664 48.8397 25.6465 49.0494 25.6465 49.3491C25.6465 49.5889 25.7065 49.7687 25.8563 49.9185C26.0061 50.0683 26.156 50.1283 26.3657 50.1882C26.5755 50.2182 26.7553 50.2481 26.9651 50.2781C27.1749 50.3081 27.3247 50.338 27.4745 50.398C27.6244 50.4579 27.6843 50.5478 27.6843 50.6976C27.6843 50.8175 27.6244 50.9374 27.5045 50.9973C27.3846 51.0872 27.2048 51.1172 26.9651 51.1172C26.4557 51.1172 26.2159 50.9374 26.2159 50.5778H25.5866V50.6077C25.5866 50.9074 25.7065 51.1472 25.9462 51.327C26.1859 51.5068 26.5156 51.5967 26.9651 51.5967C27.3846 51.5967 27.7143 51.5068 27.954 51.327C28.1938 51.1472 28.3136 50.9374 28.3136 50.6377C28.3136 50.4279 28.2537 50.2781 28.1638 50.1582C28.0739 50.0384 27.924 49.9485 27.7742 49.9185C27.6244 49.8885 27.4446 49.8286 27.2648 49.7986C27.085 49.7687 26.9351 49.7387 26.7553 49.7387C26.6055 49.7087 26.4856 49.6788 26.3657 49.6188C26.2758 49.5589 26.2159 49.469 26.2159 49.3192C26.2159 49.1993 26.2758 49.0794 26.3957 49.0195C26.5156 48.9296 26.6954 48.8996 26.9351 48.8996C27.4146 48.8996 27.6543 49.0794 27.6543 49.439L28.2537 49.469L28.3136 49.439ZM32.6889 50.6077L32.1195 50.9074C31.9397 50.9973 31.7898 51.0573 31.61 51.0573C31.4302 51.0573 31.3104 50.9973 31.1905 50.9074C31.1006 50.7875 31.0407 50.6677 31.0407 50.4879V49.5589C31.0407 49.3791 31.1006 49.2592 31.1905 49.1393C31.2804 49.0195 31.4302 48.9895 31.61 48.9895C31.7599 48.9895 31.9397 49.0195 32.1195 49.1094L32.6889 49.409V50.6077ZM33.2882 51.5367V47.1315H32.6889V48.8097L32.2993 48.5999C32.0596 48.4501 31.7898 48.3902 31.5501 48.3902C31.2205 48.3902 30.9508 48.4801 30.741 48.6898C30.5312 48.8996 30.4413 49.1393 30.4413 49.469V50.5478C30.4413 50.8475 30.5312 51.1172 30.741 51.297C30.9508 51.5068 31.2205 51.5967 31.5201 51.5967C31.7898 51.5967 32.0296 51.5367 32.2993 51.3869L32.6889 51.1771V51.5367H33.2882ZM36.0752 50.6377L35.5358 50.9074C35.326 51.0273 35.1162 51.0872 34.9065 51.0872C34.7866 51.0872 34.6667 51.0573 34.6068 50.9674C34.5468 50.9074 34.4869 50.7875 34.4869 50.6677C34.4869 50.368 34.6967 50.2182 35.0863 50.2182H36.0452V50.6077L36.0752 50.6377ZM36.6745 51.5367V49.5289C36.6745 49.1693 36.5547 48.8696 36.3149 48.6898C36.0752 48.4801 35.7455 48.3902 35.326 48.3902C34.9065 48.3902 34.5768 48.4801 34.3371 48.6898C34.0674 48.8996 33.9475 49.1393 33.9475 49.499V49.5289H34.5468C34.5468 49.1094 34.8166 48.9296 35.326 48.9296C35.8354 48.9296 36.0752 49.1393 36.0752 49.6188V49.7986H35.0263C34.6967 49.7986 34.397 49.8885 34.1872 50.0384C33.9775 50.1882 33.8576 50.4279 33.8576 50.7276C33.8576 50.9973 33.9475 51.2071 34.1273 51.3569C34.3071 51.5068 34.5169 51.5967 34.8166 51.5967C35.0863 51.5967 35.3859 51.5068 35.7156 51.3569L36.0752 51.1771V51.5667H36.7045L36.6745 51.5367ZM41.1996 50.4579C41.1996 50.6377 41.1397 50.7576 41.0498 50.8775C40.9599 50.9973 40.81 51.0273 40.6302 51.0273C40.4804 51.0273 40.3006 50.9674 40.1208 50.8775L39.5514 50.5778V49.3791L40.1208 49.0794C40.3006 48.9895 40.4504 48.9595 40.6302 48.9595C40.81 48.9595 40.9299 49.0195 41.0498 49.1094C41.1397 49.2292 41.1996 49.3491 41.1996 49.5289V50.4579ZM39.941 51.3869C40.2107 51.5367 40.4504 51.5967 40.6902 51.5967C41.0198 51.5967 41.2895 51.5068 41.4693 51.297C41.6791 51.0872 41.769 50.8475 41.769 50.5478V49.469C41.769 49.1693 41.6791 48.8996 41.4693 48.7198C41.2595 48.51 40.9898 48.4201 40.6902 48.4201C40.4504 48.4201 40.1807 48.4801 39.941 48.6299L39.5514 48.8397V47.1615H38.952V51.5667H39.5514V51.2071L39.941 51.4169V51.3869ZM44.6159 50.2781C44.6159 50.5178 44.556 50.7276 44.3761 50.8775C44.2263 51.0273 44.0165 51.0872 43.7768 51.0872C43.5371 51.0872 43.3273 51.0273 43.1775 50.8775C43.0276 50.7276 42.9377 50.5478 42.9377 50.2781V49.7387C42.9377 49.499 42.9976 49.2892 43.1775 49.1393C43.3273 48.9895 43.5371 48.9296 43.7768 48.9296C44.0165 48.9296 44.2263 48.9895 44.3761 49.1393C44.526 49.2892 44.6159 49.469 44.6159 49.7387V50.2781ZM45.2152 49.6788C45.2152 49.2892 45.0954 48.9895 44.8257 48.7498C44.556 48.51 44.2263 48.3902 43.7768 48.3902C43.3573 48.3902 42.9977 48.51 42.7279 48.7498C42.4582 48.9895 42.3084 49.2892 42.3084 49.6788V50.338C42.3084 50.7276 42.4582 51.0273 42.7279 51.267C42.9977 51.5068 43.3273 51.6266 43.7768 51.6266C44.1963 51.6266 44.556 51.5068 44.8257 51.267C45.0954 51.0273 45.2152 50.7276 45.2152 50.338V49.6788ZM48.4817 50.398H47.8823C47.8823 50.8475 47.6126 51.0573 47.1032 51.0573C46.6237 51.0573 46.354 50.8175 46.354 50.338V49.6488C46.354 49.1693 46.5937 48.9296 47.1032 48.9296C47.6126 48.9296 47.8823 49.1393 47.8823 49.5889H48.4817V49.5289C48.4817 49.1693 48.3618 48.8696 48.1221 48.6599C47.8823 48.4501 47.5527 48.3602 47.1331 48.3602C46.7136 48.3602 46.4139 48.4801 46.1442 48.6898C45.9045 48.8996 45.7846 49.1993 45.7846 49.5589V50.338C45.7846 50.7276 45.9045 51.0273 46.1442 51.2371C46.384 51.4468 46.7136 51.5667 47.1331 51.5667C47.5527 51.5667 47.8823 51.4768 48.1221 51.267C48.3618 51.0573 48.4817 50.7876 48.4817 50.398ZM51.1488 50.6377L50.6094 50.9074C50.3996 51.0273 50.1898 51.0872 49.9801 51.0872C49.8602 51.0872 49.7403 51.0573 49.6804 50.9674C49.6204 50.9074 49.5605 50.7875 49.5605 50.6677C49.5605 50.368 49.7703 50.2182 50.1599 50.2182H51.1188V50.6077L51.1488 50.6377ZM51.7481 51.5367V49.5289C51.7481 49.1693 51.6283 48.8696 51.3885 48.6898C51.1488 48.4801 50.8191 48.3902 50.3996 48.3902C49.98 48.3902 49.6504 48.4801 49.4107 48.6898C49.141 48.8996 49.0211 49.1393 49.0211 49.499V49.5289H49.6204C49.6204 49.1094 49.8901 48.9296 50.3996 48.9296C50.8791 48.9296 51.1488 49.1393 51.1488 49.6188V49.7986H50.0999C49.7703 49.7986 49.4706 49.8885 49.2608 50.0384C49.0511 50.1882 48.9312 50.4279 48.9312 50.7276C48.9312 50.9973 49.0211 51.2071 49.2009 51.3569C49.3807 51.5068 49.5905 51.5967 49.8901 51.5967C50.1599 51.5967 50.4595 51.5068 50.7892 51.3569L51.1488 51.1771V51.5667H51.7781L51.7481 51.5367ZM53.0667 51.1771C53.0667 51.0872 53.0367 51.0273 52.9768 50.9674C52.9169 50.9074 52.827 50.8775 52.7071 50.8775C52.5872 50.8775 52.4973 50.9074 52.4374 50.9674C52.3774 51.0273 52.3475 51.0872 52.3475 51.1771V51.297C52.3475 51.3869 52.3774 51.4768 52.4374 51.5068C52.4973 51.5667 52.5872 51.5967 52.7071 51.5967C52.797 51.5967 52.8869 51.5667 52.9768 51.5068C53.0367 51.4468 53.0667 51.3869 53.0667 51.297V51.1771Z" fill="#929292"/>
</svg>
