<svg width="28" height="30" viewBox="0 0 28 30" fill="none" xmlns="http://www.w3.org/2000/svg">
<path d="M25.0354 25.9256C24.8318 25.2331 24.5263 24.4593 24.1801 23.665C23.8339 22.8911 23.4266 22.0969 22.9785 21.3026C22.9174 21.4044 22.8563 21.5062 22.7952 21.6081C22.7341 21.7099 22.673 21.8117 22.5916 21.9136C22.5305 22.0154 22.449 22.1172 22.3879 22.1987C22.3064 22.3005 22.2454 22.382 22.1639 22.4838C22.1639 22.4838 22.1639 22.5042 22.1435 22.5042C22.1435 22.5042 22.1435 22.5245 22.1232 22.5245L22.1028 22.5449L22.0824 22.5653L22.0213 22.6467C22.0824 22.83 22.1639 23.0337 22.2454 23.2781C22.3268 23.5021 22.4286 23.7668 22.5101 23.9908C22.5916 24.2352 22.6527 24.4593 22.673 24.6222C22.6934 24.8055 22.6934 24.948 22.6323 25.0091C22.6119 25.0295 22.5916 25.0499 22.5508 25.0702C22.5305 25.0906 22.4897 25.0906 22.4694 25.111C22.4286 25.111 22.4083 25.1313 22.3675 25.1313C22.3268 25.1313 22.2861 25.1313 22.2454 25.1313C22.1843 25.1313 22.1028 25.111 22.0417 25.111C21.9602 25.0906 21.8788 25.0702 21.7973 25.0499C21.7158 25.0295 21.6344 24.9888 21.5326 24.948C21.4511 24.9073 21.3493 24.8666 21.2474 24.8258C21.1252 24.7647 21.0031 24.7036 20.8605 24.6425C20.7383 24.5814 20.5957 24.5 20.4532 24.4185C20.3106 24.3371 20.1681 24.2556 20.0255 24.1741C19.8829 24.0927 19.7404 23.9908 19.5775 23.9094C20.1681 23.3188 20.7179 22.6875 21.2271 22.0154C21.7362 21.3433 22.2046 20.6305 22.6119 19.8974C23.0192 19.1642 23.3655 18.3903 23.6709 17.6164C23.9561 16.8222 24.2004 16.0279 24.3634 15.2133C24.73 13.3804 24.7096 11.6493 24.3634 10.1015C24.0375 8.59448 23.3858 7.25035 22.5101 6.17098C21.6344 5.11197 20.5346 4.27698 19.2516 3.76784C17.9889 3.2587 16.543 3.01431 14.9748 3.13651C13.9362 3.1976 12.9179 3.42162 11.9404 3.74747C10.9628 4.07332 10.0056 4.52136 9.08919 5.07123C8.17274 5.6211 7.31739 6.25244 6.50277 6.9856C5.68814 7.71876 4.95498 8.51302 4.28292 9.38873C4.09963 9.04252 3.95707 8.73704 3.83488 8.45192C3.71268 8.1668 3.63122 7.90205 3.57012 7.67803C3.50903 7.45401 3.48866 7.25035 3.50903 7.08743C3.52939 6.9245 3.57012 6.78194 3.67195 6.68012C3.69232 6.63938 3.73305 6.61902 3.79415 6.57829C3.83488 6.55792 3.89597 6.51719 3.95707 6.49682C4.01817 6.47646 4.07926 6.45609 4.16073 6.43573C4.24219 6.41536 4.32365 6.41536 4.40511 6.395C4.48657 6.395 4.5884 6.395 4.69023 6.395C4.79206 6.41536 4.89389 6.43573 4.99571 6.47646C5.09754 6.51719 5.19937 6.55792 5.3012 6.61902C5.40303 6.68012 5.50485 6.76158 5.60668 6.8634C5.70851 6.74121 5.81034 6.61902 5.91216 6.51719C6.01399 6.395 6.13619 6.29317 6.23801 6.19134C6.36021 6.08951 6.46203 5.98769 6.60459 5.88586C6.72679 5.78403 6.84898 5.70257 6.99154 5.60074C7.01191 5.60074 7.01191 5.58037 7.03227 5.58037C7.05264 5.58037 7.05264 5.56001 7.073 5.56001C7.073 5.56001 7.09337 5.53964 7.11373 5.53964C7.11373 5.53964 7.1341 5.51928 7.15446 5.51928C6.93044 5.31562 6.66569 5.13233 6.40094 4.98977C6.13619 4.84721 5.87143 4.74539 5.60668 4.66392C5.34193 4.58246 5.05681 4.52136 4.79206 4.501C4.52731 4.48063 4.26255 4.46027 4.01817 4.48063C3.85524 4.501 3.67195 4.52136 3.52939 4.54173C3.36647 4.58246 3.22391 4.62319 3.10172 4.66392C2.97952 4.70465 2.85733 4.76575 2.7555 4.82685C2.65367 4.88794 2.57221 4.94904 2.49075 5.0305C2.28709 5.25452 2.1649 5.53964 2.1038 5.90622C2.04271 6.25244 2.06307 6.68012 2.1649 7.14852C2.24636 7.61693 2.40929 8.14644 2.63331 8.71667C2.85733 9.28691 3.14245 9.89787 3.48866 10.5699C3.24428 10.9365 3.02025 11.3235 2.8166 11.7104C2.61294 12.0974 2.40929 12.4843 2.226 12.8916C2.04271 13.2989 1.87978 13.7062 1.73722 14.1339C1.59466 14.5616 1.45211 14.9893 1.35028 15.4169C0.9226 17.0666 0.780041 18.6551 0.9226 20.1214C1.06516 21.6081 1.49284 22.9726 2.1649 24.1538C2.85733 25.3553 3.79415 26.3533 4.95498 27.0864C6.13619 27.8399 7.56178 28.288 9.17066 28.3898C9.63906 28.4102 10.1278 28.4102 10.6166 28.3694C11.1054 28.3287 11.5942 28.2676 12.0626 28.1658C12.5513 28.064 13.0401 27.9418 13.5085 27.7788C13.9973 27.6159 14.4657 27.4326 14.9341 27.2086L13.7936 25.0499C13.4678 25.1924 13.1216 25.2942 12.7957 25.3961C12.4495 25.4979 12.1237 25.5794 11.7774 25.6405C11.4312 25.7016 11.1054 25.7423 10.7592 25.7627C10.413 25.783 10.0871 25.783 9.74089 25.783C8.4375 25.7219 7.29702 25.3757 6.33984 24.7851C5.38266 24.2149 4.60877 23.4206 4.0589 22.4634C3.48866 21.5266 3.14245 20.4065 3.02025 19.2049C2.89806 18.0237 2.97952 16.7203 3.32574 15.3762C3.67195 14.0321 4.22182 12.7694 4.95498 11.6086C5.66778 10.4477 6.56386 9.4091 7.54141 8.51302C8.53932 7.61693 9.63906 6.88377 10.8203 6.35427C12.0015 5.82476 13.2438 5.47855 14.4861 5.41745C15.7487 5.33599 16.9096 5.53964 17.9279 5.98769C18.9665 6.43573 19.8422 7.10779 20.5346 7.98351C21.2271 8.85923 21.7362 9.93861 21.9806 11.1605C22.225 12.4028 22.225 13.7877 21.9399 15.254C21.8177 15.9057 21.614 16.5371 21.39 17.148C21.166 17.759 20.8809 18.37 20.555 18.9402C20.2292 19.5104 19.8829 20.0807 19.4756 20.6102C19.0887 21.1397 18.6406 21.6284 18.1926 22.0968C18.1926 21.9339 18.213 21.771 18.213 21.6284C18.213 21.4655 18.2333 21.3026 18.2333 21.16C18.2333 21.0175 18.2537 20.8749 18.2537 20.7527C18.2537 20.6305 18.2537 20.5491 18.2537 20.4676C18.2537 20.4065 18.2537 20.3454 18.2333 20.3047C18.213 20.264 18.213 20.2436 18.1926 20.2029C18.1722 20.1825 18.1519 20.1621 18.1315 20.1621C18.1111 20.1621 18.0908 20.1418 18.05 20.1418C18.0297 20.1418 18.0093 20.1418 17.9889 20.1418C17.9686 20.1418 17.9482 20.1418 17.9279 20.1621C17.9075 20.1621 17.9075 20.1825 17.8871 20.1825H17.8668L13.8751 21.4859C13.8751 21.4859 13.8344 21.5062 13.7936 21.5266C13.7529 21.547 13.6918 21.5877 13.6511 21.6284C13.6103 21.6692 13.5696 21.7506 13.5696 21.8321C13.5696 21.9136 13.59 22.0358 13.6511 22.1579C13.6511 22.1579 13.6511 22.1783 13.6714 22.1783C13.6714 22.1783 13.6714 22.1987 13.6918 22.1987C13.6918 22.1987 13.6918 22.219 13.7122 22.219C13.7122 22.219 13.7122 22.2394 13.7325 22.2394C13.9158 22.606 14.1602 23.0948 14.4657 23.6446C14.7508 24.1945 15.097 24.8258 15.4229 25.4368C15.7487 26.0478 16.0746 26.6587 16.3597 27.1882C16.6448 27.7177 16.8892 28.1454 17.0318 28.4305C17.0521 28.4509 17.0521 28.4713 17.0725 28.4916C17.0929 28.512 17.0929 28.5324 17.1132 28.5527C17.1132 28.5731 17.1336 28.5935 17.1336 28.6138C17.1336 28.6342 17.154 28.6342 17.154 28.6546C17.1947 28.7157 17.2354 28.7768 17.2558 28.8379C17.2965 28.8786 17.3169 28.9193 17.3576 28.96C17.3983 28.9804 17.4187 29.0211 17.4594 29.0211C17.4798 29.0415 17.5205 29.0415 17.5409 29.0415C17.5816 29.0415 17.6427 29.0211 17.6835 29.0008C17.7242 28.9804 17.7649 28.9397 17.7853 28.8786C17.8057 28.8379 17.8464 28.7768 17.8464 28.736C17.8668 28.6953 17.8668 28.6342 17.8871 28.6138C17.8871 28.5935 17.8871 28.5935 17.8871 28.5731C17.8871 28.5527 17.8871 28.5324 17.8871 28.512C17.8871 28.4916 17.8871 28.4509 17.8871 28.4305C17.8871 28.3898 17.8871 28.3694 17.8871 28.3287C17.8871 28.1862 17.9075 28.0436 17.9075 27.8807C17.9075 27.7177 17.9279 27.5548 17.9279 27.3919C17.9279 27.229 17.9482 27.1068 17.9482 27.005C17.9482 26.9031 17.9482 26.842 17.9482 26.8217C18.4981 27.1475 19.048 27.4734 19.5775 27.7585C20.1273 28.064 20.6568 28.3287 21.166 28.5731C21.6751 28.8175 22.1639 29.0211 22.6119 29.1637C23.06 29.3063 23.4877 29.4081 23.8542 29.4285C23.895 29.4285 23.9561 29.4285 23.9968 29.4285C24.0375 29.4285 24.0986 29.4285 24.1394 29.4285C24.1801 29.4285 24.2208 29.4285 24.2819 29.4081C24.3226 29.4081 24.3634 29.3877 24.4041 29.3877C24.4652 29.3674 24.5263 29.3674 24.5874 29.347C24.6485 29.3266 24.7096 29.3063 24.7503 29.2859C24.8114 29.2655 24.8521 29.2248 24.8929 29.2044C24.9336 29.1637 24.9743 29.123 25.0151 29.0822C25.2798 28.8175 25.3816 28.3898 25.3816 27.8399C25.3816 27.3104 25.2595 26.6587 25.0354 25.9663V25.9256Z" fill="#FCB8C4"/>
<path d="M12.5929 14.9481V14.0113H11.2692V8.87917H10.2916C9.88431 9.26612 9.43627 9.53087 8.94749 9.65306V10.6102C9.19188 10.5695 9.4159 10.4881 9.66029 10.3659C9.90467 10.2437 10.088 10.1215 10.2305 9.97891V13.9909H8.56055V14.9277H12.5929V14.9481ZM17.5418 10.6306C17.5418 10.0807 17.3585 9.6327 16.9715 9.28648C16.5846 8.96063 16.0958 8.77734 15.4848 8.77734C14.8739 8.77734 14.3647 8.94027 13.9982 9.26612C13.6112 9.59197 13.4279 10.04 13.4279 10.5899V13.1763C13.4279 13.7262 13.6112 14.1742 13.9982 14.5001C14.3851 14.8259 14.8739 14.9888 15.4848 14.9888C16.0958 14.9888 16.5846 14.8259 16.9715 14.4797C17.3585 14.1539 17.5418 13.7058 17.5418 13.1356V10.5899V10.6306ZM16.5031 13.0948C16.5031 13.4207 16.4217 13.6651 16.2384 13.8484C16.0551 14.0317 15.8107 14.1131 15.5052 14.1131C15.1794 14.1131 14.935 14.0317 14.772 13.8484C14.5888 13.6651 14.5073 13.4207 14.5073 13.0948V10.6713C14.5073 10.3455 14.5888 10.1011 14.772 9.91782C14.9553 9.73453 15.1997 9.65306 15.5256 9.65306C15.8514 9.65306 16.0958 9.73453 16.2791 9.91782C16.4624 10.1011 16.5439 10.3455 16.5439 10.6713L16.5235 13.0948H16.5031Z" fill="#FCB8C4"/>
<path d="M9.76136 20.0345V15.4727H8.98747V18.9348L7.1953 15.4727H6.0752V20.0345H6.84909V16.5724L8.66162 20.0345H9.76136ZM11.3499 19.6069C11.3499 19.4847 11.3091 19.4032 11.2277 19.3421C11.1462 19.281 11.0444 19.2607 10.9222 19.2607C10.8 19.2607 10.6982 19.3014 10.6167 19.3421C10.5353 19.4032 10.4945 19.4847 10.4945 19.6069V19.7291C10.4945 19.8513 10.5353 19.9327 10.6167 19.9938C10.6982 20.0549 10.8 20.0956 10.9222 20.0956C11.0444 20.0956 11.1462 20.0549 11.2277 19.9938C11.3091 19.9327 11.3499 19.8513 11.3499 19.7291L11.3295 19.6069H11.3499ZM14.7713 18.8126H14.0585C14.0585 19.2403 13.8345 19.4643 13.3864 19.4643C12.9384 19.4643 12.7144 19.2403 12.7144 18.7719V18.0998C12.7144 17.6518 12.9384 17.4074 13.3864 17.4074C13.8345 17.4074 14.0585 17.6314 14.0585 18.0591H14.7713V17.998C14.7713 17.611 14.6491 17.3056 14.4047 17.0815C14.1603 16.8779 13.8141 16.7557 13.3864 16.7557C12.9588 16.7557 12.6329 16.8575 12.3682 17.1019C12.1238 17.3259 11.9812 17.6518 11.9812 18.0387V18.833C11.9812 19.2199 12.1034 19.5458 12.3682 19.7494C12.6125 19.9734 12.9588 20.0753 13.3864 20.0753C13.8141 20.0753 14.1603 19.9734 14.4047 19.7494C14.6491 19.5254 14.7917 19.2199 14.7917 18.833L14.7713 18.7922V18.8126ZM19.9034 20.0345V17.7536C19.9034 17.4481 19.822 17.2037 19.659 17.0204C19.4961 16.8575 19.2721 16.7557 19.0073 16.7557C18.7426 16.7557 18.4982 16.8371 18.2742 16.9797L17.928 17.2037C17.7854 16.9186 17.541 16.7761 17.1541 16.7761C16.93 16.7761 16.6857 16.8371 16.482 16.9797L16.1969 17.1426V16.7964H15.4637V20.0142H16.1969V17.7943L16.5838 17.5499C16.7468 17.4685 16.8689 17.4277 16.9708 17.4277C17.1948 17.4277 17.317 17.5703 17.317 17.8351V20.0142H18.0502V17.7943L18.4371 17.5499C18.6 17.4685 18.7222 17.4277 18.824 17.4277C19.0481 17.4277 19.1703 17.5703 19.1703 17.8147V20.0142H19.9238L19.9034 20.0345Z" fill="#FCB8C4"/>
<path d="M21.9806 11.465C25.0558 11.465 27.5607 8.98042 27.5607 5.88485C27.5607 2.80965 25.0761 0.304688 21.9806 0.304688C18.9054 0.304688 16.4004 2.78929 16.4004 5.88485C16.4004 8.96005 18.885 11.465 21.9806 11.465Z" fill="#FCB8C4"/>
<path d="M21.9806 11.465C25.0558 11.465 27.5607 8.98042 27.5607 5.88485C27.5607 2.80965 25.0761 0.304688 21.9806 0.304688C18.9054 0.304688 16.4004 2.78929 16.4004 5.88485C16.4004 8.96005 18.885 11.465 21.9806 11.465Z" stroke="white" stroke-width="1.1812"/>
<path d="M23.9568 9.06253V8.41083H21.2278L22.9589 6.65939C23.3255 6.29281 23.5902 5.9466 23.7328 5.64111C23.8754 5.33563 23.9568 5.03015 23.9568 4.7043C23.9568 4.19516 23.8143 3.78785 23.4884 3.50273C23.1829 3.19725 22.7349 3.05469 22.1443 3.05469C21.5944 3.05469 21.1464 3.19725 20.8002 3.48236C20.4539 3.76748 20.291 4.15443 20.291 4.6432V4.7043H20.9631C20.9631 4.35808 21.0649 4.1137 21.2686 3.95077C21.4722 3.78785 21.7573 3.68602 22.1239 3.68602C22.5109 3.68602 22.796 3.76748 22.9793 3.95077C23.1626 4.13406 23.2644 4.37845 23.2644 4.7043C23.2644 4.96905 23.2033 5.21344 23.0811 5.43746C22.9589 5.66148 22.7552 5.92623 22.4905 6.23172L20.3928 8.39047V9.04217H23.9365L23.9568 9.06253Z" fill="#FEFEFE"/>
</svg>
