<svg width="33" height="36" viewBox="0 0 33 36" fill="none" xmlns="http://www.w3.org/2000/svg">
<path d="M29.6784 31.716C29.4318 30.8774 29.0618 29.9401 28.6425 28.9782C28.2232 28.0409 27.7299 27.0789 27.1872 26.117C27.1132 26.2403 27.0392 26.3637 26.9652 26.487C26.8912 26.6103 26.8173 26.7336 26.7186 26.857C26.6446 26.9803 26.5459 27.1036 26.4719 27.2023C26.3733 27.3256 26.2993 27.4243 26.2006 27.5476C26.2006 27.5476 26.2006 27.5722 26.176 27.5722C26.176 27.5722 26.176 27.5969 26.1513 27.5969L26.1266 27.6216L26.102 27.6462L26.028 27.7449C26.102 27.9669 26.2006 28.2135 26.2993 28.5095C26.3979 28.7808 26.5213 29.1015 26.6199 29.3728C26.7186 29.6688 26.7926 29.9401 26.8173 30.1374C26.8419 30.3594 26.8419 30.5321 26.7679 30.6061C26.7433 30.6307 26.7186 30.6554 26.6693 30.68C26.6446 30.7047 26.5953 30.7047 26.5706 30.7294C26.5213 30.7294 26.4966 30.754 26.4473 30.754C26.3979 30.754 26.3486 30.754 26.2993 30.754C26.2253 30.754 26.1266 30.7294 26.0526 30.7294C25.954 30.7047 25.8553 30.6801 25.7567 30.6554C25.658 30.6307 25.5593 30.5814 25.436 30.5321C25.3373 30.4827 25.214 30.4334 25.0907 30.3841C24.9427 30.3101 24.7947 30.2361 24.6221 30.1621C24.4741 30.0881 24.3014 29.9894 24.1288 29.8908C23.9561 29.7921 23.7834 29.6934 23.6108 29.5948C23.4381 29.4961 23.2655 29.3728 23.0682 29.2741C23.7834 28.5588 24.4494 27.7942 25.066 26.9803C25.6827 26.1663 26.25 25.3031 26.7433 24.4151C27.2366 23.5272 27.6559 22.5899 28.0258 21.6526C28.3712 20.6907 28.6671 19.7287 28.8645 18.7421C29.3084 16.5223 29.2838 14.4257 28.8645 12.5512C28.4698 10.726 27.6805 9.09807 26.6199 7.79082C25.5593 6.50823 24.2274 5.49696 22.6735 4.88033C21.1443 4.26371 19.393 3.96772 17.4938 4.11571C16.2359 4.18971 15.0027 4.46103 13.8187 4.85567C12.6348 5.25031 11.4755 5.79294 10.3656 6.4589C9.25568 7.12486 8.21975 7.88948 7.23314 8.77742C6.24654 9.66537 5.3586 10.6273 4.54465 11.6879C4.32266 11.2686 4.15 10.8986 4.00201 10.5533C3.85402 10.208 3.75536 9.88735 3.68137 9.61604C3.60737 9.34472 3.58271 9.09807 3.60737 8.90075C3.63204 8.70343 3.68137 8.53077 3.80469 8.40745C3.82936 8.35812 3.87869 8.33345 3.95268 8.28412C4.00201 8.25945 4.07601 8.21012 4.15 8.18546C4.224 8.16079 4.298 8.13613 4.39666 8.11146C4.49532 8.0868 4.59398 8.0868 4.69264 8.06213C4.7913 8.06213 4.91462 8.06213 5.03795 8.06213C5.16127 8.0868 5.2846 8.11146 5.40793 8.16079C5.53125 8.21012 5.65458 8.25946 5.7779 8.33345C5.90123 8.40745 6.02455 8.50611 6.14788 8.62943C6.2712 8.48144 6.39453 8.33345 6.51786 8.21012C6.64118 8.06213 6.78917 7.93881 6.9125 7.81548C7.06049 7.69216 7.18381 7.56883 7.35647 7.44551C7.50446 7.32218 7.65245 7.22352 7.82511 7.10019C7.84977 7.10019 7.84977 7.07553 7.87444 7.07553C7.8991 7.07553 7.8991 7.05086 7.92377 7.05086C7.92377 7.05086 7.94843 7.0262 7.9731 7.0262C7.9731 7.0262 7.99776 7.00153 8.02243 7.00153C7.75111 6.75488 7.43047 6.5329 7.10982 6.36024C6.78917 6.18758 6.46853 6.06426 6.14788 5.9656C5.82723 5.86694 5.48192 5.79294 5.16127 5.76828C4.84063 5.74361 4.51998 5.71895 4.224 5.74361C4.02668 5.76828 3.80469 5.79294 3.63204 5.81761C3.43472 5.86694 3.26206 5.91627 3.11407 5.9656C2.96608 6.01493 2.81809 6.08892 2.69476 6.16292C2.57144 6.23691 2.47278 6.31091 2.37412 6.40957C2.12747 6.68089 1.97947 7.0262 1.90548 7.47017C1.83148 7.88948 1.85615 8.40745 1.97947 8.97474C2.07814 9.54204 2.27546 10.1833 2.54677 10.874C2.81809 11.5646 3.1634 12.3045 3.58271 13.1185C3.28673 13.5625 3.01541 14.0311 2.76876 14.4997C2.52211 14.9684 2.27546 15.437 2.05347 15.9303C1.83148 16.4236 1.63416 16.9169 1.46151 17.4349C1.28885 17.9528 1.1162 18.4708 0.99287 18.9888C0.474902 20.9867 0.302246 22.9105 0.474902 24.6864C0.647558 26.487 1.16553 28.1395 1.97947 29.5701C2.81809 31.0254 3.95268 32.234 5.3586 33.1219C6.78917 34.0345 8.51573 34.5771 10.4643 34.7005C11.0316 34.7251 11.6235 34.7251 12.2155 34.6758C12.8075 34.6265 13.3994 34.5525 13.9667 34.4291C14.5587 34.3058 15.1506 34.1578 15.7179 33.9605C16.3099 33.7632 16.8772 33.5412 17.4445 33.2699L16.0633 30.6554C15.6686 30.828 15.2493 30.9514 14.8547 31.0747C14.4354 31.198 14.0407 31.2967 13.6214 31.3707C13.2021 31.4447 12.8075 31.494 12.3882 31.5187C11.9688 31.5433 11.5742 31.5433 11.1549 31.5433C9.57633 31.4693 8.19508 31.05 7.03582 30.3347C5.87656 29.6441 4.93929 28.6822 4.27333 27.5229C3.58271 26.3883 3.1634 25.0317 3.01541 23.5765C2.86742 22.1459 2.96608 20.5674 3.38539 18.9395C3.80469 17.3116 4.47065 15.7823 5.3586 14.3764C6.22187 12.9705 7.30714 11.7126 8.49107 10.6273C9.69966 9.54204 11.0316 8.6541 12.4622 8.0128C13.8927 7.37151 15.3973 6.9522 16.9019 6.87821C18.4311 6.77955 19.837 7.0262 21.0703 7.56883C22.3282 8.11146 23.3888 8.92541 24.2274 9.98601C25.066 11.0466 25.6827 12.3539 25.9786 13.8338C26.2746 15.3383 26.2746 17.0156 25.9293 18.7915C25.7813 19.5807 25.5347 20.3454 25.2633 21.0853C24.992 21.8253 24.6467 22.5652 24.2521 23.2558C23.8574 23.9465 23.4381 24.6371 22.9448 25.2784C22.4762 25.9197 21.9336 26.5116 21.3909 27.0789C21.3909 26.8816 21.4156 26.6843 21.4156 26.5116C21.4156 26.3143 21.4403 26.117 21.4403 25.9443C21.4403 25.7717 21.4649 25.599 21.4649 25.451C21.4649 25.3031 21.4649 25.2044 21.4649 25.1057C21.4649 25.0317 21.4649 24.9577 21.4403 24.9084C21.4156 24.8591 21.4156 24.8344 21.3909 24.7851C21.3663 24.7604 21.3416 24.7358 21.3169 24.7358C21.2923 24.7358 21.2676 24.7111 21.2183 24.7111C21.1936 24.7111 21.1689 24.7111 21.1443 24.7111C21.1196 24.7111 21.0949 24.7111 21.0703 24.7358C21.0456 24.7358 21.0456 24.7604 21.0209 24.7604H20.9963L16.1619 26.339C16.1619 26.339 16.1126 26.3637 16.0633 26.3883C16.0139 26.413 15.9399 26.4623 15.8906 26.5116C15.8413 26.561 15.7919 26.6596 15.7919 26.7583C15.7919 26.857 15.8166 27.0049 15.8906 27.1529C15.8906 27.1529 15.8906 27.1776 15.9153 27.1776C15.9153 27.1776 15.9153 27.2023 15.9399 27.2023C15.9399 27.2023 15.9399 27.2269 15.9646 27.2269C15.9646 27.2269 15.9646 27.2516 15.9893 27.2516C16.2112 27.6956 16.5072 28.2875 16.8772 28.9535C17.2225 29.6194 17.6418 30.3841 18.0365 31.124C18.4311 31.864 18.8258 32.6039 19.1711 33.2452C19.5164 33.8865 19.8124 34.4045 19.985 34.7498C20.0097 34.7745 20.0097 34.7991 20.0343 34.8238C20.059 34.8485 20.059 34.8731 20.0837 34.8978C20.0837 34.9225 20.1083 34.9471 20.1083 34.9718C20.1083 34.9964 20.133 34.9964 20.133 35.0211C20.1823 35.0951 20.2317 35.1691 20.2563 35.2431C20.3057 35.2924 20.3303 35.3418 20.3797 35.3911C20.429 35.4158 20.4537 35.4651 20.503 35.4651C20.5276 35.4897 20.577 35.4897 20.6016 35.4897C20.651 35.4897 20.725 35.4651 20.7743 35.4404C20.8236 35.4158 20.873 35.3664 20.8976 35.2924C20.9223 35.2431 20.9716 35.1691 20.9716 35.1198C20.9963 35.0704 20.9963 34.9964 21.0209 34.9718C21.0209 34.9471 21.0209 34.9471 21.0209 34.9225C21.0209 34.8978 21.0209 34.8731 21.0209 34.8485C21.0209 34.8238 21.0209 34.7745 21.0209 34.7498C21.0209 34.7005 21.0209 34.6758 21.0209 34.6265C21.0209 34.4538 21.0456 34.2812 21.0456 34.0838C21.0456 33.8865 21.0703 33.6892 21.0703 33.4919C21.0703 33.2946 21.0949 33.1466 21.0949 33.0232C21.0949 32.8999 21.0949 32.8259 21.0949 32.8013C21.7609 33.1959 22.4269 33.5905 23.0682 33.9358C23.7341 34.3058 24.3754 34.6265 24.992 34.9225C25.6087 35.2184 26.2006 35.4651 26.7433 35.6377C27.2859 35.8104 27.8039 35.9337 28.2478 35.9584C28.2972 35.9584 28.3712 35.9584 28.4205 35.9584C28.4698 35.9584 28.5438 35.9584 28.5931 35.9584C28.6425 35.9584 28.6918 35.9584 28.7658 35.9337C28.8151 35.9337 28.8645 35.9091 28.9138 35.9091C28.9878 35.8844 29.0618 35.8844 29.1358 35.8597C29.2098 35.8351 29.2838 35.8104 29.3331 35.7857C29.4071 35.7611 29.4564 35.7117 29.5057 35.6871C29.5551 35.6377 29.6044 35.5884 29.6537 35.5391C29.9744 35.2184 30.0977 34.7005 30.0977 34.0345C30.0977 33.3932 29.9497 32.6039 29.6784 31.7653V31.716Z" fill="#FCB8C4"/>
<path d="M14.6093 18.4227V17.2882H13.006V11.0725H11.8221C11.3288 11.5412 10.7862 11.8618 10.1942 12.0098V13.1691C10.4902 13.1197 10.7615 13.0211 11.0575 12.8731C11.3535 12.7251 11.5755 12.5771 11.7481 12.4045V17.2635H9.72559V18.3981H14.6093V18.4227ZM20.6029 13.1937C20.6029 12.5278 20.3809 11.9852 19.9123 11.5658C19.4436 11.1712 18.8517 10.9492 18.1117 10.9492C17.3718 10.9492 16.7551 11.1465 16.3112 11.5412C15.8425 11.9358 15.6206 12.4785 15.6206 13.1444V16.2769C15.6206 16.9428 15.8425 17.4855 16.3112 17.8801C16.7798 18.2748 17.3718 18.4721 18.1117 18.4721C18.8517 18.4721 19.4436 18.2748 19.9123 17.8555C20.3809 17.4608 20.6029 16.9182 20.6029 16.2276V13.1444V13.1937ZM19.345 16.1782C19.345 16.5729 19.2463 16.8688 19.0243 17.0908C18.8024 17.3128 18.5064 17.4115 18.1364 17.4115C17.7418 17.4115 17.4458 17.3128 17.2484 17.0908C17.0265 16.8688 16.9278 16.5729 16.9278 16.1782V13.2431C16.9278 12.8484 17.0265 12.5525 17.2484 12.3305C17.4704 12.1085 17.7664 12.0098 18.1611 12.0098C18.5557 12.0098 18.8517 12.1085 19.0737 12.3305C19.2957 12.5525 19.3943 12.8484 19.3943 13.2431L19.3696 16.1782H19.345Z" fill="#FCB8C4"/>
<path d="M11.1792 24.5836V19.0586H10.242V23.2517L8.07143 19.0586H6.71484V24.5836H7.65212V20.3905L9.84731 24.5836H11.1792ZM13.1031 24.0656C13.1031 23.9176 13.0538 23.819 12.9551 23.745C12.8565 23.671 12.7331 23.6463 12.5851 23.6463C12.4372 23.6463 12.3138 23.6956 12.2152 23.745C12.1165 23.819 12.0672 23.9176 12.0672 24.0656V24.2136C12.0672 24.3616 12.1165 24.4603 12.2152 24.5343C12.3138 24.6082 12.4372 24.6576 12.5851 24.6576C12.7331 24.6576 12.8565 24.6082 12.9551 24.5343C13.0538 24.4603 13.1031 24.3616 13.1031 24.2136L13.0784 24.0656H13.1031ZM17.2469 23.1037H16.3836C16.3836 23.6216 16.1123 23.893 15.5696 23.893C15.027 23.893 14.7557 23.6216 14.7557 23.0543V22.2404C14.7557 21.6978 15.027 21.4018 15.5696 21.4018C16.1123 21.4018 16.3836 21.6731 16.3836 22.1911H17.2469V22.1171C17.2469 21.6484 17.0989 21.2785 16.8029 21.0071C16.5069 20.7605 16.0876 20.6125 15.5696 20.6125C15.0517 20.6125 14.657 20.7358 14.3364 21.0318C14.0404 21.3031 13.8677 21.6978 13.8677 22.1664V23.1283C13.8677 23.597 14.0157 23.9916 14.3364 24.2383C14.6323 24.5096 15.0517 24.6329 15.5696 24.6329C16.0876 24.6329 16.5069 24.5096 16.8029 24.2383C17.0989 23.967 17.2715 23.597 17.2715 23.1283L17.2469 23.079V23.1037ZM23.4625 24.5836V21.8211C23.4625 21.4511 23.3638 21.1551 23.1665 20.9331C22.9692 20.7358 22.6978 20.6125 22.3772 20.6125C22.0565 20.6125 21.7606 20.7112 21.4893 20.8838L21.0699 21.1551C20.8973 20.8098 20.6013 20.6372 20.1327 20.6372C19.8614 20.6372 19.5654 20.7112 19.3187 20.8838L18.9734 21.0811V20.6618H18.0855V24.5589H18.9734V21.8704L19.442 21.5744C19.6394 21.4758 19.7874 21.4264 19.9107 21.4264C20.182 21.4264 20.33 21.5991 20.33 21.9197V24.5589H21.2179V21.8704L21.6866 21.5744C21.8839 21.4758 22.0319 21.4264 22.1552 21.4264C22.4265 21.4264 22.5745 21.5991 22.5745 21.8951V24.5589H23.4871L23.4625 24.5836Z" fill="#FCB8C4"/>
<path d="M25.9789 14.204C29.7034 14.204 32.7372 11.1948 32.7372 7.44574C32.7372 3.72131 29.728 0.6875 25.9789 0.6875C22.2545 0.6875 19.2207 3.69665 19.2207 7.44574C19.2207 11.1702 22.2298 14.204 25.9789 14.204Z" fill="#FCB8C4"/>
<path d="M25.9789 14.204C29.7034 14.204 32.7372 11.1948 32.7372 7.44574C32.7372 3.72131 29.728 0.6875 25.9789 0.6875C22.2545 0.6875 19.2207 3.69664 19.2207 7.44574C19.2207 11.1702 22.2298 14.204 25.9789 14.204Z" stroke="white" stroke-width="1.43058"/>
<path d="M28.3723 11.2957V10.5065H25.0672L27.1637 8.38526C27.6077 7.94129 27.9284 7.52198 28.101 7.152C28.2737 6.78203 28.3723 6.41205 28.3723 6.01741C28.3723 5.40078 28.1997 4.90748 27.805 4.56216C27.4351 4.19219 26.8924 4.01953 26.1771 4.01953C25.5112 4.01953 24.9686 4.19219 24.5492 4.5375C24.1299 4.88281 23.9326 5.35145 23.9326 5.94341V6.01741H24.7466C24.7466 5.5981 24.8699 5.30212 25.1165 5.1048C25.3632 4.90748 25.7085 4.78415 26.1525 4.78415C26.6211 4.78415 26.9664 4.88281 27.1884 5.1048C27.4104 5.32678 27.5337 5.62276 27.5337 6.01741C27.5337 6.33805 27.4597 6.63403 27.3117 6.90535C27.1637 7.17667 26.9171 7.49731 26.5965 7.86729L24.0559 10.4818V11.2711H28.3477L28.3723 11.2957Z" fill="#FEFEFE"/>
</svg>
