<svg width="33" height="36" viewBox="0 0 33 36" fill="none" xmlns="http://www.w3.org/2000/svg">
<path d="M29.3054 31.716C29.0587 30.8774 28.6887 29.9401 28.2694 28.9782C27.8501 28.0409 27.3568 27.0789 26.8142 26.117C26.7402 26.2403 26.6662 26.3637 26.5922 26.487C26.5182 26.6103 26.4442 26.7336 26.3455 26.857C26.2715 26.9803 26.1729 27.1036 26.0989 27.2023C26.0002 27.3256 25.9262 27.4243 25.8276 27.5476C25.8276 27.5476 25.8276 27.5722 25.8029 27.5722C25.8029 27.5722 25.8029 27.5969 25.7782 27.5969L25.7536 27.6216L25.7289 27.6462L25.6549 27.7449C25.7289 27.9669 25.8276 28.2135 25.9262 28.5095C26.0249 28.7808 26.1482 29.1015 26.2469 29.3728C26.3455 29.6688 26.4195 29.9401 26.4442 30.1374C26.4689 30.3594 26.4689 30.5321 26.3949 30.6061C26.3702 30.6307 26.3455 30.6554 26.2962 30.68C26.2715 30.7047 26.2222 30.7047 26.1976 30.7294C26.1482 30.7294 26.1236 30.754 26.0742 30.754C26.0249 30.754 25.9756 30.754 25.9262 30.754C25.8522 30.754 25.7536 30.7294 25.6796 30.7294C25.5809 30.7047 25.4823 30.6801 25.3836 30.6554C25.2849 30.6307 25.1863 30.5814 25.063 30.5321C24.9643 30.4827 24.841 30.4334 24.7176 30.3841C24.5697 30.3101 24.4217 30.2361 24.249 30.1621C24.101 30.0881 23.9284 29.9894 23.7557 29.8908C23.583 29.7921 23.4104 29.6934 23.2377 29.5948C23.0651 29.4961 22.8924 29.3728 22.6951 29.2741C23.4104 28.5588 24.0764 27.7942 24.693 26.9803C25.3096 26.1663 25.8769 25.3031 26.3702 24.4151C26.8635 23.5272 27.2828 22.5899 27.6528 21.6526C27.9981 20.6907 28.2941 19.7287 28.4914 18.7421C28.9354 16.5223 28.9107 14.4257 28.4914 12.5512C28.0968 10.726 27.3075 9.09807 26.2469 7.79082C25.1863 6.50823 23.8544 5.49696 22.3005 4.88033C20.7712 4.26371 19.02 3.96772 17.1208 4.11571C15.8629 4.18971 14.6296 4.46103 13.4457 4.85567C12.2618 5.25031 11.1025 5.79294 9.99257 6.4589C8.88264 7.12486 7.8467 7.88948 6.8601 8.77742C5.87349 9.66537 4.98555 10.6273 4.1716 11.6879C3.94961 11.2686 3.77696 10.8986 3.62897 10.5533C3.48098 10.208 3.38232 9.88735 3.30832 9.61604C3.23433 9.34472 3.20966 9.09807 3.23433 8.90075C3.25899 8.70343 3.30832 8.53077 3.43165 8.40745C3.45631 8.35812 3.50564 8.33345 3.57964 8.28412C3.62897 8.25945 3.70296 8.21012 3.77696 8.18546C3.85095 8.16079 3.92495 8.13613 4.02361 8.11146C4.12227 8.0868 4.22093 8.0868 4.31959 8.06213C4.41825 8.06213 4.54158 8.06213 4.6649 8.06213C4.78823 8.0868 4.91155 8.11146 5.03488 8.16079C5.1582 8.21012 5.28153 8.25946 5.40486 8.33345C5.52818 8.40745 5.65151 8.50611 5.77483 8.62943C5.89816 8.48144 6.02148 8.33345 6.14481 8.21012C6.26814 8.06213 6.41613 7.93881 6.53945 7.81548C6.68744 7.69216 6.81077 7.56883 6.98342 7.44551C7.13141 7.32218 7.27941 7.22352 7.45206 7.10019C7.47673 7.10019 7.47673 7.07553 7.50139 7.07553C7.52606 7.07553 7.52606 7.05086 7.55072 7.05086C7.55072 7.05086 7.57539 7.0262 7.60005 7.0262C7.60005 7.0262 7.62472 7.00153 7.64938 7.00153C7.37807 6.75488 7.05742 6.5329 6.73677 6.36024C6.41613 6.18758 6.09548 6.06426 5.77483 5.9656C5.45419 5.86694 5.10887 5.79294 4.78823 5.76828C4.46758 5.74361 4.14693 5.71895 3.85095 5.74361C3.65363 5.76828 3.43165 5.79294 3.25899 5.81761C3.06167 5.86694 2.88901 5.91627 2.74102 5.9656C2.59303 6.01493 2.44504 6.08892 2.32172 6.16292C2.19839 6.23691 2.09973 6.31091 2.00107 6.40957C1.75442 6.68089 1.60643 7.0262 1.53243 7.47017C1.45844 7.88948 1.4831 8.40745 1.60643 8.97474C1.70509 9.54204 1.90241 10.1833 2.17373 10.874C2.44504 11.5646 2.79035 12.3045 3.20966 13.1185C2.91368 13.5625 2.64236 14.0311 2.39571 14.4997C2.14906 14.9684 1.90241 15.437 1.68042 15.9303C1.45844 16.4236 1.26112 16.9169 1.08846 17.4349C0.915804 17.9528 0.743148 18.4708 0.619823 18.9888C0.101855 20.9867 -0.0708005 22.9105 0.101855 24.6864C0.274511 26.487 0.792479 28.1395 1.60643 29.5701C2.44504 31.0254 3.57964 32.234 4.98555 33.1219C6.41613 34.0345 8.14268 34.5771 10.0912 34.7005C10.6585 34.7251 11.2505 34.7251 11.8425 34.6758C12.4344 34.6265 13.0264 34.5525 13.5937 34.4291C14.1856 34.3058 14.7776 34.1578 15.3449 33.9605C15.9369 33.7632 16.5042 33.5412 17.0715 33.2699L15.6902 30.6554C15.2956 30.828 14.8763 30.9514 14.4816 31.0747C14.0623 31.198 13.6677 31.2967 13.2484 31.3707C12.8291 31.4447 12.4344 31.494 12.0151 31.5187C11.5958 31.5433 11.2012 31.5433 10.7819 31.5433C9.20328 31.4693 7.82204 31.05 6.66278 30.3347C5.50352 29.6441 4.56624 28.6822 3.90028 27.5229C3.20966 26.3883 2.79035 25.0317 2.64236 23.5765C2.49437 22.1459 2.59303 20.5674 3.01234 18.9395C3.43165 17.3116 4.0976 15.7823 4.98555 14.3764C5.84883 12.9705 6.93409 11.7126 8.11802 10.6273C9.32661 9.54204 10.6585 8.6541 12.0891 8.0128C13.5197 7.37151 15.0243 6.9522 16.5288 6.87821C18.0581 6.77955 19.464 7.0262 20.6972 7.56883C21.9552 8.11146 23.0158 8.92541 23.8544 9.98601C24.693 11.0466 25.3096 12.3539 25.6056 13.8338C25.9016 15.3383 25.9016 17.0156 25.5563 18.7915C25.4083 19.5807 25.1616 20.3454 24.8903 21.0853C24.619 21.8253 24.2737 22.5652 23.879 23.2558C23.4844 23.9465 23.0651 24.6371 22.5718 25.2784C22.1031 25.9197 21.5605 26.5116 21.0179 27.0789C21.0179 26.8816 21.0425 26.6843 21.0425 26.5116C21.0425 26.3143 21.0672 26.117 21.0672 25.9443C21.0672 25.7717 21.0919 25.599 21.0919 25.451C21.0919 25.3031 21.0919 25.2044 21.0919 25.1057C21.0919 25.0317 21.0919 24.9577 21.0672 24.9084C21.0425 24.8591 21.0425 24.8344 21.0179 24.7851C20.9932 24.7604 20.9685 24.7358 20.9439 24.7358C20.9192 24.7358 20.8946 24.7111 20.8452 24.7111C20.8206 24.7111 20.7959 24.7111 20.7712 24.7111C20.7466 24.7111 20.7219 24.7111 20.6972 24.7358C20.6726 24.7358 20.6726 24.7604 20.6479 24.7604H20.6232L15.7889 26.339C15.7889 26.339 15.7395 26.3637 15.6902 26.3883C15.6409 26.413 15.5669 26.4623 15.5176 26.5116C15.4682 26.561 15.4189 26.6596 15.4189 26.7583C15.4189 26.857 15.4436 27.0049 15.5176 27.1529C15.5176 27.1529 15.5176 27.1776 15.5422 27.1776C15.5422 27.1776 15.5422 27.2023 15.5669 27.2023C15.5669 27.2023 15.5669 27.2269 15.5916 27.2269C15.5916 27.2269 15.5915 27.2516 15.6162 27.2516C15.8382 27.6956 16.1342 28.2875 16.5042 28.9535C16.8495 29.6194 17.2688 30.3841 17.6634 31.124C18.0581 31.864 18.4527 32.6039 18.798 33.2452C19.1433 33.8865 19.4393 34.4045 19.612 34.7498C19.6366 34.7745 19.6366 34.7991 19.6613 34.8238C19.686 34.8485 19.686 34.8731 19.7106 34.8978C19.7106 34.9225 19.7353 34.9471 19.7353 34.9718C19.7353 34.9964 19.76 34.9964 19.76 35.0211C19.8093 35.0951 19.8586 35.1691 19.8833 35.2431C19.9326 35.2924 19.9573 35.3418 20.0066 35.3911C20.0559 35.4158 20.0806 35.4651 20.1299 35.4651C20.1546 35.4897 20.2039 35.4897 20.2286 35.4897C20.2779 35.4897 20.3519 35.4651 20.4012 35.4404C20.4506 35.4158 20.4999 35.3664 20.5246 35.2924C20.5492 35.2431 20.5986 35.1691 20.5986 35.1198C20.6232 35.0704 20.6232 34.9964 20.6479 34.9718C20.6479 34.9471 20.6479 34.9471 20.6479 34.9225C20.6479 34.8978 20.6479 34.8731 20.6479 34.8485C20.6479 34.8238 20.6479 34.7745 20.6479 34.7498C20.6479 34.7005 20.6479 34.6758 20.6479 34.6265C20.6479 34.4538 20.6726 34.2812 20.6726 34.0838C20.6726 33.8865 20.6972 33.6892 20.6972 33.4919C20.6972 33.2946 20.7219 33.1466 20.7219 33.0232C20.7219 32.8999 20.7219 32.8259 20.7219 32.8013C21.3879 33.1959 22.0538 33.5905 22.6951 33.9358C23.3611 34.3058 24.0024 34.6265 24.619 34.9225C25.2356 35.2184 25.8276 35.4651 26.3702 35.6377C26.9128 35.8104 27.4308 35.9337 27.8748 35.9584C27.9241 35.9584 27.9981 35.9584 28.0474 35.9584C28.0968 35.9584 28.1708 35.9584 28.2201 35.9584C28.2694 35.9584 28.3188 35.9584 28.3927 35.9337C28.4421 35.9337 28.4914 35.9091 28.5407 35.9091C28.6147 35.8844 28.6887 35.8844 28.7627 35.8597C28.8367 35.8351 28.9107 35.8104 28.96 35.7857C29.034 35.7611 29.0834 35.7117 29.1327 35.6871C29.182 35.6377 29.2314 35.5884 29.2807 35.5391C29.6013 35.2184 29.7247 34.7005 29.7247 34.0345C29.7247 33.3932 29.5767 32.6039 29.3054 31.7653V31.716Z" fill="#FCB8C4"/>
<path d="M14.2362 18.4227V17.2882H12.633V11.0725H11.4491C10.9558 11.5412 10.4131 11.8618 9.82118 12.0098V13.1691C10.1172 13.1197 10.3885 13.0211 10.6845 12.8731C10.9804 12.7251 11.2024 12.5771 11.3751 12.4045V17.2635H9.35254V18.3981H14.2362V18.4227ZM20.2299 13.1937C20.2299 12.5278 20.0079 11.9852 19.5392 11.5658C19.0706 11.1712 18.4786 10.9492 17.7387 10.9492C16.9987 10.9492 16.3821 11.1465 15.9381 11.5412C15.4695 11.9358 15.2475 12.4785 15.2475 13.1444V16.2769C15.2475 16.9428 15.4695 17.4855 15.9381 17.8801C16.4068 18.2748 16.9987 18.4721 17.7387 18.4721C18.4786 18.4721 19.0706 18.2748 19.5392 17.8555C20.0079 17.4608 20.2299 16.9182 20.2299 16.2276V13.1444V13.1937ZM18.9719 16.1782C18.9719 16.5729 18.8733 16.8688 18.6513 17.0908C18.4293 17.3128 18.1333 17.4115 17.7633 17.4115C17.3687 17.4115 17.0727 17.3128 16.8754 17.0908C16.6534 16.8688 16.5548 16.5729 16.5548 16.1782V13.2431C16.5548 12.8484 16.6534 12.5525 16.8754 12.3305C17.0974 12.1085 17.3934 12.0098 17.788 12.0098C18.1827 12.0098 18.4786 12.1085 18.7006 12.3305C18.9226 12.5525 19.0213 12.8484 19.0213 13.2431L18.9966 16.1782H18.9719Z" fill="#FCB8C4"/>
<path d="M10.8062 24.5836V19.0586H9.86891V23.2517L7.69838 19.0586H6.3418V24.5836H7.27907V20.3905L9.47427 24.5836H10.8062ZM12.7301 24.0656C12.7301 23.9176 12.6807 23.819 12.5821 23.745C12.4834 23.671 12.3601 23.6463 12.2121 23.6463C12.0641 23.6463 11.9408 23.6956 11.8421 23.745C11.7435 23.819 11.6941 23.9176 11.6941 24.0656V24.2136C11.6941 24.3616 11.7435 24.4603 11.8421 24.5343C11.9408 24.6082 12.0641 24.6576 12.2121 24.6576C12.3601 24.6576 12.4834 24.6082 12.5821 24.5343C12.6807 24.4603 12.7301 24.3616 12.7301 24.2136L12.7054 24.0656H12.7301ZM16.8738 23.1037H16.0105C16.0105 23.6216 15.7392 23.893 15.1966 23.893C14.6539 23.893 14.3826 23.6216 14.3826 23.0543V22.2404C14.3826 21.6978 14.6539 21.4018 15.1966 21.4018C15.7392 21.4018 16.0105 21.6731 16.0105 22.1911H16.8738V22.1171C16.8738 21.6484 16.7258 21.2785 16.4298 21.0071C16.1339 20.7605 15.7145 20.6125 15.1966 20.6125C14.6786 20.6125 14.284 20.7358 13.9633 21.0318C13.6673 21.3031 13.4947 21.6978 13.4947 22.1664V23.1283C13.4947 23.597 13.6427 23.9916 13.9633 24.2383C14.2593 24.5096 14.6786 24.6329 15.1966 24.6329C15.7145 24.6329 16.1339 24.5096 16.4298 24.2383C16.7258 23.967 16.8985 23.597 16.8985 23.1283L16.8738 23.079V23.1037ZM23.0894 24.5836V21.8211C23.0894 21.4511 22.9908 21.1551 22.7934 20.9331C22.5961 20.7358 22.3248 20.6125 22.0041 20.6125C21.6835 20.6125 21.3875 20.7112 21.1162 20.8838L20.6969 21.1551C20.5242 20.8098 20.2283 20.6372 19.7596 20.6372C19.4883 20.6372 19.1923 20.7112 18.9457 20.8838L18.6004 21.0811V20.6618H17.7124V24.5589H18.6004V21.8704L19.069 21.5744C19.2663 21.4758 19.4143 21.4264 19.5376 21.4264C19.809 21.4264 19.9569 21.5991 19.9569 21.9197V24.5589H20.8449V21.8704L21.3135 21.5744C21.5108 21.4758 21.6588 21.4264 21.7822 21.4264C22.0535 21.4264 22.2015 21.5991 22.2015 21.8951V24.5589H23.1141L23.0894 24.5836Z" fill="#FCB8C4"/>
<path d="M25.6059 14.204C29.3303 14.204 32.3641 11.1948 32.3641 7.44574C32.3641 3.72131 29.355 0.6875 25.6059 0.6875C21.8815 0.6875 18.8477 3.69665 18.8477 7.44574C18.8477 11.1702 21.8568 14.204 25.6059 14.204Z" fill="#FCB8C4"/>
<path d="M25.6059 14.204C29.3303 14.204 32.3641 11.1948 32.3641 7.44574C32.3641 3.72131 29.355 0.6875 25.6059 0.6875C21.8815 0.6875 18.8477 3.69664 18.8477 7.44574C18.8477 11.1702 21.8568 14.204 25.6059 14.204Z" stroke="white" stroke-width="1.43058"/>
<path d="M27.9993 11.2957V10.5065H24.6942L26.7907 8.38526C27.2347 7.94129 27.5553 7.52198 27.728 7.152C27.9006 6.78203 27.9993 6.41205 27.9993 6.01741C27.9993 5.40078 27.8266 4.90748 27.432 4.56216C27.062 4.19219 26.5194 4.01953 25.8041 4.01953C25.1381 4.01953 24.5955 4.19219 24.1762 4.5375C23.7569 4.88281 23.5596 5.35145 23.5596 5.94341V6.01741H24.3735C24.3735 5.5981 24.4968 5.30212 24.7435 5.1048C24.9901 4.90748 25.3355 4.78415 25.7794 4.78415C26.2481 4.78415 26.5934 4.88281 26.8154 5.1048C27.0374 5.32678 27.1607 5.62276 27.1607 6.01741C27.1607 6.33805 27.0867 6.63403 26.9387 6.90535C26.7907 7.17667 26.544 7.49731 26.2234 7.86729L23.6829 10.4818V11.2711H27.9746L27.9993 11.2957Z" fill="#FEFEFE"/>
</svg>
