<svg width="17" height="16" viewBox="0 0 17 16" fill="none" xmlns="http://www.w3.org/2000/svg">
<path d="M8.16573 15.9936C12.5604 15.9936 16.0336 12.4495 16.0336 8.12569C16.0336 3.73102 12.4895 0.257812 8.16573 0.257812C3.77106 0.257812 0.297852 3.8019 0.297852 8.12569C0.297852 12.5204 3.84194 15.9936 8.16573 15.9936Z" fill="#FCB8C4"/>
<path d="M8.30752 8.69382C8.80369 8.69382 9.22898 8.83559 9.51251 9.11911C9.79604 9.40264 9.9378 9.75705 9.9378 10.2532C9.9378 10.7494 9.79604 11.1747 9.44163 11.4582C9.08722 11.7417 8.73281 11.8835 8.16576 11.8835C7.5987 11.8835 7.17341 11.7417 6.819 11.5291C6.53548 11.2456 6.32283 10.8912 6.32283 10.395H5.40137V10.4659C5.40137 11.1747 5.68489 11.7417 6.18107 12.0961C6.67724 12.5214 7.31518 12.6632 8.16576 12.6632C8.87458 12.6632 9.51251 12.4506 10.0796 12.0253C10.6466 11.6 10.8593 10.962 10.8593 10.1823C10.8593 9.89881 10.7884 9.61529 10.7175 9.40264C10.6466 9.19 10.5049 8.97735 10.434 8.83559C10.2922 8.69382 10.1504 8.55206 10.0087 8.48118C9.86692 8.4103 9.79604 8.33941 9.72516 8.26853C9.65427 8.26853 9.65427 8.19765 9.58339 8.19765L9.72516 8.12677C9.79604 8.12677 9.9378 8.05589 10.0087 7.91412C10.1504 7.84324 10.2213 7.70148 10.3631 7.55971C10.5049 7.41795 10.5757 7.27619 10.6466 6.99266C10.7175 6.78001 10.7884 6.49649 10.7884 6.28384C10.7884 5.64591 10.5757 5.07885 10.0796 4.65356C9.58339 4.22827 9.01634 4.01562 8.16576 4.01562C7.38606 4.01562 6.819 4.22827 6.32283 4.58268C5.82666 4.93709 5.61401 5.50414 5.61401 6.14208V6.21296H6.53548C6.53548 5.78767 6.67724 5.43326 6.96077 5.22062C7.24429 5.00797 7.66958 4.86621 8.16576 4.86621C8.73281 4.86621 9.08722 5.00797 9.37075 5.22062C9.65427 5.50414 9.79604 5.78767 9.79604 6.21296C9.79604 6.70913 9.65427 7.06354 9.37075 7.34707C9.08722 7.6306 8.73281 7.77236 8.23664 7.77236H6.96077V8.62294H8.30752V8.69382Z" fill="#FEFEFE"/>
</svg>
