<svg width="34" height="36" viewBox="0 0 34 36" fill="none" xmlns="http://www.w3.org/2000/svg">
<path d="M30.0348 31.3449C29.7882 30.5063 29.4182 29.569 28.9989 28.6071C28.5796 27.6698 28.0863 26.7078 27.5437 25.7459C27.4697 25.8692 27.3957 25.9926 27.3217 26.1159C27.2477 26.2392 27.1737 26.3625 27.075 26.4859C27.001 26.6092 26.9024 26.7325 26.8284 26.8312C26.7297 26.9545 26.6557 27.0532 26.5571 27.1765C26.5571 27.1765 26.5571 27.2012 26.5324 27.2012C26.5324 27.2012 26.5324 27.2258 26.5077 27.2258L26.4831 27.2505L26.4584 27.2751L26.3844 27.3738C26.4584 27.5958 26.5571 27.8424 26.6557 28.1384C26.7544 28.4097 26.8777 28.7304 26.9764 29.0017C27.075 29.2977 27.149 29.569 27.1737 29.7663C27.1984 29.9883 27.1984 30.161 27.1244 30.235C27.0997 30.2596 27.075 30.2843 27.0257 30.309C27.001 30.3336 26.9517 30.3336 26.927 30.3583C26.8777 30.3583 26.8531 30.383 26.8037 30.383C26.7544 30.383 26.7051 30.383 26.6557 30.383C26.5817 30.383 26.4831 30.3583 26.4091 30.3583C26.3104 30.3336 26.2118 30.309 26.1131 30.2843C26.0144 30.2596 25.9158 30.2103 25.7924 30.161C25.6938 30.1116 25.5705 30.0623 25.4471 30.013C25.2991 29.939 25.1512 29.865 24.9785 29.791C24.8305 29.717 24.6579 29.6183 24.4852 29.5197C24.3125 29.421 24.1399 29.3224 23.9672 29.2237C23.7946 29.125 23.6219 29.0017 23.4246 28.903C24.1399 28.1878 24.8058 27.4231 25.4225 26.6092C26.0391 25.7952 26.6064 24.932 27.0997 24.044C27.593 23.1561 28.0123 22.2188 28.3823 21.2815C28.7276 20.3196 29.0236 19.3576 29.2209 18.371C29.6649 16.1512 29.6402 14.0546 29.2209 12.1801C28.8263 10.3549 28.037 8.72698 26.9764 7.41972C25.9158 6.13714 24.5839 5.12587 23.03 4.50924C21.5007 3.89261 19.7495 3.59663 17.8503 3.74462C16.5924 3.81862 15.3591 4.08993 14.1752 4.48457C12.9913 4.87922 11.832 5.42185 10.7221 6.08781C9.61213 6.75377 8.57619 7.51838 7.58959 8.40633C6.60299 9.29427 5.71504 10.2562 4.90109 11.3168C4.67911 10.8975 4.50645 10.5275 4.35846 10.1822C4.21047 9.83691 4.11181 9.51626 4.03781 9.24494C3.96382 8.97363 3.93915 8.72698 3.96382 8.52965C3.98848 8.33233 4.03781 8.15968 4.16114 8.03635C4.1858 7.98702 4.23513 7.96236 4.30913 7.91303C4.35846 7.88836 4.43245 7.83903 4.50645 7.81437C4.58045 7.7897 4.65444 7.76504 4.7531 7.74037C4.85176 7.71571 4.95042 7.71571 5.04908 7.69104C5.14774 7.69104 5.27107 7.69104 5.39439 7.69104C5.51772 7.71571 5.64105 7.74037 5.76437 7.7897C5.8877 7.83903 6.01102 7.88836 6.13435 7.96236C6.25767 8.03635 6.381 8.13501 6.50432 8.25834C6.62765 8.11035 6.75098 7.96236 6.8743 7.83903C6.99763 7.69104 7.14562 7.56771 7.26894 7.44439C7.41693 7.32106 7.54026 7.19774 7.71292 7.07441C7.86091 6.95109 8.0089 6.85243 8.18155 6.7291C8.20622 6.7291 8.20622 6.70444 8.23088 6.70444C8.25555 6.70444 8.25555 6.67977 8.28021 6.67977C8.28021 6.67977 8.30488 6.65511 8.32954 6.65511C8.32954 6.65511 8.35421 6.63044 8.37887 6.63044C8.10756 6.38379 7.78691 6.1618 7.46626 5.98915C7.14562 5.81649 6.82497 5.69317 6.50432 5.59451C6.18368 5.49584 5.83837 5.42185 5.51772 5.39718C5.19707 5.37252 4.87643 5.34785 4.58045 5.37252C4.38312 5.39718 4.16114 5.42185 3.98848 5.44651C3.79116 5.49584 3.61851 5.54517 3.47052 5.59451C3.32252 5.64384 3.17453 5.71783 3.05121 5.79183C2.92788 5.86582 2.82922 5.93982 2.73056 6.03848C2.48391 6.30979 2.33592 6.65511 2.26192 7.09908C2.18793 7.51838 2.21259 8.03635 2.33592 8.60365C2.43458 9.17095 2.6319 9.81224 2.90322 10.5029C3.17453 11.1935 3.51985 11.9334 3.93915 12.7474C3.64317 13.1914 3.37185 13.66 3.1252 14.1286C2.87855 14.5973 2.6319 15.0659 2.40992 15.5592C2.18793 16.0525 1.99061 16.5458 1.81795 17.0638C1.6453 17.5818 1.47264 18.0997 1.34932 18.6177C0.831348 20.6156 0.658692 22.5394 0.831347 24.3153C1.004 26.1159 1.52197 27.7684 2.33592 29.199C3.17453 30.6543 4.30913 31.8629 5.71504 32.7508C7.14562 33.6634 8.87218 34.206 10.8207 34.3294C11.388 34.354 11.98 34.354 12.5719 34.3047C13.1639 34.2554 13.7559 34.1814 14.3232 34.0581C14.9151 33.9347 15.5071 33.7867 16.0744 33.5894C16.6664 33.3921 17.2337 33.1701 17.8009 32.8988L16.4197 30.2843C16.0251 30.4569 15.6058 30.5803 15.2111 30.7036C14.7918 30.8269 14.3972 30.9256 13.9779 30.9996C13.5585 31.0736 13.1639 31.1229 12.7446 31.1476C12.3253 31.1722 11.9307 31.1722 11.5113 31.1722C9.93278 31.0982 8.55153 30.6789 7.39227 29.9636C6.23301 29.273 5.29573 28.3111 4.62978 27.1518C3.93915 26.0172 3.51985 24.6606 3.37185 23.2054C3.22386 21.7748 3.32252 20.1963 3.74183 18.5684C4.16114 16.9405 4.8271 15.4112 5.71504 14.0053C6.57832 12.5994 7.66359 11.3415 8.84751 10.2562C10.0561 9.17095 11.388 8.283 12.8186 7.64171C14.2492 7.00042 15.7537 6.58111 17.2583 6.50711C18.7876 6.40845 20.1935 6.65511 21.4267 7.19774C22.6846 7.74037 23.7452 8.55432 24.5839 9.61492C25.4225 10.6755 26.0391 11.9828 26.3351 13.4627C26.6311 14.9673 26.6311 16.6445 26.2858 18.4204C26.1378 19.2097 25.8911 19.9743 25.6198 20.7142C25.3485 21.4542 25.0032 22.1941 24.6085 22.8848C24.2139 23.5754 23.7946 24.266 23.3013 24.9073C22.8326 25.5486 22.29 26.1406 21.7474 26.7078C21.7474 26.5105 21.772 26.3132 21.772 26.1406C21.772 25.9432 21.7967 25.7459 21.7967 25.5733C21.7967 25.4006 21.8214 25.2279 21.8214 25.08C21.8214 24.932 21.8214 24.8333 21.8214 24.7346C21.8214 24.6606 21.8214 24.5866 21.7967 24.5373C21.772 24.488 21.772 24.4633 21.7474 24.414C21.7227 24.3893 21.698 24.3647 21.6734 24.3647C21.6487 24.3647 21.624 24.34 21.5747 24.34C21.55 24.34 21.5254 24.34 21.5007 24.34C21.4761 24.34 21.4514 24.34 21.4267 24.3647C21.4021 24.3647 21.4021 24.3893 21.3774 24.3893H21.3527L16.5184 25.9679C16.5184 25.9679 16.469 25.9926 16.4197 26.0172C16.3704 26.0419 16.2964 26.0912 16.247 26.1406C16.1977 26.1899 16.1484 26.2885 16.1484 26.3872C16.1484 26.4859 16.1731 26.6339 16.247 26.7818C16.247 26.7818 16.247 26.8065 16.2717 26.8065C16.2717 26.8065 16.2717 26.8312 16.2964 26.8312C16.2964 26.8312 16.2964 26.8558 16.321 26.8558C16.321 26.8558 16.321 26.8805 16.3457 26.8805C16.5677 27.3245 16.8637 27.9164 17.2337 28.5824C17.579 29.2484 17.9983 30.013 18.3929 30.7529C18.7876 31.4929 19.1822 32.2328 19.5275 32.8741C19.8728 33.5154 20.1688 34.0334 20.3415 34.3787C20.3661 34.4034 20.3661 34.428 20.3908 34.4527C20.4155 34.4774 20.4155 34.502 20.4401 34.5267C20.4401 34.5514 20.4648 34.576 20.4648 34.6007C20.4648 34.6254 20.4894 34.6254 20.4894 34.65C20.5388 34.724 20.5881 34.798 20.6128 34.872C20.6621 34.9213 20.6868 34.9707 20.7361 35.02C20.7854 35.0447 20.8101 35.094 20.8594 35.094C20.8841 35.1187 20.9334 35.1187 20.9581 35.1187C21.0074 35.1187 21.0814 35.094 21.1307 35.0693C21.1801 35.0447 21.2294 34.9953 21.2541 34.9213C21.2787 34.872 21.3281 34.798 21.3281 34.7487C21.3527 34.6993 21.3527 34.6254 21.3774 34.6007C21.3774 34.576 21.3774 34.576 21.3774 34.5514C21.3774 34.5267 21.3774 34.502 21.3774 34.4774C21.3774 34.4527 21.3774 34.4034 21.3774 34.3787C21.3774 34.3294 21.3774 34.3047 21.3774 34.2554C21.3774 34.0827 21.4021 33.9101 21.4021 33.7127C21.4021 33.5154 21.4267 33.3181 21.4267 33.1208C21.4267 32.9235 21.4514 32.7755 21.4514 32.6521C21.4514 32.5288 21.4514 32.4548 21.4514 32.4302C22.1173 32.8248 22.7833 33.2194 23.4246 33.5648C24.0906 33.9347 24.7318 34.2554 25.3485 34.5514C25.9651 34.8473 26.5571 35.094 27.0997 35.2666C27.6423 35.4393 28.1603 35.5626 28.6043 35.5873C28.6536 35.5873 28.7276 35.5873 28.7769 35.5873C28.8263 35.5873 28.9003 35.5873 28.9496 35.5873C28.9989 35.5873 29.0482 35.5873 29.1222 35.5626C29.1716 35.5626 29.2209 35.538 29.2702 35.538C29.3442 35.5133 29.4182 35.5133 29.4922 35.4886C29.5662 35.464 29.6402 35.4393 29.6895 35.4146C29.7635 35.39 29.8129 35.3406 29.8622 35.316C29.9115 35.2666 29.9609 35.2173 30.0102 35.168C30.3308 34.8473 30.4542 34.3294 30.4542 33.6634C30.4542 33.0221 30.3062 32.2328 30.0348 31.3942V31.3449Z" fill="#FCB8C4"/>
<path d="M14.9657 18.0517V16.9171H13.3625V10.7014H12.1786C11.6853 11.1701 11.1426 11.4907 10.5507 11.6387V12.798C10.8467 12.7487 11.118 12.65 11.4139 12.502C11.7099 12.354 11.9319 12.206 12.1046 12.0334V16.8924H10.082V18.027H14.9657V18.0517ZM20.9594 12.8227C20.9594 12.1567 20.7374 11.6141 20.2687 11.1948C19.8001 10.8001 19.2081 10.5781 18.4682 10.5781C17.7282 10.5781 17.1116 10.7754 16.6676 11.1701C16.199 11.5647 15.977 12.1074 15.977 12.7733V15.9058C15.977 16.5717 16.199 17.1144 16.6676 17.509C17.1363 17.9037 17.7282 18.101 18.4682 18.101C19.2081 18.101 19.8001 17.9037 20.2687 17.4844C20.7374 17.0897 20.9594 16.5471 20.9594 15.8565V12.7733V12.8227ZM19.7014 15.8071C19.7014 16.2018 19.6028 16.4978 19.3808 16.7197C19.1588 16.9417 18.8628 17.0404 18.4928 17.0404C18.0982 17.0404 17.8022 16.9417 17.6049 16.7197C17.3829 16.4978 17.2842 16.2018 17.2842 15.8071V12.872C17.2842 12.4773 17.3829 12.1814 17.6049 11.9594C17.8269 11.7374 18.1229 11.6387 18.5175 11.6387C18.9121 11.6387 19.2081 11.7374 19.4301 11.9594C19.6521 12.1814 19.7508 12.4773 19.7508 12.872L19.7261 15.8071H19.7014Z" fill="#FCB8C4"/>
<path d="M11.5357 24.2125V18.6875H10.5984V22.8806L8.42787 18.6875H7.07129V24.2125H8.00856V20.0194L10.2038 24.2125H11.5357ZM13.4596 23.6945C13.4596 23.5465 13.4102 23.4479 13.3116 23.3739C13.2129 23.2999 13.0896 23.2752 12.9416 23.2752C12.7936 23.2752 12.6703 23.3245 12.5716 23.3739C12.473 23.4479 12.4236 23.5465 12.4236 23.6945V23.8425C12.4236 23.9905 12.473 24.0892 12.5716 24.1632C12.6703 24.2372 12.7936 24.2865 12.9416 24.2865C13.0896 24.2865 13.2129 24.2372 13.3116 24.1632C13.4102 24.0892 13.4596 23.9905 13.4596 23.8425L13.4349 23.6945H13.4596ZM17.6033 22.7326H16.74C16.74 23.2505 16.4687 23.5219 15.9261 23.5219C15.3834 23.5219 15.1121 23.2505 15.1121 22.6833V21.8693C15.1121 21.3267 15.3834 21.0307 15.9261 21.0307C16.4687 21.0307 16.74 21.302 16.74 21.82H17.6033V21.746C17.6033 21.2773 17.4553 20.9074 17.1593 20.636C16.8633 20.3894 16.444 20.2414 15.9261 20.2414C15.4081 20.2414 15.0135 20.3647 14.6928 20.6607C14.3968 20.932 14.2242 21.3267 14.2242 21.7953V22.7572C14.2242 23.2259 14.3722 23.6205 14.6928 23.8672C14.9888 24.1385 15.4081 24.2618 15.9261 24.2618C16.444 24.2618 16.8633 24.1385 17.1593 23.8672C17.4553 23.5959 17.628 23.2259 17.628 22.7572L17.6033 22.7079V22.7326ZM23.8189 24.2125V21.45C23.8189 21.08 23.7202 20.784 23.5229 20.562C23.3256 20.3647 23.0543 20.2414 22.7336 20.2414C22.413 20.2414 22.117 20.3401 21.8457 20.5127L21.4264 20.784C21.2537 20.4387 20.9578 20.2661 20.4891 20.2661C20.2178 20.2661 19.9218 20.3401 19.6752 20.5127L19.3299 20.71V20.2907H18.4419V24.1878H19.3299V21.4993L19.7985 21.2033C19.9958 21.1047 20.1438 21.0554 20.2671 21.0554C20.5384 21.0554 20.6864 21.228 20.6864 21.5487V24.1878H21.5744V21.4993L22.043 21.2033C22.2403 21.1047 22.3883 21.0554 22.5117 21.0554C22.783 21.0554 22.931 21.228 22.931 21.524V24.1878H23.8436L23.8189 24.2125Z" fill="#FCB8C4"/>
<path d="M26.3354 13.8329C30.0598 13.8329 33.0936 10.8237 33.0936 7.07465C33.0936 3.35022 30.0845 0.316406 26.3354 0.316406C22.611 0.316406 19.5771 3.32555 19.5771 7.07465C19.5771 10.7991 22.5863 13.8329 26.3354 13.8329Z" fill="#FCB8C4"/>
<path d="M26.3354 13.8329C30.0598 13.8329 33.0936 10.8237 33.0936 7.07465C33.0936 3.35022 30.0845 0.316406 26.3354 0.316406C22.611 0.316406 19.5771 3.32555 19.5771 7.07465C19.5771 10.7991 22.5863 13.8329 26.3354 13.8329Z" stroke="white" stroke-width="1.43058"/>
<path d="M28.7288 10.9246V10.1354H25.4237L27.5202 8.01416C27.9642 7.57019 28.2848 7.15089 28.4575 6.78091C28.6301 6.41093 28.7288 6.04095 28.7288 5.64631C28.7288 5.02968 28.5561 4.53638 28.1615 4.19107C27.7915 3.82109 27.2489 3.64844 26.5336 3.64844C25.8676 3.64844 25.325 3.82109 24.9057 4.16641C24.4864 4.51172 24.2891 4.98035 24.2891 5.57232V5.64631H25.103C25.103 5.22701 25.2263 4.93102 25.473 4.7337C25.7196 4.53638 26.065 4.41306 26.5089 4.41306C26.9776 4.41306 27.3229 4.51172 27.5449 4.7337C27.7668 4.95569 27.8902 5.25167 27.8902 5.64631C27.8902 5.96696 27.8162 6.26294 27.6682 6.53426C27.5202 6.80557 27.2735 7.12622 26.9529 7.4962L24.4124 10.1107V10.9H28.7041L28.7288 10.9246Z" fill="#FEFEFE"/>
</svg>
