<svg width="28" height="30" viewBox="0 0 28 30" fill="none" xmlns="http://www.w3.org/2000/svg">
<path d="M24.6699 26.388C24.4605 25.6899 24.1812 24.9219 23.7972 24.1539C23.4482 23.386 23.0293 22.5831 22.6104 21.7802C22.5405 21.8849 22.4707 21.9896 22.4358 22.0944C22.366 22.1991 22.2962 22.3038 22.2264 22.4085C22.1566 22.5133 22.0867 22.618 22.0169 22.6878C21.9471 22.7925 21.8773 22.8972 21.8075 22.9671C21.8075 22.9671 21.8075 22.9671 21.8075 23.002C21.8075 23.002 21.8075 23.002 21.8075 23.0369C21.8075 23.0369 21.8075 23.0369 21.8075 23.0718C21.8075 23.0718 21.8075 23.0718 21.8075 23.1067L21.7377 23.1765C21.8075 23.351 21.8773 23.5605 21.9471 23.8048C22.0169 24.0492 22.1217 24.2936 22.1915 24.5379C22.2613 24.7823 22.3311 24.9917 22.366 25.1663C22.4009 25.3408 22.366 25.4804 22.3311 25.5503C22.2962 25.5852 22.2962 25.5852 22.2613 25.6201C22.2264 25.6201 22.1915 25.655 22.1566 25.655C22.1217 25.655 22.0867 25.655 22.0518 25.6899C22.0169 25.6899 21.982 25.6899 21.9471 25.6899C21.8773 25.6899 21.8075 25.6899 21.7377 25.655C21.6678 25.655 21.598 25.6201 21.4933 25.5852C21.4235 25.5503 21.3188 25.5153 21.249 25.4804C21.1442 25.4455 21.0744 25.4106 20.9697 25.3408C20.8301 25.271 20.7253 25.2361 20.5857 25.1663C20.4461 25.0964 20.3064 25.0266 20.1668 24.9568C20.0272 24.887 19.8875 24.7823 19.7479 24.7125C19.6083 24.6077 19.4686 24.5379 19.2941 24.4332C19.8875 23.8398 20.4461 23.2114 20.9348 22.5482C21.4584 21.8849 21.9122 21.1867 22.3311 20.4188C22.75 19.6857 23.0991 18.9177 23.3783 18.1148C23.6576 17.3469 23.902 16.5091 24.0765 15.7062C24.4256 13.8561 24.4256 12.1456 24.0765 10.6096C23.7623 9.10856 23.0991 7.74714 22.2264 6.6999C21.3537 5.65266 20.2366 4.81487 18.945 4.29124C17.6883 3.76762 16.2222 3.55818 14.6862 3.6629C13.6739 3.73272 12.6267 3.94216 11.6492 4.29124C10.6718 4.60542 9.69438 5.05922 8.78677 5.61775C7.87916 6.17628 7.00646 6.80462 6.20358 7.53769C5.40069 8.27076 4.66762 9.07365 3.96946 9.94635C3.79492 9.59727 3.62038 9.2831 3.51566 9.00383C3.41093 8.72457 3.30621 8.4453 3.2713 8.23586C3.20148 7.9915 3.20148 7.81696 3.20148 7.64242C3.23639 7.46788 3.2713 7.32825 3.37602 7.22352C3.41093 7.18861 3.44584 7.15371 3.48075 7.1188C3.51566 7.08389 3.58547 7.04898 3.65529 7.04898C3.72511 7.01407 3.79492 7.01407 3.86474 6.97917C3.93455 6.97917 4.00437 6.94426 4.10909 6.94426C4.21382 6.94426 4.28363 6.94426 4.38836 6.94426C4.49308 6.94426 4.59781 6.97917 4.70253 7.01407C4.80726 7.04898 4.91198 7.08389 5.0167 7.15371C5.12143 7.22352 5.22615 7.29334 5.33088 7.39806C5.4356 7.29334 5.54032 7.15371 5.64505 7.04898C5.74977 6.94426 5.8545 6.83953 5.99413 6.73481C6.09885 6.63008 6.23849 6.52536 6.34321 6.42064C6.48284 6.31591 6.58757 6.2461 6.7272 6.14137C6.7272 6.14137 6.76211 6.14137 6.76211 6.10646C6.76211 6.10646 6.79701 6.10646 6.79701 6.07156C6.79701 6.07156 6.83192 6.07156 6.83192 6.03665C6.83192 6.03665 6.86683 6.03665 6.86683 6.00174C6.62247 5.79229 6.37812 5.61775 6.13376 5.47812C5.8894 5.33849 5.61014 5.23376 5.33088 5.16395C5.05161 5.09413 4.77235 5.02431 4.52799 4.98941C4.24873 4.9545 4.00437 4.9545 3.76001 4.98941C3.58547 4.98941 3.41093 5.02431 3.2713 5.05922C3.13167 5.09413 2.95713 5.12904 2.8524 5.16395C2.71277 5.19885 2.60805 5.26867 2.50332 5.33849C2.3986 5.4083 2.32878 5.47812 2.25897 5.54793C2.04952 5.75738 1.94479 6.07156 1.87498 6.42064C1.80516 6.76972 1.84007 7.18861 1.90989 7.64242C2.01461 8.09622 2.15424 8.61984 2.36369 9.21328C2.57314 9.77181 2.88731 10.4002 3.23639 11.0634C2.99204 11.4474 2.78259 11.7965 2.57314 12.1805C2.36369 12.5645 2.15424 12.9484 1.9797 13.3673C1.80516 13.7862 1.63062 14.1702 1.49099 14.5891C1.35136 15.008 1.21173 15.4269 1.107 15.8807C0.688104 17.5214 0.548472 19.1272 0.688104 20.5933C0.827736 22.0944 1.24663 23.4558 1.94479 24.6426C2.64296 25.8295 3.58547 26.8419 4.73744 27.5749C5.92431 28.308 7.35554 28.7967 8.96131 28.8665C9.45003 28.9014 9.90383 28.9014 10.3925 28.8665C10.8813 28.8316 11.37 28.7618 11.8587 28.6571C12.3474 28.5523 12.8361 28.4127 13.3248 28.2731C13.8135 28.0985 14.2673 27.924 14.7561 27.7146L13.6041 25.5503C13.255 25.6899 12.9408 25.7946 12.5918 25.8993C12.2427 26.0041 11.9285 26.0739 11.5794 26.1437C11.2303 26.2135 10.9162 26.2484 10.5671 26.2833C10.218 26.3182 9.90383 26.3182 9.55475 26.2833C8.26315 26.2135 7.11119 25.8644 6.13376 25.271C5.19124 24.7125 4.42327 23.9096 3.82983 22.9321C3.2713 21.9896 2.92222 20.8726 2.78259 19.6857C2.64296 18.4988 2.74768 17.2072 3.09676 15.8458C3.44584 14.5193 4.00437 13.2277 4.73744 12.0757C5.47051 10.9238 6.34321 9.87653 7.32064 9.00383C8.29806 8.09622 9.41512 7.36315 10.602 6.83953C11.7889 6.31591 13.0106 5.96683 14.2673 5.89702C15.524 5.8272 16.7109 6.03665 17.7232 6.45554C18.7705 6.90935 19.6432 7.5726 20.3064 8.4453C21.0046 9.318 21.4933 10.4002 21.7377 11.6219C21.982 12.8437 21.982 14.24 21.7028 15.7062C21.5631 16.3345 21.3886 16.9978 21.1442 17.5912C20.8999 18.2196 20.6206 18.813 20.3064 19.4064C19.9923 19.9999 19.6083 20.5584 19.2243 21.082C18.8403 21.6056 18.3865 22.0944 17.9327 22.5831C17.9327 22.4434 17.9327 22.2689 17.9676 22.0944C17.9676 21.9198 17.9676 21.7802 18.0025 21.6405C18.0025 21.5009 18.0025 21.3613 18.0374 21.2217C18.0374 21.1169 18.0374 21.0122 18.0374 20.9424C18.0374 20.8726 18.0374 20.8377 18.0374 20.8028C18.0374 20.7678 18.0025 20.7329 18.0025 20.698C17.9676 20.6631 17.9676 20.6631 17.9327 20.6631C17.8978 20.6631 17.8978 20.6631 17.8629 20.6631C17.828 20.6631 17.828 20.6631 17.7931 20.6631C17.7581 20.6631 17.7581 20.6631 17.7232 20.6631H17.6883L13.7088 21.9547C13.7088 21.9547 13.6739 21.9547 13.639 21.9896C13.6041 22.0245 13.5343 22.0594 13.4994 22.0944C13.4645 22.1293 13.4295 22.1991 13.3946 22.3038C13.3946 22.3736 13.3946 22.5133 13.4645 22.618C13.4645 22.618 13.4645 22.618 13.4645 22.6529C13.4645 22.6529 13.4645 22.6529 13.4645 22.6878C13.4645 22.6878 13.4645 22.6878 13.4645 22.7227C13.4645 22.7227 13.4645 22.7227 13.4645 22.7576C13.639 23.1067 13.8833 23.5954 14.1975 24.1539C14.4768 24.7125 14.8259 25.3408 15.14 25.9342C15.4891 26.5626 15.8033 27.156 16.0826 27.6796C16.3618 28.2033 16.6062 28.6571 16.7458 28.9014C16.7458 28.9363 16.7807 28.9363 16.7807 28.9712C16.7807 29.0061 16.8156 29.0061 16.8156 29.0411C16.8156 29.076 16.8505 29.076 16.8505 29.076C16.8505 29.076 16.8505 29.1109 16.8854 29.1109C16.9204 29.1807 16.9553 29.2505 16.9902 29.2854C17.0251 29.3203 17.06 29.3901 17.0949 29.3901C17.1298 29.425 17.1647 29.46 17.1996 29.46C17.2345 29.46 17.2694 29.4949 17.2694 29.4949C17.3043 29.4949 17.3742 29.4949 17.4091 29.46C17.444 29.425 17.4789 29.3901 17.5138 29.3552C17.5487 29.3203 17.5836 29.2505 17.5836 29.2156C17.5836 29.1807 17.6185 29.1109 17.6185 29.076V29.0411C17.6185 29.0061 17.6185 29.0061 17.6185 28.9712C17.6185 28.9363 17.6185 28.9014 17.6185 28.9014C17.6185 28.8665 17.6185 28.8316 17.6185 28.7967C17.6185 28.6571 17.6185 28.5174 17.6534 28.3429C17.6534 28.1684 17.6883 27.9938 17.6883 27.8542C17.6883 27.7146 17.6883 27.5749 17.7232 27.4702C17.7232 27.3655 17.7232 27.2957 17.7232 27.2957C18.2818 27.6098 18.8054 27.9589 19.3639 28.2382C19.9224 28.5523 20.4461 28.7967 20.9348 29.0411C21.4584 29.2854 21.9471 29.4949 22.4009 29.6345C22.8547 29.7741 23.2736 29.8789 23.6227 29.9138C23.6576 29.9138 23.7274 29.9138 23.7623 29.9138C23.7972 29.9138 23.8671 29.9138 23.902 29.9138C23.9369 29.9138 24.0067 29.9138 24.0416 29.9138C24.0765 29.9138 24.1114 29.9138 24.1812 29.8788C24.251 29.8788 24.3209 29.8439 24.3558 29.8439C24.4256 29.809 24.4605 29.809 24.5303 29.7741C24.5652 29.7392 24.635 29.7043 24.6699 29.6694C24.7048 29.6345 24.7747 29.5996 24.8096 29.5647C25.0539 29.2854 25.1936 28.8665 25.1936 28.3429C25.1936 27.8193 25.0539 27.156 24.8445 26.4579L24.6699 26.388Z" fill="#FCB8C4"/>
<path d="M12.209 15.3899V14.4474H9.73054L11.1618 13.0511C11.5458 12.6671 11.825 12.318 11.9647 12.0038C12.1043 11.6897 12.209 11.3755 12.209 11.0264C12.209 10.4679 12.0345 10.049 11.6854 9.73481C11.3363 9.42063 10.8476 9.281 10.2542 9.281C9.62581 9.281 9.1371 9.42063 8.78802 9.73481C8.40403 10.049 8.22949 10.4679 8.22949 11.0264V11.0962H9.27673C9.27673 10.5028 9.59091 10.1886 10.2542 10.1886C10.8825 10.1886 11.1618 10.4679 11.1618 11.0613C11.1618 11.3057 11.092 11.5151 10.9872 11.7246C10.8825 11.934 10.708 12.1784 10.4636 12.4227L8.36912 14.4474V15.3899H12.2439H12.209ZM17.0612 11.0613C17.0612 10.5028 16.8867 10.049 16.5027 9.73481C16.1187 9.38573 15.63 9.24609 15.0017 9.24609C14.3733 9.24609 13.8846 9.42063 13.5006 9.73481C13.1166 10.0839 12.9421 10.5028 12.9421 11.0613V13.6445C12.9421 14.203 13.1166 14.6219 13.5006 14.971C13.8846 15.3201 14.3733 15.4597 15.0017 15.4597C15.63 15.4597 16.1187 15.2852 16.5027 14.971C16.8867 14.6219 17.0612 14.203 17.0612 13.6445V11.0962V11.0613ZM16.014 13.5398C16.014 13.854 15.9093 14.0983 15.7347 14.2729C15.5602 14.4474 15.3158 14.5521 15.0017 14.5521C14.6875 14.5521 14.4431 14.4474 14.2686 14.2729C14.094 14.0983 13.9893 13.854 13.9893 13.5398V11.1311C13.9893 10.817 14.094 10.5377 14.2686 10.3632C14.4431 10.1886 14.6875 10.0839 15.0366 10.0839C15.3507 10.0839 15.5951 10.1886 15.7696 10.3632C15.9442 10.5377 16.0489 10.782 16.0489 11.1311L16.014 13.5398Z" fill="#FCB8C4"/>
<path d="M9.62433 20.4873V15.9492H8.85635V19.4051L7.07604 15.9492H5.95898V20.4873H6.72696V17.0314L8.54218 20.4873H9.65924H9.62433ZM11.0556 20.0684C11.0556 19.9636 11.0207 19.8589 10.9508 19.7891C10.881 19.7193 10.7763 19.6844 10.6367 19.6844C10.497 19.6844 10.4272 19.7193 10.3225 19.7891C10.2527 19.8589 10.2178 19.9287 10.2178 20.0684V20.208C10.2178 20.3127 10.2527 20.4174 10.3574 20.4873C10.4272 20.5571 10.5319 20.592 10.6716 20.592C10.8112 20.592 10.9159 20.5571 10.9857 20.4873C11.0556 20.4174 11.0905 20.3476 11.0905 20.208V20.0684H11.0556ZM14.3369 19.2655H13.6038C13.6038 19.6844 13.3595 19.8938 12.9406 19.8938C12.4868 19.8938 12.2773 19.6844 12.2773 19.1957V18.5324C12.2773 18.0786 12.4868 17.8343 12.9406 17.8343C13.3944 17.8343 13.6038 18.0437 13.6038 18.4975H14.3369V18.4277C14.3369 18.0437 14.1973 17.7295 13.9529 17.5201C13.7086 17.3106 13.3595 17.2059 12.9406 17.2059C12.5217 17.2059 12.1726 17.3106 11.9283 17.555C11.6839 17.7644 11.5443 18.0786 11.5443 18.4975V19.3004C11.5443 19.6844 11.6839 19.9986 11.9283 20.208C12.1726 20.4174 12.5217 20.5222 12.9406 20.5222C13.3595 20.5222 13.7086 20.4174 13.9529 20.208C14.1973 19.9986 14.3369 19.6844 14.3369 19.3004V19.2655ZM19.3288 20.4873V18.2182C19.3288 17.9041 19.259 17.6597 19.0844 17.4852C18.9099 17.3106 18.7004 17.2408 18.4212 17.2408C18.1768 17.2408 17.9324 17.3106 17.6881 17.4503L17.339 17.6597C17.1994 17.3804 16.955 17.2408 16.571 17.2408C16.3267 17.2408 16.1172 17.3106 15.9078 17.4503L15.6285 17.6248V17.2757H14.8954V20.4873H15.6285V18.2531L16.0125 18.0088C16.1521 17.939 16.2918 17.8692 16.3965 17.8692C16.6059 17.8692 16.7456 18.0088 16.7456 18.2531V20.4524H17.4786V18.2182L17.8626 17.9739C18.0023 17.9041 18.1419 17.8343 18.2466 17.8343C18.4561 17.8343 18.5957 17.9739 18.5957 18.2182V20.4174H19.3288V20.4873Z" fill="#FCB8C4"/>
<path d="M21.597 11.9367C24.6689 11.9367 27.1474 9.45823 27.1474 6.38632C27.1474 3.31441 24.6689 0.835938 21.597 0.835938C18.5251 0.835938 16.0117 3.31441 16.0117 6.38632C16.0117 9.45823 18.4902 11.9367 21.597 11.9367Z" fill="#FCB8C4"/>
<path d="M21.597 11.9367C24.6689 11.9367 27.1474 9.45823 27.1474 6.38632C27.1474 3.31441 24.6689 0.835938 21.597 0.835938C18.5251 0.835938 16.0117 3.31441 16.0117 6.38632C16.0117 9.45823 18.4902 11.9367 21.597 11.9367Z" stroke="white" stroke-width="1.18687"/>
<path d="M23.4136 9.52762V8.89928H20.6908L22.4362 7.15388C22.8202 6.76989 23.0646 6.45571 23.2042 6.14154C23.3438 5.82737 23.4136 5.5132 23.4136 5.19902C23.4136 4.71031 23.274 4.29141 22.9598 3.97724C22.6457 3.66307 22.1919 3.52344 21.6333 3.52344C21.0748 3.52344 20.6559 3.66307 20.3068 3.94233C19.9577 4.2216 19.7832 4.60559 19.7832 5.0943V5.16412H20.4465C20.4465 4.81504 20.5512 4.57068 20.7606 4.39614C20.9701 4.2216 21.2493 4.15178 21.6333 4.15178C22.0173 4.15178 22.2966 4.25651 22.506 4.43105C22.6806 4.60559 22.7853 4.88485 22.7853 5.19902C22.7853 5.47829 22.7155 5.72265 22.6108 5.93209C22.506 6.17645 22.2966 6.42081 22.0173 6.73498L19.9228 8.89928V9.52762H23.4835H23.4136Z" fill="#FEFEFE"/>
</svg>
