<svg width="17" height="17" viewBox="0 0 17 17" fill="none" xmlns="http://www.w3.org/2000/svg">
<path d="M8.66573 16.4194C13.0604 16.4194 16.5336 12.8753 16.5336 8.55147C16.5336 4.1568 12.9895 0.683594 8.66573 0.683594C4.27106 0.683594 0.797852 4.22768 0.797852 8.55147C0.797852 12.9461 4.34194 16.4194 8.66573 16.4194Z" fill="#FCB8C4"/>
<path d="M8.80752 9.11961C9.30369 9.11961 9.72898 9.26137 10.0125 9.5449C10.296 9.82842 10.4378 10.1828 10.4378 10.679C10.4378 11.1752 10.296 11.6005 9.94163 11.884C9.58722 12.1675 9.23281 12.3093 8.66576 12.3093C8.0987 12.3093 7.67341 12.1675 7.319 11.9549C7.03548 11.6713 6.82283 11.3169 6.82283 10.8208H5.90137V10.8916C5.90137 11.6005 6.18489 12.1675 6.68107 12.5219C7.17724 12.9472 7.81518 13.089 8.66576 13.089C9.37458 13.089 10.0125 12.8763 10.5796 12.451C11.1466 12.0258 11.3593 11.3878 11.3593 10.6081C11.3593 10.3246 11.2884 10.0411 11.2175 9.82842C11.1466 9.61578 11.0049 9.40313 10.934 9.26137C10.7922 9.11961 10.6504 8.97784 10.5087 8.90696C10.3669 8.83608 10.296 8.7652 10.2252 8.69431C10.1543 8.69431 10.1543 8.62343 10.0834 8.62343L10.2252 8.55255C10.296 8.55255 10.4378 8.48167 10.5087 8.33991C10.6504 8.26902 10.7213 8.12726 10.8631 7.9855C11.0049 7.84373 11.0757 7.70197 11.1466 7.41844C11.2175 7.2058 11.2884 6.92227 11.2884 6.70962C11.2884 6.07169 11.0757 5.50463 10.5796 5.07934C10.0834 4.65405 9.51634 4.44141 8.66576 4.44141C7.88606 4.44141 7.319 4.65405 6.82283 5.00846C6.32666 5.36287 6.11401 5.92992 6.11401 6.56786V6.63874H7.03548C7.03548 6.21345 7.17724 5.85904 7.46077 5.6464C7.74429 5.43375 8.16958 5.29199 8.66576 5.29199C9.23281 5.29199 9.58722 5.43375 9.87075 5.6464C10.1543 5.92992 10.296 6.21345 10.296 6.63874C10.296 7.13491 10.1543 7.48932 9.87075 7.77285C9.58722 8.05638 9.23281 8.19814 8.73664 8.19814H7.46077V9.04872H8.80752V9.11961Z" fill="#FEFEFE"/>
</svg>
