<svg width="17" height="16" viewBox="0 0 17 16" fill="none" xmlns="http://www.w3.org/2000/svg">
<path d="M8.66573 15.9936C13.0604 15.9936 16.5336 12.4495 16.5336 8.12569C16.5336 3.73102 12.9895 0.257812 8.66573 0.257812C4.27106 0.257812 0.797852 3.8019 0.797852 8.12569C0.797852 12.5204 4.34194 15.9936 8.66573 15.9936Z" fill="#FCB8C4"/>
<path d="M8.80752 8.69382C9.30369 8.69382 9.72898 8.83559 10.0125 9.11911C10.296 9.40264 10.4378 9.75705 10.4378 10.2532C10.4378 10.7494 10.296 11.1747 9.94163 11.4582C9.58722 11.7417 9.23281 11.8835 8.66576 11.8835C8.0987 11.8835 7.67341 11.7417 7.319 11.5291C7.03548 11.2456 6.82283 10.8912 6.82283 10.395H5.90137V10.4659C5.90137 11.1747 6.18489 11.7417 6.68107 12.0961C7.17724 12.5214 7.81518 12.6632 8.66576 12.6632C9.37458 12.6632 10.0125 12.4506 10.5796 12.0253C11.1466 11.6 11.3593 10.962 11.3593 10.1823C11.3593 9.89881 11.2884 9.61529 11.2175 9.40264C11.1466 9.19 11.0049 8.97735 10.934 8.83559C10.7922 8.69382 10.6504 8.55206 10.5087 8.48118C10.3669 8.4103 10.296 8.33941 10.2252 8.26853C10.1543 8.26853 10.1543 8.19765 10.0834 8.19765L10.2252 8.12677C10.296 8.12677 10.4378 8.05589 10.5087 7.91412C10.6504 7.84324 10.7213 7.70148 10.8631 7.55971C11.0049 7.41795 11.0757 7.27619 11.1466 6.99266C11.2175 6.78001 11.2884 6.49649 11.2884 6.28384C11.2884 5.64591 11.0757 5.07885 10.5796 4.65356C10.0834 4.22827 9.51634 4.01562 8.66576 4.01562C7.88606 4.01562 7.319 4.22827 6.82283 4.58268C6.32666 4.93709 6.11401 5.50414 6.11401 6.14208V6.21296H7.03548C7.03548 5.78767 7.17724 5.43326 7.46077 5.22062C7.74429 5.00797 8.16958 4.86621 8.66576 4.86621C9.23281 4.86621 9.58722 5.00797 9.87075 5.22062C10.1543 5.50414 10.296 5.78767 10.296 6.21296C10.296 6.70913 10.1543 7.06354 9.87075 7.34707C9.58722 7.6306 9.23281 7.77236 8.73664 7.77236H7.46077V8.62294H8.80752V8.69382Z" fill="#FEFEFE"/>
</svg>
