<svg width="28" height="30" viewBox="0 0 28 30" fill="none" xmlns="http://www.w3.org/2000/svg">
<path d="M24.5354 25.8084C24.3318 25.116 24.0263 24.3421 23.6801 23.5478C23.3339 22.7739 22.9266 21.9797 22.4785 21.1854C22.4174 21.2872 22.3563 21.3891 22.2952 21.4909C22.2341 21.5927 22.173 21.6945 22.0916 21.7964C22.0305 21.8982 21.949 22 21.8879 22.0815C21.8064 22.1833 21.7454 22.2648 21.6639 22.3666C21.6639 22.3666 21.6639 22.387 21.6435 22.387C21.6435 22.387 21.6435 22.4073 21.6232 22.4073L21.6028 22.4277L21.5824 22.4481L21.5213 22.5295C21.5824 22.7128 21.6639 22.9165 21.7454 23.1609C21.8268 23.3849 21.9286 23.6496 22.0101 23.8737C22.0916 24.118 22.1527 24.3421 22.173 24.505C22.1934 24.6883 22.1934 24.8308 22.1323 24.8919C22.1119 24.9123 22.0916 24.9327 22.0508 24.953C22.0305 24.9734 21.9897 24.9734 21.9694 24.9938C21.9286 24.9938 21.9083 25.0141 21.8675 25.0141C21.8268 25.0141 21.7861 25.0141 21.7454 25.0141C21.6843 25.0141 21.6028 24.9938 21.5417 24.9938C21.4602 24.9734 21.3788 24.953 21.2973 24.9327C21.2158 24.9123 21.1344 24.8716 21.0326 24.8308C20.9511 24.7901 20.8493 24.7494 20.7474 24.7086C20.6252 24.6476 20.5031 24.5865 20.3605 24.5254C20.2383 24.4643 20.0957 24.3828 19.9532 24.3013C19.8106 24.2199 19.6681 24.1384 19.5255 24.057C19.3829 23.9755 19.2404 23.8737 19.0775 23.7922C19.6681 23.2016 20.2179 22.5703 20.7271 21.8982C21.2362 21.2261 21.7046 20.5133 22.1119 19.7802C22.5192 19.047 22.8655 18.2731 23.1709 17.4992C23.4561 16.705 23.7004 15.9107 23.8634 15.0961C24.23 13.2632 24.2096 11.5321 23.8634 9.98434C23.5375 8.47729 22.8858 7.13316 22.0101 6.05379C21.1344 4.99478 20.0346 4.15979 18.7516 3.65065C17.4889 3.14151 16.043 2.89712 14.4748 3.01932C13.4362 3.08041 12.4179 3.30444 11.4404 3.63029C10.4628 3.95613 9.50564 4.40418 8.58919 4.95405C7.67274 5.50392 6.81739 6.13525 6.00277 6.86841C5.18814 7.60157 4.45498 8.39583 3.78292 9.27155C3.59963 8.92533 3.45707 8.61985 3.33488 8.33473C3.21268 8.04961 3.13122 7.78486 3.07012 7.56084C3.00903 7.33682 2.98866 7.13316 3.00903 6.97024C3.02939 6.80731 3.07012 6.66476 3.17195 6.56293C3.19232 6.5222 3.23305 6.50183 3.29415 6.4611C3.33488 6.44073 3.39597 6.4 3.45707 6.37964C3.51817 6.35927 3.57926 6.33891 3.66073 6.31854C3.74219 6.29818 3.82365 6.29818 3.90511 6.27781C3.98657 6.27781 4.0884 6.27781 4.19023 6.27781C4.29206 6.29818 4.39389 6.31854 4.49571 6.35927C4.59754 6.4 4.69937 6.44073 4.8012 6.50183C4.90303 6.56293 5.00485 6.64439 5.10668 6.74622C5.20851 6.62402 5.31034 6.50183 5.41216 6.4C5.51399 6.27781 5.63619 6.17598 5.73801 6.07415C5.86021 5.97233 5.96203 5.8705 6.10459 5.76867C6.22679 5.66684 6.34898 5.58538 6.49154 5.48355C6.51191 5.48355 6.51191 5.46319 6.53227 5.46319C6.55264 5.46319 6.55264 5.44282 6.573 5.44282C6.573 5.44282 6.59337 5.42246 6.61373 5.42246C6.61373 5.42246 6.6341 5.40209 6.65446 5.40209C6.43044 5.19843 6.16569 5.01514 5.90094 4.87258C5.63619 4.73003 5.37143 4.6282 5.10668 4.54674C4.84193 4.46527 4.55681 4.40418 4.29206 4.38381C4.02731 4.36345 3.76255 4.34308 3.51817 4.36345C3.35524 4.38381 3.17195 4.40418 3.02939 4.42454C2.86647 4.46527 2.72391 4.506 2.60172 4.54674C2.47952 4.58747 2.35733 4.64856 2.2555 4.70966C2.15367 4.77076 2.07221 4.83185 1.99075 4.91332C1.78709 5.13734 1.6649 5.42246 1.6038 5.78904C1.54271 6.13525 1.56307 6.56293 1.6649 7.03134C1.74636 7.49974 1.90929 8.02925 2.13331 8.59948C2.35733 9.16972 2.64245 9.78069 2.98866 10.4528C2.74428 10.8193 2.52025 11.2063 2.3166 11.5932C2.11294 11.9802 1.90929 12.3671 1.726 12.7744C1.54271 13.1817 1.37978 13.589 1.23722 14.0167C1.09466 14.4444 0.952105 14.8721 0.850277 15.2998C0.4226 16.9494 0.280041 18.5379 0.4226 20.0042C0.565159 21.4909 0.992836 22.8554 1.6649 24.0366C2.35733 25.2382 3.29415 26.2361 4.45498 26.9692C5.63619 27.7228 7.06178 28.1708 8.67066 28.2726C9.13906 28.293 9.62784 28.293 10.1166 28.2523C10.6054 28.2115 11.0942 28.1504 11.5626 28.0486C12.0513 27.9468 12.5401 27.8246 13.0085 27.6617C13.4973 27.4987 13.9657 27.3154 14.4341 27.0914L13.2936 24.9327C12.9678 25.0752 12.6216 25.1771 12.2957 25.2789C11.9495 25.3807 11.6237 25.4622 11.2774 25.5233C10.9312 25.5844 10.6054 25.6251 10.2592 25.6455C9.91296 25.6658 9.58711 25.6658 9.24089 25.6658C7.9375 25.6047 6.79702 25.2585 5.83984 24.6679C4.88266 24.0977 4.10877 23.3034 3.5589 22.3462C2.98866 21.4094 2.64245 20.2893 2.52025 19.0878C2.39806 17.9066 2.47952 16.6032 2.82574 15.259C3.17195 13.9149 3.72182 12.6522 4.45498 11.4914C5.16778 10.3306 6.06386 9.29191 7.04141 8.39583C8.03932 7.49974 9.13906 6.76658 10.3203 6.23708C11.5015 5.70757 12.7438 5.36136 13.9861 5.30026C15.2487 5.2188 16.4096 5.42246 17.4279 5.8705C18.4665 6.31854 19.3422 6.9906 20.0346 7.86632C20.7271 8.74204 21.2362 9.82142 21.4806 11.0434C21.725 12.2857 21.725 13.6705 21.4399 15.1368C21.3177 15.7885 21.114 16.4199 20.89 17.0308C20.666 17.6418 20.3809 18.2528 20.055 18.823C19.7292 19.3932 19.3829 19.9635 18.9756 20.493C18.5887 21.0225 18.1406 21.5113 17.6926 21.9797C17.6926 21.8167 17.713 21.6538 17.713 21.5113C17.713 21.3483 17.7333 21.1854 17.7333 21.0428C17.7333 20.9003 17.7537 20.7577 17.7537 20.6355C17.7537 20.5133 17.7537 20.4319 17.7537 20.3504C17.7537 20.2893 17.7537 20.2282 17.7333 20.1875C17.713 20.1468 17.713 20.1264 17.6926 20.0857C17.6722 20.0653 17.6519 20.0449 17.6315 20.0449C17.6111 20.0449 17.5908 20.0246 17.55 20.0246C17.5297 20.0246 17.5093 20.0246 17.4889 20.0246C17.4686 20.0246 17.4482 20.0246 17.4279 20.0449C17.4075 20.0449 17.4075 20.0653 17.3871 20.0653H17.3668L13.3751 21.3687C13.3751 21.3687 13.3344 21.3891 13.2936 21.4094C13.2529 21.4298 13.1918 21.4705 13.1511 21.5113C13.1103 21.552 13.0696 21.6334 13.0696 21.7149C13.0696 21.7964 13.09 21.9186 13.1511 22.0408C13.1511 22.0408 13.1511 22.0611 13.1714 22.0611C13.1714 22.0611 13.1714 22.0815 13.1918 22.0815C13.1918 22.0815 13.1918 22.1019 13.2122 22.1019C13.2122 22.1019 13.2122 22.1222 13.2325 22.1222C13.4158 22.4888 13.6602 22.9776 13.9657 23.5274C14.2508 24.0773 14.597 24.7086 14.9229 25.3196C15.2487 25.9306 15.5746 26.5415 15.8597 27.0711C16.1448 27.6006 16.3892 28.0282 16.5318 28.3134C16.5521 28.3337 16.5521 28.3541 16.5725 28.3745C16.5929 28.3948 16.5929 28.4152 16.6132 28.4355C16.6132 28.4559 16.6336 28.4763 16.6336 28.4966C16.6336 28.517 16.654 28.517 16.654 28.5374C16.6947 28.5985 16.7354 28.6596 16.7558 28.7207C16.7965 28.7614 16.8169 28.8021 16.8576 28.8429C16.8983 28.8632 16.9187 28.904 16.9594 28.904C16.9798 28.9243 17.0205 28.9243 17.0409 28.9243C17.0816 28.9243 17.1427 28.904 17.1835 28.8836C17.2242 28.8632 17.2649 28.8225 17.2853 28.7614C17.3057 28.7207 17.3464 28.6596 17.3464 28.6188C17.3668 28.5781 17.3668 28.517 17.3871 28.4966C17.3871 28.4763 17.3871 28.4763 17.3871 28.4559C17.3871 28.4355 17.3871 28.4152 17.3871 28.3948C17.3871 28.3745 17.3871 28.3337 17.3871 28.3134C17.3871 28.2726 17.3871 28.2523 17.3871 28.2115C17.3871 28.069 17.4075 27.9264 17.4075 27.7635C17.4075 27.6006 17.4279 27.4376 17.4279 27.2747C17.4279 27.1118 17.4482 26.9896 17.4482 26.8878C17.4482 26.7859 17.4482 26.7248 17.4482 26.7045C17.9981 27.0303 18.548 27.3562 19.0775 27.6413C19.6273 27.9468 20.1568 28.2115 20.666 28.4559C21.1751 28.7003 21.6639 28.904 22.1119 29.0465C22.56 29.1891 22.9877 29.2909 23.3542 29.3113C23.395 29.3113 23.4561 29.3113 23.4968 29.3113C23.5375 29.3113 23.5986 29.3113 23.6394 29.3113C23.6801 29.3113 23.7208 29.3113 23.7819 29.2909C23.8226 29.2909 23.8634 29.2705 23.9041 29.2705C23.9652 29.2502 24.0263 29.2502 24.0874 29.2298C24.1485 29.2094 24.2096 29.1891 24.2503 29.1687C24.3114 29.1483 24.3521 29.1076 24.3929 29.0872C24.4336 29.0465 24.4743 29.0058 24.5151 28.9651C24.7798 28.7003 24.8816 28.2726 24.8816 27.7228C24.8816 27.1932 24.7595 26.5416 24.5354 25.8491V25.8084Z" fill="#FCB8C4"/>
<path d="M12.0929 14.8309V13.8941H10.7692V8.76198H9.79162C9.38431 9.14893 8.93627 9.41368 8.44749 9.53588V10.4931C8.69188 10.4523 8.9159 10.3709 9.16029 10.2487C9.40467 10.1265 9.58797 10.0043 9.73052 9.86173V13.8737H8.06055V14.8106H12.0929V14.8309ZM17.0418 10.5134C17.0418 9.96355 16.8585 9.51551 16.4715 9.1693C16.0846 8.84345 15.5958 8.66016 14.9848 8.66016C14.3739 8.66016 13.8647 8.82308 13.4982 9.14893C13.1112 9.47478 12.9279 9.92282 12.9279 10.4727V13.0591C12.9279 13.609 13.1112 14.057 13.4982 14.3829C13.8851 14.7087 14.3739 14.8717 14.9848 14.8717C15.5958 14.8717 16.0846 14.7087 16.4715 14.3625C16.8585 14.0367 17.0418 13.5886 17.0418 13.0184V10.4727V10.5134ZM16.0031 12.9777C16.0031 13.3035 15.9217 13.5479 15.7384 13.7312C15.5551 13.9145 15.3107 13.9959 15.0052 13.9959C14.6794 13.9959 14.435 13.9145 14.272 13.7312C14.0888 13.5479 14.0073 13.3035 14.0073 12.9777V10.5542C14.0073 10.2283 14.0888 9.98392 14.272 9.80063C14.4553 9.61734 14.6997 9.53588 15.0256 9.53588C15.3514 9.53588 15.5958 9.61734 15.7791 9.80063C15.9624 9.98392 16.0439 10.2283 16.0439 10.5542L16.0235 12.9777H16.0031Z" fill="#FCB8C4"/>
<path d="M9.26136 19.9174V15.3555H8.48747V18.8176L6.6953 15.3555H5.5752V19.9174H6.34909V16.4552L8.16162 19.9174H9.26136ZM10.8499 19.4897C10.8499 19.3675 10.8091 19.286 10.7277 19.2249C10.6462 19.1638 10.5444 19.1435 10.4222 19.1435C10.3 19.1435 10.1982 19.1842 10.1167 19.2249C10.0353 19.286 9.99452 19.3675 9.99452 19.4897V19.6119C9.99452 19.7341 10.0353 19.8155 10.1167 19.8766C10.1982 19.9377 10.3 19.9785 10.4222 19.9785C10.5444 19.9785 10.6462 19.9377 10.7277 19.8766C10.8091 19.8155 10.8499 19.7341 10.8499 19.6119L10.8295 19.4897H10.8499ZM14.2713 18.6954H13.5585C13.5585 19.1231 13.3345 19.3471 12.8864 19.3471C12.4384 19.3471 12.2144 19.1231 12.2144 18.6547V17.9826C12.2144 17.5346 12.4384 17.2902 12.8864 17.2902C13.3345 17.2902 13.5585 17.5142 13.5585 17.9419H14.2713V17.8808C14.2713 17.4939 14.1491 17.1884 13.9047 16.9643C13.6603 16.7607 13.3141 16.6385 12.8864 16.6385C12.4588 16.6385 12.1329 16.7403 11.8682 16.9847C11.6238 17.2087 11.4812 17.5346 11.4812 17.9215V18.7158C11.4812 19.1027 11.6034 19.4286 11.8682 19.6322C12.1125 19.8563 12.4588 19.9581 12.8864 19.9581C13.3141 19.9581 13.6603 19.8563 13.9047 19.6322C14.1491 19.4082 14.2917 19.1027 14.2917 18.7158L14.2713 18.6751V18.6954ZM19.4034 19.9174V17.6364C19.4034 17.3309 19.322 17.0865 19.159 16.9033C18.9961 16.7403 18.7721 16.6385 18.5073 16.6385C18.2426 16.6385 17.9982 16.72 17.7742 16.8625L17.428 17.0865C17.2854 16.8014 17.041 16.6589 16.6541 16.6589C16.43 16.6589 16.1857 16.72 15.982 16.8625L15.6969 17.0254V16.6792H14.9637V19.897H15.6969V17.6771L16.0838 17.4328C16.2468 17.3513 16.3689 17.3106 16.4708 17.3106C16.6948 17.3106 16.817 17.4531 16.817 17.7179V19.897H17.5502V17.6771L17.9371 17.4328C18.1 17.3513 18.2222 17.3106 18.324 17.3106C18.5481 17.3106 18.6703 17.4531 18.6703 17.6975V19.897H19.4238L19.4034 19.9174Z" fill="#FCB8C4"/>
<path d="M21.4806 11.3478C24.5558 11.3478 27.0607 8.86323 27.0607 5.76767C27.0607 2.69247 24.5761 0.1875 21.4806 0.1875C18.4054 0.1875 15.9004 2.6721 15.9004 5.76767C15.9004 8.84287 18.385 11.3478 21.4806 11.3478Z" fill="#FCB8C4"/>
<path d="M21.4806 11.3478C24.5558 11.3478 27.0607 8.86323 27.0607 5.76767C27.0607 2.69247 24.5761 0.1875 21.4806 0.1875C18.4054 0.1875 15.9004 2.6721 15.9004 5.76767C15.9004 8.84287 18.385 11.3478 21.4806 11.3478Z" stroke="white" stroke-width="1.1812"/>
<path d="M23.4568 8.94534V8.29364H20.7278L22.4589 6.54221C22.8255 6.17563 23.0902 5.82941 23.2328 5.52393C23.3754 5.21844 23.4568 4.91296 23.4568 4.58711C23.4568 4.07797 23.3143 3.67066 22.9884 3.38554C22.6829 3.08006 22.2349 2.9375 21.6443 2.9375C21.0944 2.9375 20.6464 3.08006 20.3002 3.36518C19.9539 3.6503 19.791 4.03724 19.791 4.52601V4.58711H20.4631C20.4631 4.2409 20.5649 3.99651 20.7686 3.83358C20.9722 3.67066 21.2573 3.56883 21.6239 3.56883C22.0109 3.56883 22.296 3.65029 22.4793 3.83358C22.6626 4.01688 22.7644 4.26126 22.7644 4.58711C22.7644 4.85186 22.7033 5.09625 22.5811 5.32027C22.4589 5.54429 22.2552 5.80905 21.9905 6.11453L19.8928 8.27328V8.92498H23.4365L23.4568 8.94534Z" fill="#FEFEFE"/>
</svg>
