<svg width="26" height="28" viewBox="0 0 26 28" fill="none" xmlns="http://www.w3.org/2000/svg">
<path d="M23.1661 23.9052C22.9594 23.2593 22.7011 22.5359 22.3652 21.8125C22.0293 21.0891 21.6676 20.3398 21.2543 19.6164C21.2026 19.7198 21.1509 19.8231 21.0734 19.9006C21.0217 20.004 20.9442 20.0815 20.8925 20.1848C20.8409 20.2882 20.7634 20.3657 20.6859 20.469C20.6084 20.5723 20.5567 20.6499 20.4792 20.7274C20.4792 20.7274 20.4792 20.7274 20.4533 20.7532C20.4533 20.7532 20.4533 20.7532 20.4275 20.779C20.4275 20.779 20.4275 20.779 20.4017 20.8049C20.4017 20.8049 20.4017 20.8049 20.3758 20.8307L20.3242 20.9082C20.3758 21.0632 20.4533 21.2699 20.5308 21.5024C20.6084 21.7091 20.6859 21.9416 20.7634 22.1742C20.8409 22.3809 20.8925 22.6134 20.9184 22.7684C20.9442 22.9492 20.9442 23.0784 20.8667 23.1301C20.8409 23.1559 20.815 23.1818 20.7892 23.1818C20.7634 23.2076 20.7375 23.2076 20.7117 23.2076C20.6859 23.2076 20.66 23.2334 20.6084 23.2334C20.5825 23.2334 20.5308 23.2334 20.505 23.2334C20.4533 23.2334 20.3758 23.2334 20.3242 23.2076C20.2467 23.1818 20.1691 23.1818 20.1175 23.1559C20.04 23.1301 19.9625 23.1043 19.885 23.0784C19.8074 23.0526 19.7041 23.0009 19.6266 22.9492C19.5232 22.8976 19.3941 22.8459 19.2649 22.7684C19.1357 22.6909 19.0065 22.6392 18.8774 22.5617C18.7482 22.4842 18.619 22.4067 18.4898 22.3292C18.3606 22.2517 18.2056 22.1483 18.0764 22.0708C18.619 21.5283 19.1357 20.934 19.6266 20.314C20.0916 19.6939 20.5308 19.0222 20.9184 18.3505C21.3059 17.6529 21.6418 16.9553 21.9002 16.2061C22.1843 15.4827 22.391 14.7334 22.546 13.9584C22.8819 12.2532 22.8561 10.6255 22.546 9.20456C22.236 7.78359 21.6418 6.54347 20.815 5.53587C20.0141 4.55411 18.9807 3.77903 17.7664 3.28815C16.578 2.79727 15.2345 2.59058 13.7877 2.69393C12.8318 2.77143 11.8758 2.95228 10.9457 3.26231C10.0415 3.57235 9.13723 3.98572 8.28465 4.50244C7.43206 5.01915 6.63115 5.61338 5.88191 6.28511C5.13267 6.95684 4.4351 7.70608 3.81504 8.53283C3.63419 8.2228 3.50501 7.91277 3.40167 7.65441C3.29832 7.39605 3.22082 7.13769 3.16915 6.93101C3.11747 6.72432 3.09164 6.51763 3.11747 6.36262C3.14331 6.2076 3.19498 6.07842 3.27249 5.97508C3.29832 5.94924 3.32416 5.92341 3.37583 5.89757C3.4275 5.87174 3.47918 5.8459 3.53085 5.82007C3.58252 5.79423 3.66003 5.76839 3.7117 5.76839C3.78921 5.74256 3.86671 5.74256 3.94422 5.74256C4.02173 5.74256 4.12507 5.74256 4.20258 5.74256C4.30592 5.76839 4.38343 5.76839 4.48677 5.82007C4.59012 5.8459 4.66763 5.89757 4.77097 5.94924C4.87431 6.00092 4.97766 6.07842 5.05516 6.18177C5.15851 6.07842 5.23601 5.94924 5.33936 5.8459C5.4427 5.74256 5.54604 5.63921 5.64939 5.53587C5.75273 5.43253 5.85608 5.35502 5.98525 5.25168C6.0886 5.14833 6.21778 5.07083 6.34696 4.99332L6.37279 4.96748L6.39863 4.94165L6.42446 4.91581C6.42446 4.91581 6.4503 4.91581 6.4503 4.88997C6.24361 4.70912 6.01109 4.52827 5.75273 4.39909C5.52021 4.26991 5.26185 4.16657 5.00349 4.08906C4.74513 4.01155 4.48677 3.95988 4.25425 3.93405C3.99589 3.90821 3.76337 3.90821 3.53085 3.90821C3.37583 3.90821 3.22082 3.93405 3.0658 3.95988C2.91079 3.98572 2.78161 4.03739 2.65243 4.06323C2.52325 4.1149 2.41991 4.16657 2.31656 4.21824C2.21322 4.26991 2.13571 4.34742 2.08404 4.39909C1.90319 4.60578 1.77401 4.88997 1.72234 5.2C1.67066 5.53587 1.6965 5.92341 1.77401 6.36262C1.85152 6.80183 2.00653 7.29271 2.21322 7.80943C2.4199 8.35198 2.67826 8.92037 3.01413 9.54043C2.78161 9.8763 2.57492 10.238 2.39407 10.5997C2.18738 10.9614 2.00653 11.3231 1.85152 11.7106C1.67066 12.0982 1.54149 12.4599 1.38647 12.8733C1.25729 13.2608 1.12811 13.6742 1.02477 14.0617C0.611394 15.6119 0.508051 17.0845 0.63723 18.4538C0.766409 19.8489 1.17978 21.1149 1.79984 22.2258C2.44574 23.3368 3.32416 24.2669 4.40927 24.9644C5.52021 25.662 6.83784 26.1012 8.33632 26.1787C8.77553 26.2046 9.24057 26.2046 9.67978 26.1787C10.1448 26.1529 10.584 26.0754 11.0491 25.9979C11.5141 25.8945 11.9533 25.7912 12.3925 25.6362C12.8318 25.4812 13.2968 25.3003 13.736 25.1195L12.6767 23.1043C12.3667 23.2334 12.0567 23.3368 11.7467 23.4401C11.4366 23.5435 11.1266 23.5951 10.7907 23.6726C10.4807 23.7243 10.1707 23.776 9.8348 23.8018C9.52477 23.8277 9.21474 23.8277 8.90471 23.8018C7.69042 23.7502 6.63115 23.4143 5.7269 22.8717C4.84848 22.3292 4.12507 21.5799 3.58252 20.7015C3.0658 19.8231 2.72994 18.7897 2.60076 17.6787C2.47158 16.5678 2.57492 15.3535 2.88495 14.1134C3.19498 12.8733 3.73753 11.6848 4.40927 10.5997C5.081 9.51459 5.90775 8.55867 6.83784 7.73192C7.76793 6.90517 8.80136 6.2076 9.88647 5.71672C10.9716 5.22584 12.1342 4.88997 13.3226 4.8383C14.5111 4.76079 15.5962 4.96748 16.5521 5.35502C17.5081 5.76839 18.3348 6.38845 18.9807 7.2152C19.6266 8.04195 20.0916 9.04955 20.3242 10.1863C20.5567 11.3489 20.5567 12.6407 20.2725 14.01C20.1433 14.6043 19.9883 15.1985 19.7558 15.7927C19.5491 16.3611 19.2907 16.9295 18.9807 17.472C18.6707 18.0146 18.3348 18.5313 17.9731 19.0222C17.6114 19.5131 17.198 19.9781 16.7846 20.4173C16.7846 20.2623 16.8105 20.1331 16.8105 19.9781C16.8105 19.8231 16.8363 19.6681 16.8363 19.5389C16.8363 19.4097 16.8363 19.2806 16.8622 19.1514C16.8622 19.048 16.8622 18.9447 16.8622 18.893C16.8622 18.8413 16.8622 18.7897 16.8363 18.738C16.8363 18.7122 16.8105 18.6605 16.7846 18.6605C16.7588 18.6347 16.7588 18.6347 16.733 18.6088C16.7071 18.6088 16.6813 18.583 16.6555 18.583C16.6296 18.583 16.6038 18.583 16.6038 18.583C16.578 18.583 16.578 18.583 16.5521 18.6088C16.5263 18.6088 16.5263 18.6088 16.5263 18.6347H16.5005L12.7801 19.8489C12.7801 19.8489 12.7543 19.8489 12.7026 19.8748C12.6509 19.9006 12.5992 19.9264 12.5734 19.9781C12.5217 20.0298 12.4959 20.0815 12.4959 20.159C12.4959 20.2365 12.4959 20.3398 12.5734 20.469V20.4948V20.5207V20.5465V20.5723C12.7284 20.9082 12.9868 21.3733 13.2451 21.89C13.5293 22.4067 13.8394 23.0009 14.1494 23.5693C14.4594 24.1377 14.7694 24.7061 15.0278 25.197C15.2862 25.6878 15.5187 26.1012 15.6479 26.3596C15.6479 26.3854 15.6737 26.4113 15.6737 26.4113C15.6737 26.4371 15.6995 26.4629 15.6995 26.4629C15.6995 26.4888 15.7254 26.4888 15.7254 26.5146C15.7254 26.5404 15.7512 26.5404 15.7512 26.5663C15.777 26.6438 15.8287 26.6954 15.8546 26.7213C15.8804 26.773 15.9321 26.7988 15.9579 26.8246C15.9837 26.8505 16.0096 26.8763 16.0354 26.9021C16.0612 26.928 16.0871 26.928 16.1129 26.928C16.1646 26.928 16.1904 26.928 16.2421 26.9021C16.2679 26.8763 16.3196 26.8246 16.3454 26.7988C16.3713 26.7471 16.3971 26.7213 16.4229 26.6696C16.4488 26.6179 16.4488 26.5921 16.4488 26.5404C16.4488 26.5404 16.4488 26.5146 16.4488 26.4888C16.4488 26.4629 16.4488 26.4371 16.4488 26.4371C16.4488 26.4113 16.4488 26.3854 16.4488 26.3596C16.4488 26.3337 16.4488 26.3079 16.4488 26.2562C16.4488 26.1271 16.4746 25.9979 16.4746 25.8429C16.4746 25.6878 16.5005 25.5328 16.5005 25.3778C16.5005 25.2228 16.5263 25.0936 16.5263 25.0161C16.5263 24.9128 16.5263 24.8611 16.5263 24.8353C17.043 25.1453 17.5597 25.4295 18.0506 25.7137C18.5673 25.9979 19.0582 26.2562 19.5232 26.4629C19.9883 26.6954 20.4533 26.8763 20.8667 27.0055C21.2801 27.1347 21.6676 27.238 22.0035 27.238C22.0552 27.238 22.1068 27.238 22.1327 27.238C22.1843 27.238 22.2102 27.238 22.2619 27.238C22.3135 27.238 22.3394 27.238 22.391 27.238C22.4427 27.238 22.4685 27.238 22.5202 27.2122C22.5719 27.2122 22.6236 27.1863 22.7011 27.1605C22.7527 27.1347 22.8044 27.1088 22.8561 27.083C22.9077 27.0571 22.9594 27.0313 22.9853 27.0055C23.0369 26.9796 23.0628 26.928 23.1144 26.9021C23.347 26.6438 23.4503 26.2562 23.4503 25.7395C23.4503 25.2486 23.3211 24.6544 23.1403 23.9827L23.1661 23.9052Z" fill="#FCB8C4"/>
<path d="M9.75694 11.1655C10.0153 11.1655 10.2478 11.243 10.4028 11.398C10.5579 11.553 10.6354 11.7597 10.6354 12.0181C10.6354 12.3023 10.5579 12.5089 10.377 12.664C10.1961 12.819 9.96363 12.8965 9.70527 12.8965C9.05937 12.8965 8.72351 12.6123 8.72351 12.0439H7.76758V12.1214C7.76758 12.6381 7.94843 13.0257 8.2843 13.3099C8.646 13.594 9.11104 13.7232 9.70527 13.7232C10.2478 13.7232 10.7129 13.5682 11.0746 13.284C11.4621 12.974 11.643 12.5606 11.643 12.0181C11.643 11.8372 11.6171 11.6564 11.5396 11.5013C11.4879 11.3463 11.4104 11.2171 11.3588 11.1138C11.2813 11.0363 11.2037 10.933 11.1262 10.8813C11.0229 10.8038 10.9712 10.7779 10.9196 10.7521C10.8679 10.7263 10.842 10.7263 10.8162 10.7263L10.8937 10.7004C10.9454 10.6746 10.9971 10.6229 11.0746 10.5713C11.1521 10.4937 11.2037 10.4162 11.2813 10.3387C11.3588 10.2612 11.4104 10.132 11.4621 9.97703C11.5138 9.82201 11.5396 9.667 11.5396 9.51198C11.5396 9.0211 11.3846 8.6594 11.0487 8.3752C10.7129 8.09101 10.2737 7.96183 9.70527 7.96183C9.16271 7.96183 8.69767 8.09101 8.3618 8.3752C8.02594 8.6594 7.84509 9.0211 7.84509 9.51198V9.56365H8.77518C8.77518 9.30529 8.85268 9.09861 9.0077 8.96943C9.16271 8.84025 9.39524 8.76274 9.67943 8.76274C9.98946 8.76274 10.1961 8.84025 10.3512 8.96943C10.5062 9.09861 10.5837 9.30529 10.5837 9.53782C10.5837 9.79617 10.5062 10.0029 10.3512 10.1579C10.1961 10.3129 9.98946 10.3904 9.7311 10.3904H8.77518V11.2171L9.78278 11.243L9.75694 11.1655ZM15.9834 13.6199V12.7415H13.6582L15.0016 11.4238C15.3633 11.0621 15.6217 10.7521 15.7509 10.4679C15.9059 10.1579 15.9575 9.87368 15.9575 9.56365C15.9575 9.04693 15.8025 8.6594 15.4667 8.34937C15.1566 8.06517 14.6916 7.91016 14.1232 7.91016C13.5548 7.91016 13.0898 8.06517 12.7539 8.34937C12.418 8.63356 12.2372 9.04693 12.2372 9.56365V9.61532H13.1931C13.1931 9.04693 13.5031 8.76274 14.0974 8.76274C14.6658 8.76274 14.9499 9.04693 14.9499 9.58949C14.9499 9.79617 14.8983 10.0029 14.7949 10.2095C14.6916 10.4162 14.5366 10.6229 14.3041 10.8554L12.3405 12.7673V13.6457H15.9575L15.9834 13.6199Z" fill="#FCB8C4"/>
<path d="M9.13637 18.4011V14.1641H8.41296V17.3935L6.73363 14.1641H5.7002V18.4011H6.4236V15.1717L8.12877 18.4011H9.1622H9.13637ZM10.4798 18.0136C10.4798 17.9103 10.454 17.8328 10.3765 17.7552C10.299 17.7036 10.1956 17.6777 10.0923 17.6777C9.98895 17.6777 9.88561 17.7036 9.8081 17.7552C9.73059 17.8069 9.70475 17.8844 9.70475 18.0136V18.1428C9.70475 18.2461 9.75643 18.3236 9.8081 18.4011C9.88561 18.4528 9.98895 18.4787 10.0923 18.4787C10.2215 18.4787 10.299 18.4528 10.3765 18.4011C10.454 18.3495 10.4798 18.272 10.4798 18.1428V18.0136ZM13.5285 17.2644H12.8567C12.8567 17.6519 12.65 17.8586 12.2108 17.8586C11.7975 17.8586 11.5908 17.6519 11.5908 17.2127V16.5926C11.5908 16.1534 11.7975 15.9467 12.2108 15.9467C12.6242 15.9467 12.8567 16.1534 12.8567 16.541H13.5285V16.4893C13.5285 16.1276 13.4251 15.8434 13.1668 15.6367C12.9342 15.43 12.6242 15.3267 12.2108 15.3267C11.8233 15.3267 11.5133 15.43 11.2807 15.6367C11.0482 15.8434 10.919 16.1276 10.919 16.5151V17.2644C10.919 17.6261 11.0482 17.9103 11.2807 18.1169C11.5133 18.3236 11.8233 18.427 12.2108 18.427C12.5984 18.427 12.9342 18.3236 13.1668 18.1428C13.3993 17.9361 13.5285 17.6519 13.5285 17.2902V17.2385V17.2644ZM18.1789 18.4011V16.2826C18.1789 15.9984 18.1014 15.7659 17.9464 15.6109C17.7914 15.4559 17.5847 15.3783 17.3263 15.3783C17.0938 15.3783 16.8613 15.4559 16.6288 15.585L16.2929 15.7917C16.1637 15.5334 15.9312 15.3783 15.5695 15.3783C15.3628 15.3783 15.1303 15.43 14.9494 15.5592L14.6911 15.7142V15.4042H14.0193V18.4011H14.7169V16.3343L15.0786 16.1018C15.2336 16.0242 15.337 15.9984 15.4403 15.9984C15.647 15.9984 15.7503 16.1276 15.7503 16.3601V18.4011H16.4479V16.3343L16.8096 16.1018C16.9646 16.0242 17.068 15.9726 17.1713 15.9726C17.378 15.9726 17.4814 16.1018 17.4814 16.3343V18.3753H18.1789V18.4011Z" fill="#FCB8C4"/>
<path d="M20.2985 10.3899C23.1663 10.3899 25.4915 8.0647 25.4915 5.19692C25.4915 2.32913 23.1663 0.00390625 20.2985 0.00390625C17.4307 0.00390625 15.1055 2.32913 15.1055 5.19692C15.1055 8.0647 17.4307 10.3899 20.2985 10.3899Z" fill="#FCB8C4"/>
<path d="M20.2985 10.3899C23.1663 10.3899 25.4915 8.0647 25.4915 5.19691C25.4915 2.32913 23.1663 0.00390625 20.2985 0.00390625C17.4307 0.00390625 15.1055 2.32913 15.1055 5.19691C15.1055 8.0647 17.4307 10.3899 20.2985 10.3899Z" stroke="white" stroke-width="1.08511"/>
<path d="M22.1587 8.1695V7.60111H20.8928V2.64062H20.2469C19.8593 3.00233 19.4718 3.26069 19.0843 3.36403V3.95825C19.4976 3.88075 19.911 3.67406 20.2727 3.31236V7.60111H18.6709V8.1695H22.1846H22.1587Z" fill="#FEFEFE"/>
</svg>
