<svg width="17" height="17" viewBox="0 0 17 17" fill="none" xmlns="http://www.w3.org/2000/svg">
<path d="M8.50696 4.83984C8.63957 4.83984 8.76675 4.89252 8.86052 4.98629C8.95429 5.08007 9.00697 5.20725 9.00697 5.33986V8.33995H12.0071C12.1397 8.33995 12.2669 8.39263 12.3606 8.4864C12.4544 8.58017 12.5071 8.70735 12.5071 8.83997C12.5071 8.97258 12.4544 9.09976 12.3606 9.19353C12.2669 9.2873 12.1397 9.33998 12.0071 9.33998H9.00697V12.3401C9.00697 12.4727 8.95429 12.5999 8.86052 12.6936C8.76675 12.7874 8.63957 12.8401 8.50696 12.8401C8.37435 12.8401 8.24716 12.7874 8.15339 12.6936C8.05962 12.5999 8.00694 12.4727 8.00694 12.3401V9.33998H5.00685C4.87424 9.33998 4.74706 9.2873 4.65329 9.19353C4.55952 9.09976 4.50684 8.97258 4.50684 8.83997C4.50684 8.70735 4.55952 8.58017 4.65329 8.4864C4.74706 8.39263 4.87424 8.33995 5.00685 8.33995H8.00694V5.33986C8.00694 5.20725 8.05962 5.08007 8.15339 4.98629C8.24716 4.89252 8.37435 4.83984 8.50696 4.83984Z" fill="#CFCCC9"/>
</svg>
