<svg width="17" height="17" viewBox="0 0 17 17" fill="none" xmlns="http://www.w3.org/2000/svg">
<path d="M8.50696 4.13281C8.63957 4.13281 8.76675 4.18549 8.86052 4.27926C8.95429 4.37303 9.00697 4.50022 9.00697 4.63283V7.63292H12.0071C12.1397 7.63292 12.2669 7.6856 12.3606 7.77937C12.4544 7.87314 12.5071 8.00032 12.5071 8.13293C12.5071 8.26555 12.4544 8.39273 12.3606 8.4865C12.2669 8.58027 12.1397 8.63295 12.0071 8.63295H9.00697V11.633C9.00697 11.7657 8.95429 11.8928 8.86052 11.9866C8.76675 12.0804 8.63957 12.1331 8.50696 12.1331C8.37435 12.1331 8.24716 12.0804 8.15339 11.9866C8.05962 11.8928 8.00694 11.7657 8.00694 11.633V8.63295H5.00685C4.87424 8.63295 4.74706 8.58027 4.65329 8.4865C4.55952 8.39273 4.50684 8.26555 4.50684 8.13293C4.50684 8.00032 4.55952 7.87314 4.65329 7.77937C4.74706 7.6856 4.87424 7.63292 5.00685 7.63292H8.00694V4.63283C8.00694 4.50022 8.05962 4.37303 8.15339 4.27926C8.24716 4.18549 8.37435 4.13281 8.50696 4.13281Z" fill="#CFCCC9"/>
</svg>
