<svg width="17" height="17" viewBox="0 0 17 17" fill="none" xmlns="http://www.w3.org/2000/svg">
<path d="M8.0802 4.39062C8.21281 4.39062 8.33999 4.44331 8.43376 4.53708C8.52754 4.63085 8.58021 4.75803 8.58021 4.89064V7.89073H11.5803C11.7129 7.89073 11.8401 7.94341 11.9339 8.03718C12.0276 8.13095 12.0803 8.25813 12.0803 8.39075C12.0803 8.52336 12.0276 8.65054 11.9339 8.74431C11.8401 8.83808 11.7129 8.89076 11.5803 8.89076H8.58021V11.8909C8.58021 12.0235 8.52754 12.1506 8.43376 12.2444C8.33999 12.3382 8.21281 12.3909 8.0802 12.3909C7.94759 12.3909 7.82041 12.3382 7.72664 12.2444C7.63286 12.1506 7.58018 12.0235 7.58018 11.8909V8.89076H4.58009C4.44748 8.89076 4.3203 8.83808 4.22653 8.74431C4.13276 8.65054 4.08008 8.52336 4.08008 8.39075C4.08008 8.25813 4.13276 8.13095 4.22653 8.03718C4.3203 7.94341 4.44748 7.89073 4.58009 7.89073H7.58018V4.89064C7.58018 4.75803 7.63286 4.63085 7.72664 4.53708C7.82041 4.44331 7.94759 4.39062 8.0802 4.39062Z" fill="#CFCCC9"/>
</svg>
