<svg width="17" height="17" viewBox="0 0 17 17" fill="none" xmlns="http://www.w3.org/2000/svg">
<path d="M8.50696 4.87988C8.63957 4.87988 8.76675 4.93256 8.86052 5.02633C8.95429 5.12011 9.00697 5.24729 9.00697 5.3799V8.37999H12.0071C12.1397 8.37999 12.2669 8.43267 12.3606 8.52644C12.4544 8.62021 12.5071 8.74739 12.5071 8.88C12.5071 9.01262 12.4544 9.1398 12.3606 9.23357C12.2669 9.32734 12.1397 9.38002 12.0071 9.38002H9.00697V12.3801C9.00697 12.5127 8.95429 12.6399 8.86052 12.7337C8.76675 12.8274 8.63957 12.8801 8.50696 12.8801C8.37435 12.8801 8.24716 12.8274 8.15339 12.7337C8.05962 12.6399 8.00694 12.5127 8.00694 12.3801V9.38002H5.00685C4.87424 9.38002 4.74706 9.32734 4.65329 9.23357C4.55952 9.1398 4.50684 9.01262 4.50684 8.88C4.50684 8.74739 4.55952 8.62021 4.65329 8.52644C4.74706 8.43267 4.87424 8.37999 5.00685 8.37999H8.00694V5.3799C8.00694 5.24729 8.05962 5.12011 8.15339 5.02633C8.24716 4.93256 8.37435 4.87988 8.50696 4.87988Z" fill="#CFCCC9"/>
</svg>
