<svg width="15" height="15" viewBox="0 0 15 15" fill="none" xmlns="http://www.w3.org/2000/svg">
<path d="M8.47096 5.45528C8.47096 5.34386 8.42669 5.237 8.34791 5.15821C8.26912 5.07942 8.16226 5.03516 8.05083 5.03516C7.93941 5.03516 7.83254 5.07942 7.75376 5.15821C7.67497 5.237 7.6307 5.34386 7.6307 5.45528V6.71566H6.37032C6.2589 6.71566 6.15204 6.75993 6.07325 6.83872C5.99446 6.91751 5.9502 7.02437 5.9502 7.13579C5.9502 7.24722 5.99446 7.35408 6.07325 7.43287C6.15204 7.51166 6.2589 7.55592 6.37032 7.55592H7.6307V8.8163C7.6307 8.92772 7.67497 9.03459 7.75376 9.11338C7.83254 9.19216 7.93941 9.23643 8.05083 9.23643C8.16226 9.23643 8.26912 9.19216 8.34791 9.11338C8.42669 9.03459 8.47096 8.92772 8.47096 8.8163V7.55592H9.73134C9.84276 7.55592 9.94963 7.51166 10.0284 7.43287C10.1072 7.35408 10.1515 7.24722 10.1515 7.13579C10.1515 7.02437 10.1072 6.91751 10.0284 6.83872C9.94963 6.75993 9.84276 6.71566 9.73134 6.71566H8.47096V5.45528Z" fill="#363330"/>
<path d="M1.32833 1.67188C1.21691 1.67188 1.11004 1.71614 1.03126 1.79493C0.952466 1.87372 0.908203 1.98058 0.908203 2.092C0.908203 2.20343 0.952466 2.31029 1.03126 2.38908C1.11004 2.46787 1.21691 2.51213 1.32833 2.51213H2.26101L2.59795 3.86242L3.85666 10.5718C3.87468 10.6681 3.92577 10.7551 4.0011 10.8177C4.07644 10.8803 4.17127 10.9146 4.26922 10.9147H5.10947C4.66378 10.9147 4.23633 11.0917 3.92118 11.4069C3.60602 11.722 3.42897 12.1495 3.42897 12.5952C3.42897 13.0409 3.60602 13.4683 3.92118 13.7835C4.23633 14.0986 4.66378 14.2757 5.10947 14.2757C5.55517 14.2757 5.98262 14.0986 6.29777 13.7835C6.61293 13.4683 6.78998 13.0409 6.78998 12.5952C6.78998 12.1495 6.61293 11.722 6.29777 11.4069C5.98262 11.0917 5.55517 10.9147 5.10947 10.9147H10.9913C10.5456 10.9147 10.1181 11.0917 9.80296 11.4069C9.4878 11.722 9.31075 12.1495 9.31075 12.5952C9.31075 13.0409 9.4878 13.4683 9.80296 13.7835C10.1181 14.0986 10.5456 14.2757 10.9913 14.2757C11.437 14.2757 11.8644 14.0986 12.1796 13.7835C12.4947 13.4683 12.6718 13.0409 12.6718 12.5952C12.6718 12.1495 12.4947 11.722 12.1796 11.4069C11.8644 11.0917 11.437 10.9147 10.9913 10.9147H11.8315C11.9295 10.9146 12.0243 10.8803 12.0996 10.8177C12.175 10.7551 12.2261 10.6681 12.2441 10.5718L13.5045 3.84981C13.5158 3.78918 13.5137 3.72679 13.4982 3.66707C13.4827 3.60736 13.4543 3.55179 13.4149 3.5043C13.3755 3.45682 13.3261 3.41859 13.2703 3.39234C13.2145 3.36608 13.1536 3.35244 13.0919 3.35238H3.33654L2.99623 1.99033C2.97356 1.8994 2.92113 1.81867 2.84728 1.76096C2.77344 1.70326 2.68243 1.6719 2.58871 1.67188H1.32833ZM4.61793 10.0744L3.51467 4.19264H12.5861L11.4828 10.0744H4.61793ZM5.94973 12.5952C5.94973 12.818 5.8612 13.0318 5.70362 13.1893C5.54605 13.3469 5.33232 13.4354 5.10947 13.4354C4.88663 13.4354 4.6729 13.3469 4.51533 13.1893C4.35775 13.0318 4.26922 12.818 4.26922 12.5952C4.26922 12.3723 4.35775 12.1586 4.51533 12.001C4.6729 11.8435 4.88663 11.7549 5.10947 11.7549C5.33232 11.7549 5.54605 11.8435 5.70362 12.001C5.8612 12.1586 5.94973 12.3723 5.94973 12.5952ZM11.8315 12.5952C11.8315 12.818 11.743 13.0318 11.5854 13.1893C11.4278 13.3469 11.2141 13.4354 10.9913 13.4354C10.7684 13.4354 10.5547 13.3469 10.3971 13.1893C10.2395 13.0318 10.151 12.818 10.151 12.5952C10.151 12.3723 10.2395 12.1586 10.3971 12.001C10.5547 11.8435 10.7684 11.7549 10.9913 11.7549C11.2141 11.7549 11.4278 11.8435 11.5854 12.001C11.743 12.1586 11.8315 12.3723 11.8315 12.5952Z" fill="#363330"/>
</svg>
