<svg width="32" height="36" viewBox="0 0 32 36" fill="none" xmlns="http://www.w3.org/2000/svg">
<path d="M28.9154 31.4592C28.6619 30.6184 28.3149 29.7109 27.8879 28.7634C27.4742 27.8293 26.9804 26.8818 26.4599 25.9476C26.3932 26.0677 26.3131 26.2012 26.2331 26.3213C26.153 26.4414 26.0729 26.5615 25.9928 26.6816C25.9128 26.8017 25.8327 26.9218 25.7393 27.0286C25.6592 27.1487 25.5658 27.2554 25.4724 27.3756C25.4724 27.3889 25.459 27.3889 25.459 27.4022C25.4457 27.4156 25.4457 27.4156 25.4457 27.4289C25.4457 27.4423 25.4324 27.4423 25.4324 27.4556C25.419 27.469 25.419 27.469 25.4057 27.4823L25.3256 27.5624C25.3923 27.7759 25.4857 28.0295 25.5925 28.3097C25.6993 28.59 25.806 28.8836 25.8994 29.1638C25.9929 29.444 26.0596 29.7109 26.0996 29.9245C26.1263 30.138 26.113 30.3115 26.0462 30.3916C26.0195 30.4182 25.9928 30.4449 25.9528 30.4583C25.9261 30.4716 25.8861 30.4983 25.8461 30.5117C25.806 30.525 25.766 30.525 25.7259 30.5383C25.6859 30.5383 25.6325 30.5517 25.5792 30.5383C25.4991 30.5383 25.419 30.525 25.3389 30.5117C25.2455 30.4983 25.1521 30.4716 25.0587 30.4316C24.9653 30.4049 24.8585 30.3649 24.7518 30.3115C24.645 30.2714 24.5249 30.2181 24.4181 30.1647C24.2713 30.098 24.1245 30.0179 23.9644 29.9378C23.8042 29.8577 23.6441 29.7643 23.484 29.6709C23.3238 29.5775 23.1503 29.4707 22.9769 29.3773C22.8034 29.2706 22.6299 29.1638 22.443 29.0437C23.1503 28.3497 23.8042 27.5891 24.4181 26.7884C25.032 25.9877 25.5792 25.1469 26.0596 24.2661C26.5533 23.3854 26.967 22.4779 27.314 21.5304C27.661 20.5962 27.9412 19.6354 28.1281 18.6478C28.5685 16.4459 28.5418 14.3907 28.1414 12.5491C27.7411 10.7342 26.9804 9.14611 25.9261 7.85163C24.8852 6.58384 23.564 5.5963 22.0293 4.96908C20.5213 4.35521 18.7998 4.07496 16.9182 4.20841C15.6904 4.28848 14.476 4.54204 13.2883 4.94239C12.1139 5.3294 10.9662 5.87655 9.87194 6.53046C8.79098 7.18437 7.75006 7.94505 6.78921 8.81248C5.82836 9.67991 4.93424 10.6408 4.13353 11.6817C3.92001 11.2813 3.73318 10.9077 3.58638 10.5607C3.43959 10.2137 3.34617 9.90678 3.27945 9.62653C3.21272 9.34629 3.19937 9.10607 3.21272 8.9059C3.23941 8.70572 3.29279 8.54558 3.4129 8.42547C3.43959 8.38544 3.49297 8.3454 3.54635 8.31871C3.59973 8.27868 3.66645 8.25199 3.74653 8.2253C3.81325 8.19861 3.90667 8.17191 3.98674 8.14522C4.08015 8.11853 4.17357 8.11853 4.26698 8.10519C4.37375 8.10519 4.49385 8.10519 4.60061 8.11853C4.72072 8.13188 4.84083 8.15857 4.96093 8.21195C5.08104 8.25199 5.21449 8.31871 5.3346 8.38544C5.4547 8.46551 5.58815 8.55892 5.70826 8.66568C5.82836 8.51889 5.94847 8.38544 6.08192 8.25199C6.21537 8.11853 6.34882 7.98508 6.48228 7.86498C6.61573 7.74487 6.76252 7.62476 6.90932 7.50466C7.05612 7.38455 7.20291 7.27779 7.36305 7.17103C7.3764 7.15768 7.38974 7.15768 7.40309 7.14434C7.41643 7.13099 7.42978 7.13099 7.44313 7.11765C7.45647 7.1043 7.46981 7.1043 7.48316 7.09096C7.49651 7.07761 7.50985 7.07761 7.5232 7.06427C7.24295 6.81071 6.94936 6.61053 6.62907 6.43705C6.32213 6.27691 6.00185 6.14346 5.66822 6.03669C5.34794 5.94328 5.01431 5.87655 4.70737 5.84986C4.38709 5.80983 4.08015 5.80983 3.78656 5.82317C3.58638 5.83652 3.38621 5.86321 3.19937 5.90324C3.01254 5.94328 2.83906 5.98331 2.67892 6.05004C2.51877 6.10342 2.38532 6.17015 2.25187 6.25022C2.13177 6.33029 2.025 6.41036 1.94493 6.49043C1.70472 6.75733 1.54458 7.1043 1.4912 7.53135C1.42447 7.95839 1.45116 8.45216 1.55792 9.01266C1.66469 9.57315 1.85152 10.2004 2.11842 10.881C2.38532 11.5616 2.7323 12.3089 3.14599 13.0829C2.86575 13.5233 2.59884 13.977 2.34529 14.4308C2.09173 14.8979 1.86486 15.3649 1.638 15.8454C1.42447 16.3258 1.2243 16.8196 1.05081 17.3133C0.877323 17.8071 0.717182 18.3276 0.58373 18.8347C0.0632704 20.8097 -0.083526 22.7048 0.0899607 24.453C0.263447 26.2279 0.770562 27.8693 1.57127 29.2706C2.38532 30.6985 3.51966 31.8995 4.90755 32.7803C6.32213 33.6744 8.01697 34.2216 9.93866 34.3417C10.5125 34.3684 11.0863 34.3684 11.6602 34.3284C12.234 34.2883 12.8212 34.2083 13.3951 34.0882C13.9689 33.968 14.5561 33.8212 15.1299 33.6211C15.7038 33.4342 16.2776 33.2074 16.8381 32.9538L15.4769 30.3916C15.0765 30.5517 14.6762 30.6851 14.2758 30.8053C13.8755 30.9254 13.4751 31.0188 13.0614 31.0988C12.6611 31.1656 12.2474 31.2189 11.847 31.2456C11.4467 31.2723 11.0463 31.2723 10.646 31.259C9.09792 31.1923 7.72337 30.7652 6.57569 30.0713C5.44136 29.3907 4.52054 28.4298 3.83994 27.2821C3.17268 26.1478 2.74564 24.84 2.5855 23.3987C2.4387 21.9708 2.54546 20.4361 2.95916 18.8213C3.37286 17.2199 4.04012 15.7119 4.90755 14.324C5.76164 12.9495 6.8159 11.695 8.00362 10.6408C9.19134 9.57315 10.5125 8.69237 11.9137 8.05181C13.315 7.41124 14.7963 7.01089 16.3043 6.91747C17.8256 6.82406 19.2135 7.06427 20.4279 7.58473C21.6557 8.10519 22.7099 8.91924 23.5373 9.96016C24.3647 11.0144 24.9653 12.2956 25.2722 13.7635C25.5792 15.2448 25.5792 16.8863 25.2188 18.6478C25.0587 19.4219 24.8452 20.1692 24.5649 20.9165C24.2847 21.6505 23.951 22.3711 23.5774 23.0651C23.1904 23.759 22.7633 24.4263 22.2829 25.0535C21.8158 25.6807 21.2954 26.2812 20.7482 26.8417C20.7616 26.6549 20.7749 26.4681 20.7749 26.2679C20.7883 26.0811 20.7883 25.8809 20.8016 25.7074C20.8149 25.5339 20.8149 25.3604 20.8283 25.227C20.8283 25.0935 20.8416 24.9734 20.8416 24.8934C20.8416 24.8266 20.8416 24.7599 20.8283 24.7065C20.8149 24.6531 20.8016 24.6265 20.7749 24.5998C20.7482 24.5731 20.7215 24.5597 20.6948 24.5464C20.6681 24.533 20.6415 24.533 20.6014 24.533C20.5747 24.533 20.548 24.533 20.5213 24.5464C20.4947 24.5464 20.4813 24.5597 20.4546 24.5597C20.4413 24.5731 20.4146 24.5731 20.4146 24.5731C20.4012 24.5731 20.4012 24.5864 20.4012 24.5864L15.637 26.1345C15.6237 26.1345 15.5837 26.1478 15.5303 26.1745C15.4769 26.2012 15.4102 26.2412 15.3568 26.2946C15.3034 26.348 15.2634 26.428 15.25 26.5348C15.2367 26.6416 15.2634 26.775 15.3434 26.9218C15.3434 26.9352 15.3568 26.9352 15.3568 26.9485C15.3568 26.9619 15.3701 26.9619 15.3701 26.9752C15.3701 26.9885 15.3835 27.0019 15.3835 27.0019C15.3835 27.0152 15.3968 27.0286 15.3968 27.0286C15.6103 27.4556 15.9173 28.0428 16.2643 28.7101C16.6112 29.3773 17.0116 30.1113 17.4119 30.8453C17.8123 31.5793 18.1993 32.3132 18.5463 32.9271C18.8932 33.5543 19.1735 34.0748 19.347 34.4084C19.3603 34.4351 19.3737 34.4618 19.387 34.4885C19.4004 34.5152 19.4137 34.5419 19.427 34.5552C19.4404 34.5819 19.4537 34.5953 19.4537 34.622C19.4671 34.6486 19.4804 34.662 19.4804 34.6753C19.5205 34.7554 19.5605 34.8355 19.6139 34.8889C19.6539 34.9422 19.694 34.9956 19.734 35.0357C19.774 35.0757 19.8141 35.1024 19.8407 35.1157C19.8808 35.1291 19.9075 35.1424 19.9475 35.1424C20.0142 35.1424 20.0676 35.1291 20.1077 35.089C20.161 35.049 20.2011 35.009 20.2278 34.9422C20.2678 34.8889 20.2945 34.8221 20.3078 34.7688C20.3345 34.7154 20.3345 34.662 20.3479 34.622C20.3479 34.6086 20.3479 34.5953 20.3479 34.5686C20.3479 34.5419 20.3479 34.5152 20.3479 34.4885C20.3479 34.4618 20.3479 34.4218 20.3612 34.3817C20.3612 34.3417 20.3612 34.3017 20.3746 34.2616C20.3879 34.1015 20.4012 33.9147 20.4012 33.7145C20.4146 33.5143 20.4279 33.3141 20.4279 33.1406C20.4413 32.9538 20.4413 32.7937 20.4546 32.6736C20.468 32.5535 20.468 32.4734 20.468 32.46C21.1219 32.8471 21.7758 33.2341 22.4164 33.5944C23.0703 33.9547 23.6975 34.2883 24.3114 34.5686C24.9252 34.8488 25.5124 35.089 26.0462 35.2625C26.5934 35.436 27.0872 35.5428 27.5142 35.5695C27.5809 35.5695 27.6343 35.5695 27.6877 35.5695C27.7411 35.5695 27.8078 35.5695 27.8612 35.5695C27.9145 35.5695 27.9679 35.5561 28.0213 35.5561C28.0747 35.5561 28.1281 35.5428 28.1681 35.5294C28.2482 35.5161 28.3149 35.4894 28.3816 35.476C28.4484 35.4494 28.5151 35.4227 28.5818 35.396C28.6485 35.3693 28.7019 35.3292 28.7553 35.2892C28.8087 35.2492 28.8621 35.1958 28.9021 35.1558C29.209 34.8355 29.3425 34.315 29.3425 33.6878C29.3425 33.0472 29.1957 32.2866 28.9421 31.4458L28.9154 31.4592Z" fill="#837550"/>
<path d="M14.0354 18.3274V17.1931H11.0594L12.7676 15.5116C13.2213 15.0712 13.5416 14.6575 13.7284 14.2705C13.9153 13.8835 13.9953 13.4965 13.9953 13.0962C13.9953 12.4422 13.7952 11.9218 13.3815 11.5615C12.9678 11.1878 12.3939 11.001 11.6599 11.001C10.926 11.001 10.3388 11.1878 9.91172 11.5615C9.47133 11.9351 9.25781 12.4422 9.25781 13.1095V13.1896H10.4989C10.4989 12.4556 10.8859 12.0953 11.6466 12.0953C12.3806 12.0953 12.7542 12.4422 12.7542 13.1362C12.7542 13.4164 12.6875 13.6833 12.5674 13.9369C12.434 14.1905 12.2204 14.4574 11.9268 14.7643L9.41795 17.2065V18.3408L14.0354 18.3274ZM19.8405 13.1629C19.8405 12.4956 19.6136 11.9618 19.1599 11.5615C18.7062 11.1611 18.1056 10.9609 17.3716 10.9609C16.6377 10.9609 16.0505 11.1611 15.5834 11.5481C15.1297 11.9485 14.9028 12.4689 14.9028 13.1362V16.2189C14.9028 16.8862 15.1297 17.4066 15.5834 17.807C16.0371 18.2073 16.6377 18.4075 17.3716 18.4075C18.1056 18.4075 18.6928 18.2073 19.1599 17.807C19.6136 17.4066 19.8405 16.8728 19.8405 16.2056V13.1629ZM18.5994 16.1122C18.5994 16.4858 18.4926 16.7928 18.2791 17.0063C18.0656 17.2198 17.772 17.3266 17.3983 17.3266C17.0113 17.3266 16.7311 17.2198 16.5176 17.0063C16.304 16.7928 16.1973 16.4858 16.1973 16.1122V13.2296C16.1973 12.8426 16.304 12.5357 16.5176 12.3221C16.7311 12.1086 17.038 12.0019 17.4117 12.0019C17.7853 12.0019 18.0923 12.1086 18.3058 12.3221C18.5193 12.5357 18.6261 12.8426 18.6261 13.2296L18.5994 16.1122Z" fill="#837550"/>
<path d="M10.9667 24.4119V18.9805H10.0592V23.1308L7.91068 18.9805H6.57617V24.4119H7.48364V20.2749L9.6589 24.4119H10.9801H10.9667ZM12.6882 23.9048C12.6882 23.7714 12.6482 23.6646 12.5548 23.5845C12.4614 23.5178 12.3413 23.4778 12.1811 23.4778C12.0343 23.4778 11.9142 23.5178 11.8208 23.5845C11.7274 23.6646 11.6874 23.758 11.6874 23.9048V24.0516C11.6874 24.1851 11.7407 24.2918 11.8342 24.3719C11.9276 24.4386 12.0477 24.4787 12.1945 24.4787C12.3413 24.4787 12.4747 24.4386 12.5681 24.3719C12.6615 24.3052 12.7016 24.1984 12.7016 24.0516L12.6882 23.9048ZM16.5984 22.944H15.7443C15.7443 23.4511 15.4774 23.7046 14.9302 23.7046C14.3964 23.7046 14.1295 23.4377 14.1295 22.8906V22.0899C14.1295 21.5427 14.3964 21.2758 14.9302 21.2758C15.464 21.2758 15.7443 21.5294 15.7443 22.0498H16.5984V21.9831C16.5984 21.5027 16.4516 21.1424 16.1446 20.8888C15.851 20.6353 15.4507 20.5018 14.9302 20.5018C14.4231 20.5018 14.0228 20.6353 13.7292 20.9022C13.4222 21.1691 13.2754 21.5427 13.2754 22.0232V22.984C13.2754 23.4644 13.4222 23.8247 13.7292 24.0917C14.0228 24.3586 14.4231 24.4787 14.9302 24.4787C15.4373 24.4787 15.851 24.3586 16.1446 24.105C16.4516 23.8514 16.5984 23.4778 16.5984 23.0107L16.585 22.9573L16.5984 22.944ZM22.5503 24.4119V21.6895C22.5503 21.3159 22.4569 21.0356 22.27 20.8221C22.0832 20.6219 21.8163 20.5152 21.4827 20.5152C21.1757 20.5152 20.8821 20.6086 20.6019 20.7821L20.1749 21.0356C20.0147 20.6886 19.7078 20.5152 19.2674 20.5152C18.9871 20.5152 18.7202 20.5952 18.4533 20.7554L18.1064 20.9555V20.5552H17.2389V24.4119H18.1197V21.7563L18.5734 21.476C18.7603 21.3826 18.9071 21.3292 19.0405 21.3292C19.3074 21.3292 19.4409 21.4894 19.4409 21.8096V24.4119H20.3217V21.7563L20.7887 21.476C20.9756 21.3692 21.1224 21.3292 21.2558 21.3292C21.5227 21.3292 21.6695 21.4894 21.6695 21.8096V24.4253H22.5636L22.5503 24.4119Z" fill="#837550"/>
<path d="M25.2725 14.1762C28.9424 14.1762 31.9317 11.2002 31.9317 7.51697C31.9317 3.84706 28.9558 0.871094 25.2725 0.871094C21.6026 0.871094 18.6133 3.84706 18.6133 7.51697C18.6133 11.1869 21.5892 14.1762 25.2725 14.1762Z" fill="#837550"/>
<path d="M25.2725 14.1762C28.9424 14.1762 31.9317 11.2002 31.9317 7.51697C31.9317 3.84706 28.9558 0.871094 25.2725 0.871094C21.6026 0.871094 18.6133 3.84706 18.6133 7.51697C18.6133 11.1869 21.5892 14.1762 25.2725 14.1762Z" stroke="white" stroke-width="0.667256"/>
<path d="M27.634 11.3073V10.5867H26.0059V4.23438H25.1652C24.6581 4.70145 24.1643 5.02174 23.6839 5.18188V5.94255C24.231 5.84914 24.7248 5.56889 25.1919 5.10181V10.5867H23.1367V11.3073L27.634 11.2939V11.3073Z" fill="#FEFEFE"/>
</svg>
