<svg width="17" height="17" viewBox="0 0 17 17" fill="none" xmlns="http://www.w3.org/2000/svg">
<path d="M8.50696 4.71484C8.63957 4.71484 8.76675 4.76752 8.86052 4.86129C8.95429 4.95507 9.00697 5.08225 9.00697 5.21486V8.21495H12.0071C12.1397 8.21495 12.2669 8.26763 12.3606 8.3614C12.4544 8.45517 12.5071 8.58235 12.5071 8.71497C12.5071 8.84758 12.4544 8.97476 12.3606 9.06853C12.2669 9.1623 12.1397 9.21498 12.0071 9.21498H9.00697V12.2151C9.00697 12.3477 8.95429 12.4749 8.86052 12.5686C8.76675 12.6624 8.63957 12.7151 8.50696 12.7151C8.37435 12.7151 8.24716 12.6624 8.15339 12.5686C8.05962 12.4749 8.00694 12.3477 8.00694 12.2151V9.21498H5.00685C4.87424 9.21498 4.74706 9.1623 4.65329 9.06853C4.55952 8.97476 4.50684 8.84758 4.50684 8.71497C4.50684 8.58235 4.55952 8.45517 4.65329 8.3614C4.74706 8.26763 4.87424 8.21495 5.00685 8.21495H8.00694V5.21486C8.00694 5.08225 8.05962 4.95507 8.15339 4.86129C8.24716 4.76752 8.37435 4.71484 8.50696 4.71484Z" fill="#CFCCC9"/>
</svg>
