<svg width="31" height="34" viewBox="0 0 31 34" fill="none" xmlns="http://www.w3.org/2000/svg">
<path d="M27.5965 29.2121C27.3601 28.4385 27.0378 27.579 26.651 26.7194C26.2642 25.8599 25.8129 24.9788 25.3187 24.0978C25.2542 24.2052 25.1897 24.3341 25.1038 24.4416C25.0393 24.549 24.9534 24.678 24.8889 24.7854C24.8029 24.8929 24.7385 25.0003 24.6525 25.1077C24.5666 25.2152 24.4806 25.3226 24.3947 25.4301L24.3732 25.4516L24.3517 25.4731L24.3302 25.4945L24.3087 25.516L24.2227 25.602C24.2872 25.7954 24.3732 26.0318 24.4806 26.2896C24.5666 26.5475 24.674 26.8269 24.76 27.0847C24.8459 27.3426 24.9104 27.6005 24.9319 27.7939C24.9534 27.9873 24.9534 28.1592 24.8674 28.2236C24.8459 28.2451 24.8244 28.2666 24.7815 28.2881C24.76 28.3096 24.717 28.3311 24.674 28.3311C24.631 28.3526 24.6095 28.3526 24.5666 28.3526C24.5236 28.3526 24.4806 28.3526 24.4376 28.3526C24.3732 28.3526 24.2872 28.3311 24.2013 28.3311C24.1153 28.3096 24.0293 28.2881 23.9434 28.2666C23.8574 28.2451 23.75 28.2021 23.664 28.1592C23.5566 28.1162 23.4491 28.0732 23.3417 28.0302C23.2128 27.9658 23.0623 27.9013 22.9119 27.8153C22.7615 27.7294 22.6111 27.6434 22.4607 27.5575C22.3102 27.4715 22.1383 27.3856 21.9879 27.2781C21.816 27.1707 21.6656 27.0847 21.4937 26.9773C22.1383 26.3326 22.7615 25.6235 23.3202 24.8929C23.8789 24.1407 24.3947 23.3671 24.8459 22.5506C25.2972 21.734 25.684 20.8959 26.0063 20.0149C26.3287 19.1553 26.5865 18.2528 26.7584 17.3503C27.1667 15.3088 27.1452 13.3963 26.7584 11.6987C26.3931 10.0225 25.684 8.53981 24.6955 7.35792C23.7285 6.17603 22.5036 5.2735 21.0854 4.6933C19.6886 4.1131 18.0769 3.87672 16.3578 3.98417C15.2189 4.07012 14.08 4.3065 12.984 4.67181C11.8881 5.03712 10.8352 5.53137 9.82518 6.13306C8.8152 6.73474 7.8482 7.44388 6.96716 8.26046C6.06463 9.05554 5.24805 9.95808 4.49594 10.9251C4.30254 10.5598 4.13063 10.1945 4.00169 9.89361C3.87276 9.57128 3.76531 9.29192 3.72234 9.03406C3.65787 8.77619 3.63638 8.5613 3.65787 8.3679C3.67936 8.1745 3.74382 8.02408 3.82978 7.91663C3.85127 7.87366 3.89425 7.85217 3.95871 7.80919C4.00169 7.76621 4.06616 7.74472 4.13063 7.72323C4.19509 7.70174 4.28105 7.68026 4.367 7.65877C4.45296 7.63728 4.53891 7.63728 4.62487 7.61579C4.73231 7.61579 4.83976 7.61579 4.9472 7.63728C5.05465 7.65877 5.16209 7.68026 5.29103 7.72323C5.39847 7.76621 5.5274 7.80919 5.63485 7.89514C5.74229 7.95961 5.87123 8.04557 5.97867 8.15301C6.08611 8.02408 6.21505 7.89514 6.32249 7.76621C6.45143 7.63728 6.55887 7.52983 6.6878 7.4009C6.81674 7.29346 6.94567 7.16452 7.0746 7.05708C7.20354 6.94963 7.35396 6.84219 7.50438 6.73474C7.52587 6.73474 7.52587 6.71326 7.54736 6.71326C7.56885 6.71326 7.56885 6.69177 7.59034 6.69177C7.61183 6.69177 7.61183 6.67028 7.63332 6.67028C7.6548 6.67028 7.6548 6.64879 7.67629 6.64879C7.41843 6.41241 7.13907 6.21901 6.85971 6.06859C6.58036 5.91817 6.27951 5.78923 5.97867 5.70328C5.67783 5.61732 5.37698 5.55286 5.07614 5.53137C4.77529 5.50988 4.49594 5.48839 4.21658 5.50988C4.02318 5.53137 3.85127 5.55286 3.67936 5.57434C3.50745 5.61732 3.35703 5.6603 3.2066 5.70328C3.05618 5.74626 2.92725 5.81072 2.8198 5.89668C2.71236 5.96114 2.60491 6.0471 2.54045 6.13306C2.30407 6.39092 2.17514 6.71326 2.11067 7.10006C2.0462 7.48686 2.06769 7.95961 2.17514 8.47535C2.28258 8.99108 2.45449 9.57128 2.69087 10.2159C2.94874 10.8391 3.24958 11.5268 3.65787 12.2574C3.4 12.6657 3.14214 13.074 2.90576 13.5037C2.66938 13.9335 2.45449 14.3633 2.26109 14.8146C2.06769 15.2658 1.87429 15.7171 1.72387 16.1899C1.55196 16.6626 1.42302 17.1354 1.29409 17.6081C0.821336 19.4347 0.670914 21.1968 0.821336 22.8299C0.971758 24.4846 1.44451 25.9888 2.19662 27.2996C2.94874 28.6319 4.00169 29.7279 5.29103 30.5444C6.60185 31.361 8.17054 31.8767 9.95412 31.9842C10.4913 32.0057 11.0071 32.0057 11.5443 31.9627C12.0815 31.9197 12.6187 31.8553 13.156 31.7478C13.6932 31.6404 14.2304 31.4899 14.7676 31.318C15.3049 31.1461 15.8206 30.9312 16.3578 30.6949L15.09 28.3096C14.7246 28.46 14.3593 28.5889 13.9725 28.6964C13.6072 28.8038 13.2204 28.8898 12.8551 28.9543C12.4898 29.0187 12.103 29.0617 11.7377 29.1047C11.3724 29.1262 10.9856 29.1262 10.6203 29.1262C9.18052 29.0617 7.91267 28.6749 6.85971 28.0302C5.80676 27.3856 4.9472 26.5045 4.32403 25.4516C3.70085 24.3986 3.31405 23.1737 3.16363 21.8414C3.0132 20.5306 3.12065 19.0909 3.50745 17.6081C3.89425 16.1254 4.51743 14.7286 5.31251 13.4393C6.1076 12.1714 7.09609 11.011 8.19203 10.0225C9.28796 9.03406 10.5128 8.21748 11.8022 7.61579C13.113 7.0141 14.4883 6.64879 15.8636 6.56283C17.2603 6.47688 18.5497 6.71326 19.6886 7.18601C20.8275 7.68026 21.816 8.43237 22.5681 9.37788C23.3417 10.3449 23.9004 11.5483 24.1798 12.9021C24.4591 14.2773 24.4591 15.8031 24.1368 17.4362C23.9864 18.1453 23.793 18.8545 23.5351 19.5421C23.2772 20.2298 22.9764 20.8959 22.6111 21.5406C22.2673 22.1853 21.859 22.8084 21.4077 23.3886C20.9779 23.9688 20.4837 24.5275 19.9894 25.0433C19.9894 24.8714 20.0109 24.6995 20.0109 24.5061C20.0109 24.3341 20.0324 24.1407 20.0324 23.9903C20.0324 23.8184 20.0539 23.668 20.0539 23.5391C20.0539 23.4101 20.0539 23.3027 20.0539 23.2382C20.0539 23.1737 20.0539 23.1093 20.0324 23.0663C20.0109 23.0233 20.0109 22.9803 19.9894 22.9589C19.9679 22.9374 19.9465 22.9159 19.925 22.9159C19.9035 22.8944 19.8605 22.8944 19.839 22.8944C19.8175 22.8944 19.796 22.8944 19.7745 22.8944C19.7531 22.8944 19.7316 22.8944 19.7101 22.9159C19.6886 22.9159 19.6886 22.9374 19.6671 22.9374H19.6456L15.2189 24.3771C15.2189 24.3771 15.1759 24.3986 15.1329 24.4201C15.09 24.4416 15.0255 24.4846 14.9825 24.5275C14.9395 24.592 14.8966 24.6565 14.8751 24.7424C14.8751 24.8284 14.8966 24.9573 14.961 25.1077C14.961 25.1077 14.961 25.1292 14.9825 25.1292C14.9825 25.1292 14.9825 25.1507 15.004 25.1507C15.004 25.1507 15.004 25.1722 15.0255 25.1722C15.0255 25.1722 15.0255 25.1937 15.047 25.1937C15.2404 25.602 15.5197 26.1392 15.8636 26.7409C16.1859 27.3641 16.5512 28.0517 16.9165 28.7179C17.2818 29.4055 17.6471 30.0717 17.9695 30.6519C18.2918 31.2321 18.5497 31.7263 18.7216 32.0272C18.7431 32.0487 18.7431 32.0701 18.7646 32.1131C18.7861 32.1346 18.7861 32.1561 18.8075 32.1776C18.829 32.1991 18.829 32.2206 18.829 32.2421C18.829 32.2635 18.8505 32.285 18.8505 32.285C18.8935 32.371 18.9365 32.4355 18.9795 32.4784C19.0224 32.5429 19.0654 32.5859 19.0869 32.6074C19.1299 32.6503 19.1514 32.6718 19.1943 32.6933C19.2373 32.7148 19.2588 32.7148 19.2803 32.7148C19.3448 32.7148 19.3877 32.6933 19.4307 32.6718C19.4737 32.6503 19.5167 32.5859 19.5382 32.5429C19.5597 32.4999 19.6026 32.4355 19.6241 32.3925C19.6456 32.3495 19.6456 32.285 19.6671 32.2421C19.6671 32.2206 19.6671 32.2206 19.6671 32.1991C19.6671 32.1776 19.6671 32.1561 19.6671 32.1131C19.6671 32.0916 19.6671 32.0487 19.6671 32.0272C19.6671 31.9842 19.6671 31.9627 19.6671 31.9197C19.6671 31.7693 19.6886 31.5974 19.6886 31.4255C19.6886 31.2536 19.7101 31.0602 19.7101 30.8883C19.7101 30.7163 19.7316 30.5659 19.7316 30.4585C19.7316 30.351 19.753 30.2651 19.753 30.2651C20.3547 30.6304 20.9779 30.9742 21.5581 31.318C22.1598 31.6404 22.74 31.9627 23.3202 32.2206C23.8789 32.4784 24.4376 32.7148 24.9319 32.8652C25.4261 33.0371 25.8989 33.1231 26.2857 33.1661C26.3501 33.1661 26.3931 33.1661 26.4576 33.1661C26.5006 33.1661 26.565 33.1661 26.608 33.1661C26.651 33.1661 26.7155 33.1661 26.7584 33.1446C26.8014 33.1446 26.8444 33.1231 26.9089 33.1231C26.9733 33.1016 27.0378 33.1016 27.1023 33.0801C27.1667 33.0586 27.2312 33.0371 27.2957 32.9942C27.3601 32.9727 27.4031 32.9297 27.4676 32.8867C27.5105 32.8437 27.575 32.8008 27.618 32.7578C27.8973 32.4569 28.0263 31.9842 28.0263 31.3825C28.0263 30.8023 27.8759 30.0932 27.661 29.2981L27.5965 29.2121Z" fill="#929392"/>
<path d="M11.5872 14.1063C11.9095 14.1063 12.1459 14.1922 12.3393 14.3642C12.5327 14.5361 12.6186 14.7724 12.6186 15.0948C12.6186 15.4171 12.5112 15.675 12.3178 15.8469C12.1029 16.0188 11.845 16.1262 11.5012 16.1262C10.7276 16.1262 10.3408 15.7824 10.3408 15.1163H9.2019V15.2022C9.2019 15.8254 9.41679 16.2982 9.82508 16.6205C10.2334 16.9643 10.7921 17.1147 11.5012 17.1147C12.1459 17.1147 12.6831 16.9428 13.1344 16.5775C13.5856 16.2337 13.8005 15.718 13.8005 15.0948C13.8005 14.8799 13.7575 14.665 13.6931 14.4716C13.6286 14.2782 13.5427 14.1278 13.4782 14.0203C13.3922 13.9129 13.3063 13.8054 13.1988 13.741C13.0914 13.655 13.0054 13.612 12.9625 13.5906C12.9195 13.5691 12.8765 13.5476 12.855 13.5476L12.941 13.5046C13.0054 13.4831 13.0699 13.4186 13.1559 13.3327C13.2418 13.2467 13.3278 13.1608 13.3922 13.0533C13.4782 12.9459 13.5427 12.7955 13.6071 12.6236C13.6716 12.4516 13.6931 12.2582 13.6931 12.0648C13.6931 11.4846 13.4997 11.0334 13.1129 10.711C12.7261 10.3887 12.1889 10.2168 11.5227 10.2168C10.8565 10.2168 10.3408 10.3672 9.93253 10.711C9.52424 11.0334 9.33084 11.4846 9.33084 12.0648V12.1293H10.4483C10.4483 11.807 10.5557 11.5706 10.7276 11.4202C10.921 11.2698 11.1789 11.1838 11.5227 11.1838C11.8665 11.1838 12.1459 11.2698 12.3178 11.4202C12.4897 11.5921 12.5971 11.807 12.5971 12.0863C12.5971 12.3872 12.5112 12.645 12.3178 12.817C12.1244 12.9889 11.888 13.0748 11.5872 13.0748H10.4483V14.0633L11.6516 14.0848L11.5872 14.1063ZM19.2157 17.0288V15.9758H16.4651L18.0553 14.4071C18.4851 13.9988 18.7859 13.612 18.9579 13.2682C19.1298 12.9244 19.2157 12.5591 19.2157 12.1938C19.2157 11.5921 19.0223 11.0978 18.657 10.7755C18.2702 10.4317 17.7545 10.2598 17.0668 10.2598C16.3792 10.2598 15.842 10.4317 15.4337 10.7755C15.0254 11.1193 14.832 11.5921 14.832 12.2153V12.2797H15.9709C15.9709 11.6136 16.3147 11.2698 17.0453 11.2698C17.733 11.2698 18.0768 11.5921 18.0768 12.2368C18.0768 12.4946 18.0123 12.731 17.9049 12.9674C17.7975 13.2038 17.5826 13.4616 17.3032 13.741L14.9824 15.9973V17.0503H19.2587L19.2157 17.0288Z" fill="#929392"/>
<path d="M10.7064 22.6807V17.6309H9.86836V21.4774L7.86989 17.6309H6.62354L6.62354 22.6807H7.4616V18.8557L9.48156 22.6807H10.7064ZM12.4685 22.208C12.4685 22.0791 12.4255 21.9931 12.3396 21.9071C12.2536 21.8427 12.1462 21.7997 11.9958 21.7997C11.8668 21.7997 11.7594 21.8427 11.6734 21.9071C11.5875 21.9716 11.5445 22.0791 11.5445 22.208V22.3584C11.5445 22.4873 11.5875 22.5733 11.6734 22.6593C11.7594 22.7237 11.8668 22.7667 12.0172 22.7667C12.1677 22.7667 12.2751 22.7237 12.3611 22.6593C12.447 22.5948 12.49 22.4873 12.49 22.3584L12.4685 22.208ZM16.272 21.3269H15.477C15.477 21.7997 15.2191 22.0361 14.7248 22.0361C14.2306 22.0361 13.9942 21.7782 13.9942 21.284V20.5319C13.9942 20.0161 14.2306 19.7797 14.7248 19.7797C15.2191 19.7797 15.477 20.0161 15.477 20.4889H16.272V20.4244C16.272 19.9946 16.1431 19.6508 15.8638 19.4144C15.5844 19.1781 15.2191 19.0491 14.7463 19.0491C14.2736 19.0491 13.9083 19.1781 13.6289 19.4144C13.3496 19.6723 13.1991 20.0161 13.1991 20.4459V21.3269C13.1991 21.7567 13.3496 22.1005 13.6289 22.3584C13.9083 22.5948 14.2736 22.7237 14.7463 22.7237C15.2191 22.7237 15.6059 22.6163 15.8852 22.3799C16.1646 22.1435 16.315 21.7997 16.315 21.3699L16.2935 21.3269H16.272ZM21.9451 22.6807V20.1665C21.9451 19.8227 21.8592 19.5649 21.6872 19.3715C21.5153 19.1781 21.2575 19.0921 20.9566 19.0921C20.6773 19.0921 20.3979 19.1781 20.14 19.3285L19.7532 19.5649C19.6028 19.2425 19.3235 19.0921 18.9152 19.0921C18.6573 19.0921 18.3994 19.1566 18.1631 19.307L17.8407 19.5004V19.1351H17.0242V22.7022H17.8407V20.2525L18.2705 19.9946C18.4424 19.9087 18.5928 19.8657 18.7003 19.8657C18.9582 19.8657 19.0656 20.0161 19.0656 20.317V22.7237H19.8822V20.274L20.312 20.0161C20.4839 19.9302 20.6343 19.8657 20.7417 19.8657C20.9996 19.8657 21.1285 20.0161 21.1285 20.2955V22.7237H21.9451V22.6807Z" fill="#929392"/>
<path d="M24.2227 13.1823C27.618 13.1823 30.39 10.4317 30.39 7.01497C30.39 3.59823 27.6395 0.847656 24.2227 0.847656C20.806 0.847656 18.0554 3.59823 18.0554 7.01497C18.0554 10.4102 20.806 13.1823 24.2227 13.1823Z" fill="#929392"/>
<path d="M24.2227 13.1823C27.618 13.1823 30.39 10.4317 30.39 7.01497C30.39 3.59823 27.6395 0.847656 24.2227 0.847656C20.806 0.847656 18.0554 3.59823 18.0554 7.01497C18.0554 10.4102 20.806 13.1823 24.2227 13.1823Z" stroke="white" stroke-width="0.623178"/>
<path d="M26.4146 10.5385V9.87233H24.9103V3.98438H24.1368C23.664 4.41415 23.2127 4.715 22.7615 4.86542V5.57455C23.2557 5.4886 23.7285 5.23073 24.1582 4.80095V9.89382H22.2457V10.56H26.4146V10.5385Z" fill="#FEFEFE"/>
</svg>
