<svg width="17" height="16" viewBox="0 0 17 16" fill="none" xmlns="http://www.w3.org/2000/svg">
<path d="M3.60968 4.0212V7.90948C3.60968 8.49392 4.08378 8.97101 4.6712 8.97101H8.55949M14.5678 5.78941V1.90113C14.5678 1.31669 14.0937 0.8396 13.5063 0.8396H4.6712C4.08677 0.8396 3.60968 1.31371 3.60968 1.90113V3.31451M9.2632 8.96803H10.3098L12.1943 10.8436C12.418 11.0642 12.7966 10.9062 12.7966 10.5931V8.96803H13.5033C14.0878 8.96803 14.5649 8.49392 14.5649 7.9065V6.49312M5.72975 11.44V12.8533C5.72975 13.4378 6.20385 13.9149 6.79127 13.9149H10.7869L13.2857 15.9246C13.5182 16.1095 13.8612 15.9455 13.8612 15.6503V13.9149H15.2745C15.859 13.9149 16.3361 13.4408 16.3361 12.8533V6.84498C16.3361 6.26054 15.862 5.78345 15.2745 5.78345H9.26618M5.73273 8.96505V10.7333M8.55949 5.78643H6.79127C6.20684 5.78643 5.72975 6.26054 5.72975 6.84796V8.26134M1.13477 3.31451H8.20465C8.78909 3.31451 9.26618 3.78862 9.26618 4.37603V10.3844C9.26618 10.9688 8.79207 11.4459 8.20465 11.4459H3.85717L2.09789 13.2827C1.87724 13.5123 1.4896 13.3573 1.4896 13.0382V11.4459H1.13477C0.550333 11.4459 0.0732422 10.9718 0.0732422 10.3844V4.37603C0.0732422 3.7916 0.547351 3.31451 1.13477 3.31451Z" stroke="white" stroke-width="0.70669" stroke-miterlimit="10"/>
</svg>
