<svg width="24" height="25" viewBox="0 0 24 25" fill="none" xmlns="http://www.w3.org/2000/svg">
<path d="M20.9117 21.7091C20.7376 21.1194 20.4863 20.4813 20.1866 19.8143C19.8966 19.1569 19.5485 18.4898 19.1812 17.8324C19.1328 17.9194 19.0748 18.0064 19.0265 18.0934C18.9685 18.1804 18.9201 18.2675 18.8621 18.3448C18.8041 18.4318 18.7461 18.5091 18.6881 18.5962C18.6301 18.6735 18.5624 18.7605 18.5044 18.8378C18.5044 18.8378 18.4948 18.8475 18.4948 18.8572C18.4948 18.8572 18.4851 18.8668 18.4851 18.8765C18.4851 18.8765 18.4754 18.8862 18.4754 18.8959C18.4754 18.9055 18.4658 18.9055 18.4658 18.9152L18.4077 18.9732C18.4561 19.1182 18.5238 19.3019 18.5914 19.5049C18.6591 19.6983 18.7364 19.911 18.8041 20.1043C18.8718 20.2977 18.9201 20.491 18.9395 20.6457C18.9588 20.8004 18.9491 20.9164 18.9008 20.9744C18.8815 20.9937 18.8621 21.0131 18.8428 21.0227C18.8235 21.0324 18.7945 21.0517 18.7654 21.0517C18.7364 21.0614 18.7074 21.0614 18.6784 21.0711C18.6494 21.0711 18.6108 21.0711 18.5818 21.0711C18.5238 21.0711 18.4657 21.0614 18.4077 21.0517C18.3497 21.0421 18.2821 21.0227 18.2144 20.9937C18.1467 20.9744 18.0694 20.9454 17.992 20.9164C17.9147 20.8874 17.8374 20.8487 17.7503 20.81C17.644 20.7617 17.5377 20.7037 17.4313 20.6457C17.325 20.5877 17.209 20.52 17.0929 20.4523C16.9769 20.3847 16.8512 20.317 16.7352 20.2397C16.6096 20.1623 16.4839 20.085 16.3582 20.0076C16.8513 19.5146 17.3153 18.9829 17.7503 18.4221C18.1757 17.8614 18.5624 17.262 18.9105 16.6433C19.2585 16.0246 19.5485 15.3768 19.7999 14.7194C20.0416 14.062 20.2349 13.3853 20.3703 12.6892C20.6796 11.1424 20.6603 9.69224 20.3799 8.39677C20.0996 7.12064 19.5679 6.00886 18.8138 5.1001C18.079 4.21067 17.1509 3.5146 16.0682 3.07956C15.0047 2.64451 13.7963 2.45116 12.4815 2.54784C11.621 2.60584 10.7606 2.78953 9.9292 3.06022C9.10745 3.34058 8.29537 3.71762 7.53162 4.172C6.76788 4.62638 6.03314 5.16777 5.3564 5.77683C4.67966 6.3859 4.05127 7.06263 3.49054 7.79738C3.33586 7.51701 3.21018 7.24632 3.1135 7.00463C3.01683 6.76294 2.93949 6.54058 2.90082 6.34723C2.85248 6.15387 2.84281 5.97986 2.85248 5.84451C2.87181 5.69949 2.91048 5.58348 2.98782 5.50614C3.00716 5.47714 3.04583 5.4578 3.0845 5.4288C3.12317 5.3998 3.17151 5.38046 3.21985 5.36112C3.26819 5.34179 3.32619 5.32245 3.39387 5.30312C3.45187 5.29345 3.51955 5.28378 3.59689 5.27412C3.67423 5.27412 3.75157 5.27412 3.83858 5.28378C3.92559 5.29345 4.00293 5.31279 4.08994 5.34179C4.17695 5.37079 4.26396 5.40946 4.35096 5.46747C4.43797 5.52548 4.52498 5.58348 4.61199 5.67049C4.699 5.56415 4.78601 5.46747 4.87302 5.37079C4.96003 5.27412 5.0567 5.18711 5.15338 5.1001C5.25006 5.01309 5.34673 4.92608 5.45308 4.84874C5.55942 4.7714 5.66577 4.68439 5.77211 4.60705C5.78178 4.59738 5.79145 4.59738 5.80111 4.58771C5.81078 4.57804 5.82045 4.57804 5.83012 4.56838C5.83978 4.55871 5.84945 4.55871 5.85912 4.54904C5.86879 4.53937 5.87845 4.53937 5.88812 4.52971C5.69477 4.35569 5.48208 4.21067 5.25972 4.09466C5.03737 3.97865 4.81501 3.88197 4.58299 3.8143C4.36063 3.74663 4.12861 3.69829 3.90625 3.67895C3.6839 3.64995 3.47121 3.64995 3.25852 3.65962C3.1135 3.66928 2.97816 3.68862 2.84281 3.71762C2.71713 3.74663 2.59145 3.77563 2.47544 3.8143C2.36909 3.85297 2.26275 3.90131 2.17574 3.94965C2.08873 3.99798 2.02106 4.05599 1.96305 4.12366C1.78903 4.30735 1.68269 4.55871 1.64402 4.85841C1.59568 5.1581 1.61502 5.50614 1.69236 5.90251C1.7697 6.29889 1.89538 6.73393 2.08873 7.21732C2.27242 7.7007 2.52378 8.21308 2.81381 8.76414C2.61079 9.07351 2.4271 9.39254 2.24341 9.71157C2.0694 10.0403 1.90505 10.369 1.75036 10.7073C1.59568 11.0457 1.46033 11.3937 1.33465 11.7418C1.20897 12.0898 1.10263 12.4572 1.00595 12.8149C0.638582 14.1974 0.532238 15.5412 0.657917 16.769C0.783597 18.0161 1.13163 19.1665 1.70202 20.1623C2.28208 21.1678 3.06517 22.0088 4.05127 22.6276C5.04704 23.256 6.23616 23.6427 7.58963 23.7297C7.99567 23.749 8.39205 23.749 8.79809 23.72C9.20413 23.691 9.61017 23.633 10.0259 23.546C10.4319 23.459 10.838 23.3526 11.244 23.2173C11.6501 23.0819 12.0464 22.9273 12.4428 22.7436L11.4857 20.9357C11.2053 21.0517 10.925 21.1484 10.6446 21.2258C10.3643 21.3128 10.0742 21.3804 9.79386 21.4288C9.5135 21.4771 9.22347 21.5158 8.9431 21.5351C8.66274 21.5545 8.37271 21.5545 8.09235 21.5448C6.9999 21.4965 6.0428 21.1968 5.23072 20.7037C4.42831 20.2203 3.78057 19.5533 3.30686 18.7508C2.83314 17.9581 2.53344 17.03 2.4271 16.0149C2.32076 15.0095 2.3981 13.9267 2.68813 12.7956C2.97816 11.6741 3.45187 10.601 4.05127 9.63423C4.65066 8.66747 5.39507 7.78771 6.22649 7.0433C7.05791 6.28922 7.99567 5.67049 8.97211 5.22578C9.95821 4.7714 11.0023 4.49104 12.0561 4.43303C13.1195 4.37502 14.096 4.53937 14.9564 4.90674C15.8265 5.27412 16.5612 5.84451 17.1413 6.57925C17.731 7.32366 18.1467 8.22275 18.3594 9.25719C18.5721 10.3013 18.5721 11.4614 18.3207 12.6892C18.2144 13.2306 18.0597 13.7623 17.8567 14.2844C17.6633 14.8064 17.4313 15.3091 17.1606 15.7925C16.8899 16.2759 16.5902 16.7496 16.2519 17.1943C15.9232 17.6391 15.5558 18.0548 15.1691 18.4511C15.1787 18.3255 15.1787 18.1901 15.1884 18.0548C15.1981 17.9194 15.1981 17.7841 15.2077 17.6584C15.2174 17.5327 15.2174 17.4167 15.2271 17.32C15.2271 17.2233 15.2368 17.1363 15.2368 17.088C15.2368 17.0397 15.2368 16.9913 15.2271 16.9623C15.2174 16.9333 15.2077 16.9043 15.1884 16.885C15.1691 16.8656 15.1497 16.856 15.1304 16.8463C15.1111 16.8366 15.0917 16.8366 15.0724 16.8366C15.0531 16.8366 15.0337 16.8366 15.0144 16.8463C14.9951 16.8463 14.9854 16.856 14.9661 16.856C14.9564 16.856 14.9371 16.8656 14.9371 16.8656C14.9274 16.8656 14.9274 16.8753 14.9274 16.8753L11.5727 17.9678C11.563 17.9678 11.534 17.9774 11.505 17.9968C11.4664 18.0161 11.418 18.0451 11.389 18.0838C11.3504 18.1224 11.3213 18.1804 11.3117 18.2481C11.302 18.3255 11.3213 18.4125 11.3794 18.5285C11.3794 18.5381 11.389 18.5381 11.389 18.5478C11.389 18.5575 11.3987 18.5575 11.3987 18.5672C11.3987 18.5768 11.4084 18.5768 11.4084 18.5865C11.4084 18.5962 11.418 18.5962 11.418 18.6058C11.5727 18.9055 11.7854 19.3212 12.0271 19.7853C12.2784 20.259 12.5588 20.7714 12.8295 21.2934C13.1099 21.8155 13.3902 22.3279 13.6223 22.7629C13.8639 23.2076 14.0573 23.575 14.183 23.807C14.1926 23.8264 14.2023 23.8457 14.212 23.865C14.2216 23.8844 14.2313 23.9037 14.241 23.9134C14.2507 23.9327 14.2603 23.9424 14.2603 23.952C14.27 23.9617 14.27 23.981 14.2797 23.9907C14.3087 24.0487 14.3377 24.0971 14.3667 24.1454C14.3957 24.1841 14.4247 24.2227 14.4537 24.2421C14.4827 24.2711 14.5117 24.2904 14.531 24.3001C14.56 24.3097 14.5794 24.3194 14.6084 24.3194C14.647 24.3194 14.6857 24.3097 14.7244 24.2807C14.7534 24.2517 14.792 24.2227 14.8114 24.1841C14.8404 24.1454 14.8597 24.1067 14.8694 24.0584C14.879 24.0197 14.8887 23.981 14.8984 23.952C14.8984 23.9424 14.8984 23.9327 14.8984 23.9134C14.8984 23.894 14.8984 23.8747 14.8984 23.8554C14.8984 23.836 14.8984 23.807 14.8984 23.7877C14.8984 23.7587 14.8984 23.7297 14.9081 23.7007C14.9177 23.5847 14.9177 23.459 14.9274 23.314C14.9371 23.1786 14.9467 23.0336 14.9467 22.9079C14.9564 22.7823 14.9564 22.6662 14.9661 22.5792C14.9661 22.4922 14.9757 22.4342 14.9757 22.4245C15.4398 22.7049 15.8942 22.9659 16.3485 23.2173C16.8029 23.4687 17.2573 23.7007 17.6827 23.9037C18.1177 24.1067 18.5238 24.2711 18.9008 24.3968C19.2778 24.5224 19.6259 24.5998 19.9352 24.6191C19.9739 24.6191 20.0222 24.6191 20.0609 24.6191C20.0996 24.6191 20.1383 24.6191 20.1769 24.6191C20.2156 24.6191 20.2543 24.6094 20.2929 24.6094C20.3316 24.6094 20.3703 24.5998 20.3993 24.5901C20.4573 24.5804 20.5056 24.5611 20.554 24.5514C20.6023 24.5321 20.6506 24.5128 20.6893 24.4934C20.7377 24.4741 20.7763 24.4451 20.815 24.4161C20.8537 24.3871 20.8923 24.3581 20.9213 24.3194C21.134 24.0874 21.2307 23.7297 21.2307 23.285C21.2307 22.8403 21.1244 22.2989 20.9503 21.6995L20.9117 21.7091Z" fill="#FDC600"/>
<path d="M8.84584 10.2511C9.08753 10.2511 9.28089 10.3188 9.41623 10.4444C9.56125 10.5701 9.63859 10.7635 9.63859 10.9955C9.63859 11.2468 9.56125 11.4305 9.40656 11.5659C9.25188 11.7012 9.03919 11.7689 8.78784 11.7689C8.19811 11.7689 7.89841 11.5175 7.89841 11.0052H7.02832V11.0632C7.02832 11.5272 7.183 11.8849 7.50204 12.1363C7.82107 12.3876 8.24645 12.5133 8.77817 12.5133C9.26155 12.5133 9.67726 12.378 10.0156 12.1073C10.354 11.8366 10.528 11.4595 10.528 10.9762C10.528 10.8021 10.499 10.6475 10.4507 10.5024C10.3927 10.3574 10.3443 10.2414 10.2767 10.1544C10.2186 10.0771 10.1413 9.99972 10.0543 9.93204C9.96729 9.87404 9.90928 9.8257 9.88028 9.81603C9.84161 9.80636 9.82228 9.78703 9.80294 9.78703L9.86095 9.74836C9.90928 9.72902 9.96729 9.69035 10.0253 9.62268C10.0833 9.56467 10.151 9.497 10.209 9.40999C10.267 9.33265 10.325 9.21664 10.3637 9.09096C10.4023 8.96528 10.4217 8.82026 10.4217 8.66558C10.4217 8.23054 10.2767 7.89217 9.97696 7.64081C9.67726 7.38945 9.28089 7.27344 8.75883 7.27344C8.25611 7.27344 7.85974 7.39912 7.55037 7.64081C7.24101 7.89217 7.09599 8.23054 7.09599 8.67525V8.72359H7.94675C7.94675 8.48189 8.02409 8.30788 8.1691 8.19187C8.31412 8.07585 8.50747 8.01785 8.7685 8.01785C9.03919 8.01785 9.23255 8.07585 9.36789 8.20153C9.50324 8.32721 9.57092 8.49156 9.57092 8.70425C9.57092 8.93628 9.50324 9.11996 9.35823 9.25531C9.21321 9.38099 9.02953 9.45833 8.7975 9.45833H7.92741V10.2124L8.83617 10.2317L8.84584 10.2511ZM14.4531 12.4746V11.6722H12.3649L13.5733 10.4831C13.8924 10.1641 14.1244 9.88371 14.2501 9.61301C14.3757 9.34232 14.4434 9.07162 14.4434 8.79126C14.4434 8.32721 14.2984 7.96951 14.0084 7.70848C13.7183 7.44746 13.3123 7.32178 12.7999 7.32178C12.2875 7.32178 11.8718 7.44746 11.5625 7.70848C11.2531 7.96951 11.0984 8.33688 11.0984 8.80093V8.85893H11.9685C11.9685 8.34655 12.2392 8.09519 12.7806 8.09519C13.293 8.09519 13.554 8.34655 13.554 8.82993C13.554 9.02328 13.5057 9.21664 13.4186 9.39066C13.3316 9.56467 13.177 9.75803 12.9643 9.97072L11.2048 11.6819V12.4843L14.4531 12.4746Z" fill="#FDC600"/>
<path d="M8.28613 16.7503V12.9219H7.64807V15.8415L6.13991 12.9219H5.20215V16.7503H5.84021V13.8403L7.3677 16.7503H8.2958H8.28613ZM9.50426 16.3926C9.50426 16.2959 9.47525 16.2282 9.40758 16.1702C9.33991 16.1219 9.2529 16.0929 9.14655 16.0929C9.04021 16.0929 8.96287 16.1219 8.8952 16.1702C8.82752 16.2185 8.79852 16.2959 8.79852 16.3926V16.4989C8.79852 16.5956 8.83719 16.6729 8.90486 16.7213C8.97254 16.7696 9.05955 16.7986 9.16589 16.7986C9.27223 16.7986 9.35924 16.7696 9.42692 16.7213C9.49459 16.6729 9.52359 16.5956 9.52359 16.4989L9.51393 16.3926H9.50426ZM12.2595 15.7158H11.6601C11.6601 16.0735 11.4668 16.2572 11.0898 16.2572C10.7127 16.2572 10.529 16.0639 10.529 15.6772V15.1164C10.529 14.7297 10.7127 14.5364 11.0898 14.5364C11.4668 14.5364 11.6601 14.7201 11.6601 15.0778H12.2595V15.0294C12.2595 14.6911 12.1532 14.4397 11.9405 14.256C11.7278 14.0723 11.4475 13.9853 11.0898 13.9853C10.7321 13.9853 10.4517 14.082 10.239 14.2657C10.0263 14.459 9.91997 14.7201 9.91997 15.0488V15.7255C9.91997 16.0639 10.0263 16.3152 10.239 16.4989C10.4517 16.6826 10.7321 16.7793 11.0898 16.7793C11.4475 16.7793 11.7375 16.6923 11.9502 16.5086C12.1629 16.3249 12.2692 16.0735 12.2692 15.7352L12.2595 15.6965V15.7158ZM16.4456 16.7503V14.8361C16.4456 14.575 16.378 14.372 16.2426 14.227C16.1073 14.082 15.9236 14.0143 15.6916 14.0143C15.4789 14.0143 15.2662 14.0723 15.0728 14.198L14.7731 14.3817C14.6571 14.14 14.4444 14.0143 14.1351 14.0143C13.9417 14.0143 13.7484 14.0723 13.5647 14.1787L13.323 14.3237V14.0433H12.7139V16.7503H13.3327V14.8844L13.6517 14.6814C13.7774 14.6137 13.8934 14.575 13.9804 14.575C14.1737 14.575 14.2607 14.6911 14.2607 14.9134V16.7503H14.8795V14.8844L15.2082 14.6814C15.3339 14.604 15.4499 14.575 15.5369 14.575C15.7302 14.575 15.8269 14.6911 15.8269 14.9134V16.7503H16.4553H16.4456Z" fill="#FDC600"/>
<path d="M18.35 9.5458C20.9313 9.5458 23.0292 7.44791 23.0292 4.86665C23.0292 2.28538 20.9313 0.1875 18.35 0.1875C15.7688 0.1875 13.6709 2.28538 13.6709 4.86665C13.6709 7.44791 15.7688 9.5458 18.35 9.5458Z" fill="#FDC600"/>
<path d="M18.35 9.5458C20.9313 9.5458 23.0292 7.44791 23.0292 4.86665C23.0292 2.28538 20.9313 0.1875 18.35 0.1875C15.7688 0.1875 13.6709 2.28538 13.6709 4.86665C13.6709 7.44791 15.7688 9.5458 18.35 9.5458Z" stroke="white" stroke-width="0.473715"/>
<path d="M19.8771 7.52904V6.98765H17.5859L19.0457 5.51817C19.3551 5.19913 19.5678 4.91877 19.6838 4.66741C19.8095 4.41605 19.8675 4.15503 19.8675 3.88433C19.8675 3.45895 19.7418 3.12059 19.4808 2.86923C19.2197 2.61787 18.8427 2.49219 18.3593 2.49219C17.8953 2.49219 17.5279 2.61787 17.2379 2.84989C16.9478 3.09158 16.8125 3.41062 16.8125 3.81666V3.865H17.3732C17.3732 3.57497 17.4602 3.36228 17.6343 3.22693C17.8083 3.09158 18.05 3.01424 18.3593 3.01424C18.6784 3.01424 18.9201 3.09158 19.0844 3.24627C19.2488 3.40095 19.3261 3.61364 19.3261 3.88433C19.3261 4.10669 19.2778 4.30971 19.1811 4.50306C19.0844 4.69641 18.9104 4.91877 18.6784 5.17013L16.9188 6.97798V7.51937L19.8965 7.52904H19.8771Z" fill="#FEFEFE"/>
</svg>
