<svg width="17" height="17" viewBox="0 0 17 17" fill="none" xmlns="http://www.w3.org/2000/svg">
<path d="M8.74524 4.44531C8.87785 4.44531 9.00503 4.49799 9.0988 4.59176C9.19257 4.68553 9.24525 4.81272 9.24525 4.94533V7.94542H12.2453C12.378 7.94542 12.5051 7.9981 12.5989 8.09187C12.6927 8.18564 12.7454 8.31282 12.7454 8.44543C12.7454 8.57805 12.6927 8.70523 12.5989 8.799C12.5051 8.89277 12.378 8.94545 12.2453 8.94545H9.24525V11.9455C9.24525 12.0782 9.19257 12.2053 9.0988 12.2991C9.00503 12.3929 8.87785 12.4456 8.74524 12.4456C8.61263 12.4456 8.48545 12.3929 8.39167 12.2991C8.2979 12.2053 8.24522 12.0782 8.24522 11.9455V8.94545H5.24513C5.11252 8.94545 4.98534 8.89277 4.89157 8.799C4.7978 8.70523 4.74512 8.57805 4.74512 8.44543C4.74512 8.31282 4.7978 8.18564 4.89157 8.09187C4.98534 7.9981 5.11252 7.94542 5.24513 7.94542H8.24522V4.94533C8.24522 4.81272 8.2979 4.68553 8.39167 4.59176C8.48545 4.49799 8.61263 4.44531 8.74524 4.44531Z" fill="#CFCCC9"/>
</svg>
