<svg width="17" height="17" viewBox="0 0 17 17" fill="none" xmlns="http://www.w3.org/2000/svg">
<path d="M8.74524 4.02344C8.87785 4.02344 9.00503 4.07612 9.0988 4.16989C9.19257 4.26366 9.24525 4.39084 9.24525 4.52345V7.52354H12.2453C12.378 7.52354 12.5051 7.57622 12.5989 7.67C12.6927 7.76377 12.7454 7.89095 12.7454 8.02356C12.7454 8.15617 12.6927 8.28335 12.5989 8.37712C12.5051 8.47089 12.378 8.52357 12.2453 8.52357H9.24525V11.5237C9.24525 11.6563 9.19257 11.7835 9.0988 11.8772C9.00503 11.971 8.87785 12.0237 8.74524 12.0237C8.61263 12.0237 8.48545 11.971 8.39167 11.8772C8.2979 11.7835 8.24522 11.6563 8.24522 11.5237V8.52357H5.24513C5.11252 8.52357 4.98534 8.47089 4.89157 8.37712C4.7978 8.28335 4.74512 8.15617 4.74512 8.02356C4.74512 7.89095 4.7978 7.76377 4.89157 7.67C4.98534 7.57622 5.11252 7.52354 5.24513 7.52354H8.24522V4.52345C8.24522 4.39084 8.2979 4.26366 8.39167 4.16989C8.48545 4.07612 8.61263 4.02344 8.74524 4.02344Z" fill="#CFCCC9"/>
</svg>
