<svg width="17" height="17" viewBox="0 0 17 17" fill="none" xmlns="http://www.w3.org/2000/svg">
<path d="M8.50793 4.37402C8.64055 4.37402 8.76773 4.4267 8.8615 4.52047C8.95527 4.61425 9.00795 4.74143 9.00795 4.87404V7.87413H12.008C12.1407 7.87413 12.2678 7.92681 12.3616 8.02058C12.4554 8.11435 12.5081 8.24153 12.5081 8.37415C12.5081 8.50676 12.4554 8.63394 12.3616 8.72771C12.2678 8.82148 12.1407 8.87416 12.008 8.87416H9.00795V11.8743C9.00795 12.0069 8.95527 12.134 8.8615 12.2278C8.76773 12.3216 8.64055 12.3743 8.50793 12.3743C8.37532 12.3743 8.24814 12.3216 8.15437 12.2278C8.0606 12.134 8.00792 12.0069 8.00792 11.8743V8.87416H5.00783C4.87522 8.87416 4.74803 8.82148 4.65426 8.72771C4.56049 8.63394 4.50781 8.50676 4.50781 8.37415C4.50781 8.24153 4.56049 8.11435 4.65426 8.02058C4.74803 7.92681 4.87522 7.87413 5.00783 7.87413H8.00792V4.87404C8.00792 4.74143 8.0606 4.61425 8.15437 4.52047C8.24814 4.4267 8.37532 4.37402 8.50793 4.37402Z" fill="#CFCCC9"/>
</svg>
