<svg width="17" height="17" viewBox="0 0 17 17" fill="none" xmlns="http://www.w3.org/2000/svg">
<path d="M8.50793 4.22656C8.64055 4.22656 8.76773 4.27924 8.8615 4.37301C8.95527 4.46678 9.00795 4.59397 9.00795 4.72658V7.72667H12.008C12.1407 7.72667 12.2678 7.77935 12.3616 7.87312C12.4554 7.96689 12.5081 8.09407 12.5081 8.22668C12.5081 8.3593 12.4554 8.48648 12.3616 8.58025C12.2678 8.67402 12.1407 8.7267 12.008 8.7267H9.00795V11.7268C9.00795 11.8594 8.95527 11.9866 8.8615 12.0804C8.76773 12.1741 8.64055 12.2268 8.50793 12.2268C8.37532 12.2268 8.24814 12.1741 8.15437 12.0804C8.0606 11.9866 8.00792 11.8594 8.00792 11.7268V8.7267H5.00783C4.87522 8.7267 4.74803 8.67402 4.65426 8.58025C4.56049 8.48648 4.50781 8.3593 4.50781 8.22668C4.50781 8.09407 4.56049 7.96689 4.65426 7.87312C4.74803 7.77935 4.87522 7.72667 5.00783 7.72667H8.00792V4.72658C8.00792 4.59397 8.0606 4.46678 8.15437 4.37301C8.24814 4.27924 8.37532 4.22656 8.50793 4.22656Z" fill="#CFCCC9"/>
</svg>
