<svg width="15" height="15" viewBox="0 0 15 15" fill="none" xmlns="http://www.w3.org/2000/svg">
<path d="M8.33424 5.52267C8.33424 5.41124 8.28998 5.30438 8.21119 5.22559C8.1324 5.1468 8.02554 5.10254 7.91411 5.10254C7.80269 5.10254 7.69583 5.1468 7.61704 5.22559C7.53825 5.30438 7.49398 5.41124 7.49398 5.52267V6.78305H6.2336C6.12218 6.78305 6.01532 6.82731 5.93653 6.9061C5.85774 6.98489 5.81348 7.09175 5.81348 7.20317C5.81348 7.3146 5.85774 7.42146 5.93653 7.50025C6.01532 7.57904 6.12218 7.6233 6.2336 7.6233H7.49398V8.88368C7.49398 8.99511 7.53825 9.10197 7.61704 9.18076C7.69583 9.25955 7.80269 9.30381 7.91411 9.30381C8.02554 9.30381 8.1324 9.25955 8.21119 9.18076C8.28998 9.10197 8.33424 8.99511 8.33424 8.88368V7.6233H9.59462C9.70605 7.6233 9.81291 7.57904 9.8917 7.50025C9.97048 7.42146 10.0147 7.3146 10.0147 7.20317C10.0147 7.09175 9.97048 6.98489 9.8917 6.9061C9.81291 6.82731 9.70605 6.78305 9.59462 6.78305H8.33424V5.52267Z" fill="#363330"/>
<path d="M1.19161 1.74121C1.08019 1.74121 0.973326 1.78547 0.894537 1.86426C0.815748 1.94305 0.771484 2.04991 0.771484 2.16134C0.771484 2.27276 0.815748 2.37962 0.894537 2.45841C0.973326 2.5372 1.08019 2.58147 1.19161 2.58147H2.12429L2.46124 3.93175L3.71994 10.6412C3.73796 10.7375 3.78905 10.8244 3.86439 10.887C3.93972 10.9496 4.03455 10.9839 4.1325 10.984H4.97276C4.52706 10.984 4.09961 11.1611 3.78446 11.4762C3.4693 11.7914 3.29225 12.2188 3.29225 12.6645C3.29225 13.1102 3.4693 13.5377 3.78446 13.8528C4.09961 14.168 4.52706 14.345 4.97276 14.345C5.41845 14.345 5.8459 14.168 6.16105 13.8528C6.47621 13.5377 6.65326 13.1102 6.65326 12.6645C6.65326 12.2188 6.47621 11.7914 6.16105 11.4762C5.8459 11.1611 5.41845 10.984 4.97276 10.984H10.8545C10.4088 10.984 9.98139 11.1611 9.66624 11.4762C9.35108 11.7914 9.17403 12.2188 9.17403 12.6645C9.17403 13.1102 9.35108 13.5377 9.66624 13.8528C9.98139 14.168 10.4088 14.345 10.8545 14.345C11.3002 14.345 11.7277 14.168 12.0428 13.8528C12.358 13.5377 12.535 13.1102 12.535 12.6645C12.535 12.2188 12.358 11.7914 12.0428 11.4762C11.7277 11.1611 11.3002 10.984 10.8545 10.984H11.6948C11.7927 10.9839 11.8876 10.9496 11.9629 10.887C12.0382 10.8244 12.0893 10.7375 12.1074 10.6412L13.3677 3.91915C13.3791 3.85851 13.3769 3.79612 13.3615 3.73641C13.346 3.6767 13.3175 3.62112 13.2782 3.57364C13.2388 3.52616 13.1894 3.48793 13.1336 3.46167C13.0778 3.43542 13.0169 3.42178 12.9552 3.42172H3.19982L2.85952 2.05967C2.83684 1.96874 2.78441 1.888 2.71057 1.8303C2.63672 1.7726 2.54571 1.74124 2.45199 1.74121H1.19161ZM4.48121 10.1438L3.37795 4.26197H12.4493L11.3461 10.1438H4.48121ZM5.81301 12.6645C5.81301 12.8874 5.72448 13.1011 5.56691 13.2587C5.40933 13.4162 5.1956 13.5048 4.97276 13.5048C4.74991 13.5048 4.53618 13.4162 4.37861 13.2587C4.22103 13.1011 4.1325 12.8874 4.1325 12.6645C4.1325 12.4417 4.22103 12.2279 4.37861 12.0704C4.53618 11.9128 4.74991 11.8243 4.97276 11.8243C5.1956 11.8243 5.40933 11.9128 5.56691 12.0704C5.72448 12.2279 5.81301 12.4417 5.81301 12.6645ZM11.6948 12.6645C11.6948 12.8874 11.6063 13.1011 11.4487 13.2587C11.2911 13.4162 11.0774 13.5048 10.8545 13.5048C10.6317 13.5048 10.418 13.4162 10.2604 13.2587C10.1028 13.1011 10.0143 12.8874 10.0143 12.6645C10.0143 12.4417 10.1028 12.2279 10.2604 12.0704C10.418 11.9128 10.6317 11.8243 10.8545 11.8243C11.0774 11.8243 11.2911 11.9128 11.4487 12.0704C11.6063 12.2279 11.6948 12.4417 11.6948 12.6645Z" fill="#363330"/>
</svg>
