<svg width="14" height="15" viewBox="0 0 14 15" fill="none" xmlns="http://www.w3.org/2000/svg">
<path d="M7.78834 5.40255C7.78834 5.29112 7.74408 5.18426 7.66529 5.10547C7.5865 5.02669 7.47964 4.98242 7.36821 4.98242C7.25679 4.98242 7.14993 5.02669 7.07114 5.10547C6.99235 5.18426 6.94809 5.29112 6.94809 5.40255V6.66293H5.68771C5.57628 6.66293 5.46942 6.70719 5.39063 6.78598C5.31184 6.86477 5.26758 6.97163 5.26758 7.08306C5.26758 7.19448 5.31184 7.30134 5.39063 7.38013C5.46942 7.45892 5.57628 7.50318 5.68771 7.50318H6.94809V8.76357C6.94809 8.87499 6.99235 8.98185 7.07114 9.06064C7.14993 9.13943 7.25679 9.18369 7.36821 9.18369C7.47964 9.18369 7.5865 9.13943 7.66529 9.06064C7.74408 8.98185 7.78834 8.87499 7.78834 8.76357V7.50318H9.04872C9.16015 7.50318 9.26701 7.45892 9.3458 7.38013C9.42459 7.30134 9.46885 7.19448 9.46885 7.08306C9.46885 6.97163 9.42459 6.86477 9.3458 6.78598C9.26701 6.70719 9.16015 6.66293 9.04872 6.66293H7.78834V5.40255Z" fill="#363330"/>
<path d="M0.645713 1.62109C0.534288 1.62109 0.427427 1.66536 0.348638 1.74415C0.269849 1.82294 0.225586 1.9298 0.225586 2.04122C0.225586 2.15265 0.269849 2.25951 0.348638 2.3383C0.427427 2.41708 0.534288 2.46135 0.645713 2.46135H1.5784L1.91534 3.81164L3.17404 10.5211C3.19206 10.6173 3.24315 10.7043 3.31849 10.7669C3.39382 10.8295 3.48866 10.8638 3.5866 10.8639H4.42686C3.98116 10.8639 3.55371 11.0409 3.23856 11.3561C2.9234 11.6713 2.74635 12.0987 2.74635 12.5444C2.74635 12.9901 2.9234 13.4175 3.23856 13.7327C3.55371 14.0479 3.98116 14.2249 4.42686 14.2249C4.87256 14.2249 5.3 14.0479 5.61516 13.7327C5.93031 13.4175 6.10737 12.9901 6.10737 12.5444C6.10737 12.0987 5.93031 11.6713 5.61516 11.3561C5.3 11.0409 4.87256 10.8639 4.42686 10.8639H10.3086C9.86294 10.8639 9.43549 11.0409 9.12034 11.3561C8.80518 11.6713 8.62813 12.0987 8.62813 12.5444C8.62813 12.9901 8.80518 13.4175 9.12034 13.7327C9.43549 14.0479 9.86294 14.2249 10.3086 14.2249C10.7543 14.2249 11.1818 14.0479 11.4969 13.7327C11.8121 13.4175 11.9891 12.9901 11.9891 12.5444C11.9891 12.0987 11.8121 11.6713 11.4969 11.3561C11.1818 11.0409 10.7543 10.8639 10.3086 10.8639H11.1489C11.2468 10.8638 11.3417 10.8295 11.417 10.7669C11.4923 10.7043 11.5434 10.6173 11.5615 10.5211L12.8218 3.79903C12.8332 3.7384 12.831 3.67601 12.8156 3.61629C12.8001 3.55658 12.7716 3.50101 12.7323 3.45352C12.6929 3.40604 12.6435 3.36781 12.5877 3.34156C12.5319 3.3153 12.471 3.30166 12.4093 3.3016H2.65392L2.31362 1.93955C2.29094 1.84862 2.23851 1.76789 2.16467 1.71018C2.09082 1.65248 1.99981 1.62112 1.90609 1.62109H0.645713ZM3.93531 10.0236L2.83205 4.14186H11.9034L10.8002 10.0236H3.93531ZM5.26711 12.5444C5.26711 12.7672 5.17858 12.981 5.02101 13.1385C4.86343 13.2961 4.64971 13.3847 4.42686 13.3847C4.20401 13.3847 3.99029 13.2961 3.83271 13.1385C3.67513 12.981 3.5866 12.7672 3.5866 12.5444C3.5866 12.3215 3.67513 12.1078 3.83271 11.9502C3.99029 11.7927 4.20401 11.7041 4.42686 11.7041C4.64971 11.7041 4.86343 11.7927 5.02101 11.9502C5.17858 12.1078 5.26711 12.3215 5.26711 12.5444ZM11.1489 12.5444C11.1489 12.7672 11.0604 12.981 10.9028 13.1385C10.7452 13.2961 10.5315 13.3847 10.3086 13.3847C10.0858 13.3847 9.87207 13.2961 9.71449 13.1385C9.55691 12.981 9.46838 12.7672 9.46838 12.5444C9.46838 12.3215 9.55691 12.1078 9.71449 11.9502C9.87207 11.7927 10.0858 11.7041 10.3086 11.7041C10.5315 11.7041 10.7452 11.7927 10.9028 11.9502C11.0604 12.1078 11.1489 12.3215 11.1489 12.5444Z" fill="#363330"/>
</svg>
