<svg width="14" height="15" viewBox="0 0 14 15" fill="none" xmlns="http://www.w3.org/2000/svg">
<path d="M7.78932 5.2131C7.78932 5.10167 7.74505 4.99481 7.66627 4.91602C7.58748 4.83723 7.48061 4.79297 7.36919 4.79297C7.25777 4.79297 7.1509 4.83723 7.07212 4.91602C6.99333 4.99481 6.94906 5.10167 6.94906 5.2131V6.47348H5.68868C5.57726 6.47348 5.4704 6.51774 5.39161 6.59653C5.31282 6.67532 5.26855 6.78218 5.26855 6.8936C5.26855 7.00503 5.31282 7.11189 5.39161 7.19068C5.4704 7.26947 5.57726 7.31373 5.68868 7.31373H6.94906V8.57411C6.94906 8.68554 6.99333 8.7924 7.07212 8.87119C7.1509 8.94998 7.25777 8.99424 7.36919 8.99424C7.48061 8.99424 7.58748 8.94998 7.66627 8.87119C7.74505 8.7924 7.78932 8.68554 7.78932 8.57411V7.31373H9.0497C9.16112 7.31373 9.26798 7.26947 9.34677 7.19068C9.42556 7.11189 9.46983 7.00503 9.46983 6.8936C9.46983 6.78218 9.42556 6.67532 9.34677 6.59653C9.26798 6.51774 9.16112 6.47348 9.0497 6.47348H7.78932V5.2131Z" fill="#363330"/>
<path d="M0.64669 1.43164C0.535265 1.43164 0.428404 1.4759 0.349615 1.55469C0.270826 1.63348 0.226563 1.74034 0.226562 1.85177C0.226563 1.96319 0.270826 2.07005 0.349615 2.14884C0.428404 2.22763 0.535265 2.27189 0.64669 2.27189H1.57937L1.91631 3.62218L3.17501 10.3316C3.19304 10.4279 3.24413 10.5148 3.31946 10.5774C3.3948 10.64 3.48963 10.6743 3.58758 10.6744H4.42783C3.98214 10.6744 3.55469 10.8515 3.23953 11.1666C2.92438 11.4818 2.74733 11.9092 2.74733 12.3549C2.74733 12.8006 2.92438 13.2281 3.23953 13.5432C3.55469 13.8584 3.98214 14.0355 4.42783 14.0355C4.87353 14.0355 5.30098 13.8584 5.61613 13.5432C5.93129 13.2281 6.10834 12.8006 6.10834 12.3549C6.10834 11.9092 5.93129 11.4818 5.61613 11.1666C5.30098 10.8515 4.87353 10.6744 4.42783 10.6744H10.3096C9.86391 10.6744 9.43647 10.8515 9.12132 11.1666C8.80616 11.4818 8.6291 11.9092 8.6291 12.3549C8.6291 12.8006 8.80616 13.2281 9.12132 13.5432C9.43647 13.8584 9.86391 14.0355 10.3096 14.0355C10.7553 14.0355 11.1828 13.8584 11.4979 13.5432C11.8131 13.2281 11.9901 12.8006 11.9901 12.3549C11.9901 11.9092 11.8131 11.4818 11.4979 11.1666C11.1828 10.8515 10.7553 10.6744 10.3096 10.6744H11.1499C11.2478 10.6743 11.3427 10.64 11.418 10.5774C11.4933 10.5148 11.5444 10.4279 11.5624 10.3316L12.8228 3.60958C12.8342 3.54894 12.832 3.48655 12.8165 3.42684C12.8011 3.36712 12.7726 3.31155 12.7332 3.26407C12.6939 3.21659 12.6445 3.17836 12.5887 3.1521C12.5329 3.12585 12.4719 3.11221 12.4102 3.11215H2.6549L2.31459 1.7501C2.29192 1.65917 2.23949 1.57843 2.16564 1.52073C2.0918 1.46302 2.00079 1.43167 1.90707 1.43164H0.64669ZM3.93629 9.83418L2.83303 3.9524H11.9044L10.8012 9.83418H3.93629ZM5.26809 12.3549C5.26809 12.5778 5.17956 12.7915 5.02198 12.9491C4.8644 13.1067 4.65068 13.1952 4.42783 13.1952C4.20498 13.1952 3.99126 13.1067 3.83368 12.9491C3.67611 12.7915 3.58758 12.5778 3.58758 12.3549C3.58758 12.1321 3.67611 11.9184 3.83368 11.7608C3.99126 11.6032 4.20498 11.5147 4.42783 11.5147C4.65068 11.5147 4.8644 11.6032 5.02198 11.7608C5.17956 11.9184 5.26809 12.1321 5.26809 12.3549ZM11.1499 12.3549C11.1499 12.5778 11.0613 12.7915 10.9038 12.9491C10.7462 13.1067 10.5325 13.1952 10.3096 13.1952C10.0868 13.1952 9.87304 13.1067 9.71546 12.9491C9.55789 12.7915 9.46936 12.5778 9.46936 12.3549C9.46936 12.1321 9.55789 11.9184 9.71546 11.7608C9.87304 11.6032 10.0868 11.5147 10.3096 11.5147C10.5325 11.5147 10.7462 11.6032 10.9038 11.7608C11.0613 11.9184 11.1499 12.1321 11.1499 12.3549Z" fill="#363330"/>
</svg>
