<svg width="14" height="14" viewBox="0 0 14 14" fill="none" xmlns="http://www.w3.org/2000/svg">
<path d="M7.84107 5.10079C7.84107 4.98937 7.79681 4.88251 7.71802 4.80372C7.63923 4.72493 7.53237 4.68066 7.42095 4.68066C7.30952 4.68066 7.20266 4.72493 7.12387 4.80372C7.04508 4.88251 7.00082 4.98937 7.00082 5.10079V6.36117H5.74044C5.62901 6.36117 5.52215 6.40544 5.44336 6.48422C5.36458 6.56301 5.32031 6.66987 5.32031 6.7813C5.32031 6.89272 5.36458 6.99959 5.44336 7.07837C5.52215 7.15716 5.62901 7.20143 5.74044 7.20143H7.00082V8.46181C7.00082 8.57323 7.04508 8.68009 7.12387 8.75888C7.20266 8.83767 7.30952 8.88194 7.42095 8.88194C7.53237 8.88194 7.63923 8.83767 7.71802 8.75888C7.79681 8.68009 7.84107 8.57323 7.84107 8.46181V7.20143H9.10146C9.21288 7.20143 9.31974 7.15716 9.39853 7.07837C9.47732 6.99959 9.52158 6.89272 9.52158 6.7813C9.52158 6.66987 9.47732 6.56301 9.39853 6.48422C9.31974 6.40544 9.21288 6.36117 9.10146 6.36117H7.84107V5.10079Z" fill="#363330"/>
<path d="M0.698447 1.31934C0.587023 1.31934 0.480162 1.3636 0.401373 1.44239C0.322584 1.52118 0.27832 1.62804 0.27832 1.73946C0.27832 1.85089 0.322584 1.95775 0.401373 2.03654C0.480162 2.11533 0.587023 2.15959 0.698447 2.15959H1.63113L1.96807 3.50988L3.22677 10.2193C3.24479 10.3156 3.29589 10.4025 3.37122 10.4651C3.44655 10.5277 3.54139 10.562 3.63934 10.5621H4.47959C4.03389 10.5621 3.60645 10.7392 3.29129 11.0543C2.97614 11.3695 2.79908 11.7969 2.79908 12.2426C2.79908 12.6883 2.97614 13.1158 3.29129 13.4309C3.60645 13.7461 4.03389 13.9231 4.47959 13.9231C4.92529 13.9231 5.35273 13.7461 5.66789 13.4309C5.98305 13.1158 6.1601 12.6883 6.1601 12.2426C6.1601 11.7969 5.98305 11.3695 5.66789 11.0543C5.35273 10.7392 4.92529 10.5621 4.47959 10.5621H10.3614C9.91567 10.5621 9.48823 10.7392 9.17307 11.0543C8.85792 11.3695 8.68086 11.7969 8.68086 12.2426C8.68086 12.6883 8.85792 13.1158 9.17307 13.4309C9.48823 13.7461 9.91567 13.9231 10.3614 13.9231C10.8071 13.9231 11.2345 13.7461 11.5497 13.4309C11.8648 13.1158 12.0419 12.6883 12.0419 12.2426C12.0419 11.7969 11.8648 11.3695 11.5497 11.0543C11.2345 10.7392 10.8071 10.5621 10.3614 10.5621H11.2016C11.2996 10.562 11.3944 10.5277 11.4697 10.4651C11.5451 10.4025 11.5962 10.3156 11.6142 10.2193L12.8746 3.49727C12.8859 3.43664 12.8838 3.37425 12.8683 3.31453C12.8528 3.25482 12.8244 3.19925 12.785 3.15177C12.7456 3.10428 12.6963 3.06606 12.6404 3.0398C12.5846 3.01354 12.5237 2.9999 12.462 2.99984H2.70666L2.36635 1.63779C2.34367 1.54686 2.29124 1.46613 2.2174 1.40842C2.14356 1.35072 2.05254 1.31936 1.95883 1.31934H0.698447ZM3.98804 9.72188L2.88479 3.8401H11.9562L10.8529 9.72188H3.98804ZM5.31985 12.2426C5.31985 12.4655 5.23132 12.6792 5.07374 12.8368C4.91616 12.9944 4.70244 13.0829 4.47959 13.0829C4.25674 13.0829 4.04302 12.9944 3.88544 12.8368C3.72786 12.6792 3.63934 12.4655 3.63934 12.2426C3.63934 12.0198 3.72786 11.8061 3.88544 11.6485C4.04302 11.4909 4.25674 11.4024 4.47959 11.4024C4.70244 11.4024 4.91616 11.4909 5.07374 11.6485C5.23132 11.8061 5.31985 12.0198 5.31985 12.2426ZM11.2016 12.2426C11.2016 12.4655 11.1131 12.6792 10.9555 12.8368C10.7979 12.9944 10.5842 13.0829 10.3614 13.0829C10.1385 13.0829 9.9248 12.9944 9.76722 12.8368C9.60964 12.6792 9.52112 12.4655 9.52112 12.2426C9.52112 12.0198 9.60964 11.8061 9.76722 11.6485C9.9248 11.4909 10.1385 11.4024 10.3614 11.4024C10.5842 11.4024 10.7979 11.4909 10.9555 11.6485C11.1131 11.8061 11.2016 12.0198 11.2016 12.2426Z" fill="#363330"/>
</svg>
