<svg width="15" height="14" viewBox="0 0 15 14" fill="none" xmlns="http://www.w3.org/2000/svg">
<path d="M8.1858 4.7131C8.1858 4.60167 8.14154 4.49481 8.06275 4.41602C7.98396 4.33723 7.8771 4.29297 7.76567 4.29297C7.65425 4.29297 7.54739 4.33723 7.4686 4.41602C7.38981 4.49481 7.34555 4.60167 7.34555 4.7131V5.97348H6.08517C5.97374 5.97348 5.86688 6.01774 5.78809 6.09653C5.7093 6.17532 5.66504 6.28218 5.66504 6.3936C5.66504 6.50503 5.7093 6.61189 5.78809 6.69068C5.86688 6.76947 5.97374 6.81373 6.08517 6.81373H7.34555V8.07411C7.34555 8.18554 7.38981 8.2924 7.4686 8.37119C7.54739 8.44998 7.65425 8.49424 7.76567 8.49424C7.8771 8.49424 7.98396 8.44998 8.06275 8.37119C8.14154 8.2924 8.1858 8.18554 8.1858 8.07411V6.81373H9.44618C9.55761 6.81373 9.66447 6.76947 9.74326 6.69068C9.82205 6.61189 9.86631 6.50503 9.86631 6.3936C9.86631 6.28218 9.82205 6.17532 9.74326 6.09653C9.66447 6.01774 9.55761 5.97348 9.44618 5.97348H8.1858V4.7131Z" fill="#363330"/>
<path d="M1.04317 0.931641C0.931749 0.931641 0.824888 0.975904 0.746099 1.05469C0.66731 1.13348 0.623047 1.24034 0.623047 1.35177C0.623047 1.46319 0.66731 1.57005 0.746099 1.64884C0.824888 1.72763 0.931749 1.77189 1.04317 1.77189H1.97586L2.3128 3.12218L3.5715 9.83161C3.58952 9.92789 3.64061 10.0148 3.71595 10.0774C3.79128 10.14 3.88612 10.1743 3.98406 10.1744H4.82432C4.37862 10.1744 3.95118 10.3515 3.63602 10.6666C3.32086 10.9818 3.14381 11.4092 3.14381 11.8549C3.14381 12.3006 3.32086 12.7281 3.63602 13.0432C3.95118 13.3584 4.37862 13.5355 4.82432 13.5355C5.27002 13.5355 5.69746 13.3584 6.01262 13.0432C6.32777 12.7281 6.50483 12.3006 6.50483 11.8549C6.50483 11.4092 6.32777 10.9818 6.01262 10.6666C5.69746 10.3515 5.27002 10.1744 4.82432 10.1744H10.7061C10.2604 10.1744 9.83296 10.3515 9.5178 10.6666C9.20264 10.9818 9.02559 11.4092 9.02559 11.8549C9.02559 12.3006 9.20264 12.7281 9.5178 13.0432C9.83296 13.3584 10.2604 13.5355 10.7061 13.5355C11.1518 13.5355 11.5792 13.3584 11.8944 13.0432C12.2096 12.7281 12.3866 12.3006 12.3866 11.8549C12.3866 11.4092 12.2096 10.9818 11.8944 10.6666C11.5792 10.3515 11.1518 10.1744 10.7061 10.1744H11.5464C11.6443 10.1743 11.7391 10.14 11.8145 10.0774C11.8898 10.0148 11.9409 9.92789 11.9589 9.83161L13.2193 3.10958C13.2306 3.04894 13.2285 2.98655 13.213 2.92684C13.1975 2.86712 13.1691 2.81155 13.1297 2.76407C13.0903 2.71659 13.041 2.67836 12.9852 2.6521C12.9293 2.62585 12.8684 2.61221 12.8067 2.61215H3.05138L2.71108 1.2501C2.6884 1.15917 2.63597 1.07843 2.56213 1.02073C2.48829 0.963025 2.39727 0.931667 2.30356 0.931641H1.04317ZM4.33277 9.33418L3.22952 3.4524H12.3009L11.1976 9.33418H4.33277ZM5.66457 11.8549C5.66457 12.0778 5.57605 12.2915 5.41847 12.4491C5.26089 12.6067 5.04717 12.6952 4.82432 12.6952C4.60147 12.6952 4.38775 12.6067 4.23017 12.4491C4.07259 12.2915 3.98406 12.0778 3.98406 11.8549C3.98406 11.6321 4.07259 11.4184 4.23017 11.2608C4.38775 11.1032 4.60147 11.0147 4.82432 11.0147C5.04717 11.0147 5.26089 11.1032 5.41847 11.2608C5.57605 11.4184 5.66457 11.6321 5.66457 11.8549ZM11.5464 11.8549C11.5464 12.0778 11.4578 12.2915 11.3002 12.4491C11.1427 12.6067 10.9289 12.6952 10.7061 12.6952C10.4832 12.6952 10.2695 12.6067 10.1119 12.4491C9.95437 12.2915 9.86584 12.0778 9.86584 11.8549C9.86584 11.6321 9.95437 11.4184 10.1119 11.2608C10.2695 11.1032 10.4832 11.0147 10.7061 11.0147C10.9289 11.0147 11.1427 11.1032 11.3002 11.2608C11.4578 11.4184 11.5464 11.6321 11.5464 11.8549Z" fill="#363330"/>
</svg>
