<svg width="14" height="15" viewBox="0 0 14 15" fill="none" xmlns="http://www.w3.org/2000/svg">
<path d="M7.70729 5.36349C7.70729 5.25206 7.66302 5.1452 7.58423 5.06641C7.50544 4.98762 7.39858 4.94336 7.28716 4.94336C7.17573 4.94336 7.06887 4.98762 6.99008 5.06641C6.91129 5.1452 6.86703 5.25206 6.86703 5.36349V6.62387H5.60665C5.49523 6.62387 5.38837 6.66813 5.30958 6.74692C5.23079 6.82571 5.18652 6.93257 5.18652 7.04399C5.18652 7.15542 5.23079 7.26228 5.30958 7.34107C5.38837 7.41986 5.49523 7.46412 5.60665 7.46412H6.86703V8.7245C6.86703 8.83593 6.91129 8.94279 6.99008 9.02158C7.06887 9.10037 7.17573 9.14463 7.28716 9.14463C7.39858 9.14463 7.50544 9.10037 7.58423 9.02158C7.66302 8.94279 7.70729 8.83593 7.70729 8.7245V7.46412H8.96767C9.07909 7.46412 9.18595 7.41986 9.26474 7.34107C9.34353 7.26228 9.38779 7.15542 9.38779 7.04399C9.38779 6.93257 9.34353 6.82571 9.26474 6.74692C9.18595 6.66813 9.07909 6.62387 8.96767 6.62387H7.70729V5.36349Z" fill="#363330"/>
<path d="M0.564658 1.58203C0.453234 1.58203 0.346373 1.62629 0.267584 1.70508C0.188795 1.78387 0.144531 1.89073 0.144531 2.00216C0.144531 2.11358 0.188795 2.22044 0.267584 2.29923C0.346373 2.37802 0.453234 2.42229 0.564658 2.42229H1.49734L1.83428 3.77257L3.09298 10.482C3.11101 10.5783 3.1621 10.6652 3.23743 10.7278C3.31276 10.7904 3.4076 10.8247 3.50555 10.8248H4.3458C3.9001 10.8248 3.47266 11.0019 3.1575 11.317C2.84235 11.6322 2.66529 12.0596 2.66529 12.5053C2.66529 12.951 2.84235 13.3785 3.1575 13.6936C3.47266 14.0088 3.9001 14.1858 4.3458 14.1858C4.7915 14.1858 5.21895 14.0088 5.5341 13.6936C5.84926 13.3785 6.02631 12.951 6.02631 12.5053C6.02631 12.0596 5.84926 11.6322 5.5341 11.317C5.21895 11.0019 4.7915 10.8248 4.3458 10.8248H10.2276C9.78188 10.8248 9.35444 11.0019 9.03928 11.317C8.72413 11.6322 8.54707 12.0596 8.54707 12.5053C8.54707 12.951 8.72413 13.3785 9.03928 13.6936C9.35444 14.0088 9.78188 14.1858 10.2276 14.1858C10.6733 14.1858 11.1007 14.0088 11.4159 13.6936C11.731 13.3785 11.9081 12.951 11.9081 12.5053C11.9081 12.0596 11.731 11.6322 11.4159 11.317C11.1007 11.0019 10.6733 10.8248 10.2276 10.8248H11.0678C11.1658 10.8247 11.2606 10.7904 11.336 10.7278C11.4113 10.6652 11.4624 10.5783 11.4804 10.482L12.7408 3.75997C12.7521 3.69933 12.75 3.63694 12.7345 3.57723C12.719 3.51752 12.6906 3.46194 12.6512 3.41446C12.6118 3.36698 12.5625 3.32875 12.5066 3.30249C12.4508 3.27624 12.3899 3.2626 12.3282 3.26254H2.57287L2.23256 1.90049C2.20988 1.80956 2.15745 1.72882 2.08361 1.67112C2.00977 1.61342 1.91875 1.58206 1.82504 1.58203H0.564658ZM3.85425 9.98457L2.751 4.10279H11.8224L10.7191 9.98457H3.85425ZM5.18606 12.5053C5.18606 12.7282 5.09753 12.9419 4.93995 13.0995C4.78237 13.2571 4.56865 13.3456 4.3458 13.3456C4.12295 13.3456 3.90923 13.2571 3.75165 13.0995C3.59407 12.9419 3.50555 12.7282 3.50555 12.5053C3.50555 12.2825 3.59407 12.0688 3.75165 11.9112C3.90923 11.7536 4.12295 11.6651 4.3458 11.6651C4.56865 11.6651 4.78237 11.7536 4.93995 11.9112C5.09753 12.0688 5.18606 12.2825 5.18606 12.5053ZM11.0678 12.5053C11.0678 12.7282 10.9793 12.9419 10.8217 13.0995C10.6642 13.2571 10.4504 13.3456 10.2276 13.3456C10.0047 13.3456 9.79101 13.2571 9.63343 13.0995C9.47585 12.9419 9.38733 12.7282 9.38733 12.5053C9.38733 12.2825 9.47585 12.0688 9.63343 11.9112C9.79101 11.7536 10.0047 11.6651 10.2276 11.6651C10.4504 11.6651 10.6642 11.7536 10.8217 11.9112C10.9793 12.0688 11.0678 12.2825 11.0678 12.5053Z" fill="#363330"/>
</svg>
