<svg width="15" height="15" viewBox="0 0 15 15" fill="none" xmlns="http://www.w3.org/2000/svg">
<path d="M8.33424 5.22384C8.33424 5.11241 8.28998 5.00555 8.21119 4.92676C8.1324 4.84797 8.02554 4.80371 7.91411 4.80371C7.80269 4.80371 7.69583 4.84797 7.61704 4.92676C7.53825 5.00555 7.49398 5.11241 7.49398 5.22384V6.48422H6.2336C6.12218 6.48422 6.01532 6.52848 5.93653 6.60727C5.85774 6.68606 5.81348 6.79292 5.81348 6.90435C5.81348 7.01577 5.85774 7.12263 5.93653 7.20142C6.01532 7.28021 6.12218 7.32447 6.2336 7.32447H7.49398V8.58485C7.49398 8.69628 7.53825 8.80314 7.61704 8.88193C7.69583 8.96072 7.80269 9.00498 7.91411 9.00498C8.02554 9.00498 8.1324 8.96072 8.21119 8.88193C8.28998 8.80314 8.33424 8.69628 8.33424 8.58485V7.32447H9.59462C9.70605 7.32447 9.81291 7.28021 9.8917 7.20142C9.97048 7.12263 10.0147 7.01577 10.0147 6.90435C10.0147 6.79292 9.97048 6.68606 9.8917 6.60727C9.81291 6.52848 9.70605 6.48422 9.59462 6.48422H8.33424V5.22384Z" fill="#363330"/>
<path d="M1.19161 1.44238C1.08019 1.44238 0.973326 1.48665 0.894537 1.56544C0.815748 1.64422 0.771484 1.75109 0.771484 1.86251C0.771484 1.97393 0.815748 2.0808 0.894537 2.15958C0.973326 2.23837 1.08019 2.28264 1.19161 2.28264H2.12429L2.46124 3.63293L3.71994 10.3424C3.73796 10.4386 3.78905 10.5256 3.86439 10.5882C3.93972 10.6508 4.03455 10.6851 4.1325 10.6852H4.97276C4.52706 10.6852 4.09961 10.8622 3.78446 11.1774C3.4693 11.4925 3.29225 11.92 3.29225 12.3657C3.29225 12.8114 3.4693 13.2388 3.78446 13.554C4.09961 13.8691 4.52706 14.0462 4.97276 14.0462C5.41845 14.0462 5.8459 13.8691 6.16105 13.554C6.47621 13.2388 6.65326 12.8114 6.65326 12.3657C6.65326 11.92 6.47621 11.4925 6.16105 11.1774C5.8459 10.8622 5.41845 10.6852 4.97276 10.6852H10.8545C10.4088 10.6852 9.98139 10.8622 9.66624 11.1774C9.35108 11.4925 9.17403 11.92 9.17403 12.3657C9.17403 12.8114 9.35108 13.2388 9.66624 13.554C9.98139 13.8691 10.4088 14.0462 10.8545 14.0462C11.3002 14.0462 11.7277 13.8691 12.0428 13.554C12.358 13.2388 12.535 12.8114 12.535 12.3657C12.535 11.92 12.358 11.4925 12.0428 11.1774C11.7277 10.8622 11.3002 10.6852 10.8545 10.6852H11.6948C11.7927 10.6851 11.8876 10.6508 11.9629 10.5882C12.0382 10.5256 12.0893 10.4386 12.1074 10.3424L13.3677 3.62032C13.3791 3.55969 13.3769 3.4973 13.3615 3.43758C13.346 3.37787 13.3175 3.32229 13.2782 3.27481C13.2388 3.22733 13.1894 3.1891 13.1336 3.16285C13.0778 3.13659 13.0169 3.12295 12.9552 3.12289H3.19982L2.85952 1.76084C2.83684 1.66991 2.78441 1.58917 2.71057 1.53147C2.63672 1.47377 2.54571 1.44241 2.45199 1.44238H1.19161ZM4.48121 9.84492L3.37795 3.96315H12.4493L11.3461 9.84492H4.48121ZM5.81301 12.3657C5.81301 12.5885 5.72448 12.8023 5.56691 12.9598C5.40933 13.1174 5.1956 13.2059 4.97276 13.2059C4.74991 13.2059 4.53618 13.1174 4.37861 12.9598C4.22103 12.8023 4.1325 12.5885 4.1325 12.3657C4.1325 12.1428 4.22103 11.9291 4.37861 11.7715C4.53618 11.614 4.74991 11.5254 4.97276 11.5254C5.1956 11.5254 5.40933 11.614 5.56691 11.7715C5.72448 11.9291 5.81301 12.1428 5.81301 12.3657ZM11.6948 12.3657C11.6948 12.5885 11.6063 12.8023 11.4487 12.9598C11.2911 13.1174 11.0774 13.2059 10.8545 13.2059C10.6317 13.2059 10.418 13.1174 10.2604 12.9598C10.1028 12.8023 10.0143 12.5885 10.0143 12.3657C10.0143 12.1428 10.1028 11.9291 10.2604 11.7715C10.418 11.614 10.6317 11.5254 10.8545 11.5254C11.0774 11.5254 11.2911 11.614 11.4487 11.7715C11.6063 11.9291 11.6948 12.1428 11.6948 12.3657Z" fill="#363330"/>
</svg>
