<svg width="15" height="14" viewBox="0 0 15 14" fill="none" xmlns="http://www.w3.org/2000/svg">
<path d="M8.33424 4.74239C8.33424 4.63097 8.28998 4.52411 8.21119 4.44532C8.1324 4.36653 8.02554 4.32227 7.91411 4.32227C7.80269 4.32227 7.69583 4.36653 7.61704 4.44532C7.53825 4.52411 7.49398 4.63097 7.49398 4.74239V6.00277H6.2336C6.12218 6.00277 6.01532 6.04704 5.93653 6.12583C5.85774 6.20462 5.81348 6.31148 5.81348 6.4229C5.81348 6.53433 5.85774 6.64119 5.93653 6.71998C6.01532 6.79876 6.12218 6.84303 6.2336 6.84303H7.49398V8.10341C7.49398 8.21483 7.53825 8.3217 7.61704 8.40048C7.69583 8.47927 7.80269 8.52354 7.91411 8.52354C8.02554 8.52354 8.1324 8.47927 8.21119 8.40048C8.28998 8.3217 8.33424 8.21483 8.33424 8.10341V6.84303H9.59462C9.70605 6.84303 9.81291 6.79876 9.8917 6.71998C9.97048 6.64119 10.0147 6.53433 10.0147 6.4229C10.0147 6.31148 9.97048 6.20462 9.8917 6.12583C9.81291 6.04704 9.70605 6.00277 9.59462 6.00277H8.33424V4.74239Z" fill="#363330"/>
<path d="M1.19161 0.960938C1.08019 0.960938 0.973326 1.0052 0.894537 1.08399C0.815748 1.16278 0.771484 1.26964 0.771484 1.38106C0.771484 1.49249 0.815748 1.59935 0.894537 1.67814C0.973326 1.75693 1.08019 1.80119 1.19161 1.80119H2.12429L2.46124 3.15148L3.71994 9.86091C3.73796 9.95718 3.78905 10.0441 3.86439 10.1067C3.93972 10.1693 4.03455 10.2036 4.1325 10.2037H4.97276C4.52706 10.2037 4.09961 10.3808 3.78446 10.6959C3.4693 11.0111 3.29225 11.4385 3.29225 11.8842C3.29225 12.3299 3.4693 12.7574 3.78446 13.0725C4.09961 13.3877 4.52706 13.5648 4.97276 13.5648C5.41845 13.5648 5.8459 13.3877 6.16105 13.0725C6.47621 12.7574 6.65326 12.3299 6.65326 11.8842C6.65326 11.4385 6.47621 11.0111 6.16105 10.6959C5.8459 10.3808 5.41845 10.2037 4.97276 10.2037H10.8545C10.4088 10.2037 9.98139 10.3808 9.66624 10.6959C9.35108 11.0111 9.17403 11.4385 9.17403 11.8842C9.17403 12.3299 9.35108 12.7574 9.66624 13.0725C9.98139 13.3877 10.4088 13.5648 10.8545 13.5648C11.3002 13.5648 11.7277 13.3877 12.0428 13.0725C12.358 12.7574 12.535 12.3299 12.535 11.8842C12.535 11.4385 12.358 11.0111 12.0428 10.6959C11.7277 10.3808 11.3002 10.2037 10.8545 10.2037H11.6948C11.7927 10.2036 11.8876 10.1693 11.9629 10.1067C12.0382 10.0441 12.0893 9.95718 12.1074 9.86091L13.3677 3.13888C13.3791 3.07824 13.3769 3.01585 13.3615 2.95614C13.346 2.89642 13.3175 2.84085 13.2782 2.79337C13.2388 2.74588 13.1894 2.70766 13.1336 2.6814C13.0778 2.65514 13.0169 2.6415 12.9552 2.64145H3.19982L2.85952 1.27939C2.83684 1.18846 2.78441 1.10773 2.71057 1.05003C2.63672 0.992322 2.54571 0.960963 2.45199 0.960938H1.19161ZM4.48121 9.36348L3.37795 3.4817H12.4493L11.3461 9.36348H4.48121ZM5.81301 11.8842C5.81301 12.1071 5.72448 12.3208 5.56691 12.4784C5.40933 12.636 5.1956 12.7245 4.97276 12.7245C4.74991 12.7245 4.53618 12.636 4.37861 12.4784C4.22103 12.3208 4.1325 12.1071 4.1325 11.8842C4.1325 11.6614 4.22103 11.4477 4.37861 11.2901C4.53618 11.1325 4.74991 11.044 4.97276 11.044C5.1956 11.044 5.40933 11.1325 5.56691 11.2901C5.72448 11.4477 5.81301 11.6614 5.81301 11.8842ZM11.6948 11.8842C11.6948 12.1071 11.6063 12.3208 11.4487 12.4784C11.2911 12.636 11.0774 12.7245 10.8545 12.7245C10.6317 12.7245 10.418 12.636 10.2604 12.4784C10.1028 12.3208 10.0143 12.1071 10.0143 11.8842C10.0143 11.6614 10.1028 11.4477 10.2604 11.2901C10.418 11.1325 10.6317 11.044 10.8545 11.044C11.0774 11.044 11.2911 11.1325 11.4487 11.2901C11.6063 11.4477 11.6948 11.6614 11.6948 11.8842Z" fill="#363330"/>
</svg>
