<svg width="15" height="14" viewBox="0 0 15 14" fill="none" xmlns="http://www.w3.org/2000/svg">
<path d="M8.33424 5.04122C8.33424 4.9298 8.28998 4.82294 8.21119 4.74415C8.1324 4.66536 8.02554 4.62109 7.91411 4.62109C7.80269 4.62109 7.69583 4.66536 7.61704 4.74415C7.53825 4.82294 7.49398 4.9298 7.49398 5.04122V6.3016H6.2336C6.12218 6.3016 6.01532 6.34587 5.93653 6.42465C5.85774 6.50344 5.81348 6.6103 5.81348 6.72173C5.81348 6.83315 5.85774 6.94001 5.93653 7.0188C6.01532 7.09759 6.12218 7.14186 6.2336 7.14186H7.49398V8.40224C7.49398 8.51366 7.53825 8.62052 7.61704 8.69931C7.69583 8.7781 7.80269 8.82236 7.91411 8.82236C8.02554 8.82236 8.1324 8.7781 8.21119 8.69931C8.28998 8.62052 8.33424 8.51366 8.33424 8.40224V7.14186H9.59462C9.70605 7.14186 9.81291 7.09759 9.8917 7.0188C9.97048 6.94001 10.0147 6.83315 10.0147 6.72173C10.0147 6.6103 9.97048 6.50344 9.8917 6.42465C9.81291 6.34587 9.70605 6.3016 9.59462 6.3016H8.33424V5.04122Z" fill="#363330"/>
<path d="M1.19161 1.25977C1.08019 1.25977 0.973326 1.30403 0.894537 1.38282C0.815748 1.46161 0.771484 1.56847 0.771484 1.67989C0.771484 1.79132 0.815748 1.89818 0.894537 1.97697C0.973326 2.05576 1.08019 2.10002 1.19161 2.10002H2.12429L2.46124 3.45031L3.71994 10.1597C3.73796 10.256 3.78905 10.343 3.86439 10.4056C3.93972 10.4682 4.03455 10.5025 4.1325 10.5026H4.97276C4.52706 10.5026 4.09961 10.6796 3.78446 10.9948C3.4693 11.3099 3.29225 11.7374 3.29225 12.1831C3.29225 12.6288 3.4693 13.0562 3.78446 13.3714C4.09961 13.6865 4.52706 13.8636 4.97276 13.8636C5.41845 13.8636 5.8459 13.6865 6.16105 13.3714C6.47621 13.0562 6.65326 12.6288 6.65326 12.1831C6.65326 11.7374 6.47621 11.3099 6.16105 10.9948C5.8459 10.6796 5.41845 10.5026 4.97276 10.5026H10.8545C10.4088 10.5026 9.98139 10.6796 9.66624 10.9948C9.35108 11.3099 9.17403 11.7374 9.17403 12.1831C9.17403 12.6288 9.35108 13.0562 9.66624 13.3714C9.98139 13.6865 10.4088 13.8636 10.8545 13.8636C11.3002 13.8636 11.7277 13.6865 12.0428 13.3714C12.358 13.0562 12.535 12.6288 12.535 12.1831C12.535 11.7374 12.358 11.3099 12.0428 10.9948C11.7277 10.6796 11.3002 10.5026 10.8545 10.5026H11.6948C11.7927 10.5025 11.8876 10.4682 11.9629 10.4056C12.0382 10.343 12.0893 10.256 12.1074 10.1597L13.3677 3.4377C13.3791 3.37707 13.3769 3.31468 13.3615 3.25496C13.346 3.19525 13.3175 3.13968 13.2782 3.0922C13.2388 3.04471 13.1894 3.00649 13.1336 2.98023C13.0778 2.95397 13.0169 2.94033 12.9552 2.94027H3.19982L2.85952 1.57822C2.83684 1.48729 2.78441 1.40656 2.71057 1.34885C2.63672 1.29115 2.54571 1.25979 2.45199 1.25977H1.19161ZM4.48121 9.66231L3.37795 3.78053H12.4493L11.3461 9.66231H4.48121ZM5.81301 12.1831C5.81301 12.4059 5.72448 12.6196 5.56691 12.7772C5.40933 12.9348 5.1956 13.0233 4.97276 13.0233C4.74991 13.0233 4.53618 12.9348 4.37861 12.7772C4.22103 12.6196 4.1325 12.4059 4.1325 12.1831C4.1325 11.9602 4.22103 11.7465 4.37861 11.5889C4.53618 11.4313 4.74991 11.3428 4.97276 11.3428C5.1956 11.3428 5.40933 11.4313 5.56691 11.5889C5.72448 11.7465 5.81301 11.9602 5.81301 12.1831ZM11.6948 12.1831C11.6948 12.4059 11.6063 12.6196 11.4487 12.7772C11.2911 12.9348 11.0774 13.0233 10.8545 13.0233C10.6317 13.0233 10.418 12.9348 10.2604 12.7772C10.1028 12.6196 10.0143 12.4059 10.0143 12.1831C10.0143 11.9602 10.1028 11.7465 10.2604 11.5889C10.418 11.4313 10.6317 11.3428 10.8545 11.3428C11.0774 11.3428 11.2911 11.4313 11.4487 11.5889C11.6063 11.7465 11.6948 11.9602 11.6948 12.1831Z" fill="#363330"/>
</svg>
