<svg width="17" height="17" viewBox="0 0 17 17" fill="none" xmlns="http://www.w3.org/2000/svg">
<path d="M8.50696 4.22461C8.63957 4.22461 8.76675 4.27729 8.86052 4.37106C8.95429 4.46483 9.00697 4.59201 9.00697 4.72462V7.72472H12.0071C12.1397 7.72472 12.2669 7.7774 12.3606 7.87117C12.4544 7.96494 12.5071 8.09212 12.5071 8.22473C12.5071 8.35734 12.4544 8.48452 12.3606 8.5783C12.2669 8.67207 12.1397 8.72475 12.0071 8.72475H9.00697V11.7248C9.00697 11.8574 8.95429 11.9846 8.86052 12.0784C8.76675 12.1722 8.63957 12.2249 8.50696 12.2249C8.37435 12.2249 8.24716 12.1722 8.15339 12.0784C8.05962 11.9846 8.00694 11.8574 8.00694 11.7248V8.72475H5.00685C4.87424 8.72475 4.74706 8.67207 4.65329 8.5783C4.55952 8.48452 4.50684 8.35734 4.50684 8.22473C4.50684 8.09212 4.55952 7.96494 4.65329 7.87117C4.74706 7.7774 4.87424 7.72472 5.00685 7.72472H8.00694V4.72462C8.00694 4.59201 8.05962 4.46483 8.15339 4.37106C8.24716 4.27729 8.37435 4.22461 8.50696 4.22461Z" fill="#CFCCC9"/>
</svg>
