<svg width="17" height="17" viewBox="0 0 17 17" fill="none" xmlns="http://www.w3.org/2000/svg">
<path d="M8.50696 4.92969C8.63957 4.92969 8.76675 4.98237 8.86052 5.07614C8.95429 5.16991 9.00697 5.29709 9.00697 5.4297V8.42979H12.0071C12.1397 8.42979 12.2669 8.48247 12.3606 8.57625C12.4544 8.67002 12.5071 8.7972 12.5071 8.92981C12.5071 9.06242 12.4544 9.1896 12.3606 9.28337C12.2669 9.37714 12.1397 9.42982 12.0071 9.42982H9.00697V12.4299C9.00697 12.5625 8.95429 12.6897 8.86052 12.7835C8.76675 12.8773 8.63957 12.9299 8.50696 12.9299C8.37435 12.9299 8.24716 12.8773 8.15339 12.7835C8.05962 12.6897 8.00694 12.5625 8.00694 12.4299V9.42982H5.00685C4.87424 9.42982 4.74706 9.37714 4.65329 9.28337C4.55952 9.1896 4.50684 9.06242 4.50684 8.92981C4.50684 8.7972 4.55952 8.67002 4.65329 8.57625C4.74706 8.48247 4.87424 8.42979 5.00685 8.42979H8.00694V5.4297C8.00694 5.29709 8.05962 5.16991 8.15339 5.07614C8.24716 4.98237 8.37435 4.92969 8.50696 4.92969Z" fill="#CFCCC9"/>
</svg>
