<svg width="15" height="14" viewBox="0 0 15 14" fill="none" xmlns="http://www.w3.org/2000/svg">
<path d="M8.28639 4.74044C8.28639 4.62901 8.24212 4.52215 8.16334 4.44336C8.08455 4.36458 7.97769 4.32031 7.86626 4.32031C7.75484 4.32031 7.64797 4.36458 7.56919 4.44336C7.4904 4.52215 7.44613 4.62901 7.44613 4.74044V6.00082H6.18575C6.07433 6.00082 5.96747 6.04508 5.88868 6.12387C5.80989 6.20266 5.76562 6.30952 5.76562 6.42095C5.76562 6.53237 5.80989 6.63923 5.88868 6.71802C5.96747 6.79681 6.07433 6.84107 6.18575 6.84107H7.44613V8.10146C7.44613 8.21288 7.4904 8.31974 7.56919 8.39853C7.64797 8.47732 7.75484 8.52158 7.86626 8.52158C7.97769 8.52158 8.08455 8.47732 8.16334 8.39853C8.24212 8.31974 8.28639 8.21288 8.28639 8.10146V6.84107H9.54677C9.65819 6.84107 9.76505 6.79681 9.84384 6.71802C9.92263 6.63923 9.9669 6.53237 9.9669 6.42095C9.9669 6.30952 9.92263 6.20266 9.84384 6.12387C9.76505 6.04508 9.65819 6.00082 9.54677 6.00082H8.28639V4.74044Z" fill="#363330"/>
<path d="M1.14376 0.958984C1.03234 0.958984 0.925474 1.00325 0.846685 1.08204C0.767896 1.16083 0.723633 1.26769 0.723633 1.37911C0.723633 1.49054 0.767896 1.5974 0.846685 1.67619C0.925474 1.75498 1.03234 1.79924 1.14376 1.79924H2.07644L2.41338 3.14953L3.67209 9.85896C3.69011 9.95523 3.7412 10.0422 3.81653 10.1048C3.89187 10.1674 3.9867 10.2017 4.08465 10.2018H4.9249C4.47921 10.2018 4.05176 10.3788 3.7366 10.694C3.42145 11.0091 3.2444 11.4366 3.2444 11.8823C3.2444 12.328 3.42145 12.7554 3.7366 13.0706C4.05176 13.3857 4.47921 13.5628 4.9249 13.5628C5.3706 13.5628 5.79805 13.3857 6.1132 13.0706C6.42836 12.7554 6.60541 12.328 6.60541 11.8823C6.60541 11.4366 6.42836 11.0091 6.1132 10.694C5.79805 10.3788 5.3706 10.2018 4.9249 10.2018H10.8067C10.361 10.2018 9.93354 10.3788 9.61839 10.694C9.30323 11.0091 9.12617 11.4366 9.12617 11.8823C9.12617 12.328 9.30323 12.7554 9.61839 13.0706C9.93354 13.3857 10.361 13.5628 10.8067 13.5628C11.2524 13.5628 11.6798 13.3857 11.995 13.0706C12.3101 12.7554 12.4872 12.328 12.4872 11.8823C12.4872 11.4366 12.3101 11.0091 11.995 10.694C11.6798 10.3788 11.2524 10.2018 10.8067 10.2018H11.6469C11.7449 10.2017 11.8397 10.1674 11.9151 10.1048C11.9904 10.0422 12.0415 9.95523 12.0595 9.85896L13.3199 3.13692C13.3312 3.07629 13.3291 3.0139 13.3136 2.95418C13.2981 2.89447 13.2697 2.8389 13.2303 2.79141C13.1909 2.74393 13.1416 2.7057 13.0857 2.67945C13.0299 2.65319 12.969 2.63955 12.9073 2.63949H3.15197L2.81166 1.27744C2.78899 1.18651 2.73656 1.10578 2.66271 1.04807C2.58887 0.990368 2.49786 0.95901 2.40414 0.958984H1.14376ZM4.43336 9.36153L3.3301 3.47975H12.4015L11.2982 9.36153H4.43336ZM5.76516 11.8823C5.76516 12.1051 5.67663 12.3189 5.51905 12.4764C5.36147 12.634 5.14775 12.7225 4.9249 12.7225C4.70205 12.7225 4.48833 12.634 4.33075 12.4764C4.17318 12.3189 4.08465 12.1051 4.08465 11.8823C4.08465 11.6594 4.17318 11.4457 4.33075 11.2881C4.48833 11.1306 4.70205 11.042 4.9249 11.042C5.14775 11.042 5.36147 11.1306 5.51905 11.2881C5.67663 11.4457 5.76516 11.6594 5.76516 11.8823ZM11.6469 11.8823C11.6469 12.1051 11.5584 12.3189 11.4008 12.4764C11.2433 12.634 11.0295 12.7225 10.8067 12.7225C10.5838 12.7225 10.3701 12.634 10.2125 12.4764C10.055 12.3189 9.96643 12.1051 9.96643 11.8823C9.96643 11.6594 10.055 11.4457 10.2125 11.2881C10.3701 11.1306 10.5838 11.042 10.8067 11.042C11.0295 11.042 11.2433 11.1306 11.4008 11.2881C11.5584 11.4457 11.6469 11.6594 11.6469 11.8823Z" fill="#363330"/>
</svg>
