<svg width="14" height="14" viewBox="0 0 14 14" fill="none" xmlns="http://www.w3.org/2000/svg">
<path d="M7.61158 4.62521C7.61158 4.51378 7.56732 4.40692 7.48853 4.32813C7.40974 4.24934 7.30288 4.20508 7.19146 4.20508C7.08003 4.20508 6.97317 4.24934 6.89438 4.32813C6.81559 4.40692 6.77133 4.51378 6.77133 4.62521V5.88559H5.51095C5.39952 5.88559 5.29266 5.92985 5.21387 6.00864C5.13508 6.08743 5.09082 6.19429 5.09082 6.30571C5.09082 6.41714 5.13508 6.524 5.21387 6.60279C5.29266 6.68158 5.39952 6.72584 5.51095 6.72584H6.77133V7.98622C6.77133 8.09765 6.81559 8.20451 6.89438 8.2833C6.97317 8.36209 7.08003 8.40635 7.19146 8.40635C7.30288 8.40635 7.40974 8.36209 7.48853 8.2833C7.56732 8.20451 7.61158 8.09765 7.61158 7.98622V6.72584H8.87196C8.98339 6.72584 9.09025 6.68158 9.16904 6.60279C9.24783 6.524 9.29209 6.41714 9.29209 6.30571C9.29209 6.19429 9.24783 6.08743 9.16904 6.00864C9.09025 5.92985 8.98339 5.88559 8.87196 5.88559H7.61158V4.62521Z" fill="#363330"/>
<path d="M0.468955 0.84375C0.357531 0.84375 0.25067 0.888013 0.171881 0.966802C0.0930914 1.04559 0.0488281 1.15245 0.0488281 1.26388C0.0488281 1.3753 0.0930914 1.48216 0.171881 1.56095C0.25067 1.63974 0.357531 1.684 0.468955 1.684H1.40164L1.73858 3.03429L2.99728 9.74372C3.0153 9.84 3.0664 9.92695 3.14173 9.98955C3.21706 10.0521 3.3119 10.0865 3.40985 10.0865H4.2501C3.8044 10.0865 3.37696 10.2636 3.0618 10.5788C2.74664 10.8939 2.56959 11.3214 2.56959 11.7671C2.56959 12.2128 2.74664 12.6402 3.0618 12.9554C3.37696 13.2705 3.8044 13.4476 4.2501 13.4476C4.6958 13.4476 5.12324 13.2705 5.4384 12.9554C5.75355 12.6402 5.93061 12.2128 5.93061 11.7671C5.93061 11.3214 5.75355 10.8939 5.4384 10.5788C5.12324 10.2636 4.6958 10.0865 4.2501 10.0865H10.1319C9.68618 10.0865 9.25874 10.2636 8.94358 10.5788C8.62842 10.8939 8.45137 11.3214 8.45137 11.7671C8.45137 12.2128 8.62842 12.6402 8.94358 12.9554C9.25874 13.2705 9.68618 13.4476 10.1319 13.4476C10.5776 13.4476 11.005 13.2705 11.3202 12.9554C11.6353 12.6402 11.8124 12.2128 11.8124 11.7671C11.8124 11.3214 11.6353 10.8939 11.3202 10.5788C11.005 10.2636 10.5776 10.0865 10.1319 10.0865H10.9721C11.0701 10.0865 11.1649 10.0521 11.2402 9.98955C11.3156 9.92695 11.3667 9.84 11.3847 9.74372L12.6451 3.02169C12.6564 2.96105 12.6543 2.89866 12.6388 2.83895C12.6233 2.77923 12.5949 2.72366 12.5555 2.67618C12.5161 2.6287 12.4668 2.59047 12.4109 2.56421C12.3551 2.53796 12.2942 2.52432 12.2325 2.52426H2.47716L2.13686 1.16221C2.11418 1.07128 2.06175 0.990541 1.98791 0.932838C1.91407 0.875134 1.82305 0.843776 1.72934 0.84375H0.468955ZM3.75855 9.24629L2.6553 3.36451H11.7267L10.6234 9.24629H3.75855ZM5.09035 11.7671C5.09035 11.9899 5.00183 12.2036 4.84425 12.3612C4.68667 12.5188 4.47295 12.6073 4.2501 12.6073C4.02725 12.6073 3.81353 12.5188 3.65595 12.3612C3.49837 12.2036 3.40985 11.9899 3.40985 11.7671C3.40985 11.5442 3.49837 11.3305 3.65595 11.1729C3.81353 11.0153 4.02725 10.9268 4.2501 10.9268C4.47295 10.9268 4.68667 11.0153 4.84425 11.1729C5.00183 11.3305 5.09035 11.5442 5.09035 11.7671ZM10.9721 11.7671C10.9721 11.9899 10.8836 12.2036 10.726 12.3612C10.5684 12.5188 10.3547 12.6073 10.1319 12.6073C9.90903 12.6073 9.69531 12.5188 9.53773 12.3612C9.38015 12.2036 9.29163 11.9899 9.29163 11.7671C9.29163 11.5442 9.38015 11.3305 9.53773 11.1729C9.69531 11.0153 9.90903 10.9268 10.1319 10.9268C10.3547 10.9268 10.5684 11.0153 10.726 11.1729C10.8836 11.3305 10.9721 11.5442 10.9721 11.7671Z" fill="#363330"/>
</svg>
