<svg width="15" height="15" viewBox="0 0 15 15" fill="none" xmlns="http://www.w3.org/2000/svg">
<path d="M8.28639 5.45235C8.28639 5.34093 8.24212 5.23407 8.16334 5.15528C8.08455 5.07649 7.97769 5.03223 7.86626 5.03223C7.75484 5.03223 7.64797 5.07649 7.56919 5.15528C7.4904 5.23407 7.44613 5.34093 7.44613 5.45235V6.71273H6.18575C6.07433 6.71273 5.96747 6.757 5.88868 6.83579C5.80989 6.91458 5.76562 7.02144 5.76562 7.13286C5.76562 7.24429 5.80989 7.35115 5.88868 7.42994C5.96747 7.50873 6.07433 7.55299 6.18575 7.55299H7.44613V8.81337C7.44613 8.9248 7.4904 9.03166 7.56919 9.11045C7.64797 9.18923 7.75484 9.2335 7.86626 9.2335C7.97769 9.2335 8.08455 9.18923 8.16334 9.11045C8.24212 9.03166 8.28639 8.9248 8.28639 8.81337V7.55299H9.54677C9.65819 7.55299 9.76505 7.50873 9.84384 7.42994C9.92263 7.35115 9.9669 7.24429 9.9669 7.13286C9.9669 7.02144 9.92263 6.91458 9.84384 6.83579C9.76505 6.757 9.65819 6.71273 9.54677 6.71273H8.28639V5.45235Z" fill="#363330"/>
<path d="M1.14376 1.6709C1.03234 1.6709 0.925474 1.71516 0.846685 1.79395C0.767896 1.87274 0.723633 1.9796 0.723633 2.09103C0.723633 2.20245 0.767896 2.30931 0.846685 2.3881C0.925474 2.46689 1.03234 2.51115 1.14376 2.51115H2.07644L2.41338 3.86144L3.67209 10.5709C3.69011 10.6671 3.7412 10.7541 3.81653 10.8167C3.89187 10.8793 3.9867 10.9136 4.08465 10.9137H4.9249C4.47921 10.9137 4.05176 11.0907 3.7366 11.4059C3.42145 11.7211 3.2444 12.1485 3.2444 12.5942C3.2444 13.0399 3.42145 13.4673 3.7366 13.7825C4.05176 14.0977 4.47921 14.2747 4.9249 14.2747C5.3706 14.2747 5.79805 14.0977 6.1132 13.7825C6.42836 13.4673 6.60541 13.0399 6.60541 12.5942C6.60541 12.1485 6.42836 11.7211 6.1132 11.4059C5.79805 11.0907 5.3706 10.9137 4.9249 10.9137H10.8067C10.361 10.9137 9.93354 11.0907 9.61839 11.4059C9.30323 11.7211 9.12617 12.1485 9.12617 12.5942C9.12617 13.0399 9.30323 13.4673 9.61839 13.7825C9.93354 14.0977 10.361 14.2747 10.8067 14.2747C11.2524 14.2747 11.6798 14.0977 11.995 13.7825C12.3101 13.4673 12.4872 13.0399 12.4872 12.5942C12.4872 12.1485 12.3101 11.7211 11.995 11.4059C11.6798 11.0907 11.2524 10.9137 10.8067 10.9137H11.6469C11.7449 10.9136 11.8397 10.8793 11.9151 10.8167C11.9904 10.7541 12.0415 10.6671 12.0595 10.5709L13.3199 3.84884C13.3312 3.7882 13.3291 3.72581 13.3136 3.6661C13.2981 3.60638 13.2697 3.55081 13.2303 3.50333C13.1909 3.45585 13.1416 3.41762 13.0857 3.39136C13.0299 3.36511 12.969 3.35146 12.9073 3.35141H3.15197L2.81166 1.98935C2.78899 1.89843 2.73656 1.81769 2.66271 1.75999C2.58887 1.70228 2.49786 1.67092 2.40414 1.6709H1.14376ZM4.43336 10.0734L3.3301 4.19166H12.4015L11.2982 10.0734H4.43336ZM5.76516 12.5942C5.76516 12.8171 5.67663 13.0308 5.51905 13.1884C5.36147 13.3459 5.14775 13.4345 4.9249 13.4345C4.70205 13.4345 4.48833 13.3459 4.33075 13.1884C4.17318 13.0308 4.08465 12.8171 4.08465 12.5942C4.08465 12.3714 4.17318 12.1576 4.33075 12.0001C4.48833 11.8425 4.70205 11.7539 4.9249 11.7539C5.14775 11.7539 5.36147 11.8425 5.51905 12.0001C5.67663 12.1576 5.76516 12.3714 5.76516 12.5942ZM11.6469 12.5942C11.6469 12.8171 11.5584 13.0308 11.4008 13.1884C11.2433 13.3459 11.0295 13.4345 10.8067 13.4345C10.5838 13.4345 10.3701 13.3459 10.2125 13.1884C10.055 13.0308 9.96643 12.8171 9.96643 12.5942C9.96643 12.3714 10.055 12.1576 10.2125 12.0001C10.3701 11.8425 10.5838 11.7539 10.8067 11.7539C11.0295 11.7539 11.2433 11.8425 11.4008 12.0001C11.5584 12.1576 11.6469 12.3714 11.6469 12.5942Z" fill="#363330"/>
</svg>
