<svg width="14" height="14" viewBox="0 0 14 14" fill="none" xmlns="http://www.w3.org/2000/svg">
<path d="M7.56471 4.9338C7.56471 4.82237 7.52044 4.71551 7.44166 4.63672C7.36287 4.55794 7.25601 4.51367 7.14458 4.51367C7.03316 4.51367 6.92629 4.55794 6.84751 4.63672C6.76872 4.71551 6.72445 4.82237 6.72445 4.9338V6.19418H5.46407C5.35265 6.19418 5.24579 6.23844 5.167 6.31723C5.08821 6.39602 5.04395 6.50288 5.04395 6.61431C5.04395 6.72573 5.08821 6.83259 5.167 6.91138C5.24579 6.99017 5.35265 7.03443 5.46407 7.03443H6.72445V8.29482C6.72445 8.40624 6.76872 8.5131 6.84751 8.59189C6.92629 8.67068 7.03316 8.71494 7.14458 8.71494C7.25601 8.71494 7.36287 8.67068 7.44166 8.59189C7.52044 8.5131 7.56471 8.40624 7.56471 8.29482V7.03443H8.82509C8.93651 7.03443 9.04338 6.99017 9.12216 6.91138C9.20095 6.83259 9.24522 6.72573 9.24522 6.61431C9.24522 6.50288 9.20095 6.39602 9.12216 6.31723C9.04338 6.23844 8.93651 6.19418 8.82509 6.19418H7.56471V4.9338Z" fill="#363330"/>
<path d="M0.42208 1.15234C0.310656 1.15234 0.203795 1.19661 0.125006 1.2754C0.0462164 1.35419 0.00195313 1.46105 0.00195312 1.57247C0.00195313 1.6839 0.0462164 1.79076 0.125006 1.86955C0.203795 1.94833 0.310656 1.9926 0.42208 1.9926H1.35476L1.6917 3.34289L2.95041 10.0523C2.96843 10.1486 3.01952 10.2355 3.09485 10.2981C3.17019 10.3607 3.26502 10.395 3.36297 10.3951H4.20322C3.75753 10.3951 3.33008 10.5722 3.01493 10.8874C2.69977 11.2025 2.52272 11.6299 2.52272 12.0756C2.52272 12.5213 2.69977 12.9488 3.01493 13.2639C3.33008 13.5791 3.75753 13.7562 4.20322 13.7562C4.64892 13.7562 5.07637 13.5791 5.39152 13.2639C5.70668 12.9488 5.88373 12.5213 5.88373 12.0756C5.88373 11.6299 5.70668 11.2025 5.39152 10.8874C5.07637 10.5722 4.64892 10.3951 4.20322 10.3951H10.085C9.63931 10.3951 9.21186 10.5722 8.89671 10.8874C8.58155 11.2025 8.4045 11.6299 8.4045 12.0756C8.4045 12.5213 8.58155 12.9488 8.89671 13.2639C9.21186 13.5791 9.63931 13.7562 10.085 13.7562C10.5307 13.7562 10.9581 13.5791 11.2733 13.2639C11.5885 12.9488 11.7655 12.5213 11.7655 12.0756C11.7655 11.6299 11.5885 11.2025 11.2733 10.8874C10.9581 10.5722 10.5307 10.3951 10.085 10.3951H10.9253C11.0232 10.395 11.118 10.3607 11.1934 10.2981C11.2687 10.2355 11.3198 10.1486 11.3378 10.0523L12.5982 3.33028C12.6096 3.26965 12.6074 3.20726 12.5919 3.14754C12.5765 3.08783 12.548 3.03226 12.5086 2.98477C12.4692 2.93729 12.4199 2.89906 12.3641 2.87281C12.3082 2.84655 12.2473 2.83291 12.1856 2.83285H2.43029L2.08998 1.4708C2.06731 1.37987 2.01488 1.29914 1.94103 1.24143C1.86719 1.18373 1.77618 1.15237 1.68246 1.15234H0.42208ZM3.71168 9.55489L2.60842 3.67311H11.6798L10.5766 9.55489H3.71168ZM5.04348 12.0756C5.04348 12.2985 4.95495 12.5122 4.79737 12.6698C4.6398 12.8274 4.42607 12.9159 4.20322 12.9159C3.98038 12.9159 3.76665 12.8274 3.60908 12.6698C3.4515 12.5122 3.36297 12.2985 3.36297 12.0756C3.36297 11.8528 3.4515 11.6391 3.60908 11.4815C3.76665 11.3239 3.98038 11.2354 4.20322 11.2354C4.42607 11.2354 4.6398 11.3239 4.79737 11.4815C4.95495 11.6391 5.04348 11.8528 5.04348 12.0756ZM10.9253 12.0756C10.9253 12.2985 10.8367 12.5122 10.6792 12.6698C10.5216 12.8274 10.3079 12.9159 10.085 12.9159C9.86215 12.9159 9.64843 12.8274 9.49086 12.6698C9.33328 12.5122 9.24475 12.2985 9.24475 12.0756C9.24475 11.8528 9.33328 11.6391 9.49086 11.4815C9.64843 11.3239 9.86215 11.2354 10.085 11.2354C10.3079 11.2354 10.5216 11.3239 10.6792 11.4815C10.8367 11.6391 10.9253 11.8528 10.9253 12.0756Z" fill="#363330"/>
</svg>
