<svg width="15" height="14" viewBox="0 0 15 14" fill="none" xmlns="http://www.w3.org/2000/svg">
<path d="M8.3401 4.92306C8.3401 4.81163 8.29584 4.70477 8.21705 4.62598C8.13826 4.54719 8.0314 4.50293 7.91997 4.50293C7.80855 4.50293 7.70169 4.54719 7.6229 4.62598C7.54411 4.70477 7.49984 4.81163 7.49984 4.92306V6.18344H6.23946C6.12804 6.18344 6.02118 6.2277 5.94239 6.30649C5.8636 6.38528 5.81934 6.49214 5.81934 6.60357C5.81934 6.71499 5.8636 6.82185 5.94239 6.90064C6.02118 6.97943 6.12804 7.02369 6.23946 7.02369H7.49984V8.28407C7.49984 8.3955 7.54411 8.50236 7.6229 8.58115C7.70169 8.65994 7.80855 8.7042 7.91997 8.7042C8.0314 8.7042 8.13826 8.65994 8.21705 8.58115C8.29584 8.50236 8.3401 8.3955 8.3401 8.28407V7.02369H9.60048C9.7119 7.02369 9.81877 6.97943 9.89755 6.90064C9.97634 6.82185 10.0206 6.71499 10.0206 6.60357C10.0206 6.49214 9.97634 6.38528 9.89755 6.30649C9.81877 6.2277 9.7119 6.18344 9.60048 6.18344H8.3401V4.92306Z" fill="#363330"/>
<path d="M1.19747 1.1416C1.08605 1.1416 0.979185 1.18586 0.900396 1.26465C0.821607 1.34344 0.777344 1.4503 0.777344 1.56173C0.777344 1.67315 0.821607 1.78001 0.900396 1.8588C0.979185 1.93759 1.08605 1.98186 1.19747 1.98186H2.13015L2.4671 3.33214L3.7258 10.0416C3.74382 10.1378 3.79491 10.2248 3.87024 10.2874C3.94558 10.35 4.04041 10.3843 4.13836 10.3844H4.97861C4.53292 10.3844 4.10547 10.5615 3.79032 10.8766C3.47516 11.1918 3.29811 11.6192 3.29811 12.0649C3.29811 12.5106 3.47516 12.938 3.79032 13.2532C4.10547 13.5684 4.53292 13.7454 4.97861 13.7454C5.42431 13.7454 5.85176 13.5684 6.16691 13.2532C6.48207 12.938 6.65912 12.5106 6.65912 12.0649C6.65912 11.6192 6.48207 11.1918 6.16691 10.8766C5.85176 10.5615 5.42431 10.3844 4.97861 10.3844H10.8604C10.4147 10.3844 9.98725 10.5615 9.6721 10.8766C9.35694 11.1918 9.17989 11.6192 9.17989 12.0649C9.17989 12.5106 9.35694 12.938 9.6721 13.2532C9.98725 13.5684 10.4147 13.7454 10.8604 13.7454C11.3061 13.7454 11.7335 13.5684 12.0487 13.2532C12.3638 12.938 12.5409 12.5106 12.5409 12.0649C12.5409 11.6192 12.3638 11.1918 12.0487 10.8766C11.7335 10.5615 11.3061 10.3844 10.8604 10.3844H11.7006C11.7986 10.3843 11.8934 10.35 11.9688 10.2874C12.0441 10.2248 12.0952 10.1378 12.1132 10.0416L13.3736 3.31954C13.3849 3.25891 13.3828 3.19651 13.3673 3.1368C13.3518 3.07709 13.3234 3.02151 13.284 2.97403C13.2446 2.92655 13.1953 2.88832 13.1395 2.86206C13.0836 2.83581 13.0227 2.82217 12.961 2.82211H3.20568L2.86538 1.46006C2.8427 1.36913 2.79027 1.28839 2.71642 1.23069C2.64258 1.17299 2.55157 1.14163 2.45785 1.1416H1.19747ZM4.48707 9.54414L3.38381 3.66236H12.4552L11.3519 9.54414H4.48707ZM5.81887 12.0649C5.81887 12.2878 5.73034 12.5015 5.57276 12.6591C5.41519 12.8166 5.20146 12.9052 4.97861 12.9052C4.75577 12.9052 4.54204 12.8166 4.38447 12.6591C4.22689 12.5015 4.13836 12.2878 4.13836 12.0649C4.13836 11.8421 4.22689 11.6283 4.38447 11.4708C4.54204 11.3132 4.75577 11.2247 4.97861 11.2247C5.20146 11.2247 5.41519 11.3132 5.57276 11.4708C5.73034 11.6283 5.81887 11.8421 5.81887 12.0649ZM11.7006 12.0649C11.7006 12.2878 11.6121 12.5015 11.4545 12.6591C11.297 12.8166 11.0832 12.9052 10.8604 12.9052C10.6375 12.9052 10.4238 12.8166 10.2662 12.6591C10.1087 12.5015 10.0201 12.2878 10.0201 12.0649C10.0201 11.8421 10.1087 11.6283 10.2662 11.4708C10.4238 11.3132 10.6375 11.2247 10.8604 11.2247C11.0832 11.2247 11.297 11.3132 11.4545 11.4708C11.6121 11.6283 11.7006 11.8421 11.7006 12.0649Z" fill="#363330"/>
</svg>
