<svg width="14" height="15" viewBox="0 0 14 15" fill="none" xmlns="http://www.w3.org/2000/svg">
<path d="M7.90455 5.39278C7.90455 5.28136 7.86029 5.1745 7.7815 5.09571C7.70271 5.01692 7.59585 4.97266 7.48442 4.97266C7.373 4.97266 7.26614 5.01692 7.18735 5.09571C7.10856 5.1745 7.0643 5.28136 7.0643 5.39278V6.65316H5.80392C5.69249 6.65316 5.58563 6.69743 5.50684 6.77622C5.42805 6.85501 5.38379 6.96187 5.38379 7.07329C5.38379 7.18472 5.42805 7.29158 5.50684 7.37037C5.58563 7.44916 5.69249 7.49342 5.80392 7.49342H7.0643V8.7538C7.0643 8.86522 7.10856 8.97209 7.18735 9.05088C7.26614 9.12966 7.373 9.17393 7.48442 9.17393C7.59585 9.17393 7.70271 9.12966 7.7815 9.05088C7.86029 8.97209 7.90455 8.86522 7.90455 8.7538V7.49342H9.16493C9.27636 7.49342 9.38322 7.44916 9.46201 7.37037C9.5408 7.29158 9.58506 7.18472 9.58506 7.07329C9.58506 6.96187 9.5408 6.85501 9.46201 6.77622C9.38322 6.69743 9.27636 6.65316 9.16493 6.65316H7.90455V5.39278Z" fill="#363330"/>
<path d="M0.761924 1.61133C0.650499 1.61133 0.543638 1.65559 0.464849 1.73438C0.38606 1.81317 0.341797 1.92003 0.341797 2.03146C0.341797 2.14288 0.38606 2.24974 0.464849 2.32853C0.543638 2.40732 0.650499 2.45158 0.761924 2.45158H1.69461L2.03155 3.80187L3.29025 10.5113C3.30827 10.6076 3.35936 10.6945 3.4347 10.7571C3.51003 10.8197 3.60487 10.854 3.70281 10.8541H4.54307C4.09737 10.8541 3.66993 11.0312 3.35477 11.3463C3.03961 11.6615 2.86256 12.0889 2.86256 12.5346C2.86256 12.9803 3.03961 13.4078 3.35477 13.7229C3.66993 14.0381 4.09737 14.2151 4.54307 14.2151C4.98877 14.2151 5.41621 14.0381 5.73137 13.7229C6.04652 13.4078 6.22358 12.9803 6.22358 12.5346C6.22358 12.0889 6.04652 11.6615 5.73137 11.3463C5.41621 11.0312 4.98877 10.8541 4.54307 10.8541H10.4248C9.97915 10.8541 9.55171 11.0312 9.23655 11.3463C8.92139 11.6615 8.74434 12.0889 8.74434 12.5346C8.74434 12.9803 8.92139 13.4078 9.23655 13.7229C9.55171 14.0381 9.97915 14.2151 10.4248 14.2151C10.8705 14.2151 11.298 14.0381 11.6131 13.7229C11.9283 13.4078 12.1054 12.9803 12.1054 12.5346C12.1054 12.0889 11.9283 11.6615 11.6131 11.3463C11.298 11.0312 10.8705 10.8541 10.4248 10.8541H11.2651C11.363 10.854 11.4579 10.8197 11.5332 10.7571C11.6086 10.6945 11.6596 10.6076 11.6777 10.5113L12.938 3.78927C12.9494 3.72863 12.9473 3.66624 12.9318 3.60653C12.9163 3.54681 12.8879 3.49124 12.8485 3.44376C12.8091 3.39628 12.7597 3.35805 12.7039 3.33179C12.6481 3.30553 12.5872 3.29189 12.5255 3.29184H2.77013L2.42983 1.92978C2.40715 1.83886 2.35472 1.75812 2.28088 1.70042C2.20704 1.64271 2.11602 1.61135 2.02231 1.61133H0.761924ZM4.05152 10.0139L2.94827 4.13209H12.0197L10.9164 10.0139H4.05152V10.0139ZM5.38332 12.5346C5.38332 12.7575 5.2948 12.9712 5.13722 13.1288C4.97964 13.2864 4.76592 13.3749 4.54307 13.3749C4.32022 13.3749 4.1065 13.2864 3.94892 13.1288C3.79134 12.9712 3.70281 12.7575 3.70281 12.5346C3.70281 12.3118 3.79134 12.0981 3.94892 11.9405C4.1065 11.7829 4.32022 11.6944 4.54307 11.6944C4.76592 11.6944 4.97964 11.7829 5.13722 11.9405C5.2948 12.0981 5.38332 12.3118 5.38332 12.5346V12.5346ZM11.2651 12.5346C11.2651 12.7575 11.1766 12.9712 11.019 13.1288C10.8614 13.2864 10.6477 13.3749 10.4248 13.3749C10.202 13.3749 9.98828 13.2864 9.8307 13.1288C9.67312 12.9712 9.58459 12.7575 9.58459 12.5346C9.58459 12.3118 9.67312 12.0981 9.8307 11.9405C9.98828 11.7829 10.202 11.6944 10.4248 11.6944C10.6477 11.6944 10.8614 11.7829 11.019 11.9405C11.1766 12.0981 11.2651 12.3118 11.2651 12.5346V12.5346Z" fill="#363330"/>
</svg>
