<svg width="15" height="14" viewBox="0 0 15 14" fill="none" xmlns="http://www.w3.org/2000/svg">
<path d="M8.33424 4.7629C8.33424 4.65148 8.28998 4.54462 8.21119 4.46583C8.1324 4.38704 8.02554 4.34277 7.91411 4.34277C7.80269 4.34277 7.69583 4.38704 7.61704 4.46583C7.53825 4.54462 7.49398 4.65148 7.49398 4.7629V6.02328H6.2336C6.12218 6.02328 6.01532 6.06755 5.93653 6.14633C5.85774 6.22512 5.81348 6.33198 5.81348 6.44341C5.81348 6.55483 5.85774 6.66169 5.93653 6.74048C6.01532 6.81927 6.12218 6.86354 6.2336 6.86354H7.49398V8.12392C7.49398 8.23534 7.53825 8.3422 7.61704 8.42099C7.69583 8.49978 7.80269 8.54404 7.91411 8.54404C8.02554 8.54404 8.1324 8.49978 8.21119 8.42099C8.28998 8.3422 8.33424 8.23534 8.33424 8.12392V6.86354H9.59462C9.70605 6.86354 9.81291 6.81927 9.8917 6.74048C9.97048 6.66169 10.0147 6.55483 10.0147 6.44341C10.0147 6.33198 9.97048 6.22512 9.8917 6.14633C9.81291 6.06755 9.70605 6.02328 9.59462 6.02328H8.33424V4.7629Z" fill="#363330"/>
<path d="M1.19161 0.981445C1.08019 0.981445 0.973326 1.02571 0.894537 1.1045C0.815748 1.18329 0.771484 1.29015 0.771484 1.40157C0.771484 1.513 0.815748 1.61986 0.894537 1.69865C0.973326 1.77744 1.08019 1.8217 1.19161 1.8217H2.12429L2.46124 3.17199L3.71994 9.88142C3.73796 9.97769 3.78905 10.0646 3.86439 10.1272C3.93972 10.1898 4.03455 10.2242 4.1325 10.2242H4.97276C4.52706 10.2242 4.09961 10.4013 3.78446 10.7165C3.4693 11.0316 3.29225 11.4591 3.29225 11.9047C3.29225 12.3504 3.4693 12.7779 3.78446 13.093C4.09961 13.4082 4.52706 13.5853 4.97276 13.5853C5.41845 13.5853 5.8459 13.4082 6.16105 13.093C6.47621 12.7779 6.65326 12.3504 6.65326 11.9047C6.65326 11.4591 6.47621 11.0316 6.16105 10.7165C5.8459 10.4013 5.41845 10.2242 4.97276 10.2242H10.8545C10.4088 10.2242 9.98139 10.4013 9.66624 10.7165C9.35108 11.0316 9.17403 11.4591 9.17403 11.9047C9.17403 12.3504 9.35108 12.7779 9.66624 13.093C9.98139 13.4082 10.4088 13.5853 10.8545 13.5853C11.3002 13.5853 11.7277 13.4082 12.0428 13.093C12.358 12.7779 12.535 12.3504 12.535 11.9047C12.535 11.4591 12.358 11.0316 12.0428 10.7165C11.7277 10.4013 11.3002 10.2242 10.8545 10.2242H11.6948C11.7927 10.2242 11.8876 10.1898 11.9629 10.1272C12.0382 10.0646 12.0893 9.97769 12.1074 9.88142L13.3677 3.15938C13.3791 3.09875 13.3769 3.03636 13.3615 2.97664C13.346 2.91693 13.3175 2.86136 13.2782 2.81387C13.2388 2.76639 13.1894 2.72817 13.1336 2.70191C13.0778 2.67565 13.0169 2.66201 12.9552 2.66195H3.19982L2.85952 1.2999C2.83684 1.20897 2.78441 1.12824 2.71057 1.07053C2.63672 1.01283 2.54571 0.981471 2.45199 0.981445H1.19161ZM4.48121 9.38399L3.37795 3.50221H12.4493L11.3461 9.38399H4.48121ZM5.81301 11.9047C5.81301 12.1276 5.72448 12.3413 5.56691 12.4989C5.40933 12.6565 5.1956 12.745 4.97276 12.745C4.74991 12.745 4.53618 12.6565 4.37861 12.4989C4.22103 12.3413 4.1325 12.1276 4.1325 11.9047C4.1325 11.6819 4.22103 11.4682 4.37861 11.3106C4.53618 11.153 4.74991 11.0645 4.97276 11.0645C5.1956 11.0645 5.40933 11.153 5.56691 11.3106C5.72448 11.4682 5.81301 11.6819 5.81301 11.9047ZM11.6948 11.9047C11.6948 12.1276 11.6063 12.3413 11.4487 12.4989C11.2911 12.6565 11.0774 12.745 10.8545 12.745C10.6317 12.745 10.418 12.6565 10.2604 12.4989C10.1028 12.3413 10.0143 12.1276 10.0143 11.9047C10.0143 11.6819 10.1028 11.4682 10.2604 11.3106C10.418 11.153 10.6317 11.0645 10.8545 11.0645C11.0774 11.0645 11.2911 11.153 11.4487 11.3106C11.6063 11.4682 11.6948 11.6819 11.6948 11.9047Z" fill="#363330"/>
</svg>
