<svg width="14" height="15" viewBox="0 0 14 15" fill="none" xmlns="http://www.w3.org/2000/svg">
<path d="M8.06373 5.39278C8.06373 5.28136 8.01947 5.1745 7.94068 5.09571C7.86189 5.01692 7.75503 4.97266 7.6436 4.97266C7.53218 4.97266 7.42532 5.01692 7.34653 5.09571C7.26774 5.1745 7.22348 5.28136 7.22348 5.39278V6.65316H5.9631C5.85167 6.65316 5.74481 6.69743 5.66602 6.77622C5.58723 6.85501 5.54297 6.96187 5.54297 7.07329C5.54297 7.18472 5.58723 7.29158 5.66602 7.37037C5.74481 7.44916 5.85167 7.49342 5.9631 7.49342H7.22348V8.7538C7.22348 8.86522 7.26774 8.97209 7.34653 9.05088C7.42532 9.12966 7.53218 9.17393 7.6436 9.17393C7.75503 9.17393 7.86189 9.12966 7.94068 9.05088C8.01947 8.97209 8.06373 8.86522 8.06373 8.7538V7.49342H9.32411C9.43554 7.49342 9.5424 7.44916 9.62119 7.37037C9.69998 7.29158 9.74424 7.18472 9.74424 7.07329C9.74424 6.96187 9.69998 6.85501 9.62119 6.77622C9.5424 6.69743 9.43554 6.65316 9.32411 6.65316H8.06373V5.39278Z" fill="#363330"/>
<path d="M0.921104 1.61133C0.809679 1.61133 0.702818 1.65559 0.624029 1.73438C0.54524 1.81317 0.500977 1.92003 0.500977 2.03146C0.500977 2.14288 0.54524 2.24974 0.624029 2.32853C0.702818 2.40732 0.809679 2.45158 0.921104 2.45158H1.85379L2.19073 3.80187L3.44943 10.5113C3.46745 10.6076 3.51854 10.6945 3.59388 10.7571C3.66921 10.8197 3.76405 10.854 3.86199 10.8541H4.70225C4.25655 10.8541 3.82911 11.0312 3.51395 11.3463C3.19879 11.6615 3.02174 12.0889 3.02174 12.5346C3.02174 12.9803 3.19879 13.4078 3.51395 13.7229C3.82911 14.0381 4.25655 14.2151 4.70225 14.2151C5.14795 14.2151 5.57539 14.0381 5.89055 13.7229C6.2057 13.4078 6.38276 12.9803 6.38276 12.5346C6.38276 12.0889 6.2057 11.6615 5.89055 11.3463C5.57539 11.0312 5.14795 10.8541 4.70225 10.8541H10.584C10.1383 10.8541 9.71089 11.0312 9.39573 11.3463C9.08057 11.6615 8.90352 12.0889 8.90352 12.5346C8.90352 12.9803 9.08057 13.4078 9.39573 13.7229C9.71089 14.0381 10.1383 14.2151 10.584 14.2151C11.0297 14.2151 11.4572 14.0381 11.7723 13.7229C12.0875 13.4078 12.2645 12.9803 12.2645 12.5346C12.2645 12.0889 12.0875 11.6615 11.7723 11.3463C11.4572 11.0312 11.0297 10.8541 10.584 10.8541H11.4243C11.5222 10.854 11.6171 10.8197 11.6924 10.7571C11.7677 10.6945 11.8188 10.6076 11.8368 10.5113L13.0972 3.78927C13.1086 3.72863 13.1064 3.66624 13.091 3.60653C13.0755 3.54681 13.047 3.49124 13.0077 3.44376C12.9683 3.39628 12.9189 3.35805 12.8631 3.33179C12.8073 3.30553 12.7464 3.29189 12.6847 3.29184H2.92931L2.58901 1.92978C2.56633 1.83886 2.5139 1.75812 2.44006 1.70042C2.36621 1.64271 2.2752 1.61135 2.18149 1.61133H0.921104ZM4.2107 10.0139L3.10745 4.13209H12.1788L11.0756 10.0139H4.2107ZM5.5425 12.5346C5.5425 12.7575 5.45398 12.9712 5.2964 13.1288C5.13882 13.2864 4.9251 13.3749 4.70225 13.3749C4.4794 13.3749 4.26568 13.2864 4.1081 13.1288C3.95052 12.9712 3.86199 12.7575 3.86199 12.5346C3.86199 12.3118 3.95052 12.0981 4.1081 11.9405C4.26568 11.7829 4.4794 11.6944 4.70225 11.6944C4.9251 11.6944 5.13882 11.7829 5.2964 11.9405C5.45398 12.0981 5.5425 12.3118 5.5425 12.5346ZM11.4243 12.5346C11.4243 12.7575 11.3358 12.9712 11.1782 13.1288C11.0206 13.2864 10.8069 13.3749 10.584 13.3749C10.3612 13.3749 10.1475 13.2864 9.98988 13.1288C9.8323 12.9712 9.74377 12.7575 9.74377 12.5346C9.74377 12.3118 9.8323 12.0981 9.98988 11.9405C10.1475 11.7829 10.3612 11.6944 10.584 11.6944C10.8069 11.6944 11.0206 11.7829 11.1782 11.9405C11.3358 12.0981 11.4243 12.3118 11.4243 12.5346Z" fill="#363330"/>
</svg>
