<svg width="17" height="17" viewBox="0 0 17 17" fill="none" xmlns="http://www.w3.org/2000/svg">
<path d="M8.50696 4.74023C8.63957 4.74023 8.76675 4.79291 8.86052 4.88669C8.95429 4.98046 9.00697 5.10764 9.00697 5.24025V8.24034H12.0071C12.1397 8.24034 12.2669 8.29302 12.3606 8.38679C12.4544 8.48056 12.5071 8.60774 12.5071 8.74036C12.5071 8.87297 12.4544 9.00015 12.3606 9.09392C12.2669 9.18769 12.1397 9.24037 12.0071 9.24037H9.00697V12.2405C9.00697 12.3731 8.95429 12.5003 8.86052 12.594C8.76675 12.6878 8.63957 12.7405 8.50696 12.7405C8.37435 12.7405 8.24716 12.6878 8.15339 12.594C8.05962 12.5003 8.00694 12.3731 8.00694 12.2405V9.24037H5.00685C4.87424 9.24037 4.74706 9.18769 4.65329 9.09392C4.55952 9.00015 4.50684 8.87297 4.50684 8.74036C4.50684 8.60774 4.55952 8.48056 4.65329 8.38679C4.74706 8.29302 4.87424 8.24034 5.00685 8.24034H8.00694V5.24025C8.00694 5.10764 8.05962 4.98046 8.15339 4.88669C8.24716 4.79291 8.37435 4.74023 8.50696 4.74023Z" fill="#CFCCC9"/>
</svg>
