<svg width="17" height="17" viewBox="0 0 17 17" fill="none" xmlns="http://www.w3.org/2000/svg">
<path d="M8.50696 4.03711C8.63957 4.03711 8.76675 4.08979 8.86052 4.18356C8.95429 4.27733 9.00697 4.40451 9.00697 4.53712V7.53722H12.0071C12.1397 7.53722 12.2669 7.5899 12.3606 7.68367C12.4544 7.77744 12.5071 7.90462 12.5071 8.03723C12.5071 8.16984 12.4544 8.29702 12.3606 8.3908C12.2669 8.48457 12.1397 8.53725 12.0071 8.53725H9.00697V11.5373C9.00697 11.6699 8.95429 11.7971 8.86052 11.8909C8.76675 11.9847 8.63957 12.0374 8.50696 12.0374C8.37435 12.0374 8.24716 11.9847 8.15339 11.8909C8.05962 11.7971 8.00694 11.6699 8.00694 11.5373V8.53725H5.00685C4.87424 8.53725 4.74706 8.48457 4.65329 8.3908C4.55952 8.29702 4.50684 8.16984 4.50684 8.03723C4.50684 7.90462 4.55952 7.77744 4.65329 7.68367C4.74706 7.5899 4.87424 7.53722 5.00685 7.53722H8.00694V4.53712C8.00694 4.40451 8.05962 4.27733 8.15339 4.18356C8.24716 4.08979 8.37435 4.03711 8.50696 4.03711Z" fill="#CFCCC9"/>
</svg>
