<svg width="34" height="33" viewBox="0 0 34 33" fill="none" xmlns="http://www.w3.org/2000/svg">
<path d="M17.1318 32.9227C26.1315 32.9227 33.4266 25.6276 33.4266 16.6278C33.4266 7.6281 26.1315 0.333008 17.1318 0.333008C8.13201 0.333008 0.836914 7.6281 0.836914 16.6278C0.836914 25.6276 8.13201 32.9227 17.1318 32.9227Z" stroke="#250A20" stroke-width="0.673646"/>
<path d="M13.743 5.87409C15.4189 6.69561 20.6848 5.83301 20.6027 5.22509M13.7307 7.38158C13.7307 7.38158 15.078 7.69376 17.1071 7.46373C19.1239 7.23781 19.9948 6.88456 20.537 6.48202M13.7266 8.53581C13.7266 8.53581 15.1971 8.90139 17.485 8.56457C19.7729 8.22774 20.4261 7.74716 20.537 7.49248M13.7841 9.63665C13.8375 9.79274 18.4955 10.3432 20.537 8.59332M13.7717 10.7375C14.0305 10.9963 19.2595 11.444 20.537 9.63665M13.7594 11.7603C13.7594 11.7603 13.9073 11.9287 14.4372 11.9821C15.9981 12.1423 19.4156 12.171 20.537 10.8196M13.7717 12.9597C13.7717 12.9597 15.7064 13.5348 18.249 12.9597C20.348 12.4832 20.4261 12.0396 20.537 11.7603M13.973 14.04C13.973 14.04 15.0615 14.5493 17.4029 14.1509M19.2554 13.7566C19.3375 13.7278 20.7547 13.1363 20.4795 12.627M14.1086 15.108C14.1086 15.108 14.6261 15.5598 16.7785 15.2764M19.1198 14.7958C19.1732 14.7958 20.3193 14.6274 20.3439 13.8346M14.2975 16.2335C14.2975 16.2335 14.6261 16.6278 16.5854 16.3731M19.0377 15.8638C19.1198 15.8638 20.2084 15.5269 20.2084 14.804M14.4331 17.2727C14.4865 17.2727 14.6015 17.6095 16.5854 17.4411M18.9268 16.9605C18.9268 16.9605 20.1262 16.5374 20.044 16.0568M14.5974 18.3694C14.5974 18.3694 14.9794 18.6528 16.5033 18.5091M18.9227 18.0572C19.0377 18.0285 19.7154 17.7984 19.888 17.1536M14.7576 19.4661C14.7576 19.4661 15.0287 19.7496 16.5033 19.577M18.7337 19.154C18.7337 19.154 19.5717 18.8993 19.736 18.2215M14.8972 20.4807C14.8972 20.4807 15.2258 20.875 16.5074 20.6779M18.631 20.226C18.631 20.226 19.699 19.7742 19.5552 19.1663M15.0328 21.5528C15.0615 21.5528 15.3614 21.8362 16.5033 21.6925M18.5448 21.2406C18.6228 21.2119 19.5142 20.8299 19.4115 20.2384M16.1213 22.1155C16.1213 22.1155 17.5631 22.592 18.7337 21.7458M18.7419 13.621C18.7419 13.5142 17.8917 21.639 17.8917 21.639M17.1359 5.09775C19.0089 5.09775 20.5246 4.78558 20.5246 4.39946C20.5246 4.01335 19.0048 3.70117 17.1359 3.70117C15.2628 3.70117 13.7471 4.01335 13.7471 4.39946C13.7471 4.78558 15.2669 5.09775 17.1359 5.09775Z" stroke="#250A20" stroke-width="0.583279" stroke-linecap="round"/>
<path d="M24.5789 11.2715C24.4434 11.3701 21.1409 15.5393 20.3276 23.7257H24.4105L17.1277 29.4476L9.84908 23.7257H13.932C13.1146 15.5393 9.81621 11.3701 9.68066 11.2715" stroke="#250A20" stroke-width="0.583279" stroke-miterlimit="10" stroke-linecap="round" stroke-linejoin="round"/>
</svg>
