<svg width="28" height="36" viewBox="0 0 28 36" fill="none" xmlns="http://www.w3.org/2000/svg">
<path d="M22.8072 4.60154C22.5915 4.43588 22.2818 4.47603 22.1162 4.69166C21.9505 4.9073 21.9906 5.21701 22.2063 5.38267L25.3498 7.81606L23.4978 10.699C23.352 10.9278 23.4181 11.2324 23.6469 11.3783C23.8757 11.5242 24.1803 11.4579 24.3262 11.2292L26.4042 7.99385C26.5628 7.7786 26.5209 7.47478 26.3079 7.31128L22.8072 4.60154Z" fill="url(#paint0_linear_15621_4123)"/>
<path d="M15.8956 7.27822C15.6436 7.17607 15.3558 7.29735 15.2537 7.54935C15.1515 7.80135 15.2728 8.08914 15.5248 8.1913L19.2034 9.69832L18.1873 12.9707C18.1077 13.2301 18.2527 13.5061 18.5121 13.5857C18.7715 13.6653 19.0475 13.5202 19.127 13.2608L20.267 9.5885C20.3625 9.33875 20.2411 9.05711 19.9922 8.95631L15.8956 7.27822Z" fill="url(#paint1_linear_15621_4123)"/>
<path d="M1.92398 26.4192C1.68139 26.542 1.58373 26.8387 1.70658 27.0813C1.82944 27.3239 2.12607 27.4215 2.36866 27.2987L5.92172 25.5157L7.72101 28.4319C7.86427 28.6623 8.16756 28.7343 8.39798 28.5911C8.62841 28.4478 8.70037 28.1444 8.55711 27.914L6.53779 24.6417C6.41223 24.4057 6.12014 24.3122 5.88064 24.4335L1.92398 26.4192Z" fill="url(#paint2_linear_15621_4123)"/>
<path d="M4.15817 18.3541C3.89615 18.4268 3.74198 18.6984 3.81466 18.9604C3.88734 19.2224 4.15893 19.3766 4.42096 19.3039L8.25554 18.2555L9.44537 21.4689C9.54045 21.723 9.82361 21.8534 10.0777 21.7583C10.3319 21.6632 10.4622 21.3799 10.3671 21.1258L9.03165 17.52C8.95504 17.2638 8.68708 17.1146 8.42837 17.1865L4.15817 18.3541Z" fill="url(#paint3_linear_15621_4123)"/>
<path d="M8.87386 11.8044C8.60195 11.8066 8.38263 12.029 8.38488 12.3009C8.38712 12.5728 8.60945 12.7921 8.88137 12.7899L12.8566 12.7717L13.1725 16.1837C13.1984 16.4538 13.4381 16.6531 13.7082 16.6271C13.9783 16.6012 14.1776 16.3614 14.1517 16.0913L13.7969 12.2626C13.7894 11.9953 13.5693 11.7817 13.3008 11.784L8.87386 11.8044Z" fill="url(#paint4_linear_15621_4123)"/>
<defs>
<linearGradient id="paint0_linear_15621_4123" x1="-1.06901" y1="30.0383" x2="39.609" y2="5.5778" gradientUnits="userSpaceOnUse">
<stop offset="0.615" stop-color="#7F3374"/>
</linearGradient>
<linearGradient id="paint1_linear_15621_4123" x1="15.1211" y1="13.0257" x2="21.7718" y2="11.7056" gradientUnits="userSpaceOnUse">
<stop offset="0.231253" stop-color="#B385AE"/>
<stop offset="0.775" stop-color="#7F3374"/>
</linearGradient>
<linearGradient id="paint2_linear_15621_4123" x1="14.5421" y1="58.9443" x2="10.0665" y2="11.6898" gradientUnits="userSpaceOnUse">
<stop offset="0.415" stop-color="#B385AE"/>
<stop offset="0.615" stop-color="#7F3374"/>
<stop offset="0.775" stop-color="#E7D7E8"/>
</linearGradient>
<linearGradient id="paint3_linear_15621_4123" x1="10.1245" y1="52.7271" x2="15.0418" y2="5.5165" gradientUnits="userSpaceOnUse">
<stop offset="0.415" stop-color="#B385AE"/>
<stop offset="0.615" stop-color="#7F3374"/>
<stop offset="0.775" stop-color="#E7D7E8"/>
</linearGradient>
<linearGradient id="paint4_linear_15621_4123" x1="10.5845" y1="15.4854" x2="13.7476" y2="11.7076" gradientUnits="userSpaceOnUse">
<stop offset="0.385" stop-color="#B385AE"/>
<stop offset="0.615" stop-color="#7F3374"/>
</linearGradient>
</defs>
</svg>
