<svg width="30" height="29" viewBox="0 0 30 29" fill="none" xmlns="http://www.w3.org/2000/svg">
<path d="M22.1074 25.3446C22.3013 25.2427 22.3763 25.0026 22.2745 24.8088C22.1726 24.6149 21.9326 24.5399 21.7387 24.6417L18.8991 26.1204L17.4149 23.7938C17.2968 23.61 17.0517 23.5557 16.8678 23.6738C16.684 23.792 16.6297 24.0372 16.7479 24.221L18.4135 26.8316C18.5175 27.0202 18.7538 27.092 18.9452 26.9914L22.1074 25.3446Z" fill="url(#paint0_linear_15621_4116)"/>
<path d="M22.477 19.3876C22.6367 19.2378 22.645 18.9864 22.4951 18.8267C22.3452 18.667 22.0939 18.6587 21.9342 18.8086L19.5917 20.9909L17.5409 19.1444C17.378 18.9987 17.1272 19.0117 16.9816 19.1746C16.8359 19.3375 16.849 19.5883 17.0119 19.7339L19.3134 21.8059C19.4638 21.9599 19.7108 21.9661 19.8684 21.818L22.477 19.3876Z" fill="url(#paint1_linear_15621_4116)"/>
<path d="M13.1924 2.71347C13.1843 2.49462 13.0003 2.32317 12.7815 2.33123C12.5626 2.33929 12.3912 2.52332 12.3992 2.74217L12.5053 5.94199L9.76579 6.27475C9.54896 6.30184 9.39402 6.49938 9.42111 6.71621C9.4482 6.93305 9.64582 7.08797 9.86266 7.06088L12.9368 6.68726C13.1518 6.67502 13.3187 6.49292 13.3106 6.27683L13.1924 2.71347Z" fill="url(#paint2_linear_15621_4116)"/>
<path d="M18.3359 7.069C18.3711 6.85285 18.2244 6.64852 18.0083 6.61333C17.7921 6.57814 17.5878 6.72481 17.5526 6.94096L17.0265 10.099L14.2751 9.8858C14.0572 9.86966 13.8664 10.0328 13.8502 10.2507C13.8341 10.4687 13.9973 10.6595 14.2153 10.6756L17.3028 10.9147C17.516 10.945 17.7154 10.7993 17.7501 10.5859L18.3359 7.069Z" fill="url(#paint3_linear_15621_4116)"/>
<path d="M21.5346 12.7242C21.6247 12.5246 21.536 12.2892 21.3364 12.1992C21.1368 12.1091 20.9014 12.1978 20.8114 12.3974L19.4843 15.311L16.8823 14.3916C16.676 14.3195 16.4495 14.4277 16.3774 14.6339C16.3053 14.8402 16.4135 15.0668 16.6197 15.1389L19.5397 16.1704C19.7377 16.255 19.9681 16.166 20.057 15.9689L21.5346 12.7242Z" fill="url(#paint4_linear_15621_4116)"/>
<defs>
<linearGradient id="paint0_linear_15621_4116" x1="11.5534" y1="-0.694677" x2="15.7284" y2="37.3041" gradientUnits="userSpaceOnUse">
<stop offset="0.615" stop-color="#7F3374"/>
</linearGradient>
<linearGradient id="paint1_linear_15621_4116" x1="18.5345" y1="16.8833" x2="17.2576" y2="22.1926" gradientUnits="userSpaceOnUse">
<stop offset="0.231253" stop-color="#B385AE"/>
<stop offset="0.775" stop-color="#7F3374"/>
</linearGradient>
<linearGradient id="paint2_linear_15621_4116" x1="-14.8506" y1="0.975887" x2="21.22" y2="13.6351" gradientUnits="userSpaceOnUse">
<stop offset="0.415" stop-color="#B385AE"/>
<stop offset="0.615" stop-color="#7F3374"/>
<stop offset="0.775" stop-color="#E7D7E8"/>
</linearGradient>
<linearGradient id="paint3_linear_15621_4116" x1="-8.81588" y1="-0.156698" x2="24.0556" y2="19.3576" gradientUnits="userSpaceOnUse">
<stop offset="0.415" stop-color="#B385AE"/>
<stop offset="0.615" stop-color="#7F3374"/>
<stop offset="0.775" stop-color="#E7D7E8"/>
</linearGradient>
<linearGradient id="paint4_linear_15621_4116" x1="18.2656" y1="12.7343" x2="19.9622" y2="16.3214" gradientUnits="userSpaceOnUse">
<stop offset="0.385" stop-color="#B385AE"/>
<stop offset="0.615" stop-color="#7F3374"/>
</linearGradient>
</defs>
</svg>
