<svg width="29" height="29" viewBox="0 0 29 29" fill="none" xmlns="http://www.w3.org/2000/svg">
<path d="M21.249 25.3446C21.4429 25.2427 21.5179 25.0026 21.4161 24.8088C21.3142 24.6149 21.0742 24.5399 20.8803 24.6417L18.0407 26.1204L16.5565 23.7938C16.4384 23.61 16.1933 23.5557 16.0094 23.6738C15.8256 23.792 15.7713 24.0372 15.8895 24.221L17.5551 26.8316C17.6591 27.0202 17.8954 27.092 18.0868 26.9914L21.249 25.3446Z" fill="url(#paint0_linear_15621_4130)"/>
<path d="M21.6186 19.3876C21.7783 19.2378 21.7866 18.9864 21.6367 18.8267C21.4868 18.667 21.2355 18.6587 21.0758 18.8086L18.7333 20.9909L16.6825 19.1444C16.5196 18.9987 16.2688 19.0117 16.1232 19.1746C15.9775 19.3375 15.9906 19.5883 16.1535 19.7339L18.455 21.8059C18.6055 21.9599 18.8524 21.9661 19.01 21.818L21.6186 19.3876Z" fill="url(#paint1_linear_15621_4130)"/>
<path d="M12.334 2.71347C12.3259 2.49462 12.1419 2.32317 11.9231 2.33123C11.7042 2.33929 11.5328 2.52332 11.5408 2.74217L11.6469 5.94199L8.90739 6.27475C8.69056 6.30184 8.53562 6.49938 8.56271 6.71621C8.5898 6.93305 8.78743 7.08797 9.00426 7.06088L12.0784 6.68726C12.2934 6.67502 12.4603 6.49292 12.4522 6.27683L12.334 2.71347Z" fill="url(#paint2_linear_15621_4130)"/>
<path d="M17.4775 7.069C17.5127 6.85285 17.366 6.64852 17.1499 6.61333C16.9337 6.57814 16.7294 6.72481 16.6942 6.94096L16.1681 10.099L13.4167 9.8858C13.1988 9.86966 13.008 10.0328 12.9918 10.2507C12.9757 10.4687 13.1389 10.6595 13.3569 10.6756L16.4444 10.9147C16.6576 10.945 16.857 10.7993 16.8917 10.5859L17.4775 7.069Z" fill="url(#paint3_linear_15621_4130)"/>
<path d="M20.6763 12.7242C20.7663 12.5246 20.6776 12.2892 20.478 12.1992C20.2784 12.1091 20.043 12.1978 19.953 12.3974L18.6259 15.311L16.0239 14.3916C15.8176 14.3195 15.5911 14.4277 15.519 14.6339C15.4469 14.8402 15.5551 15.0668 15.7613 15.1389L18.6813 16.1704C18.8793 16.255 19.1097 16.166 19.1986 15.9689L20.6763 12.7242Z" fill="url(#paint4_linear_15621_4130)"/>
<defs>
<linearGradient id="paint0_linear_15621_4130" x1="10.695" y1="-0.694677" x2="14.87" y2="37.3041" gradientUnits="userSpaceOnUse">
<stop offset="0.615" stop-color="#7F3374"/>
</linearGradient>
<linearGradient id="paint1_linear_15621_4130" x1="17.6761" y1="16.8833" x2="16.3992" y2="22.1926" gradientUnits="userSpaceOnUse">
<stop offset="0.231253" stop-color="#B385AE"/>
<stop offset="0.775" stop-color="#7F3374"/>
</linearGradient>
<linearGradient id="paint2_linear_15621_4130" x1="-15.709" y1="0.975887" x2="20.3616" y2="13.6351" gradientUnits="userSpaceOnUse">
<stop offset="0.415" stop-color="#B385AE"/>
<stop offset="0.615" stop-color="#7F3374"/>
<stop offset="0.775" stop-color="#E7D7E8"/>
</linearGradient>
<linearGradient id="paint3_linear_15621_4130" x1="-9.67427" y1="-0.156698" x2="23.1972" y2="19.3576" gradientUnits="userSpaceOnUse">
<stop offset="0.415" stop-color="#B385AE"/>
<stop offset="0.615" stop-color="#7F3374"/>
<stop offset="0.775" stop-color="#E7D7E8"/>
</linearGradient>
<linearGradient id="paint4_linear_15621_4130" x1="17.4072" y1="12.7343" x2="19.1038" y2="16.3214" gradientUnits="userSpaceOnUse">
<stop offset="0.385" stop-color="#B385AE"/>
<stop offset="0.615" stop-color="#7F3374"/>
</linearGradient>
</defs>
</svg>
