<svg width="15" height="23" viewBox="0 0 15 23" fill="none" xmlns="http://www.w3.org/2000/svg">
<path d="M11.1709 22.1522C10.9923 22.2241 10.7887 22.1378 10.7168 21.9592C10.6449 21.7806 10.7312 21.577 10.9098 21.5051L13.517 20.444L12.8029 18.1252C12.7469 17.9414 12.85 17.7462 13.0339 17.6903C13.2177 17.6344 13.4128 17.7376 13.4688 17.9214L14.27 20.5235C14.3372 20.7005 14.2507 20.8997 14.0744 20.9707L11.1709 22.1522Z" fill="url(#paint0_linear_15619_4108)"/>
<path d="M6.9695 19.0088C6.77818 19.0305 6.605 18.8929 6.58331 18.7016C6.56162 18.5103 6.69912 18.3371 6.89044 18.3154L9.68618 17.988L9.61623 15.5627C9.61134 15.3707 9.76276 15.2101 9.95482 15.2052C10.1469 15.2003 10.3075 15.3518 10.3124 15.5439L10.3907 18.2654C10.4082 18.4539 10.2718 18.6229 10.0829 18.6443L6.9695 19.0088Z" fill="url(#paint1_linear_15619_4108)"/>
<path d="M1.08702 3.29787C0.944968 3.1679 0.934837 2.94699 1.06481 2.80494C1.19478 2.66288 1.41569 2.65275 1.55774 2.78273L3.64149 4.67518L5.42383 3.02893C5.56541 2.89906 5.78596 2.90768 5.91584 3.04926C6.04571 3.19083 6.03703 3.41145 5.89545 3.54132L3.89525 5.38854C3.76467 5.52563 3.54766 5.5338 3.40743 5.40542L1.08702 3.29787Z" fill="url(#paint2_linear_15619_4108)"/>
<path d="M1.0698 9.22439C0.904933 9.12493 0.8515 8.91035 0.950956 8.74548C1.05041 8.58061 1.265 8.52718 1.42986 8.62664L3.84546 10.0717L5.26873 8.10672C5.38196 7.95151 5.5999 7.91653 5.75511 8.02976C5.91032 8.143 5.94525 8.361 5.83202 8.51621L4.23473 10.7211C4.13371 10.8812 3.92255 10.932 3.75979 10.8337L1.0698 9.22439Z" fill="url(#paint3_linear_15619_4108)"/>
<path d="M3.04137 14.5898C2.85635 14.5365 2.7491 14.3431 2.8024 14.1581C2.85571 13.973 3.0491 13.8658 3.23411 13.9191L5.94181 14.6884L6.80685 12.4215C6.87596 12.2423 7.07738 12.152 7.25664 12.2211C7.4359 12.2902 7.52617 12.4917 7.45706 12.6709L6.48616 15.2146C6.43011 15.3955 6.23934 15.4992 6.05666 15.4465L3.04137 14.5898Z" fill="url(#paint4_linear_15619_4108)"/>
<defs>
<linearGradient id="paint0_linear_15619_4108" x1="-0.269749" y1="0.258292" x2="22.8158" y2="24.6854" gradientUnits="userSpaceOnUse">
<stop offset="0.615" stop-color="#7F3374"/>
</linearGradient>
<linearGradient id="paint1_linear_15619_4108" x1="7.53551" y1="14.9415" x2="11.82" y2="17.108" gradientUnits="userSpaceOnUse">
<stop offset="0.231253" stop-color="#B385AE"/>
<stop offset="0.775" stop-color="#7F3374"/>
</linearGradient>
<linearGradient id="paint2_linear_15619_4108" x1="15.8853" y1="-16.482" x2="3.8359" y2="14.8937" gradientUnits="userSpaceOnUse">
<stop offset="0.415" stop-color="#B385AE"/>
<stop offset="0.615" stop-color="#7F3374"/>
<stop offset="0.775" stop-color="#E7D7E8"/>
</linearGradient>
<linearGradient id="paint3_linear_15619_4108" x1="11.6833" y1="-13.0823" x2="6.04827" y2="20.0519" gradientUnits="userSpaceOnUse">
<stop offset="0.415" stop-color="#B385AE"/>
<stop offset="0.615" stop-color="#7F3374"/>
<stop offset="0.775" stop-color="#E7D7E8"/>
</linearGradient>
<linearGradient id="paint4_linear_15619_4108" x1="4.9089" y1="12.405" x2="6.34683" y2="15.5837" gradientUnits="userSpaceOnUse">
<stop offset="0.385" stop-color="#B385AE"/>
<stop offset="0.615" stop-color="#7F3374"/>
</linearGradient>
</defs>
</svg>
