<svg width="28" height="36" viewBox="0 0 28 36" fill="none" xmlns="http://www.w3.org/2000/svg">
<path d="M23.0601 4.47849C22.8445 4.31284 22.5347 4.35298 22.3691 4.56862C22.2034 4.78425 22.2436 5.09397 22.4592 5.25962L25.6027 7.69302L23.7507 10.576C23.6049 10.8048 23.671 11.1094 23.8998 11.2553C24.1286 11.4011 24.4333 11.3349 24.5791 11.1061L26.6571 7.8708C26.8157 7.65556 26.7738 7.35173 26.5608 7.18823L23.0601 4.47849Z" fill="url(#paint0_linear_15619_4109)"/>
<path d="M16.1486 7.15517C15.8966 7.05302 15.6088 7.1743 15.5066 7.4263C15.4045 7.6783 15.5257 7.9661 15.7777 8.06825L19.4563 9.57527L18.4402 12.8477C18.3606 13.1071 18.5056 13.3831 18.765 13.4626C19.0244 13.5422 19.3004 13.3971 19.38 13.1377L20.52 9.46545C20.6154 9.2157 20.494 8.93406 20.2452 8.83327L16.1486 7.15517Z" fill="url(#paint1_linear_15619_4109)"/>
<path d="M2.17691 26.2961C1.93432 26.419 1.83666 26.7156 1.95951 26.9582C2.08236 27.2008 2.379 27.2985 2.62159 27.1756L6.17465 25.3927L7.97394 28.3088C8.1172 28.5392 8.42049 28.6113 8.65091 28.468C8.88134 28.3247 8.9533 28.0214 8.81004 27.7909L6.79072 24.5187C6.66516 24.2826 6.37307 24.1891 6.13357 24.3105L2.17691 26.2961Z" fill="url(#paint2_linear_15619_4109)"/>
<path d="M4.4111 18.231C4.14908 18.3037 3.99491 18.5753 4.06759 18.8373C4.14027 19.0994 4.41186 19.2535 4.67389 19.1809L8.50847 18.1325L9.6983 21.3458C9.79338 21.6 10.0765 21.7303 10.3307 21.6352C10.5848 21.5401 10.7151 21.2569 10.62 21.0027L9.28458 17.3969C9.20797 17.1408 8.94001 16.9916 8.6813 17.0634L4.4111 18.231Z" fill="url(#paint3_linear_15619_4109)"/>
<path d="M9.1268 11.6813C8.85489 11.6836 8.63556 11.9059 8.63781 12.1778C8.64006 12.4497 8.86239 12.6691 9.1343 12.6668L13.1096 12.6487L13.4254 16.0606C13.4514 16.3307 13.6911 16.53 13.9611 16.5041C14.2312 16.4782 14.4305 16.2384 14.4046 15.9683L14.0499 12.1395C14.0423 11.8722 13.8222 11.6587 13.5537 11.661L9.1268 11.6813Z" fill="url(#paint4_linear_15619_4109)"/>
<defs>
<linearGradient id="paint0_linear_15619_4109" x1="-0.816079" y1="29.9153" x2="39.862" y2="5.45475" gradientUnits="userSpaceOnUse">
<stop offset="0.615" stop-color="#7F3374"/>
</linearGradient>
<linearGradient id="paint1_linear_15619_4109" x1="15.374" y1="12.9026" x2="22.0247" y2="11.5826" gradientUnits="userSpaceOnUse">
<stop offset="0.231253" stop-color="#B385AE"/>
<stop offset="0.775" stop-color="#7F3374"/>
</linearGradient>
<linearGradient id="paint2_linear_15619_4109" x1="14.7951" y1="58.8213" x2="10.3195" y2="11.5668" gradientUnits="userSpaceOnUse">
<stop offset="0.415" stop-color="#B385AE"/>
<stop offset="0.615" stop-color="#7F3374"/>
<stop offset="0.775" stop-color="#E7D7E8"/>
</linearGradient>
<linearGradient id="paint3_linear_15619_4109" x1="10.3774" y1="52.6041" x2="15.2947" y2="5.39346" gradientUnits="userSpaceOnUse">
<stop offset="0.415" stop-color="#B385AE"/>
<stop offset="0.615" stop-color="#7F3374"/>
<stop offset="0.775" stop-color="#E7D7E8"/>
</linearGradient>
<linearGradient id="paint4_linear_15619_4109" x1="10.8375" y1="15.3624" x2="14.0005" y2="11.5846" gradientUnits="userSpaceOnUse">
<stop offset="0.385" stop-color="#B385AE"/>
<stop offset="0.615" stop-color="#7F3374"/>
</linearGradient>
</defs>
</svg>
