<svg width="17" height="16" viewBox="0 0 17 16" fill="none" xmlns="http://www.w3.org/2000/svg">
<path d="M4.10968 3.73628V7.62457C4.10968 8.20901 4.58378 8.6861 5.1712 8.6861H9.05949M15.0678 5.5045V1.61621C15.0678 1.03178 14.5937 0.554688 14.0063 0.554688H5.1712C4.58677 0.554688 4.10968 1.0288 4.10968 1.61621V3.02959M9.7632 8.68312H10.8098L12.6943 10.5587C12.918 10.7793 13.2966 10.6213 13.2966 10.3082V8.68312H14.0033C14.5878 8.68312 15.0649 8.20901 15.0649 7.62159V6.20821M6.22975 11.155V12.5684C6.22975 13.1529 6.70385 13.6299 7.29127 13.6299H11.2869L13.7857 15.6397C14.0182 15.8246 14.3612 15.6606 14.3612 15.3654V13.6299H15.7745C16.359 13.6299 16.8361 13.1558 16.8361 12.5684V6.56006C16.8361 5.97563 16.362 5.49854 15.7745 5.49854H9.76618M6.23273 8.68014V10.4484M9.05949 5.50152H7.29127C6.70684 5.50152 6.22975 5.97563 6.22975 6.56305V7.97643M1.63477 3.02959H8.70465C9.28909 3.02959 9.76618 3.5037 9.76618 4.09112V10.0995C9.76618 10.6839 9.29207 11.161 8.70465 11.161H4.35717L2.59789 12.9978C2.37724 13.2274 1.9896 13.0723 1.9896 12.7533V11.161H1.63477C1.05033 11.161 0.573242 10.6869 0.573242 10.0995V4.09112C0.573242 3.50668 1.04735 3.02959 1.63477 3.02959Z" stroke="white" stroke-width="0.70669" stroke-miterlimit="10"/>
</svg>
