<svg width="15" height="14" viewBox="0 0 15 14" fill="none" xmlns="http://www.w3.org/2000/svg">
<path d="M8.49293 4.89864C8.49293 4.78722 8.44867 4.68036 8.36988 4.60157C8.29109 4.52278 8.18423 4.47852 8.0728 4.47852C7.96138 4.47852 7.85452 4.52278 7.77573 4.60157C7.69694 4.68036 7.65268 4.78722 7.65268 4.89864V6.15902H6.3923C6.28087 6.15902 6.17401 6.20329 6.09522 6.28208C6.01643 6.36087 5.97217 6.46773 5.97217 6.57915C5.97217 6.69058 6.01643 6.79744 6.09522 6.87623C6.17401 6.95501 6.28087 6.99928 6.3923 6.99928H7.65268V8.25966C7.65268 8.37108 7.69694 8.47795 7.77573 8.55673C7.85452 8.63552 7.96138 8.67979 8.0728 8.67979C8.18423 8.67979 8.29109 8.63552 8.36988 8.55673C8.44867 8.47795 8.49293 8.37108 8.49293 8.25966V6.99928H9.75331C9.86474 6.99928 9.9716 6.95501 10.0504 6.87623C10.1292 6.79744 10.1734 6.69058 10.1734 6.57915C10.1734 6.46773 10.1292 6.36087 10.0504 6.28208C9.9716 6.20329 9.86474 6.15902 9.75331 6.15902H8.49293V4.89864Z" fill="#363330"/>
<path d="M1.35079 1.11719C1.23937 1.11719 1.13251 1.16145 1.05372 1.24024C0.974927 1.31903 0.930664 1.42589 0.930664 1.53731C0.930664 1.64874 0.974927 1.7556 1.05372 1.83439C1.13251 1.91318 1.23937 1.95744 1.35079 1.95744H2.28347L2.62042 3.30773L3.87912 10.0172C3.89714 10.1134 3.94823 10.2004 4.02356 10.263C4.0989 10.3256 4.19373 10.3599 4.29168 10.36H5.13194C4.68624 10.36 4.25879 10.537 3.94364 10.8522C3.62848 11.1673 3.45143 11.5948 3.45143 12.0405C3.45143 12.4862 3.62848 12.9136 3.94364 13.2288C4.25879 13.5439 4.68624 13.721 5.13194 13.721C5.57763 13.721 6.00508 13.5439 6.32023 13.2288C6.63539 12.9136 6.81244 12.4862 6.81244 12.0405C6.81244 11.5948 6.63539 11.1673 6.32023 10.8522C6.00508 10.537 5.57763 10.36 5.13194 10.36H11.0137C10.568 10.36 10.1406 10.537 9.82542 10.8522C9.51026 11.1673 9.33321 11.5948 9.33321 12.0405C9.33321 12.4862 9.51026 12.9136 9.82542 13.2288C10.1406 13.5439 10.568 13.721 11.0137 13.721C11.4594 13.721 11.8869 13.5439 12.202 13.2288C12.5172 12.9136 12.6942 12.4862 12.6942 12.0405C12.6942 11.5948 12.5172 11.1673 12.202 10.8522C11.8869 10.537 11.4594 10.36 11.0137 10.36H11.854C11.9519 10.3599 12.0468 10.3256 12.1221 10.263C12.1974 10.2004 12.2485 10.1134 12.2665 10.0172L13.5269 3.29513C13.5383 3.23449 13.5361 3.1721 13.5206 3.11239C13.5052 3.05267 13.4767 2.9971 13.4373 2.94962C13.398 2.90213 13.3486 2.86391 13.2928 2.83765C13.237 2.81139 13.176 2.79775 13.1144 2.7977H3.359L3.0187 1.43564C2.99602 1.34471 2.94359 1.26398 2.86975 1.20628C2.7959 1.14857 2.70489 1.11721 2.61117 1.11719H1.35079ZM4.64039 9.51973L3.53713 3.63795H12.6085L11.5053 9.51973H4.64039ZM5.97219 12.0405C5.97219 12.2633 5.88366 12.4771 5.72608 12.6346C5.56851 12.7922 5.35478 12.8807 5.13194 12.8807C4.90909 12.8807 4.69536 12.7922 4.53779 12.6346C4.38021 12.4771 4.29168 12.2633 4.29168 12.0405C4.29168 11.8176 4.38021 11.6039 4.53779 11.4463C4.69536 11.2888 4.90909 11.2002 5.13194 11.2002C5.35478 11.2002 5.56851 11.2888 5.72608 11.4463C5.88366 11.6039 5.97219 11.8176 5.97219 12.0405ZM11.854 12.0405C11.854 12.2633 11.7654 12.4771 11.6079 12.6346C11.4503 12.7922 11.2366 12.8807 11.0137 12.8807C10.7909 12.8807 10.5771 12.7922 10.4196 12.6346C10.262 12.4771 10.1735 12.2633 10.1735 12.0405C10.1735 11.8176 10.262 11.6039 10.4196 11.4463C10.5771 11.2888 10.7909 11.2002 11.0137 11.2002C11.2366 11.2002 11.4503 11.2888 11.6079 11.4463C11.7654 11.6039 11.854 11.8176 11.854 12.0405Z" fill="#363330"/>
</svg>
