<svg width="15" height="14" viewBox="0 0 15 14" fill="none" xmlns="http://www.w3.org/2000/svg">
<path d="M8.25807 4.89962C8.25807 4.78819 8.2138 4.68133 8.13502 4.60254C8.05623 4.52376 7.94936 4.47949 7.83794 4.47949C7.72652 4.47949 7.61965 4.52376 7.54087 4.60254C7.46208 4.68133 7.41781 4.78819 7.41781 4.89962V6.16H6.15743C6.04601 6.16 5.93915 6.20426 5.86036 6.28305C5.78157 6.36184 5.7373 6.4687 5.7373 6.58013C5.7373 6.69155 5.78157 6.79841 5.86036 6.8772C5.93915 6.95599 6.04601 7.00025 6.15743 7.00025H7.41781V8.26064C7.41781 8.37206 7.46208 8.47892 7.54087 8.55771C7.61965 8.6365 7.72652 8.68076 7.83794 8.68076C7.94936 8.68076 8.05623 8.6365 8.13502 8.55771C8.2138 8.47892 8.25807 8.37206 8.25807 8.26064V7.00025H9.51845C9.62987 7.00025 9.73673 6.95599 9.81552 6.8772C9.89431 6.79841 9.93858 6.69155 9.93858 6.58013C9.93858 6.4687 9.89431 6.36184 9.81552 6.28305C9.73673 6.20426 9.62987 6.16 9.51845 6.16H8.25807V4.89962Z" fill="#363330"/>
<path d="M1.11593 1.11816C1.0045 1.11816 0.897642 1.16243 0.818853 1.24122C0.740064 1.32001 0.695801 1.42687 0.695801 1.53829C0.695801 1.64972 0.740064 1.75658 0.818853 1.83537C0.897642 1.91416 1.0045 1.95842 1.11593 1.95842H2.04861L2.38555 3.30871L3.64425 10.0181C3.66228 10.1144 3.71337 10.2014 3.7887 10.264C3.86403 10.3266 3.95887 10.3609 4.05682 10.361H4.89707C4.45137 10.361 4.02393 10.538 3.70877 10.8532C3.39362 11.1683 3.21656 11.5958 3.21656 12.0415C3.21656 12.4872 3.39362 12.9146 3.70877 13.2298C4.02393 13.5449 4.45137 13.722 4.89707 13.722C5.34277 13.722 5.77021 13.5449 6.08537 13.2298C6.40053 12.9146 6.57758 12.4872 6.57758 12.0415C6.57758 11.5958 6.40053 11.1683 6.08537 10.8532C5.77021 10.538 5.34277 10.361 4.89707 10.361H10.7789C10.3332 10.361 9.90571 10.538 9.59055 10.8532C9.2754 11.1683 9.09834 11.5958 9.09834 12.0415C9.09834 12.4872 9.2754 12.9146 9.59055 13.2298C9.90571 13.5449 10.3332 13.722 10.7789 13.722C11.2246 13.722 11.652 13.5449 11.9672 13.2298C12.2823 12.9146 12.4594 12.4872 12.4594 12.0415C12.4594 11.5958 12.2823 11.1683 11.9672 10.8532C11.652 10.538 11.2246 10.361 10.7789 10.361H11.6191C11.7171 10.3609 11.8119 10.3266 11.8872 10.264C11.9626 10.2014 12.0136 10.1144 12.0317 10.0181L13.2921 3.2961C13.3034 3.23547 13.3013 3.17308 13.2858 3.11336C13.2703 3.05365 13.2419 2.99808 13.2025 2.95059C13.1631 2.90311 13.1137 2.86488 13.0579 2.83863C13.0021 2.81237 12.9412 2.79873 12.8795 2.79867H3.12414L2.78383 1.43662C2.76115 1.34569 2.70872 1.26496 2.63488 1.20725C2.56104 1.14955 2.47002 1.11819 2.37631 1.11816H1.11593ZM4.40552 9.52071L3.30227 3.63893H12.3737L11.2704 9.52071H4.40552ZM5.73733 12.0415C5.73733 12.2643 5.6488 12.478 5.49122 12.6356C5.33364 12.7932 5.11992 12.8817 4.89707 12.8817C4.67422 12.8817 4.4605 12.7932 4.30292 12.6356C4.14534 12.478 4.05682 12.2643 4.05682 12.0415C4.05682 11.8186 4.14534 11.6049 4.30292 11.4473C4.4605 11.2897 4.67422 11.2012 4.89707 11.2012C5.11992 11.2012 5.33364 11.2897 5.49122 11.4473C5.6488 11.6049 5.73733 11.8186 5.73733 12.0415ZM11.6191 12.0415C11.6191 12.2643 11.5306 12.478 11.373 12.6356C11.2154 12.7932 11.0017 12.8817 10.7789 12.8817C10.556 12.8817 10.3423 12.7932 10.1847 12.6356C10.0271 12.478 9.9386 12.2643 9.9386 12.0415C9.9386 11.8186 10.0271 11.6049 10.1847 11.4473C10.3423 11.2897 10.556 11.2012 10.7789 11.2012C11.0017 11.2012 11.2154 11.2897 11.373 11.4473C11.5306 11.6049 11.6191 11.8186 11.6191 12.0415Z" fill="#363330"/>
</svg>
