<svg width="14" height="14" viewBox="0 0 14 14" fill="none" xmlns="http://www.w3.org/2000/svg">
<path d="M7.82643 4.89864C7.82643 4.78722 7.78216 4.68036 7.70337 4.60157C7.62459 4.52278 7.51772 4.47852 7.4063 4.47852C7.29487 4.47852 7.18801 4.52278 7.10922 4.60157C7.03044 4.68036 6.98617 4.78722 6.98617 4.89864V6.15902H5.72579C5.61437 6.15902 5.50751 6.20329 5.42872 6.28208C5.34993 6.36087 5.30566 6.46773 5.30566 6.57915C5.30566 6.69058 5.34993 6.79744 5.42872 6.87623C5.50751 6.95501 5.61437 6.99928 5.72579 6.99928H6.98617V8.25966C6.98617 8.37108 7.03044 8.47795 7.10922 8.55673C7.18801 8.63552 7.29487 8.67979 7.4063 8.67979C7.51772 8.67979 7.62459 8.63552 7.70337 8.55673C7.78216 8.47795 7.82643 8.37108 7.82643 8.25966V6.99928H9.08681C9.19823 6.99928 9.30509 6.95501 9.38388 6.87623C9.46267 6.79744 9.50694 6.69058 9.50694 6.57915C9.50694 6.46773 9.46267 6.36087 9.38388 6.28208C9.30509 6.20329 9.19823 6.15902 9.08681 6.15902H7.82643V4.89864Z" fill="#363330"/>
<path d="M0.684287 1.11719C0.572863 1.11719 0.466002 1.16145 0.387213 1.24024C0.308423 1.31903 0.26416 1.42589 0.26416 1.53731C0.26416 1.64874 0.308423 1.7556 0.387213 1.83439C0.466002 1.91318 0.572863 1.95744 0.684287 1.95744H1.61697L1.95391 3.30773L3.21261 10.0172C3.23063 10.1134 3.28173 10.2004 3.35706 10.263C3.43239 10.3256 3.52723 10.3599 3.62518 10.36H4.46543C4.01973 10.36 3.59229 10.537 3.27713 10.8522C2.96198 11.1673 2.78492 11.5948 2.78492 12.0405C2.78492 12.4862 2.96198 12.9136 3.27713 13.2288C3.59229 13.5439 4.01973 13.721 4.46543 13.721C4.91113 13.721 5.33857 13.5439 5.65373 13.2288C5.96889 12.9136 6.14594 12.4862 6.14594 12.0405C6.14594 11.5948 5.96889 11.1673 5.65373 10.8522C5.33857 10.537 4.91113 10.36 4.46543 10.36H10.3472C9.90151 10.36 9.47407 10.537 9.15891 10.8522C8.84376 11.1673 8.6667 11.5948 8.6667 12.0405C8.6667 12.4862 8.84376 12.9136 9.15891 13.2288C9.47407 13.5439 9.90151 13.721 10.3472 13.721C10.7929 13.721 11.2204 13.5439 11.5355 13.2288C11.8507 12.9136 12.0277 12.4862 12.0277 12.0405C12.0277 11.5948 11.8507 11.1673 11.5355 10.8522C11.2204 10.537 10.7929 10.36 10.3472 10.36H11.1875C11.2854 10.3599 11.3802 10.3256 11.4556 10.263C11.5309 10.2004 11.582 10.1134 11.6 10.0172L12.8604 3.29513C12.8718 3.23449 12.8696 3.1721 12.8541 3.11239C12.8387 3.05267 12.8102 2.9971 12.7708 2.94962C12.7315 2.90213 12.6821 2.86391 12.6263 2.83765C12.5705 2.81139 12.5095 2.79775 12.4478 2.7977H2.6925L2.35219 1.43564C2.32951 1.34471 2.27708 1.26398 2.20324 1.20628C2.1294 1.14857 2.03838 1.11721 1.94467 1.11719H0.684287ZM3.97388 9.51973L2.87063 3.63795H11.942L10.8388 9.51973H3.97388ZM5.30569 12.0405C5.30569 12.2633 5.21716 12.4771 5.05958 12.6346C4.902 12.7922 4.68828 12.8807 4.46543 12.8807C4.24258 12.8807 4.02886 12.7922 3.87128 12.6346C3.7137 12.4771 3.62518 12.2633 3.62518 12.0405C3.62518 11.8176 3.7137 11.6039 3.87128 11.4463C4.02886 11.2888 4.24258 11.2002 4.46543 11.2002C4.68828 11.2002 4.902 11.2888 5.05958 11.4463C5.21716 11.6039 5.30569 11.8176 5.30569 12.0405ZM11.1875 12.0405C11.1875 12.2633 11.0989 12.4771 10.9414 12.6346C10.7838 12.7922 10.5701 12.8807 10.3472 12.8807C10.1244 12.8807 9.91064 12.7922 9.75306 12.6346C9.59548 12.4771 9.50696 12.2633 9.50696 12.0405C9.50696 11.8176 9.59548 11.6039 9.75306 11.4463C9.91064 11.2888 10.1244 11.2002 10.3472 11.2002C10.5701 11.2002 10.7838 11.2888 10.9414 11.4463C11.0989 11.6039 11.1875 11.8176 11.1875 12.0405Z" fill="#363330"/>
</svg>
