<svg width="14" height="14" viewBox="0 0 14 14" fill="none" xmlns="http://www.w3.org/2000/svg">
<path d="M8.08375 4.89864C8.08375 4.78722 8.03949 4.68036 7.9607 4.60157C7.88191 4.52278 7.77505 4.47852 7.66362 4.47852C7.5522 4.47852 7.44534 4.52278 7.36655 4.60157C7.28776 4.68036 7.2435 4.78722 7.2435 4.89864V6.15902H5.98312C5.87169 6.15902 5.76483 6.20329 5.68604 6.28208C5.60725 6.36087 5.56299 6.46773 5.56299 6.57915C5.56299 6.69058 5.60725 6.79744 5.68604 6.87623C5.76483 6.95501 5.87169 6.99928 5.98312 6.99928H7.2435V8.25966C7.2435 8.37108 7.28776 8.47795 7.36655 8.55673C7.44534 8.63552 7.5522 8.67979 7.66362 8.67979C7.77505 8.67979 7.88191 8.63552 7.9607 8.55673C8.03949 8.47795 8.08375 8.37108 8.08375 8.25966V6.99928H9.34413C9.45556 6.99928 9.56242 6.95501 9.64121 6.87623C9.72 6.79744 9.76426 6.69058 9.76426 6.57915C9.76426 6.46773 9.72 6.36087 9.64121 6.28208C9.56242 6.20329 9.45556 6.15902 9.34413 6.15902H8.08375V4.89864Z" fill="#363330"/>
<path d="M0.941611 1.11719C0.830187 1.11719 0.723326 1.16145 0.644537 1.24024C0.565748 1.31903 0.521484 1.42589 0.521484 1.53731C0.521484 1.64874 0.565748 1.7556 0.644537 1.83439C0.723326 1.91318 0.830187 1.95744 0.941611 1.95744H1.87429L2.21124 3.30773L3.46994 10.0172C3.48796 10.1134 3.53905 10.2004 3.61439 10.263C3.68972 10.3256 3.78455 10.3599 3.8825 10.36H4.72276C4.27706 10.36 3.84961 10.537 3.53446 10.8522C3.2193 11.1673 3.04225 11.5948 3.04225 12.0405C3.04225 12.4862 3.2193 12.9136 3.53446 13.2288C3.84961 13.5439 4.27706 13.721 4.72276 13.721C5.16845 13.721 5.5959 13.5439 5.91105 13.2288C6.22621 12.9136 6.40326 12.4862 6.40326 12.0405C6.40326 11.5948 6.22621 11.1673 5.91105 10.8522C5.5959 10.537 5.16845 10.36 4.72276 10.36H10.6045C10.1588 10.36 9.73139 10.537 9.41624 10.8522C9.10108 11.1673 8.92403 11.5948 8.92403 12.0405C8.92403 12.4862 9.10108 12.9136 9.41624 13.2288C9.73139 13.5439 10.1588 13.721 10.6045 13.721C11.0502 13.721 11.4777 13.5439 11.7928 13.2288C12.108 12.9136 12.285 12.4862 12.285 12.0405C12.285 11.5948 12.108 11.1673 11.7928 10.8522C11.4777 10.537 11.0502 10.36 10.6045 10.36H11.4448C11.5427 10.3599 11.6376 10.3256 11.7129 10.263C11.7882 10.2004 11.8393 10.1134 11.8574 10.0172L13.1177 3.29513C13.1291 3.23449 13.1269 3.1721 13.1115 3.11239C13.096 3.05267 13.0675 2.9971 13.0282 2.94962C12.9888 2.90213 12.9394 2.86391 12.8836 2.83765C12.8278 2.81139 12.7669 2.79775 12.7052 2.7977H2.94982L2.60952 1.43564C2.58684 1.34471 2.53441 1.26398 2.46057 1.20628C2.38672 1.14857 2.29571 1.11721 2.20199 1.11719H0.941611ZM4.23121 9.51973L3.12795 3.63795H12.1993L11.0961 9.51973H4.23121ZM5.56301 12.0405C5.56301 12.2633 5.47448 12.4771 5.31691 12.6346C5.15933 12.7922 4.9456 12.8807 4.72276 12.8807C4.49991 12.8807 4.28618 12.7922 4.12861 12.6346C3.97103 12.4771 3.8825 12.2633 3.8825 12.0405C3.8825 11.8176 3.97103 11.6039 4.12861 11.4463C4.28618 11.2888 4.49991 11.2002 4.72276 11.2002C4.9456 11.2002 5.15933 11.2888 5.31691 11.4463C5.47448 11.6039 5.56301 11.8176 5.56301 12.0405ZM11.4448 12.0405C11.4448 12.2633 11.3563 12.4771 11.1987 12.6346C11.0411 12.7922 10.8274 12.8807 10.6045 12.8807C10.3817 12.8807 10.168 12.7922 10.0104 12.6346C9.85281 12.4771 9.76428 12.2633 9.76428 12.0405C9.76428 11.8176 9.85281 11.6039 10.0104 11.4463C10.168 11.2888 10.3817 11.2002 10.6045 11.2002C10.8274 11.2002 11.0411 11.2888 11.1987 11.4463C11.3563 11.6039 11.4448 11.8176 11.4448 12.0405Z" fill="#363330"/>
</svg>
