<svg width="14" height="15" viewBox="0 0 14 15" fill="none" xmlns="http://www.w3.org/2000/svg">
<path d="M8.03102 5.39864C8.03102 5.28722 7.98675 5.18036 7.90796 5.10157C7.82918 5.02278 7.72231 4.97852 7.61089 4.97852C7.49946 4.97852 7.3926 5.02278 7.31381 5.10157C7.23503 5.18036 7.19076 5.28722 7.19076 5.39864V6.65902H5.93038C5.81896 6.65902 5.7121 6.70329 5.63331 6.78208C5.55452 6.86087 5.51025 6.96773 5.51025 7.07915C5.51025 7.19058 5.55452 7.29744 5.63331 7.37623C5.7121 7.45501 5.81896 7.49928 5.93038 7.49928H7.19076V8.75966C7.19076 8.87108 7.23503 8.97795 7.31381 9.05673C7.3926 9.13552 7.49946 9.17979 7.61089 9.17979C7.72231 9.17979 7.82918 9.13552 7.90796 9.05673C7.98675 8.97795 8.03102 8.87108 8.03102 8.75966V7.49928H9.2914C9.40282 7.49928 9.50968 7.45501 9.58847 7.37623C9.66726 7.29744 9.71152 7.19058 9.71152 7.07915C9.71152 6.96773 9.66726 6.86087 9.58847 6.78208C9.50968 6.70329 9.40282 6.65902 9.2914 6.65902H8.03102V5.39864Z" fill="#363330"/>
<path d="M0.888877 1.61719C0.777452 1.61719 0.670592 1.66145 0.591802 1.74024C0.513013 1.81903 0.46875 1.92589 0.46875 2.03731C0.46875 2.14874 0.513013 2.2556 0.591802 2.33439C0.670592 2.41318 0.777452 2.45744 0.888877 2.45744H1.82156L2.1585 3.80773L3.4172 10.5172C3.43522 10.6134 3.48632 10.7004 3.56165 10.763C3.63698 10.8256 3.73182 10.8599 3.82977 10.86H4.67002C4.22432 10.86 3.79688 11.037 3.48172 11.3522C3.16657 11.6673 2.98951 12.0948 2.98951 12.5405C2.98951 12.9862 3.16657 13.4136 3.48172 13.7288C3.79688 14.0439 4.22432 14.221 4.67002 14.221C5.11572 14.221 5.54316 14.0439 5.85832 13.7288C6.17348 13.4136 6.35053 12.9862 6.35053 12.5405C6.35053 12.0948 6.17348 11.6673 5.85832 11.3522C5.54316 11.037 5.11572 10.86 4.67002 10.86H10.5518C10.1061 10.86 9.67866 11.037 9.3635 11.3522C9.04835 11.6673 8.87129 12.0948 8.87129 12.5405C8.87129 12.9862 9.04835 13.4136 9.3635 13.7288C9.67866 14.0439 10.1061 14.221 10.5518 14.221C10.9975 14.221 11.4249 14.0439 11.7401 13.7288C12.0553 13.4136 12.2323 12.9862 12.2323 12.5405C12.2323 12.0948 12.0553 11.6673 11.7401 11.3522C11.4249 11.037 10.9975 10.86 10.5518 10.86H11.3921C11.49 10.8599 11.5848 10.8256 11.6602 10.763C11.7355 10.7004 11.7866 10.6134 11.8046 10.5172L13.065 3.79513C13.0764 3.73449 13.0742 3.6721 13.0587 3.61239C13.0432 3.55267 13.0148 3.4971 12.9754 3.44962C12.936 3.40213 12.8867 3.36391 12.8309 3.33765C12.775 3.31139 12.7141 3.29775 12.6524 3.2977H2.89708L2.55678 1.93564C2.5341 1.84471 2.48167 1.76398 2.40783 1.70628C2.33399 1.64857 2.24297 1.61721 2.14926 1.61719H0.888877ZM4.17847 10.0197L3.07522 4.13795H12.1466L11.0433 10.0197H4.17847ZM5.51028 12.5405C5.51028 12.7633 5.42175 12.9771 5.26417 13.1346C5.10659 13.2922 4.89287 13.3807 4.67002 13.3807C4.44717 13.3807 4.23345 13.2922 4.07587 13.1346C3.91829 12.9771 3.82977 12.7633 3.82977 12.5405C3.82977 12.3176 3.91829 12.1039 4.07587 11.9463C4.23345 11.7888 4.44717 11.7002 4.67002 11.7002C4.89287 11.7002 5.10659 11.7888 5.26417 11.9463C5.42175 12.1039 5.51028 12.3176 5.51028 12.5405ZM11.3921 12.5405C11.3921 12.7633 11.3035 12.9771 11.146 13.1346C10.9884 13.2922 10.7747 13.3807 10.5518 13.3807C10.329 13.3807 10.1152 13.2922 9.95765 13.1346C9.80007 12.9771 9.71155 12.7633 9.71155 12.5405C9.71155 12.3176 9.80007 12.1039 9.95765 11.9463C10.1152 11.7888 10.329 11.7002 10.5518 11.7002C10.7747 11.7002 10.9884 11.7888 11.146 11.9463C11.3035 12.1039 11.3921 12.3176 11.3921 12.5405Z" fill="#363330"/>
</svg>
