<svg width="17" height="17" viewBox="0 0 17 17" fill="none" xmlns="http://www.w3.org/2000/svg">
<path d="M8.50696 4.73242C8.63957 4.73242 8.76675 4.7851 8.86052 4.87887C8.95429 4.97264 9.00697 5.09982 9.00697 5.23244V8.23253H12.0071C12.1397 8.23253 12.2669 8.28521 12.3606 8.37898C12.4544 8.47275 12.5071 8.59993 12.5071 8.73254C12.5071 8.86516 12.4544 8.99234 12.3606 9.08611C12.2669 9.17988 12.1397 9.23256 12.0071 9.23256H9.00697V12.2326C9.00697 12.3653 8.95429 12.4924 8.86052 12.5862C8.76675 12.68 8.63957 12.7327 8.50696 12.7327C8.37435 12.7327 8.24716 12.68 8.15339 12.5862C8.05962 12.4924 8.00694 12.3653 8.00694 12.2326V9.23256H5.00685C4.87424 9.23256 4.74706 9.17988 4.65329 9.08611C4.55952 8.99234 4.50684 8.86516 4.50684 8.73254C4.50684 8.59993 4.55952 8.47275 4.65329 8.37898C4.74706 8.28521 4.87424 8.23253 5.00685 8.23253H8.00694V5.23244C8.00694 5.09982 8.05962 4.97264 8.15339 4.87887C8.24716 4.7851 8.37435 4.73242 8.50696 4.73242Z" fill="#CFCCC9"/>
</svg>
