<svg width="33" height="33" viewBox="0 0 33 33" fill="none" xmlns="http://www.w3.org/2000/svg">
<path d="M32.7861 16.3594C32.7861 16.3594 26.7861 5.35938 16.7861 5.35938C6.78613 5.35938 0.786133 16.3594 0.786133 16.3594C0.786133 16.3594 6.78613 27.3594 16.7861 27.3594C26.7861 27.3594 32.7861 16.3594 32.7861 16.3594ZM3.13213 16.3594C4.09916 14.8896 5.21141 13.5207 6.45213 12.2734C9.02613 9.69537 12.5461 7.35938 16.7861 7.35938C21.0261 7.35938 24.5441 9.69537 27.1221 12.2734C28.3629 13.5207 29.4751 14.8896 30.4421 16.3594C30.3261 16.5334 30.1981 16.7254 30.0521 16.9354C29.3821 17.8954 28.3921 19.1754 27.1221 20.4454C24.5441 23.0234 21.0241 25.3594 16.7861 25.3594C12.5461 25.3594 9.02813 23.0234 6.45013 20.4454C5.20942 19.198 4.09717 17.8291 3.13013 16.3594H3.13213Z" fill="white"/>
<path d="M16.7861 11.3594C15.4601 11.3594 14.1883 11.8862 13.2506 12.8238C12.3129 13.7615 11.7861 15.0333 11.7861 16.3594C11.7861 17.6855 12.3129 18.9572 13.2506 19.8949C14.1883 20.8326 15.4601 21.3594 16.7861 21.3594C18.1122 21.3594 19.384 20.8326 20.3217 19.8949C21.2593 18.9572 21.7861 17.6855 21.7861 16.3594C21.7861 15.0333 21.2593 13.7615 20.3217 12.8238C19.384 11.8862 18.1122 11.3594 16.7861 11.3594ZM9.78613 16.3594C9.78613 14.5029 10.5236 12.7224 11.8364 11.4096C13.1491 10.0969 14.9296 9.35938 16.7861 9.35938C18.6426 9.35938 20.4231 10.0969 21.7359 11.4096C23.0486 12.7224 23.7861 14.5029 23.7861 16.3594C23.7861 18.2159 23.0486 19.9964 21.7359 21.3091C20.4231 22.6219 18.6426 23.3594 16.7861 23.3594C14.9296 23.3594 13.1491 22.6219 11.8364 21.3091C10.5236 19.9964 9.78613 18.2159 9.78613 16.3594Z" fill="white"/>
</svg>
