<svg width="14" height="14" viewBox="0 0 14 14" fill="none" xmlns="http://www.w3.org/2000/svg">
<path fill-rule="evenodd" clip-rule="evenodd" d="M6.05273 10.5217C6.63958 10.5217 7.22068 10.4061 7.76285 10.1816C8.30502 9.95699 8.79766 9.62782 9.21262 9.21286C9.62758 8.7979 9.95675 8.30527 10.1813 7.7631C10.4059 7.22092 10.5215 6.63982 10.5215 6.05298C10.5215 5.46613 10.4059 4.88504 10.1813 4.34286C9.95675 3.80069 9.62758 3.30806 9.21262 2.89309C8.79766 2.47813 8.30502 2.14897 7.76285 1.92439C7.22068 1.69982 6.63958 1.58423 6.05273 1.58423C4.86755 1.58423 3.7309 2.05504 2.89285 2.8931C2.0548 3.73115 1.58398 4.86779 1.58398 6.05298C1.58398 7.23816 2.0548 8.37481 2.89285 9.21286C3.7309 10.0509 4.86755 10.5217 6.05273 10.5217V10.5217ZM11.334 6.05298C11.334 7.45365 10.7776 8.79696 9.78714 9.78739C8.79672 10.7778 7.45341 11.3342 6.05273 11.3342C4.65206 11.3342 3.30875 10.7778 2.31833 9.78739C1.3279 8.79696 0.771484 7.45365 0.771484 6.05298C0.771484 4.6523 1.3279 3.309 2.31833 2.31857C3.30875 1.32814 4.65206 0.771729 6.05273 0.771729C7.45341 0.771729 8.79672 1.32814 9.78714 2.31857C10.7776 3.309 11.334 4.6523 11.334 6.05298V6.05298Z" fill="#363330"/>
<path d="M9.17578 10.3122C9.20016 10.3447 9.22616 10.3756 9.25541 10.4057L12.3835 13.5338C12.5359 13.6862 12.7426 13.7719 12.9581 13.772C13.1736 13.7721 13.3804 13.6865 13.5328 13.5342C13.6853 13.3818 13.771 13.1752 13.771 12.9596C13.7711 12.7441 13.6856 12.5374 13.5332 12.3849L10.4051 9.25679C10.376 9.22738 10.3448 9.20022 10.3117 9.17554C9.99293 9.61013 9.60992 9.99369 9.17578 10.313V10.3122Z" fill="#363330"/>
<path fill-rule="evenodd" clip-rule="evenodd" d="M6.05273 3.20923C6.16048 3.20923 6.26381 3.25203 6.34 3.32822C6.41618 3.4044 6.45898 3.50773 6.45898 3.61548V5.64673H8.49023C8.59798 5.64673 8.70131 5.68953 8.7775 5.76572C8.85368 5.8419 8.89648 5.94523 8.89648 6.05298C8.89648 6.16072 8.85368 6.26405 8.7775 6.34024C8.70131 6.41643 8.59798 6.45923 8.49023 6.45923H6.45898V8.49048C6.45898 8.59822 6.41618 8.70155 6.34 8.77774C6.26381 8.85393 6.16048 8.89673 6.05273 8.89673C5.94499 8.89673 5.84166 8.85393 5.76547 8.77774C5.68929 8.70155 5.64648 8.59822 5.64648 8.49048V6.45923H3.61523C3.50749 6.45923 3.40416 6.41643 3.32797 6.34024C3.25179 6.26405 3.20898 6.16072 3.20898 6.05298C3.20898 5.94523 3.25179 5.8419 3.32797 5.76572C3.40416 5.68953 3.50749 5.64673 3.61523 5.64673H5.64648V3.61548C5.64648 3.50773 5.68929 3.4044 5.76547 3.32822C5.84166 3.25203 5.94499 3.20923 6.05273 3.20923V3.20923Z" fill="#363330"/>
</svg>
