<svg width="24" height="26" viewBox="0 0 24 26" fill="none" xmlns="http://www.w3.org/2000/svg">
<path d="M21.5381 22.4075C21.3601 21.8023 21.1038 21.1402 20.7976 20.4567C20.4915 19.7803 20.1426 19.0897 19.7653 18.4134C19.7154 18.5059 19.6585 18.5913 19.6015 18.6839C19.5446 18.7693 19.4876 18.8619 19.4306 18.9473C19.3737 19.0328 19.3096 19.1182 19.2527 19.2036C19.1886 19.2891 19.1245 19.3674 19.0604 19.4528C19.0533 19.4599 19.0533 19.4599 19.0462 19.4671C19.0391 19.4742 19.0391 19.4813 19.0319 19.4813C19.0248 19.4884 19.0248 19.4884 19.0177 19.4955C19.0106 19.5027 19.0106 19.5027 19.0035 19.5098L18.9465 19.5739C18.9963 19.7234 19.0675 19.9156 19.1387 20.115C19.2099 20.3143 19.2954 20.5279 19.3594 20.7344C19.4235 20.9408 19.4805 21.1331 19.5018 21.2897C19.5232 21.4463 19.5161 21.5674 19.4591 21.6314C19.4378 21.6528 19.4164 21.667 19.395 21.6813C19.3737 21.6955 19.3452 21.7098 19.3167 21.7169C19.2882 21.724 19.2598 21.7311 19.2242 21.7311C19.1886 21.7382 19.1601 21.7382 19.1174 21.7382C19.0604 21.7382 19.0035 21.7311 18.9394 21.7169C18.8753 21.7026 18.8041 21.6884 18.7329 21.6599C18.6617 21.6386 18.5834 21.6101 18.5051 21.5745C18.4268 21.546 18.3413 21.5104 18.263 21.4677C18.1562 21.4178 18.0423 21.3609 17.9284 21.3039C17.8145 21.2399 17.6934 21.1758 17.5724 21.1046C17.4514 21.0334 17.3303 20.9622 17.2022 20.8839C17.074 20.8056 16.9459 20.7272 16.8177 20.6489C17.3303 20.1434 17.8074 19.5952 18.2488 19.0185C18.6902 18.4418 19.0889 17.8295 19.4449 17.1888C19.8009 16.5551 20.107 15.8859 20.3562 15.2095C20.6125 14.5331 20.8047 13.8354 20.9471 13.1235C21.2604 11.5287 21.2462 10.0406 20.9542 8.70928C20.6695 7.39926 20.1141 6.24588 19.3452 5.3132C18.5905 4.39477 17.6365 3.6828 16.5187 3.22715C15.4223 2.77861 14.1763 2.58638 12.8236 2.67893C11.9337 2.74301 11.0508 2.921 10.1893 3.21291C9.3421 3.49769 8.50911 3.88927 7.71882 4.35917C6.92854 4.82907 6.18098 5.3844 5.48325 6.01805C4.78553 6.64458 4.13764 7.3423 3.56095 8.09699C3.40432 7.80508 3.26905 7.53453 3.16937 7.28535C3.06969 7.03616 2.99138 6.80833 2.94866 6.60898C2.90594 6.40963 2.88458 6.23164 2.90594 6.08924C2.92018 5.94685 2.97002 5.82582 3.04834 5.74038C3.06969 5.7119 3.10529 5.68342 3.14801 5.66207C3.19073 5.63359 3.23345 5.61223 3.2904 5.59087C3.34024 5.56951 3.40432 5.54815 3.46839 5.53391C3.53247 5.51967 3.60367 5.51255 3.67486 5.50543C3.75318 5.49831 3.83862 5.50543 3.91693 5.51255C4.00237 5.52679 4.0878 5.54815 4.18036 5.57663C4.2658 5.60511 4.35835 5.64783 4.45091 5.70478C4.54346 5.76174 4.6289 5.82582 4.72145 5.91125C4.80689 5.80446 4.89944 5.70478 4.992 5.60511C5.08455 5.50543 5.18423 5.41288 5.2839 5.32032C5.38358 5.22777 5.48325 5.14233 5.59005 5.0569C5.69684 4.97146 5.80364 4.89314 5.91755 4.81483C5.92467 4.80771 5.93891 4.80059 5.94603 4.80059C5.95315 4.79347 5.96739 4.78635 5.97451 4.77923C5.98163 4.77211 5.99587 4.76499 6.00299 4.75787C6.01011 4.75075 6.01723 4.74363 6.03147 4.73651C5.83212 4.55852 5.61141 4.40901 5.3907 4.28797C5.16287 4.16694 4.93504 4.07438 4.69297 4.00319C4.45803 3.93199 4.22308 3.88927 3.99525 3.8608C3.76742 3.83944 3.53959 3.83232 3.33312 3.84656C3.18361 3.85368 3.04122 3.87503 2.90594 3.90351C2.77067 3.93199 2.64964 3.96759 2.53572 4.01031C2.42181 4.05303 2.31501 4.10286 2.22958 4.1527C2.14414 4.20966 2.06582 4.26662 2.00887 4.33069C1.83088 4.52292 1.72408 4.77923 1.67424 5.08537C1.62441 5.39152 1.64577 5.75462 1.71696 6.16044C1.79528 6.56626 1.93055 7.02192 2.12278 7.51317C2.31501 8.00443 2.5642 8.54552 2.87034 9.10798C2.66388 9.42836 2.47164 9.74874 2.28653 10.0834C2.10142 10.418 1.93767 10.7597 1.78104 11.1086C1.62441 11.4575 1.48201 11.8134 1.35386 12.1765C1.22571 12.5396 1.11179 12.9099 1.01212 13.2801C0.634776 14.7111 0.527981 16.0852 0.649015 17.3525C0.777169 18.6412 1.14027 19.823 1.72408 20.8412C2.31501 21.8806 3.13377 22.7492 4.13764 23.3829C5.16287 24.0308 6.38745 24.4295 7.77578 24.5149C8.18872 24.5363 8.60878 24.5363 9.02172 24.5078C9.44178 24.4793 9.86184 24.4152 10.2819 24.3298C10.702 24.2443 11.122 24.1304 11.535 23.9952C11.955 23.8599 12.368 23.6961 12.7738 23.511L11.7913 21.6528C11.5065 21.7667 11.2146 21.8664 10.9227 21.9518C10.6308 22.0373 10.3389 22.1085 10.0469 22.1583C9.75504 22.2081 9.46314 22.2508 9.17123 22.2722C8.87933 22.2936 8.58742 22.2936 8.29552 22.2793C7.17773 22.2295 6.18098 21.9233 5.34798 21.4178C4.5221 20.9195 3.85286 20.2289 3.36872 19.403C2.88458 18.5842 2.57132 17.6302 2.46452 16.5907C2.35061 15.5584 2.43605 14.4406 2.73507 13.2801C3.0341 12.1267 3.51823 11.0232 4.14476 10.0264C4.76417 9.02966 5.53309 8.12546 6.38745 7.35654C7.24893 6.58762 8.20296 5.94685 9.21395 5.48408C10.2321 5.01418 11.3071 4.72939 12.3893 4.66532C13.4857 4.60124 14.4967 4.77923 15.3724 5.14945C16.2624 5.52679 17.0242 6.11772 17.6223 6.86529C18.2274 7.62709 18.6546 8.55976 18.8753 9.62059C19.096 10.6885 19.096 11.8846 18.8326 13.1591C18.7187 13.7144 18.562 14.2626 18.3627 14.8037C18.1633 15.3377 17.9213 15.8574 17.6436 16.3629C17.3659 16.8613 17.0527 17.3454 16.7109 17.8011C16.3692 18.2567 15.9919 18.691 15.5932 19.0897C15.6003 18.9544 15.6074 18.8192 15.6145 18.6768C15.6216 18.5344 15.6288 18.3991 15.6359 18.271C15.643 18.1428 15.6501 18.0218 15.6501 17.9221C15.6572 17.8224 15.6572 17.737 15.6572 17.68C15.6572 17.6302 15.6501 17.5804 15.643 17.5448C15.6359 17.5092 15.6216 17.4807 15.6003 17.4664C15.586 17.4451 15.5647 17.4308 15.5433 17.4237C15.522 17.4166 15.5006 17.4095 15.4792 17.4095C15.4579 17.4095 15.4436 17.4095 15.4223 17.4166C15.408 17.4166 15.3867 17.4237 15.3796 17.4308C15.3653 17.438 15.3511 17.438 15.344 17.4451C15.3368 17.4522 15.3297 17.4522 15.3297 17.4522L11.8767 18.5771C11.8696 18.5771 11.8411 18.5842 11.8055 18.6056C11.7699 18.6269 11.7201 18.6483 11.6845 18.691C11.6417 18.7337 11.6133 18.7907 11.6062 18.8619C11.599 18.9402 11.6133 19.0328 11.6773 19.1467C11.6773 19.1538 11.6845 19.1609 11.6845 19.168C11.6845 19.1752 11.6916 19.1823 11.6916 19.1894C11.6916 19.1965 11.6987 19.2036 11.6987 19.2108C11.6987 19.2179 11.7058 19.225 11.7058 19.2321C11.8625 19.5454 12.0832 19.9726 12.3395 20.4496C12.5958 20.9337 12.8806 21.4677 13.1654 22.0017C13.4501 22.5356 13.7349 23.0625 13.9841 23.511C14.2333 23.9667 14.4398 24.344 14.5608 24.579C14.575 24.6003 14.5822 24.6217 14.5893 24.6359C14.5964 24.6573 14.6106 24.6715 14.6178 24.6858C14.6249 24.7 14.632 24.7142 14.6391 24.7285C14.6462 24.7427 14.6534 24.757 14.6605 24.7641C14.689 24.8282 14.7246 24.878 14.753 24.9207C14.7815 24.9634 14.81 24.999 14.8385 25.0275C14.867 25.056 14.8954 25.0702 14.9239 25.0845C14.9524 25.0987 14.9737 25.1058 15.0022 25.1058C15.0449 25.1058 15.0877 25.0916 15.1233 25.0702C15.1589 25.0417 15.1873 25.0061 15.2158 24.9705C15.2443 24.9349 15.2585 24.8851 15.2728 24.8424C15.287 24.7997 15.2941 24.7641 15.3012 24.7285C15.3012 24.7214 15.3012 24.7071 15.3012 24.6858C15.3012 24.6715 15.3012 24.6502 15.3084 24.6288C15.3084 24.6074 15.3155 24.579 15.3155 24.5505C15.3155 24.522 15.3226 24.4935 15.3226 24.4651C15.3297 24.3511 15.3368 24.2159 15.344 24.0735C15.3511 23.9311 15.3582 23.7887 15.3653 23.6534C15.3724 23.5181 15.3796 23.4042 15.3796 23.3117C15.3867 23.2262 15.3867 23.1622 15.3867 23.155C15.8566 23.4398 16.3336 23.7175 16.8035 23.9738C17.2734 24.2301 17.7362 24.4722 18.1776 24.6786C18.619 24.8851 19.0462 25.056 19.4378 25.1841C19.8293 25.3123 20.1924 25.3906 20.5057 25.412C20.5484 25.412 20.5911 25.4191 20.6339 25.4191C20.6766 25.4191 20.7193 25.4191 20.7549 25.4191C20.7976 25.4191 20.8332 25.412 20.8688 25.412C20.9044 25.4048 20.9471 25.4048 20.9827 25.3906C21.0397 25.3835 21.0895 25.3693 21.1394 25.3479C21.1892 25.3337 21.239 25.3123 21.2818 25.2909C21.3245 25.2696 21.3672 25.2411 21.4099 25.2126C21.4526 25.1841 21.4882 25.1485 21.5238 25.1129C21.7445 24.878 21.8442 24.5078 21.8442 24.045C21.8371 23.5822 21.7374 23.0269 21.5523 22.4146L21.5381 22.4075Z" fill="#FDC600"/>
<path d="M10.8656 12.9027V12.0982H9.72644V7.65556H8.8792C8.5161 7.99018 8.13164 8.21089 7.7187 8.33192V9.16492C7.92517 9.13644 8.13164 9.06525 8.33099 8.95845C8.53746 8.85166 8.70121 8.73774 8.82224 8.62383V12.0911H7.37695V12.8956L10.8727 12.9027H10.8656ZM14.1121 11.3079C14.1121 11.5785 14.0267 11.7921 13.8558 11.9487C13.685 12.1053 13.4643 12.1837 13.1937 12.1837C12.6028 12.1837 12.3037 11.9202 12.3037 11.4076H11.3996V11.4717C11.3996 11.9487 11.5633 12.3189 11.8837 12.5824C12.2112 12.8458 12.6384 12.9739 13.1866 12.9739C13.685 12.9739 14.1193 12.8173 14.4752 12.5112C14.8383 12.2121 15.0092 11.7992 15.0092 11.2866C15.0092 10.7668 14.8526 10.3753 14.5464 10.1047C14.2332 9.83417 13.8274 9.70601 13.3147 9.70601H12.5031V8.47432H14.8383V7.64844H11.6416V10.4678H13.2435C13.5141 10.4678 13.7277 10.539 13.8843 10.6885C14.0409 10.838 14.1193 11.0445 14.1193 11.3008L14.1121 11.3222V11.3079Z" fill="#FDC600"/>
<path d="M8.53726 17.3044V13.3672H7.87513V16.3717L6.31593 13.3672H5.34766V17.3044H6.00978V14.307L7.58323 17.3044H8.53726ZM9.7832 16.9341C9.7832 16.8345 9.75472 16.7633 9.68352 16.7063C9.61232 16.6565 9.52689 16.628 9.41297 16.628C9.30618 16.628 9.22074 16.6565 9.15667 16.7063C9.08547 16.7633 9.05699 16.8345 9.05699 16.9341V17.048C9.05699 17.1477 9.09259 17.226 9.16379 17.2759C9.22786 17.3257 9.32042 17.3542 9.42721 17.3542C9.54113 17.3542 9.62656 17.3257 9.69776 17.2759C9.76896 17.226 9.79744 17.1477 9.79744 17.048L9.79032 16.9341H9.7832ZM12.6168 16.2435H11.9974C11.9974 16.6137 11.7981 16.7989 11.4065 16.7989C11.022 16.7989 10.8298 16.6066 10.8298 16.2079V15.6241C10.8298 15.2254 11.022 15.0332 11.4065 15.0332C11.7981 15.0332 11.9974 15.2183 11.9974 15.5956H12.6168V15.5458C12.6168 15.2041 12.51 14.9406 12.2893 14.7555C12.0757 14.5704 11.7838 14.4779 11.4136 14.4779C11.0505 14.4779 10.7586 14.5704 10.5379 14.7698C10.3172 14.9691 10.2104 15.2397 10.2104 15.5814V16.272C10.2104 16.6137 10.3243 16.8843 10.5379 17.0694C10.7515 17.2616 11.0434 17.3542 11.4136 17.3542C11.7838 17.3542 12.0828 17.2616 12.2964 17.0765C12.5171 16.8914 12.6239 16.628 12.6239 16.2862L12.6168 16.2506V16.2435ZM16.9242 17.3044V15.3393C16.9242 15.0688 16.8601 14.8623 16.7177 14.7128C16.5825 14.5633 16.3902 14.4921 16.1482 14.4921C15.9275 14.4921 15.7139 14.5562 15.5074 14.6843L15.2012 14.8694C15.0873 14.6202 14.8666 14.4921 14.5391 14.4921C14.3398 14.4921 14.1404 14.549 13.9553 14.663L13.7061 14.8125V14.5206H13.0796V17.3115H13.7204V15.3892L14.055 15.1827C14.1903 15.1115 14.2971 15.0759 14.3896 15.0759C14.5818 15.0759 14.6815 15.1898 14.6815 15.4176V17.3044H15.3223V15.382L15.6569 15.1756C15.7922 15.0973 15.899 15.0617 15.9915 15.0617C16.1838 15.0617 16.2834 15.1756 16.2834 15.4034V17.2972H16.9313L16.9242 17.3044Z" fill="#FDC600"/>
<path d="M18.8971 9.89C21.5599 9.89 23.7172 7.73275 23.7172 5.07C23.7172 2.40725 21.5599 0.25 18.8971 0.25C16.2344 0.25 14.0771 2.40725 14.0771 5.07C14.0771 7.73275 16.2344 9.89 18.8971 9.89Z" fill="#FDC600"/>
<path d="M18.8971 9.89C21.5599 9.89 23.7172 7.73275 23.7172 5.07C23.7172 2.40725 21.5599 0.25 18.8971 0.25C16.2344 0.25 14.0771 2.40725 14.0771 5.07C14.0771 7.73275 16.2344 9.89 18.8971 9.89Z" stroke="white" stroke-width="0.484136"/>
<path d="M20.6131 7.82215V7.30242H19.4312V2.70312H18.826C18.4629 3.03775 18.1069 3.26558 17.751 3.38661V3.93482C18.1425 3.86363 18.5056 3.66428 18.8474 3.32965V7.30954H17.3594V7.83639L20.6131 7.82927V7.82215Z" fill="#FEFEFE"/>
</svg>
