<svg width="24" height="26" viewBox="0 0 24 26" fill="none" xmlns="http://www.w3.org/2000/svg">
<path d="M21.5381 22.47C21.3601 21.8648 21.1038 21.2027 20.7976 20.5192C20.4915 19.8428 20.1426 19.1522 19.7653 18.4759C19.7154 18.5684 19.6585 18.6538 19.6015 18.7464C19.5446 18.8318 19.4876 18.9244 19.4306 19.0098C19.3737 19.0953 19.3096 19.1807 19.2527 19.2661C19.1886 19.3516 19.1245 19.4299 19.0604 19.5153C19.0533 19.5224 19.0533 19.5224 19.0462 19.5296C19.0391 19.5367 19.0391 19.5438 19.0319 19.5438C19.0248 19.5509 19.0248 19.5509 19.0177 19.558C19.0106 19.5652 19.0106 19.5652 19.0035 19.5723L18.9465 19.6364C18.9963 19.7859 19.0675 19.9781 19.1387 20.1775C19.2099 20.3768 19.2954 20.5904 19.3594 20.7969C19.4235 21.0033 19.4805 21.1956 19.5018 21.3522C19.5232 21.5088 19.5161 21.6299 19.4591 21.6939C19.4378 21.7153 19.4164 21.7295 19.395 21.7438C19.3737 21.758 19.3452 21.7723 19.3167 21.7794C19.2882 21.7865 19.2598 21.7936 19.2242 21.7936C19.1886 21.8007 19.1601 21.8007 19.1174 21.8007C19.0604 21.8007 19.0035 21.7936 18.9394 21.7794C18.8753 21.7651 18.8041 21.7509 18.7329 21.7224C18.6617 21.7011 18.5834 21.6726 18.5051 21.637C18.4268 21.6085 18.3413 21.5729 18.263 21.5302C18.1562 21.4803 18.0423 21.4234 17.9284 21.3664C17.8145 21.3024 17.6934 21.2383 17.5724 21.1671C17.4514 21.0959 17.3303 21.0247 17.2022 20.9464C17.074 20.8681 16.9459 20.7897 16.8177 20.7114C17.3303 20.2059 17.8074 19.6577 18.2488 19.081C18.6902 18.5043 19.0889 17.892 19.4449 17.2513C19.8009 16.6176 20.107 15.9484 20.3562 15.272C20.6125 14.5956 20.8047 13.8979 20.9471 13.186C21.2604 11.5912 21.2462 10.1031 20.9542 8.77178C20.6695 7.46176 20.1141 6.30838 19.3452 5.3757C18.5905 4.45727 17.6365 3.7453 16.5187 3.28965C15.4223 2.84111 14.1763 2.64888 12.8236 2.74143C11.9337 2.80551 11.0508 2.9835 10.1893 3.27541C9.3421 3.56019 8.50911 3.95177 7.71882 4.42167C6.92854 4.89157 6.18098 5.4469 5.48325 6.08055C4.78553 6.70708 4.13764 7.4048 3.56095 8.15949C3.40432 7.86758 3.26905 7.59703 3.16937 7.34785C3.06969 7.09866 2.99138 6.87083 2.94866 6.67148C2.90594 6.47213 2.88458 6.29414 2.90594 6.15174C2.92018 6.00935 2.97002 5.88832 3.04834 5.80288C3.06969 5.7744 3.10529 5.74592 3.14801 5.72457C3.19073 5.69609 3.23345 5.67473 3.2904 5.65337C3.34024 5.63201 3.40432 5.61065 3.46839 5.59641C3.53247 5.58217 3.60367 5.57505 3.67486 5.56793C3.75318 5.56081 3.83862 5.56793 3.91693 5.57505C4.00237 5.58929 4.0878 5.61065 4.18036 5.63913C4.2658 5.66761 4.35835 5.71033 4.45091 5.76728C4.54346 5.82424 4.6289 5.88832 4.72145 5.97375C4.80689 5.86696 4.89944 5.76728 4.992 5.66761C5.08455 5.56793 5.18423 5.47538 5.2839 5.38282C5.38358 5.29027 5.48325 5.20483 5.59005 5.1194C5.69684 5.03396 5.80364 4.95564 5.91755 4.87733C5.92467 4.87021 5.93891 4.86309 5.94603 4.86309C5.95315 4.85597 5.96739 4.84885 5.97451 4.84173C5.98163 4.83461 5.99587 4.82749 6.00299 4.82037C6.01011 4.81325 6.01723 4.80613 6.03147 4.79901C5.83212 4.62102 5.61141 4.47151 5.3907 4.35047C5.16287 4.22944 4.93504 4.13688 4.69297 4.06569C4.45803 3.99449 4.22308 3.95177 3.99525 3.9233C3.76742 3.90194 3.53959 3.89482 3.33312 3.90906C3.18361 3.91618 3.04122 3.93753 2.90594 3.96601C2.77067 3.99449 2.64964 4.03009 2.53572 4.07281C2.42181 4.11553 2.31501 4.16536 2.22958 4.2152C2.14414 4.27216 2.06582 4.32912 2.00887 4.39319C1.83088 4.58542 1.72408 4.84173 1.67424 5.14787C1.62441 5.45402 1.64577 5.81712 1.71696 6.22294C1.79528 6.62876 1.93055 7.08442 2.12278 7.57567C2.31501 8.06693 2.5642 8.60802 2.87034 9.17048C2.66388 9.49086 2.47164 9.81124 2.28653 10.1459C2.10142 10.4805 1.93767 10.8222 1.78104 11.1711C1.62441 11.52 1.48201 11.8759 1.35386 12.239C1.22571 12.6021 1.11179 12.9724 1.01212 13.3426C0.634776 14.7736 0.527981 16.1477 0.649015 17.415C0.777169 18.7037 1.14027 19.8855 1.72408 20.9037C2.31501 21.9431 3.13377 22.8117 4.13764 23.4454C5.16287 24.0933 6.38745 24.492 7.77578 24.5774C8.18872 24.5988 8.60878 24.5988 9.02172 24.5703C9.44178 24.5418 9.86184 24.4777 10.2819 24.3923C10.702 24.3068 11.122 24.1929 11.535 24.0577C11.955 23.9224 12.368 23.7586 12.7738 23.5735L11.7913 21.7153C11.5065 21.8292 11.2146 21.9289 10.9227 22.0143C10.6308 22.0998 10.3389 22.171 10.0469 22.2208C9.75504 22.2706 9.46314 22.3133 9.17123 22.3347C8.87933 22.3561 8.58742 22.3561 8.29552 22.3418C7.17773 22.292 6.18098 21.9858 5.34798 21.4803C4.5221 20.982 3.85286 20.2914 3.36872 19.4655C2.88458 18.6467 2.57132 17.6927 2.46452 16.6532C2.35061 15.6209 2.43605 14.5031 2.73507 13.3426C3.0341 12.1892 3.51823 11.0857 4.14476 10.0889C4.76417 9.09216 5.53309 8.18796 6.38745 7.41904C7.24893 6.65012 8.20296 6.00935 9.21395 5.54658C10.2321 5.07668 11.3071 4.79189 12.3893 4.72782C13.4857 4.66374 14.4967 4.84173 15.3724 5.21195C16.2624 5.58929 17.0242 6.18022 17.6223 6.92779C18.2274 7.68959 18.6546 8.62226 18.8753 9.68309C19.096 10.751 19.096 11.9471 18.8326 13.2216C18.7187 13.7769 18.562 14.3251 18.3627 14.8662C18.1633 15.4002 17.9213 15.9199 17.6436 16.4254C17.3659 16.9238 17.0527 17.4079 16.7109 17.8636C16.3692 18.3192 15.9919 18.7535 15.5932 19.1522C15.6003 19.0169 15.6074 18.8817 15.6145 18.7393C15.6216 18.5969 15.6288 18.4616 15.6359 18.3335C15.643 18.2053 15.6501 18.0843 15.6501 17.9846C15.6572 17.8849 15.6572 17.7995 15.6572 17.7425C15.6572 17.6927 15.6501 17.6429 15.643 17.6073C15.6359 17.5717 15.6216 17.5432 15.6003 17.5289C15.586 17.5076 15.5647 17.4933 15.5433 17.4862C15.522 17.4791 15.5006 17.472 15.4792 17.472C15.4579 17.472 15.4436 17.472 15.4223 17.4791C15.408 17.4791 15.3867 17.4862 15.3796 17.4933C15.3653 17.5005 15.3511 17.5005 15.344 17.5076C15.3368 17.5147 15.3297 17.5147 15.3297 17.5147L11.8767 18.6396C11.8696 18.6396 11.8411 18.6467 11.8055 18.6681C11.7699 18.6894 11.7201 18.7108 11.6845 18.7535C11.6417 18.7962 11.6133 18.8532 11.6062 18.9244C11.599 19.0027 11.6133 19.0953 11.6773 19.2092C11.6773 19.2163 11.6845 19.2234 11.6845 19.2305C11.6845 19.2377 11.6916 19.2448 11.6916 19.2519C11.6916 19.259 11.6987 19.2661 11.6987 19.2733C11.6987 19.2804 11.7058 19.2875 11.7058 19.2946C11.8625 19.6079 12.0832 20.0351 12.3395 20.5121C12.5958 20.9962 12.8806 21.5302 13.1654 22.0642C13.4501 22.5981 13.7349 23.125 13.9841 23.5735C14.2333 24.0292 14.4398 24.4065 14.5608 24.6415C14.575 24.6628 14.5822 24.6842 14.5893 24.6984C14.5964 24.7198 14.6106 24.734 14.6178 24.7483C14.6249 24.7625 14.632 24.7767 14.6391 24.791C14.6462 24.8052 14.6534 24.8195 14.6605 24.8266C14.689 24.8907 14.7246 24.9405 14.753 24.9832C14.7815 25.0259 14.81 25.0615 14.8385 25.09C14.867 25.1185 14.8954 25.1327 14.9239 25.147C14.9524 25.1612 14.9737 25.1683 15.0022 25.1683C15.0449 25.1683 15.0877 25.1541 15.1233 25.1327C15.1589 25.1042 15.1873 25.0686 15.2158 25.033C15.2443 24.9974 15.2585 24.9476 15.2728 24.9049C15.287 24.8622 15.2941 24.8266 15.3012 24.791C15.3012 24.7839 15.3012 24.7696 15.3012 24.7483C15.3012 24.734 15.3012 24.7127 15.3084 24.6913C15.3084 24.6699 15.3155 24.6415 15.3155 24.613C15.3155 24.5845 15.3226 24.556 15.3226 24.5276C15.3297 24.4136 15.3368 24.2784 15.344 24.136C15.3511 23.9936 15.3582 23.8512 15.3653 23.7159C15.3724 23.5806 15.3796 23.4667 15.3796 23.3742C15.3867 23.2887 15.3867 23.2247 15.3867 23.2175C15.8566 23.5023 16.3336 23.78 16.8035 24.0363C17.2734 24.2926 17.7362 24.5347 18.1776 24.7411C18.619 24.9476 19.0462 25.1185 19.4378 25.2466C19.8293 25.3748 20.1924 25.4531 20.5057 25.4745C20.5484 25.4745 20.5911 25.4816 20.6339 25.4816C20.6766 25.4816 20.7193 25.4816 20.7549 25.4816C20.7976 25.4816 20.8332 25.4745 20.8688 25.4745C20.9044 25.4673 20.9471 25.4673 20.9827 25.4531C21.0397 25.446 21.0895 25.4318 21.1394 25.4104C21.1892 25.3962 21.239 25.3748 21.2818 25.3534C21.3245 25.3321 21.3672 25.3036 21.4099 25.2751C21.4526 25.2466 21.4882 25.211 21.5238 25.1754C21.7445 24.9405 21.8442 24.5703 21.8442 24.1075C21.8371 23.6447 21.7374 23.0894 21.5523 22.4771L21.5381 22.47Z" fill="#FDC600"/>
<path d="M10.8656 12.9652V12.1607H9.72644V7.71806H8.8792C8.5161 8.05268 8.13164 8.27339 7.7187 8.39442V9.22742C7.92517 9.19894 8.13164 9.12775 8.33099 9.02095C8.53746 8.91416 8.70121 8.80024 8.82224 8.68633V12.1536H7.37695V12.9581L10.8727 12.9652H10.8656ZM14.1121 11.3704C14.1121 11.641 14.0267 11.8546 13.8558 12.0112C13.685 12.1678 13.4643 12.2462 13.1937 12.2462C12.6028 12.2462 12.3037 11.9827 12.3037 11.4701H11.3996V11.5342C11.3996 12.0112 11.5633 12.3814 11.8837 12.6449C12.2112 12.9083 12.6384 13.0364 13.1866 13.0364C13.685 13.0364 14.1193 12.8798 14.4752 12.5737C14.8383 12.2746 15.0092 11.8617 15.0092 11.3491C15.0092 10.8293 14.8526 10.4378 14.5464 10.1672C14.2332 9.89667 13.8274 9.76851 13.3147 9.76851H12.5031V8.53682H14.8383V7.71094H11.6416V10.5303H13.2435C13.5141 10.5303 13.7277 10.6015 13.8843 10.751C14.0409 10.9005 14.1193 11.107 14.1193 11.3633L14.1121 11.3847V11.3704Z" fill="#FDC600"/>
<path d="M8.53726 17.3669V13.4297H7.87513V16.4342L6.31593 13.4297H5.34766V17.3669H6.00978V14.3695L7.58323 17.3669H8.53726ZM9.7832 16.9966C9.7832 16.897 9.75472 16.8258 9.68352 16.7688C9.61232 16.719 9.52689 16.6905 9.41297 16.6905C9.30618 16.6905 9.22074 16.719 9.15667 16.7688C9.08547 16.8258 9.05699 16.897 9.05699 16.9966V17.1105C9.05699 17.2102 9.09259 17.2885 9.16379 17.3384C9.22786 17.3882 9.32042 17.4167 9.42721 17.4167C9.54113 17.4167 9.62656 17.3882 9.69776 17.3384C9.76896 17.2885 9.79744 17.2102 9.79744 17.1105L9.79032 16.9966H9.7832ZM12.6168 16.306H11.9974C11.9974 16.6762 11.7981 16.8614 11.4065 16.8614C11.022 16.8614 10.8298 16.6691 10.8298 16.2704V15.6866C10.8298 15.2879 11.022 15.0957 11.4065 15.0957C11.7981 15.0957 11.9974 15.2808 11.9974 15.6581H12.6168V15.6083C12.6168 15.2666 12.51 15.0031 12.2893 14.818C12.0757 14.6329 11.7838 14.5404 11.4136 14.5404C11.0505 14.5404 10.7586 14.6329 10.5379 14.8323C10.3172 15.0316 10.2104 15.3022 10.2104 15.6439V16.3345C10.2104 16.6762 10.3243 16.9468 10.5379 17.1319C10.7515 17.3241 11.0434 17.4167 11.4136 17.4167C11.7838 17.4167 12.0828 17.3241 12.2964 17.139C12.5171 16.9539 12.6239 16.6905 12.6239 16.3487L12.6168 16.3131V16.306ZM16.9242 17.3669V15.4018C16.9242 15.1313 16.8601 14.9248 16.7177 14.7753C16.5825 14.6258 16.3902 14.5546 16.1482 14.5546C15.9275 14.5546 15.7139 14.6187 15.5074 14.7468L15.2012 14.9319C15.0873 14.6827 14.8666 14.5546 14.5391 14.5546C14.3398 14.5546 14.1404 14.6115 13.9553 14.7255L13.7061 14.875V14.5831H13.0796V17.374H13.7204V15.4517L14.055 15.2452C14.1903 15.174 14.2971 15.1384 14.3896 15.1384C14.5818 15.1384 14.6815 15.2523 14.6815 15.4801V17.3669H15.3223V15.4445L15.6569 15.2381C15.7922 15.1598 15.899 15.1242 15.9915 15.1242C16.1838 15.1242 16.2834 15.2381 16.2834 15.4659V17.3597H16.9313L16.9242 17.3669Z" fill="#FDC600"/>
<path d="M18.8971 9.9525C21.5599 9.9525 23.7172 7.79525 23.7172 5.1325C23.7172 2.46975 21.5599 0.3125 18.8971 0.3125C16.2344 0.3125 14.0771 2.46975 14.0771 5.1325C14.0771 7.79525 16.2344 9.9525 18.8971 9.9525Z" fill="#FDC600"/>
<path d="M18.8971 9.9525C21.5599 9.9525 23.7172 7.79525 23.7172 5.1325C23.7172 2.46975 21.5599 0.3125 18.8971 0.3125C16.2344 0.3125 14.0771 2.46975 14.0771 5.1325C14.0771 7.79525 16.2344 9.9525 18.8971 9.9525Z" stroke="white" stroke-width="0.484136"/>
<path d="M20.6131 7.88465V7.36492H19.4312V2.76562H18.826C18.4629 3.10025 18.1069 3.32808 17.751 3.44911V3.99732C18.1425 3.92613 18.5056 3.72678 18.8474 3.39215V7.37204H17.3594V7.89889L20.6131 7.89177V7.88465Z" fill="#FEFEFE"/>
</svg>
