<svg width="17" height="17" viewBox="0 0 17 17" fill="none" xmlns="http://www.w3.org/2000/svg">
<path d="M8.77063 4.75C8.90324 4.75 9.03042 4.80268 9.12419 4.89645C9.21797 4.99022 9.27064 5.1174 9.27064 5.25002V8.25011H12.2707C12.4033 8.25011 12.5305 8.30279 12.6243 8.39656C12.7181 8.49033 12.7708 8.61751 12.7708 8.75012C12.7708 8.88273 12.7181 9.00991 12.6243 9.10369C12.5305 9.19746 12.4033 9.25014 12.2707 9.25014H9.27064V12.2502C9.27064 12.3828 9.21797 12.51 9.12419 12.6038C9.03042 12.6976 8.90324 12.7502 8.77063 12.7502C8.63802 12.7502 8.51084 12.6976 8.41707 12.6038C8.32329 12.51 8.27061 12.3828 8.27061 12.2502V9.25014H5.27052C5.13791 9.25014 5.01073 9.19746 4.91696 9.10369C4.82319 9.00991 4.77051 8.88273 4.77051 8.75012C4.77051 8.61751 4.82319 8.49033 4.91696 8.39656C5.01073 8.30279 5.13791 8.25011 5.27052 8.25011H8.27061V5.25002C8.27061 5.1174 8.32329 4.99022 8.41707 4.89645C8.51084 4.80268 8.63802 4.75 8.77063 4.75Z" fill="#CFCCC9"/>
</svg>
