<svg width="17" height="17" viewBox="0 0 17 17" fill="none" xmlns="http://www.w3.org/2000/svg">
<path d="M8.77063 4.17188C8.90324 4.17187 9.03042 4.22456 9.12419 4.31833C9.21797 4.4121 9.27064 4.53928 9.27064 4.67189V7.67198H12.2707C12.4033 7.67198 12.5305 7.72466 12.6243 7.81843C12.7181 7.9122 12.7708 8.03938 12.7708 8.172C12.7708 8.30461 12.7181 8.43179 12.6243 8.52556C12.5305 8.61933 12.4033 8.67201 12.2707 8.67201H9.27064V11.6721C9.27064 11.8047 9.21797 11.9319 9.12419 12.0257C9.03042 12.1194 8.90324 12.1721 8.77063 12.1721C8.63802 12.1721 8.51084 12.1194 8.41707 12.0257C8.32329 11.9319 8.27061 11.8047 8.27061 11.6721V8.67201H5.27052C5.13791 8.67201 5.01073 8.61933 4.91696 8.52556C4.82319 8.43179 4.77051 8.30461 4.77051 8.172C4.77051 8.03938 4.82319 7.9122 4.91696 7.81843C5.01073 7.72466 5.13791 7.67198 5.27052 7.67198H8.27061V4.67189C8.27061 4.53928 8.32329 4.4121 8.41707 4.31833C8.51084 4.22456 8.63802 4.17187 8.77063 4.17188Z" fill="#CFCCC9"/>
</svg>
