<svg width="17" height="16" viewBox="0 0 17 16" fill="none" xmlns="http://www.w3.org/2000/svg">
<path d="M8.74524 4.00781C8.87785 4.00781 9.00503 4.06049 9.0988 4.15426C9.19257 4.24803 9.24525 4.37522 9.24525 4.50783V7.50792H12.2453C12.378 7.50792 12.5051 7.5606 12.5989 7.65437C12.6927 7.74814 12.7454 7.87532 12.7454 8.00793C12.7454 8.14055 12.6927 8.26773 12.5989 8.3615C12.5051 8.45527 12.378 8.50795 12.2453 8.50795H9.24525V11.508C9.24525 11.6407 9.19257 11.7678 9.0988 11.8616C9.00503 11.9554 8.87785 12.0081 8.74524 12.0081C8.61263 12.0081 8.48545 11.9554 8.39167 11.8616C8.2979 11.7678 8.24522 11.6407 8.24522 11.508V8.50795H5.24513C5.11252 8.50795 4.98534 8.45527 4.89157 8.3615C4.7978 8.26773 4.74512 8.14055 4.74512 8.00793C4.74512 7.87532 4.7978 7.74814 4.89157 7.65437C4.98534 7.5606 5.11252 7.50792 5.24513 7.50792H8.24522V4.50783C8.24522 4.37522 8.2979 4.24803 8.39167 4.15426C8.48545 4.06049 8.61263 4.00781 8.74524 4.00781Z" fill="#CFCCC9"/>
</svg>
