<svg width="136" height="35" viewBox="0 0 136 35" fill="none" xmlns="http://www.w3.org/2000/svg">
<path d="M0 26.2917V14.9922H2.09304L8.37807 23.0666V14.9922H10.3915V26.2917H8.29848L2.0164 18.0433V26.2917H0Z" fill="#46B98C"/>
<path d="M18.8962 22.9536H13.4661C13.4661 24.0709 14.377 24.628 16.2018 24.628C17.039 24.628 17.8762 24.5484 18.7135 24.3922V26.0519C17.9824 26.2111 17.039 26.2907 15.8834 26.2907C12.8765 26.2907 11.3701 24.8756 11.3701 22.0456C11.3701 19.3423 12.7468 17.9922 15.5031 17.9922C18.2536 17.9922 19.3826 19.646 18.8933 22.9565L18.8962 22.9536ZM13.4661 21.4207H16.927C17.0007 20.2297 16.4465 19.6342 15.2673 19.6342C14.1589 19.6342 13.5604 20.2297 13.4632 21.4207H13.4661Z" fill="#46B98C"/>
<path d="M19.2734 22.1414C19.2734 19.3232 20.6708 17.9141 23.4625 17.9141C26.2542 17.9141 27.6515 19.3232 27.6515 22.1414C27.6515 24.9538 26.2571 26.3629 23.4625 26.3629C20.6796 26.3629 19.2852 24.9567 19.2734 22.1414ZM23.4625 24.7091C24.8598 24.7091 25.5555 23.8424 25.5555 22.109C25.5555 20.4198 24.8569 19.5708 23.4625 19.5708C22.0681 19.5708 21.3665 20.4169 21.3665 22.109C21.3665 23.8424 22.0651 24.7091 23.4625 24.7091Z" fill="#46B98C"/>
<path d="M28.6299 26.2946V14.9922H33.4498C35.5988 14.9922 36.6748 15.8972 36.6748 17.7043C36.6748 19.7443 35.1773 21.006 32.1792 21.4895L31.8785 20.2572C34.0394 19.9153 35.1183 19.0839 35.1183 17.7662C35.1183 16.7226 34.5169 16.2008 33.3171 16.2008H30.0921V26.2917H28.6299V26.2946Z" fill="#46B98C"/>
<path d="M37.3809 22.14C37.3809 19.3748 38.6986 17.9922 41.3341 17.9922C43.9666 17.9922 45.2873 19.3748 45.2873 22.14C45.2873 24.8992 43.9695 26.2818 41.3341 26.2818C38.8165 26.2818 37.4988 24.9022 37.3809 22.14ZM41.3341 25.1026C42.9938 25.1026 43.8221 24.1062 43.8221 22.1075C43.8221 20.153 42.9938 19.1743 41.3341 19.1743C39.6744 19.1743 38.843 20.153 38.843 22.1075C38.843 24.1062 39.6744 25.1026 41.3341 25.1026Z" fill="#46B98C"/>
<path d="M46.5771 26.2907V17.9922H47.5647L47.8271 19.0505C48.5552 18.3459 49.3217 17.9922 50.1353 17.9922V19.2097C49.3541 19.2097 48.6584 19.5605 48.0393 20.2621V26.2907H46.5771Z" fill="#46B98C"/>
<path d="M50.8369 22.14C50.8369 19.3748 52.1546 17.9922 54.7901 17.9922C57.4226 17.9922 58.7404 19.3748 58.7404 22.14C58.7404 24.8992 57.4226 26.2818 54.7901 26.2818C52.2726 26.2818 50.9548 24.9022 50.8369 22.14ZM54.7901 25.1026C56.4498 25.1026 57.2782 24.1062 57.2782 22.1075C57.2782 20.153 56.4498 19.1743 54.7901 19.1743C53.1304 19.1743 52.2991 20.153 52.2991 22.1075C52.2991 24.1062 53.1304 25.1026 54.7901 25.1026Z" fill="#46B98C"/>
<path d="M60.0386 25.8908V24.6261C60.9613 24.9415 61.9194 25.1007 62.9158 25.1007C64.2394 25.1007 64.8997 24.7057 64.8997 23.9156C64.8997 23.1787 64.4634 22.8072 63.5967 22.8072H62.4117C60.5692 22.8072 59.6465 21.9906 59.6465 20.3575C59.6465 18.7774 60.8492 17.9844 63.2577 17.9844C64.1421 17.9844 65.0471 18.117 65.9669 18.3794V19.6441C65.0442 19.3286 64.1421 19.1695 63.2577 19.1695C61.7189 19.1695 60.9495 19.5645 60.9495 20.3545C60.9495 21.0915 61.4359 21.46 62.4117 21.46H63.5967C65.4392 21.46 66.3619 22.2766 66.3619 23.9098C66.3619 25.4899 65.2122 26.2799 62.9158 26.2799C61.9194 26.2799 60.9613 26.1472 60.0386 25.8849V25.8908Z" fill="#46B98C"/>
<path d="M122.375 8.52965C119.398 8.46184 117.691 8.37046 113.652 4.73269C111.598 2.88138 108.16 0.90625 103.087 0.90625C93.68 0.90625 86.0566 8.49132 86.0566 17.8452C86.0566 27.202 93.683 34.7841 103.087 34.7841C106.975 34.7841 111.415 32.3874 111.415 32.3874C112.52 31.7919 114.292 31.8509 115.353 32.526C115.353 32.526 118.92 34.7841 122.375 34.7841C129.666 34.7841 135.573 28.9059 135.573 21.6569C135.573 14.4079 129.663 8.69473 122.375 8.5267V8.52965Z" fill="#66B3E4"/>
<path d="M95.0294 19.6177C93.8944 19.6177 93.3255 20.0157 93.3255 20.8116C93.3255 21.6547 93.8207 22.0763 94.8142 22.0763C95.7163 22.0763 96.4356 21.8847 96.9692 21.5014V19.7563C96.4503 19.6619 95.8047 19.6148 95.0294 19.6148V19.6177ZM92.0166 20.8323C92.0166 19.32 93.0218 18.5623 95.0294 18.5623C95.7693 18.5623 96.4149 18.6095 96.9692 18.7009V18.0052C96.9692 17.2033 96.3029 16.8024 94.9675 16.8024C94.204 16.8024 93.4228 16.9174 92.618 17.1562V16.1008C93.4228 15.8679 94.204 15.75 94.9675 15.75C97.1726 15.75 98.2751 16.5371 98.2751 18.1113V23.1346H97.6118L97.0871 22.6158C96.4444 22.9607 95.6809 23.1346 94.8113 23.1346C92.9481 23.1346 92.0166 22.3681 92.0166 20.8323Z" fill="white"/>
<path d="M105.329 22.9253C104.716 23.0668 104.056 23.1376 103.351 23.1376C100.666 23.1376 99.3213 21.8582 99.3213 19.3023C99.3213 16.9351 100.666 15.75 103.351 15.75C104.059 15.75 104.719 15.8208 105.329 15.9623V17.0176C104.716 16.8761 104.103 16.8083 103.493 16.8083C101.582 16.8083 100.63 17.6396 100.63 19.3023C100.63 21.1565 101.582 22.0792 103.493 22.0792C104.103 22.0792 104.719 22.0114 105.329 21.867V22.9224V22.9253Z" fill="white"/>
<path d="M111.161 17.0029C110.713 16.8909 110.159 16.8348 109.498 16.8348C107.918 16.8348 107.131 17.6868 107.131 19.3878C107.131 21.1359 107.877 22.0085 109.369 22.0085C110.047 22.0085 110.645 21.8817 111.158 21.6282V17.0029H111.161ZM112.467 25.8084H111.161V22.7838C110.604 23.0167 110.005 23.1346 109.366 23.1346C107.019 23.1346 105.843 21.8906 105.843 19.3996C105.843 16.9675 107.081 15.75 109.551 15.75C110.559 15.75 111.529 15.8502 112.467 16.0536V25.8055V25.8084Z" fill="white"/>
<path d="M120.265 15.7451V23.1297H119.369L119.142 22.1864C118.243 22.8173 117.335 23.1297 116.427 23.1297C114.72 23.1297 113.868 22.21 113.868 20.3764V15.7422H115.177V20.3999C115.177 21.4966 115.722 22.042 116.816 22.042C117.565 22.042 118.278 21.7324 118.959 21.1104V15.7422H120.265V15.7451Z" fill="white"/>
<path d="M124.318 19.6177C123.184 19.6177 122.618 20.0157 122.618 20.8116C122.618 21.6547 123.11 22.0763 124.1 22.0763C125.002 22.0763 125.722 21.8847 126.255 21.5014V19.7563C125.736 19.6619 125.091 19.6148 124.316 19.6148L124.318 19.6177ZM121.309 20.8323C121.309 19.32 122.311 18.5623 124.318 18.5623C125.055 18.5623 125.707 18.6095 126.258 18.7009V18.0052C126.258 17.2033 125.589 16.8024 124.257 16.8024C123.49 16.8024 122.709 16.9174 121.907 17.1562V16.1008C122.709 15.8679 123.49 15.75 124.257 15.75C126.462 15.75 127.567 16.5371 127.567 18.1113V23.1346H126.898L126.373 22.6158C125.731 22.9607 124.97 23.1346 124.1 23.1346C122.237 23.1346 121.306 22.3681 121.306 20.8323H121.309Z" fill="white"/>
<path d="M77.4281 22.7557H77.0625C77.0625 23.3836 76.6174 23.702 75.7153 23.702C75.3115 23.702 74.9901 23.5988 74.7602 23.3895C74.5303 23.1832 74.4182 22.8736 74.4182 22.4668V22.0777H77.4428V21.4675C77.4517 20.9486 77.3013 20.5359 76.9888 20.2352C76.6764 19.9316 76.2725 19.7812 75.7713 19.7812C75.2702 19.7812 74.8545 19.9316 74.5361 20.2352C74.2178 20.5389 74.0615 20.9427 74.0615 21.4586V22.4786C74.0615 22.9621 74.2119 23.3453 74.5214 23.6254C74.8339 23.9025 75.2378 24.0469 75.7478 24.0469C76.2636 24.0469 76.6764 23.9349 76.9888 23.7138C77.2984 23.4898 77.4576 23.1802 77.4576 22.7882L77.4251 22.7557H77.4281ZM77.1009 21.7122H74.4448V21.4586C74.4448 21.0223 74.5627 20.6863 74.8103 20.4652C75.0579 20.2411 75.3822 20.1321 75.789 20.1321C76.1958 20.1321 76.5142 20.2441 76.753 20.4652C76.9918 20.6892 77.1126 21.0223 77.1126 21.4586L77.1038 21.7122H77.1009Z" fill="#46B98C"/>
<path d="M69.948 18.9897C70.5465 18.9897 71.0565 18.7775 71.478 18.3589C71.8996 17.9373 72.1089 17.4214 72.1089 16.8141C72.1089 16.198 71.8966 15.6821 71.478 15.2724C71.0565 14.8626 70.5465 14.6562 69.9421 14.6562C69.3378 14.6562 68.8278 14.8626 68.4063 15.2783C67.9847 15.6939 67.7754 16.2098 67.7754 16.823C67.7754 17.4332 67.9847 17.9491 68.4063 18.3677C68.8278 18.7893 69.3437 18.9986 69.948 18.9986V18.9868V18.9897ZM69.948 18.751C69.4144 18.751 68.9664 18.5652 68.6008 18.1908C68.2353 17.8194 68.0525 17.3654 68.0525 16.8259C68.0525 16.2835 68.2353 15.8295 68.6008 15.464C68.9664 15.0984 69.4144 14.9127 69.948 14.9127C70.4787 14.9127 70.9297 15.0955 71.2952 15.4551C71.6608 15.8148 71.8436 16.2717 71.8436 16.82C71.8436 17.3625 71.6608 17.8165 71.2952 18.1879C70.9297 18.5593 70.4787 18.7421 69.9539 18.7421L69.948 18.748V18.751ZM70.9798 18.014L70.4521 16.9173C70.5789 16.8672 70.6909 16.7847 70.7794 16.6726C70.8678 16.5606 70.912 16.4221 70.912 16.2629C70.912 16.0624 70.8472 15.9003 70.7115 15.7735C70.5789 15.6468 70.4256 15.5849 70.2428 15.5849H69.1462V18.011H69.4056V16.9645H70.2045L70.7027 18.011H70.9798V18.014ZM69.4056 16.7169V15.8295H70.2369C70.3519 15.8295 70.4521 15.8679 70.5288 15.9445C70.6054 16.0212 70.6437 16.1273 70.6437 16.2658C70.6437 16.4044 70.6054 16.5164 70.5199 16.5989C70.4374 16.6815 70.3372 16.7198 70.2163 16.7198L69.4027 16.7139L69.4056 16.7169Z" fill="#46B98C"/>
<path d="M129.736 18.8462V16.2314H130.65V15.9248H128.498V16.2314H129.394V18.8462H129.736ZM133.598 18.8462V15.9219H133.109L132.354 18.466L131.62 15.9219H131.113V18.8462H131.425V16.4024L132.159 18.8462H132.531L133.286 16.3877V18.8462H133.598Z" fill="white"/>
</svg>
