<svg width="21" height="21" viewBox="0 0 21 21" fill="none" xmlns="http://www.w3.org/2000/svg">
<path d="M10.4582 5.81641C10.6225 5.81641 10.78 5.88165 10.8961 5.99779C11.0123 6.11393 11.0775 6.27145 11.0775 6.4357V10.1514H14.7932C14.9575 10.1514 15.115 10.2167 15.2312 10.3328C15.3473 10.449 15.4125 10.6065 15.4125 10.7707C15.4125 10.935 15.3473 11.0925 15.2312 11.2086C15.115 11.3248 14.9575 11.39 14.7932 11.39H11.0775V15.1057C11.0775 15.27 11.0123 15.4275 10.8961 15.5437C10.78 15.6598 10.6225 15.725 10.4582 15.725C10.294 15.725 10.1365 15.6598 10.0203 15.5437C9.90418 15.4275 9.83893 15.27 9.83893 15.1057V11.39H6.1232C5.95895 11.39 5.80143 11.3248 5.68529 11.2086C5.56915 11.0925 5.50391 10.935 5.50391 10.7707C5.50391 10.6065 5.56915 10.449 5.68529 10.3328C5.80143 10.2167 5.95895 10.1514 6.1232 10.1514H9.83893V6.4357C9.83893 6.27145 9.90418 6.11393 10.0203 5.99779C10.1365 5.88165 10.294 5.81641 10.4582 5.81641Z" fill="#363330"/>
</svg>
