<svg width="21" height="21" viewBox="0 0 21 21" fill="none" xmlns="http://www.w3.org/2000/svg">
<path d="M10.1662 5.16406C10.3305 5.16406 10.488 5.22931 10.6041 5.34545C10.7203 5.46159 10.7855 5.61911 10.7855 5.78335V9.49909H14.5013C14.6655 9.49909 14.823 9.56433 14.9392 9.68047C15.0553 9.79661 15.1205 9.95413 15.1205 10.1184C15.1205 10.2826 15.0553 10.4401 14.9392 10.5563C14.823 10.6724 14.6655 10.7377 14.5013 10.7377H10.7855V14.4534C10.7855 14.6176 10.7203 14.7752 10.6041 14.8913C10.488 15.0074 10.3305 15.0727 10.1662 15.0727C10.002 15.0727 9.84446 15.0074 9.72833 14.8913C9.61219 14.7752 9.54694 14.6176 9.54694 14.4534V10.7377H5.8312C5.66696 10.7377 5.50944 10.6724 5.3933 10.5563C5.27716 10.4401 5.21191 10.2826 5.21191 10.1184C5.21191 9.95413 5.27716 9.79661 5.3933 9.68047C5.50944 9.56433 5.66696 9.49909 5.8312 9.49909H9.54694V5.78335C9.54694 5.61911 9.61219 5.46159 9.72833 5.34545C9.84446 5.22931 10.002 5.16406 10.1662 5.16406Z" fill="#363330"/>
</svg>
