<svg width="21" height="21" viewBox="0 0 21 21" fill="none" xmlns="http://www.w3.org/2000/svg">
<path d="M10.1662 5.48828C10.3305 5.48828 10.488 5.55353 10.6041 5.66967C10.7203 5.78581 10.7855 5.94332 10.7855 6.10757V9.82331H14.5013C14.6655 9.82331 14.823 9.88855 14.9392 10.0047C15.0553 10.1208 15.1205 10.2784 15.1205 10.4426C15.1205 10.6068 15.0553 10.7644 14.9392 10.8805C14.823 10.9966 14.6655 11.0619 14.5013 11.0619H10.7855V14.7776C10.7855 14.9419 10.7203 15.0994 10.6041 15.2155C10.488 15.3317 10.3305 15.3969 10.1662 15.3969C10.002 15.3969 9.84446 15.3317 9.72833 15.2155C9.61219 15.0994 9.54694 14.9419 9.54694 14.7776V11.0619H5.8312C5.66696 11.0619 5.50944 10.9966 5.3933 10.8805C5.27716 10.7644 5.21191 10.6068 5.21191 10.4426C5.21191 10.2784 5.27716 10.1208 5.3933 10.0047C5.50944 9.88855 5.66696 9.82331 5.8312 9.82331H9.54694V6.10757C9.54694 5.94332 9.61219 5.78581 9.72833 5.66967C9.84446 5.55353 10.002 5.48828 10.1662 5.48828Z" fill="#363330"/>
</svg>
