<svg width="21" height="21" viewBox="0 0 21 21" fill="none" xmlns="http://www.w3.org/2000/svg">
<path d="M10.4582 5.50781C10.6225 5.50781 10.78 5.57306 10.8961 5.6892C11.0123 5.80534 11.0775 5.96286 11.0775 6.1271V9.84284H14.7932C14.9575 9.84284 15.115 9.90808 15.2312 10.0242C15.3473 10.1404 15.4125 10.2979 15.4125 10.4621C15.4125 10.6264 15.3473 10.7839 15.2312 10.9C15.115 11.0162 14.9575 11.0814 14.7932 11.0814H11.0775V14.7972C11.0775 14.9614 11.0123 15.1189 10.8961 15.2351C10.78 15.3512 10.6225 15.4164 10.4582 15.4164C10.294 15.4164 10.1365 15.3512 10.0203 15.2351C9.90418 15.1189 9.83893 14.9614 9.83893 14.7972V11.0814H6.1232C5.95895 11.0814 5.80143 11.0162 5.68529 10.9C5.56915 10.7839 5.50391 10.6264 5.50391 10.4621C5.50391 10.2979 5.56915 10.1404 5.68529 10.0242C5.80143 9.90808 5.95895 9.84284 6.1232 9.84284H9.83893V6.1271C9.83893 5.96286 9.90418 5.80534 10.0203 5.6892C10.1365 5.57306 10.294 5.50781 10.4582 5.50781Z" fill="#363330"/>
</svg>
