<svg width="21" height="21" viewBox="0 0 21 21" fill="none" xmlns="http://www.w3.org/2000/svg">
<path d="M10.6672 5.81641C10.8315 5.81641 10.989 5.88165 11.1051 5.99779C11.2212 6.11393 11.2865 6.27145 11.2865 6.4357V10.1514H15.0022C15.1665 10.1514 15.324 10.2167 15.4401 10.3328C15.5563 10.449 15.6215 10.6065 15.6215 10.7707C15.6215 10.935 15.5563 11.0925 15.4401 11.2086C15.324 11.3248 15.1665 11.39 15.0022 11.39H11.2865V15.1057C11.2865 15.27 11.2212 15.4275 11.1051 15.5437C10.989 15.6598 10.8315 15.725 10.6672 15.725C10.503 15.725 10.3454 15.6598 10.2293 15.5437C10.1132 15.4275 10.0479 15.27 10.0479 15.1057V11.39H6.33218C6.16793 11.39 6.01042 11.3248 5.89428 11.2086C5.77814 11.0925 5.71289 10.935 5.71289 10.7707C5.71289 10.6065 5.77814 10.449 5.89428 10.3328C6.01042 10.2167 6.16793 10.1514 6.33218 10.1514H10.0479V6.4357C10.0479 6.27145 10.1132 6.11393 10.2293 5.99779C10.3454 5.88165 10.503 5.81641 10.6672 5.81641Z" fill="#363330"/>
</svg>
