<svg width="21" height="21" viewBox="0 0 21 21" fill="none" xmlns="http://www.w3.org/2000/svg">
<path d="M10.4582 5.48828C10.6225 5.48828 10.78 5.55353 10.8961 5.66967C11.0123 5.78581 11.0775 5.94332 11.0775 6.10757V9.82331H14.7932C14.9575 9.82331 15.115 9.88855 15.2312 10.0047C15.3473 10.1208 15.4125 10.2784 15.4125 10.4426C15.4125 10.6068 15.3473 10.7644 15.2312 10.8805C15.115 10.9966 14.9575 11.0619 14.7932 11.0619H11.0775V14.7776C11.0775 14.9419 11.0123 15.0994 10.8961 15.2155C10.78 15.3317 10.6225 15.3969 10.4582 15.3969C10.294 15.3969 10.1365 15.3317 10.0203 15.2155C9.90418 15.0994 9.83893 14.9419 9.83893 14.7776V11.0619H6.1232C5.95895 11.0619 5.80143 10.9966 5.68529 10.8805C5.56915 10.7644 5.50391 10.6068 5.50391 10.4426C5.50391 10.2784 5.56915 10.1208 5.68529 10.0047C5.80143 9.88855 5.95895 9.82331 6.1232 9.82331H9.83893V6.10757C9.83893 5.94332 9.90418 5.78581 10.0203 5.66967C10.1365 5.55353 10.294 5.48828 10.4582 5.48828Z" fill="#363330"/>
</svg>
