<svg width="21" height="21" viewBox="0 0 21 21" fill="none" xmlns="http://www.w3.org/2000/svg">
<path d="M10.1662 5.81641C10.3305 5.81641 10.488 5.88165 10.6041 5.99779C10.7203 6.11393 10.7855 6.27145 10.7855 6.4357V10.1514H14.5013C14.6655 10.1514 14.823 10.2167 14.9392 10.3328C15.0553 10.449 15.1205 10.6065 15.1205 10.7707C15.1205 10.935 15.0553 11.0925 14.9392 11.2086C14.823 11.3248 14.6655 11.39 14.5013 11.39H10.7855V15.1057C10.7855 15.27 10.7203 15.4275 10.6041 15.5437C10.488 15.6598 10.3305 15.725 10.1662 15.725C10.002 15.725 9.84446 15.6598 9.72833 15.5437C9.61219 15.4275 9.54694 15.27 9.54694 15.1057V11.39H5.8312C5.66696 11.39 5.50944 11.3248 5.3933 11.2086C5.27716 11.0925 5.21191 10.935 5.21191 10.7707C5.21191 10.6065 5.27716 10.449 5.3933 10.3328C5.50944 10.2167 5.66696 10.1514 5.8312 10.1514H9.54694V6.4357C9.54694 6.27145 9.61219 6.11393 9.72833 5.99779C9.84446 5.88165 10.002 5.81641 10.1662 5.81641Z" fill="#363330"/>
</svg>
