<svg width="21" height="21" viewBox="0 0 21 21" fill="none" xmlns="http://www.w3.org/2000/svg">
<path d="M10.4582 5.16406C10.6225 5.16406 10.78 5.22931 10.8961 5.34545C11.0123 5.46159 11.0775 5.61911 11.0775 5.78335V9.49909H14.7932C14.9575 9.49909 15.115 9.56433 15.2312 9.68047C15.3473 9.79661 15.4125 9.95413 15.4125 10.1184C15.4125 10.2826 15.3473 10.4401 15.2312 10.5563C15.115 10.6724 14.9575 10.7377 14.7932 10.7377H11.0775V14.4534C11.0775 14.6176 11.0123 14.7752 10.8961 14.8913C10.78 15.0074 10.6225 15.0727 10.4582 15.0727C10.294 15.0727 10.1365 15.0074 10.0203 14.8913C9.90418 14.7752 9.83893 14.6176 9.83893 14.4534V10.7377H6.1232C5.95895 10.7377 5.80143 10.6724 5.68529 10.5563C5.56915 10.4401 5.50391 10.2826 5.50391 10.1184C5.50391 9.95413 5.56915 9.79661 5.68529 9.68047C5.80143 9.56433 5.95895 9.49909 6.1232 9.49909H9.83893V5.78335C9.83893 5.61911 9.90418 5.46159 10.0203 5.34545C10.1365 5.22931 10.294 5.16406 10.4582 5.16406Z" fill="#363330"/>
</svg>
