<svg width="21" height="21" viewBox="0 0 21 21" fill="none" xmlns="http://www.w3.org/2000/svg">
<path d="M10.6672 5.48828C10.8315 5.48828 10.989 5.55353 11.1051 5.66967C11.2212 5.78581 11.2865 5.94332 11.2865 6.10757V9.82331H15.0022C15.1665 9.82331 15.324 9.88855 15.4401 10.0047C15.5563 10.1208 15.6215 10.2784 15.6215 10.4426C15.6215 10.6068 15.5563 10.7644 15.4401 10.8805C15.324 10.9966 15.1665 11.0619 15.0022 11.0619H11.2865V14.7776C11.2865 14.9419 11.2212 15.0994 11.1051 15.2155C10.989 15.3317 10.8315 15.3969 10.6672 15.3969C10.503 15.3969 10.3454 15.3317 10.2293 15.2155C10.1132 15.0994 10.0479 14.9419 10.0479 14.7776V11.0619H6.33218C6.16793 11.0619 6.01042 10.9966 5.89428 10.8805C5.77814 10.7644 5.71289 10.6068 5.71289 10.4426C5.71289 10.2784 5.77814 10.1208 5.89428 10.0047C6.01042 9.88855 6.16793 9.82331 6.33218 9.82331H10.0479V6.10757C10.0479 5.94332 10.1132 5.78581 10.2293 5.66967C10.3454 5.55353 10.503 5.48828 10.6672 5.48828Z" fill="#363330"/>
</svg>
