<svg width="21" height="21" viewBox="0 0 21 21" fill="none" xmlns="http://www.w3.org/2000/svg">
<path d="M10.1662 5.83594C10.3305 5.83594 10.488 5.90118 10.6041 6.01732C10.7203 6.13346 10.7855 6.29098 10.7855 6.45523V10.171H14.5013C14.6655 10.171 14.823 10.2362 14.9392 10.3523C15.0553 10.4685 15.1205 10.626 15.1205 10.7903C15.1205 10.9545 15.0553 11.112 14.9392 11.2282C14.823 11.3443 14.6655 11.4095 14.5013 11.4095H10.7855V15.1253C10.7855 15.2895 10.7203 15.447 10.6041 15.5632C10.488 15.6793 10.3305 15.7446 10.1662 15.7446C10.002 15.7446 9.84446 15.6793 9.72833 15.5632C9.61219 15.447 9.54694 15.2895 9.54694 15.1253V11.4095H5.8312C5.66696 11.4095 5.50944 11.3443 5.3933 11.2282C5.27716 11.112 5.21191 10.9545 5.21191 10.7903C5.21191 10.626 5.27716 10.4685 5.3933 10.3523C5.50944 10.2362 5.66696 10.171 5.8312 10.171H9.54694V6.45523C9.54694 6.29098 9.61219 6.13346 9.72833 6.01732C9.84446 5.90118 10.002 5.83594 10.1662 5.83594Z" fill="#363330"/>
</svg>
