<svg width="21" height="21" viewBox="0 0 21 21" fill="none" xmlns="http://www.w3.org/2000/svg">
<path d="M10.6672 5.83594C10.8315 5.83594 10.989 5.90118 11.1051 6.01732C11.2212 6.13346 11.2865 6.29098 11.2865 6.45523V10.171H15.0022C15.1665 10.171 15.324 10.2362 15.4401 10.3523C15.5563 10.4685 15.6215 10.626 15.6215 10.7903C15.6215 10.9545 15.5563 11.112 15.4401 11.2282C15.324 11.3443 15.1665 11.4095 15.0022 11.4095H11.2865V15.1253C11.2865 15.2895 11.2212 15.447 11.1051 15.5632C10.989 15.6793 10.8315 15.7446 10.6672 15.7446C10.503 15.7446 10.3454 15.6793 10.2293 15.5632C10.1132 15.447 10.0479 15.2895 10.0479 15.1253V11.4095H6.33218C6.16793 11.4095 6.01042 11.3443 5.89428 11.2282C5.77814 11.112 5.71289 10.9545 5.71289 10.7903C5.71289 10.626 5.77814 10.4685 5.89428 10.3523C6.01042 10.2362 6.16793 10.171 6.33218 10.171H10.0479V6.45523C10.0479 6.29098 10.1132 6.13346 10.2293 6.01732C10.3454 5.90118 10.503 5.83594 10.6672 5.83594Z" fill="#363330"/>
</svg>
