<svg width="21" height="21" viewBox="0 0 21 21" fill="none" xmlns="http://www.w3.org/2000/svg">
<path d="M10.6672 5.16406C10.8315 5.16406 10.989 5.22931 11.1051 5.34545C11.2212 5.46159 11.2865 5.61911 11.2865 5.78335V9.49909H15.0022C15.1665 9.49909 15.324 9.56433 15.4401 9.68047C15.5563 9.79661 15.6215 9.95413 15.6215 10.1184C15.6215 10.2826 15.5563 10.4401 15.4401 10.5563C15.324 10.6724 15.1665 10.7377 15.0022 10.7377H11.2865V14.4534C11.2865 14.6176 11.2212 14.7752 11.1051 14.8913C10.989 15.0074 10.8315 15.0727 10.6672 15.0727C10.503 15.0727 10.3454 15.0074 10.2293 14.8913C10.1132 14.7752 10.0479 14.6176 10.0479 14.4534V10.7377H6.33218C6.16793 10.7377 6.01042 10.6724 5.89428 10.5563C5.77814 10.4401 5.71289 10.2826 5.71289 10.1184C5.71289 9.95413 5.77814 9.79661 5.89428 9.68047C6.01042 9.56433 6.16793 9.49909 6.33218 9.49909H10.0479V5.78335C10.0479 5.61911 10.1132 5.46159 10.2293 5.34545C10.3454 5.22931 10.503 5.16406 10.6672 5.16406Z" fill="#363330"/>
</svg>
