<svg width="21" height="21" viewBox="0 0 21 21" fill="none" xmlns="http://www.w3.org/2000/svg">
<path d="M10.1662 5.50781C10.3305 5.50781 10.488 5.57306 10.6041 5.6892C10.7203 5.80534 10.7855 5.96286 10.7855 6.1271V9.84284H14.5013C14.6655 9.84284 14.823 9.90808 14.9392 10.0242C15.0553 10.1404 15.1205 10.2979 15.1205 10.4621C15.1205 10.6264 15.0553 10.7839 14.9392 10.9C14.823 11.0162 14.6655 11.0814 14.5013 11.0814H10.7855V14.7972C10.7855 14.9614 10.7203 15.1189 10.6041 15.2351C10.488 15.3512 10.3305 15.4164 10.1662 15.4164C10.002 15.4164 9.84446 15.3512 9.72833 15.2351C9.61219 15.1189 9.54694 14.9614 9.54694 14.7972V11.0814H5.8312C5.66696 11.0814 5.50944 11.0162 5.3933 10.9C5.27716 10.7839 5.21191 10.6264 5.21191 10.4621C5.21191 10.2979 5.27716 10.1404 5.3933 10.0242C5.50944 9.90808 5.66696 9.84284 5.8312 9.84284H9.54694V6.1271C9.54694 5.96286 9.61219 5.80534 9.72833 5.6892C9.84446 5.57306 10.002 5.50781 10.1662 5.50781Z" fill="#363330"/>
</svg>
