<svg width="21" height="21" viewBox="0 0 21 21" fill="none" xmlns="http://www.w3.org/2000/svg">
<path d="M10.6672 5.50781C10.8315 5.50781 10.989 5.57306 11.1051 5.6892C11.2212 5.80534 11.2865 5.96286 11.2865 6.1271V9.84284H15.0022C15.1665 9.84284 15.324 9.90808 15.4401 10.0242C15.5563 10.1404 15.6215 10.2979 15.6215 10.4621C15.6215 10.6264 15.5563 10.7839 15.4401 10.9C15.324 11.0162 15.1665 11.0814 15.0022 11.0814H11.2865V14.7972C11.2865 14.9614 11.2212 15.1189 11.1051 15.2351C10.989 15.3512 10.8315 15.4164 10.6672 15.4164C10.503 15.4164 10.3454 15.3512 10.2293 15.2351C10.1132 15.1189 10.0479 14.9614 10.0479 14.7972V11.0814H6.33218C6.16793 11.0814 6.01042 11.0162 5.89428 10.9C5.77814 10.7839 5.71289 10.6264 5.71289 10.4621C5.71289 10.2979 5.77814 10.1404 5.89428 10.0242C6.01042 9.90808 6.16793 9.84284 6.33218 9.84284H10.0479V6.1271C10.0479 5.96286 10.1132 5.80534 10.2293 5.6892C10.3454 5.57306 10.503 5.50781 10.6672 5.50781Z" fill="#363330"/>
</svg>
