<svg width="21" height="21" viewBox="0 0 21 21" fill="none" xmlns="http://www.w3.org/2000/svg">
<path d="M10.4582 5.83594C10.6225 5.83594 10.78 5.90118 10.8961 6.01732C11.0123 6.13346 11.0775 6.29098 11.0775 6.45523V10.171H14.7932C14.9575 10.171 15.115 10.2362 15.2312 10.3523C15.3473 10.4685 15.4125 10.626 15.4125 10.7903C15.4125 10.9545 15.3473 11.112 15.2312 11.2282C15.115 11.3443 14.9575 11.4095 14.7932 11.4095H11.0775V15.1253C11.0775 15.2895 11.0123 15.447 10.8961 15.5632C10.78 15.6793 10.6225 15.7446 10.4582 15.7446C10.294 15.7446 10.1365 15.6793 10.0203 15.5632C9.90418 15.447 9.83893 15.2895 9.83893 15.1253V11.4095H6.1232C5.95895 11.4095 5.80143 11.3443 5.68529 11.2282C5.56915 11.112 5.50391 10.9545 5.50391 10.7903C5.50391 10.626 5.56915 10.4685 5.68529 10.3523C5.80143 10.2362 5.95895 10.171 6.1232 10.171H9.83893V6.45523C9.83893 6.29098 9.90418 6.13346 10.0203 6.01732C10.1365 5.90118 10.294 5.83594 10.4582 5.83594Z" fill="#363330"/>
</svg>
