<svg width="14" height="14" viewBox="0 0 14 14" fill="none" xmlns="http://www.w3.org/2000/svg">
<path d="M7.84693 4.97481C7.84693 4.86339 7.80267 4.75653 7.72388 4.67774C7.64509 4.59895 7.53823 4.55469 7.42681 4.55469C7.31538 4.55469 7.20852 4.59895 7.12973 4.67774C7.05094 4.75653 7.00668 4.86339 7.00668 4.97481V6.2352H5.7463C5.63487 6.2352 5.52801 6.27946 5.44922 6.35825C5.37044 6.43704 5.32617 6.5439 5.32617 6.65532C5.32617 6.76675 5.37044 6.87361 5.44922 6.9524C5.52801 7.03119 5.63487 7.07545 5.7463 7.07545H7.00668V8.33583C7.00668 8.44726 7.05094 8.55412 7.12973 8.63291C7.20852 8.7117 7.31538 8.75596 7.42681 8.75596C7.53823 8.75596 7.64509 8.7117 7.72388 8.63291C7.80267 8.55412 7.84693 8.44726 7.84693 8.33583V7.07545H9.10732C9.21874 7.07545 9.3256 7.03119 9.40439 6.9524C9.48318 6.87361 9.52744 6.76675 9.52744 6.65532C9.52744 6.5439 9.48318 6.43704 9.40439 6.35825C9.3256 6.27946 9.21874 6.2352 9.10732 6.2352H7.84693V4.97481Z" fill="#363330"/>
<path d="M0.704307 1.19141C0.592882 1.19141 0.486021 1.23567 0.407232 1.31446C0.328443 1.39325 0.28418 1.50011 0.28418 1.61153C0.28418 1.72296 0.328443 1.82982 0.407232 1.90861C0.486021 1.9874 0.592882 2.03166 0.704307 2.03166H1.63699L1.97393 3.38195L3.23263 10.0914C3.25065 10.1877 3.30175 10.2746 3.37708 10.3372C3.45241 10.3998 3.54725 10.4341 3.6452 10.4342H4.48545C4.03975 10.4342 3.61231 10.6113 3.29715 10.9264C2.982 11.2416 2.80494 11.669 2.80494 12.1147C2.80494 12.5604 2.982 12.9879 3.29715 13.303C3.61231 13.6182 4.03975 13.7952 4.48545 13.7952C4.93115 13.7952 5.35859 13.6182 5.67375 13.303C5.98891 12.9879 6.16596 12.5604 6.16596 12.1147C6.16596 11.669 5.98891 11.2416 5.67375 10.9264C5.35859 10.6113 4.93115 10.4342 4.48545 10.4342H10.3672C9.92153 10.4342 9.49409 10.6113 9.17893 10.9264C8.86378 11.2416 8.68672 11.669 8.68672 12.1147C8.68672 12.5604 8.86378 12.9879 9.17893 13.303C9.49409 13.6182 9.92153 13.7952 10.3672 13.7952C10.8129 13.7952 11.2404 13.6182 11.5555 13.303C11.8707 12.9879 12.0477 12.5604 12.0477 12.1147C12.0477 11.669 11.8707 11.2416 11.5555 10.9264C11.2404 10.6113 10.8129 10.4342 10.3672 10.4342H11.2075C11.3054 10.4341 11.4003 10.3998 11.4756 10.3372C11.5509 10.2746 11.602 10.1877 11.62 10.0914L12.8804 3.36935C12.8918 3.30871 12.8896 3.24632 12.8742 3.1866C12.8587 3.12689 12.8302 3.07132 12.7909 3.02384C12.7515 2.97635 12.7021 2.93813 12.6463 2.91187C12.5905 2.88561 12.5296 2.87197 12.4679 2.87191H2.71251L2.37221 1.50986C2.34953 1.41893 2.2971 1.3382 2.22326 1.28049C2.14942 1.22279 2.0584 1.19143 1.96469 1.19141H0.704307ZM3.9939 9.59395L2.89065 3.71217H11.962L10.8588 9.59395H3.9939ZM5.32571 12.1147C5.32571 12.3376 5.23718 12.5513 5.0796 12.7089C4.92202 12.8664 4.7083 12.955 4.48545 12.955C4.2626 12.955 4.04888 12.8664 3.8913 12.7089C3.73372 12.5513 3.6452 12.3376 3.6452 12.1147C3.6452 11.8919 3.73372 11.6781 3.8913 11.5206C4.04888 11.363 4.2626 11.2745 4.48545 11.2745C4.7083 11.2745 4.92202 11.363 5.0796 11.5206C5.23718 11.6781 5.32571 11.8919 5.32571 12.1147ZM11.2075 12.1147C11.2075 12.3376 11.119 12.5513 10.9614 12.7089C10.8038 12.8664 10.5901 12.955 10.3672 12.955C10.1444 12.955 9.93066 12.8664 9.77308 12.7089C9.6155 12.5513 9.52698 12.3376 9.52698 12.1147C9.52698 11.8919 9.6155 11.6781 9.77308 11.5206C9.93066 11.363 10.1444 11.2745 10.3672 11.2745C10.5901 11.2745 10.8038 11.363 10.9614 11.5206C11.119 11.6781 11.2075 11.8919 11.2075 12.1147Z" fill="#363330"/>
</svg>
