<svg width="14" height="15" viewBox="0 0 14 15" fill="none" xmlns="http://www.w3.org/2000/svg">
<path d="M8.05494 5.40841C8.05494 5.29698 8.01068 5.19012 7.93189 5.11133C7.8531 5.03254 7.74624 4.98828 7.63482 4.98828C7.52339 4.98828 7.41653 5.03254 7.33774 5.11133C7.25895 5.19012 7.21469 5.29698 7.21469 5.40841V6.66879H5.95431C5.84288 6.66879 5.73602 6.71305 5.65723 6.79184C5.57844 6.87063 5.53418 6.97749 5.53418 7.08892C5.53418 7.20034 5.57844 7.3072 5.65723 7.38599C5.73602 7.46478 5.84288 7.50904 5.95431 7.50904H7.21469V8.76943C7.21469 8.88085 7.25895 8.98771 7.33774 9.0665C7.41653 9.14529 7.52339 9.18955 7.63482 9.18955C7.74624 9.18955 7.8531 9.14529 7.93189 9.0665C8.01068 8.98771 8.05494 8.88085 8.05494 8.76943V7.50904H9.31532C9.42675 7.50904 9.53361 7.46478 9.6124 7.38599C9.69119 7.3072 9.73545 7.20034 9.73545 7.08892C9.73545 6.97749 9.69119 6.87063 9.6124 6.79184C9.53361 6.71305 9.42675 6.66879 9.31532 6.66879H8.05494V5.40841Z" fill="#363330"/>
<path d="M0.912315 1.625C0.80089 1.625 0.694029 1.66926 0.61524 1.74805C0.536451 1.82684 0.492188 1.9337 0.492188 2.04513C0.492188 2.15655 0.536451 2.26341 0.61524 2.3422C0.694029 2.42099 0.80089 2.46525 0.912315 2.46525H1.845L2.18194 3.81554L3.44064 10.525C3.45866 10.6212 3.50976 10.7082 3.58509 10.7708C3.66042 10.8334 3.75526 10.8677 3.8532 10.8678H4.69346C4.24776 10.8678 3.82032 11.0448 3.50516 11.36C3.19 11.6752 3.01295 12.1026 3.01295 12.5483C3.01295 12.994 3.19 13.4214 3.50516 13.7366C3.82032 14.0518 4.24776 14.2288 4.69346 14.2288C5.13916 14.2288 5.5666 14.0518 5.88176 13.7366C6.19691 13.4214 6.37397 12.994 6.37397 12.5483C6.37397 12.1026 6.19691 11.6752 5.88176 11.36C5.5666 11.0448 5.13916 10.8678 4.69346 10.8678H10.5752C10.1295 10.8678 9.7021 11.0448 9.38694 11.36C9.07178 11.6752 8.89473 12.1026 8.89473 12.5483C8.89473 12.994 9.07178 13.4214 9.38694 13.7366C9.7021 14.0518 10.1295 14.2288 10.5752 14.2288C11.0209 14.2288 11.4484 14.0518 11.7635 13.7366C12.0787 13.4214 12.2557 12.994 12.2557 12.5483C12.2557 12.1026 12.0787 11.6752 11.7635 11.36C11.4484 11.0448 11.0209 10.8678 10.5752 10.8678H11.4155C11.5134 10.8677 11.6083 10.8334 11.6836 10.7708C11.7589 10.7082 11.81 10.6212 11.8281 10.525L13.0884 3.80294C13.0998 3.7423 13.0976 3.67991 13.0822 3.6202C13.0667 3.56048 13.0382 3.50491 12.9989 3.45743C12.9595 3.40995 12.9101 3.37172 12.8543 3.34546C12.7985 3.31921 12.7376 3.30557 12.6759 3.30551H2.92052L2.58022 1.94346C2.55754 1.85253 2.50511 1.77179 2.43127 1.71409C2.35743 1.65638 2.26641 1.62503 2.1727 1.625H0.912315ZM4.20191 10.0275L3.09866 4.14576H12.17L11.0668 10.0275H4.20191ZM5.53371 12.5483C5.53371 12.7712 5.44519 12.9849 5.28761 13.1425C5.13003 13.3 4.91631 13.3886 4.69346 13.3886C4.47061 13.3886 4.25689 13.3 4.09931 13.1425C3.94173 12.9849 3.8532 12.7712 3.8532 12.5483C3.8532 12.3255 3.94173 12.1117 4.09931 11.9542C4.25689 11.7966 4.47061 11.708 4.69346 11.708C4.91631 11.708 5.13003 11.7966 5.28761 11.9542C5.44519 12.1117 5.53371 12.3255 5.53371 12.5483ZM11.4155 12.5483C11.4155 12.7712 11.327 12.9849 11.1694 13.1425C11.0118 13.3 10.7981 13.3886 10.5752 13.3886C10.3524 13.3886 10.1387 13.3 9.98109 13.1425C9.82351 12.9849 9.73498 12.7712 9.73498 12.5483C9.73498 12.3255 9.82351 12.1117 9.98109 11.9542C10.1387 11.7966 10.3524 11.708 10.5752 11.708C10.7981 11.708 11.0118 11.7966 11.1694 11.9542C11.327 12.1117 11.4155 12.3255 11.4155 12.5483Z" fill="#363330"/>
</svg>
