<svg width="15" height="14" viewBox="0 0 15 14" fill="none" xmlns="http://www.w3.org/2000/svg">
<path d="M8.33424 4.80294C8.33424 4.69151 8.28998 4.58465 8.21119 4.50586C8.1324 4.42708 8.02554 4.38281 7.91411 4.38281C7.80269 4.38281 7.69583 4.42708 7.61704 4.50586C7.53825 4.58465 7.49398 4.69151 7.49398 4.80294V6.06332H6.2336C6.12218 6.06332 6.01532 6.10758 5.93653 6.18637C5.85774 6.26516 5.81348 6.37202 5.81348 6.48345C5.81348 6.59487 5.85774 6.70173 5.93653 6.78052C6.01532 6.85931 6.12218 6.90357 6.2336 6.90357H7.49398V8.16396C7.49398 8.27538 7.53825 8.38224 7.61704 8.46103C7.69583 8.53982 7.80269 8.58408 7.91411 8.58408C8.02554 8.58408 8.1324 8.53982 8.21119 8.46103C8.28998 8.38224 8.33424 8.27538 8.33424 8.16396V6.90357H9.59462C9.70605 6.90357 9.81291 6.85931 9.8917 6.78052C9.97048 6.70173 10.0147 6.59487 10.0147 6.48345C10.0147 6.37202 9.97048 6.26516 9.8917 6.18637C9.81291 6.10758 9.70605 6.06332 9.59462 6.06332H8.33424V4.80294Z" fill="#363330"/>
<path d="M1.19161 1.01953C1.08019 1.01953 0.973326 1.06379 0.894537 1.14258C0.815748 1.22137 0.771484 1.32823 0.771484 1.43966C0.771484 1.55108 0.815748 1.65794 0.894537 1.73673C0.973326 1.81552 1.08019 1.85979 1.19161 1.85979H2.12429L2.46124 3.21007L3.71994 9.9195C3.73796 10.0158 3.78905 10.1027 3.86439 10.1653C3.93972 10.2279 4.03455 10.2622 4.1325 10.2623H4.97276C4.52706 10.2623 4.09961 10.4394 3.78446 10.7545C3.4693 11.0697 3.29225 11.4971 3.29225 11.9428C3.29225 12.3885 3.4693 12.816 3.78446 13.1311C4.09961 13.4463 4.52706 13.6233 4.97276 13.6233C5.41845 13.6233 5.8459 13.4463 6.16105 13.1311C6.47621 12.816 6.65326 12.3885 6.65326 11.9428C6.65326 11.4971 6.47621 11.0697 6.16105 10.7545C5.8459 10.4394 5.41845 10.2623 4.97276 10.2623H10.8545C10.4088 10.2623 9.98139 10.4394 9.66624 10.7545C9.35108 11.0697 9.17403 11.4971 9.17403 11.9428C9.17403 12.3885 9.35108 12.816 9.66624 13.1311C9.98139 13.4463 10.4088 13.6233 10.8545 13.6233C11.3002 13.6233 11.7277 13.4463 12.0428 13.1311C12.358 12.816 12.535 12.3885 12.535 11.9428C12.535 11.4971 12.358 11.0697 12.0428 10.7545C11.7277 10.4394 11.3002 10.2623 10.8545 10.2623H11.6948C11.7927 10.2622 11.8876 10.2279 11.9629 10.1653C12.0382 10.1027 12.0893 10.0158 12.1074 9.9195L13.3677 3.19747C13.3791 3.13683 13.3769 3.07444 13.3615 3.01473C13.346 2.95502 13.3175 2.89944 13.2782 2.85196C13.2388 2.80448 13.1894 2.76625 13.1336 2.73999C13.0778 2.71374 13.0169 2.7001 12.9552 2.70004H3.19982L2.85952 1.33799C2.83684 1.24706 2.78441 1.16632 2.71057 1.10862C2.63672 1.05092 2.54571 1.01956 2.45199 1.01953H1.19161ZM4.48121 9.42207L3.37795 3.54029H12.4493L11.3461 9.42207H4.48121ZM5.81301 11.9428C5.81301 12.1657 5.72448 12.3794 5.56691 12.537C5.40933 12.6946 5.1956 12.7831 4.97276 12.7831C4.74991 12.7831 4.53618 12.6946 4.37861 12.537C4.22103 12.3794 4.1325 12.1657 4.1325 11.9428C4.1325 11.72 4.22103 11.5063 4.37861 11.3487C4.53618 11.1911 4.74991 11.1026 4.97276 11.1026C5.1956 11.1026 5.40933 11.1911 5.56691 11.3487C5.72448 11.5063 5.81301 11.72 5.81301 11.9428ZM11.6948 11.9428C11.6948 12.1657 11.6063 12.3794 11.4487 12.537C11.2911 12.6946 11.0774 12.7831 10.8545 12.7831C10.6317 12.7831 10.418 12.6946 10.2604 12.537C10.1028 12.3794 10.0143 12.1657 10.0143 11.9428C10.0143 11.72 10.1028 11.5063 10.2604 11.3487C10.418 11.1911 10.6317 11.1026 10.8545 11.1026C11.0774 11.1026 11.2911 11.1911 11.4487 11.3487C11.6063 11.5063 11.6948 11.72 11.6948 11.9428Z" fill="#363330"/>
</svg>
