<svg width="14" height="14" viewBox="0 0 14 14" fill="none" xmlns="http://www.w3.org/2000/svg">
<path d="M7.88307 4.97481C7.88307 4.86339 7.8388 4.75653 7.76002 4.67774C7.68123 4.59895 7.57436 4.55469 7.46294 4.55469C7.35152 4.55469 7.24465 4.59895 7.16587 4.67774C7.08708 4.75653 7.04281 4.86339 7.04281 4.97481V6.2352H5.78243C5.67101 6.2352 5.56415 6.27946 5.48536 6.35825C5.40657 6.43704 5.3623 6.5439 5.3623 6.65532C5.3623 6.76675 5.40657 6.87361 5.48536 6.9524C5.56415 7.03119 5.67101 7.07545 5.78243 7.07545H7.04281V8.33583C7.04281 8.44726 7.08708 8.55412 7.16587 8.63291C7.24465 8.7117 7.35152 8.75596 7.46294 8.75596C7.57436 8.75596 7.68123 8.7117 7.76002 8.63291C7.8388 8.55412 7.88307 8.44726 7.88307 8.33583V7.07545H9.14345C9.25487 7.07545 9.36173 7.03119 9.44052 6.9524C9.51931 6.87361 9.56358 6.76675 9.56358 6.65532C9.56358 6.5439 9.51931 6.43704 9.44052 6.35825C9.36173 6.27946 9.25487 6.2352 9.14345 6.2352H7.88307V4.97481Z" fill="#363330"/>
<path d="M0.74044 1.19141C0.629015 1.19141 0.522154 1.23567 0.443365 1.31446C0.364576 1.39325 0.320313 1.50011 0.320312 1.61153C0.320313 1.72296 0.364576 1.82982 0.443365 1.90861C0.522154 1.9874 0.629015 2.03166 0.74044 2.03166H1.67312L2.01006 3.38195L3.26876 10.0914C3.28679 10.1877 3.33788 10.2746 3.41321 10.3372C3.48855 10.3998 3.58338 10.4341 3.68133 10.4342H4.52158C4.07589 10.4342 3.64844 10.6113 3.33328 10.9264C3.01813 11.2416 2.84108 11.669 2.84108 12.1147C2.84108 12.5604 3.01813 12.9879 3.33328 13.303C3.64844 13.6182 4.07589 13.7952 4.52158 13.7952C4.96728 13.7952 5.39473 13.6182 5.70988 13.303C6.02504 12.9879 6.20209 12.5604 6.20209 12.1147C6.20209 11.669 6.02504 11.2416 5.70988 10.9264C5.39473 10.6113 4.96728 10.4342 4.52158 10.4342H10.4034C9.95766 10.4342 9.53022 10.6113 9.21507 10.9264C8.89991 11.2416 8.72285 11.669 8.72285 12.1147C8.72285 12.5604 8.89991 12.9879 9.21507 13.303C9.53022 13.6182 9.95766 13.7952 10.4034 13.7952C10.8491 13.7952 11.2765 13.6182 11.5917 13.303C11.9068 12.9879 12.0839 12.5604 12.0839 12.1147C12.0839 11.669 11.9068 11.2416 11.5917 10.9264C11.2765 10.6113 10.8491 10.4342 10.4034 10.4342H11.2436C11.3416 10.4341 11.4364 10.3998 11.5117 10.3372C11.5871 10.2746 11.6382 10.1877 11.6562 10.0914L12.9166 3.36935C12.9279 3.30871 12.9258 3.24632 12.9103 3.1866C12.8948 3.12689 12.8664 3.07132 12.827 3.02384C12.7876 2.97635 12.7383 2.93813 12.6824 2.91187C12.6266 2.88561 12.5657 2.87197 12.504 2.87191H2.74865L2.40834 1.50986C2.38567 1.41893 2.33324 1.3382 2.25939 1.28049C2.18555 1.22279 2.09454 1.19143 2.00082 1.19141H0.74044ZM4.03004 9.59395L2.92678 3.71217H11.9982L10.8949 9.59395H4.03004ZM5.36184 12.1147C5.36184 12.3376 5.27331 12.5513 5.11573 12.7089C4.95815 12.8664 4.74443 12.955 4.52158 12.955C4.29873 12.955 4.08501 12.8664 3.92743 12.7089C3.76986 12.5513 3.68133 12.3376 3.68133 12.1147C3.68133 11.8919 3.76986 11.6781 3.92743 11.5206C4.08501 11.363 4.29873 11.2745 4.52158 11.2745C4.74443 11.2745 4.95815 11.363 5.11573 11.5206C5.27331 11.6781 5.36184 11.8919 5.36184 12.1147ZM11.2436 12.1147C11.2436 12.3376 11.1551 12.5513 10.9975 12.7089C10.8399 12.8664 10.6262 12.955 10.4034 12.955C10.1805 12.955 9.96679 12.8664 9.80921 12.7089C9.65164 12.5513 9.56311 12.3376 9.56311 12.1147C9.56311 11.8919 9.65164 11.6781 9.80921 11.5206C9.96679 11.363 10.1805 11.2745 10.4034 11.2745C10.6262 11.2745 10.8399 11.363 10.9975 11.5206C11.1551 11.6781 11.2436 11.8919 11.2436 12.1147Z" fill="#363330"/>
</svg>
