<svg width="14" height="14" viewBox="0 0 14 14" fill="none" xmlns="http://www.w3.org/2000/svg">
<path d="M7.86549 4.97481C7.86549 4.86339 7.82123 4.75653 7.74244 4.67774C7.66365 4.59895 7.55679 4.55469 7.44536 4.55469C7.33394 4.55469 7.22708 4.59895 7.14829 4.67774C7.0695 4.75653 7.02523 4.86339 7.02523 4.97481V6.2352H5.76485C5.65343 6.2352 5.54657 6.27946 5.46778 6.35825C5.38899 6.43704 5.34473 6.5439 5.34473 6.65532C5.34473 6.76675 5.38899 6.87361 5.46778 6.9524C5.54657 7.03119 5.65343 7.07545 5.76485 7.07545H7.02523V8.33583C7.02523 8.44726 7.0695 8.55412 7.14829 8.63291C7.22708 8.7117 7.33394 8.75596 7.44536 8.75596C7.55679 8.75596 7.66365 8.7117 7.74244 8.63291C7.82123 8.55412 7.86549 8.44726 7.86549 8.33583V7.07545H9.12587C9.2373 7.07545 9.34416 7.03119 9.42295 6.9524C9.50173 6.87361 9.546 6.76675 9.546 6.65532C9.546 6.5439 9.50173 6.43704 9.42295 6.35825C9.34416 6.27946 9.2373 6.2352 9.12587 6.2352H7.86549V4.97481Z" fill="#363330"/>
<path d="M0.722861 1.19141C0.611437 1.19141 0.504576 1.23567 0.425787 1.31446C0.346998 1.39325 0.302734 1.50011 0.302734 1.61153C0.302734 1.72296 0.346998 1.82982 0.425787 1.90861C0.504576 1.9874 0.611437 2.03166 0.722861 2.03166H1.65554L1.99249 3.38195L3.25119 10.0914C3.26921 10.1877 3.3203 10.2746 3.39564 10.3372C3.47097 10.3998 3.5658 10.4341 3.66375 10.4342H4.50401C4.05831 10.4342 3.63086 10.6113 3.31571 10.9264C3.00055 11.2416 2.8235 11.669 2.8235 12.1147C2.8235 12.5604 3.00055 12.9879 3.31571 13.303C3.63086 13.6182 4.05831 13.7952 4.50401 13.7952C4.9497 13.7952 5.37715 13.6182 5.6923 13.303C6.00746 12.9879 6.18451 12.5604 6.18451 12.1147C6.18451 11.669 6.00746 11.2416 5.6923 10.9264C5.37715 10.6113 4.9497 10.4342 4.50401 10.4342H10.3858C9.94009 10.4342 9.51264 10.6113 9.19749 10.9264C8.88233 11.2416 8.70528 11.669 8.70528 12.1147C8.70528 12.5604 8.88233 12.9879 9.19749 13.303C9.51264 13.6182 9.94009 13.7952 10.3858 13.7952C10.8315 13.7952 11.2589 13.6182 11.5741 13.303C11.8892 12.9879 12.0663 12.5604 12.0663 12.1147C12.0663 11.669 11.8892 11.2416 11.5741 10.9264C11.2589 10.6113 10.8315 10.4342 10.3858 10.4342H11.226C11.324 10.4341 11.4188 10.3998 11.4942 10.3372C11.5695 10.2746 11.6206 10.1877 11.6386 10.0914L12.899 3.36935C12.9103 3.30871 12.9082 3.24632 12.8927 3.1866C12.8772 3.12689 12.8488 3.07132 12.8094 3.02384C12.77 2.97635 12.7207 2.93813 12.6649 2.91187C12.609 2.88561 12.5481 2.87197 12.4864 2.87191H2.73107L2.39077 1.50986C2.36809 1.41893 2.31566 1.3382 2.24182 1.28049C2.16797 1.22279 2.07696 1.19143 1.98324 1.19141H0.722861ZM4.01246 9.59395L2.9092 3.71217H11.9806L10.8773 9.59395H4.01246ZM5.34426 12.1147C5.34426 12.3376 5.25573 12.5513 5.09816 12.7089C4.94058 12.8664 4.72685 12.955 4.50401 12.955C4.28116 12.955 4.06743 12.8664 3.90986 12.7089C3.75228 12.5513 3.66375 12.3376 3.66375 12.1147C3.66375 11.8919 3.75228 11.6781 3.90986 11.5206C4.06743 11.363 4.28116 11.2745 4.50401 11.2745C4.72685 11.2745 4.94058 11.363 5.09816 11.5206C5.25573 11.6781 5.34426 11.8919 5.34426 12.1147ZM11.226 12.1147C11.226 12.3376 11.1375 12.5513 10.9799 12.7089C10.8224 12.8664 10.6086 12.955 10.3858 12.955C10.1629 12.955 9.94921 12.8664 9.79164 12.7089C9.63406 12.5513 9.54553 12.3376 9.54553 12.1147C9.54553 11.8919 9.63406 11.6781 9.79164 11.5206C9.94921 11.363 10.1629 11.2745 10.3858 11.2745C10.6086 11.2745 10.8224 11.363 10.9799 11.5206C11.1375 11.6781 11.226 11.8919 11.226 12.1147Z" fill="#363330"/>
</svg>
