<svg width="15" height="14" viewBox="0 0 15 14" fill="none" xmlns="http://www.w3.org/2000/svg">
<path d="M8.33375 4.89962C8.33375 4.78819 8.28949 4.68133 8.2107 4.60254C8.13191 4.52376 8.02505 4.47949 7.91362 4.47949C7.8022 4.47949 7.69534 4.52376 7.61655 4.60254C7.53776 4.68133 7.4935 4.78819 7.4935 4.89962V6.16H6.23312C6.12169 6.16 6.01483 6.20426 5.93604 6.28305C5.85725 6.36184 5.81299 6.4687 5.81299 6.58013C5.81299 6.69155 5.85725 6.79841 5.93604 6.8772C6.01483 6.95599 6.12169 7.00025 6.23312 7.00025H7.4935V8.26064C7.4935 8.37206 7.53776 8.47892 7.61655 8.55771C7.69534 8.6365 7.8022 8.68076 7.91362 8.68076C8.02505 8.68076 8.13191 8.6365 8.2107 8.55771C8.28949 8.47892 8.33375 8.37206 8.33375 8.26064V7.00025H9.59413C9.70556 7.00025 9.81242 6.95599 9.89121 6.8772C9.97 6.79841 10.0143 6.69155 10.0143 6.58013C10.0143 6.4687 9.97 6.36184 9.89121 6.28305C9.81242 6.20426 9.70556 6.16 9.59413 6.16H8.33375V4.89962Z" fill="#363330"/>
<path d="M1.19161 1.11865C1.08019 1.11865 0.973326 1.16292 0.894537 1.2417C0.815748 1.32049 0.771484 1.42735 0.771484 1.53878C0.771484 1.6502 0.815748 1.75707 0.894537 1.83585C0.973326 1.91464 1.08019 1.95891 1.19161 1.95891H2.12429L2.46124 3.3092L3.71994 10.0186C3.73796 10.1149 3.78905 10.2019 3.86439 10.2644C3.93972 10.327 4.03455 10.3614 4.1325 10.3614H4.97276C4.52706 10.3614 4.09961 10.5385 3.78446 10.8537C3.4693 11.1688 3.29225 11.5963 3.29225 12.042C3.29225 12.4877 3.4693 12.9151 3.78446 13.2303C4.09961 13.5454 4.52706 13.7225 4.97276 13.7225C5.41845 13.7225 5.8459 13.5454 6.16105 13.2303C6.47621 12.9151 6.65326 12.4877 6.65326 12.042C6.65326 11.5963 6.47621 11.1688 6.16105 10.8537C5.8459 10.5385 5.41845 10.3614 4.97276 10.3614H10.8545C10.4088 10.3614 9.98139 10.5385 9.66624 10.8537C9.35108 11.1688 9.17403 11.5963 9.17403 12.042C9.17403 12.4877 9.35108 12.9151 9.66624 13.2303C9.98139 13.5454 10.4088 13.7225 10.8545 13.7225C11.3002 13.7225 11.7277 13.5454 12.0428 13.2303C12.358 12.9151 12.535 12.4877 12.535 12.042C12.535 11.5963 12.358 11.1688 12.0428 10.8537C11.7277 10.5385 11.3002 10.3614 10.8545 10.3614H11.6948C11.7927 10.3614 11.8876 10.327 11.9629 10.2644C12.0382 10.2019 12.0893 10.1149 12.1074 10.0186L13.3677 3.29659C13.3791 3.23596 13.3769 3.17357 13.3615 3.11385C13.346 3.05414 13.3175 2.99856 13.2782 2.95108C13.2388 2.9036 13.1894 2.86537 13.1336 2.83912C13.0778 2.81286 13.0169 2.79922 12.9552 2.79916H3.19982L2.85952 1.43711C2.83684 1.34618 2.78441 1.26544 2.71057 1.20774C2.63672 1.15004 2.54571 1.11868 2.45199 1.11865H1.19161ZM4.48121 9.52119L3.37795 3.63941H12.4493L11.3461 9.52119H4.48121ZM5.81301 12.042C5.81301 12.2648 5.72448 12.4785 5.56691 12.6361C5.40933 12.7937 5.1956 12.8822 4.97276 12.8822C4.74991 12.8822 4.53618 12.7937 4.37861 12.6361C4.22103 12.4785 4.1325 12.2648 4.1325 12.042C4.1325 11.8191 4.22103 11.6054 4.37861 11.4478C4.53618 11.2902 4.74991 11.2017 4.97276 11.2017C5.1956 11.2017 5.40933 11.2902 5.56691 11.4478C5.72448 11.6054 5.81301 11.8191 5.81301 12.042ZM11.6948 12.042C11.6948 12.2648 11.6063 12.4785 11.4487 12.6361C11.2911 12.7937 11.0774 12.8822 10.8545 12.8822C10.6317 12.8822 10.418 12.7937 10.2604 12.6361C10.1028 12.4785 10.0143 12.2648 10.0143 12.042C10.0143 11.8191 10.1028 11.6054 10.2604 11.4478C10.418 11.2902 10.6317 11.2017 10.8545 11.2017C11.0774 11.2017 11.2911 11.2902 11.4487 11.4478C11.6063 11.6054 11.6948 11.8191 11.6948 12.042Z" fill="#363330"/>
</svg>
