<svg width="14" height="14" viewBox="0 0 14 14" fill="none" xmlns="http://www.w3.org/2000/svg">
<path d="M7.89234 4.66085C7.89234 4.54943 7.84808 4.44256 7.76929 4.36378C7.6905 4.28499 7.58364 4.24072 7.47222 4.24072C7.36079 4.24072 7.25393 4.28499 7.17514 4.36378C7.09635 4.44256 7.05209 4.54943 7.05209 4.66085V5.92123H5.79171C5.68028 5.92123 5.57342 5.96549 5.49463 6.04428C5.41585 6.12307 5.37158 6.22993 5.37158 6.34136C5.37158 6.45278 5.41585 6.55964 5.49463 6.63843C5.57342 6.71722 5.68028 6.76149 5.79171 6.76149H7.05209V8.02187C7.05209 8.13329 7.09635 8.24015 7.17514 8.31894C7.25393 8.39773 7.36079 8.44199 7.47222 8.44199C7.58364 8.44199 7.6905 8.39773 7.76929 8.31894C7.84808 8.24015 7.89234 8.13329 7.89234 8.02187V6.76149H9.15273C9.26415 6.76149 9.37101 6.71722 9.4498 6.63843C9.52859 6.55964 9.57285 6.45278 9.57285 6.34136C9.57285 6.22993 9.52859 6.12307 9.4498 6.04428C9.37101 5.96549 9.26415 5.92123 9.15273 5.92123H7.89234V4.66085Z" fill="#363330"/>
<path d="M0.750205 0.879883C0.638781 0.879883 0.53192 0.924146 0.453131 1.00294C0.374341 1.08172 0.330078 1.18859 0.330078 1.30001C0.330078 1.41143 0.374341 1.5183 0.453131 1.59708C0.53192 1.67587 0.638781 1.72014 0.750205 1.72014H1.68289L2.01983 3.07043L3.27853 9.77985C3.29655 9.87613 3.34765 9.96308 3.42298 10.0257C3.49831 10.0883 3.59315 10.1226 3.6911 10.1227H4.53135C4.08565 10.1227 3.65821 10.2997 3.34305 10.6149C3.02789 10.93 2.85084 11.3575 2.85084 11.8032C2.85084 12.2489 3.02789 12.6763 3.34305 12.9915C3.65821 13.3066 4.08565 13.4837 4.53135 13.4837C4.97705 13.4837 5.40449 13.3066 5.71965 12.9915C6.0348 12.6763 6.21186 12.2489 6.21186 11.8032C6.21186 11.3575 6.0348 10.93 5.71965 10.6149C5.40449 10.2997 4.97705 10.1227 4.53135 10.1227H10.4131C9.96743 10.1227 9.53999 10.2997 9.22483 10.6149C8.90967 10.93 8.73262 11.3575 8.73262 11.8032C8.73262 12.2489 8.90967 12.6763 9.22483 12.9915C9.53999 13.3066 9.96743 13.4837 10.4131 13.4837C10.8588 13.4837 11.2863 13.3066 11.6014 12.9915C11.9166 12.6763 12.0936 12.2489 12.0936 11.8032C12.0936 11.3575 11.9166 10.93 11.6014 10.6149C11.2863 10.2997 10.8588 10.1227 10.4131 10.1227H11.2534C11.3513 10.1226 11.4462 10.0883 11.5215 10.0257C11.5968 9.96308 11.6479 9.87613 11.6659 9.77985L12.9263 3.05782C12.9377 2.99719 12.9355 2.9348 12.9201 2.87508C12.9046 2.81537 12.8761 2.75979 12.8368 2.71231C12.7974 2.66483 12.748 2.6266 12.6922 2.60035C12.6364 2.57409 12.5755 2.56045 12.5138 2.56039H2.75841L2.41811 1.19834C2.39543 1.10741 2.343 1.02667 2.26916 0.968971C2.19532 0.911267 2.1043 0.879909 2.01059 0.879883H0.750205ZM4.0398 9.28242L2.93655 3.40065H12.0079L10.9047 9.28242H4.0398ZM5.3716 11.8032C5.3716 12.026 5.28308 12.2398 5.1255 12.3973C4.96792 12.5549 4.7542 12.6434 4.53135 12.6434C4.3085 12.6434 4.09478 12.5549 3.9372 12.3973C3.77962 12.2398 3.6911 12.026 3.6911 11.8032C3.6911 11.5803 3.77962 11.3666 3.9372 11.209C4.09478 11.0515 4.3085 10.9629 4.53135 10.9629C4.7542 10.9629 4.96792 11.0515 5.1255 11.209C5.28308 11.3666 5.3716 11.5803 5.3716 11.8032ZM11.2534 11.8032C11.2534 12.026 11.1649 12.2398 11.0073 12.3973C10.8497 12.5549 10.636 12.6434 10.4131 12.6434C10.1903 12.6434 9.97656 12.5549 9.81898 12.3973C9.6614 12.2398 9.57288 12.026 9.57288 11.8032C9.57288 11.5803 9.6614 11.3666 9.81898 11.209C9.97656 11.0515 10.1903 10.9629 10.4131 10.9629C10.636 10.9629 10.8497 11.0515 11.0073 11.209C11.1649 11.3666 11.2534 11.5803 11.2534 11.8032Z" fill="#363330"/>
</svg>
