<svg width="15" height="15" viewBox="0 0 15 15" fill="none" xmlns="http://www.w3.org/2000/svg">
<path d="M8.36158 5.5339C8.36158 5.42247 8.31732 5.31561 8.23853 5.23682C8.15974 5.15803 8.05288 5.11377 7.94146 5.11377C7.83003 5.11377 7.72317 5.15803 7.64438 5.23682C7.56559 5.31561 7.52133 5.42247 7.52133 5.5339V6.79428H6.26095C6.14952 6.79428 6.04266 6.83854 5.96387 6.91733C5.88508 6.99612 5.84082 7.10298 5.84082 7.21441C5.84082 7.32583 5.88508 7.43269 5.96387 7.51148C6.04266 7.59027 6.14952 7.63453 6.26095 7.63453H7.52133V8.89491C7.52133 9.00634 7.56559 9.1132 7.64438 9.19199C7.72317 9.27078 7.83003 9.31504 7.94146 9.31504C8.05288 9.31504 8.15974 9.27078 8.23853 9.19199C8.31732 9.1132 8.36158 9.00634 8.36158 8.89491V7.63453H9.62196C9.73339 7.63453 9.84025 7.59027 9.91904 7.51148C9.99783 7.43269 10.0421 7.32583 10.0421 7.21441C10.0421 7.10298 9.99783 6.99612 9.91904 6.91733C9.84025 6.83854 9.73339 6.79428 9.62196 6.79428H8.36158V5.5339Z" fill="#363330"/>
<path d="M1.21944 1.75293C1.10802 1.75293 1.00116 1.79719 0.922369 1.87598C0.84358 1.95477 0.799316 2.06163 0.799316 2.17306C0.799316 2.28448 0.84358 2.39134 0.922369 2.47013C1.00116 2.54892 1.10802 2.59318 1.21944 2.59318H2.15213L2.48907 3.94347L3.74777 10.6529C3.76579 10.7492 3.81688 10.8361 3.89222 10.8987C3.96755 10.9613 4.06239 10.9956 4.16033 10.9957H5.00059C4.55489 10.9957 4.12744 11.1728 3.81229 11.4879C3.49713 11.8031 3.32008 12.2305 3.32008 12.6762C3.32008 13.1219 3.49713 13.5494 3.81229 13.8645C4.12744 14.1797 4.55489 14.3567 5.00059 14.3567C5.44629 14.3567 5.87373 14.1797 6.18889 13.8645C6.50404 13.5494 6.6811 13.1219 6.6811 12.6762C6.6811 12.2305 6.50404 11.8031 6.18889 11.4879C5.87373 11.1728 5.44629 10.9957 5.00059 10.9957H10.8824C10.4367 10.9957 10.0092 11.1728 9.69407 11.4879C9.37891 11.8031 9.20186 12.2305 9.20186 12.6762C9.20186 13.1219 9.37891 13.5494 9.69407 13.8645C10.0092 14.1797 10.4367 14.3567 10.8824 14.3567C11.3281 14.3567 11.7555 14.1797 12.0707 13.8645C12.3858 13.5494 12.5629 13.1219 12.5629 12.6762C12.5629 12.2305 12.3858 11.8031 12.0707 11.4879C11.7555 11.1728 11.3281 10.9957 10.8824 10.9957H11.7226C11.8206 10.9956 11.9154 10.9613 11.9907 10.8987C12.0661 10.8361 12.1172 10.7492 12.1352 10.6529L13.3956 3.93087C13.4069 3.87023 13.4048 3.80784 13.3893 3.74813C13.3738 3.68841 13.3454 3.63284 13.306 3.58536C13.2666 3.53788 13.2173 3.49965 13.1614 3.47339C13.1056 3.44714 13.0447 3.4335 12.983 3.43344H3.22765L2.88735 2.07139C2.86467 1.98046 2.81224 1.89972 2.7384 1.84202C2.66455 1.78431 2.57354 1.75296 2.47982 1.75293H1.21944ZM4.50904 10.1555L3.40579 4.27369H12.4772L11.3739 10.1555H4.50904ZM5.84084 12.6762C5.84084 12.8991 5.75232 13.1128 5.59474 13.2704C5.43716 13.428 5.22344 13.5165 5.00059 13.5165C4.77774 13.5165 4.56402 13.428 4.40644 13.2704C4.24886 13.1128 4.16033 12.8991 4.16033 12.6762C4.16033 12.4534 4.24886 12.2397 4.40644 12.0821C4.56402 11.9245 4.77774 11.836 5.00059 11.836C5.22344 11.836 5.43716 11.9245 5.59474 12.0821C5.75232 12.2397 5.84084 12.4534 5.84084 12.6762ZM11.7226 12.6762C11.7226 12.8991 11.6341 13.1128 11.4765 13.2704C11.3189 13.428 11.1052 13.5165 10.8824 13.5165C10.6595 13.5165 10.4458 13.428 10.2882 13.2704C10.1306 13.1128 10.0421 12.8991 10.0421 12.6762C10.0421 12.4534 10.1306 12.2397 10.2882 12.0821C10.4458 11.9245 10.6595 11.836 10.8824 11.836C11.1052 11.836 11.3189 11.9245 11.4765 12.0821C11.6341 12.2397 11.7226 12.4534 11.7226 12.6762Z" fill="#363330"/>
</svg>
