<svg width="14" height="14" viewBox="0 0 14 14" fill="none" xmlns="http://www.w3.org/2000/svg">
<path d="M7.84742 4.74581C7.84742 4.63439 7.80316 4.52753 7.72437 4.44874C7.64558 4.36995 7.53872 4.32568 7.4273 4.32568C7.31587 4.32568 7.20901 4.36995 7.13022 4.44874C7.05143 4.52753 7.00717 4.63439 7.00717 4.74581V6.00619H5.74679C5.63536 6.00619 5.5285 6.05046 5.44971 6.12924C5.37092 6.20803 5.32666 6.31489 5.32666 6.42632C5.32666 6.53774 5.37092 6.6446 5.44971 6.72339C5.5285 6.80218 5.63536 6.84645 5.74679 6.84645H7.00717V8.10683C7.00717 8.21825 7.05143 8.32511 7.13022 8.4039C7.20901 8.48269 7.31587 8.52695 7.4273 8.52695C7.53872 8.52695 7.64558 8.48269 7.72437 8.4039C7.80316 8.32511 7.84742 8.21825 7.84742 8.10683V6.84645H9.1078C9.21923 6.84645 9.32609 6.80218 9.40488 6.72339C9.48367 6.6446 9.52793 6.53774 9.52793 6.42632C9.52793 6.31489 9.48367 6.20803 9.40488 6.12924C9.32609 6.05046 9.21923 6.00619 9.1078 6.00619H7.84742V4.74581Z" fill="#363330"/>
<path d="M0.705283 0.964844C0.593859 0.964844 0.486998 1.00911 0.408209 1.0879C0.32942 1.16669 0.285156 1.27355 0.285156 1.38497C0.285156 1.4964 0.32942 1.60326 0.408209 1.68205C0.486998 1.76083 0.593859 1.8051 0.705283 1.8051H1.63797L1.97491 3.15539L3.23361 9.86482C3.25163 9.96109 3.30272 10.048 3.37806 10.1106C3.45339 10.1732 3.54823 10.2075 3.64617 10.2076H4.48643C4.04073 10.2076 3.61328 10.3847 3.29813 10.6999C2.98297 11.015 2.80592 11.4424 2.80592 11.8881C2.80592 12.3338 2.98297 12.7613 3.29813 13.0764C3.61328 13.3916 4.04073 13.5687 4.48643 13.5687C4.93213 13.5687 5.35957 13.3916 5.67473 13.0764C5.98988 12.7613 6.16694 12.3338 6.16694 11.8881C6.16694 11.4424 5.98988 11.015 5.67473 10.6999C5.35957 10.3847 4.93213 10.2076 4.48643 10.2076H10.3682C9.92251 10.2076 9.49506 10.3847 9.17991 10.6999C8.86475 11.015 8.6877 11.4424 8.6877 11.8881C8.6877 12.3338 8.86475 12.7613 9.17991 13.0764C9.49506 13.3916 9.92251 13.5687 10.3682 13.5687C10.8139 13.5687 11.2413 13.3916 11.5565 13.0764C11.8717 12.7613 12.0487 12.3338 12.0487 11.8881C12.0487 11.4424 11.8717 11.015 11.5565 10.6999C11.2413 10.3847 10.8139 10.2076 10.3682 10.2076H11.2085C11.3064 10.2075 11.4012 10.1732 11.4766 10.1106C11.5519 10.048 11.603 9.96109 11.621 9.86482L12.8814 3.14278C12.8928 3.08215 12.8906 3.01976 12.8751 2.96004C12.8597 2.90033 12.8312 2.84476 12.7918 2.79727C12.7524 2.74979 12.7031 2.71156 12.6473 2.68531C12.5915 2.65905 12.5305 2.64541 12.4688 2.64535H2.71349L2.37319 1.2833C2.35051 1.19237 2.29808 1.11164 2.22424 1.05393C2.15039 0.996228 2.05938 0.96487 1.96566 0.964844H0.705283ZM3.99488 9.36739L2.89162 3.48561H11.963L10.8598 9.36739H3.99488ZM5.32668 11.8881C5.32668 12.111 5.23815 12.3247 5.08058 12.4823C4.923 12.6399 4.70928 12.7284 4.48643 12.7284C4.26358 12.7284 4.04986 12.6399 3.89228 12.4823C3.7347 12.3247 3.64617 12.111 3.64617 11.8881C3.64617 11.6653 3.7347 11.4516 3.89228 11.294C4.04986 11.1364 4.26358 11.0479 4.48643 11.0479C4.70928 11.0479 4.923 11.1364 5.08058 11.294C5.23815 11.4516 5.32668 11.6653 5.32668 11.8881ZM11.2085 11.8881C11.2085 12.111 11.1199 12.3247 10.9624 12.4823C10.8048 12.6399 10.5911 12.7284 10.3682 12.7284C10.1454 12.7284 9.93164 12.6399 9.77406 12.4823C9.61648 12.3247 9.52795 12.111 9.52795 11.8881C9.52795 11.6653 9.61648 11.4516 9.77406 11.294C9.93164 11.1364 10.1454 11.0479 10.3682 11.0479C10.5911 11.0479 10.8048 11.1364 10.9624 11.294C11.1199 11.4516 11.2085 11.6653 11.2085 11.8881Z" fill="#363330"/>
</svg>
