<svg width="15" height="14" viewBox="0 0 15 14" fill="none" xmlns="http://www.w3.org/2000/svg">
<path d="M8.33375 4.9089C8.33375 4.79747 8.28949 4.69061 8.2107 4.61182C8.13191 4.53303 8.02505 4.48877 7.91362 4.48877C7.8022 4.48877 7.69534 4.53303 7.61655 4.61182C7.53776 4.69061 7.4935 4.79747 7.4935 4.9089V6.16928H6.23312C6.12169 6.16928 6.01483 6.21354 5.93604 6.29233C5.85725 6.37112 5.81299 6.47798 5.81299 6.58941C5.81299 6.70083 5.85725 6.80769 5.93604 6.88648C6.01483 6.96527 6.12169 7.00953 6.23312 7.00953H7.4935V8.26991C7.4935 8.38134 7.53776 8.4882 7.61655 8.56699C7.69534 8.64578 7.8022 8.69004 7.91362 8.69004C8.02505 8.69004 8.13191 8.64578 8.2107 8.56699C8.28949 8.4882 8.33375 8.38134 8.33375 8.26991V7.00953H9.59413C9.70556 7.00953 9.81242 6.96527 9.89121 6.88648C9.97 6.80769 10.0143 6.70083 10.0143 6.58941C10.0143 6.47798 9.97 6.37112 9.89121 6.29233C9.81242 6.21354 9.70556 6.16928 9.59413 6.16928H8.33375V4.9089Z" fill="#363330"/>
<path d="M1.19161 1.12793C1.08019 1.12793 0.973326 1.17219 0.894537 1.25098C0.815748 1.32977 0.771484 1.43663 0.771484 1.54806C0.771484 1.65948 0.815748 1.76634 0.894537 1.84513C0.973326 1.92392 1.08019 1.96818 1.19161 1.96818H2.12429L2.46124 3.31847L3.71994 10.0279C3.73796 10.1242 3.78905 10.2111 3.86439 10.2737C3.93972 10.3363 4.03455 10.3706 4.1325 10.3707H4.97276C4.52706 10.3707 4.09961 10.5478 3.78446 10.8629C3.4693 11.1781 3.29225 11.6055 3.29225 12.0512C3.29225 12.4969 3.4693 12.9244 3.78446 13.2395C4.09961 13.5547 4.52706 13.7317 4.97276 13.7317C5.41845 13.7317 5.8459 13.5547 6.16105 13.2395C6.47621 12.9244 6.65326 12.4969 6.65326 12.0512C6.65326 11.6055 6.47621 11.1781 6.16105 10.8629C5.8459 10.5478 5.41845 10.3707 4.97276 10.3707H10.8545C10.4088 10.3707 9.98139 10.5478 9.66624 10.8629C9.35108 11.1781 9.17403 11.6055 9.17403 12.0512C9.17403 12.4969 9.35108 12.9244 9.66624 13.2395C9.98139 13.5547 10.4088 13.7317 10.8545 13.7317C11.3002 13.7317 11.7277 13.5547 12.0428 13.2395C12.358 12.9244 12.535 12.4969 12.535 12.0512C12.535 11.6055 12.358 11.1781 12.0428 10.8629C11.7277 10.5478 11.3002 10.3707 10.8545 10.3707H11.6948C11.7927 10.3706 11.8876 10.3363 11.9629 10.2737C12.0382 10.2111 12.0893 10.1242 12.1074 10.0279L13.3677 3.30587C13.3791 3.24523 13.3769 3.18284 13.3615 3.12313C13.346 3.06341 13.3175 3.00784 13.2782 2.96036C13.2388 2.91288 13.1894 2.87465 13.1336 2.84839C13.0778 2.82214 13.0169 2.8085 12.9552 2.80844H3.19982L2.85952 1.44639C2.83684 1.35546 2.78441 1.27472 2.71057 1.21702C2.63672 1.15931 2.54571 1.12796 2.45199 1.12793H1.19161ZM4.48121 9.53047L3.37795 3.64869H12.4493L11.3461 9.53047H4.48121ZM5.81301 12.0512C5.81301 12.2741 5.72448 12.4878 5.56691 12.6454C5.40933 12.803 5.1956 12.8915 4.97276 12.8915C4.74991 12.8915 4.53618 12.803 4.37861 12.6454C4.22103 12.4878 4.1325 12.2741 4.1325 12.0512C4.1325 11.8284 4.22103 11.6147 4.37861 11.4571C4.53618 11.2995 4.74991 11.211 4.97276 11.211C5.1956 11.211 5.40933 11.2995 5.56691 11.4571C5.72448 11.6147 5.81301 11.8284 5.81301 12.0512ZM11.6948 12.0512C11.6948 12.2741 11.6063 12.4878 11.4487 12.6454C11.2911 12.803 11.0774 12.8915 10.8545 12.8915C10.6317 12.8915 10.418 12.803 10.2604 12.6454C10.1028 12.4878 10.0143 12.2741 10.0143 12.0512C10.0143 11.8284 10.1028 11.6147 10.2604 11.4571C10.418 11.2995 10.6317 11.211 10.8545 11.211C11.0774 11.211 11.2911 11.2995 11.4487 11.4571C11.6063 11.6147 11.6948 11.8284 11.6948 12.0512Z" fill="#363330"/>
</svg>
