<svg width="30" height="33" viewBox="0 0 30 33" fill="none" xmlns="http://www.w3.org/2000/svg">
<path d="M27.1682 28.5276C26.9318 27.754 26.6094 26.8944 26.2226 26.0348C25.8358 25.1753 25.3846 24.2942 24.8903 23.4132C24.8259 23.5206 24.7614 23.6496 24.6754 23.757C24.611 23.8645 24.525 23.9934 24.4606 24.1008C24.3746 24.2083 24.3101 24.3157 24.2242 24.4232C24.1382 24.5306 24.0523 24.6381 23.9663 24.7455L23.9448 24.767L23.9233 24.7885L23.9018 24.81L23.8804 24.8315L23.7944 24.9174C23.8589 25.1108 23.9448 25.3472 24.0523 25.6051C24.1382 25.8629 24.2457 26.1423 24.3316 26.4002C24.4176 26.658 24.482 26.9159 24.5035 27.1093C24.525 27.3027 24.525 27.4746 24.4391 27.5391C24.4176 27.5606 24.3961 27.582 24.3531 27.6035C24.3316 27.625 24.2886 27.6465 24.2457 27.6465C24.2027 27.668 24.1812 27.668 24.1382 27.668C24.0952 27.668 24.0523 27.668 24.0093 27.668C23.9448 27.668 23.8589 27.6465 23.7729 27.6465C23.687 27.625 23.601 27.6035 23.515 27.582C23.4291 27.5606 23.3216 27.5176 23.2357 27.4746C23.1282 27.4316 23.0208 27.3886 22.9134 27.3457C22.7844 27.2812 22.634 27.2167 22.4836 27.1308C22.3332 27.0448 22.1827 26.9589 22.0323 26.8729C21.8819 26.787 21.71 26.701 21.5596 26.5936C21.3876 26.4861 21.2372 26.4002 21.0653 26.2927C21.71 25.648 22.3332 24.9389 22.8919 24.2083C23.4506 23.4562 23.9663 22.6826 24.4176 21.866C24.8688 21.0494 25.2556 20.2114 25.578 19.3303C25.9003 18.4708 26.1582 17.5682 26.3301 16.6657C26.7384 14.6242 26.7169 12.7117 26.3301 11.0141C25.9648 9.33798 25.2556 7.85524 24.2672 6.67335C23.3002 5.49146 22.0753 4.58893 20.657 4.00873C19.2602 3.42853 17.6486 3.19215 15.9295 3.2996C14.7905 3.38555 13.6516 3.62193 12.5557 3.98724C11.4598 4.35255 10.4068 4.8468 9.39684 5.44849C8.38686 6.05017 7.41986 6.75931 6.53882 7.57589C5.63628 8.37097 4.8197 9.27351 4.06759 10.2405C3.87419 9.8752 3.70228 9.50989 3.57335 9.20904C3.44441 8.88671 3.33697 8.60735 3.29399 8.34949C3.22952 8.09162 3.20804 7.87673 3.22952 7.68333C3.25101 7.48993 3.31548 7.33951 3.40144 7.23206C3.42292 7.18909 3.4659 7.1676 3.53037 7.12462C3.57335 7.08164 3.63781 7.06015 3.70228 7.03866C3.76675 7.01717 3.8527 6.99569 3.93866 6.9742C4.02461 6.95271 4.11057 6.95271 4.19652 6.93122C4.30397 6.93122 4.41141 6.93122 4.51886 6.95271C4.6263 6.9742 4.73375 6.99569 4.86268 7.03866C4.97013 7.08164 5.09906 7.12462 5.2065 7.21057C5.31395 7.27504 5.44288 7.361 5.55033 7.46844C5.65777 7.33951 5.7867 7.21057 5.89415 7.08164C6.02308 6.95271 6.13053 6.84526 6.25946 6.71633C6.38839 6.60889 6.51733 6.47995 6.64626 6.37251C6.77519 6.26506 6.92561 6.15762 7.07604 6.05017C7.09753 6.05017 7.09753 6.02869 7.11901 6.02869C7.1405 6.02869 7.1405 6.0072 7.16199 6.0072C7.18348 6.0072 7.18348 5.98571 7.20497 5.98571C7.22646 5.98571 7.22646 5.96422 7.24795 5.96422C6.99008 5.72784 6.71073 5.53444 6.43137 5.38402C6.15201 5.2336 5.85117 5.10466 5.55033 5.01871C5.24948 4.93275 4.94864 4.86829 4.64779 4.8468C4.34695 4.82531 4.06759 4.80382 3.78824 4.82531C3.59484 4.8468 3.42292 4.86829 3.25101 4.88977C3.0791 4.93275 2.92868 4.97573 2.77826 5.01871C2.62784 5.06169 2.4989 5.12615 2.39146 5.21211C2.28401 5.27657 2.17657 5.36253 2.1121 5.44849C1.87572 5.70635 1.74679 6.02869 1.68232 6.41549C1.61786 6.80229 1.63935 7.27504 1.74679 7.79077C1.85424 8.30651 2.02615 8.88671 2.26252 9.53137C2.52039 10.1546 2.82124 10.8422 3.22952 11.5728C2.97166 11.9811 2.71379 12.3894 2.47741 12.8192C2.24104 13.249 2.02615 13.6787 1.83275 14.13C1.63935 14.5813 1.44595 15.0325 1.29552 15.5053C1.12361 15.978 0.99468 16.4508 0.865747 16.9236C0.392991 18.7501 0.242569 20.5122 0.392991 22.1454C0.543413 23.8 1.01617 25.3042 1.76828 26.615C2.52039 27.9474 3.57335 29.0433 4.86268 29.8599C6.1735 30.6764 7.74219 31.1922 9.52577 31.2996C10.063 31.3211 10.5787 31.3211 11.1159 31.2781C11.6532 31.2352 12.1904 31.1707 12.7276 31.0632C13.2648 30.9558 13.8021 30.8054 14.3393 30.6335C14.8765 30.4616 15.3922 30.2467 15.9295 30.0103L14.6616 27.625C14.2963 27.7754 13.931 27.9044 13.5442 28.0118C13.1789 28.1193 12.7921 28.2052 12.4268 28.2697C12.0615 28.3342 11.6747 28.3771 11.3093 28.4201C10.944 28.4416 10.5572 28.4416 10.1919 28.4416C8.75217 28.3771 7.48433 27.9903 6.43137 27.3457C5.37841 26.701 4.51886 25.82 3.89568 24.767C3.2725 23.714 2.8857 22.4892 2.73528 21.1569C2.58486 19.846 2.6923 18.4063 3.0791 16.9236C3.4659 15.4408 4.08908 14.044 4.88417 12.7547C5.67926 11.4869 6.66775 10.3265 7.76368 9.33797C8.85962 8.34949 10.0845 7.53291 11.3738 6.93122C12.6846 6.32953 14.0599 5.96422 15.4352 5.87826C16.832 5.79231 18.1213 6.02869 19.2602 6.50144C20.3992 6.99569 21.3876 7.7478 22.1398 8.69331C22.9134 9.66031 23.4721 10.8637 23.7514 12.2175C24.0308 13.5928 24.0308 15.1185 23.7084 16.7516C23.558 17.4608 23.3646 18.1699 23.1068 18.8576C22.8489 19.5452 22.548 20.2114 22.1827 20.856C21.8389 21.5007 21.4306 22.1239 20.9794 22.7041C20.5496 23.2843 20.0553 23.843 19.5611 24.3587C19.5611 24.1868 19.5826 24.0149 19.5826 23.8215C19.5826 23.6496 19.6041 23.4562 19.6041 23.3058C19.6041 23.1338 19.6256 22.9834 19.6256 22.8545C19.6256 22.7256 19.6256 22.6181 19.6256 22.5536C19.6256 22.4892 19.6256 22.4247 19.6041 22.3817C19.5826 22.3388 19.5826 22.2958 19.5611 22.2743C19.5396 22.2528 19.5181 22.2313 19.4966 22.2313C19.4751 22.2098 19.4321 22.2098 19.4107 22.2098C19.3892 22.2098 19.3677 22.2098 19.3462 22.2098C19.3247 22.2098 19.3032 22.2098 19.2817 22.2313C19.2602 22.2313 19.2602 22.2528 19.2388 22.2528H19.2173L14.7905 23.6926C14.7905 23.6926 14.7476 23.714 14.7046 23.7355C14.6616 23.757 14.5971 23.8 14.5542 23.843C14.5112 23.9074 14.4682 23.9719 14.4467 24.0579C14.4467 24.1438 14.4682 24.2728 14.5327 24.4232C14.5327 24.4232 14.5327 24.4447 14.5542 24.4447C14.5542 24.4447 14.5542 24.4662 14.5757 24.4662C14.5757 24.4662 14.5757 24.4876 14.5971 24.4876C14.5971 24.4876 14.5971 24.5091 14.6186 24.5091C14.812 24.9174 15.0914 25.4546 15.4352 26.0563C15.7575 26.6795 16.1229 27.3672 16.4882 28.0333C16.8535 28.721 17.2188 29.3871 17.5411 29.9673C17.8635 30.5475 18.1213 31.0418 18.2932 31.3426C18.3147 31.3641 18.3147 31.3856 18.3362 31.4286C18.3577 31.45 18.3577 31.4715 18.3792 31.493C18.4007 31.5145 18.4007 31.536 18.4007 31.5575C18.4007 31.579 18.4222 31.6005 18.4222 31.6005C18.4652 31.6864 18.5081 31.7509 18.5511 31.7939C18.5941 31.8583 18.6371 31.9013 18.6586 31.9228C18.7015 31.9658 18.723 31.9873 18.766 32.0088C18.809 32.0302 18.8305 32.0302 18.8519 32.0302C18.9164 32.0302 18.9594 32.0088 19.0024 31.9873C19.0454 31.9658 19.0883 31.9013 19.1098 31.8583C19.1313 31.8154 19.1743 31.7509 19.1958 31.7079C19.2173 31.6649 19.2173 31.6005 19.2388 31.5575C19.2388 31.536 19.2388 31.536 19.2388 31.5145C19.2388 31.493 19.2388 31.4715 19.2388 31.4286C19.2388 31.4071 19.2388 31.3641 19.2388 31.3426C19.2388 31.2996 19.2388 31.2781 19.2388 31.2352C19.2388 31.0847 19.2602 30.9128 19.2602 30.7409C19.2602 30.569 19.2817 30.3756 19.2817 30.2037C19.2817 30.0318 19.3032 29.8814 19.3032 29.7739C19.3032 29.6665 19.3247 29.5805 19.3247 29.5805C19.9264 29.9458 20.5496 30.2896 21.1298 30.6335C21.7315 30.9558 22.3117 31.2781 22.8919 31.536C23.4506 31.7939 24.0093 32.0302 24.5035 32.1807C24.9978 32.3526 25.4705 32.4385 25.8573 32.4815C25.9218 32.4815 25.9648 32.4815 26.0292 32.4815C26.0722 32.4815 26.1367 32.4815 26.1797 32.4815C26.2226 32.4815 26.2871 32.4815 26.3301 32.46C26.3731 32.46 26.416 32.4385 26.4805 32.4385C26.545 32.417 26.6094 32.417 26.6739 32.3956C26.7384 32.3741 26.8028 32.3526 26.8673 32.3096C26.9318 32.2881 26.9748 32.2451 27.0392 32.2022C27.0822 32.1592 27.1467 32.1162 27.1896 32.0732C27.469 31.7724 27.5979 31.2996 27.5979 30.6979C27.5979 30.1177 27.4475 29.4086 27.2326 28.6135L27.1682 28.5276Z" fill="#929392"/>
<path d="M11.1587 13.4212C11.481 13.4212 11.7174 13.5072 11.9108 13.6791C12.1042 13.851 12.1902 14.0874 12.1902 14.4097C12.1902 14.732 12.0827 14.9899 11.8893 15.1618C11.6744 15.3337 11.4166 15.4412 11.0727 15.4412C10.2991 15.4412 9.91235 15.0974 9.91235 14.4312H8.77344V14.5172C8.77344 15.1403 8.98833 15.6131 9.39662 15.9354C9.8049 16.2793 10.3636 16.4297 11.0727 16.4297C11.7174 16.4297 12.2546 16.2578 12.7059 15.8924C13.1572 15.5486 13.3721 15.0329 13.3721 14.4097C13.3721 14.1948 13.3291 13.9799 13.2646 13.7865C13.2001 13.5931 13.1142 13.4427 13.0497 13.3353C12.9638 13.2278 12.8778 13.1204 12.7704 13.0559C12.6629 12.97 12.577 12.927 12.534 12.9055C12.491 12.884 12.448 12.8625 12.4265 12.8625L12.5125 12.8195C12.577 12.7981 12.6414 12.7336 12.7274 12.6476C12.8133 12.5617 12.8993 12.4757 12.9638 12.3683C13.0497 12.2608 13.1142 12.1104 13.1787 11.9385C13.2431 11.7666 13.2646 11.5732 13.2646 11.3798C13.2646 10.7996 13.0712 10.3483 12.6844 10.026C12.2976 9.70365 11.7604 9.53174 11.0942 9.53174C10.4281 9.53174 9.91235 9.68216 9.50406 10.026C9.09577 10.3483 8.90237 10.7996 8.90237 11.3798V11.4442H10.0198C10.0198 11.1219 10.1272 10.8855 10.2991 10.7351C10.4925 10.5847 10.7504 10.4987 11.0942 10.4987C11.4381 10.4987 11.7174 10.5847 11.8893 10.7351C12.0612 10.907 12.1687 11.1219 12.1687 11.4013C12.1687 11.7021 12.0827 11.96 11.8893 12.1319C11.6959 12.3038 11.4595 12.3898 11.1587 12.3898H10.0198V13.3782L11.2232 13.3997L11.1587 13.4212ZM18.7873 16.3437V15.2908H16.0367L17.6269 13.7221C18.0566 13.3138 18.3575 12.927 18.5294 12.5832C18.7013 12.2393 18.7873 11.874 18.7873 11.5087C18.7873 10.907 18.5939 10.4128 18.2285 10.0904C17.8417 9.74663 17.326 9.57472 16.6384 9.57472C15.9507 9.57472 15.4135 9.74663 15.0052 10.0904C14.5969 10.4343 14.4035 10.907 14.4035 11.5302V11.5947H15.5424C15.5424 10.9285 15.8863 10.5847 16.6169 10.5847C17.3045 10.5847 17.6483 10.907 17.6483 11.5517C17.6483 11.8096 17.5839 12.0459 17.4764 12.2823C17.369 12.5187 17.1541 12.7766 16.8747 13.0559L14.5539 15.3123V16.3652H18.8302L18.7873 16.3437Z" fill="#929392"/>
<path d="M10.2782 21.9952V16.9453H9.44014V20.7918L7.44167 16.9453H6.19531V21.9952H7.03338V18.1702L9.05334 21.9952H10.2782ZM12.0403 21.5224C12.0403 21.3935 11.9973 21.3076 11.9114 21.2216C11.8254 21.1571 11.718 21.1142 11.5675 21.1142C11.4386 21.1142 11.3312 21.1571 11.2452 21.2216C11.1592 21.2861 11.1163 21.3935 11.1163 21.5224V21.6729C11.1163 21.8018 11.1592 21.8878 11.2452 21.9737C11.3312 22.0382 11.4386 22.0812 11.589 22.0812C11.7394 22.0812 11.8469 22.0382 11.9328 21.9737C12.0188 21.9092 12.0618 21.8018 12.0618 21.6729L12.0403 21.5224ZM15.8438 20.6414H15.0487C15.0487 21.1142 14.7909 21.3505 14.2966 21.3505C13.8024 21.3505 13.566 21.0927 13.566 20.5984V19.8463C13.566 19.3306 13.8024 19.0942 14.2966 19.0942C14.7909 19.0942 15.0487 19.3306 15.0487 19.8033H15.8438V19.7389C15.8438 19.3091 15.7149 18.9653 15.4355 18.7289C15.1562 18.4925 14.7909 18.3636 14.3181 18.3636C13.8454 18.3636 13.48 18.4925 13.2007 18.7289C12.9213 18.9868 12.7709 19.3306 12.7709 19.7604V20.6414C12.7709 21.0712 12.9213 21.415 13.2007 21.6729C13.48 21.9092 13.8454 22.0382 14.3181 22.0382C14.7909 22.0382 15.1777 21.9307 15.457 21.6944C15.7364 21.458 15.8868 21.1142 15.8868 20.6844L15.8653 20.6414H15.8438ZM21.5169 21.9952V19.481C21.5169 19.1372 21.4309 18.8793 21.259 18.6859C21.0871 18.4925 20.8292 18.4066 20.5284 18.4066C20.249 18.4066 19.9697 18.4925 19.7118 18.6429L19.325 18.8793C19.1746 18.557 18.8952 18.4066 18.487 18.4066C18.2291 18.4066 17.9712 18.471 17.7348 18.6214L17.4125 18.8148V18.4495H16.5959V22.0167H17.4125V19.567L17.8423 19.3091C18.0142 19.2231 18.1646 19.1802 18.2721 19.1802C18.5299 19.1802 18.6374 19.3306 18.6374 19.6314V22.0382H19.454V19.5884L19.8837 19.3306C20.0556 19.2446 20.2061 19.1802 20.3135 19.1802C20.5714 19.1802 20.7003 19.3306 20.7003 19.6099V22.0382H21.5169V21.9952Z" fill="#929392"/>
<path d="M23.7943 12.4972C27.1895 12.4972 29.9616 9.74664 29.9616 6.32991C29.9616 2.91318 27.211 0.162598 23.7943 0.162598C20.3775 0.162598 17.627 2.91318 17.627 6.32991C17.627 9.72515 20.3775 12.4972 23.7943 12.4972Z" fill="#929392"/>
<path d="M23.7943 12.4972C27.1895 12.4972 29.9616 9.74664 29.9616 6.32991C29.9616 2.91318 27.211 0.162598 23.7943 0.162598C20.3775 0.162598 17.627 2.91318 17.627 6.32991C17.627 9.72515 20.3775 12.4972 23.7943 12.4972Z" stroke="white" stroke-width="0.623178"/>
<path d="M25.9862 9.85392V9.18776H24.482V3.2998H23.7084C23.2356 3.72958 22.7844 4.03043 22.3331 4.18085V4.88998C22.8274 4.80403 23.3001 4.54616 23.7299 4.11638V9.20925H21.8174V9.87541H25.9862V9.85392Z" fill="#FEFEFE"/>
</svg>
