<svg width="17" height="17" viewBox="0 0 17 17" fill="none" xmlns="http://www.w3.org/2000/svg">
<path d="M8.50745 4.35205C8.64006 4.35205 8.76724 4.40473 8.86101 4.4985C8.95478 4.59227 9.00746 4.71945 9.00746 4.85207V7.85216H12.0076C12.1402 7.85216 12.2673 7.90484 12.3611 7.99861C12.4549 8.09238 12.5076 8.21956 12.5076 8.35217C12.5076 8.48478 12.4549 8.61197 12.3611 8.70574C12.2673 8.79951 12.1402 8.85219 12.0076 8.85219H9.00746V11.8523C9.00746 11.9849 8.95478 12.1121 8.86101 12.2058C8.76724 12.2996 8.64006 12.3523 8.50745 12.3523C8.37483 12.3523 8.24765 12.2996 8.15388 12.2058C8.06011 12.1121 8.00743 11.9849 8.00743 11.8523V8.85219H5.00734C4.87473 8.85219 4.74755 8.79951 4.65378 8.70574C4.56 8.61197 4.50732 8.48478 4.50732 8.35217C4.50732 8.21956 4.56 8.09238 4.65378 7.99861C4.74755 7.90484 4.87473 7.85216 5.00734 7.85216H8.00743V4.85207C8.00743 4.71945 8.06011 4.59227 8.15388 4.4985C8.24765 4.40473 8.37483 4.35205 8.50745 4.35205V4.35205Z" fill="#CFCCC9"/>
</svg>
