<svg width="17" height="17" viewBox="0 0 17 17" fill="none" xmlns="http://www.w3.org/2000/svg">
<path d="M8.50696 4.43164C8.63957 4.43164 8.76675 4.48432 8.86052 4.57809C8.95429 4.67186 9.00697 4.79904 9.00697 4.93166V7.93175H12.0071C12.1397 7.93175 12.2669 7.98443 12.3606 8.0782C12.4544 8.17197 12.5071 8.29915 12.5071 8.43176C12.5071 8.56437 12.4544 8.69156 12.3606 8.78533C12.2669 8.8791 12.1397 8.93178 12.0071 8.93178H9.00697V11.9319C9.00697 12.0645 8.95429 12.1917 8.86052 12.2854C8.76675 12.3792 8.63957 12.4319 8.50696 12.4319C8.37435 12.4319 8.24716 12.3792 8.15339 12.2854C8.05962 12.1917 8.00694 12.0645 8.00694 11.9319V8.93178H5.00685C4.87424 8.93178 4.74706 8.8791 4.65329 8.78533C4.55952 8.69156 4.50684 8.56437 4.50684 8.43176C4.50684 8.29915 4.55952 8.17197 4.65329 8.0782C4.74706 7.98443 4.87424 7.93175 5.00685 7.93175H8.00694V4.93166C8.00694 4.79904 8.05962 4.67186 8.15339 4.57809C8.24716 4.48432 8.37435 4.43164 8.50696 4.43164Z" fill="#CFCCC9"/>
</svg>
