<svg width="17" height="17" viewBox="0 0 17 17" fill="none" xmlns="http://www.w3.org/2000/svg">
<path d="M8.50696 4.2832C8.63957 4.2832 8.76675 4.33588 8.86052 4.42965C8.95429 4.52343 9.00697 4.65061 9.00697 4.78322V7.78331H12.0071C12.1397 7.78331 12.2669 7.83599 12.3606 7.92976C12.4544 8.02353 12.5071 8.15071 12.5071 8.28332C12.5071 8.41594 12.4544 8.54312 12.3606 8.63689C12.2669 8.73066 12.1397 8.78334 12.0071 8.78334H9.00697V11.7834C9.00697 11.916 8.95429 12.0432 8.86052 12.137C8.76675 12.2308 8.63957 12.2834 8.50696 12.2834C8.37435 12.2834 8.24716 12.2308 8.15339 12.137C8.05962 12.0432 8.00694 11.916 8.00694 11.7834V8.78334H5.00685C4.87424 8.78334 4.74706 8.73066 4.65329 8.63689C4.55952 8.54312 4.50684 8.41594 4.50684 8.28332C4.50684 8.15071 4.55952 8.02353 4.65329 7.92976C4.74706 7.83599 4.87424 7.78331 5.00685 7.78331H8.00694V4.78322C8.00694 4.65061 8.05962 4.52343 8.15339 4.42965C8.24716 4.33588 8.37435 4.2832 8.50696 4.2832Z" fill="#CFCCC9"/>
</svg>
