<svg width="34" height="34" viewBox="0 0 34 34" fill="none" xmlns="http://www.w3.org/2000/svg">
<path d="M17.125 32.7974C8.60635 32.7974 1.6752 25.8663 1.6752 17.3476C1.6752 8.82901 8.60477 1.89786 17.125 1.89786C25.6436 1.89786 32.5748 8.82901 32.5748 17.3476C32.5748 25.8663 25.6436 32.7974 17.125 32.7974ZM17.1076 33.9742H17.1424C26.3007 33.9647 33.7515 26.5091 33.7515 17.3492C33.7515 8.18139 26.2928 0.722656 17.125 0.722656C7.95873 0.722656 0.5 8.18139 0.5 17.3492C0.5 26.5091 7.94925 33.9647 17.1076 33.9742Z" fill="#250A20"/>
<path d="M22.2211 13.5787L22.2448 13.5645V11.9106H12.2825L11.5512 13.1806H20.253L6.56761 21.5587L6.54392 21.5729L6.5376 22.8207H25.4766V21.5508H9.00489L22.2211 13.5787Z" fill="#250A20"/>
<path d="M27.6341 13.7507H26.3799V22.819H26.8696C27.1065 22.819 27.2945 22.748 27.4271 22.6074C27.6499 22.3752 27.6341 22.0372 27.6325 22.0245V13.7507H27.6341Z" fill="#250A20"/>
<path d="M27.013 13.1537C27.3526 13.1537 27.629 12.8773 27.629 12.5377C27.629 12.1981 27.351 11.9216 27.013 11.9216C26.6734 11.9216 26.397 12.1981 26.397 12.5377C26.397 12.8773 26.6734 13.1537 27.013 13.1537Z" fill="#250A20"/>
</svg>
