<svg width="27" height="29" viewBox="0 0 27 29" fill="none" xmlns="http://www.w3.org/2000/svg">
<path d="M24.0751 25.3284C23.8603 24.6569 23.5917 23.9048 23.2425 23.1528C22.8933 22.4007 22.5173 21.6218 22.0876 20.8697C22.0338 20.9772 21.9801 21.0846 21.8996 21.1652C21.8458 21.2726 21.7653 21.3532 21.7115 21.4606C21.6578 21.5681 21.5772 21.6487 21.4967 21.7561C21.4161 21.8635 21.3624 21.9441 21.2818 22.0247C21.2818 22.0247 21.2818 22.0247 21.2549 22.0515C21.2549 22.0515 21.2549 22.0515 21.2281 22.0784C21.2281 22.0784 21.2281 22.0784 21.2012 22.1053C21.2012 22.1053 21.2012 22.1053 21.1744 22.1321L21.1206 22.2127C21.1744 22.3739 21.2549 22.5887 21.3355 22.8305C21.4161 23.0453 21.4967 23.2871 21.5772 23.5288C21.6578 23.7437 21.7115 23.9854 21.7384 24.1466C21.7653 24.3346 21.7653 24.4689 21.6847 24.5226C21.6578 24.5494 21.631 24.5763 21.6041 24.5763C21.5772 24.6032 21.5504 24.6032 21.5235 24.6032C21.4967 24.6032 21.4698 24.63 21.4161 24.63C21.3892 24.63 21.3355 24.63 21.3087 24.63C21.2549 24.63 21.1744 24.63 21.1206 24.6032C21.0401 24.5763 20.9595 24.5763 20.9058 24.5494C20.8252 24.5226 20.7446 24.4957 20.664 24.4689C20.5835 24.442 20.476 24.3883 20.3954 24.3346C20.288 24.2809 20.1537 24.2271 20.0194 24.1466C19.8851 24.066 19.7508 24.0123 19.6165 23.9317C19.4822 23.8511 19.3479 23.7705 19.2136 23.69C19.0793 23.6094 18.9182 23.5019 18.7839 23.4214C19.3479 22.8573 19.8851 22.2396 20.3954 21.5949C20.8789 20.9503 21.3355 20.252 21.7384 19.5536C22.1413 18.8284 22.4905 18.1032 22.759 17.3243C23.0545 16.5723 23.2694 15.7934 23.4305 14.9876C23.7797 13.2149 23.7528 11.5227 23.4305 10.0455C23.1082 8.56824 22.4905 7.279 21.631 6.23149C20.7983 5.21084 19.724 4.40507 18.4616 3.89475C17.2261 3.38442 15.8294 3.16955 14.3253 3.27698C13.3315 3.35756 12.3377 3.54558 11.3708 3.86789C10.4307 4.1902 9.49062 4.61994 8.60426 5.15713C7.71791 5.69431 6.88528 6.31207 6.10636 7.01041C5.32744 7.70875 4.60225 8.48766 3.95763 9.34716C3.76961 9.02485 3.63532 8.70254 3.52788 8.43395C3.42044 8.16535 3.33987 7.89676 3.28615 7.68189C3.23243 7.46702 3.20557 7.25214 3.23243 7.09099C3.25929 6.92983 3.31301 6.79554 3.39358 6.6881C3.42044 6.66124 3.4473 6.63438 3.50102 6.60752C3.55474 6.58066 3.60846 6.5538 3.66218 6.52694C3.71589 6.50009 3.79647 6.47323 3.85019 6.47323C3.93077 6.44637 4.01135 6.44637 4.09192 6.44637C4.1725 6.44637 4.27994 6.44637 4.36051 6.44637C4.46795 6.47323 4.54853 6.47323 4.65597 6.52694C4.7634 6.5538 4.84398 6.60752 4.95142 6.66124C5.05885 6.71496 5.16629 6.79554 5.24687 6.90297C5.3543 6.79554 5.43488 6.66124 5.54232 6.5538C5.64976 6.44637 5.75719 6.33893 5.86463 6.23149C5.97206 6.12406 6.0795 6.04348 6.2138 5.93604C6.32123 5.82861 6.45553 5.74803 6.58983 5.66745L6.61668 5.64059L6.64354 5.61373L6.6704 5.58687C6.6704 5.58687 6.69726 5.58687 6.69726 5.56001C6.48239 5.372 6.24066 5.18399 5.97206 5.04969C5.73033 4.91539 5.46174 4.80796 5.19315 4.72738C4.92456 4.6468 4.65597 4.59308 4.41423 4.56622C4.14564 4.53937 3.90391 4.53937 3.66218 4.53937C3.50102 4.53937 3.33987 4.56622 3.17871 4.59308C3.01756 4.61994 2.88326 4.67366 2.74896 4.70052C2.61467 4.75424 2.50723 4.80796 2.3998 4.86168C2.29236 4.91539 2.21178 4.99597 2.15806 5.04969C1.97005 5.26456 1.83575 5.56001 1.78203 5.88232C1.72832 6.23149 1.75517 6.63438 1.83575 7.09099C1.91633 7.54759 2.07748 8.05792 2.29236 8.5951C2.50723 9.15914 2.77582 9.75004 3.12499 10.3947C2.88326 10.7438 2.66839 11.1199 2.48037 11.4959C2.2655 11.8719 2.07748 12.2479 1.91633 12.6508C1.72832 13.0537 1.59402 13.4298 1.43286 13.8595C1.29857 14.2624 1.16427 14.6921 1.05684 15.095C0.62709 16.7066 0.519653 18.2375 0.653949 19.6611C0.788245 21.1115 1.21799 22.4276 1.86261 23.5825C2.53409 24.7375 3.4473 25.7044 4.57539 26.4296C5.73033 27.1548 7.10015 27.6114 8.65798 27.692C9.11459 27.7188 9.59805 27.7188 10.0547 27.692C10.5381 27.6651 10.9947 27.5845 11.4782 27.504C11.9617 27.3965 12.4183 27.2891 12.8749 27.1279C13.3315 26.9668 13.8149 26.7788 14.2715 26.5907L13.1703 24.4957C12.848 24.63 12.5257 24.7375 12.2034 24.8449C11.8811 24.9523 11.5588 25.0061 11.2096 25.0866C10.8873 25.1403 10.565 25.1941 10.2158 25.2209C9.8935 25.2478 9.57119 25.2478 9.24888 25.2209C7.9865 25.1672 6.88528 24.818 5.94521 24.254C5.03199 23.69 4.27994 22.911 3.71589 21.9978C3.17871 21.0846 2.82954 20.0102 2.69525 18.8553C2.56095 17.7004 2.66839 16.438 2.9907 15.1487C3.31301 13.8595 3.87705 12.624 4.57539 11.4959C5.27373 10.3678 6.13322 9.37402 7.10015 8.51452C8.06708 7.65503 9.14145 6.92983 10.2695 6.41951C11.3976 5.90918 12.6063 5.56001 13.8418 5.5063C15.0773 5.42572 16.2054 5.64059 17.1992 6.04348C18.193 6.47323 19.0525 7.11785 19.724 7.97734C20.3954 8.83683 20.8789 9.88434 21.1206 11.0661C21.3624 12.2748 21.3624 13.6178 21.0669 15.0413C20.9326 15.6591 20.7715 16.2768 20.5297 16.8946C20.3149 17.4855 20.0463 18.0764 19.724 18.6404C19.4016 19.2045 19.0525 19.7417 18.6765 20.252C18.3004 20.7623 17.8707 21.2458 17.4409 21.7024C17.4409 21.5412 17.4678 21.4069 17.4678 21.2458C17.4678 21.0846 17.4946 20.9235 17.4946 20.7892C17.4946 20.6549 17.4946 20.5206 17.5215 20.3863C17.5215 20.2788 17.5215 20.1714 17.5215 20.1177C17.5215 20.064 17.5215 20.0102 17.4946 19.9565C17.4946 19.9297 17.4678 19.876 17.4409 19.876C17.4141 19.8491 17.4141 19.8491 17.3872 19.8222C17.3604 19.8222 17.3335 19.7954 17.3066 19.7954C17.2798 19.7954 17.2529 19.7954 17.2529 19.7954C17.2261 19.7954 17.2261 19.7954 17.1992 19.8222C17.1723 19.8222 17.1723 19.8222 17.1723 19.8491H17.1455L13.2778 21.1115C13.2778 21.1115 13.2509 21.1115 13.1972 21.1383C13.1435 21.1652 13.0897 21.1921 13.0629 21.2458C13.0092 21.2995 12.9823 21.3532 12.9823 21.4338C12.9823 21.5144 12.9823 21.6218 13.0629 21.7561V21.783V21.8098V21.8367V21.8635C13.224 22.2127 13.4926 22.6962 13.7612 23.2333C14.0567 23.7705 14.379 24.3883 14.7013 24.9792C15.0236 25.5701 15.3459 26.161 15.6145 26.6713C15.8831 27.1816 16.1248 27.6114 16.2591 27.88C16.2591 27.9068 16.286 27.9337 16.286 27.9337C16.286 27.9606 16.3128 27.9874 16.3128 27.9874C16.3128 28.0143 16.3397 28.0143 16.3397 28.0411C16.3397 28.068 16.3666 28.068 16.3666 28.0949C16.3934 28.1754 16.4471 28.2292 16.474 28.256C16.5009 28.3097 16.5546 28.3366 16.5814 28.3634C16.6083 28.3903 16.6352 28.4172 16.662 28.444C16.6889 28.4709 16.7157 28.4709 16.7426 28.4709C16.7963 28.4709 16.8232 28.4709 16.8769 28.444C16.9037 28.4172 16.9575 28.3634 16.9843 28.3366C17.0112 28.2829 17.038 28.256 17.0649 28.2023C17.0918 28.1486 17.0918 28.1217 17.0918 28.068C17.0918 28.068 17.0918 28.0411 17.0918 28.0143C17.0918 27.9874 17.0918 27.9606 17.0918 27.9606C17.0918 27.9337 17.0918 27.9068 17.0918 27.88C17.0918 27.8531 17.0918 27.8263 17.0918 27.7725C17.0918 27.6383 17.1186 27.504 17.1186 27.3428C17.1186 27.1816 17.1455 27.0205 17.1455 26.8593C17.1455 26.6982 17.1723 26.5639 17.1723 26.4833C17.1723 26.3759 17.1723 26.3222 17.1723 26.2953C17.7095 26.6176 18.2467 26.9131 18.757 27.2085C19.2942 27.504 19.8045 27.7725 20.288 27.9874C20.7715 28.2292 21.2549 28.4172 21.6847 28.5515C22.1144 28.6858 22.5173 28.7932 22.8665 28.7932C22.9202 28.7932 22.9739 28.7932 23.0008 28.7932C23.0545 28.7932 23.0814 28.7932 23.1351 28.7932C23.1888 28.7932 23.2157 28.7932 23.2694 28.7932C23.3231 28.7932 23.3499 28.7932 23.4037 28.7663C23.4574 28.7663 23.5111 28.7395 23.5917 28.7126C23.6454 28.6858 23.6991 28.6589 23.7528 28.632C23.8066 28.6052 23.8603 28.5783 23.8871 28.5515C23.9409 28.5246 23.9677 28.4709 24.0214 28.444C24.2632 28.1754 24.3706 27.7725 24.3706 27.2354C24.3706 26.725 24.2363 26.1073 24.0483 25.4089L24.0751 25.3284Z" fill="#FDC600"/>
<path d="M10.1346 12.0874C10.4032 12.0874 10.6449 12.168 10.806 12.3291C10.9672 12.4903 11.0478 12.7051 11.0478 12.9737C11.0478 13.2692 10.9672 13.4841 10.7792 13.6452C10.5912 13.8064 10.3494 13.8869 10.0808 13.8869C9.40936 13.8869 9.0602 13.5915 9.0602 13.0006H8.06641V13.0812C8.06641 13.6184 8.25442 14.0212 8.60359 14.3167C8.97962 14.6121 9.46308 14.7464 10.0808 14.7464C10.6449 14.7464 11.1284 14.5853 11.5044 14.2898C11.9073 13.9675 12.0953 13.5378 12.0953 12.9737C12.0953 12.7857 12.0684 12.5977 11.9878 12.4365C11.9341 12.2754 11.8535 12.1411 11.7998 12.0337C11.7193 11.9531 11.6387 11.8456 11.5581 11.7919C11.4507 11.7114 11.3969 11.6845 11.3432 11.6576C11.2895 11.6308 11.2626 11.6308 11.2358 11.6308L11.3164 11.6039C11.3701 11.5771 11.4238 11.5233 11.5044 11.4696C11.585 11.389 11.6387 11.3085 11.7193 11.2279C11.7998 11.1473 11.8535 11.013 11.9073 10.8519C11.961 10.6907 11.9878 10.5295 11.9878 10.3684C11.9878 9.85807 11.8267 9.48204 11.4775 9.18659C11.1284 8.89114 10.6717 8.75684 10.0808 8.75684C9.5168 8.75684 9.03334 8.89114 8.68417 9.18659C8.335 9.48204 8.14698 9.85807 8.14698 10.3684V10.4221H9.11391C9.11391 10.1535 9.19449 9.93865 9.35565 9.80435C9.5168 9.67006 9.75853 9.58948 10.054 9.58948C10.3763 9.58948 10.5912 9.67006 10.7523 9.80435C10.9135 9.93865 10.9941 10.1535 10.9941 10.3953C10.9941 10.6638 10.9135 10.8787 10.7523 11.0399C10.5912 11.201 10.3763 11.2816 10.1077 11.2816H9.11391V12.1411L10.1614 12.168L10.1346 12.0874ZM16.6076 14.639V13.7258H14.1903L15.587 12.356C15.963 11.9799 16.2316 11.6576 16.3659 11.3622C16.527 11.0399 16.5808 10.7444 16.5808 10.4221C16.5808 9.88493 16.4196 9.48204 16.0704 9.15973C15.7481 8.86428 15.2647 8.70312 14.6738 8.70312C14.0829 8.70312 13.5994 8.86428 13.2502 9.15973C12.9011 9.45518 12.713 9.88493 12.713 10.4221V10.4758H13.7068C13.7068 9.88493 14.0291 9.58948 14.6469 9.58948C15.2378 9.58948 15.5333 9.88493 15.5333 10.449C15.5333 10.6638 15.4795 10.8787 15.3721 11.0936C15.2647 11.3085 15.1035 11.5233 14.8618 11.7651L12.8205 13.7526V14.6659H16.5808L16.6076 14.639Z" fill="#FDC600"/>
<path d="M9.49024 19.608V15.2031H8.73818V18.5605L6.99234 15.2031H5.91797V19.608H6.67003V16.2506L8.44273 19.608H9.5171H9.49024ZM10.8869 19.2051C10.8869 19.0977 10.8601 19.0171 10.7795 18.9365C10.6989 18.8828 10.5915 18.856 10.484 18.856C10.3766 18.856 10.2692 18.8828 10.1886 18.9365C10.108 18.9903 10.0811 19.0708 10.0811 19.2051V19.3394C10.0811 19.4469 10.1349 19.5275 10.1886 19.608C10.2692 19.6617 10.3766 19.6886 10.484 19.6886C10.6183 19.6886 10.6989 19.6617 10.7795 19.608C10.8601 19.5543 10.8869 19.4737 10.8869 19.3394V19.2051ZM14.0563 18.4262H13.358C13.358 18.8291 13.1431 19.044 12.6865 19.044C12.2567 19.044 12.0419 18.8291 12.0419 18.3725V17.7279C12.0419 17.2713 12.2567 17.0564 12.6865 17.0564C13.1162 17.0564 13.358 17.2713 13.358 17.6742H14.0563V17.6205C14.0563 17.2444 13.9489 16.949 13.6803 16.7341C13.4385 16.5192 13.1162 16.4118 12.6865 16.4118C12.2836 16.4118 11.9613 16.5192 11.7195 16.7341C11.4778 16.949 11.3435 17.2444 11.3435 17.6473V18.4262C11.3435 18.8023 11.4778 19.0977 11.7195 19.3126C11.9613 19.5275 12.2836 19.6349 12.6865 19.6349C13.0894 19.6349 13.4385 19.5275 13.6803 19.3394C13.922 19.1246 14.0563 18.8291 14.0563 18.4531V18.3994V18.4262ZM18.8909 19.608V17.4056C18.8909 17.1101 18.8104 16.8684 18.6492 16.7072C18.4881 16.5461 18.2732 16.4655 18.0046 16.4655C17.7629 16.4655 17.5211 16.5461 17.2794 16.6804L16.9302 16.8953C16.7959 16.6267 16.5542 16.4655 16.1782 16.4655C15.9633 16.4655 15.7216 16.5192 15.5336 16.6535L15.265 16.8147V16.4924H14.5666V19.608H15.2918V17.4593L15.6678 17.2176C15.829 17.137 15.9364 17.1101 16.0439 17.1101C16.2587 17.1101 16.3662 17.2444 16.3662 17.4862V19.608H17.0914V17.4593L17.4674 17.2176C17.6286 17.137 17.736 17.0833 17.8434 17.0833C18.0583 17.0833 18.1658 17.2176 18.1658 17.4593V19.5812H18.8909V19.608Z" fill="#FDC600"/>
<path d="M21.094 11.2818C24.0754 11.2818 26.4927 8.86444 26.4927 5.88307C26.4927 2.9017 24.0754 0.484375 21.094 0.484375C18.1126 0.484375 15.6953 2.9017 15.6953 5.88307C15.6953 8.86444 18.1126 11.2818 21.094 11.2818Z" fill="#FDC600"/>
<path d="M21.094 11.2818C24.0754 11.2818 26.4927 8.86443 26.4927 5.88307C26.4927 2.9017 24.0754 0.484375 21.094 0.484375C18.1126 0.484375 15.6953 2.9017 15.6953 5.88307C15.6953 8.86443 18.1126 11.2818 21.094 11.2818Z" stroke="white" stroke-width="1.08511"/>
<path d="M23.0274 8.97442V8.38352H21.7113V3.22656H21.0398C20.6369 3.60259 20.234 3.87118 19.8311 3.97862V4.59638C20.2609 4.5158 20.6906 4.30093 21.0666 3.9249V8.38352H19.4014V8.97442H23.0542H23.0274Z" fill="#FEFEFE"/>
</svg>
