<svg width="17" height="17" viewBox="0 0 17 17" fill="none" xmlns="http://www.w3.org/2000/svg">
<path d="M8.67843 16.4545C13.0731 16.4545 16.5463 12.9104 16.5463 8.58663C16.5463 4.19196 13.0022 0.71875 8.67843 0.71875C4.28376 0.71875 0.810547 4.26284 0.810547 8.58663C0.810547 12.9813 4.35464 16.4545 8.67843 16.4545Z" fill="#FDC600"/>
<path d="M8.82022 9.15476C9.31639 9.15476 9.74168 9.29652 10.0252 9.58005C10.3087 9.86358 10.4505 10.218 10.4505 10.7142C10.4505 11.2103 10.3087 11.6356 9.95432 11.9192C9.59992 12.2027 9.24551 12.3444 8.67845 12.3444C8.1114 12.3444 7.68611 12.2027 7.3317 11.99C7.04817 11.7065 6.83553 11.3521 6.83553 10.8559H5.91406V10.9268C5.91406 11.6356 6.19759 12.2027 6.69376 12.5571C7.18993 12.9824 7.82787 13.1241 8.67845 13.1241C9.38727 13.1241 10.0252 12.9115 10.5923 12.4862C11.1593 12.0609 11.372 11.423 11.372 10.6433C11.372 10.3598 11.3011 10.0762 11.2302 9.86358C11.1593 9.65093 11.0176 9.43829 10.9467 9.29652C10.8049 9.15476 10.6631 9.013 10.5214 8.94212C10.3796 8.87123 10.3087 8.80035 10.2379 8.72947C10.167 8.72947 10.167 8.65859 10.0961 8.65859L10.2379 8.58771C10.3087 8.58771 10.4505 8.51682 10.5214 8.37506C10.6631 8.30418 10.734 8.16242 10.8758 8.02065C11.0176 7.87889 11.0884 7.73712 11.1593 7.4536C11.2302 7.24095 11.3011 6.95743 11.3011 6.74478C11.3011 6.10684 11.0884 5.53979 10.5923 5.1145C10.0961 4.68921 9.52903 4.47656 8.67845 4.47656C7.89875 4.47656 7.3317 4.68921 6.83553 5.04362C6.33935 5.39803 6.12671 5.96508 6.12671 6.60302V6.6739H7.04817C7.04817 6.24861 7.18993 5.8942 7.47346 5.68155C7.75699 5.46891 8.18228 5.32714 8.67845 5.32714C9.24551 5.32714 9.59992 5.46891 9.88344 5.68155C10.167 5.96508 10.3087 6.24861 10.3087 6.6739C10.3087 7.17007 10.167 7.52448 9.88344 7.80801C9.59992 8.09153 9.24551 8.2333 8.74933 8.2333H7.47346V9.08388H8.82022V9.15476Z" fill="#FEFEFE"/>
</svg>
