<svg width="17" height="17" viewBox="0 0 17 17" fill="none" xmlns="http://www.w3.org/2000/svg">
<path d="M8.67843 16.3217C13.0731 16.3217 16.5463 12.7776 16.5463 8.45382C16.5463 4.05915 13.0022 0.585938 8.67843 0.585938C4.28376 0.585938 0.810547 4.13003 0.810547 8.45382C0.810547 12.8485 4.35464 16.3217 8.67843 16.3217Z" fill="#FDC600"/>
<path d="M8.82022 9.02195C9.31639 9.02195 9.74168 9.16371 10.0252 9.44724C10.3087 9.73077 10.4505 10.0852 10.4505 10.5813C10.4505 11.0775 10.3087 11.5028 9.95432 11.7863C9.59992 12.0699 9.24551 12.2116 8.67845 12.2116C8.1114 12.2116 7.68611 12.0699 7.3317 11.8572C7.04817 11.5737 6.83553 11.2193 6.83553 10.7231H5.91406V10.794C5.91406 11.5028 6.19759 12.0699 6.69376 12.4243C7.18993 12.8496 7.82787 12.9913 8.67845 12.9913C9.38727 12.9913 10.0252 12.7787 10.5923 12.3534C11.1593 11.9281 11.372 11.2902 11.372 10.5105C11.372 10.2269 11.3011 9.94341 11.2302 9.73077C11.1593 9.51812 11.0176 9.30548 10.9467 9.16371C10.8049 9.02195 10.6631 8.88018 10.5214 8.8093C10.3796 8.73842 10.3087 8.66754 10.2379 8.59666C10.167 8.59666 10.167 8.52578 10.0961 8.52578L10.2379 8.45489C10.3087 8.45489 10.4505 8.38401 10.5214 8.24225C10.6631 8.17137 10.734 8.0296 10.8758 7.88784C11.0176 7.74608 11.0884 7.60431 11.1593 7.32079C11.2302 7.10814 11.3011 6.82461 11.3011 6.61197C11.3011 5.97403 11.0884 5.40698 10.5923 4.98169C10.0961 4.5564 9.52903 4.34375 8.67845 4.34375C7.89875 4.34375 7.3317 4.5564 6.83553 4.9108C6.33935 5.26521 6.12671 5.83227 6.12671 6.4702V6.54109H7.04817C7.04817 6.11579 7.18993 5.76139 7.47346 5.54874C7.75699 5.33609 8.18228 5.19433 8.67845 5.19433C9.24551 5.19433 9.59992 5.33609 9.88344 5.54874C10.167 5.83227 10.3087 6.11579 10.3087 6.54109C10.3087 7.03726 10.167 7.39167 9.88344 7.67519C9.59992 7.95872 9.24551 8.10049 8.74933 8.10049H7.47346V8.95107H8.82022V9.02195Z" fill="#FEFEFE"/>
</svg>
