<svg width="17" height="17" viewBox="0 0 17 17" fill="none" xmlns="http://www.w3.org/2000/svg">
<path d="M8.37374 16.5951C12.7684 16.5951 16.2416 13.051 16.2416 8.72725C16.2416 4.33258 12.6975 0.859375 8.37374 0.859375C3.97907 0.859375 0.505859 4.40347 0.505859 8.72725C0.505859 13.1219 4.04995 16.5951 8.37374 16.5951Z" fill="#FDC600"/>
<path d="M8.51553 9.29539C9.0117 9.29539 9.43699 9.43715 9.72052 9.72068C10.004 10.0042 10.1458 10.3586 10.1458 10.8548C10.1458 11.351 10.004 11.7762 9.64964 12.0598C9.29523 12.3433 8.94082 12.4851 8.37376 12.4851C7.80671 12.4851 7.38142 12.3433 7.02701 12.1307C6.74348 11.8471 6.53084 11.4927 6.53084 10.9965H5.60938V11.0674C5.60938 11.7762 5.8929 12.3433 6.38907 12.6977C6.88525 13.123 7.52318 13.2648 8.37376 13.2648C9.08258 13.2648 9.72052 13.0521 10.2876 12.6268C10.8546 12.2015 11.0673 11.5636 11.0673 10.7839C11.0673 10.5004 10.9964 10.2168 10.9255 10.0042C10.8546 9.79156 10.7129 9.57891 10.642 9.43715C10.5002 9.29539 10.3585 9.15362 10.2167 9.08274C10.0749 9.01186 10.004 8.94098 9.93316 8.87009C9.86228 8.87009 9.86228 8.79921 9.7914 8.79921L9.93316 8.72833C10.004 8.72833 10.1458 8.65745 10.2167 8.51569C10.3585 8.4448 10.4293 8.30304 10.5711 8.16128C10.7129 8.01951 10.7837 7.87775 10.8546 7.59422C10.9255 7.38158 10.9964 7.09805 10.9964 6.8854C10.9964 6.24747 10.7837 5.68041 10.2876 5.25512C9.7914 4.82983 9.22435 4.61719 8.37376 4.61719C7.59407 4.61719 7.02701 4.82983 6.53084 5.18424C6.03467 5.53865 5.82202 6.1057 5.82202 6.74364V6.81452H6.74348C6.74348 6.38923 6.88525 6.03482 7.16877 5.82218C7.4523 5.60953 7.87759 5.46777 8.37376 5.46777C8.94082 5.46777 9.29523 5.60953 9.57876 5.82218C9.86228 6.1057 10.004 6.38923 10.004 6.81452C10.004 7.3107 9.86228 7.6651 9.57876 7.94863C9.29523 8.23216 8.94082 8.37392 8.44465 8.37392H7.16877V9.2245H8.51553V9.29539Z" fill="#FEFEFE"/>
</svg>
