<svg width="17" height="17" viewBox="0 0 17 17" fill="none" xmlns="http://www.w3.org/2000/svg">
<path d="M8.17843 16.3217C12.5731 16.3217 16.0463 12.7776 16.0463 8.45382C16.0463 4.05915 12.5022 0.585938 8.17843 0.585938C3.78376 0.585938 0.310547 4.13003 0.310547 8.45382C0.310547 12.8485 3.85464 16.3217 8.17843 16.3217Z" fill="#FDC600"/>
<path d="M8.32022 9.02195C8.81639 9.02195 9.24168 9.16371 9.52521 9.44724C9.80873 9.73077 9.9505 10.0852 9.9505 10.5813C9.9505 11.0775 9.80873 11.5028 9.45432 11.7863C9.09992 12.0699 8.74551 12.2116 8.17845 12.2116C7.6114 12.2116 7.18611 12.0699 6.8317 11.8572C6.54817 11.5737 6.33553 11.2193 6.33553 10.7231H5.41406V10.794C5.41406 11.5028 5.69759 12.0699 6.19376 12.4243C6.68993 12.8496 7.32787 12.9913 8.17845 12.9913C8.88727 12.9913 9.52521 12.7787 10.0923 12.3534C10.6593 11.9281 10.872 11.2902 10.872 10.5105C10.872 10.2269 10.8011 9.94341 10.7302 9.73077C10.6593 9.51812 10.5176 9.30548 10.4467 9.16371C10.3049 9.02195 10.1631 8.88018 10.0214 8.8093C9.87962 8.73842 9.80873 8.66754 9.73785 8.59666C9.66697 8.59666 9.66697 8.52578 9.59609 8.52578L9.73785 8.45489C9.80873 8.45489 9.9505 8.38401 10.0214 8.24225C10.1631 8.17137 10.234 8.0296 10.3758 7.88784C10.5176 7.74608 10.5884 7.60431 10.6593 7.32079C10.7302 7.10814 10.8011 6.82461 10.8011 6.61197C10.8011 5.97403 10.5884 5.40698 10.0923 4.98169C9.59609 4.5564 9.02903 4.34375 8.17845 4.34375C7.39875 4.34375 6.8317 4.5564 6.33553 4.9108C5.83935 5.26521 5.62671 5.83227 5.62671 6.4702V6.54109H6.54817C6.54817 6.11579 6.68993 5.76139 6.97346 5.54874C7.25699 5.33609 7.68228 5.19433 8.17845 5.19433C8.74551 5.19433 9.09992 5.33609 9.38344 5.54874C9.66697 5.83227 9.80873 6.11579 9.80873 6.54109C9.80873 7.03726 9.66697 7.39167 9.38344 7.67519C9.09992 7.95872 8.74551 8.10049 8.24933 8.10049H6.97346V8.95107H8.32022V9.02195Z" fill="#FEFEFE"/>
</svg>
