<svg width="28" height="30" viewBox="0 0 28 30" fill="none" xmlns="http://www.w3.org/2000/svg">
<path d="M25.0481 26.1404C24.8445 25.448 24.539 24.6741 24.1928 23.8798C23.8466 23.106 23.4393 22.3117 22.9912 21.5174C22.9301 21.6193 22.869 21.7211 22.8079 21.8229C22.7468 21.9247 22.6857 22.0266 22.6043 22.1284C22.5432 22.2302 22.4617 22.3321 22.4006 22.4135C22.3191 22.5153 22.258 22.5968 22.1766 22.6986C22.1766 22.6986 22.1766 22.719 22.1562 22.719C22.1562 22.719 22.1562 22.7394 22.1359 22.7394L22.1155 22.7597L22.0951 22.7801L22.034 22.8616C22.0951 23.0449 22.1766 23.2485 22.258 23.4929C22.3395 23.7169 22.4413 23.9817 22.5228 24.2057C22.6043 24.4501 22.6654 24.6741 22.6857 24.837C22.7061 25.0203 22.7061 25.1629 22.645 25.224C22.6246 25.2443 22.6043 25.2647 22.5635 25.2851C22.5432 25.3054 22.5024 25.3054 22.4821 25.3258C22.4413 25.3258 22.421 25.3462 22.3802 25.3462C22.3395 25.3462 22.2988 25.3462 22.258 25.3462C22.197 25.3462 22.1155 25.3258 22.0544 25.3258C21.9729 25.3054 21.8915 25.2851 21.81 25.2647C21.7285 25.2443 21.6471 25.2036 21.5453 25.1629C21.4638 25.1221 21.362 25.0814 21.2601 25.0407C21.1379 24.9796 21.0157 24.9185 20.8732 24.8574C20.751 24.7963 20.6084 24.7148 20.4659 24.6334C20.3233 24.5519 20.1808 24.4704 20.0382 24.389C19.8956 24.3075 19.7531 24.2057 19.5902 24.1242C20.1808 23.5336 20.7306 22.9023 21.2398 22.2302C21.7489 21.5582 22.2173 20.8454 22.6246 20.1122C23.0319 19.3791 23.3782 18.6052 23.6836 17.8313C23.9688 17.037 24.2131 16.2428 24.3761 15.4281C24.7426 13.5952 24.7223 11.8642 24.3761 10.3164C24.0502 8.80932 23.3985 7.46519 22.5228 6.38582C21.6471 5.32681 20.5473 4.49182 19.2643 3.98268C18.0016 3.47354 16.5557 3.22916 14.9875 3.35135C13.9489 3.41245 12.9306 3.63647 11.9531 3.96232C10.9755 4.28817 10.0183 4.73621 9.10189 5.28608C8.18544 5.83595 7.33008 6.46728 6.51546 7.20044C5.70084 7.9336 4.96768 8.72786 4.29561 9.60358C4.11232 9.25736 3.96977 8.95188 3.84757 8.66676C3.72538 8.38165 3.64392 8.11689 3.58282 7.89287C3.52172 7.66885 3.50136 7.46519 3.52172 7.30227C3.54209 7.13935 3.58282 6.99679 3.68465 6.89496C3.70501 6.85423 3.74574 6.83386 3.80684 6.79313C3.84757 6.77277 3.90867 6.73203 3.96977 6.71167C4.03086 6.6913 4.09196 6.67094 4.17342 6.65057C4.25488 6.63021 4.33635 6.63021 4.41781 6.60984C4.49927 6.60984 4.6011 6.60984 4.70293 6.60984C4.80475 6.63021 4.90658 6.65057 5.00841 6.6913C5.11024 6.73203 5.21207 6.77277 5.31389 6.83386C5.41572 6.89496 5.51755 6.97642 5.61938 7.07825C5.7212 6.95606 5.82303 6.83386 5.92486 6.73203C6.02669 6.60984 6.14888 6.50801 6.25071 6.40619C6.3729 6.30436 6.47473 6.20253 6.61729 6.1007C6.73948 5.99887 6.86168 5.91741 7.00424 5.81558C7.0246 5.81558 7.0246 5.79522 7.04497 5.79522C7.06533 5.79522 7.06533 5.77485 7.0857 5.77485C7.0857 5.77485 7.10606 5.75449 7.12643 5.75449C7.12643 5.75449 7.14679 5.73412 7.16716 5.73412C6.94314 5.53047 6.67839 5.34718 6.41363 5.20462C6.14888 5.06206 5.88413 4.96023 5.61938 4.87877C5.35462 4.79731 5.06951 4.73621 4.80475 4.71584C4.54 4.69548 4.27525 4.67511 4.03086 4.69548C3.86794 4.71584 3.68465 4.73621 3.54209 4.75657C3.37916 4.7973 3.2366 4.83804 3.11441 4.87877C2.99222 4.9195 2.87002 4.9806 2.7682 5.04169C2.66637 5.10279 2.58491 5.16388 2.50344 5.24535C2.29979 5.46937 2.1776 5.75449 2.1165 6.12107C2.0554 6.46728 2.07577 6.89496 2.1776 7.36337C2.25906 7.83178 2.42198 8.36128 2.646 8.93152C2.87002 9.50175 3.15514 10.1127 3.50136 10.7848C3.25697 11.1514 3.03295 11.5383 2.82929 11.9253C2.62564 12.3122 2.42198 12.6991 2.23869 13.1065C2.0554 13.5138 1.89248 13.9211 1.74992 14.3488C1.60736 14.7764 1.4648 15.2041 1.36297 15.6318C0.935296 17.2814 0.792737 18.8699 0.935296 20.3362C1.07785 21.8229 1.50553 23.1874 2.1776 24.3686C2.87002 25.5702 3.80684 26.5681 4.96768 27.3013C6.14888 28.0548 7.57447 28.5028 9.18335 28.6047C9.65176 28.625 10.1405 28.625 10.6293 28.5843C11.1181 28.5436 11.6069 28.4825 12.0753 28.3806C12.564 28.2788 13.0528 28.1566 13.5212 27.9937C14.01 27.8308 14.4784 27.6475 14.9468 27.4235L13.8063 25.2647C13.4805 25.4073 13.1343 25.5091 12.8084 25.6109C12.4622 25.7127 12.1364 25.7942 11.7901 25.8553C11.4439 25.9164 11.1181 25.9571 10.7719 25.9775C10.4257 25.9979 10.0998 25.9979 9.75359 25.9979C8.45019 25.9368 7.30972 25.5906 6.35254 25C5.39536 24.4297 4.62146 23.6355 4.07159 22.6783C3.50136 21.7415 3.15514 20.6214 3.03295 19.4198C2.91076 18.2386 2.99222 16.9352 3.33843 15.5911C3.68465 14.2469 4.23452 12.9843 4.96768 11.8234C5.68047 10.6626 6.57656 9.62394 7.55411 8.72786C8.55202 7.83177 9.65176 7.09861 10.833 6.56911C12.0142 6.0396 13.2565 5.69339 14.4988 5.63229C15.7614 5.55083 16.9223 5.75449 17.9405 6.20253C18.9792 6.65057 19.8549 7.32264 20.5473 8.19836C21.2398 9.07407 21.7489 10.1535 21.9933 11.3754C22.2377 12.6177 22.2377 14.0025 21.9526 15.4689C21.8304 16.1206 21.6267 16.7519 21.4027 17.3629C21.1787 17.9738 20.8936 18.5848 20.5677 19.155C20.2419 19.7253 19.8956 20.2955 19.4883 20.825C19.1014 21.3545 18.6533 21.8433 18.2053 22.3117C18.2053 22.1488 18.2257 21.9858 18.2257 21.8433C18.2257 21.6804 18.246 21.5174 18.246 21.3749C18.246 21.2323 18.2664 21.0898 18.2664 20.9676C18.2664 20.8454 18.2664 20.7639 18.2664 20.6824C18.2664 20.6214 18.2664 20.5603 18.246 20.5195C18.2257 20.4788 18.2257 20.4584 18.2053 20.4177C18.1849 20.3973 18.1646 20.377 18.1442 20.377C18.1238 20.377 18.1035 20.3566 18.0627 20.3566C18.0424 20.3566 18.022 20.3566 18.0016 20.3566C17.9813 20.3566 17.9609 20.3566 17.9405 20.377C17.9202 20.377 17.9202 20.3973 17.8998 20.3973H17.8794L13.8878 21.7007C13.8878 21.7007 13.8471 21.7211 13.8063 21.7415C13.7656 21.7618 13.7045 21.8026 13.6638 21.8433C13.623 21.884 13.5823 21.9655 13.5823 22.0469C13.5823 22.1284 13.6027 22.2506 13.6638 22.3728C13.6638 22.3728 13.6638 22.3932 13.6841 22.3932C13.6841 22.3932 13.6841 22.4135 13.7045 22.4135C13.7045 22.4135 13.7045 22.4339 13.7249 22.4339C13.7249 22.4339 13.7249 22.4543 13.7452 22.4543C13.9285 22.8208 14.1729 23.3096 14.4784 23.8595C14.7635 24.4093 15.1097 25.0407 15.4356 25.6516C15.7614 26.2626 16.0873 26.8736 16.3724 27.4031C16.6575 27.9326 16.9019 28.3603 17.0445 28.6454C17.0648 28.6658 17.0648 28.6861 17.0852 28.7065C17.1056 28.7268 17.1056 28.7472 17.1259 28.7676C17.1259 28.7879 17.1463 28.8083 17.1463 28.8287C17.1463 28.849 17.1667 28.849 17.1667 28.8694C17.2074 28.9305 17.2481 28.9916 17.2685 29.0527C17.3092 29.0934 17.3296 29.1342 17.3703 29.1749C17.411 29.1953 17.4314 29.236 17.4721 29.236C17.4925 29.2564 17.5332 29.2564 17.5536 29.2564C17.5943 29.2564 17.6554 29.236 17.6962 29.2156C17.7369 29.1953 17.7776 29.1545 17.798 29.0934C17.8184 29.0527 17.8591 28.9916 17.8591 28.9509C17.8794 28.9101 17.8795 28.849 17.8998 28.8287C17.8998 28.8083 17.8998 28.8083 17.8998 28.7879C17.8998 28.7676 17.8998 28.7472 17.8998 28.7268C17.8998 28.7065 17.8998 28.6658 17.8998 28.6454C17.8998 28.6047 17.8998 28.5843 17.8998 28.5436C17.8998 28.401 17.9202 28.2584 17.9202 28.0955C17.9202 27.9326 17.9405 27.7697 17.9405 27.6067C17.9405 27.4438 17.9609 27.3216 17.9609 27.2198C17.9609 27.118 17.9609 27.0569 17.9609 27.0365C18.5108 27.3624 19.0607 27.6882 19.5902 27.9733C20.14 28.2788 20.6695 28.5436 21.1787 28.7879C21.6878 29.0323 22.1766 29.236 22.6246 29.3785C23.0727 29.5211 23.5003 29.6229 23.8669 29.6433C23.9077 29.6433 23.9688 29.6433 24.0095 29.6433C24.0502 29.6433 24.1113 29.6433 24.152 29.6433C24.1928 29.6433 24.2335 29.6433 24.2946 29.6229C24.3353 29.6229 24.3761 29.6026 24.4168 29.6026C24.4779 29.5822 24.539 29.5822 24.6001 29.5618C24.6612 29.5415 24.7223 29.5211 24.763 29.5007C24.8241 29.4804 24.8648 29.4396 24.9056 29.4193C24.9463 29.3785 24.987 29.3378 25.0278 29.2971C25.2925 29.0323 25.3943 28.6047 25.3943 28.0548C25.3943 27.5253 25.2722 26.8736 25.0481 26.1812V26.1404Z" fill="#FDC600"/>
<path d="M12.6056 15.1708V14.234H11.2819V9.10183H10.3043C9.897 9.48877 9.44896 9.75353 8.96019 9.87572V10.8329C9.20458 10.7922 9.4286 10.7107 9.67298 10.5885C9.91737 10.4663 10.1007 10.3441 10.2432 10.2016V14.2136H8.57324V15.1504H12.6056V15.1708ZM17.5545 10.8533C17.5545 10.3034 17.3712 9.85535 16.9842 9.50914C16.5973 9.18329 16.1085 9 15.4975 9C14.8866 9 14.3774 9.16292 14.0108 9.48877C13.6239 9.81462 13.4406 10.2627 13.4406 10.8125V13.399C13.4406 13.9488 13.6239 14.3969 14.0108 14.7227C14.3978 15.0486 14.8866 15.2115 15.4975 15.2115C16.1085 15.2115 16.5973 15.0486 16.9842 14.7024C17.3712 14.3765 17.5545 13.9285 17.5545 13.3582V10.8125V10.8533ZM16.5158 13.3175C16.5158 13.6433 16.4344 13.8877 16.2511 14.071C16.0678 14.2543 15.8234 14.3358 15.5179 14.3358C15.1921 14.3358 14.9477 14.2543 14.7847 14.071C14.6015 13.8877 14.52 13.6433 14.52 13.3175V10.894C14.52 10.5681 14.6015 10.3238 14.7847 10.1405C14.968 9.95718 15.2124 9.87572 15.5383 9.87572C15.8641 9.87572 16.1085 9.95718 16.2918 10.1405C16.4751 10.3238 16.5565 10.5681 16.5565 10.894L16.5362 13.3175H16.5158Z" fill="#FDC600"/>
<path d="M9.77406 20.2572V15.6953H9.00017V19.1575L7.208 15.6953H6.08789V20.2572H6.86178V16.7951L8.67432 20.2572H9.77406ZM11.3626 19.8295C11.3626 19.7073 11.3218 19.6259 11.2404 19.5648C11.1589 19.5037 11.0571 19.4833 10.9349 19.4833C10.8127 19.4833 10.7109 19.524 10.6294 19.5648C10.548 19.6259 10.5072 19.7073 10.5072 19.8295V19.9517C10.5072 20.0739 10.548 20.1554 10.6294 20.2165C10.7109 20.2776 10.8127 20.3183 10.9349 20.3183C11.0571 20.3183 11.1589 20.2776 11.2404 20.2165C11.3218 20.1554 11.3626 20.0739 11.3626 19.9517L11.3422 19.8295H11.3626ZM14.784 19.0353H14.0712C14.0712 19.4629 13.8472 19.687 13.3991 19.687C12.9511 19.687 12.7271 19.4629 12.7271 18.9945V18.3225C12.7271 17.8744 12.9511 17.63 13.3991 17.63C13.8472 17.63 14.0712 17.8541 14.0712 18.2817H14.784V18.2206C14.784 17.8337 14.6618 17.5282 14.4174 17.3042C14.173 17.1005 13.8268 16.9783 13.3991 16.9783C12.9715 16.9783 12.6456 17.0802 12.3809 17.3246C12.1365 17.5486 11.9939 17.8744 11.9939 18.2614V19.0556C11.9939 19.4426 12.1161 19.7684 12.3809 19.9721C12.6252 20.1961 12.9715 20.2979 13.3991 20.2979C13.8268 20.2979 14.173 20.1961 14.4174 19.9721C14.6618 19.7481 14.8044 19.4426 14.8044 19.0556L14.784 19.0149V19.0353ZM19.9161 20.2572V17.9763C19.9161 17.6708 19.8347 17.4264 19.6717 17.2431C19.5088 17.0802 19.2848 16.9783 19.02 16.9783C18.7553 16.9783 18.5109 17.0598 18.2869 17.2024L17.9407 17.4264C17.7981 17.1413 17.5537 16.9987 17.1668 16.9987C16.9427 16.9987 16.6984 17.0598 16.4947 17.2024L16.2096 17.3653V17.0191H15.4764V20.2368H16.2096V18.017L16.5965 17.7726C16.7594 17.6911 16.8816 17.6504 16.9835 17.6504C17.2075 17.6504 17.3297 17.793 17.3297 18.0577V20.2368H18.0628V18.017L18.4498 17.7726C18.6127 17.6911 18.7349 17.6504 18.8367 17.6504C19.0608 17.6504 19.183 17.793 19.183 18.0374V20.2368H19.9365L19.9161 20.2572Z" fill="#FDC600"/>
<path d="M21.9933 11.6838C25.0685 11.6838 27.5734 9.19917 27.5734 6.1036C27.5734 3.0284 25.0888 0.523438 21.9933 0.523438C18.9181 0.523438 16.4131 3.00804 16.4131 6.1036C16.4131 9.1788 18.8977 11.6838 21.9933 11.6838Z" fill="#FDC600"/>
<path d="M21.9933 11.6838C25.0685 11.6838 27.5734 9.19917 27.5734 6.1036C27.5734 3.0284 25.0888 0.523438 21.9933 0.523438C18.9181 0.523438 16.4131 3.00804 16.4131 6.1036C16.4131 9.1788 18.8977 11.6838 21.9933 11.6838Z" stroke="white" stroke-width="1.1812"/>
<path d="M23.9695 9.28128V8.62958H21.2405L22.9716 6.87814C23.3382 6.51156 23.6029 6.16535 23.7455 5.85986C23.8881 5.55438 23.9695 5.2489 23.9695 4.92305C23.9695 4.41391 23.827 4.0066 23.5011 3.72148C23.1956 3.416 22.7476 3.27344 22.157 3.27344C21.6071 3.27344 21.1591 3.416 20.8129 3.70111C20.4666 3.98623 20.3037 4.37318 20.3037 4.86195V4.92305H20.9758C20.9758 4.57683 21.0776 4.33245 21.2813 4.16952C21.4849 4.0066 21.77 3.90477 22.1366 3.90477C22.5236 3.90477 22.8087 3.98623 22.992 4.16952C23.1753 4.35281 23.2771 4.5972 23.2771 4.92305C23.2771 5.1878 23.216 5.43219 23.0938 5.65621C22.9716 5.88023 22.7679 6.14498 22.5032 6.45047L20.4055 8.60922V9.26092H23.9491L23.9695 9.28128Z" fill="#FEFEFE"/>
</svg>
