<svg width="28" height="30" viewBox="0 0 28 30" fill="none" xmlns="http://www.w3.org/2000/svg">
<path d="M24.5481 26.1795C24.3445 25.4871 24.039 24.7132 23.6928 23.9189C23.3466 23.145 22.9393 22.3508 22.4912 21.5565C22.4301 21.6583 22.369 21.7602 22.3079 21.862C22.2468 21.9638 22.1857 22.0656 22.1043 22.1675C22.0432 22.2693 21.9617 22.3711 21.9006 22.4526C21.8191 22.5544 21.758 22.6359 21.6766 22.7377C21.6766 22.7377 21.6766 22.7581 21.6562 22.7581C21.6562 22.7581 21.6562 22.7784 21.6359 22.7784L21.6155 22.7988L21.5951 22.8192L21.534 22.9006C21.5951 23.0839 21.6766 23.2876 21.758 23.532C21.8395 23.756 21.9413 24.0207 22.0228 24.2448C22.1043 24.4891 22.1654 24.7132 22.1857 24.8761C22.2061 25.0594 22.2061 25.2019 22.145 25.263C22.1246 25.2834 22.1043 25.3038 22.0635 25.3241C22.0432 25.3445 22.0024 25.3445 21.9821 25.3649C21.9413 25.3649 21.921 25.3852 21.8802 25.3852C21.8395 25.3852 21.7988 25.3852 21.758 25.3852C21.697 25.3852 21.6155 25.3649 21.5544 25.3649C21.4729 25.3445 21.3915 25.3241 21.31 25.3038C21.2285 25.2834 21.1471 25.2427 21.0453 25.2019C20.9638 25.1612 20.862 25.1205 20.7601 25.0797C20.6379 25.0186 20.5157 24.9575 20.3732 24.8965C20.251 24.8354 20.1084 24.7539 19.9659 24.6724C19.8233 24.591 19.6808 24.5095 19.5382 24.428C19.3956 24.3466 19.2531 24.2448 19.0902 24.1633C19.6808 23.5727 20.2306 22.9414 20.7398 22.2693C21.2489 21.5972 21.7173 20.8844 22.1246 20.1513C22.5319 19.4181 22.8782 18.6442 23.1836 17.8703C23.4688 17.0761 23.7131 16.2818 23.8761 15.4672C24.2426 13.6343 24.2223 11.9032 23.8761 10.3554C23.5502 8.84838 22.8985 7.50426 22.0228 6.42488C21.1471 5.36587 20.0473 4.53088 18.7643 4.02174C17.5016 3.51261 16.0557 3.26822 14.4875 3.39041C13.4489 3.45151 12.4306 3.67553 11.4531 4.00138C10.4755 4.32723 9.51834 4.77527 8.60189 5.32514C7.68544 5.87501 6.83008 6.50634 6.01546 7.2395C5.20084 7.97267 4.46768 8.76692 3.79561 9.64264C3.61232 9.29643 3.46977 8.99094 3.34757 8.70583C3.22538 8.42071 3.14392 8.15596 3.08282 7.93193C3.02172 7.70791 3.00136 7.50426 3.02172 7.34133C3.04209 7.17841 3.08282 7.03585 3.18465 6.93402C3.20501 6.89329 3.24574 6.87292 3.30684 6.83219C3.34757 6.81183 3.40867 6.7711 3.46977 6.75073C3.53086 6.73037 3.59196 6.71 3.67342 6.68963C3.75488 6.66927 3.83635 6.66927 3.91781 6.6489C3.99927 6.6489 4.1011 6.6489 4.20293 6.6489C4.30475 6.66927 4.40658 6.68963 4.50841 6.73037C4.61024 6.7711 4.71207 6.81183 4.81389 6.87292C4.91572 6.93402 5.01755 7.01548 5.11938 7.11731C5.2212 6.99512 5.32303 6.87292 5.42486 6.7711C5.52669 6.6489 5.64888 6.54708 5.75071 6.44525C5.8729 6.34342 5.97473 6.24159 6.11729 6.13976C6.23948 6.03794 6.36168 5.95647 6.50424 5.85465C6.5246 5.85465 6.5246 5.83428 6.54497 5.83428C6.56533 5.83428 6.56533 5.81391 6.5857 5.81391C6.5857 5.81391 6.60606 5.79355 6.62643 5.79355C6.62643 5.79355 6.64679 5.77318 6.66716 5.77318C6.44314 5.56953 6.17839 5.38624 5.91363 5.24368C5.64888 5.10112 5.38413 4.99929 5.11938 4.91783C4.85462 4.83637 4.56951 4.77527 4.30475 4.7549C4.04 4.73454 3.77525 4.71417 3.53086 4.73454C3.36794 4.7549 3.18465 4.77527 3.04209 4.79564C2.87916 4.83637 2.7366 4.8771 2.61441 4.91783C2.49222 4.95856 2.37002 5.01966 2.2682 5.08075C2.16637 5.14185 2.08491 5.20295 2.00344 5.28441C1.79979 5.50843 1.6776 5.79355 1.6165 6.16013C1.5554 6.50634 1.57577 6.93402 1.6776 7.40243C1.75906 7.87084 1.92198 8.40034 2.146 8.97058C2.37002 9.54081 2.65514 10.1518 3.00136 10.8238C2.75697 11.1904 2.53295 11.5774 2.32929 11.9643C2.12564 12.3513 1.92198 12.7382 1.73869 13.1455C1.5554 13.5528 1.39248 13.9601 1.24992 14.3878C1.10736 14.8155 0.9648 15.2432 0.862973 15.6709C0.435296 17.3205 0.292737 18.909 0.435296 20.3753C0.577855 21.862 1.00553 23.2265 1.6776 24.4077C2.37002 25.6092 3.30684 26.6072 4.46768 27.3403C5.64888 28.0938 7.07447 28.5419 8.68335 28.6437C9.15176 28.6641 9.64053 28.6641 10.1293 28.6234C10.6181 28.5826 11.1069 28.5215 11.5753 28.4197C12.064 28.3179 12.5528 28.1957 13.0212 28.0328C13.51 27.8698 13.9784 27.6865 14.4468 27.4625L13.3063 25.3038C12.9805 25.4463 12.6343 25.5482 12.3084 25.65C11.9622 25.7518 11.6364 25.8333 11.2901 25.8944C10.9439 25.9555 10.6181 25.9962 10.2719 26.0166C9.92565 26.0369 9.5998 26.0369 9.25359 26.0369C7.95019 25.9758 6.80972 25.6296 5.85254 25.039C4.89536 24.4688 4.12146 23.6745 3.57159 22.7173C3.00136 21.7805 2.65514 20.6604 2.53295 19.4588C2.41076 18.2776 2.49222 16.9742 2.83843 15.6301C3.18465 14.286 3.73452 13.0233 4.46768 11.8625C5.18047 10.7017 6.07656 9.66301 7.05411 8.76692C8.05202 7.87084 9.15176 7.13768 10.333 6.60817C11.5142 6.07867 12.7565 5.73245 13.9988 5.67136C15.2614 5.58989 16.4223 5.79355 17.4405 6.24159C18.4792 6.68963 19.3549 7.3617 20.0473 8.23742C20.7398 9.11314 21.2489 10.1925 21.4933 11.4144C21.7377 12.6567 21.7377 14.0416 21.4526 15.5079C21.3304 16.1596 21.1267 16.791 20.9027 17.4019C20.6787 18.0129 20.3936 18.6239 20.0677 19.1941C19.7419 19.7643 19.3956 20.3346 18.9883 20.8641C18.6014 21.3936 18.1533 21.8823 17.7053 22.3508C17.7053 22.1878 17.7257 22.0249 17.7257 21.8823C17.7257 21.7194 17.746 21.5565 17.746 21.4139C17.746 21.2714 17.7664 21.1288 17.7664 21.0066C17.7664 20.8844 17.7664 20.803 17.7664 20.7215C17.7664 20.6604 17.7664 20.5993 17.746 20.5586C17.7257 20.5179 17.7257 20.4975 17.7053 20.4568C17.6849 20.4364 17.6646 20.416 17.6442 20.416C17.6238 20.416 17.6035 20.3957 17.5627 20.3957C17.5424 20.3957 17.522 20.3957 17.5016 20.3957C17.4813 20.3957 17.4609 20.3957 17.4405 20.416C17.4202 20.416 17.4202 20.4364 17.3998 20.4364H17.3794L13.3878 21.7398C13.3878 21.7398 13.3471 21.7602 13.3063 21.7805C13.2656 21.8009 13.2045 21.8416 13.1638 21.8823C13.123 21.9231 13.0823 22.0045 13.0823 22.086C13.0823 22.1675 13.1027 22.2897 13.1638 22.4119C13.1638 22.4119 13.1638 22.4322 13.1841 22.4322C13.1841 22.4322 13.1841 22.4526 13.2045 22.4526C13.2045 22.4526 13.2045 22.4729 13.2249 22.4729C13.2249 22.4729 13.2249 22.4933 13.2452 22.4933C13.4285 22.8599 13.6729 23.3487 13.9784 23.8985C14.2635 24.4484 14.6097 25.0797 14.9356 25.6907C15.2614 26.3017 15.5873 26.9126 15.8724 27.4421C16.1575 27.9717 16.4019 28.3993 16.5445 28.6844C16.5648 28.7048 16.5648 28.7252 16.5852 28.7455C16.6056 28.7659 16.6056 28.7863 16.6259 28.8066C16.6259 28.827 16.6463 28.8474 16.6463 28.8677C16.6463 28.8881 16.6667 28.8881 16.6667 28.9085C16.7074 28.9696 16.7481 29.0307 16.7685 29.0918C16.8092 29.1325 16.8296 29.1732 16.8703 29.214C16.911 29.2343 16.9314 29.2751 16.9721 29.2751C16.9925 29.2954 17.0332 29.2954 17.0536 29.2954C17.0943 29.2954 17.1554 29.275 17.1962 29.2547C17.2369 29.2343 17.2776 29.1936 17.298 29.1325C17.3184 29.0918 17.3591 29.0307 17.3591 28.9899C17.3794 28.9492 17.3795 28.8881 17.3998 28.8677C17.3998 28.8474 17.3998 28.8474 17.3998 28.827C17.3998 28.8066 17.3998 28.7863 17.3998 28.7659C17.3998 28.7455 17.3998 28.7048 17.3998 28.6844C17.3998 28.6437 17.3998 28.6234 17.3998 28.5826C17.3998 28.4401 17.4202 28.2975 17.4202 28.1346C17.4202 27.9717 17.4405 27.8087 17.4405 27.6458C17.4405 27.4829 17.4609 27.3607 17.4609 27.2589C17.4609 27.157 17.4609 27.0959 17.4609 27.0756C18.0108 27.4014 18.5607 27.7273 19.0902 28.0124C19.64 28.3179 20.1695 28.5826 20.6787 28.827C21.1878 29.0714 21.6766 29.275 22.1246 29.4176C22.5727 29.5602 23.0003 29.662 23.3669 29.6824C23.4077 29.6824 23.4688 29.6824 23.5095 29.6824C23.5502 29.6824 23.6113 29.6824 23.652 29.6824C23.6928 29.6824 23.7335 29.6824 23.7946 29.662C23.8353 29.662 23.8761 29.6416 23.9168 29.6416C23.9779 29.6213 24.039 29.6213 24.1001 29.6009C24.1612 29.5805 24.2223 29.5602 24.263 29.5398C24.3241 29.5194 24.3648 29.4787 24.4056 29.4583C24.4463 29.4176 24.487 29.3769 24.5278 29.3361C24.7925 29.0714 24.8943 28.6437 24.8943 28.0938C24.8943 27.5643 24.7722 26.9126 24.5481 26.2202V26.1795Z" fill="#FDC600"/>
<path d="M12.1056 15.2098V14.273H10.7819V9.14089H9.80432C9.397 9.52784 8.94896 9.79259 8.46019 9.91478V10.872C8.70458 10.8312 8.9286 10.7498 9.17298 10.6276C9.41737 10.5054 9.60066 10.3832 9.74322 10.2406V14.2526H8.07324V15.1895H12.1056V15.2098ZM17.0545 10.8923C17.0545 10.3425 16.8712 9.89442 16.4842 9.5482C16.0973 9.22235 15.6085 9.03906 14.9975 9.03906C14.3866 9.03906 13.8774 9.20199 13.5108 9.52784C13.1239 9.85368 12.9406 10.3017 12.9406 10.8516V13.438C12.9406 13.9879 13.1239 14.4359 13.5108 14.7618C13.8978 15.0876 14.3866 15.2506 14.9975 15.2506C15.6085 15.2506 16.0973 15.0876 16.4842 14.7414C16.8712 14.4156 17.0545 13.9675 17.0545 13.3973V10.8516V10.8923ZM16.0158 13.3566C16.0158 13.6824 15.9344 13.9268 15.7511 14.1101C15.5678 14.2934 15.3234 14.3748 15.0179 14.3748C14.6921 14.3748 14.4477 14.2934 14.2847 14.1101C14.1015 13.9268 14.02 13.6824 14.02 13.3566V10.9331C14.02 10.6072 14.1015 10.3628 14.2847 10.1795C14.468 9.99624 14.7124 9.91478 15.0383 9.91478C15.3641 9.91478 15.6085 9.99624 15.7918 10.1795C15.9751 10.3628 16.0565 10.6072 16.0565 10.9331L16.0362 13.3566H16.0158Z" fill="#FDC600"/>
<path d="M9.27406 20.2963V15.7344H8.50017V19.1965L6.708 15.7344H5.58789V20.2963H6.36178V16.8341L8.17432 20.2963H9.27406ZM10.8626 19.8686C10.8626 19.7464 10.8218 19.6649 10.7404 19.6038C10.6589 19.5427 10.5571 19.5224 10.4349 19.5224C10.3127 19.5224 10.2109 19.5631 10.1294 19.6038C10.048 19.6649 10.0072 19.7464 10.0072 19.8686V19.9908C10.0072 20.113 10.048 20.1944 10.1294 20.2555C10.2109 20.3166 10.3127 20.3574 10.4349 20.3574C10.5571 20.3574 10.6589 20.3166 10.7404 20.2555C10.8218 20.1944 10.8626 20.113 10.8626 19.9908L10.8422 19.8686H10.8626ZM14.284 19.0743H13.5712C13.5712 19.502 13.3472 19.726 12.8991 19.726C12.4511 19.726 12.2271 19.502 12.2271 19.0336V18.3615C12.2271 17.9135 12.4511 17.6691 12.8991 17.6691C13.3472 17.6691 13.5712 17.8931 13.5712 18.3208H14.284V18.2597C14.284 17.8728 14.1618 17.5673 13.9174 17.3433C13.673 17.1396 13.3268 17.0174 12.8991 17.0174C12.4715 17.0174 12.1456 17.1192 11.8809 17.3636C11.6365 17.5876 11.4939 17.9135 11.4939 18.3004V19.0947C11.4939 19.4816 11.6161 19.8075 11.8809 20.0111C12.1252 20.2352 12.4715 20.337 12.8991 20.337C13.3268 20.337 13.673 20.2352 13.9174 20.0111C14.1618 19.7871 14.3044 19.4816 14.3044 19.0947L14.284 19.054V19.0743ZM19.4161 20.2963V18.0153C19.4161 17.7098 19.3347 17.4654 19.1717 17.2822C19.0088 17.1192 18.7848 17.0174 18.52 17.0174C18.2553 17.0174 18.0109 17.0989 17.7869 17.2414L17.4407 17.4654C17.2981 17.1803 17.0537 17.0378 16.6668 17.0378C16.4427 17.0378 16.1984 17.0989 15.9947 17.2414L15.7096 17.4044V17.0581H14.9764V20.2759H15.7096V18.056L16.0965 17.8117C16.2594 17.7302 16.3816 17.6895 16.4835 17.6895C16.7075 17.6895 16.8297 17.832 16.8297 18.0968V20.2759H17.5628V18.056L17.9498 17.8117C18.1127 17.7302 18.2349 17.6895 18.3367 17.6895C18.5608 17.6895 18.683 17.832 18.683 18.0764V20.2759H19.4365L19.4161 20.2963Z" fill="#FDC600"/>
<path d="M21.4933 11.7228C24.5685 11.7228 27.0734 9.23823 27.0734 6.14267C27.0734 3.06747 24.5888 0.5625 21.4933 0.5625C18.4181 0.5625 15.9131 3.0471 15.9131 6.14267C15.9131 9.21787 18.3977 11.7228 21.4933 11.7228Z" fill="#FDC600"/>
<path d="M21.4933 11.7228C24.5685 11.7228 27.0734 9.23823 27.0734 6.14267C27.0734 3.06747 24.5888 0.5625 21.4933 0.5625C18.4181 0.5625 15.9131 3.0471 15.9131 6.14267C15.9131 9.21787 18.3977 11.7228 21.4933 11.7228Z" stroke="white" stroke-width="1.1812"/>
<path d="M23.4695 9.32034V8.66864H20.7405L22.4716 6.91721C22.8382 6.55063 23.1029 6.20441 23.2455 5.89893C23.3881 5.59344 23.4695 5.28796 23.4695 4.96211C23.4695 4.45297 23.327 4.04566 23.0011 3.76054C22.6956 3.45506 22.2476 3.3125 21.657 3.3125C21.1071 3.3125 20.6591 3.45506 20.3129 3.74018C19.9666 4.0253 19.8037 4.41224 19.8037 4.90101V4.96211H20.4758C20.4758 4.6159 20.5776 4.37151 20.7813 4.20858C20.9849 4.04566 21.27 3.94383 21.6366 3.94383C22.0236 3.94383 22.3087 4.02529 22.492 4.20858C22.6753 4.39188 22.7771 4.63626 22.7771 4.96211C22.7771 5.22686 22.716 5.47125 22.5938 5.69527C22.4716 5.91929 22.2679 6.18405 22.0032 6.48953L19.9055 8.64828V9.29998H23.4491L23.4695 9.32034Z" fill="#FEFEFE"/>
</svg>
