<svg width="17" height="17" viewBox="0 0 17 17" fill="none" xmlns="http://www.w3.org/2000/svg">
<path d="M8.17843 16.6733C12.5731 16.6733 16.0463 13.1292 16.0463 8.80538C16.0463 4.41071 12.5022 0.9375 8.17843 0.9375C3.78376 0.9375 0.310547 4.48159 0.310547 8.80538C0.310547 13.2001 3.85464 16.6733 8.17843 16.6733Z" fill="#FDC600"/>
<path d="M8.32022 9.37351C8.81639 9.37351 9.24168 9.51527 9.52521 9.7988C9.80873 10.0823 9.9505 10.4367 9.9505 10.9329C9.9505 11.4291 9.80873 11.8544 9.45432 12.1379C9.09992 12.4214 8.74551 12.5632 8.17845 12.5632C7.6114 12.5632 7.18611 12.4214 6.8317 12.2088C6.54817 11.9253 6.33553 11.5708 6.33553 11.0747H5.41406V11.1456C5.41406 11.8544 5.69759 12.4214 6.19376 12.7758C6.68993 13.2011 7.32787 13.3429 8.17845 13.3429C8.88727 13.3429 9.52521 13.1302 10.0923 12.705C10.6593 12.2797 10.872 11.6417 10.872 10.862C10.872 10.5785 10.8011 10.295 10.7302 10.0823C10.6593 9.86968 10.5176 9.65704 10.4467 9.51527C10.3049 9.37351 10.1631 9.23175 10.0214 9.16087C9.87962 9.08998 9.80873 9.0191 9.73785 8.94822C9.66697 8.94822 9.66697 8.87734 9.59609 8.87734L9.73785 8.80646C9.80873 8.80646 9.9505 8.73557 10.0214 8.59381C10.1631 8.52293 10.234 8.38117 10.3758 8.2394C10.5176 8.09764 10.5884 7.95587 10.6593 7.67235C10.7302 7.4597 10.8011 7.17618 10.8011 6.96353C10.8011 6.32559 10.5884 5.75854 10.0923 5.33325C9.59609 4.90796 9.02903 4.69531 8.17845 4.69531C7.39875 4.69531 6.8317 4.90796 6.33553 5.26237C5.83935 5.61678 5.62671 6.18383 5.62671 6.82177V6.89265H6.54817C6.54817 6.46736 6.68993 6.11295 6.97346 5.9003C7.25699 5.68766 7.68228 5.54589 8.17845 5.54589C8.74551 5.54589 9.09992 5.68766 9.38344 5.9003C9.66697 6.18383 9.80873 6.46736 9.80873 6.89265C9.80873 7.38882 9.66697 7.74323 9.38344 8.02676C9.09992 8.31028 8.74551 8.45205 8.24933 8.45205H6.97346V9.30263H8.32022V9.37351Z" fill="#FEFEFE"/>
</svg>
