<svg width="33" height="36" viewBox="0 0 33 36" fill="none" xmlns="http://www.w3.org/2000/svg">
<path d="M29.8181 31.5441C29.5714 30.7055 29.2014 29.7682 28.7821 28.8063C28.3628 27.869 27.8695 26.9071 27.3269 25.9451C27.2529 26.0685 27.1789 26.1918 27.1049 26.3151C27.0309 26.4384 26.9569 26.5618 26.8582 26.6851C26.7842 26.8084 26.6856 26.9317 26.6116 27.0304C26.5129 27.1537 26.4389 27.2524 26.3403 27.3757C26.3403 27.3757 26.3403 27.4004 26.3156 27.4004C26.3156 27.4004 26.3156 27.425 26.2909 27.425L26.2663 27.4497L26.2416 27.4744L26.1676 27.573C26.2416 27.795 26.3403 28.0417 26.4389 28.3376C26.5376 28.609 26.6609 28.9296 26.7596 29.2009C26.8582 29.4969 26.9322 29.7682 26.9569 29.9655C26.9816 30.1875 26.9816 30.3602 26.9076 30.4342C26.8829 30.4588 26.8582 30.4835 26.8089 30.5082C26.7842 30.5328 26.7349 30.5328 26.7102 30.5575C26.6609 30.5575 26.6363 30.5822 26.5869 30.5822C26.5376 30.5822 26.4883 30.5822 26.4389 30.5822C26.3649 30.5822 26.2663 30.5575 26.1923 30.5575C26.0936 30.5328 25.995 30.5082 25.8963 30.4835C25.7976 30.4588 25.699 30.4095 25.5757 30.3602C25.477 30.3109 25.3537 30.2615 25.2303 30.2122C25.0823 30.1382 24.9344 30.0642 24.7617 29.9902C24.6137 29.9162 24.4411 29.8176 24.2684 29.7189C24.0957 29.6202 23.9231 29.5216 23.7504 29.4229C23.5778 29.3242 23.4051 29.2009 23.2078 29.1023C23.9231 28.387 24.589 27.6224 25.2057 26.8084C25.8223 25.9945 26.3896 25.1312 26.8829 24.2432C27.3762 23.3553 27.7955 22.418 28.1655 21.4807C28.5108 20.5188 28.8068 19.5569 29.0041 18.5703C29.4481 16.3504 29.4234 14.2539 29.0041 12.3793C28.6095 10.5541 27.8202 8.92619 26.7596 7.61894C25.699 6.33636 24.3671 5.32509 22.8132 4.70846C21.2839 4.09183 19.5327 3.79585 17.6335 3.94384C16.3756 4.01783 15.1423 4.28915 13.9584 4.68379C12.7745 5.07844 11.6152 5.62107 10.5053 6.28703C9.39533 6.95298 8.3594 7.7176 7.37279 8.60555C6.38619 9.49349 5.49824 10.4554 4.6843 11.516C4.46231 11.0967 4.28965 10.7267 4.14166 10.3814C3.99367 10.0361 3.89501 9.71548 3.82102 9.44416C3.74702 9.17285 3.72236 8.92619 3.74702 8.72887C3.77169 8.53155 3.82102 8.3589 3.94434 8.23557C3.96901 8.18624 4.01834 8.16158 4.09233 8.11225C4.14166 8.08758 4.21566 8.03825 4.28965 8.01358C4.36365 7.98892 4.43764 7.96425 4.5363 7.93959C4.63496 7.91492 4.73363 7.91492 4.83229 7.89026C4.93095 7.89026 5.05427 7.89026 5.1776 7.89026C5.30092 7.91492 5.42425 7.93959 5.54757 7.98892C5.6709 8.03825 5.79423 8.08758 5.91755 8.16158C6.04088 8.23557 6.1642 8.33423 6.28753 8.45756C6.41085 8.30957 6.53418 8.16158 6.6575 8.03825C6.78083 7.89026 6.92882 7.76693 7.05215 7.64361C7.20014 7.52028 7.32346 7.39696 7.49612 7.27363C7.64411 7.15031 7.7921 7.05165 7.96476 6.92832C7.98942 6.92832 7.98942 6.90365 8.01409 6.90365C8.03875 6.90365 8.03875 6.87899 8.06342 6.87899C8.06342 6.87899 8.08808 6.85432 8.11275 6.85432C8.11275 6.85432 8.13741 6.82966 8.16208 6.82966C7.89076 6.58301 7.57011 6.36102 7.24947 6.18837C6.92882 6.01571 6.60817 5.89238 6.28753 5.79372C5.96688 5.69506 5.62157 5.62107 5.30092 5.5964C4.98028 5.57174 4.65963 5.54707 4.36365 5.57174C4.16633 5.5964 3.94434 5.62107 3.77169 5.64573C3.57436 5.69506 3.40171 5.74439 3.25372 5.79372C3.10573 5.84305 2.95774 5.91705 2.83441 5.99104C2.71109 6.06504 2.61243 6.13904 2.51376 6.2377C2.26711 6.50901 2.11912 6.85432 2.04513 7.2983C1.97113 7.7176 1.9958 8.23557 2.11912 8.80287C2.21778 9.37017 2.4151 10.0115 2.68642 10.7021C2.95774 11.3927 3.30305 12.1327 3.72236 12.9466C3.42637 13.3906 3.15506 13.8592 2.90841 14.3279C2.66176 14.7965 2.4151 15.2651 2.19312 15.7584C1.97113 16.2517 1.77381 16.745 1.60116 17.263C1.4285 17.781 1.25584 18.2989 1.13252 18.8169C0.614551 20.8148 0.441895 22.7387 0.614551 24.5146C0.787206 26.3151 1.30517 27.9677 2.11912 29.3982C2.95774 30.8535 4.09233 32.0621 5.49824 32.95C6.92882 33.8626 8.65538 34.4053 10.6039 34.5286C11.1712 34.5533 11.7632 34.5533 12.3551 34.5039C12.9471 34.4546 13.5391 34.3806 14.1064 34.2573C14.6983 34.1339 15.2903 33.986 15.8576 33.7886C16.4496 33.5913 17.0169 33.3693 17.5842 33.098L16.2029 30.4835C15.8083 30.6562 15.389 30.7795 14.9943 30.9028C14.575 31.0261 14.1804 31.1248 13.7611 31.1988C13.3418 31.2728 12.9471 31.3221 12.5278 31.3468C12.1085 31.3715 11.7139 31.3715 11.2945 31.3715C9.71598 31.2975 8.33473 30.8782 7.17547 30.1629C6.01621 29.4722 5.07894 28.5103 4.41298 27.351C3.72236 26.2164 3.30305 24.8599 3.15506 23.4046C3.00707 21.974 3.10573 20.3955 3.52503 18.7676C3.94434 17.1397 4.6103 15.6104 5.49824 14.2045C6.36152 12.7986 7.44679 11.5407 8.63071 10.4554C9.8393 9.37017 11.1712 8.48222 12.6018 7.84093C14.0324 7.19964 15.5369 6.78033 17.0415 6.70633C18.5708 6.60767 19.9767 6.85432 21.2099 7.39696C22.4678 7.93959 23.5284 8.75354 24.3671 9.81414C25.2057 10.8747 25.8223 12.182 26.1183 13.6619C26.4143 15.1665 26.4143 16.8437 26.069 18.6196C25.921 19.4089 25.6743 20.1735 25.403 20.9134C25.1317 21.6534 24.7864 22.3934 24.3917 23.084C23.9971 23.7746 23.5778 24.4652 23.0845 25.1065C22.6158 25.7478 22.0732 26.3398 21.5306 26.9071C21.5306 26.7097 21.5552 26.5124 21.5552 26.3398C21.5552 26.1424 21.5799 25.9451 21.5799 25.7725C21.5799 25.5998 21.6046 25.4272 21.6046 25.2792C21.6046 25.1312 21.6046 25.0325 21.6046 24.9339C21.6046 24.8599 21.6046 24.7859 21.5799 24.7365C21.5552 24.6872 21.5552 24.6625 21.5306 24.6132C21.5059 24.5885 21.4812 24.5639 21.4566 24.5639C21.4319 24.5639 21.4072 24.5392 21.3579 24.5392C21.3333 24.5392 21.3086 24.5392 21.2839 24.5392C21.2593 24.5392 21.2346 24.5392 21.2099 24.5639C21.1853 24.5639 21.1853 24.5885 21.1606 24.5885H21.1359L16.3016 26.1671C16.3016 26.1671 16.2522 26.1918 16.2029 26.2164C16.1536 26.2411 16.0796 26.2904 16.0303 26.3398C15.9809 26.3891 15.9316 26.4878 15.9316 26.5864C15.9316 26.6851 15.9563 26.8331 16.0303 26.9811C16.0303 26.9811 16.0303 27.0057 16.0549 27.0057C16.0549 27.0057 16.0549 27.0304 16.0796 27.0304C16.0796 27.0304 16.0796 27.0551 16.1042 27.0551C16.1042 27.0551 16.1042 27.0797 16.1289 27.0797C16.3509 27.5237 16.6469 28.1157 17.0169 28.7816C17.3622 29.4476 17.7815 30.2122 18.1761 30.9521C18.5708 31.6921 18.9654 32.4321 19.3107 33.0733C19.656 33.7146 19.952 34.2326 20.1247 34.5779C20.1493 34.6026 20.1493 34.6273 20.174 34.6519C20.1987 34.6766 20.1987 34.7012 20.2233 34.7259C20.2233 34.7506 20.248 34.7752 20.248 34.7999C20.248 34.8246 20.2726 34.8246 20.2726 34.8492C20.322 34.9232 20.3713 34.9972 20.396 35.0712C20.4453 35.1206 20.47 35.1699 20.5193 35.2192C20.5686 35.2439 20.5933 35.2932 20.6426 35.2932C20.6673 35.3179 20.7166 35.3179 20.7413 35.3179C20.7906 35.3179 20.8646 35.2932 20.9139 35.2685C20.9633 35.2439 21.0126 35.1945 21.0373 35.1206C21.0619 35.0712 21.1113 34.9972 21.1113 34.9479C21.1359 34.8986 21.1359 34.8246 21.1606 34.7999C21.1606 34.7752 21.1606 34.7752 21.1606 34.7506C21.1606 34.7259 21.1606 34.7012 21.1606 34.6766C21.1606 34.6519 21.1606 34.6026 21.1606 34.5779C21.1606 34.5286 21.1606 34.5039 21.1606 34.4546C21.1606 34.2819 21.1853 34.1093 21.1853 33.912C21.1853 33.7146 21.2099 33.5173 21.2099 33.32C21.2099 33.1227 21.2346 32.9747 21.2346 32.8514C21.2346 32.728 21.2346 32.654 21.2346 32.6294C21.9006 33.024 22.5665 33.4187 23.2078 33.764C23.8738 34.1339 24.5151 34.4546 25.1317 34.7506C25.7483 35.0466 26.3403 35.2932 26.8829 35.4659C27.4255 35.6385 27.9435 35.7618 28.3875 35.7865C28.4368 35.7865 28.5108 35.7865 28.5601 35.7865C28.6095 35.7865 28.6835 35.7865 28.7328 35.7865C28.7821 35.7865 28.8314 35.7865 28.9054 35.7618C28.9548 35.7618 29.0041 35.7372 29.0534 35.7372C29.1274 35.7125 29.2014 35.7125 29.2754 35.6879C29.3494 35.6632 29.4234 35.6385 29.4727 35.6139C29.5467 35.5892 29.5961 35.5399 29.6454 35.5152C29.6947 35.4659 29.7441 35.4165 29.7934 35.3672C30.114 35.0466 30.2374 34.5286 30.2374 33.8626C30.2374 33.2213 30.0894 32.4321 29.8181 31.5934V31.5441Z" fill="#FDC600"/>
<path d="M14.7489 18.247V17.1124H13.1457V10.8968H11.9618C11.4685 11.3654 10.9258 11.686 10.3339 11.834V12.9933C10.6299 12.944 10.9012 12.8453 11.1972 12.6973C11.4931 12.5493 11.7151 12.4013 11.8878 12.2287V17.0877H9.86523V18.2223H14.7489V18.247ZM20.7426 13.018C20.7426 12.352 20.5206 11.8094 20.0519 11.3901C19.5833 10.9954 18.9913 10.7734 18.2514 10.7734C17.5114 10.7734 16.8948 10.9708 16.4508 11.3654C15.9822 11.76 15.7602 12.3027 15.7602 12.9686V16.1011C15.7602 16.7671 15.9822 17.3097 16.4508 17.7043C16.9195 18.099 17.5114 18.2963 18.2514 18.2963C18.9913 18.2963 19.5833 18.099 20.0519 17.6797C20.5206 17.285 20.7426 16.7424 20.7426 16.0518V12.9686V13.018ZM19.4846 16.0024C19.4846 16.3971 19.386 16.6931 19.164 16.9151C18.942 17.137 18.646 17.2357 18.276 17.2357C17.8814 17.2357 17.5854 17.137 17.3881 16.9151C17.1661 16.6931 17.0675 16.3971 17.0675 16.0024V13.0673C17.0675 12.6727 17.1661 12.3767 17.3881 12.1547C17.6101 11.9327 17.9061 11.834 18.3007 11.834C18.6953 11.834 18.9913 11.9327 19.2133 12.1547C19.4353 12.3767 19.534 12.6727 19.534 13.0673L19.5093 16.0024H19.4846Z" fill="#FDC600"/>
<path d="M11.3189 24.4078V18.8828H10.3816V23.0759L8.21107 18.8828H6.85449V24.4078H7.79177V20.2147L9.98696 24.4078H11.3189ZM13.2428 23.8898C13.2428 23.7418 13.1934 23.6432 13.0948 23.5692C12.9961 23.4952 12.8728 23.4705 12.7248 23.4705C12.5768 23.4705 12.4535 23.5199 12.3548 23.5692C12.2562 23.6432 12.2068 23.7418 12.2068 23.8898V24.0378C12.2068 24.1858 12.2562 24.2845 12.3548 24.3585C12.4535 24.4325 12.5768 24.4818 12.7248 24.4818C12.8728 24.4818 12.9961 24.4325 13.0948 24.3585C13.1934 24.2845 13.2428 24.1858 13.2428 24.0378L13.2181 23.8898H13.2428ZM17.3865 22.9279H16.5232C16.5232 23.4459 16.2519 23.7172 15.7093 23.7172C15.1666 23.7172 14.8953 23.4459 14.8953 22.8786V22.0646C14.8953 21.522 15.1666 21.226 15.7093 21.226C16.2519 21.226 16.5232 21.4973 16.5232 22.0153H17.3865V21.9413C17.3865 21.4727 17.2385 21.1027 16.9425 20.8314C16.6465 20.5847 16.2272 20.4367 15.7093 20.4367C15.1913 20.4367 14.7967 20.56 14.476 20.856C14.18 21.1273 14.0074 21.522 14.0074 21.9906V22.9526C14.0074 23.4212 14.1554 23.8158 14.476 24.0625C14.772 24.3338 15.1913 24.4571 15.7093 24.4571C16.2272 24.4571 16.6465 24.3338 16.9425 24.0625C17.2385 23.7912 17.4112 23.4212 17.4112 22.9526L17.3865 22.9032V22.9279ZM23.6021 24.4078V21.6453C23.6021 21.2753 23.5035 20.9793 23.3061 20.7574C23.1088 20.56 22.8375 20.4367 22.5168 20.4367C22.1962 20.4367 21.9002 20.5354 21.6289 20.708L21.2096 20.9793C21.0369 20.634 20.741 20.4614 20.2723 20.4614C20.001 20.4614 19.705 20.5354 19.4584 20.708L19.1131 20.9054V20.486H18.2251V24.3831H19.1131V21.6946L19.5817 21.3987C19.779 21.3 19.927 21.2507 20.0503 21.2507C20.3216 21.2507 20.4696 21.4233 20.4696 21.744V24.3831H21.3576V21.6946L21.8262 21.3987C22.0235 21.3 22.1715 21.2507 22.2949 21.2507C22.5662 21.2507 22.7142 21.4233 22.7142 21.7193V24.3831H23.6268L23.6021 24.4078Z" fill="#FDC600"/>
<path d="M26.1186 14.0321C29.843 14.0321 32.8768 11.023 32.8768 7.27387C32.8768 3.54944 29.8677 0.515625 26.1186 0.515625C22.3942 0.515625 19.3604 3.52477 19.3604 7.27387C19.3604 10.9983 22.3695 14.0321 26.1186 14.0321Z" fill="#FDC600"/>
<path d="M26.1186 14.0321C29.843 14.0321 32.8768 11.023 32.8768 7.27387C32.8768 3.54944 29.8677 0.515625 26.1186 0.515625C22.3942 0.515625 19.3604 3.52477 19.3604 7.27387C19.3604 10.9983 22.3695 14.0321 26.1186 14.0321Z" stroke="white" stroke-width="1.43058"/>
<path d="M28.512 11.12V10.3307H25.2069L27.3034 8.20948C27.7474 7.7655 28.068 7.3462 28.2407 6.97622C28.4133 6.60624 28.512 6.23627 28.512 5.84163C28.512 5.225 28.3393 4.73169 27.9447 4.38638C27.5747 4.01641 27.0321 3.84375 26.3168 3.84375C25.6508 3.84375 25.1082 4.01641 24.6889 4.36172C24.2696 4.70703 24.0723 5.17567 24.0723 5.76763V5.84163H24.8862C24.8862 5.42232 25.0095 5.12634 25.2562 4.92902C25.5028 4.73169 25.8482 4.60837 26.2921 4.60837C26.7608 4.60837 27.1061 4.70703 27.3281 4.92902C27.55 5.151 27.6734 5.44698 27.6734 5.84163C27.6734 6.16227 27.5994 6.45825 27.4514 6.72957C27.3034 7.00089 27.0567 7.32153 26.7361 7.69151L24.1956 10.306V11.0953H28.4873L28.512 11.12Z" fill="#FEFEFE"/>
</svg>
