<svg width="17" height="17" viewBox="0 0 17 17" fill="none" xmlns="http://www.w3.org/2000/svg">
<path d="M8.64546 16.7167C13.0234 16.7167 16.6054 13.1347 16.6054 8.75678C16.6054 4.37883 13.0234 0.796875 8.64546 0.796875C4.26751 0.796875 0.685547 4.37883 0.685547 8.75678C0.685547 13.1347 4.26751 16.7167 8.64546 16.7167Z" fill="#FDC600"/>
<path d="M11.4325 13.1387V12.1437H7.65155L10.0395 9.55675C10.6365 8.95976 10.8355 8.56177 11.0345 8.16377C11.2335 7.76577 11.4325 7.36778 11.4325 6.77079C11.4325 5.97479 11.2335 5.5768 10.8355 4.97981C10.4375 4.58181 9.84053 4.38281 8.84554 4.38281C8.04955 4.38281 7.45255 4.58181 6.85556 4.97981C6.45757 5.3778 6.05957 5.97479 6.05957 6.57179H7.05456C7.05456 6.17379 7.25356 5.7758 7.45255 5.5768C7.65155 5.3778 8.24855 5.1788 8.64654 5.1788C9.24353 5.1788 9.64153 5.3778 9.84053 5.5768C10.0395 5.7758 10.2385 6.17379 10.2385 6.57179C10.2385 6.96978 10.2385 7.36778 10.0395 7.56678C9.84053 7.96477 9.64153 8.36277 9.24353 8.76076L6.25857 11.7457V12.7407H11.2335L11.4325 13.1387Z" fill="#FEFEFE"/>
</svg>
