<svg width="34" height="36" viewBox="0 0 34 36" fill="none" xmlns="http://www.w3.org/2000/svg">
<path d="M30.1911 31.5441C29.9444 30.7055 29.5745 29.7682 29.1552 28.8063C28.7359 27.869 28.2426 26.9071 27.6999 25.9451C27.6259 26.0685 27.5519 26.1918 27.4779 26.3151C27.4039 26.4384 27.3299 26.5618 27.2313 26.6851C27.1573 26.8084 27.0586 26.9317 26.9846 27.0304C26.886 27.1537 26.812 27.2524 26.7133 27.3757C26.7133 27.3757 26.7133 27.4004 26.6887 27.4004C26.6887 27.4004 26.6887 27.425 26.664 27.425L26.6393 27.4497L26.6147 27.4744L26.5407 27.573C26.6147 27.795 26.7133 28.0417 26.812 28.3376C26.9106 28.609 27.034 28.9296 27.1326 29.2009C27.2313 29.4969 27.3053 29.7682 27.3299 29.9655C27.3546 30.1875 27.3546 30.3602 27.2806 30.4342C27.256 30.4588 27.2313 30.4835 27.182 30.5082C27.1573 30.5328 27.108 30.5328 27.0833 30.5575C27.034 30.5575 27.0093 30.5822 26.96 30.5822C26.9106 30.5822 26.8613 30.5822 26.812 30.5822C26.738 30.5822 26.6393 30.5575 26.5653 30.5575C26.4667 30.5328 26.368 30.5082 26.2693 30.4835C26.1707 30.4588 26.072 30.4095 25.9487 30.3602C25.85 30.3109 25.7267 30.2615 25.6034 30.2122C25.4554 30.1382 25.3074 30.0642 25.1348 29.9902C24.9868 29.9162 24.8141 29.8176 24.6414 29.7189C24.4688 29.6202 24.2961 29.5216 24.1235 29.4229C23.9508 29.3242 23.7782 29.2009 23.5808 29.1023C24.2961 28.387 24.9621 27.6224 25.5787 26.8084C26.1954 25.9945 26.7626 25.1312 27.256 24.2432C27.7493 23.3553 28.1686 22.418 28.5385 21.4807C28.8838 20.5188 29.1798 19.5569 29.3771 18.5703C29.8211 16.3504 29.7965 14.2539 29.3771 12.3793C28.9825 10.5541 28.1932 8.92619 27.1326 7.61894C26.072 6.33636 24.7401 5.32509 23.1862 4.70846C21.657 4.09183 19.9057 3.79585 18.0065 3.94384C16.7486 4.01783 15.5154 4.28915 14.3314 4.68379C13.1475 5.07844 11.9882 5.62107 10.8783 6.28703C9.76838 6.95298 8.73244 7.7176 7.74584 8.60555C6.75924 9.49349 5.87129 10.4554 5.05734 11.516C4.83536 11.0967 4.6627 10.7267 4.51471 10.3814C4.36672 10.0361 4.26806 9.71548 4.19406 9.44416C4.12007 9.17285 4.0954 8.92619 4.12007 8.72887C4.14473 8.53155 4.19406 8.3589 4.31739 8.23557C4.34205 8.18624 4.39138 8.16158 4.46538 8.11225C4.51471 8.08758 4.5887 8.03825 4.6627 8.01358C4.7367 7.98892 4.81069 7.96425 4.90935 7.93959C5.00801 7.91492 5.10667 7.91492 5.20533 7.89026C5.30399 7.89026 5.42732 7.89026 5.55064 7.89026C5.67397 7.91492 5.7973 7.93959 5.92062 7.98892C6.04395 8.03825 6.16727 8.08758 6.2906 8.16158C6.41392 8.23557 6.53725 8.33423 6.66057 8.45756C6.7839 8.30957 6.90723 8.16158 7.03055 8.03825C7.15388 7.89026 7.30187 7.76693 7.42519 7.64361C7.57318 7.52028 7.69651 7.39696 7.86917 7.27363C8.01716 7.15031 8.16515 7.05165 8.3378 6.92832C8.36247 6.92832 8.36247 6.90365 8.38713 6.90365C8.4118 6.90365 8.4118 6.87899 8.43646 6.87899C8.43646 6.87899 8.46113 6.85432 8.48579 6.85432C8.48579 6.85432 8.51046 6.82966 8.53512 6.82966C8.26381 6.58301 7.94316 6.36102 7.62251 6.18837C7.30187 6.01571 6.98122 5.89238 6.66057 5.79372C6.33993 5.69506 5.99462 5.62107 5.67397 5.5964C5.35332 5.57174 5.03268 5.54707 4.7367 5.57174C4.53937 5.5964 4.31739 5.62107 4.14473 5.64573C3.94741 5.69506 3.77476 5.74439 3.62677 5.79372C3.47877 5.84305 3.33078 5.91705 3.20746 5.99104C3.08413 6.06504 2.98547 6.13904 2.88681 6.2377C2.64016 6.50901 2.49217 6.85432 2.41817 7.2983C2.34418 7.7176 2.36884 8.23557 2.49217 8.80287C2.59083 9.37017 2.78815 10.0115 3.05947 10.7021C3.33078 11.3927 3.6761 12.1327 4.0954 12.9466C3.79942 13.3906 3.5281 13.8592 3.28145 14.3279C3.0348 14.7965 2.78815 15.2651 2.56617 15.7584C2.34418 16.2517 2.14686 16.745 1.9742 17.263C1.80155 17.781 1.62889 18.2989 1.50557 18.8169C0.987598 20.8148 0.814942 22.7387 0.987597 24.5146C1.16025 26.3151 1.67822 27.9677 2.49217 29.3982C3.33078 30.8535 4.46538 32.0621 5.87129 32.95C7.30187 33.8626 9.02843 34.4053 10.977 34.5286C11.5443 34.5533 12.1362 34.5533 12.7282 34.5039C13.3202 34.4546 13.9121 34.3806 14.4794 34.2573C15.0714 34.1339 15.6633 33.986 16.2306 33.7886C16.8226 33.5913 17.3899 33.3693 17.9572 33.098L16.576 30.4835C16.1813 30.6562 15.762 30.7795 15.3674 30.9028C14.9481 31.0261 14.5534 31.1248 14.1341 31.1988C13.7148 31.2728 13.3202 31.3221 12.9009 31.3468C12.4815 31.3715 12.0869 31.3715 11.6676 31.3715C10.089 31.2975 8.70778 30.8782 7.54852 30.1629C6.38926 29.4722 5.45198 28.5103 4.78603 27.351C4.0954 26.2164 3.6761 24.8599 3.5281 23.4046C3.38011 21.974 3.47877 20.3955 3.89808 18.7676C4.31739 17.1397 4.98335 15.6104 5.87129 14.2045C6.73457 12.7986 7.81984 11.5407 9.00376 10.4554C10.2124 9.37017 11.5443 8.48222 12.9748 7.84093C14.4054 7.19964 15.91 6.78033 17.4146 6.70633C18.9438 6.60767 20.3497 6.85432 21.583 7.39696C22.8409 7.93959 23.9015 8.75354 24.7401 9.81414C25.5787 10.8747 26.1954 12.182 26.4913 13.6619C26.7873 15.1665 26.7873 16.8437 26.442 18.6196C26.294 19.4089 26.0474 20.1735 25.776 20.9134C25.5047 21.6534 25.1594 22.3934 24.7648 23.084C24.3701 23.7746 23.9508 24.4652 23.4575 25.1065C22.9889 25.7478 22.4463 26.3398 21.9036 26.9071C21.9036 26.7097 21.9283 26.5124 21.9283 26.3398C21.9283 26.1424 21.953 25.9451 21.953 25.7725C21.953 25.5998 21.9776 25.4272 21.9776 25.2792C21.9776 25.1312 21.9776 25.0325 21.9776 24.9339C21.9776 24.8599 21.9776 24.7859 21.953 24.7365C21.9283 24.6872 21.9283 24.6625 21.9036 24.6132C21.879 24.5885 21.8543 24.5639 21.8296 24.5639C21.805 24.5639 21.7803 24.5392 21.731 24.5392C21.7063 24.5392 21.6816 24.5392 21.657 24.5392C21.6323 24.5392 21.6076 24.5392 21.583 24.5639C21.5583 24.5639 21.5583 24.5885 21.5336 24.5885H21.509L16.6746 26.1671C16.6746 26.1671 16.6253 26.1918 16.576 26.2164C16.5266 26.2411 16.4526 26.2904 16.4033 26.3398C16.354 26.3891 16.3046 26.4878 16.3046 26.5864C16.3046 26.6851 16.3293 26.8331 16.4033 26.9811C16.4033 26.9811 16.4033 27.0057 16.428 27.0057C16.428 27.0057 16.428 27.0304 16.4526 27.0304C16.4526 27.0304 16.4526 27.0551 16.4773 27.0551C16.4773 27.0551 16.4773 27.0797 16.502 27.0797C16.7239 27.5237 17.0199 28.1157 17.3899 28.7816C17.7352 29.4476 18.1545 30.2122 18.5492 30.9521C18.9438 31.6921 19.3384 32.4321 19.6838 33.0733C20.0291 33.7146 20.3251 34.2326 20.4977 34.5779C20.5224 34.6026 20.5224 34.6273 20.547 34.6519C20.5717 34.6766 20.5717 34.7012 20.5964 34.7259C20.5964 34.7506 20.621 34.7752 20.621 34.7999C20.621 34.8246 20.6457 34.8246 20.6457 34.8492C20.695 34.9232 20.7444 34.9972 20.769 35.0712C20.8184 35.1206 20.843 35.1699 20.8924 35.2192C20.9417 35.2439 20.9663 35.2932 21.0157 35.2932C21.0403 35.3179 21.0897 35.3179 21.1143 35.3179C21.1637 35.3179 21.2377 35.2932 21.287 35.2685C21.3363 35.2439 21.3857 35.1945 21.4103 35.1206C21.435 35.0712 21.4843 34.9972 21.4843 34.9479C21.509 34.8986 21.509 34.8246 21.5336 34.7999C21.5336 34.7752 21.5336 34.7752 21.5336 34.7506C21.5336 34.7259 21.5336 34.7012 21.5336 34.6766C21.5336 34.6519 21.5336 34.6026 21.5336 34.5779C21.5336 34.5286 21.5336 34.5039 21.5336 34.4546C21.5336 34.2819 21.5583 34.1093 21.5583 33.912C21.5583 33.7146 21.583 33.5173 21.583 33.32C21.583 33.1227 21.6076 32.9747 21.6076 32.8514C21.6076 32.728 21.6076 32.654 21.6076 32.6294C22.2736 33.024 22.9396 33.4187 23.5808 33.764C24.2468 34.1339 24.8881 34.4546 25.5047 34.7506C26.1214 35.0466 26.7133 35.2932 27.256 35.4659C27.7986 35.6385 28.3166 35.7618 28.7605 35.7865C28.8099 35.7865 28.8839 35.7865 28.9332 35.7865C28.9825 35.7865 29.0565 35.7865 29.1058 35.7865C29.1552 35.7865 29.2045 35.7865 29.2785 35.7618C29.3278 35.7618 29.3772 35.7372 29.4265 35.7372C29.5005 35.7125 29.5745 35.7125 29.6485 35.6879C29.7225 35.6632 29.7965 35.6385 29.8458 35.6139C29.9198 35.5892 29.9691 35.5399 30.0184 35.5152C30.0678 35.4659 30.1171 35.4165 30.1664 35.3672C30.4871 35.0466 30.6104 34.5286 30.6104 33.8626C30.6104 33.2213 30.4624 32.4321 30.1911 31.5934V31.5441Z" fill="#FDC600"/>
<path d="M15.122 18.247V17.1124H13.5187V10.8968H12.3348C11.8415 11.3654 11.2989 11.686 10.7069 11.834V12.9933C11.0029 12.944 11.2742 12.8453 11.5702 12.6973C11.8662 12.5493 12.0882 12.4013 12.2608 12.2287V17.0877H10.2383V18.2223H15.122V18.247ZM21.1156 13.018C21.1156 12.352 20.8936 11.8094 20.425 11.3901C19.9563 10.9954 19.3644 10.7734 18.6244 10.7734C17.8845 10.7734 17.2678 10.9708 16.8239 11.3654C16.3552 11.76 16.1332 12.3027 16.1332 12.9686V16.1011C16.1332 16.7671 16.3552 17.3097 16.8239 17.7043C17.2925 18.099 17.8845 18.2963 18.6244 18.2963C19.3644 18.2963 19.9563 18.099 20.425 17.6797C20.8936 17.285 21.1156 16.7424 21.1156 16.0518V12.9686V13.018ZM19.8577 16.0024C19.8577 16.3971 19.759 16.6931 19.537 16.9151C19.315 17.137 19.0191 17.2357 18.6491 17.2357C18.2544 17.2357 17.9585 17.137 17.7611 16.9151C17.5392 16.6931 17.4405 16.3971 17.4405 16.0024V13.0673C17.4405 12.6727 17.5392 12.3767 17.7611 12.1547C17.9831 11.9327 18.2791 11.834 18.6738 11.834C19.0684 11.834 19.3644 11.9327 19.5864 12.1547C19.8083 12.3767 19.907 12.6727 19.907 13.0673L19.8823 16.0024H19.8577Z" fill="#FDC600"/>
<path d="M11.6919 24.4078V18.8828H10.7547V23.0759L8.58412 18.8828H7.22754V24.4078H8.16481V20.2147L10.36 24.4078H11.6919ZM13.6158 23.8898C13.6158 23.7418 13.5665 23.6432 13.4678 23.5692C13.3692 23.4952 13.2458 23.4705 13.0978 23.4705C12.9498 23.4705 12.8265 23.5199 12.7279 23.5692C12.6292 23.6432 12.5799 23.7418 12.5799 23.8898V24.0378C12.5799 24.1858 12.6292 24.2845 12.7279 24.3585C12.8265 24.4325 12.9498 24.4818 13.0978 24.4818C13.2458 24.4818 13.3692 24.4325 13.4678 24.3585C13.5665 24.2845 13.6158 24.1858 13.6158 24.0378L13.5911 23.8898H13.6158ZM17.7595 22.9279H16.8963C16.8963 23.4459 16.625 23.7172 16.0823 23.7172C15.5397 23.7172 15.2684 23.4459 15.2684 22.8786V22.0646C15.2684 21.522 15.5397 21.226 16.0823 21.226C16.625 21.226 16.8963 21.4973 16.8963 22.0153H17.7595V21.9413C17.7595 21.4727 17.6116 21.1027 17.3156 20.8314C17.0196 20.5847 16.6003 20.4367 16.0823 20.4367C15.5644 20.4367 15.1697 20.56 14.8491 20.856C14.5531 21.1273 14.3804 21.522 14.3804 21.9906V22.9526C14.3804 23.4212 14.5284 23.8158 14.8491 24.0625C15.145 24.3338 15.5644 24.4571 16.0823 24.4571C16.6003 24.4571 17.0196 24.3338 17.3156 24.0625C17.6116 23.7912 17.7842 23.4212 17.7842 22.9526L17.7595 22.9032V22.9279ZM23.9752 24.4078V21.6453C23.9752 21.2753 23.8765 20.9793 23.6792 20.7574C23.4819 20.56 23.2105 20.4367 22.8899 20.4367C22.5692 20.4367 22.2733 20.5354 22.0019 20.708L21.5826 20.9793C21.41 20.634 21.114 20.4614 20.6454 20.4614C20.374 20.4614 20.0781 20.5354 19.8314 20.708L19.4861 20.9054V20.486H18.5982V24.3831H19.4861V21.6946L19.9547 21.3987C20.1521 21.3 20.3001 21.2507 20.4234 21.2507C20.6947 21.2507 20.8427 21.4233 20.8427 21.744V24.3831H21.7306V21.6946L22.1993 21.3987C22.3966 21.3 22.5446 21.2507 22.6679 21.2507C22.9392 21.2507 23.0872 21.4233 23.0872 21.7193V24.3831H23.9998L23.9752 24.4078Z" fill="#FDC600"/>
<path d="M26.4916 14.0321C30.2161 14.0321 33.2499 11.023 33.2499 7.27387C33.2499 3.54944 30.2407 0.515625 26.4916 0.515625C22.7672 0.515625 19.7334 3.52477 19.7334 7.27387C19.7334 10.9983 22.7425 14.0321 26.4916 14.0321Z" fill="#FDC600"/>
<path d="M26.4916 14.0321C30.2161 14.0321 33.2499 11.023 33.2499 7.27387C33.2499 3.54944 30.2407 0.515625 26.4916 0.515625C22.7672 0.515625 19.7334 3.52477 19.7334 7.27387C19.7334 10.9983 22.7425 14.0321 26.4916 14.0321Z" stroke="white" stroke-width="1.43058"/>
<path d="M28.885 11.12V10.3307H25.5799L27.6764 8.20948C28.1204 7.7655 28.4411 7.3462 28.6137 6.97622C28.7864 6.60624 28.885 6.23627 28.885 5.84163C28.885 5.225 28.7124 4.73169 28.3177 4.38638C27.9478 4.01641 27.4051 3.84375 26.6898 3.84375C26.0239 3.84375 25.4812 4.01641 25.0619 4.36172C24.6426 4.70703 24.4453 5.17567 24.4453 5.76763V5.84163H25.2593C25.2593 5.42232 25.3826 5.12634 25.6292 4.92902C25.8759 4.73169 26.2212 4.60837 26.6652 4.60837C27.1338 4.60837 27.4791 4.70703 27.7011 4.92902C27.9231 5.151 28.0464 5.44698 28.0464 5.84163C28.0464 6.16227 27.9724 6.45825 27.8244 6.72957C27.6764 7.00089 27.4298 7.32153 27.1091 7.69151L24.5686 10.306V11.0953H28.8604L28.885 11.12Z" fill="#FEFEFE"/>
</svg>
