<svg width="17" height="17" viewBox="0 0 17 17" fill="none" xmlns="http://www.w3.org/2000/svg">
<path d="M8.25793 4.78906C8.39055 4.78906 8.51773 4.84174 8.6115 4.93551C8.70527 5.02928 8.75795 5.15647 8.75795 5.28908V8.28917H11.758C11.8907 8.28917 12.0178 8.34185 12.1116 8.43562C12.2054 8.52939 12.2581 8.65657 12.2581 8.78918C12.2581 8.9218 12.2054 9.04898 12.1116 9.14275C12.0178 9.23652 11.8907 9.2892 11.758 9.2892H8.75795V12.2893C8.75795 12.4219 8.70527 12.5491 8.6115 12.6429C8.51773 12.7366 8.39055 12.7893 8.25793 12.7893C8.12532 12.7893 7.99814 12.7366 7.90437 12.6429C7.8106 12.5491 7.75792 12.4219 7.75792 12.2893V9.2892H4.75783C4.62522 9.2892 4.49803 9.23652 4.40426 9.14275C4.31049 9.04898 4.25781 8.9218 4.25781 8.78918C4.25781 8.65657 4.31049 8.52939 4.40426 8.43562C4.49803 8.34185 4.62522 8.28917 4.75783 8.28917H7.75792V5.28908C7.75792 5.15647 7.8106 5.02928 7.90437 4.93551C7.99814 4.84174 8.12532 4.78906 8.25793 4.78906Z" fill="#CFCCC9"/>
</svg>
