<svg width="17" height="17" viewBox="0 0 17 17" fill="none" xmlns="http://www.w3.org/2000/svg">
<path d="M8.09582 4.67969C8.22844 4.67969 8.35562 4.73237 8.44939 4.82614C8.54316 4.91991 8.59584 5.04709 8.59584 5.1797V8.17979H11.5959C11.7285 8.17979 11.8557 8.23247 11.9495 8.32625C12.0433 8.42002 12.0959 8.5472 12.0959 8.67981C12.0959 8.81242 12.0433 8.9396 11.9495 9.03337C11.8557 9.12714 11.7285 9.17982 11.5959 9.17982H8.59584V12.1799C8.59584 12.3125 8.54316 12.4397 8.44939 12.5335C8.35562 12.6273 8.22844 12.6799 8.09582 12.6799C7.96321 12.6799 7.83603 12.6273 7.74226 12.5335C7.64849 12.4397 7.59581 12.3125 7.59581 12.1799V9.17982H4.59572C4.46311 9.17982 4.33593 9.12714 4.24215 9.03337C4.14838 8.9396 4.0957 8.81242 4.0957 8.67981C4.0957 8.5472 4.14838 8.42002 4.24215 8.32625C4.33593 8.23247 4.46311 8.17979 4.59572 8.17979H7.59581V5.1797C7.59581 5.04709 7.64849 4.91991 7.74226 4.82614C7.83603 4.73237 7.96321 4.67969 8.09582 4.67969Z" fill="#CFCCC9"/>
</svg>
