<svg width="17" height="17" viewBox="0 0 17 17" fill="none" xmlns="http://www.w3.org/2000/svg">
<path d="M8.25793 4.36719C8.39055 4.36719 8.51773 4.41987 8.6115 4.51364C8.70527 4.60741 8.75795 4.73459 8.75795 4.8672V7.86729H11.758C11.8907 7.86729 12.0178 7.91997 12.1116 8.01375C12.2054 8.10752 12.2581 8.2347 12.2581 8.36731C12.2581 8.49992 12.2054 8.6271 12.1116 8.72087C12.0178 8.81464 11.8907 8.86732 11.758 8.86732H8.75795V11.8674C8.75795 12 8.70527 12.1272 8.6115 12.221C8.51773 12.3148 8.39055 12.3674 8.25793 12.3674C8.12532 12.3674 7.99814 12.3148 7.90437 12.221C7.8106 12.1272 7.75792 12 7.75792 11.8674V8.86732H4.75783C4.62522 8.86732 4.49803 8.81464 4.40426 8.72087C4.31049 8.6271 4.25781 8.49992 4.25781 8.36731C4.25781 8.2347 4.31049 8.10752 4.40426 8.01375C4.49803 7.91997 4.62522 7.86729 4.75783 7.86729H7.75792V4.8672C7.75792 4.73459 7.8106 4.60741 7.90437 4.51364C7.99814 4.41987 8.12532 4.36719 8.25793 4.36719Z" fill="#CFCCC9"/>
</svg>
