<svg width="15" height="16" viewBox="0 0 15 16" fill="none" xmlns="http://www.w3.org/2000/svg">
<path d="M8.51917 5.68307C8.51917 5.56303 8.47148 5.44791 8.3866 5.36303C8.30173 5.27815 8.1866 5.23047 8.06657 5.23047C7.94653 5.23047 7.83141 5.27815 7.74653 5.36303C7.66165 5.44791 7.61396 5.56303 7.61396 5.68307V7.04088H6.25615C6.13612 7.04088 6.02099 7.08857 5.93612 7.17345C5.85124 7.25832 5.80355 7.37345 5.80355 7.49348C5.80355 7.61352 5.85124 7.72864 5.93612 7.81352C6.02099 7.8984 6.13612 7.94609 6.25615 7.94609H7.61396V9.3039C7.61396 9.42393 7.66165 9.53906 7.74653 9.62393C7.83141 9.70881 7.94653 9.7565 8.06657 9.7565C8.1866 9.7565 8.30173 9.70881 8.3866 9.62393C8.47148 9.53906 8.51917 9.42393 8.51917 9.3039V7.94609H9.87698C9.99702 7.94609 10.1121 7.8984 10.197 7.81352C10.2819 7.72864 10.3296 7.61352 10.3296 7.49348C10.3296 7.37345 10.2819 7.25832 10.197 7.17345C10.1121 7.08857 9.99702 7.04088 9.87698 7.04088H8.51917V5.68307Z" fill="#363330"/>
<path d="M0.824917 1.60938C0.70488 1.60938 0.589758 1.65706 0.504879 1.74194C0.419999 1.82682 0.372314 1.94194 0.372314 2.06198C0.372314 2.18202 0.419999 2.29714 0.504879 2.38202C0.589758 2.4669 0.70488 2.51458 0.824917 2.51458H1.8297L2.19268 3.96925L3.54868 11.1973C3.5681 11.301 3.62314 11.3947 3.7043 11.4621C3.78545 11.5296 3.88762 11.5665 3.99314 11.5666H4.89834C4.41819 11.5666 3.95771 11.7574 3.61819 12.0969C3.27867 12.4364 3.08793 12.8969 3.08793 13.3771C3.08793 13.8572 3.27867 14.3177 3.61819 14.6572C3.95771 14.9967 4.41819 15.1875 4.89834 15.1875C5.3785 15.1875 5.83898 14.9967 6.1785 14.6572C6.51802 14.3177 6.70876 13.8572 6.70876 13.3771C6.70876 12.8969 6.51802 12.4364 6.1785 12.0969C5.83898 11.7574 5.3785 11.5666 4.89834 11.5666H11.2348C10.7546 11.5666 10.2942 11.7574 9.95463 12.0969C9.61511 12.4364 9.42437 12.8969 9.42437 13.3771C9.42437 13.8572 9.61511 14.3177 9.95463 14.6572C10.2942 14.9967 10.7546 15.1875 11.2348 15.1875C11.7149 15.1875 12.1754 14.9967 12.5149 14.6572C12.8545 14.3177 13.0452 13.8572 13.0452 13.3771C13.0452 12.8969 12.8545 12.4364 12.5149 12.0969C12.1754 11.7574 11.7149 11.5666 11.2348 11.5666H12.14C12.2455 11.5665 12.3477 11.5296 12.4288 11.4621C12.51 11.3947 12.565 11.301 12.5844 11.1973L13.9423 3.95567C13.9545 3.89035 13.9522 3.82313 13.9355 3.7588C13.9188 3.69447 13.8882 3.6346 13.8458 3.58345C13.8033 3.5323 13.7502 3.49112 13.69 3.46283C13.6299 3.43454 13.5643 3.41985 13.4978 3.41979H2.98836L2.62175 1.95245C2.59732 1.85449 2.54084 1.76751 2.46129 1.70535C2.38174 1.64319 2.28369 1.6094 2.18273 1.60938H0.824917ZM4.3688 10.6614L3.18026 4.32499H12.9529L11.7643 10.6614H4.3688ZM5.80355 13.3771C5.80355 13.6171 5.70818 13.8474 5.53842 14.0171C5.36866 14.1869 5.13842 14.2823 4.89834 14.2823C4.65827 14.2823 4.42803 14.1869 4.25827 14.0171C4.08851 13.8474 3.99314 13.6171 3.99314 13.3771C3.99314 13.137 4.08851 12.9067 4.25827 12.737C4.42803 12.5672 4.65827 12.4718 4.89834 12.4718C5.13842 12.4718 5.36866 12.5672 5.53842 12.737C5.70818 12.9067 5.80355 13.137 5.80355 13.3771ZM12.14 13.3771C12.14 13.6171 12.0446 13.8474 11.8749 14.0171C11.7051 14.1869 11.4749 14.2823 11.2348 14.2823C10.9947 14.2823 10.7645 14.1869 10.5947 14.0171C10.425 13.8474 10.3296 13.6171 10.3296 13.3771C10.3296 13.137 10.425 12.9067 10.5947 12.737C10.7645 12.5672 10.9947 12.4718 11.2348 12.4718C11.4749 12.4718 11.7051 12.5672 11.8749 12.737C12.0446 12.9067 12.14 13.137 12.14 13.3771Z" fill="#363330"/>
</svg>
