<svg width="15" height="15" viewBox="0 0 15 15" fill="none" xmlns="http://www.w3.org/2000/svg">
<path d="M8.51917 5.2612C8.51917 5.14116 8.47148 5.02604 8.3866 4.94116C8.30173 4.85628 8.1866 4.80859 8.06657 4.80859C7.94653 4.80859 7.83141 4.85628 7.74653 4.94116C7.66165 5.02604 7.61396 5.14116 7.61396 5.2612V6.61901H6.25615C6.13612 6.61901 6.02099 6.66669 5.93612 6.75157C5.85124 6.83645 5.80355 6.95157 5.80355 7.07161C5.80355 7.19165 5.85124 7.30677 5.93612 7.39165C6.02099 7.47653 6.13612 7.52421 6.25615 7.52421H7.61396V8.88202C7.61396 9.00206 7.66165 9.11718 7.74653 9.20206C7.83141 9.28694 7.94653 9.33462 8.06657 9.33462C8.1866 9.33462 8.30173 9.28694 8.3866 9.20206C8.47148 9.11718 8.51917 9.00206 8.51917 8.88202V7.52421H9.87698C9.99702 7.52421 10.1121 7.47653 10.197 7.39165C10.2819 7.30677 10.3296 7.19165 10.3296 7.07161C10.3296 6.95157 10.2819 6.83645 10.197 6.75157C10.1121 6.66669 9.99702 6.61901 9.87698 6.61901H8.51917V5.2612Z" fill="#363330"/>
<path d="M0.824917 1.1875C0.70488 1.1875 0.589758 1.23518 0.504879 1.32006C0.419999 1.40494 0.372314 1.52007 0.372314 1.6401C0.372314 1.76014 0.419999 1.87526 0.504879 1.96014C0.589758 2.04502 0.70488 2.09271 0.824917 2.09271H1.8297L2.19268 3.54737L3.54868 10.7754C3.5681 10.8792 3.62314 10.9728 3.7043 11.0403C3.78545 11.1077 3.88762 11.1447 3.99314 11.1448H4.89834C4.41819 11.1448 3.95771 11.3355 3.61819 11.675C3.27867 12.0145 3.08793 12.475 3.08793 12.9552C3.08793 13.4353 3.27867 13.8958 3.61819 14.2353C3.95771 14.5749 4.41819 14.7656 4.89834 14.7656C5.3785 14.7656 5.83898 14.5749 6.1785 14.2353C6.51802 13.8958 6.70876 13.4353 6.70876 12.9552C6.70876 12.475 6.51802 12.0145 6.1785 11.675C5.83898 11.3355 5.3785 11.1448 4.89834 11.1448H11.2348C10.7546 11.1448 10.2942 11.3355 9.95463 11.675C9.61511 12.0145 9.42437 12.475 9.42437 12.9552C9.42437 13.4353 9.61511 13.8958 9.95463 14.2353C10.2942 14.5749 10.7546 14.7656 11.2348 14.7656C11.7149 14.7656 12.1754 14.5749 12.5149 14.2353C12.8545 13.8958 13.0452 13.4353 13.0452 12.9552C13.0452 12.475 12.8545 12.0145 12.5149 11.675C12.1754 11.3355 11.7149 11.1448 11.2348 11.1448H12.14C12.2455 11.1447 12.3477 11.1077 12.4288 11.0403C12.51 10.9728 12.565 10.8792 12.5844 10.7754L13.9423 3.53379C13.9545 3.46847 13.9522 3.40126 13.9355 3.33693C13.9188 3.2726 13.8882 3.21273 13.8458 3.16158C13.8033 3.11042 13.7502 3.06924 13.69 3.04096C13.6299 3.01267 13.5643 2.99797 13.4978 2.99791H2.98836L2.62175 1.53057C2.59732 1.43262 2.54084 1.34564 2.46129 1.28347C2.38174 1.22131 2.28369 1.18753 2.18273 1.1875H0.824917ZM4.3688 10.2396L3.18026 3.90312H12.9529L11.7643 10.2396H4.3688ZM5.80355 12.9552C5.80355 13.1953 5.70818 13.4255 5.53842 13.5953C5.36866 13.765 5.13842 13.8604 4.89834 13.8604C4.65827 13.8604 4.42803 13.765 4.25827 13.5953C4.08851 13.4255 3.99314 13.1953 3.99314 12.9552C3.99314 12.7151 4.08851 12.4849 4.25827 12.3151C4.42803 12.1453 4.65827 12.05 4.89834 12.05C5.13842 12.05 5.36866 12.1453 5.53842 12.3151C5.70818 12.4849 5.80355 12.7151 5.80355 12.9552ZM12.14 12.9552C12.14 13.1953 12.0446 13.4255 11.8749 13.5953C11.7051 13.765 11.4749 13.8604 11.2348 13.8604C10.9947 13.8604 10.7645 13.765 10.5947 13.5953C10.425 13.4255 10.3296 13.1953 10.3296 12.9552C10.3296 12.7151 10.425 12.4849 10.5947 12.3151C10.7645 12.1453 10.9947 12.05 11.2348 12.05C11.4749 12.05 11.7051 12.1453 11.8749 12.3151C12.0446 12.4849 12.14 12.7151 12.14 12.9552Z" fill="#363330"/>
</svg>
