<svg width="17" height="17" viewBox="0 0 17 17" fill="none" xmlns="http://www.w3.org/2000/svg">
<path d="M8.50696 4.5C8.63957 4.5 8.76675 4.55268 8.86052 4.64645C8.95429 4.74022 9.00697 4.8674 9.00697 5.00002V8.00011H12.0071C12.1397 8.00011 12.2669 8.05279 12.3606 8.14656C12.4544 8.24033 12.5071 8.36751 12.5071 8.50012C12.5071 8.63273 12.4544 8.75991 12.3606 8.85369C12.2669 8.94746 12.1397 9.00014 12.0071 9.00014H9.00697V12.0002C9.00697 12.1328 8.95429 12.26 8.86052 12.3538C8.76675 12.4476 8.63957 12.5002 8.50696 12.5002C8.37435 12.5002 8.24716 12.4476 8.15339 12.3538C8.05962 12.26 8.00694 12.1328 8.00694 12.0002V9.00014H5.00685C4.87424 9.00014 4.74706 8.94746 4.65329 8.85369C4.55952 8.75991 4.50684 8.63273 4.50684 8.50012C4.50684 8.36751 4.55952 8.24033 4.65329 8.14656C4.74706 8.05279 4.87424 8.00011 5.00685 8.00011H8.00694V5.00002C8.00694 4.8674 8.05962 4.74022 8.15339 4.64645C8.24716 4.55268 8.37435 4.5 8.50696 4.5Z" fill="#CFCCC9"/>
</svg>
