<svg width="24" height="24" viewBox="0 0 24 24" fill="none" xmlns="http://www.w3.org/2000/svg">
<path d="M23.6405 11.6356C23.6405 11.6356 19.3649 3.79688 12.2387 3.79688C5.11259 3.79688 0.836914 11.6356 0.836914 11.6356C0.836914 11.6356 5.11259 19.4744 12.2387 19.4744C19.3649 19.4744 23.6405 11.6356 23.6405 11.6356ZM2.5087 11.6356C3.19782 10.5883 3.99043 9.61277 4.87458 8.72388C6.70884 6.88676 9.21724 5.2221 12.2387 5.2221C15.2602 5.2221 17.7672 6.88676 19.6043 8.72388C20.4884 9.61277 21.281 10.5883 21.9702 11.6356C21.8875 11.7596 21.7963 11.8964 21.6922 12.0461C21.2148 12.7302 20.5093 13.6423 19.6043 14.5474C17.7672 16.3845 15.2588 18.0491 12.2387 18.0491C9.21724 18.0491 6.71027 16.3845 4.87315 14.5474C3.98901 13.6585 3.1964 12.683 2.50728 11.6356H2.5087Z" fill="white"/>
<path d="M12.2383 8.07366C11.2933 8.07366 10.387 8.44906 9.71882 9.11726C9.05062 9.78547 8.67523 10.6917 8.67523 11.6367C8.67523 12.5817 9.05062 13.488 9.71882 14.1562C10.387 14.8244 11.2933 15.1998 12.2383 15.1998C13.1833 15.1998 14.0896 14.8244 14.7578 14.1562C15.426 13.488 15.8014 12.5817 15.8014 11.6367C15.8014 10.6917 15.426 9.78547 14.7578 9.11726C14.0896 8.44906 13.1833 8.07366 12.2383 8.07366ZM7.25 11.6367C7.25 10.3138 7.77555 9.04496 8.71104 8.10947C9.64652 7.17399 10.9153 6.64844 12.2383 6.64844C13.5613 6.64844 14.8301 7.17399 15.7655 8.10947C16.701 9.04496 17.2266 10.3138 17.2266 11.6367C17.2266 12.9597 16.701 14.2285 15.7655 15.164C14.8301 16.0995 13.5613 16.625 12.2383 16.625C10.9153 16.625 9.64652 16.0995 8.71104 15.164C7.77555 14.2285 7.25 12.9597 7.25 11.6367Z" fill="white"/>
</svg>
