<svg width="31" height="32" viewBox="0 0 31 32" fill="none" xmlns="http://www.w3.org/2000/svg">
<path d="M30.4623 16.1532C30.4623 16.1532 24.7537 5.6875 15.2394 5.6875C5.72517 5.6875 0.0166016 16.1532 0.0166016 16.1532C0.0166016 16.1532 5.72517 26.6189 15.2394 26.6189C24.7537 26.6189 30.4623 16.1532 30.4623 16.1532ZM2.24865 16.1532C3.16871 14.7548 4.22694 13.4525 5.40739 12.2657C7.85636 9.81289 11.2054 7.59035 15.2394 7.59035C19.2735 7.59035 22.6206 9.81289 25.0734 12.2657C26.2538 13.4525 27.3121 14.7548 28.2321 16.1532C28.1218 16.3188 28 16.5014 27.8611 16.7012C27.2236 17.6146 26.2817 18.8324 25.0734 20.0407C22.6206 22.4935 19.2716 24.716 15.2394 24.716C11.2054 24.716 7.85827 22.4935 5.40549 20.0407C4.22504 18.8539 3.16682 17.5516 2.24675 16.1532H2.24865Z" fill="white"/>
<path d="M15.2401 11.395C13.9784 11.395 12.7684 11.8962 11.8763 12.7884C10.9841 13.6805 10.4829 14.8905 10.4829 16.1522C10.4829 17.4139 10.9841 18.6238 11.8763 19.516C12.7684 20.4081 13.9784 20.9093 15.2401 20.9093C16.5017 20.9093 17.7117 20.4081 18.6039 19.516C19.496 18.6238 19.9972 17.4139 19.9972 16.1522C19.9972 14.8905 19.496 13.6805 18.6039 12.7884C17.7117 11.8962 16.5017 11.395 15.2401 11.395ZM8.58008 16.1522C8.58008 14.3858 9.28175 12.6918 10.5307 11.4429C11.7797 10.1939 13.4737 9.49219 15.2401 9.49219C17.0064 9.49219 18.7004 10.1939 19.9494 11.4429C21.1984 12.6918 21.9001 14.3858 21.9001 16.1522C21.9001 17.9185 21.1984 19.6125 19.9494 20.8615C18.7004 22.1105 17.0064 22.8122 15.2401 22.8122C13.4737 22.8122 11.7797 22.1105 10.5307 20.8615C9.28175 19.6125 8.58008 17.9185 8.58008 16.1522Z" fill="white"/>
</svg>
