<svg width="15" height="15" viewBox="0 0 15 15" fill="none" xmlns="http://www.w3.org/2000/svg">
<path d="M8.59714 5.01999C8.59714 4.89995 8.54946 4.78483 8.46458 4.69995C8.3797 4.61507 8.26458 4.56738 8.14454 4.56738C8.0245 4.56738 7.90938 4.61507 7.8245 4.69995C7.73962 4.78483 7.69194 4.89995 7.69194 5.01999V6.37779H6.33413C6.21409 6.37779 6.09897 6.42548 6.01409 6.51036C5.92921 6.59524 5.88152 6.71036 5.88152 6.8304C5.88152 6.95044 5.92921 7.06556 6.01409 7.15044C6.09897 7.23532 6.21409 7.283 6.33413 7.283H7.69194V8.64081C7.69194 8.76085 7.73962 8.87597 7.8245 8.96085C7.90938 9.04573 8.0245 9.09341 8.14454 9.09341C8.26458 9.09341 8.3797 9.04573 8.46458 8.96085C8.54946 8.87597 8.59714 8.76085 8.59714 8.64081V7.283H9.95495C10.075 7.283 10.1901 7.23532 10.275 7.15044C10.3599 7.06556 10.4076 6.95044 10.4076 6.8304C10.4076 6.71036 10.3599 6.59524 10.275 6.51036C10.1901 6.42548 10.075 6.37779 9.95495 6.37779H8.59714V5.01999Z" fill="#363330"/>
<path d="M0.90289 0.946289C0.782852 0.946289 0.667731 0.993974 0.582851 1.07885C0.497972 1.16373 0.450287 1.27885 0.450287 1.39889C0.450287 1.51893 0.497972 1.63405 0.582851 1.71893C0.667731 1.80381 0.782852 1.8515 0.90289 1.8515H1.90767L2.27066 3.30616L3.62665 10.5342C3.64607 10.6379 3.70111 10.7316 3.78227 10.7991C3.86343 10.8665 3.96559 10.9035 4.07111 10.9036H4.97632C4.49617 10.9036 4.03568 11.0943 3.69616 11.4338C3.35664 11.7733 3.1659 12.2338 3.1659 12.714C3.1659 13.1941 3.35664 13.6546 3.69616 13.9941C4.03568 14.3336 4.49617 14.5244 4.97632 14.5244C5.45647 14.5244 5.91695 14.3336 6.25647 13.9941C6.59599 13.6546 6.78673 13.1941 6.78673 12.714C6.78673 12.2338 6.59599 11.7733 6.25647 11.4338C5.91695 11.0943 5.45647 10.9036 4.97632 10.9036H11.3128C10.8326 10.9036 10.3721 11.0943 10.0326 11.4338C9.69309 11.7733 9.50235 12.2338 9.50235 12.714C9.50235 13.1941 9.69309 13.6546 10.0326 13.9941C10.3721 14.3336 10.8326 14.5244 11.3128 14.5244C11.7929 14.5244 12.2534 14.3336 12.5929 13.9941C12.9324 13.6546 13.1232 13.1941 13.1232 12.714C13.1232 12.2338 12.9324 11.7733 12.5929 11.4338C12.2534 11.0943 11.7929 10.9036 11.3128 10.9036H12.218C12.3235 10.9035 12.4257 10.8665 12.5068 10.7991C12.588 10.7316 12.643 10.6379 12.6624 10.5342L14.0202 3.29258C14.0325 3.22726 14.0302 3.16005 14.0135 3.09572C13.9968 3.03139 13.9662 2.97152 13.9237 2.92037C13.8813 2.86921 13.8281 2.82803 13.768 2.79974C13.7079 2.77146 13.6422 2.75676 13.5758 2.7567H3.06633L2.69972 1.28936C2.67529 1.1914 2.61881 1.10443 2.53926 1.04226C2.45971 0.980099 2.36166 0.946317 2.2607 0.946289H0.90289ZM4.44677 9.99835L3.25824 3.66191H13.0308L11.8423 9.99835H4.44677ZM5.88152 12.714C5.88152 12.954 5.78615 13.1843 5.61639 13.354C5.44664 13.5238 5.21639 13.6192 4.97632 13.6192C4.73624 13.6192 4.506 13.5238 4.33624 13.354C4.16648 13.1843 4.07111 12.954 4.07111 12.714C4.07111 12.4739 4.16648 12.2436 4.33624 12.0739C4.506 11.9041 4.73624 11.8088 4.97632 11.8088C5.21639 11.8088 5.44664 11.9041 5.61639 12.0739C5.78615 12.2436 5.88152 12.4739 5.88152 12.714ZM12.218 12.714C12.218 12.954 12.1226 13.1843 11.9528 13.354C11.7831 13.5238 11.5528 13.6192 11.3128 13.6192C11.0727 13.6192 10.8424 13.5238 10.6727 13.354C10.5029 13.1843 10.4076 12.954 10.4076 12.714C10.4076 12.4739 10.5029 12.2436 10.6727 12.0739C10.8424 11.9041 11.0727 11.8088 11.3128 11.8088C11.5528 11.8088 11.7831 11.9041 11.9528 12.0739C12.1226 12.2436 12.218 12.4739 12.218 12.714Z" fill="#363330"/>
</svg>
