<svg width="15" height="16" viewBox="0 0 15 16" fill="none" xmlns="http://www.w3.org/2000/svg">
<path d="M8.51917 5.63327C8.51917 5.51323 8.47148 5.39811 8.3866 5.31323C8.30173 5.22835 8.1866 5.18066 8.06657 5.18066C7.94653 5.18066 7.83141 5.22835 7.74653 5.31323C7.66165 5.39811 7.61396 5.51323 7.61396 5.63327V6.99108H6.25615C6.13612 6.99108 6.02099 7.03876 5.93612 7.12364C5.85124 7.20852 5.80355 7.32364 5.80355 7.44368C5.80355 7.56372 5.85124 7.67884 5.93612 7.76372C6.02099 7.8486 6.13612 7.89628 6.25615 7.89628H7.61396V9.25409C7.61396 9.37413 7.66165 9.48925 7.74653 9.57413C7.83141 9.65901 7.94653 9.70669 8.06657 9.70669C8.1866 9.70669 8.30173 9.65901 8.3866 9.57413C8.47148 9.48925 8.51917 9.37413 8.51917 9.25409V7.89628H9.87698C9.99702 7.89628 10.1121 7.8486 10.197 7.76372C10.2819 7.67884 10.3296 7.56372 10.3296 7.44368C10.3296 7.32364 10.2819 7.20852 10.197 7.12364C10.1121 7.03876 9.99702 6.99108 9.87698 6.99108H8.51917V5.63327Z" fill="#363330"/>
<path d="M0.824917 1.55957C0.70488 1.55957 0.589758 1.60726 0.504879 1.69213C0.419999 1.77701 0.372314 1.89214 0.372314 2.01217C0.372314 2.13221 0.419999 2.24733 0.504879 2.33221C0.589758 2.41709 0.70488 2.46478 0.824917 2.46478H1.8297L2.19268 3.91944L3.54868 11.1475C3.5681 11.2512 3.62314 11.3449 3.7043 11.4123C3.78545 11.4798 3.88762 11.5167 3.99314 11.5168H4.89834C4.41819 11.5168 3.95771 11.7076 3.61819 12.0471C3.27867 12.3866 3.08793 12.8471 3.08793 13.3272C3.08793 13.8074 3.27867 14.2679 3.61819 14.6074C3.95771 14.9469 4.41819 15.1377 4.89834 15.1377C5.3785 15.1377 5.83898 14.9469 6.1785 14.6074C6.51802 14.2679 6.70876 13.8074 6.70876 13.3272C6.70876 12.8471 6.51802 12.3866 6.1785 12.0471C5.83898 11.7076 5.3785 11.5168 4.89834 11.5168H11.2348C10.7546 11.5168 10.2942 11.7076 9.95463 12.0471C9.61511 12.3866 9.42437 12.8471 9.42437 13.3272C9.42437 13.8074 9.61511 14.2679 9.95463 14.6074C10.2942 14.9469 10.7546 15.1377 11.2348 15.1377C11.7149 15.1377 12.1754 14.9469 12.5149 14.6074C12.8545 14.2679 13.0452 13.8074 13.0452 13.3272C13.0452 12.8471 12.8545 12.3866 12.5149 12.0471C12.1754 11.7076 11.7149 11.5168 11.2348 11.5168H12.14C12.2455 11.5167 12.3477 11.4798 12.4288 11.4123C12.51 11.3449 12.565 11.2512 12.5844 11.1475L13.9423 3.90586C13.9545 3.84054 13.9522 3.77333 13.9355 3.709C13.9188 3.64467 13.8882 3.5848 13.8458 3.53365C13.8033 3.48249 13.7502 3.44131 13.69 3.41303C13.6299 3.38474 13.5643 3.37004 13.4978 3.36998H2.98836L2.62175 1.90264C2.59732 1.80469 2.54084 1.71771 2.46129 1.65554C2.38174 1.59338 2.28369 1.5596 2.18273 1.55957H0.824917ZM4.3688 10.6116L3.18026 4.27519H12.9529L11.7643 10.6116H4.3688ZM5.80355 13.3272C5.80355 13.5673 5.70818 13.7976 5.53842 13.9673C5.36866 14.1371 5.13842 14.2325 4.89834 14.2325C4.65827 14.2325 4.42803 14.1371 4.25827 13.9673C4.08851 13.7976 3.99314 13.5673 3.99314 13.3272C3.99314 13.0872 4.08851 12.8569 4.25827 12.6872C4.42803 12.5174 4.65827 12.422 4.89834 12.422C5.13842 12.422 5.36866 12.5174 5.53842 12.6872C5.70818 12.8569 5.80355 13.0872 5.80355 13.3272ZM12.14 13.3272C12.14 13.5673 12.0446 13.7976 11.8749 13.9673C11.7051 14.1371 11.4749 14.2325 11.2348 14.2325C10.9947 14.2325 10.7645 14.1371 10.5947 13.9673C10.425 13.7976 10.3296 13.5673 10.3296 13.3272C10.3296 13.0872 10.425 12.8569 10.5947 12.6872C10.7645 12.5174 10.9947 12.422 11.2348 12.422C11.4749 12.422 11.7051 12.5174 11.8749 12.6872C12.0446 12.8569 12.14 13.0872 12.14 13.3272Z" fill="#363330"/>
</svg>
