<svg width="16" height="15" viewBox="0 0 16 15" fill="none" xmlns="http://www.w3.org/2000/svg">
<path d="M9.00354 5.39889C9.00354 5.27885 8.95586 5.16373 8.87098 5.07885C8.7861 4.99397 8.67098 4.94629 8.55094 4.94629C8.4309 4.94629 8.31578 4.99397 8.2309 5.07885C8.14602 5.16373 8.09834 5.27885 8.09834 5.39889V6.7567H6.74053C6.62049 6.7567 6.50537 6.80439 6.42049 6.88927C6.33561 6.97415 6.28793 7.08927 6.28793 7.2093C6.28793 7.32934 6.33561 7.44446 6.42049 7.52934C6.50537 7.61422 6.62049 7.66191 6.74053 7.66191H8.09834V9.01972C8.09834 9.13975 8.14602 9.25488 8.2309 9.33976C8.31578 9.42463 8.4309 9.47232 8.55094 9.47232C8.67098 9.47232 8.7861 9.42463 8.87098 9.33976C8.95586 9.25488 9.00354 9.13975 9.00354 9.01972V7.66191H10.3614C10.4814 7.66191 10.5965 7.61422 10.6814 7.52934C10.7663 7.44446 10.814 7.32934 10.814 7.2093C10.814 7.08927 10.7663 6.97415 10.6814 6.88927C10.5965 6.80439 10.4814 6.7567 10.3614 6.7567H9.00354V5.39889Z" fill="#363330"/>
<path d="M1.30929 1.3252C1.18925 1.3252 1.07413 1.37288 0.989254 1.45776C0.904374 1.54264 0.856689 1.65776 0.856689 1.7778C0.856689 1.89784 0.904374 2.01296 0.989254 2.09784C1.07413 2.18272 1.18925 2.2304 1.30929 2.2304H2.31407L2.67706 3.68507L4.03306 10.9131C4.05247 11.0169 4.10752 11.1105 4.18867 11.178C4.26983 11.2454 4.372 11.2824 4.47751 11.2825H5.38272C4.90257 11.2825 4.44208 11.4732 4.10256 11.8127C3.76305 12.1522 3.57231 12.6127 3.57231 13.0929C3.57231 13.573 3.76305 14.0335 4.10256 14.373C4.44208 14.7125 4.90257 14.9033 5.38272 14.9033C5.86287 14.9033 6.32336 14.7125 6.66287 14.373C7.00239 14.0335 7.19313 13.573 7.19313 13.0929C7.19313 12.6127 7.00239 12.1522 6.66287 11.8127C6.32336 11.4732 5.86287 11.2825 5.38272 11.2825H11.7192C11.239 11.2825 10.7785 11.4732 10.439 11.8127C10.0995 12.1522 9.90875 12.6127 9.90875 13.0929C9.90875 13.573 10.0995 14.0335 10.439 14.373C10.7785 14.7125 11.239 14.9033 11.7192 14.9033C12.1993 14.9033 12.6598 14.7125 12.9993 14.373C13.3388 14.0335 13.5296 13.573 13.5296 13.0929C13.5296 12.6127 13.3388 12.1522 12.9993 11.8127C12.6598 11.4732 12.1993 11.2825 11.7192 11.2825H12.6244C12.7299 11.2824 12.8321 11.2454 12.9132 11.178C12.9944 11.1105 13.0494 11.0169 13.0688 10.9131L14.4266 3.67149C14.4389 3.60617 14.4366 3.53895 14.4199 3.47462C14.4032 3.41029 14.3726 3.35042 14.3301 3.29927C14.2877 3.24812 14.2345 3.20694 14.1744 3.17865C14.1143 3.15036 14.0486 3.13567 13.9822 3.13561H3.47273L3.10613 1.66827C3.08169 1.57031 3.02521 1.48333 2.94566 1.42117C2.86611 1.35901 2.76806 1.32522 2.6671 1.3252H1.30929ZM4.85317 10.3773L3.66464 4.04081H13.4372L12.2487 10.3773H4.85317ZM6.28793 13.0929C6.28793 13.3329 6.19256 13.5632 6.0228 13.733C5.85304 13.9027 5.6228 13.9981 5.38272 13.9981C5.14264 13.9981 4.9124 13.9027 4.74264 13.733C4.57288 13.5632 4.47751 13.3329 4.47751 13.0929C4.47751 12.8528 4.57288 12.6226 4.74264 12.4528C4.9124 12.283 5.14264 12.1877 5.38272 12.1877C5.6228 12.1877 5.85304 12.283 6.0228 12.4528C6.19256 12.6226 6.28793 12.8528 6.28793 13.0929ZM12.6244 13.0929C12.6244 13.3329 12.529 13.5632 12.3592 13.733C12.1895 13.9027 11.9592 13.9981 11.7192 13.9981C11.4791 13.9981 11.2488 13.9027 11.0791 13.733C10.9093 13.5632 10.814 13.3329 10.814 13.0929C10.814 12.8528 10.9093 12.6226 11.0791 12.4528C11.2488 12.283 11.4791 12.1877 11.7192 12.1877C11.9592 12.1877 12.1895 12.283 12.3592 12.4528C12.529 12.6226 12.6244 12.8528 12.6244 13.0929Z" fill="#363330"/>
</svg>
