<svg width="15" height="16" viewBox="0 0 15 16" fill="none" xmlns="http://www.w3.org/2000/svg">
<path d="M8.547 5.67233C8.547 5.55229 8.49932 5.43717 8.41444 5.35229C8.32956 5.26741 8.21444 5.21973 8.0944 5.21973C7.97436 5.21973 7.85924 5.26741 7.77436 5.35229C7.68948 5.43717 7.64179 5.55229 7.64179 5.67233V7.03014H6.28399C6.16395 7.03014 6.04883 7.07782 5.96395 7.1627C5.87907 7.24758 5.83138 7.3627 5.83138 7.48274C5.83138 7.60278 5.87907 7.7179 5.96395 7.80278C6.04883 7.88766 6.16395 7.93534 6.28399 7.93534H7.64179V9.29315C7.64179 9.41319 7.68948 9.52831 7.77436 9.61319C7.85924 9.69807 7.97436 9.74576 8.0944 9.74576C8.21444 9.74576 8.32956 9.69807 8.41444 9.61319C8.49932 9.52831 8.547 9.41319 8.547 9.29315V7.93534H9.90481C10.0248 7.93534 10.14 7.88766 10.2248 7.80278C10.3097 7.7179 10.3574 7.60278 10.3574 7.48274C10.3574 7.3627 10.3097 7.24758 10.2248 7.1627C10.14 7.07782 10.0248 7.03014 9.90481 7.03014H8.547V5.67233Z" fill="#363330"/>
<path d="M0.852749 1.59863C0.732712 1.59863 0.61759 1.64632 0.532711 1.7312C0.447831 1.81608 0.400146 1.9312 0.400146 2.05124C0.400146 2.17127 0.447831 2.28639 0.532711 2.37127C0.61759 2.45615 0.732712 2.50384 0.852749 2.50384H1.85753L2.22052 3.9585L3.57651 11.1866C3.59593 11.2903 3.65097 11.384 3.73213 11.4514C3.81328 11.5188 3.91545 11.5558 4.02097 11.5559H4.92618C4.44603 11.5559 3.98554 11.7466 3.64602 12.0862C3.3065 12.4257 3.11576 12.8862 3.11576 13.3663C3.11576 13.8465 3.3065 14.3069 3.64602 14.6465C3.98554 14.986 4.44603 15.1767 4.92618 15.1767C5.40633 15.1767 5.86681 14.986 6.20633 14.6465C6.54585 14.3069 6.73659 13.8465 6.73659 13.3663C6.73659 12.8862 6.54585 12.4257 6.20633 12.0862C5.86681 11.7466 5.40633 11.5559 4.92618 11.5559H11.2626C10.7825 11.5559 10.322 11.7466 9.98246 12.0862C9.64295 12.4257 9.45221 12.8862 9.45221 13.3663C9.45221 13.8465 9.64295 14.3069 9.98246 14.6465C10.322 14.986 10.7825 15.1767 11.2626 15.1767C11.7428 15.1767 12.2033 14.986 12.5428 14.6465C12.8823 14.3069 13.073 13.8465 13.073 13.3663C13.073 12.8862 12.8823 12.4257 12.5428 12.0862C12.2033 11.7466 11.7428 11.5559 11.2626 11.5559H12.1678C12.2733 11.5558 12.3755 11.5188 12.4567 11.4514C12.5378 11.384 12.5929 11.2903 12.6123 11.1866L13.9701 3.94493C13.9823 3.8796 13.98 3.81239 13.9633 3.74806C13.9467 3.68373 13.916 3.62386 13.8736 3.57271C13.8312 3.52156 13.778 3.48037 13.7179 3.45209C13.6577 3.4238 13.5921 3.40911 13.5256 3.40904H3.01619L2.64958 1.94171C2.62515 1.84375 2.56867 1.75677 2.48912 1.69461C2.40957 1.63244 2.31152 1.59866 2.21056 1.59863H0.852749ZM4.39663 10.6507L3.2081 4.31425H12.9807L11.7922 10.6507H4.39663ZM5.83138 13.3663C5.83138 13.6064 5.73601 13.8366 5.56625 14.0064C5.39649 14.1761 5.16625 14.2715 4.92618 14.2715C4.6861 14.2715 4.45586 14.1761 4.2861 14.0064C4.11634 13.8366 4.02097 13.6064 4.02097 13.3663C4.02097 13.1262 4.11634 12.896 4.2861 12.7262C4.45586 12.5565 4.6861 12.4611 4.92618 12.4611C5.16625 12.4611 5.39649 12.5565 5.56625 12.7262C5.73601 12.896 5.83138 13.1262 5.83138 13.3663ZM12.1678 13.3663C12.1678 13.6064 12.0725 13.8366 11.9027 14.0064C11.7329 14.1761 11.5027 14.2715 11.2626 14.2715C11.0225 14.2715 10.7923 14.1761 10.6225 14.0064C10.4528 13.8366 10.3574 13.6064 10.3574 13.3663C10.3574 13.1262 10.4528 12.896 10.6225 12.7262C10.7923 12.5565 11.0225 12.4611 11.2626 12.4611C11.5027 12.4611 11.7329 12.5565 11.9027 12.7262C12.0725 12.896 12.1678 13.1262 12.1678 13.3663Z" fill="#363330"/>
</svg>
