<svg width="16" height="16" viewBox="0 0 16 16" fill="none" xmlns="http://www.w3.org/2000/svg">
<path d="M8.92997 5.75534C8.92997 5.6353 8.88229 5.52018 8.79741 5.4353C8.71253 5.35042 8.59741 5.30273 8.47737 5.30273C8.35733 5.30273 8.24221 5.35042 8.15733 5.4353C8.07245 5.52018 8.02477 5.6353 8.02477 5.75534V7.11315H6.66696C6.54692 7.11315 6.4318 7.16083 6.34692 7.24571C6.26204 7.33059 6.21436 7.44571 6.21436 7.56575C6.21436 7.68579 6.26204 7.80091 6.34692 7.88579C6.4318 7.97067 6.54692 8.01835 6.66696 8.01835H8.02477V9.37616C8.02477 9.4962 8.07245 9.61132 8.15733 9.6962C8.24221 9.78108 8.35733 9.82876 8.47737 9.82876C8.59741 9.82876 8.71253 9.78108 8.79741 9.6962C8.88229 9.61132 8.92997 9.4962 8.92997 9.37616V8.01835H10.2878C10.4078 8.01835 10.5229 7.97067 10.6078 7.88579C10.6927 7.80091 10.7404 7.68579 10.7404 7.56575C10.7404 7.44571 10.6927 7.33059 10.6078 7.24571C10.5229 7.16083 10.4078 7.11315 10.2878 7.11315H8.92997V5.75534Z" fill="#363330"/>
<path d="M1.23568 1.68164C1.11565 1.68164 1.00052 1.72933 0.915645 1.8142C0.830766 1.89908 0.783081 2.01421 0.783081 2.13424C0.783081 2.25428 0.830766 2.3694 0.915645 2.45428C1.00052 2.53916 1.11565 2.58685 1.23568 2.58685H2.24046L2.60345 4.04151L3.95945 11.2696C3.97886 11.3733 4.03391 11.467 4.11506 11.5344C4.19622 11.6018 4.29839 11.6388 4.40391 11.6389H5.30911C4.82896 11.6389 4.36847 11.8296 4.02896 12.1692C3.68944 12.5087 3.4987 12.9692 3.4987 13.4493C3.4987 13.9295 3.68944 14.39 4.02896 14.7295C4.36847 15.069 4.82896 15.2597 5.30911 15.2597C5.78926 15.2597 6.24975 15.069 6.58927 14.7295C6.92878 14.39 7.11952 13.9295 7.11952 13.4493C7.11952 12.9692 6.92878 12.5087 6.58927 12.1692C6.24975 11.8296 5.78926 11.6389 5.30911 11.6389H11.6456C11.1654 11.6389 10.7049 11.8296 10.3654 12.1692C10.0259 12.5087 9.83514 12.9692 9.83514 13.4493C9.83514 13.9295 10.0259 14.39 10.3654 14.7295C10.7049 15.069 11.1654 15.2597 11.6456 15.2597C12.1257 15.2597 12.5862 15.069 12.9257 14.7295C13.2652 14.39 13.456 13.9295 13.456 13.4493C13.456 12.9692 13.2652 12.5087 12.9257 12.1692C12.5862 11.8296 12.1257 11.6389 11.6456 11.6389H12.5508C12.6563 11.6388 12.7584 11.6018 12.8396 11.5344C12.9208 11.467 12.9758 11.3733 12.9952 11.2696L14.353 4.02793C14.3653 3.96261 14.3629 3.8954 14.3463 3.83107C14.3296 3.76674 14.2989 3.70687 14.2565 3.65572C14.2141 3.60456 14.1609 3.56338 14.1008 3.5351C14.0407 3.50681 13.975 3.49211 13.9086 3.49205L3.39913 3.49205L3.03252 2.02471C3.00809 1.92676 2.9516 1.83978 2.87205 1.77761C2.7925 1.71545 2.69445 1.68167 2.59349 1.68164H1.23568ZM4.77957 10.7337L3.59103 4.39726H13.3636L12.1751 10.7337H4.77957ZM6.21432 13.4493C6.21432 13.6894 6.11895 13.9196 5.94919 14.0894C5.77943 14.2592 5.54919 14.3545 5.30911 14.3545C5.06904 14.3545 4.83879 14.2592 4.66903 14.0894C4.49927 13.9196 4.40391 13.6894 4.40391 13.4493C4.40391 13.2092 4.49927 12.979 4.66903 12.8092C4.83879 12.6395 5.06904 12.5441 5.30911 12.5441C5.54919 12.5441 5.77943 12.6395 5.94919 12.8092C6.11895 12.979 6.21432 13.2092 6.21432 13.4493ZM12.5508 13.4493C12.5508 13.6894 12.4554 13.9196 12.2856 14.0894C12.1159 14.2592 11.8856 14.3545 11.6456 14.3545C11.4055 14.3545 11.1752 14.2592 11.0055 14.0894C10.8357 13.9196 10.7403 13.6894 10.7403 13.4493C10.7403 13.2092 10.8357 12.979 11.0055 12.8092C11.1752 12.6395 11.4055 12.5441 11.6456 12.5441C11.8856 12.5441 12.1159 12.6395 12.2856 12.8092C12.4554 12.979 12.5508 13.2092 12.5508 13.4493Z" fill="#363330"/>
</svg>
