<svg width="30" height="34" viewBox="0 0 30 34" fill="none" xmlns="http://www.w3.org/2000/svg">
<path d="M26.9409 29.1027C26.7045 28.3291 26.3821 27.4696 25.9953 26.61C25.6085 25.7505 25.1573 24.8694 24.663 23.9884C24.5986 24.0958 24.5341 24.2248 24.4481 24.3322C24.3837 24.4397 24.2977 24.5686 24.2333 24.676C24.1473 24.7835 24.0828 24.8909 23.9969 24.9984C23.9109 25.1058 23.825 25.2133 23.739 25.3207L23.7175 25.3422L23.696 25.3637L23.6745 25.3852L23.6531 25.4067L23.5671 25.4926C23.6316 25.686 23.7175 25.9224 23.825 26.1803C23.9109 26.4381 24.0184 26.7175 24.1043 26.9753C24.1903 27.2332 24.2547 27.4911 24.2762 27.6845C24.2977 27.8779 24.2977 28.0498 24.2118 28.1143C24.1903 28.1357 24.1688 28.1572 24.1258 28.1787C24.1043 28.2002 24.0613 28.2217 24.0184 28.2217C23.9754 28.2432 23.9539 28.2432 23.9109 28.2432C23.8679 28.2432 23.825 28.2432 23.782 28.2432C23.7175 28.2432 23.6316 28.2217 23.5456 28.2217C23.4597 28.2002 23.3737 28.1787 23.2877 28.1572C23.2018 28.1357 23.0943 28.0928 23.0084 28.0498C22.9009 28.0068 22.7935 27.9638 22.6861 27.9209C22.5571 27.8564 22.4067 27.7919 22.2563 27.706C22.1059 27.62 21.9554 27.5341 21.805 27.4481C21.6546 27.3621 21.4827 27.2762 21.3323 27.1687C21.1603 27.0613 21.0099 26.9753 20.838 26.8679C21.4827 26.2232 22.1059 25.5141 22.6646 24.7835C23.2233 24.0314 23.739 23.2578 24.1903 22.4412C24.6415 21.6246 25.0283 20.7866 25.3507 19.9055C25.673 19.0459 25.9309 18.1434 26.1028 17.2409C26.5111 15.1994 26.4896 13.2869 26.1028 11.5893C25.7375 9.91317 25.0283 8.43044 24.0399 7.24855C23.0729 6.06666 21.848 5.16412 20.4297 4.58392C19.0329 4.00372 17.4213 3.76735 15.7022 3.87479C14.5633 3.96075 13.4243 4.19712 12.3284 4.56244C11.2325 4.92775 10.1795 5.42199 9.16954 6.02368C8.15956 6.62537 7.19256 7.3345 6.31152 8.15108C5.40899 8.94617 4.59241 9.8487 3.8403 10.8157C3.6469 10.4504 3.47499 10.0851 3.34605 9.78424C3.21712 9.4619 3.10967 9.18255 3.0667 8.92468C3.00223 8.66681 2.98074 8.45193 3.00223 8.25853C3.02372 8.06513 3.08819 7.9147 3.17414 7.80726C3.19563 7.76428 3.23861 7.74279 3.30307 7.69981C3.34605 7.65684 3.41052 7.63535 3.47499 7.61386C3.53945 7.59237 3.62541 7.57088 3.71136 7.54939C3.79732 7.5279 3.88327 7.5279 3.96923 7.50641C4.07667 7.50641 4.18412 7.50641 4.29156 7.5279C4.39901 7.54939 4.50645 7.57088 4.63539 7.61386C4.74283 7.65684 4.87176 7.69981 4.97921 7.78577C5.08665 7.85024 5.21559 7.93619 5.32303 8.04364C5.43048 7.9147 5.55941 7.78577 5.66685 7.65684C5.79579 7.5279 5.90323 7.42046 6.03216 7.29153C6.1611 7.18408 6.29003 7.05515 6.41896 6.9477C6.5479 6.84026 6.69832 6.73281 6.84874 6.62537C6.87023 6.62537 6.87023 6.60388 6.89172 6.60388C6.91321 6.60388 6.91321 6.58239 6.9347 6.58239C6.95619 6.58239 6.95619 6.5609 6.97768 6.5609C6.99916 6.5609 6.99916 6.53941 7.02065 6.53941C6.76279 6.30304 6.48343 6.10964 6.20407 5.95921C5.92472 5.80879 5.62388 5.67986 5.32303 5.5939C5.02219 5.50795 4.72134 5.44348 4.4205 5.42199C4.11965 5.4005 3.8403 5.37901 3.56094 5.4005C3.36754 5.42199 3.19563 5.44348 3.02372 5.46497C2.85181 5.50795 2.70139 5.55093 2.55096 5.5939C2.40054 5.63688 2.27161 5.70135 2.16416 5.7873C2.05672 5.85177 1.94927 5.93772 1.88481 6.02368C1.64843 6.28155 1.5195 6.60388 1.45503 6.99068C1.39056 7.37748 1.41205 7.85024 1.5195 8.36597C1.62694 8.8817 1.79885 9.4619 2.03523 10.1066C2.2931 10.7297 2.59394 11.4174 3.00223 12.148C2.74436 12.5563 2.4865 12.9646 2.25012 13.3944C2.01374 13.8241 1.79885 14.2539 1.60545 14.7052C1.41205 15.1565 1.21865 15.6077 1.06823 16.0805C0.896318 16.5532 0.767385 17.026 0.638452 17.4987C0.165696 19.3253 0.0152739 21.0874 0.165696 22.7205C0.316118 24.3752 0.788874 25.8794 1.54099 27.1902C2.2931 28.5225 3.34605 29.6185 4.63539 30.4351C5.94621 31.2516 7.5149 31.7674 9.29848 31.8748C9.8357 31.8963 10.3514 31.8963 10.8887 31.8533C11.4259 31.8103 11.9631 31.7459 12.5003 31.6384C13.0375 31.531 13.5748 31.3806 14.112 31.2087C14.6492 31.0367 15.1649 30.8219 15.7022 30.5855L14.4343 28.2002C14.069 28.3506 13.7037 28.4796 13.3169 28.587C12.9516 28.6945 12.5648 28.7804 12.1995 28.8449C11.8342 28.9093 11.4474 28.9523 11.0821 28.9953C10.7167 29.0168 10.3299 29.0168 9.96463 29.0168C8.52488 28.9523 7.25703 28.5655 6.20407 27.9209C5.15112 27.2762 4.29156 26.3951 3.66839 25.3422C3.04521 24.2892 2.65841 23.0644 2.50799 21.7321C2.35756 20.4212 2.46501 18.9815 2.85181 17.4987C3.23861 16.016 3.86179 14.6192 4.65687 13.3299C5.45196 12.0621 6.44045 10.9017 7.53639 9.91317C8.63232 8.92468 9.85719 8.1081 11.1465 7.50641C12.4573 6.90473 13.8326 6.53941 15.2079 6.45346C16.6047 6.3675 17.894 6.60388 19.0329 7.07664C20.1719 7.57088 21.1603 8.32299 21.9125 9.2685C22.6861 10.2355 23.2448 11.4389 23.5241 12.7927C23.8035 14.168 23.8035 15.6937 23.4811 17.3268C23.3307 18.036 23.1373 18.7451 22.8795 19.4327C22.6216 20.1204 22.3207 20.7865 21.9554 21.4312C21.6116 22.0759 21.2033 22.6991 20.7521 23.2793C20.3223 23.8595 19.828 24.4182 19.3338 24.9339C19.3338 24.762 19.3553 24.5901 19.3553 24.3967C19.3553 24.2248 19.3768 24.0314 19.3768 23.8809C19.3768 23.709 19.3983 23.5586 19.3983 23.4297C19.3983 23.3007 19.3983 23.1933 19.3983 23.1288C19.3983 23.0644 19.3983 22.9999 19.3768 22.9569C19.3553 22.9139 19.3553 22.871 19.3338 22.8495C19.3123 22.828 19.2908 22.8065 19.2693 22.8065C19.2478 22.785 19.2049 22.785 19.1834 22.785C19.1619 22.785 19.1404 22.785 19.1189 22.785C19.0974 22.785 19.0759 22.785 19.0544 22.8065C19.0329 22.8065 19.0329 22.828 19.0115 22.828H18.99L14.5633 24.2677C14.5633 24.2677 14.5203 24.2892 14.4773 24.3107C14.4343 24.3322 14.3699 24.3752 14.3269 24.4182C14.2839 24.4826 14.2409 24.5471 14.2194 24.6331C14.2194 24.719 14.2409 24.8479 14.3054 24.9984C14.3054 24.9984 14.3054 25.0199 14.3269 25.0199C14.3269 25.0199 14.3269 25.0413 14.3484 25.0413C14.3484 25.0413 14.3484 25.0628 14.3699 25.0628C14.3699 25.0628 14.3699 25.0843 14.3913 25.0843C14.5847 25.4926 14.8641 26.0298 15.2079 26.6315C15.5303 27.2547 15.8956 27.9423 16.2609 28.6085C16.6262 29.2961 16.9915 29.9623 17.3138 30.5425C17.6362 31.1227 17.894 31.6169 18.0659 31.9178C18.0874 31.9393 18.0874 31.9608 18.1089 32.0037C18.1304 32.0252 18.1304 32.0467 18.1519 32.0682C18.1734 32.0897 18.1734 32.1112 18.1734 32.1327C18.1734 32.1542 18.1949 32.1757 18.1949 32.1757C18.2379 32.2616 18.2808 32.3261 18.3238 32.3691C18.3668 32.4335 18.4098 32.4765 18.4313 32.498C18.4742 32.541 18.4957 32.5625 18.5387 32.5839C18.5817 32.6054 18.6032 32.6054 18.6247 32.6054C18.6891 32.6054 18.7321 32.5839 18.7751 32.5625C18.8181 32.541 18.861 32.4765 18.8825 32.4335C18.904 32.3905 18.947 32.3261 18.9685 32.2831C18.99 32.2401 18.99 32.1757 19.0115 32.1327C19.0115 32.1112 19.0115 32.1112 19.0115 32.0897C19.0115 32.0682 19.0115 32.0467 19.0115 32.0037C19.0115 31.9823 19.0115 31.9393 19.0115 31.9178C19.0115 31.8748 19.0115 31.8533 19.0115 31.8104C19.0115 31.6599 19.0329 31.488 19.0329 31.3161C19.0329 31.1442 19.0544 30.9508 19.0544 30.7789C19.0544 30.607 19.0759 30.4565 19.0759 30.3491C19.0759 30.2417 19.0974 30.1557 19.0974 30.1557C19.6991 30.521 20.3223 30.8648 20.9025 31.2087C21.5042 31.531 22.0844 31.8533 22.6646 32.1112C23.2233 32.3691 23.782 32.6054 24.2762 32.7559C24.7705 32.9278 25.2432 33.0137 25.63 33.0567C25.6945 33.0567 25.7375 33.0567 25.8019 33.0567C25.8449 33.0567 25.9094 33.0567 25.9524 33.0567C25.9953 33.0567 26.0598 33.0567 26.1028 33.0352C26.1458 33.0352 26.1887 33.0137 26.2532 33.0137C26.3177 32.9922 26.3821 32.9922 26.4466 32.9707C26.5111 32.9493 26.5755 32.9278 26.64 32.8848C26.7045 32.8633 26.7475 32.8203 26.8119 32.7773C26.8549 32.7344 26.9194 32.6914 26.9623 32.6484C27.2417 32.3476 27.3706 31.8748 27.3706 31.2731C27.3706 30.6929 27.2202 29.9838 27.0053 29.1887L26.9409 29.1027Z" fill="#929392"/>
<path d="M10.9315 13.9969C11.2539 13.9969 11.4902 14.0829 11.6836 14.2548C11.877 14.4267 11.963 14.6631 11.963 14.9854C11.963 15.3077 11.8556 15.5656 11.6622 15.7375C11.4473 15.9094 11.1894 16.0169 10.8456 16.0169C10.072 16.0169 9.68518 15.673 9.68518 15.0069H8.54626V15.0928C8.54626 15.716 8.76115 16.1888 9.16944 16.5111C9.57773 16.8549 10.1364 17.0054 10.8456 17.0054C11.4902 17.0054 12.0275 16.8334 12.4787 16.4681C12.93 16.1243 13.1449 15.6086 13.1449 14.9854C13.1449 14.7705 13.1019 14.5556 13.0374 14.3622C12.973 14.1688 12.887 14.0184 12.8226 13.911C12.7366 13.8035 12.6506 13.6961 12.5432 13.6316C12.4358 13.5456 12.3498 13.5027 12.3068 13.4812C12.2638 13.4597 12.2209 13.4382 12.1994 13.4382L12.2853 13.3952C12.3498 13.3737 12.4143 13.3093 12.5002 13.2233C12.5862 13.1374 12.6721 13.0514 12.7366 12.944C12.8226 12.8365 12.887 12.6861 12.9515 12.5142C13.016 12.3423 13.0374 12.1489 13.0374 11.9555C13.0374 11.3753 12.844 10.924 12.4572 10.6017C12.0704 10.2793 11.5332 10.1074 10.8671 10.1074C10.2009 10.1074 9.68518 10.2578 9.27689 10.6017C8.8686 10.924 8.6752 11.3753 8.6752 11.9555V12.0199H9.79262C9.79262 11.6976 9.90006 11.4612 10.072 11.3108C10.2654 11.1604 10.5232 11.0744 10.8671 11.0744C11.2109 11.0744 11.4902 11.1604 11.6622 11.3108C11.8341 11.4827 11.9415 11.6976 11.9415 11.977C11.9415 12.2778 11.8556 12.5357 11.6622 12.7076C11.4688 12.8795 11.2324 12.9654 10.9315 12.9654H9.79262V13.9539L10.996 13.9754L10.9315 13.9969ZM18.5601 16.9194V15.8664H15.8095L17.3997 14.2978C17.8295 13.8895 18.1303 13.5027 18.3022 13.1588C18.4741 12.815 18.5601 12.4497 18.5601 12.0844C18.5601 11.4827 18.3667 10.9885 18.0014 10.6661C17.6146 10.3223 17.0988 10.1504 16.4112 10.1504C15.7236 10.1504 15.1863 10.3223 14.778 10.6661C14.3698 11.01 14.1764 11.4827 14.1764 12.1059V12.1704H15.3153C15.3153 11.5042 15.6591 11.1604 16.3897 11.1604C17.0774 11.1604 17.4212 11.4827 17.4212 12.1274C17.4212 12.3852 17.3567 12.6216 17.2493 12.858C17.1418 13.0944 16.9269 13.3522 16.6476 13.6316L14.3268 15.8879V16.9409H18.6031L18.5601 16.9194Z" fill="#929392"/>
<path d="M10.0508 22.5714V17.5215H9.21272V21.368L7.21425 17.5215H5.9679V22.5714H6.80596V18.7464L8.82592 22.5714H10.0508ZM11.8129 22.0986C11.8129 21.9697 11.7699 21.8837 11.6839 21.7978C11.598 21.7333 11.4905 21.6903 11.3401 21.6903C11.2112 21.6903 11.1037 21.7333 11.0178 21.7978C10.9318 21.8622 10.8889 21.9697 10.8889 22.0986V22.249C10.8889 22.378 10.9318 22.4639 11.0178 22.5499C11.1037 22.6144 11.2112 22.6573 11.3616 22.6573C11.512 22.6573 11.6195 22.6144 11.7054 22.5499C11.7914 22.4854 11.8344 22.378 11.8344 22.249L11.8129 22.0986ZM15.6164 21.2176H14.8213C14.8213 21.6903 14.5635 21.9267 14.0692 21.9267C13.575 21.9267 13.3386 21.6688 13.3386 21.1746V20.4225C13.3386 19.9068 13.575 19.6704 14.0692 19.6704C14.5635 19.6704 14.8213 19.9068 14.8213 20.3795H15.6164V20.315C15.6164 19.8853 15.4875 19.5414 15.2081 19.3051C14.9288 19.0687 14.5635 18.9398 14.0907 18.9398C13.6179 18.9398 13.2526 19.0687 12.9733 19.3051C12.6939 19.5629 12.5435 19.9068 12.5435 20.3365V21.2176C12.5435 21.6474 12.6939 21.9912 12.9733 22.249C13.2526 22.4854 13.6179 22.6144 14.0907 22.6144C14.5635 22.6144 14.9503 22.5069 15.2296 22.2705C15.509 22.0342 15.6594 21.6903 15.6594 21.2606L15.6379 21.2176H15.6164ZM21.2895 22.5714V20.0572C21.2895 19.7134 21.2035 19.4555 21.0316 19.2621C20.8597 19.0687 20.6018 18.9827 20.301 18.9827C20.0216 18.9827 19.7423 19.0687 19.4844 19.2191L19.0976 19.4555C18.9472 19.1332 18.6678 18.9827 18.2595 18.9827C18.0017 18.9827 17.7438 19.0472 17.5074 19.1976L17.1851 19.391V19.0257H16.3685V22.5929H17.1851V20.1431L17.6149 19.8853C17.7868 19.7993 17.9372 19.7563 18.0447 19.7563C18.3025 19.7563 18.41 19.9068 18.41 20.2076V22.6144H19.2265V20.1646L19.6563 19.9068C19.8282 19.8208 19.9787 19.7563 20.0861 19.7563C20.344 19.7563 20.4729 19.9068 20.4729 20.1861V22.6144H21.2895V22.5714Z" fill="#929392"/>
<path d="M23.5671 13.0729C26.9623 13.0729 29.7344 10.3223 29.7344 6.90559C29.7344 3.48886 26.9838 0.738281 23.5671 0.738281C20.1504 0.738281 17.3998 3.48886 17.3998 6.90559C17.3998 10.3008 20.1504 13.0729 23.5671 13.0729Z" fill="#929392"/>
<path d="M23.5671 13.0729C26.9623 13.0729 29.7344 10.3223 29.7344 6.90559C29.7344 3.48886 26.9838 0.738281 23.5671 0.738281C20.1504 0.738281 17.3998 3.48886 17.3998 6.90559C17.3998 10.3008 20.1504 13.0729 23.5671 13.0729Z" stroke="white" stroke-width="0.623178"/>
<path d="M25.7589 10.4291V9.76296H24.2547V3.875H23.4811C23.0084 4.30478 22.5571 4.60562 22.1058 4.75604V5.46518C22.6001 5.37922 23.0728 5.12136 23.5026 4.69158V9.78444H21.5901V10.4506H25.7589V10.4291Z" fill="#FEFEFE"/>
</svg>
