<svg width="134" height="13" viewBox="0 0 134 13" fill="none" xmlns="http://www.w3.org/2000/svg">
<path d="M0 12.3893V1.08984H2.09304L8.37807 9.16428V1.08984H10.3915V12.3893H8.29848L2.0164 4.14097V12.3893H0Z" fill="#46B98C"/>
<path d="M18.8953 9.05124H13.4651C13.4651 10.1685 14.376 10.7257 16.2008 10.7257C17.038 10.7257 17.8753 10.6461 18.7125 10.4898V12.1495C17.9814 12.3087 17.038 12.3883 15.8825 12.3883C12.8755 12.3883 11.3691 10.9733 11.3691 8.14327C11.3691 5.44 12.7458 4.08984 15.5022 4.08984C18.2526 4.08984 19.3817 5.74364 18.8923 9.05419L18.8953 9.05124ZM13.4651 7.51831H16.926C16.9997 6.32734 16.4455 5.73185 15.2663 5.73185C14.1579 5.73185 13.5595 6.32734 13.4622 7.51831H13.4651Z" fill="#46B98C"/>
<path d="M19.2734 8.23517C19.2734 5.41693 20.6708 4.00781 23.4625 4.00781C26.2542 4.00781 27.6515 5.41693 27.6515 8.23517C27.6515 11.0475 26.2571 12.4566 23.4625 12.4566C20.6796 12.4566 19.2852 11.0505 19.2734 8.23517ZM23.4625 10.8028C24.8598 10.8028 25.5555 9.93614 25.5555 8.20274C25.5555 6.51357 24.8569 5.66456 23.4625 5.66456C22.0681 5.66456 21.3665 6.51062 21.3665 8.20274C21.3665 9.93614 22.0651 10.8028 23.4625 10.8028Z" fill="#46B98C"/>
<path d="M28.6309 12.3845V1.08203H33.4508C35.5998 1.08203 36.6758 1.98705 36.6758 3.79415C36.6758 5.83413 35.1783 7.09585 32.1802 7.57931L31.8795 6.34707C34.0403 6.00511 35.1193 5.17379 35.1193 3.85605C35.1193 2.81248 34.5179 2.29069 33.3181 2.29069H30.093V12.3815H28.6309V12.3845Z" fill="#46B98C"/>
<path d="M37.3809 8.23761C37.3809 5.47243 38.6986 4.08984 41.3341 4.08984C43.9666 4.08984 45.2873 5.47243 45.2873 8.23761C45.2873 10.9969 43.9695 12.3795 41.3341 12.3795C38.8165 12.3795 37.4988 10.9998 37.3809 8.23761ZM41.3341 11.2003C42.9938 11.2003 43.8221 10.2039 43.8221 8.20518C43.8221 6.25069 42.9938 5.27197 41.3341 5.27197C39.6744 5.27197 38.843 6.25069 38.843 8.20518C38.843 10.2039 39.6744 11.2003 41.3341 11.2003Z" fill="#46B98C"/>
<path d="M46.5781 12.3883V4.08984H47.5657L47.8281 5.14816C48.5562 4.4436 49.3227 4.08984 50.1363 4.08984V5.30735C49.3551 5.30735 48.6594 5.65815 48.0403 6.35977V12.3883H46.5781Z" fill="#46B98C"/>
<path d="M50.8369 8.23761C50.8369 5.47243 52.1546 4.08984 54.7901 4.08984C57.4226 4.08984 58.7404 5.47243 58.7404 8.23761C58.7404 10.9969 57.4226 12.3795 54.7901 12.3795C52.2726 12.3795 50.9548 10.9998 50.8369 8.23761ZM54.7901 11.2003C56.4498 11.2003 57.2782 10.2039 57.2782 8.20518C57.2782 6.25069 56.4498 5.27197 54.7901 5.27197C53.1304 5.27197 52.2991 6.25069 52.2991 8.20518C52.2991 10.2039 53.1304 11.2003 54.7901 11.2003Z" fill="#46B98C"/>
<path d="M60.0376 11.9923V10.7277C60.9603 11.0431 61.9184 11.2023 62.9148 11.2023C64.2384 11.2023 64.8988 10.8073 64.8988 10.0172C64.8988 9.28022 64.4625 8.90878 63.5958 8.90878H62.4107C60.5682 8.90878 59.6455 8.0922 59.6455 6.45904C59.6455 4.87894 60.8483 4.08594 63.2567 4.08594C64.1411 4.08594 65.0462 4.2186 65.9659 4.48096V5.74563C65.0432 5.4302 64.1411 5.27101 63.2567 5.27101C61.7179 5.27101 60.9485 5.66604 60.9485 6.45609C60.9485 7.19308 61.4349 7.56157 62.4107 7.56157H63.5958C65.4382 7.56157 66.3609 8.37815 66.3609 10.0113C66.3609 11.5914 65.2112 12.3815 62.9148 12.3815C61.9184 12.3815 60.9603 12.2488 60.0376 11.9864V11.9923Z" fill="#46B98C"/>
<path d="M95.0294 5.71537C93.8944 5.71537 93.3255 6.11334 93.3255 6.90929C93.3255 7.7524 93.8207 8.17396 94.8142 8.17396C95.7163 8.17396 96.4356 7.98234 96.9692 7.59911V5.85392C96.4503 5.75959 95.8047 5.71242 95.0294 5.71242V5.71537ZM92.0166 6.92992C92.0166 5.41762 93.0218 4.66 95.0294 4.66C95.7693 4.66 96.4149 4.70717 96.9692 4.79855V4.10284C96.9692 3.30099 96.3029 2.90007 94.9675 2.90007C94.204 2.90007 93.4228 3.01504 92.618 3.25383V2.19846C93.4228 1.96557 94.204 1.84766 94.9675 1.84766C97.1726 1.84766 98.2751 2.63476 98.2751 4.20896V9.23227H97.6118L97.0871 8.71343C96.4444 9.05834 95.6809 9.23227 94.8113 9.23227C92.9481 9.23227 92.0166 8.4658 92.0166 6.92992Z" fill="white"/>
<path d="M105.329 9.01515C104.716 9.15666 104.056 9.22741 103.351 9.22741C100.666 9.22741 99.3213 7.948 99.3213 5.39212C99.3213 3.02492 100.666 1.83984 103.351 1.83984C104.059 1.83984 104.719 1.91059 105.329 2.0521V3.10746C104.716 2.96596 104.103 2.89816 103.493 2.89816C101.582 2.89816 100.63 3.72948 100.63 5.39212C100.63 7.24638 101.582 8.16909 103.493 8.16909C104.103 8.16909 104.719 8.10129 105.329 7.95684V9.01221V9.01515Z" fill="white"/>
<path d="M111.161 3.09272C110.713 2.9807 110.159 2.92469 109.498 2.92469C107.918 2.92469 107.131 3.77665 107.131 5.47761C107.131 7.22575 107.877 8.09834 109.369 8.09834C110.047 8.09834 110.645 7.97158 111.158 7.71806V3.09272H111.161ZM112.467 11.8982H111.161V8.87365C110.604 9.10654 110.005 9.22446 109.366 9.22446C107.019 9.22446 105.843 7.98042 105.843 5.48941C105.843 3.05735 107.081 1.83984 109.551 1.83984C110.559 1.83984 111.529 1.94007 112.467 2.14348V11.8953V11.8982Z" fill="white"/>
<path d="M120.264 1.84279V9.22741H119.368L119.141 8.28406C118.242 8.91492 117.334 9.22741 116.426 9.22741C114.719 9.22741 113.867 8.30764 113.867 6.47402V1.83984H115.176V6.4976C115.176 7.59424 115.721 8.13961 116.815 8.13961C117.564 8.13961 118.277 7.83008 118.958 7.20806V1.83984H120.264V1.84279Z" fill="white"/>
<path d="M124.317 5.71537C123.183 5.71537 122.617 6.11334 122.617 6.90929C122.617 7.7524 123.109 8.17396 124.099 8.17396C125.001 8.17396 125.721 7.98234 126.254 7.59911V5.85392C125.735 5.75959 125.09 5.71242 124.315 5.71242L124.317 5.71537ZM121.308 6.92992C121.308 5.41762 122.31 4.66 124.317 4.66C125.054 4.66 125.706 4.70717 126.257 4.79855V4.10284C126.257 3.30099 125.588 2.90007 124.256 2.90007C123.489 2.90007 122.708 3.01504 121.906 3.25383V2.19846C122.708 1.96557 123.489 1.84766 124.256 1.84766C126.461 1.84766 127.566 2.63476 127.566 4.20896V9.23227H126.897L126.372 8.71343C125.73 9.05834 124.969 9.23227 124.099 9.23227C122.236 9.23227 121.305 8.4658 121.305 6.92992H121.308Z" fill="white"/>
<path d="M69.948 5.08349C70.5465 5.08349 71.0565 4.87123 71.478 4.45263C71.8996 4.03107 72.1089 3.51518 72.1089 2.9079C72.1089 2.29178 71.8966 1.77589 71.478 1.36612C71.0565 0.956357 70.5465 0.75 69.9421 0.75C69.3378 0.75 68.8278 0.956357 68.4063 1.37202C67.9847 1.78768 67.7754 2.30357 67.7754 2.91674C67.7754 3.52697 67.9847 4.04286 68.4063 4.46147C68.8278 4.88303 69.3437 5.09233 69.948 5.09233V5.08054V5.08349ZM69.948 4.8447C69.4144 4.8447 68.9664 4.65898 68.6008 4.28459C68.2353 3.91315 68.0525 3.45917 68.0525 2.91969C68.0525 2.37727 68.2353 1.92328 68.6008 1.55774C68.9664 1.19219 69.4144 1.00647 69.948 1.00647C70.4787 1.00647 70.9297 1.18924 71.2952 1.54889C71.6608 1.90854 71.8436 2.36548 71.8436 2.9138C71.8436 3.45622 71.6608 3.9102 71.2952 4.28164C70.9297 4.65309 70.4787 4.83586 69.9539 4.83586L69.948 4.84175V4.8447ZM70.9798 4.10771L70.4521 3.01108C70.5789 2.96096 70.6909 2.87842 70.7794 2.7664C70.8678 2.65438 70.912 2.51582 70.912 2.35663C70.912 2.15617 70.8472 1.99404 70.7115 1.86727C70.5789 1.74051 70.4256 1.6786 70.2428 1.6786H69.1462V4.10477H69.4056V3.05825H70.2045L70.7027 4.10477H70.9798V4.10771ZM69.4056 2.81062V1.92328H70.2369C70.3519 1.92328 70.4521 1.96161 70.5288 2.03825C70.6054 2.1149 70.6437 2.22103 70.6437 2.35958C70.6437 2.49813 70.6054 2.61016 70.5199 2.6927C70.4374 2.77524 70.3372 2.81356 70.2163 2.81356L69.4027 2.80767L69.4056 2.81062Z" fill="#46B98C"/>
<path d="M129.736 4.93999V2.32516H130.65V2.01857H128.498V2.32516H129.394V4.93999H129.736ZM133.598 4.93999V2.01562H133.109L132.354 4.55971L131.62 2.01562H131.113V4.93999H131.425V2.49614L132.159 4.93999H132.531L133.286 2.4814V4.93999H133.598Z" fill="white"/>
</svg>
