<svg width="17" height="17" viewBox="0 0 17 17" fill="none" xmlns="http://www.w3.org/2000/svg">
<path d="M8.50696 4.78516C8.63957 4.78516 8.76675 4.83784 8.86052 4.93161C8.95429 5.02538 9.00697 5.15256 9.00697 5.28517V8.28526H12.0071C12.1397 8.28526 12.2669 8.33794 12.3606 8.43171C12.4544 8.52548 12.5071 8.65267 12.5071 8.78528C12.5071 8.91789 12.4544 9.04507 12.3606 9.13884C12.2669 9.23261 12.1397 9.28529 12.0071 9.28529H9.00697V12.2854C9.00697 12.418 8.95429 12.5452 8.86052 12.6389C8.76675 12.7327 8.63957 12.7854 8.50696 12.7854C8.37435 12.7854 8.24716 12.7327 8.15339 12.6389C8.05962 12.5452 8.00694 12.418 8.00694 12.2854V9.28529H5.00685C4.87424 9.28529 4.74706 9.23261 4.65329 9.13884C4.55952 9.04507 4.50684 8.91789 4.50684 8.78528C4.50684 8.65267 4.55952 8.52548 4.65329 8.43171C4.74706 8.33794 4.87424 8.28526 5.00685 8.28526H8.00694V5.28517C8.00694 5.15256 8.05962 5.02538 8.15339 4.93161C8.24716 4.83784 8.37435 4.78516 8.50696 4.78516Z" fill="#CFCCC9"/>
</svg>
