<svg width="21" height="21" viewBox="0 0 21 21" fill="none" xmlns="http://www.w3.org/2000/svg">
<path d="M10.8625 5.86719C11.0268 5.86719 11.1843 5.93243 11.3004 6.04857C11.4166 6.16471 11.4818 6.32223 11.4818 6.48648V10.2022H15.1975C15.3618 10.2022 15.5193 10.2675 15.6354 10.3836C15.7516 10.4997 15.8168 10.6573 15.8168 10.8215C15.8168 10.9857 15.7516 11.1433 15.6354 11.2594C15.5193 11.3755 15.3618 11.4408 15.1975 11.4408H11.4818V15.1565C11.4818 15.3208 11.4166 15.4783 11.3004 15.5944C11.1843 15.7106 11.0268 15.7758 10.8625 15.7758C10.6983 15.7758 10.5408 15.7106 10.4246 15.5944C10.3085 15.4783 10.2432 15.3208 10.2432 15.1565V11.4408H6.52749C6.36325 11.4408 6.20573 11.3755 6.08959 11.2594C5.97345 11.1433 5.9082 10.9857 5.9082 10.8215C5.9082 10.6573 5.97345 10.4997 6.08959 10.3836C6.20573 10.2675 6.36325 10.2022 6.52749 10.2022H10.2432V6.48648C10.2432 6.32223 10.3085 6.16471 10.4246 6.04857C10.5408 5.93243 10.6983 5.86719 10.8625 5.86719Z" fill="#363330"/>
</svg>
