<svg width="21" height="21" viewBox="0 0 21 21" fill="none" xmlns="http://www.w3.org/2000/svg">
<path d="M10.5881 5.625C10.7523 5.625 10.9099 5.69025 11.026 5.80639C11.1421 5.92253 11.2074 6.08004 11.2074 6.24429V9.96003H14.9231C15.0874 9.96003 15.2449 10.0253 15.361 10.1414C15.4772 10.2576 15.5424 10.4151 15.5424 10.5793C15.5424 10.7436 15.4772 10.9011 15.361 11.0172C15.2449 11.1334 15.0874 11.1986 14.9231 11.1986H11.2074V14.9143C11.2074 15.0786 11.1421 15.2361 11.026 15.3522C10.9099 15.4684 10.7523 15.5336 10.5881 15.5336C10.4239 15.5336 10.2663 15.4684 10.1502 15.3522C10.0341 15.2361 9.96881 15.0786 9.96881 14.9143V11.1986H6.25308C6.08883 11.1986 5.93131 11.1334 5.81517 11.0172C5.69904 10.9011 5.63379 10.7436 5.63379 10.5793C5.63379 10.4151 5.69904 10.2576 5.81517 10.1414C5.93131 10.0253 6.08883 9.96003 6.25308 9.96003H9.96881V6.24429C9.96881 6.08004 10.0341 5.92253 10.1502 5.80639C10.2663 5.69025 10.4239 5.625 10.5881 5.625Z" fill="#363330"/>
</svg>
