<svg width="21" height="21" viewBox="0 0 21 21" fill="none" xmlns="http://www.w3.org/2000/svg">
<path d="M10.7658 5.52344C10.9301 5.52344 11.0876 5.58868 11.2037 5.70482C11.3199 5.82096 11.3851 5.97848 11.3851 6.14273V9.85846H15.1009C15.2651 9.85846 15.4226 9.92371 15.5388 10.0398C15.6549 10.156 15.7202 10.3135 15.7202 10.4778C15.7202 10.642 15.6549 10.7995 15.5388 10.9157C15.4226 11.0318 15.2651 11.097 15.1009 11.097H11.3851V14.8128C11.3851 14.977 11.3199 15.1345 11.2037 15.2507C11.0876 15.3668 10.9301 15.4321 10.7658 15.4321C10.6016 15.4321 10.4441 15.3668 10.3279 15.2507C10.2118 15.1345 10.1465 14.977 10.1465 14.8128V11.097H6.43081C6.26657 11.097 6.10905 11.0318 5.99291 10.9157C5.87677 10.7995 5.81152 10.642 5.81152 10.4778C5.81152 10.3135 5.87677 10.156 5.99291 10.0398C6.10905 9.92371 6.26657 9.85846 6.43081 9.85846H10.1465V6.14273C10.1465 5.97848 10.2118 5.82096 10.3279 5.70482C10.4441 5.58868 10.6016 5.52344 10.7658 5.52344Z" fill="#363330"/>
</svg>
