<svg width="21" height="21" viewBox="0 0 21 21" fill="none" xmlns="http://www.w3.org/2000/svg">
<path d="M10.5881 5.86719C10.7523 5.86719 10.9099 5.93243 11.026 6.04857C11.1421 6.16471 11.2074 6.32223 11.2074 6.48648V10.2022H14.9231C15.0874 10.2022 15.2449 10.2675 15.361 10.3836C15.4772 10.4997 15.5424 10.6573 15.5424 10.8215C15.5424 10.9857 15.4772 11.1433 15.361 11.2594C15.2449 11.3755 15.0874 11.4408 14.9231 11.4408H11.2074V15.1565C11.2074 15.3208 11.1421 15.4783 11.026 15.5944C10.9099 15.7106 10.7523 15.7758 10.5881 15.7758C10.4239 15.7758 10.2663 15.7106 10.1502 15.5944C10.0341 15.4783 9.96881 15.3208 9.96881 15.1565V11.4408H6.25308C6.08883 11.4408 5.93131 11.3755 5.81517 11.2594C5.69904 11.1433 5.63379 10.9857 5.63379 10.8215C5.63379 10.6573 5.69904 10.4997 5.81517 10.3836C5.93131 10.2675 6.08883 10.2022 6.25308 10.2022H9.96881V6.48648C9.96881 6.32223 10.0341 6.16471 10.1502 6.04857C10.2663 5.93243 10.4239 5.86719 10.5881 5.86719Z" fill="#363330"/>
</svg>
