<svg width="21" height="21" viewBox="0 0 21 21" fill="none" xmlns="http://www.w3.org/2000/svg">
<path d="M10.8625 5.52344C11.0268 5.52344 11.1843 5.58868 11.3004 5.70482C11.4166 5.82096 11.4818 5.97848 11.4818 6.14273V9.85846H15.1975C15.3618 9.85846 15.5193 9.92371 15.6354 10.0398C15.7516 10.156 15.8168 10.3135 15.8168 10.4778C15.8168 10.642 15.7516 10.7995 15.6354 10.9157C15.5193 11.0318 15.3618 11.097 15.1975 11.097H11.4818V14.8128C11.4818 14.977 11.4166 15.1345 11.3004 15.2507C11.1843 15.3668 11.0268 15.4321 10.8625 15.4321C10.6983 15.4321 10.5408 15.3668 10.4246 15.2507C10.3085 15.1345 10.2432 14.977 10.2432 14.8128V11.097H6.52749C6.36325 11.097 6.20573 11.0318 6.08959 10.9157C5.97345 10.7995 5.9082 10.642 5.9082 10.4778C5.9082 10.3135 5.97345 10.156 6.08959 10.0398C6.20573 9.92371 6.36325 9.85846 6.52749 9.85846H10.2432V6.14273C10.2432 5.97848 10.3085 5.82096 10.4246 5.70482C10.5408 5.58868 10.6983 5.52344 10.8625 5.52344Z" fill="#363330"/>
</svg>
