<svg width="21" height="21" viewBox="0 0 21 21" fill="none" xmlns="http://www.w3.org/2000/svg">
<path d="M10.3147 5.86719C10.4789 5.86719 10.6364 5.93243 10.7526 6.04857C10.8687 6.16471 10.934 6.32223 10.934 6.48648V10.2022H14.6497C14.8139 10.2022 14.9715 10.2675 15.0876 10.3836C15.2037 10.4997 15.269 10.6573 15.269 10.8215C15.269 10.9857 15.2037 11.1433 15.0876 11.2594C14.9715 11.3755 14.8139 11.4408 14.6497 11.4408H10.934V15.1565C10.934 15.3208 10.8687 15.4783 10.7526 15.5944C10.6364 15.7106 10.4789 15.7758 10.3147 15.7758C10.1504 15.7758 9.9929 15.7106 9.87676 15.5944C9.76062 15.4783 9.69538 15.3208 9.69538 15.1565V11.4408H5.97964C5.8154 11.4408 5.65788 11.3755 5.54174 11.2594C5.4256 11.1433 5.36035 10.9857 5.36035 10.8215C5.36035 10.6573 5.4256 10.4997 5.54174 10.3836C5.65788 10.2675 5.8154 10.2022 5.97964 10.2022H9.69538V6.48648C9.69538 6.32223 9.76062 6.16471 9.87676 6.04857C9.9929 5.93243 10.1504 5.86719 10.3147 5.86719Z" fill="#363330"/>
</svg>
