<svg width="21" height="21" viewBox="0 0 21 21" fill="none" xmlns="http://www.w3.org/2000/svg">
<path d="M10.3147 5.28125C10.4789 5.28125 10.6364 5.3465 10.7526 5.46264C10.8687 5.57878 10.934 5.73629 10.934 5.90054V9.61628H14.6497C14.8139 9.61628 14.9715 9.68152 15.0876 9.79766C15.2037 9.9138 15.269 10.0713 15.269 10.2356C15.269 10.3998 15.2037 10.5573 15.0876 10.6735C14.9715 10.7896 14.8139 10.8549 14.6497 10.8549H10.934V14.5706C10.934 14.7348 10.8687 14.8924 10.7526 15.0085C10.6364 15.1246 10.4789 15.1899 10.3147 15.1899C10.1504 15.1899 9.9929 15.1246 9.87676 15.0085C9.76062 14.8924 9.69538 14.7348 9.69538 14.5706V10.8549H5.97964C5.8154 10.8549 5.65788 10.7896 5.54174 10.6735C5.4256 10.5573 5.36035 10.3998 5.36035 10.2356C5.36035 10.0713 5.4256 9.9138 5.54174 9.79766C5.65788 9.68152 5.8154 9.61628 5.97964 9.61628H9.69538V5.90054C9.69538 5.73629 9.76062 5.57878 9.87676 5.46264C9.9929 5.3465 10.1504 5.28125 10.3147 5.28125Z" fill="#363330"/>
</svg>
