<svg width="20" height="21" viewBox="0 0 20 21" fill="none" xmlns="http://www.w3.org/2000/svg">
<path d="M10.0403 5.86719C10.2045 5.86719 10.362 5.93243 10.4782 6.04857C10.5943 6.16471 10.6595 6.32223 10.6595 6.48648V10.2022H14.3753C14.5395 10.2022 14.697 10.2675 14.8132 10.3836C14.9293 10.4997 14.9946 10.6573 14.9946 10.8215C14.9946 10.9857 14.9293 11.1433 14.8132 11.2594C14.697 11.3755 14.5395 11.4408 14.3753 11.4408H10.6595V15.1565C10.6595 15.3208 10.5943 15.4783 10.4782 15.5944C10.362 15.7106 10.2045 15.7758 10.0403 15.7758C9.87601 15.7758 9.71849 15.7106 9.60235 15.5944C9.48621 15.4783 9.42096 15.3208 9.42096 15.1565V11.4408H5.70523C5.54098 11.4408 5.38346 11.3755 5.26732 11.2594C5.15118 11.1433 5.08594 10.9857 5.08594 10.8215C5.08594 10.6573 5.15118 10.4997 5.26732 10.3836C5.38346 10.2675 5.54098 10.2022 5.70523 10.2022H9.42096V6.48648C9.42096 6.32223 9.48621 6.16471 9.60235 6.04857C9.71849 5.93243 9.87601 5.86719 10.0403 5.86719Z" fill="#363330"/>
</svg>
