<svg width="21" height="21" viewBox="0 0 21 21" fill="none" xmlns="http://www.w3.org/2000/svg">
<path d="M10.7658 5.86719C10.9301 5.86719 11.0876 5.93243 11.2037 6.04857C11.3199 6.16471 11.3851 6.32223 11.3851 6.48648V10.2022H15.1009C15.2651 10.2022 15.4226 10.2675 15.5388 10.3836C15.6549 10.4997 15.7202 10.6573 15.7202 10.8215C15.7202 10.9857 15.6549 11.1433 15.5388 11.2594C15.4226 11.3755 15.2651 11.4408 15.1009 11.4408H11.3851V15.1565C11.3851 15.3208 11.3199 15.4783 11.2037 15.5944C11.0876 15.7106 10.9301 15.7758 10.7658 15.7758C10.6016 15.7758 10.4441 15.7106 10.3279 15.5944C10.2118 15.4783 10.1465 15.3208 10.1465 15.1565V11.4408H6.43081C6.26657 11.4408 6.10905 11.3755 5.99291 11.2594C5.87677 11.1433 5.81152 10.9857 5.81152 10.8215C5.81152 10.6573 5.87677 10.4997 5.99291 10.3836C6.10905 10.2675 6.26657 10.2022 6.43081 10.2022H10.1465V6.48648C10.1465 6.32223 10.2118 6.16471 10.3279 6.04857C10.4441 5.93243 10.6016 5.86719 10.7658 5.86719Z" fill="#363330"/>
</svg>
