<svg width="21" height="21" viewBox="0 0 21 21" fill="none" xmlns="http://www.w3.org/2000/svg">
<path d="M10.3147 5.52344C10.4789 5.52344 10.6364 5.58868 10.7526 5.70482C10.8687 5.82096 10.934 5.97848 10.934 6.14273V9.85846H14.6497C14.8139 9.85846 14.9715 9.92371 15.0876 10.0398C15.2037 10.156 15.269 10.3135 15.269 10.4778C15.269 10.642 15.2037 10.7995 15.0876 10.9157C14.9715 11.0318 14.8139 11.097 14.6497 11.097H10.934V14.8128C10.934 14.977 10.8687 15.1345 10.7526 15.2507C10.6364 15.3668 10.4789 15.4321 10.3147 15.4321C10.1504 15.4321 9.9929 15.3668 9.87676 15.2507C9.76062 15.1345 9.69538 14.977 9.69538 14.8128V11.097H5.97964C5.8154 11.097 5.65788 11.0318 5.54174 10.9157C5.4256 10.7995 5.36035 10.642 5.36035 10.4778C5.36035 10.3135 5.4256 10.156 5.54174 10.0398C5.65788 9.92371 5.8154 9.85846 5.97964 9.85846H9.69538V6.14273C9.69538 5.97848 9.76062 5.82096 9.87676 5.70482C9.9929 5.58868 10.1504 5.52344 10.3147 5.52344Z" fill="#363330"/>
</svg>
