<svg width="21" height="21" viewBox="0 0 21 21" fill="none" xmlns="http://www.w3.org/2000/svg">
<path d="M10.7658 5.28125C10.9301 5.28125 11.0876 5.3465 11.2037 5.46264C11.3199 5.57878 11.3851 5.73629 11.3851 5.90054V9.61628H15.1009C15.2651 9.61628 15.4226 9.68152 15.5388 9.79766C15.6549 9.9138 15.7202 10.0713 15.7202 10.2356C15.7202 10.3998 15.6549 10.5573 15.5388 10.6735C15.4226 10.7896 15.2651 10.8549 15.1009 10.8549H11.3851V14.5706C11.3851 14.7348 11.3199 14.8924 11.2037 15.0085C11.0876 15.1246 10.9301 15.1899 10.7658 15.1899C10.6016 15.1899 10.4441 15.1246 10.3279 15.0085C10.2118 14.8924 10.1465 14.7348 10.1465 14.5706V10.8549H6.43081C6.26657 10.8549 6.10905 10.7896 5.99291 10.6735C5.87677 10.5573 5.81152 10.3998 5.81152 10.2356C5.81152 10.0713 5.87677 9.9138 5.99291 9.79766C6.10905 9.68152 6.26657 9.61628 6.43081 9.61628H10.1465V5.90054C10.1465 5.73629 10.2118 5.57878 10.3279 5.46264C10.4441 5.3465 10.6016 5.28125 10.7658 5.28125Z" fill="#363330"/>
</svg>
