<svg width="20" height="21" viewBox="0 0 20 21" fill="none" xmlns="http://www.w3.org/2000/svg">
<path d="M10.0403 5.28125C10.2045 5.28125 10.362 5.3465 10.4782 5.46264C10.5943 5.57878 10.6595 5.73629 10.6595 5.90054V9.61628H14.3753C14.5395 9.61628 14.697 9.68152 14.8132 9.79766C14.9293 9.9138 14.9946 10.0713 14.9946 10.2356C14.9946 10.3998 14.9293 10.5573 14.8132 10.6735C14.697 10.7896 14.5395 10.8549 14.3753 10.8549H10.6595V14.5706C10.6595 14.7348 10.5943 14.8924 10.4782 15.0085C10.362 15.1246 10.2045 15.1899 10.0403 15.1899C9.87601 15.1899 9.71849 15.1246 9.60235 15.0085C9.48621 14.8924 9.42096 14.7348 9.42096 14.5706V10.8549H5.70523C5.54098 10.8549 5.38346 10.7896 5.26732 10.6735C5.15118 10.5573 5.08594 10.3998 5.08594 10.2356C5.08594 10.0713 5.15118 9.9138 5.26732 9.79766C5.38346 9.68152 5.54098 9.61628 5.70523 9.61628H9.42096V5.90054C9.42096 5.73629 9.48621 5.57878 9.60235 5.46264C9.71849 5.3465 9.87601 5.28125 10.0403 5.28125Z" fill="#363330"/>
</svg>
