<svg width="21" height="21" viewBox="0 0 21 21" fill="none" xmlns="http://www.w3.org/2000/svg">
<path d="M10.7658 5.625C10.9301 5.625 11.0876 5.69025 11.2037 5.80639C11.3199 5.92253 11.3851 6.08004 11.3851 6.24429V9.96003H15.1009C15.2651 9.96003 15.4226 10.0253 15.5388 10.1414C15.6549 10.2576 15.7202 10.4151 15.7202 10.5793C15.7202 10.7436 15.6549 10.9011 15.5388 11.0172C15.4226 11.1334 15.2651 11.1986 15.1009 11.1986H11.3851V14.9143C11.3851 15.0786 11.3199 15.2361 11.2037 15.3522C11.0876 15.4684 10.9301 15.5336 10.7658 15.5336C10.6016 15.5336 10.4441 15.4684 10.3279 15.3522C10.2118 15.2361 10.1465 15.0786 10.1465 14.9143V11.1986H6.43081C6.26657 11.1986 6.10905 11.1334 5.99291 11.0172C5.87677 10.9011 5.81152 10.7436 5.81152 10.5793C5.81152 10.4151 5.87677 10.2576 5.99291 10.1414C6.10905 10.0253 6.26657 9.96003 6.43081 9.96003H10.1465V6.24429C10.1465 6.08004 10.2118 5.92253 10.3279 5.80639C10.4441 5.69025 10.6016 5.625 10.7658 5.625Z" fill="#363330"/>
</svg>
