<svg width="20" height="21" viewBox="0 0 20 21" fill="none" xmlns="http://www.w3.org/2000/svg">
<path d="M10.0403 5.625C10.2045 5.625 10.362 5.69025 10.4782 5.80639C10.5943 5.92253 10.6595 6.08004 10.6595 6.24429V9.96003H14.3753C14.5395 9.96003 14.697 10.0253 14.8132 10.1414C14.9293 10.2576 14.9946 10.4151 14.9946 10.5793C14.9946 10.7436 14.9293 10.9011 14.8132 11.0172C14.697 11.1334 14.5395 11.1986 14.3753 11.1986H10.6595V14.9143C10.6595 15.0786 10.5943 15.2361 10.4782 15.3522C10.362 15.4684 10.2045 15.5336 10.0403 15.5336C9.87601 15.5336 9.71849 15.4684 9.60235 15.3522C9.48621 15.2361 9.42096 15.0786 9.42096 14.9143V11.1986H5.70523C5.54098 11.1986 5.38346 11.1334 5.26732 11.0172C5.15118 10.9011 5.08594 10.7436 5.08594 10.5793C5.08594 10.4151 5.15118 10.2576 5.26732 10.1414C5.38346 10.0253 5.54098 9.96003 5.70523 9.96003H9.42096V6.24429C9.42096 6.08004 9.48621 5.92253 9.60235 5.80639C9.71849 5.69025 9.87601 5.625 10.0403 5.625Z" fill="#363330"/>
</svg>
