<svg width="21" height="21" viewBox="0 0 21 21" fill="none" xmlns="http://www.w3.org/2000/svg">
<path d="M10.8625 5.625C11.0268 5.625 11.1843 5.69025 11.3004 5.80639C11.4166 5.92253 11.4818 6.08004 11.4818 6.24429V9.96003H15.1975C15.3618 9.96003 15.5193 10.0253 15.6354 10.1414C15.7516 10.2576 15.8168 10.4151 15.8168 10.5793C15.8168 10.7436 15.7516 10.9011 15.6354 11.0172C15.5193 11.1334 15.3618 11.1986 15.1975 11.1986H11.4818V14.9143C11.4818 15.0786 11.4166 15.2361 11.3004 15.3522C11.1843 15.4684 11.0268 15.5336 10.8625 15.5336C10.6983 15.5336 10.5408 15.4684 10.4246 15.3522C10.3085 15.2361 10.2432 15.0786 10.2432 14.9143V11.1986H6.52749C6.36325 11.1986 6.20573 11.1334 6.08959 11.0172C5.97345 10.9011 5.9082 10.7436 5.9082 10.5793C5.9082 10.4151 5.97345 10.2576 6.08959 10.1414C6.20573 10.0253 6.36325 9.96003 6.52749 9.96003H10.2432V6.24429C10.2432 6.08004 10.3085 5.92253 10.4246 5.80639C10.5408 5.69025 10.6983 5.625 10.8625 5.625Z" fill="#363330"/>
</svg>
