<svg width="21" height="21" viewBox="0 0 21 21" fill="none" xmlns="http://www.w3.org/2000/svg">
<path d="M10.3147 5.625C10.4789 5.625 10.6364 5.69025 10.7526 5.80639C10.8687 5.92253 10.934 6.08004 10.934 6.24429V9.96003H14.6497C14.8139 9.96003 14.9715 10.0253 15.0876 10.1414C15.2037 10.2576 15.269 10.4151 15.269 10.5793C15.269 10.7436 15.2037 10.9011 15.0876 11.0172C14.9715 11.1334 14.8139 11.1986 14.6497 11.1986H10.934V14.9143C10.934 15.0786 10.8687 15.2361 10.7526 15.3522C10.6364 15.4684 10.4789 15.5336 10.3147 15.5336C10.1504 15.5336 9.9929 15.4684 9.87676 15.3522C9.76062 15.2361 9.69538 15.0786 9.69538 14.9143V11.1986H5.97964C5.8154 11.1986 5.65788 11.1334 5.54174 11.0172C5.4256 10.9011 5.36035 10.7436 5.36035 10.5793C5.36035 10.4151 5.4256 10.2576 5.54174 10.1414C5.65788 10.0253 5.8154 9.96003 5.97964 9.96003H9.69538V6.24429C9.69538 6.08004 9.76062 5.92253 9.87676 5.80639C9.9929 5.69025 10.1504 5.625 10.3147 5.625Z" fill="#363330"/>
</svg>
