<svg width="21" height="21" viewBox="0 0 21 21" fill="none" xmlns="http://www.w3.org/2000/svg">
<path d="M10.5881 5.28125C10.7523 5.28125 10.9099 5.3465 11.026 5.46264C11.1421 5.57878 11.2074 5.73629 11.2074 5.90054V9.61628H14.9231C15.0874 9.61628 15.2449 9.68152 15.361 9.79766C15.4772 9.9138 15.5424 10.0713 15.5424 10.2356C15.5424 10.3998 15.4772 10.5573 15.361 10.6735C15.2449 10.7896 15.0874 10.8549 14.9231 10.8549H11.2074V14.5706C11.2074 14.7348 11.1421 14.8924 11.026 15.0085C10.9099 15.1246 10.7523 15.1899 10.5881 15.1899C10.4239 15.1899 10.2663 15.1246 10.1502 15.0085C10.0341 14.8924 9.96881 14.7348 9.96881 14.5706V10.8549H6.25308C6.08883 10.8549 5.93131 10.7896 5.81517 10.6735C5.69904 10.5573 5.63379 10.3998 5.63379 10.2356C5.63379 10.0713 5.69904 9.9138 5.81517 9.79766C5.93131 9.68152 6.08883 9.61628 6.25308 9.61628H9.96881V5.90054C9.96881 5.73629 10.0341 5.57878 10.1502 5.46264C10.2663 5.3465 10.4239 5.28125 10.5881 5.28125Z" fill="#363330"/>
</svg>
