<svg width="21" height="21" viewBox="0 0 21 21" fill="none" xmlns="http://www.w3.org/2000/svg">
<path d="M10.8625 5.28125C11.0268 5.28125 11.1843 5.3465 11.3004 5.46264C11.4166 5.57878 11.4818 5.73629 11.4818 5.90054V9.61628H15.1975C15.3618 9.61628 15.5193 9.68152 15.6354 9.79766C15.7516 9.9138 15.8168 10.0713 15.8168 10.2356C15.8168 10.3998 15.7516 10.5573 15.6354 10.6735C15.5193 10.7896 15.3618 10.8549 15.1975 10.8549H11.4818V14.5706C11.4818 14.7348 11.4166 14.8924 11.3004 15.0085C11.1843 15.1246 11.0268 15.1899 10.8625 15.1899C10.6983 15.1899 10.5408 15.1246 10.4246 15.0085C10.3085 14.8924 10.2432 14.7348 10.2432 14.5706V10.8549H6.52749C6.36325 10.8549 6.20573 10.7896 6.08959 10.6735C5.97345 10.5573 5.9082 10.3998 5.9082 10.2356C5.9082 10.0713 5.97345 9.9138 6.08959 9.79766C6.20573 9.68152 6.36325 9.61628 6.52749 9.61628H10.2432V5.90054C10.2432 5.73629 10.3085 5.57878 10.4246 5.46264C10.5408 5.3465 10.6983 5.28125 10.8625 5.28125Z" fill="#363330"/>
</svg>
