<svg width="20" height="21" viewBox="0 0 20 21" fill="none" xmlns="http://www.w3.org/2000/svg">
<path d="M10.0403 5.52344C10.2045 5.52344 10.362 5.58868 10.4782 5.70482C10.5943 5.82096 10.6595 5.97848 10.6595 6.14273V9.85846H14.3753C14.5395 9.85846 14.697 9.92371 14.8132 10.0398C14.9293 10.156 14.9946 10.3135 14.9946 10.4778C14.9946 10.642 14.9293 10.7995 14.8132 10.9157C14.697 11.0318 14.5395 11.097 14.3753 11.097H10.6595V14.8128C10.6595 14.977 10.5943 15.1345 10.4782 15.2507C10.362 15.3668 10.2045 15.4321 10.0403 15.4321C9.87601 15.4321 9.71849 15.3668 9.60235 15.2507C9.48621 15.1345 9.42096 14.977 9.42096 14.8128V11.097H5.70523C5.54098 11.097 5.38346 11.0318 5.26732 10.9157C5.15118 10.7995 5.08594 10.642 5.08594 10.4778C5.08594 10.3135 5.15118 10.156 5.26732 10.0398C5.38346 9.92371 5.54098 9.85846 5.70523 9.85846H9.42096V6.14273C9.42096 5.97848 9.48621 5.82096 9.60235 5.70482C9.71849 5.58868 9.87601 5.52344 10.0403 5.52344Z" fill="#363330"/>
</svg>
