<svg width="136" height="35" viewBox="0 0 136 35" fill="none" xmlns="http://www.w3.org/2000/svg">
<path d="M0 25.7917V14.4922H2.09304L8.37807 22.5666V14.4922H10.3915V25.7917H8.29848L2.0164 17.5433V25.7917H0Z" fill="#46B98C"/>
<path d="M18.8962 22.4536H13.4661C13.4661 23.5709 14.377 24.128 16.2018 24.128C17.039 24.128 17.8762 24.0484 18.7135 23.8922V25.5519C17.9824 25.7111 17.039 25.7907 15.8834 25.7907C12.8765 25.7907 11.3701 24.3756 11.3701 21.5456C11.3701 18.8423 12.7468 17.4922 15.5031 17.4922C18.2536 17.4922 19.3826 19.146 18.8933 22.4565L18.8962 22.4536ZM13.4661 20.9207H16.927C17.0007 19.7297 16.4465 19.1342 15.2673 19.1342C14.1589 19.1342 13.5604 19.7297 13.4632 20.9207H13.4661Z" fill="#46B98C"/>
<path d="M19.2734 21.6414C19.2734 18.8232 20.6708 17.4141 23.4625 17.4141C26.2542 17.4141 27.6515 18.8232 27.6515 21.6414C27.6515 24.4538 26.2571 25.8629 23.4625 25.8629C20.6796 25.8629 19.2852 24.4567 19.2734 21.6414ZM23.4625 24.2091C24.8598 24.2091 25.5555 23.3424 25.5555 21.609C25.5555 19.9198 24.8569 19.0708 23.4625 19.0708C22.0681 19.0708 21.3665 19.9169 21.3665 21.609C21.3665 23.3424 22.0651 24.2091 23.4625 24.2091Z" fill="#46B98C"/>
<path d="M28.6299 25.7946V14.4922H33.4498C35.5988 14.4922 36.6748 15.3972 36.6748 17.2043C36.6748 19.2443 35.1773 20.506 32.1792 20.9895L31.8785 19.7572C34.0394 19.4153 35.1183 18.5839 35.1183 17.2662C35.1183 16.2226 34.5169 15.7008 33.3171 15.7008H30.0921V25.7917H28.6299V25.7946Z" fill="#46B98C"/>
<path d="M37.3809 21.64C37.3809 18.8748 38.6986 17.4922 41.3341 17.4922C43.9666 17.4922 45.2873 18.8748 45.2873 21.64C45.2873 24.3992 43.9695 25.7818 41.3341 25.7818C38.8165 25.7818 37.4988 24.4022 37.3809 21.64ZM41.3341 24.6026C42.9938 24.6026 43.8221 23.6062 43.8221 21.6075C43.8221 19.653 42.9938 18.6743 41.3341 18.6743C39.6744 18.6743 38.843 19.653 38.843 21.6075C38.843 23.6062 39.6744 24.6026 41.3341 24.6026Z" fill="#46B98C"/>
<path d="M46.5771 25.7907V17.4922H47.5647L47.8271 18.5505C48.5552 17.8459 49.3217 17.4922 50.1353 17.4922V18.7097C49.3541 18.7097 48.6584 19.0605 48.0393 19.7621V25.7907H46.5771Z" fill="#46B98C"/>
<path d="M50.8369 21.64C50.8369 18.8748 52.1546 17.4922 54.7901 17.4922C57.4226 17.4922 58.7404 18.8748 58.7404 21.64C58.7404 24.3992 57.4226 25.7818 54.7901 25.7818C52.2726 25.7818 50.9548 24.4022 50.8369 21.64ZM54.7901 24.6026C56.4498 24.6026 57.2782 23.6062 57.2782 21.6075C57.2782 19.653 56.4498 18.6743 54.7901 18.6743C53.1304 18.6743 52.2991 19.653 52.2991 21.6075C52.2991 23.6062 53.1304 24.6026 54.7901 24.6026Z" fill="#46B98C"/>
<path d="M60.0386 25.3908V24.1261C60.9613 24.4415 61.9194 24.6007 62.9158 24.6007C64.2394 24.6007 64.8997 24.2057 64.8997 23.4156C64.8997 22.6787 64.4634 22.3072 63.5967 22.3072H62.4117C60.5692 22.3072 59.6465 21.4906 59.6465 19.8575C59.6465 18.2774 60.8492 17.4844 63.2577 17.4844C64.1421 17.4844 65.0471 17.617 65.9669 17.8794V19.1441C65.0442 18.8286 64.1421 18.6695 63.2577 18.6695C61.7189 18.6695 60.9495 19.0645 60.9495 19.8545C60.9495 20.5915 61.4359 20.96 62.4117 20.96H63.5967C65.4392 20.96 66.3619 21.7766 66.3619 23.4098C66.3619 24.9899 65.2122 25.7799 62.9158 25.7799C61.9194 25.7799 60.9613 25.6472 60.0386 25.3849V25.3908Z" fill="#46B98C"/>
<path d="M122.375 8.02965C119.398 7.96184 117.691 7.87046 113.652 4.23269C111.598 2.38138 108.16 0.40625 103.087 0.40625C93.68 0.40625 86.0566 7.99132 86.0566 17.3452C86.0566 26.702 93.683 34.2841 103.087 34.2841C106.975 34.2841 111.415 31.8874 111.415 31.8874C112.52 31.2919 114.292 31.3509 115.353 32.026C115.353 32.026 118.92 34.2841 122.375 34.2841C129.666 34.2841 135.573 28.4059 135.573 21.1569C135.573 13.9079 129.663 8.19473 122.375 8.0267V8.02965Z" fill="#66B3E4"/>
<path d="M95.0294 19.1177C93.8944 19.1177 93.3255 19.5157 93.3255 20.3116C93.3255 21.1547 93.8207 21.5763 94.8142 21.5763C95.7163 21.5763 96.4356 21.3847 96.9692 21.0014V19.2563C96.4503 19.1619 95.8047 19.1148 95.0294 19.1148V19.1177ZM92.0166 20.3323C92.0166 18.82 93.0218 18.0623 95.0294 18.0623C95.7693 18.0623 96.4149 18.1095 96.9692 18.2009V17.5052C96.9692 16.7033 96.3029 16.3024 94.9675 16.3024C94.204 16.3024 93.4228 16.4174 92.618 16.6562V15.6008C93.4228 15.3679 94.204 15.25 94.9675 15.25C97.1726 15.25 98.2751 16.0371 98.2751 17.6113V22.6346H97.6118L97.0871 22.1158C96.4444 22.4607 95.6809 22.6346 94.8113 22.6346C92.9481 22.6346 92.0166 21.8681 92.0166 20.3323Z" fill="white"/>
<path d="M105.329 22.4253C104.716 22.5668 104.056 22.6376 103.351 22.6376C100.666 22.6376 99.3213 21.3582 99.3213 18.8023C99.3213 16.4351 100.666 15.25 103.351 15.25C104.059 15.25 104.719 15.3208 105.329 15.4623V16.5176C104.716 16.3761 104.103 16.3083 103.493 16.3083C101.582 16.3083 100.63 17.1396 100.63 18.8023C100.63 20.6565 101.582 21.5792 103.493 21.5792C104.103 21.5792 104.719 21.5114 105.329 21.367V22.4224V22.4253Z" fill="white"/>
<path d="M111.161 16.5029C110.713 16.3909 110.159 16.3348 109.498 16.3348C107.918 16.3348 107.131 17.1868 107.131 18.8878C107.131 20.6359 107.877 21.5085 109.369 21.5085C110.047 21.5085 110.645 21.3817 111.158 21.1282V16.5029H111.161ZM112.467 25.3084H111.161V22.2838C110.604 22.5167 110.005 22.6346 109.366 22.6346C107.019 22.6346 105.843 21.3906 105.843 18.8996C105.843 16.4675 107.081 15.25 109.551 15.25C110.559 15.25 111.529 15.3502 112.467 15.5536V25.3055V25.3084Z" fill="white"/>
<path d="M120.265 15.2451V22.6297H119.369L119.142 21.6864C118.243 22.3173 117.335 22.6297 116.427 22.6297C114.72 22.6297 113.868 21.71 113.868 19.8764V15.2422H115.177V19.8999C115.177 20.9966 115.722 21.542 116.816 21.542C117.565 21.542 118.278 21.2324 118.959 20.6104V15.2422H120.265V15.2451Z" fill="white"/>
<path d="M124.318 19.1177C123.184 19.1177 122.618 19.5157 122.618 20.3116C122.618 21.1547 123.11 21.5763 124.1 21.5763C125.002 21.5763 125.722 21.3847 126.255 21.0014V19.2563C125.736 19.1619 125.091 19.1148 124.316 19.1148L124.318 19.1177ZM121.309 20.3323C121.309 18.82 122.311 18.0623 124.318 18.0623C125.055 18.0623 125.707 18.1095 126.258 18.2009V17.5052C126.258 16.7033 125.589 16.3024 124.257 16.3024C123.49 16.3024 122.709 16.4174 121.907 16.6562V15.6008C122.709 15.3679 123.49 15.25 124.257 15.25C126.462 15.25 127.567 16.0371 127.567 17.6113V22.6346H126.898L126.373 22.1158C125.731 22.4607 124.97 22.6346 124.1 22.6346C122.237 22.6346 121.306 21.8681 121.306 20.3323H121.309Z" fill="white"/>
<path d="M77.4281 22.2557H77.0625C77.0625 22.8836 76.6174 23.202 75.7153 23.202C75.3115 23.202 74.9901 23.0988 74.7602 22.8895C74.5303 22.6832 74.4182 22.3736 74.4182 21.9668V21.5777H77.4428V20.9675C77.4517 20.4486 77.3013 20.0359 76.9888 19.7352C76.6764 19.4316 76.2725 19.2812 75.7713 19.2812C75.2702 19.2812 74.8545 19.4316 74.5361 19.7352C74.2178 20.0389 74.0615 20.4427 74.0615 20.9586V21.9786C74.0615 22.4621 74.2119 22.8453 74.5214 23.1254C74.8339 23.4025 75.2378 23.5469 75.7478 23.5469C76.2636 23.5469 76.6764 23.4349 76.9888 23.2138C77.2984 22.9898 77.4576 22.6802 77.4576 22.2882L77.4251 22.2557H77.4281ZM77.1009 21.2122H74.4448V20.9586C74.4448 20.5223 74.5627 20.1863 74.8103 19.9652C75.0579 19.7411 75.3822 19.6321 75.789 19.6321C76.1958 19.6321 76.5142 19.7441 76.753 19.9652C76.9918 20.1892 77.1126 20.5223 77.1126 20.9586L77.1038 21.2122H77.1009Z" fill="#46B98C"/>
<path d="M69.948 18.4897C70.5465 18.4897 71.0565 18.2775 71.478 17.8589C71.8996 17.4373 72.1089 16.9214 72.1089 16.3141C72.1089 15.698 71.8966 15.1821 71.478 14.7724C71.0565 14.3626 70.5465 14.1562 69.9421 14.1562C69.3378 14.1562 68.8278 14.3626 68.4063 14.7783C67.9847 15.1939 67.7754 15.7098 67.7754 16.323C67.7754 16.9332 67.9847 17.4491 68.4063 17.8677C68.8278 18.2893 69.3437 18.4986 69.948 18.4986V18.4868V18.4897ZM69.948 18.251C69.4144 18.251 68.9664 18.0652 68.6008 17.6908C68.2353 17.3194 68.0525 16.8654 68.0525 16.3259C68.0525 15.7835 68.2353 15.3295 68.6008 14.964C68.9664 14.5984 69.4144 14.4127 69.948 14.4127C70.4787 14.4127 70.9297 14.5955 71.2952 14.9551C71.6608 15.3148 71.8436 15.7717 71.8436 16.32C71.8436 16.8625 71.6608 17.3165 71.2952 17.6879C70.9297 18.0593 70.4787 18.2421 69.9539 18.2421L69.948 18.248V18.251ZM70.9798 17.514L70.4521 16.4173C70.5789 16.3672 70.6909 16.2847 70.7794 16.1726C70.8678 16.0606 70.912 15.9221 70.912 15.7629C70.912 15.5624 70.8472 15.4003 70.7115 15.2735C70.5789 15.1468 70.4256 15.0849 70.2428 15.0849H69.1462V17.511H69.4056V16.4645H70.2045L70.7027 17.511H70.9798V17.514ZM69.4056 16.2169V15.3295H70.2369C70.3519 15.3295 70.4521 15.3679 70.5288 15.4445C70.6054 15.5212 70.6437 15.6273 70.6437 15.7658C70.6437 15.9044 70.6054 16.0164 70.5199 16.0989C70.4374 16.1815 70.3372 16.2198 70.2163 16.2198L69.4027 16.2139L69.4056 16.2169Z" fill="#46B98C"/>
<path d="M129.736 18.3462V15.7314H130.65V15.4248H128.498V15.7314H129.394V18.3462H129.736ZM133.598 18.3462V15.4219H133.109L132.354 17.966L131.62 15.4219H131.113V18.3462H131.425V15.9024L132.159 18.3462H132.531L133.286 15.8877V18.3462H133.598Z" fill="white"/>
</svg>
