<svg width="81" height="23" viewBox="0 0 81 23" fill="none" xmlns="http://www.w3.org/2000/svg">
<path d="M56.3902 8.39626C56.3902 8.7139 56.3108 9.0096 56.156 9.28157C55.9958 9.55343 55.7809 9.76842 55.5065 9.9273C55.233 10.0874 54.9397 10.1659 54.6267 10.1659C54.3135 10.1659 54.0187 10.0873 53.7447 9.92888C53.4703 9.77096 53.2537 9.55543 53.0976 9.28188C52.9387 9.0096 52.8594 8.71675 52.8594 8.40544C52.8594 8.09053 52.9387 7.79441 53.0976 7.51897C53.2537 7.24289 53.4703 7.02631 53.7439 6.86912C54.0171 6.71056 54.3119 6.63281 54.6268 6.63281C54.9414 6.63281 55.2349 6.71141 55.5049 6.8687C55.7781 7.02515 55.9947 7.24014 56.1523 7.51728C56.3108 7.79167 56.3902 8.08537 56.3902 8.39626ZM56.1463 8.39784C56.1463 8.1282 56.077 7.87438 55.9414 7.63606C55.8046 7.39934 55.6201 7.21124 55.3859 7.07526C55.1524 6.93927 54.9005 6.87102 54.6297 6.87102C54.3606 6.87102 54.1038 6.93927 53.8675 7.07526C53.6296 7.21124 53.4439 7.39934 53.3071 7.63606C53.1714 7.87427 53.1041 8.12978 53.1041 8.40343C53.1041 8.67424 53.1714 8.92774 53.3071 9.16278C53.4442 9.39793 53.6296 9.58518 53.8675 9.72042C54.1066 9.85725 54.3606 9.9254 54.6297 9.9254C54.9004 9.9254 55.1504 9.85641 55.3859 9.72C55.6217 9.58149 55.8058 9.39624 55.9414 9.16162C56.077 8.92689 56.1463 8.6735 56.1463 8.39784ZM53.8894 7.36779H54.7387C54.936 7.36779 55.0764 7.38826 55.1651 7.42634C55.2517 7.46685 55.3228 7.53141 55.3773 7.62203C55.4326 7.71149 55.4595 7.81699 55.4595 7.93736C55.4595 8.04159 55.4402 8.12988 55.4013 8.20489C55.3713 8.26154 55.3066 8.32115 55.204 8.38708C55.2986 8.43118 55.3584 8.48529 55.3902 8.54353C55.4202 8.60324 55.4359 8.7043 55.4359 8.84788V9.07817C55.4359 9.18609 55.4607 9.2764 55.5084 9.34782L55.543 9.4012H55.1824C55.1607 9.31775 55.143 9.21827 55.1334 9.10275L55.1177 8.85242C55.1114 8.7618 55.0972 8.69597 55.0736 8.65862C55.05 8.62128 55.0191 8.59406 54.9765 8.57718C54.9329 8.5603 54.847 8.55271 54.7223 8.55271H54.2124V9.40109H53.8895V7.36769L53.8894 7.36779ZM54.2123 7.66064V8.2627H54.7098C54.8618 8.2627 54.9662 8.2454 55.0191 8.21101C55.0989 8.16206 55.1403 8.07735 55.1403 7.95867C55.1403 7.85549 55.1094 7.77975 55.0531 7.73122C54.9966 7.68428 54.8891 7.66064 54.7306 7.66064H54.2123Z" fill="#11D0D3"/>
<path d="M7.74857 7.83075C5.75367 7.83075 3.84379 8.76574 3.11166 9.94317H3.05259V0.292853C2.58809 0.105916 2.05862 0 1.52629 0C0.977195 0 0.477257 0.0937845 0 0.292853V22.7966L3.05269 20.6846H3.11177C3.84379 21.8584 5.75367 22.7966 7.74867 22.7966C11.4475 22.7966 15.1466 20.0696 15.1466 15.3137C15.1466 10.5594 11.4476 7.83075 7.74867 7.83075H7.74857ZM7.48694 19.9227C4.93492 19.9227 3.05269 17.9556 3.05269 15.3137C3.05269 12.6713 4.93492 10.7057 7.48694 10.7057C10.0386 10.7057 11.9172 12.6713 11.9172 15.3137C11.9172 17.9556 10.0386 19.9227 7.48694 19.9227Z" fill="#E6007D"/>
<path d="M15.8672 1.07452V22.798L18.9211 20.6856V1.07452C18.4551 0.886322 17.9252 0.78125 17.3936 0.78125C16.8429 0.78125 16.3431 0.874718 15.8673 1.07452H15.8672Z" fill="#E6007D"/>
<path d="M31.5768 8.20808V16.1627C31.5768 18.2459 30.0493 19.7433 28.1423 19.7433C26.236 19.7433 24.7093 18.2458 24.7093 16.1627L24.7105 8.20808C24.2456 8.01945 23.7141 7.91406 23.1825 7.91406C22.6338 7.91406 22.1325 8.00837 21.6562 8.20808V16.427C21.6562 20.4188 24.7663 22.7945 28.1424 22.7945C31.5187 22.7945 34.6288 20.4188 34.6288 16.427L34.6301 8.20808C34.1646 8.01945 33.6347 7.91406 33.1033 7.91406C32.5561 7.91406 32.0543 8.00837 31.5771 8.20808H31.5768Z" fill="#E6007D"/>
<path d="M49.1783 15.0607C49.0957 16.8185 48.374 18.2646 47.0166 19.1872C45.2419 20.3934 42.7401 20.0329 41.3352 18.6365C40.6669 17.9741 40.3112 17.4022 39.9698 16.5778C39.2935 14.9512 39.7724 12.5375 41.3759 11.4499C42.9788 10.3621 44.9556 10.4046 46.7118 11.8398L42.2294 14.8942C42.3208 15.2989 42.4934 15.7101 42.7401 16.074C42.9959 16.4503 43.2908 16.7496 43.6479 16.9834L51.0899 11.9178L50.7774 11.4576C47.6646 6.8661 42.6555 7.3211 40.1989 8.9858C36.0951 11.7714 35.8075 16.472 37.918 19.5817C40.0248 22.6893 44.5007 24.1579 48.604 21.3752C50.7007 19.9146 51.9162 17.5281 52.1244 14.8003L52.1292 14.7996C51.6626 14.6596 51.142 14.6007 50.6289 14.6456C50.097 14.6945 49.6225 14.8268 49.1783 15.0607Z" fill="#E6007D"/>
<path d="M74.472 7.84396C72.5613 7.84396 70.7373 8.60774 69.5122 9.99235C68.2868 8.60774 66.4623 7.84396 64.5509 7.84396C61.174 7.84396 58.0645 10.2226 58.0645 14.2149V22.7921L61.1163 20.6796V14.4771C61.1163 12.3964 62.6431 10.897 64.5509 10.897C66.4566 10.897 67.9782 12.3883 67.9859 14.4658V18.1443C68.4504 18.3328 68.9804 18.4384 69.5122 18.4384C70.0614 18.4384 70.5624 18.345 71.0387 18.1443V14.477C71.0387 12.3963 72.5661 10.8969 74.472 10.8969C76.3799 10.8969 77.9082 12.3963 77.9082 14.477V22.792L80.958 20.6795V14.2147C80.958 10.2224 77.8492 7.84375 74.472 7.84375V7.84396Z" fill="#E6007D"/>
</svg>
