<svg width="33" height="33" viewBox="0 0 33 33" fill="none" xmlns="http://www.w3.org/2000/svg">
<path d="M16.4545 8.2316C12.3358 6.61293 10.7528 11.3977 5.01465 9.16716V23.5911C10.7528 25.8216 12.3358 21.0384 16.4545 22.6571C20.5918 21.0384 22.4079 25.8944 28.1267 23.6461V9.22136C22.4079 11.4519 20.5918 6.61367 16.4545 8.23234V8.2316ZM16.1315 21.7742C12.5689 20.7681 10.1053 24.8512 5.6443 23.1583V10.0834C10.1045 11.7749 12.5689 7.70961 16.1315 8.7172V21.7742ZM27.4808 23.1583C23.0019 24.8512 20.5361 20.7681 16.9765 21.7742V8.7172C20.5361 7.70961 23.0019 11.7749 27.4808 10.0834V23.1583Z" fill="#250A20"/>
<path d="M16.4538 8.23152L16.5088 8.09267C15.8754 7.84393 15.2948 7.74072 14.7498 7.74072C13.5588 7.74147 12.5534 8.22632 11.5028 8.6941C10.4492 9.16337 9.35024 9.6215 7.95433 9.6215C7.119 9.6215 6.17602 9.4574 5.06819 9.02749L4.86475 8.94879V23.692L4.95979 23.7292C6.09731 24.1717 7.07965 24.344 7.95433 24.344C9.41781 24.344 10.5672 23.8613 11.6231 23.3906C12.6804 22.9184 13.6434 22.4625 14.749 22.4632C15.2569 22.4632 15.7975 22.5575 16.3989 22.7944L16.4538 22.8159L16.508 22.7944C17.1043 22.5612 17.6456 22.4676 18.1579 22.4676C19.2954 22.4662 20.3023 22.9354 21.4034 23.421C22.5031 23.9044 23.6955 24.3997 25.1887 24.3997C26.0701 24.3997 27.0546 24.2267 28.181 23.7834L28.2753 23.7463V9.00225L28.0719 9.08169C26.9789 9.50789 26.0381 9.6705 25.1969 9.6705C23.7698 9.6705 22.6256 9.20124 21.5289 8.72009C20.4329 8.24043 19.3845 7.74518 18.1623 7.74444C17.6114 7.74444 17.0285 7.84616 16.3996 8.09267L16.4538 8.23152L16.508 8.37037C17.1058 8.13648 17.6485 8.04292 18.1631 8.04218C19.2999 8.04144 20.3075 8.50922 21.4093 8.99259C22.509 9.47448 23.7029 9.96825 25.1976 9.96825C26.0768 9.96825 27.0583 9.79673 28.181 9.35939L28.1268 9.22054H27.9776V23.6453H28.1268L28.0719 23.5064C26.9752 23.9371 26.0315 24.1012 25.1887 24.1019C23.7631 24.1019 22.6204 23.6312 21.5229 23.1485C20.4285 22.6681 19.3793 22.1714 18.1571 22.1706C17.6084 22.1706 17.027 22.2724 16.3996 22.5181L16.4538 22.657L16.5088 22.5181C15.8754 22.2694 15.294 22.1662 14.749 22.1662C13.558 22.1669 12.5534 22.6518 11.502 23.1188C10.4492 23.5881 9.35024 24.0462 7.95433 24.0462C7.119 24.0462 6.17527 23.8829 5.06819 23.4522L5.01399 23.5911H5.16324V9.16783H5.01399L4.95979 9.30667C6.09731 9.74847 7.07965 9.92073 7.95433 9.92073C9.41707 9.92073 10.568 9.4381 11.6238 8.96735C12.6819 8.49437 13.6442 8.03921 14.7498 8.03995C15.2569 8.03995 15.7982 8.13499 16.3996 8.37111L16.4546 8.39265L16.5088 8.37111L16.4546 8.23226L16.4538 8.23152ZM16.1308 21.7741L16.1717 21.6308C15.7581 21.5143 15.3579 21.4638 14.9673 21.4638C13.7303 21.4653 12.6128 21.9679 11.4709 22.4573C10.3281 22.9481 9.1609 23.427 7.82513 23.4262C7.16578 23.4262 6.46411 23.3104 5.6971 23.0193L5.64438 23.1589H5.79363V10.0841H5.64438L5.59166 10.2237C6.39283 10.5274 7.13608 10.6506 7.83181 10.6506C9.23887 10.6499 10.4462 10.1517 11.5882 9.66531C12.7324 9.17674 13.812 8.70301 14.9621 8.7045C15.3274 8.7045 15.7017 8.75202 16.0907 8.86191L16.1316 8.71861H15.9823V21.7756H16.1316H16.2808V8.60575L16.1724 8.57456C15.7566 8.45724 15.3542 8.40601 14.9629 8.40601C13.7281 8.4075 12.6128 8.90646 11.4723 9.39132C10.3311 9.87841 9.1661 10.3529 7.83181 10.3529C7.17098 10.3529 6.46708 10.237 5.69784 9.94523L5.49588 9.86875V23.2621L5.59166 23.2985C6.3906 23.6015 7.13088 23.7247 7.82587 23.7247C9.23516 23.7247 10.4454 23.222 11.5889 22.7312C12.7346 22.239 13.8164 21.7608 14.9681 21.7623C15.3319 21.7623 15.7039 21.8098 16.0907 21.9182L16.2808 21.9717V21.7749H16.1316L16.1308 21.7741ZM27.4801 23.1582L27.4274 23.0186C26.6574 23.3097 25.9527 23.4255 25.2912 23.4255C23.9502 23.4262 22.7808 22.9473 21.6365 22.4565C20.4931 21.9679 19.3749 21.4645 18.1386 21.463C17.7495 21.463 17.3493 21.5135 16.9357 21.6301L16.9766 21.7734H17.1258V8.71638H16.9766L17.0174 8.85968C17.4057 8.74979 17.7792 8.70227 18.1445 8.70227C19.2947 8.70079 20.3743 9.17525 21.5192 9.66308C22.6634 10.1494 23.8737 10.6476 25.2852 10.6484C25.9832 10.6484 26.7294 10.5259 27.5336 10.2214L27.4816 10.0819H27.3323V23.1567H27.4816H27.6308V9.86653L27.4296 9.943C26.6567 10.2348 25.9498 10.3499 25.286 10.3506C23.948 10.3506 22.78 9.87618 21.6365 9.38909C20.4953 8.90423 19.3793 8.40527 18.1453 8.40453C17.754 8.40453 17.3515 8.45576 16.9365 8.57308L16.8281 8.60426V21.9709L17.0181 21.9174C17.4042 21.8083 17.7755 21.7615 18.1393 21.7615C19.291 21.7608 20.3721 22.2382 21.5192 22.7305C22.6649 23.2213 23.8782 23.7232 25.2919 23.724C25.9884 23.724 26.7316 23.6015 27.5336 23.2978L27.6301 23.2614V23.1582H27.4808H27.4801Z" fill="#250A20"/>
<path d="M23.6302 12.9805C23.6302 13.6636 23.054 14.239 22.3724 14.239C21.6692 14.239 21.1108 13.6636 21.1108 12.9805C21.1108 12.2781 21.6692 11.7034 22.3724 11.7034C23.054 11.7034 23.6302 12.2781 23.6302 12.9805Z" fill="#250A20"/>
<path d="M23.6305 12.9805H23.5562C23.5562 13.3005 23.4211 13.5968 23.2043 13.8129C22.9882 14.0289 22.6919 14.1641 22.3726 14.1641C21.7118 14.1626 21.1869 13.622 21.1861 12.9805C21.1861 12.3189 21.7118 11.7791 22.3726 11.7784C23.0112 11.7791 23.5547 12.3204 23.5555 12.9805H23.6297H23.704C23.7032 12.2373 23.0959 11.6299 22.3719 11.6292C21.6272 11.6292 21.0376 12.2388 21.0361 12.9805C21.0361 13.7045 21.6272 14.3133 22.3719 14.3133C23.0959 14.3118 23.7032 13.7059 23.704 12.9805H23.6297H23.6305Z" fill="#250A20"/>
<path d="M25.0533 19.5452V20.3367H19.8364V19.5452H20.9673V15.7681H19.8364V14.9951H23.774V19.5452H25.0533Z" fill="#250A20"/>
<path d="M25.0531 19.545H24.9781V20.2615H19.9105V19.6193H21.0421V15.6936H19.9105V15.0692H23.6995V19.6193H25.0531V19.545H24.9781H25.0531V19.4708H23.8487V14.9199H19.7612V15.8421H20.8928V19.4708H19.7612V20.4108H25.1273V19.4708H25.0531V19.545Z" fill="#250A20"/>
<path d="M16.5709 32.1417C25.4466 32.1417 32.6417 24.9466 32.6417 16.0709C32.6417 7.19517 25.4466 0 16.5709 0C7.69517 0 0.5 7.19517 0.5 16.0709C0.5 24.9466 7.69517 32.1417 16.5709 32.1417Z" stroke="#250A20" stroke-width="1.36" stroke-miterlimit="22.9256"/>
</svg>
