<svg width="136" height="34" viewBox="0 0 136 34" fill="none" xmlns="http://www.w3.org/2000/svg">
<path d="M0 25.3893V14.0898H2.09304L8.37807 22.1643V14.0898H10.3915V25.3893H8.29848L2.0164 17.141V25.3893H0Z" fill="#46B98C"/>
<path d="M18.8953 22.0512H13.4651C13.4651 23.1685 14.376 23.7257 16.2008 23.7257C17.038 23.7257 17.8753 23.6461 18.7125 23.4898V25.1495C17.9814 25.3087 17.038 25.3883 15.8825 25.3883C12.8755 25.3883 11.3691 23.9733 11.3691 21.1433C11.3691 18.44 12.7458 17.0898 15.5022 17.0898C18.2526 17.0898 19.3817 18.7436 18.8923 22.0542L18.8953 22.0512ZM13.4651 20.5183H16.926C16.9997 19.3273 16.4455 18.7319 15.2663 18.7319C14.1579 18.7319 13.5595 19.3273 13.4622 20.5183H13.4651Z" fill="#46B98C"/>
<path d="M19.2734 21.2352C19.2734 18.4169 20.6708 17.0078 23.4625 17.0078C26.2542 17.0078 27.6515 18.4169 27.6515 21.2352C27.6515 24.0475 26.2571 25.4566 23.4625 25.4566C20.6796 25.4566 19.2852 24.0505 19.2734 21.2352ZM23.4625 23.8028C24.8598 23.8028 25.5555 22.9361 25.5555 21.2027C25.5555 19.5136 24.8569 18.6646 23.4625 18.6646C22.0681 18.6646 21.3665 19.5106 21.3665 21.2027C21.3665 22.9361 22.0651 23.8028 23.4625 23.8028Z" fill="#46B98C"/>
<path d="M28.6309 25.3845V14.082H33.4508C35.5998 14.082 36.6758 14.9871 36.6758 16.7941C36.6758 18.8341 35.1783 20.0958 32.1802 20.5793L31.8795 19.3471C34.0403 19.0051 35.1193 18.1738 35.1193 16.8561C35.1193 15.8125 34.5179 15.2907 33.3181 15.2907H30.093V25.3815H28.6309V25.3845Z" fill="#46B98C"/>
<path d="M37.3809 21.2376C37.3809 18.4724 38.6986 17.0898 41.3341 17.0898C43.9666 17.0898 45.2873 18.4724 45.2873 21.2376C45.2873 23.9969 43.9695 25.3795 41.3341 25.3795C38.8165 25.3795 37.4988 23.9998 37.3809 21.2376ZM41.3341 24.2003C42.9938 24.2003 43.8221 23.2039 43.8221 21.2052C43.8221 19.2507 42.9938 18.272 41.3341 18.272C39.6744 18.272 38.843 19.2507 38.843 21.2052C38.843 23.2039 39.6744 24.2003 41.3341 24.2003Z" fill="#46B98C"/>
<path d="M46.5781 25.3883V17.0898H47.5657L47.8281 18.1482C48.5562 17.4436 49.3227 17.0898 50.1363 17.0898V18.3073C49.3551 18.3073 48.6594 18.6582 48.0403 19.3598V25.3883H46.5781Z" fill="#46B98C"/>
<path d="M50.8369 21.2376C50.8369 18.4724 52.1546 17.0898 54.7901 17.0898C57.4226 17.0898 58.7404 18.4724 58.7404 21.2376C58.7404 23.9969 57.4226 25.3795 54.7901 25.3795C52.2726 25.3795 50.9548 23.9998 50.8369 21.2376ZM54.7901 24.2003C56.4498 24.2003 57.2782 23.2039 57.2782 21.2052C57.2782 19.2507 56.4498 18.272 54.7901 18.272C53.1304 18.272 52.2991 19.2507 52.2991 21.2052C52.2991 23.2039 53.1304 24.2003 54.7901 24.2003Z" fill="#46B98C"/>
<path d="M60.0376 24.9923V23.7277C60.9603 24.0431 61.9184 24.2023 62.9148 24.2023C64.2384 24.2023 64.8988 23.8073 64.8988 23.0172C64.8988 22.2802 64.4625 21.9088 63.5958 21.9088H62.4107C60.5682 21.9088 59.6455 21.0922 59.6455 19.459C59.6455 17.8789 60.8483 17.0859 63.2567 17.0859C64.1411 17.0859 65.0462 17.2186 65.9659 17.481V18.7456C65.0432 18.4302 64.1411 18.271 63.2567 18.271C61.7179 18.271 60.9485 18.666 60.9485 19.4561C60.9485 20.1931 61.4349 20.5616 62.4107 20.5616H63.5958C65.4382 20.5616 66.3609 21.3782 66.3609 23.0113C66.3609 24.5914 65.2112 25.3815 62.9148 25.3815C61.9184 25.3815 60.9603 25.2488 60.0376 24.9864V24.9923Z" fill="#46B98C"/>
<path d="M122.375 7.6234C119.398 7.5556 117.691 7.46421 113.652 3.82644C111.598 1.97513 108.16 0 103.087 0C93.68 0 86.0566 7.58508 86.0566 16.9389C86.0566 26.2957 93.683 33.8778 103.087 33.8778C106.975 33.8778 111.415 31.4812 111.415 31.4812C112.52 30.8857 114.292 30.9446 115.353 31.6197C115.353 31.6197 118.92 33.8778 122.375 33.8778C129.666 33.8778 135.573 27.9996 135.573 20.7506C135.573 13.5016 129.663 7.78848 122.375 7.62045V7.6234Z" fill="#66B3E4"/>
<path d="M95.0294 18.7154C93.8944 18.7154 93.3255 19.1133 93.3255 19.9093C93.3255 20.7524 93.8207 21.174 94.8142 21.174C95.7163 21.174 96.4356 20.9823 96.9692 20.5991V18.8539C96.4503 18.7596 95.8047 18.7124 95.0294 18.7124V18.7154ZM92.0166 19.9299C92.0166 18.4176 93.0218 17.66 95.0294 17.66C95.7693 17.66 96.4149 17.7072 96.9692 17.7986V17.1028C96.9692 16.301 96.3029 15.9001 94.9675 15.9001C94.204 15.9001 93.4228 16.015 92.618 16.2538V15.1985C93.4228 14.9656 94.204 14.8477 94.9675 14.8477C97.1726 14.8477 98.2751 15.6348 98.2751 17.209V22.2323H97.6118L97.0871 21.7134C96.4444 22.0583 95.6809 22.2323 94.8113 22.2323C92.9481 22.2323 92.0166 21.4658 92.0166 19.9299Z" fill="white"/>
<path d="M105.329 22.0152C104.716 22.1567 104.056 22.2274 103.351 22.2274C100.666 22.2274 99.3213 20.948 99.3213 18.3921C99.3213 16.0249 100.666 14.8398 103.351 14.8398C104.059 14.8398 104.719 14.9106 105.329 15.0521V16.1075C104.716 15.966 104.103 15.8982 103.493 15.8982C101.582 15.8982 100.63 16.7295 100.63 18.3921C100.63 20.2464 101.582 21.1691 103.493 21.1691C104.103 21.1691 104.719 21.1013 105.329 20.9568V22.0122V22.0152Z" fill="white"/>
<path d="M111.161 16.0927C110.713 15.9807 110.159 15.9247 109.498 15.9247C107.918 15.9247 107.131 16.7766 107.131 18.4776C107.131 20.2257 107.877 21.0983 109.369 21.0983C110.047 21.0983 110.645 20.9716 111.158 20.7181V16.0927H111.161ZM112.467 24.8982H111.161V21.8737C110.604 22.1065 110.005 22.2245 109.366 22.2245C107.019 22.2245 105.843 20.9804 105.843 18.4894C105.843 16.0573 107.081 14.8398 109.551 14.8398C110.559 14.8398 111.529 14.9401 112.467 15.1435V24.8953V24.8982Z" fill="white"/>
<path d="M120.264 14.8428V22.2274H119.368L119.141 21.2841C118.242 21.9149 117.334 22.2274 116.426 22.2274C114.719 22.2274 113.867 21.3076 113.867 19.474V14.8398H115.176V19.4976C115.176 20.5942 115.721 21.1396 116.815 21.1396C117.564 21.1396 118.277 20.8301 118.958 20.2081V14.8398H120.264V14.8428Z" fill="white"/>
<path d="M124.317 18.7154C123.183 18.7154 122.617 19.1133 122.617 19.9093C122.617 20.7524 123.109 21.174 124.099 21.174C125.001 21.174 125.721 20.9823 126.254 20.5991V18.8539C125.735 18.7596 125.09 18.7124 124.315 18.7124L124.317 18.7154ZM121.308 19.9299C121.308 18.4176 122.31 17.66 124.317 17.66C125.054 17.66 125.706 17.7072 126.257 17.7986V17.1028C126.257 16.301 125.588 15.9001 124.256 15.9001C123.489 15.9001 122.708 16.015 121.906 16.2538V15.1985C122.708 14.9656 123.489 14.8477 124.256 14.8477C126.461 14.8477 127.566 15.6348 127.566 17.209V22.2323H126.897L126.372 21.7134C125.73 22.0583 124.969 22.2323 124.099 22.2323C122.236 22.2323 121.305 21.4658 121.305 19.9299H121.308Z" fill="white"/>
<path d="M77.4281 21.8456H77.0625C77.0625 22.4735 76.6174 22.7919 75.7153 22.7919C75.3115 22.7919 74.9901 22.6887 74.7602 22.4794C74.5303 22.273 74.4182 21.9635 74.4182 21.5567V21.1675H77.4428V20.5573C77.4517 20.0385 77.3013 19.6258 76.9888 19.3251C76.6764 19.0214 76.2725 18.8711 75.7713 18.8711C75.2702 18.8711 74.8545 19.0214 74.5361 19.3251C74.2178 19.6287 74.0615 20.0326 74.0615 20.5485V21.5685C74.0615 22.0519 74.2119 22.4352 74.5214 22.7152C74.8339 22.9923 75.2378 23.1368 75.7478 23.1368C76.2636 23.1368 76.6764 23.0248 76.9888 22.8037C77.2984 22.5796 77.4576 22.2701 77.4576 21.878L77.4251 21.8456H77.4281ZM77.1009 20.802H74.4448V20.5485C74.4448 20.1122 74.5627 19.7761 74.8103 19.555C75.0579 19.331 75.3822 19.2219 75.789 19.2219C76.1958 19.2219 76.5142 19.3339 76.753 19.555C76.9918 19.7791 77.1126 20.1122 77.1126 20.5485L77.1038 20.802H77.1009Z" fill="#46B98C"/>
<path d="M69.948 18.0835C70.5465 18.0835 71.0565 17.8712 71.478 17.4526C71.8996 17.0311 72.1089 16.5152 72.1089 15.9079C72.1089 15.2918 71.8966 14.7759 71.478 14.3661C71.0565 13.9564 70.5465 13.75 69.9421 13.75C69.3378 13.75 68.8278 13.9564 68.4063 14.372C67.9847 14.7877 67.7754 15.3036 67.7754 15.9167C67.7754 16.527 67.9847 17.0429 68.4063 17.4615C68.8278 17.883 69.3437 18.0923 69.948 18.0923V18.0805V18.0835ZM69.948 17.8447C69.4144 17.8447 68.9664 17.659 68.6008 17.2846C68.2353 16.9132 68.0525 16.4592 68.0525 15.9197C68.0525 15.3773 68.2353 14.9233 68.6008 14.5577C68.9664 14.1922 69.4144 14.0065 69.948 14.0065C70.4787 14.0065 70.9297 14.1892 71.2952 14.5489C71.6608 14.9085 71.8436 15.3655 71.8436 15.9138C71.8436 16.4562 71.6608 16.9102 71.2952 17.2816C70.9297 17.6531 70.4787 17.8359 69.9539 17.8359L69.948 17.8418V17.8447ZM70.9798 17.1077L70.4521 16.0111C70.5789 15.961 70.6909 15.8784 70.7794 15.7664C70.8678 15.6544 70.912 15.5158 70.912 15.3566C70.912 15.1562 70.8472 14.994 70.7115 14.8673C70.5789 14.7405 70.4256 14.6786 70.2428 14.6786H69.1462V17.1048H69.4056V16.0582H70.2045L70.7027 17.1048H70.9798V17.1077ZM69.4056 15.8106V14.9233H70.2369C70.3519 14.9233 70.4521 14.9616 70.5288 15.0383C70.6054 15.1149 70.6437 15.221 70.6437 15.3596C70.6437 15.4981 70.6054 15.6102 70.5199 15.6927C70.4374 15.7752 70.3372 15.8136 70.2163 15.8136L69.4027 15.8077L69.4056 15.8106Z" fill="#46B98C"/>
<path d="M129.736 17.94V15.3252H130.65V15.0186H128.498V15.3252H129.394V17.94H129.736ZM133.598 17.94V15.0156H133.109L132.354 17.5597L131.62 15.0156H131.113V17.94H131.425V15.4961L132.159 17.94H132.531L133.286 15.4814V17.94H133.598Z" fill="white"/>
</svg>
