<svg width="17" height="17" viewBox="0 0 17 17" fill="none" xmlns="http://www.w3.org/2000/svg">
<path d="M8.66573 16.6733C13.0604 16.6733 16.5336 13.1292 16.5336 8.80538C16.5336 4.41071 12.9895 0.9375 8.66573 0.9375C4.27106 0.9375 0.797852 4.48159 0.797852 8.80538C0.797852 13.2001 4.34194 16.6733 8.66573 16.6733Z" fill="#F39317"/>
<path d="M8.80752 9.37351C9.30369 9.37351 9.72898 9.51527 10.0125 9.7988C10.296 10.0823 10.4378 10.4367 10.4378 10.9329C10.4378 11.4291 10.296 11.8544 9.94163 12.1379C9.58722 12.4214 9.23281 12.5632 8.66576 12.5632C8.0987 12.5632 7.67341 12.4214 7.319 12.2088C7.03548 11.9253 6.82283 11.5708 6.82283 11.0747H5.90137V11.1456C5.90137 11.8544 6.18489 12.4214 6.68107 12.7758C7.17724 13.2011 7.81518 13.3429 8.66576 13.3429C9.37458 13.3429 10.0125 13.1302 10.5796 12.705C11.1466 12.2797 11.3593 11.6417 11.3593 10.862C11.3593 10.5785 11.2884 10.295 11.2175 10.0823C11.1466 9.86968 11.0049 9.65704 10.934 9.51527C10.7922 9.37351 10.6504 9.23175 10.5087 9.16087C10.3669 9.08998 10.296 9.0191 10.2252 8.94822C10.1543 8.94822 10.1543 8.87734 10.0834 8.87734L10.2252 8.80646C10.296 8.80646 10.4378 8.73557 10.5087 8.59381C10.6504 8.52293 10.7213 8.38117 10.8631 8.2394C11.0049 8.09764 11.0757 7.95587 11.1466 7.67235C11.2175 7.4597 11.2884 7.17618 11.2884 6.96353C11.2884 6.32559 11.0757 5.75854 10.5796 5.33325C10.0834 4.90796 9.51634 4.69531 8.66576 4.69531C7.88606 4.69531 7.319 4.90796 6.82283 5.26237C6.32666 5.61678 6.11401 6.18383 6.11401 6.82177V6.89265H7.03548C7.03548 6.46736 7.17724 6.11295 7.46077 5.9003C7.74429 5.68766 8.16958 5.54589 8.66576 5.54589C9.23281 5.54589 9.58722 5.68766 9.87075 5.9003C10.1543 6.18383 10.296 6.46736 10.296 6.89265C10.296 7.38882 10.1543 7.74323 9.87075 8.02676C9.58722 8.31028 9.23281 8.45205 8.73664 8.45205H7.46077V9.30263H8.80752V9.37351Z" fill="#FEFEFE"/>
</svg>
