<svg width="27" height="30" viewBox="0 0 27 30" fill="none" xmlns="http://www.w3.org/2000/svg">
<path d="M24.1878 26.0154C23.9841 25.323 23.6786 24.5491 23.3324 23.7548C22.9862 22.981 22.5789 22.1867 22.1309 21.3924C22.0698 21.4943 22.0087 21.5961 21.9476 21.6979C21.8865 21.7997 21.8254 21.9016 21.7439 22.0034C21.6828 22.1052 21.6014 22.2071 21.5403 22.2885C21.4588 22.3903 21.3977 22.4718 21.3162 22.5736C21.3162 22.5736 21.3162 22.594 21.2959 22.594C21.2959 22.594 21.2959 22.6144 21.2755 22.6144L21.2551 22.6347L21.2348 22.6551L21.1737 22.7366C21.2348 22.9199 21.3162 23.1235 21.3977 23.3679C21.4792 23.5919 21.581 23.8567 21.6624 24.0807C21.7439 24.3251 21.805 24.5491 21.8254 24.712C21.8457 24.8953 21.8457 25.0379 21.7846 25.099C21.7643 25.1193 21.7439 25.1397 21.7032 25.1601C21.6828 25.1804 21.6421 25.1804 21.6217 25.2008C21.581 25.2008 21.5606 25.2212 21.5199 25.2212C21.4792 25.2212 21.4384 25.2212 21.3977 25.2212C21.3366 25.2212 21.2551 25.2008 21.194 25.2008C21.1126 25.1804 21.0311 25.1601 20.9497 25.1397C20.8682 25.1193 20.7867 25.0786 20.6849 25.0379C20.6034 24.9971 20.5016 24.9564 20.3998 24.9157C20.2776 24.8546 20.1554 24.7935 20.0128 24.7324C19.8906 24.6713 19.7481 24.5898 19.6055 24.5084C19.463 24.4269 19.3204 24.3454 19.1778 24.264C19.0353 24.1825 18.8927 24.0807 18.7298 23.9992C19.3204 23.4086 19.8703 22.7773 20.3794 22.1052C20.8886 21.4332 21.357 20.7204 21.7643 19.9872C22.1716 19.2541 22.5178 18.4802 22.8233 17.7063C23.1084 16.912 23.3528 16.1178 23.5157 15.3031C23.8823 13.4702 23.8619 11.7392 23.5157 10.1914C23.1899 8.68432 22.5382 7.34019 21.6624 6.26082C20.7867 5.20181 19.687 4.36682 18.404 3.85768C17.1413 3.34854 15.6953 3.10416 14.1272 3.22635C13.0885 3.28745 12.0703 3.51147 11.0927 3.83732C10.1152 4.16317 9.15799 4.61121 8.24154 5.16108C7.32509 5.71095 6.46973 6.34228 5.65511 7.07544C4.84049 7.8086 4.10733 8.60286 3.43526 9.47858C3.25197 9.13236 3.10941 8.82688 2.98722 8.54176C2.86503 8.25665 2.78356 7.99189 2.72247 7.76787C2.66137 7.54385 2.64101 7.34019 2.66137 7.17727C2.68174 7.01435 2.72247 6.87179 2.8243 6.76996C2.84466 6.72923 2.88539 6.70886 2.94649 6.66813C2.98722 6.64777 3.04832 6.60703 3.10941 6.58667C3.17051 6.5663 3.23161 6.54594 3.31307 6.52557C3.39453 6.50521 3.47599 6.50521 3.55746 6.48484C3.63892 6.48484 3.74075 6.48484 3.84257 6.48484C3.9444 6.50521 4.04623 6.52557 4.14806 6.5663C4.24989 6.60703 4.35171 6.64777 4.45354 6.70886C4.55537 6.76996 4.6572 6.85142 4.75902 6.95325C4.86085 6.83106 4.96268 6.70886 5.06451 6.60703C5.16634 6.48484 5.28853 6.38301 5.39036 6.28119C5.51255 6.17936 5.61438 6.07753 5.75694 5.9757C5.87913 5.87387 6.00132 5.79241 6.14388 5.69058C6.16425 5.69058 6.16425 5.67022 6.18461 5.67022C6.20498 5.67022 6.20498 5.64985 6.22535 5.64985C6.22535 5.64985 6.24571 5.62949 6.26608 5.62949C6.26608 5.62949 6.28644 5.60912 6.30681 5.60912C6.08279 5.40547 5.81803 5.22218 5.55328 5.07962C5.28853 4.93706 5.02378 4.83523 4.75902 4.75377C4.49427 4.67231 4.20915 4.61121 3.9444 4.59084C3.67965 4.57048 3.4149 4.55011 3.17051 4.57048C3.00759 4.59084 2.8243 4.61121 2.68174 4.63157C2.51881 4.6723 2.37625 4.71304 2.25406 4.75377C2.13187 4.7945 2.00967 4.8556 1.90785 4.91669C1.80602 4.97779 1.72456 5.03888 1.64309 5.12035C1.43944 5.34437 1.31724 5.62949 1.25615 5.99607C1.19505 6.34228 1.21542 6.76996 1.31724 7.23837C1.39871 7.70678 1.56163 8.23628 1.78565 8.80652C2.00967 9.37675 2.29479 9.98772 2.64101 10.6598C2.39662 11.0264 2.1726 11.4133 1.96894 11.8003C1.76529 12.1872 1.56163 12.5741 1.37834 12.9815C1.19505 13.3888 1.03213 13.7961 0.889567 14.2238C0.747008 14.6514 0.604449 15.0791 0.502621 15.5068C0.074944 17.1564 -0.067615 18.7449 0.074944 20.2112C0.217503 21.6979 0.64518 23.0624 1.31724 24.2436C2.00967 25.4452 2.94649 26.4431 4.10733 27.1763C5.28853 27.9298 6.71412 28.3778 8.323 28.4797C8.79141 28.5 9.28018 28.5 9.76896 28.4593C10.2577 28.4186 10.7465 28.3575 11.2149 28.2556C11.7037 28.1538 12.1925 28.0316 12.6609 27.8687C13.1496 27.7058 13.618 27.5225 14.0865 27.2985L12.946 25.1397C12.6201 25.2823 12.2739 25.3841 11.9481 25.4859C11.6019 25.5877 11.276 25.6692 10.9298 25.7303C10.5836 25.7914 10.2577 25.8321 9.91151 25.8525C9.5653 25.8729 9.23945 25.8729 8.89324 25.8729C7.58984 25.8118 6.44937 25.4656 5.49219 24.875C4.535 24.3047 3.76111 23.5105 3.21124 22.5533C2.64101 21.6165 2.29479 20.4964 2.1726 19.2948C2.0504 18.1136 2.13187 16.8102 2.47808 15.4661C2.8243 14.1219 3.37417 12.8593 4.10733 11.6984C4.82012 10.5376 5.71621 9.49894 6.69375 8.60286C7.69167 7.70677 8.79141 6.97361 9.97261 6.44411C11.1538 5.9146 12.3961 5.56839 13.6384 5.50729C14.9011 5.42583 16.0619 5.62949 17.0802 6.07753C18.1188 6.52557 18.9946 7.19764 19.687 8.07336C20.3794 8.94907 20.8886 10.0285 21.1329 11.2504C21.3773 12.4927 21.3773 13.8775 21.0922 15.3439C20.97 15.9956 20.7664 16.6269 20.5423 17.2379C20.3183 17.8488 20.0332 18.4598 19.7074 19.03C19.3815 19.6003 19.0353 20.1705 18.628 20.7C18.241 21.2295 17.793 21.7183 17.3449 22.1867C17.3449 22.0238 17.3653 21.8608 17.3653 21.7183C17.3653 21.5554 17.3857 21.3924 17.3857 21.2499C17.3857 21.1073 17.406 20.9648 17.406 20.8426C17.406 20.7204 17.406 20.6389 17.406 20.5574C17.406 20.4964 17.406 20.4353 17.3857 20.3945C17.3653 20.3538 17.3653 20.3334 17.3449 20.2927C17.3246 20.2723 17.3042 20.252 17.2839 20.252C17.2635 20.252 17.2431 20.2316 17.2024 20.2316C17.182 20.2316 17.1617 20.2316 17.1413 20.2316C17.1209 20.2316 17.1006 20.2316 17.0802 20.252C17.0598 20.252 17.0598 20.2723 17.0395 20.2723H17.0191L13.0274 21.5757C13.0274 21.5757 12.9867 21.5961 12.946 21.6165C12.9053 21.6368 12.8442 21.6776 12.8034 21.7183C12.7627 21.759 12.722 21.8405 12.722 21.9219C12.722 22.0034 12.7423 22.1256 12.8034 22.2478C12.8034 22.2478 12.8034 22.2682 12.8238 22.2682C12.8238 22.2682 12.8238 22.2885 12.8442 22.2885C12.8442 22.2885 12.8442 22.3089 12.8645 22.3089C12.8645 22.3089 12.8645 22.3293 12.8849 22.3293C13.0682 22.6958 13.3126 23.1846 13.618 23.7345C13.9032 24.2843 14.2494 24.9157 14.5752 25.5266C14.9011 26.1376 15.2269 26.7486 15.512 27.2781C15.7972 27.8076 16.0415 28.2353 16.1841 28.5204C16.2045 28.5408 16.2045 28.5611 16.2248 28.5815C16.2452 28.6018 16.2452 28.6222 16.2656 28.6426C16.2656 28.6629 16.2859 28.6833 16.2859 28.7037C16.2859 28.724 16.3063 28.724 16.3063 28.7444C16.347 28.8055 16.3878 28.8666 16.4081 28.9277C16.4489 28.9684 16.4692 29.0092 16.51 29.0499C16.5507 29.0703 16.5711 29.111 16.6118 29.111C16.6322 29.1314 16.6729 29.1314 16.6933 29.1314C16.734 29.1314 16.7951 29.111 16.8358 29.0906C16.8765 29.0703 16.9173 29.0295 16.9376 28.9684C16.958 28.9277 16.9987 28.8666 16.9987 28.8259C17.0191 28.7851 17.0191 28.724 17.0395 28.7037C17.0395 28.6833 17.0395 28.6833 17.0395 28.6629C17.0395 28.6426 17.0395 28.6222 17.0395 28.6018C17.0395 28.5815 17.0395 28.5408 17.0395 28.5204C17.0395 28.4797 17.0395 28.4593 17.0395 28.4186C17.0395 28.276 17.0598 28.1334 17.0598 27.9705C17.0598 27.8076 17.0802 27.6447 17.0802 27.4817C17.0802 27.3188 17.1006 27.1966 17.1006 27.0948C17.1006 26.993 17.1006 26.9319 17.1006 26.9115C17.6504 27.2374 18.2003 27.5632 18.7298 27.8483C19.2797 28.1538 19.8092 28.4186 20.3183 28.6629C20.8275 28.9073 21.3162 29.111 21.7643 29.2535C22.2123 29.3961 22.64 29.4979 23.0066 29.5183C23.0473 29.5183 23.1084 29.5183 23.1491 29.5183C23.1899 29.5183 23.251 29.5183 23.2917 29.5183C23.3324 29.5183 23.3732 29.5183 23.4343 29.4979C23.475 29.4979 23.5157 29.4776 23.5564 29.4776C23.6175 29.4572 23.6786 29.4572 23.7397 29.4368C23.8008 29.4165 23.8619 29.3961 23.9027 29.3757C23.9638 29.3554 24.0045 29.3146 24.0452 29.2943C24.086 29.2535 24.1267 29.2128 24.1674 29.1721C24.4322 28.9073 24.534 28.4797 24.534 27.9298C24.534 27.4003 24.4118 26.7486 24.1878 26.0562V26.0154Z" fill="#F39317"/>
<path d="M11.7453 15.0458V14.109H10.4215V8.97683H9.44396C9.03665 9.36377 8.58861 9.62853 8.09984 9.75072V10.7079C8.34422 10.6672 8.56824 10.5857 8.81263 10.4635C9.05702 10.3413 9.24031 10.2191 9.38287 10.0766V14.0886H7.71289V15.0254H11.7453V15.0458ZM16.6941 10.7283C16.6941 10.1784 16.5108 9.73035 16.1239 9.38414C15.7369 9.05829 15.2482 8.875 14.6372 8.875C14.0262 8.875 13.5171 9.03792 13.1505 9.36377C12.7636 9.68962 12.5803 10.1377 12.5803 10.6875V13.274C12.5803 13.8238 12.7636 14.2719 13.1505 14.5977C13.5374 14.9236 14.0262 15.0865 14.6372 15.0865C15.2482 15.0865 15.7369 14.9236 16.1239 14.5774C16.5108 14.2515 16.6941 13.8035 16.6941 13.2332V10.6875V10.7283ZM15.6555 13.1925C15.6555 13.5183 15.574 13.7627 15.3907 13.946C15.2074 14.1293 14.963 14.2108 14.6576 14.2108C14.3317 14.2108 14.0873 14.1293 13.9244 13.946C13.7411 13.7627 13.6596 13.5183 13.6596 13.1925V10.769C13.6596 10.4431 13.7411 10.1988 13.9244 10.0155C14.1077 9.83218 14.3521 9.75072 14.6779 9.75072C15.0038 9.75072 15.2482 9.83218 15.4314 10.0155C15.6147 10.1988 15.6962 10.4431 15.6962 10.769L15.6758 13.1925H15.6555Z" fill="#F39317"/>
<path d="M8.91371 20.1322V15.5703H8.13982V19.0325L6.34765 15.5703H5.22754V20.1322H6.00143V16.6701L7.81397 20.1322H8.91371ZM10.5022 19.7045C10.5022 19.5823 10.4615 19.5009 10.38 19.4398C10.2986 19.3787 10.1967 19.3583 10.0745 19.3583C9.95235 19.3583 9.85052 19.399 9.76906 19.4398C9.6876 19.5009 9.64687 19.5823 9.64687 19.7045V19.8267C9.64687 19.9489 9.6876 20.0304 9.76906 20.0915C9.85052 20.1526 9.95235 20.1933 10.0745 20.1933C10.1967 20.1933 10.2986 20.1526 10.38 20.0915C10.4615 20.0304 10.5022 19.9489 10.5022 19.8267L10.4819 19.7045H10.5022ZM13.9236 18.9103H13.2108C13.2108 19.3379 12.9868 19.562 12.5388 19.562C12.0907 19.562 11.8667 19.3379 11.8667 18.8695V18.1975C11.8667 17.7494 12.0907 17.505 12.5388 17.505C12.9868 17.505 13.2108 17.7291 13.2108 18.1567H13.9236V18.0956C13.9236 17.7087 13.8014 17.4032 13.5571 17.1792C13.3127 16.9755 12.9665 16.8533 12.5388 16.8533C12.1111 16.8533 11.7853 16.9552 11.5205 17.1996C11.2761 17.4236 11.1336 17.7494 11.1336 18.1364V18.9306C11.1336 19.3176 11.2557 19.6434 11.5205 19.8471C11.7649 20.0711 12.1111 20.1729 12.5388 20.1729C12.9665 20.1729 13.3127 20.0711 13.5571 19.8471C13.8014 19.6231 13.944 19.3176 13.944 18.9306L13.9236 18.8899V18.9103ZM19.0558 20.1322V17.8513C19.0558 17.5458 18.9743 17.3014 18.8114 17.1181C18.6484 16.9552 18.4244 16.8533 18.1597 16.8533C17.8949 16.8533 17.6505 16.9348 17.4265 17.0774L17.0803 17.3014C16.9377 17.0163 16.6934 16.8737 16.3064 16.8737C16.0824 16.8737 15.838 16.9348 15.6343 17.0774L15.3492 17.2403V16.8941H14.6161V20.1118H15.3492V17.892L15.7362 17.6476C15.8991 17.5661 16.0213 17.5254 16.1231 17.5254C16.3471 17.5254 16.4693 17.668 16.4693 17.9327V20.1118H17.2025V17.892L17.5894 17.6476C17.7524 17.5661 17.8746 17.5254 17.9764 17.5254C18.2004 17.5254 18.3226 17.668 18.3226 17.9124V20.1118H19.0761L19.0558 20.1322Z" fill="#F39317"/>
<path d="M21.1329 11.5588C24.2081 11.5588 26.7131 9.07417 26.7131 5.9786C26.7131 2.9034 24.2285 0.398438 21.1329 0.398438C18.0577 0.398438 15.5527 2.88304 15.5527 5.9786C15.5527 9.0538 18.0373 11.5588 21.1329 11.5588Z" fill="#F39317"/>
<path d="M21.1329 11.5588C24.2081 11.5588 26.7131 9.07417 26.7131 5.9786C26.7131 2.9034 24.2285 0.398438 21.1329 0.398438C18.0577 0.398438 15.5527 2.88304 15.5527 5.9786C15.5527 9.0538 18.0373 11.5588 21.1329 11.5588Z" stroke="white" stroke-width="1.1812"/>
<path d="M23.1092 9.15628V8.50458H20.3802L22.1113 6.75314C22.4778 6.38656 22.7426 6.04035 22.8851 5.73486C23.0277 5.42938 23.1092 5.1239 23.1092 4.79805C23.1092 4.28891 22.9666 3.8816 22.6408 3.59648C22.3353 3.291 21.8872 3.14844 21.2966 3.14844C20.7468 3.14844 20.2987 3.291 19.9525 3.57611C19.6063 3.86123 19.4434 4.24818 19.4434 4.73695V4.79805H20.1154C20.1154 4.45183 20.2173 4.20745 20.4209 4.04452C20.6246 3.8816 20.9097 3.77977 21.2763 3.77977C21.6632 3.77977 21.9483 3.86123 22.1316 4.04452C22.3149 4.22781 22.4167 4.4722 22.4167 4.79805C22.4167 5.0628 22.3556 5.30719 22.2334 5.53121C22.1112 5.75523 21.9076 6.01998 21.6428 6.32547L19.5452 8.48422V9.13592H23.0888L23.1092 9.15628Z" fill="#FEFEFE"/>
</svg>
