<svg width="28" height="30" viewBox="0 0 28 30" fill="none" xmlns="http://www.w3.org/2000/svg">
<path d="M24.5608 26.0154C24.3572 25.323 24.0517 24.5491 23.7055 23.7548C23.3593 22.981 22.9519 22.1867 22.5039 21.3924C22.4428 21.4943 22.3817 21.5961 22.3206 21.6979C22.2595 21.7997 22.1984 21.9016 22.117 22.0034C22.0559 22.1052 21.9744 22.2071 21.9133 22.2885C21.8318 22.3903 21.7707 22.4718 21.6893 22.5736C21.6893 22.5736 21.6893 22.594 21.6689 22.594C21.6689 22.594 21.6689 22.6144 21.6486 22.6144L21.6282 22.6347L21.6078 22.6551L21.5467 22.7366C21.6078 22.9199 21.6893 23.1235 21.7707 23.3679C21.8522 23.5919 21.954 23.8567 22.0355 24.0807C22.117 24.3251 22.1781 24.5491 22.1984 24.712C22.2188 24.8953 22.2188 25.0379 22.1577 25.099C22.1373 25.1193 22.117 25.1397 22.0762 25.1601C22.0559 25.1804 22.0151 25.1804 21.9948 25.2008C21.954 25.2008 21.9337 25.2212 21.8929 25.2212C21.8522 25.2212 21.8115 25.2212 21.7707 25.2212C21.7096 25.2212 21.6282 25.2008 21.5671 25.2008C21.4856 25.1804 21.4042 25.1601 21.3227 25.1397C21.2412 25.1193 21.1598 25.0786 21.0579 25.0379C20.9765 24.9971 20.8747 24.9564 20.7728 24.9157C20.6506 24.8546 20.5284 24.7935 20.3859 24.7324C20.2637 24.6713 20.1211 24.5898 19.9786 24.5084C19.836 24.4269 19.6935 24.3454 19.5509 24.264C19.4083 24.1825 19.2658 24.0807 19.1029 23.9992C19.6935 23.4086 20.2433 22.7773 20.7525 22.1052C21.2616 21.4332 21.73 20.7204 22.1373 19.9872C22.5446 19.2541 22.8908 18.4802 23.1963 17.7063C23.4814 16.912 23.7258 16.1178 23.8888 15.3031C24.2553 13.4702 24.235 11.7392 23.8888 10.1914C23.5629 8.68432 22.9112 7.34019 22.0355 6.26082C21.1598 5.20181 20.06 4.36682 18.777 3.85768C17.5143 3.34854 16.0684 3.10416 14.5002 3.22635C13.4616 3.28745 12.4433 3.51147 11.4658 3.83732C10.4882 4.16317 9.53104 4.61121 8.61458 5.16108C7.69813 5.71095 6.84278 6.34228 6.02816 7.07544C5.21353 7.8086 4.48037 8.60286 3.80831 9.47858C3.62502 9.13236 3.48246 8.82688 3.36027 8.54176C3.23807 8.25665 3.15661 7.99189 3.09551 7.76787C3.03442 7.54385 3.01405 7.34019 3.03442 7.17727C3.05478 7.01435 3.09551 6.87179 3.19734 6.76996C3.21771 6.72923 3.25844 6.70886 3.31954 6.66813C3.36027 6.64777 3.42136 6.60703 3.48246 6.58667C3.54356 6.5663 3.60465 6.54594 3.68612 6.52557C3.76758 6.50521 3.84904 6.50521 3.9305 6.48484C4.01197 6.48484 4.11379 6.48484 4.21562 6.48484C4.31745 6.50521 4.41928 6.52557 4.5211 6.5663C4.62293 6.60703 4.72476 6.64777 4.82659 6.70886C4.92842 6.76996 5.03024 6.85142 5.13207 6.95325C5.2339 6.83106 5.33573 6.70886 5.43756 6.60703C5.53938 6.48484 5.66158 6.38301 5.7634 6.28119C5.8856 6.17936 5.98743 6.07753 6.12998 5.9757C6.25218 5.87387 6.37437 5.79241 6.51693 5.69058C6.5373 5.69058 6.5373 5.67022 6.55766 5.67022C6.57803 5.67022 6.57803 5.64985 6.59839 5.64985C6.59839 5.64985 6.61876 5.62949 6.63912 5.62949C6.63912 5.62949 6.65949 5.60912 6.67985 5.60912C6.45583 5.40547 6.19108 5.22218 5.92633 5.07962C5.66158 4.93706 5.39682 4.83523 5.13207 4.75377C4.86732 4.67231 4.5822 4.61121 4.31745 4.59084C4.0527 4.57048 3.78794 4.55011 3.54356 4.57048C3.38063 4.59084 3.19734 4.61121 3.05478 4.63157C2.89186 4.6723 2.7493 4.71304 2.62711 4.75377C2.50491 4.7945 2.38272 4.8556 2.28089 4.91669C2.17906 4.97779 2.0976 5.03888 2.01614 5.12035C1.81248 5.34437 1.69029 5.62949 1.62919 5.99607C1.5681 6.34228 1.58846 6.76996 1.69029 7.23837C1.77175 7.70678 1.93468 8.23628 2.1587 8.80652C2.38272 9.37675 2.66784 9.98772 3.01405 10.6598C2.76967 11.0264 2.54564 11.4133 2.34199 11.8003C2.13833 12.1872 1.93468 12.5741 1.75139 12.9815C1.5681 13.3888 1.40517 13.7961 1.26261 14.2238C1.12005 14.6514 0.977496 15.0791 0.875668 15.5068C0.447991 17.1564 0.305432 18.7449 0.447991 20.2112C0.59055 21.6979 1.01823 23.0624 1.69029 24.2436C2.38272 25.4452 3.31954 26.4431 4.48037 27.1763C5.66158 27.9298 7.08717 28.3778 8.69605 28.4797C9.16445 28.5 9.65323 28.5 10.142 28.4593C10.6308 28.4186 11.1195 28.3575 11.588 28.2556C12.0767 28.1538 12.5655 28.0316 13.0339 27.8687C13.5227 27.7058 13.9911 27.5225 14.4595 27.2985L13.319 25.1397C12.9932 25.2823 12.647 25.3841 12.3211 25.4859C11.9749 25.5877 11.6491 25.6692 11.3028 25.7303C10.9566 25.7914 10.6308 25.8321 10.2846 25.8525C9.93835 25.8729 9.6125 25.8729 9.26628 25.8729C7.96289 25.8118 6.82241 25.4656 5.86523 24.875C4.90805 24.3047 4.13416 23.5105 3.58429 22.5533C3.01405 21.6165 2.66784 20.4964 2.54564 19.2948C2.42345 18.1136 2.50491 16.8102 2.85113 15.4661C3.19734 14.1219 3.74721 12.8593 4.48037 11.6984C5.19317 10.5376 6.08925 9.49894 7.0668 8.60286C8.06471 7.70677 9.16445 6.97361 10.3457 6.44411C11.5269 5.9146 12.7692 5.56839 14.0115 5.50729C15.2741 5.42583 16.435 5.62949 17.4532 6.07753C18.4919 6.52557 19.3676 7.19764 20.06 8.07336C20.7525 8.94907 21.2616 10.0285 21.506 11.2504C21.7504 12.4927 21.7504 13.8775 21.4653 15.3439C21.3431 15.9956 21.1394 16.6269 20.9154 17.2379C20.6914 17.8488 20.4062 18.4598 20.0804 19.03C19.7546 19.6003 19.4083 20.1705 19.001 20.7C18.6141 21.2295 18.166 21.7183 17.718 22.1867C17.718 22.0238 17.7384 21.8608 17.7384 21.7183C17.7384 21.5554 17.7587 21.3924 17.7587 21.2499C17.7587 21.1073 17.7791 20.9648 17.7791 20.8426C17.7791 20.7204 17.7791 20.6389 17.7791 20.5574C17.7791 20.4964 17.7791 20.4353 17.7587 20.3945C17.7384 20.3538 17.7384 20.3334 17.718 20.2927C17.6976 20.2723 17.6773 20.252 17.6569 20.252C17.6365 20.252 17.6162 20.2316 17.5754 20.2316C17.5551 20.2316 17.5347 20.2316 17.5143 20.2316C17.494 20.2316 17.4736 20.2316 17.4532 20.252C17.4329 20.252 17.4329 20.2723 17.4125 20.2723H17.3921L13.4005 21.5757C13.4005 21.5757 13.3598 21.5961 13.319 21.6165C13.2783 21.6368 13.2172 21.6776 13.1765 21.7183C13.1357 21.759 13.095 21.8405 13.095 21.9219C13.095 22.0034 13.1154 22.1256 13.1765 22.2478C13.1765 22.2478 13.1765 22.2682 13.1968 22.2682C13.1968 22.2682 13.1968 22.2885 13.2172 22.2885C13.2172 22.2885 13.2172 22.3089 13.2376 22.3089C13.2376 22.3089 13.2376 22.3293 13.2579 22.3293C13.4412 22.6958 13.6856 23.1846 13.9911 23.7345C14.2762 24.2843 14.6224 24.9157 14.9483 25.5266C15.2741 26.1376 15.6 26.7486 15.8851 27.2781C16.1702 27.8076 16.4146 28.2353 16.5572 28.5204C16.5775 28.5408 16.5775 28.5611 16.5979 28.5815C16.6183 28.6018 16.6183 28.6222 16.6386 28.6426C16.6386 28.6629 16.659 28.6833 16.659 28.7037C16.659 28.724 16.6793 28.724 16.6793 28.7444C16.7201 28.8055 16.7608 28.8666 16.7812 28.9277C16.8219 28.9684 16.8423 29.0092 16.883 29.0499C16.9237 29.0703 16.9441 29.111 16.9848 29.111C17.0052 29.1314 17.0459 29.1314 17.0663 29.1314C17.107 29.1314 17.1681 29.111 17.2089 29.0906C17.2496 29.0703 17.2903 29.0295 17.3107 28.9684C17.331 28.9277 17.3718 28.8666 17.3718 28.8259C17.3921 28.7851 17.3921 28.724 17.4125 28.7037C17.4125 28.6833 17.4125 28.6833 17.4125 28.6629C17.4125 28.6426 17.4125 28.6222 17.4125 28.6018C17.4125 28.5815 17.4125 28.5408 17.4125 28.5204C17.4125 28.4797 17.4125 28.4593 17.4125 28.4186C17.4125 28.276 17.4329 28.1334 17.4329 27.9705C17.4329 27.8076 17.4532 27.6447 17.4532 27.4817C17.4532 27.3188 17.4736 27.1966 17.4736 27.0948C17.4736 26.993 17.4736 26.9319 17.4736 26.9115C18.0235 27.2374 18.5733 27.5632 19.1029 27.8483C19.6527 28.1538 20.1822 28.4186 20.6914 28.6629C21.2005 28.9073 21.6893 29.111 22.1373 29.2535C22.5854 29.3961 23.013 29.4979 23.3796 29.5183C23.4204 29.5183 23.4815 29.5183 23.5222 29.5183C23.5629 29.5183 23.624 29.5183 23.6647 29.5183C23.7055 29.5183 23.7462 29.5183 23.8073 29.4979C23.848 29.4979 23.8888 29.4776 23.9295 29.4776C23.9906 29.4572 24.0517 29.4572 24.1128 29.4368C24.1739 29.4165 24.235 29.3961 24.2757 29.3757C24.3368 29.3554 24.3775 29.3146 24.4183 29.2943C24.459 29.2535 24.4997 29.2128 24.5405 29.1721C24.8052 28.9073 24.907 28.4797 24.907 27.9298C24.907 27.4003 24.7848 26.7486 24.5608 26.0562V26.0154Z" fill="#F39317"/>
<path d="M12.1183 15.0458V14.109H10.7946V8.97683H9.81701C9.4097 9.36377 8.96166 9.62853 8.47288 9.75072V10.7079C8.71727 10.6672 8.94129 10.5857 9.18568 10.4635C9.43007 10.3413 9.61336 10.2191 9.75591 10.0766V14.0886H8.08594V15.0254H12.1183V15.0458ZM17.0672 10.7283C17.0672 10.1784 16.8839 9.73035 16.4969 9.38414C16.11 9.05829 15.6212 8.875 15.0102 8.875C14.3993 8.875 13.8901 9.03792 13.5235 9.36377C13.1366 9.68962 12.9533 10.1377 12.9533 10.6875V13.274C12.9533 13.8238 13.1366 14.2719 13.5235 14.5977C13.9105 14.9236 14.3993 15.0865 15.0102 15.0865C15.6212 15.0865 16.11 14.9236 16.4969 14.5774C16.8839 14.2515 17.0672 13.8035 17.0672 13.2332V10.6875V10.7283ZM16.0285 13.1925C16.0285 13.5183 15.947 13.7627 15.7638 13.946C15.5805 14.1293 15.3361 14.2108 15.0306 14.2108C14.7047 14.2108 14.4604 14.1293 14.2974 13.946C14.1141 13.7627 14.0327 13.5183 14.0327 13.1925V10.769C14.0327 10.4431 14.1141 10.1988 14.2974 10.0155C14.4807 9.83218 14.7251 9.75072 15.051 9.75072C15.3768 9.75072 15.6212 9.83218 15.8045 10.0155C15.9878 10.1988 16.0692 10.4431 16.0692 10.769L16.0489 13.1925H16.0285Z" fill="#F39317"/>
<path d="M9.28675 20.1322V15.5703H8.51286V19.0325L6.72069 15.5703H5.60059V20.1322H6.37448V16.6701L8.18701 20.1322H9.28675ZM10.8753 19.7045C10.8753 19.5823 10.8345 19.5009 10.7531 19.4398C10.6716 19.3787 10.5698 19.3583 10.4476 19.3583C10.3254 19.3583 10.2236 19.399 10.1421 19.4398C10.0606 19.5009 10.0199 19.5823 10.0199 19.7045V19.8267C10.0199 19.9489 10.0606 20.0304 10.1421 20.0915C10.2236 20.1526 10.3254 20.1933 10.4476 20.1933C10.5698 20.1933 10.6716 20.1526 10.7531 20.0915C10.8345 20.0304 10.8753 19.9489 10.8753 19.8267L10.8549 19.7045H10.8753ZM14.2967 18.9103H13.5839C13.5839 19.3379 13.3599 19.562 12.9118 19.562C12.4638 19.562 12.2398 19.3379 12.2398 18.8695V18.1975C12.2398 17.7494 12.4638 17.505 12.9118 17.505C13.3599 17.505 13.5839 17.7291 13.5839 18.1567H14.2967V18.0956C14.2967 17.7087 14.1745 17.4032 13.9301 17.1792C13.6857 16.9755 13.3395 16.8533 12.9118 16.8533C12.4841 16.8533 12.1583 16.9552 11.8935 17.1996C11.6492 17.4236 11.5066 17.7494 11.5066 18.1364V18.9306C11.5066 19.3176 11.6288 19.6434 11.8935 19.8471C12.1379 20.0711 12.4841 20.1729 12.9118 20.1729C13.3395 20.1729 13.6857 20.0711 13.9301 19.8471C14.1745 19.6231 14.317 19.3176 14.317 18.9306L14.2967 18.8899V18.9103ZM19.4288 20.1322V17.8513C19.4288 17.5458 19.3473 17.3014 19.1844 17.1181C19.0215 16.9552 18.7975 16.8533 18.5327 16.8533C18.268 16.8533 18.0236 16.9348 17.7996 17.0774L17.4533 17.3014C17.3108 17.0163 17.0664 16.8737 16.6795 16.8737C16.4554 16.8737 16.211 16.9348 16.0074 17.0774L15.7223 17.2403V16.8941H14.9891V20.1118H15.7223V17.892L16.1092 17.6476C16.2721 17.5661 16.3943 17.5254 16.4962 17.5254C16.7202 17.5254 16.8424 17.668 16.8424 17.9327V20.1118H17.5755V17.892L17.9625 17.6476C18.1254 17.5661 18.2476 17.5254 18.3494 17.5254C18.5735 17.5254 18.6956 17.668 18.6956 17.9124V20.1118H19.4492L19.4288 20.1322Z" fill="#F39317"/>
<path d="M21.5059 11.5588C24.5811 11.5588 27.0861 9.07417 27.0861 5.9786C27.0861 2.9034 24.6015 0.398438 21.5059 0.398438C18.4307 0.398438 15.9258 2.88304 15.9258 5.9786C15.9258 9.0538 18.4104 11.5588 21.5059 11.5588Z" fill="#F39317"/>
<path d="M21.5059 11.5588C24.5811 11.5588 27.0861 9.07417 27.0861 5.9786C27.0861 2.9034 24.6015 0.398438 21.5059 0.398438C18.4307 0.398438 15.9258 2.88304 15.9258 5.9786C15.9258 9.0538 18.4104 11.5588 21.5059 11.5588Z" stroke="white" stroke-width="1.1812"/>
<path d="M23.4822 9.15628V8.50458H20.7532L22.4843 6.75314C22.8509 6.38656 23.1156 6.04035 23.2582 5.73486C23.4007 5.42938 23.4822 5.1239 23.4822 4.79805C23.4822 4.28891 23.3397 3.8816 23.0138 3.59648C22.7083 3.291 22.2603 3.14844 21.6697 3.14844C21.1198 3.14844 20.6718 3.291 20.3255 3.57611C19.9793 3.86123 19.8164 4.24818 19.8164 4.73695V4.79805H20.4885C20.4885 4.45183 20.5903 4.20745 20.794 4.04452C20.9976 3.8816 21.2827 3.77977 21.6493 3.77977C22.0363 3.77977 22.3214 3.86123 22.5047 4.04452C22.688 4.22781 22.7898 4.4722 22.7898 4.79805C22.7898 5.0628 22.7287 5.30719 22.6065 5.53121C22.4843 5.75523 22.2806 6.01998 22.0159 6.32547L19.9182 8.48422V9.13592H23.4618L23.4822 9.15628Z" fill="#FEFEFE"/>
</svg>
