<svg width="28" height="30" viewBox="0 0 28 30" fill="none" xmlns="http://www.w3.org/2000/svg">
<path d="M24.5354 26.1404C24.3318 25.448 24.0263 24.6741 23.6801 23.8798C23.3339 23.106 22.9266 22.3117 22.4785 21.5174C22.4174 21.6193 22.3563 21.7211 22.2952 21.8229C22.2341 21.9247 22.173 22.0266 22.0916 22.1284C22.0305 22.2302 21.949 22.3321 21.8879 22.4135C21.8064 22.5153 21.7454 22.5968 21.6639 22.6986C21.6639 22.6986 21.6639 22.719 21.6435 22.719C21.6435 22.719 21.6435 22.7394 21.6232 22.7394L21.6028 22.7597L21.5824 22.7801L21.5213 22.8616C21.5824 23.0449 21.6639 23.2485 21.7454 23.4929C21.8268 23.7169 21.9286 23.9817 22.0101 24.2057C22.0916 24.4501 22.1527 24.6741 22.173 24.837C22.1934 25.0203 22.1934 25.1629 22.1323 25.224C22.1119 25.2443 22.0916 25.2647 22.0508 25.2851C22.0305 25.3054 21.9897 25.3054 21.9694 25.3258C21.9286 25.3258 21.9083 25.3462 21.8675 25.3462C21.8268 25.3462 21.7861 25.3462 21.7454 25.3462C21.6843 25.3462 21.6028 25.3258 21.5417 25.3258C21.4602 25.3054 21.3788 25.2851 21.2973 25.2647C21.2158 25.2443 21.1344 25.2036 21.0326 25.1629C20.9511 25.1221 20.8493 25.0814 20.7474 25.0407C20.6252 24.9796 20.5031 24.9185 20.3605 24.8574C20.2383 24.7963 20.0957 24.7148 19.9532 24.6334C19.8106 24.5519 19.6681 24.4704 19.5255 24.389C19.3829 24.3075 19.2404 24.2057 19.0775 24.1242C19.6681 23.5336 20.2179 22.9023 20.7271 22.2302C21.2362 21.5582 21.7046 20.8454 22.1119 20.1122C22.5192 19.3791 22.8655 18.6052 23.1709 17.8313C23.4561 17.037 23.7004 16.2428 23.8634 15.4281C24.23 13.5952 24.2096 11.8642 23.8634 10.3164C23.5375 8.80932 22.8858 7.46519 22.0101 6.38582C21.1344 5.32681 20.0346 4.49182 18.7516 3.98268C17.4889 3.47354 16.043 3.22916 14.4748 3.35135C13.4362 3.41245 12.4179 3.63647 11.4404 3.96232C10.4628 4.28817 9.50564 4.73621 8.58919 5.28608C7.67274 5.83595 6.81739 6.46728 6.00277 7.20044C5.18814 7.9336 4.45498 8.72786 3.78292 9.60358C3.59963 9.25736 3.45707 8.95188 3.33488 8.66676C3.21268 8.38165 3.13122 8.11689 3.07012 7.89287C3.00903 7.66885 2.98866 7.46519 3.00903 7.30227C3.02939 7.13935 3.07012 6.99679 3.17195 6.89496C3.19232 6.85423 3.23305 6.83386 3.29415 6.79313C3.33488 6.77277 3.39597 6.73203 3.45707 6.71167C3.51817 6.6913 3.57926 6.67094 3.66073 6.65057C3.74219 6.63021 3.82365 6.63021 3.90511 6.60984C3.98657 6.60984 4.0884 6.60984 4.19023 6.60984C4.29206 6.63021 4.39389 6.65057 4.49571 6.6913C4.59754 6.73203 4.69937 6.77277 4.8012 6.83386C4.90303 6.89496 5.00485 6.97642 5.10668 7.07825C5.20851 6.95606 5.31034 6.83386 5.41216 6.73203C5.51399 6.60984 5.63619 6.50801 5.73801 6.40619C5.86021 6.30436 5.96203 6.20253 6.10459 6.1007C6.22679 5.99887 6.34898 5.91741 6.49154 5.81558C6.51191 5.81558 6.51191 5.79522 6.53227 5.79522C6.55264 5.79522 6.55264 5.77485 6.573 5.77485C6.573 5.77485 6.59337 5.75449 6.61373 5.75449C6.61373 5.75449 6.6341 5.73412 6.65446 5.73412C6.43044 5.53047 6.16569 5.34718 5.90094 5.20462C5.63619 5.06206 5.37143 4.96023 5.10668 4.87877C4.84193 4.79731 4.55681 4.73621 4.29206 4.71584C4.02731 4.69548 3.76255 4.67511 3.51817 4.69548C3.35524 4.71584 3.17195 4.73621 3.02939 4.75657C2.86647 4.7973 2.72391 4.83804 2.60172 4.87877C2.47952 4.9195 2.35733 4.9806 2.2555 5.04169C2.15367 5.10279 2.07221 5.16388 1.99075 5.24535C1.78709 5.46937 1.6649 5.75449 1.6038 6.12107C1.54271 6.46728 1.56307 6.89496 1.6649 7.36337C1.74636 7.83178 1.90929 8.36128 2.13331 8.93152C2.35733 9.50175 2.64245 10.1127 2.98866 10.7848C2.74428 11.1514 2.52025 11.5383 2.3166 11.9253C2.11294 12.3122 1.90929 12.6991 1.726 13.1065C1.54271 13.5138 1.37978 13.9211 1.23722 14.3488C1.09466 14.7764 0.952105 15.2041 0.850277 15.6318C0.4226 17.2814 0.280041 18.8699 0.4226 20.3362C0.565159 21.8229 0.992836 23.1874 1.6649 24.3686C2.35733 25.5702 3.29415 26.5681 4.45498 27.3013C5.63619 28.0548 7.06178 28.5028 8.67066 28.6047C9.13906 28.625 9.62784 28.625 10.1166 28.5843C10.6054 28.5436 11.0942 28.4825 11.5626 28.3806C12.0513 28.2788 12.5401 28.1566 13.0085 27.9937C13.4973 27.8308 13.9657 27.6475 14.4341 27.4235L13.2936 25.2647C12.9678 25.4073 12.6216 25.5091 12.2957 25.6109C11.9495 25.7127 11.6237 25.7942 11.2774 25.8553C10.9312 25.9164 10.6054 25.9571 10.2592 25.9775C9.91296 25.9979 9.58711 25.9979 9.24089 25.9979C7.9375 25.9368 6.79702 25.5906 5.83984 25C4.88266 24.4297 4.10877 23.6355 3.5589 22.6783C2.98866 21.7415 2.64245 20.6214 2.52025 19.4198C2.39806 18.2386 2.47952 16.9352 2.82574 15.5911C3.17195 14.2469 3.72182 12.9843 4.45498 11.8234C5.16778 10.6626 6.06386 9.62394 7.04141 8.72786C8.03932 7.83177 9.13906 7.09861 10.3203 6.56911C11.5015 6.0396 12.7438 5.69339 13.9861 5.63229C15.2487 5.55083 16.4096 5.75449 17.4279 6.20253C18.4665 6.65057 19.3422 7.32264 20.0346 8.19836C20.7271 9.07407 21.2362 10.1535 21.4806 11.3754C21.725 12.6177 21.725 14.0025 21.4399 15.4689C21.3177 16.1206 21.114 16.7519 20.89 17.3629C20.666 17.9738 20.3809 18.5848 20.055 19.155C19.7292 19.7253 19.3829 20.2955 18.9756 20.825C18.5887 21.3545 18.1406 21.8433 17.6926 22.3117C17.6926 22.1488 17.713 21.9858 17.713 21.8433C17.713 21.6804 17.7333 21.5174 17.7333 21.3749C17.7333 21.2323 17.7537 21.0898 17.7537 20.9676C17.7537 20.8454 17.7537 20.7639 17.7537 20.6824C17.7537 20.6214 17.7537 20.5603 17.7333 20.5195C17.713 20.4788 17.713 20.4584 17.6926 20.4177C17.6722 20.3973 17.6519 20.377 17.6315 20.377C17.6111 20.377 17.5908 20.3566 17.55 20.3566C17.5297 20.3566 17.5093 20.3566 17.4889 20.3566C17.4686 20.3566 17.4482 20.3566 17.4279 20.377C17.4075 20.377 17.4075 20.3973 17.3871 20.3973H17.3668L13.3751 21.7007C13.3751 21.7007 13.3344 21.7211 13.2936 21.7415C13.2529 21.7618 13.1918 21.8026 13.1511 21.8433C13.1103 21.884 13.0696 21.9655 13.0696 22.0469C13.0696 22.1284 13.09 22.2506 13.1511 22.3728C13.1511 22.3728 13.1511 22.3932 13.1714 22.3932C13.1714 22.3932 13.1714 22.4135 13.1918 22.4135C13.1918 22.4135 13.1918 22.4339 13.2122 22.4339C13.2122 22.4339 13.2122 22.4543 13.2325 22.4543C13.4158 22.8208 13.6602 23.3096 13.9657 23.8595C14.2508 24.4093 14.597 25.0407 14.9229 25.6516C15.2487 26.2626 15.5746 26.8736 15.8597 27.4031C16.1448 27.9326 16.3892 28.3603 16.5318 28.6454C16.5521 28.6658 16.5521 28.6861 16.5725 28.7065C16.5929 28.7268 16.5929 28.7472 16.6132 28.7676C16.6132 28.7879 16.6336 28.8083 16.6336 28.8287C16.6336 28.849 16.654 28.849 16.654 28.8694C16.6947 28.9305 16.7354 28.9916 16.7558 29.0527C16.7965 29.0934 16.8169 29.1342 16.8576 29.1749C16.8983 29.1953 16.9187 29.236 16.9594 29.236C16.9798 29.2564 17.0205 29.2564 17.0409 29.2564C17.0816 29.2564 17.1427 29.236 17.1835 29.2156C17.2242 29.1953 17.2649 29.1545 17.2853 29.0934C17.3057 29.0527 17.3464 28.9916 17.3464 28.9509C17.3668 28.9101 17.3668 28.849 17.3871 28.8287C17.3871 28.8083 17.3871 28.8083 17.3871 28.7879C17.3871 28.7676 17.3871 28.7472 17.3871 28.7268C17.3871 28.7065 17.3871 28.6658 17.3871 28.6454C17.3871 28.6047 17.3871 28.5843 17.3871 28.5436C17.3871 28.401 17.4075 28.2584 17.4075 28.0955C17.4075 27.9326 17.4279 27.7697 17.4279 27.6067C17.4279 27.4438 17.4482 27.3216 17.4482 27.2198C17.4482 27.118 17.4482 27.0569 17.4482 27.0365C17.9981 27.3624 18.548 27.6882 19.0775 27.9733C19.6273 28.2788 20.1568 28.5436 20.666 28.7879C21.1751 29.0323 21.6639 29.236 22.1119 29.3785C22.56 29.5211 22.9877 29.6229 23.3542 29.6433C23.395 29.6433 23.4561 29.6433 23.4968 29.6433C23.5375 29.6433 23.5986 29.6433 23.6394 29.6433C23.6801 29.6433 23.7208 29.6433 23.7819 29.6229C23.8226 29.6229 23.8634 29.6026 23.9041 29.6026C23.9652 29.5822 24.0263 29.5822 24.0874 29.5618C24.1485 29.5415 24.2096 29.5211 24.2503 29.5007C24.3114 29.4804 24.3521 29.4396 24.3929 29.4193C24.4336 29.3785 24.4743 29.3378 24.5151 29.2971C24.7798 29.0323 24.8816 28.6047 24.8816 28.0548C24.8816 27.5253 24.7595 26.8736 24.5354 26.1812V26.1404Z" fill="#F39317"/>
<path d="M12.0929 15.1708V14.234H10.7692V9.10183H9.79162C9.38431 9.48877 8.93627 9.75353 8.44749 9.87572V10.8329C8.69188 10.7922 8.9159 10.7107 9.16029 10.5885C9.40467 10.4663 9.58797 10.3441 9.73052 10.2016V14.2136H8.06055V15.1504H12.0929V15.1708ZM17.0418 10.8533C17.0418 10.3034 16.8585 9.85535 16.4715 9.50914C16.0846 9.18329 15.5958 9 14.9848 9C14.3739 9 13.8647 9.16292 13.4982 9.48877C13.1112 9.81462 12.9279 10.2627 12.9279 10.8125V13.399C12.9279 13.9488 13.1112 14.3969 13.4982 14.7227C13.8851 15.0486 14.3739 15.2115 14.9848 15.2115C15.5958 15.2115 16.0846 15.0486 16.4715 14.7024C16.8585 14.3765 17.0418 13.9285 17.0418 13.3582V10.8125V10.8533ZM16.0031 13.3175C16.0031 13.6433 15.9217 13.8877 15.7384 14.071C15.5551 14.2543 15.3107 14.3358 15.0052 14.3358C14.6794 14.3358 14.435 14.2543 14.272 14.071C14.0888 13.8877 14.0073 13.6433 14.0073 13.3175V10.894C14.0073 10.5681 14.0888 10.3238 14.272 10.1405C14.4553 9.95718 14.6997 9.87572 15.0256 9.87572C15.3514 9.87572 15.5958 9.95718 15.7791 10.1405C15.9624 10.3238 16.0439 10.5681 16.0439 10.894L16.0235 13.3175H16.0031Z" fill="#F39317"/>
<path d="M9.26136 20.2572V15.6953H8.48747V19.1575L6.6953 15.6953H5.5752V20.2572H6.34909V16.7951L8.16162 20.2572H9.26136ZM10.8499 19.8295C10.8499 19.7073 10.8091 19.6259 10.7277 19.5648C10.6462 19.5037 10.5444 19.4833 10.4222 19.4833C10.3 19.4833 10.1982 19.524 10.1167 19.5648C10.0353 19.6259 9.99452 19.7073 9.99452 19.8295V19.9517C9.99452 20.0739 10.0353 20.1554 10.1167 20.2165C10.1982 20.2776 10.3 20.3183 10.4222 20.3183C10.5444 20.3183 10.6462 20.2776 10.7277 20.2165C10.8091 20.1554 10.8499 20.0739 10.8499 19.9517L10.8295 19.8295H10.8499ZM14.2713 19.0353H13.5585C13.5585 19.4629 13.3345 19.687 12.8864 19.687C12.4384 19.687 12.2144 19.4629 12.2144 18.9945V18.3225C12.2144 17.8744 12.4384 17.63 12.8864 17.63C13.3345 17.63 13.5585 17.8541 13.5585 18.2817H14.2713V18.2206C14.2713 17.8337 14.1491 17.5282 13.9047 17.3042C13.6603 17.1005 13.3141 16.9783 12.8864 16.9783C12.4588 16.9783 12.1329 17.0802 11.8682 17.3246C11.6238 17.5486 11.4812 17.8744 11.4812 18.2614V19.0556C11.4812 19.4426 11.6034 19.7684 11.8682 19.9721C12.1125 20.1961 12.4588 20.2979 12.8864 20.2979C13.3141 20.2979 13.6603 20.1961 13.9047 19.9721C14.1491 19.7481 14.2917 19.4426 14.2917 19.0556L14.2713 19.0149V19.0353ZM19.4034 20.2572V17.9763C19.4034 17.6708 19.322 17.4264 19.159 17.2431C18.9961 17.0802 18.7721 16.9783 18.5073 16.9783C18.2426 16.9783 17.9982 17.0598 17.7742 17.2024L17.428 17.4264C17.2854 17.1413 17.041 16.9987 16.6541 16.9987C16.43 16.9987 16.1857 17.0598 15.982 17.2024L15.6969 17.3653V17.0191H14.9637V20.2368H15.6969V18.017L16.0838 17.7726C16.2468 17.6911 16.3689 17.6504 16.4708 17.6504C16.6948 17.6504 16.817 17.793 16.817 18.0577V20.2368H17.5502V18.017L17.9371 17.7726C18.1 17.6911 18.2222 17.6504 18.324 17.6504C18.5481 17.6504 18.6703 17.793 18.6703 18.0374V20.2368H19.4238L19.4034 20.2572Z" fill="#F39317"/>
<path d="M21.4806 11.6838C24.5558 11.6838 27.0607 9.19917 27.0607 6.1036C27.0607 3.0284 24.5761 0.523438 21.4806 0.523438C18.4054 0.523438 15.9004 3.00804 15.9004 6.1036C15.9004 9.1788 18.385 11.6838 21.4806 11.6838Z" fill="#F39317"/>
<path d="M21.4806 11.6838C24.5558 11.6838 27.0607 9.19917 27.0607 6.1036C27.0607 3.0284 24.5761 0.523438 21.4806 0.523438C18.4054 0.523438 15.9004 3.00804 15.9004 6.1036C15.9004 9.1788 18.385 11.6838 21.4806 11.6838Z" stroke="white" stroke-width="1.1812"/>
<path d="M23.4568 9.28128V8.62958H20.7278L22.4589 6.87814C22.8255 6.51156 23.0902 6.16535 23.2328 5.85986C23.3754 5.55438 23.4568 5.2489 23.4568 4.92305C23.4568 4.41391 23.3143 4.0066 22.9884 3.72148C22.6829 3.416 22.2349 3.27344 21.6443 3.27344C21.0944 3.27344 20.6464 3.416 20.3002 3.70111C19.9539 3.98623 19.791 4.37318 19.791 4.86195V4.92305H20.4631C20.4631 4.57683 20.5649 4.33245 20.7686 4.16952C20.9722 4.0066 21.2573 3.90477 21.6239 3.90477C22.0109 3.90477 22.296 3.98623 22.4793 4.16952C22.6626 4.35281 22.7644 4.5972 22.7644 4.92305C22.7644 5.1878 22.7033 5.43219 22.5811 5.65621C22.4589 5.88023 22.2552 6.14498 21.9905 6.45047L19.8928 8.60922V9.26092H23.4365L23.4568 9.28128Z" fill="#FEFEFE"/>
</svg>
