<svg width="17" height="17" viewBox="0 0 17 17" fill="none" xmlns="http://www.w3.org/2000/svg">
<path d="M8.16573 16.4545C12.5604 16.4545 16.0336 12.9104 16.0336 8.58663C16.0336 4.19196 12.4895 0.71875 8.16573 0.71875C3.77106 0.71875 0.297852 4.26284 0.297852 8.58663C0.297852 12.9813 3.84194 16.4545 8.16573 16.4545Z" fill="#F39317"/>
<path d="M8.30752 9.15476C8.80369 9.15476 9.22898 9.29652 9.51251 9.58005C9.79604 9.86358 9.9378 10.218 9.9378 10.7142C9.9378 11.2103 9.79604 11.6356 9.44163 11.9192C9.08722 12.2027 8.73281 12.3444 8.16576 12.3444C7.5987 12.3444 7.17341 12.2027 6.819 11.99C6.53548 11.7065 6.32283 11.3521 6.32283 10.8559H5.40137V10.9268C5.40137 11.6356 5.68489 12.2027 6.18107 12.5571C6.67724 12.9824 7.31518 13.1241 8.16576 13.1241C8.87458 13.1241 9.51251 12.9115 10.0796 12.4862C10.6466 12.0609 10.8593 11.423 10.8593 10.6433C10.8593 10.3598 10.7884 10.0762 10.7175 9.86358C10.6466 9.65093 10.5049 9.43829 10.434 9.29652C10.2922 9.15476 10.1504 9.013 10.0087 8.94212C9.86692 8.87123 9.79604 8.80035 9.72516 8.72947C9.65427 8.72947 9.65427 8.65859 9.58339 8.65859L9.72516 8.58771C9.79604 8.58771 9.9378 8.51682 10.0087 8.37506C10.1504 8.30418 10.2213 8.16242 10.3631 8.02065C10.5049 7.87889 10.5757 7.73712 10.6466 7.4536C10.7175 7.24095 10.7884 6.95743 10.7884 6.74478C10.7884 6.10684 10.5757 5.53979 10.0796 5.1145C9.58339 4.68921 9.01634 4.47656 8.16576 4.47656C7.38606 4.47656 6.819 4.68921 6.32283 5.04362C5.82666 5.39803 5.61401 5.96508 5.61401 6.60302V6.6739H6.53548C6.53548 6.24861 6.67724 5.8942 6.96077 5.68155C7.24429 5.46891 7.66958 5.32714 8.16576 5.32714C8.73281 5.32714 9.08722 5.46891 9.37075 5.68155C9.65427 5.96508 9.79604 6.24861 9.79604 6.6739C9.79604 7.17007 9.65427 7.52448 9.37075 7.80801C9.08722 8.09153 8.73281 8.2333 8.23664 8.2333H6.96077V9.08388H8.30752V9.15476Z" fill="#FEFEFE"/>
</svg>
