<svg width="28" height="30" viewBox="0 0 28 30" fill="none" xmlns="http://www.w3.org/2000/svg">
<path d="M25.0354 26.1795C24.8318 25.4871 24.5263 24.7132 24.1801 23.9189C23.8339 23.145 23.4266 22.3508 22.9785 21.5565C22.9174 21.6583 22.8563 21.7602 22.7952 21.862C22.7341 21.9638 22.673 22.0656 22.5916 22.1675C22.5305 22.2693 22.449 22.3711 22.3879 22.4526C22.3064 22.5544 22.2454 22.6359 22.1639 22.7377C22.1639 22.7377 22.1639 22.7581 22.1435 22.7581C22.1435 22.7581 22.1435 22.7784 22.1232 22.7784L22.1028 22.7988L22.0824 22.8192L22.0213 22.9006C22.0824 23.0839 22.1639 23.2876 22.2454 23.532C22.3268 23.756 22.4286 24.0207 22.5101 24.2448C22.5916 24.4891 22.6527 24.7132 22.673 24.8761C22.6934 25.0594 22.6934 25.2019 22.6323 25.263C22.6119 25.2834 22.5916 25.3038 22.5508 25.3241C22.5305 25.3445 22.4897 25.3445 22.4694 25.3649C22.4286 25.3649 22.4083 25.3852 22.3675 25.3852C22.3268 25.3852 22.2861 25.3852 22.2454 25.3852C22.1843 25.3852 22.1028 25.3649 22.0417 25.3649C21.9602 25.3445 21.8788 25.3241 21.7973 25.3038C21.7158 25.2834 21.6344 25.2427 21.5326 25.2019C21.4511 25.1612 21.3493 25.1205 21.2474 25.0797C21.1252 25.0186 21.0031 24.9575 20.8605 24.8965C20.7383 24.8354 20.5957 24.7539 20.4532 24.6724C20.3106 24.591 20.1681 24.5095 20.0255 24.428C19.8829 24.3466 19.7404 24.2448 19.5775 24.1633C20.1681 23.5727 20.7179 22.9414 21.2271 22.2693C21.7362 21.5972 22.2046 20.8844 22.6119 20.1513C23.0192 19.4181 23.3655 18.6442 23.6709 17.8703C23.9561 17.0761 24.2004 16.2818 24.3634 15.4672C24.73 13.6343 24.7096 11.9032 24.3634 10.3554C24.0375 8.84838 23.3858 7.50426 22.5101 6.42488C21.6344 5.36587 20.5346 4.53088 19.2516 4.02174C17.9889 3.51261 16.543 3.26822 14.9748 3.39041C13.9362 3.45151 12.9179 3.67553 11.9404 4.00138C10.9628 4.32723 10.0056 4.77527 9.08919 5.32514C8.17274 5.87501 7.31739 6.50634 6.50277 7.2395C5.68814 7.97267 4.95498 8.76692 4.28292 9.64264C4.09963 9.29643 3.95707 8.99094 3.83488 8.70583C3.71268 8.42071 3.63122 8.15596 3.57012 7.93193C3.50903 7.70791 3.48866 7.50426 3.50903 7.34133C3.52939 7.17841 3.57012 7.03585 3.67195 6.93402C3.69232 6.89329 3.73305 6.87292 3.79415 6.83219C3.83488 6.81183 3.89597 6.7711 3.95707 6.75073C4.01817 6.73037 4.07926 6.71 4.16073 6.68963C4.24219 6.66927 4.32365 6.66927 4.40511 6.6489C4.48657 6.6489 4.5884 6.6489 4.69023 6.6489C4.79206 6.66927 4.89389 6.68963 4.99571 6.73037C5.09754 6.7711 5.19937 6.81183 5.3012 6.87292C5.40303 6.93402 5.50485 7.01548 5.60668 7.11731C5.70851 6.99512 5.81034 6.87292 5.91216 6.7711C6.01399 6.6489 6.13619 6.54708 6.23801 6.44525C6.36021 6.34342 6.46203 6.24159 6.60459 6.13976C6.72679 6.03794 6.84898 5.95647 6.99154 5.85465C7.01191 5.85465 7.01191 5.83428 7.03227 5.83428C7.05264 5.83428 7.05264 5.81391 7.073 5.81391C7.073 5.81391 7.09337 5.79355 7.11373 5.79355C7.11373 5.79355 7.1341 5.77318 7.15446 5.77318C6.93044 5.56953 6.66569 5.38624 6.40094 5.24368C6.13619 5.10112 5.87143 4.99929 5.60668 4.91783C5.34193 4.83637 5.05681 4.77527 4.79206 4.7549C4.52731 4.73454 4.26255 4.71417 4.01817 4.73454C3.85524 4.7549 3.67195 4.77527 3.52939 4.79564C3.36647 4.83637 3.22391 4.8771 3.10172 4.91783C2.97952 4.95856 2.85733 5.01966 2.7555 5.08075C2.65367 5.14185 2.57221 5.20295 2.49075 5.28441C2.28709 5.50843 2.1649 5.79355 2.1038 6.16013C2.04271 6.50634 2.06307 6.93402 2.1649 7.40243C2.24636 7.87084 2.40929 8.40034 2.63331 8.97058C2.85733 9.54081 3.14245 10.1518 3.48866 10.8238C3.24428 11.1904 3.02025 11.5774 2.8166 11.9643C2.61294 12.3513 2.40929 12.7382 2.226 13.1455C2.04271 13.5528 1.87978 13.9601 1.73722 14.3878C1.59466 14.8155 1.45211 15.2432 1.35028 15.6709C0.9226 17.3205 0.780041 18.909 0.9226 20.3753C1.06516 21.862 1.49284 23.2265 2.1649 24.4077C2.85733 25.6092 3.79415 26.6072 4.95498 27.3403C6.13619 28.0938 7.56178 28.5419 9.17066 28.6437C9.63906 28.6641 10.1278 28.6641 10.6166 28.6234C11.1054 28.5826 11.5942 28.5215 12.0626 28.4197C12.5513 28.3179 13.0401 28.1957 13.5085 28.0328C13.9973 27.8698 14.4657 27.6865 14.9341 27.4625L13.7936 25.3038C13.4678 25.4463 13.1216 25.5482 12.7957 25.65C12.4495 25.7518 12.1237 25.8333 11.7774 25.8944C11.4312 25.9555 11.1054 25.9962 10.7592 26.0166C10.413 26.0369 10.0871 26.0369 9.74089 26.0369C8.4375 25.9758 7.29702 25.6296 6.33984 25.039C5.38266 24.4688 4.60877 23.6745 4.0589 22.7173C3.48866 21.7805 3.14245 20.6604 3.02025 19.4588C2.89806 18.2776 2.97952 16.9742 3.32574 15.6301C3.67195 14.286 4.22182 13.0233 4.95498 11.8625C5.66778 10.7017 6.56386 9.66301 7.54141 8.76692C8.53932 7.87084 9.63906 7.13768 10.8203 6.60817C12.0015 6.07867 13.2438 5.73245 14.4861 5.67136C15.7487 5.58989 16.9096 5.79355 17.9279 6.24159C18.9665 6.68963 19.8422 7.3617 20.5346 8.23742C21.2271 9.11314 21.7362 10.1925 21.9806 11.4144C22.225 12.6567 22.225 14.0416 21.9399 15.5079C21.8177 16.1596 21.614 16.791 21.39 17.4019C21.166 18.0129 20.8809 18.6239 20.555 19.1941C20.2292 19.7643 19.8829 20.3346 19.4756 20.8641C19.0887 21.3936 18.6406 21.8823 18.1926 22.3508C18.1926 22.1878 18.213 22.0249 18.213 21.8823C18.213 21.7194 18.2333 21.5565 18.2333 21.4139C18.2333 21.2714 18.2537 21.1288 18.2537 21.0066C18.2537 20.8844 18.2537 20.803 18.2537 20.7215C18.2537 20.6604 18.2537 20.5993 18.2333 20.5586C18.213 20.5179 18.213 20.4975 18.1926 20.4568C18.1722 20.4364 18.1519 20.416 18.1315 20.416C18.1111 20.416 18.0908 20.3957 18.05 20.3957C18.0297 20.3957 18.0093 20.3957 17.9889 20.3957C17.9686 20.3957 17.9482 20.3957 17.9279 20.416C17.9075 20.416 17.9075 20.4364 17.8871 20.4364H17.8668L13.8751 21.7398C13.8751 21.7398 13.8344 21.7602 13.7936 21.7805C13.7529 21.8009 13.6918 21.8416 13.6511 21.8823C13.6103 21.9231 13.5696 22.0045 13.5696 22.086C13.5696 22.1675 13.59 22.2897 13.6511 22.4119C13.6511 22.4119 13.6511 22.4322 13.6714 22.4322C13.6714 22.4322 13.6714 22.4526 13.6918 22.4526C13.6918 22.4526 13.6918 22.4729 13.7122 22.4729C13.7122 22.4729 13.7122 22.4933 13.7325 22.4933C13.9158 22.8599 14.1602 23.3487 14.4657 23.8985C14.7508 24.4484 15.097 25.0797 15.4229 25.6907C15.7487 26.3017 16.0746 26.9126 16.3597 27.4421C16.6448 27.9717 16.8892 28.3993 17.0318 28.6844C17.0521 28.7048 17.0521 28.7252 17.0725 28.7455C17.0929 28.7659 17.0929 28.7863 17.1132 28.8066C17.1132 28.827 17.1336 28.8474 17.1336 28.8677C17.1336 28.8881 17.154 28.8881 17.154 28.9085C17.1947 28.9696 17.2354 29.0307 17.2558 29.0918C17.2965 29.1325 17.3169 29.1732 17.3576 29.214C17.3983 29.2343 17.4187 29.2751 17.4594 29.2751C17.4798 29.2954 17.5205 29.2954 17.5409 29.2954C17.5816 29.2954 17.6427 29.275 17.6835 29.2547C17.7242 29.2343 17.7649 29.1936 17.7853 29.1325C17.8057 29.0918 17.8464 29.0307 17.8464 28.9899C17.8668 28.9492 17.8668 28.8881 17.8871 28.8677C17.8871 28.8474 17.8871 28.8474 17.8871 28.827C17.8871 28.8066 17.8871 28.7863 17.8871 28.7659C17.8871 28.7455 17.8871 28.7048 17.8871 28.6844C17.8871 28.6437 17.8871 28.6234 17.8871 28.5826C17.8871 28.4401 17.9075 28.2975 17.9075 28.1346C17.9075 27.9717 17.9279 27.8087 17.9279 27.6458C17.9279 27.4829 17.9482 27.3607 17.9482 27.2589C17.9482 27.157 17.9482 27.0959 17.9482 27.0756C18.4981 27.4014 19.048 27.7273 19.5775 28.0124C20.1273 28.3179 20.6568 28.5826 21.166 28.827C21.6751 29.0714 22.1639 29.275 22.6119 29.4176C23.06 29.5602 23.4877 29.662 23.8542 29.6824C23.895 29.6824 23.9561 29.6824 23.9968 29.6824C24.0375 29.6824 24.0986 29.6824 24.1394 29.6824C24.1801 29.6824 24.2208 29.6824 24.2819 29.662C24.3226 29.662 24.3634 29.6416 24.4041 29.6416C24.4652 29.6213 24.5263 29.6213 24.5874 29.6009C24.6485 29.5805 24.7096 29.5602 24.7503 29.5398C24.8114 29.5194 24.8521 29.4787 24.8929 29.4583C24.9336 29.4176 24.9743 29.3769 25.0151 29.3361C25.2798 29.0714 25.3816 28.6437 25.3816 28.0938C25.3816 27.5643 25.2595 26.9126 25.0354 26.2202V26.1795Z" fill="#F39317"/>
<path d="M12.5929 15.2098V14.273H11.2692V9.14089H10.2916C9.88431 9.52784 9.43627 9.79259 8.94749 9.91478V10.872C9.19188 10.8312 9.4159 10.7498 9.66029 10.6276C9.90467 10.5054 10.088 10.3832 10.2305 10.2406V14.2526H8.56055V15.1895H12.5929V15.2098ZM17.5418 10.8923C17.5418 10.3425 17.3585 9.89442 16.9715 9.5482C16.5846 9.22235 16.0958 9.03906 15.4848 9.03906C14.8739 9.03906 14.3647 9.20199 13.9982 9.52784C13.6112 9.85368 13.4279 10.3017 13.4279 10.8516V13.438C13.4279 13.9879 13.6112 14.4359 13.9982 14.7618C14.3851 15.0876 14.8739 15.2506 15.4848 15.2506C16.0958 15.2506 16.5846 15.0876 16.9715 14.7414C17.3585 14.4156 17.5418 13.9675 17.5418 13.3973V10.8516V10.8923ZM16.5031 13.3566C16.5031 13.6824 16.4217 13.9268 16.2384 14.1101C16.0551 14.2934 15.8107 14.3748 15.5052 14.3748C15.1794 14.3748 14.935 14.2934 14.772 14.1101C14.5888 13.9268 14.5073 13.6824 14.5073 13.3566V10.9331C14.5073 10.6072 14.5888 10.3628 14.772 10.1795C14.9553 9.99624 15.1997 9.91478 15.5256 9.91478C15.8514 9.91478 16.0958 9.99624 16.2791 10.1795C16.4624 10.3628 16.5439 10.6072 16.5439 10.9331L16.5235 13.3566H16.5031Z" fill="#F39317"/>
<path d="M9.76136 20.2963V15.7344H8.98747V19.1965L7.1953 15.7344H6.0752V20.2963H6.84909V16.8341L8.66162 20.2963H9.76136ZM11.3499 19.8686C11.3499 19.7464 11.3091 19.6649 11.2277 19.6038C11.1462 19.5427 11.0444 19.5224 10.9222 19.5224C10.8 19.5224 10.6982 19.5631 10.6167 19.6038C10.5353 19.6649 10.4945 19.7464 10.4945 19.8686V19.9908C10.4945 20.113 10.5353 20.1944 10.6167 20.2555C10.6982 20.3166 10.8 20.3574 10.9222 20.3574C11.0444 20.3574 11.1462 20.3166 11.2277 20.2555C11.3091 20.1944 11.3499 20.113 11.3499 19.9908L11.3295 19.8686H11.3499ZM14.7713 19.0743H14.0585C14.0585 19.502 13.8345 19.726 13.3864 19.726C12.9384 19.726 12.7144 19.502 12.7144 19.0336V18.3615C12.7144 17.9135 12.9384 17.6691 13.3864 17.6691C13.8345 17.6691 14.0585 17.8931 14.0585 18.3208H14.7713V18.2597C14.7713 17.8728 14.6491 17.5673 14.4047 17.3433C14.1603 17.1396 13.8141 17.0174 13.3864 17.0174C12.9588 17.0174 12.6329 17.1192 12.3682 17.3636C12.1238 17.5876 11.9812 17.9135 11.9812 18.3004V19.0947C11.9812 19.4816 12.1034 19.8075 12.3682 20.0111C12.6125 20.2352 12.9588 20.337 13.3864 20.337C13.8141 20.337 14.1603 20.2352 14.4047 20.0111C14.6491 19.7871 14.7917 19.4816 14.7917 19.0947L14.7713 19.054V19.0743ZM19.9034 20.2963V18.0153C19.9034 17.7098 19.822 17.4654 19.659 17.2822C19.4961 17.1192 19.2721 17.0174 19.0073 17.0174C18.7426 17.0174 18.4982 17.0989 18.2742 17.2414L17.928 17.4654C17.7854 17.1803 17.541 17.0378 17.1541 17.0378C16.93 17.0378 16.6857 17.0989 16.482 17.2414L16.1969 17.4044V17.0581H15.4637V20.2759H16.1969V18.056L16.5838 17.8117C16.7468 17.7302 16.8689 17.6895 16.9708 17.6895C17.1948 17.6895 17.317 17.832 17.317 18.0968V20.2759H18.0502V18.056L18.4371 17.8117C18.6 17.7302 18.7222 17.6895 18.824 17.6895C19.0481 17.6895 19.1703 17.832 19.1703 18.0764V20.2759H19.9238L19.9034 20.2963Z" fill="#F39317"/>
<path d="M21.9806 11.7228C25.0558 11.7228 27.5607 9.23823 27.5607 6.14267C27.5607 3.06747 25.0761 0.5625 21.9806 0.5625C18.9054 0.5625 16.4004 3.0471 16.4004 6.14267C16.4004 9.21787 18.885 11.7228 21.9806 11.7228Z" fill="#F39317"/>
<path d="M21.9806 11.7228C25.0558 11.7228 27.5607 9.23823 27.5607 6.14267C27.5607 3.06747 25.0761 0.5625 21.9806 0.5625C18.9054 0.5625 16.4004 3.0471 16.4004 6.14267C16.4004 9.21787 18.885 11.7228 21.9806 11.7228Z" stroke="white" stroke-width="1.1812"/>
<path d="M23.9568 9.32034V8.66864H21.2278L22.9589 6.91721C23.3255 6.55063 23.5902 6.20441 23.7328 5.89893C23.8754 5.59344 23.9568 5.28796 23.9568 4.96211C23.9568 4.45297 23.8143 4.04566 23.4884 3.76054C23.1829 3.45506 22.7349 3.3125 22.1443 3.3125C21.5944 3.3125 21.1464 3.45506 20.8002 3.74018C20.4539 4.0253 20.291 4.41224 20.291 4.90101V4.96211H20.9631C20.9631 4.6159 21.0649 4.37151 21.2686 4.20858C21.4722 4.04566 21.7573 3.94383 22.1239 3.94383C22.5109 3.94383 22.796 4.02529 22.9793 4.20858C23.1626 4.39188 23.2644 4.63626 23.2644 4.96211C23.2644 5.22686 23.2033 5.47125 23.0811 5.69527C22.9589 5.91929 22.7552 6.18405 22.4905 6.48953L20.3928 8.64828V9.29998H23.9365L23.9568 9.32034Z" fill="#FEFEFE"/>
</svg>
