<svg width="16" height="17" viewBox="0 0 16 17" fill="none" xmlns="http://www.w3.org/2000/svg">
<path d="M7.86104 16.5951C12.2557 16.5951 15.7289 13.051 15.7289 8.72725C15.7289 4.33258 12.1848 0.859375 7.86104 0.859375C3.46637 0.859375 -0.00683594 4.40347 -0.00683594 8.72725C-0.00683594 13.1219 3.53725 16.5951 7.86104 16.5951Z" fill="#F39317"/>
<path d="M8.00283 9.29539C8.49901 9.29539 8.9243 9.43715 9.20782 9.72068C9.49135 10.0042 9.63311 10.3586 9.63311 10.8548C9.63311 11.351 9.49135 11.7762 9.13694 12.0598C8.78253 12.3433 8.42812 12.4851 7.86107 12.4851C7.29402 12.4851 6.86872 12.3433 6.51432 12.1307C6.23079 11.8471 6.01814 11.4927 6.01814 10.9965H5.09668V11.0674C5.09668 11.7762 5.38021 12.3433 5.87638 12.6977C6.37255 13.123 7.01049 13.2648 7.86107 13.2648C8.56989 13.2648 9.20782 13.0521 9.77488 12.6268C10.3419 12.2015 10.5546 11.5636 10.5546 10.7839C10.5546 10.5004 10.4837 10.2168 10.4128 10.0042C10.3419 9.79156 10.2002 9.57891 10.1293 9.43715C9.98752 9.29539 9.84576 9.15362 9.704 9.08274C9.56223 9.01186 9.49135 8.94098 9.42047 8.87009C9.34959 8.87009 9.34959 8.79921 9.27871 8.79921L9.42047 8.72833C9.49135 8.72833 9.63311 8.65745 9.704 8.51569C9.84576 8.4448 9.91664 8.30304 10.0584 8.16128C10.2002 8.01951 10.2711 7.87775 10.3419 7.59422C10.4128 7.38158 10.4837 7.09805 10.4837 6.8854C10.4837 6.24747 10.2711 5.68041 9.77488 5.25512C9.27871 4.82983 8.71165 4.61719 7.86107 4.61719C7.08137 4.61719 6.51432 4.82983 6.01814 5.18424C5.52197 5.53865 5.30932 6.1057 5.30932 6.74364V6.81452H6.23079C6.23079 6.38923 6.37255 6.03482 6.65608 5.82218C6.93961 5.60953 7.3649 5.46777 7.86107 5.46777C8.42812 5.46777 8.78253 5.60953 9.06606 5.82218C9.34959 6.1057 9.49135 6.38923 9.49135 6.81452C9.49135 7.3107 9.34959 7.6651 9.06606 7.94863C8.78253 8.23216 8.42812 8.37392 7.93195 8.37392H6.65608V9.2245H8.00283V9.29539Z" fill="#FEFEFE"/>
</svg>
