<svg width="27" height="30" viewBox="0 0 27 30" fill="none" xmlns="http://www.w3.org/2000/svg">
<path d="M24.4104 26.1092C24.2068 25.4167 23.9013 24.6429 23.5551 23.8486C23.2089 23.0747 22.8016 22.2804 22.3535 21.4862C22.2924 21.588 22.2313 21.6898 22.1702 21.7917C22.1091 21.8935 22.048 21.9953 21.9666 22.0972C21.9055 22.199 21.824 22.3008 21.7629 22.3823C21.6814 22.4841 21.6204 22.5656 21.5389 22.6674C21.5389 22.6674 21.5389 22.6878 21.5185 22.6878C21.5185 22.6878 21.5185 22.7081 21.4982 22.7081L21.4778 22.7285L21.4574 22.7489L21.3963 22.8303C21.4574 23.0136 21.5389 23.2173 21.6204 23.4616C21.7018 23.6857 21.8036 23.9504 21.8851 24.1744C21.9666 24.4188 22.0277 24.6429 22.048 24.8058C22.0684 24.9891 22.0684 25.1316 22.0073 25.1927C21.9869 25.2131 21.9666 25.2335 21.9258 25.2538C21.9055 25.2742 21.8647 25.2742 21.8444 25.2945C21.8036 25.2945 21.7833 25.3149 21.7425 25.3149C21.7018 25.3149 21.6611 25.3149 21.6204 25.3149C21.5593 25.3149 21.4778 25.2945 21.4167 25.2945C21.3352 25.2742 21.2538 25.2538 21.1723 25.2335C21.0908 25.2131 21.0094 25.1724 20.9076 25.1316C20.8261 25.0909 20.7243 25.0502 20.6224 25.0094C20.5002 24.9483 20.3781 24.8872 20.2355 24.8261C20.1133 24.765 19.9707 24.6836 19.8282 24.6021C19.6856 24.5207 19.5431 24.4392 19.4005 24.3577C19.2579 24.2763 19.1154 24.1744 18.9525 24.093C19.5431 23.5024 20.0929 22.871 20.6021 22.199C21.1112 21.5269 21.5796 20.8141 21.9869 20.081C22.3942 19.3478 22.7405 18.5739 23.0459 17.8C23.3311 17.0058 23.5754 16.2115 23.7384 15.3969C24.105 13.564 24.0846 11.8329 23.7384 10.2851C23.4125 8.77807 22.7608 7.43394 21.8851 6.35457C21.0094 5.29556 19.9096 4.46057 18.6266 3.95143C17.3639 3.44229 15.918 3.19791 14.3498 3.3201C13.3112 3.3812 12.2929 3.60522 11.3154 3.93107C10.3378 4.25692 9.38064 4.70496 8.46419 5.25483C7.54774 5.8047 6.69239 6.43603 5.87777 7.16919C5.06314 7.90235 4.32998 8.69661 3.65792 9.57233C3.47463 9.22611 3.33207 8.92063 3.20988 8.63551C3.08768 8.3504 3.00622 8.08564 2.94512 7.86162C2.88403 7.6376 2.86366 7.43394 2.88403 7.27102C2.90439 7.1081 2.94512 6.96554 3.04695 6.86371C3.06732 6.82298 3.10805 6.80261 3.16915 6.76188C3.20988 6.74152 3.27097 6.70078 3.33207 6.68042C3.39317 6.66005 3.45426 6.63969 3.53573 6.61932C3.61719 6.59896 3.69865 6.59896 3.78011 6.57859C3.86157 6.57859 3.9634 6.57859 4.06523 6.57859C4.16706 6.59896 4.26889 6.61932 4.37071 6.66005C4.47254 6.70078 4.57437 6.74152 4.6762 6.80261C4.77803 6.86371 4.87985 6.94517 4.98168 7.047C5.08351 6.92481 5.18534 6.80261 5.28716 6.70078C5.38899 6.57859 5.51119 6.47676 5.61301 6.37494C5.73521 6.27311 5.83703 6.17128 5.97959 6.06945C6.10179 5.96762 6.22398 5.88616 6.36654 5.78433C6.38691 5.78433 6.38691 5.76397 6.40727 5.76397C6.42764 5.76397 6.42764 5.7436 6.448 5.7436C6.448 5.7436 6.46837 5.72324 6.48873 5.72324C6.48873 5.72324 6.5091 5.70287 6.52946 5.70287C6.30544 5.49922 6.04069 5.31593 5.77594 5.17337C5.51119 5.03081 5.24643 4.92898 4.98168 4.84752C4.71693 4.76606 4.43181 4.70496 4.16706 4.68459C3.90231 4.66423 3.63755 4.64386 3.39317 4.66423C3.23024 4.68459 3.04695 4.70496 2.90439 4.72532C2.74147 4.76605 2.59891 4.80679 2.47672 4.84752C2.35452 4.88825 2.23233 4.94935 2.1305 5.01044C2.02867 5.07154 1.94721 5.13263 1.86575 5.2141C1.66209 5.43812 1.5399 5.72324 1.4788 6.08982C1.41771 6.43603 1.43807 6.86371 1.5399 7.33212C1.62136 7.80053 1.78429 8.33003 2.00831 8.90027C2.23233 9.4705 2.51745 10.0815 2.86366 10.7535C2.61928 11.1201 2.39525 11.5071 2.1916 11.894C1.98794 12.281 1.78429 12.6679 1.601 13.0752C1.41771 13.4825 1.25478 13.8898 1.11222 14.3175C0.969664 14.7452 0.827105 15.1729 0.725277 15.6005C0.2976 17.2501 0.155041 18.8387 0.2976 20.305C0.440159 21.7917 0.867836 23.1562 1.5399 24.3374C2.23233 25.5389 3.16915 26.5368 4.32998 27.27C5.51119 28.0235 6.93678 28.4716 8.54566 28.5734C9.01406 28.5938 9.50284 28.5938 9.99161 28.553C10.4804 28.5123 10.9692 28.4512 11.4376 28.3494C11.9263 28.2476 12.4151 28.1254 12.8835 27.9624C13.3723 27.7995 13.8407 27.6162 14.3091 27.3922L13.1686 25.2335C12.8428 25.376 12.4966 25.4778 12.1707 25.5797C11.8245 25.6815 11.4987 25.763 11.1524 25.8241C10.8062 25.8852 10.4804 25.9259 10.1342 25.9462C9.78796 25.9666 9.46211 25.9666 9.11589 25.9666C7.8125 25.9055 6.67202 25.5593 5.71484 24.9687C4.75766 24.3985 3.98377 23.6042 3.4339 22.647C2.86366 21.7102 2.51745 20.5901 2.39525 19.3885C2.27306 18.2073 2.35452 16.9039 2.70074 15.5598C3.04695 14.2157 3.59682 12.953 4.32998 11.7922C5.04278 10.6313 5.93886 9.59269 6.91641 8.69661C7.91432 7.80052 9.01406 7.06736 10.1953 6.53786C11.3765 6.00835 12.6188 5.66214 13.8611 5.60104C15.1237 5.51958 16.2846 5.72324 17.3029 6.17128C18.3415 6.61932 19.2172 7.29139 19.9096 8.16711C20.6021 9.04282 21.1112 10.1222 21.3556 11.3441C21.6 12.5864 21.6 13.9713 21.3149 15.4376C21.1927 16.0893 20.989 16.7206 20.765 17.3316C20.541 17.9426 20.2559 18.5535 19.93 19.1238C19.6042 19.694 19.2579 20.2643 18.8506 20.7938C18.4637 21.3233 18.0156 21.812 17.5676 22.2804C17.5676 22.1175 17.588 21.9546 17.588 21.812C17.588 21.6491 17.6083 21.4862 17.6083 21.3436C17.6083 21.2011 17.6287 21.0585 17.6287 20.9363C17.6287 20.8141 17.6287 20.7327 17.6287 20.6512C17.6287 20.5901 17.6287 20.529 17.6083 20.4883C17.588 20.4475 17.588 20.4272 17.5676 20.3864C17.5472 20.3661 17.5269 20.3457 17.5065 20.3457C17.4861 20.3457 17.4658 20.3253 17.425 20.3253C17.4047 20.3253 17.3843 20.3253 17.3639 20.3253C17.3436 20.3253 17.3232 20.3253 17.3029 20.3457C17.2825 20.3457 17.2825 20.3661 17.2621 20.3661H17.2418L13.2501 21.6695C13.2501 21.6695 13.2094 21.6898 13.1686 21.7102C13.1279 21.7306 13.0668 21.7713 13.0261 21.812C12.9853 21.8528 12.9446 21.9342 12.9446 22.0157C12.9446 22.0972 12.965 22.2193 13.0261 22.3415C13.0261 22.3415 13.0261 22.3619 13.0464 22.3619C13.0464 22.3619 13.0464 22.3823 13.0668 22.3823C13.0668 22.3823 13.0668 22.4026 13.0872 22.4026C13.0872 22.4026 13.0872 22.423 13.1075 22.423C13.2908 22.7896 13.5352 23.2784 13.8407 23.8282C14.1258 24.3781 14.472 25.0094 14.7979 25.6204C15.1237 26.2314 15.4496 26.8423 15.7347 27.3718C16.0198 27.9013 16.2642 28.329 16.4068 28.6141C16.4271 28.6345 16.4271 28.6549 16.4475 28.6752C16.4679 28.6956 16.4679 28.716 16.4882 28.7363C16.4882 28.7567 16.5086 28.7771 16.5086 28.7974C16.5086 28.8178 16.529 28.8178 16.529 28.8382C16.5697 28.8993 16.6104 28.9604 16.6308 29.0214C16.6715 29.0622 16.6919 29.1029 16.7326 29.1436C16.7733 29.164 16.7937 29.2047 16.8344 29.2047C16.8548 29.2251 16.8955 29.2251 16.9159 29.2251C16.9566 29.2251 17.0177 29.2047 17.0585 29.1844C17.0992 29.164 17.1399 29.1233 17.1603 29.0622C17.1807 29.0214 17.2214 28.9604 17.2214 28.9196C17.2418 28.8789 17.2418 28.8178 17.2621 28.7974C17.2621 28.7771 17.2621 28.7771 17.2621 28.7567C17.2621 28.7363 17.2621 28.716 17.2621 28.6956C17.2621 28.6752 17.2621 28.6345 17.2621 28.6141C17.2621 28.5734 17.2621 28.553 17.2621 28.5123C17.2621 28.3697 17.2825 28.2272 17.2825 28.0643C17.2825 27.9013 17.3029 27.7384 17.3029 27.5755C17.3029 27.4126 17.3232 27.2904 17.3232 27.1885C17.3232 27.0867 17.3232 27.0256 17.3232 27.0053C17.8731 27.3311 18.423 27.657 18.9525 27.9421C19.5023 28.2476 20.0318 28.5123 20.541 28.7567C21.0501 29.0011 21.5389 29.2047 21.9869 29.3473C22.435 29.4899 22.8627 29.5917 23.2292 29.612C23.27 29.612 23.3311 29.612 23.3718 29.612C23.4125 29.612 23.4736 29.612 23.5144 29.612C23.5551 29.612 23.5958 29.612 23.6569 29.5917C23.6976 29.5917 23.7384 29.5713 23.7791 29.5713C23.8402 29.551 23.9013 29.551 23.9624 29.5306C24.0235 29.5102 24.0846 29.4899 24.1253 29.4695C24.1864 29.4491 24.2271 29.4084 24.2679 29.388C24.3086 29.3473 24.3493 29.3066 24.3901 29.2658C24.6548 29.0011 24.7566 28.5734 24.7566 28.0235C24.7566 27.494 24.6345 26.8423 24.4104 26.1499V26.1092Z" fill="#F39317"/>
<path d="M11.9679 15.1395V14.2027H10.6442V9.07058H9.66662C9.25931 9.45752 8.81127 9.72228 8.32249 9.84447V10.8017C8.56688 10.7609 8.7909 10.6795 9.03529 10.5573C9.27967 10.4351 9.46297 10.3129 9.60552 10.1703V14.1823H7.93555V15.1192H11.9679V15.1395ZM16.9168 10.822C16.9168 10.2721 16.7335 9.8241 16.3465 9.47789C15.9596 9.15204 15.4708 8.96875 14.8598 8.96875C14.2489 8.96875 13.7397 9.13167 13.3732 9.45752C12.9862 9.78337 12.8029 10.2314 12.8029 10.7813V13.3677C12.8029 13.9176 12.9862 14.3656 13.3732 14.6915C13.7601 15.0173 14.2489 15.1802 14.8598 15.1802C15.4708 15.1802 15.9596 15.0173 16.3465 14.6711C16.7335 14.3453 16.9168 13.8972 16.9168 13.327V10.7813V10.822ZM15.8781 13.2863C15.8781 13.6121 15.7967 13.8565 15.6134 14.0398C15.4301 14.2231 15.1857 14.3045 14.8802 14.3045C14.5544 14.3045 14.31 14.2231 14.147 14.0398C13.9638 13.8565 13.8823 13.6121 13.8823 13.2863V10.8627C13.8823 10.5369 13.9638 10.2925 14.147 10.1092C14.3303 9.92593 14.5747 9.84447 14.9006 9.84447C15.2264 9.84447 15.4708 9.92593 15.6541 10.1092C15.8374 10.2925 15.9189 10.5369 15.9189 10.8627L15.8985 13.2863H15.8781Z" fill="#F39317"/>
<path d="M9.13636 20.226V15.6641H8.36247V19.1262L6.5703 15.6641H5.4502V20.226H6.22409V16.7638L8.03662 20.226H9.13636ZM10.7249 19.7983C10.7249 19.6761 10.6841 19.5946 10.6027 19.5335C10.5212 19.4724 10.4194 19.4521 10.2972 19.4521C10.175 19.4521 10.0732 19.4928 9.99172 19.5335C9.91026 19.5946 9.86952 19.6761 9.86952 19.7983V19.9205C9.86952 20.0427 9.91026 20.1241 9.99172 20.1852C10.0732 20.2463 10.175 20.287 10.2972 20.287C10.4194 20.287 10.5212 20.2463 10.6027 20.1852C10.6841 20.1241 10.7249 20.0427 10.7249 19.9205L10.7045 19.7983H10.7249ZM14.1463 19.004H13.4335C13.4335 19.4317 13.2095 19.6557 12.7614 19.6557C12.3134 19.6557 12.0894 19.4317 12.0894 18.9633V18.2912C12.0894 17.8432 12.3134 17.5988 12.7614 17.5988C13.2095 17.5988 13.4335 17.8228 13.4335 18.2505H14.1463V18.1894C14.1463 17.8024 14.0241 17.497 13.7797 17.2729C13.5353 17.0693 13.1891 16.9471 12.7614 16.9471C12.3338 16.9471 12.0079 17.0489 11.7432 17.2933C11.4988 17.5173 11.3562 17.8432 11.3562 18.2301V19.0244C11.3562 19.4113 11.4784 19.7372 11.7432 19.9408C11.9875 20.1649 12.3338 20.2667 12.7614 20.2667C13.1891 20.2667 13.5353 20.1649 13.7797 19.9408C14.0241 19.7168 14.1667 19.4113 14.1667 19.0244L14.1463 18.9836V19.004ZM19.2784 20.226V17.945C19.2784 17.6395 19.197 17.3951 19.034 17.2118C18.8711 17.0489 18.6471 16.9471 18.3823 16.9471C18.1176 16.9471 17.8732 17.0286 17.6492 17.1711L17.303 17.3951C17.1604 17.11 16.916 16.9675 16.5291 16.9675C16.305 16.9675 16.0607 17.0286 15.857 17.1711L15.5719 17.334V16.9878H14.8387V20.2056H15.5719V17.9857L15.9588 17.7414C16.1218 17.6599 16.2439 17.6192 16.3458 17.6192C16.5698 17.6192 16.692 17.7617 16.692 18.0265V20.2056H17.4252V17.9857L17.8121 17.7414C17.975 17.6599 18.0972 17.6192 18.199 17.6192C18.4231 17.6192 18.5453 17.7617 18.5453 18.0061V20.2056H19.2988L19.2784 20.226Z" fill="#F39317"/>
<path d="M21.3556 11.6525C24.4308 11.6525 26.9357 9.16792 26.9357 6.07235C26.9357 2.99715 24.4511 0.492188 21.3556 0.492188C18.2804 0.492188 15.7754 2.97679 15.7754 6.07235C15.7754 9.14755 18.26 11.6525 21.3556 11.6525Z" fill="#F39317"/>
<path d="M21.3556 11.6525C24.4308 11.6525 26.9357 9.16792 26.9357 6.07235C26.9357 2.99715 24.4511 0.492188 21.3556 0.492188C18.2804 0.492188 15.7754 2.97679 15.7754 6.07235C15.7754 9.14755 18.26 11.6525 21.3556 11.6525Z" stroke="white" stroke-width="1.1812"/>
<path d="M23.3318 9.25003V8.59833H20.6028L22.3339 6.84689C22.7005 6.48031 22.9652 6.1341 23.1078 5.82861C23.2504 5.52313 23.3318 5.21765 23.3318 4.8918C23.3318 4.38266 23.1893 3.97535 22.8634 3.69023C22.5579 3.38475 22.1099 3.24219 21.5193 3.24219C20.9694 3.24219 20.5214 3.38475 20.1752 3.66986C19.8289 3.95498 19.666 4.34193 19.666 4.8307V4.8918H20.3381C20.3381 4.54558 20.4399 4.3012 20.6436 4.13827C20.8472 3.97535 21.1323 3.87352 21.4989 3.87352C21.8859 3.87352 22.171 3.95498 22.3543 4.13827C22.5376 4.32156 22.6394 4.56595 22.6394 4.8918C22.6394 5.15655 22.5783 5.40094 22.4561 5.62496C22.3339 5.84898 22.1302 6.11373 21.8655 6.41922L19.7678 8.57797V9.22967H23.3115L23.3318 9.25003Z" fill="#FEFEFE"/>
</svg>
