<svg width="17" height="17" viewBox="0 0 17 17" fill="none" xmlns="http://www.w3.org/2000/svg">
<path d="M8.74524 4.36719C8.87785 4.36719 9.00503 4.41987 9.0988 4.51364C9.19257 4.60741 9.24525 4.73459 9.24525 4.8672V7.86729H12.2453C12.378 7.86729 12.5051 7.91997 12.5989 8.01375C12.6927 8.10752 12.7454 8.2347 12.7454 8.36731C12.7454 8.49992 12.6927 8.6271 12.5989 8.72087C12.5051 8.81464 12.378 8.86732 12.2453 8.86732H9.24525V11.8674C9.24525 12 9.19257 12.1272 9.0988 12.221C9.00503 12.3148 8.87785 12.3674 8.74524 12.3674C8.61263 12.3674 8.48545 12.3148 8.39167 12.221C8.2979 12.1272 8.24522 12 8.24522 11.8674V8.86732H5.24513C5.11252 8.86732 4.98534 8.81464 4.89157 8.72087C4.7978 8.6271 4.74512 8.49992 4.74512 8.36731C4.74512 8.2347 4.7978 8.10752 4.89157 8.01375C4.98534 7.91997 5.11252 7.86729 5.24513 7.86729H8.24522V4.8672C8.24522 4.73459 8.2979 4.60741 8.39167 4.51364C8.48545 4.41987 8.61263 4.36719 8.74524 4.36719Z" fill="#CFCCC9"/>
</svg>
