<svg width="17" height="17" viewBox="0 0 17 17" fill="none" xmlns="http://www.w3.org/2000/svg">
<path d="M8.74524 4.78906C8.87785 4.78906 9.00503 4.84174 9.0988 4.93551C9.19257 5.02928 9.24525 5.15647 9.24525 5.28908V8.28917H12.2453C12.378 8.28917 12.5051 8.34185 12.5989 8.43562C12.6927 8.52939 12.7454 8.65657 12.7454 8.78918C12.7454 8.9218 12.6927 9.04898 12.5989 9.14275C12.5051 9.23652 12.378 9.2892 12.2453 9.2892H9.24525V12.2893C9.24525 12.4219 9.19257 12.5491 9.0988 12.6429C9.00503 12.7366 8.87785 12.7893 8.74524 12.7893C8.61263 12.7893 8.48545 12.7366 8.39167 12.6429C8.2979 12.5491 8.24522 12.4219 8.24522 12.2893V9.2892H5.24513C5.11252 9.2892 4.98534 9.23652 4.89157 9.14275C4.7978 9.04898 4.74512 8.9218 4.74512 8.78918C4.74512 8.65657 4.7978 8.52939 4.89157 8.43562C4.98534 8.34185 5.11252 8.28917 5.24513 8.28917H8.24522V5.28908C8.24522 5.15647 8.2979 5.02928 8.39167 4.93551C8.48545 4.84174 8.61263 4.78906 8.74524 4.78906Z" fill="#CFCCC9"/>
</svg>
