<svg width="17" height="17" viewBox="0 0 17 17" fill="none" xmlns="http://www.w3.org/2000/svg">
<path d="M8.58313 4.67969C8.71574 4.67969 8.84292 4.73237 8.93669 4.82614C9.03047 4.91991 9.08314 5.04709 9.08314 5.1797V8.17979H12.0832C12.2158 8.17979 12.343 8.23247 12.4368 8.32625C12.5306 8.42002 12.5833 8.5472 12.5833 8.67981C12.5833 8.81242 12.5306 8.9396 12.4368 9.03337C12.343 9.12714 12.2158 9.17982 12.0832 9.17982H9.08314V12.1799C9.08314 12.3125 9.03047 12.4397 8.93669 12.5335C8.84292 12.6273 8.71574 12.6799 8.58313 12.6799C8.45052 12.6799 8.32334 12.6273 8.22957 12.5335C8.13579 12.4397 8.08311 12.3125 8.08311 12.1799V9.17982H5.08302C4.95041 9.17982 4.82323 9.12714 4.72946 9.03337C4.63569 8.9396 4.58301 8.81242 4.58301 8.67981C4.58301 8.5472 4.63569 8.42002 4.72946 8.32625C4.82323 8.23247 4.95041 8.17979 5.08302 8.17979H8.08311V5.1797C8.08311 5.04709 8.13579 4.91991 8.22957 4.82614C8.32334 4.73237 8.45052 4.67969 8.58313 4.67969Z" fill="#CFCCC9"/>
</svg>
