<svg width="17" height="16" viewBox="0 0 17 16" fill="none" xmlns="http://www.w3.org/2000/svg">
<path d="M3.60968 4.02107V7.90936C3.60968 8.4938 4.08378 8.97089 4.6712 8.97089H8.55949M14.5678 5.78929V1.901C14.5678 1.31657 14.0937 0.839478 13.5063 0.839478H4.6712C4.08677 0.839478 3.60968 1.31359 3.60968 1.901V3.31438M9.2632 8.96791H10.3098L12.1943 10.8435C12.418 11.0641 12.7966 10.9061 12.7966 10.593V8.96791H13.5033C14.0878 8.96791 14.5649 8.4938 14.5649 7.90638V6.493M5.72975 11.4398V12.8532C5.72975 13.4376 6.20385 13.9147 6.79127 13.9147H10.7869L13.2857 15.9245C13.5182 16.1094 13.8612 15.9454 13.8612 15.6502V13.9147H15.2745C15.859 13.9147 16.3361 13.4406 16.3361 12.8532V6.84485C16.3361 6.26042 15.862 5.78333 15.2745 5.78333H9.26618M5.73273 8.96493V10.7331M8.55949 5.78631H6.79127C6.20684 5.78631 5.72975 6.26042 5.72975 6.84784V8.26122M1.13477 3.31438H8.20465C8.78909 3.31438 9.26618 3.78849 9.26618 4.37591V10.3843C9.26618 10.9687 8.79207 11.4458 8.20465 11.4458H3.85717L2.09789 13.2826C1.87724 13.5122 1.4896 13.3571 1.4896 13.0381V11.4458H1.13477C0.550333 11.4458 0.0732422 10.9717 0.0732422 10.3843V4.37591C0.0732422 3.79147 0.547351 3.31438 1.13477 3.31438Z" stroke="white" stroke-width="0.70669" stroke-miterlimit="10"/>
</svg>
