<svg width="15" height="14" viewBox="0 0 15 14" fill="none" xmlns="http://www.w3.org/2000/svg">
<path d="M8.33424 4.7795C8.33424 4.66808 8.28998 4.56122 8.21119 4.48243C8.1324 4.40364 8.02554 4.35938 7.91411 4.35938C7.80269 4.35938 7.69583 4.40364 7.61704 4.48243C7.53825 4.56122 7.49398 4.66808 7.49398 4.7795V6.03988H6.2336C6.12218 6.03988 6.01532 6.08415 5.93653 6.16294C5.85774 6.24172 5.81348 6.34859 5.81348 6.46001C5.81348 6.57144 5.85774 6.6783 5.93653 6.75709C6.01532 6.83587 6.12218 6.88014 6.2336 6.88014H7.49398V8.14052C7.49398 8.25194 7.53825 8.3588 7.61704 8.43759C7.69583 8.51638 7.80269 8.56065 7.91411 8.56065C8.02554 8.56065 8.1324 8.51638 8.21119 8.43759C8.28998 8.3588 8.33424 8.25194 8.33424 8.14052V6.88014H9.59462C9.70605 6.88014 9.81291 6.83587 9.8917 6.75709C9.97048 6.6783 10.0147 6.57144 10.0147 6.46001C10.0147 6.34859 9.97048 6.24172 9.8917 6.16294C9.81291 6.08415 9.70605 6.03988 9.59462 6.03988H8.33424V4.7795Z" fill="#363330"/>
<path d="M1.19161 0.998047C1.08019 0.998047 0.973326 1.04231 0.894537 1.1211C0.815748 1.19989 0.771484 1.30675 0.771484 1.41817C0.771484 1.5296 0.815748 1.63646 0.894537 1.71525C0.973326 1.79404 1.08019 1.8383 1.19161 1.8383H2.12429L2.46124 3.18859L3.71994 9.89802C3.73796 9.99429 3.78905 10.0812 3.86439 10.1438C3.93972 10.2064 4.03455 10.2408 4.1325 10.2408H4.97276C4.52706 10.2408 4.09961 10.4179 3.78446 10.7331C3.4693 11.0482 3.29225 11.4757 3.29225 11.9214C3.29225 12.3671 3.4693 12.7945 3.78446 13.1096C4.09961 13.4248 4.52706 13.6019 4.97276 13.6019C5.41845 13.6019 5.8459 13.4248 6.16105 13.1096C6.47621 12.7945 6.65326 12.3671 6.65326 11.9214C6.65326 11.4757 6.47621 11.0482 6.16105 10.7331C5.8459 10.4179 5.41845 10.2408 4.97276 10.2408H10.8545C10.4088 10.2408 9.98139 10.4179 9.66624 10.7331C9.35108 11.0482 9.17403 11.4757 9.17403 11.9214C9.17403 12.3671 9.35108 12.7945 9.66624 13.1096C9.98139 13.4248 10.4088 13.6019 10.8545 13.6019C11.3002 13.6019 11.7277 13.4248 12.0428 13.1096C12.358 12.7945 12.535 12.3671 12.535 11.9214C12.535 11.4757 12.358 11.0482 12.0428 10.7331C11.7277 10.4179 11.3002 10.2408 10.8545 10.2408H11.6948C11.7927 10.2408 11.8876 10.2064 11.9629 10.1438C12.0382 10.0812 12.0893 9.99429 12.1074 9.89802L13.3677 3.17599C13.3791 3.11535 13.3769 3.05296 13.3615 2.99325C13.346 2.93353 13.3175 2.87796 13.2782 2.83048C13.2388 2.78299 13.1894 2.74477 13.1336 2.71851C13.0778 2.69225 13.0169 2.67861 12.9552 2.67856H3.19982L2.85952 1.3165C2.83684 1.22557 2.78441 1.14484 2.71057 1.08713C2.63672 1.02943 2.54571 0.998073 2.45199 0.998047H1.19161ZM4.48121 9.40059L3.37795 3.51881H12.4493L11.3461 9.40059H4.48121ZM5.81301 11.9214C5.81301 12.1442 5.72448 12.3579 5.56691 12.5155C5.40933 12.6731 5.1956 12.7616 4.97276 12.7616C4.74991 12.7616 4.53618 12.6731 4.37861 12.5155C4.22103 12.3579 4.1325 12.1442 4.1325 11.9214C4.1325 11.6985 4.22103 11.4848 4.37861 11.3272C4.53618 11.1696 4.74991 11.0811 4.97276 11.0811C5.1956 11.0811 5.40933 11.1696 5.56691 11.3272C5.72448 11.4848 5.81301 11.6985 5.81301 11.9214ZM11.6948 11.9214C11.6948 12.1442 11.6063 12.3579 11.4487 12.5155C11.2911 12.6731 11.0774 12.7616 10.8545 12.7616C10.6317 12.7616 10.418 12.6731 10.2604 12.5155C10.1028 12.3579 10.0143 12.1442 10.0143 11.9214C10.0143 11.6985 10.1028 11.4848 10.2604 11.3272C10.418 11.1696 10.6317 11.0811 10.8545 11.0811C11.0774 11.0811 11.2911 11.1696 11.4487 11.3272C11.6063 11.4848 11.6948 11.6985 11.6948 11.9214Z" fill="#363330"/>
</svg>
