<svg width="14" height="15" viewBox="0 0 14 15" fill="none" xmlns="http://www.w3.org/2000/svg">
<path d="M8.00025 5.58907C8.00025 5.47765 7.95599 5.37079 7.8772 5.292C7.79841 5.21321 7.69155 5.16895 7.58013 5.16895C7.4687 5.16895 7.36184 5.21321 7.28305 5.292C7.20426 5.37079 7.16 5.47765 7.16 5.58907V6.84945H5.89962C5.78819 6.84945 5.68133 6.89372 5.60254 6.97251C5.52376 7.0513 5.47949 7.15816 5.47949 7.26958C5.47949 7.38101 5.52376 7.48787 5.60254 7.56666C5.68133 7.64544 5.78819 7.68971 5.89962 7.68971H7.16V8.95009C7.16 9.06151 7.20426 9.16838 7.28305 9.24716C7.36184 9.32595 7.4687 9.37022 7.58013 9.37022C7.69155 9.37022 7.79841 9.32595 7.8772 9.24716C7.95599 9.16838 8.00025 9.06151 8.00025 8.95009V7.68971H9.26064C9.37206 7.68971 9.47892 7.64544 9.55771 7.56666C9.6365 7.48787 9.68076 7.38101 9.68076 7.26958C9.68076 7.15816 9.6365 7.0513 9.55771 6.97251C9.47892 6.89372 9.37206 6.84945 9.26064 6.84945H8.00025V5.58907Z" fill="#363330"/>
<path d="M0.857627 1.80762C0.746202 1.80762 0.639342 1.85188 0.560552 1.93067C0.481763 2.00946 0.4375 2.11632 0.4375 2.22774C0.4375 2.33917 0.481763 2.44603 0.560552 2.52482C0.639342 2.60361 0.746202 2.64787 0.857627 2.64787H1.79031L2.12725 3.99816L3.38595 10.7076C3.40397 10.8039 3.45507 10.8908 3.5304 10.9534C3.60573 11.016 3.70057 11.0503 3.79852 11.0504H4.63877C4.19307 11.0504 3.76563 11.2275 3.45047 11.5426C3.13532 11.8578 2.95826 12.2852 2.95826 12.7309C2.95826 13.1766 3.13532 13.6041 3.45047 13.9192C3.76563 14.2344 4.19307 14.4114 4.63877 14.4114C5.08447 14.4114 5.51191 14.2344 5.82707 13.9192C6.14223 13.6041 6.31928 13.1766 6.31928 12.7309C6.31928 12.2852 6.14223 11.8578 5.82707 11.5426C5.51191 11.2275 5.08447 11.0504 4.63877 11.0504H10.5206C10.0749 11.0504 9.64741 11.2275 9.33225 11.5426C9.0171 11.8578 8.84004 12.2852 8.84004 12.7309C8.84004 13.1766 9.0171 13.6041 9.33225 13.9192C9.64741 14.2344 10.0749 14.4114 10.5206 14.4114C10.9662 14.4114 11.3937 14.2344 11.7088 13.9192C12.024 13.6041 12.2011 13.1766 12.2011 12.7309C12.2011 12.2852 12.024 11.8578 11.7088 11.5426C11.3937 11.2275 10.9662 11.0504 10.5206 11.0504H11.3608C11.4588 11.0503 11.5536 11.016 11.6289 10.9534C11.7043 10.8908 11.7553 10.8039 11.7734 10.7076L13.0338 3.98556C13.0451 3.92492 13.043 3.86253 13.0275 3.80282C13.012 3.7431 12.9836 3.68753 12.9442 3.64005C12.9048 3.59256 12.8554 3.55434 12.7996 3.52808C12.7438 3.50182 12.6829 3.48818 12.6212 3.48813H2.86583L2.52553 2.12607C2.50285 2.03514 2.45042 1.95441 2.37658 1.8967C2.30274 1.839 2.21172 1.80764 2.11801 1.80762H0.857627ZM4.14722 10.2102L3.04397 4.32838H12.1154L11.0121 10.2102H4.14722ZM5.47903 12.7309C5.47903 12.9538 5.3905 13.1675 5.23292 13.3251C5.07534 13.4826 4.86162 13.5712 4.63877 13.5712C4.41592 13.5712 4.2022 13.4826 4.04462 13.3251C3.88704 13.1675 3.79852 12.9538 3.79852 12.7309C3.79852 12.5081 3.88704 12.2944 4.04462 12.1368C4.2022 11.9792 4.41592 11.8907 4.63877 11.8907C4.86162 11.8907 5.07534 11.9792 5.23292 12.1368C5.3905 12.2944 5.47903 12.5081 5.47903 12.7309ZM11.3608 12.7309C11.3608 12.9538 11.2723 13.1675 11.1147 13.3251C10.9571 13.4826 10.7434 13.5712 10.5206 13.5712C10.2977 13.5712 10.084 13.4826 9.9264 13.3251C9.76882 13.1675 9.6803 12.9538 9.6803 12.7309C9.6803 12.5081 9.76882 12.2944 9.9264 12.1368C10.084 11.9792 10.2977 11.8907 10.5206 11.8907C10.7434 11.8907 10.9571 11.9792 11.1147 12.1368C11.2723 12.2944 11.3608 12.5081 11.3608 12.7309Z" fill="#363330"/>
</svg>
