<svg width="14" height="15" viewBox="0 0 14 15" fill="none" xmlns="http://www.w3.org/2000/svg">
<path d="M7.59107 5.2795C7.59107 5.16808 7.54681 5.06122 7.46802 4.98243C7.38923 4.90364 7.28237 4.85938 7.17095 4.85938C7.05952 4.85938 6.95266 4.90364 6.87387 4.98243C6.79508 5.06122 6.75082 5.16808 6.75082 5.2795V6.53988H5.49044C5.37901 6.53988 5.27215 6.58415 5.19336 6.66294C5.11458 6.74172 5.07031 6.84859 5.07031 6.96001C5.07031 7.07144 5.11458 7.1783 5.19336 7.25709C5.27215 7.33587 5.37901 7.38014 5.49044 7.38014H6.75082V8.64052C6.75082 8.75194 6.79508 8.8588 6.87387 8.93759C6.95266 9.01638 7.05952 9.06065 7.17095 9.06065C7.28237 9.06065 7.38923 9.01638 7.46802 8.93759C7.54681 8.8588 7.59107 8.75194 7.59107 8.64052V7.38014H8.85146C8.96288 7.38014 9.06974 7.33587 9.14853 7.25709C9.22732 7.1783 9.27158 7.07144 9.27158 6.96001C9.27158 6.84859 9.22732 6.74172 9.14853 6.66294C9.06974 6.58415 8.96288 6.53988 8.85146 6.53988H7.59107V5.2795Z" fill="#363330"/>
<path d="M0.448447 1.49805C0.337023 1.49805 0.230162 1.54231 0.151373 1.6211C0.0725836 1.69989 0.0283203 1.80675 0.0283203 1.91817C0.0283203 2.0296 0.0725836 2.13646 0.151373 2.21525C0.230162 2.29404 0.337023 2.3383 0.448447 2.3383H1.38113L1.71807 3.68859L2.97677 10.398C2.99479 10.4943 3.04589 10.5812 3.12122 10.6438C3.19655 10.7064 3.29139 10.7408 3.38934 10.7408H4.22959C3.78389 10.7408 3.35645 10.9179 3.04129 11.2331C2.72614 11.5482 2.54908 11.9757 2.54908 12.4214C2.54908 12.8671 2.72614 13.2945 3.04129 13.6096C3.35645 13.9248 3.78389 14.1019 4.22959 14.1019C4.67529 14.1019 5.10273 13.9248 5.41789 13.6096C5.73305 13.2945 5.9101 12.8671 5.9101 12.4214C5.9101 11.9757 5.73305 11.5482 5.41789 11.2331C5.10273 10.9179 4.67529 10.7408 4.22959 10.7408H10.1114C9.66567 10.7408 9.23823 10.9179 8.92307 11.2331C8.60792 11.5482 8.43086 11.9757 8.43086 12.4214C8.43086 12.8671 8.60792 13.2945 8.92307 13.6096C9.23823 13.9248 9.66567 14.1019 10.1114 14.1019C10.5571 14.1019 10.9845 13.9248 11.2997 13.6096C11.6148 13.2945 11.7919 12.8671 11.7919 12.4214C11.7919 11.9757 11.6148 11.5482 11.2997 11.2331C10.9845 10.9179 10.5571 10.7408 10.1114 10.7408H10.9516C11.0496 10.7408 11.1444 10.7064 11.2197 10.6438C11.2951 10.5812 11.3462 10.4943 11.3642 10.398L12.6246 3.67599C12.6359 3.61535 12.6338 3.55296 12.6183 3.49325C12.6028 3.43353 12.5744 3.37796 12.535 3.33048C12.4956 3.28299 12.4463 3.24477 12.3904 3.21851C12.3346 3.19225 12.2737 3.17861 12.212 3.17856H2.45666L2.11635 1.8165C2.09367 1.72557 2.04124 1.64484 1.9674 1.58713C1.89356 1.52943 1.80254 1.49807 1.70883 1.49805H0.448447ZM3.73804 9.90059L2.63479 4.01881H11.7062L10.6029 9.90059H3.73804ZM5.06985 12.4214C5.06985 12.6442 4.98132 12.8579 4.82374 13.0155C4.66616 13.1731 4.45244 13.2616 4.22959 13.2616C4.00674 13.2616 3.79302 13.1731 3.63544 13.0155C3.47786 12.8579 3.38934 12.6442 3.38934 12.4214C3.38934 12.1985 3.47786 11.9848 3.63544 11.8272C3.79302 11.6696 4.00674 11.5811 4.22959 11.5811C4.45244 11.5811 4.66616 11.6696 4.82374 11.8272C4.98132 11.9848 5.06985 12.1985 5.06985 12.4214ZM10.9516 12.4214C10.9516 12.6442 10.8631 12.8579 10.7055 13.0155C10.5479 13.1731 10.3342 13.2616 10.1114 13.2616C9.88852 13.2616 9.6748 13.1731 9.51722 13.0155C9.35964 12.8579 9.27112 12.6442 9.27112 12.4214C9.27112 12.1985 9.35964 11.9848 9.51722 11.8272C9.6748 11.6696 9.88852 11.5811 10.1114 11.5811C10.3342 11.5811 10.5479 11.6696 10.7055 11.8272C10.8631 11.9848 10.9516 12.1985 10.9516 12.4214Z" fill="#363330"/>
</svg>
