<svg width="17" height="17" viewBox="0 0 17 17" fill="none" xmlns="http://www.w3.org/2000/svg">
<path d="M8.50696 4.37109C8.63957 4.37109 8.76675 4.42377 8.86052 4.51754C8.95429 4.61132 9.00697 4.7385 9.00697 4.87111V7.8712H12.0071C12.1397 7.8712 12.2669 7.92388 12.3606 8.01765C12.4544 8.11142 12.5071 8.2386 12.5071 8.37122C12.5071 8.50383 12.4544 8.63101 12.3606 8.72478C12.2669 8.81855 12.1397 8.87123 12.0071 8.87123H9.00697V11.8713C9.00697 12.0039 8.95429 12.1311 8.86052 12.2249C8.76675 12.3187 8.63957 12.3713 8.50696 12.3713C8.37435 12.3713 8.24716 12.3187 8.15339 12.2249C8.05962 12.1311 8.00694 12.0039 8.00694 11.8713V8.87123H5.00685C4.87424 8.87123 4.74706 8.81855 4.65329 8.72478C4.55952 8.63101 4.50684 8.50383 4.50684 8.37122C4.50684 8.2386 4.55952 8.11142 4.65329 8.01765C4.74706 7.92388 4.87424 7.8712 5.00685 7.8712H8.00694V4.87111C8.00694 4.7385 8.05962 4.61132 8.15339 4.51754C8.24716 4.42377 8.37435 4.37109 8.50696 4.37109Z" fill="#CFCCC9"/>
</svg>
