<svg width="43" height="19" viewBox="0 0 43 19" fill="none" xmlns="http://www.w3.org/2000/svg">
<path d="M40.6356 3.05954V1.54149H38.2969H3.88596H1.54735V3.05954H3.88596V15.9424H1.54735V17.4605H3.88596H38.2969H40.6356V15.9424H38.2969V3.05954H40.6356ZM0 0H42.177V18.9961H0V0ZM34.2058 5.96082C34.2058 6.52349 33.7487 6.98066 33.186 6.98066C32.6233 6.98066 32.1662 6.52349 32.1662 5.96082C32.1662 5.39815 32.6233 4.94097 33.186 4.94097C33.7487 4.94097 34.2058 5.39815 34.2058 5.96082ZM30.355 5.96082C30.355 6.52349 29.8979 6.98066 29.3352 6.98066C28.7725 6.98066 28.3154 6.52349 28.3154 5.96082C28.3154 5.39815 28.7725 4.94097 29.3352 4.94097C29.8979 4.94097 30.355 5.39815 30.355 5.96082ZM26.5043 5.96082C26.5043 6.52349 26.0471 6.98066 25.4844 6.98066C24.9217 6.98066 24.4646 6.52349 24.4646 5.96082C24.4646 5.39815 24.9217 4.94097 25.4844 4.94097C26.0471 4.94097 26.5043 5.39815 26.5043 5.96082ZM34.2 9.49511C34.2 10.0578 33.7428 10.515 33.1801 10.515C32.6175 10.515 32.1603 10.0578 32.1603 9.49511C32.1603 8.93244 32.6175 8.47527 33.1801 8.47527C33.7428 8.47527 34.2 8.93244 34.2 9.49511ZM30.3492 9.49511C30.3492 10.0578 29.892 10.515 29.3293 10.515C28.7667 10.515 28.3095 10.0578 28.3095 9.49511C28.3095 8.93244 28.7667 8.47527 29.3293 8.47527C29.892 8.47527 30.3492 8.93244 30.3492 9.49511ZM26.4984 9.49511C26.4984 10.0578 26.0412 10.515 25.4785 10.515C24.9159 10.515 24.4587 10.0578 24.4587 9.49511C24.4587 8.93244 24.9159 8.47527 25.4785 8.47527C26.0412 8.47527 26.4984 8.93244 26.4984 9.49511ZM34.1941 13.0294C34.1941 13.5921 33.7369 14.0492 33.1743 14.0492C32.6116 14.0492 32.1544 13.5921 32.1544 13.0294C32.1544 12.4667 32.6116 12.0096 33.1743 12.0096C33.7369 12.0096 34.1941 12.4667 34.1941 13.0294ZM30.3433 13.0294C30.3433 13.5921 29.8862 14.0492 29.3235 14.0492C28.7608 14.0492 28.3036 13.5921 28.3036 13.0294C28.3036 12.4667 28.7608 12.0096 29.3235 12.0096C29.8862 12.0096 30.3433 12.4667 30.3433 13.0294ZM26.4925 13.0294C26.4925 13.5921 26.0354 14.0492 25.4727 14.0492C24.91 14.0492 24.4528 13.5921 24.4528 13.0294C24.4528 12.4667 24.91 12.0096 25.4727 12.0096C26.0354 12.0096 26.4925 12.4667 26.4925 13.0294ZM20.0745 5.96082C20.0745 6.52349 19.6174 6.98066 19.0547 6.98066C18.492 6.98066 18.0348 6.52349 18.0348 5.96082C18.0348 5.39815 18.492 4.94097 19.0547 4.94097C19.6174 4.94097 20.0745 5.39815 20.0745 5.96082ZM16.2237 5.96082C16.2237 6.52349 15.7666 6.98066 15.2039 6.98066C14.6412 6.98066 14.1841 6.52349 14.1841 5.96082C14.1841 5.39815 14.6412 4.94097 15.2039 4.94097C15.7666 4.94097 16.2237 5.39815 16.2237 5.96082ZM20.0745 9.49511C20.0745 10.0578 19.6174 10.515 19.0547 10.515C18.492 10.515 18.0348 10.0578 18.0348 9.49511C18.0348 8.93244 18.492 8.47527 19.0547 8.47527C19.6174 8.47527 20.0745 8.93244 20.0745 9.49511ZM16.2237 9.49511C16.2237 10.0578 15.7666 10.515 15.2039 10.515C14.6412 10.515 14.1841 10.0578 14.1841 9.49511C14.1841 8.93244 14.6412 8.47527 15.2039 8.47527C15.7666 8.47527 16.2237 8.93244 16.2237 9.49511ZM20.0745 13.0294C20.0745 13.5921 19.6174 14.0492 19.0547 14.0492C18.492 14.0492 18.0348 13.5921 18.0348 13.0294C18.0348 12.4667 18.492 12.0096 19.0547 12.0096C19.6174 12.0096 20.0745 12.4667 20.0745 13.0294ZM16.2237 13.0294C16.2237 13.5921 15.7666 14.0492 15.2039 14.0492C14.6412 14.0492 14.1841 13.5921 14.1841 13.0294C14.1841 12.4667 14.6412 12.0096 15.2039 12.0096C15.7666 12.0096 16.2237 12.4667 16.2237 13.0294ZM9.99331 5.96082C9.99331 6.52349 9.53614 6.98066 8.97347 6.98066C8.41079 6.98066 7.95362 6.52349 7.95362 5.96082C7.95362 5.39815 8.41079 4.94097 8.97347 4.94097C9.53614 4.94097 9.99331 5.39815 9.99331 5.96082ZM9.99331 9.49511C9.99331 10.0578 9.53614 10.515 8.97347 10.515C8.41079 10.515 7.95362 10.0578 7.95362 9.49511C7.95362 8.93244 8.41079 8.47527 8.97347 8.47527C9.53614 8.47527 9.99331 8.93244 9.99331 9.49511ZM9.99331 13.0294C9.99331 13.5921 9.53614 14.0492 8.97347 14.0492C8.41079 14.0492 7.95362 13.5921 7.95362 13.0294C7.95362 12.4667 8.41079 12.0096 8.97347 12.0096C9.53614 12.0096 9.99331 12.4667 9.99331 13.0294Z" stroke="#250A20" stroke-width="1.2" stroke-miterlimit="10" stroke-linejoin="round"/>
</svg>
