<svg width="33" height="33" viewBox="0 0 33 33" fill="none" xmlns="http://www.w3.org/2000/svg">
<path d="M15.9545 8.23208C11.8358 6.61341 10.2528 11.3981 4.51465 9.16765V23.5916C10.2528 25.8221 11.8358 21.0389 15.9545 22.6576C20.0918 21.0389 21.9079 25.8949 27.6267 23.6466V9.22185C21.9079 11.4523 20.0918 6.61416 15.9545 8.23283V8.23208ZM15.6315 21.7747C12.0689 20.7686 9.60529 24.8517 5.1443 23.1587V10.0839C9.60455 11.7753 12.0689 7.7101 15.6315 8.71769V21.7747ZM26.9808 23.1587C22.5019 24.8517 20.0361 20.7686 16.4765 21.7747V8.71769C20.0361 7.7101 22.5019 11.7753 26.9808 10.0839V23.1587Z" fill="#250A20"/>
<path d="M15.9543 8.23299L16.0093 8.09414C15.3759 7.8454 14.7953 7.74219 14.2503 7.74219C13.0593 7.74293 12.0539 8.22779 11.0033 8.69557C9.94965 9.16484 8.85073 9.62296 7.45482 9.62296C6.61949 9.62296 5.67651 9.45887 4.56868 9.02896L4.36523 8.95025V23.6935L4.46028 23.7306C5.5978 24.1732 6.58014 24.3454 7.45482 24.3454C8.9183 24.3454 10.0677 23.8628 11.1236 23.3921C12.1809 22.9198 13.1439 22.4639 14.2495 22.4647C14.7574 22.4647 15.2979 22.559 15.8994 22.7958L15.9543 22.8174L16.0085 22.7958C16.6048 22.5627 17.146 22.4691 17.6584 22.4691C18.7959 22.4676 19.8027 22.9369 20.9039 23.4225C22.0035 23.9059 23.196 24.4011 24.6892 24.4011C25.5706 24.4011 26.5551 24.2281 27.6815 23.7848L27.7758 23.7477V9.00371L27.5724 9.08316C26.4794 9.50936 25.5386 9.67197 24.6974 9.67197C23.2703 9.67197 22.1261 9.2027 21.0294 8.72156C19.9334 8.2419 18.885 7.74664 17.6628 7.7459C17.1119 7.7459 16.529 7.84762 15.9001 8.09414L15.9543 8.23299L16.0085 8.37184C16.6062 8.13795 17.149 8.04439 17.6636 8.04365C18.8004 8.0429 19.8079 8.51068 20.9098 8.99406C22.0095 9.47595 23.2034 9.96972 24.6981 9.96972C25.5772 9.96972 26.5588 9.79819 27.6815 9.36086L27.6273 9.22201H27.4781V23.6467H27.6273L27.5724 23.5079C26.4757 23.9385 25.5319 24.1026 24.6892 24.1034C23.2636 24.1034 22.1209 23.6326 21.0234 23.15C19.929 22.6696 18.8798 22.1729 17.6576 22.1721C17.1089 22.1721 16.5275 22.2738 15.9001 22.5196L15.9543 22.6585L16.0093 22.5196C15.3759 22.2709 14.7945 22.1677 14.2495 22.1677C13.0585 22.1684 12.0539 22.6533 11.0025 23.1203C9.94965 23.5896 8.85073 24.0477 7.45482 24.0477C6.61949 24.0477 5.67576 23.8843 4.56868 23.4537L4.51448 23.5925H4.66372V9.16929H4.51448L4.46028 9.30814C5.5978 9.74993 6.58014 9.92219 7.45482 9.92219C8.91756 9.92219 10.0684 9.43956 11.1243 8.96881C12.1824 8.49583 13.1447 8.04068 14.2503 8.04142C14.7574 8.04142 15.2987 8.13646 15.9001 8.37258L15.9551 8.39411L16.0093 8.37258L15.9551 8.23373L15.9543 8.23299ZM15.6313 21.7756L15.6722 21.6323C15.2586 21.5157 14.8584 21.4652 14.4678 21.4652C13.2308 21.4667 12.1133 21.9694 10.9713 22.4587C9.82862 22.9495 8.66139 23.4284 7.32562 23.4277C6.66627 23.4277 5.9646 23.3119 5.19759 23.0208L5.14487 23.1604H5.29411V10.0855H5.14487L5.09215 10.2251C5.89332 10.5288 6.63657 10.6521 7.3323 10.6521C8.73936 10.6513 9.94668 10.1531 11.0887 9.66677C12.2329 9.1782 13.3125 8.70448 14.4626 8.70596C14.8279 8.70596 15.2022 8.75348 15.5912 8.86338L15.6321 8.72007H15.4828V21.7771H15.6321H15.7813V8.60721L15.6729 8.57603C15.2571 8.45871 14.8547 8.40748 14.4634 8.40748C13.2286 8.40896 12.1133 8.90793 10.9728 9.39279C9.83159 9.87987 8.66659 10.3543 7.3323 10.3543C6.67147 10.3543 5.96757 10.2385 5.19833 9.9467L4.99637 9.87022V23.2636L5.09215 23.3C5.89109 23.6029 6.63137 23.7262 7.32636 23.7262C8.73564 23.7262 9.94593 23.2235 11.0894 22.7327C12.2351 22.2404 13.3169 21.7622 14.4686 21.7637C14.8324 21.7637 15.2044 21.8113 15.5912 21.9197L15.7813 21.9731V21.7764H15.6321L15.6313 21.7756ZM26.9806 23.1596L26.9279 23.0201C26.1579 23.3111 25.4532 23.4269 24.7917 23.4269C23.4507 23.4277 22.2812 22.9488 21.137 22.458C19.9936 21.9694 18.8753 21.466 17.6391 21.4645C17.25 21.4645 16.8498 21.515 16.4362 21.6316L16.477 21.7749H16.6263V8.71784H16.477L16.5179 8.86115C16.9062 8.75126 17.2797 8.70374 17.645 8.70374C18.7952 8.70225 19.8748 9.17672 21.0197 9.66454C22.1639 10.1509 23.3742 10.6491 24.7857 10.6499C25.4837 10.6499 26.2299 10.5273 27.034 10.2229L26.9821 10.0833H26.8328V23.1582H26.9821H27.1313V9.86799L26.9301 9.94447C26.1571 10.2363 25.4503 10.3514 24.7865 10.3521C23.4485 10.3521 22.2805 9.87764 21.137 9.39056C19.9958 8.9057 18.8798 8.40673 17.6458 8.40599C17.2545 8.40599 16.852 8.45722 16.4369 8.57454L16.3285 8.60573V21.9724L16.5186 21.9189C16.9047 21.8098 17.276 21.763 17.6398 21.763C18.7914 21.7622 19.8725 22.2397 21.0197 22.732C22.1654 23.2228 23.3787 23.7247 24.7924 23.7254C25.4889 23.7254 26.2321 23.6029 27.034 23.2992L27.1306 23.2629V23.1596H26.9813H26.9806Z" fill="#250A20"/>
<path d="M23.1307 12.9802C23.1307 13.6633 22.5545 14.2388 21.8729 14.2388C21.1697 14.2388 20.6113 13.6633 20.6113 12.9802C20.6113 12.2778 21.1697 11.7031 21.8729 11.7031C22.5545 11.7031 23.1307 12.2778 23.1307 12.9802Z" fill="#250A20"/>
<path d="M23.1305 12.9803H23.0562C23.0562 13.3003 22.9211 13.5966 22.7043 13.8126C22.4882 14.0287 22.1919 14.1638 21.8726 14.1638C21.2118 14.1623 20.6869 13.6218 20.6861 12.9803C20.6861 12.3187 21.2118 11.7789 21.8726 11.7782C22.5112 11.7789 23.0547 12.3202 23.0555 12.9803H23.1297H23.204C23.2032 12.237 22.5959 11.6296 21.8719 11.6289C21.1272 11.6289 20.5376 12.2385 20.5361 12.9803C20.5361 13.7042 21.1272 14.3131 21.8719 14.3131C22.5959 14.3116 23.2032 13.7057 23.204 12.9803H23.1297H23.1305Z" fill="#250A20"/>
<path d="M24.5538 19.5462V20.3377H19.3369V19.5462H20.4678V15.769H19.3369V14.9961H23.2744V19.5462H24.5538Z" fill="#250A20"/>
<path d="M24.5536 19.547H24.4786V20.2635H19.411V19.6212H20.5425V15.6956H19.411V15.0711H23.2V19.6212H24.5536V19.547H24.4786H24.5536V19.4727H23.3492V14.9219H19.2617V15.8441H20.3933V19.4727H19.2617V20.4127H24.6278V19.4727H24.5536V19.547Z" fill="#250A20"/>
<path d="M16.0709 32.1417C24.9466 32.1417 32.1417 24.9466 32.1417 16.0709C32.1417 7.19517 24.9466 0 16.0709 0C7.19517 0 0 7.19517 0 16.0709C0 24.9466 7.19517 32.1417 16.0709 32.1417Z" stroke="#250A20" stroke-width="1.36" stroke-miterlimit="22.9256"/>
</svg>
