<svg width="21" height="21" viewBox="0 0 21 21" fill="none" xmlns="http://www.w3.org/2000/svg">
<path d="M10.6667 5.1626C10.831 5.1626 10.9885 5.22784 11.1046 5.34398C11.2208 5.46012 11.286 5.61764 11.286 5.78189V9.49762H15.0017C15.166 9.49762 15.3235 9.56287 15.4396 9.67901C15.5558 9.79515 15.621 9.95267 15.621 10.1169C15.621 10.2812 15.5558 10.4387 15.4396 10.5548C15.3235 10.671 15.166 10.7362 15.0017 10.7362H11.286V14.4519C11.286 14.6162 11.2208 14.7737 11.1046 14.8898C10.9885 15.006 10.831 15.0712 10.6667 15.0712C10.5025 15.0712 10.345 15.006 10.2288 14.8898C10.1127 14.7737 10.0474 14.6162 10.0474 14.4519V10.7362H6.33169C6.16745 10.7362 6.00993 10.671 5.89379 10.5548C5.77765 10.4387 5.7124 10.2812 5.7124 10.1169C5.7124 9.95267 5.77765 9.79515 5.89379 9.67901C6.00993 9.56287 6.16745 9.49762 6.33169 9.49762H10.0474V5.78189C10.0474 5.61764 10.1127 5.46012 10.2288 5.34398C10.345 5.22784 10.5025 5.1626 10.6667 5.1626Z" fill="#363330"/>
</svg>
