<svg width="21" height="21" viewBox="0 0 21 21" fill="none" xmlns="http://www.w3.org/2000/svg">
<path d="M10.4587 5.16357C10.623 5.16357 10.7805 5.22882 10.8966 5.34496C11.0128 5.4611 11.078 5.61862 11.078 5.78286V9.4986H14.7937C14.958 9.4986 15.1155 9.56385 15.2316 9.67999C15.3478 9.79612 15.413 9.95364 15.413 10.1179C15.413 10.2821 15.3478 10.4397 15.2316 10.5558C15.1155 10.6719 14.958 10.7372 14.7937 10.7372H11.078V14.4529C11.078 14.6172 11.0128 14.7747 10.8966 14.8908C10.7805 15.007 10.623 15.0722 10.4587 15.0722C10.2945 15.0722 10.1369 15.007 10.0208 14.8908C9.90467 14.7747 9.83942 14.6172 9.83942 14.4529V10.7372H6.12368C5.95944 10.7372 5.80192 10.6719 5.68578 10.5558C5.56964 10.4397 5.50439 10.2821 5.50439 10.1179C5.50439 9.95364 5.56964 9.79612 5.68578 9.67999C5.80192 9.56385 5.95944 9.4986 6.12368 9.4986H9.83942V5.78286C9.83942 5.61862 9.90467 5.4611 10.0208 5.34496C10.1369 5.22882 10.2945 5.16357 10.4587 5.16357Z" fill="#363330"/>
</svg>
