<svg width="21" height="21" viewBox="0 0 21 21" fill="none" xmlns="http://www.w3.org/2000/svg">
<path d="M10.6667 5.50928C10.831 5.50928 10.9885 5.57452 11.1046 5.69066C11.2208 5.8068 11.286 5.96432 11.286 6.12857V9.8443H15.0017C15.166 9.8443 15.3235 9.90955 15.4396 10.0257C15.5558 10.1418 15.621 10.2993 15.621 10.4636C15.621 10.6278 15.5558 10.7854 15.4396 10.9015C15.3235 11.0176 15.166 11.0829 15.0017 11.0829H11.286V14.7986C11.286 14.9629 11.2208 15.1204 11.1046 15.2365C10.9885 15.3527 10.831 15.4179 10.6667 15.4179C10.5025 15.4179 10.345 15.3527 10.2288 15.2365C10.1127 15.1204 10.0474 14.9629 10.0474 14.7986V11.0829H6.33169C6.16745 11.0829 6.00993 11.0176 5.89379 10.9015C5.77765 10.7854 5.7124 10.6278 5.7124 10.4636C5.7124 10.2993 5.77765 10.1418 5.89379 10.0257C6.00993 9.90955 6.16745 9.8443 6.33169 9.8443H10.0474V6.12857C10.0474 5.96432 10.1127 5.8068 10.2288 5.69066C10.345 5.57452 10.5025 5.50928 10.6667 5.50928Z" fill="#363330"/>
</svg>
