<svg width="21" height="21" viewBox="0 0 21 21" fill="none" xmlns="http://www.w3.org/2000/svg">
<path d="M10.4587 5.83691C10.623 5.83691 10.7805 5.90216 10.8966 6.0183C11.0128 6.13444 11.078 6.29196 11.078 6.4562V10.1719H14.7937C14.958 10.1719 15.1155 10.2372 15.2316 10.3533C15.3478 10.4695 15.413 10.627 15.413 10.7912C15.413 10.9555 15.3478 11.113 15.2316 11.2291C15.1155 11.3453 14.958 11.4105 14.7937 11.4105H11.078V15.1263C11.078 15.2905 11.0128 15.448 10.8966 15.5642C10.7805 15.6803 10.623 15.7455 10.4587 15.7455C10.2945 15.7455 10.1369 15.6803 10.0208 15.5642C9.90467 15.448 9.83942 15.2905 9.83942 15.1263V11.4105H6.12368C5.95944 11.4105 5.80192 11.3453 5.68578 11.2291C5.56964 11.113 5.50439 10.9555 5.50439 10.7912C5.50439 10.627 5.56964 10.4695 5.68578 10.3533C5.80192 10.2372 5.95944 10.1719 6.12368 10.1719H9.83942V6.4562C9.83942 6.29196 9.90467 6.13444 10.0208 6.0183C10.1369 5.90216 10.2945 5.83691 10.4587 5.83691Z" fill="#363330"/>
</svg>
