<svg width="21" height="21" viewBox="0 0 21 21" fill="none" xmlns="http://www.w3.org/2000/svg">
<path d="M10.6667 5.83594C10.831 5.83594 10.9885 5.90118 11.1046 6.01732C11.2208 6.13346 11.286 6.29098 11.286 6.45523V10.171H15.0017C15.166 10.171 15.3235 10.2362 15.4396 10.3523C15.5558 10.4685 15.621 10.626 15.621 10.7903C15.621 10.9545 15.5558 11.112 15.4396 11.2282C15.3235 11.3443 15.166 11.4095 15.0017 11.4095H11.286V15.1253C11.286 15.2895 11.2208 15.447 11.1046 15.5632C10.9885 15.6793 10.831 15.7446 10.6667 15.7446C10.5025 15.7446 10.345 15.6793 10.2288 15.5632C10.1127 15.447 10.0474 15.2895 10.0474 15.1253V11.4095H6.33169C6.16745 11.4095 6.00993 11.3443 5.89379 11.2282C5.77765 11.112 5.7124 10.9545 5.7124 10.7903C5.7124 10.626 5.77765 10.4685 5.89379 10.3523C6.00993 10.2362 6.16745 10.171 6.33169 10.171H10.0474V6.45523C10.0474 6.29098 10.1127 6.13346 10.2288 6.01732C10.345 5.90118 10.5025 5.83594 10.6667 5.83594Z" fill="#363330"/>
</svg>
