<svg width="14" height="15" viewBox="0 0 14 15" fill="none" xmlns="http://www.w3.org/2000/svg">
<path d="M7.86451 5.31563C7.86451 5.20421 7.82025 5.09735 7.74146 5.01856C7.66267 4.93977 7.55581 4.89551 7.44439 4.89551C7.33296 4.89551 7.2261 4.93977 7.14731 5.01856C7.06852 5.09735 7.02426 5.20421 7.02426 5.31563V6.57602H5.76388C5.65245 6.57602 5.54559 6.62028 5.4668 6.69907C5.38801 6.77786 5.34375 6.88472 5.34375 6.99614C5.34375 7.10757 5.38801 7.21443 5.4668 7.29322C5.54559 7.37201 5.65245 7.41627 5.76388 7.41627H7.02426V8.67665C7.02426 8.78808 7.06852 8.89494 7.14731 8.97373C7.2261 9.05252 7.33296 9.09678 7.44439 9.09678C7.55581 9.09678 7.66267 9.05252 7.74146 8.97373C7.82025 8.89494 7.86451 8.78808 7.86451 8.67665V7.41627H9.12489C9.23632 7.41627 9.34318 7.37201 9.42197 7.29322C9.50076 7.21443 9.54502 7.10757 9.54502 6.99614C9.54502 6.88472 9.50076 6.77786 9.42197 6.69907C9.34318 6.62028 9.23632 6.57602 9.12489 6.57602H7.86451V5.31563Z" fill="#363330"/>
<path d="M0.722373 1.53467C0.610949 1.53467 0.504088 1.57893 0.425298 1.65772C0.346509 1.73651 0.302246 1.84337 0.302246 1.9548C0.302246 2.06622 0.346509 2.17308 0.425298 2.25187C0.504088 2.33066 0.610949 2.37492 0.722373 2.37492H1.65506L1.992 3.72521L3.2507 10.4346C3.26872 10.5309 3.31981 10.6179 3.39515 10.6805C3.47048 10.7431 3.56532 10.7774 3.66326 10.7775H4.50352C4.05782 10.7775 3.63037 10.9545 3.31522 11.2697C3.00006 11.5848 2.82301 12.0123 2.82301 12.458C2.82301 12.9037 3.00006 13.3311 3.31522 13.6463C3.63037 13.9614 4.05782 14.1385 4.50352 14.1385C4.94922 14.1385 5.37666 13.9614 5.69182 13.6463C6.00697 13.3311 6.18403 12.9037 6.18403 12.458C6.18403 12.0123 6.00697 11.5848 5.69182 11.2697C5.37666 10.9545 4.94922 10.7775 4.50352 10.7775H10.3853C9.9396 10.7775 9.51215 10.9545 9.197 11.2697C8.88184 11.5848 8.70479 12.0123 8.70479 12.458C8.70479 12.9037 8.88184 13.3311 9.197 13.6463C9.51215 13.9614 9.9396 14.1385 10.3853 14.1385C10.831 14.1385 11.2584 13.9614 11.5736 13.6463C11.8888 13.3311 12.0658 12.9037 12.0658 12.458C12.0658 12.0123 11.8888 11.5848 11.5736 11.2697C11.2584 10.9545 10.831 10.7775 10.3853 10.7775H11.2256C11.3235 10.7774 11.4183 10.7431 11.4937 10.6805C11.569 10.6179 11.6201 10.5309 11.6381 10.4346L12.8985 3.71261C12.9098 3.65197 12.9077 3.58958 12.8922 3.52987C12.8767 3.47015 12.8483 3.41458 12.8089 3.3671C12.7695 3.31962 12.7202 3.28139 12.6644 3.25513C12.6085 3.22887 12.5476 3.21523 12.4859 3.21518H2.73058L2.39028 1.85312C2.3676 1.7622 2.31517 1.68146 2.24133 1.62376C2.16748 1.56605 2.07647 1.53469 1.98275 1.53467H0.722373ZM4.01197 9.93721L2.90871 4.05543H11.9801L10.8768 9.93721H4.01197ZM5.34377 12.458C5.34377 12.6808 5.25524 12.8945 5.09767 13.0521C4.94009 13.2097 4.72637 13.2982 4.50352 13.2982C4.28067 13.2982 4.06695 13.2097 3.90937 13.0521C3.75179 12.8945 3.66326 12.6808 3.66326 12.458C3.66326 12.2351 3.75179 12.0214 3.90937 11.8638C4.06695 11.7062 4.28067 11.6177 4.50352 11.6177C4.72637 11.6177 4.94009 11.7062 5.09767 11.8638C5.25524 12.0214 5.34377 12.2351 5.34377 12.458ZM11.2256 12.458C11.2256 12.6808 11.137 12.8945 10.9794 13.0521C10.8219 13.2097 10.6081 13.2982 10.3853 13.2982C10.1624 13.2982 9.94873 13.2097 9.79115 13.0521C9.63357 12.8945 9.54504 12.6808 9.54504 12.458C9.54504 12.2351 9.63357 12.0214 9.79115 11.8638C9.94873 11.7062 10.1624 11.6177 10.3853 11.6177C10.6081 11.6177 10.8219 11.7062 10.9794 11.8638C11.137 12.0214 11.2256 12.2351 11.2256 12.458Z" fill="#363330"/>
</svg>
