<svg width="24" height="24" viewBox="0 0 24 24" fill="none" xmlns="http://www.w3.org/2000/svg">
<path d="M23.6405 12.0419C23.6405 12.0419 19.3649 4.20312 12.2387 4.20312C5.11259 4.20312 0.836914 12.0419 0.836914 12.0419C0.836914 12.0419 5.11259 19.8806 12.2387 19.8806C19.3649 19.8806 23.6405 12.0419 23.6405 12.0419ZM2.5087 12.0419C3.19782 10.9945 3.99043 10.019 4.87458 9.13013C6.70884 7.29301 9.21724 5.62835 12.2387 5.62835C15.2602 5.62835 17.7672 7.29301 19.6043 9.13013C20.4884 10.019 21.281 10.9945 21.9702 12.0419C21.8875 12.1659 21.7963 12.3027 21.6922 12.4523C21.2148 13.1364 20.5093 14.0486 19.6043 14.9536C17.7672 16.7907 15.2588 18.4554 12.2387 18.4554C9.21724 18.4554 6.71027 16.7907 4.87315 14.9536C3.98901 14.0647 3.1964 13.0892 2.50728 12.0419H2.5087Z" fill="white"/>
<path d="M12.2383 8.47991C11.2933 8.47991 10.387 8.85531 9.71882 9.52351C9.05062 10.1917 8.67523 11.098 8.67523 12.043C8.67523 12.988 9.05062 13.8942 9.71882 14.5624C10.387 15.2306 11.2933 15.606 12.2383 15.606C13.1833 15.606 14.0896 15.2306 14.7578 14.5624C15.426 13.8942 15.8014 12.988 15.8014 12.043C15.8014 11.098 15.426 10.1917 14.7578 9.52351C14.0896 8.85531 13.1833 8.47991 12.2383 8.47991ZM7.25 12.043C7.25 10.72 7.77555 9.45121 8.71104 8.51572C9.64652 7.58024 10.9153 7.05469 12.2383 7.05469C13.5613 7.05469 14.8301 7.58024 15.7655 8.51572C16.701 9.45121 17.2266 10.72 17.2266 12.043C17.2266 13.366 16.701 14.6347 15.7655 15.5702C14.8301 16.5057 13.5613 17.0313 12.2383 17.0313C10.9153 17.0313 9.64652 16.5057 8.71104 15.5702C7.77555 14.6347 7.25 13.366 7.25 12.043Z" fill="white"/>
</svg>
