<svg width="31" height="31" viewBox="0 0 31 31" fill="none" xmlns="http://www.w3.org/2000/svg">
<path d="M30.4623 15.5595C30.4623 15.5595 24.7537 5.09375 15.2394 5.09375C5.72517 5.09375 0.0166016 15.5595 0.0166016 15.5595C0.0166016 15.5595 5.72517 26.0252 15.2394 26.0252C24.7537 26.0252 30.4623 15.5595 30.4623 15.5595ZM2.24865 15.5595C3.16871 14.1611 4.22694 12.8587 5.40739 11.6719C7.85636 9.21914 11.2054 6.9966 15.2394 6.9966C19.2735 6.9966 22.6206 9.21914 25.0734 11.6719C26.2538 12.8587 27.3121 14.1611 28.2321 15.5595C28.1218 15.725 28 15.9077 27.8611 16.1075C27.2236 17.0208 26.2817 18.2387 25.0734 19.447C22.6206 21.8998 19.2716 24.1223 15.2394 24.1223C11.2054 24.1223 7.85827 21.8998 5.40549 19.447C4.22504 18.2602 3.16682 16.9578 2.24675 15.5595H2.24865Z" fill="white"/>
<path d="M15.2401 10.8013C13.9784 10.8013 12.7684 11.3025 11.8763 12.1946C10.9841 13.0868 10.4829 14.2968 10.4829 15.5584C10.4829 16.8201 10.9841 18.0301 11.8763 18.9222C12.7684 19.8144 13.9784 20.3156 15.2401 20.3156C16.5017 20.3156 17.7117 19.8144 18.6039 18.9222C19.496 18.0301 19.9972 16.8201 19.9972 15.5584C19.9972 14.2968 19.496 13.0868 18.6039 12.1946C17.7117 11.3025 16.5017 10.8013 15.2401 10.8013ZM8.58008 15.5584C8.58008 13.7921 9.28175 12.0981 10.5307 10.8491C11.7797 9.60011 13.4737 8.89844 15.2401 8.89844C17.0064 8.89844 18.7004 9.60011 19.9494 10.8491C21.1984 12.0981 21.9001 13.7921 21.9001 15.5584C21.9001 17.3248 21.1984 19.0188 19.9494 20.2678C18.7004 21.5167 17.0064 22.2184 15.2401 22.2184C13.4737 22.2184 11.7797 21.5167 10.5307 20.2678C9.28175 19.0188 8.58008 17.3248 8.58008 15.5584Z" fill="white"/>
</svg>
