<svg width="24" height="24" viewBox="0 0 24 24" fill="none" xmlns="http://www.w3.org/2000/svg">
<path d="M23.6405 12.0028C23.6405 12.0028 19.3649 4.16406 12.2387 4.16406C5.11259 4.16406 0.836914 12.0028 0.836914 12.0028C0.836914 12.0028 5.11259 19.8415 12.2387 19.8415C19.3649 19.8415 23.6405 12.0028 23.6405 12.0028ZM2.5087 12.0028C3.19782 10.9554 3.99043 9.97996 4.87458 9.09107C6.70884 7.25395 9.21724 5.58929 12.2387 5.58929C15.2602 5.58929 17.7672 7.25395 19.6043 9.09107C20.4884 9.97996 21.281 10.9554 21.9702 12.0028C21.8875 12.1268 21.7963 12.2636 21.6922 12.4133C21.2148 13.0974 20.5093 14.0095 19.6043 14.9145C17.7672 16.7517 15.2588 18.4163 12.2387 18.4163C9.21724 18.4163 6.71027 16.7517 4.87315 14.9145C3.98901 14.0256 3.1964 13.0502 2.50728 12.0028H2.5087Z" fill="white"/>
<path d="M12.2383 8.44085C11.2933 8.44085 10.387 8.81624 9.71882 9.48445C9.05062 10.1527 8.67523 11.0589 8.67523 12.0039C8.67523 12.9489 9.05062 13.8552 9.71882 14.5234C10.387 15.1916 11.2933 15.567 12.2383 15.567C13.1833 15.567 14.0896 15.1916 14.7578 14.5234C15.426 13.8552 15.8014 12.9489 15.8014 12.0039C15.8014 11.0589 15.426 10.1527 14.7578 9.48445C14.0896 8.81624 13.1833 8.44085 12.2383 8.44085ZM7.25 12.0039C7.25 10.6809 7.77555 9.41215 8.71104 8.47666C9.64652 7.54118 10.9153 7.01563 12.2383 7.01562C13.5613 7.01562 14.8301 7.54118 15.7655 8.47666C16.701 9.41215 17.2266 10.6809 17.2266 12.0039C17.2266 13.3269 16.701 14.5957 15.7655 15.5312C14.8301 16.4667 13.5613 16.9922 12.2383 16.9922C10.9153 16.9922 9.64652 16.4667 8.71104 15.5312C7.77555 14.5957 7.25 13.3269 7.25 12.0039Z" fill="white"/>
</svg>
