<svg width="31" height="31" viewBox="0 0 31 31" fill="none" xmlns="http://www.w3.org/2000/svg">
<path d="M30.4623 15.5204C30.4623 15.5204 24.7537 5.05469 15.2394 5.05469C5.72517 5.05469 0.0166016 15.5204 0.0166016 15.5204C0.0166016 15.5204 5.72517 25.9861 15.2394 25.9861C24.7537 25.9861 30.4623 15.5204 30.4623 15.5204ZM2.24865 15.5204C3.16871 14.122 4.22694 12.8196 5.40739 11.6329C7.85636 9.18008 11.2054 6.95754 15.2394 6.95754C19.2735 6.95754 22.6206 9.18008 25.0734 11.6329C26.2538 12.8196 27.3121 14.122 28.2321 15.5204C28.1218 15.6859 28 15.8686 27.8611 16.0684C27.2236 16.9818 26.2817 18.1996 25.0734 19.4079C22.6206 21.8607 19.2716 24.0832 15.2394 24.0832C11.2054 24.0832 7.85827 21.8607 5.40549 19.4079C4.22504 18.2211 3.16682 16.9187 2.24675 15.5204H2.24865Z" fill="white"/>
<path d="M15.2401 10.7622C13.9784 10.7622 12.7684 11.2634 11.8763 12.1556C10.9841 13.0477 10.4829 14.2577 10.4829 15.5194C10.4829 16.781 10.9841 17.991 11.8763 18.8832C12.7684 19.7753 13.9784 20.2765 15.2401 20.2765C16.5017 20.2765 17.7117 19.7753 18.6039 18.8832C19.496 17.991 19.9972 16.781 19.9972 15.5194C19.9972 14.2577 19.496 13.0477 18.6039 12.1556C17.7117 11.2634 16.5017 10.7622 15.2401 10.7622ZM8.58008 15.5194C8.58008 13.753 9.28175 12.059 10.5307 10.81C11.7797 9.56105 13.4737 8.85938 15.2401 8.85938C17.0064 8.85938 18.7004 9.56105 19.9494 10.81C21.1984 12.059 21.9001 13.753 21.9001 15.5194C21.9001 17.2857 21.1984 18.9797 19.9494 20.2287C18.7004 21.4777 17.0064 22.1794 15.2401 22.1794C13.4737 22.1794 11.7797 21.4777 10.5307 20.2287C9.28175 18.9797 8.58008 17.2857 8.58008 15.5194Z" fill="white"/>
</svg>
