<svg width="28" height="30" viewBox="0 0 28 30" fill="none" xmlns="http://www.w3.org/2000/svg">
<path d="M24.6274 25.7951C24.4183 25.0918 24.1142 24.3315 23.7721 23.5332C23.4299 22.7539 23.0118 21.9556 22.5746 21.1763C22.5176 21.2903 22.4415 21.3853 22.3845 21.4804C22.3275 21.5754 22.2514 21.6895 22.1944 21.7845C22.1184 21.8795 22.0614 21.9746 21.9853 22.0886C21.9093 22.1837 21.8333 22.2787 21.7572 22.3737L21.7382 22.3927L21.7192 22.4118L21.7002 22.4308L21.6812 22.4498L21.6052 22.5258C21.6622 22.6969 21.7382 22.925 21.8333 23.1531C21.9283 23.3811 22.0043 23.6282 22.0804 23.8753C22.1564 24.1034 22.2134 24.3315 22.2514 24.5216C22.2705 24.7117 22.2705 24.8447 22.1944 24.9208C22.1754 24.9398 22.1564 24.9588 22.1184 24.9778C22.0994 24.9968 22.0614 25.0158 22.0234 25.0158C21.9853 25.0348 21.9473 25.0348 21.9283 25.0348C21.8903 25.0348 21.8523 25.0348 21.8143 25.0348C21.7572 25.0348 21.6812 25.0158 21.6052 25.0158C21.5292 24.9968 21.4531 24.9778 21.3771 24.9588C21.3011 24.9398 21.206 24.9018 21.111 24.8637C21.0159 24.8257 20.9209 24.7877 20.8259 24.7307C20.7118 24.6737 20.5788 24.6166 20.4457 24.5406C20.3127 24.4646 20.1796 24.3886 20.0466 24.3125C19.9135 24.2365 19.7614 24.1415 19.6094 24.0654C19.4573 23.9704 19.3053 23.8753 19.1722 23.7993C19.7614 23.2101 20.3127 22.5828 20.8259 21.9176C21.3391 21.2523 21.7953 20.53 22.2134 19.8077C22.6316 19.0664 22.9737 18.3061 23.2779 17.5078C23.563 16.7285 23.8101 15.9111 23.9621 15.0938C24.3233 13.2501 24.3043 11.5204 23.9621 9.98075C23.639 8.46014 22.9927 7.1296 22.0994 6.04616C21.225 4.98173 20.1226 4.1644 18.8301 3.63219C17.5566 3.11898 16.112 2.89089 14.5533 2.98593C13.5269 3.06196 12.5005 3.27105 11.5121 3.59418C10.5237 3.91731 9.57334 4.37349 8.64196 4.92471C7.7296 5.47593 6.85524 6.12219 6.05692 6.84448C5.2586 7.56678 4.4983 8.3841 3.83303 9.25846C3.64295 8.91632 3.49089 8.6122 3.37684 8.30807C3.2628 8.02296 3.16776 7.75685 3.11074 7.52876C3.05371 7.30067 3.03471 7.09158 3.05371 6.92052C3.07272 6.74945 3.12974 6.61639 3.22478 6.52135C3.24379 6.48334 3.30081 6.46433 3.33883 6.42632C3.37684 6.3883 3.43387 6.36929 3.5099 6.35029C3.56692 6.33128 3.64295 6.31227 3.71898 6.29326C3.79501 6.27426 3.87104 6.27426 3.94707 6.25525C4.04211 6.25525 4.13715 6.25525 4.23219 6.27426C4.32723 6.29326 4.44127 6.31227 4.53631 6.35029C4.63135 6.3883 4.74539 6.42632 4.84043 6.50235C4.95448 6.55937 5.04952 6.6354 5.14456 6.74945C5.23959 6.6354 5.35364 6.50235 5.46769 6.3883C5.58173 6.27425 5.69578 6.16021 5.80982 6.06517C5.92387 5.97013 6.03792 5.85609 6.17097 5.76105C6.28502 5.66601 6.41807 5.57097 6.55112 5.47593C6.57013 5.47593 6.57013 5.45693 6.58914 5.45693C6.60815 5.45693 6.60815 5.43792 6.62715 5.43792C6.64616 5.43792 6.64616 5.41891 6.66517 5.41891C6.68418 5.41891 6.68418 5.3999 6.70318 5.3999C6.47509 5.19082 6.22799 5.01975 5.96188 4.86769C5.69578 4.73463 5.42967 4.62059 5.16356 4.54456C4.89746 4.46853 4.61234 4.4115 4.34623 4.37349C4.08013 4.33547 3.81402 4.33547 3.58593 4.35448C3.41486 4.37349 3.24379 4.3925 3.09173 4.4115C2.93967 4.44952 2.78761 4.48754 2.65455 4.52555C2.5215 4.56357 2.40745 4.62059 2.29341 4.69662C2.19837 4.75364 2.10333 4.82967 2.0273 4.9057C1.81822 5.1338 1.70417 5.41891 1.64715 5.78006C1.59012 6.1412 1.60913 6.55937 1.70417 7.01555C1.79921 7.49075 1.95127 8.00395 2.17936 8.57418C2.40745 9.14441 2.69257 9.77166 3.05371 10.4179C2.80661 10.7791 2.59753 11.1592 2.36944 11.5584C2.16035 11.9385 1.97028 12.3377 1.7802 12.7369C1.59012 13.136 1.43806 13.5542 1.286 13.9724C1.13394 14.3905 1.00089 14.8277 0.88684 15.2459C0.449664 16.8995 0.316611 18.4962 0.468672 19.9598C0.620733 21.4424 1.0389 22.8299 1.70417 24.0084C2.38845 25.2059 3.33883 26.2133 4.4983 26.9546C5.67677 27.6959 7.10234 28.1711 8.71799 28.2661C9.19319 28.2851 9.68738 28.2851 10.1626 28.2471C10.6568 28.2091 11.132 28.1331 11.6262 28.038C12.1204 27.943 12.5956 27.8099 13.0707 27.6579C13.5459 27.5058 14.0401 27.3157 14.4963 27.0876L13.3559 24.9398C13.0327 25.0728 12.6906 25.1869 12.3485 25.2819C12.0063 25.3769 11.6642 25.453 11.3411 25.529C10.9989 25.586 10.6568 25.6431 10.3146 25.6621C9.9725 25.6811 9.63036 25.6811 9.30723 25.6811C8.01471 25.6241 6.85524 25.2629 5.90486 24.6737C4.95448 24.1034 4.17516 23.3051 3.60494 22.3357C3.03471 21.3853 2.69257 20.2829 2.55951 19.0854C2.42646 17.8879 2.5215 16.5954 2.86364 15.2459C3.20577 13.9153 3.776 12.6418 4.4983 11.4824C5.22059 10.3229 6.09494 9.27746 7.10234 8.3841C8.09074 7.49074 9.21219 6.74945 10.3717 6.21723C11.5501 5.68502 12.7856 5.34288 14.0401 5.26685C15.3137 5.19082 16.4731 5.3999 17.4995 5.83708C18.5259 6.27426 19.4193 6.95853 20.1036 7.83288C20.8069 8.70723 21.3011 9.79067 21.5482 11.0262C21.7953 12.2617 21.7953 13.6492 21.5101 15.1128C21.3771 15.7591 21.187 16.3863 20.9589 17.0136C20.7308 17.6408 20.4457 18.2301 20.1226 18.8193C19.7995 19.4085 19.4383 19.9598 19.0392 20.492C18.64 21.0242 18.2028 21.5184 17.7466 21.9936C17.7466 21.8415 17.7656 21.6705 17.7656 21.5184C17.7656 21.3663 17.7846 21.1953 17.7846 21.0432C17.7846 20.8911 17.8037 20.7581 17.8037 20.644C17.8037 20.53 17.8037 20.435 17.8037 20.3589C17.8037 20.3019 17.8037 20.2449 17.7846 20.2069C17.7656 20.1689 17.7656 20.1308 17.7466 20.1118C17.7276 20.0928 17.7086 20.0738 17.6896 20.0548C17.6706 20.0358 17.6326 20.0358 17.6136 20.0358C17.5946 20.0358 17.5756 20.0358 17.5566 20.0358C17.5375 20.0358 17.5185 20.0358 17.4995 20.0548C17.4805 20.0548 17.4615 20.0738 17.4615 20.0738H17.4425L13.4509 21.3853C13.4509 21.3853 13.4129 21.4043 13.3559 21.4234C13.3178 21.4424 13.2608 21.4804 13.2038 21.5184C13.1658 21.5754 13.1278 21.6324 13.1088 21.7275C13.1088 21.8225 13.1278 21.9176 13.1848 22.0506C13.1848 22.0506 13.1848 22.0696 13.2038 22.0696C13.2038 22.0696 13.2038 22.0886 13.2228 22.0886C13.2228 22.0886 13.2228 22.1076 13.2418 22.1076C13.2418 22.1076 13.2418 22.1266 13.2608 22.1266C13.4319 22.4878 13.698 22.982 13.9831 23.5332C14.2872 24.0844 14.6104 24.7117 14.9335 25.3199C15.2756 25.9472 15.5988 26.5554 15.8839 27.0686C16.169 27.6008 16.4161 28.038 16.5492 28.3041C16.5682 28.3231 16.5682 28.3421 16.5872 28.3802C16.6062 28.3992 16.6062 28.4182 16.6252 28.4372C16.6442 28.4562 16.6442 28.4752 16.6442 28.4942C16.6442 28.5132 16.6632 28.5322 16.6632 28.5322C16.7012 28.6083 16.7392 28.6653 16.7772 28.7033C16.8153 28.7603 16.8533 28.7983 16.8723 28.8173C16.9103 28.8554 16.9293 28.8744 16.9673 28.8934C17.0053 28.9124 17.0243 28.9124 17.0624 28.9124C17.1194 28.9124 17.1574 28.8934 17.1954 28.8744C17.2334 28.8554 17.2714 28.7983 17.3095 28.7603C17.3475 28.7223 17.3665 28.6653 17.3855 28.6083C17.4045 28.5512 17.4045 28.5132 17.4235 28.4752C17.4235 28.4562 17.4235 28.4562 17.4235 28.4372C17.4235 28.4182 17.4235 28.3992 17.4235 28.3612C17.4235 28.3421 17.4235 28.3041 17.4235 28.2661C17.4235 28.2281 17.4235 28.2091 17.4235 28.1711C17.4235 28.038 17.4425 27.886 17.4425 27.7149C17.4425 27.5438 17.4615 27.3728 17.4615 27.2207C17.4615 27.0686 17.4805 26.9356 17.4805 26.8215C17.4805 26.7265 17.4995 26.6505 17.4995 26.6315C18.0508 26.9546 18.602 27.2777 19.1342 27.5818C19.6854 27.886 20.2176 28.1521 20.7308 28.3992C21.244 28.6463 21.7382 28.8363 22.1944 28.9884C22.6506 29.1405 23.0688 29.2355 23.4299 29.2545C23.4869 29.2545 23.525 29.2545 23.582 29.2545C23.639 29.2545 23.677 29.2545 23.715 29.2545C23.7531 29.2545 23.8101 29.2545 23.8481 29.2355C23.8861 29.2355 23.9431 29.2165 23.9811 29.2165C24.0382 29.1975 24.1142 29.1785 24.1712 29.1595C24.2282 29.1405 24.2853 29.1215 24.3423 29.0834C24.3993 29.0644 24.4373 29.0264 24.4944 28.9884C24.5324 28.9504 24.5894 28.9124 24.6274 28.8744C24.8935 28.6082 25.0076 28.1711 24.9886 27.6389C24.9886 27.1066 24.8555 26.4604 24.6464 25.7571L24.6274 25.7951Z" fill="#833376"/>
<path d="M12.0439 14.7947V13.8443H9.55389L10.9985 12.4377C11.3786 12.0576 11.6447 11.7154 11.8158 11.3923C11.9679 11.0692 12.0439 10.746 12.0439 10.4039C12.0439 9.85269 11.8728 9.41551 11.5307 9.11139C11.1885 8.80726 10.7134 8.6552 10.0861 8.6552C9.47786 8.6552 8.98366 8.80726 8.62251 9.11139C8.26137 9.41551 8.07129 9.85269 8.07129 10.4039V10.4609H9.11671C9.11671 9.85269 9.43984 9.54856 10.0861 9.54856C10.6943 9.54856 11.0175 9.83368 11.0175 10.4229C11.0175 10.651 10.9605 10.8791 10.8464 11.0882C10.7324 11.2973 10.5613 11.5254 10.3142 11.7915L8.20434 13.8253V14.7757H12.0819L12.0439 14.7947ZM17.1189 10.4609C17.1189 9.90971 16.9289 9.45353 16.5487 9.1304C16.1686 8.78826 15.6744 8.61719 15.0471 8.61719C14.4389 8.61719 13.9447 8.78826 13.5455 9.11139C13.1653 9.45352 12.9753 9.8907 12.9753 10.4419V13.027C12.9753 13.5782 13.1653 14.0154 13.5455 14.3575C13.9256 14.6996 14.4198 14.8517 15.0471 14.8517C15.6553 14.8517 16.1495 14.6806 16.5487 14.3385C16.9289 13.9964 17.1189 13.5592 17.1189 13.008V10.4609ZM16.0735 12.9319C16.0735 13.2551 15.9785 13.5022 15.8074 13.6732C15.6363 13.8443 15.3892 13.9393 15.0661 13.9393C14.743 13.9393 14.4959 13.8443 14.3248 13.6732C14.1537 13.5022 14.0587 13.236 14.0587 12.9319V10.518C14.0587 10.1948 14.1537 9.94772 14.3248 9.75765C14.4959 9.58658 14.762 9.49154 15.0851 9.49154C15.4082 9.49154 15.6553 9.58658 15.8264 9.75765C16.0165 9.92872 16.0925 10.1948 16.0925 10.518L16.0735 12.9319Z" fill="#833376"/>
<path d="M9.32616 19.89V15.3281H8.56585V18.8065L6.76012 15.3281H5.63867V19.89H6.39898V16.4306L8.22371 19.89H9.32616ZM10.9228 19.4528C10.9228 19.3387 10.8848 19.2437 10.8088 19.1867C10.7327 19.1297 10.6187 19.0916 10.5046 19.0916C10.3906 19.0916 10.2765 19.1297 10.2005 19.1867C10.1245 19.2437 10.0865 19.3387 10.0865 19.4528V19.5858C10.0865 19.6999 10.1245 19.7949 10.2005 19.8519C10.2765 19.909 10.3906 19.947 10.5046 19.947C10.6377 19.947 10.7327 19.909 10.8088 19.8519C10.8848 19.7949 10.9228 19.6999 10.9228 19.5858L10.9038 19.4528H10.9228ZM14.3632 18.6545H13.6409C13.6409 19.0916 13.4128 19.3007 12.9566 19.3007C12.5194 19.3007 12.2914 19.0726 12.2914 18.6164V17.9512C12.2914 17.495 12.5194 17.2669 12.9566 17.2669C13.4128 17.2669 13.6409 17.476 13.6409 17.9132H14.3632V17.8561C14.3632 17.457 14.2491 17.1529 13.983 16.9438C13.7359 16.7347 13.3938 16.6206 12.9756 16.6206C12.5575 16.6206 12.2153 16.7347 11.9682 16.9628C11.7211 17.1909 11.5881 17.495 11.5881 17.8942V18.6925C11.5881 19.0916 11.7211 19.3958 11.9682 19.6239C12.2153 19.8519 12.5575 19.947 12.9756 19.947C13.4128 19.947 13.7549 19.8519 14.002 19.6239C14.2491 19.4148 14.3822 19.1106 14.3822 18.7115L14.3632 18.6735V18.6545ZM19.4953 19.89V17.609C19.4953 17.3049 19.4192 17.0578 19.2482 16.8868C19.0961 16.7157 18.868 16.6206 18.5829 16.6206C18.3168 16.6206 18.0887 16.6967 17.8416 16.8487L17.4804 17.0578C17.3474 16.7727 17.0813 16.6206 16.7201 16.6206C16.492 16.6206 16.264 16.6967 16.0359 16.8107L15.7507 16.9818V16.6397H15.0285V19.871H15.7698V17.6471L16.1499 17.4C16.302 17.3239 16.435 17.2859 16.5301 17.2859C16.7582 17.2859 16.8722 17.419 16.8722 17.6851V19.871H17.6135V17.6471L18.0127 17.4C18.1647 17.3049 18.2978 17.2669 18.3928 17.2669C18.6209 17.2669 18.7349 17.4 18.7349 17.6661V19.8519H19.4762L19.4953 19.89Z" fill="#833376"/>
<path d="M21.5677 11.3132C24.647 11.3132 27.156 8.82322 27.156 5.72497C27.156 2.64573 24.666 0.136719 21.5677 0.136719C18.4885 0.136719 15.9795 2.62672 15.9795 5.72497C15.9795 8.80421 18.4695 11.3132 21.5677 11.3132Z" fill="#833376"/>
<path d="M21.5677 11.3132C24.647 11.3132 27.156 8.82322 27.156 5.72497C27.156 2.64573 24.666 0.136719 21.5677 0.136719C18.4885 0.136719 15.9795 2.62672 15.9795 5.72497C15.9795 8.80421 18.4695 11.3132 21.5677 11.3132Z" stroke="white" stroke-width="1.08344"/>
<path d="M23.5438 8.90304V8.2948H22.1752V2.97266H21.472C21.0538 3.37182 20.6356 3.61892 20.2365 3.77098V4.41724C20.6926 4.34121 21.1108 4.11312 21.51 3.71395V8.31381H19.7803V8.92205H23.5438V8.90304Z" fill="#FEFEFE"/>
</svg>
