<svg width="17" height="17" viewBox="0 0 17 17" fill="none" xmlns="http://www.w3.org/2000/svg">
<path d="M8.50696 4.25C8.63957 4.25 8.76675 4.30268 8.86052 4.39645C8.95429 4.49022 9.00697 4.6174 9.00697 4.75002V7.75011H12.0071C12.1397 7.75011 12.2669 7.80279 12.3606 7.89656C12.4544 7.99033 12.5071 8.11751 12.5071 8.25012C12.5071 8.38273 12.4544 8.50991 12.3606 8.60369C12.2669 8.69746 12.1397 8.75014 12.0071 8.75014H9.00697V11.7502C9.00697 11.8828 8.95429 12.01 8.86052 12.1038C8.76675 12.1976 8.63957 12.2502 8.50696 12.2502C8.37435 12.2502 8.24716 12.1976 8.15339 12.1038C8.05962 12.01 8.00694 11.8828 8.00694 11.7502V8.75014H5.00685C4.87424 8.75014 4.74706 8.69746 4.65329 8.60369C4.55952 8.50991 4.50684 8.38273 4.50684 8.25012C4.50684 8.11751 4.55952 7.99033 4.65329 7.89656C4.74706 7.80279 4.87424 7.75011 5.00685 7.75011H8.00694V4.75002C8.00694 4.6174 8.05962 4.49022 8.15339 4.39645C8.24716 4.30268 8.37435 4.25 8.50696 4.25Z" fill="#CFCCC9"/>
</svg>
