<svg width="22" height="22" viewBox="0 0 22 22" fill="none" xmlns="http://www.w3.org/2000/svg">
<path d="M11.9301 7.34102C11.9301 7.16713 11.861 7.00036 11.738 6.8774C11.6151 6.75444 11.4483 6.68536 11.2744 6.68536C11.1005 6.68536 10.9337 6.75444 10.8108 6.8774C10.6878 7.00036 10.6187 7.16713 10.6187 7.34102V9.30801H8.65175C8.47786 9.30801 8.31109 9.37708 8.18813 9.50004C8.06517 9.623 7.99609 9.78977 7.99609 9.96367C7.99609 10.1376 8.06517 10.3043 8.18813 10.4273C8.31109 10.5502 8.47786 10.6193 8.65175 10.6193H10.6187V12.5863C10.6187 12.7602 10.6878 12.927 10.8108 13.0499C10.9337 13.1729 11.1005 13.242 11.2744 13.242C11.4483 13.242 11.6151 13.1729 11.738 13.0499C11.861 12.927 11.9301 12.7602 11.9301 12.5863V10.6193H13.897C14.0709 10.6193 14.2377 10.5502 14.3607 10.4273C14.4836 10.3043 14.5527 10.1376 14.5527 9.96367C14.5527 9.78977 14.4836 9.623 14.3607 9.50004C14.2377 9.37708 14.0709 9.30801 13.897 9.30801H11.9301V7.34102Z" fill="#363330"/>
<path d="M0.784078 1.44006C0.610186 1.44006 0.443417 1.50914 0.320456 1.6321C0.197496 1.75506 0.128418 1.92183 0.128418 2.09572C0.128418 2.26962 0.197496 2.43639 0.320456 2.55935C0.443417 2.68231 0.610186 2.75138 0.784078 2.75138H2.23964L2.76548 4.85868L4.72984 15.3296C4.75797 15.4798 4.83771 15.6155 4.95527 15.7132C5.07284 15.8109 5.22084 15.8645 5.3737 15.8646H6.68502C5.98945 15.8646 5.32238 16.1409 4.83053 16.6327C4.33869 17.1246 4.06238 17.7917 4.06238 18.4872C4.06238 19.1828 4.33869 19.8499 4.83053 20.3417C5.32238 20.8336 5.98945 21.1099 6.68502 21.1099C7.38059 21.1099 8.04767 20.8336 8.53951 20.3417C9.03135 19.8499 9.30766 19.1828 9.30766 18.4872C9.30766 17.7917 9.03135 17.1246 8.53951 16.6327C8.04767 16.1409 7.38059 15.8646 6.68502 15.8646H15.8643C15.1687 15.8646 14.5016 16.1409 14.0098 16.6327C13.5179 17.1246 13.2416 17.7917 13.2416 18.4872C13.2416 19.1828 13.5179 19.8499 14.0098 20.3417C14.5016 20.8336 15.1687 21.1099 15.8643 21.1099C16.5598 21.1099 17.2269 20.8336 17.7188 20.3417C18.2106 19.8499 18.4869 19.1828 18.4869 18.4872C18.4869 17.7917 18.2106 17.1246 17.7188 16.6327C17.2269 16.1409 16.5598 15.8646 15.8643 15.8646H17.1756C17.3284 15.8645 17.4765 15.8109 17.594 15.7132C17.7116 15.6155 17.7913 15.4798 17.8194 15.3296L19.7864 4.83901C19.8041 4.74438 19.8008 4.64701 19.7766 4.55382C19.7525 4.46063 19.7081 4.3739 19.6466 4.2998C19.5852 4.22569 19.5082 4.16604 19.421 4.12506C19.3339 4.08408 19.2388 4.06279 19.1426 4.06271H3.91814L3.38705 1.93705C3.35166 1.79515 3.26983 1.66915 3.15459 1.5791C3.03935 1.48904 2.89731 1.4401 2.75106 1.44006H0.784078ZM5.9179 14.5533L4.19614 5.37403H18.3532L16.6314 14.5533H5.9179ZM7.99634 18.4872C7.99634 18.835 7.85819 19.1686 7.61227 19.4145C7.36635 19.6604 7.03281 19.7986 6.68502 19.7986C6.33724 19.7986 6.0037 19.6604 5.75778 19.4145C5.51186 19.1686 5.3737 18.835 5.3737 18.4872C5.3737 18.1395 5.51186 17.8059 5.75778 17.56C6.0037 17.3141 6.33724 17.1759 6.68502 17.1759C7.03281 17.1759 7.36635 17.3141 7.61227 17.56C7.85819 17.8059 7.99634 18.1395 7.99634 18.4872ZM17.1756 18.4872C17.1756 18.835 17.0374 19.1686 16.7915 19.4145C16.5456 19.6604 16.2121 19.7986 15.8643 19.7986C15.5165 19.7986 15.1829 19.6604 14.937 19.4145C14.6911 19.1686 14.5529 18.835 14.5529 18.4872C14.5529 18.1395 14.6911 17.8059 14.937 17.56C15.1829 17.3141 15.5165 17.1759 15.8643 17.1759C16.2121 17.1759 16.5456 17.3141 16.7915 17.56C17.0374 17.8059 17.1756 18.1395 17.1756 18.4872Z" fill="#363330"/>
</svg>
