<svg width="21" height="74" viewBox="0 0 21 74" fill="none" xmlns="http://www.w3.org/2000/svg">
<path d="M13.5722 57.1294L13.4686 55.6797H7.49706L7.42802 57.1294H0.938683L10.5001 73.5254L20.0615 57.1294H13.5722Z" fill="#833376"/>
<path d="M7.70534 51.7163H13.2627L13.0556 47.7812H7.91244L7.70534 51.7163Z" fill="#833376"/>
<path d="M8.11775 43.8257H12.8467L12.6396 39.8906H8.32485L8.11775 43.8257Z" fill="#833376"/>
<path d="M8.53113 35.9149H12.4316L12.2245 31.9453H8.73824L8.53113 35.9149Z" fill="#833376"/>
<path d="M8.94745 28.0008H12.0195L11.8124 24.0312H9.15456L8.94745 28.0008Z" fill="#833376"/>
<path d="M9.36084 20.1024H11.6045L11.3974 16.1328H9.60246L9.36084 20.1024Z" fill="#833376"/>
<path d="M11.1895 12.1805L10.9823 8.21094H10.0158L9.80874 12.1805H11.1895Z" fill="#833376"/>
<path d="M10.7773 4.28986L10.5702 0.320312H10.4322L10.2251 4.28986H10.7773Z" fill="#833376"/>
</svg>
