<svg width="21" height="74" viewBox="0 0 21 74" fill="none" xmlns="http://www.w3.org/2000/svg">
<path d="M13.5605 56.8638L13.4569 55.4141H7.48534L7.4163 56.8638H0.926964L10.4884 73.2597L20.0498 56.8638H13.5605Z" fill="#833376"/>
<path d="M7.69362 51.4507H13.251L13.0439 47.5156H7.90072L7.69362 51.4507Z" fill="#833376"/>
<path d="M8.10603 43.56H12.835L12.6279 39.625H8.31313L8.10603 43.56Z" fill="#833376"/>
<path d="M8.51942 35.6492H12.4199L12.2128 31.6797H8.72652L8.51942 35.6492Z" fill="#833376"/>
<path d="M8.93573 27.7352H12.0078L11.8007 23.7656H9.14284L8.93573 27.7352Z" fill="#833376"/>
<path d="M9.34912 19.8367H11.5928L11.3857 15.8672H9.59074L9.34912 19.8367Z" fill="#833376"/>
<path d="M11.1777 11.9149L10.9706 7.94531H10.0041L9.79702 11.9149H11.1777Z" fill="#833376"/>
<path d="M10.7656 4.02423L10.5585 0.0546875H10.4204L10.2133 4.02423H10.7656Z" fill="#833376"/>
</svg>
