<svg width="34" height="33" viewBox="0 0 34 33" fill="none" xmlns="http://www.w3.org/2000/svg">
<mask id="path-1-inside-1_15342_4794" fill="white">
<path d="M9.97576 17.6716V16.2676C9.95159 16.4982 9.94043 16.7325 9.94043 16.9705C9.94043 17.2067 9.95159 17.441 9.97576 17.6716Z"/>
</mask>
<path d="M9.97576 17.6716L9.24797 17.7479L10.7075 17.6716H9.97576ZM9.97576 16.2676H10.7075L9.24797 16.1913L9.97576 16.2676ZM10.7075 17.6716V16.2676H9.24398V17.6716H10.7075ZM9.24797 16.1913C9.22087 16.4497 9.20865 16.7097 9.20865 16.9705H10.6722C10.6722 16.7553 10.6823 16.5466 10.7036 16.3439L9.24797 16.1913ZM9.20865 16.9705C9.20865 17.2296 9.22088 17.4895 9.24797 17.7479L10.7036 17.5953C10.6823 17.3925 10.6722 17.1838 10.6722 16.9705H9.20865Z" fill="#250A20" mask="url(#path-1-inside-1_15342_4794)"/>
<path d="M1.70245 23.0259L1.70247 23.026C2.91351 26.1 4.99774 28.6956 7.73037 30.5324L7.73241 30.5344L7.76232 30.5544C8.3571 30.9521 8.97529 31.3097 9.61001 31.6231V31.8488C6.03728 30.1136 3.08087 27.0885 1.5112 23.1018L1.51118 23.1018C-1.23508 16.1288 1.12644 8.40848 6.79459 4.06677V4.33223C1.29771 8.63819 -0.983986 16.2042 1.70245 23.0259Z" stroke="#250A20" stroke-width="0.731783"/>
<path d="M32.0488 11.078C35.1805 19.0327 31.6688 27.9595 24.1843 31.7335V31.5005C27.5121 29.7989 30.1287 27.0242 31.6387 23.553C33.366 19.5849 33.444 15.1791 31.8575 11.152L31.8575 11.152C30.7881 8.43956 29.0394 6.10185 26.7654 4.32805V4.06625C29.0397 5.80549 30.8866 8.16011 32.0233 11.012V11.0134L32.0488 11.078Z" stroke="#250A20" stroke-width="0.731783"/>
<path d="M24.1861 8.01566V6.07488H25.1049C28.3798 8.58096 30.4929 12.5281 30.4929 16.9707C30.4929 21.815 27.978 26.0691 24.1843 28.5084V25.9272C26.76 23.7935 28.4074 20.5716 28.4074 16.9707C28.4074 13.3706 26.7608 10.1494 24.1861 8.01566Z" stroke="#250A20" stroke-width="0.731783"/>
<path d="M8.45685 6.07488H9.61V7.82406C6.898 9.95349 5.1507 13.2605 5.1507 16.9707C5.1507 20.6808 6.898 23.9879 9.61 26.1173V28.659C5.74529 26.2836 3.14804 22.0478 3.06892 17.1988V16.9707C3.06892 12.5298 5.18028 8.58091 8.45685 6.07488Z" stroke="#250A20" stroke-width="0.731783"/>
<path d="M24.1843 22.8844V11.0571C25.4804 12.678 26.2567 14.733 26.2567 16.9704C26.2567 19.2083 25.4815 21.2636 24.1843 22.8844Z" stroke="#250A20" stroke-width="0.731783"/>
<path d="M7.30144 16.9705C7.30144 14.6029 8.17158 12.439 9.60823 10.7771V16.2506C9.58399 16.4887 9.5729 16.7276 9.5729 16.9705C9.5729 17.2117 9.58398 17.4523 9.60823 17.6905V23.1646C8.17165 21.5039 7.30144 19.34 7.30144 16.9705Z" stroke="#250A20" stroke-width="0.731783"/>
<path d="M10.8102 27.7783V26.1354H12.4541L10.8102 27.7783Z" stroke="#250A20" stroke-width="0.731783"/>
<path d="M16.8042 32.2079L22.7498 26.2624V28.041L18.5811 32.2079H16.8042Z" stroke="#250A20" stroke-width="0.731783"/>
<path d="M22.7502 32.2073H20.8716L22.7502 30.3287V32.2073Z" stroke="#250A20" stroke-width="0.731783"/>
<path d="M12.7369 32.2079L18.8093 26.1354H20.5878L14.5137 32.2079H12.7369Z" stroke="#250A20" stroke-width="0.731783"/>
<path d="M10.8102 30.068L14.7428 26.1354H16.5196L10.8102 31.8448V30.068Z" stroke="#250A20" stroke-width="0.731783"/>
<path d="M22.1607 15.7934L16.7674 21.1867L11.7964 16.2157L22.1607 12.9053V15.7934Z" stroke="#250A20" stroke-width="0.731783"/>
<path d="M11.2572 1.42064L11.5871 1.29076C16.0985 -0.36542 20.9122 0.27438 24.7265 2.63796V4.51158H22.5262H22.1603V4.65947L11.3738 8.09251V4.87933V4.51344H11.0079H8.83171V2.63805C9.5898 2.16856 10.3993 1.75842 11.2572 1.42064Z" stroke="#250A20" stroke-width="0.731783"/>
<path d="M22.1602 10.6395L11.3737 14.0859V10.3595L22.1602 6.91313V10.6395Z" stroke="#250A20" stroke-width="0.731783"/>
</svg>
