<svg width="17" height="16" viewBox="0 0 17 16" fill="none" xmlns="http://www.w3.org/2000/svg">
<path d="M4.10968 3.60933V7.49762C4.10968 8.08205 4.58378 8.55915 5.1712 8.55915H9.05949M15.0678 5.37755V1.48926C15.0678 0.904825 14.5937 0.427734 14.0063 0.427734H5.1712C4.58677 0.427734 4.10968 0.901843 4.10968 1.48926V2.90264M9.7632 8.55616H10.8098L12.6943 10.4317C12.918 10.6524 13.2966 10.4943 13.2966 10.1813V8.55616H14.0033C14.5878 8.55616 15.0649 8.08205 15.0649 7.49464V6.08126M6.22975 11.0281V12.4415C6.22975 13.0259 6.70385 13.503 7.29127 13.503H11.2869L13.7857 15.5127C14.0182 15.6976 14.3612 15.5336 14.3612 15.2384V13.503H15.7745C16.359 13.503 16.8361 13.0289 16.8361 12.4415V6.43311C16.8361 5.84868 16.362 5.37158 15.7745 5.37158H9.76618M6.23273 8.55318V10.3214M9.05949 5.37457H7.29127C6.70684 5.37457 6.22975 5.84868 6.22975 6.43609V7.84947M1.63477 2.90264H8.70465C9.28909 2.90264 9.76618 3.37675 9.76618 3.96417V9.97253C9.76618 10.557 9.29207 11.0341 8.70465 11.0341H4.35717L2.59789 12.8709C2.37724 13.1005 1.9896 12.9454 1.9896 12.6263V11.0341H1.63477C1.05033 11.0341 0.573242 10.5599 0.573242 9.97253V3.96417C0.573242 3.37973 1.04735 2.90264 1.63477 2.90264Z" stroke="white" stroke-width="0.70669" stroke-miterlimit="10"/>
</svg>
