<svg width="21" height="21" viewBox="0 0 21 21" fill="none" xmlns="http://www.w3.org/2000/svg">
<path d="M10.5334 5.33594C10.6977 5.33594 10.8552 5.40118 10.9713 5.51732C11.0875 5.63346 11.1527 5.79098 11.1527 5.95523V9.67096H14.8684C15.0327 9.67096 15.1902 9.73621 15.3063 9.85235C15.4225 9.96849 15.4877 10.126 15.4877 10.2903C15.4877 10.4545 15.4225 10.612 15.3063 10.7282C15.1902 10.8443 15.0327 10.9095 14.8684 10.9095H11.1527V14.6253C11.1527 14.7895 11.0875 14.947 10.9713 15.0632C10.8552 15.1793 10.6977 15.2446 10.5334 15.2446C10.3692 15.2446 10.2117 15.1793 10.0955 15.0632C9.97937 14.947 9.91413 14.7895 9.91413 14.6253V10.9095H6.19839C6.03415 10.9095 5.87663 10.8443 5.76049 10.7282C5.64435 10.612 5.5791 10.4545 5.5791 10.2903C5.5791 10.126 5.64435 9.96849 5.76049 9.85235C5.87663 9.73621 6.03415 9.67096 6.19839 9.67096H9.91413V5.95523C9.91413 5.79098 9.97937 5.63346 10.0955 5.51732C10.2117 5.40118 10.3692 5.33594 10.5334 5.33594Z" fill="#363330"/>
</svg>
