<svg width="21" height="21" viewBox="0 0 21 21" fill="none" xmlns="http://www.w3.org/2000/svg">
<path d="M10.6692 5.33594C10.8334 5.33594 10.9909 5.40118 11.1071 5.51732C11.2232 5.63346 11.2884 5.79098 11.2884 5.95523V9.67096H15.0042C15.1684 9.67096 15.3259 9.73621 15.4421 9.85235C15.5582 9.96849 15.6235 10.126 15.6235 10.2903C15.6235 10.4545 15.5582 10.612 15.4421 10.7282C15.3259 10.8443 15.1684 10.9095 15.0042 10.9095H11.2884V14.6253C11.2884 14.7895 11.2232 14.947 11.1071 15.0632C10.9909 15.1793 10.8334 15.2446 10.6692 15.2446C10.5049 15.2446 10.3474 15.1793 10.2313 15.0632C10.1151 14.947 10.0499 14.7895 10.0499 14.6253V10.9095H6.33413C6.16989 10.9095 6.01237 10.8443 5.89623 10.7282C5.78009 10.612 5.71484 10.4545 5.71484 10.2903C5.71484 10.126 5.78009 9.96849 5.89623 9.85235C6.01237 9.73621 6.16989 9.67096 6.33413 9.67096H10.0499V5.95523C10.0499 5.79098 10.1151 5.63346 10.2313 5.51732C10.3474 5.40118 10.5049 5.33594 10.6692 5.33594Z" fill="#363330"/>
</svg>
