<svg width="21" height="21" viewBox="0 0 21 21" fill="none" xmlns="http://www.w3.org/2000/svg">
<path d="M10.6008 5.33594C10.765 5.33594 10.9226 5.40118 11.0387 5.51732C11.1548 5.63346 11.2201 5.79098 11.2201 5.95523V9.67096H14.9358C15.1001 9.67096 15.2576 9.73621 15.3737 9.85235C15.4899 9.96849 15.5551 10.126 15.5551 10.2903C15.5551 10.4545 15.4899 10.612 15.3737 10.7282C15.2576 10.8443 15.1001 10.9095 14.9358 10.9095H11.2201V14.6253C11.2201 14.7895 11.1548 14.947 11.0387 15.0632C10.9226 15.1793 10.765 15.2446 10.6008 15.2446C10.4366 15.2446 10.279 15.1793 10.1629 15.0632C10.0468 14.947 9.98151 14.7895 9.98151 14.6253V10.9095H6.26577C6.10153 10.9095 5.94401 10.8443 5.82787 10.7282C5.71173 10.612 5.64648 10.4545 5.64648 10.2903C5.64648 10.126 5.71173 9.96849 5.82787 9.85235C5.94401 9.73621 6.10153 9.67096 6.26577 9.67096H9.98151V5.95523C9.98151 5.79098 10.0468 5.63346 10.1629 5.51732C10.279 5.40118 10.4366 5.33594 10.6008 5.33594Z" fill="#363330"/>
</svg>
