<svg width="21" height="21" viewBox="0 0 21 21" fill="none" xmlns="http://www.w3.org/2000/svg">
<path d="M10.4587 5.51025C10.623 5.51025 10.7805 5.5755 10.8966 5.69164C11.0128 5.80778 11.078 5.9653 11.078 6.12954V9.84528H14.7937C14.958 9.84528 15.1155 9.91053 15.2316 10.0267C15.3478 10.1428 15.413 10.3003 15.413 10.4646C15.413 10.6288 15.3478 10.7863 15.2316 10.9025C15.1155 11.0186 14.958 11.0839 14.7937 11.0839H11.078V14.7996C11.078 14.9638 11.0128 15.1214 10.8966 15.2375C10.7805 15.3536 10.623 15.4189 10.4587 15.4189C10.2945 15.4189 10.1369 15.3536 10.0208 15.2375C9.90467 15.1214 9.83942 14.9638 9.83942 14.7996V11.0839H6.12368C5.95944 11.0839 5.80192 11.0186 5.68578 10.9025C5.56964 10.7863 5.50439 10.6288 5.50439 10.4646C5.50439 10.3003 5.56964 10.1428 5.68578 10.0267C5.80192 9.91053 5.95944 9.84528 6.12368 9.84528H9.83942V6.12954C9.83942 5.9653 9.90467 5.80778 10.0208 5.69164C10.1369 5.5755 10.2945 5.51025 10.4587 5.51025Z" fill="#363330"/>
</svg>
