<svg width="14" height="15" viewBox="0 0 14 15" fill="none" xmlns="http://www.w3.org/2000/svg">
<path d="M7.84645 5.31563C7.84645 5.20421 7.80218 5.09735 7.72339 5.01856C7.6446 4.93977 7.53774 4.89551 7.42632 4.89551C7.31489 4.89551 7.20803 4.93977 7.12924 5.01856C7.05045 5.09735 7.00619 5.20421 7.00619 5.31563V6.57602H5.74581C5.63439 6.57602 5.52753 6.62028 5.44874 6.69907C5.36995 6.77786 5.32568 6.88472 5.32568 6.99614C5.32568 7.10757 5.36995 7.21443 5.44874 7.29322C5.52753 7.37201 5.63439 7.41627 5.74581 7.41627H7.00619V8.67665C7.00619 8.78808 7.05045 8.89494 7.12924 8.97373C7.20803 9.05252 7.31489 9.09678 7.42632 9.09678C7.53774 9.09678 7.6446 9.05252 7.72339 8.97373C7.80218 8.89494 7.84645 8.78808 7.84645 8.67665V7.41627H9.10683C9.21825 7.41627 9.32511 7.37201 9.4039 7.29322C9.48269 7.21443 9.52695 7.10757 9.52695 6.99614C9.52695 6.88472 9.48269 6.77786 9.4039 6.69907C9.32511 6.62028 9.21825 6.57602 9.10683 6.57602H7.84645V5.31563Z" fill="#363330"/>
<path d="M0.704307 1.53467C0.592882 1.53467 0.486021 1.57893 0.407232 1.65772C0.328443 1.73651 0.28418 1.84337 0.28418 1.9548C0.28418 2.06622 0.328443 2.17308 0.407232 2.25187C0.486021 2.33066 0.592882 2.37492 0.704307 2.37492H1.63699L1.97393 3.72521L3.23263 10.4346C3.25065 10.5309 3.30175 10.6179 3.37708 10.6805C3.45241 10.7431 3.54725 10.7774 3.6452 10.7775H4.48545C4.03975 10.7775 3.61231 10.9545 3.29715 11.2697C2.982 11.5848 2.80494 12.0123 2.80494 12.458C2.80494 12.9037 2.982 13.3311 3.29715 13.6463C3.61231 13.9614 4.03975 14.1385 4.48545 14.1385C4.93115 14.1385 5.35859 13.9614 5.67375 13.6463C5.98891 13.3311 6.16596 12.9037 6.16596 12.458C6.16596 12.0123 5.98891 11.5848 5.67375 11.2697C5.35859 10.9545 4.93115 10.7775 4.48545 10.7775H10.3672C9.92153 10.7775 9.49409 10.9545 9.17893 11.2697C8.86378 11.5848 8.68672 12.0123 8.68672 12.458C8.68672 12.9037 8.86378 13.3311 9.17893 13.6463C9.49409 13.9614 9.92153 14.1385 10.3672 14.1385C10.8129 14.1385 11.2404 13.9614 11.5555 13.6463C11.8707 13.3311 12.0477 12.9037 12.0477 12.458C12.0477 12.0123 11.8707 11.5848 11.5555 11.2697C11.2404 10.9545 10.8129 10.7775 10.3672 10.7775H11.2075C11.3054 10.7774 11.4003 10.7431 11.4756 10.6805C11.5509 10.6179 11.602 10.5309 11.62 10.4346L12.8804 3.71261C12.8918 3.65197 12.8896 3.58958 12.8742 3.52987C12.8587 3.47015 12.8302 3.41458 12.7909 3.3671C12.7515 3.31962 12.7021 3.28139 12.6463 3.25513C12.5905 3.22887 12.5296 3.21523 12.4679 3.21518H2.71251L2.37221 1.85312C2.34953 1.7622 2.2971 1.68146 2.22326 1.62376C2.14942 1.56605 2.0584 1.53469 1.96469 1.53467H0.704307ZM3.9939 9.93721L2.89065 4.05543H11.962L10.8588 9.93721H3.9939ZM5.32571 12.458C5.32571 12.6808 5.23718 12.8945 5.0796 13.0521C4.92202 13.2097 4.7083 13.2982 4.48545 13.2982C4.2626 13.2982 4.04888 13.2097 3.8913 13.0521C3.73372 12.8945 3.6452 12.6808 3.6452 12.458C3.6452 12.2351 3.73372 12.0214 3.8913 11.8638C4.04888 11.7062 4.2626 11.6177 4.48545 11.6177C4.7083 11.6177 4.92202 11.7062 5.0796 11.8638C5.23718 12.0214 5.32571 12.2351 5.32571 12.458ZM11.2075 12.458C11.2075 12.6808 11.119 12.8945 10.9614 13.0521C10.8038 13.2097 10.5901 13.2982 10.3672 13.2982C10.1444 13.2982 9.93066 13.2097 9.77308 13.0521C9.6155 12.8945 9.52698 12.6808 9.52698 12.458C9.52698 12.2351 9.6155 12.0214 9.77308 11.8638C9.93066 11.7062 10.1444 11.6177 10.3672 11.6177C10.5901 11.6177 10.8038 11.7062 10.9614 11.8638C11.119 12.0214 11.2075 12.2351 11.2075 12.458Z" fill="#363330"/>
</svg>
