<svg width="14" height="15" viewBox="0 0 14 15" fill="none" xmlns="http://www.w3.org/2000/svg">
<path d="M8.05006 5.45577C8.05006 5.34435 8.0058 5.23749 7.92701 5.1587C7.84822 5.07991 7.74136 5.03564 7.62993 5.03564C7.51851 5.03564 7.41165 5.07991 7.33286 5.1587C7.25407 5.23749 7.20981 5.34435 7.20981 5.45577V6.71615H5.94942C5.838 6.71615 5.73114 6.76042 5.65235 6.83921C5.57356 6.91799 5.5293 7.02486 5.5293 7.13628C5.5293 7.2477 5.57356 7.35457 5.65235 7.43335C5.73114 7.51214 5.838 7.55641 5.94942 7.55641H7.20981V8.81679C7.20981 8.92821 7.25407 9.03507 7.33286 9.11386C7.41165 9.19265 7.51851 9.23692 7.62993 9.23692C7.74136 9.23692 7.84822 9.19265 7.92701 9.11386C8.0058 9.03507 8.05006 8.92821 8.05006 8.81679V7.55641H9.31044C9.42187 7.55641 9.52873 7.51214 9.60752 7.43335C9.68631 7.35457 9.73057 7.2477 9.73057 7.13628C9.73057 7.02486 9.68631 6.91799 9.60752 6.83921C9.52873 6.76042 9.42187 6.71615 9.31044 6.71615H8.05006V5.45577Z" fill="#363330"/>
<path d="M0.90792 1.6748C0.796495 1.6748 0.689634 1.71907 0.610845 1.79786C0.532056 1.87665 0.487793 1.98351 0.487793 2.09493C0.487793 2.20636 0.532056 2.31322 0.610845 2.39201C0.689634 2.4708 0.796495 2.51506 0.90792 2.51506H1.8406L2.17754 3.86535L3.43625 10.5748C3.45427 10.6711 3.50536 10.758 3.58069 10.8206C3.65603 10.8832 3.75086 10.9175 3.84881 10.9176H4.68906C4.24337 10.9176 3.81592 11.0947 3.50077 11.4098C3.18561 11.725 3.00856 12.1524 3.00856 12.5981C3.00856 13.0438 3.18561 13.4713 3.50077 13.7864C3.81592 14.1016 4.24337 14.2786 4.68906 14.2786C5.13476 14.2786 5.56221 14.1016 5.87736 13.7864C6.19252 13.4713 6.36957 13.0438 6.36957 12.5981C6.36957 12.1524 6.19252 11.725 5.87736 11.4098C5.56221 11.0947 5.13476 10.9176 4.68906 10.9176H10.5708C10.1251 10.9176 9.6977 11.0947 9.38255 11.4098C9.06739 11.725 8.89034 12.1524 8.89034 12.5981C8.89034 13.0438 9.06739 13.4713 9.38255 13.7864C9.6977 14.1016 10.1251 14.2786 10.5708 14.2786C11.0165 14.2786 11.444 14.1016 11.7591 13.7864C12.0743 13.4713 12.2514 13.0438 12.2514 12.5981C12.2514 12.1524 12.0743 11.725 11.7591 11.4098C11.444 11.0947 11.0165 10.9176 10.5708 10.9176H11.4111C11.509 10.9175 11.6039 10.8832 11.6792 10.8206C11.7545 10.758 11.8056 10.6711 11.8237 10.5748L13.084 3.85274C13.0954 3.79211 13.0933 3.72972 13.0778 3.67C13.0623 3.61029 13.0338 3.55472 12.9945 3.50723C12.9551 3.45975 12.9057 3.42152 12.8499 3.39527C12.7941 3.36901 12.7332 3.35537 12.6715 3.35531H2.91613L2.57582 1.99326C2.55315 1.90233 2.50072 1.8216 2.42687 1.76389C2.35303 1.70619 2.26202 1.67483 2.1683 1.6748H0.90792ZM4.19752 10.0773L3.09426 4.19557H12.1656L11.0624 10.0773H4.19752ZM5.52932 12.5981C5.52932 12.821 5.44079 13.0347 5.28321 13.1923C5.12564 13.3498 4.91191 13.4384 4.68906 13.4384C4.46621 13.4384 4.25249 13.3498 4.09491 13.1923C3.93734 13.0347 3.84881 12.821 3.84881 12.5981C3.84881 12.3753 3.93734 12.1615 4.09491 12.004C4.25249 11.8464 4.46621 11.7579 4.68906 11.7579C4.91191 11.7579 5.12564 11.8464 5.28321 12.004C5.44079 12.1615 5.52932 12.3753 5.52932 12.5981ZM11.4111 12.5981C11.4111 12.821 11.3226 13.0347 11.165 13.1923C11.0074 13.3498 10.7937 13.4384 10.5708 13.4384C10.348 13.4384 10.1343 13.3498 9.9767 13.1923C9.81912 13.0347 9.73059 12.821 9.73059 12.5981C9.73059 12.3753 9.81912 12.1615 9.9767 12.004C10.1343 11.8464 10.348 11.7579 10.5708 11.7579C10.7937 11.7579 11.0074 11.8464 11.165 12.004C11.3226 12.1615 11.4111 12.3753 11.4111 12.5981Z" fill="#363330"/>
</svg>
