<svg width="15" height="15" viewBox="0 0 15 15" fill="none" xmlns="http://www.w3.org/2000/svg">
<path d="M8.34645 5.45577C8.34645 5.34435 8.30218 5.23749 8.22339 5.1587C8.1446 5.07991 8.03774 5.03564 7.92632 5.03564C7.81489 5.03564 7.70803 5.07991 7.62924 5.1587C7.55045 5.23749 7.50619 5.34435 7.50619 5.45577V6.71615H6.24581C6.13439 6.71615 6.02753 6.76042 5.94874 6.83921C5.86995 6.91799 5.82568 7.02486 5.82568 7.13628C5.82568 7.2477 5.86995 7.35457 5.94874 7.43335C6.02753 7.51214 6.13439 7.55641 6.24581 7.55641H7.50619V8.81679C7.50619 8.92821 7.55045 9.03507 7.62924 9.11386C7.70803 9.19265 7.81489 9.23692 7.92632 9.23692C8.03774 9.23692 8.1446 9.19265 8.22339 9.11386C8.30218 9.03507 8.34645 8.92821 8.34645 8.81679V7.55641H9.60683C9.71825 7.55641 9.82511 7.51214 9.9039 7.43335C9.98269 7.35457 10.027 7.2477 10.027 7.13628C10.027 7.02486 9.98269 6.91799 9.9039 6.83921C9.82511 6.76042 9.71825 6.71615 9.60683 6.71615H8.34645V5.45577Z" fill="#363330"/>
<path d="M1.20431 1.6748C1.09288 1.6748 0.986021 1.71907 0.907232 1.79786C0.828443 1.87665 0.78418 1.98351 0.78418 2.09493C0.78418 2.20636 0.828443 2.31322 0.907232 2.39201C0.986021 2.4708 1.09288 2.51506 1.20431 2.51506H2.13699L2.47393 3.86535L3.73263 10.5748C3.75065 10.6711 3.80175 10.758 3.87708 10.8206C3.95241 10.8832 4.04725 10.9175 4.1452 10.9176H4.98545C4.53975 10.9176 4.11231 11.0947 3.79715 11.4098C3.482 11.725 3.30494 12.1524 3.30494 12.5981C3.30494 13.0438 3.482 13.4713 3.79715 13.7864C4.11231 14.1016 4.53975 14.2786 4.98545 14.2786C5.43115 14.2786 5.85859 14.1016 6.17375 13.7864C6.48891 13.4713 6.66596 13.0438 6.66596 12.5981C6.66596 12.1524 6.48891 11.725 6.17375 11.4098C5.85859 11.0947 5.43115 10.9176 4.98545 10.9176H10.8672C10.4215 10.9176 9.99409 11.0947 9.67893 11.4098C9.36378 11.725 9.18672 12.1524 9.18672 12.5981C9.18672 13.0438 9.36378 13.4713 9.67893 13.7864C9.99409 14.1016 10.4215 14.2786 10.8672 14.2786C11.3129 14.2786 11.7404 14.1016 12.0555 13.7864C12.3707 13.4713 12.5477 13.0438 12.5477 12.5981C12.5477 12.1524 12.3707 11.725 12.0555 11.4098C11.7404 11.0947 11.3129 10.9176 10.8672 10.9176H11.7075C11.8054 10.9175 11.9003 10.8832 11.9756 10.8206C12.0509 10.758 12.102 10.6711 12.12 10.5748L13.3804 3.85274C13.3918 3.79211 13.3896 3.72972 13.3742 3.67C13.3587 3.61029 13.3302 3.55472 13.2909 3.50723C13.2515 3.45975 13.2021 3.42152 13.1463 3.39527C13.0905 3.36901 13.0296 3.35537 12.9679 3.35531H3.21251L2.87221 1.99326C2.84953 1.90233 2.7971 1.8216 2.72326 1.76389C2.64942 1.70619 2.5584 1.67483 2.46469 1.6748H1.20431ZM4.4939 10.0773L3.39065 4.19557H12.462L11.3588 10.0773H4.4939ZM5.82571 12.5981C5.82571 12.821 5.73718 13.0347 5.5796 13.1923C5.42202 13.3498 5.2083 13.4384 4.98545 13.4384C4.7626 13.4384 4.54888 13.3498 4.3913 13.1923C4.23372 13.0347 4.1452 12.821 4.1452 12.5981C4.1452 12.3753 4.23372 12.1615 4.3913 12.004C4.54888 11.8464 4.7626 11.7579 4.98545 11.7579C5.2083 11.7579 5.42202 11.8464 5.5796 12.004C5.73718 12.1615 5.82571 12.3753 5.82571 12.5981ZM11.7075 12.5981C11.7075 12.821 11.619 13.0347 11.4614 13.1923C11.3038 13.3498 11.0901 13.4384 10.8672 13.4384C10.6444 13.4384 10.4307 13.3498 10.2731 13.1923C10.1155 13.0347 10.027 12.821 10.027 12.5981C10.027 12.3753 10.1155 12.1615 10.2731 12.004C10.4307 11.8464 10.6444 11.7579 10.8672 11.7579C11.0901 11.7579 11.3038 11.8464 11.4614 12.004C11.619 12.1615 11.7075 12.3753 11.7075 12.5981Z" fill="#363330"/>
</svg>
