<svg width="14" height="15" viewBox="0 0 14 15" fill="none" xmlns="http://www.w3.org/2000/svg">
<path d="M7.88307 5.31563C7.88307 5.20421 7.8388 5.09735 7.76002 5.01856C7.68123 4.93977 7.57436 4.89551 7.46294 4.89551C7.35152 4.89551 7.24465 4.93977 7.16587 5.01856C7.08708 5.09735 7.04281 5.20421 7.04281 5.31563V6.57602H5.78243C5.67101 6.57602 5.56415 6.62028 5.48536 6.69907C5.40657 6.77786 5.3623 6.88472 5.3623 6.99614C5.3623 7.10757 5.40657 7.21443 5.48536 7.29322C5.56415 7.37201 5.67101 7.41627 5.78243 7.41627H7.04281V8.67665C7.04281 8.78808 7.08708 8.89494 7.16587 8.97373C7.24465 9.05252 7.35152 9.09678 7.46294 9.09678C7.57436 9.09678 7.68123 9.05252 7.76002 8.97373C7.8388 8.89494 7.88307 8.78808 7.88307 8.67665V7.41627H9.14345C9.25487 7.41627 9.36173 7.37201 9.44052 7.29322C9.51931 7.21443 9.56358 7.10757 9.56358 6.99614C9.56358 6.88472 9.51931 6.77786 9.44052 6.69907C9.36173 6.62028 9.25487 6.57602 9.14345 6.57602H7.88307V5.31563Z" fill="#363330"/>
<path d="M0.740928 1.53467C0.629503 1.53467 0.522642 1.57893 0.443853 1.65772C0.365064 1.73651 0.320801 1.84337 0.320801 1.9548C0.320801 2.06622 0.365064 2.17308 0.443853 2.25187C0.522642 2.33066 0.629503 2.37492 0.740928 2.37492H1.67361L2.01055 3.72521L3.26925 10.4346C3.28728 10.5309 3.33837 10.6179 3.4137 10.6805C3.48903 10.7431 3.58387 10.7774 3.68182 10.7775H4.52207C4.07637 10.7775 3.64893 10.9545 3.33377 11.2697C3.01862 11.5848 2.84156 12.0123 2.84156 12.458C2.84156 12.9037 3.01862 13.3311 3.33377 13.6463C3.64893 13.9614 4.07637 14.1385 4.52207 14.1385C4.96777 14.1385 5.39521 13.9614 5.71037 13.6463C6.02553 13.3311 6.20258 12.9037 6.20258 12.458C6.20258 12.0123 6.02553 11.5848 5.71037 11.2697C5.39521 10.9545 4.96777 10.7775 4.52207 10.7775H10.4039C9.95815 10.7775 9.53071 10.9545 9.21555 11.2697C8.9004 11.5848 8.72334 12.0123 8.72334 12.458C8.72334 12.9037 8.9004 13.3311 9.21555 13.6463C9.53071 13.9614 9.95815 14.1385 10.4039 14.1385C10.8496 14.1385 11.277 13.9614 11.5922 13.6463C11.9073 13.3311 12.0844 12.9037 12.0844 12.458C12.0844 12.0123 11.9073 11.5848 11.5922 11.2697C11.277 10.9545 10.8496 10.7775 10.4039 10.7775H11.2441C11.3421 10.7774 11.4369 10.7431 11.5122 10.6805C11.5876 10.6179 11.6386 10.5309 11.6567 10.4346L12.9171 3.71261C12.9284 3.65197 12.9263 3.58958 12.9108 3.52987C12.8953 3.47015 12.8669 3.41458 12.8275 3.3671C12.7881 3.31962 12.7387 3.28139 12.6829 3.25513C12.6271 3.22887 12.5662 3.21523 12.5045 3.21518H2.74914L2.40883 1.85312C2.38615 1.7622 2.33372 1.68146 2.25988 1.62376C2.18604 1.56605 2.09502 1.53469 2.00131 1.53467H0.740928ZM4.03052 9.93721L2.92727 4.05543H11.9987L10.8954 9.93721H4.03052ZM5.36233 12.458C5.36233 12.6808 5.2738 12.8945 5.11622 13.0521C4.95864 13.2097 4.74492 13.2982 4.52207 13.2982C4.29922 13.2982 4.0855 13.2097 3.92792 13.0521C3.77034 12.8945 3.68182 12.6808 3.68182 12.458C3.68182 12.2351 3.77034 12.0214 3.92792 11.8638C4.0855 11.7062 4.29922 11.6177 4.52207 11.6177C4.74492 11.6177 4.95864 11.7062 5.11622 11.8638C5.2738 12.0214 5.36233 12.2351 5.36233 12.458ZM11.2441 12.458C11.2441 12.6808 11.1556 12.8945 10.998 13.0521C10.8404 13.2097 10.6267 13.2982 10.4039 13.2982C10.181 13.2982 9.96728 13.2097 9.8097 13.0521C9.65212 12.8945 9.5636 12.6808 9.5636 12.458C9.5636 12.2351 9.65212 12.0214 9.8097 11.8638C9.96728 11.7062 10.181 11.6177 10.4039 11.6177C10.6267 11.6177 10.8404 11.7062 10.998 11.8638C11.1556 12.0214 11.2441 12.2351 11.2441 12.458Z" fill="#363330"/>
</svg>
