<svg width="14" height="15" viewBox="0 0 14 15" fill="none" xmlns="http://www.w3.org/2000/svg">
<path d="M8.12281 5.42062C8.12281 5.30919 8.07855 5.20233 7.99976 5.12354C7.92097 5.04475 7.81411 5.00049 7.70269 5.00049C7.59126 5.00049 7.4844 5.04475 7.40561 5.12354C7.32682 5.20233 7.28256 5.30919 7.28256 5.42062V6.681H6.02218C5.91075 6.681 5.80389 6.72526 5.7251 6.80405C5.64631 6.88284 5.60205 6.9897 5.60205 7.10112C5.60205 7.21255 5.64631 7.31941 5.7251 7.3982C5.80389 7.47699 5.91075 7.52125 6.02218 7.52125H7.28256V8.78163C7.28256 8.89306 7.32682 8.99992 7.40561 9.07871C7.4844 9.1575 7.59126 9.20176 7.70269 9.20176C7.81411 9.20176 7.92097 9.1575 7.99976 9.07871C8.07855 8.99992 8.12281 8.89306 8.12281 8.78163V7.52125H9.38319C9.49462 7.52125 9.60148 7.47699 9.68027 7.3982C9.75906 7.31941 9.80332 7.21255 9.80332 7.10112C9.80332 6.9897 9.75906 6.88284 9.68027 6.80405C9.60148 6.72526 9.49462 6.681 9.38319 6.681H8.12281V5.42062Z" fill="#363330"/>
<path d="M0.980674 1.63965C0.869249 1.63965 0.762388 1.68391 0.683599 1.7627C0.60481 1.84149 0.560547 1.94835 0.560547 2.05978C0.560547 2.1712 0.60481 2.27806 0.683599 2.35685C0.762388 2.43564 0.869249 2.4799 0.980674 2.4799H1.91336L2.2503 3.83019L3.509 10.5396C3.52702 10.6359 3.57811 10.7228 3.65345 10.7854C3.72878 10.848 3.82362 10.8824 3.92156 10.8824H4.76182C4.31612 10.8824 3.88868 11.0595 3.57352 11.3747C3.25836 11.6898 3.08131 12.1173 3.08131 12.563C3.08131 13.0087 3.25836 13.4361 3.57352 13.7513C3.88868 14.0664 4.31612 14.2435 4.76182 14.2435C5.20752 14.2435 5.63496 14.0664 5.95012 13.7513C6.26527 13.4361 6.44233 13.0087 6.44233 12.563C6.44233 12.1173 6.26527 11.6898 5.95012 11.3747C5.63496 11.0595 5.20752 10.8824 4.76182 10.8824H10.6436C10.1979 10.8824 9.77046 11.0595 9.4553 11.3747C9.14014 11.6898 8.96309 12.1173 8.96309 12.563C8.96309 13.0087 9.14014 13.4361 9.4553 13.7513C9.77046 14.0664 10.1979 14.2435 10.6436 14.2435C11.0893 14.2435 11.5167 14.0664 11.8319 13.7513C12.1471 13.4361 12.3241 13.0087 12.3241 12.563C12.3241 12.1173 12.1471 11.6898 11.8319 11.3747C11.5167 11.0595 11.0893 10.8824 10.6436 10.8824H11.4839C11.5818 10.8824 11.6766 10.848 11.752 10.7854C11.8273 10.7228 11.8784 10.6359 11.8964 10.5396L13.1568 3.81759C13.1681 3.75695 13.166 3.69456 13.1505 3.63485C13.135 3.57513 13.1066 3.51956 13.0672 3.47208C13.0278 3.4246 12.9785 3.38637 12.9227 3.36011C12.8668 3.33386 12.8059 3.32021 12.7442 3.32016H2.98888L2.64858 1.9581C2.6259 1.86718 2.57347 1.78644 2.49963 1.72874C2.42579 1.67103 2.33477 1.63967 2.24106 1.63965H0.980674ZM4.27027 10.0422L3.16702 4.16041H12.2384L11.1351 10.0422H4.27027ZM5.60207 12.563C5.60207 12.7858 5.51355 12.9995 5.35597 13.1571C5.19839 13.3147 4.98467 13.4032 4.76182 13.4032C4.53897 13.4032 4.32525 13.3147 4.16767 13.1571C4.01009 12.9995 3.92156 12.7858 3.92156 12.563C3.92156 12.3401 4.01009 12.1264 4.16767 11.9688C4.32525 11.8112 4.53897 11.7227 4.76182 11.7227C4.98467 11.7227 5.19839 11.8112 5.35597 11.9688C5.51355 12.1264 5.60207 12.3401 5.60207 12.563ZM11.4839 12.563C11.4839 12.7858 11.3953 12.9995 11.2377 13.1571C11.0802 13.3147 10.8664 13.4032 10.6436 13.4032C10.4207 13.4032 10.207 13.3147 10.0494 13.1571C9.89187 12.9995 9.80334 12.7858 9.80334 12.563C9.80334 12.3401 9.89187 12.1264 10.0494 11.9688C10.207 11.8112 10.4207 11.7227 10.6436 11.7227C10.8664 11.7227 11.0802 11.8112 11.2377 11.9688C11.3953 12.1264 11.4839 12.3401 11.4839 12.563Z" fill="#363330"/>
</svg>
