<svg width="14" height="15" viewBox="0 0 14 15" fill="none" xmlns="http://www.w3.org/2000/svg">
<path d="M7.6985 5.45577C7.6985 5.34435 7.65423 5.23749 7.57544 5.1587C7.49666 5.07991 7.38979 5.03564 7.27837 5.03564C7.16695 5.03564 7.06008 5.07991 6.98129 5.1587C6.90251 5.23749 6.85824 5.34435 6.85824 5.45577V6.71615H5.59786C5.48644 6.71615 5.37958 6.76042 5.30079 6.83921C5.222 6.91799 5.17773 7.02486 5.17773 7.13628C5.17773 7.2477 5.222 7.35457 5.30079 7.43335C5.37958 7.51214 5.48644 7.55641 5.59786 7.55641H6.85824V8.81679C6.85824 8.92821 6.90251 9.03507 6.98129 9.11386C7.06008 9.19265 7.16695 9.23692 7.27837 9.23692C7.38979 9.23692 7.49666 9.19265 7.57544 9.11386C7.65423 9.03507 7.6985 8.92821 7.6985 8.81679V7.55641H8.95888C9.0703 7.55641 9.17716 7.51214 9.25595 7.43335C9.33474 7.35457 9.37901 7.2477 9.37901 7.13628C9.37901 7.02486 9.33474 6.91799 9.25595 6.83921C9.17716 6.76042 9.0703 6.71615 8.95888 6.71615H7.6985V5.45577Z" fill="#363330"/>
<path d="M0.556358 1.6748C0.444933 1.6748 0.338072 1.71907 0.259283 1.79786C0.180494 1.87665 0.13623 1.98351 0.13623 2.09493C0.13623 2.20636 0.180494 2.31322 0.259283 2.39201C0.338072 2.4708 0.444933 2.51506 0.556358 2.51506H1.48904L1.82598 3.86535L3.08468 10.5748C3.1027 10.6711 3.1538 10.758 3.22913 10.8206C3.30446 10.8832 3.3993 10.9175 3.49725 10.9176H4.3375C3.8918 10.9176 3.46436 11.0947 3.1492 11.4098C2.83405 11.725 2.65699 12.1524 2.65699 12.5981C2.65699 13.0438 2.83405 13.4713 3.1492 13.7864C3.46436 14.1016 3.8918 14.2786 4.3375 14.2786C4.7832 14.2786 5.21064 14.1016 5.5258 13.7864C5.84096 13.4713 6.01801 13.0438 6.01801 12.5981C6.01801 12.1524 5.84096 11.725 5.5258 11.4098C5.21064 11.0947 4.7832 10.9176 4.3375 10.9176H10.2193C9.77358 10.9176 9.34614 11.0947 9.03098 11.4098C8.71583 11.725 8.53877 12.1524 8.53877 12.5981C8.53877 13.0438 8.71583 13.4713 9.03098 13.7864C9.34614 14.1016 9.77358 14.2786 10.2193 14.2786C10.665 14.2786 11.0924 14.1016 11.4076 13.7864C11.7227 13.4713 11.8998 13.0438 11.8998 12.5981C11.8998 12.1524 11.7227 11.725 11.4076 11.4098C11.0924 11.0947 10.665 10.9176 10.2193 10.9176H11.0595C11.1575 10.9175 11.2523 10.8832 11.3277 10.8206C11.403 10.758 11.4541 10.6711 11.4721 10.5748L12.7325 3.85274C12.7438 3.79211 12.7417 3.72972 12.7262 3.67C12.7107 3.61029 12.6823 3.55472 12.6429 3.50723C12.6035 3.45975 12.5542 3.42152 12.4983 3.39527C12.4425 3.36901 12.3816 3.35537 12.3199 3.35531H2.56457L2.22426 1.99326C2.20158 1.90233 2.14915 1.8216 2.07531 1.76389C2.00147 1.70619 1.91045 1.67483 1.81674 1.6748H0.556358ZM3.84595 10.0773L2.7427 4.19557H11.8141L10.7108 10.0773H3.84595ZM5.17776 12.5981C5.17776 12.821 5.08923 13.0347 4.93165 13.1923C4.77407 13.3498 4.56035 13.4384 4.3375 13.4384C4.11465 13.4384 3.90093 13.3498 3.74335 13.1923C3.58577 13.0347 3.49725 12.821 3.49725 12.5981C3.49725 12.3753 3.58577 12.1615 3.74335 12.004C3.90093 11.8464 4.11465 11.7579 4.3375 11.7579C4.56035 11.7579 4.77407 11.8464 4.93165 12.004C5.08923 12.1615 5.17776 12.3753 5.17776 12.5981ZM11.0595 12.5981C11.0595 12.821 10.971 13.0347 10.8134 13.1923C10.6559 13.3498 10.4421 13.4384 10.2193 13.4384C9.99643 13.4384 9.78271 13.3498 9.62513 13.1923C9.46755 13.0347 9.37903 12.821 9.37903 12.5981C9.37903 12.3753 9.46755 12.1615 9.62513 12.004C9.78271 11.8464 9.99643 11.7579 10.2193 11.7579C10.4421 11.7579 10.6559 11.8464 10.8134 12.004C10.971 12.1615 11.0595 12.3753 11.0595 12.5981Z" fill="#363330"/>
</svg>
