<svg width="15" height="14" viewBox="0 0 15 14" fill="none" xmlns="http://www.w3.org/2000/svg">
<path d="M8.33375 4.91427C8.33375 4.80284 8.28949 4.69598 8.2107 4.61719C8.13191 4.5384 8.02505 4.49414 7.91362 4.49414C7.8022 4.49414 7.69534 4.5384 7.61655 4.61719C7.53776 4.69598 7.4935 4.80284 7.4935 4.91427V6.17465H6.23312C6.12169 6.17465 6.01483 6.21891 5.93604 6.2977C5.85725 6.37649 5.81299 6.48335 5.81299 6.59478C5.81299 6.7062 5.85725 6.81306 5.93604 6.89185C6.01483 6.97064 6.12169 7.0149 6.23312 7.0149H7.4935V8.27528C7.4935 8.38671 7.53776 8.49357 7.61655 8.57236C7.69534 8.65115 7.8022 8.69541 7.91362 8.69541C8.02505 8.69541 8.13191 8.65115 8.2107 8.57236C8.28949 8.49357 8.33375 8.38671 8.33375 8.27528V7.0149H9.59413C9.70556 7.0149 9.81242 6.97064 9.89121 6.89185C9.97 6.81306 10.0143 6.7062 10.0143 6.59478C10.0143 6.48335 9.97 6.37649 9.89121 6.2977C9.81242 6.21891 9.70556 6.17465 9.59413 6.17465H8.33375V4.91427Z" fill="#363330"/>
<path d="M1.19161 1.1333C1.08019 1.1333 0.973326 1.17756 0.894537 1.25635C0.815748 1.33514 0.771484 1.442 0.771484 1.55343C0.771484 1.66485 0.815748 1.77171 0.894537 1.8505C0.973326 1.92929 1.08019 1.97355 1.19161 1.97355H2.12429L2.46124 3.32384L3.71994 10.0333C3.73796 10.1295 3.78905 10.2165 3.86439 10.2791C3.93972 10.3417 4.03455 10.376 4.1325 10.3761H4.97276C4.52706 10.3761 4.09961 10.5532 3.78446 10.8683C3.4693 11.1835 3.29225 11.6109 3.29225 12.0566C3.29225 12.5023 3.4693 12.9297 3.78446 13.2449C4.09961 13.5601 4.52706 13.7371 4.97276 13.7371C5.41845 13.7371 5.8459 13.5601 6.16105 13.2449C6.47621 12.9297 6.65326 12.5023 6.65326 12.0566C6.65326 11.6109 6.47621 11.1835 6.16105 10.8683C5.8459 10.5532 5.41845 10.3761 4.97276 10.3761H10.8545C10.4088 10.3761 9.98139 10.5532 9.66624 10.8683C9.35108 11.1835 9.17403 11.6109 9.17403 12.0566C9.17403 12.5023 9.35108 12.9297 9.66624 13.2449C9.98139 13.5601 10.4088 13.7371 10.8545 13.7371C11.3002 13.7371 11.7277 13.5601 12.0428 13.2449C12.358 12.9297 12.535 12.5023 12.535 12.0566C12.535 11.6109 12.358 11.1835 12.0428 10.8683C11.7277 10.5532 11.3002 10.3761 10.8545 10.3761H11.6948C11.7927 10.376 11.8876 10.3417 11.9629 10.2791C12.0382 10.2165 12.0893 10.1295 12.1074 10.0333L13.3677 3.31124C13.3791 3.2506 13.3769 3.18821 13.3615 3.1285C13.346 3.06878 13.3175 3.01321 13.2782 2.96573C13.2388 2.91825 13.1894 2.88002 13.1336 2.85376C13.0778 2.82751 13.0169 2.81387 12.9552 2.81381H3.19982L2.85952 1.45176C2.83684 1.36083 2.78441 1.28009 2.71057 1.22239C2.63672 1.16468 2.54571 1.13333 2.45199 1.1333H1.19161ZM4.48121 9.53584L3.37795 3.65406H12.4493L11.3461 9.53584H4.48121ZM5.81301 12.0566C5.81301 12.2795 5.72448 12.4932 5.56691 12.6508C5.40933 12.8083 5.1956 12.8969 4.97276 12.8969C4.74991 12.8969 4.53618 12.8083 4.37861 12.6508C4.22103 12.4932 4.1325 12.2795 4.1325 12.0566C4.1325 11.8338 4.22103 11.62 4.37861 11.4625C4.53618 11.3049 4.74991 11.2164 4.97276 11.2164C5.1956 11.2164 5.40933 11.3049 5.56691 11.4625C5.72448 11.62 5.81301 11.8338 5.81301 12.0566ZM11.6948 12.0566C11.6948 12.2795 11.6063 12.4932 11.4487 12.6508C11.2911 12.8083 11.0774 12.8969 10.8545 12.8969C10.6317 12.8969 10.418 12.8083 10.2604 12.6508C10.1028 12.4932 10.0143 12.2795 10.0143 12.0566C10.0143 11.8338 10.1028 11.62 10.2604 11.4625C10.418 11.3049 10.6317 11.2164 10.8545 11.2164C11.0774 11.2164 11.2911 11.3049 11.4487 11.4625C11.6063 11.62 11.6948 11.8338 11.6948 12.0566Z" fill="#363330"/>
</svg>
