<svg width="15" height="16" viewBox="0 0 15 16" fill="none" xmlns="http://www.w3.org/2000/svg">
<path d="M8.51908 5.62838C8.51908 5.50835 8.4714 5.39323 8.38652 5.30835C8.30164 5.22347 8.18652 5.17578 8.06648 5.17578C7.94644 5.17578 7.83132 5.22347 7.74644 5.30835C7.66156 5.39323 7.61388 5.50835 7.61388 5.62838V6.98619H6.25607C6.13603 6.98619 6.02091 7.03388 5.93603 7.11876C5.85115 7.20364 5.80347 7.31876 5.80347 7.4388C5.80347 7.55883 5.85115 7.67396 5.93603 7.75883C6.02091 7.84371 6.13603 7.8914 6.25607 7.8914H7.61388V9.24921C7.61388 9.36925 7.66156 9.48437 7.74644 9.56925C7.83132 9.65413 7.94644 9.70181 8.06648 9.70181C8.18652 9.70181 8.30164 9.65413 8.38652 9.56925C8.4714 9.48437 8.51908 9.36925 8.51908 9.24921V7.8914H9.87689C9.99693 7.8914 10.1121 7.84371 10.1969 7.75883C10.2818 7.67396 10.3295 7.55883 10.3295 7.4388C10.3295 7.31876 10.2818 7.20364 10.1969 7.11876C10.1121 7.03388 9.99693 6.98619 9.87689 6.98619H8.51908V5.62838Z" fill="#363330"/>
<path d="M0.824917 1.55469C0.70488 1.55469 0.589758 1.60237 0.504879 1.68725C0.419999 1.77213 0.372314 1.88725 0.372314 2.00729C0.372314 2.12733 0.419999 2.24245 0.504879 2.32733C0.589758 2.41221 0.70488 2.45989 0.824917 2.45989H1.8297L2.19268 3.91456L3.54868 11.1426C3.5681 11.2463 3.62314 11.34 3.7043 11.4075C3.78545 11.4749 3.88762 11.5119 3.99314 11.512H4.89834C4.41819 11.512 3.95771 11.7027 3.61819 12.0422C3.27867 12.3817 3.08793 12.8422 3.08793 13.3224C3.08793 13.8025 3.27867 14.263 3.61819 14.6025C3.95771 14.942 4.41819 15.1328 4.89834 15.1328C5.3785 15.1328 5.83898 14.942 6.1785 14.6025C6.51802 14.263 6.70876 13.8025 6.70876 13.3224C6.70876 12.8422 6.51802 12.3817 6.1785 12.0422C5.83898 11.7027 5.3785 11.512 4.89834 11.512H11.2348C10.7546 11.512 10.2942 11.7027 9.95463 12.0422C9.61511 12.3817 9.42437 12.8422 9.42437 13.3224C9.42437 13.8025 9.61511 14.263 9.95463 14.6025C10.2942 14.942 10.7546 15.1328 11.2348 15.1328C11.7149 15.1328 12.1754 14.942 12.5149 14.6025C12.8545 14.263 13.0452 13.8025 13.0452 13.3224C13.0452 12.8422 12.8545 12.3817 12.5149 12.0422C12.1754 11.7027 11.7149 11.512 11.2348 11.512H12.14C12.2455 11.5119 12.3477 11.4749 12.4288 11.4075C12.51 11.34 12.565 11.2463 12.5844 11.1426L13.9423 3.90098C13.9545 3.83566 13.9522 3.76845 13.9355 3.70412C13.9188 3.63979 13.8882 3.57992 13.8458 3.52876C13.8033 3.47761 13.7502 3.43643 13.69 3.40814C13.6299 3.37986 13.5643 3.36516 13.4978 3.3651H2.98836L2.62175 1.89776C2.59732 1.7998 2.54084 1.71283 2.46129 1.65066C2.38174 1.5885 2.28369 1.55472 2.18273 1.55469H0.824917ZM4.3688 10.6067L3.18026 4.27031H12.9529L11.7643 10.6067H4.3688ZM5.80355 13.3224C5.80355 13.5624 5.70818 13.7927 5.53842 13.9624C5.36866 14.1322 5.13842 14.2276 4.89834 14.2276C4.65827 14.2276 4.42803 14.1322 4.25827 13.9624C4.08851 13.7927 3.99314 13.5624 3.99314 13.3224C3.99314 13.0823 4.08851 12.852 4.25827 12.6823C4.42803 12.5125 4.65827 12.4172 4.89834 12.4172C5.13842 12.4172 5.36866 12.5125 5.53842 12.6823C5.70818 12.852 5.80355 13.0823 5.80355 13.3224ZM12.14 13.3224C12.14 13.5624 12.0446 13.7927 11.8749 13.9624C11.7051 14.1322 11.4749 14.2276 11.2348 14.2276C10.9947 14.2276 10.7645 14.1322 10.5947 13.9624C10.425 13.7927 10.3296 13.5624 10.3296 13.3224C10.3296 13.0823 10.425 12.852 10.5947 12.6823C10.7645 12.5125 10.9947 12.4172 11.2348 12.4172C11.4749 12.4172 11.7051 12.5125 11.8749 12.6823C12.0446 12.852 12.14 13.0823 12.14 13.3224Z" fill="#363330"/>
</svg>
