<svg width="15" height="15" viewBox="0 0 15 15" fill="none" xmlns="http://www.w3.org/2000/svg">
<path d="M8.51908 5.2651C8.51908 5.14507 8.4714 5.02994 8.38652 4.94506C8.30164 4.86018 8.18652 4.8125 8.06648 4.8125C7.94644 4.8125 7.83132 4.86018 7.74644 4.94506C7.66156 5.02994 7.61388 5.14507 7.61388 5.2651V6.62291H6.25607C6.13603 6.62291 6.02091 6.6706 5.93603 6.75548C5.85115 6.84036 5.80347 6.95548 5.80347 7.07552C5.80347 7.19555 5.85115 7.31067 5.93603 7.39555C6.02091 7.48043 6.13603 7.52812 6.25607 7.52812H7.61388V8.88593C7.61388 9.00596 7.66156 9.12109 7.74644 9.20597C7.83132 9.29085 7.94644 9.33853 8.06648 9.33853C8.18652 9.33853 8.30164 9.29085 8.38652 9.20597C8.4714 9.12109 8.51908 9.00596 8.51908 8.88593V7.52812H9.87689C9.99693 7.52812 10.1121 7.48043 10.1969 7.39555C10.2818 7.31067 10.3295 7.19555 10.3295 7.07552C10.3295 6.95548 10.2818 6.84036 10.1969 6.75548C10.1121 6.6706 9.99693 6.62291 9.87689 6.62291H8.51908V5.2651Z" fill="#363330"/>
<path d="M0.824917 1.19141C0.70488 1.19141 0.589758 1.23909 0.504879 1.32397C0.419999 1.40885 0.372314 1.52397 0.372314 1.64401C0.372314 1.76405 0.419999 1.87917 0.504879 1.96405C0.589758 2.04893 0.70488 2.09661 0.824917 2.09661H1.8297L2.19268 3.55128L3.54868 10.7793C3.5681 10.8831 3.62314 10.9767 3.7043 11.0442C3.78545 11.1116 3.88762 11.1486 3.99314 11.1487H4.89834C4.41819 11.1487 3.95771 11.3394 3.61819 11.6789C3.27867 12.0184 3.08793 12.4789 3.08793 12.9591C3.08793 13.4392 3.27867 13.8997 3.61819 14.2392C3.95771 14.5788 4.41819 14.7695 4.89834 14.7695C5.3785 14.7695 5.83898 14.5788 6.1785 14.2392C6.51802 13.8997 6.70876 13.4392 6.70876 12.9591C6.70876 12.4789 6.51802 12.0184 6.1785 11.6789C5.83898 11.3394 5.3785 11.1487 4.89834 11.1487H11.2348C10.7546 11.1487 10.2942 11.3394 9.95463 11.6789C9.61511 12.0184 9.42437 12.4789 9.42437 12.9591C9.42437 13.4392 9.61511 13.8997 9.95463 14.2392C10.2942 14.5788 10.7546 14.7695 11.2348 14.7695C11.7149 14.7695 12.1754 14.5788 12.5149 14.2392C12.8545 13.8997 13.0452 13.4392 13.0452 12.9591C13.0452 12.4789 12.8545 12.0184 12.5149 11.6789C12.1754 11.3394 11.7149 11.1487 11.2348 11.1487H12.14C12.2455 11.1486 12.3477 11.1116 12.4288 11.0442C12.51 10.9767 12.565 10.8831 12.5844 10.7793L13.9423 3.5377C13.9545 3.47238 13.9522 3.40516 13.9355 3.34083C13.9188 3.2765 13.8882 3.21664 13.8458 3.16548C13.8033 3.11433 13.7502 3.07315 13.69 3.04486C13.6299 3.01658 13.5643 3.00188 13.4978 3.00182H2.98836L2.62175 1.53448C2.59732 1.43652 2.54084 1.34954 2.46129 1.28738C2.38174 1.22522 2.28369 1.19143 2.18273 1.19141H0.824917ZM4.3688 10.2435L3.18026 3.90702H12.9529L11.7643 10.2435H4.3688ZM5.80355 12.9591C5.80355 13.1992 5.70818 13.4294 5.53842 13.5992C5.36866 13.7689 5.13842 13.8643 4.89834 13.8643C4.65827 13.8643 4.42803 13.7689 4.25827 13.5992C4.08851 13.4294 3.99314 13.1992 3.99314 12.9591C3.99314 12.719 4.08851 12.4888 4.25827 12.319C4.42803 12.1492 4.65827 12.0539 4.89834 12.0539C5.13842 12.0539 5.36866 12.1492 5.53842 12.319C5.70818 12.4888 5.80355 12.719 5.80355 12.9591ZM12.14 12.9591C12.14 13.1992 12.0446 13.4294 11.8749 13.5992C11.7051 13.7689 11.4749 13.8643 11.2348 13.8643C10.9947 13.8643 10.7645 13.7689 10.5947 13.5992C10.425 13.4294 10.3296 13.1992 10.3296 12.9591C10.3296 12.719 10.425 12.4888 10.5947 12.319C10.7645 12.1492 10.9947 12.0539 11.2348 12.0539C11.4749 12.0539 11.7051 12.1492 11.8749 12.319C12.0446 12.4888 12.14 12.719 12.14 12.9591Z" fill="#363330"/>
</svg>
