<svg width="15" height="16" viewBox="0 0 15 16" fill="none" xmlns="http://www.w3.org/2000/svg">
<path d="M8.51908 5.83542C8.51908 5.71538 8.4714 5.60026 8.38652 5.51538C8.30164 5.4305 8.18652 5.38281 8.06648 5.38281C7.94644 5.38281 7.83132 5.4305 7.74644 5.51538C7.66156 5.60026 7.61388 5.71538 7.61388 5.83542V7.19322H6.25607C6.13603 7.19322 6.02091 7.24091 5.93603 7.32579C5.85115 7.41067 5.80347 7.52579 5.80347 7.64583C5.80347 7.76587 5.85115 7.88099 5.93603 7.96587C6.02091 8.05075 6.13603 8.09843 6.25607 8.09843H7.61388V9.45624C7.61388 9.57628 7.66156 9.6914 7.74644 9.77628C7.83132 9.86116 7.94644 9.90884 8.06648 9.90884C8.18652 9.90884 8.30164 9.86116 8.38652 9.77628C8.4714 9.6914 8.51908 9.57628 8.51908 9.45624V8.09843H9.87689C9.99693 8.09843 10.1121 8.05075 10.1969 7.96587C10.2818 7.88099 10.3295 7.76587 10.3295 7.64583C10.3295 7.52579 10.2818 7.41067 10.1969 7.32579C10.1121 7.24091 9.99693 7.19322 9.87689 7.19322H8.51908V5.83542Z" fill="#363330"/>
<path d="M0.824917 1.76172C0.70488 1.76172 0.589758 1.8094 0.504879 1.89428C0.419999 1.97916 0.372314 2.09428 0.372314 2.21432C0.372314 2.33436 0.419999 2.44948 0.504879 2.53436C0.589758 2.61924 0.70488 2.66692 0.824917 2.66692H1.8297L2.19268 4.12159L3.54868 11.3497C3.5681 11.4534 3.62314 11.5471 3.7043 11.6145C3.78545 11.6819 3.88762 11.7189 3.99314 11.719H4.89834C4.41819 11.719 3.95771 11.9097 3.61819 12.2492C3.27867 12.5888 3.08793 13.0492 3.08793 13.5294C3.08793 14.0095 3.27867 14.47 3.61819 14.8096C3.95771 15.1491 4.41819 15.3398 4.89834 15.3398C5.3785 15.3398 5.83898 15.1491 6.1785 14.8096C6.51802 14.47 6.70876 14.0095 6.70876 13.5294C6.70876 13.0492 6.51802 12.5888 6.1785 12.2492C5.83898 11.9097 5.3785 11.719 4.89834 11.719H11.2348C10.7546 11.719 10.2942 11.9097 9.95463 12.2492C9.61511 12.5888 9.42437 13.0492 9.42437 13.5294C9.42437 14.0095 9.61511 14.47 9.95463 14.8096C10.2942 15.1491 10.7546 15.3398 11.2348 15.3398C11.7149 15.3398 12.1754 15.1491 12.5149 14.8096C12.8545 14.47 13.0452 14.0095 13.0452 13.5294C13.0452 13.0492 12.8545 12.5888 12.5149 12.2492C12.1754 11.9097 11.7149 11.719 11.2348 11.719H12.14C12.2455 11.7189 12.3477 11.6819 12.4288 11.6145C12.51 11.5471 12.565 11.4534 12.5844 11.3497L13.9423 4.10801C13.9545 4.04269 13.9522 3.97548 13.9355 3.91115C13.9188 3.84682 13.8882 3.78695 13.8458 3.7358C13.8033 3.68464 13.7502 3.64346 13.69 3.61517C13.6299 3.58689 13.5643 3.57219 13.4978 3.57213H2.98836L2.62175 2.10479C2.59732 2.00683 2.54084 1.91986 2.46129 1.85769C2.38174 1.79553 2.28369 1.76175 2.18273 1.76172H0.824917ZM4.3688 10.8138L3.18026 4.47734H12.9529L11.7643 10.8138H4.3688ZM5.80355 13.5294C5.80355 13.7695 5.70818 13.9997 5.53842 14.1695C5.36866 14.3392 5.13842 14.4346 4.89834 14.4346C4.65827 14.4346 4.42803 14.3392 4.25827 14.1695C4.08851 13.9997 3.99314 13.7695 3.99314 13.5294C3.99314 13.2893 4.08851 13.0591 4.25827 12.8893C4.42803 12.7196 4.65827 12.6242 4.89834 12.6242C5.13842 12.6242 5.36866 12.7196 5.53842 12.8893C5.70818 13.0591 5.80355 13.2893 5.80355 13.5294ZM12.14 13.5294C12.14 13.7695 12.0446 13.9997 11.8749 14.1695C11.7051 14.3392 11.4749 14.4346 11.2348 14.4346C10.9947 14.4346 10.7645 14.3392 10.5947 14.1695C10.425 13.9997 10.3296 13.7695 10.3296 13.5294C10.3296 13.2893 10.425 13.0591 10.5947 12.8893C10.7645 12.7196 10.9947 12.6242 11.2348 12.6242C11.4749 12.6242 11.7051 12.7196 11.8749 12.8893C12.0446 13.0591 12.14 13.2893 12.14 13.5294Z" fill="#363330"/>
</svg>
