<svg width="33" height="33" viewBox="0 0 33 33" fill="none" xmlns="http://www.w3.org/2000/svg">
<path d="M32.7344 16.7676C32.7344 16.7676 26.7344 5.76758 16.7344 5.76758C6.73438 5.76758 0.734375 16.7676 0.734375 16.7676C0.734375 16.7676 6.73438 27.7676 16.7344 27.7676C26.7344 27.7676 32.7344 16.7676 32.7344 16.7676ZM3.08037 16.7676C4.0474 15.2978 5.15966 13.929 6.40037 12.6816C8.97437 10.1036 12.4944 7.76758 16.7344 7.76758C20.9744 7.76758 24.4924 10.1036 27.0704 12.6816C28.3111 13.929 29.4233 15.2978 30.3904 16.7676C30.2744 16.9416 30.1464 17.1336 30.0004 17.3436C29.3304 18.3036 28.3404 19.5836 27.0704 20.8536C24.4924 23.4316 20.9724 25.7676 16.7344 25.7676C12.4944 25.7676 8.97638 23.4316 6.39838 20.8536C5.15767 19.6062 4.04542 18.2373 3.07838 16.7676H3.08037Z" fill="#AC148E"/>
<path d="M16.7344 11.7676C15.4083 11.7676 14.1365 12.2944 13.1988 13.232C12.2612 14.1697 11.7344 15.4415 11.7344 16.7676C11.7344 18.0937 12.2612 19.3654 13.1988 20.3031C14.1365 21.2408 15.4083 21.7676 16.7344 21.7676C18.0605 21.7676 19.3322 21.2408 20.2699 20.3031C21.2076 19.3654 21.7344 18.0937 21.7344 16.7676C21.7344 15.4415 21.2076 14.1697 20.2699 13.232C19.3322 12.2944 18.0605 11.7676 16.7344 11.7676ZM9.73438 16.7676C9.73438 14.9111 10.4719 13.1306 11.7846 11.8178C13.0974 10.5051 14.8779 9.76758 16.7344 9.76758C18.5909 9.76758 20.3714 10.5051 21.6841 11.8178C22.9969 13.1306 23.7344 14.9111 23.7344 16.7676C23.7344 18.6241 22.9969 20.4046 21.6841 21.7173C20.3714 23.0301 18.5909 23.7676 16.7344 23.7676C14.8779 23.7676 13.0974 23.0301 11.7846 21.7173C10.4719 20.4046 9.73438 18.6241 9.73438 16.7676Z" fill="#AC148E"/>
</svg>
