<svg width="31" height="33" viewBox="0 0 31 33" fill="none" xmlns="http://www.w3.org/2000/svg">
<path d="M27.2751 29.0012C27.0387 28.2276 26.7164 27.368 26.3296 26.5085C25.9428 25.6489 25.4915 24.7679 24.9973 23.8868C24.9328 23.9943 24.8683 24.1232 24.7824 24.2307C24.7179 24.3381 24.632 24.467 24.5675 24.5745C24.4815 24.6819 24.4171 24.7894 24.3311 24.8968C24.2452 25.0043 24.1592 25.1117 24.0732 25.2191L24.0518 25.2406L24.0303 25.2621L24.0088 25.2836L23.9873 25.3051L23.9013 25.3911C23.9658 25.5845 24.0518 25.8208 24.1592 26.0787C24.2452 26.3366 24.3526 26.6159 24.4386 26.8738C24.5245 27.1317 24.589 27.3895 24.6105 27.5829C24.632 27.7763 24.632 27.9482 24.546 28.0127C24.5245 28.0342 24.503 28.0557 24.46 28.0772C24.4386 28.0987 24.3956 28.1201 24.3526 28.1201C24.3096 28.1416 24.2881 28.1416 24.2452 28.1416C24.2022 28.1416 24.1592 28.1416 24.1162 28.1416C24.0518 28.1416 23.9658 28.1201 23.8798 28.1201C23.7939 28.0987 23.7079 28.0772 23.622 28.0557C23.536 28.0342 23.4286 27.9912 23.3426 27.9482C23.2352 27.9053 23.1277 27.8623 23.0203 27.8193C22.8914 27.7548 22.7409 27.6904 22.5905 27.6044C22.4401 27.5185 22.2897 27.4325 22.1392 27.3465C21.9888 27.2606 21.8169 27.1746 21.6665 27.0672C21.4946 26.9597 21.3442 26.8738 21.1722 26.7663C21.8169 26.1217 22.4401 25.4125 22.9988 24.6819C23.5575 23.9298 24.0732 23.1562 24.5245 22.3396C24.9758 21.5231 25.3626 20.685 25.6849 19.8039C26.0072 18.9444 26.2651 18.0419 26.437 17.1393C26.8453 15.0979 26.8238 13.1854 26.437 11.4877C26.0717 9.81161 25.3626 8.32887 24.3741 7.14699C23.4071 5.9651 22.1822 5.06256 20.764 4.48236C19.3672 3.90216 17.7555 3.66578 16.0364 3.77323C14.8975 3.85918 13.7586 4.09556 12.6626 4.46087C11.5667 4.82618 10.5137 5.32043 9.50377 5.92212C8.49379 6.52381 7.52679 7.23294 6.64575 8.04952C5.74322 8.84461 4.92664 9.74714 4.17453 10.7141C3.98113 10.3488 3.80921 9.98352 3.68028 9.68267C3.55135 9.36034 3.4439 9.08099 3.40093 8.82312C3.33646 8.56525 3.31497 8.35036 3.33646 8.15696C3.35795 7.96356 3.42241 7.81314 3.50837 7.7057C3.52986 7.66272 3.57284 7.64123 3.6373 7.59825C3.68028 7.55527 3.74475 7.53378 3.80921 7.5123C3.87368 7.49081 3.95964 7.46932 4.04559 7.44783C4.13155 7.42634 4.2175 7.42634 4.30346 7.40485C4.4109 7.40485 4.51835 7.40485 4.62579 7.42634C4.73324 7.44783 4.84068 7.46932 4.96961 7.5123C5.07706 7.55527 5.20599 7.59825 5.31344 7.68421C5.42088 7.74867 5.54981 7.83463 5.65726 7.94207C5.7647 7.81314 5.89364 7.68421 6.00108 7.55527C6.13001 7.42634 6.23746 7.3189 6.36639 7.18996C6.49533 7.08252 6.62426 6.95358 6.75319 6.84614C6.88213 6.7387 7.03255 6.63125 7.18297 6.52381C7.20446 6.52381 7.20446 6.50232 7.22595 6.50232C7.24744 6.50232 7.24744 6.48083 7.26893 6.48083C7.29042 6.48083 7.29042 6.45934 7.3119 6.45934C7.33339 6.45934 7.33339 6.43785 7.35488 6.43785C7.09701 6.20147 6.81766 6.00807 6.5383 5.85765C6.25895 5.70723 5.9581 5.5783 5.65726 5.49234C5.35641 5.40639 5.05557 5.34192 4.75473 5.32043C4.45388 5.29894 4.17453 5.27745 3.89517 5.29894C3.70177 5.32043 3.52986 5.34192 3.35795 5.36341C3.18604 5.40638 3.03561 5.44936 2.88519 5.49234C2.73477 5.53532 2.60584 5.59978 2.49839 5.68574C2.39095 5.75021 2.2835 5.83616 2.21904 5.92212C1.98266 6.17998 1.85372 6.50232 1.78926 6.88912C1.72479 7.27592 1.74628 7.74867 1.85372 8.26441C1.96117 8.78014 2.13308 9.36034 2.36946 10.005C2.62733 10.6282 2.92817 11.3158 3.33646 12.0465C3.07859 12.4547 2.82073 12.863 2.58435 13.2928C2.34797 13.7226 2.13308 14.1524 1.93968 14.6036C1.74628 15.0549 1.55288 15.5062 1.40246 15.9789C1.23055 16.4517 1.10161 16.9244 0.97268 17.3972C0.499925 19.2237 0.349502 20.9858 0.499925 22.619C0.650347 24.2736 1.1231 25.7779 1.87521 27.0887C2.62733 28.421 3.68028 29.5169 4.96961 30.3335C6.28044 31.1501 7.84913 31.6658 9.6327 31.7733C10.1699 31.7947 10.6857 31.7947 11.2229 31.7518C11.7601 31.7088 12.2973 31.6443 12.8345 31.5369C13.3718 31.4294 13.909 31.279 14.4462 31.1071C14.9834 30.9352 15.4992 30.7203 16.0364 30.4839L14.7685 28.0987C14.4032 28.2491 14.0379 28.378 13.6511 28.4855C13.2858 28.5929 12.899 28.6789 12.5337 28.7433C12.1684 28.8078 11.7816 28.8508 11.4163 28.8937C11.051 28.9152 10.6642 28.9152 10.2989 28.9152C8.8591 28.8508 7.59126 28.464 6.5383 27.8193C5.48535 27.1746 4.62579 26.2936 4.00261 25.2406C3.37944 24.1877 2.99264 22.9628 2.84221 21.6305C2.69179 20.3197 2.79924 18.8799 3.18604 17.3972C3.57284 15.9145 4.19601 14.5177 4.9911 13.2283C5.78619 11.9605 6.77468 10.8001 7.87062 9.81161C8.96655 8.82312 10.1914 8.00654 11.4807 7.40485C12.7916 6.80316 14.1669 6.43785 15.5421 6.3519C16.9389 6.26594 18.2283 6.50232 19.3672 6.97507C20.5061 7.46932 21.4946 8.22143 22.2467 9.16694C23.0203 10.1339 23.579 11.3373 23.8584 12.6911C24.1377 14.0664 24.1377 15.5921 23.8154 17.2253C23.665 17.9344 23.4716 18.6435 23.2137 19.3312C22.9558 20.0188 22.655 20.685 22.2897 21.3297C21.9458 21.9743 21.5376 22.5975 21.0863 23.1777C20.6565 23.7579 20.1623 24.3166 19.668 24.8323C19.668 24.6604 19.6895 24.4885 19.6895 24.2951C19.6895 24.1232 19.711 23.9298 19.711 23.7794C19.711 23.6075 19.7325 23.4571 19.7325 23.3281C19.7325 23.1992 19.7325 23.0917 19.7325 23.0273C19.7325 22.9628 19.7325 22.8983 19.711 22.8554C19.6895 22.8124 19.6895 22.7694 19.668 22.7479C19.6465 22.7264 19.625 22.7049 19.6035 22.7049C19.5821 22.6835 19.5391 22.6835 19.5176 22.6835C19.4961 22.6835 19.4746 22.6835 19.4531 22.6835C19.4316 22.6835 19.4102 22.6835 19.3887 22.7049C19.3672 22.7049 19.3672 22.7264 19.3457 22.7264H19.3242L14.8975 24.1662C14.8975 24.1662 14.8545 24.1877 14.8115 24.2092C14.7685 24.2307 14.7041 24.2736 14.6611 24.3166C14.6181 24.3811 14.5751 24.4455 14.5537 24.5315C14.5537 24.6175 14.5751 24.7464 14.6396 24.8968C14.6396 24.8968 14.6396 24.9183 14.6611 24.9183C14.6611 24.9183 14.6611 24.9398 14.6826 24.9398C14.6826 24.9398 14.6826 24.9613 14.7041 24.9613C14.7041 24.9613 14.7041 24.9828 14.7256 24.9828C14.919 25.3911 15.1983 25.9283 15.5421 26.53C15.8645 27.1531 16.2298 27.8408 16.5951 28.5069C16.9604 29.1946 17.3257 29.8607 17.6481 30.4409C17.9704 31.0211 18.2283 31.5154 18.4002 31.8162C18.4217 31.8377 18.4217 31.8592 18.4431 31.9022C18.4646 31.9237 18.4646 31.9452 18.4861 31.9667C18.5076 31.9881 18.5076 32.0096 18.5076 32.0311C18.5076 32.0526 18.5291 32.0741 18.5291 32.0741C18.5721 32.1601 18.6151 32.2245 18.658 32.2675C18.701 32.332 18.744 32.3749 18.7655 32.3964C18.8085 32.4394 18.83 32.4609 18.8729 32.4824C18.9159 32.5039 18.9374 32.5039 18.9589 32.5039C19.0233 32.5039 19.0663 32.4824 19.1093 32.4609C19.1523 32.4394 19.1953 32.3749 19.2167 32.332C19.2382 32.289 19.2812 32.2245 19.3027 32.1815C19.3242 32.1386 19.3242 32.0741 19.3457 32.0311C19.3457 32.0096 19.3457 32.0096 19.3457 31.9881C19.3457 31.9667 19.3457 31.9452 19.3457 31.9022C19.3457 31.8807 19.3457 31.8377 19.3457 31.8162C19.3457 31.7733 19.3457 31.7518 19.3457 31.7088C19.3457 31.5584 19.3672 31.3865 19.3672 31.2145C19.3672 31.0426 19.3887 30.8492 19.3887 30.6773C19.3887 30.5054 19.4102 30.355 19.4102 30.2475C19.4102 30.1401 19.4316 30.0541 19.4316 30.0541C20.0333 30.4195 20.6565 30.7633 21.2367 31.1071C21.8384 31.4294 22.4186 31.7518 22.9988 32.0096C23.5575 32.2675 24.1162 32.5039 24.6105 32.6543C25.1047 32.8262 25.5775 32.9122 25.9643 32.9551C26.0287 32.9551 26.0717 32.9551 26.1362 32.9551C26.1792 32.9551 26.2436 32.9551 26.2866 32.9551C26.3296 32.9551 26.394 32.9551 26.437 32.9337C26.48 32.9337 26.523 32.9122 26.5874 32.9122C26.6519 32.8907 26.7164 32.8907 26.7808 32.8692C26.8453 32.8477 26.9098 32.8262 26.9742 32.7832C27.0387 32.7617 27.0817 32.7188 27.1462 32.6758C27.1891 32.6328 27.2536 32.5898 27.2966 32.5469C27.5759 32.246 27.7049 31.7733 27.7049 31.1716C27.7049 30.5914 27.5544 29.8822 27.3396 29.0871L27.2751 29.0012Z" fill="#929392"/>
<path d="M11.2659 13.8953C11.5882 13.8953 11.8246 13.9813 12.018 14.1532C12.2114 14.3251 12.2973 14.5615 12.2973 14.8838C12.2973 15.2062 12.1899 15.464 11.9965 15.6359C11.7816 15.8079 11.5237 15.9153 11.1799 15.9153C10.4063 15.9153 10.0195 15.5715 10.0195 14.9053H8.88062V14.9913C8.88062 15.6145 9.0955 16.0872 9.50379 16.4095C9.91208 16.7534 10.4708 16.9038 11.1799 16.9038C11.8246 16.9038 12.3618 16.7319 12.8131 16.3666C13.2643 16.0227 13.4792 15.507 13.4792 14.8838C13.4792 14.6689 13.4363 14.4541 13.3718 14.2607C13.3073 14.0673 13.2214 13.9168 13.1569 13.8094C13.0709 13.7019 12.985 13.5945 12.8775 13.53C12.7701 13.4441 12.6841 13.4011 12.6412 13.3796C12.5982 13.3581 12.5552 13.3366 12.5337 13.3366L12.6197 13.2937C12.6841 13.2722 12.7486 13.2077 12.8346 13.1217C12.9205 13.0358 13.0065 12.9498 13.0709 12.8424C13.1569 12.7349 13.2214 12.5845 13.2858 12.4126C13.3503 12.2407 13.3718 12.0473 13.3718 11.8539C13.3718 11.2737 13.1784 10.8224 12.7916 10.5001C12.4048 10.1778 11.8676 10.0059 11.2014 10.0059C10.5353 10.0059 10.0195 10.1563 9.61124 10.5001C9.20295 10.8224 9.00955 11.2737 9.00955 11.8539V11.9184H10.127C10.127 11.596 10.2344 11.3597 10.4063 11.2092C10.5997 11.0588 10.8576 10.9729 11.2014 10.9729C11.5452 10.9729 11.8246 11.0588 11.9965 11.2092C12.1684 11.3811 12.2759 11.596 12.2759 11.8754C12.2759 12.1762 12.1899 12.4341 11.9965 12.606C11.8031 12.7779 11.5667 12.8639 11.2659 12.8639H10.127V13.8524L11.3303 13.8739L11.2659 13.8953ZM18.8944 16.8178V15.7649H16.1439L17.734 14.1962C18.1638 13.7879 18.4647 13.4011 18.6366 13.0573C18.8085 12.7135 18.8944 12.3481 18.8944 11.9828C18.8944 11.3811 18.701 10.8869 18.3357 10.5646C17.9489 10.2207 17.4332 10.0488 16.7455 10.0488C16.0579 10.0488 15.5207 10.2207 15.1124 10.5646C14.7041 10.9084 14.5107 11.3811 14.5107 12.0043V12.0688H15.6496C15.6496 11.4026 15.9934 11.0588 16.7241 11.0588C17.4117 11.0588 17.7555 11.3811 17.7555 12.0258C17.7555 12.2837 17.6911 12.5201 17.5836 12.7564C17.4762 12.9928 17.2613 13.2507 16.9819 13.53L14.6611 15.7864V16.8393H18.9374L18.8944 16.8178Z" fill="#929392"/>
<path d="M10.3851 22.4698V17.4199H9.54707V21.2664L7.5486 17.4199H6.30225V22.4698H7.14031V18.6448L9.16027 22.4698H10.3851ZM12.1472 21.9971C12.1472 21.8681 12.1042 21.7822 12.0183 21.6962C11.9323 21.6317 11.8249 21.5888 11.6745 21.5888C11.5455 21.5888 11.4381 21.6317 11.3521 21.6962C11.2662 21.7607 11.2232 21.8681 11.2232 21.9971V22.1475C11.2232 22.2764 11.2662 22.3624 11.3521 22.4483C11.4381 22.5128 11.5455 22.5558 11.696 22.5558C11.8464 22.5558 11.9538 22.5128 12.0398 22.4483C12.1257 22.3839 12.1687 22.2764 12.1687 22.1475L12.1472 21.9971ZM15.9508 21.116H15.1557C15.1557 21.5888 14.8978 21.8251 14.4036 21.8251C13.9093 21.8251 13.6729 21.5673 13.6729 21.073V20.3209C13.6729 19.8052 13.9093 19.5688 14.4036 19.5688C14.8978 19.5688 15.1557 19.8052 15.1557 20.2779H15.9508V20.2135C15.9508 19.7837 15.8218 19.4399 15.5425 19.2035C15.2631 18.9671 14.8978 18.8382 14.425 18.8382C13.9523 18.8382 13.587 18.9671 13.3076 19.2035C13.0283 19.4614 12.8778 19.8052 12.8778 20.235V21.116C12.8778 21.5458 13.0283 21.8896 13.3076 22.1475C13.587 22.3839 13.9523 22.5128 14.425 22.5128C14.8978 22.5128 15.2846 22.4053 15.564 22.169C15.8433 21.9326 15.9937 21.5888 15.9937 21.159L15.9722 21.116H15.9508ZM21.6238 22.4698V19.9556C21.6238 19.6118 21.5379 19.3539 21.366 19.1605C21.194 18.9671 20.9362 18.8812 20.6353 18.8812C20.356 18.8812 20.0766 18.9671 19.8188 19.1175L19.432 19.3539C19.2815 19.0316 19.0022 18.8812 18.5939 18.8812C18.336 18.8812 18.0782 18.9456 17.8418 19.0961L17.5194 19.2895V18.9241H16.7029V22.4913H17.5194V20.0416L17.9492 19.7837C18.1211 19.6977 18.2716 19.6548 18.379 19.6548C18.6369 19.6548 18.7443 19.8052 18.7443 20.106V22.5128H19.5609V20.0631L19.9907 19.8052C20.1626 19.7192 20.313 19.6548 20.4204 19.6548C20.6783 19.6548 20.8072 19.8052 20.8072 20.0845V22.5128H21.6238V22.4698Z" fill="#929392"/>
<path d="M23.9014 12.9713C27.2967 12.9713 30.0688 10.2208 30.0688 6.80403C30.0688 3.3873 27.3182 0.636719 23.9014 0.636719C20.4847 0.636719 17.7341 3.3873 17.7341 6.80403C17.7341 10.1993 20.4847 12.9713 23.9014 12.9713Z" fill="#929392"/>
<path d="M23.9014 12.9713C27.2967 12.9713 30.0688 10.2208 30.0688 6.80403C30.0688 3.3873 27.3182 0.636719 23.9014 0.636719C20.4847 0.636719 17.7341 3.3873 17.7341 6.80403C17.7341 10.1993 20.4847 12.9713 23.9014 12.9713Z" stroke="white" stroke-width="0.623178"/>
<path d="M26.0932 10.3275V9.66139H24.5889V3.77344H23.8153C23.3426 4.20322 22.8913 4.50406 22.44 4.65448V5.36362C22.9343 5.27766 23.4071 5.01979 23.8368 4.59002V9.68288H21.9243V10.349H26.0932V10.3275Z" fill="#FEFEFE"/>
</svg>
