<svg width="17" height="17" viewBox="0 0 17 17" fill="none" xmlns="http://www.w3.org/2000/svg">
<path d="M8.24158 4.27734C8.37419 4.27734 8.50137 4.33002 8.59514 4.42379C8.68891 4.51757 8.74159 4.64475 8.74159 4.77736V7.77745H11.7417C11.8743 7.77745 12.0015 7.83013 12.0952 7.9239C12.189 8.01767 12.2417 8.14485 12.2417 8.27747C12.2417 8.41008 12.189 8.53726 12.0952 8.63103C12.0015 8.7248 11.8743 8.77748 11.7417 8.77748H8.74159V11.7776C8.74159 11.9102 8.68891 12.0374 8.59514 12.1311C8.50137 12.2249 8.37419 12.2776 8.24158 12.2776C8.10896 12.2776 7.98178 12.2249 7.88801 12.1311C7.79424 12.0374 7.74156 11.9102 7.74156 11.7776V8.77748H4.74147C4.60886 8.77748 4.48168 8.7248 4.38791 8.63103C4.29414 8.53726 4.24146 8.41008 4.24146 8.27747C4.24146 8.14485 4.29414 8.01767 4.38791 7.9239C4.48168 7.83013 4.60886 7.77745 4.74147 7.77745H7.74156V4.77736C7.74156 4.64475 7.79424 4.51757 7.88801 4.42379C7.98178 4.33002 8.10896 4.27734 8.24158 4.27734Z" fill="#CFCCC9"/>
</svg>
