<svg width="15" height="15" viewBox="0 0 15 15" fill="none" xmlns="http://www.w3.org/2000/svg">
<path d="M8.52436 5.49752C8.52436 5.37749 8.47667 5.26237 8.39179 5.17749C8.30691 5.09261 8.19179 5.04492 8.07175 5.04492C7.95172 5.04492 7.83659 5.09261 7.75171 5.17749C7.66684 5.26237 7.61915 5.37749 7.61915 5.49752V6.85533H6.26134C6.1413 6.85533 6.02618 6.90302 5.9413 6.9879C5.85642 7.07278 5.80874 7.1879 5.80874 7.30794C5.80874 7.42797 5.85642 7.5431 5.9413 7.62798C6.02618 7.71286 6.1413 7.76054 6.26134 7.76054H7.61915V9.11835C7.61915 9.23839 7.66684 9.35351 7.75171 9.43839C7.83659 9.52327 7.95172 9.57095 8.07175 9.57095C8.19179 9.57095 8.30691 9.52327 8.39179 9.43839C8.47667 9.35351 8.52436 9.23839 8.52436 9.11835V7.76054H9.88217C10.0022 7.76054 10.1173 7.71286 10.2022 7.62798C10.2871 7.5431 10.3348 7.42797 10.3348 7.30794C10.3348 7.1879 10.2871 7.07278 10.2022 6.9879C10.1173 6.90302 10.0022 6.85533 9.88217 6.85533H8.52436V5.49752Z" fill="#363330"/>
<path d="M0.830105 1.42383C0.710068 1.42383 0.594946 1.47151 0.510067 1.55639C0.425187 1.64127 0.377502 1.75639 0.377502 1.87643C0.377502 1.99647 0.425187 2.11159 0.510067 2.19647C0.594946 2.28135 0.710068 2.32903 0.830105 2.32903H1.83488L2.19787 3.7837L3.55387 11.0118C3.57329 11.1155 3.62833 11.2092 3.70948 11.2766C3.79064 11.344 3.89281 11.381 3.99833 11.3811H4.90353C4.42338 11.3811 3.9629 11.5718 3.62338 11.9114C3.28386 12.2509 3.09312 12.7114 3.09312 13.1915C3.09312 13.6717 3.28386 14.1321 3.62338 14.4717C3.9629 14.8112 4.42338 15.0019 4.90353 15.0019C5.38368 15.0019 5.84417 14.8112 6.18369 14.4717C6.52321 14.1321 6.71394 13.6717 6.71394 13.1915C6.71394 12.7114 6.52321 12.2509 6.18369 11.9114C5.84417 11.5718 5.38368 11.3811 4.90353 11.3811H11.24C10.7598 11.3811 10.2993 11.5718 9.95982 11.9114C9.6203 12.2509 9.42956 12.7114 9.42956 13.1915C9.42956 13.6717 9.6203 14.1321 9.95982 14.4717C10.2993 14.8112 10.7598 15.0019 11.24 15.0019C11.7201 15.0019 12.1806 14.8112 12.5201 14.4717C12.8596 14.1321 13.0504 13.6717 13.0504 13.1915C13.0504 12.7114 12.8596 12.2509 12.5201 11.9114C12.1806 11.5718 11.7201 11.3811 11.24 11.3811H12.1452C12.2507 11.381 12.3529 11.344 12.434 11.2766C12.5152 11.2092 12.5702 11.1155 12.5896 11.0118L13.9474 3.77012C13.9597 3.7048 13.9574 3.63759 13.9407 3.57326C13.924 3.50893 13.8934 3.44906 13.8509 3.3979C13.8085 3.34675 13.7553 3.30557 13.6952 3.27728C13.6351 3.249 13.5694 3.2343 13.503 3.23424H2.99355L2.62694 1.7669C2.60251 1.66894 2.54603 1.58197 2.46647 1.5198C2.38692 1.45764 2.28887 1.42386 2.18791 1.42383H0.830105ZM4.37399 10.4759L3.18545 4.13945H12.9581L11.7695 10.4759H4.37399ZM5.80874 13.1915C5.80874 13.4316 5.71337 13.6618 5.54361 13.8316C5.37385 14.0013 5.14361 14.0967 4.90353 14.0967C4.66346 14.0967 4.43321 14.0013 4.26346 13.8316C4.0937 13.6618 3.99833 13.4316 3.99833 13.1915C3.99833 12.9514 4.0937 12.7212 4.26346 12.5514C4.43321 12.3817 4.66346 12.2863 4.90353 12.2863C5.14361 12.2863 5.37385 12.3817 5.54361 12.5514C5.71337 12.7212 5.80874 12.9514 5.80874 13.1915ZM12.1452 13.1915C12.1452 13.4316 12.0498 13.6618 11.8801 13.8316C11.7103 14.0013 11.4801 14.0967 11.24 14.0967C10.9999 14.0967 10.7697 14.0013 10.5999 13.8316C10.4301 13.6618 10.3348 13.4316 10.3348 13.1915C10.3348 12.9514 10.4301 12.7212 10.5999 12.5514C10.7697 12.3817 10.9999 12.2863 11.24 12.2863C11.4801 12.2863 11.7103 12.3817 11.8801 12.5514C12.0498 12.7212 12.1452 12.9514 12.1452 13.1915Z" fill="#363330"/>
</svg>
