<svg width="15" height="15" viewBox="0 0 15 15" fill="none" xmlns="http://www.w3.org/2000/svg">
<path d="M8.51918 5.00338C8.51918 4.88335 8.47149 4.76823 8.38661 4.68335C8.30173 4.59847 8.18661 4.55078 8.06657 4.55078C7.94654 4.55078 7.83141 4.59847 7.74653 4.68335C7.66165 4.76823 7.61397 4.88335 7.61397 5.00338V6.36119H6.25616C6.13612 6.36119 6.021 6.40888 5.93612 6.49376C5.85124 6.57864 5.80356 6.69376 5.80356 6.8138C5.80356 6.93383 5.85124 7.04896 5.93612 7.13383C6.021 7.21871 6.13612 7.2664 6.25616 7.2664H7.61397V8.62421C7.61397 8.74425 7.66165 8.85937 7.74653 8.94425C7.83141 9.02913 7.94654 9.07681 8.06657 9.07681C8.18661 9.07681 8.30173 9.02913 8.38661 8.94425C8.47149 8.85937 8.51918 8.74425 8.51918 8.62421V7.2664H9.87699C9.99702 7.2664 10.1121 7.21871 10.197 7.13383C10.2819 7.04896 10.3296 6.93383 10.3296 6.8138C10.3296 6.69376 10.2819 6.57864 10.197 6.49376C10.1121 6.40888 9.99702 6.36119 9.87699 6.36119H8.51918V5.00338Z" fill="#363330"/>
<path d="M0.824917 0.929688C0.70488 0.929688 0.589758 0.977372 0.504879 1.06225C0.419999 1.14713 0.372314 1.26225 0.372314 1.38229C0.372314 1.50233 0.419999 1.61745 0.504879 1.70233C0.589758 1.78721 0.70488 1.83489 0.824917 1.83489H1.8297L2.19268 3.28956L3.54868 10.5176C3.5681 10.6213 3.62314 10.715 3.7043 10.7825C3.78545 10.8499 3.88762 10.8869 3.99314 10.887H4.89834C4.41819 10.887 3.95771 11.0777 3.61819 11.4172C3.27867 11.7567 3.08793 12.2172 3.08793 12.6974C3.08793 13.1775 3.27867 13.638 3.61819 13.9775C3.95771 14.317 4.41819 14.5078 4.89834 14.5078C5.3785 14.5078 5.83898 14.317 6.1785 13.9775C6.51802 13.638 6.70876 13.1775 6.70876 12.6974C6.70876 12.2172 6.51802 11.7567 6.1785 11.4172C5.83898 11.0777 5.3785 10.887 4.89834 10.887H11.2348C10.7546 10.887 10.2942 11.0777 9.95463 11.4172C9.61511 11.7567 9.42437 12.2172 9.42437 12.6974C9.42437 13.1775 9.61511 13.638 9.95463 13.9775C10.2942 14.317 10.7546 14.5078 11.2348 14.5078C11.7149 14.5078 12.1754 14.317 12.5149 13.9775C12.8545 13.638 13.0452 13.1775 13.0452 12.6974C13.0452 12.2172 12.8545 11.7567 12.5149 11.4172C12.1754 11.0777 11.7149 10.887 11.2348 10.887H12.14C12.2455 10.8869 12.3477 10.8499 12.4288 10.7825C12.51 10.715 12.565 10.6213 12.5844 10.5176L13.9423 3.27598C13.9545 3.21066 13.9522 3.14345 13.9355 3.07912C13.9188 3.01479 13.8882 2.95492 13.8458 2.90376C13.8033 2.85261 13.7502 2.81143 13.69 2.78314C13.6299 2.75486 13.5643 2.74016 13.4978 2.7401H2.98836L2.62175 1.27276C2.59732 1.1748 2.54084 1.08783 2.46129 1.02566C2.38174 0.963498 2.28369 0.929715 2.18273 0.929688H0.824917ZM4.3688 9.98175L3.18026 3.64531H12.9529L11.7643 9.98175H4.3688ZM5.80355 12.6974C5.80355 12.9374 5.70818 13.1677 5.53842 13.3374C5.36866 13.5072 5.13842 13.6026 4.89834 13.6026C4.65827 13.6026 4.42803 13.5072 4.25827 13.3374C4.08851 13.1677 3.99314 12.9374 3.99314 12.6974C3.99314 12.4573 4.08851 12.227 4.25827 12.0573C4.42803 11.8875 4.65827 11.7922 4.89834 11.7922C5.13842 11.7922 5.36866 11.8875 5.53842 12.0573C5.70818 12.227 5.80355 12.4573 5.80355 12.6974ZM12.14 12.6974C12.14 12.9374 12.0446 13.1677 11.8749 13.3374C11.7051 13.5072 11.4749 13.6026 11.2348 13.6026C10.9947 13.6026 10.7645 13.5072 10.5947 13.3374C10.425 13.1677 10.3296 12.9374 10.3296 12.6974C10.3296 12.4573 10.425 12.227 10.5947 12.0573C10.7645 11.8875 10.9947 11.7922 11.2348 11.7922C11.4749 11.7922 11.7051 11.8875 11.8749 12.0573C12.0446 12.227 12.14 12.4573 12.14 12.6974Z" fill="#363330"/>
</svg>
