<svg width="15" height="16" viewBox="0 0 15 16" fill="none" xmlns="http://www.w3.org/2000/svg">
<path d="M8.6717 5.63229C8.6717 5.51225 8.62402 5.39713 8.53914 5.31225C8.45426 5.22737 8.33914 5.17969 8.2191 5.17969C8.09906 5.17969 7.98394 5.22737 7.89906 5.31225C7.81418 5.39713 7.7665 5.51225 7.7665 5.63229V6.9901H6.40869C6.28865 6.9901 6.17353 7.03778 6.08865 7.12266C6.00377 7.20754 5.95609 7.32266 5.95609 7.4427C5.95609 7.56274 6.00377 7.67786 6.08865 7.76274C6.17353 7.84762 6.28865 7.89531 6.40869 7.89531H7.7665V9.25311C7.7665 9.37315 7.81418 9.48827 7.89906 9.57315C7.98394 9.65803 8.09906 9.70572 8.2191 9.70572C8.33914 9.70572 8.45426 9.65803 8.53914 9.57315C8.62402 9.48827 8.6717 9.37315 8.6717 9.25311V7.89531H10.0295C10.1495 7.89531 10.2647 7.84762 10.3496 7.76274C10.4344 7.67786 10.4821 7.56274 10.4821 7.4427C10.4821 7.32266 10.4344 7.20754 10.3496 7.12266C10.2647 7.03778 10.1495 6.9901 10.0295 6.9901H8.6717V5.63229Z" fill="#363330"/>
<path d="M0.97746 1.55859C0.857422 1.55859 0.7423 1.60628 0.657421 1.69116C0.572541 1.77604 0.524857 1.89116 0.524857 2.0112C0.524857 2.13123 0.572541 2.24636 0.657421 2.33124C0.7423 2.41611 0.857422 2.4638 0.97746 2.4638H1.98224L2.34523 3.91847L3.70122 11.1465C3.72064 11.2503 3.77568 11.3439 3.85684 11.4114C3.93799 11.4788 4.04016 11.5158 4.14568 11.5159H5.05089C4.57074 11.5159 4.11025 11.7066 3.77073 12.0461C3.43121 12.3856 3.24047 12.8461 3.24047 13.3263C3.24047 13.8064 3.43121 14.2669 3.77073 14.6064C4.11025 14.9459 4.57074 15.1367 5.05089 15.1367C5.53104 15.1367 5.99152 14.9459 6.33104 14.6064C6.67056 14.2669 6.8613 13.8064 6.8613 13.3263C6.8613 12.8461 6.67056 12.3856 6.33104 12.0461C5.99152 11.7066 5.53104 11.5159 5.05089 11.5159H11.3873C10.9072 11.5159 10.4467 11.7066 10.1072 12.0461C9.76766 12.3856 9.57692 12.8461 9.57692 13.3263C9.57692 13.8064 9.76766 14.2669 10.1072 14.6064C10.4467 14.9459 10.9072 15.1367 11.3873 15.1367C11.8675 15.1367 12.328 14.9459 12.6675 14.6064C13.007 14.2669 13.1977 13.8064 13.1977 13.3263C13.1977 12.8461 13.007 12.3856 12.6675 12.0461C12.328 11.7066 11.8675 11.5159 11.3873 11.5159H12.2925C12.3981 11.5158 12.5002 11.4788 12.5814 11.4114C12.6625 11.3439 12.7176 11.2503 12.737 11.1465L14.0948 3.90489C14.107 3.83957 14.1047 3.77235 14.088 3.70802C14.0714 3.64369 14.0407 3.58382 13.9983 3.53267C13.9559 3.48152 13.9027 3.44034 13.8426 3.41205C13.7824 3.38376 13.7168 3.36907 13.6503 3.36901H3.1409L2.77429 1.90167C2.74986 1.80371 2.69338 1.71673 2.61383 1.65457C2.53428 1.5924 2.43623 1.55862 2.33527 1.55859H0.97746ZM4.52134 10.6107L3.33281 4.27421H13.1054L11.9169 10.6107H4.52134ZM5.95609 13.3263C5.95609 13.5663 5.86072 13.7966 5.69096 13.9663C5.5212 14.1361 5.29096 14.2315 5.05089 14.2315C4.81081 14.2315 4.58057 14.1361 4.41081 13.9663C4.24105 13.7966 4.14568 13.5663 4.14568 13.3263C4.14568 13.0862 4.24105 12.856 4.41081 12.6862C4.58057 12.5164 4.81081 12.4211 5.05089 12.4211C5.29096 12.4211 5.5212 12.5164 5.69096 12.6862C5.86072 12.856 5.95609 13.0862 5.95609 13.3263ZM12.2925 13.3263C12.2925 13.5663 12.1972 13.7966 12.0274 13.9663C11.8576 14.1361 11.6274 14.2315 11.3873 14.2315C11.1473 14.2315 10.917 14.1361 10.7473 13.9663C10.5775 13.7966 10.4821 13.5663 10.4821 13.3263C10.4821 13.0862 10.5775 12.856 10.7473 12.6862C10.917 12.5164 11.1473 12.4211 11.3873 12.4211C11.6274 12.4211 11.8576 12.5164 12.0274 12.6862C12.1972 12.856 12.2925 13.0862 12.2925 13.3263Z" fill="#363330"/>
</svg>
