<svg width="16" height="15" viewBox="0 0 16 15" fill="none" xmlns="http://www.w3.org/2000/svg">
<path d="M9.01917 5.00338C9.01917 4.88335 8.97148 4.76823 8.8866 4.68335C8.80173 4.59847 8.6866 4.55078 8.56657 4.55078C8.44653 4.55078 8.33141 4.59847 8.24653 4.68335C8.16165 4.76823 8.11396 4.88335 8.11396 5.00338V6.36119H6.75615C6.63612 6.36119 6.52099 6.40888 6.43612 6.49376C6.35124 6.57864 6.30355 6.69376 6.30355 6.8138C6.30355 6.93383 6.35124 7.04896 6.43612 7.13383C6.52099 7.21871 6.63612 7.2664 6.75615 7.2664H8.11396V8.62421C8.11396 8.74425 8.16165 8.85937 8.24653 8.94425C8.33141 9.02913 8.44653 9.07681 8.56657 9.07681C8.6866 9.07681 8.80173 9.02913 8.8866 8.94425C8.97148 8.85937 9.01917 8.74425 9.01917 8.62421V7.2664H10.377C10.497 7.2664 10.6121 7.21871 10.697 7.13383C10.7819 7.04896 10.8296 6.93383 10.8296 6.8138C10.8296 6.69376 10.7819 6.57864 10.697 6.49376C10.6121 6.40888 10.497 6.36119 10.377 6.36119H9.01917V5.00338Z" fill="#363330"/>
<path d="M1.32492 0.929688C1.20488 0.929688 1.08976 0.977372 1.00488 1.06225C0.919999 1.14713 0.872314 1.26225 0.872314 1.38229C0.872314 1.50233 0.919999 1.61745 1.00488 1.70233C1.08976 1.78721 1.20488 1.83489 1.32492 1.83489H2.3297L2.69268 3.28956L4.04868 10.5176C4.0681 10.6213 4.12314 10.715 4.2043 10.7825C4.28545 10.8499 4.38762 10.8869 4.49314 10.887H5.39834C4.91819 10.887 4.45771 11.0777 4.11819 11.4172C3.77867 11.7567 3.58793 12.2172 3.58793 12.6974C3.58793 13.1775 3.77867 13.638 4.11819 13.9775C4.45771 14.317 4.91819 14.5078 5.39834 14.5078C5.8785 14.5078 6.33898 14.317 6.6785 13.9775C7.01802 13.638 7.20876 13.1775 7.20876 12.6974C7.20876 12.2172 7.01802 11.7567 6.6785 11.4172C6.33898 11.0777 5.8785 10.887 5.39834 10.887H11.7348C11.2546 10.887 10.7942 11.0777 10.4546 11.4172C10.1151 11.7567 9.92437 12.2172 9.92437 12.6974C9.92437 13.1775 10.1151 13.638 10.4546 13.9775C10.7942 14.317 11.2546 14.5078 11.7348 14.5078C12.2149 14.5078 12.6754 14.317 13.0149 13.9775C13.3545 13.638 13.5452 13.1775 13.5452 12.6974C13.5452 12.2172 13.3545 11.7567 13.0149 11.4172C12.6754 11.0777 12.2149 10.887 11.7348 10.887H12.64C12.7455 10.8869 12.8477 10.8499 12.9288 10.7825C13.01 10.715 13.065 10.6213 13.0844 10.5176L14.4423 3.27598C14.4545 3.21066 14.4522 3.14345 14.4355 3.07912C14.4188 3.01479 14.3882 2.95492 14.3458 2.90376C14.3033 2.85261 14.2502 2.81143 14.19 2.78314C14.1299 2.75486 14.0643 2.74016 13.9978 2.7401H3.48836L3.12175 1.27276C3.09732 1.1748 3.04084 1.08783 2.96129 1.02566C2.88174 0.963498 2.78369 0.929715 2.68273 0.929688H1.32492ZM4.8688 9.98175L3.68026 3.64531H13.4529L12.2643 9.98175H4.8688ZM6.30355 12.6974C6.30355 12.9374 6.20818 13.1677 6.03842 13.3374C5.86866 13.5072 5.63842 13.6026 5.39834 13.6026C5.15827 13.6026 4.92803 13.5072 4.75827 13.3374C4.58851 13.1677 4.49314 12.9374 4.49314 12.6974C4.49314 12.4573 4.58851 12.227 4.75827 12.0573C4.92803 11.8875 5.15827 11.7922 5.39834 11.7922C5.63842 11.7922 5.86866 11.8875 6.03842 12.0573C6.20818 12.227 6.30355 12.4573 6.30355 12.6974ZM12.64 12.6974C12.64 12.9374 12.5446 13.1677 12.3749 13.3374C12.2051 13.5072 11.9749 13.6026 11.7348 13.6026C11.4947 13.6026 11.2645 13.5072 11.0947 13.3374C10.925 13.1677 10.8296 12.9374 10.8296 12.6974C10.8296 12.4573 10.925 12.227 11.0947 12.0573C11.2645 11.8875 11.4947 11.7922 11.7348 11.7922C11.9749 11.7922 12.2051 11.8875 12.3749 12.0573C12.5446 12.227 12.64 12.4573 12.64 12.6974Z" fill="#363330"/>
</svg>
