<svg width="15" height="16" viewBox="0 0 15 16" fill="none" xmlns="http://www.w3.org/2000/svg">
<path d="M8.58573 5.63229C8.58573 5.51225 8.53804 5.39713 8.45316 5.31225C8.36828 5.22737 8.25316 5.17969 8.13312 5.17969C8.01309 5.17969 7.89797 5.22737 7.81309 5.31225C7.72821 5.39713 7.68052 5.51225 7.68052 5.63229V6.9901H6.32271C6.20267 6.9901 6.08755 7.03778 6.00267 7.12266C5.91779 7.20754 5.87011 7.32266 5.87011 7.4427C5.87011 7.56274 5.91779 7.67786 6.00267 7.76274C6.08755 7.84762 6.20267 7.89531 6.32271 7.89531H7.68052V9.25311C7.68052 9.37315 7.72821 9.48827 7.81309 9.57315C7.89797 9.65803 8.01309 9.70572 8.13312 9.70572C8.25316 9.70572 8.36828 9.65803 8.45316 9.57315C8.53804 9.48827 8.58573 9.37315 8.58573 9.25311V7.89531H9.94354C10.0636 7.89531 10.1787 7.84762 10.2636 7.76274C10.3485 7.67786 10.3961 7.56274 10.3961 7.4427C10.3961 7.32266 10.3485 7.20754 10.2636 7.12266C10.1787 7.03778 10.0636 6.9901 9.94354 6.9901H8.58573V5.63229Z" fill="#363330"/>
<path d="M0.891476 1.55859C0.771439 1.55859 0.656317 1.60628 0.571438 1.69116C0.486558 1.77604 0.438873 1.89116 0.438873 2.0112C0.438873 2.13123 0.486558 2.24636 0.571438 2.33124C0.656317 2.41611 0.771439 2.4638 0.891476 2.4638H1.89626L2.25924 3.91847L3.61524 11.1465C3.63466 11.2503 3.6897 11.3439 3.77086 11.4114C3.85201 11.4788 3.95418 11.5158 4.0597 11.5159H4.9649C4.48475 11.5159 4.02427 11.7066 3.68475 12.0461C3.34523 12.3856 3.15449 12.8461 3.15449 13.3263C3.15449 13.8064 3.34523 14.2669 3.68475 14.6064C4.02427 14.9459 4.48475 15.1367 4.9649 15.1367C5.44505 15.1367 5.90554 14.9459 6.24506 14.6064C6.58458 14.2669 6.77532 13.8064 6.77532 13.3263C6.77532 12.8461 6.58458 12.3856 6.24506 12.0461C5.90554 11.7066 5.44505 11.5159 4.9649 11.5159H11.3013C10.8212 11.5159 10.3607 11.7066 10.0212 12.0461C9.68167 12.3856 9.49093 12.8461 9.49093 13.3263C9.49093 13.8064 9.68167 14.2669 10.0212 14.6064C10.3607 14.9459 10.8212 15.1367 11.3013 15.1367C11.7815 15.1367 12.242 14.9459 12.5815 14.6064C12.921 14.2669 13.1118 13.8064 13.1118 13.3263C13.1118 12.8461 12.921 12.3856 12.5815 12.0461C12.242 11.7066 11.7815 11.5159 11.3013 11.5159H12.2066C12.3121 11.5158 12.4142 11.4788 12.4954 11.4114C12.5765 11.3439 12.6316 11.2503 12.651 11.1465L14.0088 3.90489C14.021 3.83957 14.0187 3.77235 14.0021 3.70802C13.9854 3.64369 13.9547 3.58382 13.9123 3.53267C13.8699 3.48152 13.8167 3.44034 13.7566 3.41205C13.6964 3.38376 13.6308 3.36907 13.5644 3.36901H3.05492L2.68831 1.90167C2.66388 1.80371 2.6074 1.71673 2.52785 1.65457C2.44829 1.5924 2.35024 1.55862 2.24929 1.55859H0.891476ZM4.43536 10.6107L3.24682 4.27421H13.0194L11.8309 10.6107H4.43536ZM5.87011 13.3263C5.87011 13.5663 5.77474 13.7966 5.60498 13.9663C5.43522 14.1361 5.20498 14.2315 4.9649 14.2315C4.72483 14.2315 4.49459 14.1361 4.32483 13.9663C4.15507 13.7966 4.0597 13.5663 4.0597 13.3263C4.0597 13.0862 4.15507 12.856 4.32483 12.6862C4.49459 12.5164 4.72483 12.4211 4.9649 12.4211C5.20498 12.4211 5.43522 12.5164 5.60498 12.6862C5.77474 12.856 5.87011 13.0862 5.87011 13.3263ZM12.2066 13.3263C12.2066 13.5663 12.1112 13.7966 11.9414 13.9663C11.7717 14.1361 11.5414 14.2315 11.3013 14.2315C11.0613 14.2315 10.831 14.1361 10.6613 13.9663C10.4915 13.7966 10.3961 13.5663 10.3961 13.3263C10.3961 13.0862 10.4915 12.856 10.6613 12.6862C10.831 12.5164 11.0613 12.4211 11.3013 12.4211C11.5414 12.4211 11.7717 12.5164 11.9414 12.6862C12.1112 12.856 12.2066 13.0862 12.2066 13.3263Z" fill="#363330"/>
</svg>
