<svg width="16" height="16" viewBox="0 0 16 16" fill="none" xmlns="http://www.w3.org/2000/svg">
<path d="M8.72255 5.63229C8.72255 5.51225 8.67486 5.39713 8.58998 5.31225C8.5051 5.22737 8.38998 5.17969 8.26994 5.17969C8.1499 5.17969 8.03478 5.22737 7.9499 5.31225C7.86502 5.39713 7.81734 5.51225 7.81734 5.63229V6.9901H6.45953C6.33949 6.9901 6.22437 7.03778 6.13949 7.12266C6.05461 7.20754 6.00693 7.32266 6.00693 7.4427C6.00693 7.56274 6.05461 7.67786 6.13949 7.76274C6.22437 7.84762 6.33949 7.89531 6.45953 7.89531H7.81734V9.25311C7.81734 9.37315 7.86502 9.48827 7.9499 9.57315C8.03478 9.65803 8.1499 9.70572 8.26994 9.70572C8.38998 9.70572 8.5051 9.65803 8.58998 9.57315C8.67486 9.48827 8.72255 9.37315 8.72255 9.25311V7.89531H10.0804C10.2004 7.89531 10.3155 7.84762 10.4004 7.76274C10.4853 7.67786 10.533 7.56274 10.533 7.4427C10.533 7.32266 10.4853 7.20754 10.4004 7.12266C10.3155 7.03778 10.2004 6.9901 10.0804 6.9901H8.72255V5.63229Z" fill="#363330"/>
<path d="M1.02829 1.55859C0.908249 1.55859 0.793127 1.60628 0.708248 1.69116C0.623368 1.77604 0.575684 1.89116 0.575684 2.0112C0.575684 2.13123 0.623368 2.24636 0.708248 2.33124C0.793127 2.41611 0.908249 2.4638 1.02829 2.4638H2.03307L2.39605 3.91847L3.75205 11.1465C3.77147 11.2503 3.82651 11.3439 3.90767 11.4114C3.98882 11.4788 4.09099 11.5158 4.19651 11.5159H5.10171C4.62156 11.5159 4.16108 11.7066 3.82156 12.0461C3.48204 12.3856 3.2913 12.8461 3.2913 13.3263C3.2913 13.8064 3.48204 14.2669 3.82156 14.6064C4.16108 14.9459 4.62156 15.1367 5.10171 15.1367C5.58186 15.1367 6.04235 14.9459 6.38187 14.6064C6.72139 14.2669 6.91213 13.8064 6.91213 13.3263C6.91213 12.8461 6.72139 12.3856 6.38187 12.0461C6.04235 11.7066 5.58186 11.5159 5.10171 11.5159H11.4382C10.958 11.5159 10.4975 11.7066 10.158 12.0461C9.81848 12.3856 9.62774 12.8461 9.62774 13.3263C9.62774 13.8064 9.81848 14.2669 10.158 14.6064C10.4975 14.9459 10.958 15.1367 11.4382 15.1367C11.9183 15.1367 12.3788 14.9459 12.7183 14.6064C13.0578 14.2669 13.2486 13.8064 13.2486 13.3263C13.2486 12.8461 13.0578 12.3856 12.7183 12.0461C12.3788 11.7066 11.9183 11.5159 11.4382 11.5159H12.3434C12.4489 11.5158 12.551 11.4788 12.6322 11.4114C12.7134 11.3439 12.7684 11.2503 12.7878 11.1465L14.1456 3.90489C14.1579 3.83957 14.1555 3.77235 14.1389 3.70802C14.1222 3.64369 14.0916 3.58382 14.0491 3.53267C14.0067 3.48152 13.9535 3.44034 13.8934 3.41205C13.8333 3.38376 13.7676 3.36907 13.7012 3.36901H3.19173L2.82512 1.90167C2.80069 1.80371 2.74421 1.71673 2.66466 1.65457C2.58511 1.5924 2.48705 1.55862 2.3861 1.55859H1.02829ZM4.57217 10.6107L3.38363 4.27421H13.1562L11.9677 10.6107H4.57217ZM6.00692 13.3263C6.00692 13.5663 5.91155 13.7966 5.74179 13.9663C5.57203 14.1361 5.34179 14.2315 5.10171 14.2315C4.86164 14.2315 4.6314 14.1361 4.46164 13.9663C4.29188 13.7966 4.19651 13.5663 4.19651 13.3263C4.19651 13.0862 4.29188 12.856 4.46164 12.6862C4.6314 12.5164 4.86164 12.4211 5.10171 12.4211C5.34179 12.4211 5.57203 12.5164 5.74179 12.6862C5.91155 12.856 6.00692 13.0862 6.00692 13.3263ZM12.3434 13.3263C12.3434 13.5663 12.248 13.7966 12.0782 13.9663C11.9085 14.1361 11.6782 14.2315 11.4382 14.2315C11.1981 14.2315 10.9678 14.1361 10.7981 13.9663C10.6283 13.7966 10.5329 13.5663 10.5329 13.3263C10.5329 13.0862 10.6283 12.856 10.7981 12.6862C10.9678 12.5164 11.1981 12.4211 11.4382 12.4211C11.6782 12.4211 11.9085 12.5164 12.0782 12.6862C12.248 12.856 12.3434 13.0862 12.3434 13.3263Z" fill="#363330"/>
</svg>
