<svg width="13" height="13" viewBox="0 0 13 13" fill="none" xmlns="http://www.w3.org/2000/svg">
<path d="M6.418 0.763672C6.61154 0.763672 6.79715 0.840555 6.934 0.977407C7.07085 1.11426 7.14774 1.29987 7.14774 1.49341V5.87183H11.5262C11.7197 5.87183 11.9053 5.94871 12.0422 6.08556C12.179 6.22241 12.2559 6.40802 12.2559 6.60156C12.2559 6.7951 12.179 6.98071 12.0422 7.11756C11.9053 7.25442 11.7197 7.3313 11.5262 7.3313H7.14774V11.7097C7.14774 11.9033 7.07085 12.0889 6.934 12.2257C6.79715 12.3626 6.61154 12.4395 6.418 12.4395C6.22446 12.4395 6.03885 12.3626 5.902 12.2257C5.76515 12.0889 5.68826 11.9033 5.68826 11.7097V7.3313H1.30984C1.11631 7.3313 0.930696 7.25442 0.793843 7.11756C0.656991 6.98071 0.580109 6.7951 0.580109 6.60156C0.580109 6.40802 0.656991 6.22241 0.793843 6.08556C0.930696 5.94871 1.11631 5.87183 1.30984 5.87183H5.68826V1.49341C5.68826 1.29987 5.76515 1.11426 5.902 0.977407C6.03885 0.840555 6.22446 0.763672 6.418 0.763672V0.763672Z" fill="#363330"/>
</svg>
