<svg width="13" height="13" viewBox="0 0 13 13" fill="none" xmlns="http://www.w3.org/2000/svg">
<path d="M6.45898 0.964844C6.65252 0.964844 6.83813 1.04173 6.97499 1.17858C7.11184 1.31543 7.18872 1.50104 7.18872 1.69458V6.073H11.5671C11.7607 6.073 11.9463 6.14988 12.0831 6.28673C12.22 6.42358 12.2969 6.6092 12.2969 6.80273C12.2969 6.99627 12.22 7.18188 12.0831 7.31874C11.9463 7.45559 11.7607 7.53247 11.5671 7.53247H7.18872V11.9109C7.18872 12.1044 7.11184 12.29 6.97499 12.4269C6.83813 12.5637 6.65252 12.6406 6.45898 12.6406C6.26545 12.6406 6.07983 12.5637 5.94298 12.4269C5.80613 12.29 5.72925 12.1044 5.72925 11.9109V7.53247H1.35083C1.15729 7.53247 0.971681 7.45559 0.834829 7.31874C0.697976 7.18188 0.621094 6.99627 0.621094 6.80273C0.621094 6.6092 0.697976 6.42358 0.834829 6.28673C0.971681 6.14988 1.15729 6.073 1.35083 6.073H5.72925V1.69458C5.72925 1.50104 5.80613 1.31543 5.94298 1.17858C6.07983 1.04173 6.26545 0.964844 6.45898 0.964844V0.964844Z" fill="#363330"/>
</svg>
