<svg width="13" height="12" viewBox="0 0 13 12" fill="none" xmlns="http://www.w3.org/2000/svg">
<path d="M6.418 0.167969C6.61154 0.167969 6.79715 0.244851 6.934 0.381704C7.07085 0.518556 7.14774 0.704167 7.14774 0.897705V5.27612H11.5262C11.7197 5.27612 11.9053 5.35301 12.0422 5.48986C12.179 5.62671 12.2559 5.81232 12.2559 6.00586C12.2559 6.1994 12.179 6.38501 12.0422 6.52186C11.9053 6.65871 11.7197 6.7356 11.5262 6.7356H7.14774V11.114C7.14774 11.3076 7.07085 11.4932 6.934 11.63C6.79715 11.7669 6.61154 11.8438 6.418 11.8438C6.22446 11.8438 6.03885 11.7669 5.902 11.63C5.76515 11.4932 5.68826 11.3076 5.68826 11.114V6.7356H1.30984C1.11631 6.7356 0.930696 6.65871 0.793843 6.52186C0.656991 6.38501 0.580109 6.1994 0.580109 6.00586C0.580109 5.81232 0.656991 5.62671 0.793843 5.48986C0.930696 5.35301 1.11631 5.27612 1.30984 5.27612H5.68826V0.897705C5.68826 0.704167 5.76515 0.518556 5.902 0.381704C6.03885 0.244851 6.22446 0.167969 6.418 0.167969V0.167969Z" fill="#363330"/>
</svg>
