<svg width="13" height="13" viewBox="0 0 13 13" fill="none" xmlns="http://www.w3.org/2000/svg">
<path d="M6.45898 0.363281C6.65252 0.363281 6.83813 0.440164 6.97499 0.577016C7.11184 0.713868 7.18872 0.899479 7.18872 1.09302V5.47144H11.5671C11.7607 5.47144 11.9463 5.54832 12.0831 5.68517C12.22 5.82202 12.2969 6.00763 12.2969 6.20117C12.2969 6.39471 12.22 6.58032 12.0831 6.71717C11.9463 6.85403 11.7607 6.93091 11.5671 6.93091H7.18872V11.3093C7.18872 11.5029 7.11184 11.6885 6.97499 11.8253C6.83813 11.9622 6.65252 12.0391 6.45898 12.0391C6.26545 12.0391 6.07983 11.9622 5.94298 11.8253C5.80613 11.6885 5.72925 11.5029 5.72925 11.3093V6.93091H1.35083C1.15729 6.93091 0.971681 6.85403 0.834829 6.71717C0.697976 6.58032 0.621094 6.39471 0.621094 6.20117C0.621094 6.00763 0.697976 5.82202 0.834829 5.68517C0.971681 5.54832 1.15729 5.47144 1.35083 5.47144H5.72925V1.09302C5.72925 0.899479 5.80613 0.713868 5.94298 0.577016C6.07983 0.440164 6.26545 0.363281 6.45898 0.363281V0.363281Z" fill="#363330"/>
</svg>
