<svg width="13" height="13" viewBox="0 0 13 13" fill="none" xmlns="http://www.w3.org/2000/svg">
<path d="M6.418 0.566406C6.61154 0.566406 6.79715 0.643289 6.934 0.780141C7.07085 0.916993 7.14774 1.1026 7.14774 1.29614V5.67456H11.5262C11.7197 5.67456 11.9053 5.75144 12.0422 5.8883C12.179 6.02515 12.2559 6.21076 12.2559 6.4043C12.2559 6.59784 12.179 6.78345 12.0422 6.9203C11.9053 7.05715 11.7197 7.13403 11.5262 7.13403H7.14774V11.5125C7.14774 11.706 7.07085 11.8916 6.934 12.0285C6.79715 12.1653 6.61154 12.2422 6.418 12.2422C6.22446 12.2422 6.03885 12.1653 5.902 12.0285C5.76515 11.8916 5.68826 11.706 5.68826 11.5125V7.13403H1.30984C1.11631 7.13403 0.930696 7.05715 0.793843 6.9203C0.656991 6.78345 0.580109 6.59784 0.580109 6.4043C0.580109 6.21076 0.656991 6.02515 0.793843 5.8883C0.930696 5.75144 1.11631 5.67456 1.30984 5.67456H5.68826V1.29614C5.68826 1.1026 5.76515 0.916993 5.902 0.780141C6.03885 0.643289 6.22446 0.566406 6.418 0.566406V0.566406Z" fill="#363330"/>
</svg>
