<svg width="13" height="12" viewBox="0 0 13 12" fill="none" xmlns="http://www.w3.org/2000/svg">
<path d="M6.45898 0.167969C6.65252 0.167969 6.83813 0.244851 6.97499 0.381704C7.11184 0.518556 7.18872 0.704167 7.18872 0.897705V5.27612H11.5671C11.7607 5.27612 11.9463 5.35301 12.0831 5.48986C12.22 5.62671 12.2969 5.81232 12.2969 6.00586C12.2969 6.1994 12.22 6.38501 12.0831 6.52186C11.9463 6.65871 11.7607 6.7356 11.5671 6.7356H7.18872V11.114C7.18872 11.3076 7.11184 11.4932 6.97499 11.63C6.83813 11.7669 6.65252 11.8438 6.45898 11.8438C6.26545 11.8438 6.07983 11.7669 5.94298 11.63C5.80613 11.4932 5.72925 11.3076 5.72925 11.114V6.7356H1.35083C1.15729 6.7356 0.971681 6.65871 0.834829 6.52186C0.697976 6.38501 0.621094 6.1994 0.621094 6.00586C0.621094 5.81232 0.697976 5.62671 0.834829 5.48986C0.971681 5.35301 1.15729 5.27612 1.35083 5.27612H5.72925V0.897705C5.72925 0.704167 5.80613 0.518556 5.94298 0.381704C6.07983 0.244851 6.26545 0.167969 6.45898 0.167969V0.167969Z" fill="#363330"/>
</svg>
