<svg width="13" height="13" viewBox="0 0 13 13" fill="none" xmlns="http://www.w3.org/2000/svg">
<path d="M6.418 0.767578C6.61154 0.767578 6.79715 0.844461 6.934 0.981313C7.07085 1.11817 7.14774 1.30378 7.14774 1.49731V5.87573H11.5262C11.7197 5.87573 11.9053 5.95262 12.0422 6.08947C12.179 6.22632 12.2559 6.41193 12.2559 6.60547C12.2559 6.79901 12.179 6.98462 12.0422 7.12147C11.9053 7.25832 11.7197 7.33521 11.5262 7.33521H7.14774V11.7136C7.14774 11.9072 7.07085 12.0928 6.934 12.2296C6.79715 12.3665 6.61154 12.4434 6.418 12.4434C6.22446 12.4434 6.03885 12.3665 5.902 12.2296C5.76515 12.0928 5.68826 11.9072 5.68826 11.7136V7.33521H1.30984C1.11631 7.33521 0.930696 7.25832 0.793843 7.12147C0.656991 6.98462 0.580109 6.79901 0.580109 6.60547C0.580109 6.41193 0.656991 6.22632 0.793843 6.08947C0.930696 5.95262 1.11631 5.87573 1.30984 5.87573H5.68826V1.49731C5.68826 1.30378 5.76515 1.11817 5.902 0.981313C6.03885 0.844461 6.22446 0.767578 6.418 0.767578V0.767578Z" fill="#363330"/>
</svg>
