<svg width="13" height="13" viewBox="0 0 13 13" fill="none" xmlns="http://www.w3.org/2000/svg">
<path d="M6.45898 0.767578C6.65252 0.767578 6.83813 0.844461 6.97499 0.981313C7.11184 1.11817 7.18872 1.30378 7.18872 1.49731V5.87573H11.5671C11.7607 5.87573 11.9463 5.95262 12.0831 6.08947C12.22 6.22632 12.2969 6.41193 12.2969 6.60547C12.2969 6.79901 12.22 6.98462 12.0831 7.12147C11.9463 7.25832 11.7607 7.33521 11.5671 7.33521H7.18872V11.7136C7.18872 11.9072 7.11184 12.0928 6.97499 12.2296C6.83813 12.3665 6.65252 12.4434 6.45898 12.4434C6.26545 12.4434 6.07983 12.3665 5.94298 12.2296C5.80613 12.0928 5.72925 11.9072 5.72925 11.7136V7.33521H1.35083C1.15729 7.33521 0.971681 7.25832 0.834829 7.12147C0.697976 6.98462 0.621094 6.79901 0.621094 6.60547C0.621094 6.41193 0.697976 6.22632 0.834829 6.08947C0.971681 5.95262 1.15729 5.87573 1.35083 5.87573H5.72925V1.49731C5.72925 1.30378 5.80613 1.11817 5.94298 0.981313C6.07983 0.844461 6.26545 0.767578 6.45898 0.767578V0.767578Z" fill="#363330"/>
</svg>
