<svg width="13" height="13" viewBox="0 0 13 13" fill="none" xmlns="http://www.w3.org/2000/svg">
<path d="M6.418 0.363281C6.61154 0.363281 6.79715 0.440164 6.934 0.577016C7.07085 0.713868 7.14774 0.899479 7.14774 1.09302V5.47144H11.5262C11.7197 5.47144 11.9053 5.54832 12.0422 5.68517C12.179 5.82202 12.2559 6.00763 12.2559 6.20117C12.2559 6.39471 12.179 6.58032 12.0422 6.71717C11.9053 6.85403 11.7197 6.93091 11.5262 6.93091H7.14774V11.3093C7.14774 11.5029 7.07085 11.6885 6.934 11.8253C6.79715 11.9622 6.61154 12.0391 6.418 12.0391C6.22446 12.0391 6.03885 11.9622 5.902 11.8253C5.76515 11.6885 5.68826 11.5029 5.68826 11.3093V6.93091H1.30984C1.11631 6.93091 0.930696 6.85403 0.793843 6.71717C0.656991 6.58032 0.580109 6.39471 0.580109 6.20117C0.580109 6.00763 0.656991 5.82202 0.793843 5.68517C0.930696 5.54832 1.11631 5.47144 1.30984 5.47144H5.68826V1.09302C5.68826 0.899479 5.76515 0.713868 5.902 0.577016C6.03885 0.440164 6.22446 0.363281 6.418 0.363281V0.363281Z" fill="#363330"/>
</svg>
