<svg width="13" height="13" viewBox="0 0 13 13" fill="none" xmlns="http://www.w3.org/2000/svg">
<path d="M6.45898 0.763672C6.65252 0.763672 6.83813 0.840555 6.97499 0.977407C7.11184 1.11426 7.18872 1.29987 7.18872 1.49341V5.87183H11.5671C11.7607 5.87183 11.9463 5.94871 12.0831 6.08556C12.22 6.22241 12.2969 6.40802 12.2969 6.60156C12.2969 6.7951 12.22 6.98071 12.0831 7.11756C11.9463 7.25442 11.7607 7.3313 11.5671 7.3313H7.18872V11.7097C7.18872 11.9033 7.11184 12.0889 6.97499 12.2257C6.83813 12.3626 6.65252 12.4395 6.45898 12.4395C6.26545 12.4395 6.07983 12.3626 5.94298 12.2257C5.80613 12.0889 5.72925 11.9033 5.72925 11.7097V7.3313H1.35083C1.15729 7.3313 0.971681 7.25442 0.834829 7.11756C0.697976 6.98071 0.621094 6.7951 0.621094 6.60156C0.621094 6.40802 0.697976 6.22241 0.834829 6.08556C0.971681 5.94871 1.15729 5.87183 1.35083 5.87183H5.72925V1.49341C5.72925 1.29987 5.80613 1.11426 5.94298 0.977407C6.07983 0.840555 6.26545 0.763672 6.45898 0.763672V0.763672Z" fill="#363330"/>
</svg>
