<svg width="13" height="13" viewBox="0 0 13 13" fill="none" xmlns="http://www.w3.org/2000/svg">
<path d="M6.418 0.964844C6.61154 0.964844 6.79715 1.04173 6.934 1.17858C7.07085 1.31543 7.14774 1.50104 7.14774 1.69458V6.073H11.5262C11.7197 6.073 11.9053 6.14988 12.0422 6.28673C12.179 6.42358 12.2559 6.6092 12.2559 6.80273C12.2559 6.99627 12.179 7.18188 12.0422 7.31874C11.9053 7.45559 11.7197 7.53247 11.5262 7.53247H7.14774V11.9109C7.14774 12.1044 7.07085 12.29 6.934 12.4269C6.79715 12.5637 6.61154 12.6406 6.418 12.6406C6.22446 12.6406 6.03885 12.5637 5.902 12.4269C5.76515 12.29 5.68826 12.1044 5.68826 11.9109V7.53247H1.30984C1.11631 7.53247 0.930696 7.45559 0.793843 7.31874C0.656991 7.18188 0.580109 6.99627 0.580109 6.80273C0.580109 6.6092 0.656991 6.42358 0.793843 6.28673C0.930696 6.14988 1.11631 6.073 1.30984 6.073H5.68826V1.69458C5.68826 1.50104 5.76515 1.31543 5.902 1.17858C6.03885 1.04173 6.22446 0.964844 6.418 0.964844V0.964844Z" fill="#363330"/>
</svg>
