<svg width="13" height="13" viewBox="0 0 13 13" fill="none" xmlns="http://www.w3.org/2000/svg">
<path d="M6.45898 0.566406C6.65252 0.566406 6.83813 0.643289 6.97499 0.780141C7.11184 0.916993 7.18872 1.1026 7.18872 1.29614V5.67456H11.5671C11.7607 5.67456 11.9463 5.75144 12.0831 5.8883C12.22 6.02515 12.2969 6.21076 12.2969 6.4043C12.2969 6.59784 12.22 6.78345 12.0831 6.9203C11.9463 7.05715 11.7607 7.13403 11.5671 7.13403H7.18872V11.5125C7.18872 11.706 7.11184 11.8916 6.97499 12.0285C6.83813 12.1653 6.65252 12.2422 6.45898 12.2422C6.26545 12.2422 6.07983 12.1653 5.94298 12.0285C5.80613 11.8916 5.72925 11.706 5.72925 11.5125V7.13403H1.35083C1.15729 7.13403 0.971681 7.05715 0.834829 6.9203C0.697976 6.78345 0.621094 6.59784 0.621094 6.4043C0.621094 6.21076 0.697976 6.02515 0.834829 5.8883C0.971681 5.75144 1.15729 5.67456 1.35083 5.67456H5.72925V1.29614C5.72925 1.1026 5.80613 0.916993 5.94298 0.780141C6.07983 0.643289 6.26545 0.566406 6.45898 0.566406V0.566406Z" fill="#363330"/>
</svg>
