<svg width="55" height="53" viewBox="0 0 55 53" fill="none" xmlns="http://www.w3.org/2000/svg">
<path d="M7.76709 10.4534C7.61726 10.4534 7.46742 10.4234 7.31758 10.4234C6.62833 10.3036 6.14885 10.0638 5.96905 9.67424C5.78925 9.31463 5.84918 8.86512 6.11889 8.32571C6.5684 7.45665 7.04788 7.03711 7.55732 7.03711C7.88696 7.03711 8.24657 7.18695 8.72605 7.48662C8.90585 7.60649 9.62507 7.9661 9.71497 8.44558C9.83484 8.92505 9.35537 9.94395 9.02572 10.1238C9.02572 10.1238 8.93582 10.1837 8.87589 10.2137L8.84592 10.2436C8.81595 10.2736 8.78598 10.2736 8.75602 10.2736C8.75602 10.2736 8.72605 10.2736 8.72605 10.3036H8.69608C8.66612 10.3036 8.63615 10.3335 8.60618 10.3335C8.57621 10.3335 8.54625 10.3335 8.54625 10.3635C8.51628 10.3635 8.48631 10.3935 8.45634 10.3935C8.42638 10.3935 8.1267 10.4534 8.09673 10.4534H8.06677C8.06677 10.4534 8.0368 10.4534 8.00683 10.4534C7.9469 10.4534 7.91693 10.4534 7.857 10.4534H7.79706H7.76709Z" fill="#929292"/>
<path d="M28.534 10.4534C28.6838 10.4534 28.8337 10.4234 28.9835 10.4234C29.6728 10.3036 30.1523 10.0638 30.3321 9.67424C30.5119 9.31463 30.4519 8.86512 30.1822 8.32571C29.7327 7.45665 29.2532 7.03711 28.7438 7.03711C28.4141 7.03711 28.0545 7.18695 27.5751 7.48662C27.3953 7.60649 26.676 7.9661 26.5861 8.44558C26.4663 8.92505 26.9457 9.94395 27.2754 10.1238C27.2754 10.1238 27.3653 10.1837 27.4252 10.2137L27.4552 10.2436C27.4852 10.2736 27.5151 10.2736 27.5451 10.2736C27.5451 10.2736 27.5751 10.2736 27.5751 10.3036H27.605C27.635 10.3036 27.665 10.3335 27.6949 10.3335C27.7249 10.3335 27.7549 10.3335 27.7549 10.3635C27.7848 10.3635 27.8148 10.3935 27.8448 10.3935C27.8747 10.3935 28.1744 10.4534 28.2044 10.4534H28.2343C28.2643 10.4534 28.2643 10.4534 28.2943 10.4534C28.3542 10.4534 28.3842 10.4534 28.4441 10.4534H28.504H28.534Z" fill="#929292"/>
<path d="M16.6672 4.51863C16.1278 4.51863 15.5883 4.3688 15.1089 3.40984C15.0789 3.31994 15.0489 3.26 15.019 3.20007C14.989 3.14013 14.959 3.0802 14.9291 2.9903C14.7193 2.42091 14.7193 1.9714 14.9291 1.64176C15.1388 1.28215 15.5584 1.04242 16.2177 0.952513C16.4574 0.922546 16.6672 0.892578 16.847 0.892578C17.2665 0.892578 17.5662 0.98248 17.746 1.19225C17.9857 1.43199 18.0457 1.8815 17.9857 2.63069C17.8359 4.39876 17.2965 4.5486 16.6971 4.5486L16.6672 4.51863Z" fill="#929292"/>
<path d="M13.2208 5.59798C12.7713 5.59798 12.3517 5.35824 11.8423 4.81883C11.7824 4.75889 11.7524 4.72893 11.7224 4.66899C11.3329 4.21948 11.183 3.82991 11.243 3.4703C11.3029 3.11069 11.6325 2.75108 12.2019 2.45141C12.6814 2.21167 13.071 2.0918 13.3706 2.0918C13.91 2.0918 14.2097 2.45141 14.4495 3.38039C14.869 4.99863 14.3895 5.29831 13.8201 5.50808C13.6104 5.56801 13.4306 5.59798 13.2508 5.59798H13.2208Z" fill="#929292"/>
<path d="M10.6737 7.60641C10.374 7.60641 10.0144 7.5165 9.56489 7.30673C9.56489 7.30673 9.56489 7.30673 9.53493 7.30673C9.47499 7.27676 9.41506 7.2468 9.35512 7.21683C8.81571 6.94712 8.51604 6.61748 8.42613 6.25787C8.33623 5.89826 8.48607 5.47872 8.87564 4.99924C9.32515 4.42986 9.71473 4.16016 10.0444 4.16016C10.404 4.16016 10.7636 4.42986 11.2131 5.02921C12.262 6.37774 11.9623 6.82725 11.5128 7.21683C11.2131 7.48654 10.9434 7.57644 10.6138 7.57644L10.6737 7.60641Z" fill="#929292"/>
<path d="M5.78934 14.1391C5.60953 14.1391 5.45969 14.1391 5.27989 14.1091C4.74048 14.0492 4.23103 13.7495 3.96133 13.3C3.72159 12.9104 3.72159 12.4609 3.90139 11.9814C4.4408 10.6928 4.98022 10.543 5.33983 10.543C5.6395 10.543 6.02907 10.6628 6.47859 10.9625C6.80823 11.1423 7.04797 11.3521 7.22777 11.5619C7.25774 11.5918 7.28771 11.6218 7.31767 11.6817C7.37761 11.7417 7.40758 11.8316 7.43754 11.8915C7.46751 11.9215 7.46751 11.9514 7.46751 12.0114C7.46751 12.0413 7.49748 12.1013 7.49748 12.1312C7.49748 12.1612 7.49748 12.1912 7.52744 12.2511C7.52744 12.2811 7.52744 12.311 7.52744 12.341C7.52744 12.371 7.52744 12.4009 7.52744 12.4309C7.52744 12.4609 7.52744 12.4908 7.52744 12.5208V12.5508C7.52744 12.5808 7.52744 12.6107 7.52744 12.6407C7.52744 12.6707 7.52744 12.7006 7.49748 12.7306V12.7606C7.49748 12.7905 7.46751 12.8205 7.46751 12.8505V12.8804C7.46751 12.9104 7.43754 12.9104 7.43754 12.9404V12.9703C7.43754 13.0003 7.40757 13.0303 7.40757 13.0602L7.37761 13.0902C7.37761 13.1202 7.34764 13.1501 7.34764 13.1801C7.31767 13.2101 7.31767 13.24 7.28771 13.3L7.25774 13.3299C7.25774 13.3599 7.22777 13.3599 7.22777 13.3899L7.1978 13.4198C7.1978 13.4498 7.16784 13.4498 7.16784 13.4798C7.16784 13.5097 7.13787 13.5097 7.13787 13.5397L7.1079 13.5697C7.1079 13.5996 7.07793 13.5996 7.07793 13.6296L7.04797 13.6596C6.95806 13.7495 6.86816 13.8094 6.74829 13.8693C6.71833 13.8693 6.68836 13.8993 6.65839 13.8993C6.62842 13.9293 6.59846 13.9293 6.56849 13.9293C6.35872 13.9892 6.11898 14.0192 5.84927 14.0192H5.8193L5.78934 14.1391Z" fill="#929292"/>
<path d="M30.5418 14.1391C30.7216 14.1391 30.8715 14.1391 31.0513 14.1091C31.5907 14.0492 32.1001 13.7495 32.3698 13.3C32.6096 12.9104 32.6096 12.4609 32.4298 11.9814C31.8904 10.6928 31.351 10.543 30.9913 10.543C30.6917 10.543 30.3021 10.6628 29.8526 10.9625C29.5229 11.1423 29.2832 11.3521 29.1034 11.5619C29.0734 11.5918 29.0435 11.6218 29.0135 11.6817C28.9536 11.7417 28.9236 11.8316 28.8936 11.8915C28.8637 11.9215 28.8637 11.9514 28.8637 12.0114C28.8637 12.0413 28.8337 12.1013 28.8337 12.1312C28.8337 12.1612 28.8337 12.1912 28.8037 12.2511C28.8037 12.2811 28.8037 12.311 28.8037 12.341C28.8037 12.371 28.8037 12.4009 28.8037 12.4309C28.8037 12.4609 28.8037 12.4908 28.8037 12.5208V12.5508C28.8037 12.5808 28.8037 12.6107 28.8337 12.6407C28.8337 12.6707 28.8637 12.7006 28.8637 12.7306V12.7606C28.8637 12.7905 28.8936 12.8205 28.8936 12.8505V12.8804C28.8936 12.9104 28.8936 12.9104 28.9236 12.9404V12.9703C28.9236 13.0003 28.9536 13.0303 28.9536 13.0602V13.0902C28.9536 13.1202 28.9835 13.1501 28.9835 13.1801C29.0135 13.2101 29.0135 13.24 29.0435 13.3L29.0734 13.3299C29.0734 13.3599 29.1034 13.3599 29.1034 13.3899L29.1334 13.4198C29.1334 13.4498 29.1633 13.4498 29.1633 13.4798C29.1633 13.5097 29.1933 13.5097 29.1933 13.5397L29.2233 13.5697C29.2233 13.5996 29.2532 13.5996 29.2532 13.6296L29.2832 13.6596C29.3731 13.7495 29.463 13.8094 29.5829 13.8693C29.6128 13.8693 29.6428 13.8993 29.6728 13.8993C29.7027 13.9293 29.7327 13.9293 29.7627 13.9293C29.9725 13.9892 30.1822 14.0192 30.4819 14.0192H30.5119L30.5418 14.1391Z" fill="#929292"/>
<path d="M2.79238 24.2987C2.28293 24.2987 1.83342 24.2388 1.65362 24.2088C1.56371 24.2088 1.50378 24.1788 1.41388 24.1189C0.69466 23.7293 0.305084 22.9502 0.305084 21.9013C0.305084 20.9423 0.484889 20.2831 0.844497 19.9235C1.1142 19.6238 1.53375 19.5039 2.10313 19.5039C2.3129 19.5039 2.55264 19.5339 2.79238 19.5638C3.54156 19.6837 4.11094 19.8935 4.53049 20.2231C4.62039 20.2831 4.68032 20.343 4.74026 20.373C5.09987 20.7326 5.27967 21.1821 5.3396 21.9013C5.3396 21.9912 5.33961 22.0511 5.36957 22.141C5.39954 22.7404 5.21974 23.2199 4.83016 23.5795C4.59042 23.7892 4.29075 23.969 3.90117 24.1489C3.8712 24.1489 3.84124 24.1788 3.81127 24.1788C3.57153 24.2687 3.21192 24.2987 2.82234 24.2987H2.79238Z" fill="#929292"/>
<path d="M33.5091 24.2987C34.0186 24.2987 34.4681 24.2388 34.6479 24.2088C34.7378 24.2088 34.7977 24.1788 34.8876 24.1189C35.6069 23.7293 35.9964 22.9502 35.9964 21.9013C35.9964 20.9423 35.8166 20.2831 35.457 19.9235C35.1873 19.6238 34.7678 19.5039 34.1984 19.5039C33.9886 19.5039 33.7489 19.5339 33.5091 19.5638C32.76 19.6837 32.1906 19.8935 31.771 20.2231C31.6811 20.2831 31.6212 20.343 31.5613 20.373C31.2017 20.7326 31.0219 21.1821 30.9619 21.9013C30.9619 21.9912 30.9619 22.0511 30.9619 22.141C30.932 22.7404 31.1118 23.2199 31.5013 23.5795C31.7411 23.7892 32.0407 23.969 32.4303 24.1489C32.4603 24.1489 32.4903 24.1788 32.5202 24.1788C32.76 24.2687 33.1196 24.2987 33.5091 24.2987Z" fill="#929292"/>
<path d="M4.20135 19.2343C4.05151 19.2343 3.90168 19.2343 3.75184 19.2043C3.63197 19.1744 3.54207 19.1744 3.45217 19.1444C3.30233 19.1144 3.12252 19.0545 2.91275 18.9646C2.49321 18.8147 2.16357 18.545 1.92383 18.1854C1.56422 17.5861 1.44435 16.8669 1.59419 16.0877C1.83393 14.9789 2.55314 14.3496 3.54207 14.3496C4.02155 14.3496 4.53099 14.4994 4.9805 14.7991C6.32903 15.6981 6.4489 16.4473 6.38897 16.9568C6.38897 17.0467 6.359 17.1366 6.359 17.2265C6.359 17.2265 6.359 17.2265 6.359 17.2564C6.32903 17.3463 6.32903 17.4063 6.29907 17.4962V17.5262L6.2691 17.6161V17.646L6.23913 17.706C6.23913 17.7359 6.20917 17.7959 6.20917 17.8258C6.1792 17.8858 6.14923 17.9457 6.11926 18.0056C5.99939 18.2753 5.81959 18.4851 5.60982 18.6949C5.37008 18.9047 5.0704 19.0845 4.77073 19.1444C4.74076 19.1444 4.74076 19.1444 4.7108 19.1744C4.62089 19.2043 4.56096 19.2043 4.50102 19.2043C4.41112 19.2043 4.29125 19.2343 4.20135 19.2343Z" fill="#929292"/>
<path d="M32.1307 19.2343C32.2806 19.2343 32.4304 19.2343 32.5802 19.2043C32.7001 19.1744 32.79 19.1744 32.8799 19.1444C33.0297 19.1144 33.2096 19.0545 33.4193 18.9646C33.8389 18.8147 34.1685 18.545 34.4083 18.1854C34.7679 17.5861 34.8877 16.8669 34.7379 16.0877C34.4982 14.9789 33.7789 14.3496 32.79 14.3496C32.3105 14.3496 31.8011 14.4994 31.3516 14.7991C30.003 15.6981 29.8832 16.4473 29.9431 16.9568C29.9431 17.0467 29.9731 17.1366 29.9731 17.2265C29.9731 17.2265 29.9731 17.2265 29.9731 17.2564C30.003 17.3463 30.003 17.4063 30.033 17.4962V17.5262L30.063 17.6161L30.0929 17.646L30.1229 17.706C30.1229 17.7359 30.1529 17.7959 30.1529 17.8258C30.1828 17.8858 30.2128 17.9457 30.2428 18.0056C30.3627 18.2753 30.5425 18.4851 30.7522 18.6949C30.992 18.9047 31.2916 19.0845 31.5913 19.1444C31.6213 19.1444 31.6213 19.1444 31.6513 19.1744C31.7412 19.2043 31.8011 19.2043 31.861 19.2043C31.9509 19.2043 32.0708 19.2343 32.1607 19.2343H32.1307Z" fill="#929292"/>
<path d="M19.9941 4.5193C19.3947 4.5193 18.8254 4.36947 18.6755 2.60139C18.6156 1.8522 18.6755 1.40269 18.9153 1.16296C19.0951 0.953183 19.3947 0.863281 19.8143 0.863281C19.9941 0.863281 20.2039 0.893249 20.4436 0.923216C21.1029 1.04309 21.5224 1.25286 21.7322 1.61247C21.942 1.94211 21.912 2.39162 21.7322 2.961C21.7022 3.02093 21.6723 3.08087 21.6723 3.1408V3.17077C21.6423 3.2307 21.6123 3.29064 21.5824 3.38054C21.1029 4.36947 20.5635 4.5193 20.024 4.5193H19.9941Z" fill="#929292"/>
<path d="M23.4398 5.59798C23.26 5.59798 23.0802 5.56801 22.8704 5.50808C22.301 5.29831 21.8216 4.99863 22.2411 3.38039C22.4808 2.45141 22.7805 2.0918 23.3199 2.0918C23.6196 2.0918 24.0092 2.21167 24.4887 2.45141C25.058 2.75108 25.3577 3.08072 25.4476 3.4703C25.5075 3.82991 25.3577 4.21948 24.9681 4.63902C24.9082 4.69896 24.8782 4.72893 24.8183 4.78886C24.3089 5.32827 23.8893 5.56801 23.4398 5.56801V5.59798Z" fill="#929292"/>
<path d="M25.9875 7.60574C25.6578 7.60574 25.3881 7.48587 25.0885 7.24613C24.6689 6.85655 24.3393 6.40704 25.3881 5.05851C25.8376 4.45916 26.2272 4.18945 26.5569 4.18945C26.9165 4.18945 27.306 4.45916 27.7556 5.02854C28.1152 5.50802 28.265 5.92756 28.2051 6.28717C28.1152 6.64678 27.8155 6.97642 27.306 7.21616C27.2461 7.24613 27.1862 7.27609 27.1262 7.30606C26.6767 7.51583 26.3171 7.60574 26.0175 7.60574H25.9875Z" fill="#929292"/>
<path d="M2.76208 30.0522C3.12169 30.0522 3.51127 29.9923 3.81094 29.8724C4.67999 29.5428 5.15947 29.0333 5.30931 28.3441C5.39921 27.9845 5.42918 27.5949 5.36924 27.1753C5.27934 26.4861 5.06957 26.0666 4.67999 25.7069C4.26045 25.2874 3.6611 25.0477 2.76208 24.8978C2.55231 24.8679 2.34254 24.8379 2.16273 24.8379C1.56339 24.8379 1.14384 24.9877 0.844168 25.2874C0.454592 25.7069 0.274788 26.4262 0.334722 27.4451C0.454592 29.8125 2.07283 30.0522 2.76208 30.0522Z" fill="#929292"/>
<path d="M33.5684 30.0522C33.2088 30.0522 32.8192 29.9923 32.5195 29.8724C31.6505 29.5428 31.171 29.0333 31.0212 28.3441C30.9313 27.9845 30.9013 27.5949 30.9612 27.1753C31.0511 26.4861 31.2609 26.0666 31.6505 25.7069C32.07 25.2874 32.6993 25.0477 33.5684 24.8978C33.7782 24.8679 33.9879 24.8379 34.1677 24.8379C34.7671 24.8379 35.1866 24.9877 35.4863 25.2874C35.8759 25.7069 36.0557 26.4262 35.9957 27.4451C35.8759 29.8125 34.2576 30.0522 33.5684 30.0522Z" fill="#929292"/>
<path d="M1.47373 44.4658V40.0606H0.784485V44.4658H1.47373ZM4.94995 44.4658V42.3082C4.94995 42.0085 4.86005 41.7687 4.68025 41.5889C4.50044 41.4091 4.2607 41.3192 3.96103 41.3192C3.69132 41.3192 3.42161 41.3792 3.18188 41.529L2.82227 41.7388V41.3192H2.22292V44.4358H2.82227V42.3082L3.36168 42.0085C3.54148 41.9186 3.69132 41.8586 3.84116 41.8586C3.991 41.8586 4.11087 41.9186 4.20077 42.0085C4.29067 42.0984 4.32064 42.2183 4.32064 42.3681V44.4358H4.91998L4.94995 44.4658ZM7.79685 43.5069L7.22747 43.8065C7.04767 43.8964 6.89783 43.9564 6.71803 43.9564C6.53822 43.9564 6.41835 43.8964 6.29848 43.8065C6.20858 43.6867 6.14865 43.5668 6.14865 43.387V42.458C6.14865 42.2782 6.20858 42.1583 6.29848 42.0385C6.38839 41.9186 6.53822 41.8886 6.71803 41.8886C6.89783 41.8886 7.04767 41.9186 7.22747 42.0085L7.79685 42.3082V43.5069ZM8.3962 44.4358V40.0306H7.79685V41.7088L7.40728 41.499C7.16754 41.3492 6.89783 41.2893 6.65809 41.2893C6.32845 41.2893 6.05875 41.3792 5.84897 41.5889C5.6392 41.7987 5.5493 42.0385 5.5493 42.3681V43.4469C5.5493 43.7466 5.6392 44.0163 5.84897 44.1961C6.05875 44.4059 6.32845 44.4958 6.62813 44.4958C6.89783 44.4958 7.13757 44.4358 7.40728 44.286L7.79685 44.0762V44.4358H8.3962ZM9.74473 44.4358V41.3192H9.11542V44.4358H9.74473ZM9.7747 40.3003C9.7747 40.2104 9.74473 40.1505 9.6848 40.0906C9.62486 40.0306 9.53496 40.0007 9.41509 40.0007C9.29522 40.0007 9.20532 40.0306 9.14539 40.0906C9.08545 40.1505 9.05548 40.2104 9.05548 40.3003V40.4202C9.05548 40.5101 9.08545 40.5701 9.14539 40.63C9.20532 40.6899 9.29522 40.7199 9.41509 40.7199C9.50499 40.7199 9.5949 40.6899 9.6848 40.63C9.74473 40.5701 9.7747 40.5101 9.7747 40.4202V40.3003ZM13.1011 43.2671H12.5017C12.5017 43.7166 12.232 43.9264 11.7226 43.9264C11.2431 43.9264 10.9734 43.6867 10.9734 43.2072V42.5179C10.9734 42.0385 11.2131 41.7987 11.7226 41.7987C12.232 41.7987 12.5017 42.0085 12.5017 42.458H13.1011V42.3981C13.1011 42.0385 12.9812 41.7388 12.7415 41.529C12.5017 41.3192 12.1721 41.2293 11.7525 41.2293C11.333 41.2293 11.0333 41.3492 10.7636 41.559C10.5239 41.7687 10.404 42.0684 10.404 42.428V43.2072C10.404 43.5968 10.5239 43.8964 10.7636 44.1062C11.0034 44.316 11.333 44.4358 11.7525 44.4358C12.1721 44.4358 12.5017 44.3459 12.7415 44.1362C12.9812 43.9264 13.1011 43.6567 13.1011 43.2671ZM15.7682 43.5069L15.2288 43.7766C15.019 43.8964 14.8092 43.9564 14.5995 43.9564C14.4796 43.9564 14.3597 43.9264 14.2998 43.8365C14.2398 43.7766 14.1799 43.6567 14.1799 43.5368C14.1799 43.2371 14.3897 43.0873 14.7793 43.0873H15.7382V43.4769L15.7682 43.5069ZM16.3675 44.4059V42.3981C16.3675 42.0385 16.2477 41.7388 16.0079 41.559C15.7682 41.3492 15.4385 41.2593 15.019 41.2593C14.5995 41.2593 14.2698 41.3492 14.0301 41.559C13.7604 41.7687 13.6405 42.0085 13.6405 42.3681V42.3981H14.2398C14.2398 41.9785 14.5095 41.7987 15.019 41.7987C15.5284 41.7987 15.7682 42.0085 15.7682 42.488V42.6678H14.7193C14.3897 42.6678 14.09 42.7577 13.8802 42.9075C13.6705 43.0573 13.5506 43.2971 13.5506 43.5968C13.5506 43.8665 13.6405 44.0762 13.8203 44.2261C14.0001 44.3759 14.2099 44.4658 14.5095 44.4658C14.7793 44.4658 15.0789 44.3759 15.4086 44.2261L15.7682 44.0463V44.4358H16.3975L16.3675 44.4059ZM19.2144 43.4769L18.645 43.7766C18.4652 43.8665 18.3154 43.9264 18.1356 43.9264C17.9558 43.9264 17.8359 43.8665 17.7161 43.7766C17.6262 43.6567 17.5662 43.5368 17.5662 43.357V42.428C17.5662 42.2482 17.6262 42.1284 17.7161 42.0085C17.806 41.8886 17.9558 41.8586 18.1356 41.8586C18.3154 41.8586 18.4652 41.8886 18.645 41.9785L19.2144 42.2782V43.4769ZM19.8138 44.4059V40.0007H19.2144V41.6788L18.8249 41.4691C18.5851 41.3192 18.3154 41.2593 18.0757 41.2593C17.746 41.2593 17.4763 41.3492 17.2665 41.559C17.0568 41.7687 16.9669 42.0085 16.9669 42.3381V43.417C16.9669 43.7166 17.0568 43.9863 17.2665 44.1661C17.4763 44.3759 17.746 44.4658 18.0457 44.4658C18.3154 44.4658 18.5551 44.4059 18.8249 44.256L19.2144 44.0463V44.4059H19.8138ZM22.7206 43.1472C22.7206 43.387 22.6607 43.5968 22.4809 43.7466C22.331 43.8964 22.1213 43.9564 21.8815 43.9564C21.6418 43.9564 21.432 43.8964 21.2822 43.7466C21.1323 43.5968 21.0424 43.417 21.0424 43.1472V42.6078C21.0424 42.3681 21.1024 42.1583 21.2822 42.0085C21.432 41.8586 21.6418 41.7987 21.8815 41.7987C22.1213 41.7987 22.331 41.8586 22.4809 42.0085C22.6307 42.1583 22.7206 42.3381 22.7206 42.6078V43.1472ZM23.32 42.5479C23.32 42.1583 23.2001 41.8586 22.9004 41.6189C22.6307 41.3792 22.3011 41.2593 21.8516 41.2593C21.432 41.2593 21.0724 41.3792 20.8027 41.6189C20.533 41.8586 20.3832 42.1583 20.3832 42.5479V43.2072C20.3832 43.5968 20.533 43.8964 20.8027 44.1362C21.0724 44.3759 21.4021 44.4958 21.8516 44.4958C22.2711 44.4958 22.6307 44.3759 22.9004 44.1362C23.1701 43.8964 23.32 43.5968 23.32 43.2072V42.5479ZM27.8151 43.3271C27.8151 43.5069 27.7551 43.6267 27.6652 43.7466C27.5753 43.8665 27.4255 43.8964 27.2457 43.8964C27.0659 43.8964 26.916 43.8365 26.7362 43.7466L26.1669 43.4469V42.2482L26.7362 41.9486C26.916 41.8586 27.0659 41.7987 27.2457 41.7987C27.4255 41.7987 27.5454 41.8586 27.6652 41.9486C27.7551 42.0684 27.8151 42.1883 27.8151 42.3681V43.2971V43.3271ZM26.1669 45.5147V44.0463L26.5564 44.256C26.7962 44.4059 27.0659 44.4658 27.3056 44.4658C27.6353 44.4658 27.905 44.3759 28.0848 44.1661C28.2945 43.9564 28.3845 43.7166 28.3845 43.387V42.3082C28.3845 42.0085 28.2945 41.7388 28.0848 41.559C27.875 41.3792 27.6053 41.2593 27.3056 41.2593C27.0359 41.2593 26.7962 41.3192 26.5265 41.4691L26.1369 41.6788V41.2893H25.5375V45.4847H26.1369L26.1669 45.5147ZM31.1115 43.5069L30.5721 43.7766C30.3623 43.8964 30.1525 43.9564 29.9428 43.9564C29.8229 43.9564 29.703 43.9264 29.6431 43.8365C29.5831 43.7766 29.5232 43.6567 29.5232 43.5368C29.5232 43.2371 29.733 43.0873 30.1226 43.0873H31.0815V43.4769L31.1115 43.5069ZM31.7108 44.4059V42.3981C31.7108 42.0385 31.591 41.7388 31.3512 41.559C31.1115 41.3492 30.7818 41.2593 30.3623 41.2593C29.9428 41.2593 29.6131 41.3492 29.3734 41.559C29.1037 41.7687 28.9838 42.0085 28.9838 42.3681V42.3981H29.5831C29.5831 41.9785 29.8529 41.7987 30.3623 41.7987C30.8418 41.7987 31.1115 42.0085 31.1115 42.488V42.6678H30.0626C29.733 42.6678 29.4333 42.7577 29.2235 42.9075C29.0138 43.0573 28.8939 43.2971 28.8939 43.5968C28.8939 43.8665 28.9838 44.0762 29.1636 44.2261C29.3434 44.3759 29.5532 44.4658 29.8529 44.4658C30.1226 44.4658 30.4222 44.3759 30.7519 44.2261L31.1115 44.0463V44.4358H31.7408L31.7108 44.4059ZM32.9994 44.4059V42.3381L33.2691 42.1284C33.4789 41.9785 33.7186 41.8886 33.9883 41.8886H34.1382V41.2593H33.9883C33.6887 41.2593 33.419 41.3792 33.1493 41.5889L32.9994 41.7388V41.2593H32.4001V44.3759H33.0294L32.9994 44.4059ZM36.5655 43.4769L36.0261 43.7466C35.8164 43.8665 35.6066 43.9264 35.3968 43.9264C35.277 43.9264 35.1571 43.8964 35.0971 43.8065C35.0372 43.7466 34.9773 43.6267 34.9773 43.5069C34.9773 43.2072 35.187 43.0573 35.5766 43.0573H36.5356V43.4469L36.5655 43.4769ZM37.1649 44.3759V42.3681C37.1649 42.0085 37.045 41.7088 36.8053 41.529C36.5655 41.3192 36.2359 41.2293 35.8164 41.2293C35.3968 41.2293 35.0672 41.3192 34.8274 41.529C34.5577 41.7388 34.4379 41.9785 34.4379 42.3381V42.3681H35.0372C35.0372 41.9486 35.3069 41.7687 35.8164 41.7687C36.2958 41.7687 36.5655 41.9785 36.5655 42.458V42.6378H35.5167C35.187 42.6378 34.8874 42.7277 34.6776 42.8775C34.4678 43.0274 34.348 43.2671 34.348 43.5668C34.348 43.8365 34.4379 44.0463 34.6177 44.1961C34.7975 44.3459 35.0072 44.4358 35.3069 44.4358C35.5766 44.4358 35.8763 44.3459 36.2059 44.1961L36.5655 44.0163V44.4059H37.1949L37.1649 44.3759ZM41.2405 44.3759V43.8365H40.8809C40.6711 43.8365 40.5212 43.8065 40.4313 43.7166C40.3414 43.6267 40.2815 43.4769 40.2815 43.2671V41.7687H41.2105V41.2593H40.2815V40.4202H39.6522V41.2593H39.1427V41.7687H39.6522V43.2971C39.6522 43.6567 39.7421 43.9264 39.9818 44.1062C40.1916 44.286 40.4913 44.3759 40.8509 44.3759H41.2704H41.2405ZM43.7877 43.1173C43.7877 43.357 43.7278 43.5668 43.548 43.7166C43.3981 43.8665 43.1883 43.9264 42.9486 43.9264C42.7089 43.9264 42.4991 43.8665 42.3493 43.7166C42.1994 43.5668 42.1095 43.387 42.1095 43.1173V42.5779C42.1095 42.3381 42.1694 42.1284 42.3493 41.9785C42.4991 41.8287 42.7089 41.7687 42.9486 41.7687C43.1883 41.7687 43.3981 41.8287 43.548 41.9785C43.6978 42.1284 43.7877 42.3082 43.7877 42.5779V43.1173ZM44.387 42.5179C44.387 42.1284 44.2672 41.8287 43.9675 41.5889C43.6978 41.3492 43.3681 41.2293 42.9186 41.2293C42.4991 41.2293 42.1395 41.3492 41.8698 41.5889C41.6001 41.8287 41.4502 42.1284 41.4502 42.5179V43.1772C41.4502 43.5668 41.6001 43.8665 41.8698 44.1062C42.1395 44.3459 42.4691 44.4658 42.9186 44.4658C43.3382 44.4658 43.6978 44.3459 43.9675 44.1062C44.2372 43.8665 44.387 43.5668 44.387 43.1772V42.5179ZM47.174 43.4469L46.6046 43.7466C46.4248 43.8365 46.275 43.8964 46.0952 43.8964C45.9154 43.8964 45.7955 43.8365 45.6756 43.7466C45.5857 43.6267 45.5258 43.5069 45.5258 43.3271V42.3981C45.5258 42.2183 45.5857 42.0984 45.6756 41.9785C45.7655 41.8586 45.9154 41.8287 46.0952 41.8287C46.275 41.8287 46.4248 41.8586 46.6046 41.9486L47.174 42.2482V43.4469ZM47.7734 44.3759V39.9707H47.174V41.6489L46.7844 41.4391C46.5447 41.2893 46.275 41.2293 46.0352 41.2293C45.7056 41.2293 45.4359 41.3192 45.2261 41.529C45.0163 41.7388 44.9264 41.9785 44.9264 42.3082V43.387C44.9264 43.6867 45.0163 43.9564 45.2261 44.1362C45.4359 44.3459 45.7056 44.4358 46.0053 44.4358C46.275 44.4358 46.5147 44.3759 46.7844 44.2261L47.174 44.0163V44.3759H47.7734ZM50.5603 43.4769L50.0209 43.7466C49.8111 43.8665 49.6014 43.9264 49.3916 43.9264C49.2717 43.9264 49.1519 43.8964 49.0919 43.8065C49.032 43.7466 48.972 43.6267 48.972 43.5069C48.972 43.2072 49.1818 43.0573 49.5714 43.0573H50.5304V43.4469L50.5603 43.4769ZM51.1597 44.3759V42.3681C51.1597 42.0085 51.0398 41.7088 50.8001 41.529C50.5603 41.3192 50.2307 41.2293 49.8111 41.2293C49.3916 41.2293 49.062 41.3192 48.8222 41.529C48.5525 41.7388 48.4326 41.9785 48.4326 42.3381V42.3681H49.032C49.032 41.9486 49.3017 41.7687 49.8111 41.7687C50.3206 41.7687 50.5603 41.9785 50.5603 42.458V42.6378H49.5115C49.1818 42.6378 48.8821 42.7277 48.6724 42.8775C48.4626 43.0274 48.3427 43.2671 48.3427 43.5668C48.3427 43.8365 48.4326 44.0463 48.6124 44.1961C48.7922 44.3459 49.002 44.4358 49.3017 44.4358C49.5714 44.4358 49.8711 44.3459 50.2007 44.1961L50.5603 44.0163V44.4059H51.1896L51.1597 44.3759ZM54.3961 42.2782V42.2482C54.3961 41.9486 54.2763 41.6788 54.0365 41.499C53.7968 41.3192 53.4672 41.2293 53.0476 41.2293C52.6281 41.2293 52.3284 41.3192 52.0887 41.499C51.8489 41.6788 51.729 41.8886 51.729 42.1883C51.729 42.428 51.8189 42.6078 51.9388 42.7577C52.0887 42.9075 52.2385 42.9674 52.4483 43.0274C52.658 43.0573 52.8678 43.0873 53.0476 43.1173C53.2574 43.1472 53.4072 43.1772 53.5571 43.2371C53.7069 43.2971 53.7668 43.387 53.7668 43.5368C53.7668 43.6567 53.7069 43.7766 53.587 43.8365C53.4672 43.9264 53.2874 43.9564 53.0476 43.9564C52.5382 43.9564 52.2984 43.7766 52.2984 43.417H51.6691V43.4469C51.6691 43.7466 51.789 43.9863 52.0287 44.1661C52.2685 44.3459 52.5981 44.4358 53.0476 44.4358C53.4672 44.4358 53.7968 44.3459 54.0365 44.1661C54.2763 43.9863 54.3961 43.7766 54.3961 43.4769C54.3961 43.2671 54.3362 43.1173 54.2463 42.9974C54.1564 42.8775 54.0066 42.7876 53.8567 42.7577C53.7069 42.7277 53.5271 42.6678 53.3473 42.6378C53.1675 42.6078 53.0176 42.5779 52.8378 42.5779C52.688 42.5479 52.5681 42.5179 52.4483 42.458C52.3584 42.3981 52.2984 42.3082 52.2984 42.1583C52.2984 42.0385 52.3584 41.9186 52.4782 41.8586C52.5981 41.7687 52.7779 41.7388 53.0176 41.7388C53.4971 41.7388 53.7369 41.9186 53.7369 42.2782L54.3362 42.3082L54.3961 42.2782Z" fill="#929292"/>
<path d="M2.79217 50.641L2.25276 50.9107C2.04299 51.0305 1.83322 51.0905 1.62344 51.0905C1.50357 51.0905 1.3837 51.0605 1.32377 50.9706C1.26383 50.9107 1.2039 50.7908 1.2039 50.6709C1.2039 50.3712 1.41367 50.2214 1.80325 50.2214H2.7622V50.611L2.79217 50.641ZM3.39152 51.54V49.5322C3.39152 49.1725 3.27165 48.8729 3.03191 48.6931C2.79217 48.4833 2.46253 48.3934 2.04299 48.3934C1.62344 48.3934 1.2938 48.4833 1.05406 48.6931C0.784357 48.9028 0.664487 49.1426 0.664487 49.5022V49.5322H1.26383C1.26383 49.1126 1.53354 48.9328 2.04299 48.9328C2.52247 48.9328 2.79217 49.1426 2.79217 49.6221V49.8019H1.74331C1.41367 49.8019 1.114 49.8918 0.904226 50.0416C0.694455 50.1914 0.574585 50.4312 0.574585 50.7309C0.574585 51.0006 0.664487 51.2103 0.844291 51.3602C1.0241 51.51 1.23387 51.5999 1.53354 51.5999C1.80325 51.5999 2.10292 51.51 2.43256 51.3602L2.79217 51.1804V51.5699H3.42149L3.39152 51.54ZM6.628 49.4423V49.4123C6.628 49.1126 6.50813 48.8429 6.26839 48.6631C6.02865 48.4833 5.69901 48.3934 5.27946 48.3934C4.85992 48.3934 4.56025 48.4833 4.32051 48.6631C4.08077 48.8429 3.9609 49.0527 3.9609 49.3524C3.9609 49.5921 4.02083 49.7719 4.17067 49.9217C4.32051 50.0716 4.47035 50.1315 4.68012 50.1914C4.88989 50.2214 5.09966 50.2514 5.27946 50.2813C5.48924 50.3113 5.63907 50.3413 5.78891 50.4012C5.93875 50.4611 5.99868 50.551 5.99868 50.7009C5.99868 50.8208 5.93875 50.9406 5.81888 51.0006C5.69901 51.0905 5.5192 51.1204 5.27946 51.1204C4.77002 51.1204 4.53028 50.9406 4.53028 50.581H3.90097V50.611C3.90097 50.9107 4.02083 51.1504 4.26057 51.3302C4.50031 51.51 4.82995 51.5999 5.27946 51.5999C5.69901 51.5999 6.02865 51.51 6.26839 51.3302C6.50813 51.1504 6.628 50.9406 6.628 50.641C6.628 50.4312 6.56806 50.2813 6.47816 50.1615C6.38826 50.0416 6.23842 49.9517 6.08858 49.9217C5.93875 49.8918 5.75894 49.8318 5.57914 49.8019C5.39933 49.7719 5.2495 49.7419 5.06969 49.7419C4.91986 49.712 4.79999 49.682 4.68012 49.6221C4.59022 49.5621 4.53028 49.4722 4.53028 49.3224C4.53028 49.2025 4.59022 49.0826 4.71008 49.0227C4.82995 48.9328 5.00976 48.9028 5.2495 48.9028C5.72898 48.9028 5.96871 49.0826 5.96871 49.4423L6.56806 49.4722L6.628 49.4423ZM9.4749 51.5699V49.5022L9.74461 49.2924C9.95438 49.1426 10.1941 49.0527 10.4638 49.0527H10.6137V48.4234H10.4339C10.1342 48.4234 9.86448 48.5432 9.59477 48.753L9.44493 48.9028V48.4234H8.84558V51.54H9.4749V51.5699ZM13.6703 50.581H13.071C13.071 50.9406 12.8013 51.1204 12.2918 51.1204C12.0521 51.1204 11.8423 51.0605 11.6925 50.9406C11.5426 50.8208 11.4827 50.641 11.4827 50.4012V50.2214H13.6703V49.682C13.6703 49.2924 13.5505 48.9628 13.2808 48.753C13.0111 48.5133 12.6814 48.3934 12.2619 48.3934C11.8423 48.3934 11.5127 48.5133 11.243 48.753C10.9733 48.9927 10.8534 49.2924 10.8534 49.682V50.4312C10.8534 50.7908 10.9733 51.0905 11.243 51.3002C11.5127 51.51 11.8423 51.6299 12.2619 51.6299C12.6814 51.6299 13.0111 51.54 13.2508 51.3602C13.4905 51.1804 13.6104 50.9406 13.6104 50.641V50.611L13.6703 50.581ZM13.101 49.8019H11.4827V49.712C11.4827 49.4722 11.5426 49.2924 11.6925 49.1426C11.8423 48.9927 12.0221 48.9328 12.2918 48.9328C12.5316 48.9328 12.7413 48.9927 12.8912 49.1126C13.041 49.2325 13.101 49.4423 13.101 49.682V49.7719V49.8019ZM16.0677 51.3602C16.2775 51.3602 16.4273 51.3901 16.5172 51.4501C16.6071 51.51 16.6671 51.5999 16.6671 51.7497C16.6671 52.0794 16.3674 52.2592 15.798 52.2592C15.4983 52.2592 15.2586 52.1993 15.1387 52.0794C15.0189 51.9595 14.9589 51.7797 14.9589 51.51V51.3602H16.0677ZM15.4983 49.9817C15.0788 49.9817 14.899 49.8019 14.899 49.4722C14.899 49.2924 14.9589 49.1426 15.0488 49.0527C15.1387 48.9628 15.3185 48.9328 15.5283 48.9328H15.828C16.2475 48.9328 16.4573 49.1126 16.4573 49.4423C16.4573 49.8019 16.2176 49.9517 15.7681 49.9517H15.5283L15.4983 49.9817ZM15.798 50.4312C16.1576 50.4312 16.4573 50.3413 16.6671 50.1615C16.8768 49.9817 16.9967 49.7419 16.9967 49.4423C16.9967 49.2025 16.9368 49.0527 16.8169 48.9628H17.2964V48.4533H15.4684C15.1088 48.4533 14.8391 48.5432 14.6293 48.723C14.4195 48.9028 14.3296 49.1426 14.3296 49.4722C14.3296 49.5921 14.3596 49.712 14.3896 49.8019C14.4195 49.8918 14.4795 49.9517 14.4795 49.9817C14.5094 50.0116 14.5394 50.0416 14.5394 50.0416C14.3896 50.0716 14.2996 50.1615 14.2097 50.2514C14.1198 50.3413 14.0899 50.4911 14.0899 50.641C14.0899 50.9107 14.1798 51.0905 14.4195 51.1804V51.48C14.4195 52.2892 14.899 52.6787 15.828 52.6787C16.2775 52.6787 16.6371 52.5888 16.8768 52.409C17.1466 52.2292 17.2664 51.9895 17.2664 51.6898C17.2664 51.1204 16.8768 50.8507 16.1277 50.8507H14.8391C14.6892 50.8507 14.5993 50.7908 14.5993 50.641C14.5993 50.4911 14.6892 50.4312 14.8391 50.4312H15.798ZM18.3153 51.5699V48.4533H17.686V51.5699H18.3153ZM18.3452 47.4344C18.3452 47.3445 18.3153 47.2846 18.2553 47.2247C18.1954 47.1647 18.1055 47.1348 17.9856 47.1348C17.8658 47.1348 17.7759 47.1647 17.7159 47.2247C17.656 47.2846 17.626 47.3445 17.626 47.4344V47.5543C17.626 47.6442 17.656 47.7041 17.7159 47.7641C17.7759 47.824 17.8658 47.854 17.9856 47.854C18.0755 47.854 18.1654 47.824 18.2553 47.7641C18.3153 47.7041 18.3452 47.6442 18.3452 47.5543V47.4344ZM21.2221 50.2813C21.2221 50.5211 21.1622 50.7309 20.9824 50.8807C20.8325 51.0305 20.6228 51.0905 20.383 51.0905C20.1433 51.0905 19.9335 51.0305 19.7837 50.8807C19.6338 50.7309 19.5439 50.551 19.5439 50.2813V49.7419C19.5439 49.5022 19.6039 49.2924 19.7837 49.1426C19.9335 48.9927 20.1433 48.9328 20.383 48.9328C20.6228 48.9328 20.8325 48.9927 20.9824 49.1426C21.1322 49.2924 21.2221 49.4722 21.2221 49.7419V50.2813ZM21.8215 49.682C21.8215 49.2924 21.7016 48.9927 21.4019 48.753C21.1322 48.5133 20.8026 48.3934 20.3531 48.3934C19.9335 48.3934 19.5739 48.5133 19.3042 48.753C19.0345 48.9927 18.8847 49.2924 18.8847 49.682V50.3413C18.8847 50.7309 19.0345 51.0305 19.3042 51.2703C19.5739 51.51 19.9036 51.6299 20.3531 51.6299C20.7726 51.6299 21.1322 51.51 21.4019 51.2703C21.6716 51.0305 21.8215 50.7309 21.8215 50.3413V49.682ZM21.6417 47.1647H21.1322C21.1322 47.4045 21.0423 47.5243 20.8625 47.5243C20.7726 47.5243 20.7127 47.4944 20.6228 47.4344C20.5329 47.3745 20.443 47.3146 20.3231 47.2247C20.2032 47.1647 20.0834 47.1348 19.9335 47.1348C19.6938 47.1348 19.514 47.1947 19.3941 47.3445C19.2742 47.4944 19.1843 47.6742 19.1843 47.9139V47.9439H19.7237C19.7237 47.824 19.7537 47.7341 19.7837 47.6742C19.8436 47.6142 19.9036 47.5843 19.9935 47.5843C20.0534 47.5843 20.1133 47.6142 20.1733 47.6442C20.2332 47.6742 20.2931 47.7341 20.3531 47.7641C20.413 47.824 20.4729 47.854 20.5928 47.884C20.6827 47.9139 20.8026 47.9439 20.8925 47.9439C21.1322 47.9439 21.312 47.854 21.4319 47.7341C21.5518 47.5843 21.6117 47.4045 21.6117 47.1647L21.5817 47.1348L21.6417 47.1647ZM25.1478 50.581H24.5485C24.5485 50.9406 24.2788 51.1204 23.7693 51.1204C23.5296 51.1204 23.3198 51.0605 23.17 50.9406C23.0202 50.8208 22.9602 50.641 22.9602 50.4012V50.2214H25.1478V49.682C25.1478 49.2924 25.028 48.9628 24.7583 48.753C24.4886 48.5133 24.1589 48.3934 23.7394 48.3934C23.3198 48.3934 22.9902 48.5133 22.7205 48.753C22.4508 48.9927 22.3309 49.2924 22.3309 49.682V50.4312C22.3309 50.7908 22.4508 51.0905 22.7205 51.3002C22.9902 51.51 23.3198 51.6299 23.7394 51.6299C24.1589 51.6299 24.4886 51.54 24.7283 51.3602C24.968 51.1804 25.0879 50.9406 25.0879 50.641V50.611L25.1478 50.581ZM24.5785 49.8019H22.9602V49.712C22.9602 49.4722 23.0501 49.2924 23.17 49.1426C23.3198 48.9927 23.4996 48.9328 23.7693 48.9328C24.0091 48.9328 24.2189 48.9927 24.3687 49.1126C24.5185 49.2325 24.5785 49.4423 24.5785 49.682V49.7719V49.8019ZM28.3843 49.4722V49.4423C28.3843 49.1426 28.2645 48.8729 28.0247 48.6931C27.785 48.5133 27.4553 48.4234 27.0358 48.4234C26.6162 48.4234 26.3166 48.5133 26.0768 48.6931C25.8371 48.8729 25.7172 49.0826 25.7172 49.3823C25.7172 49.6221 25.7772 49.8019 25.927 49.9517C26.0768 50.1015 26.2267 50.1615 26.4364 50.2214C26.6462 50.2514 26.826 50.2813 27.0358 50.3113C27.2456 50.3413 27.3954 50.3712 27.5452 50.4312C27.6951 50.4911 27.755 50.581 27.755 50.7309C27.755 50.8507 27.6951 50.9706 27.5752 51.0305C27.4553 51.1204 27.2755 51.1504 27.0358 51.1504C26.5263 51.1504 26.2866 50.9706 26.2866 50.611H25.6573V50.641C25.6573 50.9406 25.7772 51.1804 26.0169 51.3602C26.2566 51.54 26.5863 51.6299 27.0358 51.6299C27.4553 51.6299 27.785 51.54 28.0247 51.3602C28.2645 51.1804 28.3843 50.9706 28.3843 50.6709C28.3843 50.4611 28.3244 50.3113 28.2345 50.1914C28.1446 50.0716 27.9947 49.9817 27.8449 49.9517C27.6951 49.9217 27.5153 49.8618 27.3355 49.8318C27.1557 49.8019 27.0058 49.7719 26.826 49.7719C26.6762 49.7419 26.5563 49.712 26.4364 49.652C26.3465 49.5921 26.2866 49.5022 26.2866 49.3524C26.2866 49.2325 26.3465 49.1126 26.4664 49.0527C26.5863 48.9628 26.7661 48.9328 27.0058 48.9328C27.4853 48.9328 27.725 49.1126 27.725 49.4722L28.3244 49.5022L28.3843 49.4722ZM32.7596 50.641L32.1902 50.9406C32.0104 51.0305 31.8605 51.0905 31.6807 51.0905C31.5009 51.0905 31.3811 51.0305 31.2612 50.9406C31.1713 50.8208 31.1114 50.7009 31.1114 50.5211V49.5921C31.1114 49.4123 31.1713 49.2924 31.2612 49.1726C31.3511 49.0527 31.5009 49.0227 31.6807 49.0227C31.8306 49.0227 32.0104 49.0527 32.1902 49.1426L32.7596 49.4423V50.641ZM33.3589 51.5699V47.1647H32.7596V48.8429L32.37 48.6331C32.1302 48.4833 31.8605 48.4234 31.6208 48.4234C31.2912 48.4234 31.0215 48.5133 30.8117 48.723C30.6019 48.9328 30.512 49.1725 30.512 49.5022V50.581C30.512 50.8807 30.6019 51.1504 30.8117 51.3302C31.0215 51.54 31.2912 51.6299 31.5908 51.6299C31.8605 51.6299 32.1003 51.5699 32.37 51.4201L32.7596 51.2103V51.5699H33.3589ZM36.1459 50.6709L35.6065 50.9406C35.3967 51.0605 35.1869 51.1204 34.9771 51.1204C34.8573 51.1204 34.7374 51.0905 34.6775 51.0006C34.6175 50.9406 34.5576 50.8208 34.5576 50.7009C34.5576 50.4012 34.7674 50.2514 35.157 50.2514H36.1159V50.641L36.1459 50.6709ZM36.7452 51.5699V49.5621C36.7452 49.2025 36.6254 48.9028 36.3856 48.723C36.1459 48.5133 35.8162 48.4234 35.3967 48.4234C34.9771 48.4234 34.6475 48.5133 34.4078 48.723C34.1381 48.9328 34.0182 49.1725 34.0182 49.5322V49.5621H34.6175C34.6175 49.1426 34.8872 48.9628 35.3967 48.9628C35.9061 48.9628 36.1459 49.1726 36.1459 49.652V49.8318H35.097C34.7674 49.8318 34.4677 49.9217 34.2579 50.0716C34.0482 50.2214 33.9283 50.4611 33.9283 50.7608C33.9283 51.0305 34.0182 51.2403 34.198 51.3901C34.3778 51.54 34.5876 51.6299 34.8872 51.6299C35.157 51.6299 35.4566 51.54 35.7863 51.3901L36.1459 51.2103V51.5999H36.7752L36.7452 51.5699ZM41.2703 50.4911C41.2703 50.6709 41.2104 50.7908 41.1205 50.9107C41.0306 51.0305 40.8807 51.0605 40.7009 51.0605C40.5511 51.0605 40.3713 51.0006 40.1915 50.9107L39.6221 50.611V49.4123L40.1915 49.1126C40.3713 49.0227 40.5211 48.9927 40.7009 48.9927C40.8807 48.9927 41.0006 49.0527 41.1205 49.1426C41.2104 49.2625 41.2703 49.3823 41.2703 49.5621V50.4911ZM40.0117 51.4201C40.2814 51.5699 40.5211 51.6299 40.7609 51.6299C41.0905 51.6299 41.3602 51.54 41.54 51.3302C41.7498 51.1204 41.8397 50.8807 41.8397 50.581V49.5022C41.8397 49.2025 41.7498 48.9328 41.54 48.753C41.3302 48.5432 41.0605 48.4533 40.7609 48.4533C40.5211 48.4533 40.2514 48.5133 40.0117 48.6631L39.6221 48.8729V47.1947H39.0227V51.5999H39.6221V51.2403L40.0117 51.4501V51.4201ZM44.6866 50.3113C44.6866 50.551 44.6266 50.7608 44.4468 50.9107C44.297 51.0605 44.0872 51.1204 43.8475 51.1204C43.6078 51.1204 43.398 51.0605 43.2481 50.9107C43.0983 50.7608 43.0084 50.581 43.0084 50.3113V49.7719C43.0084 49.5322 43.0683 49.3224 43.2481 49.1726C43.398 49.0227 43.6078 48.9628 43.8475 48.9628C44.0872 48.9628 44.297 49.0227 44.4468 49.1726C44.5967 49.3224 44.6866 49.5022 44.6866 49.7719V50.3113ZM45.2859 49.712C45.2859 49.3224 45.1661 49.0227 44.8964 48.783C44.6266 48.5432 44.297 48.4234 43.8475 48.4234C43.428 48.4234 43.0683 48.5432 42.7986 48.783C42.5289 49.0227 42.3791 49.3224 42.3791 49.712V50.3712C42.3791 50.7608 42.5289 51.0605 42.7986 51.3002C43.0683 51.54 43.398 51.6598 43.8475 51.6598C44.267 51.6598 44.6266 51.54 44.8964 51.3002C45.1661 51.0605 45.2859 50.7608 45.2859 50.3712V49.712ZM48.5524 50.4312H47.953C47.953 50.8807 47.6833 51.0905 47.1739 51.0905C46.6944 51.0905 46.4247 50.8507 46.4247 50.3712V49.682C46.4247 49.2025 46.6644 48.9628 47.1739 48.9628C47.6833 48.9628 47.953 49.1726 47.953 49.6221H48.5524V49.5621C48.5524 49.2025 48.4325 48.9028 48.1928 48.6931C47.953 48.4833 47.6234 48.3934 47.2038 48.3934C46.7843 48.3934 46.4846 48.5133 46.2149 48.723C45.9752 48.9328 45.8553 49.2325 45.8553 49.5921V50.3712C45.8553 50.7608 45.9752 51.0605 46.2149 51.2703C46.4547 51.48 46.7843 51.5999 47.2038 51.5999C47.6234 51.5999 47.953 51.51 48.1928 51.3002C48.4325 51.0905 48.5524 50.8208 48.5524 50.4312ZM51.2195 50.6709L50.6801 50.9406C50.4703 51.0605 50.2605 51.1204 50.0507 51.1204C49.9309 51.1204 49.811 51.0905 49.7511 51.0006C49.6911 50.9406 49.6312 50.8208 49.6312 50.7009C49.6312 50.4012 49.841 50.2514 50.2305 50.2514H51.1895V50.641L51.2195 50.6709ZM51.8188 51.5699V49.5621C51.8188 49.2025 51.6989 48.9028 51.4592 48.723C51.2195 48.5133 50.8898 48.4234 50.4703 48.4234C50.0507 48.4234 49.7211 48.5133 49.4814 48.723C49.2117 48.9328 49.0918 49.1725 49.0918 49.5322V49.5621H49.6911C49.6911 49.1426 49.9608 48.9628 50.4703 48.9628C50.9498 48.9628 51.2195 49.1726 51.2195 49.652V49.8318H50.1706C49.841 49.8318 49.5413 49.9217 49.3315 50.0716C49.1218 50.2214 49.0019 50.4611 49.0019 50.7608C49.0019 51.0305 49.0918 51.2403 49.2716 51.3901C49.4514 51.54 49.6612 51.6299 49.9608 51.6299C50.2305 51.6299 50.5302 51.54 50.8599 51.3901L51.2195 51.2103V51.5999H51.8488L51.8188 51.5699ZM53.1374 51.2103C53.1374 51.1204 53.1074 51.0605 53.0475 51.0006C52.9875 50.9406 52.8976 50.9107 52.7778 50.9107C52.6579 50.9107 52.568 50.9406 52.5081 51.0006C52.4481 51.0605 52.4182 51.1204 52.4182 51.2103V51.3302C52.4182 51.4201 52.4481 51.51 52.5081 51.54C52.568 51.5999 52.6579 51.6299 52.7778 51.6299C52.8677 51.6299 52.9576 51.5999 53.0475 51.54C53.1074 51.48 53.1374 51.4201 53.1374 51.3302V51.2103Z" fill="#929292"/>
</svg>
