<svg width="54" height="53" viewBox="0 0 54 53" fill="none" xmlns="http://www.w3.org/2000/svg">
<path d="M8.17327 10.309C8.06163 10.309 7.86066 10.2866 7.70435 10.2643C7.12378 10.2196 6.52088 9.88469 6.31991 9.50509C6.11895 9.28179 6.18594 8.67889 6.45389 8.14298C6.90048 7.27212 7.39174 6.84786 7.92765 6.84786C8.10628 6.78087 8.6422 7.00417 9.13345 7.31678C9.33441 7.45076 10.0266 7.80803 10.1606 8.29929C10.116 9.05849 9.80334 9.8177 9.46839 10.0187C9.42373 10.041 9.35674 10.0857 9.31208 10.108L9.26742 10.1303C9.24509 10.1303 9.20044 10.1526 9.15578 10.175C9.13345 10.175 9.13345 10.175 9.11112 10.1973H9.08879C9.06646 10.1973 9.0218 10.2196 8.99947 10.2196C8.97714 10.2196 8.95481 10.242 8.93248 10.242C8.91015 10.242 8.86549 10.2643 8.84316 10.2643C8.82083 10.2643 8.50822 10.309 8.46356 10.3313H8.44123C8.44123 10.3313 8.4189 10.3313 8.39657 10.3313C8.35191 10.3313 8.30725 10.3313 8.26259 10.3313C8.24026 10.3313 8.1956 10.3313 8.1956 10.3313L8.17327 10.309Z" stroke="#919291"/>
<path d="M29.3872 10.309C29.4988 10.309 29.6998 10.2866 29.8561 10.2643C30.4143 10.2196 31.0396 9.88469 31.2405 9.50509C31.4415 9.28179 31.3745 8.67889 31.1065 8.14298C30.66 7.27212 30.1687 6.84786 29.6328 6.84786C29.4542 6.78087 28.9182 7.00417 28.427 7.31678C28.226 7.45076 27.5338 7.80803 27.3998 8.29929C27.4445 9.05849 27.7571 9.8177 28.092 10.0187C28.1367 10.041 28.2037 10.0857 28.2484 10.108L28.293 10.1303C28.3153 10.1303 28.36 10.1526 28.4047 10.175C28.427 10.175 28.427 10.175 28.4493 10.1973H28.4716C28.494 10.1973 28.5386 10.2196 28.561 10.2196C28.5833 10.2196 28.6056 10.242 28.628 10.242C28.6503 10.242 28.6949 10.2643 28.7173 10.2643C28.7396 10.2643 29.0522 10.309 29.0969 10.3313H29.1192C29.1192 10.3313 29.1415 10.3313 29.1639 10.3313C29.2085 10.3313 29.2532 10.3313 29.2978 10.3313C29.3202 10.3313 29.3648 10.3313 29.3648 10.3313L29.3872 10.309Z" stroke="#919291"/>
<path d="M17.2394 4.25724C16.7035 4.25724 16.1229 4.12326 15.654 3.11842C15.6093 3.02911 15.587 2.96212 15.5423 2.89513C15.5423 2.89513 15.5423 2.89513 15.5423 2.8728C15.52 2.80581 15.4977 2.73882 15.4753 2.67183C15.2744 2.11359 15.2744 1.64467 15.453 1.2874C15.654 0.930122 16.1006 0.684496 16.7704 0.572848C17.0161 0.528189 17.2394 0.505859 17.418 0.505859C17.8423 0.505859 18.1325 0.595178 18.3335 0.796144C18.5791 1.0641 18.6461 1.51069 18.5791 2.2699C18.4228 4.0786 17.8646 4.23491 17.2394 4.23491V4.25724Z" fill="#929292"/>
<path d="M13.7336 5.35008C13.287 5.35008 12.8404 5.10446 12.3268 4.56855C12.3268 4.56855 12.3268 4.56855 12.3045 4.54622C12.2598 4.50156 12.2152 4.4569 12.1705 4.38991C11.7686 3.94332 11.6123 3.54138 11.6792 3.18411C11.7462 2.80451 12.0812 2.46956 12.6394 2.15695C13.1083 1.91132 13.5103 1.77734 13.8229 1.77734C14.3588 1.77734 14.6714 2.13462 14.917 3.09479C15.3636 4.74718 14.8724 5.0598 14.2695 5.26076C14.0462 5.32775 13.8675 5.37241 13.6889 5.37241L13.7336 5.35008Z" fill="#929292"/>
<path d="M11.1212 7.40614C10.8086 7.40614 10.4513 7.29449 10.0047 7.09353C10.0047 7.09353 10.0047 7.09353 9.98238 7.09353C9.91539 7.0712 9.8484 7.02654 9.80374 7.00421C9.26783 6.73625 8.95521 6.40131 8.8659 6.04403C8.77658 5.66443 8.93288 5.24017 9.31249 4.74892C9.75908 4.16835 10.161 3.90039 10.5183 3.90039C10.8756 3.90039 11.2552 4.16835 11.7241 4.79358C12.7959 6.17801 12.4833 6.64693 12.0367 7.02654C11.7241 7.29449 11.4561 7.40614 11.1212 7.40614Z" fill="#929292"/>
<path d="M6.11939 14.0821C6.00775 14.0821 5.78445 14.0821 5.60581 14.0598C5.13689 14.0598 4.53399 13.6802 4.26604 13.2336C4.04274 12.9656 4.02041 12.385 4.22138 11.8938C4.77962 10.5987 5.31553 10.4424 5.69513 10.4424C5.87377 10.3977 6.38735 10.5763 6.85627 10.8666C7.1019 11.0006 7.43684 11.2686 7.61548 11.4919C7.63781 11.5365 7.68247 11.5588 7.7048 11.6035V11.6258C7.74946 11.6928 7.79412 11.7821 7.83878 11.8491C7.86111 11.8715 7.86111 11.9161 7.88343 11.9608C7.88343 11.9831 7.90576 12.0278 7.92809 12.0724C7.92809 12.1171 7.95042 12.1394 7.95042 12.1841V12.2064C7.95042 12.2287 7.95042 12.2734 7.95042 12.3181C7.95042 12.3404 7.95042 12.385 7.95042 12.4074C7.95042 12.452 7.95042 12.4744 7.95042 12.519V12.5413C7.95042 12.5637 7.95042 12.6083 7.92809 12.6307C7.92809 12.6753 7.90576 12.6977 7.90576 12.72V12.7646C7.90576 12.787 7.88343 12.8316 7.88343 12.854L7.86111 12.8986C7.86111 12.9209 7.83878 12.9433 7.83878 12.9656L7.81645 13.0103C7.79412 13.0326 7.79412 13.0773 7.77179 13.0996L7.74946 13.1219C7.74946 13.1442 7.72713 13.1889 7.7048 13.2112C7.68247 13.2559 7.66014 13.2782 7.63781 13.3229L7.61548 13.3675C7.61548 13.3899 7.59315 13.4122 7.57082 13.4345C7.57082 13.4345 7.54849 13.4569 7.54849 13.4792C7.54849 13.5015 7.52616 13.5238 7.50383 13.5238C7.50383 13.5238 7.4815 13.5462 7.45917 13.5685C7.45917 13.5685 7.43684 13.5908 7.43684 13.6132C7.41451 13.6355 7.41451 13.6578 7.39218 13.6578L7.36985 13.6802C7.32519 13.7471 7.19122 13.8365 7.05724 13.9035C7.03491 13.9035 6.99025 13.9258 6.96792 13.9481C6.92326 13.9704 6.90093 13.9704 6.85627 13.9928C6.74462 14.0374 6.40968 14.0821 6.14172 14.1044H6.11939V14.0821Z" stroke="#919291"/>
<path d="M31.4179 14.0821C31.5295 14.0821 31.7528 14.0821 31.9314 14.0598C32.4004 14.0598 33.0033 13.6802 33.2712 13.2336C33.4945 12.9656 33.5168 12.385 33.3159 11.8938C32.7576 10.5987 32.2217 10.4424 31.8421 10.4424C31.6635 10.3977 31.1499 10.5763 30.681 10.8666C30.4353 11.0006 30.1004 11.2686 29.9218 11.4919C29.8994 11.5365 29.8548 11.5588 29.8324 11.6035V11.6258C29.7878 11.6928 29.7431 11.7821 29.6985 11.8491C29.6761 11.8715 29.6761 11.9161 29.6538 11.9608C29.6538 11.9831 29.6315 12.0278 29.6092 12.0724C29.6092 12.1171 29.5868 12.1394 29.5868 12.1841V12.2064C29.5868 12.2287 29.5868 12.2734 29.5868 12.3181C29.5868 12.3404 29.5868 12.385 29.5868 12.4074C29.5868 12.452 29.5868 12.4744 29.5868 12.519V12.5413C29.5868 12.5637 29.5868 12.6083 29.6092 12.6307C29.6092 12.6753 29.6315 12.6977 29.6315 12.72V12.7646C29.6315 12.787 29.6538 12.8316 29.6538 12.854L29.6761 12.8986C29.6761 12.9209 29.6985 12.9433 29.6985 12.9656L29.7208 13.0103C29.7208 13.0326 29.7431 13.0773 29.7655 13.0996L29.7878 13.1219C29.7878 13.1442 29.8101 13.1889 29.8324 13.2112C29.8548 13.2559 29.8771 13.2782 29.8994 13.3229L29.9218 13.3675C29.9218 13.3899 29.9441 13.4122 29.9664 13.4345C29.9664 13.4345 29.9888 13.4569 29.9888 13.4792C29.9888 13.5015 30.0111 13.5238 30.0334 13.5238C30.0334 13.5238 30.0557 13.5462 30.0781 13.5685C30.0781 13.5685 30.1004 13.5908 30.1004 13.6132C30.1227 13.6355 30.1227 13.6578 30.1451 13.6578L30.1674 13.6802C30.2121 13.7471 30.346 13.8365 30.48 13.9035C30.5023 13.9035 30.547 13.9258 30.5693 13.9481C30.614 13.9704 30.6363 13.9704 30.681 13.9928C30.7926 14.0374 31.1276 14.0821 31.3955 14.1044H31.4179V14.0821Z" stroke="#919291"/>
<path d="M3.08215 24.4653C2.61322 24.4429 2.09964 24.3983 1.92101 24.3759C1.85402 24.3759 1.7647 24.3313 1.67538 24.2866C1.07248 24.108 0.5589 23.1031 0.53657 22.0313C0.469581 21.2944 0.715207 20.3789 1.09481 19.9993C1.3851 19.709 1.80936 19.5527 2.3676 19.5527C2.50158 19.5527 2.81419 19.5751 3.08215 19.6197C3.64039 19.6644 4.42192 19.9547 4.84619 20.2896C4.91318 20.3343 5.00249 20.4013 5.04715 20.4459C5.31511 20.5799 5.58306 21.2721 5.67238 22.009C5.67238 22.0537 5.69471 22.1653 5.69471 22.2546C5.78403 22.7012 5.53841 23.3488 5.13647 23.7284C5.00249 23.8847 4.60056 24.1303 4.19863 24.3089C4.1763 24.3089 4.13164 24.3313 4.10931 24.3536C3.86368 24.4429 3.50641 24.4876 3.08215 24.4876V24.4653Z" stroke="#919291"/>
<path d="M34.4558 24.4653C34.9247 24.4429 35.4383 24.3983 35.6169 24.3759C35.6839 24.3759 35.7732 24.3313 35.8625 24.2866C36.4654 24.108 36.979 23.1031 37.0013 22.0313C37.0683 21.2944 36.8227 20.3789 36.4431 19.9993C36.1528 19.709 35.7285 19.5527 35.1703 19.5527C35.0363 19.5527 34.7237 19.5751 34.4558 19.6197C33.8975 19.6644 33.116 19.9547 32.6917 20.2896C32.6247 20.3343 32.5354 20.4013 32.4907 20.4459C32.2228 20.5799 31.9548 21.2721 31.8655 22.009C31.8655 22.0537 31.8432 22.1653 31.8432 22.2546C31.7539 22.7012 31.9995 23.3488 32.4014 23.7284C32.5354 23.8847 32.9373 24.1303 33.3393 24.3089C33.3616 24.3089 33.4063 24.3313 33.4286 24.3536C33.6742 24.4429 34.0315 24.4876 34.4558 24.4876V24.4653Z" stroke="#919291"/>
<path d="M4.51091 19.2843C4.39926 19.2843 4.1983 19.2619 4.06432 19.2396C3.975 19.2173 3.86335 19.1949 3.77403 19.1726C3.70704 19.1503 3.43909 19.0833 3.21579 18.994C2.88085 18.9047 2.43426 18.5474 2.21096 18.1901C1.87601 17.7882 1.71971 16.828 1.89834 16.0465C2.14397 14.9077 2.85852 14.2601 3.88568 14.2601C4.24295 14.2154 4.91284 14.4164 5.35944 14.729C6.20796 15.4436 6.85552 16.4261 6.81086 16.9397C6.81086 17.0066 6.78853 17.1406 6.7662 17.2299V17.2523C6.7662 17.2969 6.72154 17.4086 6.69921 17.4979L6.67688 17.5426L6.65455 17.6319L6.63222 17.6765L6.60989 17.7212C6.60989 17.7435 6.58756 17.8105 6.56523 17.8328C6.5429 17.8775 6.52058 17.9668 6.47592 18.0338C6.40893 18.2124 6.1633 18.5251 5.96233 18.726C5.80603 18.9047 5.42642 19.1056 5.09148 19.1949C5.06915 19.1949 5.04682 19.1949 5.02449 19.2173C4.97983 19.2396 4.86818 19.2396 4.80119 19.2619C4.71188 19.2843 4.60023 19.2843 4.48858 19.2843H4.51091Z" stroke="#919291"/>
<path d="M33.0493 19.0389C33.1163 19.0389 33.2949 19.0166 33.4512 18.9943C33.5182 18.9719 33.6522 18.9496 33.7415 18.9273C33.8308 18.9049 34.0541 18.838 34.2774 18.7486C34.5677 18.6816 34.9696 18.3467 35.1483 18.0564C35.4386 17.7215 35.5949 16.8729 35.4386 16.0914C35.2153 15.0643 34.59 14.506 33.6969 14.506C33.4066 14.4837 32.8037 14.64 32.3571 14.9303C31.5309 15.6225 30.995 16.538 31.0173 16.9176C31.0173 16.9846 31.0396 17.0962 31.062 17.1856C31.0843 17.2526 31.1066 17.3642 31.129 17.4312L31.1736 17.5875L31.2406 17.7661C31.2406 17.7885 31.2853 17.8778 31.3076 17.9224C31.3746 18.0787 31.5755 18.369 31.7765 18.5477C31.9105 18.6816 32.2454 18.8826 32.5357 18.9719C32.6474 18.9943 32.7144 19.0166 32.7813 19.0166C32.8707 19.0389 32.96 19.0389 33.0493 19.0389Z" stroke="#919291"/>
<path d="M20.6333 4.25639C20.008 4.25639 19.4498 4.10008 19.2935 2.29138C19.2265 1.53218 19.2935 1.08558 19.5391 0.817629C19.7177 0.616662 20.008 0.527344 20.4546 0.527344C20.6556 0.527344 20.8565 0.549673 21.1022 0.594333C21.7721 0.705981 22.1963 0.951607 22.4196 1.30888C22.6206 1.64382 22.6206 2.11275 22.3973 2.69332C22.375 2.76031 22.3526 2.82729 22.3303 2.89428V2.91661C22.308 2.9836 22.2633 3.05059 22.241 3.13991C21.7497 4.14474 21.1915 4.27872 20.6556 4.27872L20.6333 4.25639Z" fill="#929292"/>
<path d="M24.1612 5.35093C23.9825 5.35093 23.8039 5.3286 23.5806 5.23928C23 5.03831 22.5088 4.7257 22.9331 3.07331C23.1787 2.13546 23.4913 1.75586 24.0272 1.75586C24.3398 1.75586 24.7417 1.88984 25.2107 2.13546C25.7912 2.44808 26.1039 2.78302 26.1708 3.16263C26.2378 3.5199 26.0592 3.92183 25.6796 4.36842C25.6349 4.43541 25.5903 4.48007 25.5456 4.52473C25.032 5.08297 24.5854 5.30627 24.1389 5.30627L24.1612 5.35093Z" fill="#929292"/>
<path d="M26.7743 7.40614C26.4393 7.40614 26.1714 7.29449 25.8587 7.02654C25.4122 6.64693 25.0995 6.17801 26.1714 4.79358C26.6403 4.16835 27.0199 3.90039 27.3772 3.90039C27.7344 3.90039 28.1364 4.19068 28.583 4.74892C28.9626 5.24017 29.1189 5.66443 29.0296 6.04403C28.9402 6.40131 28.6276 6.73625 28.0917 7.00421C28.0247 7.04887 27.9577 7.0712 27.8907 7.09353C27.8907 7.09353 27.8907 7.09353 27.8684 7.09353C27.4218 7.29449 27.0422 7.40614 26.7519 7.40614H26.7743Z" fill="#929292"/>
<path d="M3.03778 30.3389C3.32807 30.3613 3.79699 30.2719 4.1096 30.138C4.80182 29.9817 5.49404 29.2671 5.65035 28.5526C5.73967 28.3293 5.762 27.7934 5.69501 27.3468C5.71734 26.8778 5.40472 26.208 4.98046 25.8507C4.80182 25.5157 3.93097 25.1585 3.03778 25.0468C2.81449 25.0245 2.59119 25.0022 2.41255 25.0022C1.96596 24.9352 1.36306 25.1585 1.07278 25.4711C0.737831 25.6497 0.492205 26.6322 0.536865 27.6817C0.670842 30.0933 2.32323 30.3389 3.03778 30.3389Z" stroke="#919291"/>
<path d="M34.5221 30.3389C34.2319 30.3613 33.7629 30.2719 33.4503 30.138C32.7581 29.9817 32.0659 29.2671 31.9096 28.5526C31.8203 28.3293 31.7979 27.7934 31.8649 27.3468C31.8426 26.8778 32.1552 26.208 32.5795 25.8507C32.7581 25.5157 33.629 25.1585 34.5221 25.0468C34.7454 25.0245 34.9687 25.0022 35.1474 25.0022C35.594 24.9352 36.1969 25.1585 36.4872 25.4711C36.8221 25.6497 37.0677 26.6322 37.0231 27.6817C36.8891 30.0933 35.2367 30.3389 34.5221 30.3389Z" stroke="#919291"/>
<path d="M1.4742 45.075V40.5868H0.781982V45.075H1.4742ZM5.04694 45.075V42.8867C5.04694 42.5741 4.95762 42.3285 4.77898 42.1499C4.60035 41.9712 4.35472 41.8819 4.04211 41.8819C3.77415 41.8819 3.5062 41.9489 3.26057 42.1052L2.88097 42.3285V41.9042H2.25574V45.075H2.88097V42.8867L3.41688 42.5741C3.59551 42.4625 3.77415 42.4178 3.90813 42.4178C4.06444 42.4178 4.17608 42.4625 4.2654 42.5741C4.35472 42.6634 4.39938 42.7974 4.39938 42.9537V45.075L5.02461 45.0974L5.04694 45.075ZM7.97212 44.1149L7.39155 44.4275C7.21291 44.5168 7.0566 44.5615 6.87797 44.5615C6.69933 44.5615 6.56535 44.5168 6.4537 44.4051C6.34206 44.2935 6.2974 44.1595 6.2974 43.9809V43.0207C6.2974 42.8421 6.36439 42.7081 6.4537 42.5964C6.56535 42.4848 6.69933 42.4401 6.87797 42.4401C7.0566 42.4401 7.21291 42.4848 7.39155 42.5741L7.97212 42.8867V44.1372V44.1149ZM8.59735 45.075V40.5868H7.97212V42.3062L7.57019 42.0829C7.30223 41.9489 7.0566 41.8819 6.81098 41.8819C6.47603 41.8819 6.20808 41.9935 6.00711 42.1945C5.78382 42.3955 5.6945 42.6634 5.6945 42.9761V44.0702C5.6945 44.3828 5.80615 44.6508 6.00711 44.8517C6.20808 45.0527 6.47603 45.142 6.81098 45.142C7.07893 45.142 7.34689 45.075 7.59252 44.9411L7.99445 44.7178V45.0974H8.59735V45.075ZM9.98178 45.0974V41.9266H9.33423V45.0974H9.98178ZM10.0264 40.8771C10.0264 40.7877 10.0041 40.7208 9.93713 40.6538C9.87014 40.6091 9.78082 40.5645 9.66917 40.5645C9.55752 40.5645 9.4682 40.5868 9.40121 40.6314C9.33423 40.6761 9.28957 40.7654 9.28957 40.8547V40.9887C9.28957 41.078 9.3119 41.1674 9.40121 41.212C9.4682 41.2567 9.55752 41.3013 9.66917 41.3013C9.78082 41.3013 9.87014 41.279 9.93713 41.212C10.0041 41.1674 10.0488 41.078 10.0488 40.9887V40.8547L10.0264 40.8771ZM13.4205 43.9139H12.8176C12.8176 44.3828 12.5497 44.6061 12.0361 44.6061C11.5225 44.6061 11.2769 44.3605 11.2769 43.8469V43.1547C11.2769 42.6634 11.5225 42.3955 12.0361 42.3955C12.5497 42.3955 12.8176 42.6188 12.8176 43.0877H13.4205V43.043C13.4205 42.6634 13.2866 42.3732 13.0409 42.1722C12.7953 41.9712 12.4604 41.8596 12.0138 41.8596C11.5895 41.8596 11.2546 41.9712 11.0089 42.1945C10.7633 42.4178 10.6293 42.7081 10.6293 43.0877V43.8916C10.6293 44.2712 10.7633 44.5838 11.0089 44.8071C11.2546 45.0304 11.5895 45.142 12.0138 45.142C12.438 45.142 12.773 45.0304 13.0409 44.8294C13.2866 44.6284 13.4205 44.3382 13.4205 43.9586V43.9362V43.9139ZM16.1448 44.1595L15.6088 44.4275C15.3856 44.5391 15.1846 44.6061 14.9613 44.6061C14.8273 44.6061 14.7157 44.5615 14.6487 44.4945C14.5817 44.4275 14.537 44.3158 14.537 44.2042C14.537 43.8916 14.738 43.7353 15.1623 43.7353H16.1448V44.1372V44.1595ZM16.77 45.0974V43.043C16.77 42.6634 16.6583 42.3732 16.4127 42.1722C16.1671 41.9712 15.8321 41.8596 15.4079 41.8596C14.9836 41.8596 14.6487 41.9489 14.3807 42.1499C14.1128 42.3508 13.9788 42.6188 13.9788 42.9761V42.9984H14.604C14.604 42.5741 14.872 42.3732 15.4079 42.3732C15.9215 42.3732 16.1671 42.5964 16.1671 43.0654V43.2663H15.1176C14.7603 43.2663 14.47 43.3557 14.2467 43.512C14.0234 43.6683 13.9118 43.9139 13.9118 44.2265C13.9118 44.4945 14.0011 44.7178 14.1798 44.8741C14.3584 45.0304 14.5817 45.1197 14.872 45.1197C15.1623 45.1197 15.4749 45.0304 15.7875 44.8741L16.1448 44.6731V45.075H16.77V45.0974ZM19.6728 44.1372L19.0923 44.4498C18.9136 44.5391 18.7573 44.5838 18.5787 44.5838C18.4 44.5838 18.2661 44.5391 18.1544 44.4275C18.0428 44.3158 17.9981 44.1818 17.9981 44.0032V43.043C17.9981 42.8644 18.0651 42.7304 18.1544 42.6188C18.2661 42.5071 18.4 42.4625 18.5787 42.4625C18.7573 42.4625 18.9136 42.5071 19.0923 42.5964L19.6728 42.9091V44.1595V44.1372ZM20.2981 45.0974V40.6091H19.6728V42.3285L19.2709 42.1052C19.0253 41.9712 18.7573 41.9042 18.5117 41.9042C18.1768 41.9042 17.9088 42.0159 17.7078 42.2168C17.4845 42.4178 17.3952 42.6858 17.3952 42.9984V44.0925C17.3952 44.4051 17.5069 44.6731 17.7078 44.8741C17.9088 45.075 18.1768 45.1644 18.5117 45.1644C18.7797 45.1644 19.0476 45.0974 19.2932 44.9634L19.6952 44.7401V45.1197H20.2981V45.0974ZM23.2679 43.8022C23.2679 44.0702 23.2009 44.2712 23.0446 44.4051C22.8883 44.5391 22.6873 44.6284 22.4194 44.6284C22.1738 44.6284 21.9505 44.5615 21.7942 44.4051C21.6378 44.2712 21.5709 44.0479 21.5709 43.8022V43.244C21.5709 42.976 21.6378 42.7751 21.7942 42.6411C21.9505 42.5071 22.1514 42.4178 22.4194 42.4178C22.6873 42.4178 22.8883 42.4848 23.0446 42.6411C23.2009 42.7751 23.2902 42.976 23.2902 43.244V43.8022H23.2679ZM23.8931 43.177C23.8931 42.7751 23.7592 42.4625 23.4689 42.2392C23.2009 41.9935 22.8436 41.8819 22.4194 41.8819C21.9951 41.8819 21.6378 41.9935 21.3699 42.2392C21.1019 42.4848 20.9456 42.7974 20.9456 43.177V43.8469C20.9456 44.2488 21.0796 44.5615 21.3699 44.7847C21.6378 45.0304 21.9951 45.142 22.4194 45.142C22.8436 45.142 23.2009 45.0304 23.4689 44.7847C23.7368 44.5615 23.8931 44.2265 23.8931 43.8469V43.177ZM28.493 43.9809C28.493 44.1595 28.4484 44.2935 28.3367 44.4051C28.2251 44.5168 28.0911 44.5615 27.9125 44.5615C27.7338 44.5615 27.5552 44.5168 27.3989 44.4275L26.8183 44.1149V42.8867L27.3989 42.5741C27.5775 42.4848 27.7338 42.4401 27.9125 42.4401C28.0911 42.4401 28.2251 42.4848 28.3367 42.5964C28.4484 42.7081 28.493 42.8421 28.493 43.0207V43.9809ZM26.8183 46.1915V44.6954L27.2202 44.9187C27.4659 45.0527 27.7338 45.1197 28.0018 45.1197C28.3367 45.1197 28.6047 45.008 28.8057 44.8071C29.0066 44.6061 29.1183 44.3382 29.1183 44.0255V42.9314C29.1183 42.6188 29.0289 42.3508 28.8057 42.1499C28.6047 41.9489 28.3367 41.8596 28.0018 41.8596C27.7338 41.8596 27.4659 41.9266 27.2202 42.0605L26.8183 42.2838V41.9042H26.2154V46.1915L26.8406 46.2138L26.8183 46.1915ZM31.8648 44.1372L31.3289 44.4051C31.1056 44.5168 30.9046 44.5838 30.6813 44.5838C30.5474 44.5838 30.4357 44.5391 30.3687 44.4721C30.3017 44.4051 30.2571 44.2935 30.2571 44.1818C30.2571 43.8692 30.458 43.7129 30.8823 43.7129H31.8648V44.1149V44.1372ZM32.49 45.075V43.0207C32.49 42.6411 32.3784 42.3508 32.1328 42.1499C31.8871 41.9489 31.5522 41.8372 31.1279 41.8372C30.7037 41.8372 30.3687 41.9266 30.1008 42.1275C29.8328 42.3285 29.6988 42.5964 29.6988 42.9537V42.9761H30.3241C30.3241 42.5518 30.592 42.3508 31.1279 42.3508C31.6415 42.3508 31.8871 42.5741 31.8871 43.043V43.244H30.8376C30.4804 43.244 30.1901 43.3333 29.9668 43.4896C29.7435 43.6459 29.6318 43.8916 29.6318 44.2042C29.6318 44.4721 29.7212 44.6954 29.8998 44.8517C30.0784 45.008 30.3017 45.0974 30.592 45.0974C30.8823 45.0974 31.1949 45.008 31.5075 44.8517L31.8648 44.6508V45.0527H32.49V45.075ZM33.8075 45.075V42.9761L34.0754 42.7528C34.2764 42.5964 34.522 42.5071 34.79 42.5071H34.9463V41.8819H34.7677C34.455 41.8819 34.1648 41.9935 33.9191 42.2392L33.7628 42.3732V41.8819H33.1376V45.0527H33.7852L33.8075 45.075ZM37.4472 44.1372L36.9113 44.4051C36.688 44.5168 36.487 44.5838 36.2637 44.5838C36.1298 44.5838 36.0181 44.5391 35.9511 44.4721C35.8841 44.4051 35.8395 44.2935 35.8395 44.1818C35.8395 43.8692 36.0404 43.7129 36.4647 43.7129H37.4472V44.1149V44.1372ZM38.0724 45.075V43.0207C38.0724 42.6411 37.9608 42.3508 37.7152 42.1499C37.4695 41.9489 37.1346 41.8372 36.7103 41.8372C36.2861 41.8372 35.9511 41.9266 35.6832 42.1275C35.4152 42.3285 35.2812 42.5964 35.2812 42.9537V42.9761H35.9065C35.9065 42.5518 36.1744 42.3508 36.7103 42.3508C37.2239 42.3508 37.4695 42.5741 37.4695 43.043V43.244H36.4201C36.0628 43.244 35.7725 43.3333 35.5492 43.4896C35.3259 43.6459 35.2143 43.8916 35.2143 44.2042C35.2143 44.4721 35.3036 44.6954 35.4822 44.8517C35.6608 45.008 35.8841 45.0974 36.1744 45.0974C36.4647 45.0974 36.7773 45.008 37.0899 44.8517L37.4472 44.6508V45.0527H38.0724V45.075Z" fill="#929292"/>
<path d="M1.38524 52.3103V49.1395H0.737683V52.3103H1.38524ZM1.4299 48.09C1.4299 48.0006 1.40757 47.9337 1.34058 47.8667C1.27359 47.822 1.18428 47.7773 1.07263 47.7773C0.960979 47.7773 0.871661 47.7997 0.804672 47.8667C0.737683 47.9113 0.693024 48.0006 0.693024 48.09V48.2239C0.693024 48.3133 0.715353 48.4026 0.804672 48.4472C0.871661 48.4919 0.960979 48.5142 1.07263 48.5142C1.18428 48.5142 1.27359 48.4919 1.34058 48.4249C1.40757 48.3802 1.45223 48.2909 1.45223 48.2016V48.0676L1.4299 48.09ZM4.91332 52.3103V50.122C4.91332 49.8093 4.824 49.5637 4.64537 49.3851C4.46673 49.2064 4.2211 49.1171 3.90849 49.1171C3.64053 49.1171 3.37258 49.1841 3.12695 49.3404L2.74735 49.5637V49.1395H2.12212V52.3103H2.74735V50.122L3.28326 49.8093C3.4619 49.6977 3.64053 49.653 3.77451 49.653C3.93082 49.653 4.04247 49.6977 4.13179 49.8093C4.2211 49.8987 4.26576 50.0326 4.26576 50.1889V52.3103L4.89099 52.3326L4.91332 52.3103ZM8.30742 51.1268H7.70452C7.70452 51.5957 7.43657 51.819 6.92299 51.819C6.40941 51.819 6.16378 51.5734 6.16378 51.0598V50.3676C6.16378 49.8763 6.40941 49.6084 6.92299 49.6084C7.43657 49.6084 7.70452 49.8317 7.70452 50.3006H8.30742V50.2559C8.30742 49.8763 8.17345 49.586 7.92782 49.3851C7.6822 49.1841 7.34725 49.0725 6.90066 49.0725C6.4764 49.0725 6.14145 49.1841 5.89583 49.4074C5.6502 49.6307 5.51622 49.921 5.51622 50.3006V51.1045C5.51622 51.4841 5.6502 51.7967 5.89583 52.02C6.14145 52.2433 6.4764 52.3549 6.90066 52.3549C7.32492 52.3549 7.65987 52.2433 7.92782 52.0423C8.17345 51.8413 8.30742 51.5511 8.30742 51.1714V51.1491V51.1268ZM9.60254 52.3103V49.1395H8.95498V52.3103H9.60254ZM9.6472 48.09C9.6472 48.0006 9.62487 47.9337 9.55788 47.8667C9.49089 47.822 9.40158 47.7773 9.28993 47.7773C9.17828 47.7773 9.08896 47.7997 9.02197 47.8667C8.95498 47.9113 8.91032 48.0006 8.91032 48.09V48.2239C8.91032 48.3133 8.93265 48.4026 9.02197 48.4472C9.08896 48.4919 9.17828 48.5142 9.28993 48.5142C9.40158 48.5142 9.49089 48.4919 9.55788 48.4249C9.62487 48.3802 9.66953 48.2909 9.66953 48.2016V48.0676L9.6472 48.09ZM12.9743 50.1443V50.122C12.9743 49.8093 12.8627 49.5637 12.617 49.3627C12.3714 49.1841 12.0365 49.0725 11.6122 49.0725C11.1879 49.0725 10.8753 49.1618 10.6297 49.3404C10.3841 49.5191 10.2724 49.7424 10.2724 50.055C10.2724 50.3006 10.3394 50.4792 10.4957 50.6132C10.6297 50.7472 10.8083 50.8365 11.0316 50.8812C11.2326 50.9258 11.4559 50.9482 11.6569 50.9705C11.8578 50.9928 12.0365 51.0375 12.1928 51.1045C12.3268 51.1714 12.4161 51.2608 12.4161 51.3947C12.4161 51.5287 12.3491 51.6404 12.2151 51.7074C12.0811 51.7743 11.9025 51.819 11.6569 51.819C11.1433 51.819 10.8977 51.6404 10.8977 51.2608H10.2501V51.2831C10.2501 51.5957 10.3841 51.8413 10.6297 52.02C10.8753 52.1986 11.2326 52.3103 11.6569 52.3103C12.0811 52.3103 12.4161 52.2209 12.6617 52.0423C12.9073 51.8637 13.019 51.6404 13.019 51.3278C13.019 51.1268 12.9743 50.9705 12.8627 50.8365C12.751 50.7025 12.617 50.6132 12.4607 50.5909C12.3044 50.5462 12.1258 50.5016 11.9472 50.4792C11.7685 50.4569 11.5899 50.4346 11.4336 50.4122C11.2773 50.3899 11.1433 50.3453 11.0316 50.2783C10.92 50.2113 10.8753 50.122 10.8753 49.988C10.8753 49.854 10.9423 49.7424 11.054 49.6754C11.1879 49.586 11.3666 49.5637 11.5899 49.5637C12.0811 49.5637 12.3268 49.7424 12.3268 50.0996L12.952 50.122L12.9743 50.1443ZM14.2471 52.3103V49.1395H13.5995V52.3103H14.2471ZM14.2918 48.09C14.2918 48.0006 14.2694 47.9337 14.2024 47.8667C14.1355 47.822 14.0461 47.7773 13.9345 47.7773C13.8228 47.7773 13.7335 47.7997 13.6665 47.8667C13.5995 47.9113 13.5549 48.0006 13.5549 48.09V48.2239C13.5549 48.3133 13.5772 48.4026 13.6665 48.4472C13.7335 48.4919 13.8228 48.5142 13.9345 48.5142C14.0461 48.5142 14.1355 48.4919 14.2024 48.4249C14.2694 48.3802 14.3141 48.2909 14.3141 48.2016V48.0676L14.2918 48.09ZM16.5471 52.3103L17.7305 49.1395H17.083L16.2121 51.618L15.3636 49.1395H14.6714L15.8548 52.3103H16.5694H16.5471ZM20.2314 51.0151C20.2314 51.2831 20.1645 51.4841 20.0081 51.618C19.8518 51.752 19.6509 51.8413 19.3829 51.8413C19.115 51.8413 18.914 51.7743 18.7577 51.618C18.6014 51.4617 18.5344 51.2608 18.5344 51.0151V50.4569C18.5344 50.1889 18.6014 49.988 18.7577 49.854C18.914 49.6977 19.115 49.6307 19.3829 49.6307C19.6285 49.6307 19.8518 49.6977 20.0081 49.854C20.1645 49.988 20.2538 50.1889 20.2538 50.4569V51.0151H20.2314ZM20.8567 50.3899C20.8567 49.988 20.7227 49.6754 20.4547 49.4521C20.1868 49.2064 19.8295 49.0948 19.4052 49.0948C18.981 49.0948 18.6237 49.2064 18.3558 49.4521C18.0878 49.6977 17.9315 50.0103 17.9315 50.3899V51.0598C17.9315 51.4617 18.0655 51.7743 18.3558 51.9976C18.6237 52.2433 18.981 52.3549 19.4052 52.3549C19.8295 52.3549 20.1868 52.2433 20.4547 51.9976C20.7227 51.7743 20.8567 51.4394 20.8567 51.0598V50.3899ZM24.1391 50.122C24.1391 49.8093 24.0275 49.5637 23.7819 49.3627C23.5362 49.1841 23.2013 49.0725 22.777 49.0725C22.3528 49.0725 22.0401 49.1618 21.7945 49.3404C21.5489 49.5191 21.4372 49.7424 21.4372 50.055C21.4372 50.3006 21.5042 50.4792 21.6605 50.6132C21.7945 50.7472 21.9732 50.8365 22.1964 50.8812C22.3974 50.9258 22.6207 50.9482 22.8217 50.9705C23.0226 50.9928 23.2013 51.0375 23.3576 51.1045C23.4916 51.1714 23.5809 51.2608 23.5809 51.3947C23.5809 51.5287 23.5139 51.6404 23.3799 51.7074C23.2459 51.7743 23.0673 51.819 22.8217 51.819C22.3081 51.819 22.0625 51.6404 22.0625 51.2608H21.4149V51.2831C21.4149 51.5957 21.5489 51.8413 21.7945 52.02C22.0401 52.1986 22.3974 52.3103 22.8217 52.3103C23.2459 52.3103 23.5809 52.2209 23.8265 52.0423C24.0721 51.8637 24.2061 51.6404 24.2061 51.3278C24.2061 51.1268 24.1615 50.9705 24.0498 50.8365C23.9382 50.7025 23.8042 50.6132 23.6479 50.5909C23.4916 50.5462 23.3129 50.5016 23.1343 50.4792C22.9557 50.4569 22.777 50.4346 22.6207 50.4122C22.4644 50.3899 22.3304 50.3453 22.2188 50.2783C22.1071 50.2113 22.0625 50.122 22.0625 49.988C22.0625 49.854 22.1295 49.7424 22.2411 49.6754C22.3751 49.586 22.5537 49.5637 22.777 49.5637C23.2683 49.5637 23.5139 49.7424 23.5139 50.0996L24.1391 50.122ZM29.1633 51.3054H28.5604C28.5604 51.6627 28.2924 51.8413 27.7565 51.8413C27.5109 51.8413 27.3099 51.7743 27.1536 51.6627C26.9973 51.551 26.9303 51.3501 26.9303 51.1268V50.9481H29.1856V50.4122C29.1856 50.0103 29.0516 49.6977 28.7837 49.4521C28.5157 49.2064 28.1808 49.0948 27.7565 49.0948C27.3323 49.0948 26.9973 49.2064 26.7294 49.4521C26.4614 49.6977 26.3274 50.0103 26.3274 50.3899V51.1491C26.3274 51.5287 26.4614 51.819 26.7294 52.0423C26.9973 52.2656 27.3323 52.3772 27.7789 52.3772C28.2031 52.3772 28.5381 52.2879 28.806 52.087C29.0516 51.9083 29.1856 51.6627 29.1856 51.3501V51.3054H29.1633ZM28.5827 50.5016H26.9303V50.4122C26.9303 50.1666 26.9973 49.9656 27.1536 49.8317C27.2876 49.6977 27.4886 49.6307 27.7565 49.6307C28.0021 49.6307 28.2254 49.6977 28.3594 49.8317C28.4934 49.9656 28.5827 50.1666 28.5827 50.4122V50.5239V50.5016ZM34.1651 51.1491H33.5622C33.5622 51.618 33.2943 51.8413 32.7807 51.8413C32.2671 51.8413 32.0215 51.5957 32.0215 51.0821V50.3899C32.0215 49.8987 32.2671 49.6307 32.7807 49.6307C33.2943 49.6307 33.5622 49.854 33.5622 50.3229H34.1651V50.2783C34.1651 49.8987 34.0311 49.6084 33.7855 49.4074C33.5399 49.2064 33.205 49.0948 32.7584 49.0948C32.3341 49.0948 31.9992 49.2064 31.7535 49.4297C31.5079 49.653 31.3739 49.9433 31.3739 50.3229V51.1268C31.3739 51.5064 31.5079 51.819 31.7535 52.0423C31.9992 52.2656 32.3341 52.3772 32.7584 52.3772C33.1826 52.3772 33.5176 52.2656 33.7855 52.0646C34.0311 51.8637 34.1651 51.5734 34.1651 51.1938V51.1714V51.1491ZM36.8893 51.3947L36.3534 51.6627C36.1301 51.7743 35.9292 51.8413 35.7059 51.8413C35.5719 51.8413 35.4602 51.7967 35.3933 51.7297C35.3263 51.6627 35.2816 51.551 35.2816 51.4394C35.2816 51.1268 35.4826 50.9705 35.9068 50.9705H36.8893V51.3724V51.3947ZM37.5146 52.3326V50.2783C37.5146 49.8987 37.4029 49.6084 37.1573 49.4074C36.9117 49.2064 36.5767 49.0948 36.1525 49.0948C35.7282 49.0948 35.3933 49.1841 35.1253 49.3851C34.8573 49.586 34.7234 49.854 34.7234 50.2113V50.2336H35.3486C35.3486 49.8093 35.6166 49.6084 36.1525 49.6084C36.666 49.6084 36.9117 49.8317 36.9117 50.3006V50.5016H35.8622C35.5049 50.5016 35.2146 50.5909 34.9913 50.7472C34.768 50.9035 34.6564 51.1491 34.6564 51.4617C34.6564 51.7297 34.7457 51.953 34.9243 52.1093C35.103 52.2656 35.3263 52.3549 35.6166 52.3549C35.9068 52.3549 36.2194 52.2656 36.5321 52.1093L36.8893 51.9083V52.3103H37.5146V52.3326ZM40.9757 52.3326V50.1443C40.9757 49.8317 40.8863 49.586 40.7077 49.4074C40.5291 49.2288 40.2834 49.1395 39.9708 49.1395C39.7029 49.1395 39.4349 49.2064 39.1893 49.3627L38.8097 49.586V49.1618H38.1845V52.3326H38.8097V50.1443L39.3456 49.8317C39.5242 49.72 39.7029 49.6754 39.8368 49.6754C39.9932 49.6754 40.1048 49.72 40.1941 49.8317C40.2834 49.921 40.3281 50.055 40.3281 50.2113V52.3326L40.9533 52.3549L40.9757 52.3326ZM42.3378 52.3326V49.1618H41.6902V52.3326H42.3378ZM42.3824 48.1123C42.3824 48.023 42.3601 47.956 42.2931 47.889C42.2261 47.8443 42.1368 47.7997 42.0252 47.7997C41.9135 47.7997 41.8242 47.822 41.7572 47.889C41.6902 47.9336 41.6455 48.023 41.6455 48.1123V48.2463C41.6455 48.3356 41.6679 48.4249 41.7572 48.4696C41.8242 48.5142 41.9135 48.5366 42.0252 48.5366C42.1368 48.5366 42.2261 48.5142 42.2931 48.4472C42.3601 48.4026 42.4048 48.3133 42.4048 48.2239V48.09L42.3824 48.1123ZM45.8658 52.3326V50.1443C45.8658 49.8317 45.7765 49.586 45.5979 49.4074C45.4193 49.2288 45.1736 49.1395 44.861 49.1395C44.5931 49.1395 44.3251 49.2064 44.0795 49.3627L43.6999 49.586V49.1618H43.0746V52.3326H43.6999V50.1443L44.2358 49.8317C44.4144 49.72 44.5931 49.6754 44.727 49.6754C44.8833 49.6754 44.995 49.72 45.0843 49.8317C45.1736 49.921 45.2183 50.055 45.2183 50.2113V52.3326L45.8435 52.3549L45.8658 52.3326ZM48.791 51.0375C48.791 51.3054 48.724 51.5064 48.5677 51.6404C48.4114 51.7743 48.2105 51.8637 47.9425 51.8637C47.6969 51.8637 47.4736 51.7967 47.3173 51.6404C47.161 51.4841 47.094 51.2831 47.094 51.0375V50.4792C47.094 50.2113 47.161 50.0103 47.3173 49.8763C47.4736 49.72 47.6745 49.653 47.9425 49.653C48.2105 49.653 48.4114 49.72 48.5677 49.8763C48.724 50.0103 48.8134 50.2113 48.8134 50.4792V51.0375H48.791ZM49.4163 50.4122C49.4163 50.0103 49.2823 49.6977 48.992 49.4744C48.724 49.2288 48.3668 49.1171 47.9425 49.1171C47.5182 49.1171 47.161 49.2288 46.893 49.4744C46.6251 49.72 46.4687 50.0326 46.4687 50.4122V51.0821C46.4687 51.4841 46.6027 51.7967 46.893 52.02C47.161 52.2656 47.5182 52.3772 47.9425 52.3772C48.3668 52.3772 48.724 52.2656 48.992 52.02C49.2599 51.7967 49.4163 51.4617 49.4163 51.0821V50.4122ZM52.6987 50.1443C52.6987 49.8317 52.5871 49.586 52.3414 49.3851C52.0958 49.2064 51.7609 49.0948 51.3366 49.0948C50.9123 49.0948 50.5997 49.1841 50.3541 49.3627C50.1085 49.5414 49.9968 49.7647 49.9968 50.0773C49.9968 50.3229 50.0638 50.5016 50.2201 50.6355C50.3541 50.7695 50.5327 50.8588 50.756 50.9035C50.957 50.9481 51.1803 50.9705 51.3813 50.9928C51.5822 51.0151 51.7609 51.0598 51.9172 51.1268C52.0512 51.1938 52.1405 51.2831 52.1405 51.4171C52.1405 51.5511 52.0735 51.6627 51.9395 51.7297C51.8055 51.7967 51.6269 51.8413 51.3813 51.8413C50.8677 51.8413 50.6221 51.6627 50.6221 51.2831H49.9745V51.3054C49.9745 51.618 50.1085 51.8637 50.3541 52.0423C50.5997 52.2209 50.957 52.3326 51.3813 52.3326C51.8055 52.3326 52.1405 52.2433 52.3861 52.0646C52.6317 51.886 52.7657 51.6627 52.7657 51.3501C52.7657 51.1491 52.721 50.9928 52.6094 50.8588C52.4977 50.7249 52.3638 50.6355 52.2075 50.6132C52.0512 50.5685 51.8725 50.5239 51.6939 50.5016C51.5152 50.4792 51.3366 50.4569 51.1803 50.4346C51.024 50.4122 50.89 50.3676 50.7784 50.3006C50.6667 50.2336 50.6221 50.1443 50.6221 50.0103C50.6221 49.8763 50.689 49.7647 50.8007 49.6977C50.9347 49.6084 51.1133 49.586 51.3366 49.586C51.8279 49.586 52.0735 49.7647 52.0735 50.122L52.6987 50.1443ZM53.9715 51.953C53.9715 51.8637 53.9492 51.7967 53.8822 51.7297C53.8152 51.685 53.7259 51.6404 53.6142 51.6404C53.5026 51.6404 53.4133 51.6627 53.3463 51.7074C53.2793 51.752 53.257 51.8413 53.257 51.9307V52.0646C53.257 52.1539 53.2793 52.2433 53.3463 52.2879C53.4133 52.3326 53.5026 52.3772 53.6142 52.3772C53.7259 52.3772 53.8152 52.3549 53.8822 52.2879C53.9492 52.2433 53.9938 52.1539 53.9938 52.0646V51.9307L53.9715 51.953Z" fill="#929292"/>
</svg>
