<svg width="17" height="17" viewBox="0 0 17 17" fill="none" xmlns="http://www.w3.org/2000/svg">
<path d="M8.50012 4.1123C8.63273 4.1123 8.75991 4.16498 8.85369 4.25876C8.94746 4.35253 9.00014 4.47971 9.00014 4.61232V7.61241H12.0002C12.1328 7.61241 12.26 7.66509 12.3538 7.75886C12.4476 7.85263 12.5002 7.97981 12.5002 8.11243C12.5002 8.24504 12.4476 8.37222 12.3538 8.46599C12.26 8.55976 12.1328 8.61244 12.0002 8.61244H9.00014V11.6125C9.00014 11.7451 8.94746 11.8723 8.85369 11.9661C8.75991 12.0599 8.63273 12.1125 8.50012 12.1125C8.36751 12.1125 8.24033 12.0599 8.14656 11.9661C8.05279 11.8723 8.00011 11.7451 8.00011 11.6125V8.61244H5.00002C4.8674 8.61244 4.74022 8.55976 4.64645 8.46599C4.55268 8.37222 4.5 8.24504 4.5 8.11243C4.5 7.97981 4.55268 7.85263 4.64645 7.75886C4.74022 7.66509 4.8674 7.61241 5.00002 7.61241H8.00011V4.61232C8.00011 4.47971 8.05279 4.35253 8.14656 4.25876C8.24033 4.16498 8.36751 4.1123 8.50012 4.1123Z" fill="#CFCCC9"/>
</svg>
