<svg width="17" height="17" viewBox="0 0 17 17" fill="none" xmlns="http://www.w3.org/2000/svg">
<path d="M8.64075 4.1123C8.77336 4.1123 8.90054 4.16498 8.99431 4.25876C9.08808 4.35253 9.14076 4.47971 9.14076 4.61232V7.61241H12.1409C12.2735 7.61241 12.4006 7.66509 12.4944 7.75886C12.5882 7.85263 12.6409 7.97981 12.6409 8.11243C12.6409 8.24504 12.5882 8.37222 12.4944 8.46599C12.4006 8.55976 12.2735 8.61244 12.1409 8.61244H9.14076V11.6125C9.14076 11.7451 9.08808 11.8723 8.99431 11.9661C8.90054 12.0599 8.77336 12.1125 8.64075 12.1125C8.50813 12.1125 8.38095 12.0599 8.28718 11.9661C8.19341 11.8723 8.14073 11.7451 8.14073 11.6125V8.61244H5.14064C5.00803 8.61244 4.88085 8.55976 4.78708 8.46599C4.69331 8.37222 4.64062 8.24504 4.64062 8.11243C4.64062 7.97981 4.69331 7.85263 4.78708 7.75886C4.88085 7.66509 5.00803 7.61241 5.14064 7.61241H8.14073V4.61232C8.14073 4.47971 8.19341 4.35253 8.28718 4.25876C8.38095 4.16498 8.50813 4.1123 8.64075 4.1123Z" fill="#CFCCC9"/>
</svg>
