<svg width="17" height="17" viewBox="0 0 17 17" fill="none" xmlns="http://www.w3.org/2000/svg">
<path d="M8.97864 4.96484C9.11125 4.96484 9.23843 5.01752 9.3322 5.11129C9.42597 5.20507 9.47865 5.33225 9.47865 5.46486V8.46495H12.4787C12.6114 8.46495 12.7385 8.51763 12.8323 8.6114C12.9261 8.70517 12.9788 8.83235 12.9788 8.96497C12.9788 9.09758 12.9261 9.22476 12.8323 9.31853C12.7385 9.4123 12.6114 9.46498 12.4787 9.46498H9.47865V12.4651C9.47865 12.5977 9.42597 12.7249 9.3322 12.8186C9.23843 12.9124 9.11125 12.9651 8.97864 12.9651C8.84602 12.9651 8.71884 12.9124 8.62507 12.8186C8.5313 12.7249 8.47862 12.5977 8.47862 12.4651V9.46498H5.47853C5.34592 9.46498 5.21874 9.4123 5.12497 9.31853C5.0312 9.22476 4.97852 9.09758 4.97852 8.96497C4.97852 8.83235 5.0312 8.70517 5.12497 8.6114C5.21874 8.51763 5.34592 8.46495 5.47853 8.46495H8.47862V5.46486C8.47862 5.33225 8.5313 5.20507 8.62507 5.11129C8.71884 5.01752 8.84602 4.96484 8.97864 4.96484Z" fill="#CFCCC9"/>
</svg>
