<svg width="16" height="16" viewBox="0 0 16 16" fill="none" xmlns="http://www.w3.org/2000/svg">
<path d="M8.87788 5.8569C8.87788 5.73686 8.8302 5.62174 8.74532 5.53686C8.66044 5.45198 8.54531 5.4043 8.42528 5.4043C8.30524 5.4043 8.19012 5.45198 8.10524 5.53686C8.02036 5.62174 7.97267 5.73686 7.97267 5.8569V7.21471H6.61486C6.49483 7.21471 6.37971 7.26239 6.29483 7.34727C6.20995 7.43215 6.16226 7.54727 6.16226 7.66731C6.16226 7.78735 6.20995 7.90247 6.29483 7.98735C6.37971 8.07223 6.49483 8.11992 6.61486 8.11992H7.97267V9.47772C7.97267 9.59776 8.02036 9.71288 8.10524 9.79776C8.19012 9.88264 8.30524 9.93033 8.42528 9.93033C8.54531 9.93033 8.66044 9.88264 8.74532 9.79776C8.8302 9.71288 8.87788 9.59776 8.87788 9.47772V8.11992H10.2357C10.3557 8.11992 10.4708 8.07223 10.5557 7.98735C10.6406 7.90247 10.6883 7.78735 10.6883 7.66731C10.6883 7.54727 10.6406 7.43215 10.5557 7.34727C10.4708 7.26239 10.3557 7.21471 10.2357 7.21471H8.87788V5.8569Z" fill="#363330"/>
<path d="M1.18362 1.7832C1.06358 1.7832 0.948462 1.83089 0.863582 1.91577C0.778703 2.00065 0.731018 2.11577 0.731018 2.23581C0.731018 2.35584 0.778703 2.47097 0.863582 2.55584C0.948462 2.64072 1.06358 2.68841 1.18362 2.68841H2.1884L2.55139 4.14308L3.90739 11.3711C3.9268 11.4749 3.98184 11.5685 4.063 11.636C4.14416 11.7034 4.24632 11.7404 4.35184 11.7405H5.25705C4.7769 11.7405 4.31641 11.9312 3.97689 12.2707C3.63738 12.6102 3.44664 13.0707 3.44664 13.5509C3.44664 14.031 3.63738 14.4915 3.97689 14.831C4.31641 15.1706 4.7769 15.3613 5.25705 15.3613C5.7372 15.3613 6.19768 15.1706 6.5372 14.831C6.87672 14.4915 7.06746 14.031 7.06746 13.5509C7.06746 13.0707 6.87672 12.6102 6.5372 12.2707C6.19768 11.9312 5.7372 11.7405 5.25705 11.7405H11.5935C11.1133 11.7405 10.6529 11.9312 10.3133 12.2707C9.97382 12.6102 9.78308 13.0707 9.78308 13.5509C9.78308 14.031 9.97382 14.4915 10.3133 14.831C10.6529 15.1706 11.1133 15.3613 11.5935 15.3613C12.0736 15.3613 12.5341 15.1706 12.8736 14.831C13.2132 14.4915 13.4039 14.031 13.4039 13.5509C13.4039 13.0707 13.2132 12.6102 12.8736 12.2707C12.5341 11.9312 12.0736 11.7405 11.5935 11.7405H12.4987C12.6042 11.7404 12.7064 11.7034 12.7875 11.636C12.8687 11.5685 12.9237 11.4749 12.9432 11.3711L14.301 4.1295C14.3132 4.06417 14.3109 3.99696 14.2942 3.93263C14.2775 3.8683 14.2469 3.80843 14.2045 3.75728C14.162 3.70613 14.1089 3.66494 14.0487 3.63666C13.9886 3.60837 13.923 3.59368 13.8565 3.59362H3.34706L2.98045 2.12628C2.95602 2.02832 2.89954 1.94134 2.81999 1.87918C2.74044 1.81701 2.64239 1.78323 2.54143 1.7832H1.18362ZM4.7275 10.8353L3.53897 4.49882H13.3116L12.123 10.8353H4.7275ZM6.16225 13.5509C6.16225 13.791 6.06688 14.0212 5.89713 14.191C5.72737 14.3607 5.49712 14.4561 5.25705 14.4561C5.01697 14.4561 4.78673 14.3607 4.61697 14.191C4.44721 14.0212 4.35184 13.791 4.35184 13.5509C4.35184 13.3108 4.44721 13.0806 4.61697 12.9108C4.78673 12.741 5.01697 12.6457 5.25705 12.6457C5.49712 12.6457 5.72737 12.741 5.89713 12.9108C6.06688 13.0806 6.16225 13.3108 6.16225 13.5509ZM12.4987 13.5509C12.4987 13.791 12.4033 14.0212 12.2336 14.191C12.0638 14.3607 11.8336 14.4561 11.5935 14.4561C11.3534 14.4561 11.1232 14.3607 10.9534 14.191C10.7837 14.0212 10.6883 13.791 10.6883 13.5509C10.6883 13.3108 10.7837 13.0806 10.9534 12.9108C11.1232 12.741 11.3534 12.6457 11.5935 12.6457C11.8336 12.6457 12.0638 12.741 12.2336 12.9108C12.4033 13.0806 12.4987 13.3108 12.4987 13.5509Z" fill="#363330"/>
</svg>
