<svg width="16" height="15" viewBox="0 0 16 15" fill="none" xmlns="http://www.w3.org/2000/svg">
<path d="M8.87788 5.35104C8.87788 5.231 8.8302 5.11588 8.74532 5.031C8.66044 4.94612 8.54531 4.89844 8.42528 4.89844C8.30524 4.89844 8.19012 4.94612 8.10524 5.031C8.02036 5.11588 7.97267 5.231 7.97267 5.35104V6.70885H6.61486C6.49483 6.70885 6.37971 6.75653 6.29483 6.84141C6.20995 6.92629 6.16226 7.04141 6.16226 7.16145C6.16226 7.28149 6.20995 7.39661 6.29483 7.48149C6.37971 7.56637 6.49483 7.61406 6.61486 7.61406H7.97267V8.97186C7.97267 9.0919 8.02036 9.20702 8.10524 9.2919C8.19012 9.37678 8.30524 9.42447 8.42528 9.42447C8.54531 9.42447 8.66044 9.37678 8.74532 9.2919C8.8302 9.20702 8.87788 9.0919 8.87788 8.97186V7.61406H10.2357C10.3557 7.61406 10.4708 7.56637 10.5557 7.48149C10.6406 7.39661 10.6883 7.28149 10.6883 7.16145C10.6883 7.04141 10.6406 6.92629 10.5557 6.84141C10.4708 6.75653 10.3557 6.70885 10.2357 6.70885H8.87788V5.35104Z" fill="#363330"/>
<path d="M1.18362 1.27734C1.06358 1.27734 0.948462 1.32503 0.863582 1.40991C0.778703 1.49479 0.731018 1.60991 0.731018 1.72995C0.731018 1.84998 0.778703 1.96511 0.863582 2.04999C0.948462 2.13486 1.06358 2.18255 1.18362 2.18255H2.1884L2.55139 3.63722L3.90739 10.8653C3.9268 10.969 3.98184 11.0627 4.063 11.1301C4.14416 11.1975 4.24632 11.2345 4.35184 11.2346H5.25705C4.7769 11.2346 4.31641 11.4253 3.97689 11.7649C3.63738 12.1044 3.44664 12.5649 3.44664 13.045C3.44664 13.5252 3.63738 13.9857 3.97689 14.3252C4.31641 14.6647 4.7769 14.8554 5.25705 14.8554C5.7372 14.8554 6.19768 14.6647 6.5372 14.3252C6.87672 13.9857 7.06746 13.5252 7.06746 13.045C7.06746 12.5649 6.87672 12.1044 6.5372 11.7649C6.19768 11.4253 5.7372 11.2346 5.25705 11.2346H11.5935C11.1133 11.2346 10.6529 11.4253 10.3133 11.7649C9.97382 12.1044 9.78308 12.5649 9.78308 13.045C9.78308 13.5252 9.97382 13.9857 10.3133 14.3252C10.6529 14.6647 11.1133 14.8554 11.5935 14.8554C12.0736 14.8554 12.5341 14.6647 12.8736 14.3252C13.2132 13.9857 13.4039 13.5252 13.4039 13.045C13.4039 12.5649 13.2132 12.1044 12.8736 11.7649C12.5341 11.4253 12.0736 11.2346 11.5935 11.2346H12.4987C12.6042 11.2345 12.7064 11.1975 12.7875 11.1301C12.8687 11.0627 12.9237 10.969 12.9432 10.8653L14.301 3.62364C14.3132 3.55832 14.3109 3.4911 14.2942 3.42677C14.2775 3.36244 14.2469 3.30257 14.2045 3.25142C14.162 3.20027 14.1089 3.15909 14.0487 3.1308C13.9886 3.10251 13.923 3.08782 13.8565 3.08776H3.34706L2.98045 1.62042C2.95602 1.52246 2.89954 1.43548 2.81999 1.37332C2.74044 1.31115 2.64239 1.27737 2.54143 1.27734H1.18362ZM4.7275 10.3294L3.53897 3.99296H13.3116L12.123 10.3294H4.7275ZM6.16225 13.045C6.16225 13.2851 6.06688 13.5153 5.89713 13.6851C5.72737 13.8549 5.49712 13.9502 5.25705 13.9502C5.01697 13.9502 4.78673 13.8549 4.61697 13.6851C4.44721 13.5153 4.35184 13.2851 4.35184 13.045C4.35184 12.8049 4.44721 12.5747 4.61697 12.4049C4.78673 12.2352 5.01697 12.1398 5.25705 12.1398C5.49712 12.1398 5.72737 12.2352 5.89713 12.4049C6.06688 12.5747 6.16225 12.8049 6.16225 13.045ZM12.4987 13.045C12.4987 13.2851 12.4033 13.5153 12.2336 13.6851C12.0638 13.8549 11.8336 13.9502 11.5935 13.9502C11.3534 13.9502 11.1232 13.8549 10.9534 13.6851C10.7837 13.5153 10.6883 13.2851 10.6883 13.045C10.6883 12.8049 10.7837 12.5747 10.9534 12.4049C11.1232 12.2352 11.3534 12.1398 11.5935 12.1398C11.8336 12.1398 12.0638 12.2352 12.2336 12.4049C12.4033 12.5747 12.4987 12.8049 12.4987 13.045Z" fill="#363330"/>
</svg>
