<svg width="15" height="15" viewBox="0 0 15 15" fill="none" xmlns="http://www.w3.org/2000/svg">
<path d="M8.35609 5.42331C8.35609 5.30327 8.30841 5.18815 8.22353 5.10327C8.13865 5.01839 8.02353 4.9707 7.90349 4.9707C7.78345 4.9707 7.66833 5.01839 7.58345 5.10327C7.49857 5.18815 7.45088 5.30327 7.45088 5.42331V6.78112H6.09308C5.97304 6.78112 5.85792 6.8288 5.77304 6.91368C5.68816 6.99856 5.64047 7.11368 5.64047 7.23372C5.64047 7.35376 5.68816 7.46888 5.77304 7.55376C5.85792 7.63864 5.97304 7.68632 6.09308 7.68632H7.45088V9.04413C7.45088 9.16417 7.49857 9.27929 7.58345 9.36417C7.66833 9.44905 7.78345 9.49673 7.90349 9.49673C8.02353 9.49673 8.13865 9.44905 8.22353 9.36417C8.30841 9.27929 8.35609 9.16417 8.35609 9.04413V7.68632H9.7139C9.83394 7.68632 9.94906 7.63864 10.0339 7.55376C10.1188 7.46888 10.1665 7.35376 10.1665 7.23372C10.1665 7.11368 10.1188 6.99856 10.0339 6.91368C9.94906 6.8288 9.83394 6.78112 9.7139 6.78112H8.35609V5.42331Z" fill="#363330"/>
<path d="M0.661832 1.34961C0.541794 1.34961 0.426672 1.39729 0.341793 1.48217C0.256913 1.56705 0.209229 1.68217 0.209229 1.80221C0.209229 1.92225 0.256913 2.03737 0.341793 2.12225C0.426672 2.20713 0.541794 2.25482 0.661832 2.25482H1.66661L2.0296 3.70948L3.3856 10.9376C3.40501 11.0413 3.46006 11.1349 3.54121 11.2024C3.62237 11.2698 3.72453 11.3068 3.83005 11.3069H4.73526C4.25511 11.3069 3.79462 11.4976 3.4551 11.8371C3.11559 12.1767 2.92485 12.6371 2.92485 13.1173C2.92485 13.5974 3.11559 14.0579 3.4551 14.3974C3.79462 14.737 4.25511 14.9277 4.73526 14.9277C5.21541 14.9277 5.6759 14.737 6.01541 14.3974C6.35493 14.0579 6.54567 13.5974 6.54567 13.1173C6.54567 12.6371 6.35493 12.1767 6.01541 11.8371C5.6759 11.4976 5.21541 11.3069 4.73526 11.3069H11.0717C10.5915 11.3069 10.1311 11.4976 9.79155 11.8371C9.45203 12.1767 9.26129 12.6371 9.26129 13.1173C9.26129 13.5974 9.45203 14.0579 9.79155 14.3974C10.1311 14.737 10.5915 14.9277 11.0717 14.9277C11.5519 14.9277 12.0123 14.737 12.3519 14.3974C12.6914 14.0579 12.8821 13.5974 12.8821 13.1173C12.8821 12.6371 12.6914 12.1767 12.3519 11.8371C12.0123 11.4976 11.5519 11.3069 11.0717 11.3069H11.9769C12.0824 11.3068 12.1846 11.2698 12.2657 11.2024C12.3469 11.1349 12.4019 11.0413 12.4214 10.9376L13.7792 3.6959C13.7914 3.63058 13.7891 3.56337 13.7724 3.49904C13.7557 3.43471 13.7251 3.37484 13.6827 3.32369C13.6402 3.27253 13.5871 3.23135 13.5269 3.20306C13.4668 3.17478 13.4012 3.16008 13.3347 3.16002H2.82527L2.45867 1.69268C2.43423 1.59472 2.37775 1.50775 2.2982 1.44558C2.21865 1.38342 2.1206 1.34964 2.01964 1.34961H0.661832ZM4.20571 10.4017L3.01718 4.06523H12.7898L11.6012 10.4017H4.20571ZM5.64046 13.1173C5.64046 13.3574 5.54509 13.5876 5.37534 13.7574C5.20558 13.9271 4.97533 14.0225 4.73526 14.0225C4.49518 14.0225 4.26494 13.9271 4.09518 13.7574C3.92542 13.5876 3.83005 13.3574 3.83005 13.1173C3.83005 12.8772 3.92542 12.647 4.09518 12.4772C4.26494 12.3075 4.49518 12.2121 4.73526 12.2121C4.97533 12.2121 5.20558 12.3075 5.37534 12.4772C5.54509 12.647 5.64046 12.8772 5.64046 13.1173ZM11.9769 13.1173C11.9769 13.3574 11.8815 13.5876 11.7118 13.7574C11.542 13.9271 11.3118 14.0225 11.0717 14.0225C10.8316 14.0225 10.6014 13.9271 10.4316 13.7574C10.2619 13.5876 10.1665 13.3574 10.1665 13.1173C10.1665 12.8772 10.2619 12.647 10.4316 12.4772C10.6014 12.3075 10.8316 12.2121 11.0717 12.2121C11.3118 12.2121 11.542 12.3075 11.7118 12.4772C11.8815 12.647 11.9769 12.8772 11.9769 13.1173Z" fill="#363330"/>
</svg>
