<svg width="15" height="15" viewBox="0 0 15 15" fill="none" xmlns="http://www.w3.org/2000/svg">
<path d="M8.51918 5.45065C8.51918 5.33061 8.47149 5.21549 8.38661 5.13061C8.30173 5.04573 8.18661 4.99805 8.06657 4.99805C7.94654 4.99805 7.83141 5.04573 7.74653 5.13061C7.66165 5.21549 7.61397 5.33061 7.61397 5.45065V6.80846H6.25616C6.13612 6.80846 6.021 6.85614 5.93612 6.94102C5.85124 7.0259 5.80356 7.14102 5.80356 7.26106C5.80356 7.3811 5.85124 7.49622 5.93612 7.5811C6.021 7.66598 6.13612 7.71367 6.25616 7.71367H7.61397V9.07147C7.61397 9.19151 7.66165 9.30663 7.74653 9.39151C7.83141 9.47639 7.94654 9.52408 8.06657 9.52408C8.18661 9.52408 8.30173 9.47639 8.38661 9.39151C8.47149 9.30663 8.51918 9.19151 8.51918 9.07147V7.71367H9.87699C9.99702 7.71367 10.1121 7.66598 10.197 7.5811C10.2819 7.49622 10.3296 7.3811 10.3296 7.26106C10.3296 7.14102 10.2819 7.0259 10.197 6.94102C10.1121 6.85614 9.99702 6.80846 9.87699 6.80846H8.51918V5.45065Z" fill="#363330"/>
<path d="M0.824917 1.37695C0.70488 1.37695 0.589758 1.42464 0.504879 1.50952C0.419999 1.5944 0.372314 1.70952 0.372314 1.82956C0.372314 1.94959 0.419999 2.06472 0.504879 2.14959C0.589758 2.23447 0.70488 2.28216 0.824917 2.28216H1.8297L2.19268 3.73683L3.54868 10.9649C3.5681 11.0686 3.62314 11.1623 3.7043 11.2297C3.78545 11.2972 3.88762 11.3341 3.99314 11.3342H4.89834C4.41819 11.3342 3.95771 11.525 3.61819 11.8645C3.27867 12.204 3.08793 12.6645 3.08793 13.1446C3.08793 13.6248 3.27867 14.0853 3.61819 14.4248C3.95771 14.7643 4.41819 14.955 4.89834 14.955C5.3785 14.955 5.83898 14.7643 6.1785 14.4248C6.51802 14.0853 6.70876 13.6248 6.70876 13.1446C6.70876 12.6645 6.51802 12.204 6.1785 11.8645C5.83898 11.525 5.3785 11.3342 4.89834 11.3342H11.2348C10.7546 11.3342 10.2942 11.525 9.95463 11.8645C9.61511 12.204 9.42437 12.6645 9.42437 13.1446C9.42437 13.6248 9.61511 14.0853 9.95463 14.4248C10.2942 14.7643 10.7546 14.955 11.2348 14.955C11.7149 14.955 12.1754 14.7643 12.5149 14.4248C12.8545 14.0853 13.0452 13.6248 13.0452 13.1446C13.0452 12.6645 12.8545 12.204 12.5149 11.8645C12.1754 11.525 11.7149 11.3342 11.2348 11.3342H12.14C12.2455 11.3341 12.3477 11.2972 12.4288 11.2297C12.51 11.1623 12.565 11.0686 12.5844 10.9649L13.9423 3.72325C13.9545 3.65792 13.9522 3.59071 13.9355 3.52638C13.9188 3.46205 13.8882 3.40218 13.8458 3.35103C13.8033 3.29988 13.7502 3.25869 13.69 3.23041C13.6299 3.20212 13.5643 3.18743 13.4978 3.18737H2.98836L2.62175 1.72003C2.59732 1.62207 2.54084 1.53509 2.46129 1.47293C2.38174 1.41076 2.28369 1.37698 2.18273 1.37695H0.824917ZM4.3688 10.429L3.18026 4.09257H12.9529L11.7643 10.429H4.3688ZM5.80355 13.1446C5.80355 13.3847 5.70818 13.6149 5.53842 13.7847C5.36866 13.9545 5.13842 14.0498 4.89834 14.0498C4.65827 14.0498 4.42803 13.9545 4.25827 13.7847C4.08851 13.6149 3.99314 13.3847 3.99314 13.1446C3.99314 12.9046 4.08851 12.6743 4.25827 12.5046C4.42803 12.3348 4.65827 12.2394 4.89834 12.2394C5.13842 12.2394 5.36866 12.3348 5.53842 12.5046C5.70818 12.6743 5.80355 12.9046 5.80355 13.1446ZM12.14 13.1446C12.14 13.3847 12.0446 13.6149 11.8749 13.7847C11.7051 13.9545 11.4749 14.0498 11.2348 14.0498C10.9947 14.0498 10.7645 13.9545 10.5947 13.7847C10.425 13.6149 10.3296 13.3847 10.3296 13.1446C10.3296 12.9046 10.425 12.6743 10.5947 12.5046C10.7645 12.3348 10.9947 12.2394 11.2348 12.2394C11.4749 12.2394 11.7051 12.3348 11.8749 12.5046C12.0446 12.6743 12.14 12.9046 12.14 13.1446Z" fill="#363330"/>
</svg>
