<svg width="16" height="15" viewBox="0 0 16 15" fill="none" xmlns="http://www.w3.org/2000/svg">
<path d="M8.87788 5.45065C8.87788 5.33061 8.8302 5.21549 8.74532 5.13061C8.66044 5.04573 8.54531 4.99805 8.42528 4.99805C8.30524 4.99805 8.19012 5.04573 8.10524 5.13061C8.02036 5.21549 7.97267 5.33061 7.97267 5.45065V6.80846H6.61486C6.49483 6.80846 6.37971 6.85614 6.29483 6.94102C6.20995 7.0259 6.16226 7.14102 6.16226 7.26106C6.16226 7.3811 6.20995 7.49622 6.29483 7.5811C6.37971 7.66598 6.49483 7.71367 6.61486 7.71367H7.97267V9.07147C7.97267 9.19151 8.02036 9.30663 8.10524 9.39151C8.19012 9.47639 8.30524 9.52408 8.42528 9.52408C8.54531 9.52408 8.66044 9.47639 8.74532 9.39151C8.8302 9.30663 8.87788 9.19151 8.87788 9.07147V7.71367H10.2357C10.3557 7.71367 10.4708 7.66598 10.5557 7.5811C10.6406 7.49622 10.6883 7.3811 10.6883 7.26106C10.6883 7.14102 10.6406 7.0259 10.5557 6.94102C10.4708 6.85614 10.3557 6.80846 10.2357 6.80846H8.87788V5.45065Z" fill="#363330"/>
<path d="M1.18362 1.37695C1.06358 1.37695 0.948462 1.42464 0.863582 1.50952C0.778703 1.5944 0.731018 1.70952 0.731018 1.82956C0.731018 1.94959 0.778703 2.06472 0.863582 2.14959C0.948462 2.23447 1.06358 2.28216 1.18362 2.28216H2.1884L2.55139 3.73683L3.90739 10.9649C3.9268 11.0686 3.98184 11.1623 4.063 11.2297C4.14416 11.2972 4.24632 11.3341 4.35184 11.3342H5.25705C4.7769 11.3342 4.31641 11.525 3.97689 11.8645C3.63738 12.204 3.44664 12.6645 3.44664 13.1446C3.44664 13.6248 3.63738 14.0853 3.97689 14.4248C4.31641 14.7643 4.7769 14.955 5.25705 14.955C5.7372 14.955 6.19768 14.7643 6.5372 14.4248C6.87672 14.0853 7.06746 13.6248 7.06746 13.1446C7.06746 12.6645 6.87672 12.204 6.5372 11.8645C6.19768 11.525 5.7372 11.3342 5.25705 11.3342H11.5935C11.1133 11.3342 10.6529 11.525 10.3133 11.8645C9.97382 12.204 9.78308 12.6645 9.78308 13.1446C9.78308 13.6248 9.97382 14.0853 10.3133 14.4248C10.6529 14.7643 11.1133 14.955 11.5935 14.955C12.0736 14.955 12.5341 14.7643 12.8736 14.4248C13.2132 14.0853 13.4039 13.6248 13.4039 13.1446C13.4039 12.6645 13.2132 12.204 12.8736 11.8645C12.5341 11.525 12.0736 11.3342 11.5935 11.3342H12.4987C12.6042 11.3341 12.7064 11.2972 12.7875 11.2297C12.8687 11.1623 12.9237 11.0686 12.9432 10.9649L14.301 3.72325C14.3132 3.65792 14.3109 3.59071 14.2942 3.52638C14.2775 3.46205 14.2469 3.40218 14.2045 3.35103C14.162 3.29988 14.1089 3.25869 14.0487 3.23041C13.9886 3.20212 13.923 3.18743 13.8565 3.18737H3.34706L2.98045 1.72003C2.95602 1.62207 2.89954 1.53509 2.81999 1.47293C2.74044 1.41076 2.64239 1.37698 2.54143 1.37695H1.18362ZM4.7275 10.429L3.53897 4.09257H13.3116L12.123 10.429H4.7275ZM6.16225 13.1446C6.16225 13.3847 6.06688 13.6149 5.89713 13.7847C5.72737 13.9545 5.49712 14.0498 5.25705 14.0498C5.01697 14.0498 4.78673 13.9545 4.61697 13.7847C4.44721 13.6149 4.35184 13.3847 4.35184 13.1446C4.35184 12.9046 4.44721 12.6743 4.61697 12.5046C4.78673 12.3348 5.01697 12.2394 5.25705 12.2394C5.49712 12.2394 5.72737 12.3348 5.89713 12.5046C6.06688 12.6743 6.16225 12.9046 6.16225 13.1446ZM12.4987 13.1446C12.4987 13.3847 12.4033 13.6149 12.2336 13.7847C12.0638 13.9545 11.8336 14.0498 11.5935 14.0498C11.3534 14.0498 11.1232 13.9545 10.9534 13.7847C10.7837 13.6149 10.6883 13.3847 10.6883 13.1446C10.6883 12.9046 10.7837 12.6743 10.9534 12.5046C11.1232 12.3348 11.3534 12.2394 11.5935 12.2394C11.8336 12.2394 12.0638 12.3348 12.2336 12.5046C12.4033 12.6743 12.4987 12.9046 12.4987 13.1446Z" fill="#363330"/>
</svg>
