<svg width="15" height="15" viewBox="0 0 15 15" fill="none" xmlns="http://www.w3.org/2000/svg">
<path d="M8.51918 5.39401C8.51918 5.27397 8.47149 5.15885 8.38661 5.07397C8.30173 4.98909 8.18661 4.94141 8.06657 4.94141C7.94654 4.94141 7.83141 4.98909 7.74653 5.07397C7.66165 5.15885 7.61397 5.27397 7.61397 5.39401V6.75182H6.25616C6.13612 6.75182 6.021 6.7995 5.93612 6.88438C5.85124 6.96926 5.80356 7.08438 5.80356 7.20442C5.80356 7.32446 5.85124 7.43958 5.93612 7.52446C6.021 7.60934 6.13612 7.65702 6.25616 7.65702H7.61397V9.01483C7.61397 9.13487 7.66165 9.24999 7.74653 9.33487C7.83141 9.41975 7.94654 9.46744 8.06657 9.46744C8.18661 9.46744 8.30173 9.41975 8.38661 9.33487C8.47149 9.24999 8.51918 9.13487 8.51918 9.01483V7.65702H9.87699C9.99702 7.65702 10.1121 7.60934 10.197 7.52446C10.2819 7.43958 10.3296 7.32446 10.3296 7.20442C10.3296 7.08438 10.2819 6.96926 10.197 6.88438C10.1121 6.7995 9.99702 6.75182 9.87699 6.75182H8.51918V5.39401Z" fill="#363330"/>
<path d="M0.824917 1.32031C0.70488 1.32031 0.589758 1.368 0.504879 1.45288C0.419999 1.53776 0.372314 1.65288 0.372314 1.77292C0.372314 1.89295 0.419999 2.00807 0.504879 2.09295C0.589758 2.17783 0.70488 2.22552 0.824917 2.22552H1.8297L2.19268 3.68018L3.54868 10.9083C3.5681 11.012 3.62314 11.1056 3.7043 11.1731C3.78545 11.2405 3.88762 11.2775 3.99314 11.2776H4.89834C4.41819 11.2776 3.95771 11.4683 3.61819 11.8078C3.27867 12.1474 3.08793 12.6078 3.08793 13.088C3.08793 13.5681 3.27867 14.0286 3.61819 14.3681C3.95771 14.7077 4.41819 14.8984 4.89834 14.8984C5.3785 14.8984 5.83898 14.7077 6.1785 14.3681C6.51802 14.0286 6.70876 13.5681 6.70876 13.088C6.70876 12.6078 6.51802 12.1474 6.1785 11.8078C5.83898 11.4683 5.3785 11.2776 4.89834 11.2776H11.2348C10.7546 11.2776 10.2942 11.4683 9.95463 11.8078C9.61511 12.1474 9.42437 12.6078 9.42437 13.088C9.42437 13.5681 9.61511 14.0286 9.95463 14.3681C10.2942 14.7077 10.7546 14.8984 11.2348 14.8984C11.7149 14.8984 12.1754 14.7077 12.5149 14.3681C12.8545 14.0286 13.0452 13.5681 13.0452 13.088C13.0452 12.6078 12.8545 12.1474 12.5149 11.8078C12.1754 11.4683 11.7149 11.2776 11.2348 11.2776H12.14C12.2455 11.2775 12.3477 11.2405 12.4288 11.1731C12.51 11.1056 12.565 11.012 12.5844 10.9083L13.9423 3.66661C13.9545 3.60128 13.9522 3.53407 13.9355 3.46974C13.9188 3.40541 13.8882 3.34554 13.8458 3.29439C13.8033 3.24324 13.7502 3.20205 13.69 3.17377C13.6299 3.14548 13.5643 3.13079 13.4978 3.13072H2.98836L2.62175 1.66339C2.59732 1.56543 2.54084 1.47845 2.46129 1.41629C2.38174 1.35412 2.28369 1.32034 2.18273 1.32031H0.824917ZM4.3688 10.3724L3.18026 4.03593H12.9529L11.7643 10.3724H4.3688ZM5.80355 13.088C5.80355 13.3281 5.70818 13.5583 5.53842 13.7281C5.36866 13.8978 5.13842 13.9932 4.89834 13.9932C4.65827 13.9932 4.42803 13.8978 4.25827 13.7281C4.08851 13.5583 3.99314 13.3281 3.99314 13.088C3.99314 12.8479 4.08851 12.6177 4.25827 12.4479C4.42803 12.2782 4.65827 12.1828 4.89834 12.1828C5.13842 12.1828 5.36866 12.2782 5.53842 12.4479C5.70818 12.6177 5.80355 12.8479 5.80355 13.088ZM12.14 13.088C12.14 13.3281 12.0446 13.5583 11.8749 13.7281C11.7051 13.8978 11.4749 13.9932 11.2348 13.9932C10.9947 13.9932 10.7645 13.8978 10.5947 13.7281C10.425 13.5583 10.3296 13.3281 10.3296 13.088C10.3296 12.8479 10.425 12.6177 10.5947 12.4479C10.7645 12.2782 10.9947 12.1828 11.2348 12.1828C11.4749 12.1828 11.7051 12.2782 11.8749 12.4479C12.0446 12.6177 12.14 12.8479 12.14 13.088Z" fill="#363330"/>
</svg>
