<svg width="21" height="21" viewBox="0 0 21 21" fill="none" xmlns="http://www.w3.org/2000/svg">
<path d="M10.4397 5.22266C10.6039 5.22266 10.7614 5.2879 10.8776 5.40404C10.9937 5.52018 11.059 5.6777 11.059 5.84195V9.55768H14.7747C14.9389 9.55768 15.0965 9.62293 15.2126 9.73907C15.3287 9.85521 15.394 10.0127 15.394 10.177C15.394 10.3412 15.3287 10.4987 15.2126 10.6149C15.0965 10.731 14.9389 10.7963 14.7747 10.7963H11.059V14.512C11.059 14.6762 10.9937 14.8338 10.8776 14.9499C10.7614 15.066 10.6039 15.1313 10.4397 15.1313C10.2754 15.1313 10.1179 15.066 10.0018 14.9499C9.88562 14.8338 9.82038 14.6762 9.82038 14.512V10.7963H6.10464C5.9404 10.7963 5.78288 10.731 5.66674 10.6149C5.5506 10.4987 5.48535 10.3412 5.48535 10.177C5.48535 10.0127 5.5506 9.85521 5.66674 9.73907C5.78288 9.62293 5.9404 9.55768 6.10464 9.55768H9.82038V5.84195C9.82038 5.6777 9.88562 5.52018 10.0018 5.40404C10.1179 5.2879 10.2754 5.22266 10.4397 5.22266Z" fill="#363330"/>
</svg>
