<svg width="21" height="21" viewBox="0 0 21 21" fill="none" xmlns="http://www.w3.org/2000/svg">
<path d="M10.8127 5.22266C10.977 5.22266 11.1345 5.2879 11.2506 5.40404C11.3668 5.52018 11.432 5.6777 11.432 5.84195V9.55768H15.1477C15.312 9.55768 15.4695 9.62293 15.5856 9.73907C15.7018 9.85521 15.767 10.0127 15.767 10.177C15.767 10.3412 15.7018 10.4987 15.5856 10.6149C15.4695 10.731 15.312 10.7963 15.1477 10.7963H11.432V14.512C11.432 14.6762 11.3668 14.8338 11.2506 14.9499C11.1345 15.066 10.977 15.1313 10.8127 15.1313C10.6485 15.1313 10.4909 15.066 10.3748 14.9499C10.2587 14.8338 10.1934 14.6762 10.1934 14.512V10.7963H6.47769C6.31344 10.7963 6.15592 10.731 6.03978 10.6149C5.92364 10.4987 5.8584 10.3412 5.8584 10.177C5.8584 10.0127 5.92364 9.85521 6.03978 9.73907C6.15592 9.62293 6.31344 9.55768 6.47769 9.55768H10.1934V5.84195C10.1934 5.6777 10.2587 5.52018 10.3748 5.40404C10.4909 5.2879 10.6485 5.22266 10.8127 5.22266Z" fill="#363330"/>
</svg>
