<svg width="37" height="37" viewBox="0 0 37 37" fill="none" xmlns="http://www.w3.org/2000/svg">
<path d="M36.5453 18.1095C36.5453 18.1095 29.7782 5.70312 18.4997 5.70312C7.22121 5.70312 0.454102 18.1095 0.454102 18.1095C0.454102 18.1095 7.22121 30.5159 18.4997 30.5159C29.7782 30.5159 36.5453 18.1095 36.5453 18.1095ZM3.10004 18.1095C4.19071 16.4518 5.44516 14.9079 6.84451 13.5011C9.74759 10.5935 13.7176 7.95883 18.4997 7.95883C23.2818 7.95883 27.2496 10.5935 30.1572 13.5011C31.5565 14.9079 32.811 16.4518 33.9017 18.1095C33.7708 18.3057 33.6265 18.5223 33.4618 18.7591C32.7061 19.8419 31.5896 21.2855 30.1572 22.7179C27.2496 25.6255 23.2796 28.2601 18.4997 28.2601C13.7176 28.2601 9.74985 25.6255 6.84225 22.7179C5.44292 21.311 4.18846 19.7671 3.09778 18.1095H3.10004Z" fill="white"/>
<path d="M18.4995 12.4745C17.0038 12.4745 15.5695 13.0686 14.5119 14.1262C13.4543 15.1837 12.8602 16.6181 12.8602 18.1137C12.8602 19.6093 13.4543 21.0437 14.5119 22.1013C15.5695 23.1588 17.0038 23.753 18.4995 23.753C19.9951 23.753 21.4294 23.1588 22.487 22.1013C23.5446 21.0437 24.1387 19.6093 24.1387 18.1137C24.1387 16.6181 23.5446 15.1837 22.487 14.1262C21.4294 13.0686 19.9951 12.4745 18.4995 12.4745ZM10.6045 18.1137C10.6045 16.0198 11.4363 14.0117 12.9169 12.5311C14.3975 11.0505 16.4056 10.2188 18.4995 10.2188C20.5933 10.2188 22.6014 11.0505 24.082 12.5311C25.5626 14.0117 26.3944 16.0198 26.3944 18.1137C26.3944 20.2076 25.5626 22.2157 24.082 23.6963C22.6014 25.1769 20.5933 26.0087 18.4995 26.0087C16.4056 26.0087 14.3975 25.1769 12.9169 23.6963C11.4363 22.2157 10.6045 20.2076 10.6045 18.1137Z" fill="white"/>
</svg>
