<svg width="22" height="23" viewBox="0 0 22 23" fill="none" xmlns="http://www.w3.org/2000/svg">
<path d="M19.1748 20.1973C19.012 19.6547 18.7768 19.0578 18.5055 18.4428C18.2342 17.8458 17.9086 17.2128 17.583 16.6158C17.5287 16.6882 17.4926 16.7786 17.4383 16.851C17.384 16.9233 17.3298 17.0138 17.2755 17.0861C17.2212 17.1585 17.167 17.2308 17.1127 17.3213C17.0584 17.3936 17.0042 17.466 16.9318 17.5383C16.9318 17.5383 16.9318 17.5383 16.9137 17.5564C16.9137 17.5564 16.9137 17.5745 16.8956 17.5745C16.8956 17.5745 16.8956 17.5926 16.8776 17.5926L16.8595 17.6107L16.8052 17.665C16.8414 17.8097 16.9137 17.9725 16.9861 18.1534C17.0584 18.3342 17.1308 18.5332 17.1851 18.7141C17.2393 18.895 17.2936 19.0759 17.3117 19.2025C17.3298 19.3472 17.3298 19.4557 17.2755 19.51C17.2574 19.5281 17.2393 19.5462 17.2212 19.5643C17.2031 19.5823 17.1851 19.5823 17.1489 19.6004C17.1308 19.6004 17.0946 19.6185 17.0765 19.6185C17.0404 19.6185 17.0223 19.6185 16.9861 19.6185C16.9318 19.6185 16.8776 19.6004 16.8233 19.6004C16.769 19.5823 16.6967 19.5643 16.6424 19.5462C16.5701 19.5281 16.5158 19.4919 16.4434 19.4738C16.3711 19.4376 16.2987 19.4195 16.2264 19.3834C16.1359 19.3472 16.0274 19.2929 15.937 19.2387C15.8284 19.1844 15.7199 19.1301 15.6114 19.0578C15.5028 19.0035 15.3943 18.9312 15.2858 18.8588C15.1772 18.7864 15.0506 18.7141 14.9421 18.6417C15.3943 18.1895 15.8284 17.7011 16.2264 17.1766C16.6243 16.652 16.9861 16.1094 17.2936 15.5305C17.6192 14.9517 17.8905 14.3548 18.1076 13.7398C18.3427 13.1248 18.5055 12.5097 18.6321 11.8586C18.9216 10.4296 18.9035 9.09103 18.6321 7.8791C18.3789 6.70335 17.8724 5.6723 17.1851 4.82215C16.5158 3.99008 15.6475 3.35698 14.6346 2.94094C13.6578 2.543 12.5182 2.36211 11.3063 2.45256C10.5104 2.50682 9.71452 2.66962 8.93672 2.92286C8.177 3.17609 7.41728 3.51978 6.71183 3.9539C6.00638 4.36993 5.33711 4.87641 4.70401 5.43715C4.07092 5.9979 3.49209 6.63099 2.96752 7.30027C2.82281 7.02894 2.71428 6.79379 2.62384 6.57673C2.5334 6.35967 2.46104 6.1426 2.42487 5.96172C2.38869 5.78084 2.3706 5.61804 2.38869 5.49142C2.40678 5.3648 2.44295 5.25627 2.51531 5.18392C2.5334 5.16583 2.56957 5.12965 2.60575 5.11156C2.64193 5.09347 2.6781 5.07538 2.73237 5.03921C2.78664 5.02112 2.8409 5.00303 2.89517 4.98494C2.94943 4.96685 3.02179 4.96685 3.07605 4.96685C3.1484 4.96685 3.22076 4.96685 3.29311 4.96685C3.36547 4.98494 3.45591 5.00303 3.52826 5.02112C3.60062 5.0573 3.69106 5.09347 3.76341 5.12965C3.85386 5.18392 3.92621 5.23818 3.99856 5.31053C4.07092 5.22009 4.16136 5.12965 4.2518 5.03921C4.34224 4.94877 4.4146 4.85832 4.50504 4.78597C4.59548 4.71362 4.68593 4.62317 4.77637 4.55082C4.86681 4.47846 4.97534 4.40611 5.06578 4.33376L5.08387 4.31567L5.10196 4.29758L5.12005 4.27949L5.13814 4.2614C4.95725 4.09861 4.75828 3.97199 4.55931 3.86346C4.36033 3.75493 4.14327 3.66448 3.92621 3.61022C3.70915 3.55595 3.51017 3.50169 3.29311 3.4836C3.09414 3.46551 2.87708 3.46551 2.69619 3.46551C2.56957 3.46551 2.42487 3.4836 2.31633 3.51978C2.18972 3.53786 2.08118 3.57404 1.97265 3.61022C1.86412 3.64639 1.77368 3.68257 1.70133 3.73684C1.62897 3.7911 1.55662 3.84537 1.50235 3.89963C1.33956 4.08052 1.24911 4.29758 1.21294 4.587C1.17676 4.85832 1.17676 5.18392 1.24911 5.54569C1.32147 5.90745 1.44809 6.32349 1.61088 6.75761C1.79177 7.20982 2.00883 7.68012 2.28016 8.1866C2.09927 8.47602 1.91839 8.76543 1.75559 9.07294C1.5928 9.38044 1.43 9.68795 1.30338 9.99545C1.15867 10.303 1.03205 10.6285 0.923522 10.9541C0.814991 11.2797 0.706461 11.6053 0.616018 11.949C0.272337 13.2333 0.181895 14.4633 0.290426 15.621C0.398957 16.7786 0.724549 17.8458 1.24911 18.7684C1.77368 19.709 2.51531 20.4868 3.41973 21.0475C4.34224 21.6263 5.44564 21.9881 6.69375 22.0605C7.0736 22.0786 7.43537 22.0785 7.81523 22.0424C8.19509 22.0062 8.57495 21.9519 8.95481 21.8796C9.33466 21.8072 9.71452 21.6987 10.0763 21.5721C10.4561 21.4455 10.8179 21.3007 11.1978 21.1379L10.3114 19.4738C10.0582 19.5823 9.78688 19.6728 9.53364 19.7451C9.2804 19.8175 9.00907 19.8898 8.73774 19.926C8.46642 19.9803 8.21318 20.0165 7.94185 20.0346C7.67052 20.0526 7.41728 20.0526 7.16405 20.0526C6.15109 19.9984 5.26476 19.727 4.50504 19.2748C3.76341 18.8226 3.16649 18.2076 2.71428 17.466C2.28016 16.7244 1.99074 15.8742 1.9003 14.9336C1.79177 14.0111 1.88221 12.9981 2.13545 11.949C2.40678 10.8999 2.8409 9.9231 3.40164 9.01867C3.96239 8.11425 4.64975 7.30027 5.42755 6.6129C6.20536 5.92554 7.05552 5.34671 7.97803 4.93068C8.90054 4.51464 9.85923 4.24331 10.836 4.18905C11.8309 4.13478 12.7353 4.29758 13.5131 4.62317C14.309 4.96685 14.9964 5.49142 15.539 6.16069C16.0817 6.84805 16.4615 7.68012 16.6605 8.63881C16.8595 9.5975 16.8595 10.6828 16.6243 11.8224C16.5158 12.3289 16.3711 12.8173 16.1902 13.3056C16.0093 13.794 15.7922 14.2643 15.539 14.6985C15.2858 15.1507 15.0144 15.5848 14.7069 16.0008C14.3994 16.4169 14.0558 16.7967 13.7121 17.1585C13.7121 17.0319 13.7302 16.9052 13.7302 16.7786C13.7302 16.652 13.7483 16.5254 13.7483 16.4169C13.7483 16.3083 13.7663 16.1998 13.7663 16.1094C13.7663 16.0189 13.7663 15.9466 13.7663 15.8923C13.7663 15.838 13.7663 15.8019 13.7483 15.7657C13.7483 15.7295 13.7302 15.7114 13.7121 15.6933C13.694 15.6752 13.6759 15.6571 13.6578 15.6571C13.6397 15.6571 13.6216 15.6391 13.6035 15.6391C13.5855 15.6391 13.5674 15.6391 13.5493 15.6391C13.5312 15.6391 13.5131 15.6391 13.5131 15.6571C13.495 15.6571 13.495 15.6571 13.4769 15.6752H13.4588L10.3476 16.6882C10.3476 16.6882 10.3114 16.6882 10.2753 16.7063C10.2391 16.7244 10.2029 16.7425 10.1667 16.7786C10.1306 16.8148 10.1125 16.8691 10.0944 16.9414C10.0944 17.0138 10.1125 17.0861 10.1486 17.1947V17.2127C10.1486 17.2127 10.1486 17.2308 10.1667 17.2308C10.1667 17.2308 10.1667 17.2489 10.1848 17.2489C10.1848 17.2489 10.1848 17.267 10.2029 17.267C10.3476 17.5564 10.5466 17.9363 10.7637 18.3704C10.9988 18.8045 11.252 19.2929 11.5053 19.7632C11.7585 20.2516 12.0118 20.7219 12.2469 21.1199C12.464 21.5359 12.6629 21.8796 12.7715 22.0786C12.7896 22.0966 12.7896 22.1147 12.8077 22.1328C12.8257 22.1509 12.8257 22.169 12.8257 22.1871C12.8257 22.2052 12.8438 22.2233 12.8438 22.2233C12.8438 22.2413 12.8619 22.2413 12.8619 22.2594C12.8981 22.3137 12.9162 22.368 12.9524 22.4041C12.9704 22.4403 13.0066 22.4765 13.0247 22.4946C13.0428 22.5127 13.079 22.5308 13.0971 22.5489C13.1152 22.5669 13.1513 22.5669 13.1694 22.5669C13.2056 22.5669 13.2418 22.5489 13.278 22.5308C13.3141 22.5127 13.3322 22.4765 13.3684 22.4403C13.3865 22.4041 13.4046 22.368 13.4227 22.3318C13.4407 22.2956 13.4407 22.2594 13.4407 22.2233C13.4407 22.2052 13.4407 22.2052 13.4407 22.1871C13.4407 22.169 13.4407 22.1509 13.4407 22.1328C13.4407 22.1147 13.4407 22.0966 13.4407 22.0605C13.4407 22.0424 13.4407 22.0062 13.4407 21.9881C13.4407 21.8796 13.4588 21.753 13.4588 21.6263C13.4588 21.4997 13.4769 21.3731 13.4769 21.2465C13.4769 21.1199 13.495 21.0113 13.495 20.939C13.495 20.8666 13.495 20.8124 13.495 20.7943C13.9291 21.0475 14.3452 21.3007 14.7612 21.5359C15.1772 21.771 15.5933 21.9881 15.9912 22.169C16.3892 22.3499 16.769 22.5127 17.1308 22.6212C17.4926 22.7297 17.8001 22.8021 18.0895 22.8202C18.1257 22.8202 18.1618 22.8202 18.198 22.8202C18.2342 22.8202 18.2704 22.8202 18.3065 22.8202C18.3427 22.8202 18.3789 22.8202 18.4151 22.8202C18.4513 22.8202 18.4874 22.8021 18.5236 22.8021C18.5779 22.784 18.6141 22.784 18.6683 22.7659C18.7226 22.7478 18.7588 22.7297 18.7949 22.7116C18.8311 22.6936 18.8673 22.6755 18.9035 22.6393C18.9396 22.6031 18.9758 22.585 19.012 22.5489C19.211 22.3318 19.3014 22.0062 19.3014 21.5902C19.3014 21.1741 19.211 20.6676 19.0482 20.125L19.1748 20.1973Z" fill="#FDC600"/>
<path d="M9.33532 11.645V10.9034H7.39985L8.52134 9.79998C8.82884 9.51057 9.02781 9.23924 9.15443 8.986C9.28105 8.73276 9.33532 8.47952 9.33532 8.22629C9.33532 7.79216 9.2087 7.46657 8.93737 7.21333C8.66604 6.97818 8.30427 6.85156 7.81588 6.85156C7.34558 6.85156 6.96573 6.97818 6.67631 7.21333C6.3869 7.44848 6.24219 7.79216 6.24219 8.22629V8.28055H7.05617C7.05617 7.81025 7.30941 7.5751 7.7978 7.5751C8.2681 7.5751 8.52134 7.81025 8.52134 8.26246C8.52134 8.44335 8.48516 8.62423 8.39472 8.78703C8.30427 8.94983 8.17765 9.13071 7.97868 9.32968L6.35072 10.9215V11.6631H9.3534L9.33532 11.645ZM13.4052 8.28055C13.4052 7.84643 13.2605 7.50275 12.953 7.24951C12.6455 6.99627 12.2656 6.85156 11.7953 6.85156C11.325 6.85156 10.9271 6.97818 10.6377 7.23142C10.3483 7.48466 10.1855 7.82834 10.1855 8.26246V10.2703C10.1855 10.7044 10.3302 11.0481 10.6377 11.3013C10.9271 11.5546 11.325 11.6812 11.7953 11.6812C12.2656 11.6812 12.6636 11.5546 12.953 11.2832C13.2424 11.03 13.4052 10.6682 13.4052 10.2522V8.26246V8.28055ZM12.5912 10.1979C12.5912 10.4512 12.5189 10.6501 12.3742 10.7768C12.2295 10.9215 12.0486 10.9938 11.7953 10.9938C11.5421 10.9938 11.3612 10.9215 11.2165 10.7768C11.0718 10.6321 10.9995 10.4331 10.9995 10.1979V8.31673C10.9995 8.06349 11.0718 7.86452 11.2165 7.71981C11.3612 7.5751 11.5602 7.50275 11.7953 7.50275C12.0486 7.50275 12.2476 7.5751 12.3742 7.71981C12.5189 7.86452 12.5912 8.06349 12.5912 8.31673L12.5732 10.1979H12.5912Z" fill="#FDC600"/>
<path d="M7.09138 15.6235V12.0781H6.49446V14.7733L5.10165 12.0781H4.2334V15.6235H4.83032V12.9283L6.24122 15.6235H7.09138ZM8.52037 15.2979C8.52037 15.2074 8.48419 15.1351 8.42992 15.0989C8.37566 15.0446 8.28522 15.0265 8.19477 15.0265C8.10433 15.0265 8.03198 15.0446 7.95962 15.0989C7.90536 15.1532 7.86918 15.2074 7.86918 15.2979V15.4064C7.86918 15.4968 7.90536 15.5692 7.95962 15.6054C8.01389 15.6596 8.10433 15.6777 8.19477 15.6777C8.28522 15.6777 8.37566 15.6596 8.42992 15.6054C8.48419 15.5511 8.52037 15.4968 8.52037 15.4064L8.50228 15.2979H8.52037ZM11.306 14.6829H10.7452C10.7452 15.0085 10.5644 15.1893 10.2207 15.1893C9.877 15.1893 9.69612 15.0085 9.69612 14.6648V14.1402C9.69612 13.7784 9.85891 13.6156 10.2207 13.6156C10.5644 13.6156 10.7452 13.7784 10.7452 14.1221H11.306V14.0859C11.306 13.7784 11.2155 13.5433 11.0166 13.3805C10.8176 13.2177 10.5644 13.1273 10.2207 13.1273C9.89509 13.1273 9.62376 13.2177 9.44288 13.3805C9.24391 13.5614 9.15346 13.7965 9.15346 14.104V14.719C9.15346 15.0265 9.24391 15.2617 9.44288 15.4426C9.64185 15.6054 9.89509 15.6958 10.2207 15.6958C10.5463 15.6958 10.8176 15.6235 11.0166 15.4426C11.2155 15.2798 11.306 15.0446 11.306 14.7371L11.2879 14.701L11.306 14.6829ZM15.4302 15.6416V13.8689C15.4302 13.6337 15.3759 13.4348 15.2493 13.3081C15.1227 13.1815 14.9599 13.1092 14.7428 13.1092C14.5438 13.1092 14.3449 13.1634 14.164 13.272L13.8926 13.4348C13.7841 13.2177 13.5851 13.0911 13.2957 13.0911C13.1148 13.0911 12.934 13.1453 12.7712 13.2358L12.5541 13.3624V13.1092H11.9934V15.6235H12.5722V13.887L12.8797 13.7061C13.0063 13.6518 13.0968 13.6156 13.1872 13.6156C13.3681 13.6156 13.4404 13.7242 13.4404 13.9231V15.6235H14.0193V13.887L14.3268 13.7061C14.4534 13.6337 14.5438 13.5976 14.6343 13.5976C14.8152 13.5976 14.9056 13.7061 14.9056 13.9051V15.6054H15.4844L15.4302 15.6416Z" fill="#FDC600"/>
<path d="M16.8061 8.94809C19.1938 8.94809 21.1473 7.01263 21.1473 4.60686C21.1473 2.21918 19.2118 0.265625 16.8061 0.265625C14.4184 0.265625 12.4648 2.20109 12.4648 4.60686C12.4648 6.99454 14.4003 8.94809 16.8061 8.94809Z" fill="#FDC600"/>
<path d="M16.8061 8.94809C19.1938 8.94809 21.1473 7.01263 21.1473 4.60686C21.1473 2.21918 19.2118 0.265625 16.8061 0.265625C14.4184 0.265625 12.4648 2.20109 12.4648 4.60686C12.4648 6.99454 14.4003 8.94809 16.8061 8.94809Z" stroke="white" stroke-width="0.886335"/>
<path d="M18.4694 7.08912V6.61882H17.4022V2.47656H16.8595C16.5339 2.78407 16.2083 2.98304 15.9008 3.09157V3.57996C16.2626 3.52569 16.5882 3.34481 16.8776 3.03731V6.61882H15.5391V7.08912H18.4694Z" fill="#FEFEFE"/>
</svg>
