<svg width="22" height="23" viewBox="0 0 22 23" fill="none" xmlns="http://www.w3.org/2000/svg">
<path d="M19.6748 20.1973C19.512 19.6547 19.2768 19.0578 19.0055 18.4428C18.7342 17.8458 18.4086 17.2128 18.083 16.6158C18.0287 16.6882 17.9926 16.7786 17.9383 16.851C17.884 16.9233 17.8298 17.0138 17.7755 17.0861C17.7212 17.1585 17.667 17.2308 17.6127 17.3213C17.5584 17.3936 17.5042 17.466 17.4318 17.5383C17.4318 17.5383 17.4318 17.5383 17.4137 17.5564C17.4137 17.5564 17.4137 17.5745 17.3956 17.5745C17.3956 17.5745 17.3956 17.5926 17.3776 17.5926L17.3595 17.6107L17.3052 17.665C17.3414 17.8097 17.4137 17.9725 17.4861 18.1534C17.5584 18.3342 17.6308 18.5332 17.6851 18.7141C17.7393 18.895 17.7936 19.0759 17.8117 19.2025C17.8298 19.3472 17.8298 19.4557 17.7755 19.51C17.7574 19.5281 17.7393 19.5462 17.7212 19.5643C17.7031 19.5823 17.6851 19.5823 17.6489 19.6004C17.6308 19.6004 17.5946 19.6185 17.5765 19.6185C17.5404 19.6185 17.5223 19.6185 17.4861 19.6185C17.4318 19.6185 17.3776 19.6004 17.3233 19.6004C17.269 19.5823 17.1967 19.5643 17.1424 19.5462C17.0701 19.5281 17.0158 19.4919 16.9434 19.4738C16.8711 19.4376 16.7987 19.4195 16.7264 19.3834C16.6359 19.3472 16.5274 19.2929 16.437 19.2387C16.3284 19.1844 16.2199 19.1301 16.1114 19.0578C16.0028 19.0035 15.8943 18.9312 15.7858 18.8588C15.6772 18.7864 15.5506 18.7141 15.4421 18.6417C15.8943 18.1895 16.3284 17.7011 16.7264 17.1766C17.1243 16.652 17.4861 16.1094 17.7936 15.5305C18.1192 14.9517 18.3905 14.3548 18.6076 13.7398C18.8427 13.1248 19.0055 12.5097 19.1321 11.8586C19.4216 10.4296 19.4035 9.09103 19.1321 7.8791C18.8789 6.70335 18.3724 5.6723 17.6851 4.82215C17.0158 3.99008 16.1475 3.35698 15.1346 2.94094C14.1578 2.543 13.0182 2.36211 11.8063 2.45256C11.0104 2.50682 10.2145 2.66962 9.43672 2.92286C8.677 3.17609 7.91728 3.51978 7.21183 3.9539C6.50638 4.36993 5.83711 4.87641 5.20401 5.43715C4.57092 5.9979 3.99209 6.63099 3.46752 7.30027C3.32281 7.02894 3.21428 6.79379 3.12384 6.57673C3.0334 6.35967 2.96104 6.1426 2.92487 5.96172C2.88869 5.78084 2.8706 5.61804 2.88869 5.49142C2.90678 5.3648 2.94295 5.25627 3.01531 5.18392C3.0334 5.16583 3.06957 5.12965 3.10575 5.11156C3.14193 5.09347 3.1781 5.07538 3.23237 5.03921C3.28664 5.02112 3.3409 5.00303 3.39517 4.98494C3.44943 4.96685 3.52179 4.96685 3.57605 4.96685C3.6484 4.96685 3.72076 4.96685 3.79311 4.96685C3.86547 4.98494 3.95591 5.00303 4.02826 5.02112C4.10062 5.0573 4.19106 5.09347 4.26341 5.12965C4.35386 5.18392 4.42621 5.23818 4.49856 5.31053C4.57092 5.22009 4.66136 5.12965 4.7518 5.03921C4.84224 4.94877 4.9146 4.85832 5.00504 4.78597C5.09548 4.71362 5.18593 4.62317 5.27637 4.55082C5.36681 4.47846 5.47534 4.40611 5.56578 4.33376L5.58387 4.31567L5.60196 4.29758L5.62005 4.27949L5.63814 4.2614C5.45725 4.09861 5.25828 3.97199 5.05931 3.86346C4.86033 3.75493 4.64327 3.66448 4.42621 3.61022C4.20915 3.55595 4.01017 3.50169 3.79311 3.4836C3.59414 3.46551 3.37708 3.46551 3.19619 3.46551C3.06957 3.46551 2.92487 3.4836 2.81633 3.51978C2.68972 3.53786 2.58118 3.57404 2.47265 3.61022C2.36412 3.64639 2.27368 3.68257 2.20133 3.73684C2.12897 3.7911 2.05662 3.84537 2.00235 3.89963C1.83956 4.08052 1.74911 4.29758 1.71294 4.587C1.67676 4.85832 1.67676 5.18392 1.74911 5.54569C1.82147 5.90745 1.94809 6.32349 2.11088 6.75761C2.29177 7.20982 2.50883 7.68012 2.78016 8.1866C2.59927 8.47602 2.41839 8.76543 2.25559 9.07294C2.0928 9.38044 1.93 9.68795 1.80338 9.99545C1.65867 10.303 1.53205 10.6285 1.42352 10.9541C1.31499 11.2797 1.20646 11.6053 1.11602 11.949C0.772337 13.2333 0.681895 14.4633 0.790426 15.621C0.898957 16.7786 1.22455 17.8458 1.74911 18.7684C2.27368 19.709 3.01531 20.4868 3.91973 21.0475C4.84224 21.6263 5.94564 21.9881 7.19375 22.0605C7.5736 22.0786 7.93537 22.0785 8.31523 22.0424C8.69509 22.0062 9.07495 21.9519 9.45481 21.8796C9.83466 21.8072 10.2145 21.6987 10.5763 21.5721C10.9561 21.4455 11.3179 21.3007 11.6978 21.1379L10.8114 19.4738C10.5582 19.5823 10.2869 19.6728 10.0336 19.7451C9.7804 19.8175 9.50907 19.8898 9.23774 19.926C8.96642 19.9803 8.71318 20.0165 8.44185 20.0346C8.17052 20.0526 7.91728 20.0526 7.66405 20.0526C6.65109 19.9984 5.76476 19.727 5.00504 19.2748C4.26341 18.8226 3.66649 18.2076 3.21428 17.466C2.78016 16.7244 2.49074 15.8742 2.4003 14.9336C2.29177 14.0111 2.38221 12.9981 2.63545 11.949C2.90678 10.8999 3.3409 9.9231 3.90164 9.01867C4.46239 8.11425 5.14975 7.30027 5.92755 6.6129C6.70536 5.92554 7.55552 5.34671 8.47803 4.93068C9.40054 4.51464 10.3592 4.24331 11.336 4.18905C12.3309 4.13478 13.2353 4.29758 14.0131 4.62317C14.809 4.96685 15.4964 5.49142 16.039 6.16069C16.5817 6.84805 16.9615 7.68012 17.1605 8.63881C17.3595 9.5975 17.3595 10.6828 17.1243 11.8224C17.0158 12.3289 16.8711 12.8173 16.6902 13.3056C16.5093 13.794 16.2922 14.2643 16.039 14.6985C15.7858 15.1507 15.5144 15.5848 15.2069 16.0008C14.8994 16.4169 14.5558 16.7967 14.2121 17.1585C14.2121 17.0319 14.2302 16.9052 14.2302 16.7786C14.2302 16.652 14.2483 16.5254 14.2483 16.4169C14.2483 16.3083 14.2663 16.1998 14.2663 16.1094C14.2663 16.0189 14.2663 15.9466 14.2663 15.8923C14.2663 15.838 14.2663 15.8019 14.2483 15.7657C14.2483 15.7295 14.2302 15.7114 14.2121 15.6933C14.194 15.6752 14.1759 15.6571 14.1578 15.6571C14.1397 15.6571 14.1216 15.6391 14.1035 15.6391C14.0855 15.6391 14.0674 15.6391 14.0493 15.6391C14.0312 15.6391 14.0131 15.6391 14.0131 15.6571C13.995 15.6571 13.995 15.6571 13.9769 15.6752H13.9588L10.8476 16.6882C10.8476 16.6882 10.8114 16.6882 10.7753 16.7063C10.7391 16.7244 10.7029 16.7425 10.6667 16.7786C10.6306 16.8148 10.6125 16.8691 10.5944 16.9414C10.5944 17.0138 10.6125 17.0861 10.6486 17.1947V17.2127C10.6486 17.2127 10.6486 17.2308 10.6667 17.2308C10.6667 17.2308 10.6667 17.2489 10.6848 17.2489C10.6848 17.2489 10.6848 17.267 10.7029 17.267C10.8476 17.5564 11.0466 17.9363 11.2637 18.3704C11.4988 18.8045 11.752 19.2929 12.0053 19.7632C12.2585 20.2516 12.5118 20.7219 12.7469 21.1199C12.964 21.5359 13.1629 21.8796 13.2715 22.0786C13.2896 22.0966 13.2896 22.1147 13.3077 22.1328C13.3257 22.1509 13.3257 22.169 13.3257 22.1871C13.3257 22.2052 13.3438 22.2233 13.3438 22.2233C13.3438 22.2413 13.3619 22.2413 13.3619 22.2594C13.3981 22.3137 13.4162 22.368 13.4524 22.4041C13.4704 22.4403 13.5066 22.4765 13.5247 22.4946C13.5428 22.5127 13.579 22.5308 13.5971 22.5489C13.6152 22.5669 13.6513 22.5669 13.6694 22.5669C13.7056 22.5669 13.7418 22.5489 13.778 22.5308C13.8141 22.5127 13.8322 22.4765 13.8684 22.4403C13.8865 22.4041 13.9046 22.368 13.9227 22.3318C13.9407 22.2956 13.9407 22.2594 13.9407 22.2233C13.9407 22.2052 13.9407 22.2052 13.9407 22.1871C13.9407 22.169 13.9407 22.1509 13.9407 22.1328C13.9407 22.1147 13.9407 22.0966 13.9407 22.0605C13.9407 22.0424 13.9407 22.0062 13.9407 21.9881C13.9407 21.8796 13.9588 21.753 13.9588 21.6263C13.9588 21.4997 13.9769 21.3731 13.9769 21.2465C13.9769 21.1199 13.995 21.0113 13.995 20.939C13.995 20.8666 13.995 20.8124 13.995 20.7943C14.4291 21.0475 14.8452 21.3007 15.2612 21.5359C15.6772 21.771 16.0933 21.9881 16.4912 22.169C16.8892 22.3499 17.269 22.5127 17.6308 22.6212C17.9926 22.7297 18.3001 22.8021 18.5895 22.8202C18.6257 22.8202 18.6618 22.8202 18.698 22.8202C18.7342 22.8202 18.7704 22.8202 18.8065 22.8202C18.8427 22.8202 18.8789 22.8202 18.9151 22.8202C18.9513 22.8202 18.9874 22.8021 19.0236 22.8021C19.0779 22.784 19.1141 22.784 19.1683 22.7659C19.2226 22.7478 19.2588 22.7297 19.2949 22.7116C19.3311 22.6936 19.3673 22.6755 19.4035 22.6393C19.4396 22.6031 19.4758 22.585 19.512 22.5489C19.711 22.3318 19.8014 22.0062 19.8014 21.5902C19.8014 21.1741 19.711 20.6676 19.5482 20.125L19.6748 20.1973Z" fill="#FDC600"/>
<path d="M9.83532 11.645V10.9034H7.89985L9.02134 9.79998C9.32884 9.51057 9.52781 9.23924 9.65443 8.986C9.78105 8.73276 9.83532 8.47952 9.83532 8.22629C9.83532 7.79216 9.7087 7.46657 9.43737 7.21333C9.16604 6.97818 8.80427 6.85156 8.31588 6.85156C7.84558 6.85156 7.46573 6.97818 7.17631 7.21333C6.8869 7.44848 6.74219 7.79216 6.74219 8.22629V8.28055H7.55617C7.55617 7.81025 7.80941 7.5751 8.2978 7.5751C8.7681 7.5751 9.02134 7.81025 9.02134 8.26246C9.02134 8.44335 8.98516 8.62423 8.89472 8.78703C8.80427 8.94983 8.67765 9.13071 8.47868 9.32968L6.85072 10.9215V11.6631H9.8534L9.83532 11.645ZM13.9052 8.28055C13.9052 7.84643 13.7605 7.50275 13.453 7.24951C13.1455 6.99627 12.7656 6.85156 12.2953 6.85156C11.825 6.85156 11.4271 6.97818 11.1377 7.23142C10.8483 7.48466 10.6855 7.82834 10.6855 8.26246V10.2703C10.6855 10.7044 10.8302 11.0481 11.1377 11.3013C11.4271 11.5546 11.825 11.6812 12.2953 11.6812C12.7656 11.6812 13.1636 11.5546 13.453 11.2832C13.7424 11.03 13.9052 10.6682 13.9052 10.2522V8.26246V8.28055ZM13.0912 10.1979C13.0912 10.4512 13.0189 10.6501 12.8742 10.7768C12.7295 10.9215 12.5486 10.9938 12.2953 10.9938C12.0421 10.9938 11.8612 10.9215 11.7165 10.7768C11.5718 10.6321 11.4995 10.4331 11.4995 10.1979V8.31673C11.4995 8.06349 11.5718 7.86452 11.7165 7.71981C11.8612 7.5751 12.0602 7.50275 12.2953 7.50275C12.5486 7.50275 12.7476 7.5751 12.8742 7.71981C13.0189 7.86452 13.0912 8.06349 13.0912 8.31673L13.0732 10.1979H13.0912Z" fill="#FDC600"/>
<path d="M7.59138 15.6235V12.0781H6.99446V14.7733L5.60165 12.0781H4.7334V15.6235H5.33032V12.9283L6.74122 15.6235H7.59138ZM9.02037 15.2979C9.02037 15.2074 8.98419 15.1351 8.92992 15.0989C8.87566 15.0446 8.78522 15.0265 8.69477 15.0265C8.60433 15.0265 8.53198 15.0446 8.45962 15.0989C8.40536 15.1532 8.36918 15.2074 8.36918 15.2979V15.4064C8.36918 15.4968 8.40536 15.5692 8.45962 15.6054C8.51389 15.6596 8.60433 15.6777 8.69477 15.6777C8.78522 15.6777 8.87566 15.6596 8.92992 15.6054C8.98419 15.5511 9.02037 15.4968 9.02037 15.4064L9.00228 15.2979H9.02037ZM11.806 14.6829H11.2452C11.2452 15.0085 11.0644 15.1893 10.7207 15.1893C10.377 15.1893 10.1961 15.0085 10.1961 14.6648V14.1402C10.1961 13.7784 10.3589 13.6156 10.7207 13.6156C11.0644 13.6156 11.2452 13.7784 11.2452 14.1221H11.806V14.0859C11.806 13.7784 11.7155 13.5433 11.5166 13.3805C11.3176 13.2177 11.0644 13.1273 10.7207 13.1273C10.3951 13.1273 10.1238 13.2177 9.94288 13.3805C9.74391 13.5614 9.65346 13.7965 9.65346 14.104V14.719C9.65346 15.0265 9.74391 15.2617 9.94288 15.4426C10.1419 15.6054 10.3951 15.6958 10.7207 15.6958C11.0463 15.6958 11.3176 15.6235 11.5166 15.4426C11.7155 15.2798 11.806 15.0446 11.806 14.7371L11.7879 14.701L11.806 14.6829ZM15.9302 15.6416V13.8689C15.9302 13.6337 15.8759 13.4348 15.7493 13.3081C15.6227 13.1815 15.4599 13.1092 15.2428 13.1092C15.0438 13.1092 14.8449 13.1634 14.664 13.272L14.3926 13.4348C14.2841 13.2177 14.0851 13.0911 13.7957 13.0911C13.6148 13.0911 13.434 13.1453 13.2712 13.2358L13.0541 13.3624V13.1092H12.4934V15.6235H13.0722V13.887L13.3797 13.7061C13.5063 13.6518 13.5968 13.6156 13.6872 13.6156C13.8681 13.6156 13.9404 13.7242 13.9404 13.9231V15.6235H14.5193V13.887L14.8268 13.7061C14.9534 13.6337 15.0438 13.5976 15.1343 13.5976C15.3152 13.5976 15.4056 13.7061 15.4056 13.9051V15.6054H15.9844L15.9302 15.6416Z" fill="#FDC600"/>
<path d="M17.3061 8.94809C19.6938 8.94809 21.6473 7.01263 21.6473 4.60686C21.6473 2.21918 19.7118 0.265625 17.3061 0.265625C14.9184 0.265625 12.9648 2.20109 12.9648 4.60686C12.9648 6.99454 14.9003 8.94809 17.3061 8.94809Z" fill="#FDC600"/>
<path d="M17.3061 8.94809C19.6938 8.94809 21.6473 7.01263 21.6473 4.60686C21.6473 2.21918 19.7118 0.265625 17.3061 0.265625C14.9184 0.265625 12.9648 2.20109 12.9648 4.60686C12.9648 6.99454 14.9003 8.94809 17.3061 8.94809Z" stroke="white" stroke-width="0.886335"/>
<path d="M18.9694 7.08912V6.61882H17.9022V2.47656H17.3595C17.0339 2.78407 16.7083 2.98304 16.4008 3.09157V3.57996C16.7626 3.52569 17.0882 3.34481 17.3776 3.03731V6.61882H16.0391V7.08912H18.9694Z" fill="#FEFEFE"/>
</svg>
