<svg width="21" height="24" viewBox="0 0 21 24" fill="none" xmlns="http://www.w3.org/2000/svg">
<path d="M18.9248 20.463C18.762 19.9203 18.5268 19.3234 18.2555 18.7084C17.9842 18.1115 17.6586 17.4784 17.333 16.8815C17.2787 16.9538 17.2426 17.0443 17.1883 17.1166C17.134 17.189 17.0798 17.2794 17.0255 17.3518C16.9712 17.4241 16.917 17.4965 16.8627 17.5869C16.8084 17.6593 16.7542 17.7316 16.6818 17.804C16.6818 17.804 16.6818 17.804 16.6637 17.8221C16.6637 17.8221 16.6637 17.8401 16.6456 17.8401C16.6456 17.8401 16.6456 17.8582 16.6276 17.8582L16.6095 17.8763L16.5552 17.9306C16.5914 18.0753 16.6637 18.2381 16.7361 18.419C16.8084 18.5999 16.8808 18.7988 16.9351 18.9797C16.9893 19.1606 17.0436 19.3415 17.0617 19.4681C17.0798 19.6128 17.0798 19.7213 17.0255 19.7756C17.0074 19.7937 16.9893 19.8118 16.9712 19.8299C16.9531 19.848 16.9351 19.848 16.8989 19.8661C16.8808 19.8661 16.8446 19.8841 16.8265 19.8841C16.7904 19.8841 16.7723 19.8841 16.7361 19.8841C16.6818 19.8841 16.6276 19.8661 16.5733 19.8661C16.519 19.848 16.4467 19.8299 16.3924 19.8118C16.3201 19.7937 16.2658 19.7575 16.1934 19.7394C16.1211 19.7033 16.0487 19.6852 15.9764 19.649C15.8859 19.6128 15.7774 19.5585 15.687 19.5043C15.5784 19.45 15.4699 19.3958 15.3614 19.3234C15.2528 19.2691 15.1443 19.1968 15.0358 19.1244C14.9272 19.0521 14.8006 18.9797 14.6921 18.9074C15.1443 18.4552 15.5784 17.9668 15.9764 17.4422C16.3743 16.9176 16.7361 16.375 17.0436 15.7961C17.3692 15.2173 17.6405 14.6204 17.8576 14.0054C18.0927 13.3904 18.2555 12.7754 18.3821 12.1242C18.6716 10.6952 18.6535 9.35665 18.3821 8.14472C18.1289 6.96897 17.6224 5.93793 16.9351 5.08777C16.2658 4.2557 15.3975 3.6226 14.3846 3.20657C13.4078 2.80862 12.2682 2.62774 11.0563 2.71818C10.2604 2.77245 9.46452 2.93524 8.68672 3.18848C7.927 3.44172 7.16728 3.7854 6.46183 4.21952C5.75638 4.63556 5.08711 5.14204 4.45401 5.70278C3.82092 6.26352 3.24209 6.89662 2.71752 7.56589C2.57281 7.29456 2.46428 7.05941 2.37384 6.84235C2.2834 6.62529 2.21104 6.40823 2.17487 6.22734C2.13869 6.04646 2.1206 5.88366 2.13869 5.75704C2.15678 5.63043 2.19295 5.52189 2.26531 5.44954C2.2834 5.43145 2.31957 5.39528 2.35575 5.37719C2.39193 5.3591 2.4281 5.34101 2.48237 5.30483C2.53664 5.28674 2.5909 5.26866 2.64517 5.25057C2.69943 5.23248 2.77179 5.23248 2.82605 5.23248C2.8984 5.23248 2.97076 5.23248 3.04311 5.23248C3.11547 5.25057 3.20591 5.26866 3.27826 5.28674C3.35062 5.32292 3.44106 5.3591 3.51341 5.39528C3.60386 5.44954 3.67621 5.50381 3.74856 5.57616C3.82092 5.48572 3.91136 5.39528 4.0018 5.30483C4.09224 5.21439 4.1646 5.12395 4.25504 5.05159C4.34548 4.97924 4.43593 4.8888 4.52637 4.81644C4.61681 4.74409 4.72534 4.67174 4.81578 4.59938L4.83387 4.58129L4.85196 4.56321L4.87005 4.54512L4.88814 4.52703C4.70725 4.36423 4.50828 4.23761 4.30931 4.12908C4.11033 4.02055 3.89327 3.93011 3.67621 3.87584C3.45915 3.82158 3.26017 3.76731 3.04311 3.74922C2.84414 3.73114 2.62708 3.73114 2.44619 3.73114C2.31957 3.73114 2.17487 3.74922 2.06633 3.7854C1.93972 3.80349 1.83118 3.83967 1.72265 3.87584C1.61412 3.91202 1.52368 3.9482 1.45133 4.00246C1.37897 4.05673 1.30662 4.11099 1.25235 4.16526C1.08956 4.34614 0.999115 4.56321 0.962938 4.85262C0.926761 5.12395 0.926761 5.44954 0.999115 5.81131C1.07147 6.17308 1.19809 6.58911 1.36088 7.02324C1.54177 7.47545 1.75883 7.94575 2.03016 8.45223C1.84927 8.74164 1.66839 9.03106 1.50559 9.33856C1.3428 9.64607 1.18 9.95357 1.05338 10.2611C0.908673 10.5686 0.782053 10.8942 0.673522 11.2198C0.564991 11.5454 0.456461 11.8709 0.366018 12.2146C0.0223372 13.4989 -0.0681052 14.7289 0.0404257 15.8866C0.148957 17.0443 0.474549 18.1115 0.999115 19.034C1.52368 19.9746 2.26531 20.7524 3.16973 21.3131C4.09224 21.892 5.19564 22.2537 6.44375 22.3261C6.8236 22.3442 7.18537 22.3442 7.56523 22.308C7.94509 22.2718 8.32495 22.2176 8.70481 22.1452C9.08466 22.0728 9.46452 21.9643 9.82629 21.8377C10.2061 21.7111 10.5679 21.5664 10.9478 21.4036L10.0614 19.7394C9.8082 19.848 9.53688 19.9384 9.28364 20.0108C9.0304 20.0831 8.75907 20.1555 8.48774 20.1916C8.21642 20.2459 7.96318 20.2821 7.69185 20.3002C7.42052 20.3183 7.16728 20.3183 6.91405 20.3183C5.90109 20.264 5.01476 19.9927 4.25504 19.5405C3.51341 19.0882 2.91649 18.4732 2.46428 17.7316C2.03016 16.99 1.74074 16.1398 1.6503 15.1992C1.54177 14.2767 1.63221 13.2638 1.88545 12.2146C2.15678 11.1655 2.5909 10.1887 3.15164 9.2843C3.71239 8.37987 4.39975 7.56589 5.17755 6.87853C5.95536 6.19117 6.80552 5.61234 7.72803 5.1963C8.65054 4.78027 9.60923 4.50894 10.586 4.45467C11.5809 4.40041 12.4853 4.56321 13.2631 4.8888C14.059 5.23248 14.7464 5.75704 15.289 6.42632C15.8317 7.11368 16.2115 7.94575 16.4105 8.90444C16.6095 9.86313 16.6095 10.9484 16.3743 12.088C16.2658 12.5945 16.1211 13.0829 15.9402 13.5713C15.7593 14.0597 15.5422 14.53 15.289 14.9641C15.0358 15.4163 14.7644 15.8504 14.4569 16.2664C14.1494 16.6825 13.8058 17.0623 13.4621 17.4241C13.4621 17.2975 13.4802 17.1709 13.4802 17.0443C13.4802 16.9176 13.4983 16.791 13.4983 16.6825C13.4983 16.574 13.5163 16.4654 13.5163 16.375C13.5163 16.2845 13.5163 16.2122 13.5163 16.1579C13.5163 16.1037 13.5163 16.0675 13.4983 16.0313C13.4983 15.9951 13.4802 15.977 13.4621 15.9589C13.444 15.9409 13.4259 15.9228 13.4078 15.9228C13.3897 15.9228 13.3716 15.9047 13.3535 15.9047C13.3355 15.9047 13.3174 15.9047 13.2993 15.9047C13.2812 15.9047 13.2631 15.9047 13.2631 15.9228C13.245 15.9228 13.245 15.9228 13.2269 15.9409H13.2088L10.0976 16.9538C10.0976 16.9538 10.0614 16.9538 10.0253 16.9719C9.98909 16.99 9.95291 17.0081 9.91673 17.0443C9.88056 17.0804 9.86247 17.1347 9.84438 17.207C9.84438 17.2794 9.86247 17.3518 9.89864 17.4603V17.4784C9.89864 17.4784 9.89865 17.4965 9.91673 17.4965C9.91673 17.4965 9.91673 17.5146 9.93482 17.5146C9.93482 17.5146 9.93482 17.5326 9.95291 17.5326C10.0976 17.8221 10.2966 18.2019 10.5137 18.636C10.7488 19.0702 11.002 19.5585 11.2553 20.0289C11.5085 20.5172 11.7618 20.9875 11.9969 21.3855C12.214 21.8015 12.4129 22.1452 12.5215 22.3442C12.5396 22.3623 12.5396 22.3804 12.5577 22.3984C12.5757 22.4165 12.5757 22.4346 12.5757 22.4527C12.5757 22.4708 12.5938 22.4889 12.5938 22.4889C12.5938 22.507 12.6119 22.507 12.6119 22.5251C12.6481 22.5793 12.6662 22.6336 12.7024 22.6698C12.7204 22.7059 12.7566 22.7421 12.7747 22.7602C12.7928 22.7783 12.829 22.7964 12.8471 22.8145C12.8652 22.8326 12.9013 22.8326 12.9194 22.8326C12.9556 22.8326 12.9918 22.8145 13.028 22.7964C13.0641 22.7783 13.0822 22.7421 13.1184 22.7059C13.1365 22.6698 13.1546 22.6336 13.1727 22.5974C13.1907 22.5612 13.1907 22.5251 13.1907 22.4889C13.1907 22.4708 13.1907 22.4708 13.1907 22.4527C13.1907 22.4346 13.1907 22.4165 13.1907 22.3984C13.1907 22.3804 13.1907 22.3623 13.1907 22.3261C13.1907 22.308 13.1907 22.2718 13.1907 22.2537C13.1907 22.1452 13.2088 22.0186 13.2088 21.892C13.2088 21.7653 13.2269 21.6387 13.2269 21.5121C13.2269 21.3855 13.245 21.277 13.245 21.2046C13.245 21.1322 13.245 21.078 13.245 21.0599C13.6791 21.3131 14.0952 21.5664 14.5112 21.8015C14.9272 22.0367 15.3433 22.2537 15.7412 22.4346C16.1392 22.6155 16.519 22.7783 16.8808 22.8868C17.2426 22.9954 17.5501 23.0677 17.8395 23.0858C17.8757 23.0858 17.9118 23.0858 17.948 23.0858C17.9842 23.0858 18.0204 23.0858 18.0565 23.0858C18.0927 23.0858 18.1289 23.0858 18.1651 23.0858C18.2013 23.0858 18.2374 23.0677 18.2736 23.0677C18.3279 23.0496 18.3641 23.0496 18.4183 23.0315C18.4726 23.0134 18.5088 22.9954 18.5449 22.9773C18.5811 22.9592 18.6173 22.9411 18.6535 22.9049C18.6896 22.8687 18.7258 22.8507 18.762 22.8145C18.961 22.5974 19.0514 22.2718 19.0514 21.8558C19.0514 21.4398 18.961 20.9333 18.7982 20.3906L18.9248 20.463Z" fill="#FDC600"/>
<path d="M9.08532 11.9106V11.169H7.14985L8.27134 10.0656C8.57884 9.77619 8.77781 9.50487 8.90443 9.25163C9.03105 8.99839 9.08532 8.74515 9.08532 8.49191C9.08532 8.05779 8.9587 7.7322 8.68737 7.47896C8.41604 7.24381 8.05427 7.11719 7.56588 7.11719C7.09558 7.11719 6.71573 7.24381 6.42631 7.47896C6.1369 7.71411 5.99219 8.05779 5.99219 8.49191V8.54618H6.80617C6.80617 8.07588 7.05941 7.84073 7.5478 7.84073C8.0181 7.84073 8.27134 8.07588 8.27134 8.52809C8.27134 8.70897 8.23516 8.88986 8.14472 9.05265C8.05427 9.21545 7.92765 9.39634 7.72868 9.59531L6.10072 11.1871V11.9287H9.1034L9.08532 11.9106ZM13.1552 8.54618C13.1552 8.11205 13.0105 7.76837 12.703 7.51513C12.3955 7.26189 12.0156 7.11719 11.5453 7.11719C11.075 7.11719 10.6771 7.24381 10.3877 7.49705C10.0983 7.75028 9.93547 8.09396 9.93547 8.52809V10.5359C9.93547 10.97 10.0802 11.3137 10.3877 11.567C10.6771 11.8202 11.075 11.9468 11.5453 11.9468C12.0156 11.9468 12.4136 11.8202 12.703 11.5489C12.9924 11.2956 13.1552 10.9339 13.1552 10.5178V8.52809V8.54618ZM12.3412 10.4636C12.3412 10.7168 12.2689 10.9158 12.1242 11.0424C11.9795 11.1871 11.7986 11.2594 11.5453 11.2594C11.2921 11.2594 11.1112 11.1871 10.9665 11.0424C10.8218 10.8977 10.7495 10.6987 10.7495 10.4636V8.58235C10.7495 8.32912 10.8218 8.13014 10.9665 7.98543C11.1112 7.84073 11.3102 7.76837 11.5453 7.76837C11.7986 7.76837 11.9976 7.84073 12.1242 7.98543C12.2689 8.13014 12.3412 8.32912 12.3412 8.58235L12.3232 10.4636H12.3412Z" fill="#FDC600"/>
<path d="M6.84138 15.8891V12.3438H6.24446V15.0389L4.85165 12.3438H3.9834V15.8891H4.58032V13.1939L5.99122 15.8891H6.84138ZM8.27037 15.5635C8.27037 15.4731 8.23419 15.4007 8.17992 15.3645C8.12566 15.3103 8.03522 15.2922 7.94477 15.2922C7.85433 15.2922 7.78198 15.3103 7.70962 15.3645C7.65536 15.4188 7.61918 15.4731 7.61918 15.5635V15.672C7.61918 15.7625 7.65536 15.8348 7.70962 15.871C7.76389 15.9253 7.85433 15.9434 7.94477 15.9434C8.03522 15.9434 8.12566 15.9253 8.17992 15.871C8.23419 15.8167 8.27037 15.7625 8.27037 15.672L8.25228 15.5635H8.27037ZM11.056 14.9485H10.4952C10.4952 15.2741 10.3144 15.455 9.97068 15.455C9.627 15.455 9.44612 15.2741 9.44612 14.9304V14.4058C9.44612 14.0441 9.60891 13.8813 9.97068 13.8813C10.3144 13.8813 10.4952 14.0441 10.4952 14.3877H11.056V14.3516C11.056 14.0441 10.9655 13.8089 10.7666 13.6461C10.5676 13.4833 10.3144 13.3929 9.97068 13.3929C9.64509 13.3929 9.37376 13.4833 9.19288 13.6461C8.99391 13.827 8.90346 14.0622 8.90346 14.3697V14.9847C8.90346 15.2922 8.99391 15.5273 9.19288 15.7082C9.39185 15.871 9.64509 15.9614 9.97068 15.9614C10.2963 15.9614 10.5676 15.8891 10.7666 15.7082C10.9655 15.5454 11.056 15.3103 11.056 15.0028L11.0379 14.9666L11.056 14.9485ZM15.1802 15.9072V14.1345C15.1802 13.8994 15.1259 13.7004 14.9993 13.5738C14.8727 13.4471 14.7099 13.3748 14.4928 13.3748C14.2938 13.3748 14.0949 13.4291 13.914 13.5376L13.6426 13.7004C13.5341 13.4833 13.3351 13.3567 13.0457 13.3567C12.8648 13.3567 12.684 13.411 12.5212 13.5014L12.3041 13.628V13.3748H11.7434V15.8891H12.3222V14.1526L12.6297 13.9717C12.7563 13.9174 12.8468 13.8813 12.9372 13.8813C13.1181 13.8813 13.1904 13.9898 13.1904 14.1888V15.8891H13.7693V14.1526L14.0768 13.9717C14.2034 13.8994 14.2938 13.8632 14.3843 13.8632C14.5652 13.8632 14.6556 13.9717 14.6556 14.1707V15.871H15.2344L15.1802 15.9072Z" fill="#FDC600"/>
<path d="M16.5561 9.21372C18.9438 9.21372 20.8973 7.27825 20.8973 4.87248C20.8973 2.48481 18.9618 0.53125 16.5561 0.53125C14.1684 0.53125 12.2148 2.46672 12.2148 4.87248C12.2148 7.26016 14.1503 9.21372 16.5561 9.21372Z" fill="#FDC600"/>
<path d="M16.5561 9.21372C18.9438 9.21372 20.8973 7.27825 20.8973 4.87248C20.8973 2.48481 18.9618 0.53125 16.5561 0.53125C14.1684 0.53125 12.2148 2.46672 12.2148 4.87248C12.2148 7.26016 14.1503 9.21372 16.5561 9.21372Z" stroke="white" stroke-width="0.886335"/>
<path d="M18.2194 7.35475V6.88445H17.1522V2.74219H16.6095C16.2839 3.04969 15.9583 3.24866 15.6508 3.3572V3.84558C16.0126 3.79132 16.3382 3.61043 16.6276 3.30293V6.88445H15.2891V7.35475H18.2194Z" fill="#FEFEFE"/>
</svg>
