<svg width="17" height="17" viewBox="0 0 17 17" fill="none" xmlns="http://www.w3.org/2000/svg">
<path d="M8.77063 4.64844C8.90324 4.64844 9.03042 4.70112 9.12419 4.79489C9.21797 4.88866 9.27064 5.01584 9.27064 5.14845V8.14854H12.2707C12.4033 8.14854 12.5305 8.20122 12.6243 8.295C12.7181 8.38877 12.7708 8.51595 12.7708 8.64856C12.7708 8.78117 12.7181 8.90835 12.6243 9.00212C12.5305 9.09589 12.4033 9.14857 12.2707 9.14857H9.27064V12.1487C9.27064 12.2813 9.21797 12.4085 9.12419 12.5022C9.03042 12.596 8.90324 12.6487 8.77063 12.6487C8.63802 12.6487 8.51084 12.596 8.41707 12.5022C8.32329 12.4085 8.27061 12.2813 8.27061 12.1487V9.14857H5.27052C5.13791 9.14857 5.01073 9.09589 4.91696 9.00212C4.82319 8.90835 4.77051 8.78117 4.77051 8.64856C4.77051 8.51595 4.82319 8.38877 4.91696 8.295C5.01073 8.20122 5.13791 8.14854 5.27052 8.14854H8.27061V5.14845C8.27061 5.01584 8.32329 4.88866 8.41707 4.79489C8.51084 4.70112 8.63802 4.64844 8.77063 4.64844Z" fill="#CFCCC9"/>
</svg>
