<svg width="17" height="17" viewBox="0 0 17 17" fill="none" xmlns="http://www.w3.org/2000/svg">
<path d="M8.77063 4.22656C8.90324 4.22656 9.03042 4.27924 9.12419 4.37301C9.21797 4.46678 9.27064 4.59397 9.27064 4.72658V7.72667H12.2707C12.4033 7.72667 12.5305 7.77935 12.6243 7.87312C12.7181 7.96689 12.7708 8.09407 12.7708 8.22668C12.7708 8.3593 12.7181 8.48648 12.6243 8.58025C12.5305 8.67402 12.4033 8.7267 12.2707 8.7267H9.27064V11.7268C9.27064 11.8594 9.21797 11.9866 9.12419 12.0804C9.03042 12.1741 8.90324 12.2268 8.77063 12.2268C8.63802 12.2268 8.51084 12.1741 8.41707 12.0804C8.32329 11.9866 8.27061 11.8594 8.27061 11.7268V8.7267H5.27052C5.13791 8.7267 5.01073 8.67402 4.91696 8.58025C4.82319 8.48648 4.77051 8.3593 4.77051 8.22668C4.77051 8.09407 4.82319 7.96689 4.91696 7.87312C5.01073 7.77935 5.13791 7.72667 5.27052 7.72667H8.27061V4.72658C8.27061 4.59397 8.32329 4.46678 8.41707 4.37301C8.51084 4.27924 8.63802 4.22656 8.77063 4.22656Z" fill="#CFCCC9"/>
</svg>
