<svg width="14" height="15" viewBox="0 0 14 15" fill="none" xmlns="http://www.w3.org/2000/svg">
<path d="M8.08326 5.34396C8.08326 5.23253 8.039 5.12567 7.96021 5.04688C7.88142 4.96809 7.77456 4.92383 7.66314 4.92383C7.55171 4.92383 7.44485 4.96809 7.36606 5.04688C7.28727 5.12567 7.24301 5.23253 7.24301 5.34396V6.60434H5.98263C5.8712 6.60434 5.76434 6.6486 5.68555 6.72739C5.60676 6.80618 5.5625 6.91304 5.5625 7.02446C5.5625 7.13589 5.60676 7.24275 5.68555 7.32154C5.76434 7.40033 5.8712 7.44459 5.98263 7.44459H7.24301V8.70497C7.24301 8.8164 7.28727 8.92326 7.36606 9.00205C7.44485 9.08084 7.55171 9.1251 7.66314 9.1251C7.77456 9.1251 7.88142 9.08084 7.96021 9.00205C8.039 8.92326 8.08326 8.8164 8.08326 8.70497V7.44459H9.34364C9.45507 7.44459 9.56193 7.40033 9.64072 7.32154C9.71951 7.24275 9.76377 7.13589 9.76377 7.02446C9.76377 6.91304 9.71951 6.80618 9.64072 6.72739C9.56193 6.6486 9.45507 6.60434 9.34364 6.60434H8.08326V5.34396Z" fill="#363330"/>
<path d="M0.941123 1.56299C0.829699 1.56299 0.722838 1.60725 0.644048 1.68604C0.565259 1.76483 0.520996 1.87169 0.520996 1.98312C0.520996 2.09454 0.565259 2.2014 0.644048 2.28019C0.722838 2.35898 0.829699 2.40324 0.941123 2.40324H1.87381L2.21075 3.75353L3.46945 10.463C3.48747 10.5592 3.53856 10.6462 3.6139 10.7088C3.68923 10.7714 3.78407 10.8057 3.88201 10.8058H4.72227C4.27657 10.8058 3.84912 10.9828 3.53397 11.298C3.21881 11.6132 3.04176 12.0406 3.04176 12.4863C3.04176 12.932 3.21881 13.3594 3.53397 13.6746C3.84912 13.9897 4.27657 14.1668 4.72227 14.1668C5.16797 14.1668 5.59541 13.9897 5.91057 13.6746C6.22572 13.3594 6.40278 12.932 6.40278 12.4863C6.40278 12.0406 6.22572 11.6132 5.91057 11.298C5.59541 10.9828 5.16797 10.8058 4.72227 10.8058H10.604C10.1583 10.8058 9.7309 10.9828 9.41575 11.298C9.10059 11.6132 8.92354 12.0406 8.92354 12.4863C8.92354 12.932 9.10059 13.3594 9.41575 13.6746C9.7309 13.9897 10.1583 14.1668 10.604 14.1668C11.0497 14.1668 11.4772 13.9897 11.7923 13.6746C12.1075 13.3594 12.2846 12.932 12.2846 12.4863C12.2846 12.0406 12.1075 11.6132 11.7923 11.298C11.4772 10.9828 11.0497 10.8058 10.604 10.8058H11.4443C11.5422 10.8057 11.6371 10.7714 11.7124 10.7088C11.7878 10.6462 11.8388 10.5592 11.8569 10.463L13.1172 3.74093C13.1286 3.68029 13.1265 3.6179 13.111 3.55819C13.0955 3.49847 13.0671 3.4429 13.0277 3.39542C12.9883 3.34794 12.9389 3.30971 12.8831 3.28345C12.8273 3.25719 12.7664 3.24355 12.7047 3.2435H2.94933L2.60903 1.88144C2.58635 1.79052 2.53392 1.70978 2.46008 1.65208C2.38623 1.59437 2.29522 1.56301 2.2015 1.56299H0.941123ZM4.23072 9.96553L3.12746 4.08375H12.1988L11.0956 9.96553H4.23072ZM5.56252 12.4863C5.56252 12.7091 5.47399 12.9229 5.31642 13.0804C5.15884 13.238 4.94512 13.3265 4.72227 13.3265C4.49942 13.3265 4.2857 13.238 4.12812 13.0804C3.97054 12.9229 3.88201 12.7091 3.88201 12.4863C3.88201 12.2634 3.97054 12.0497 4.12812 11.8921C4.2857 11.7346 4.49942 11.646 4.72227 11.646C4.94512 11.646 5.15884 11.7346 5.31642 11.8921C5.47399 12.0497 5.56252 12.2634 5.56252 12.4863ZM11.4443 12.4863C11.4443 12.7091 11.3558 12.9229 11.1982 13.0804C11.0406 13.238 10.8269 13.3265 10.604 13.3265C10.3812 13.3265 10.1675 13.238 10.0099 13.0804C9.85232 12.9229 9.76379 12.7091 9.76379 12.4863C9.76379 12.2634 9.85232 12.0497 10.0099 11.8921C10.1675 11.7346 10.3812 11.646 10.604 11.646C10.8269 11.646 11.0406 11.7346 11.1982 11.8921C11.3558 12.0497 11.4443 12.2634 11.4443 12.4863Z" fill="#363330"/>
</svg>
