<svg width="14" height="15" viewBox="0 0 14 15" fill="none" xmlns="http://www.w3.org/2000/svg">
<path d="M7.84791 5.39132C7.84791 5.27989 7.80365 5.17303 7.72486 5.09424C7.64607 5.01545 7.53921 4.97119 7.42778 4.97119C7.31636 4.97119 7.2095 5.01545 7.13071 5.09424C7.05192 5.17303 7.00766 5.27989 7.00766 5.39132V6.6517H5.74728C5.63585 6.6517 5.52899 6.69596 5.4502 6.77475C5.37141 6.85354 5.32715 6.9604 5.32715 7.07183C5.32715 7.18325 5.37141 7.29011 5.4502 7.3689C5.52899 7.44769 5.63585 7.49195 5.74728 7.49195H7.00766V8.75234C7.00766 8.86376 7.05192 8.97062 7.13071 9.04941C7.2095 9.1282 7.31636 9.17246 7.42778 9.17246C7.53921 9.17246 7.64607 9.1282 7.72486 9.04941C7.80365 8.97062 7.84791 8.86376 7.84791 8.75234V7.49195H9.10829C9.21972 7.49195 9.32658 7.44769 9.40537 7.3689C9.48416 7.29011 9.52842 7.18325 9.52842 7.07183C9.52842 6.9604 9.48416 6.85354 9.40537 6.77475C9.32658 6.69596 9.21972 6.6517 9.10829 6.6517H7.84791V5.39132Z" fill="#363330"/>
<path d="M0.705772 1.61035C0.594347 1.61035 0.487486 1.65461 0.408697 1.7334C0.329908 1.81219 0.285645 1.91905 0.285645 2.03048C0.285645 2.1419 0.329908 2.24876 0.408697 2.32755C0.487486 2.40634 0.594347 2.45061 0.705772 2.45061H1.63845L1.9754 3.80089L3.2341 10.5103C3.25212 10.6066 3.30321 10.6936 3.37855 10.7561C3.45388 10.8187 3.54871 10.8531 3.64666 10.8531H4.48692C4.04122 10.8531 3.61377 11.0302 3.29862 11.3454C2.98346 11.6605 2.80641 12.088 2.80641 12.5337C2.80641 12.9794 2.98346 13.4068 3.29862 13.722C3.61377 14.0371 4.04122 14.2142 4.48692 14.2142C4.93261 14.2142 5.36006 14.0371 5.67521 13.722C5.99037 13.4068 6.16742 12.9794 6.16742 12.5337C6.16742 12.088 5.99037 11.6605 5.67521 11.3454C5.36006 11.0302 4.93261 10.8531 4.48692 10.8531H10.3687C9.923 10.8531 9.49555 11.0302 9.1804 11.3454C8.86524 11.6605 8.68819 12.088 8.68819 12.5337C8.68819 12.9794 8.86524 13.4068 9.1804 13.722C9.49555 14.0371 9.923 14.2142 10.3687 14.2142C10.8144 14.2142 11.2418 14.0371 11.557 13.722C11.8722 13.4068 12.0492 12.9794 12.0492 12.5337C12.0492 12.088 11.8722 11.6605 11.557 11.3454C11.2418 11.0302 10.8144 10.8531 10.3687 10.8531H11.209C11.3069 10.8531 11.4017 10.8187 11.4771 10.7561C11.5524 10.6936 11.6035 10.6066 11.6215 10.5103L12.8819 3.78829C12.8932 3.72766 12.8911 3.66526 12.8756 3.60555C12.8601 3.54584 12.8317 3.49026 12.7923 3.44278C12.7529 3.3953 12.7036 3.35707 12.6478 3.33081C12.5919 3.30456 12.531 3.29092 12.4693 3.29086H2.71398L2.37368 1.92881C2.351 1.83788 2.29857 1.75714 2.22473 1.69944C2.15088 1.64174 2.05987 1.61038 1.96615 1.61035H0.705772ZM3.99537 10.0129L2.89211 4.13111H11.9635L10.8602 10.0129H3.99537ZM5.32717 12.5337C5.32717 12.7565 5.23864 12.9702 5.08107 13.1278C4.92349 13.2854 4.70976 13.3739 4.48692 13.3739C4.26407 13.3739 4.05034 13.2854 3.89277 13.1278C3.73519 12.9702 3.64666 12.7565 3.64666 12.5337C3.64666 12.3108 3.73519 12.0971 3.89277 11.9395C4.05034 11.7819 4.26407 11.6934 4.48692 11.6934C4.70976 11.6934 4.92349 11.7819 5.08107 11.9395C5.23864 12.0971 5.32717 12.3108 5.32717 12.5337ZM11.209 12.5337C11.209 12.7565 11.1204 12.9702 10.9628 13.1278C10.8053 13.2854 10.5915 13.3739 10.3687 13.3739C10.1458 13.3739 9.93212 13.2854 9.77455 13.1278C9.61697 12.9702 9.52844 12.7565 9.52844 12.5337C9.52844 12.3108 9.61697 12.0971 9.77455 11.9395C9.93212 11.7819 10.1458 11.6934 10.3687 11.6934C10.5915 11.6934 10.8053 11.7819 10.9628 11.9395C11.1204 12.0971 11.209 12.3108 11.209 12.5337Z" fill="#363330"/>
</svg>
