<svg width="15" height="15" viewBox="0 0 15 15" fill="none" xmlns="http://www.w3.org/2000/svg">
<path d="M8.20387 5.46505C8.20387 5.35362 8.15961 5.24676 8.08082 5.16797C8.00203 5.08919 7.89517 5.04492 7.78374 5.04492C7.67232 5.04492 7.56545 5.08919 7.48667 5.16797C7.40788 5.24676 7.36361 5.35362 7.36361 5.46505V6.72543H6.10323C5.99181 6.72543 5.88495 6.76969 5.80616 6.84848C5.72737 6.92727 5.68311 7.03413 5.68311 7.14556C5.68311 7.25698 5.72737 7.36384 5.80616 7.44263C5.88495 7.52142 5.99181 7.56568 6.10323 7.56568H7.36361V8.82607C7.36361 8.93749 7.40788 9.04435 7.48667 9.12314C7.56545 9.20193 7.67232 9.24619 7.78374 9.24619C7.89517 9.24619 8.00203 9.20193 8.08082 9.12314C8.15961 9.04435 8.20387 8.93749 8.20387 8.82607V7.56568H9.46425C9.57567 7.56568 9.68254 7.52142 9.76132 7.44263C9.84011 7.36384 9.88438 7.25698 9.88438 7.14556C9.88438 7.03413 9.84011 6.92727 9.76132 6.84848C9.68254 6.76969 9.57567 6.72543 9.46425 6.72543H8.20387V5.46505Z" fill="#363330"/>
<path d="M1.06173 1.68408C0.950304 1.68408 0.843443 1.72835 0.764654 1.80713C0.685865 1.88592 0.641602 1.99278 0.641602 2.10421C0.641602 2.21563 0.685865 2.32249 0.764654 2.40128C0.843443 2.48007 0.950304 2.52434 1.06173 2.52434H1.99441L2.33135 3.87462L3.59005 10.5841C3.60808 10.6803 3.65917 10.7673 3.7345 10.8299C3.80983 10.8925 3.90467 10.9268 4.00262 10.9269H4.84287C4.39717 10.9269 3.96973 11.1039 3.65457 11.4191C3.33942 11.7342 3.16236 12.1617 3.16236 12.6074C3.16236 13.0531 3.33942 13.4805 3.65457 13.7957C3.96973 14.1108 4.39717 14.2879 4.84287 14.2879C5.28857 14.2879 5.71602 14.1108 6.03117 13.7957C6.34633 13.4805 6.52338 13.0531 6.52338 12.6074C6.52338 12.1617 6.34633 11.7342 6.03117 11.4191C5.71602 11.1039 5.28857 10.9269 4.84287 10.9269H10.7247C10.279 10.9269 9.85151 11.1039 9.53635 11.4191C9.2212 11.7342 9.04414 12.1617 9.04414 12.6074C9.04414 13.0531 9.2212 13.4805 9.53635 13.7957C9.85151 14.1108 10.279 14.2879 10.7247 14.2879C11.1704 14.2879 11.5978 14.1108 11.913 13.7957C12.2281 13.4805 12.4052 13.0531 12.4052 12.6074C12.4052 12.1617 12.2281 11.7342 11.913 11.4191C11.5978 11.1039 11.1704 10.9269 10.7247 10.9269H11.5649C11.6629 10.9268 11.7577 10.8925 11.833 10.8299C11.9084 10.7673 11.9594 10.6803 11.9775 10.5841L13.2379 3.86202C13.2492 3.80139 13.2471 3.73899 13.2316 3.67928C13.2161 3.61957 13.1877 3.56399 13.1483 3.51651C13.1089 3.46903 13.0595 3.4308 13.0037 3.40455C12.9479 3.37829 12.887 3.36465 12.8253 3.36459H3.06994L2.72963 2.00254C2.70695 1.91161 2.65452 1.83087 2.58068 1.77317C2.50684 1.71547 2.41582 1.68411 2.32211 1.68408H1.06173ZM4.35132 10.0866L3.24807 4.20484H12.3195L11.2162 10.0866H4.35132ZM5.68313 12.6074C5.68313 12.8302 5.5946 13.044 5.43702 13.2015C5.27944 13.3591 5.06572 13.4476 4.84287 13.4476C4.62002 13.4476 4.4063 13.3591 4.24872 13.2015C4.09115 13.044 4.00262 12.8302 4.00262 12.6074C4.00262 12.3845 4.09115 12.1708 4.24872 12.0132C4.4063 11.8557 4.62002 11.7671 4.84287 11.7671C5.06572 11.7671 5.27944 11.8557 5.43702 12.0132C5.5946 12.1708 5.68313 12.3845 5.68313 12.6074ZM11.5649 12.6074C11.5649 12.8302 11.4764 13.044 11.3188 13.2015C11.1612 13.3591 10.9475 13.4476 10.7247 13.4476C10.5018 13.4476 10.2881 13.3591 10.1305 13.2015C9.97293 13.044 9.8844 12.8302 9.8844 12.6074C9.8844 12.3845 9.97293 12.1708 10.1305 12.0132C10.2881 11.8557 10.5018 11.7671 10.7247 11.7671C10.9475 11.7671 11.1612 11.8557 11.3188 12.0132C11.4764 12.1708 11.5649 12.3845 11.5649 12.6074Z" fill="#363330"/>
</svg>
