<svg width="15" height="14" viewBox="0 0 15 14" fill="none" xmlns="http://www.w3.org/2000/svg">
<path d="M8.5232 5.03438C8.5232 4.92296 8.47894 4.8161 8.40015 4.73731C8.32136 4.65852 8.2145 4.61426 8.10308 4.61426C7.99165 4.61426 7.88479 4.65852 7.806 4.73731C7.72721 4.8161 7.68295 4.92296 7.68295 5.03438V6.29477H6.42257C6.31114 6.29477 6.20428 6.33903 6.12549 6.41782C6.0467 6.49661 6.00244 6.60347 6.00244 6.71489C6.00244 6.82632 6.0467 6.93318 6.12549 7.01197C6.20428 7.09076 6.31114 7.13502 6.42257 7.13502H7.68295V8.3954C7.68295 8.50683 7.72721 8.61369 7.806 8.69248C7.88479 8.77127 7.99165 8.81553 8.10308 8.81553C8.2145 8.81553 8.32136 8.77127 8.40015 8.69248C8.47894 8.61369 8.5232 8.50683 8.5232 8.3954V7.13502H9.78359C9.89501 7.13502 10.0019 7.09076 10.0807 7.01197C10.1594 6.93318 10.2037 6.82632 10.2037 6.71489C10.2037 6.60347 10.1594 6.49661 10.0807 6.41782C10.0019 6.33903 9.89501 6.29477 9.78359 6.29477H8.5232V5.03438Z" fill="#363330"/>
<path d="M1.38106 1.25342C1.26964 1.25342 1.16278 1.29768 1.08399 1.37647C1.0052 1.45526 0.960938 1.56212 0.960938 1.67355C0.960938 1.78497 1.0052 1.89183 1.08399 1.97062C1.16278 2.04941 1.26964 2.09367 1.38106 2.09367H2.31375L2.65069 3.44396L3.90939 10.1534C3.92741 10.2497 3.97851 10.3366 4.05384 10.3992C4.12917 10.4618 4.22401 10.4961 4.32195 10.4962H5.16221C4.71651 10.4962 4.28907 10.6733 3.97391 10.9884C3.65875 11.3036 3.4817 11.731 3.4817 12.1767C3.4817 12.6224 3.65875 13.0499 3.97391 13.365C4.28907 13.6802 4.71651 13.8572 5.16221 13.8572C5.60791 13.8572 6.03535 13.6802 6.35051 13.365C6.66566 13.0499 6.84272 12.6224 6.84272 12.1767C6.84272 11.731 6.66566 11.3036 6.35051 10.9884C6.03535 10.6733 5.60791 10.4962 5.16221 10.4962H11.044C10.5983 10.4962 10.1708 10.6733 9.85569 10.9884C9.54053 11.3036 9.36348 11.731 9.36348 12.1767C9.36348 12.6224 9.54053 13.0499 9.85569 13.365C10.1708 13.6802 10.5983 13.8572 11.044 13.8572C11.4897 13.8572 11.9171 13.6802 12.2323 13.365C12.5474 13.0499 12.7245 12.6224 12.7245 12.1767C12.7245 11.731 12.5474 11.3036 12.2323 10.9884C11.9171 10.6733 11.4897 10.4962 11.044 10.4962H11.8842C11.9822 10.4961 12.077 10.4618 12.1524 10.3992C12.2277 10.3366 12.2788 10.2497 12.2968 10.1534L13.5572 3.43136C13.5685 3.37072 13.5664 3.30833 13.5509 3.24862C13.5354 3.1889 13.507 3.13333 13.4676 3.08585C13.4282 3.03837 13.3789 3.00014 13.3231 2.97388C13.2672 2.94762 13.2063 2.93398 13.1446 2.93393H3.38927L3.04897 1.57187C3.02629 1.48095 2.97386 1.40021 2.90002 1.34251C2.82618 1.2848 2.73516 1.25344 2.64145 1.25342H1.38106ZM4.67066 9.65596L3.56741 3.77418H12.6388L11.5355 9.65596H4.67066ZM6.00246 12.1767C6.00246 12.3996 5.91394 12.6133 5.75636 12.7709C5.59878 12.9284 5.38506 13.017 5.16221 13.017C4.93936 13.017 4.72564 12.9284 4.56806 12.7709C4.41048 12.6133 4.32195 12.3996 4.32195 12.1767C4.32195 11.9539 4.41048 11.7402 4.56806 11.5826C4.72564 11.425 4.93936 11.3365 5.16221 11.3365C5.38506 11.3365 5.59878 11.425 5.75636 11.5826C5.91394 11.7402 6.00246 11.9539 6.00246 12.1767ZM11.8842 12.1767C11.8842 12.3996 11.7957 12.6133 11.6381 12.7709C11.4806 12.9284 11.2668 13.017 11.044 13.017C10.8211 13.017 10.6074 12.9284 10.4498 12.7709C10.2923 12.6133 10.2037 12.3996 10.2037 12.1767C10.2037 11.9539 10.2923 11.7402 10.4498 11.5826C10.6074 11.425 10.8211 11.3365 11.044 11.3365C11.2668 11.3365 11.4806 11.425 11.6381 11.5826C11.7957 11.7402 11.8842 11.9539 11.8842 12.1767Z" fill="#363330"/>
</svg>
