<svg width="31" height="33" viewBox="0 0 31 33" fill="none" xmlns="http://www.w3.org/2000/svg">
<path d="M27.2575 28.4587C27.0211 27.6851 26.6988 26.8256 26.312 25.966C25.9252 25.1064 25.4739 24.2254 24.9797 23.3443C24.9152 23.4518 24.8507 23.5807 24.7648 23.6882C24.7003 23.7956 24.6144 23.9245 24.5499 24.032C24.464 24.1394 24.3995 24.2469 24.3135 24.3543C24.2276 24.4618 24.1416 24.5692 24.0557 24.6767L24.0342 24.6982L24.0127 24.7196L23.9912 24.7411L23.9697 24.7626L23.8838 24.8486C23.9482 25.042 24.0342 25.2783 24.1416 25.5362C24.2276 25.7941 24.335 26.0734 24.421 26.3313C24.5069 26.5892 24.5714 26.847 24.5929 27.0404C24.6144 27.2338 24.6144 27.4058 24.5284 27.4702C24.5069 27.4917 24.4854 27.5132 24.4425 27.5347C24.421 27.5562 24.378 27.5777 24.335 27.5777C24.292 27.5991 24.2705 27.5991 24.2276 27.5991C24.1846 27.5991 24.1416 27.5991 24.0986 27.5991C24.0342 27.5991 23.9482 27.5777 23.8623 27.5777C23.7763 27.5562 23.6904 27.5347 23.6044 27.5132C23.5184 27.4917 23.411 27.4487 23.325 27.4058C23.2176 27.3628 23.1102 27.3198 23.0027 27.2768C22.8738 27.2123 22.7234 27.1479 22.5729 27.0619C22.4225 26.976 22.2721 26.89 22.1217 26.8041C21.9712 26.7181 21.7993 26.6321 21.6489 26.5247C21.477 26.4173 21.3266 26.3313 21.1547 26.2239C21.7993 25.5792 22.4225 24.8701 22.9812 24.1394C23.5399 23.3873 24.0557 22.6137 24.5069 21.7971C24.9582 20.9806 25.345 20.1425 25.6673 19.2615C25.9897 18.4019 26.2475 17.4994 26.4194 16.5968C26.8277 14.5554 26.8062 12.6429 26.4194 10.9453C26.0541 9.26913 25.345 7.78639 24.3565 6.6045C23.3895 5.42262 22.1646 4.52008 20.7464 3.93988C19.3496 3.35968 17.7379 3.1233 16.0188 3.23075C14.8799 3.3167 13.741 3.55308 12.6451 3.91839C11.5491 4.2837 10.4962 4.77795 9.48619 5.37964C8.47622 5.98133 7.50921 6.69046 6.62817 7.50704C5.72564 8.30213 4.90906 9.20466 4.15695 10.1717C3.96355 9.80635 3.79164 9.44104 3.6627 9.14019C3.53377 8.81786 3.42632 8.53851 3.38335 8.28064C3.31888 8.02277 3.29739 7.80788 3.31888 7.61448C3.34037 7.42108 3.40484 7.27066 3.49079 7.16322C3.51228 7.12024 3.55526 7.09875 3.61972 7.05577C3.6627 7.01279 3.72717 6.9913 3.79164 6.96982C3.8561 6.94833 3.94206 6.92684 4.02801 6.90535C4.11397 6.88386 4.19992 6.88386 4.28588 6.86237C4.39332 6.86237 4.50077 6.86237 4.60821 6.88386C4.71566 6.90535 4.8231 6.92684 4.95204 6.96982C5.05948 7.01279 5.18841 7.05577 5.29586 7.14173C5.4033 7.20619 5.53224 7.29215 5.63968 7.39959C5.74713 7.27066 5.87606 7.14173 5.9835 7.01279C6.11244 6.88386 6.21988 6.77642 6.34881 6.64748C6.47775 6.54004 6.60668 6.4111 6.73561 6.30366C6.86455 6.19622 7.01497 6.08877 7.16539 5.98133C7.18688 5.98133 7.18688 5.95984 7.20837 5.95984C7.22986 5.95984 7.22986 5.93835 7.25135 5.93835C7.27284 5.93835 7.27284 5.91686 7.29433 5.91686C7.31581 5.91686 7.31581 5.89537 7.3373 5.89537C7.07944 5.65899 6.80008 5.46559 6.52073 5.31517C6.24137 5.16475 5.94053 5.03582 5.63968 4.94986C5.33884 4.8639 5.03799 4.79944 4.73715 4.77795C4.4363 4.75646 4.15695 4.73497 3.87759 4.75646C3.68419 4.77795 3.51228 4.79944 3.34037 4.82093C3.16846 4.8639 3.01804 4.90688 2.86761 4.94986C2.71719 4.99284 2.58826 5.0573 2.48081 5.14326C2.37337 5.20773 2.26592 5.29368 2.20146 5.37964C1.96508 5.6375 1.83615 5.95984 1.77168 6.34664C1.70721 6.73344 1.7287 7.20619 1.83615 7.72193C1.94359 8.23766 2.1155 8.81786 2.35188 9.46253C2.60975 10.0857 2.91059 10.7733 3.31888 11.504C3.06101 11.9123 2.80315 12.3205 2.56677 12.7503C2.33039 13.1801 2.1155 13.6099 1.9221 14.0611C1.7287 14.5124 1.5353 14.9637 1.38488 15.4364C1.21297 15.9092 1.08404 16.382 0.955102 16.8547C0.482347 18.6813 0.331924 20.4433 0.482347 22.0765C0.632769 23.7311 1.10552 25.2354 1.85764 26.5462C2.60975 27.8785 3.6627 28.9744 4.95204 29.791C6.26286 30.6076 7.83155 31.1233 9.61513 31.2308C10.1523 31.2523 10.6681 31.2523 11.2053 31.2093C11.7425 31.1663 12.2797 31.1018 12.817 30.9944C13.3542 30.887 13.8914 30.7365 14.4286 30.5646C14.9659 30.3927 15.4816 30.1778 16.0188 29.9414L14.751 27.5562C14.3857 27.7066 14.0203 27.8355 13.6335 27.943C13.2682 28.0504 12.8814 28.1364 12.5161 28.2008C12.1508 28.2653 11.764 28.3083 11.3987 28.3513C11.0334 28.3727 10.6466 28.3728 10.2813 28.3728C8.84153 28.3083 7.57368 27.9215 6.52073 27.2768C5.46777 26.6321 4.60821 25.7511 3.98504 24.6982C3.36186 23.6452 2.97506 22.4203 2.82464 21.088C2.67421 19.7772 2.78166 18.3374 3.16846 16.8547C3.55526 15.372 4.17844 13.9752 4.97353 12.6859C5.76861 11.418 6.7571 10.2576 7.85304 9.26913C8.94897 8.28064 10.1738 7.46406 11.4632 6.86237C12.774 6.26068 14.1493 5.89537 15.5246 5.80942C16.9214 5.72346 18.2107 5.95984 19.3496 6.43259C20.4885 6.92684 21.477 7.67895 22.2291 8.62446C23.0027 9.59146 23.5614 10.7948 23.8408 12.1486C24.1201 13.5239 24.1201 15.0496 23.7978 16.6828C23.6474 17.3919 23.454 18.1011 23.1961 18.7887C22.9382 19.4764 22.6374 20.1425 22.2721 20.7872C21.9283 21.4318 21.52 22.055 21.0687 22.6352C20.6389 23.2154 20.1447 23.7741 19.6504 24.2899C19.6504 24.1179 19.6719 23.946 19.6719 23.7526C19.6719 23.5807 19.6934 23.3873 19.6934 23.2369C19.6934 23.065 19.7149 22.9146 19.7149 22.7856C19.7149 22.6567 19.7149 22.5493 19.7149 22.4848C19.7149 22.4203 19.7149 22.3559 19.6934 22.3129C19.6719 22.2699 19.6719 22.2269 19.6504 22.2054C19.629 22.184 19.6075 22.1625 19.586 22.1625C19.5645 22.141 19.5215 22.141 19.5 22.141C19.4785 22.141 19.457 22.141 19.4356 22.141C19.4141 22.141 19.3926 22.141 19.3711 22.1625C19.3496 22.1625 19.3496 22.184 19.3281 22.184H19.3066L14.8799 23.6237C14.8799 23.6237 14.8369 23.6452 14.7939 23.6667C14.751 23.6882 14.6865 23.7311 14.6435 23.7741C14.6005 23.8386 14.5576 23.9031 14.5361 23.989C14.5361 24.075 14.5576 24.2039 14.622 24.3543C14.622 24.3543 14.622 24.3758 14.6435 24.3758C14.6435 24.3758 14.6435 24.3973 14.665 24.3973C14.665 24.3973 14.665 24.4188 14.6865 24.4188C14.6865 24.4188 14.6865 24.4403 14.708 24.4403C14.9014 24.8486 15.1807 25.3858 15.5246 25.9875C15.8469 26.6107 16.2122 27.2983 16.5775 27.9645C16.9428 28.6521 17.3081 29.3183 17.6305 29.8985C17.9528 30.4787 18.2107 30.9729 18.3826 31.2738C18.4041 31.2952 18.4041 31.3167 18.4256 31.3597C18.4471 31.3812 18.4471 31.4027 18.4686 31.4242C18.49 31.4457 18.49 31.4671 18.49 31.4886C18.49 31.5101 18.5115 31.5316 18.5115 31.5316C18.5545 31.6176 18.5975 31.682 18.6405 31.725C18.6834 31.7895 18.7264 31.8325 18.7479 31.854C18.7909 31.8969 18.8124 31.9184 18.8554 31.9399C18.8983 31.9614 18.9198 31.9614 18.9413 31.9614C19.0058 31.9614 19.0488 31.9399 19.0917 31.9184C19.1347 31.8969 19.1777 31.8325 19.1992 31.7895C19.2207 31.7465 19.2636 31.682 19.2851 31.6391C19.3066 31.5961 19.3066 31.5316 19.3281 31.4886C19.3281 31.4671 19.3281 31.4671 19.3281 31.4457C19.3281 31.4242 19.3281 31.4027 19.3281 31.3597C19.3281 31.3382 19.3281 31.2952 19.3281 31.2738C19.3281 31.2308 19.3281 31.2093 19.3281 31.1663C19.3281 31.0159 19.3496 30.844 19.3496 30.6721C19.3496 30.5002 19.3711 30.3067 19.3711 30.1348C19.3711 29.9629 19.3926 29.8125 19.3926 29.7051C19.3926 29.5976 19.4141 29.5117 19.4141 29.5117C20.0158 29.877 20.6389 30.2208 21.2191 30.5646C21.8208 30.8869 22.401 31.2093 22.9812 31.4671C23.5399 31.725 24.0986 31.9614 24.5929 32.1118C25.0871 32.2837 25.5599 32.3697 25.9467 32.4127C26.0112 32.4127 26.0541 32.4127 26.1186 32.4127C26.1616 32.4127 26.226 32.4127 26.269 32.4127C26.312 32.4127 26.3765 32.4127 26.4194 32.3912C26.4624 32.3912 26.5054 32.3697 26.5699 32.3697C26.6343 32.3482 26.6988 32.3482 26.7633 32.3267C26.8277 32.3052 26.8922 32.2837 26.9567 32.2408C27.0211 32.2193 27.0641 32.1763 27.1286 32.1333C27.1716 32.0903 27.236 32.0473 27.279 32.0044C27.5584 31.7035 27.6873 31.2308 27.6873 30.6291C27.6873 30.0489 27.5369 29.3398 27.322 28.5447L27.2575 28.4587Z" fill="#929392"/>
<path d="M11.2481 13.3524C11.5704 13.3524 11.8068 13.4383 12.0002 13.6102C12.1936 13.7822 12.2795 14.0185 12.2795 14.3409C12.2795 14.6632 12.1721 14.9211 11.9787 15.093C11.7638 15.2649 11.5059 15.3723 11.1621 15.3723C10.3885 15.3723 10.0017 15.0285 10.0017 14.3624H8.86279V14.4483C8.86279 15.0715 9.07768 15.5442 9.48597 15.8666C9.89426 16.2104 10.453 16.3608 11.1621 16.3608C11.8068 16.3608 12.344 16.1889 12.7953 15.8236C13.2465 15.4798 13.4614 14.964 13.4614 14.3409C13.4614 14.126 13.4184 13.9111 13.354 13.7177C13.2895 13.5243 13.2035 13.3739 13.1391 13.2664C13.0531 13.159 12.9672 13.0515 12.8597 12.9871C12.7523 12.9011 12.6663 12.8581 12.6233 12.8366C12.5804 12.8152 12.5374 12.7937 12.5159 12.7937L12.6019 12.7507C12.6663 12.7292 12.7308 12.6647 12.8167 12.5788C12.9027 12.4928 12.9887 12.4069 13.0531 12.2994C13.1391 12.192 13.2035 12.0416 13.268 11.8696C13.3325 11.6977 13.354 11.5043 13.354 11.3109C13.354 10.7307 13.1606 10.2795 12.7738 9.95714C12.387 9.6348 11.8497 9.46289 11.1836 9.46289C10.5174 9.46289 10.0017 9.61331 9.59342 9.95714C9.18513 10.2795 8.99173 10.7307 8.99173 11.3109V11.3754H10.1091C10.1091 11.0531 10.2166 10.8167 10.3885 10.6663C10.5819 10.5158 10.8398 10.4299 11.1836 10.4299C11.5274 10.4299 11.8068 10.5158 11.9787 10.6663C12.1506 10.8382 12.258 11.0531 12.258 11.3324C12.258 11.6333 12.1721 11.8911 11.9787 12.063C11.7853 12.235 11.5489 12.3209 11.2481 12.3209H10.1091V13.3094L11.3125 13.3309L11.2481 13.3524ZM18.8766 16.2749V15.2219H16.126L17.7162 13.6532C18.146 13.2449 18.4468 12.8581 18.6187 12.5143C18.7907 12.1705 18.8766 11.8052 18.8766 11.4399C18.8766 10.8382 18.6832 10.3439 18.3179 10.0216C17.9311 9.67778 17.4154 9.50587 16.7277 9.50587C16.0401 9.50587 15.5029 9.67778 15.0946 10.0216C14.6863 10.3654 14.4929 10.8382 14.4929 11.4614V11.5258H15.6318C15.6318 10.8597 15.9756 10.5158 16.7062 10.5158C17.3939 10.5158 17.7377 10.8382 17.7377 11.4828C17.7377 11.7407 17.6732 11.9771 17.5658 12.2135C17.4583 12.4498 17.2435 12.7077 16.9641 12.9871L14.6433 15.2434V16.2964H18.9196L18.8766 16.2749Z" fill="#929392"/>
<path d="M10.3676 21.9264V16.8765H9.52949V20.723L7.53102 16.8765H6.28467V21.9264H7.12273V18.1013L9.14269 21.9264H10.3676ZM12.1296 21.4536C12.1296 21.3247 12.0867 21.2387 12.0007 21.1528C11.9148 21.0883 11.8073 21.0453 11.6569 21.0453C11.528 21.0453 11.4205 21.0883 11.3346 21.1528C11.2486 21.2172 11.2056 21.3247 11.2056 21.4536V21.604C11.2056 21.733 11.2486 21.8189 11.3346 21.9049C11.4205 21.9693 11.528 22.0123 11.6784 22.0123C11.8288 22.0123 11.9362 21.9693 12.0222 21.9049C12.1082 21.8404 12.1511 21.733 12.1511 21.604L12.1296 21.4536ZM15.9332 20.5726H15.1381C15.1381 21.0453 14.8802 21.2817 14.386 21.2817C13.8917 21.2817 13.6554 21.0238 13.6554 20.5296V19.7775C13.6554 19.2617 13.8917 19.0254 14.386 19.0254C14.8802 19.0254 15.1381 19.2617 15.1381 19.7345H15.9332V19.67C15.9332 19.2402 15.8042 18.8964 15.5249 18.66C15.2455 18.4237 14.8802 18.2947 14.4075 18.2947C13.9347 18.2947 13.5694 18.4237 13.29 18.66C13.0107 18.9179 12.8603 19.2617 12.8603 19.6915V20.5726C12.8603 21.0023 13.0107 21.3462 13.29 21.604C13.5694 21.8404 13.9347 21.9693 14.4075 21.9693C14.8802 21.9693 15.267 21.8619 15.5464 21.6255C15.8257 21.3891 15.9762 21.0453 15.9762 20.6155L15.9547 20.5726H15.9332ZM21.6062 21.9264V19.4122C21.6062 19.0683 21.5203 18.8105 21.3484 18.6171C21.1765 18.4237 20.9186 18.3377 20.6178 18.3377C20.3384 18.3377 20.059 18.4237 19.8012 18.5741L19.4144 18.8105C19.264 18.4881 18.9846 18.3377 18.5763 18.3377C18.3184 18.3377 18.0606 18.4022 17.8242 18.5526L17.5019 18.746V18.3807H16.6853V21.9478H17.5019V19.4981L17.9316 19.2402C18.1036 19.1543 18.254 19.1113 18.3614 19.1113C18.6193 19.1113 18.7267 19.2617 18.7267 19.5626V21.9693H19.5433V19.5196L19.9731 19.2617C20.145 19.1758 20.2954 19.1113 20.4029 19.1113C20.6607 19.1113 20.7897 19.2617 20.7897 19.5411V21.9693H21.6062V21.9264Z" fill="#929392"/>
<path d="M23.8836 12.4284C27.2789 12.4284 30.0509 9.6778 30.0509 6.26106C30.0509 2.84433 27.3004 0.09375 23.8836 0.09375C20.4669 0.09375 17.7163 2.84433 17.7163 6.26106C17.7163 9.65631 20.4669 12.4284 23.8836 12.4284Z" fill="#929392"/>
<path d="M23.8836 12.4284C27.2789 12.4284 30.0509 9.6778 30.0509 6.26106C30.0509 2.84433 27.3004 0.09375 23.8836 0.09375C20.4669 0.09375 17.7163 2.84433 17.7163 6.26106C17.7163 9.65631 20.4669 12.4284 23.8836 12.4284Z" stroke="white" stroke-width="0.623178"/>
<path d="M26.0756 9.78507V9.11891H24.5714V3.23096H23.7978C23.325 3.66073 22.8737 3.96158 22.4225 4.112V4.82113C22.9167 4.73518 23.3895 4.47731 23.8193 4.04753V9.1404H21.9067V9.80656H26.0756V9.78507Z" fill="#FEFEFE"/>
</svg>
