<svg width="24" height="27" viewBox="0 0 24 27" fill="none" xmlns="http://www.w3.org/2000/svg">
<path d="M21.5381 23.0012C21.3601 22.3961 21.1038 21.7339 20.7976 21.0504C20.4915 20.3741 20.1426 19.6835 19.7653 19.0071C19.7154 19.0997 19.6585 19.1851 19.6015 19.2777C19.5446 19.3631 19.4876 19.4556 19.4306 19.5411C19.3737 19.6265 19.3096 19.712 19.2527 19.7974C19.1886 19.8828 19.1245 19.9611 19.0604 20.0466C19.0533 20.0537 19.0533 20.0537 19.0462 20.0608C19.0391 20.0679 19.0391 20.0751 19.0319 20.0751C19.0248 20.0822 19.0248 20.0822 19.0177 20.0893C19.0106 20.0964 19.0106 20.0964 19.0035 20.1035L18.9465 20.1676C18.9963 20.3171 19.0675 20.5093 19.1387 20.7087C19.2099 20.908 19.2954 21.1216 19.3594 21.3281C19.4235 21.5346 19.4805 21.7268 19.5018 21.8834C19.5232 22.0401 19.5161 22.1611 19.4591 22.2252C19.4378 22.2465 19.4164 22.2608 19.395 22.275C19.3737 22.2893 19.3452 22.3035 19.3167 22.3106C19.2882 22.3177 19.2598 22.3249 19.2242 22.3249C19.1886 22.332 19.1601 22.332 19.1174 22.332C19.0604 22.332 19.0035 22.3249 18.9394 22.3106C18.8753 22.2964 18.8041 22.2821 18.7329 22.2537C18.6617 22.2323 18.5834 22.2038 18.5051 22.1682C18.4268 22.1397 18.3413 22.1042 18.263 22.0614C18.1562 22.0116 18.0423 21.9546 17.9284 21.8977C17.8145 21.8336 17.6934 21.7695 17.5724 21.6983C17.4514 21.6271 17.3303 21.5559 17.2022 21.4776C17.074 21.3993 16.9459 21.321 16.8177 21.2427C17.3303 20.7372 17.8074 20.189 18.2488 19.6123C18.6902 19.0356 19.0889 18.4233 19.4449 17.7825C19.8009 17.1489 20.107 16.4796 20.3562 15.8033C20.6125 15.1269 20.8047 14.4292 20.9471 13.7172C21.2604 12.1224 21.2462 10.6344 20.9542 9.30303C20.6695 7.99301 20.1141 6.83963 19.3452 5.90695C18.5905 4.98852 17.6365 4.27655 16.5187 3.8209C15.4223 3.37236 14.1763 3.18013 12.8236 3.27268C11.9337 3.33676 11.0508 3.51475 10.1893 3.80666C9.3421 4.09144 8.50911 4.48302 7.71882 4.95292C6.92854 5.42282 6.18098 5.97815 5.48325 6.6118C4.78553 7.23833 4.13764 7.93605 3.56095 8.69074C3.40432 8.39883 3.26905 8.12828 3.16937 7.8791C3.06969 7.62991 2.99138 7.40208 2.94866 7.20273C2.90594 7.00338 2.88458 6.82539 2.90594 6.68299C2.92018 6.5406 2.97002 6.41957 3.04834 6.33413C3.06969 6.30565 3.10529 6.27717 3.14801 6.25582C3.19073 6.22734 3.23345 6.20598 3.2904 6.18462C3.34024 6.16326 3.40432 6.1419 3.46839 6.12766C3.53247 6.11342 3.60367 6.1063 3.67486 6.09918C3.75318 6.09206 3.83862 6.09918 3.91693 6.1063C4.00237 6.12054 4.0878 6.1419 4.18036 6.17038C4.2658 6.19886 4.35835 6.24158 4.45091 6.29853C4.54346 6.35549 4.6289 6.41957 4.72145 6.505C4.80689 6.39821 4.89944 6.29853 4.992 6.19886C5.08455 6.09918 5.18423 6.00663 5.2839 5.91407C5.38358 5.82152 5.48325 5.73608 5.59005 5.65065C5.69684 5.56521 5.80364 5.48689 5.91755 5.40858C5.92467 5.40146 5.93891 5.39434 5.94603 5.39434C5.95315 5.38722 5.96739 5.3801 5.97451 5.37298C5.98163 5.36586 5.99587 5.35874 6.00299 5.35162C6.01011 5.3445 6.01723 5.33738 6.03147 5.33026C5.83212 5.15227 5.61141 5.00276 5.3907 4.88172C5.16287 4.76069 4.93504 4.66813 4.69297 4.59694C4.45803 4.52574 4.22308 4.48302 3.99525 4.45455C3.76742 4.43319 3.53959 4.42607 3.33312 4.44031C3.18361 4.44743 3.04122 4.46878 2.90594 4.49726C2.77067 4.52574 2.64964 4.56134 2.53572 4.60406C2.42181 4.64678 2.31501 4.69661 2.22958 4.74645C2.14414 4.80341 2.06582 4.86037 2.00887 4.92444C1.83088 5.11667 1.72408 5.37298 1.67424 5.67912C1.62441 5.98527 1.64577 6.34837 1.71696 6.75419C1.79528 7.16001 1.93055 7.61567 2.12278 8.10692C2.31501 8.59818 2.5642 9.13927 2.87034 9.70173C2.66388 10.0221 2.47164 10.3425 2.28653 10.6771C2.10142 11.0117 1.93767 11.3535 1.78104 11.7023C1.62441 12.0512 1.48201 12.4072 1.35386 12.7703C1.22571 13.1334 1.11179 13.5036 1.01212 13.8738C0.634776 15.3049 0.527981 16.679 0.649015 17.9463C0.777169 19.2349 1.14027 20.4168 1.72408 21.4349C2.31501 22.4744 3.13377 23.343 4.13764 23.9766C5.16287 24.6245 6.38745 25.0232 7.77578 25.1086C8.18872 25.13 8.60878 25.13 9.02172 25.1015C9.44178 25.073 9.86184 25.009 10.2819 24.9235C10.702 24.8381 11.122 24.7242 11.535 24.5889C11.955 24.4536 12.368 24.2899 12.7738 24.1048L11.7913 22.2465C11.5065 22.3605 11.2146 22.4601 10.9227 22.5456C10.6308 22.631 10.3389 22.7022 10.0469 22.752C9.75504 22.8019 9.46314 22.8446 9.17123 22.866C8.87933 22.8873 8.58742 22.8873 8.29552 22.8731C7.17773 22.8232 6.18098 22.5171 5.34798 22.0116C4.5221 21.5132 3.85286 20.8226 3.36872 19.9967C2.88458 19.178 2.57132 18.2239 2.46452 17.1845C2.35061 16.1521 2.43605 15.0343 2.73507 13.8738C3.0341 12.7205 3.51823 11.6169 4.14476 10.6202C4.76417 9.62341 5.53309 8.71921 6.38745 7.95029C7.24893 7.18137 8.20296 6.5406 9.21395 6.07783C10.2321 5.60793 11.3071 5.32314 12.3893 5.25907C13.4857 5.19499 14.4967 5.37298 15.3724 5.7432C16.2624 6.12054 17.0242 6.71147 17.6223 7.45904C18.2274 8.22084 18.6546 9.15351 18.8753 10.2143C19.096 11.2823 19.096 12.4784 18.8326 13.7528C18.7187 14.3081 18.562 14.8563 18.3627 15.3974C18.1633 15.9314 17.9213 16.4511 17.6436 16.9566C17.3659 17.455 17.0527 17.9392 16.7109 18.3948C16.3692 18.8505 15.9919 19.2848 15.5932 19.6835C15.6003 19.5482 15.6074 19.4129 15.6145 19.2705C15.6216 19.1281 15.6288 18.9929 15.6359 18.8647C15.643 18.7366 15.6501 18.6155 15.6501 18.5158C15.6572 18.4162 15.6572 18.3307 15.6572 18.2738C15.6572 18.2239 15.6501 18.1741 15.643 18.1385C15.6359 18.1029 15.6216 18.0744 15.6003 18.0602C15.586 18.0388 15.5647 18.0246 15.5433 18.0175C15.522 18.0104 15.5006 18.0032 15.4792 18.0032C15.4579 18.0032 15.4436 18.0032 15.4223 18.0104C15.408 18.0104 15.3867 18.0175 15.3796 18.0246C15.3653 18.0317 15.3511 18.0317 15.344 18.0388C15.3368 18.046 15.3297 18.046 15.3297 18.046L11.8767 19.1709C11.8696 19.1709 11.8411 19.178 11.8055 19.1993C11.7699 19.2207 11.7201 19.2421 11.6845 19.2848C11.6417 19.3275 11.6133 19.3844 11.6062 19.4556C11.599 19.534 11.6133 19.6265 11.6773 19.7404C11.6773 19.7475 11.6845 19.7547 11.6845 19.7618C11.6845 19.7689 11.6916 19.776 11.6916 19.7831C11.6916 19.7903 11.6987 19.7974 11.6987 19.8045C11.6987 19.8116 11.7058 19.8187 11.7058 19.8259C11.8625 20.1391 12.0832 20.5663 12.3395 21.0433C12.5958 21.5275 12.8806 22.0614 13.1654 22.5954C13.4501 23.1294 13.7349 23.6562 13.9841 24.1048C14.2333 24.5604 14.4398 24.9378 14.5608 25.1727C14.575 25.1941 14.5822 25.2154 14.5893 25.2297C14.5964 25.251 14.6106 25.2653 14.6178 25.2795C14.6249 25.2938 14.632 25.308 14.6391 25.3222C14.6462 25.3365 14.6534 25.3507 14.6605 25.3578C14.689 25.4219 14.7246 25.4717 14.753 25.5145C14.7815 25.5572 14.81 25.5928 14.8385 25.6213C14.867 25.6497 14.8954 25.664 14.9239 25.6782C14.9524 25.6925 14.9737 25.6996 15.0022 25.6996C15.0449 25.6996 15.0877 25.6853 15.1233 25.664C15.1589 25.6355 15.1873 25.5999 15.2158 25.5643C15.2443 25.5287 15.2585 25.4789 15.2728 25.4361C15.287 25.3934 15.2941 25.3578 15.3012 25.3222C15.3012 25.3151 15.3012 25.3009 15.3012 25.2795C15.3012 25.2653 15.3012 25.2439 15.3084 25.2226C15.3084 25.2012 15.3155 25.1727 15.3155 25.1442C15.3155 25.1158 15.3226 25.0873 15.3226 25.0588C15.3297 24.9449 15.3368 24.8096 15.344 24.6672C15.3511 24.5248 15.3582 24.3824 15.3653 24.2472C15.3724 24.1119 15.3796 23.998 15.3796 23.9054C15.3867 23.82 15.3867 23.7559 15.3867 23.7488C15.8566 24.0336 16.3336 24.3112 16.8035 24.5675C17.2734 24.8239 17.7362 25.0659 18.1776 25.2724C18.619 25.4789 19.0462 25.6497 19.4378 25.7779C19.8293 25.906 20.1924 25.9844 20.5057 26.0057C20.5484 26.0057 20.5911 26.0128 20.6339 26.0128C20.6766 26.0128 20.7193 26.0128 20.7549 26.0128C20.7976 26.0128 20.8332 26.0057 20.8688 26.0057C20.9044 25.9986 20.9471 25.9986 20.9827 25.9844C21.0397 25.9772 21.0895 25.963 21.1394 25.9416C21.1892 25.9274 21.239 25.906 21.2818 25.8847C21.3245 25.8633 21.3672 25.8348 21.4099 25.8064C21.4526 25.7779 21.4882 25.7423 21.5238 25.7067C21.7445 25.4717 21.8442 25.1015 21.8442 24.6387C21.8371 24.176 21.7374 23.6206 21.5523 23.0083L21.5381 23.0012Z" fill="#FDC600"/>
<path d="M10.8656 13.4965V12.692H9.72644V8.24931H8.8792C8.5161 8.58393 8.13164 8.80464 7.7187 8.92567V9.75867C7.92517 9.73019 8.13164 9.659 8.33099 9.5522C8.53746 9.44541 8.70121 9.33149 8.82224 9.21758V12.6848H7.37695V13.4894L10.8727 13.4965H10.8656ZM14.1121 11.9017C14.1121 12.1722 14.0267 12.3858 13.8558 12.5425C13.685 12.6991 13.4643 12.7774 13.1937 12.7774C12.6028 12.7774 12.3037 12.514 12.3037 12.0014H11.3996V12.0654C11.3996 12.5425 11.5633 12.9127 11.8837 13.1761C12.2112 13.4395 12.6384 13.5677 13.1866 13.5677C13.685 13.5677 14.1193 13.4111 14.4752 13.1049C14.8383 12.8059 15.0092 12.3929 15.0092 11.8803C15.0092 11.3606 14.8526 10.969 14.5464 10.6985C14.2332 10.4279 13.8274 10.2998 13.3147 10.2998H12.5031V9.06807H14.8383V8.24219H11.6416V11.0616H13.2435C13.5141 11.0616 13.7277 11.1328 13.8843 11.2823C14.0409 11.4318 14.1193 11.6383 14.1193 11.8946L14.1121 11.9159V11.9017Z" fill="#FDC600"/>
<path d="M8.53726 17.8981V13.9609H7.87513V16.9654L6.31593 13.9609H5.34766V17.8981H6.00978V14.9007L7.58323 17.8981H8.53726ZM9.7832 17.5279C9.7832 17.4282 9.75472 17.357 9.68352 17.3001C9.61232 17.2502 9.52689 17.2217 9.41297 17.2217C9.30618 17.2217 9.22074 17.2502 9.15667 17.3001C9.08547 17.357 9.05699 17.4282 9.05699 17.5279V17.6418C9.05699 17.7415 9.09259 17.8198 9.16379 17.8696C9.22786 17.9195 9.32042 17.9479 9.42721 17.9479C9.54113 17.9479 9.62656 17.9195 9.69776 17.8696C9.76896 17.8198 9.79744 17.7415 9.79744 17.6418L9.79032 17.5279H9.7832ZM12.6168 16.8373H11.9974C11.9974 17.2075 11.7981 17.3926 11.4065 17.3926C11.022 17.3926 10.8298 17.2004 10.8298 16.8017V16.2179C10.8298 15.8192 11.022 15.6269 11.4065 15.6269C11.7981 15.6269 11.9974 15.812 11.9974 16.1894H12.6168V16.1395C12.6168 15.7978 12.51 15.5344 12.2893 15.3493C12.0757 15.1642 11.7838 15.0716 11.4136 15.0716C11.0505 15.0716 10.7586 15.1642 10.5379 15.3635C10.3172 15.5629 10.2104 15.8334 10.2104 16.1751V16.8658C10.2104 17.2075 10.3243 17.478 10.5379 17.6632C10.7515 17.8554 11.0434 17.9479 11.4136 17.9479C11.7838 17.9479 12.0828 17.8554 12.2964 17.6703C12.5171 17.4852 12.6239 17.2217 12.6239 16.88L12.6168 16.8444V16.8373ZM16.9242 17.8981V15.9331C16.9242 15.6625 16.8601 15.4561 16.7177 15.3066C16.5825 15.157 16.3902 15.0858 16.1482 15.0858C15.9275 15.0858 15.7139 15.1499 15.5074 15.2781L15.2012 15.4632C15.0873 15.214 14.8666 15.0858 14.5391 15.0858C14.3398 15.0858 14.1404 15.1428 13.9553 15.2567L13.7061 15.4062V15.1143H13.0796V17.9052H13.7204V15.9829L14.055 15.7764C14.1903 15.7053 14.2971 15.6697 14.3896 15.6697C14.5818 15.6697 14.6815 15.7836 14.6815 16.0114V17.8981H15.3223V15.9758L15.6569 15.7693C15.7922 15.691 15.899 15.6554 15.9915 15.6554C16.1838 15.6554 16.2834 15.7693 16.2834 15.9972V17.891H16.9313L16.9242 17.8981Z" fill="#FDC600"/>
<path d="M18.8971 10.4838C21.5599 10.4838 23.7172 8.3265 23.7172 5.66375C23.7172 3.001 21.5599 0.84375 18.8971 0.84375C16.2344 0.84375 14.0771 3.001 14.0771 5.66375C14.0771 8.3265 16.2344 10.4838 18.8971 10.4838Z" fill="#FDC600"/>
<path d="M18.8971 10.4838C21.5599 10.4838 23.7172 8.3265 23.7172 5.66375C23.7172 3.001 21.5599 0.84375 18.8971 0.84375C16.2344 0.84375 14.0771 3.001 14.0771 5.66375C14.0771 8.3265 16.2344 10.4838 18.8971 10.4838Z" stroke="white" stroke-width="0.484136"/>
<path d="M20.6131 8.4159V7.89617H19.4312V3.29688H18.826C18.4629 3.6315 18.1069 3.85933 17.751 3.98036V4.52857C18.1425 4.45738 18.5056 4.25803 18.8474 3.9234V7.90329H17.3594V8.43014L20.6131 8.42302V8.4159Z" fill="#FEFEFE"/>
</svg>
