<svg width="24" height="26" viewBox="0 0 24 26" fill="none" xmlns="http://www.w3.org/2000/svg">
<path d="M21.0381 22.8215C20.8601 22.2164 20.6038 21.5542 20.2976 20.8708C19.9915 20.1944 19.6426 19.5038 19.2653 18.8274C19.2154 18.92 19.1585 19.0054 19.1015 19.098C19.0446 19.1834 18.9876 19.276 18.9306 19.3614C18.8737 19.4468 18.8096 19.5323 18.7527 19.6177C18.6886 19.7031 18.6245 19.7814 18.5604 19.8669C18.5533 19.874 18.5533 19.874 18.5462 19.8811C18.5391 19.8882 18.5391 19.8954 18.5319 19.8954C18.5248 19.9025 18.5248 19.9025 18.5177 19.9096C18.5106 19.9167 18.5106 19.9167 18.5035 19.9238L18.4465 19.9879C18.4963 20.1374 18.5675 20.3297 18.6387 20.529C18.7099 20.7284 18.7954 20.942 18.8594 21.1484C18.9235 21.3549 18.9805 21.5471 19.0018 21.7038C19.0232 21.8604 19.0161 21.9814 18.9591 22.0455C18.9378 22.0669 18.9164 22.0811 18.895 22.0953C18.8737 22.1096 18.8452 22.1238 18.8167 22.1309C18.7882 22.1381 18.7598 22.1452 18.7242 22.1452C18.6886 22.1523 18.6601 22.1523 18.6174 22.1523C18.5604 22.1523 18.5035 22.1452 18.4394 22.1309C18.3753 22.1167 18.3041 22.1025 18.2329 22.074C18.1617 22.0526 18.0834 22.0241 18.0051 21.9885C17.9268 21.9601 17.8413 21.9245 17.763 21.8817C17.6562 21.8319 17.5423 21.775 17.4284 21.718C17.3145 21.6539 17.1934 21.5898 17.0724 21.5186C16.9514 21.4474 16.8303 21.3762 16.7022 21.2979C16.574 21.2196 16.4459 21.1413 16.3177 21.063C16.8303 20.5575 17.3074 20.0093 17.7488 19.4326C18.1902 18.8559 18.5889 18.2436 18.9449 17.6028C19.3009 16.9692 19.607 16.2999 19.8562 15.6236C20.1125 14.9472 20.3047 14.2495 20.4471 13.5375C20.7604 11.9427 20.7462 10.4547 20.4542 9.12334C20.1695 7.81332 19.6141 6.65994 18.8452 5.72727C18.0905 4.80883 17.1365 4.09687 16.0187 3.64121C14.9223 3.19267 13.6763 3.00044 12.3236 3.093C11.4337 3.15707 10.5508 3.33506 9.68934 3.62697C8.8421 3.91176 8.00911 4.30334 7.21882 4.77323C6.42854 5.24313 5.68098 5.79846 4.98325 6.43211C4.28553 7.05864 3.63764 7.75637 3.06095 8.51105C2.90432 8.21914 2.76905 7.9486 2.66937 7.69941C2.56969 7.45022 2.49138 7.22239 2.44866 7.02304C2.40594 6.82369 2.38458 6.6457 2.40594 6.50331C2.42018 6.36091 2.47002 6.23988 2.54834 6.15444C2.56969 6.12597 2.60529 6.09749 2.64801 6.07613C2.69073 6.04765 2.73345 6.02629 2.7904 6.00493C2.84024 5.98357 2.90432 5.96221 2.96839 5.94797C3.03247 5.93374 3.10367 5.92662 3.17486 5.9195C3.25318 5.91238 3.33862 5.9195 3.41693 5.92662C3.50237 5.94086 3.5878 5.96221 3.68036 5.99069C3.7658 6.01917 3.85835 6.06189 3.95091 6.11885C4.04346 6.1758 4.1289 6.23988 4.22145 6.32532C4.30689 6.21852 4.39944 6.11885 4.492 6.01917C4.58455 5.9195 4.68423 5.82694 4.7839 5.73439C4.88358 5.64183 4.98325 5.55639 5.09005 5.47096C5.19684 5.38552 5.30364 5.30721 5.41755 5.22889C5.42467 5.22177 5.43891 5.21465 5.44603 5.21465C5.45315 5.20753 5.46739 5.20041 5.47451 5.19329C5.48163 5.18617 5.49587 5.17905 5.50299 5.17193C5.51011 5.16481 5.51723 5.15769 5.53147 5.15057C5.33212 4.97258 5.11141 4.82307 4.8907 4.70204C4.66287 4.581 4.43504 4.48845 4.19297 4.41725C3.95803 4.34605 3.72308 4.30334 3.49525 4.27486C3.26742 4.2535 3.03959 4.24638 2.83312 4.26062C2.68361 4.26774 2.54122 4.2891 2.40594 4.31758C2.27067 4.34605 2.14964 4.38165 2.03572 4.42437C1.92181 4.46709 1.81501 4.51693 1.72958 4.56676C1.64414 4.62372 1.56582 4.68068 1.50887 4.74475C1.33088 4.93699 1.22408 5.19329 1.17424 5.49944C1.12441 5.80558 1.14577 6.16868 1.21696 6.5745C1.29528 6.98032 1.43055 7.43598 1.62278 7.92724C1.81501 8.41849 2.0642 8.95959 2.37034 9.52204C2.16388 9.84242 1.97164 10.1628 1.78653 10.4974C1.60142 10.8321 1.43767 11.1738 1.28104 11.5227C1.12441 11.8715 0.982014 12.2275 0.85386 12.5906C0.725706 12.9537 0.611792 13.3239 0.512117 13.6942C0.134776 15.1252 0.0279809 16.4993 0.149015 17.7666C0.277169 19.0552 0.640271 20.2371 1.22408 21.2552C1.81501 22.2947 2.63377 23.1633 3.63764 23.7969C4.66287 24.4448 5.88745 24.8435 7.27578 24.929C7.68872 24.9503 8.10878 24.9503 8.52172 24.9218C8.94178 24.8934 9.36184 24.8293 9.7819 24.7438C10.202 24.6584 10.622 24.5445 11.035 24.4092C11.455 24.2739 11.868 24.1102 12.2738 23.9251L11.2913 22.0669C11.0065 22.1808 10.7146 22.2804 10.4227 22.3659C10.1308 22.4513 9.83885 22.5225 9.54695 22.5724C9.25504 22.6222 8.96314 22.6649 8.67123 22.6863C8.37933 22.7076 8.08742 22.7076 7.79552 22.6934C6.67773 22.6435 5.68098 22.3374 4.84798 21.8319C4.0221 21.3335 3.35286 20.6429 2.86872 19.817C2.38458 18.9983 2.07132 18.0443 1.96452 17.0048C1.85061 15.9724 1.93605 14.8547 2.23507 13.6942C2.5341 12.5408 3.01823 11.4372 3.64476 10.4405C4.26417 9.44372 5.03309 8.53953 5.88745 7.77061C6.74893 7.00168 7.70296 6.36091 8.71395 5.89814C9.73206 5.42824 10.8071 5.14346 11.8893 5.07938C12.9857 5.0153 13.9967 5.19329 14.8724 5.56351C15.7624 5.94086 16.5242 6.53179 17.1223 7.27935C17.7274 8.04115 18.1546 8.97383 18.3753 10.0347C18.596 11.1026 18.596 12.2987 18.3326 13.5731C18.2187 14.1284 18.062 14.6767 17.8627 15.2178C17.6633 15.7517 17.4213 16.2715 17.1436 16.777C16.8659 17.2753 16.5527 17.7595 16.2109 18.2151C15.8692 18.6708 15.4919 19.1051 15.0932 19.5038C15.1003 19.3685 15.1074 19.2332 15.1145 19.0908C15.1216 18.9485 15.1288 18.8132 15.1359 18.685C15.143 18.5569 15.1501 18.4358 15.1501 18.3362C15.1572 18.2365 15.1572 18.151 15.1572 18.0941C15.1572 18.0443 15.1501 17.9944 15.143 17.9588C15.1359 17.9232 15.1216 17.8947 15.1003 17.8805C15.086 17.8591 15.0647 17.8449 15.0433 17.8378C15.022 17.8307 15.0006 17.8235 14.9792 17.8235C14.9579 17.8235 14.9436 17.8235 14.9223 17.8307C14.908 17.8307 14.8867 17.8378 14.8796 17.8449C14.8653 17.852 14.8511 17.852 14.844 17.8591C14.8368 17.8663 14.8297 17.8663 14.8297 17.8663L11.3767 18.9912C11.3696 18.9912 11.3411 18.9983 11.3055 19.0196C11.2699 19.041 11.2201 19.0624 11.1845 19.1051C11.1417 19.1478 11.1133 19.2048 11.1062 19.276C11.099 19.3543 11.1133 19.4468 11.1773 19.5607C11.1773 19.5679 11.1845 19.575 11.1845 19.5821C11.1845 19.5892 11.1916 19.5963 11.1916 19.6035C11.1916 19.6106 11.1987 19.6177 11.1987 19.6248C11.1987 19.6319 11.2058 19.6391 11.2058 19.6462C11.3625 19.9594 11.5832 20.3866 11.8395 20.8636C12.0958 21.3478 12.3806 21.8817 12.6654 22.4157C12.9501 22.9497 13.2349 23.4765 13.4841 23.9251C13.7333 24.3807 13.9398 24.7581 14.0608 24.993C14.075 25.0144 14.0822 25.0357 14.0893 25.05C14.0964 25.0713 14.1106 25.0856 14.1178 25.0998C14.1249 25.1141 14.132 25.1283 14.1391 25.1425C14.1462 25.1568 14.1534 25.171 14.1605 25.1781C14.189 25.2422 14.2246 25.2921 14.253 25.3348C14.2815 25.3775 14.31 25.4131 14.3385 25.4416C14.367 25.47 14.3954 25.4843 14.4239 25.4985C14.4524 25.5128 14.4737 25.5199 14.5022 25.5199C14.5449 25.5199 14.5877 25.5056 14.6233 25.4843C14.6589 25.4558 14.6873 25.4202 14.7158 25.3846C14.7443 25.349 14.7585 25.2992 14.7728 25.2565C14.787 25.2137 14.7941 25.1781 14.8012 25.1425C14.8012 25.1354 14.8012 25.1212 14.8012 25.0998C14.8012 25.0856 14.8012 25.0642 14.8084 25.0429C14.8084 25.0215 14.8155 24.993 14.8155 24.9646C14.8155 24.9361 14.8226 24.9076 14.8226 24.8791C14.8297 24.7652 14.8368 24.6299 14.844 24.4875C14.8511 24.3451 14.8582 24.2028 14.8653 24.0675C14.8724 23.9322 14.8796 23.8183 14.8796 23.7257C14.8867 23.6403 14.8867 23.5762 14.8867 23.5691C15.3566 23.8539 15.8336 24.1316 16.3035 24.3879C16.7734 24.6442 17.2362 24.8862 17.6776 25.0927C18.119 25.2992 18.5462 25.47 18.9378 25.5982C19.3293 25.7264 19.6924 25.8047 20.0057 25.826C20.0484 25.826 20.0911 25.8331 20.1339 25.8331C20.1766 25.8331 20.2193 25.8331 20.2549 25.8331C20.2976 25.8331 20.3332 25.826 20.3688 25.826C20.4044 25.8189 20.4471 25.8189 20.4827 25.8047C20.5397 25.7976 20.5895 25.7833 20.6394 25.762C20.6892 25.7477 20.739 25.7264 20.7818 25.705C20.8245 25.6836 20.8672 25.6552 20.9099 25.6267C20.9526 25.5982 20.9882 25.5626 21.0238 25.527C21.2445 25.2921 21.3442 24.9218 21.3442 24.4591C21.3371 23.9963 21.2374 23.4409 21.0523 22.8287L21.0381 22.8215Z" fill="#FDC600"/>
<path d="M10.3656 13.3168V12.5123H9.22644V8.06962H8.3792C8.0161 8.40424 7.63164 8.62495 7.2187 8.74599V9.57898C7.42517 9.55051 7.63164 9.47931 7.83099 9.37252C8.03746 9.26572 8.20121 9.15181 8.32224 9.03789V12.5052H6.87695V13.3097L10.3727 13.3168H10.3656ZM13.6121 11.722C13.6121 11.9925 13.5267 12.2061 13.3558 12.3628C13.185 12.5194 12.9643 12.5977 12.6937 12.5977C12.1028 12.5977 11.8037 12.3343 11.8037 11.8217H10.8996V11.8858C10.8996 12.3628 11.0633 12.733 11.3837 12.9964C11.7112 13.2598 12.1384 13.388 12.6866 13.388C13.185 13.388 13.6193 13.2314 13.9752 12.9252C14.3383 12.6262 14.5092 12.2133 14.5092 11.7006C14.5092 11.1809 14.3526 10.7893 14.0464 10.5188C13.7332 10.2482 13.3274 10.1201 12.8147 10.1201H12.0031V8.88838H14.3383V8.0625H11.1416V10.8819H12.7435C13.0141 10.8819 13.2277 10.9531 13.3843 11.1026C13.5409 11.2521 13.6193 11.4586 13.6193 11.7149L13.6121 11.7362V11.722Z" fill="#FDC600"/>
<path d="M8.03726 17.7184V13.7812H7.37513V16.7857L5.81593 13.7812H4.84766V17.7184H5.50978V14.721L7.08323 17.7184H8.03726ZM9.2832 17.3482C9.2832 17.2485 9.25472 17.1773 9.18352 17.1204C9.11232 17.0705 9.02689 17.042 8.91297 17.042C8.80618 17.042 8.72074 17.0705 8.65667 17.1204C8.58547 17.1773 8.55699 17.2485 8.55699 17.3482V17.4621C8.55699 17.5618 8.59259 17.6401 8.66379 17.6899C8.72786 17.7398 8.82042 17.7683 8.92721 17.7683C9.04113 17.7683 9.12656 17.7398 9.19776 17.6899C9.26896 17.6401 9.29744 17.5618 9.29744 17.4621L9.29032 17.3482H9.2832ZM12.1168 16.6576H11.4974C11.4974 17.0278 11.2981 17.2129 10.9065 17.2129C10.522 17.2129 10.3298 17.0207 10.3298 16.622V16.0382C10.3298 15.6395 10.522 15.4472 10.9065 15.4472C11.2981 15.4472 11.4974 15.6324 11.4974 16.0097H12.1168V15.9599C12.1168 15.6181 12.01 15.3547 11.7893 15.1696C11.5757 14.9845 11.2838 14.8919 10.9136 14.8919C10.5505 14.8919 10.2586 14.9845 10.0379 15.1838C9.81717 15.3832 9.71038 15.6537 9.71038 15.9955V16.6861C9.71038 17.0278 9.82429 17.2984 10.0379 17.4835C10.2515 17.6757 10.5434 17.7683 10.9136 17.7683C11.2838 17.7683 11.5828 17.6757 11.7964 17.4906C12.0171 17.3055 12.1239 17.042 12.1239 16.7003L12.1168 16.6647V16.6576ZM16.4242 17.7184V15.7534C16.4242 15.4828 16.3601 15.2764 16.2177 15.1269C16.0825 14.9774 15.8902 14.9062 15.6482 14.9062C15.4275 14.9062 15.2139 14.9702 15.0074 15.0984L14.7012 15.2835C14.5873 15.0343 14.3666 14.9062 14.0391 14.9062C13.8398 14.9062 13.6404 14.9631 13.4553 15.077L13.2061 15.2265V14.9346H12.5796V17.7255H13.2204V15.8032L13.555 15.5968C13.6903 15.5256 13.7971 15.49 13.8896 15.49C14.0818 15.49 14.1815 15.6039 14.1815 15.8317V17.7184H14.8223V15.7961L15.1569 15.5896C15.2922 15.5113 15.399 15.4757 15.4915 15.4757C15.6838 15.4757 15.7834 15.5896 15.7834 15.8175V17.7113H16.4313L16.4242 17.7184Z" fill="#FDC600"/>
<path d="M18.3971 10.3041C21.0599 10.3041 23.2172 8.14681 23.2172 5.48406C23.2172 2.82132 21.0599 0.664062 18.3971 0.664062C15.7344 0.664062 13.5771 2.82132 13.5771 5.48406C13.5771 8.14681 15.7344 10.3041 18.3971 10.3041Z" fill="#FDC600"/>
<path d="M18.3971 10.3041C21.0599 10.3041 23.2172 8.14681 23.2172 5.48406C23.2172 2.82132 21.0599 0.664062 18.3971 0.664062C15.7344 0.664062 13.5771 2.82132 13.5771 5.48406C13.5771 8.14681 15.7344 10.3041 18.3971 10.3041Z" stroke="white" stroke-width="0.484136"/>
<path d="M20.1131 8.23621V7.71648H18.9312V3.11719H18.326C17.9629 3.45181 17.6069 3.67964 17.251 3.80067V4.34889C17.6425 4.27769 18.0056 4.07834 18.3474 3.74372V7.7236H16.8594V8.25045L20.1131 8.24333V8.23621Z" fill="#FEFEFE"/>
</svg>
