<svg width="24" height="26" viewBox="0 0 24 26" fill="none" xmlns="http://www.w3.org/2000/svg">
<path d="M21.5381 22.6419C21.3601 22.0367 21.1038 21.3746 20.7976 20.6911C20.4915 20.0147 20.1426 19.3241 19.7653 18.6477C19.7154 18.7403 19.6585 18.8257 19.6015 18.9183C19.5446 19.0037 19.4876 19.0963 19.4306 19.1817C19.3737 19.2671 19.3096 19.3526 19.2527 19.438C19.1886 19.5234 19.1245 19.6018 19.0604 19.6872C19.0533 19.6943 19.0533 19.6943 19.0462 19.7014C19.0391 19.7086 19.0391 19.7157 19.0319 19.7157C19.0248 19.7228 19.0248 19.7228 19.0177 19.7299C19.0106 19.737 19.0106 19.737 19.0035 19.7442L18.9465 19.8082C18.9963 19.9577 19.0675 20.15 19.1387 20.3493C19.2099 20.5487 19.2954 20.7623 19.3594 20.9687C19.4235 21.1752 19.4805 21.3674 19.5018 21.5241C19.5232 21.6807 19.5161 21.8017 19.4591 21.8658C19.4378 21.8872 19.4164 21.9014 19.395 21.9156C19.3737 21.9299 19.3452 21.9441 19.3167 21.9512C19.2882 21.9584 19.2598 21.9655 19.2242 21.9655C19.1886 21.9726 19.1601 21.9726 19.1174 21.9726C19.0604 21.9726 19.0035 21.9655 18.9394 21.9512C18.8753 21.937 18.8041 21.9228 18.7329 21.8943C18.6617 21.8729 18.5834 21.8445 18.5051 21.8089C18.4268 21.7804 18.3413 21.7448 18.263 21.7021C18.1562 21.6522 18.0423 21.5953 17.9284 21.5383C17.8145 21.4742 17.6934 21.4102 17.5724 21.339C17.4514 21.2678 17.3303 21.1966 17.2022 21.1182C17.074 21.0399 16.9459 20.9616 16.8177 20.8833C17.3303 20.3778 17.8074 19.8296 18.2488 19.2529C18.6902 18.6762 19.0889 18.0639 19.4449 17.4232C19.8009 16.7895 20.107 16.1203 20.3562 15.4439C20.6125 14.7675 20.8047 14.0698 20.9471 13.3578C21.2604 11.763 21.2462 10.275 20.9542 8.94365C20.6695 7.63364 20.1141 6.48025 19.3452 5.54758C18.5905 4.62914 17.6365 3.91718 16.5187 3.46152C15.4223 3.01298 14.1763 2.82075 12.8236 2.91331C11.9337 2.97739 11.0508 3.15538 10.1893 3.44728C9.3421 3.73207 8.50911 4.12365 7.71882 4.59355C6.92854 5.06344 6.18098 5.61878 5.48325 6.25242C4.78553 6.87895 4.13764 7.57668 3.56095 8.33136C3.40432 8.03946 3.26905 7.76891 3.16937 7.51972C3.06969 7.27053 2.99138 7.0427 2.94866 6.84335C2.90594 6.644 2.88458 6.46601 2.90594 6.32362C2.92018 6.18123 2.97002 6.06019 3.04834 5.97476C3.06969 5.94628 3.10529 5.9178 3.14801 5.89644C3.19073 5.86796 3.23345 5.8466 3.2904 5.82524C3.34024 5.80389 3.40432 5.78253 3.46839 5.76829C3.53247 5.75405 3.60367 5.74693 3.67486 5.73981C3.75318 5.73269 3.83862 5.73981 3.91693 5.74693C4.00237 5.76117 4.0878 5.78253 4.18036 5.81101C4.2658 5.83948 4.35835 5.8822 4.45091 5.93916C4.54346 5.99612 4.6289 6.06019 4.72145 6.14563C4.80689 6.03883 4.89944 5.93916 4.992 5.83948C5.08455 5.73981 5.18423 5.64725 5.2839 5.5547C5.38358 5.46214 5.48325 5.37671 5.59005 5.29127C5.69684 5.20584 5.80364 5.12752 5.91755 5.0492C5.92467 5.04208 5.93891 5.03496 5.94603 5.03496C5.95315 5.02784 5.96739 5.02072 5.97451 5.01361C5.98163 5.00649 5.99587 4.99937 6.00299 4.99225C6.01011 4.98513 6.01723 4.97801 6.03147 4.97089C5.83212 4.7929 5.61141 4.64338 5.3907 4.52235C5.16287 4.40132 4.93504 4.30876 4.69297 4.23756C4.45803 4.16637 4.22308 4.12365 3.99525 4.09517C3.76742 4.07381 3.53959 4.06669 3.33312 4.08093C3.18361 4.08805 3.04122 4.10941 2.90594 4.13789C2.77067 4.16637 2.64964 4.20197 2.53572 4.24468C2.42181 4.2874 2.31501 4.33724 2.22958 4.38708C2.14414 4.44403 2.06582 4.50099 2.00887 4.56507C1.83088 4.7573 1.72408 5.0136 1.67424 5.31975C1.62441 5.62589 1.64577 5.989 1.71696 6.39482C1.79528 6.80064 1.93055 7.25629 2.12278 7.74755C2.31501 8.2388 2.5642 8.7799 2.87034 9.34235C2.66388 9.66273 2.47164 9.98312 2.28653 10.3177C2.10142 10.6524 1.93767 10.9941 1.78104 11.343C1.62441 11.6918 1.48201 12.0478 1.35386 12.4109C1.22571 12.774 1.11179 13.1442 1.01212 13.5145C0.634776 14.9455 0.527981 16.3196 0.649015 17.5869C0.777169 18.8756 1.14027 20.0574 1.72408 21.0755C2.31501 22.115 3.13377 22.9836 4.13764 23.6172C5.16287 24.2651 6.38745 24.6638 7.77578 24.7493C8.18872 24.7706 8.60878 24.7706 9.02172 24.7421C9.44178 24.7137 9.86184 24.6496 10.2819 24.5642C10.702 24.4787 11.122 24.3648 11.535 24.2295C11.955 24.0943 12.368 23.9305 12.7738 23.7454L11.7913 21.8872C11.5065 22.0011 11.2146 22.1008 10.9227 22.1862C10.6308 22.2716 10.3389 22.3428 10.0469 22.3927C9.75504 22.4425 9.46314 22.4852 9.17123 22.5066C8.87933 22.5279 8.58742 22.5279 8.29552 22.5137C7.17773 22.4639 6.18098 22.1577 5.34798 21.6522C4.5221 21.1538 3.85286 20.4632 3.36872 19.6374C2.88458 18.8186 2.57132 17.8646 2.46452 16.8251C2.35061 15.7928 2.43605 14.675 2.73507 13.5145C3.0341 12.3611 3.51823 11.2575 4.14476 10.2608C4.76417 9.26403 5.53309 8.35984 6.38745 7.59092C7.24893 6.822 8.20296 6.18123 9.21395 5.71845C10.2321 5.24855 11.3071 4.96377 12.3893 4.89969C13.4857 4.83561 14.4967 5.01361 15.3724 5.38383C16.2624 5.76117 17.0242 6.3521 17.6223 7.09966C18.2274 7.86146 18.6546 8.79414 18.8753 9.85497C19.096 10.9229 19.096 12.119 18.8326 13.3934C18.7187 13.9488 18.562 14.497 18.3627 15.0381C18.1633 15.572 17.9213 16.0918 17.6436 16.5973C17.3659 17.0956 17.0527 17.5798 16.7109 18.0354C16.3692 18.4911 15.9919 18.9254 15.5932 19.3241C15.6003 19.1888 15.6074 19.0535 15.6145 18.9112C15.6216 18.7688 15.6288 18.6335 15.6359 18.5053C15.643 18.3772 15.6501 18.2561 15.6501 18.1565C15.6572 18.0568 15.6572 17.9714 15.6572 17.9144C15.6572 17.8646 15.6501 17.8147 15.643 17.7791C15.6359 17.7435 15.6216 17.7151 15.6003 17.7008C15.586 17.6795 15.5647 17.6652 15.5433 17.6581C15.522 17.651 15.5006 17.6439 15.4792 17.6439C15.4579 17.6439 15.4436 17.6439 15.4223 17.651C15.408 17.651 15.3867 17.6581 15.3796 17.6652C15.3653 17.6723 15.3511 17.6723 15.344 17.6795C15.3368 17.6866 15.3297 17.6866 15.3297 17.6866L11.8767 18.8115C11.8696 18.8115 11.8411 18.8186 11.8055 18.84C11.7699 18.8613 11.7201 18.8827 11.6845 18.9254C11.6417 18.9681 11.6133 19.0251 11.6062 19.0963C11.599 19.1746 11.6133 19.2671 11.6773 19.3811C11.6773 19.3882 11.6845 19.3953 11.6845 19.4024C11.6845 19.4095 11.6916 19.4167 11.6916 19.4238C11.6916 19.4309 11.6987 19.438 11.6987 19.4451C11.6987 19.4522 11.7058 19.4594 11.7058 19.4665C11.8625 19.7798 12.0832 20.2069 12.3395 20.6839C12.5958 21.1681 12.8806 21.7021 13.1654 22.236C13.4501 22.77 13.7349 23.2969 13.9841 23.7454C14.2333 24.2011 14.4398 24.5784 14.5608 24.8133C14.575 24.8347 14.5822 24.8561 14.5893 24.8703C14.5964 24.8917 14.6106 24.9059 14.6178 24.9201C14.6249 24.9344 14.632 24.9486 14.6391 24.9629C14.6462 24.9771 14.6534 24.9913 14.6605 24.9985C14.689 25.0625 14.7246 25.1124 14.753 25.1551C14.7815 25.1978 14.81 25.2334 14.8385 25.2619C14.867 25.2904 14.8954 25.3046 14.9239 25.3188C14.9524 25.3331 14.9737 25.3402 15.0022 25.3402C15.0449 25.3402 15.0877 25.326 15.1233 25.3046C15.1589 25.2761 15.1873 25.2405 15.2158 25.2049C15.2443 25.1693 15.2585 25.1195 15.2728 25.0768C15.287 25.0341 15.2941 24.9985 15.3012 24.9629C15.3012 24.9557 15.3012 24.9415 15.3012 24.9201C15.3012 24.9059 15.3012 24.8845 15.3084 24.8632C15.3084 24.8418 15.3155 24.8133 15.3155 24.7849C15.3155 24.7564 15.3226 24.7279 15.3226 24.6994C15.3297 24.5855 15.3368 24.4502 15.344 24.3078C15.3511 24.1655 15.3582 24.0231 15.3653 23.8878C15.3724 23.7525 15.3796 23.6386 15.3796 23.546C15.3867 23.4606 15.3867 23.3965 15.3867 23.3894C15.8566 23.6742 16.3336 23.9519 16.8035 24.2082C17.2734 24.4645 17.7362 24.7065 18.1776 24.913C18.619 25.1195 19.0462 25.2904 19.4378 25.4185C19.8293 25.5467 20.1924 25.625 20.5057 25.6463C20.5484 25.6463 20.5911 25.6535 20.6339 25.6535C20.6766 25.6535 20.7193 25.6535 20.7549 25.6535C20.7976 25.6535 20.8332 25.6463 20.8688 25.6463C20.9044 25.6392 20.9471 25.6392 20.9827 25.625C21.0397 25.6179 21.0895 25.6036 21.1394 25.5823C21.1892 25.568 21.239 25.5467 21.2818 25.5253C21.3245 25.504 21.3672 25.4755 21.4099 25.447C21.4526 25.4185 21.4882 25.3829 21.5238 25.3473C21.7445 25.1124 21.8442 24.7421 21.8442 24.2794C21.8371 23.8166 21.7374 23.2613 21.5523 22.649L21.5381 22.6419Z" fill="#FDC600"/>
<path d="M10.8656 13.1371V12.3326H9.72644V7.88993H8.8792C8.5161 8.22456 8.13164 8.44526 7.7187 8.5663V9.3993C7.92517 9.37082 8.13164 9.29962 8.33099 9.19283C8.53746 9.08603 8.70121 8.97212 8.82224 8.8582V12.3255H7.37695V13.13L10.8727 13.1371H10.8656ZM14.1121 11.5423C14.1121 11.8129 14.0267 12.0264 13.8558 12.1831C13.685 12.3397 13.4643 12.418 13.1937 12.418C12.6028 12.418 12.3037 12.1546 12.3037 11.642H11.3996V11.7061C11.3996 12.1831 11.5633 12.5533 11.8837 12.8167C12.2112 13.0802 12.6384 13.2083 13.1866 13.2083C13.685 13.2083 14.1193 13.0517 14.4752 12.7455C14.8383 12.4465 15.0092 12.0336 15.0092 11.521C15.0092 11.0012 14.8526 10.6096 14.5464 10.3391C14.2332 10.0685 13.8274 9.94039 13.3147 9.94039H12.5031V8.70869H14.8383V7.88281H11.6416V10.7022H13.2435C13.5141 10.7022 13.7277 10.7734 13.8843 10.9229C14.0409 11.0724 14.1193 11.2789 14.1193 11.5352L14.1121 11.5566V11.5423Z" fill="#FDC600"/>
<path d="M8.53726 17.5387V13.6016H7.87513V16.6061L6.31593 13.6016H5.34766V17.5387H6.00978V14.5414L7.58323 17.5387H8.53726ZM9.7832 17.1685C9.7832 17.0688 9.75472 16.9976 9.68352 16.9407C9.61232 16.8908 9.52689 16.8624 9.41297 16.8624C9.30618 16.8624 9.22074 16.8908 9.15667 16.9407C9.08547 16.9976 9.05699 17.0688 9.05699 17.1685V17.2824C9.05699 17.3821 9.09259 17.4604 9.16379 17.5102C9.22786 17.5601 9.32042 17.5886 9.42721 17.5886C9.54113 17.5886 9.62656 17.5601 9.69776 17.5102C9.76896 17.4604 9.79744 17.3821 9.79744 17.2824L9.79032 17.1685H9.7832ZM12.6168 16.4779H11.9974C11.9974 16.8481 11.7981 17.0332 11.4065 17.0332C11.022 17.0332 10.8298 16.841 10.8298 16.4423V15.8585C10.8298 15.4598 11.022 15.2676 11.4065 15.2676C11.7981 15.2676 11.9974 15.4527 11.9974 15.83H12.6168V15.7802C12.6168 15.4384 12.51 15.175 12.2893 14.9899C12.0757 14.8048 11.7838 14.7122 11.4136 14.7122C11.0505 14.7122 10.7586 14.8048 10.5379 15.0041C10.3172 15.2035 10.2104 15.474 10.2104 15.8158V16.5064C10.2104 16.8481 10.3243 17.1187 10.5379 17.3038C10.7515 17.496 11.0434 17.5886 11.4136 17.5886C11.7838 17.5886 12.0828 17.496 12.2964 17.3109C12.5171 17.1258 12.6239 16.8624 12.6239 16.5206L12.6168 16.485V16.4779ZM16.9242 17.5387V15.5737C16.9242 15.3032 16.8601 15.0967 16.7177 14.9472C16.5825 14.7977 16.3902 14.7265 16.1482 14.7265C15.9275 14.7265 15.7139 14.7905 15.5074 14.9187L15.2012 15.1038C15.0873 14.8546 14.8666 14.7265 14.5391 14.7265C14.3398 14.7265 14.1404 14.7834 13.9553 14.8973L13.7061 15.0469V14.7549H13.0796V17.5458H13.7204V15.6235L14.055 15.4171C14.1903 15.3459 14.2971 15.3103 14.3896 15.3103C14.5818 15.3103 14.6815 15.4242 14.6815 15.652V17.5387H15.3223V15.6164L15.6569 15.41C15.7922 15.3316 15.899 15.296 15.9915 15.296C16.1838 15.296 16.2834 15.41 16.2834 15.6378V17.5316H16.9313L16.9242 17.5387Z" fill="#FDC600"/>
<path d="M18.8971 10.1244C21.5599 10.1244 23.7172 7.96712 23.7172 5.30438C23.7172 2.64163 21.5599 0.484375 18.8971 0.484375C16.2344 0.484375 14.0771 2.64163 14.0771 5.30438C14.0771 7.96712 16.2344 10.1244 18.8971 10.1244Z" fill="#FDC600"/>
<path d="M18.8971 10.1244C21.5599 10.1244 23.7172 7.96712 23.7172 5.30438C23.7172 2.64163 21.5599 0.484375 18.8971 0.484375C16.2344 0.484375 14.0771 2.64163 14.0771 5.30438C14.0771 7.96712 16.2344 10.1244 18.8971 10.1244Z" stroke="white" stroke-width="0.484136"/>
<path d="M20.6131 8.05653V7.53679H19.4312V2.9375H18.826C18.4629 3.27212 18.1069 3.49995 17.751 3.62099V4.1692C18.1425 4.098 18.5056 3.89865 18.8474 3.56403V7.54391H17.3594V8.07077L20.6131 8.06365V8.05653Z" fill="#FEFEFE"/>
</svg>
