<svg width="17" height="17" viewBox="0 0 17 17" fill="none" xmlns="http://www.w3.org/2000/svg">
<path d="M8.77063 4.65625C8.90324 4.65625 9.03042 4.70893 9.12419 4.8027C9.21797 4.89647 9.27064 5.02365 9.27064 5.15627V8.15636H12.2707C12.4033 8.15636 12.5305 8.20904 12.6243 8.30281C12.7181 8.39658 12.7708 8.52376 12.7708 8.65637C12.7708 8.78898 12.7181 8.91616 12.6243 9.00994C12.5305 9.10371 12.4033 9.15639 12.2707 9.15639H9.27064V12.1565C9.27064 12.2891 9.21797 12.4163 9.12419 12.51C9.03042 12.6038 8.90324 12.6565 8.77063 12.6565C8.63802 12.6565 8.51084 12.6038 8.41707 12.51C8.32329 12.4163 8.27061 12.2891 8.27061 12.1565V9.15639H5.27052C5.13791 9.15639 5.01073 9.10371 4.91696 9.00994C4.82319 8.91616 4.77051 8.78898 4.77051 8.65637C4.77051 8.52376 4.82319 8.39658 4.91696 8.30281C5.01073 8.20904 5.13791 8.15636 5.27052 8.15636H8.27061V5.15627C8.27061 5.02365 8.32329 4.89647 8.41707 4.8027C8.51084 4.70893 8.63802 4.65625 8.77063 4.65625Z" fill="#CFCCC9"/>
</svg>
