<svg width="26" height="28" viewBox="0 0 26 28" fill="none" xmlns="http://www.w3.org/2000/svg">
<path d="M22.7019 24.5753C22.5139 23.9309 22.2454 23.2059 21.8963 22.481C21.5741 21.756 21.1982 21.0042 20.7686 20.2792C20.7149 20.3866 20.6612 20.4671 20.5806 20.5745C20.5269 20.6819 20.4464 20.7625 20.3927 20.8699C20.339 20.9505 20.2584 21.0579 20.2047 21.1384C20.1242 21.219 20.0705 21.3264 19.9899 21.4069C19.9899 21.4069 19.9899 21.4069 19.9631 21.4338C19.9631 21.4338 19.9631 21.4338 19.9362 21.4606C19.9362 21.4606 19.9362 21.4606 19.9094 21.4875C19.9094 21.4875 19.9094 21.4875 19.8825 21.5143L19.8288 21.5949C19.8825 21.756 19.9631 21.9708 20.0436 22.1856C20.1242 22.4004 20.2047 22.6421 20.2853 22.8569C20.3658 23.0717 20.4195 23.2865 20.4464 23.4476C20.4732 23.6087 20.4732 23.743 20.3927 23.8235C20.3658 23.8504 20.339 23.8504 20.3121 23.8772C20.2853 23.9041 20.2584 23.9041 20.2316 23.9041C20.2047 23.9041 20.1779 23.9309 20.1242 23.9309C20.0973 23.9309 20.0436 23.9309 20.0168 23.9309C19.9631 23.9309 19.8825 23.9309 19.8288 23.9041C19.7483 23.8772 19.6946 23.8772 19.614 23.8504C19.5335 23.8235 19.4529 23.7967 19.3723 23.7698C19.2918 23.743 19.2112 23.6893 19.1038 23.6624C18.9964 23.6087 18.8622 23.555 18.7548 23.4745C18.6205 23.4208 18.5131 23.3402 18.3789 23.2596C18.2446 23.1791 18.1103 23.0985 17.9761 23.018C17.8418 22.9374 17.7076 22.8569 17.5733 22.7495C18.1372 22.2125 18.6474 21.6217 19.1038 20.9773C19.5872 20.3597 20.0168 19.6885 20.3927 19.0172C20.7686 18.3191 21.0908 17.6209 21.3862 16.8691C21.6547 16.1441 21.8695 15.3923 22.0306 14.6136C22.3797 12.8952 22.3528 11.2841 22.0306 9.86099C21.7084 8.43788 21.1177 7.20274 20.2853 6.20925C19.4798 5.21576 18.4326 4.46393 17.2243 3.95376C16.0428 3.47045 14.7003 3.25564 13.2503 3.36304C12.2837 3.41674 11.3439 3.63155 10.4041 3.92691C9.49117 4.22227 8.57824 4.65189 7.74585 5.16206C6.88662 5.67223 6.08109 6.26295 5.32926 6.96108C4.57743 7.63235 3.87931 8.38418 3.26173 9.21657C3.10063 8.89435 2.93952 8.59899 2.83212 8.33048C2.72471 8.06197 2.64416 7.82031 2.59046 7.6055C2.53676 7.3907 2.53676 7.20274 2.53676 7.04163C2.56361 6.88053 2.59046 6.74627 2.69786 6.66572C2.72471 6.63887 2.75157 6.61202 2.80527 6.58517C2.85897 6.55831 2.91267 6.53146 2.96637 6.50461C3.02008 6.47776 3.07378 6.45091 3.15433 6.45091C3.23488 6.42406 3.28859 6.42406 3.36914 6.42406C3.44969 6.42406 3.53025 6.42406 3.63765 6.42406C3.7182 6.42406 3.82561 6.45091 3.90616 6.50461C4.01356 6.53146 4.09412 6.58517 4.20152 6.63887C4.30892 6.69257 4.38948 6.77312 4.49688 6.85368C4.60429 6.74627 4.68484 6.63887 4.79224 6.53146C4.89965 6.42406 5.00705 6.31665 5.11446 6.2361C5.22186 6.1287 5.32926 6.04814 5.43667 5.94074C5.54407 5.86019 5.67833 5.75278 5.78573 5.67223C5.78573 5.67223 5.81258 5.67223 5.81258 5.64538L5.83943 5.61853C5.83943 5.61853 5.86628 5.61853 5.86628 5.59168C5.86628 5.59168 5.89313 5.59168 5.89313 5.56483C5.67833 5.37687 5.43667 5.21576 5.19501 5.08151C4.95335 4.94725 4.71169 4.83985 4.44318 4.78615C4.20152 4.70559 3.93301 4.65189 3.69135 4.62504C3.44969 4.59819 3.20803 4.59819 2.96637 4.59819C2.80527 4.59819 2.64416 4.62504 2.50991 4.65189C2.37565 4.67874 2.2414 4.73244 2.10714 4.7593C1.97289 4.813 1.86548 4.8667 1.78493 4.9204C1.67752 4.9741 1.59697 5.05466 1.54327 5.10836C1.35531 5.32317 1.22106 5.59168 1.19421 5.91389C1.1405 6.2361 1.16736 6.63887 1.24791 7.06848C1.32846 7.4981 1.46272 8.00827 1.67752 8.51844C1.89233 9.05546 2.16084 9.61933 2.48306 10.2369C2.26825 10.586 2.05344 10.935 1.86548 11.2841C1.67752 11.6332 1.48957 12.0091 1.32846 12.385C1.16736 12.7609 1.00625 13.1368 0.871994 13.5396C0.737739 13.9423 0.603484 14.3183 0.49608 14.721C0.0933144 16.2515 -0.0409407 17.7552 0.0933144 19.1246C0.22757 20.5208 0.630335 21.7828 1.24791 22.8837C1.89233 24.0115 2.75157 24.9513 3.85246 25.6225C4.95335 26.3207 6.26905 26.7503 7.77271 26.8308C8.22917 26.8577 8.65879 26.8577 9.11526 26.8308C9.57172 26.804 10.0282 26.7234 10.4847 26.6429C10.9411 26.5623 11.3976 26.4281 11.8272 26.2938C12.2837 26.1327 12.7133 25.9716 13.1698 25.7568L12.1226 23.743C11.8272 23.8772 11.505 23.9846 11.1828 24.0652C10.8606 24.1457 10.5652 24.2263 10.243 24.28C9.92079 24.3337 9.59858 24.3874 9.30321 24.3874C8.981 24.4142 8.68564 24.4142 8.36343 24.3874C7.15513 24.3337 6.08109 24.0115 5.19501 23.4476C4.30892 22.9106 3.58395 22.1588 3.04693 21.2727C2.53676 20.3866 2.18769 19.3662 2.08029 18.2385C1.97289 17.1376 2.05344 15.9293 2.37565 14.6673C2.69786 13.4322 3.20803 12.2239 3.87931 11.1498C4.55058 10.0758 5.38297 9.10916 6.2959 8.27678C7.23569 7.4444 8.25602 6.74627 9.35692 6.26295C10.4578 5.75278 11.6124 5.45742 12.7938 5.37687C13.9753 5.29632 15.0493 5.48427 16.016 5.91389C16.9826 6.31665 17.7881 6.96108 18.4326 7.76661C19.077 8.59899 19.5603 9.59248 19.7751 10.7471C20.0168 11.9017 20.0168 13.1905 19.7214 14.5599C19.5872 15.1506 19.426 15.7414 19.2112 16.3321C18.9964 16.9228 18.7279 17.4598 18.4326 18.0237C18.1372 18.5607 17.7881 19.0709 17.4391 19.5811C17.0632 20.0644 16.6604 20.5477 16.2308 20.9773C16.2308 20.8431 16.2576 20.6819 16.2576 20.5208C16.2576 20.3597 16.2845 20.2255 16.2845 20.0912C16.2845 19.957 16.2845 19.8227 16.3113 19.7153C16.3113 19.6079 16.3113 19.5274 16.3113 19.4468C16.3113 19.3931 16.3113 19.3394 16.2845 19.3125C16.2845 19.2857 16.2576 19.2588 16.2308 19.232C16.2039 19.2051 16.2039 19.2051 16.1771 19.1783C16.1502 19.1783 16.1234 19.1514 16.0965 19.1514C16.0697 19.1514 16.0428 19.1514 16.0428 19.1514C16.016 19.1514 16.016 19.1514 15.9891 19.1783C15.9623 19.1783 15.9623 19.1783 15.9623 19.2051H15.9354L12.2031 20.4134C12.2031 20.4134 12.1763 20.4134 12.1226 20.4403C12.0689 20.4671 12.042 20.494 11.9883 20.5477C11.9346 20.6014 11.9078 20.6551 11.9078 20.7357C11.9078 20.8162 11.9078 20.9236 11.9883 21.031V21.0579V21.0847V21.1116V21.1384C12.1494 21.4875 12.3911 21.9439 12.6596 22.4541C12.9281 22.9643 13.2503 23.555 13.5457 24.1189C13.8679 24.6828 14.1632 25.2735 14.4318 25.7568C14.7003 26.2401 14.9151 26.6697 15.0493 26.9114C15.0493 26.9382 15.0762 26.9651 15.0762 26.9651C15.0762 26.9919 15.103 26.9919 15.103 27.0188C15.103 27.0456 15.1299 27.0456 15.1299 27.0725C15.1299 27.0993 15.1567 27.0993 15.1567 27.1262C15.1836 27.1799 15.2373 27.2336 15.2641 27.2873C15.291 27.341 15.3178 27.3679 15.3715 27.3947C15.3984 27.4216 15.4252 27.4484 15.4521 27.4484C15.4789 27.4484 15.5058 27.4753 15.5327 27.4753C15.5864 27.4753 15.6132 27.4753 15.6669 27.4484C15.6938 27.4216 15.7475 27.3947 15.7743 27.341C15.8012 27.2873 15.828 27.2605 15.828 27.2067C15.8549 27.153 15.8549 27.1262 15.8549 27.0993C15.8549 27.0993 15.8549 27.0725 15.8549 27.0456C15.8549 27.0188 15.8549 27.0188 15.8549 26.9919C15.8549 26.9651 15.8549 26.9382 15.8549 26.9114C15.8549 26.8845 15.8549 26.8577 15.8549 26.804C15.8549 26.6697 15.8817 26.5355 15.8817 26.3744C15.8817 26.2133 15.9086 26.0522 15.9086 25.9179C15.9086 25.7836 15.9354 25.6494 15.9354 25.542C15.9354 25.4346 15.9354 25.3809 15.9354 25.3809C16.4456 25.6762 16.9558 25.9985 17.4659 26.267C17.9761 26.5355 18.4594 26.804 18.9427 27.0188C19.426 27.2336 19.8825 27.4216 20.2853 27.5558C20.7149 27.6901 21.0908 27.7706 21.4399 27.7975C21.4936 27.7975 21.5204 27.7975 21.5741 27.7975C21.6278 27.7975 21.6547 27.7975 21.7084 27.7975C21.7621 27.7975 21.7889 27.7975 21.8426 27.7975C21.8963 27.7975 21.9232 27.7975 21.95 27.7706C22.0037 27.7706 22.0574 27.7438 22.1112 27.7169C22.1649 27.6901 22.2186 27.6901 22.2723 27.6632C22.326 27.6364 22.3528 27.6095 22.4065 27.5827C22.4602 27.5558 22.4871 27.5021 22.5139 27.4753C22.7556 27.2067 22.863 26.8308 22.863 26.3207C22.863 25.8105 22.7556 25.2198 22.5408 24.5753H22.7019Z" fill="#FCB8C4"/>
<path d="M10.9672 14.3164V13.4303H8.65797L10.0005 12.1146C10.3496 11.7656 10.6181 11.4434 10.7524 11.148C10.8866 10.8526 10.9672 10.5573 10.9672 10.2351C10.9672 9.72491 10.8061 9.32214 10.4838 9.02678C10.1616 8.73142 9.70516 8.59716 9.14129 8.59716C8.57742 8.59716 8.12095 8.73142 7.77189 9.02678C7.42282 9.32214 7.26172 9.72491 7.26172 10.2351V10.2888H8.22836C8.22836 9.72491 8.52372 9.42955 9.11444 9.42955C9.67831 9.42955 9.97367 9.69806 9.97367 10.2351C9.97367 10.4499 9.91997 10.6647 9.81257 10.8526C9.70516 11.0406 9.54406 11.2554 9.3024 11.4971L7.34227 13.4035V14.2896H10.9403L10.9672 14.3164ZM15.6929 10.2888C15.6929 9.77861 15.505 9.34899 15.1559 9.05363C14.8069 8.73142 14.3235 8.57031 13.7597 8.57031C13.1958 8.57031 12.7125 8.73142 12.3634 9.02678C12.0143 9.34899 11.8264 9.75176 11.8264 10.2619V12.6785C11.8264 13.1887 12.0143 13.6183 12.3634 13.9137C12.7125 14.2359 13.1958 14.3701 13.7597 14.3701C14.3235 14.3701 14.8069 14.209 15.1559 13.8868C15.505 13.5646 15.6929 13.1618 15.6929 12.6517V10.2888ZM14.7263 12.598C14.7263 12.8933 14.6457 13.135 14.4846 13.2961C14.3235 13.4572 14.0819 13.5378 13.7865 13.5378C13.4912 13.5378 13.2495 13.4572 13.0884 13.2961C12.9273 13.135 12.8467 12.8933 12.8467 12.598V10.3425C12.8467 10.0471 12.9273 9.80546 13.0884 9.64435C13.2495 9.48325 13.4912 9.40269 13.7865 9.40269C14.0819 9.40269 14.3235 9.48325 14.4846 9.64435C14.6457 9.80546 14.7263 10.0471 14.7263 10.3425L14.6995 12.598H14.7263Z" fill="#FCB8C4"/>
<path d="M8.44474 19.0706V14.8281H7.71977V18.0771L6.055 14.8281H5.00781V19.0706H5.73279V15.8485L7.4244 19.0706H8.44474ZM9.92155 18.6678C9.92155 18.5604 9.8947 18.4799 9.81415 18.4262C9.73359 18.3725 9.65304 18.3456 9.51878 18.3456C9.41138 18.3456 9.30398 18.3725 9.25027 18.4262C9.16972 18.4799 9.14287 18.5604 9.14287 18.6678V18.7752C9.14287 18.8826 9.16972 18.9632 9.25027 19.0169C9.33083 19.0706 9.41138 19.0974 9.54564 19.0974C9.65304 19.0974 9.76044 19.0706 9.841 19.0169C9.92155 18.9632 9.9484 18.8826 9.9484 18.7752V18.6678H9.92155ZM13.1168 17.916H12.4455C12.4455 18.3188 12.2307 18.5067 11.8011 18.5067C11.3715 18.5067 11.1835 18.2919 11.1835 17.8623V17.2447C11.1835 16.8151 11.3984 16.6003 11.8011 16.6003C12.2307 16.6003 12.4455 16.7883 12.4455 17.2179H13.1168V17.1642C13.1168 16.7883 13.0094 16.5197 12.7678 16.3049C12.5261 16.117 12.2307 16.0096 11.828 16.0096C11.4252 16.0096 11.1298 16.117 10.8882 16.3318C10.6465 16.5466 10.5391 16.842 10.5391 17.2179V17.9697C10.5391 18.3456 10.6465 18.6141 10.8882 18.8289C11.1298 19.0437 11.4252 19.1243 11.828 19.1243C12.2307 19.1243 12.5529 19.0169 12.7678 18.8289C13.0094 18.641 13.1168 18.3456 13.1168 17.9697V17.916ZM17.8963 19.0706V16.9494C17.8963 16.654 17.8158 16.4392 17.6815 16.2781C17.5204 16.117 17.3324 16.0364 17.0639 16.0364C16.8223 16.0364 16.6075 16.117 16.3658 16.2512L16.0436 16.4392C15.9093 16.1707 15.6677 16.0364 15.3186 16.0364C15.1038 16.0364 14.889 16.0901 14.6742 16.2244L14.4057 16.3855V16.0633H13.7344V19.0706H14.4325V17.0031L14.7816 16.7882C14.9158 16.7077 15.0501 16.6808 15.1306 16.6808C15.3455 16.6808 15.4529 16.8151 15.4529 17.0568V19.0974H16.151V17.0299L16.5269 16.8151C16.6612 16.7345 16.7954 16.7077 16.876 16.7077C17.0908 16.7077 17.1982 16.842 17.1982 17.0836V19.1243H17.8963V19.0706Z" fill="#FCB8C4"/>
<path d="M19.8287 11.0676C22.7018 11.0676 25.011 8.73158 25.011 5.88537C25.011 3.01231 22.6749 0.703125 19.8287 0.703125C16.9557 0.703125 14.6465 3.03916 14.6465 5.88537C14.6465 8.75843 16.9825 11.0676 19.8287 11.0676Z" fill="#FCB8C4"/>
<path d="M19.8287 11.0676C22.7018 11.0676 25.011 8.73158 25.011 5.88537C25.011 3.01231 22.6749 0.703125 19.8287 0.703125C16.9557 0.703125 14.6465 3.03916 14.6465 5.88537C14.6465 8.75843 16.9825 11.0676 19.8287 11.0676Z" stroke="white" stroke-width="1.10089"/>
<path d="M21.682 8.8399V8.27603H20.42V3.30859H19.7756C19.3729 3.68451 18.9969 3.92617 18.621 4.03357V4.62429C19.0506 4.54374 19.4266 4.32893 19.8025 3.97987V8.27603H18.1914V8.8399H21.7089H21.682Z" fill="#FEFEFE"/>
</svg>
