<svg width="17" height="17" viewBox="0 0 17 17" fill="none" xmlns="http://www.w3.org/2000/svg">
<path d="M8.50696 4.16016C8.63957 4.16016 8.76675 4.21284 8.86052 4.30661C8.95429 4.40038 9.00697 4.52756 9.00697 4.66017V7.66026H12.0071C12.1397 7.66026 12.2669 7.71294 12.3606 7.80671C12.4544 7.90048 12.5071 8.02767 12.5071 8.16028C12.5071 8.29289 12.4544 8.42007 12.3606 8.51384C12.2669 8.60761 12.1397 8.66029 12.0071 8.66029H9.00697V11.6604C9.00697 11.793 8.95429 11.9202 8.86052 12.0139C8.76675 12.1077 8.63957 12.1604 8.50696 12.1604C8.37435 12.1604 8.24716 12.1077 8.15339 12.0139C8.05962 11.9202 8.00694 11.793 8.00694 11.6604V8.66029H5.00685C4.87424 8.66029 4.74706 8.60761 4.65329 8.51384C4.55952 8.42007 4.50684 8.29289 4.50684 8.16028C4.50684 8.02767 4.55952 7.90048 4.65329 7.80671C4.74706 7.71294 4.87424 7.66026 5.00685 7.66026H8.00694V4.66017C8.00694 4.52756 8.05962 4.40038 8.15339 4.30661C8.24716 4.21284 8.37435 4.16016 8.50696 4.16016Z" fill="#CFCCC9"/>
</svg>
