<svg width="15" height="15" viewBox="0 0 15 15" fill="none" xmlns="http://www.w3.org/2000/svg">
<path d="M8.5348 5.03756C8.5348 4.91753 8.48712 4.8024 8.40224 4.71753C8.31736 4.63265 8.20224 4.58496 8.0822 4.58496C7.96216 4.58496 7.84704 4.63265 7.76216 4.71753C7.67728 4.8024 7.6296 4.91753 7.6296 5.03756V6.39537H6.27179C6.15175 6.39537 6.03663 6.44306 5.95175 6.52794C5.86687 6.61282 5.81918 6.72794 5.81918 6.84798C5.81918 6.96801 5.86687 7.08314 5.95175 7.16801C6.03663 7.25289 6.15175 7.30058 6.27179 7.30058H7.6296V8.65839C7.6296 8.77843 7.67728 8.89355 7.76216 8.97843C7.84704 9.06331 7.96216 9.11099 8.0822 9.11099C8.20224 9.11099 8.31736 9.06331 8.40224 8.97843C8.48712 8.89355 8.5348 8.77843 8.5348 8.65839V7.30058H9.89261C10.0126 7.30058 10.1278 7.25289 10.2126 7.16801C10.2975 7.08314 10.3452 6.96801 10.3452 6.84798C10.3452 6.72794 10.2975 6.61282 10.2126 6.52794C10.1278 6.44306 10.0126 6.39537 9.89261 6.39537H8.5348V5.03756Z" fill="#363330"/>
<path d="M0.840542 0.963867C0.720505 0.963867 0.605383 1.01155 0.520504 1.09643C0.435624 1.18131 0.387939 1.29643 0.387939 1.41647C0.387939 1.53651 0.435624 1.65163 0.520504 1.73651C0.605383 1.82139 0.720505 1.86907 0.840542 1.86907H1.84532L2.20831 3.32374L3.56431 10.5518C3.58372 10.6555 3.63877 10.7492 3.71992 10.8166C3.80108 10.8841 3.90325 10.921 4.00876 10.9211H4.91397C4.43382 10.9211 3.97333 11.1119 3.63381 11.4514C3.2943 11.7909 3.10356 12.2514 3.10356 12.7315C3.10356 13.2117 3.2943 13.6722 3.63381 14.0117C3.97333 14.3512 4.43382 14.542 4.91397 14.542C5.39412 14.542 5.85461 14.3512 6.19412 14.0117C6.53364 13.6722 6.72438 13.2117 6.72438 12.7315C6.72438 12.2514 6.53364 11.7909 6.19412 11.4514C5.85461 11.1119 5.39412 10.9211 4.91397 10.9211H11.2504C10.7703 10.9211 10.3098 11.1119 9.97026 11.4514C9.63074 11.7909 9.44 12.2514 9.44 12.7315C9.44 13.2117 9.63074 13.6722 9.97026 14.0117C10.3098 14.3512 10.7703 14.542 11.2504 14.542C11.7306 14.542 12.191 14.3512 12.5306 14.0117C12.8701 13.6722 13.0608 13.2117 13.0608 12.7315C13.0608 12.2514 12.8701 11.7909 12.5306 11.4514C12.191 11.1119 11.7306 10.9211 11.2504 10.9211H12.1556C12.2611 10.921 12.3633 10.8841 12.4445 10.8166C12.5256 10.7492 12.5807 10.6555 12.6001 10.5518L13.9579 3.31016C13.9701 3.24484 13.9678 3.17763 13.9511 3.11329C13.9344 3.04896 13.9038 2.9891 13.8614 2.93794C13.819 2.88679 13.7658 2.84561 13.7056 2.81732C13.6455 2.78904 13.5799 2.77434 13.5134 2.77428H3.00398L2.63738 1.30694C2.61294 1.20898 2.55646 1.12201 2.47691 1.05984C2.39736 0.997677 2.29931 0.963895 2.19835 0.963867H0.840542ZM4.38442 10.0159L3.19589 3.67949H12.9685L11.78 10.0159H4.38442ZM5.81918 12.7315C5.81918 12.9716 5.72381 13.2019 5.55405 13.3716C5.38429 13.5414 5.15405 13.6368 4.91397 13.6368C4.67389 13.6368 4.44365 13.5414 4.27389 13.3716C4.10413 13.2019 4.00876 12.9716 4.00876 12.7315C4.00876 12.4915 4.10413 12.2612 4.27389 12.0915C4.44365 11.9217 4.67389 11.8263 4.91397 11.8263C5.15405 11.8263 5.38429 11.9217 5.55405 12.0915C5.72381 12.2612 5.81918 12.4915 5.81918 12.7315ZM12.1556 12.7315C12.1556 12.9716 12.0602 13.2019 11.8905 13.3716C11.7207 13.5414 11.4905 13.6368 11.2504 13.6368C11.0103 13.6368 10.7801 13.5414 10.6103 13.3716C10.4406 13.2019 10.3452 12.9716 10.3452 12.7315C10.3452 12.4915 10.4406 12.2612 10.6103 12.0915C10.7801 11.9217 11.0103 11.8263 11.2504 11.8263C11.4905 11.8263 11.7207 11.9217 11.8905 12.0915C12.0602 12.2612 12.1556 12.4915 12.1556 12.7315Z" fill="#363330"/>
</svg>
