<svg width="15" height="15" viewBox="0 0 15 15" fill="none" xmlns="http://www.w3.org/2000/svg">
<path d="M8.51918 5.35202C8.51918 5.23198 8.47149 5.11686 8.38661 5.03198C8.30173 4.9471 8.18661 4.89941 8.06657 4.89941C7.94654 4.89941 7.83141 4.9471 7.74653 5.03198C7.66165 5.11686 7.61397 5.23198 7.61397 5.35202V6.70983H6.25616C6.13612 6.70983 6.021 6.75751 5.93612 6.84239C5.85124 6.92727 5.80356 7.04239 5.80356 7.16243C5.80356 7.28247 5.85124 7.39759 5.93612 7.48247C6.021 7.56735 6.13612 7.61503 6.25616 7.61503H7.61397V8.97284C7.61397 9.09288 7.66165 9.208 7.74653 9.29288C7.83141 9.37776 7.94654 9.42544 8.06657 9.42544C8.18661 9.42544 8.30173 9.37776 8.38661 9.29288C8.47149 9.208 8.51918 9.09288 8.51918 8.97284V7.61503H9.87699C9.99702 7.61503 10.1121 7.56735 10.197 7.48247C10.2819 7.39759 10.3296 7.28247 10.3296 7.16243C10.3296 7.04239 10.2819 6.92727 10.197 6.84239C10.1121 6.75751 9.99702 6.70983 9.87699 6.70983H8.51918V5.35202Z" fill="#363330"/>
<path d="M0.824917 1.27832C0.70488 1.27832 0.589758 1.32601 0.504879 1.41088C0.419999 1.49576 0.372314 1.61089 0.372314 1.73092C0.372314 1.85096 0.419999 1.96608 0.504879 2.05096C0.589758 2.13584 0.70488 2.18353 0.824917 2.18353H1.8297L2.19268 3.63819L3.54868 10.8663C3.5681 10.97 3.62314 11.0637 3.7043 11.1311C3.78545 11.1985 3.88762 11.2355 3.99314 11.2356H4.89834C4.41819 11.2356 3.95771 11.4263 3.61819 11.7658C3.27867 12.1054 3.08793 12.5658 3.08793 13.046C3.08793 13.5261 3.27867 13.9866 3.61819 14.3262C3.95771 14.6657 4.41819 14.8564 4.89834 14.8564C5.3785 14.8564 5.83898 14.6657 6.1785 14.3262C6.51802 13.9866 6.70876 13.5261 6.70876 13.046C6.70876 12.5658 6.51802 12.1054 6.1785 11.7658C5.83898 11.4263 5.3785 11.2356 4.89834 11.2356H11.2348C10.7546 11.2356 10.2942 11.4263 9.95463 11.7658C9.61511 12.1054 9.42437 12.5658 9.42437 13.046C9.42437 13.5261 9.61511 13.9866 9.95463 14.3262C10.2942 14.6657 10.7546 14.8564 11.2348 14.8564C11.7149 14.8564 12.1754 14.6657 12.5149 14.3262C12.8545 13.9866 13.0452 13.5261 13.0452 13.046C13.0452 12.5658 12.8545 12.1054 12.5149 11.7658C12.1754 11.4263 11.7149 11.2356 11.2348 11.2356H12.14C12.2455 11.2355 12.3477 11.1985 12.4288 11.1311C12.51 11.0637 12.565 10.97 12.5844 10.8663L13.9423 3.62461C13.9545 3.55929 13.9522 3.49208 13.9355 3.42775C13.9188 3.36342 13.8882 3.30355 13.8458 3.2524C13.8033 3.20124 13.7502 3.16006 13.69 3.13178C13.6299 3.10349 13.5643 3.08879 13.4978 3.08873H2.98836L2.62175 1.62139C2.59732 1.52344 2.54084 1.43646 2.46129 1.37429C2.38174 1.31213 2.28369 1.27835 2.18273 1.27832H0.824917ZM4.3688 10.3304L3.18026 3.99394H12.9529L11.7643 10.3304H4.3688ZM5.80355 13.046C5.80355 13.2861 5.70818 13.5163 5.53842 13.6861C5.36866 13.8558 5.13842 13.9512 4.89834 13.9512C4.65827 13.9512 4.42803 13.8558 4.25827 13.6861C4.08851 13.5163 3.99314 13.2861 3.99314 13.046C3.99314 12.8059 4.08851 12.5757 4.25827 12.4059C4.42803 12.2362 4.65827 12.1408 4.89834 12.1408C5.13842 12.1408 5.36866 12.2362 5.53842 12.4059C5.70818 12.5757 5.80355 12.8059 5.80355 13.046ZM12.14 13.046C12.14 13.2861 12.0446 13.5163 11.8749 13.6861C11.7051 13.8558 11.4749 13.9512 11.2348 13.9512C10.9947 13.9512 10.7645 13.8558 10.5947 13.6861C10.425 13.5163 10.3296 13.2861 10.3296 13.046C10.3296 12.8059 10.425 12.5757 10.5947 12.4059C10.7645 12.2362 10.9947 12.1408 11.2348 12.1408C11.4749 12.1408 11.7051 12.2362 11.8749 12.4059C12.0446 12.5757 12.14 12.8059 12.14 13.046Z" fill="#363330"/>
</svg>
