<svg width="16" height="16" viewBox="0 0 16 16" fill="none" xmlns="http://www.w3.org/2000/svg">
<path d="M8.90913 5.94381C8.90913 5.82378 8.86145 5.70865 8.77657 5.62378C8.69169 5.5389 8.57656 5.49121 8.45653 5.49121C8.33649 5.49121 8.22137 5.5389 8.13649 5.62378C8.05161 5.70865 8.00392 5.82378 8.00392 5.94381V7.30162H6.64611C6.52608 7.30162 6.41096 7.34931 6.32608 7.43419C6.2412 7.51907 6.19351 7.63419 6.19351 7.75423C6.19351 7.87426 6.2412 7.98939 6.32608 8.07426C6.41096 8.15914 6.52608 8.20683 6.64611 8.20683H8.00392V9.56464C8.00392 9.68468 8.05161 9.7998 8.13649 9.88468C8.22137 9.96956 8.33649 10.0172 8.45653 10.0172C8.57656 10.0172 8.69169 9.96956 8.77657 9.88468C8.86145 9.7998 8.90913 9.68468 8.90913 9.56464V8.20683H10.2669C10.387 8.20683 10.5021 8.15914 10.587 8.07426C10.6719 7.98939 10.7195 7.87426 10.7195 7.75423C10.7195 7.63419 10.6719 7.51907 10.587 7.43419C10.5021 7.34931 10.387 7.30162 10.2669 7.30162H8.90913V5.94381Z" fill="#363330"/>
<path d="M1.21487 1.87012C1.09483 1.87012 0.979712 1.9178 0.894832 2.00268C0.809953 2.08756 0.762268 2.20268 0.762268 2.32272C0.762268 2.44276 0.809953 2.55788 0.894832 2.64276C0.979712 2.72764 1.09483 2.77532 1.21487 2.77532H2.21965L2.58264 4.22999L3.93864 11.4581C3.95805 11.5618 4.01309 11.6554 4.09425 11.7229C4.17541 11.7903 4.27757 11.8273 4.38309 11.8274H5.2883C4.80815 11.8274 4.34766 12.0181 4.00814 12.3576C3.66863 12.6972 3.47789 13.1576 3.47789 13.6378C3.47789 14.1179 3.66863 14.5784 4.00814 14.9179C4.34766 15.2575 4.80815 15.4482 5.2883 15.4482C5.76845 15.4482 6.22893 15.2575 6.56845 14.9179C6.90797 14.5784 7.09871 14.1179 7.09871 13.6378C7.09871 13.1576 6.90797 12.6972 6.56845 12.3576C6.22893 12.0181 5.76845 11.8274 5.2883 11.8274H11.6247C11.1446 11.8274 10.6841 12.0181 10.3446 12.3576C10.0051 12.6972 9.81433 13.1576 9.81433 13.6378C9.81433 14.1179 10.0051 14.5784 10.3446 14.9179C10.6841 15.2575 11.1446 15.4482 11.6247 15.4482C12.1049 15.4482 12.5654 15.2575 12.9049 14.9179C13.2444 14.5784 13.4352 14.1179 13.4352 13.6378C13.4352 13.1576 13.2444 12.6972 12.9049 12.3576C12.5654 12.0181 12.1049 11.8274 11.6247 11.8274H12.5299C12.6355 11.8273 12.7376 11.7903 12.8188 11.7229C12.8999 11.6554 12.955 11.5618 12.9744 11.4581L14.3322 4.21641C14.3444 4.15109 14.3421 4.08388 14.3255 4.01954C14.3088 3.95521 14.2781 3.89535 14.2357 3.84419C14.1933 3.79304 14.1401 3.75186 14.08 3.72357C14.0198 3.69529 13.9542 3.68059 13.8878 3.68053H3.37831L3.0117 2.21319C2.98727 2.11523 2.93079 2.02826 2.85124 1.96609C2.77169 1.90393 2.67364 1.87015 2.57268 1.87012H1.21487ZM4.75875 10.9222L3.57022 4.58574H13.3428L12.1543 10.9222H4.75875ZM6.1935 13.6378C6.1935 13.8779 6.09813 14.1081 5.92838 14.2779C5.75862 14.4476 5.52837 14.543 5.2883 14.543C5.04822 14.543 4.81798 14.4476 4.64822 14.2779C4.47846 14.1081 4.38309 13.8779 4.38309 13.6378C4.38309 13.3977 4.47846 13.1675 4.64822 12.9977C4.81798 12.828 5.04822 12.7326 5.2883 12.7326C5.52837 12.7326 5.75862 12.828 5.92838 12.9977C6.09813 13.1675 6.1935 13.3977 6.1935 13.6378ZM12.5299 13.6378C12.5299 13.8779 12.4346 14.1081 12.2648 14.2779C12.0951 14.4476 11.8648 14.543 11.6247 14.543C11.3847 14.543 11.1544 14.4476 10.9847 14.2779C10.8149 14.1081 10.7195 13.8779 10.7195 13.6378C10.7195 13.3977 10.8149 13.1675 10.9847 12.9977C11.1544 12.828 11.3847 12.7326 11.6247 12.7326C11.8648 12.7326 12.0951 12.828 12.2648 12.9977C12.4346 13.1675 12.5299 13.3977 12.5299 13.6378Z" fill="#363330"/>
</svg>
