<svg width="33" height="33" viewBox="0 0 33 33" fill="none" xmlns="http://www.w3.org/2000/svg">
<path d="M16.2045 8.95215C12.0858 7.33348 10.5028 12.1182 4.76465 9.88771V24.3117C10.5028 26.5422 12.0858 21.7589 16.2045 23.3776C20.3418 21.7589 22.1579 26.615 27.8767 24.3666V9.94191C22.1579 12.1724 20.3418 7.33422 16.2045 8.95289V8.95215ZM15.8815 22.4948C12.3189 21.4887 9.85529 25.5717 5.3943 23.8788V10.804C9.85455 12.4954 12.3189 8.43016 15.8815 9.43775V22.4948ZM27.2308 23.8788C22.7519 25.5717 20.2861 21.4887 16.7265 22.4948V9.43775C20.2861 8.43016 22.7519 12.4954 27.2308 10.804V23.8788Z" fill="#250A20"/>
<path d="M16.2043 8.95216L16.2593 8.81331C15.6259 8.56457 15.0453 8.46136 14.5003 8.46136C13.3093 8.46211 12.3039 8.94697 11.2533 9.41475C10.1996 9.88401 9.10073 10.3421 7.70482 10.3421C6.86949 10.3421 5.92651 10.178 4.81868 9.74813L4.61523 9.66943V24.4127L4.71028 24.4498C5.8478 24.8923 6.83014 25.0646 7.70482 25.0646C9.1683 25.0646 10.3177 24.582 11.3736 24.1112C12.4309 23.639 13.3939 23.1831 14.4995 23.1838C15.0074 23.1838 15.5479 23.2781 16.1494 23.515L16.2043 23.5365L16.2585 23.515C16.8548 23.2818 17.396 23.1883 17.9084 23.1883C19.0459 23.1868 20.0527 23.6561 21.1539 24.1417C22.2535 24.625 23.446 25.1203 24.9392 25.1203C25.8206 25.1203 26.8051 24.9473 27.9315 24.504L28.0258 24.4669V9.72289L27.8224 9.80234C26.7294 10.2285 25.7886 10.3911 24.9474 10.3911C23.5203 10.3911 22.3761 9.92188 21.2794 9.44073C20.1834 8.96107 19.135 8.46582 17.9128 8.46508C17.3619 8.46508 16.779 8.5668 16.1501 8.81331L16.2043 8.95216L16.2585 9.09101C16.8562 8.85712 17.399 8.76357 17.9136 8.76282C19.0504 8.76208 20.0579 9.22986 21.1598 9.71324C22.2595 10.1951 23.4534 10.6889 24.9481 10.6889C25.8272 10.6889 26.8088 10.5174 27.9315 10.08L27.8773 9.94119H27.7281V24.3659H27.8773L27.8224 24.2271C26.7257 24.6577 25.7819 24.8218 24.9392 24.8226C23.5136 24.8226 22.3709 24.3518 21.2734 23.8692C20.179 23.3888 19.1298 22.892 17.9076 22.8913C17.3589 22.8913 16.7775 22.993 16.1501 23.2388L16.2043 23.3776L16.2593 23.2388C15.6259 22.99 15.0445 22.8868 14.4995 22.8868C13.3085 22.8876 12.3039 23.3724 11.2525 23.8395C10.1996 24.3087 9.10073 24.7669 7.70482 24.7669C6.86949 24.7669 5.92576 24.6035 4.81868 24.1729L4.76448 24.3117H4.91372V9.88847H4.76448L4.71028 10.0273C5.8478 10.4691 6.83014 10.6414 7.70482 10.6414C9.16756 10.6414 10.3184 10.1587 11.3743 9.68799C12.4324 9.21501 13.3947 8.75985 14.5003 8.7606C15.0074 8.7606 15.5487 8.85564 16.1501 9.09175L16.2051 9.11329L16.2593 9.09175L16.2051 8.95291L16.2043 8.95216ZM15.8813 22.4948L15.9222 22.3515C15.5086 22.2349 15.1084 22.1844 14.7178 22.1844C13.4808 22.1859 12.3633 22.6886 11.2213 23.1779C10.0786 23.6687 8.91139 24.1476 7.57562 24.1469C6.91627 24.1469 6.2146 24.031 5.44759 23.74L5.39487 23.8796H5.54411V10.8047H5.39487L5.34215 10.9443C6.14332 11.248 6.88657 11.3713 7.5823 11.3713C8.98936 11.3705 10.1967 10.8723 11.3387 10.3859C12.4829 9.89738 13.5625 9.42366 14.7126 9.42514C15.0779 9.42514 15.4522 9.47266 15.8412 9.58255L15.8821 9.43925H15.7328V22.4963H15.8821H16.0313V9.32639L15.9229 9.2952C15.5071 9.17789 15.1047 9.12665 14.7134 9.12665C13.4786 9.12814 12.3633 9.6271 11.2228 10.112C10.0816 10.599 8.91659 11.0735 7.5823 11.0735C6.92147 11.0735 6.21757 10.9577 5.44833 10.6659L5.24637 10.5894V23.9828L5.34215 24.0192C6.14109 24.3221 6.88137 24.4454 7.57636 24.4454C8.98564 24.4454 10.1959 23.9427 11.3394 23.4519C12.4851 22.9596 13.5669 22.4814 14.7186 22.4829C15.0824 22.4829 15.4544 22.5304 15.8412 22.6388L16.0313 22.6923V22.4955H15.8821L15.8813 22.4948ZM27.2306 23.8788L27.1779 23.7392C26.4079 24.0303 25.7032 24.1461 25.0417 24.1461C23.7007 24.1469 22.5312 23.668 21.387 23.1772C20.2436 22.6886 19.1253 22.1852 17.8891 22.1837C17.5 22.1837 17.0998 22.2342 16.6862 22.3507L16.727 22.494H16.8763V9.43702H16.727L16.7679 9.58033C17.1562 9.47043 17.5297 9.42291 17.895 9.42291C19.0452 9.42143 20.1248 9.89589 21.2697 10.3837C22.4139 10.8701 23.6242 11.3683 25.0357 11.369C25.7337 11.369 26.4799 11.2465 27.284 10.9421L27.2321 10.8025H27.0828V23.8773H27.2321H27.3813V10.5872L27.1801 10.6636C26.4071 10.9555 25.7003 11.0705 25.0365 11.0713C23.6985 11.0713 22.5305 10.5968 21.387 10.1097C20.2458 9.62488 19.1298 9.12591 17.8958 9.12517C17.5045 9.12517 17.102 9.1764 16.6869 9.29372L16.5785 9.3249V22.6916L16.7686 22.6381C17.1547 22.5289 17.526 22.4822 17.8898 22.4822C19.0414 22.4814 20.1225 22.9589 21.2697 23.4511C22.4154 23.9419 23.6287 24.4439 25.0424 24.4446C25.7389 24.4446 26.4821 24.3221 27.284 24.0184L27.3806 23.982V23.8788H27.2313H27.2306Z" fill="#250A20"/>
<path d="M23.3807 13.7012C23.3807 14.3844 22.8045 14.9598 22.1229 14.9598C21.4197 14.9598 20.8613 14.3844 20.8613 13.7012C20.8613 12.9988 21.4197 12.4241 22.1229 12.4241C22.8045 12.4241 23.3807 12.9988 23.3807 13.7012Z" fill="#250A20"/>
<path d="M23.3805 13.7013H23.3062C23.3062 14.0213 23.1711 14.3175 22.9543 14.5336C22.7382 14.7497 22.4419 14.8848 22.1226 14.8848C21.4618 14.8833 20.9369 14.3428 20.9361 13.7013C20.9361 13.0397 21.4618 12.4999 22.1226 12.4991C22.7612 12.4999 23.3047 13.0412 23.3055 13.7013H23.3797H23.454C23.4532 12.958 22.8459 12.3506 22.1219 12.3499C21.3772 12.3499 20.7876 12.9595 20.7861 13.7013C20.7861 14.4252 21.3772 15.0341 22.1219 15.0341C22.8459 15.0326 23.4532 14.4267 23.454 13.7013H23.3797H23.3805Z" fill="#250A20"/>
<path d="M24.8038 20.2658V21.0573H19.5869V20.2658H20.7178V16.4887H19.5869V15.7157H23.5244V20.2658H24.8038Z" fill="#250A20"/>
<path d="M24.8036 20.2658H24.7286V20.9823H19.661V20.34H20.7925V16.4144H19.661V15.7899H23.45V20.34H24.8036V20.2658H24.7286H24.8036V20.1915H23.5992V15.6407H19.5117V16.5629H20.6433V20.1915H19.5117V21.1315H24.8778V20.1915H24.8036V20.2658Z" fill="#250A20"/>
<path d="M16.3209 32.8624C25.1966 32.8624 32.3917 25.6673 32.3917 16.7916C32.3917 7.91588 25.1966 0.720703 16.3209 0.720703C7.44517 0.720703 0.25 7.91588 0.25 16.7916C0.25 25.6673 7.44517 32.8624 16.3209 32.8624Z" stroke="#250A20" stroke-width="1.36" stroke-miterlimit="22.9256"/>
</svg>
