<svg width="134" height="13" viewBox="0 0 134 13" fill="none" xmlns="http://www.w3.org/2000/svg">
<path d="M0 12.4792V1.17969H2.09304L8.37807 9.25412V1.17969H10.3915V12.4792H8.29848L2.0164 4.23082V12.4792H0Z" fill="#46B98C"/>
<path d="M18.8962 9.14109H13.4661C13.4661 10.2584 14.377 10.8155 16.2018 10.8155C17.039 10.8155 17.8762 10.7359 18.7135 10.5797V12.2394C17.9824 12.3986 17.039 12.4782 15.8834 12.4782C12.8765 12.4782 11.3701 11.0631 11.3701 8.23312C11.3701 5.52985 12.7468 4.17969 15.5031 4.17969C18.2536 4.17969 19.3826 5.83349 18.8933 9.14403L18.8962 9.14109ZM13.4661 7.60815H16.927C17.0007 6.41718 16.4465 5.8217 15.2673 5.8217C14.1589 5.8217 13.5604 6.41718 13.4632 7.60815H13.4661Z" fill="#46B98C"/>
<path d="M19.2734 8.32892C19.2734 5.51068 20.6708 4.10156 23.4625 4.10156C26.2542 4.10156 27.6515 5.51068 27.6515 8.32892C27.6515 11.1413 26.2571 12.5504 23.4625 12.5504C20.6796 12.5504 19.2852 11.1442 19.2734 8.32892ZM23.4625 10.8966C24.8598 10.8966 25.5555 10.0299 25.5555 8.29649C25.5555 6.60732 24.8569 5.75831 23.4625 5.75831C22.0681 5.75831 21.3665 6.60437 21.3665 8.29649C21.3665 10.0299 22.0651 10.8966 23.4625 10.8966Z" fill="#46B98C"/>
<path d="M28.6299 12.4821V1.17969H33.4498C35.5988 1.17969 36.6748 2.08471 36.6748 3.8918C36.6748 5.93178 35.1773 7.1935 32.1792 7.67697L31.8785 6.44472C34.0394 6.10276 35.1183 5.27144 35.1183 3.95371C35.1183 2.91013 34.5169 2.38835 33.3171 2.38835H30.0921V12.4792H28.6299V12.4821Z" fill="#46B98C"/>
<path d="M37.3809 8.32745C37.3809 5.56228 38.6986 4.17969 41.3341 4.17969C43.9666 4.17969 45.2873 5.56228 45.2873 8.32745C45.2873 11.0867 43.9695 12.4693 41.3341 12.4693C38.8165 12.4693 37.4988 11.0897 37.3809 8.32745ZM41.3341 11.2901C42.9938 11.2901 43.8221 10.2937 43.8221 8.29502C43.8221 6.34053 42.9938 5.36181 41.3341 5.36181C39.6744 5.36181 38.843 6.34053 38.843 8.29502C38.843 10.2937 39.6744 11.2901 41.3341 11.2901Z" fill="#46B98C"/>
<path d="M46.5771 12.4782V4.17969H47.5647L47.8271 5.238C48.5552 4.53344 49.3217 4.17969 50.1353 4.17969V5.39719C49.3541 5.39719 48.6584 5.748 48.0393 6.44961V12.4782H46.5771Z" fill="#46B98C"/>
<path d="M50.8369 8.32745C50.8369 5.56228 52.1546 4.17969 54.7901 4.17969C57.4226 4.17969 58.7404 5.56228 58.7404 8.32745C58.7404 11.0867 57.4226 12.4693 54.7901 12.4693C52.2726 12.4693 50.9548 11.0897 50.8369 8.32745ZM54.7901 11.2901C56.4498 11.2901 57.2782 10.2937 57.2782 8.29502C57.2782 6.34053 56.4498 5.36181 54.7901 5.36181C53.1304 5.36181 52.2991 6.34053 52.2991 8.29502C52.2991 10.2937 53.1304 11.2901 54.7901 11.2901Z" fill="#46B98C"/>
<path d="M60.0386 12.0783V10.8136C60.9613 11.129 61.9194 11.2882 62.9158 11.2882C64.2394 11.2882 64.8997 10.8932 64.8997 10.1031C64.8997 9.36616 64.4634 8.99472 63.5967 8.99472H62.4117C60.5692 8.99472 59.6465 8.17814 59.6465 6.54497C59.6465 4.96487 60.8492 4.17188 63.2577 4.17188C64.1421 4.17188 65.0471 4.30453 65.9669 4.5669V5.83157C65.0442 5.51614 64.1421 5.35695 63.2577 5.35695C61.7189 5.35695 60.9495 5.75198 60.9495 6.54203C60.9495 7.27901 61.4359 7.64751 62.4117 7.64751H63.5967C65.4392 7.64751 66.3619 8.46409 66.3619 10.0973C66.3619 11.6774 65.2122 12.4674 62.9158 12.4674C61.9194 12.4674 60.9613 12.3347 60.0386 12.0724V12.0783Z" fill="#46B98C"/>
<path d="M69.948 5.17724C70.5465 5.17724 71.0565 4.96498 71.478 4.54637C71.8996 4.12482 72.1089 3.60893 72.1089 3.00165C72.1089 2.38553 71.8966 1.86964 71.478 1.45987C71.0565 1.05011 70.5465 0.84375 69.9421 0.84375C69.3378 0.84375 68.8278 1.05011 68.4063 1.46577C67.9847 1.88143 67.7754 2.39732 67.7754 3.01049C67.7754 3.62072 67.9847 4.13661 68.4063 4.55522C68.8278 4.97677 69.3437 5.18608 69.948 5.18608V5.17429V5.17724ZM69.948 4.93845C69.4144 4.93845 68.9664 4.75273 68.6008 4.37834C68.2353 4.0069 68.0525 3.55292 68.0525 3.01344C68.0525 2.47102 68.2353 2.01703 68.6008 1.65149C68.9664 1.28594 69.4144 1.10022 69.948 1.10022C70.4787 1.10022 70.9297 1.28299 71.2952 1.64264C71.6608 2.00229 71.8436 2.45923 71.8436 3.00754C71.8436 3.54997 71.6608 4.00395 71.2952 4.37539C70.9297 4.74683 70.4787 4.92961 69.9539 4.92961L69.948 4.9355V4.93845ZM70.9798 4.20146L70.4521 3.10483C70.5789 3.05471 70.6909 2.97217 70.7794 2.86015C70.8678 2.74813 70.912 2.60957 70.912 2.45038C70.912 2.24992 70.8472 2.08778 70.7115 1.96102C70.5789 1.83426 70.4256 1.77235 70.2428 1.77235H69.1462V4.19852H69.4056V3.15199H70.2045L70.7027 4.19852H70.9798V4.20146ZM69.4056 2.90437V2.01703H70.2369C70.3519 2.01703 70.4521 2.05536 70.5288 2.132C70.6054 2.20865 70.6437 2.31478 70.6437 2.45333C70.6437 2.59188 70.6054 2.70391 70.5199 2.78645C70.4374 2.86899 70.3372 2.90731 70.2163 2.90731L69.4027 2.90142L69.4056 2.90437Z" fill="#46B98C"/>
<path d="M129.736 5.04155V2.42672H130.65V2.12014H128.498V2.42672H129.394V5.04155H129.736ZM133.598 5.04155V2.11719H133.109L132.354 4.66127L131.62 2.11719H131.113V5.04155H131.425V2.5977L132.159 5.04155H132.531L133.286 2.58296V5.04155H133.598Z" fill="white"/>
</svg>
