<svg width="52" height="39" viewBox="0 0 52 39" fill="none" xmlns="http://www.w3.org/2000/svg">
<path d="M51.3931 32.0273V15.4766H0.00195312V32.0273C0.00195312 35.3948 11.5057 38.1243 25.6983 38.1243C39.8894 38.1243 51.3946 35.3933 51.3946 32.0273H51.3931Z" fill="#EEBCCC"/>
<path d="M51.3926 18.0937V15.4807H48.9049C44.7741 13.4255 35.9358 12.0039 25.6963 12.0039C15.4568 12.0039 6.61853 13.4255 2.48777 15.4807H0V18.0937H0.00145654C0.00145654 18.0966 0 18.0981 0 18.0995C0 21.4685 11.5052 24.1981 25.6963 24.1981C39.8889 24.1981 51.3926 21.4685 51.3926 18.0995C51.3926 18.0981 51.3926 18.0952 51.3926 18.0937Z" fill="#DCAEBD"/>
<path d="M25.6963 21.5784C39.8874 21.5784 51.3926 18.8489 51.3926 15.4799C51.3926 12.1124 39.8889 9.38281 25.6963 9.38281C11.5052 9.38281 0 12.1124 0 15.4799C0 18.8474 11.5038 21.5784 25.6963 21.5784Z" fill="#E5B5C4"/>
<path d="M20.3799 15.3084C19.5264 12.238 18.2126 10.6838 16.5128 10.63C15.0329 10.5833 14.5596 12.0938 14.5596 15.3084" stroke="#7B3972" stroke-width="0.690401" stroke-linecap="round" stroke-linejoin="round"/>
<path d="M31.0127 15.3084C31.8662 12.238 33.18 10.6838 34.8798 10.63C36.3597 10.5833 36.833 12.0938 36.833 15.3084" stroke="#7B3972" stroke-width="0.690401" stroke-linecap="round" stroke-linejoin="round"/>
<path d="M26.8515 0.926101L26.8516 0.926079C27.2464 0.832697 27.5656 0.690632 27.8776 0.551759C27.8929 0.544965 27.9081 0.538178 27.9233 0.531405C29.7025 -0.257386 31.6335 -0.0357435 32.844 1.25032C33.7373 2.19943 34.046 3.4195 34.02 4.68145C34.0097 5.16304 33.8301 5.82765 33.5514 6.58839C33.2734 7.34712 32.8997 8.19395 32.5069 9.03736C32.2571 9.57366 32.0002 10.1073 31.7554 10.6158C31.615 10.9073 31.4787 11.1905 31.35 11.4612C31.01 12.1761 30.7229 12.804 30.5601 13.2591H20.8316C20.6688 12.804 20.3817 12.1761 20.0418 11.4612C19.9133 11.1911 19.7773 10.9086 19.6373 10.6178C19.3923 10.1087 19.135 9.57437 18.885 9.03736C18.4923 8.19395 18.1187 7.34714 17.8409 6.5884C17.5624 5.82767 17.3831 5.16308 17.3732 4.6815C17.3472 3.42099 17.6558 2.19944 18.5492 1.25032L18.5492 1.25032C19.7582 -0.034286 21.6907 -0.255955 23.4699 0.531451L23.4994 0.464858L23.4698 0.531405C23.4831 0.5373 23.4963 0.543207 23.5096 0.549119C23.8237 0.688858 24.1457 0.832098 24.5415 0.926065L24.5416 0.926101C24.8783 1.00528 25.1675 1.03271 25.3729 1.04032C25.4756 1.04413 25.5575 1.04298 25.614 1.04084C25.6423 1.03978 25.6642 1.03846 25.6793 1.0374L25.6959 1.03611L25.7125 1.0374C25.7276 1.03846 25.7496 1.03978 25.7779 1.04084C25.8345 1.04298 25.9166 1.04413 26.0195 1.04032C26.2253 1.03271 26.5148 1.00528 26.8515 0.926101Z" fill="#7B3972" stroke="#7B3972" stroke-width="0.145654"/>
<path d="M25.8191 11.9765C25.7317 11.978 25.6429 11.978 25.5555 11.978C25.4623 11.978 25.3705 11.9765 25.2788 11.9765C23.0561 11.9226 21.8384 11.6721 21.2034 11.4667C20.6338 11.2818 20.4226 11.1011 20.3586 11.0341C20.3571 11.0269 20.3571 11.0196 20.3571 11.0123C20.3571 10.8477 20.7402 10.5782 21.8238 10.3583C22.8201 10.1573 24.3742 10.0466 25.7856 10.0466M25.7856 9.82812C24.3597 9.82812 22.7895 9.94028 21.7801 10.1457C20.6907 10.367 20.1372 10.6569 20.1372 11.0123C20.1372 11.0152 20.1372 11.0181 20.1372 11.021C20.1328 11.0341 20.1299 11.0473 20.1299 11.0604V11.7813C20.1299 11.8119 20.1415 12.0945 20.5173 12.4834L20.5188 12.4849C20.7169 12.68 21.3796 13.9501 21.2704 14.9129C21.2674 14.9333 21.2718 14.9552 21.2806 14.9741C21.2922 14.9989 21.416 15.2144 21.987 15.4256C22.7211 15.698 23.8484 15.8436 25.337 15.8626C25.3428 15.864 25.3501 15.864 25.3574 15.864C25.4244 15.864 25.4885 15.864 25.5526 15.864C25.5875 15.864 25.6225 15.864 25.6575 15.864C25.688 15.864 25.7186 15.864 25.7492 15.864C25.7551 15.864 25.7623 15.8626 25.7696 15.8626" stroke="#7B3972" stroke-width="0.690401"/>
<path d="M25.5742 11.9765C25.6616 11.978 25.7505 11.978 25.8379 11.978C25.9311 11.978 26.0228 11.9765 26.1146 11.9765C28.3373 11.9226 29.5549 11.6721 30.19 11.4667C30.7595 11.2818 30.9707 11.1011 31.0348 11.0341C31.0363 11.0269 31.0363 11.0196 31.0363 11.0123C31.0363 10.8477 30.6517 10.5782 29.5695 10.3583C28.5732 10.1573 27.0191 10.0466 25.6077 10.0466M25.6077 9.82812C27.0337 9.82812 28.6038 9.94028 29.6132 10.1457C30.7027 10.367 31.2562 10.6569 31.2562 11.0123C31.2562 11.0152 31.2562 11.0181 31.2562 11.021C31.2606 11.0341 31.2635 11.0473 31.2635 11.0604V11.7813C31.2635 11.8119 31.2518 12.0945 30.876 12.4834L30.8746 12.4849C30.6765 12.68 30.0138 13.9501 30.123 14.9129C30.1245 14.9333 30.1215 14.9552 30.1128 14.9741C30.1012 14.9989 29.9773 15.2144 29.4064 15.4256C28.6723 15.698 27.5449 15.8436 26.0563 15.8626C26.0505 15.864 26.0432 15.864 26.0359 15.864C25.9689 15.864 25.9049 15.864 25.8408 15.864C25.8058 15.864 25.7709 15.864 25.7359 15.864C25.7053 15.864 25.6747 15.864 25.6441 15.864C25.6383 15.864 25.631 15.8626 25.6237 15.8626" stroke="#7B3972" stroke-width="0.690401"/>
<path d="M25.6956 13.8993C24.2243 13.8993 22.8947 13.7257 21.9353 13.4468C21.4551 13.3072 21.0718 13.1424 20.8102 12.9627C20.582 12.806 20.4579 12.6462 20.4284 12.4908H30.9628C30.9333 12.6462 30.8092 12.806 30.581 12.9627C30.3194 13.1424 29.9361 13.3072 29.4559 13.4468C28.4965 13.7257 27.1669 13.8993 25.6956 13.8993Z" fill="#7B3972" stroke="#7B3972" stroke-width="0.145654"/>
</svg>
