<svg width="15" height="16" viewBox="0 0 15 16" fill="none" xmlns="http://www.w3.org/2000/svg">
<path d="M8.51915 5.77292C8.51915 5.65288 8.47146 5.53776 8.38658 5.45288C8.3017 5.368 8.18658 5.32031 8.06654 5.32031C7.94651 5.32031 7.83138 5.368 7.7465 5.45288C7.66162 5.53776 7.61394 5.65288 7.61394 5.77292V7.13072H6.25613C6.13609 7.13072 6.02097 7.17841 5.93609 7.26329C5.85121 7.34817 5.80353 7.46329 5.80353 7.58333C5.80353 7.70337 5.85121 7.81849 5.93609 7.90337C6.02097 7.98825 6.13609 8.03593 6.25613 8.03593H7.61394V9.39374C7.61394 9.51378 7.66162 9.6289 7.7465 9.71378C7.83138 9.79866 7.94651 9.84634 8.06654 9.84634C8.18658 9.84634 8.3017 9.79866 8.38658 9.71378C8.47146 9.6289 8.51915 9.51378 8.51915 9.39374V8.03593H9.87696C9.99699 8.03593 10.1121 7.98825 10.197 7.90337C10.2819 7.81849 10.3296 7.70337 10.3296 7.58333C10.3296 7.46329 10.2819 7.34817 10.197 7.26329C10.1121 7.17841 9.99699 7.13072 9.87696 7.13072H8.51915V5.77292Z" fill="#363330"/>
<path d="M0.824917 1.69922C0.70488 1.69922 0.589758 1.7469 0.504879 1.83178C0.419999 1.91666 0.372314 2.03178 0.372314 2.15182C0.372314 2.27186 0.419999 2.38698 0.504879 2.47186C0.589758 2.55674 0.70488 2.60442 0.824917 2.60442H1.8297L2.19268 4.05909L3.54868 11.2872C3.5681 11.3909 3.62314 11.4846 3.7043 11.552C3.78545 11.6194 3.88762 11.6564 3.99314 11.6565H4.89834C4.41819 11.6565 3.95771 11.8472 3.61819 12.1867C3.27867 12.5263 3.08793 12.9867 3.08793 13.4669C3.08793 13.947 3.27867 14.4075 3.61819 14.7471C3.95771 15.0866 4.41819 15.2773 4.89834 15.2773C5.3785 15.2773 5.83898 15.0866 6.1785 14.7471C6.51802 14.4075 6.70876 13.947 6.70876 13.4669C6.70876 12.9867 6.51802 12.5263 6.1785 12.1867C5.83898 11.8472 5.3785 11.6565 4.89834 11.6565H11.2348C10.7546 11.6565 10.2942 11.8472 9.95463 12.1867C9.61511 12.5263 9.42437 12.9867 9.42437 13.4669C9.42437 13.947 9.61511 14.4075 9.95463 14.7471C10.2942 15.0866 10.7546 15.2773 11.2348 15.2773C11.7149 15.2773 12.1754 15.0866 12.5149 14.7471C12.8545 14.4075 13.0452 13.947 13.0452 13.4669C13.0452 12.9867 12.8545 12.5263 12.5149 12.1867C12.1754 11.8472 11.7149 11.6565 11.2348 11.6565H12.14C12.2455 11.6564 12.3477 11.6194 12.4288 11.552C12.51 11.4846 12.565 11.3909 12.5844 11.2872L13.9423 4.04551C13.9545 3.98019 13.9522 3.91298 13.9355 3.84865C13.9188 3.78432 13.8882 3.72445 13.8458 3.6733C13.8033 3.62214 13.7502 3.58096 13.69 3.55267C13.6299 3.52439 13.5643 3.50969 13.4978 3.50963H2.98836L2.62175 2.04229C2.59732 1.94433 2.54084 1.85736 2.46129 1.79519C2.38174 1.73303 2.28369 1.69925 2.18273 1.69922H0.824917ZM4.3688 10.7513L3.18026 4.41484H12.9529L11.7643 10.7513H4.3688ZM5.80355 13.4669C5.80355 13.707 5.70818 13.9372 5.53842 14.107C5.36866 14.2767 5.13842 14.3721 4.89834 14.3721C4.65827 14.3721 4.42803 14.2767 4.25827 14.107C4.08851 13.9372 3.99314 13.707 3.99314 13.4669C3.99314 13.2268 4.08851 12.9966 4.25827 12.8268C4.42803 12.6571 4.65827 12.5617 4.89834 12.5617C5.13842 12.5617 5.36866 12.6571 5.53842 12.8268C5.70818 12.9966 5.80355 13.2268 5.80355 13.4669ZM12.14 13.4669C12.14 13.707 12.0446 13.9372 11.8749 14.107C11.7051 14.2767 11.4749 14.3721 11.2348 14.3721C10.9947 14.3721 10.7645 14.2767 10.5947 14.107C10.425 13.9372 10.3296 13.707 10.3296 13.4669C10.3296 13.2268 10.425 12.9966 10.5947 12.8268C10.7645 12.6571 10.9947 12.5617 11.2348 12.5617C11.4749 12.5617 11.7051 12.6571 11.8749 12.8268C12.0446 12.9966 12.14 13.2268 12.14 13.4669Z" fill="#363330"/>
</svg>
