<svg width="18" height="16" viewBox="0 0 18 16" fill="none" xmlns="http://www.w3.org/2000/svg">
<path d="M4.34423 3.2148V7.10309C4.34423 7.68752 4.81834 8.16461 5.40576 8.16461H9.29405M15.3024 4.98302V1.09473C15.3024 0.510294 14.8283 0.0332031 14.2409 0.0332031H5.40576C4.82132 0.0332031 4.34423 0.507312 4.34423 1.09473V2.50811M9.99776 8.16163H11.0444L12.9289 10.0372C13.1525 10.2578 13.5312 10.0998 13.5312 9.78672V8.16163H14.2379C14.8223 8.16163 15.2994 7.68752 15.2994 7.10011V5.68673M6.4643 10.6336V12.0469C6.4643 12.6314 6.93841 13.1085 7.52583 13.1085H11.5215L14.0202 15.1182C14.2528 15.3031 14.5957 15.1391 14.5957 14.8439V13.1085H16.0091C16.5935 13.1085 17.0706 12.6344 17.0706 12.0469V6.03858C17.0706 5.45414 16.5965 4.97705 16.0091 4.97705H10.0007M6.46729 8.15865V9.92687M9.29405 4.98004H7.52583C6.94139 4.98004 6.4643 5.45414 6.4643 6.04156V7.45494M1.86933 2.50811H8.93921C9.52365 2.50811 10.0007 2.98222 10.0007 3.56964V9.57799C10.0007 10.1624 9.52663 10.6395 8.93921 10.6395H4.59172L2.83245 12.4763C2.6118 12.7059 2.22416 12.5509 2.22416 12.2318V10.6395H1.86933C1.28489 10.6395 0.8078 10.1654 0.8078 9.57799V3.56964C0.8078 2.9852 1.28191 2.50811 1.86933 2.50811Z" stroke="white" stroke-width="0.70669" stroke-miterlimit="10"/>
</svg>
