<svg width="27" height="30" viewBox="0 0 27 30" fill="none" xmlns="http://www.w3.org/2000/svg">
<path d="M24.1878 25.7654C23.9841 25.073 23.6786 24.2991 23.3324 23.5048C22.9862 22.731 22.5789 21.9367 22.1309 21.1424C22.0698 21.2443 22.0087 21.3461 21.9476 21.4479C21.8865 21.5497 21.8254 21.6516 21.7439 21.7534C21.6828 21.8552 21.6014 21.9571 21.5403 22.0385C21.4588 22.1403 21.3977 22.2218 21.3162 22.3236C21.3162 22.3236 21.3162 22.344 21.2959 22.344C21.2959 22.344 21.2959 22.3644 21.2755 22.3644L21.2551 22.3847L21.2348 22.4051L21.1737 22.4866C21.2348 22.6699 21.3162 22.8735 21.3977 23.1179C21.4792 23.3419 21.581 23.6067 21.6624 23.8307C21.7439 24.0751 21.805 24.2991 21.8254 24.462C21.8457 24.6453 21.8457 24.7879 21.7846 24.849C21.7643 24.8693 21.7439 24.8897 21.7032 24.9101C21.6828 24.9304 21.6421 24.9304 21.6217 24.9508C21.581 24.9508 21.5606 24.9712 21.5199 24.9712C21.4792 24.9712 21.4384 24.9712 21.3977 24.9712C21.3366 24.9712 21.2551 24.9508 21.194 24.9508C21.1126 24.9304 21.0311 24.9101 20.9497 24.8897C20.8682 24.8693 20.7867 24.8286 20.6849 24.7879C20.6034 24.7471 20.5016 24.7064 20.3998 24.6657C20.2776 24.6046 20.1554 24.5435 20.0128 24.4824C19.8906 24.4213 19.7481 24.3398 19.6055 24.2584C19.463 24.1769 19.3204 24.0954 19.1778 24.014C19.0353 23.9325 18.8927 23.8307 18.7298 23.7492C19.3204 23.1586 19.8703 22.5273 20.3794 21.8552C20.8886 21.1832 21.357 20.4704 21.7643 19.7372C22.1716 19.0041 22.5178 18.2302 22.8233 17.4563C23.1084 16.662 23.3528 15.8678 23.5157 15.0531C23.8823 13.2202 23.8619 11.4892 23.5157 9.94137C23.1899 8.43432 22.5382 7.09019 21.6624 6.01082C20.7867 4.95181 19.687 4.11682 18.404 3.60768C17.1413 3.09854 15.6953 2.85416 14.1272 2.97635C13.0885 3.03745 12.0703 3.26147 11.0927 3.58732C10.1152 3.91317 9.15799 4.36121 8.24154 4.91108C7.32509 5.46095 6.46973 6.09228 5.65511 6.82544C4.84049 7.5586 4.10733 8.35286 3.43526 9.22858C3.25197 8.88236 3.10941 8.57688 2.98722 8.29176C2.86503 8.00665 2.78356 7.74189 2.72247 7.51787C2.66137 7.29385 2.64101 7.09019 2.66137 6.92727C2.68174 6.76435 2.72247 6.62179 2.8243 6.51996C2.84466 6.47923 2.88539 6.45886 2.94649 6.41813C2.98722 6.39777 3.04832 6.35703 3.10941 6.33667C3.17051 6.3163 3.23161 6.29594 3.31307 6.27557C3.39453 6.25521 3.47599 6.25521 3.55746 6.23484C3.63892 6.23484 3.74075 6.23484 3.84257 6.23484C3.9444 6.25521 4.04623 6.27557 4.14806 6.3163C4.24989 6.35703 4.35171 6.39777 4.45354 6.45886C4.55537 6.51996 4.6572 6.60142 4.75902 6.70325C4.86085 6.58106 4.96268 6.45886 5.06451 6.35703C5.16634 6.23484 5.28853 6.13301 5.39036 6.03119C5.51255 5.92936 5.61438 5.82753 5.75694 5.7257C5.87913 5.62387 6.00132 5.54241 6.14388 5.44058C6.16425 5.44058 6.16425 5.42022 6.18461 5.42022C6.20498 5.42022 6.20498 5.39985 6.22535 5.39985C6.22535 5.39985 6.24571 5.37949 6.26608 5.37949C6.26608 5.37949 6.28644 5.35912 6.30681 5.35912C6.08279 5.15547 5.81803 4.97218 5.55328 4.82962C5.28853 4.68706 5.02378 4.58523 4.75902 4.50377C4.49427 4.42231 4.20915 4.36121 3.9444 4.34084C3.67965 4.32048 3.4149 4.30011 3.17051 4.32048C3.00759 4.34084 2.8243 4.36121 2.68174 4.38157C2.51881 4.4223 2.37625 4.46304 2.25406 4.50377C2.13187 4.5445 2.00967 4.6056 1.90785 4.66669C1.80602 4.72779 1.72456 4.78888 1.64309 4.87035C1.43944 5.09437 1.31724 5.37949 1.25615 5.74607C1.19505 6.09228 1.21542 6.51996 1.31724 6.98837C1.39871 7.45678 1.56163 7.98628 1.78565 8.55652C2.00967 9.12675 2.29479 9.73772 2.64101 10.4098C2.39662 10.7764 2.1726 11.1633 1.96894 11.5503C1.76529 11.9372 1.56163 12.3241 1.37834 12.7315C1.19505 13.1388 1.03213 13.5461 0.889567 13.9738C0.747008 14.4014 0.604449 14.8291 0.502621 15.2568C0.074944 16.9064 -0.067615 18.4949 0.074944 19.9612C0.217503 21.4479 0.64518 22.8124 1.31724 23.9936C2.00967 25.1952 2.94649 26.1931 4.10733 26.9263C5.28853 27.6798 6.71412 28.1278 8.323 28.2297C8.79141 28.25 9.28018 28.25 9.76896 28.2093C10.2577 28.1686 10.7465 28.1075 11.2149 28.0056C11.7037 27.9038 12.1925 27.7816 12.6609 27.6187C13.1496 27.4558 13.618 27.2725 14.0865 27.0485L12.946 24.8897C12.6201 25.0323 12.2739 25.1341 11.9481 25.2359C11.6019 25.3377 11.276 25.4192 10.9298 25.4803C10.5836 25.5414 10.2577 25.5821 9.91151 25.6025C9.5653 25.6229 9.23945 25.6229 8.89324 25.6229C7.58984 25.5618 6.44937 25.2156 5.49219 24.625C4.535 24.0547 3.76111 23.2605 3.21124 22.3033C2.64101 21.3665 2.29479 20.2464 2.1726 19.0448C2.0504 17.8636 2.13187 16.5602 2.47808 15.2161C2.8243 13.8719 3.37417 12.6093 4.10733 11.4484C4.82012 10.2876 5.71621 9.24894 6.69375 8.35286C7.69167 7.45677 8.79141 6.72361 9.97261 6.19411C11.1538 5.6646 12.3961 5.31839 13.6384 5.25729C14.9011 5.17583 16.0619 5.37949 17.0802 5.82753C18.1188 6.27557 18.9946 6.94764 19.687 7.82336C20.3794 8.69907 20.8886 9.77845 21.1329 11.0004C21.3773 12.2427 21.3773 13.6275 21.0922 15.0939C20.97 15.7456 20.7664 16.3769 20.5423 16.9879C20.3183 17.5988 20.0332 18.2098 19.7074 18.78C19.3815 19.3503 19.0353 19.9205 18.628 20.45C18.241 20.9795 17.793 21.4683 17.3449 21.9367C17.3449 21.7738 17.3653 21.6108 17.3653 21.4683C17.3653 21.3054 17.3857 21.1424 17.3857 20.9999C17.3857 20.8573 17.406 20.7148 17.406 20.5926C17.406 20.4704 17.406 20.3889 17.406 20.3074C17.406 20.2464 17.406 20.1853 17.3857 20.1445C17.3653 20.1038 17.3653 20.0834 17.3449 20.0427C17.3246 20.0223 17.3042 20.002 17.2839 20.002C17.2635 20.002 17.2431 19.9816 17.2024 19.9816C17.182 19.9816 17.1617 19.9816 17.1413 19.9816C17.1209 19.9816 17.1006 19.9816 17.0802 20.002C17.0598 20.002 17.0598 20.0223 17.0395 20.0223H17.0191L13.0274 21.3257C13.0274 21.3257 12.9867 21.3461 12.946 21.3665C12.9053 21.3868 12.8442 21.4276 12.8034 21.4683C12.7627 21.509 12.722 21.5905 12.722 21.6719C12.722 21.7534 12.7423 21.8756 12.8034 21.9978C12.8034 21.9978 12.8034 22.0182 12.8238 22.0182C12.8238 22.0182 12.8238 22.0385 12.8442 22.0385C12.8442 22.0385 12.8442 22.0589 12.8645 22.0589C12.8645 22.0589 12.8645 22.0793 12.8849 22.0793C13.0682 22.4458 13.3126 22.9346 13.618 23.4845C13.9032 24.0343 14.2494 24.6657 14.5752 25.2766C14.9011 25.8876 15.2269 26.4986 15.512 27.0281C15.7972 27.5576 16.0415 27.9853 16.1841 28.2704C16.2045 28.2908 16.2045 28.3111 16.2248 28.3315C16.2452 28.3518 16.2452 28.3722 16.2656 28.3926C16.2656 28.4129 16.2859 28.4333 16.2859 28.4537C16.2859 28.474 16.3063 28.474 16.3063 28.4944C16.347 28.5555 16.3878 28.6166 16.4081 28.6777C16.4489 28.7184 16.4692 28.7592 16.51 28.7999C16.5507 28.8203 16.5711 28.861 16.6118 28.861C16.6322 28.8814 16.6729 28.8814 16.6933 28.8814C16.734 28.8814 16.7951 28.861 16.8358 28.8406C16.8765 28.8203 16.9173 28.7795 16.9376 28.7184C16.958 28.6777 16.9987 28.6166 16.9987 28.5759C17.0191 28.5351 17.0191 28.474 17.0395 28.4537C17.0395 28.4333 17.0395 28.4333 17.0395 28.4129C17.0395 28.3926 17.0395 28.3722 17.0395 28.3518C17.0395 28.3315 17.0395 28.2908 17.0395 28.2704C17.0395 28.2297 17.0395 28.2093 17.0395 28.1686C17.0395 28.026 17.0598 27.8834 17.0598 27.7205C17.0598 27.5576 17.0802 27.3947 17.0802 27.2317C17.0802 27.0688 17.1006 26.9466 17.1006 26.8448C17.1006 26.743 17.1006 26.6819 17.1006 26.6615C17.6504 26.9874 18.2003 27.3132 18.7298 27.5983C19.2797 27.9038 19.8092 28.1686 20.3183 28.4129C20.8275 28.6573 21.3162 28.861 21.7643 29.0035C22.2123 29.1461 22.64 29.2479 23.0066 29.2683C23.0473 29.2683 23.1084 29.2683 23.1491 29.2683C23.1899 29.2683 23.251 29.2683 23.2917 29.2683C23.3324 29.2683 23.3732 29.2683 23.4343 29.2479C23.475 29.2479 23.5157 29.2276 23.5564 29.2276C23.6175 29.2072 23.6786 29.2072 23.7397 29.1868C23.8008 29.1665 23.8619 29.1461 23.9027 29.1257C23.9638 29.1054 24.0045 29.0646 24.0452 29.0443C24.086 29.0035 24.1267 28.9628 24.1674 28.9221C24.4322 28.6573 24.534 28.2297 24.534 27.6798C24.534 27.1503 24.4118 26.4986 24.1878 25.8062V25.7654Z" fill="#F39317"/>
<path d="M11.7453 14.7958V13.859H10.4215V8.72683H9.44396C9.03665 9.11377 8.58861 9.37853 8.09984 9.50072V10.4579C8.34422 10.4172 8.56824 10.3357 8.81263 10.2135C9.05702 10.0913 9.24031 9.96913 9.38287 9.82657V13.8386H7.71289V14.7754H11.7453V14.7958ZM16.6941 10.4783C16.6941 9.9284 16.5108 9.48035 16.1239 9.13414C15.7369 8.80829 15.2482 8.625 14.6372 8.625C14.0262 8.625 13.5171 8.78792 13.1505 9.11377C12.7636 9.43962 12.5803 9.88767 12.5803 10.4375V13.024C12.5803 13.5738 12.7636 14.0219 13.1505 14.3477C13.5374 14.6736 14.0262 14.8365 14.6372 14.8365C15.2482 14.8365 15.7369 14.6736 16.1239 14.3274C16.5108 14.0015 16.6941 13.5535 16.6941 12.9832V10.4375V10.4783ZM15.6555 12.9425C15.6555 13.2683 15.574 13.5127 15.3907 13.696C15.2074 13.8793 14.963 13.9608 14.6576 13.9608C14.3317 13.9608 14.0873 13.8793 13.9244 13.696C13.7411 13.5127 13.6596 13.2683 13.6596 12.9425V10.519C13.6596 10.1931 13.7411 9.94876 13.9244 9.76547C14.1077 9.58218 14.3521 9.50072 14.6779 9.50072C15.0038 9.50072 15.2482 9.58218 15.4314 9.76547C15.6147 9.94876 15.6962 10.1931 15.6962 10.519L15.6758 12.9425H15.6555Z" fill="#F39317"/>
<path d="M8.91371 19.8822V15.3203H8.13982V18.7825L6.34765 15.3203H5.22754V19.8822H6.00143V16.4201L7.81397 19.8822H8.91371ZM10.5022 19.4545C10.5022 19.3323 10.4615 19.2509 10.38 19.1898C10.2986 19.1287 10.1967 19.1083 10.0745 19.1083C9.95235 19.1083 9.85052 19.149 9.76906 19.1898C9.6876 19.2509 9.64687 19.3323 9.64687 19.4545V19.5767C9.64687 19.6989 9.6876 19.7804 9.76906 19.8415C9.85052 19.9026 9.95235 19.9433 10.0745 19.9433C10.1967 19.9433 10.2986 19.9026 10.38 19.8415C10.4615 19.7804 10.5022 19.6989 10.5022 19.5767L10.4819 19.4545H10.5022ZM13.9236 18.6603H13.2108C13.2108 19.0879 12.9868 19.312 12.5388 19.312C12.0907 19.312 11.8667 19.0879 11.8667 18.6195V17.9475C11.8667 17.4994 12.0907 17.255 12.5388 17.255C12.9868 17.255 13.2108 17.4791 13.2108 17.9067H13.9236V17.8456C13.9236 17.4587 13.8014 17.1532 13.5571 16.9292C13.3127 16.7255 12.9665 16.6033 12.5388 16.6033C12.1111 16.6033 11.7853 16.7052 11.5205 16.9496C11.2761 17.1736 11.1336 17.4994 11.1336 17.8864V18.6806C11.1336 19.0676 11.2557 19.3934 11.5205 19.5971C11.7649 19.8211 12.1111 19.9229 12.5388 19.9229C12.9665 19.9229 13.3127 19.8211 13.5571 19.5971C13.8014 19.3731 13.944 19.0676 13.944 18.6806L13.9236 18.6399V18.6603ZM19.0558 19.8822V17.6013C19.0558 17.2958 18.9743 17.0514 18.8114 16.8681C18.6484 16.7052 18.4244 16.6033 18.1597 16.6033C17.8949 16.6033 17.6505 16.6848 17.4265 16.8274L17.0803 17.0514C16.9377 16.7663 16.6934 16.6237 16.3064 16.6237C16.0824 16.6237 15.838 16.6848 15.6343 16.8274L15.3492 16.9903V16.6441H14.6161V19.8618H15.3492V17.642L15.7362 17.3976C15.8991 17.3161 16.0213 17.2754 16.1231 17.2754C16.3471 17.2754 16.4693 17.418 16.4693 17.6827V19.8618H17.2025V17.642L17.5894 17.3976C17.7524 17.3161 17.8746 17.2754 17.9764 17.2754C18.2004 17.2754 18.3226 17.418 18.3226 17.6624V19.8618H19.0761L19.0558 19.8822Z" fill="#F39317"/>
<path d="M21.1329 11.3088C24.2081 11.3088 26.7131 8.82417 26.7131 5.7286C26.7131 2.6534 24.2285 0.148438 21.1329 0.148438C18.0577 0.148438 15.5527 2.63304 15.5527 5.7286C15.5527 8.8038 18.0373 11.3088 21.1329 11.3088Z" fill="#F39317"/>
<path d="M21.1329 11.3088C24.2081 11.3088 26.7131 8.82417 26.7131 5.7286C26.7131 2.6534 24.2285 0.148438 21.1329 0.148438C18.0577 0.148438 15.5527 2.63304 15.5527 5.7286C15.5527 8.8038 18.0373 11.3088 21.1329 11.3088Z" stroke="white" stroke-width="1.1812"/>
<path d="M23.1092 8.90628V8.25458H20.3802L22.1113 6.50314C22.4778 6.13656 22.7426 5.79035 22.8851 5.48486C23.0277 5.17938 23.1092 4.8739 23.1092 4.54805C23.1092 4.03891 22.9666 3.6316 22.6408 3.34648C22.3353 3.041 21.8872 2.89844 21.2966 2.89844C20.7468 2.89844 20.2987 3.041 19.9525 3.32611C19.6063 3.61123 19.4434 3.99818 19.4434 4.48695V4.54805H20.1154C20.1154 4.20183 20.2173 3.95745 20.4209 3.79452C20.6246 3.6316 20.9097 3.52977 21.2763 3.52977C21.6632 3.52977 21.9483 3.61123 22.1316 3.79452C22.3149 3.97781 22.4167 4.2222 22.4167 4.54805C22.4167 4.8128 22.3556 5.05719 22.2334 5.28121C22.1112 5.50523 21.9076 5.76998 21.6428 6.07547L19.5452 8.23422V8.88592H23.0888L23.1092 8.90628Z" fill="#FEFEFE"/>
</svg>
