<svg width="17" height="17" viewBox="0 0 17 17" fill="none" xmlns="http://www.w3.org/2000/svg">
<path d="M8.38058 16.1889C12.7752 16.1889 16.2485 12.6448 16.2485 8.321C16.2485 3.92633 12.7044 0.453125 8.38058 0.453125C3.9859 0.453125 0.512695 3.99722 0.512695 8.321C0.512695 12.7157 4.05679 16.1889 8.38058 16.1889Z" fill="#F39317"/>
<path d="M8.52236 8.88914C9.01854 8.88914 9.44383 9.0309 9.72735 9.31443C10.0109 9.59795 10.1526 9.95236 10.1526 10.4485C10.1526 10.9447 10.0109 11.37 9.65647 11.6535C9.30206 11.9371 8.94766 12.0788 8.3806 12.0788C7.81355 12.0788 7.38826 11.9371 7.03385 11.7244C6.75032 11.4409 6.53767 11.0865 6.53767 10.5903H5.61621V10.6612C5.61621 11.37 5.89974 11.9371 6.39591 12.2915C6.89208 12.7168 7.53002 12.8585 8.3806 12.8585C9.08942 12.8585 9.72736 12.6459 10.2944 12.2206C10.8615 11.7953 11.0741 11.1574 11.0741 10.3777C11.0741 10.0941 11.0032 9.8106 10.9323 9.59795C10.8615 9.38531 10.7197 9.17266 10.6488 9.0309C10.5071 8.88914 10.3653 8.74737 10.2235 8.67649C10.0818 8.60561 10.0109 8.53473 9.94 8.46384C9.86912 8.46384 9.86912 8.39296 9.79824 8.39296L9.94 8.32208C10.0109 8.32208 10.1526 8.2512 10.2235 8.10944C10.3653 8.03855 10.4362 7.89679 10.5779 7.75503C10.7197 7.61326 10.7906 7.4715 10.8615 7.18797C10.9323 6.97533 11.0032 6.6918 11.0032 6.47915C11.0032 5.84122 10.7906 5.27416 10.2944 4.84887C9.79824 4.42358 9.23118 4.21094 8.3806 4.21094C7.6009 4.21094 7.03385 4.42358 6.53767 4.77799C6.0415 5.1324 5.82886 5.69945 5.82886 6.33739V6.40827H6.75032C6.75032 5.98298 6.89208 5.62857 7.17561 5.41593C7.45914 5.20328 7.88443 5.06152 8.3806 5.06152C8.94766 5.06152 9.30206 5.20328 9.58559 5.41593C9.86912 5.69945 10.0109 5.98298 10.0109 6.40827C10.0109 6.90445 9.86912 7.25885 9.58559 7.54238C9.30206 7.82591 8.94766 7.96767 8.45148 7.96767H7.17561V8.81825H8.52236V8.88914Z" fill="#FEFEFE"/>
</svg>
