<svg width="28" height="30" viewBox="0 0 28 30" fill="none" xmlns="http://www.w3.org/2000/svg">
<path d="M25.0364 25.8592C24.8328 25.1667 24.5273 24.3929 24.1811 23.5986C23.8348 22.8247 23.4275 22.0304 22.9795 21.2362C22.9184 21.338 22.8573 21.4398 22.7962 21.5417C22.7351 21.6435 22.674 21.7453 22.5925 21.8472C22.5314 21.949 22.45 22.0508 22.3889 22.1323C22.3074 22.2341 22.2463 22.3156 22.1649 22.4174C22.1649 22.4174 22.1649 22.4378 22.1445 22.4378C22.1445 22.4378 22.1445 22.4581 22.1241 22.4581L22.1038 22.4785L22.0834 22.4989L22.0223 22.5803C22.0834 22.7636 22.1649 22.9673 22.2463 23.2116C22.3278 23.4357 22.4296 23.7004 22.5111 23.9244C22.5925 24.1688 22.6536 24.3929 22.674 24.5558C22.6944 24.7391 22.6944 24.8816 22.6333 24.9427C22.6129 24.9631 22.5925 24.9835 22.5518 25.0038C22.5314 25.0242 22.4907 25.0242 22.4704 25.0445C22.4296 25.0445 22.4093 25.0649 22.3685 25.0649C22.3278 25.0649 22.2871 25.0649 22.2463 25.0649C22.1852 25.0649 22.1038 25.0445 22.0427 25.0445C21.9612 25.0242 21.8797 25.0038 21.7983 24.9835C21.7168 24.9631 21.6354 24.9224 21.5335 24.8816C21.4521 24.8409 21.3502 24.8002 21.2484 24.7594C21.1262 24.6983 21.004 24.6372 20.8615 24.5761C20.7393 24.515 20.5967 24.4336 20.4542 24.3521C20.3116 24.2707 20.169 24.1892 20.0265 24.1077C19.8839 24.0263 19.7414 23.9244 19.5784 23.843C20.169 23.2524 20.7189 22.621 21.2281 21.949C21.7372 21.2769 22.2056 20.5641 22.6129 19.831C23.0202 19.0978 23.3664 18.3239 23.6719 17.55C23.957 16.7558 24.2014 15.9615 24.3643 15.1469C24.7309 13.314 24.7106 11.5829 24.3643 10.0351C24.0385 8.52807 23.3868 7.18394 22.5111 6.10457C21.6354 5.04556 20.5356 4.21057 19.2526 3.70143C17.9899 3.19229 16.544 2.94791 14.9758 3.0701C13.9372 3.1312 12.9189 3.35522 11.9413 3.68107C10.9638 4.00692 10.0066 4.45496 9.09017 5.00483C8.17372 5.5547 7.31837 6.18603 6.50374 6.91919C5.68912 7.65235 4.95596 8.44661 4.2839 9.32233C4.10061 8.97611 3.95805 8.67063 3.83585 8.38551C3.71366 8.1004 3.6322 7.83564 3.5711 7.61162C3.51 7.3876 3.48964 7.18394 3.51 7.02102C3.53037 6.8581 3.5711 6.71554 3.67293 6.61371C3.69329 6.57298 3.73403 6.55261 3.79512 6.51188C3.83585 6.49152 3.89695 6.45078 3.95805 6.43042C4.01914 6.41005 4.08024 6.38969 4.1617 6.36932C4.24316 6.34896 4.32463 6.34896 4.40609 6.32859C4.48755 6.32859 4.58938 6.32859 4.69121 6.32859C4.79303 6.34896 4.89486 6.36932 4.99669 6.41005C5.09852 6.45078 5.20035 6.49152 5.30217 6.55261C5.404 6.61371 5.50583 6.69517 5.60766 6.797C5.70949 6.67481 5.81131 6.55261 5.91314 6.45078C6.01497 6.32859 6.13716 6.22676 6.23899 6.12494C6.36118 6.02311 6.46301 5.92128 6.60557 5.81945C6.72776 5.71762 6.84996 5.63616 6.99252 5.53433C7.01288 5.53433 7.01288 5.51397 7.03325 5.51397C7.05361 5.51397 7.05361 5.4936 7.07398 5.4936C7.07398 5.4936 7.09434 5.47324 7.11471 5.47324C7.11471 5.47324 7.13508 5.45287 7.15544 5.45287C6.93142 5.24922 6.66667 5.06593 6.40192 4.92337C6.13716 4.78081 5.87241 4.67898 5.60766 4.59752C5.34291 4.51606 5.05779 4.45496 4.79304 4.43459C4.52828 4.41423 4.26353 4.39386 4.01914 4.41423C3.85622 4.43459 3.67293 4.45496 3.53037 4.47532C3.36745 4.51605 3.22489 4.55679 3.10269 4.59752C2.9805 4.63825 2.85831 4.69935 2.75648 4.76044C2.65465 4.82154 2.57319 4.88263 2.49173 4.9641C2.28807 5.18812 2.16588 5.47324 2.10478 5.83982C2.04368 6.18603 2.06405 6.61371 2.16588 7.08212C2.24734 7.55053 2.41026 8.08003 2.63428 8.65027C2.85831 9.2205 3.14342 9.83147 3.48964 10.5035C3.24525 10.8701 3.02123 11.2571 2.81757 11.644C2.61392 12.031 2.41026 12.4179 2.22697 12.8252C2.04368 13.2325 1.88076 13.6398 1.7382 14.0675C1.59564 14.4952 1.45308 14.9229 1.35125 15.3505C0.923577 17.0001 0.781018 18.5887 0.923577 20.055C1.06614 21.5417 1.49381 22.9062 2.16588 24.0874C2.85831 25.2889 3.79512 26.2868 4.95596 27.02C6.13716 27.7735 7.56275 28.2216 9.17163 28.3234C9.64004 28.3438 10.1288 28.3438 10.6176 28.303C11.1064 28.2623 11.5951 28.2012 12.0635 28.0994C12.5523 27.9976 13.0411 27.8754 13.5095 27.7124C13.9983 27.5495 14.4667 27.3662 14.9351 27.1422L13.7946 24.9835C13.4688 25.126 13.1226 25.2278 12.7967 25.3297C12.4505 25.4315 12.1246 25.513 11.7784 25.5741C11.4322 25.6352 11.1064 25.6759 10.7601 25.6962C10.4139 25.7166 10.0881 25.7166 9.74187 25.7166C8.43847 25.6555 7.298 25.3093 6.34082 24.7187C5.38364 24.1485 4.60974 23.3542 4.05987 22.397C3.48964 21.4602 3.14342 20.3401 3.02123 19.1385C2.89904 17.9573 2.9805 16.6539 3.32671 15.3098C3.67293 13.9657 4.2228 12.703 4.95596 11.5422C5.66875 10.3813 6.56484 9.34269 7.54239 8.44661C8.5403 7.55052 9.64004 6.81736 10.8212 6.28786C12.0024 5.75835 13.2447 5.41214 14.487 5.35104C15.7497 5.26958 16.9105 5.47324 17.9288 5.92128C18.9675 6.36932 19.8432 7.04139 20.5356 7.91711C21.2281 8.79282 21.7372 9.8722 21.9816 11.0941C22.226 12.3364 22.226 13.7213 21.9408 15.1876C21.8187 15.8393 21.615 16.4706 21.391 17.0816C21.167 17.6926 20.8818 18.3035 20.556 18.8738C20.2301 19.444 19.8839 20.0143 19.4766 20.5438C19.0897 21.0733 18.6416 21.562 18.1936 22.0304C18.1936 21.8675 18.2139 21.7046 18.2139 21.562C18.2139 21.3991 18.2343 21.2362 18.2343 21.0936C18.2343 20.9511 18.2547 20.8085 18.2547 20.6863C18.2547 20.5641 18.2547 20.4827 18.2547 20.4012C18.2547 20.3401 18.2547 20.279 18.2343 20.2383C18.2139 20.1975 18.2139 20.1772 18.1936 20.1364C18.1732 20.1161 18.1528 20.0957 18.1325 20.0957C18.1121 20.0957 18.0918 20.0753 18.051 20.0753C18.0307 20.0753 18.0103 20.0753 17.9899 20.0753C17.9696 20.0753 17.9492 20.0753 17.9288 20.0957C17.9085 20.0957 17.9085 20.1161 17.8881 20.1161H17.8677L13.8761 21.4195C13.8761 21.4195 13.8353 21.4398 13.7946 21.4602C13.7539 21.4806 13.6928 21.5213 13.6521 21.562C13.6113 21.6028 13.5706 21.6842 13.5706 21.7657C13.5706 21.8472 13.591 21.9693 13.6521 22.0915C13.6521 22.0915 13.6521 22.1119 13.6724 22.1119C13.6724 22.1119 13.6724 22.1323 13.6928 22.1323C13.6928 22.1323 13.6928 22.1526 13.7132 22.1526C13.7132 22.1526 13.7132 22.173 13.7335 22.173C13.9168 22.5396 14.1612 23.0284 14.4667 23.5782C14.7518 24.1281 15.098 24.7594 15.4239 25.3704C15.7497 25.9814 16.0756 26.5923 16.3607 27.1218C16.6458 27.6513 16.8902 28.079 17.0327 28.3641C17.0531 28.3845 17.0531 28.4049 17.0735 28.4252C17.0938 28.4456 17.0938 28.466 17.1142 28.4863C17.1142 28.5067 17.1346 28.5271 17.1346 28.5474C17.1346 28.5678 17.1549 28.5678 17.1549 28.5882C17.1957 28.6493 17.2364 28.7104 17.2568 28.7714C17.2975 28.8122 17.3179 28.8529 17.3586 28.8936C17.3993 28.914 17.4197 28.9547 17.4604 28.9547C17.4808 28.9751 17.5215 28.9751 17.5419 28.9751C17.5826 28.9751 17.6437 28.9547 17.6844 28.9344C17.7252 28.914 17.7659 28.8733 17.7863 28.8122C17.8066 28.7714 17.8474 28.7104 17.8474 28.6696C17.8677 28.6289 17.8677 28.5678 17.8881 28.5474C17.8881 28.5271 17.8881 28.5271 17.8881 28.5067C17.8881 28.4863 17.8881 28.466 17.8881 28.4456C17.8881 28.4252 17.8881 28.3845 17.8881 28.3641C17.8881 28.3234 17.8881 28.303 17.8881 28.2623C17.8881 28.1197 17.9085 27.9772 17.9085 27.8143C17.9085 27.6513 17.9288 27.4884 17.9288 27.3255C17.9288 27.1626 17.9492 27.0404 17.9492 26.9385C17.9492 26.8367 17.9492 26.7756 17.9492 26.7553C18.4991 27.0811 19.0489 27.407 19.5784 27.6921C20.1283 27.9976 20.6578 28.2623 21.167 28.5067C21.6761 28.7511 22.1649 28.9547 22.6129 29.0973C23.061 29.2399 23.4886 29.3417 23.8552 29.362C23.8959 29.362 23.957 29.362 23.9978 29.362C24.0385 29.362 24.0996 29.362 24.1403 29.362C24.1811 29.362 24.2218 29.362 24.2829 29.3417C24.3236 29.3417 24.3643 29.3213 24.4051 29.3213C24.4662 29.301 24.5273 29.301 24.5884 29.2806C24.6495 29.2602 24.7106 29.2399 24.7513 29.2195C24.8124 29.1991 24.8531 29.1584 24.8939 29.138C24.9346 29.0973 24.9753 29.0566 25.016 29.0158C25.2808 28.7511 25.3826 28.3234 25.3826 27.7735C25.3826 27.244 25.2604 26.5923 25.0364 25.8999V25.8592Z" fill="#F39317"/>
<path d="M12.5939 14.8895V13.9527H11.2701V8.82058H10.2926C9.88529 9.20752 9.43724 9.47228 8.94847 9.59447V10.5517C9.19286 10.5109 9.41688 10.4295 9.66126 10.3073C9.90565 10.1851 10.0889 10.0629 10.2315 9.92032V13.9323H8.56152V14.8692H12.5939V14.8895ZM17.5427 10.572C17.5427 10.0221 17.3595 9.5741 16.9725 9.22789C16.5856 8.90204 16.0968 8.71875 15.4858 8.71875C14.8749 8.71875 14.3657 8.88167 13.9991 9.20752C13.6122 9.53337 13.4289 9.98142 13.4289 10.5313V13.1177C13.4289 13.6676 13.6122 14.1156 13.9991 14.4415C14.3861 14.7673 14.8749 14.9302 15.4858 14.9302C16.0968 14.9302 16.5856 14.7673 16.9725 14.4211C17.3595 14.0953 17.5427 13.6472 17.5427 13.077V10.5313V10.572ZM16.5041 13.0363C16.5041 13.3621 16.4226 13.6065 16.2393 13.7898C16.0561 13.9731 15.8117 14.0545 15.5062 14.0545C15.1803 14.0545 14.9359 13.9731 14.773 13.7898C14.5897 13.6065 14.5083 13.3621 14.5083 13.0363V10.6127C14.5083 10.2869 14.5897 10.0425 14.773 9.85922C14.9563 9.67593 15.2007 9.59447 15.5265 9.59447C15.8524 9.59447 16.0968 9.67593 16.2801 9.85922C16.4634 10.0425 16.5448 10.2869 16.5448 10.6127L16.5245 13.0363H16.5041Z" fill="#F39317"/>
<path d="M9.76234 19.976V15.4141H8.98845V18.8762L7.19628 15.4141H6.07617V19.976H6.85006V16.5138L8.6626 19.976H9.76234ZM11.3509 19.5483C11.3509 19.4261 11.3101 19.3446 11.2287 19.2835C11.1472 19.2224 11.0454 19.2021 10.9232 19.2021C10.801 19.2021 10.6992 19.2428 10.6177 19.2835C10.5362 19.3446 10.4955 19.4261 10.4955 19.5483V19.6705C10.4955 19.7927 10.5362 19.8741 10.6177 19.9352C10.6992 19.9963 10.801 20.037 10.9232 20.037C11.0454 20.037 11.1472 19.9963 11.2287 19.9352C11.3101 19.8741 11.3509 19.7927 11.3509 19.6705L11.3305 19.5483H11.3509ZM14.7723 18.754H14.0595C14.0595 19.1817 13.8355 19.4057 13.3874 19.4057C12.9394 19.4057 12.7153 19.1817 12.7153 18.7133V18.0412C12.7153 17.5932 12.9394 17.3488 13.3874 17.3488C13.8355 17.3488 14.0595 17.5728 14.0595 18.0005H14.7723V17.9394C14.7723 17.5524 14.6501 17.247 14.4057 17.0229C14.1613 16.8193 13.8151 16.6971 13.3874 16.6971C12.9597 16.6971 12.6339 16.7989 12.3691 17.0433C12.1247 17.2673 11.9822 17.5932 11.9822 17.9801V18.7744C11.9822 19.1613 12.1044 19.4872 12.3691 19.6908C12.6135 19.9149 12.9597 20.0167 13.3874 20.0167C13.8151 20.0167 14.1613 19.9149 14.4057 19.6908C14.6501 19.4668 14.7926 19.1613 14.7926 18.7744L14.7723 18.7336V18.754ZM19.9044 19.976V17.695C19.9044 17.3895 19.8229 17.1451 19.66 16.9618C19.4971 16.7989 19.2731 16.6971 19.0083 16.6971C18.7436 16.6971 18.4992 16.7786 18.2751 16.9211L17.9289 17.1451C17.7864 16.86 17.542 16.7175 17.155 16.7175C16.931 16.7175 16.6866 16.7786 16.483 16.9211L16.1979 17.084V16.7378H15.4647V19.9556H16.1979V17.7357L16.5848 17.4914C16.7477 17.4099 16.8699 17.3692 16.9718 17.3692C17.1958 17.3692 17.318 17.5117 17.318 17.7765V19.9556H18.0511V17.7357L18.4381 17.4914C18.601 17.4099 18.7232 17.3692 18.825 17.3692C19.049 17.3692 19.1712 17.5117 19.1712 17.7561V19.9556H19.9248L19.9044 19.976Z" fill="#F39317"/>
<path d="M21.9815 11.4025C25.0567 11.4025 27.5617 8.91792 27.5617 5.82235C27.5617 2.74715 25.0771 0.242188 21.9815 0.242188C18.9063 0.242188 16.4014 2.72679 16.4014 5.82235C16.4014 8.89755 18.886 11.4025 21.9815 11.4025Z" fill="#F39317"/>
<path d="M21.9815 11.4025C25.0567 11.4025 27.5617 8.91792 27.5617 5.82235C27.5617 2.74715 25.0771 0.242188 21.9815 0.242188C18.9063 0.242188 16.4014 2.72679 16.4014 5.82235C16.4014 8.89755 18.886 11.4025 21.9815 11.4025Z" stroke="white" stroke-width="1.1812"/>
<path d="M23.9578 9.00003V8.34833H21.2288L22.9599 6.59689C23.3265 6.23031 23.5912 5.8841 23.7338 5.57861C23.8763 5.27313 23.9578 4.96765 23.9578 4.6418C23.9578 4.13266 23.8152 3.72535 23.4894 3.44023C23.1839 3.13475 22.7359 2.99219 22.1453 2.99219C21.5954 2.99219 21.1473 3.13475 20.8011 3.41986C20.4549 3.70498 20.292 4.09193 20.292 4.5807V4.6418H20.9641C20.9641 4.29558 21.0659 4.0512 21.2695 3.88827C21.4732 3.72535 21.7583 3.62352 22.1249 3.62352C22.5118 3.62352 22.797 3.70498 22.9802 3.88827C23.1635 4.07156 23.2654 4.31595 23.2654 4.6418C23.2654 4.90655 23.2043 5.15094 23.0821 5.37496C22.9599 5.59898 22.7562 5.86373 22.4915 6.16922L20.3938 8.32797V8.97967H23.9374L23.9578 9.00003Z" fill="#FEFEFE"/>
</svg>
