<svg width="28" height="30" viewBox="0 0 28 30" fill="none" xmlns="http://www.w3.org/2000/svg">
<path d="M24.9104 25.6639C24.7068 24.9714 24.4013 24.1975 24.0551 23.4033C23.7089 22.6294 23.3016 21.8351 22.8535 21.0409C22.7924 21.1427 22.7313 21.2445 22.6702 21.3464C22.6091 21.4482 22.548 21.55 22.4666 21.6518C22.4055 21.7537 22.324 21.8555 22.2629 21.937C22.1814 22.0388 22.1204 22.1203 22.0389 22.2221C22.0389 22.2221 22.0389 22.2424 22.0185 22.2424C22.0185 22.2424 22.0185 22.2628 21.9982 22.2628L21.9778 22.2832L21.9574 22.3035L21.8963 22.385C21.9574 22.5683 22.0389 22.7719 22.1204 23.0163C22.2018 23.2404 22.3036 23.5051 22.3851 23.7291C22.4666 23.9735 22.5277 24.1975 22.548 24.3605C22.5684 24.5438 22.5684 24.6863 22.5073 24.7474C22.4869 24.7678 22.4666 24.7881 22.4258 24.8085C22.4055 24.8289 22.3647 24.8289 22.3444 24.8492C22.3036 24.8492 22.2833 24.8696 22.2425 24.8696C22.2018 24.8696 22.1611 24.8696 22.1204 24.8696C22.0593 24.8696 21.9778 24.8492 21.9167 24.8492C21.8352 24.8289 21.7538 24.8085 21.6723 24.7881C21.5908 24.7678 21.5094 24.727 21.4076 24.6863C21.3261 24.6456 21.2243 24.6048 21.1224 24.5641C21.0002 24.503 20.8781 24.4419 20.7355 24.3808C20.6133 24.3197 20.4707 24.2383 20.3282 24.1568C20.1856 24.0753 20.0431 23.9939 19.9005 23.9124C19.7579 23.831 19.6154 23.7291 19.4525 23.6477C20.0431 23.0571 20.5929 22.4257 21.1021 21.7537C21.6112 21.0816 22.0796 20.3688 22.4869 19.6356C22.8942 18.9025 23.2405 18.1286 23.5459 17.3547C23.8311 16.5604 24.0754 15.7662 24.2384 14.9516C24.605 13.1187 24.5846 11.3876 24.2384 9.83981C23.9125 8.33276 23.2608 6.98863 22.3851 5.90926C21.5094 4.85025 20.4096 4.01526 19.1266 3.50612C17.8639 2.99698 16.418 2.75259 14.8498 2.87479C13.8112 2.93588 12.7929 3.15991 11.8154 3.48575C10.8378 3.8116 9.88064 4.25965 8.96419 4.80952C8.04774 5.35939 7.19239 5.99072 6.37777 6.72388C5.56314 7.45704 4.82998 8.2513 4.15792 9.12702C3.97463 8.7808 3.83207 8.47532 3.70988 8.1902C3.58768 7.90508 3.50622 7.64033 3.44512 7.41631C3.38403 7.19229 3.36366 6.98863 3.38403 6.82571C3.40439 6.66278 3.44512 6.52022 3.54695 6.4184C3.56732 6.37767 3.60805 6.3573 3.66915 6.31657C3.70988 6.2962 3.77097 6.25547 3.83207 6.23511C3.89317 6.21474 3.95426 6.19437 4.03573 6.17401C4.11719 6.15364 4.19865 6.15364 4.28011 6.13328C4.36157 6.13328 4.4634 6.13328 4.56523 6.13328C4.66706 6.15364 4.76889 6.17401 4.87071 6.21474C4.97254 6.25547 5.07437 6.2962 5.1762 6.3573C5.27803 6.4184 5.37985 6.49986 5.48168 6.60169C5.58351 6.47949 5.68534 6.3573 5.78716 6.25547C5.88899 6.13328 6.01119 6.03145 6.11301 5.92962C6.23521 5.82779 6.33703 5.72597 6.47959 5.62414C6.60179 5.52231 6.72398 5.44085 6.86654 5.33902C6.88691 5.33902 6.88691 5.31866 6.90727 5.31866C6.92764 5.31866 6.92764 5.29829 6.948 5.29829C6.948 5.29829 6.96837 5.27792 6.98873 5.27792C6.98873 5.27792 7.0091 5.25756 7.02946 5.25756C6.80544 5.0539 6.54069 4.87061 6.27594 4.72805C6.01119 4.58549 5.74643 4.48367 5.48168 4.4022C5.21693 4.32074 4.93181 4.25965 4.66706 4.23928C4.40231 4.21891 4.13755 4.19855 3.89317 4.21891C3.73024 4.23928 3.54695 4.25965 3.40439 4.28001C3.24147 4.32074 3.09891 4.36147 2.97672 4.4022C2.85452 4.44294 2.73233 4.50403 2.6305 4.56513C2.52867 4.62623 2.44721 4.68732 2.36575 4.76878C2.16209 4.99281 2.0399 5.27792 1.9788 5.6445C1.91771 5.99072 1.93807 6.4184 2.0399 6.8868C2.12136 7.35521 2.28429 7.88472 2.50831 8.45495C2.73233 9.02519 3.01745 9.63616 3.36366 10.3082C3.11928 10.6748 2.89525 11.0617 2.6916 11.4487C2.48794 11.8356 2.28429 12.2226 2.101 12.6299C1.91771 13.0372 1.75478 13.4445 1.61222 13.8722C1.46966 14.2999 1.32711 14.7275 1.22528 15.1552C0.7976 16.8048 0.655041 18.3934 0.7976 19.8597C0.940159 21.3464 1.36784 22.7109 2.0399 23.8921C2.73233 25.0936 3.66915 26.0915 4.82998 26.8247C6.01119 27.5782 7.43678 28.0263 9.04566 28.1281C9.51406 28.1485 10.0028 28.1485 10.4916 28.1077C10.9804 28.067 11.4692 28.0059 11.9376 27.9041C12.4263 27.8022 12.9151 27.6801 13.3835 27.5171C13.8723 27.3542 14.3407 27.1709 14.8091 26.9469L13.6686 24.7881C13.3428 24.9307 12.9966 25.0325 12.6707 25.1344C12.3245 25.2362 11.9987 25.3176 11.6524 25.3787C11.3062 25.4398 10.9804 25.4806 10.6342 25.5009C10.288 25.5213 9.96211 25.5213 9.61589 25.5213C8.3125 25.4602 7.17202 25.114 6.21484 24.5234C5.25766 23.9532 4.48377 23.1589 3.9339 22.2017C3.36366 21.2649 3.01745 20.1448 2.89525 18.9432C2.77306 17.762 2.85452 16.4586 3.20074 15.1145C3.54695 13.7704 4.09682 12.5077 4.82998 11.3469C5.54278 10.186 6.43886 9.14738 7.41641 8.2513C8.41432 7.35521 9.51406 6.62205 10.6953 6.09255C11.8765 5.56304 13.1188 5.21683 14.3611 5.15573C15.6237 5.07427 16.7846 5.27792 17.8029 5.72597C18.8415 6.17401 19.7172 6.84607 20.4096 7.72179C21.1021 8.59751 21.6112 9.67689 21.8556 10.8988C22.1 12.1411 22.1 13.526 21.8149 14.9923C21.6927 15.644 21.489 16.2753 21.265 16.8863C21.041 17.4973 20.7559 18.1082 20.43 18.6785C20.1042 19.2487 19.7579 19.8189 19.3506 20.3484C18.9637 20.878 18.5156 21.3667 18.0676 21.8351C18.0676 21.6722 18.088 21.5093 18.088 21.3667C18.088 21.2038 18.1083 21.0409 18.1083 20.8983C18.1083 20.7558 18.1287 20.6132 18.1287 20.491C18.1287 20.3688 18.1287 20.2873 18.1287 20.2059C18.1287 20.1448 18.1287 20.0837 18.1083 20.043C18.088 20.0022 18.088 19.9819 18.0676 19.9411C18.0472 19.9208 18.0269 19.9004 18.0065 19.9004C17.9861 19.9004 17.9658 19.88 17.925 19.88C17.9047 19.88 17.8843 19.88 17.8639 19.88C17.8436 19.88 17.8232 19.88 17.8029 19.9004C17.7825 19.9004 17.7825 19.9208 17.7621 19.9208H17.7418L13.7501 21.2242C13.7501 21.2242 13.7094 21.2445 13.6686 21.2649C13.6279 21.2853 13.5668 21.326 13.5261 21.3667C13.4853 21.4075 13.4446 21.4889 13.4446 21.5704C13.4446 21.6518 13.465 21.774 13.5261 21.8962C13.5261 21.8962 13.5261 21.9166 13.5464 21.9166C13.5464 21.9166 13.5464 21.937 13.5668 21.937C13.5668 21.937 13.5668 21.9573 13.5872 21.9573C13.5872 21.9573 13.5872 21.9777 13.6075 21.9777C13.7908 22.3443 14.0352 22.833 14.3407 23.3829C14.6258 23.9328 14.972 24.5641 15.2979 25.1751C15.6237 25.7861 15.9496 26.397 16.2347 26.9265C16.5198 27.456 16.7642 27.8837 16.9068 28.1688C16.9271 28.1892 16.9271 28.2096 16.9475 28.2299C16.9679 28.2503 16.9679 28.2707 16.9882 28.291C16.9882 28.3114 17.0086 28.3317 17.0086 28.3521C17.0086 28.3725 17.029 28.3725 17.029 28.3928C17.0697 28.4539 17.1104 28.515 17.1308 28.5761C17.1715 28.6169 17.1919 28.6576 17.2326 28.6983C17.2733 28.7187 17.2937 28.7594 17.3344 28.7594C17.3548 28.7798 17.3955 28.7798 17.4159 28.7798C17.4566 28.7798 17.5177 28.7594 17.5585 28.7391C17.5992 28.7187 17.6399 28.678 17.6603 28.6169C17.6807 28.5761 17.7214 28.515 17.7214 28.4743C17.7418 28.4336 17.7418 28.3725 17.7621 28.3521C17.7621 28.3317 17.7621 28.3317 17.7621 28.3114C17.7621 28.291 17.7621 28.2707 17.7621 28.2503C17.7621 28.2299 17.7621 28.1892 17.7621 28.1688C17.7621 28.1281 17.7621 28.1077 17.7621 28.067C17.7621 27.9244 17.7825 27.7819 17.7825 27.619C17.7825 27.456 17.8029 27.2931 17.8029 27.1302C17.8029 26.9673 17.8232 26.8451 17.8232 26.7432C17.8232 26.6414 17.8232 26.5803 17.8232 26.5599C18.3731 26.8858 18.923 27.2116 19.4525 27.4968C20.0023 27.8022 20.5318 28.067 21.041 28.3114C21.5501 28.5558 22.0389 28.7594 22.4869 28.902C22.935 29.0445 23.3627 29.1464 23.7292 29.1667C23.77 29.1667 23.8311 29.1667 23.8718 29.1667C23.9125 29.1667 23.9736 29.1667 24.0144 29.1667C24.0551 29.1667 24.0958 29.1667 24.1569 29.1464C24.1976 29.1464 24.2384 29.126 24.2791 29.126C24.3402 29.1056 24.4013 29.1056 24.4624 29.0853C24.5235 29.0649 24.5846 29.0445 24.6253 29.0242C24.6864 29.0038 24.7271 28.9631 24.7679 28.9427C24.8086 28.902 24.8493 28.8613 24.8901 28.8205C25.1548 28.5558 25.2566 28.1281 25.2566 27.5782C25.2566 27.0487 25.1345 26.397 24.9104 25.7046V25.6639Z" fill="#F39317"/>
<path d="M12.4679 14.6942V13.7574H11.1442V8.62526H10.1666C9.75931 9.01221 9.31127 9.27696 8.82249 9.39916V10.3563C9.06688 10.3156 9.2909 10.2341 9.53529 10.112C9.77967 9.98976 9.96297 9.86757 10.1055 9.72501V13.737H8.43555V14.6738H12.4679V14.6942ZM17.4168 10.3767C17.4168 9.82683 17.2335 9.37879 16.8465 9.03258C16.4596 8.70673 15.9708 8.52344 15.3598 8.52344C14.7489 8.52344 14.2397 8.68636 13.8732 9.01221C13.4862 9.33806 13.3029 9.7861 13.3029 10.336V12.9224C13.3029 13.4723 13.4862 13.9203 13.8732 14.2462C14.2601 14.572 14.7489 14.7349 15.3598 14.7349C15.9708 14.7349 16.4596 14.572 16.8465 14.2258C17.2335 13.8999 17.4168 13.4519 17.4168 12.8817V10.336V10.3767ZM16.3781 12.8409C16.3781 13.1668 16.2967 13.4112 16.1134 13.5945C15.9301 13.7778 15.6857 13.8592 15.3802 13.8592C15.0544 13.8592 14.81 13.7778 14.647 13.5945C14.4638 13.4112 14.3823 13.1668 14.3823 12.8409V10.4174C14.3823 10.0916 14.4638 9.8472 14.647 9.66391C14.8303 9.48062 15.0747 9.39916 15.4006 9.39916C15.7264 9.39916 15.9708 9.48062 16.1541 9.66391C16.3374 9.8472 16.4189 10.0916 16.4189 10.4174L16.3985 12.8409H16.3781Z" fill="#F39317"/>
<path d="M9.63636 19.7806V15.2188H8.86247V18.6809L7.0703 15.2188H5.9502V19.7806H6.72409V16.3185L8.53662 19.7806H9.63636ZM11.2249 19.353C11.2249 19.2308 11.1841 19.1493 11.1027 19.0882C11.0212 19.0271 10.9194 19.0067 10.7972 19.0067C10.675 19.0067 10.5732 19.0475 10.4917 19.0882C10.4103 19.1493 10.3695 19.2308 10.3695 19.353V19.4752C10.3695 19.5973 10.4103 19.6788 10.4917 19.7399C10.5732 19.801 10.675 19.8417 10.7972 19.8417C10.9194 19.8417 11.0212 19.801 11.1027 19.7399C11.1841 19.6788 11.2249 19.5973 11.2249 19.4752L11.2045 19.353H11.2249ZM14.6463 18.5587H13.9335C13.9335 18.9864 13.7095 19.2104 13.2614 19.2104C12.8134 19.2104 12.5894 18.9864 12.5894 18.518V17.8459C12.5894 17.3979 12.8134 17.1535 13.2614 17.1535C13.7095 17.1535 13.9335 17.3775 13.9335 17.8052H14.6463V17.7441C14.6463 17.3571 14.5241 17.0517 14.2797 16.8276C14.0353 16.624 13.6891 16.5018 13.2614 16.5018C12.8338 16.5018 12.5079 16.6036 12.2432 16.848C11.9988 17.072 11.8562 17.3979 11.8562 17.7848V18.5791C11.8562 18.966 11.9784 19.2919 12.2432 19.4955C12.4875 19.7195 12.8338 19.8214 13.2614 19.8214C13.6891 19.8214 14.0353 19.7195 14.2797 19.4955C14.5241 19.2715 14.6667 18.966 14.6667 18.5791L14.6463 18.5383V18.5587ZM19.7784 19.7806V17.4997C19.7784 17.1942 19.697 16.9498 19.534 16.7665C19.3711 16.6036 19.1471 16.5018 18.8823 16.5018C18.6176 16.5018 18.3732 16.5832 18.1492 16.7258L17.803 16.9498C17.6604 16.6647 17.416 16.5221 17.0291 16.5221C16.805 16.5221 16.5607 16.5832 16.357 16.7258L16.0719 16.8887V16.5425H15.3387V19.7603H16.0719V17.5404L16.4588 17.296C16.6218 17.2146 16.7439 17.1738 16.8458 17.1738C17.0698 17.1738 17.192 17.3164 17.192 17.5812V19.7603H17.9252V17.5404L18.3121 17.296C18.475 17.2146 18.5972 17.1738 18.699 17.1738C18.9231 17.1738 19.0453 17.3164 19.0453 17.5608V19.7603H19.7988L19.7784 19.7806Z" fill="#F39317"/>
<path d="M21.8556 11.2072C24.9308 11.2072 27.4357 8.72261 27.4357 5.62704C27.4357 2.55184 24.9511 0.046875 21.8556 0.046875C18.7804 0.046875 16.2754 2.53147 16.2754 5.62704C16.2754 8.70224 18.76 11.2072 21.8556 11.2072Z" fill="#F39317"/>
<path d="M21.8556 11.2072C24.9308 11.2072 27.4357 8.72261 27.4357 5.62704C27.4357 2.55184 24.9511 0.046875 21.8556 0.046875C18.7804 0.046875 16.2754 2.53147 16.2754 5.62704C16.2754 8.70224 18.76 11.2072 21.8556 11.2072Z" stroke="white" stroke-width="1.1812"/>
<path d="M23.8318 8.80472V8.15302H21.1028L22.8339 6.40158C23.2005 6.035 23.4652 5.68879 23.6078 5.3833C23.7504 5.07782 23.8318 4.77234 23.8318 4.44649C23.8318 3.93735 23.6893 3.53004 23.3634 3.24492C23.0579 2.93943 22.6099 2.79688 22.0193 2.79688C21.4694 2.79688 21.0214 2.93943 20.6752 3.22455C20.3289 3.50967 20.166 3.89662 20.166 4.38539V4.44649H20.8381C20.8381 4.10027 20.9399 3.85588 21.1436 3.69296C21.3472 3.53004 21.6323 3.42821 21.9989 3.42821C22.3859 3.42821 22.671 3.50967 22.8543 3.69296C23.0376 3.87625 23.1394 4.12064 23.1394 4.44649C23.1394 4.71124 23.0783 4.95563 22.9561 5.17965C22.8339 5.40367 22.6302 5.66842 22.3655 5.9739L20.2678 8.13265V8.78435H23.8115L23.8318 8.80472Z" fill="#FEFEFE"/>
</svg>
