<svg width="17" height="17" viewBox="0 0 17 17" fill="none" xmlns="http://www.w3.org/2000/svg">
<path d="M8.66573 16.3608C13.0604 16.3608 16.5336 12.8167 16.5336 8.49288C16.5336 4.09821 12.9895 0.625 8.66573 0.625C4.27106 0.625 0.797852 4.16909 0.797852 8.49288C0.797852 12.8876 4.34194 16.3608 8.66573 16.3608Z" fill="#F39317"/>
<path d="M8.80752 9.0532C9.30369 9.0532 9.72898 9.19496 10.0125 9.47849C10.296 9.76202 10.4378 10.1164 10.4378 10.6126C10.4378 11.1088 10.296 11.5341 9.94163 11.8176C9.58722 12.1011 9.23281 12.2429 8.66576 12.2429C8.0987 12.2429 7.67341 12.1011 7.319 11.8885C7.03548 11.6049 6.82283 11.2505 6.82283 10.7544H5.90137V10.8252C5.90137 11.5341 6.18489 12.1011 6.68107 12.4555C7.17724 12.8808 7.81518 13.0226 8.66576 13.0226C9.37458 13.0226 10.0125 12.8099 10.5796 12.3846C11.1466 11.9594 11.3593 11.3214 11.3593 10.5417C11.3593 10.2582 11.2884 9.97466 11.2175 9.76202C11.1466 9.54937 11.0049 9.33673 10.934 9.19496C10.7922 9.0532 10.6504 8.91143 10.5087 8.84055C10.3669 8.76967 10.296 8.69879 10.2252 8.62791C10.1543 8.62791 10.1543 8.55703 10.0834 8.55703L10.2252 8.48614C10.296 8.48614 10.4378 8.41526 10.5087 8.2735C10.6504 8.20262 10.7213 8.06085 10.8631 7.91909C11.0049 7.77733 11.0757 7.63556 11.1466 7.35204C11.2175 7.13939 11.2884 6.85586 11.2884 6.64322C11.2884 6.00528 11.0757 5.43823 10.5796 5.01294C10.0834 4.58765 9.51634 4.375 8.66576 4.375C7.88606 4.375 7.319 4.58765 6.82283 4.94205C6.32666 5.29646 6.11401 5.86352 6.11401 6.50145V6.57234H7.03548C7.03548 6.14704 7.17724 5.79264 7.46077 5.57999C7.74429 5.36734 8.16958 5.22558 8.66576 5.22558C9.23281 5.22558 9.58722 5.36734 9.87075 5.57999C10.1543 5.86352 10.296 6.14704 10.296 6.57234C10.296 7.06851 10.1543 7.42292 9.87075 7.70644C9.58722 7.98997 9.23281 8.13174 8.73664 8.13174H7.46077V8.98232H8.80752V9.0532Z" fill="#FEFEFE"/>
</svg>
