<svg width="27" height="29" viewBox="0 0 27 29" fill="none" xmlns="http://www.w3.org/2000/svg">
<path d="M24.0615 25.3284C23.8466 24.6569 23.578 23.9048 23.2288 23.1528C22.8797 22.4007 22.5036 21.6218 22.0739 20.8697C22.0202 20.9772 21.9665 21.0846 21.8859 21.1652C21.8322 21.2726 21.7516 21.3532 21.6979 21.4606C21.6441 21.5681 21.5636 21.6487 21.483 21.7561C21.4024 21.8635 21.3487 21.9441 21.2681 22.0247C21.2681 22.0247 21.2681 22.0247 21.2413 22.0515C21.2413 22.0515 21.2413 22.0515 21.2144 22.0784C21.2144 22.0784 21.2144 22.0784 21.1875 22.1053C21.1875 22.1053 21.1875 22.1053 21.1607 22.1321L21.107 22.2127C21.1607 22.3739 21.2413 22.5887 21.3218 22.8305C21.4024 23.0453 21.483 23.2871 21.5636 23.5288C21.6441 23.7437 21.6979 23.9854 21.7247 24.1466C21.7516 24.3346 21.7516 24.4689 21.671 24.5226C21.6441 24.5494 21.6173 24.5763 21.5904 24.5763C21.5636 24.6032 21.5367 24.6032 21.5099 24.6032C21.483 24.6032 21.4561 24.63 21.4024 24.63C21.3756 24.63 21.3218 24.63 21.295 24.63C21.2413 24.63 21.1607 24.63 21.107 24.6032C21.0264 24.5763 20.9458 24.5763 20.8921 24.5494C20.8115 24.5226 20.7309 24.4957 20.6504 24.4689C20.5698 24.442 20.4623 24.3883 20.3818 24.3346C20.2743 24.2809 20.14 24.2271 20.0057 24.1466C19.8714 24.066 19.7371 24.0123 19.6029 23.9317C19.4686 23.8511 19.3343 23.7705 19.2 23.69C19.0657 23.6094 18.9045 23.5019 18.7702 23.4214C19.3343 22.8573 19.8714 22.2396 20.3818 21.5949C20.8652 20.9503 21.3218 20.252 21.7247 19.5536C22.1276 18.8284 22.4768 18.1032 22.7454 17.3243C23.0408 16.5723 23.2557 15.7934 23.4169 14.9876C23.766 13.2149 23.7392 11.5227 23.4169 10.0455C23.0945 8.56824 22.4768 7.279 21.6173 6.23149C20.7847 5.21084 19.7103 4.40507 18.4479 3.89475C17.2124 3.38442 15.8157 3.16955 14.3116 3.27698C13.3178 3.35756 12.324 3.54558 11.3571 3.86789C10.417 4.1902 9.47694 4.61994 8.59059 5.15713C7.70424 5.69431 6.8716 6.31207 6.09269 7.01041C5.31377 7.70875 4.58858 8.48766 3.94396 9.34716C3.75594 9.02485 3.62165 8.70254 3.51421 8.43395C3.40677 8.16535 3.32619 7.89676 3.27248 7.68189C3.21876 7.46702 3.1919 7.25214 3.21876 7.09099C3.24562 6.92983 3.29933 6.79554 3.37991 6.6881C3.40677 6.66124 3.43363 6.63438 3.48735 6.60752C3.54107 6.58066 3.59479 6.5538 3.6485 6.52694C3.70222 6.50009 3.7828 6.47323 3.83652 6.47323C3.9171 6.44637 3.99767 6.44637 4.07825 6.44637C4.15883 6.44637 4.26627 6.44637 4.34684 6.44637C4.45428 6.47323 4.53486 6.47323 4.64229 6.52694C4.74973 6.5538 4.83031 6.60752 4.93774 6.66124C5.04518 6.71496 5.15262 6.79554 5.2332 6.90297C5.34063 6.79554 5.42121 6.66124 5.52865 6.5538C5.63608 6.44637 5.74352 6.33893 5.85096 6.23149C5.95839 6.12406 6.06583 6.04348 6.20013 5.93604C6.30756 5.82861 6.44186 5.74803 6.57615 5.66745L6.60301 5.64059L6.62987 5.61373L6.65673 5.58687C6.65673 5.58687 6.68359 5.58687 6.68359 5.56001C6.46872 5.372 6.22698 5.18399 5.95839 5.04969C5.71666 4.91539 5.44807 4.80796 5.17948 4.72738C4.91089 4.6468 4.64229 4.59308 4.40056 4.56622C4.13197 4.53937 3.89024 4.53937 3.6485 4.53937C3.48735 4.53937 3.32619 4.56622 3.16504 4.59308C3.00388 4.61994 2.86959 4.67366 2.73529 4.70052C2.601 4.75424 2.49356 4.80796 2.38612 4.86168C2.27869 4.91539 2.19811 4.99597 2.14439 5.04969C1.95638 5.26456 1.82208 5.56001 1.76836 5.88232C1.71464 6.23149 1.7415 6.63438 1.82208 7.09099C1.90266 7.54759 2.06381 8.05792 2.27869 8.5951C2.49356 9.15914 2.76215 9.75004 3.11132 10.3947C2.86959 10.7438 2.65471 11.1199 2.4667 11.4959C2.25183 11.8719 2.06381 12.2479 1.90266 12.6508C1.71464 13.0537 1.58035 13.4298 1.41919 13.8595C1.2849 14.2624 1.1506 14.6921 1.04316 15.095C0.613418 16.7066 0.505981 18.2375 0.640277 19.6611C0.774573 21.1115 1.20432 22.4276 1.84894 23.5825C2.52042 24.7375 3.43363 25.7044 4.56172 26.4296C5.71666 27.1548 7.08648 27.6114 8.64431 27.692C9.10092 27.7188 9.58438 27.7188 10.041 27.692C10.5245 27.6651 10.9811 27.5845 11.4645 27.504C11.948 27.3965 12.4046 27.2891 12.8612 27.1279C13.3178 26.9668 13.8013 26.7788 14.2579 26.5907L13.1567 24.4957C12.8343 24.63 12.512 24.7375 12.1897 24.8449C11.8674 24.9523 11.5451 25.0061 11.1959 25.0866C10.8736 25.1403 10.5513 25.1941 10.2021 25.2209C9.87983 25.2478 9.55752 25.2478 9.23521 25.2209C7.97283 25.1672 6.8716 24.818 5.93153 24.254C5.01832 23.69 4.26626 22.911 3.70222 21.9978C3.16504 21.0846 2.81587 20.0102 2.68157 18.8553C2.54728 17.7004 2.65471 16.438 2.97702 15.1487C3.29934 13.8595 3.86338 12.624 4.56172 11.4959C5.26005 10.3678 6.11955 9.37402 7.08648 8.51452C8.05341 7.65503 9.12778 6.92983 10.2559 6.41951C11.3839 5.90918 12.5926 5.56001 13.8281 5.5063C15.0637 5.42572 16.1917 5.64059 17.1855 6.04348C18.1793 6.47323 19.0388 7.11785 19.7103 7.97734C20.3818 8.83683 20.8652 9.88434 21.107 11.0661C21.3487 12.2748 21.3487 13.6178 21.0532 15.0413C20.919 15.6591 20.7578 16.2768 20.5161 16.8946C20.3012 17.4855 20.0326 18.0764 19.7103 18.6404C19.388 19.2045 19.0388 19.7417 18.6628 20.252C18.2868 20.7623 17.857 21.2458 17.4273 21.7024C17.4273 21.5412 17.4541 21.4069 17.4541 21.2458C17.4541 21.0846 17.481 20.9235 17.481 20.7892C17.481 20.6549 17.481 20.5206 17.5078 20.3863C17.5078 20.2788 17.5078 20.1714 17.5078 20.1177C17.5078 20.064 17.5078 20.0102 17.481 19.9565C17.481 19.9297 17.4541 19.876 17.4273 19.876C17.4004 19.8491 17.4004 19.8491 17.3735 19.8222C17.3467 19.8222 17.3198 19.7954 17.293 19.7954C17.2661 19.7954 17.2392 19.7954 17.2392 19.7954C17.2124 19.7954 17.2124 19.7954 17.1855 19.8222C17.1587 19.8222 17.1587 19.8222 17.1587 19.8491H17.1318L13.2641 21.1115C13.2641 21.1115 13.2372 21.1115 13.1835 21.1383C13.1298 21.1652 13.0761 21.1921 13.0492 21.2458C12.9955 21.2995 12.9686 21.3532 12.9686 21.4338C12.9686 21.5144 12.9686 21.6218 13.0492 21.7561V21.783V21.8098V21.8367V21.8635C13.2104 22.2127 13.479 22.6962 13.7476 23.2333C14.043 23.7705 14.3653 24.3883 14.6876 24.9792C15.0099 25.5701 15.3322 26.161 15.6008 26.6713C15.8694 27.1816 16.1112 27.6114 16.2455 27.88C16.2455 27.9068 16.2723 27.9337 16.2723 27.9337C16.2723 27.9606 16.2992 27.9874 16.2992 27.9874C16.2992 28.0143 16.326 28.0143 16.326 28.0411C16.326 28.068 16.3529 28.068 16.3529 28.0949C16.3798 28.1754 16.4335 28.2292 16.4603 28.256C16.4872 28.3097 16.5409 28.3366 16.5678 28.3634C16.5946 28.3903 16.6215 28.4172 16.6483 28.444C16.6752 28.4709 16.7021 28.4709 16.7289 28.4709C16.7826 28.4709 16.8095 28.4709 16.8632 28.444C16.8901 28.4172 16.9438 28.3634 16.9707 28.3366C16.9975 28.2829 17.0244 28.256 17.0512 28.2023C17.0781 28.1486 17.0781 28.1217 17.0781 28.068C17.0781 28.068 17.0781 28.0411 17.0781 28.0143C17.0781 27.9874 17.0781 27.9606 17.0781 27.9606C17.0781 27.9337 17.0781 27.9068 17.0781 27.88C17.0781 27.8531 17.0781 27.8263 17.0781 27.7725C17.0781 27.6383 17.1049 27.504 17.1049 27.3428C17.1049 27.1816 17.1318 27.0205 17.1318 26.8593C17.1318 26.6982 17.1587 26.5639 17.1587 26.4833C17.1587 26.3759 17.1587 26.3222 17.1587 26.2953C17.6959 26.6176 18.233 26.9131 18.7434 27.2085C19.2805 27.504 19.7909 27.7725 20.2743 27.9874C20.7578 28.2292 21.2413 28.4172 21.671 28.5515C22.1008 28.6858 22.5036 28.7932 22.8528 28.7932C22.9065 28.7932 22.9603 28.7932 22.9871 28.7932C23.0408 28.7932 23.0677 28.7932 23.1214 28.7932C23.1751 28.7932 23.202 28.7932 23.2557 28.7932C23.3094 28.7932 23.3363 28.7932 23.39 28.7663C23.4437 28.7663 23.4974 28.7395 23.578 28.7126C23.6317 28.6858 23.6854 28.6589 23.7392 28.632C23.7929 28.6052 23.8466 28.5783 23.8735 28.5515C23.9272 28.5246 23.954 28.4709 24.0078 28.444C24.2495 28.1754 24.3569 27.7725 24.3569 27.2354C24.3569 26.725 24.2226 26.1073 24.0346 25.4089L24.0615 25.3284Z" fill="#F39317"/>
<path d="M10.1209 12.0874C10.3895 12.0874 10.6312 12.168 10.7924 12.3291C10.9535 12.4903 11.0341 12.7051 11.0341 12.9737C11.0341 13.2692 10.9535 13.4841 10.7655 13.6452C10.5775 13.8064 10.3358 13.8869 10.0672 13.8869C9.39569 13.8869 9.04652 13.5915 9.04652 13.0006H8.05273V13.0812C8.05273 13.6184 8.24075 14.0212 8.58992 14.3167C8.96595 14.6121 9.44941 14.7464 10.0672 14.7464C10.6312 14.7464 11.1147 14.5853 11.4907 14.2898C11.8936 13.9675 12.0816 13.5378 12.0816 12.9737C12.0816 12.7857 12.0548 12.5977 11.9742 12.4365C11.9205 12.2754 11.8399 12.1411 11.7862 12.0337C11.7056 11.9531 11.625 11.8456 11.5444 11.7919C11.437 11.7114 11.3833 11.6845 11.3296 11.6576C11.2758 11.6308 11.249 11.6308 11.2221 11.6308L11.3027 11.6039C11.3564 11.5771 11.4101 11.5233 11.4907 11.4696C11.5713 11.389 11.625 11.3085 11.7056 11.2279C11.7862 11.1473 11.8399 11.013 11.8936 10.8519C11.9473 10.6907 11.9742 10.5295 11.9742 10.3684C11.9742 9.85807 11.813 9.48204 11.4638 9.18659C11.1147 8.89114 10.6581 8.75684 10.0672 8.75684C9.50313 8.75684 9.01966 8.89114 8.6705 9.18659C8.32133 9.48204 8.13331 9.85807 8.13331 10.3684V10.4221H9.10024C9.10024 10.1535 9.18082 9.93865 9.34197 9.80435C9.50313 9.67006 9.74486 9.58948 10.0403 9.58948C10.3626 9.58948 10.5775 9.67006 10.7387 9.80435C10.8998 9.93865 10.9804 10.1535 10.9804 10.3953C10.9804 10.6638 10.8998 10.8787 10.7387 11.0399C10.5775 11.201 10.3626 11.2816 10.094 11.2816H9.10024V12.1411L10.1477 12.168L10.1209 12.0874ZM16.594 14.639V13.7258H14.1766L15.5733 12.356C15.9493 11.9799 16.2179 11.6576 16.3522 11.3622C16.5134 11.0399 16.5671 10.7444 16.5671 10.4221C16.5671 9.88493 16.4059 9.48204 16.0568 9.15973C15.7345 8.86428 15.251 8.70312 14.6601 8.70312C14.0692 8.70312 13.5857 8.86428 13.2366 9.15973C12.8874 9.45518 12.6994 9.88493 12.6994 10.4221V10.4758H13.6932C13.6932 9.88493 14.0155 9.58948 14.6332 9.58948C15.2241 9.58948 15.5196 9.88493 15.5196 10.449C15.5196 10.6638 15.4659 10.8787 15.3584 11.0936C15.251 11.3085 15.0898 11.5233 14.8481 11.7651L12.8068 13.7526V14.6659H16.5671L16.594 14.639Z" fill="#F39317"/>
<path d="M9.47657 19.608V15.2031H8.72451V18.5605L6.97866 15.2031H5.9043V19.608H6.65635V16.2506L8.42906 19.608H9.50343H9.47657ZM10.8732 19.2051C10.8732 19.0977 10.8464 19.0171 10.7658 18.9365C10.6852 18.8828 10.5778 18.856 10.4704 18.856C10.3629 18.856 10.2555 18.8828 10.1749 18.9365C10.0943 18.9903 10.0675 19.0708 10.0675 19.2051V19.3394C10.0675 19.4469 10.1212 19.5275 10.1749 19.608C10.2555 19.6617 10.3629 19.6886 10.4704 19.6886C10.6047 19.6886 10.6852 19.6617 10.7658 19.608C10.8464 19.5543 10.8732 19.4737 10.8732 19.3394V19.2051ZM14.0426 18.4262H13.3443C13.3443 18.8291 13.1294 19.044 12.6728 19.044C12.2431 19.044 12.0282 18.8291 12.0282 18.3725V17.7279C12.0282 17.2713 12.2431 17.0564 12.6728 17.0564C13.1026 17.0564 13.3443 17.2713 13.3443 17.6742H14.0426V17.6205C14.0426 17.2444 13.9352 16.949 13.6666 16.7341C13.4249 16.5192 13.1026 16.4118 12.6728 16.4118C12.2699 16.4118 11.9476 16.5192 11.7059 16.7341C11.4641 16.949 11.3298 17.2444 11.3298 17.6473V18.4262C11.3298 18.8023 11.4641 19.0977 11.7059 19.3126C11.9476 19.5275 12.2699 19.6349 12.6728 19.6349C13.0757 19.6349 13.4249 19.5275 13.6666 19.3394C13.9083 19.1246 14.0426 18.8291 14.0426 18.4531V18.3994V18.4262ZM18.8773 19.608V17.4056C18.8773 17.1101 18.7967 16.8684 18.6355 16.7072C18.4744 16.5461 18.2595 16.4655 17.9909 16.4655C17.7492 16.4655 17.5075 16.5461 17.2657 16.6804L16.9166 16.8953C16.7823 16.6267 16.5405 16.4655 16.1645 16.4655C15.9496 16.4655 15.7079 16.5192 15.5199 16.6535L15.2513 16.8147V16.4924H14.5529V19.608H15.2781V17.4593L15.6542 17.2176C15.8153 17.137 15.9228 17.1101 16.0302 17.1101C16.2451 17.1101 16.3525 17.2444 16.3525 17.4862V19.608H17.0777V17.4593L17.4537 17.2176C17.6149 17.137 17.7223 17.0833 17.8298 17.0833C18.0446 17.0833 18.1521 17.2176 18.1521 17.4593V19.5812H18.8773V19.608Z" fill="#F39317"/>
<path d="M21.0803 11.2818C24.0617 11.2818 26.479 8.86444 26.479 5.88307C26.479 2.9017 24.0617 0.484375 21.0803 0.484375C18.099 0.484375 15.6816 2.9017 15.6816 5.88307C15.6816 8.86444 18.099 11.2818 21.0803 11.2818Z" fill="#F39317"/>
<path d="M21.0803 11.2818C24.0617 11.2818 26.479 8.86443 26.479 5.88307C26.479 2.9017 24.0617 0.484375 21.0803 0.484375C18.099 0.484375 15.6816 2.9017 15.6816 5.88307C15.6816 8.86443 18.099 11.2818 21.0803 11.2818Z" stroke="white" stroke-width="1.08511"/>
<path d="M23.0137 8.97442V8.38352H21.6976V3.22656H21.0261C20.6232 3.60259 20.2203 3.87118 19.8174 3.97862V4.59638C20.2472 4.5158 20.6769 4.30093 21.053 3.9249V8.38352H19.3877V8.97442H23.0405H23.0137Z" fill="#FEFEFE"/>
</svg>
