<svg width="15" height="15" viewBox="0 0 15 15" fill="none" xmlns="http://www.w3.org/2000/svg">
<path d="M7.45277 14.593C11.5301 14.593 14.7337 11.2924 14.7337 7.31215C14.7337 3.23485 11.433 0.03125 7.45277 0.03125C3.37547 0.03125 0.171875 3.33192 0.171875 7.31215C0.171875 11.3895 3.47255 14.593 7.45277 14.593Z" fill="#F39317"/>
<path d="M10.0737 11.4839V10.6102H6.48175L8.71456 8.28029C9.19995 7.7949 9.49119 7.3095 9.68534 6.92119C9.8795 6.53288 9.97658 6.14456 9.97658 5.65917C9.97658 4.97962 9.78242 4.49422 9.39411 4.10591C9.00579 3.71759 8.42332 3.52344 7.64669 3.52344C6.96714 3.52344 6.38467 3.71759 5.89928 4.10591C5.41388 4.49422 5.21973 4.97962 5.21973 5.65917V5.75625H6.09343C6.09343 5.27085 6.19051 4.97962 6.48175 4.78546C6.77299 4.5913 7.1613 4.49422 7.64669 4.49422C8.13209 4.49422 8.5204 4.5913 8.81164 4.88254C9.10287 5.0767 9.19995 5.46501 9.19995 5.85333C9.19995 6.24164 9.10287 6.53288 9.00579 6.82411C8.81164 7.11535 8.61748 7.50366 8.22916 7.89198L5.51096 10.7073V11.581H10.1707L10.0737 11.4839Z" fill="#FEFEFE"/>
</svg>
