<svg width="28" height="30" viewBox="0 0 28 30" fill="none" xmlns="http://www.w3.org/2000/svg">
<path d="M24.5608 25.7654C24.3572 25.073 24.0517 24.2991 23.7055 23.5048C23.3593 22.731 22.9519 21.9367 22.5039 21.1424C22.4428 21.2443 22.3817 21.3461 22.3206 21.4479C22.2595 21.5497 22.1984 21.6516 22.117 21.7534C22.0559 21.8552 21.9744 21.9571 21.9133 22.0385C21.8318 22.1403 21.7707 22.2218 21.6893 22.3236C21.6893 22.3236 21.6893 22.344 21.6689 22.344C21.6689 22.344 21.6689 22.3644 21.6486 22.3644L21.6282 22.3847L21.6078 22.4051L21.5467 22.4866C21.6078 22.6699 21.6893 22.8735 21.7707 23.1179C21.8522 23.3419 21.954 23.6067 22.0355 23.8307C22.117 24.0751 22.1781 24.2991 22.1984 24.462C22.2188 24.6453 22.2188 24.7879 22.1577 24.849C22.1373 24.8693 22.117 24.8897 22.0762 24.9101C22.0559 24.9304 22.0151 24.9304 21.9948 24.9508C21.954 24.9508 21.9337 24.9712 21.8929 24.9712C21.8522 24.9712 21.8115 24.9712 21.7707 24.9712C21.7096 24.9712 21.6282 24.9508 21.5671 24.9508C21.4856 24.9304 21.4042 24.9101 21.3227 24.8897C21.2412 24.8693 21.1598 24.8286 21.0579 24.7879C20.9765 24.7471 20.8747 24.7064 20.7728 24.6657C20.6506 24.6046 20.5284 24.5435 20.3859 24.4824C20.2637 24.4213 20.1211 24.3398 19.9786 24.2584C19.836 24.1769 19.6935 24.0954 19.5509 24.014C19.4083 23.9325 19.2658 23.8307 19.1029 23.7492C19.6935 23.1586 20.2433 22.5273 20.7525 21.8552C21.2616 21.1832 21.73 20.4704 22.1373 19.7372C22.5446 19.0041 22.8908 18.2302 23.1963 17.4563C23.4814 16.662 23.7258 15.8678 23.8888 15.0531C24.2553 13.2202 24.235 11.4892 23.8888 9.94137C23.5629 8.43432 22.9112 7.09019 22.0355 6.01082C21.1598 4.95181 20.06 4.11682 18.777 3.60768C17.5143 3.09854 16.0684 2.85416 14.5002 2.97635C13.4616 3.03745 12.4433 3.26147 11.4658 3.58732C10.4882 3.91317 9.53104 4.36121 8.61458 4.91108C7.69813 5.46095 6.84278 6.09228 6.02816 6.82544C5.21353 7.5586 4.48037 8.35286 3.80831 9.22858C3.62502 8.88236 3.48246 8.57688 3.36027 8.29176C3.23807 8.00665 3.15661 7.74189 3.09551 7.51787C3.03442 7.29385 3.01405 7.09019 3.03442 6.92727C3.05478 6.76435 3.09551 6.62179 3.19734 6.51996C3.21771 6.47923 3.25844 6.45886 3.31954 6.41813C3.36027 6.39777 3.42136 6.35703 3.48246 6.33667C3.54356 6.3163 3.60465 6.29594 3.68612 6.27557C3.76758 6.25521 3.84904 6.25521 3.9305 6.23484C4.01197 6.23484 4.11379 6.23484 4.21562 6.23484C4.31745 6.25521 4.41928 6.27557 4.5211 6.3163C4.62293 6.35703 4.72476 6.39777 4.82659 6.45886C4.92842 6.51996 5.03024 6.60142 5.13207 6.70325C5.2339 6.58106 5.33573 6.45886 5.43756 6.35703C5.53938 6.23484 5.66158 6.13301 5.7634 6.03119C5.8856 5.92936 5.98743 5.82753 6.12998 5.7257C6.25218 5.62387 6.37437 5.54241 6.51693 5.44058C6.5373 5.44058 6.5373 5.42022 6.55766 5.42022C6.57803 5.42022 6.57803 5.39985 6.59839 5.39985C6.59839 5.39985 6.61876 5.37949 6.63912 5.37949C6.63912 5.37949 6.65949 5.35912 6.67985 5.35912C6.45583 5.15547 6.19108 4.97218 5.92633 4.82962C5.66158 4.68706 5.39682 4.58523 5.13207 4.50377C4.86732 4.42231 4.5822 4.36121 4.31745 4.34084C4.0527 4.32048 3.78794 4.30011 3.54356 4.32048C3.38063 4.34084 3.19734 4.36121 3.05478 4.38157C2.89186 4.4223 2.7493 4.46304 2.62711 4.50377C2.50491 4.5445 2.38272 4.6056 2.28089 4.66669C2.17906 4.72779 2.0976 4.78888 2.01614 4.87035C1.81248 5.09437 1.69029 5.37949 1.62919 5.74607C1.5681 6.09228 1.58846 6.51996 1.69029 6.98837C1.77175 7.45678 1.93468 7.98628 2.1587 8.55652C2.38272 9.12675 2.66784 9.73772 3.01405 10.4098C2.76967 10.7764 2.54564 11.1633 2.34199 11.5503C2.13833 11.9372 1.93468 12.3241 1.75139 12.7315C1.5681 13.1388 1.40517 13.5461 1.26261 13.9738C1.12005 14.4014 0.977496 14.8291 0.875668 15.2568C0.447991 16.9064 0.305432 18.4949 0.447991 19.9612C0.59055 21.4479 1.01823 22.8124 1.69029 23.9936C2.38272 25.1952 3.31954 26.1931 4.48037 26.9263C5.66158 27.6798 7.08717 28.1278 8.69605 28.2297C9.16445 28.25 9.65323 28.25 10.142 28.2093C10.6308 28.1686 11.1195 28.1075 11.588 28.0056C12.0767 27.9038 12.5655 27.7816 13.0339 27.6187C13.5227 27.4558 13.9911 27.2725 14.4595 27.0485L13.319 24.8897C12.9932 25.0323 12.647 25.1341 12.3211 25.2359C11.9749 25.3377 11.6491 25.4192 11.3028 25.4803C10.9566 25.5414 10.6308 25.5821 10.2846 25.6025C9.93835 25.6229 9.6125 25.6229 9.26628 25.6229C7.96289 25.5618 6.82241 25.2156 5.86523 24.625C4.90805 24.0547 4.13416 23.2605 3.58429 22.3033C3.01405 21.3665 2.66784 20.2464 2.54564 19.0448C2.42345 17.8636 2.50491 16.5602 2.85113 15.2161C3.19734 13.8719 3.74721 12.6093 4.48037 11.4484C5.19317 10.2876 6.08925 9.24894 7.0668 8.35286C8.06471 7.45677 9.16445 6.72361 10.3457 6.19411C11.5269 5.6646 12.7692 5.31839 14.0115 5.25729C15.2741 5.17583 16.435 5.37949 17.4532 5.82753C18.4919 6.27557 19.3676 6.94764 20.06 7.82336C20.7525 8.69907 21.2616 9.77845 21.506 11.0004C21.7504 12.2427 21.7504 13.6275 21.4653 15.0939C21.3431 15.7456 21.1394 16.3769 20.9154 16.9879C20.6914 17.5988 20.4062 18.2098 20.0804 18.78C19.7546 19.3503 19.4083 19.9205 19.001 20.45C18.6141 20.9795 18.166 21.4683 17.718 21.9367C17.718 21.7738 17.7384 21.6108 17.7384 21.4683C17.7384 21.3054 17.7587 21.1424 17.7587 20.9999C17.7587 20.8573 17.7791 20.7148 17.7791 20.5926C17.7791 20.4704 17.7791 20.3889 17.7791 20.3074C17.7791 20.2464 17.7791 20.1853 17.7587 20.1445C17.7384 20.1038 17.7384 20.0834 17.718 20.0427C17.6976 20.0223 17.6773 20.002 17.6569 20.002C17.6365 20.002 17.6162 19.9816 17.5754 19.9816C17.5551 19.9816 17.5347 19.9816 17.5143 19.9816C17.494 19.9816 17.4736 19.9816 17.4532 20.002C17.4329 20.002 17.4329 20.0223 17.4125 20.0223H17.3921L13.4005 21.3257C13.4005 21.3257 13.3598 21.3461 13.319 21.3665C13.2783 21.3868 13.2172 21.4276 13.1765 21.4683C13.1357 21.509 13.095 21.5905 13.095 21.6719C13.095 21.7534 13.1154 21.8756 13.1765 21.9978C13.1765 21.9978 13.1765 22.0182 13.1968 22.0182C13.1968 22.0182 13.1968 22.0385 13.2172 22.0385C13.2172 22.0385 13.2172 22.0589 13.2376 22.0589C13.2376 22.0589 13.2376 22.0793 13.2579 22.0793C13.4412 22.4458 13.6856 22.9346 13.9911 23.4845C14.2762 24.0343 14.6224 24.6657 14.9483 25.2766C15.2741 25.8876 15.6 26.4986 15.8851 27.0281C16.1702 27.5576 16.4146 27.9853 16.5572 28.2704C16.5775 28.2908 16.5775 28.3111 16.5979 28.3315C16.6183 28.3518 16.6183 28.3722 16.6386 28.3926C16.6386 28.4129 16.659 28.4333 16.659 28.4537C16.659 28.474 16.6793 28.474 16.6793 28.4944C16.7201 28.5555 16.7608 28.6166 16.7812 28.6777C16.8219 28.7184 16.8423 28.7592 16.883 28.7999C16.9237 28.8203 16.9441 28.861 16.9848 28.861C17.0052 28.8814 17.0459 28.8814 17.0663 28.8814C17.107 28.8814 17.1681 28.861 17.2089 28.8406C17.2496 28.8203 17.2903 28.7795 17.3107 28.7184C17.331 28.6777 17.3718 28.6166 17.3718 28.5759C17.3921 28.5351 17.3921 28.474 17.4125 28.4537C17.4125 28.4333 17.4125 28.4333 17.4125 28.4129C17.4125 28.3926 17.4125 28.3722 17.4125 28.3518C17.4125 28.3315 17.4125 28.2908 17.4125 28.2704C17.4125 28.2297 17.4125 28.2093 17.4125 28.1686C17.4125 28.026 17.4329 27.8834 17.4329 27.7205C17.4329 27.5576 17.4532 27.3947 17.4532 27.2317C17.4532 27.0688 17.4736 26.9466 17.4736 26.8448C17.4736 26.743 17.4736 26.6819 17.4736 26.6615C18.0235 26.9874 18.5733 27.3132 19.1029 27.5983C19.6527 27.9038 20.1822 28.1686 20.6914 28.4129C21.2005 28.6573 21.6893 28.861 22.1373 29.0035C22.5854 29.1461 23.013 29.2479 23.3796 29.2683C23.4204 29.2683 23.4815 29.2683 23.5222 29.2683C23.5629 29.2683 23.624 29.2683 23.6647 29.2683C23.7055 29.2683 23.7462 29.2683 23.8073 29.2479C23.848 29.2479 23.8888 29.2276 23.9295 29.2276C23.9906 29.2072 24.0517 29.2072 24.1128 29.1868C24.1739 29.1665 24.235 29.1461 24.2757 29.1257C24.3368 29.1054 24.3775 29.0646 24.4183 29.0443C24.459 29.0035 24.4997 28.9628 24.5405 28.9221C24.8052 28.6573 24.907 28.2297 24.907 27.6798C24.907 27.1503 24.7848 26.4986 24.5608 25.8062V25.7654Z" fill="#F39317"/>
<path d="M12.1183 14.7958V13.859H10.7946V8.72683H9.81701C9.4097 9.11377 8.96166 9.37853 8.47288 9.50072V10.4579C8.71727 10.4172 8.94129 10.3357 9.18568 10.2135C9.43007 10.0913 9.61336 9.96913 9.75591 9.82657V13.8386H8.08594V14.7754H12.1183V14.7958ZM17.0672 10.4783C17.0672 9.9284 16.8839 9.48035 16.4969 9.13414C16.11 8.80829 15.6212 8.625 15.0102 8.625C14.3993 8.625 13.8901 8.78792 13.5235 9.11377C13.1366 9.43962 12.9533 9.88767 12.9533 10.4375V13.024C12.9533 13.5738 13.1366 14.0219 13.5235 14.3477C13.9105 14.6736 14.3993 14.8365 15.0102 14.8365C15.6212 14.8365 16.11 14.6736 16.4969 14.3274C16.8839 14.0015 17.0672 13.5535 17.0672 12.9832V10.4375V10.4783ZM16.0285 12.9425C16.0285 13.2683 15.947 13.5127 15.7638 13.696C15.5805 13.8793 15.3361 13.9608 15.0306 13.9608C14.7047 13.9608 14.4604 13.8793 14.2974 13.696C14.1141 13.5127 14.0327 13.2683 14.0327 12.9425V10.519C14.0327 10.1931 14.1141 9.94876 14.2974 9.76547C14.4807 9.58218 14.7251 9.50072 15.051 9.50072C15.3768 9.50072 15.6212 9.58218 15.8045 9.76547C15.9878 9.94876 16.0692 10.1931 16.0692 10.519L16.0489 12.9425H16.0285Z" fill="#F39317"/>
<path d="M9.28675 19.8822V15.3203H8.51286V18.7825L6.72069 15.3203H5.60059V19.8822H6.37448V16.4201L8.18701 19.8822H9.28675ZM10.8753 19.4545C10.8753 19.3323 10.8345 19.2509 10.7531 19.1898C10.6716 19.1287 10.5698 19.1083 10.4476 19.1083C10.3254 19.1083 10.2236 19.149 10.1421 19.1898C10.0606 19.2509 10.0199 19.3323 10.0199 19.4545V19.5767C10.0199 19.6989 10.0606 19.7804 10.1421 19.8415C10.2236 19.9026 10.3254 19.9433 10.4476 19.9433C10.5698 19.9433 10.6716 19.9026 10.7531 19.8415C10.8345 19.7804 10.8753 19.6989 10.8753 19.5767L10.8549 19.4545H10.8753ZM14.2967 18.6603H13.5839C13.5839 19.0879 13.3599 19.312 12.9118 19.312C12.4638 19.312 12.2398 19.0879 12.2398 18.6195V17.9475C12.2398 17.4994 12.4638 17.255 12.9118 17.255C13.3599 17.255 13.5839 17.4791 13.5839 17.9067H14.2967V17.8456C14.2967 17.4587 14.1745 17.1532 13.9301 16.9292C13.6857 16.7255 13.3395 16.6033 12.9118 16.6033C12.4841 16.6033 12.1583 16.7052 11.8935 16.9496C11.6492 17.1736 11.5066 17.4994 11.5066 17.8864V18.6806C11.5066 19.0676 11.6288 19.3934 11.8935 19.5971C12.1379 19.8211 12.4841 19.9229 12.9118 19.9229C13.3395 19.9229 13.6857 19.8211 13.9301 19.5971C14.1745 19.3731 14.317 19.0676 14.317 18.6806L14.2967 18.6399V18.6603ZM19.4288 19.8822V17.6013C19.4288 17.2958 19.3473 17.0514 19.1844 16.8681C19.0215 16.7052 18.7975 16.6033 18.5327 16.6033C18.268 16.6033 18.0236 16.6848 17.7996 16.8274L17.4533 17.0514C17.3108 16.7663 17.0664 16.6237 16.6795 16.6237C16.4554 16.6237 16.211 16.6848 16.0074 16.8274L15.7223 16.9903V16.6441H14.9891V19.8618H15.7223V17.642L16.1092 17.3976C16.2721 17.3161 16.3943 17.2754 16.4962 17.2754C16.7202 17.2754 16.8424 17.418 16.8424 17.6827V19.8618H17.5755V17.642L17.9625 17.3976C18.1254 17.3161 18.2476 17.2754 18.3494 17.2754C18.5735 17.2754 18.6956 17.418 18.6956 17.6624V19.8618H19.4492L19.4288 19.8822Z" fill="#F39317"/>
<path d="M21.5059 11.3088C24.5811 11.3088 27.0861 8.82417 27.0861 5.7286C27.0861 2.6534 24.6015 0.148438 21.5059 0.148438C18.4307 0.148438 15.9258 2.63304 15.9258 5.7286C15.9258 8.8038 18.4104 11.3088 21.5059 11.3088Z" fill="#F39317"/>
<path d="M21.5059 11.3088C24.5811 11.3088 27.0861 8.82417 27.0861 5.7286C27.0861 2.6534 24.6015 0.148438 21.5059 0.148438C18.4307 0.148438 15.9258 2.63304 15.9258 5.7286C15.9258 8.8038 18.4104 11.3088 21.5059 11.3088Z" stroke="white" stroke-width="1.1812"/>
<path d="M23.4822 8.90628V8.25458H20.7532L22.4843 6.50314C22.8509 6.13656 23.1156 5.79035 23.2582 5.48486C23.4007 5.17938 23.4822 4.8739 23.4822 4.54805C23.4822 4.03891 23.3397 3.6316 23.0138 3.34648C22.7083 3.041 22.2603 2.89844 21.6697 2.89844C21.1198 2.89844 20.6718 3.041 20.3255 3.32611C19.9793 3.61123 19.8164 3.99818 19.8164 4.48695V4.54805H20.4885C20.4885 4.20183 20.5903 3.95745 20.794 3.79452C20.9976 3.6316 21.2827 3.52977 21.6493 3.52977C22.0363 3.52977 22.3214 3.61123 22.5047 3.79452C22.688 3.97781 22.7898 4.2222 22.7898 4.54805C22.7898 4.8128 22.7287 5.05719 22.6065 5.28121C22.4843 5.50523 22.2806 5.76998 22.0159 6.07547L19.9182 8.23422V8.88592H23.4618L23.4822 8.90628Z" fill="#FEFEFE"/>
</svg>
