<svg width="16" height="15" viewBox="0 0 16 15" fill="none" xmlns="http://www.w3.org/2000/svg">
<path d="M9.11686 5.37057C9.11686 5.25053 9.06918 5.13541 8.9843 5.05053C8.89942 4.96565 8.7843 4.91797 8.66426 4.91797C8.54422 4.91797 8.4291 4.96565 8.34422 5.05053C8.25934 5.13541 8.21166 5.25053 8.21166 5.37057V6.72838H6.85385C6.73381 6.72838 6.61869 6.77607 6.53381 6.86095C6.44893 6.94582 6.40125 7.06095 6.40125 7.18098C6.40125 7.30102 6.44893 7.41614 6.53381 7.50102C6.61869 7.5859 6.73381 7.63359 6.85385 7.63359H8.21166V8.9914C8.21166 9.11143 8.25934 9.22656 8.34422 9.31143C8.4291 9.39631 8.54422 9.444 8.66426 9.444C8.7843 9.444 8.89942 9.39631 8.9843 9.31143C9.06918 9.22656 9.11686 9.11143 9.11686 8.9914V7.63359H10.4747C10.5947 7.63359 10.7098 7.5859 10.7947 7.50102C10.8796 7.41614 10.9273 7.30102 10.9273 7.18098C10.9273 7.06095 10.8796 6.94582 10.7947 6.86095C10.7098 6.77607 10.5947 6.72838 10.4747 6.72838H9.11686V5.37057Z" fill="#363330"/>
<path d="M1.42257 1.29688C1.30254 1.29688 1.18741 1.34456 1.10254 1.42944C1.01766 1.51432 0.969971 1.62944 0.969971 1.74948C0.969971 1.86952 1.01766 1.98464 1.10254 2.06952C1.18741 2.1544 1.30254 2.20208 1.42257 2.20208H2.42735L2.79034 3.65675L4.14634 10.8848C4.16575 10.9885 4.2208 11.0822 4.30195 11.1496C4.38311 11.2171 4.48528 11.254 4.59079 11.2541H5.496C5.01585 11.2541 4.55536 11.4449 4.21585 11.7844C3.87633 12.1239 3.68559 12.5844 3.68559 13.0646C3.68559 13.5447 3.87633 14.0052 4.21585 14.3447C4.55536 14.6842 5.01585 14.875 5.496 14.875C5.97615 14.875 6.43664 14.6842 6.77616 14.3447C7.11567 14.0052 7.30641 13.5447 7.30641 13.0646C7.30641 12.5844 7.11567 12.1239 6.77616 11.7844C6.43664 11.4449 5.97615 11.2541 5.496 11.2541H11.8324C11.3523 11.2541 10.8918 11.4449 10.5523 11.7844C10.2128 12.1239 10.022 12.5844 10.022 13.0646C10.022 13.5447 10.2128 14.0052 10.5523 14.3447C10.8918 14.6842 11.3523 14.875 11.8324 14.875C12.3126 14.875 12.7731 14.6842 13.1126 14.3447C13.4521 14.0052 13.6429 13.5447 13.6429 13.0646C13.6429 12.5844 13.4521 12.1239 13.1126 11.7844C12.7731 11.4449 12.3126 11.2541 11.8324 11.2541H12.7376C12.8432 11.254 12.9453 11.2171 13.0265 11.1496C13.1076 11.0822 13.1627 10.9885 13.1821 10.8848L14.5399 3.64317C14.5521 3.57785 14.5498 3.51063 14.5332 3.4463C14.5165 3.38197 14.4858 3.3221 14.4434 3.27095C14.401 3.2198 14.3478 3.17862 14.2877 3.15033C14.2275 3.12204 14.1619 3.10735 14.0955 3.10729H3.58602L3.21941 1.63995C3.19498 1.54199 3.13849 1.45501 3.05894 1.39285C2.97939 1.33069 2.88134 1.2969 2.78038 1.29688H1.42257ZM4.96646 10.3489L3.77792 4.01249H13.5505L12.362 10.3489H4.96646ZM6.40121 13.0646C6.40121 13.3046 6.30584 13.5349 6.13608 13.7046C5.96632 13.8744 5.73608 13.9698 5.496 13.9698C5.25593 13.9698 5.02568 13.8744 4.85592 13.7046C4.68616 13.5349 4.59079 13.3046 4.59079 13.0646C4.59079 12.8245 4.68616 12.5942 4.85592 12.4245C5.02568 12.2547 5.25593 12.1593 5.496 12.1593C5.73608 12.1593 5.96632 12.2547 6.13608 12.4245C6.30584 12.5942 6.40121 12.8245 6.40121 13.0646ZM12.7376 13.0646C12.7376 13.3046 12.6423 13.5349 12.4725 13.7046C12.3028 13.8744 12.0725 13.9698 11.8324 13.9698C11.5924 13.9698 11.3621 13.8744 11.1924 13.7046C11.0226 13.5349 10.9272 13.3046 10.9272 13.0646C10.9272 12.8245 11.0226 12.5942 11.1924 12.4245C11.3621 12.2547 11.5924 12.1593 11.8324 12.1593C12.0725 12.1593 12.3028 12.2547 12.4725 12.4245C12.6423 12.5942 12.7376 12.8245 12.7376 13.0646Z" fill="#363330"/>
</svg>
