<svg width="31" height="34" viewBox="0 0 31 34" fill="none" xmlns="http://www.w3.org/2000/svg">
<path d="M27.3159 29.2785C27.0795 28.5049 26.7571 27.6454 26.3703 26.7858C25.9835 25.9263 25.5323 25.0452 25.038 24.1642C24.9736 24.2716 24.9091 24.4006 24.8231 24.508C24.7587 24.6154 24.6727 24.7444 24.6083 24.8518C24.5223 24.9593 24.4578 25.0667 24.3719 25.1742C24.2859 25.2816 24.2 25.389 24.114 25.4965L24.0925 25.518L24.071 25.5395L24.0495 25.561L24.0281 25.5824L23.9421 25.6684C24.0066 25.8618 24.0925 26.0982 24.2 26.356C24.2859 26.6139 24.3934 26.8933 24.4793 27.1511C24.5653 27.409 24.6297 27.6669 24.6512 27.8603C24.6727 28.0537 24.6727 28.2256 24.5868 28.29C24.5653 28.3115 24.5438 28.333 24.5008 28.3545C24.4793 28.376 24.4363 28.3975 24.3934 28.3975C24.3504 28.419 24.3289 28.419 24.2859 28.419C24.2429 28.419 24.2 28.419 24.157 28.419C24.0925 28.419 24.0066 28.3975 23.9206 28.3975C23.8347 28.376 23.7487 28.3545 23.6627 28.333C23.5768 28.3115 23.4693 28.2686 23.3834 28.2256C23.2759 28.1826 23.1685 28.1396 23.0611 28.0966C22.9321 28.0322 22.7817 27.9677 22.6313 27.8818C22.4809 27.7958 22.3304 27.7098 22.18 27.6239C22.0296 27.5379 21.8577 27.452 21.7073 27.3445C21.5353 27.2371 21.3849 27.1511 21.213 27.0437C21.8577 26.399 22.4809 25.6899 23.0396 24.9593C23.5983 24.2072 24.114 23.4336 24.5653 22.617C25.0165 21.8004 25.4033 20.9623 25.7257 20.0813C26.048 19.2217 26.3059 18.3192 26.4778 17.4167C26.8861 15.3752 26.8646 13.4627 26.4778 11.7651C26.1125 10.089 25.4033 8.60622 24.4149 7.42433C23.4479 6.24244 22.223 5.33991 20.8047 4.75971C19.4079 4.17951 17.7963 3.94313 16.0772 4.05057C14.9383 4.13653 13.7993 4.37291 12.7034 4.73822C11.6075 5.10353 10.5545 5.59777 9.54454 6.19946C8.53456 6.80115 7.56756 7.51028 6.68652 8.32686C5.78399 9.12195 4.96741 10.0245 4.2153 10.9915C4.0219 10.6262 3.84999 10.2609 3.72105 9.96002C3.59212 9.63768 3.48467 9.35833 3.4417 9.10046C3.37723 8.8426 3.35574 8.62771 3.37723 8.43431C3.39872 8.24091 3.46319 8.09048 3.54914 7.98304C3.57063 7.94006 3.61361 7.91857 3.67807 7.8756C3.72105 7.83262 3.78552 7.81113 3.84999 7.78964C3.91445 7.76815 4.00041 7.74666 4.08636 7.72517C4.17232 7.70368 4.25827 7.70368 4.34423 7.6822C4.45167 7.6822 4.55912 7.6822 4.66656 7.70368C4.77401 7.72517 4.88145 7.74666 5.01039 7.78964C5.11783 7.83262 5.24676 7.8756 5.35421 7.96155C5.46165 8.02602 5.59059 8.11197 5.69803 8.21942C5.80548 8.09048 5.93441 7.96155 6.04185 7.83262C6.17079 7.70368 6.27823 7.59624 6.40716 7.46731C6.5361 7.35986 6.66503 7.23093 6.79396 7.12348C6.9229 7.01604 7.07332 6.9086 7.22374 6.80115C7.24523 6.80115 7.24523 6.77966 7.26672 6.77966C7.28821 6.77966 7.28821 6.75817 7.3097 6.75817C7.33119 6.75817 7.33119 6.73668 7.35268 6.73668C7.37416 6.73668 7.37416 6.7152 7.39565 6.7152C7.13779 6.47882 6.85843 6.28542 6.57907 6.135C6.29972 5.98457 5.99888 5.85564 5.69803 5.76968C5.39719 5.68373 5.09634 5.61926 4.7955 5.59777C4.49465 5.57628 4.2153 5.5548 3.93594 5.57628C3.74254 5.59777 3.57063 5.61926 3.39872 5.64075C3.22681 5.68373 3.07639 5.72671 2.92596 5.76968C2.77554 5.81266 2.64661 5.87713 2.53916 5.96308C2.43172 6.02755 2.32427 6.11351 2.25981 6.19946C2.02343 6.45733 1.8945 6.77966 1.83003 7.16646C1.76556 7.55326 1.78705 8.02602 1.8945 8.54175C2.00194 9.05748 2.17385 9.63768 2.41023 10.2824C2.6681 10.9055 2.96894 11.5932 3.37723 12.3238C3.11936 12.7321 2.8615 13.1404 2.62512 13.5702C2.38874 13.9999 2.17385 14.4297 1.98045 14.881C1.78705 15.3322 1.59365 15.7835 1.44323 16.2563C1.27132 16.729 1.14239 17.2018 1.01345 17.6745C0.540696 19.5011 0.390274 21.2632 0.540696 22.8963C0.691118 24.551 1.16387 26.0552 1.91599 27.366C2.6681 28.6983 3.72105 29.7943 5.01039 30.6108C6.32121 31.4274 7.8899 31.9432 9.67348 32.0506C10.2107 32.0721 10.7264 32.0721 11.2637 32.0291C11.8009 31.9861 12.3381 31.9217 12.8753 31.8142C13.4125 31.7068 13.9498 31.5564 14.487 31.3844C15.0242 31.2125 15.5399 30.9976 16.0772 30.7613L14.8093 28.376C14.444 28.5264 14.0787 28.6554 13.6919 28.7628C13.3266 28.8702 12.9398 28.9562 12.5745 29.0207C12.2092 29.0851 11.8224 29.1281 11.4571 29.1711C11.0917 29.1926 10.7049 29.1926 10.3396 29.1926C8.89988 29.1281 7.63203 28.7413 6.57907 28.0966C5.52612 27.452 4.66656 26.5709 4.04339 25.518C3.42021 24.465 3.03341 23.2402 2.88299 21.9078C2.73256 20.597 2.84001 19.1573 3.22681 17.6745C3.61361 16.1918 4.23679 14.795 5.03187 13.5057C5.82696 12.2378 6.81545 11.0774 7.91139 10.089C9.00732 9.10046 10.2322 8.28388 11.5215 7.6822C12.8323 7.08051 14.2076 6.7152 15.5829 6.62924C16.9797 6.54328 18.269 6.77966 19.4079 7.25242C20.5469 7.74666 21.5353 8.49877 22.2875 9.44428C23.0611 10.4113 23.6198 11.6147 23.8991 12.9685C24.1785 14.3438 24.1785 15.8695 23.8561 17.5026C23.7057 18.2118 23.5123 18.9209 23.2545 19.6085C22.9966 20.2962 22.6957 20.9623 22.3304 21.607C21.9866 22.2517 21.5783 22.8748 21.1271 23.455C20.6973 24.0352 20.203 24.594 19.7088 25.1097C19.7088 24.9378 19.7303 24.7659 19.7303 24.5725C19.7303 24.4006 19.7518 24.2072 19.7518 24.0567C19.7518 23.8848 19.7733 23.7344 19.7733 23.6055C19.7733 23.4765 19.7733 23.3691 19.7733 23.3046C19.7733 23.2402 19.7733 23.1757 19.7518 23.1327C19.7303 23.0897 19.7303 23.0468 19.7088 23.0253C19.6873 23.0038 19.6658 22.9823 19.6443 22.9823C19.6228 22.9608 19.5799 22.9608 19.5584 22.9608C19.5369 22.9608 19.5154 22.9608 19.4939 22.9608C19.4724 22.9608 19.4509 22.9608 19.4294 22.9823C19.4079 22.9823 19.4079 23.0038 19.3865 23.0038H19.365L14.9383 24.4435C14.9383 24.4435 14.8953 24.465 14.8523 24.4865C14.8093 24.508 14.7449 24.551 14.7019 24.594C14.6589 24.6584 14.6159 24.7229 14.5944 24.8088C14.5944 24.8948 14.6159 25.0237 14.6804 25.1742C14.6804 25.1742 14.6804 25.1956 14.7019 25.1956C14.7019 25.1956 14.7019 25.2171 14.7234 25.2171C14.7234 25.2171 14.7234 25.2386 14.7449 25.2386C14.7449 25.2386 14.7449 25.2601 14.7663 25.2601C14.9597 25.6684 15.2391 26.2056 15.5829 26.8073C15.9053 27.4305 16.2706 28.1181 16.6359 28.7843C17.0012 29.4719 17.3665 30.1381 17.6888 30.7183C18.0112 31.2985 18.269 31.7927 18.4409 32.0936C18.4624 32.1151 18.4624 32.1366 18.4839 32.1795C18.5054 32.201 18.5054 32.2225 18.5269 32.244C18.5484 32.2655 18.5484 32.287 18.5484 32.3085C18.5484 32.33 18.5699 32.3514 18.5699 32.3514C18.6129 32.4374 18.6558 32.5019 18.6988 32.5448C18.7418 32.6093 18.7848 32.6523 18.8063 32.6738C18.8492 32.7168 18.8707 32.7382 18.9137 32.7597C18.9567 32.7812 18.9782 32.7812 18.9997 32.7812C19.0641 32.7812 19.1071 32.7597 19.1501 32.7382C19.1931 32.7168 19.236 32.6523 19.2575 32.6093C19.279 32.5663 19.322 32.5019 19.3435 32.4589C19.365 32.4159 19.365 32.3514 19.3865 32.3085C19.3865 32.287 19.3865 32.287 19.3865 32.2655C19.3865 32.244 19.3865 32.2225 19.3865 32.1795C19.3865 32.158 19.3865 32.1151 19.3865 32.0936C19.3865 32.0506 19.3865 32.0291 19.3865 31.9861C19.3865 31.8357 19.4079 31.6638 19.4079 31.4919C19.4079 31.32 19.4294 31.1266 19.4294 30.9547C19.4294 30.7828 19.4509 30.6323 19.4509 30.5249C19.4509 30.4174 19.4724 30.3315 19.4724 30.3315C20.0741 30.6968 20.6973 31.0406 21.2775 31.3844C21.8792 31.7068 22.4594 32.0291 23.0396 32.287C23.5983 32.5448 24.157 32.7812 24.6512 32.9316C25.1455 33.1036 25.6182 33.1895 26.005 33.2325C26.0695 33.2325 26.1125 33.2325 26.1769 33.2325C26.2199 33.2325 26.2844 33.2325 26.3274 33.2325C26.3703 33.2325 26.4348 33.2325 26.4778 33.211C26.5208 33.211 26.5637 33.1895 26.6282 33.1895C26.6927 33.168 26.7571 33.168 26.8216 33.1465C26.8861 33.125 26.9505 33.1036 27.015 33.0606C27.0795 33.0391 27.1225 32.9961 27.1869 32.9531C27.2299 32.9102 27.2944 32.8672 27.3373 32.8242C27.6167 32.5234 27.7456 32.0506 27.7456 31.4489C27.7456 30.8687 27.5952 30.1596 27.3803 29.3645L27.3159 29.2785Z" fill="#929392"/>
<path d="M11.3065 14.1727C11.6289 14.1727 11.8652 14.2586 12.0586 14.4306C12.252 14.6025 12.338 14.8388 12.338 15.1612C12.338 15.4835 12.2306 15.7414 12.0372 15.9133C11.8223 16.0852 11.5644 16.1926 11.2206 16.1926C10.447 16.1926 10.0602 15.8488 10.0602 15.1827H8.92126V15.2686C8.92126 15.8918 9.13615 16.3646 9.54444 16.6869C9.95273 17.0307 10.5114 17.1811 11.2206 17.1811C11.8652 17.1811 12.4025 17.0092 12.8537 16.6439C13.305 16.3001 13.5199 15.7844 13.5199 15.1612C13.5199 14.9463 13.4769 14.7314 13.4124 14.538C13.348 14.3446 13.262 14.1942 13.1976 14.0867C13.1116 13.9793 13.0256 13.8718 12.9182 13.8074C12.8108 13.7214 12.7248 13.6784 12.6818 13.657C12.6388 13.6355 12.5959 13.614 12.5744 13.614L12.6603 13.571C12.7248 13.5495 12.7893 13.485 12.8752 13.3991C12.9612 13.3131 13.0471 13.2272 13.1116 13.1197C13.1976 13.0123 13.262 12.8619 13.3265 12.69C13.391 12.518 13.4124 12.3246 13.4124 12.1312C13.4124 11.551 13.219 11.0998 12.8322 10.7774C12.4454 10.4551 11.9082 10.2832 11.2421 10.2832C10.5759 10.2832 10.0602 10.4336 9.65189 10.7774C9.2436 11.0998 9.0502 11.551 9.0502 12.1312V12.1957H10.1676C10.1676 11.8734 10.2751 11.637 10.447 11.4866C10.6404 11.3362 10.8982 11.2502 11.2421 11.2502C11.5859 11.2502 11.8652 11.3362 12.0372 11.4866C12.2091 11.6585 12.3165 11.8734 12.3165 12.1527C12.3165 12.4536 12.2306 12.7114 12.0372 12.8834C11.8438 13.0553 11.6074 13.1412 11.3065 13.1412H10.1676V14.1297L11.371 14.1512L11.3065 14.1727ZM18.9351 17.0952V16.0422H16.1845L17.7747 14.4735C18.2045 14.0652 18.5053 13.6784 18.6772 13.3346C18.8491 12.9908 18.9351 12.6255 18.9351 12.2602C18.9351 11.6585 18.7417 11.1642 18.3764 10.8419C17.9896 10.4981 17.4738 10.3262 16.7862 10.3262C16.0986 10.3262 15.5613 10.4981 15.153 10.8419C14.7448 11.1857 14.5514 11.6585 14.5514 12.2817V12.3461H15.6903C15.6903 11.68 16.0341 11.3362 16.7647 11.3362C17.4524 11.3362 17.7962 11.6585 17.7962 12.3032C17.7962 12.561 17.7317 12.7974 17.6243 13.0338C17.5168 13.2702 17.3019 13.528 17.0226 13.8074L14.7018 16.0637V17.1167H18.9781L18.9351 17.0952Z" fill="#929392"/>
<path d="M10.4258 22.7472V17.6973H9.58772V21.5438L7.58925 17.6973H6.3429V22.7472H7.18096V18.9221L9.20092 22.7472H10.4258ZM12.1879 22.2744C12.1879 22.1455 12.1449 22.0595 12.0589 21.9736C11.973 21.9091 11.8655 21.8661 11.7151 21.8661C11.5862 21.8661 11.4787 21.9091 11.3928 21.9736C11.3068 22.038 11.2639 22.1455 11.2639 22.2744V22.4248C11.2639 22.5538 11.3068 22.6397 11.3928 22.7257C11.4787 22.7901 11.5862 22.8331 11.7366 22.8331C11.887 22.8331 11.9945 22.7901 12.0804 22.7257C12.1664 22.6612 12.2094 22.5538 12.2094 22.4248L12.1879 22.2744ZM15.9914 21.3934H15.1963C15.1963 21.8661 14.9385 22.1025 14.4442 22.1025C13.95 22.1025 13.7136 21.8446 13.7136 21.3504V20.5983C13.7136 20.0825 13.95 19.8462 14.4442 19.8462C14.9385 19.8462 15.1963 20.0825 15.1963 20.5553H15.9914V20.4908C15.9914 20.061 15.8625 19.7172 15.5831 19.4808C15.3038 19.2445 14.9385 19.1155 14.4657 19.1155C13.9929 19.1155 13.6276 19.2445 13.3483 19.4808C13.0689 19.7387 12.9185 20.0825 12.9185 20.5123V21.3934C12.9185 21.8231 13.0689 22.167 13.3483 22.4248C13.6276 22.6612 13.9929 22.7901 14.4657 22.7901C14.9385 22.7901 15.3253 22.6827 15.6046 22.4463C15.884 22.2099 16.0344 21.8661 16.0344 21.4363L16.0129 21.3934H15.9914ZM21.6645 22.7472V20.233C21.6645 19.8891 21.5785 19.6313 21.4066 19.4379C21.2347 19.2445 20.9768 19.1585 20.676 19.1585C20.3966 19.1585 20.1173 19.2445 19.8594 19.3949L19.4726 19.6313C19.3222 19.3089 19.0428 19.1585 18.6345 19.1585C18.3767 19.1585 18.1188 19.223 17.8824 19.3734L17.5601 19.5668V19.2015H16.7435V22.7686H17.5601V20.3189L17.9899 20.061C18.1618 19.9751 18.3122 19.9321 18.4197 19.9321C18.6775 19.9321 18.785 20.0825 18.785 20.3834V22.7901H19.6015V20.3404L20.0313 20.0825C20.2032 19.9966 20.3537 19.9321 20.4611 19.9321C20.719 19.9321 20.8479 20.0825 20.8479 20.3619V22.7901H21.6645V22.7472Z" fill="#929392"/>
<path d="M23.9421 13.2487C27.3373 13.2487 30.1094 10.4981 30.1094 7.08137C30.1094 3.66464 27.3588 0.914063 23.9421 0.914063C20.5254 0.914063 17.7748 3.66464 17.7748 7.08137C17.7748 10.4766 20.5254 13.2487 23.9421 13.2487Z" fill="#929392"/>
<path d="M23.9421 13.2487C27.3373 13.2487 30.1094 10.4981 30.1094 7.08137C30.1094 3.66464 27.3588 0.914063 23.9421 0.914063C20.5254 0.914063 17.7748 3.66464 17.7748 7.08137C17.7748 10.4766 20.5254 13.2487 23.9421 13.2487Z" stroke="white" stroke-width="0.623178"/>
<path d="M26.1339 10.6049V9.93874H24.6297V4.05078H23.8561C23.3834 4.48056 22.9321 4.7814 22.4808 4.93183V5.64096C22.9751 5.555 23.4478 5.29714 23.8776 4.86736V9.96023H21.9651V10.6264H26.1339V10.6049Z" fill="#FEFEFE"/>
</svg>
