<svg width="10" height="10" viewBox="0 0 10 10" fill="none" xmlns="http://www.w3.org/2000/svg">
<path d="M9.8862 4.80687C9.8862 6.08225 9.37956 7.30539 8.47773 8.20722C7.5759 9.10905 6.35276 9.61569 5.07738 9.61569C3.802 9.61569 2.57886 9.10905 1.67703 8.20722C0.775197 7.30539 0.268555 6.08225 0.268555 4.80687C0.268555 3.53149 0.775197 2.30835 1.67703 1.40652C2.57886 0.504689 3.802 -0.00195312 5.07738 -0.00195312C6.35276 -0.00195312 7.5759 0.504689 8.47773 1.40652C9.37956 2.30835 9.8862 3.53149 9.8862 4.80687ZM7.49982 2.98553C7.45689 2.94274 7.40576 2.90905 7.34951 2.88648C7.29325 2.8639 7.23302 2.8529 7.17242 2.85413C7.11181 2.85537 7.05208 2.86881 6.99679 2.89366C6.9415 2.91851 6.89179 2.95425 6.85063 2.99875L4.763 5.65863L3.50489 4.39992C3.41943 4.32029 3.3064 4.27694 3.1896 4.279C3.07281 4.28106 2.96137 4.32837 2.87877 4.41097C2.79617 4.49357 2.74886 4.60501 2.7468 4.7218C2.74474 4.8386 2.78809 4.95163 2.86772 5.03709L4.45824 6.62821C4.50109 6.67098 4.55211 6.70468 4.60827 6.72731C4.66442 6.74993 4.72456 6.76101 4.78509 6.75989C4.84562 6.75877 4.9053 6.74546 4.96058 6.72078C5.01586 6.69609 5.0656 6.66052 5.10683 6.61619L7.50644 3.61669C7.58824 3.53163 7.63343 3.41789 7.63231 3.29988C7.63119 3.18187 7.58384 3.06901 7.50042 2.98553H7.49982Z" fill="#46B98C"/>
</svg>
