<svg width="10" height="11" viewBox="0 0 10 11" fill="none" xmlns="http://www.w3.org/2000/svg">
<path d="M9.81882 5.61937C9.81882 6.89475 9.31218 8.11789 8.41035 9.01972C7.50852 9.92155 6.28537 10.4282 5.01 10.4282C3.73462 10.4282 2.51147 9.92155 1.60964 9.01972C0.707814 8.11789 0.201172 6.89475 0.201172 5.61937C0.201172 4.34399 0.707814 3.12085 1.60964 2.21902C2.51147 1.31719 3.73462 0.810547 5.01 0.810547C6.28537 0.810547 7.50852 1.31719 8.41035 2.21902C9.31218 3.12085 9.81882 4.34399 9.81882 5.61937ZM7.43244 3.79803C7.3895 3.75524 7.33838 3.72155 7.28212 3.69898C7.22587 3.6764 7.16564 3.6654 7.10503 3.66663C7.04443 3.66787 6.9847 3.68131 6.92941 3.70616C6.87412 3.73101 6.82441 3.76675 6.78325 3.81125L4.69562 6.47113L3.43751 5.21242C3.35205 5.13279 3.23901 5.08944 3.12222 5.0915C3.00542 5.09356 2.89399 5.14087 2.81139 5.22347C2.72879 5.30607 2.68147 5.41751 2.67941 5.5343C2.67735 5.6511 2.72071 5.76413 2.80034 5.84959L4.39086 7.44071C4.43371 7.48348 4.48473 7.51718 4.54088 7.53981C4.59704 7.56243 4.65718 7.57351 4.71771 7.57239C4.77824 7.57127 4.83792 7.55796 4.8932 7.53328C4.94848 7.50859 4.99822 7.47302 5.03945 7.42869L7.43905 4.42919C7.52086 4.34413 7.56605 4.23039 7.56493 4.11238C7.5638 3.99437 7.51645 3.88151 7.43304 3.79803H7.43244Z" fill="#46B98C"/>
</svg>
