<svg width="11" height="11" viewBox="0 0 11 11" fill="none" xmlns="http://www.w3.org/2000/svg">
<path d="M10.0415 5.21312C10.0415 6.4885 9.53483 7.71164 8.633 8.61347C7.73117 9.5153 6.50803 10.0219 5.23265 10.0219C3.95727 10.0219 2.73413 9.5153 1.8323 8.61347C0.930471 7.71164 0.423828 6.4885 0.423828 5.21312C0.423828 3.93774 0.930471 2.7146 1.8323 1.81277C2.73413 0.910939 3.95727 0.404297 5.23265 0.404297C6.50803 0.404297 7.73117 0.910939 8.633 1.81277C9.53483 2.7146 10.0415 3.93774 10.0415 5.21312ZM7.6551 3.39178C7.61216 3.34899 7.56103 3.3153 7.50478 3.29273C7.44852 3.27015 7.38829 3.25915 7.32769 3.26038C7.26709 3.26162 7.20735 3.27506 7.15206 3.29991C7.09677 3.32476 7.04706 3.3605 7.00591 3.405L4.91827 6.06488L3.66017 4.80617C3.5747 4.72654 3.46167 4.68319 3.34487 4.68525C3.22808 4.68731 3.11664 4.73462 3.03404 4.81722C2.95145 4.89982 2.90413 5.01126 2.90207 5.12805C2.90001 5.24485 2.94336 5.35788 3.023 5.44334L4.61352 7.03446C4.65636 7.07723 4.70739 7.11093 4.76354 7.13356C4.8197 7.15618 4.87983 7.16726 4.94036 7.16614C5.00089 7.16502 5.06058 7.15171 5.11586 7.12703C5.17113 7.10234 5.22087 7.06677 5.26211 7.02244L7.66171 4.02294C7.74352 3.93788 7.78871 3.82414 7.78758 3.70613C7.78646 3.58812 7.73911 3.47526 7.6557 3.39178H7.6551Z" fill="#46B98C"/>
</svg>
