<svg width="11" height="10" viewBox="0 0 11 10" fill="none" xmlns="http://www.w3.org/2000/svg">
<path d="M10.5083 4.80687C10.5083 6.08225 10.0016 7.30539 9.0998 8.20722C8.19797 9.10905 6.97483 9.61569 5.69945 9.61569C4.42407 9.61569 3.20093 9.10905 2.2991 8.20722C1.39727 7.30539 0.890625 6.08225 0.890625 4.80687C0.890625 3.53149 1.39727 2.30835 2.2991 1.40652C3.20093 0.504689 4.42407 -0.00195312 5.69945 -0.00195312C6.97483 -0.00195312 8.19797 0.504689 9.0998 1.40652C10.0016 2.30835 10.5083 3.53149 10.5083 4.80687ZM8.12189 2.98553C8.07896 2.94274 8.02783 2.90905 7.97158 2.88648C7.91532 2.8639 7.85509 2.8529 7.79449 2.85413C7.73388 2.85537 7.67415 2.86881 7.61886 2.89366C7.56357 2.91851 7.51386 2.95425 7.4727 2.99875L5.38507 5.65863L4.12696 4.39992C4.0415 4.32029 3.92847 4.27694 3.81167 4.279C3.69488 4.28106 3.58344 4.32837 3.50084 4.41097C3.41824 4.49357 3.37093 4.60501 3.36887 4.7218C3.36681 4.8386 3.41016 4.95163 3.48979 5.03709L5.08031 6.62821C5.12316 6.67098 5.17418 6.70468 5.23034 6.72731C5.28649 6.74993 5.34663 6.76101 5.40716 6.75989C5.46769 6.75877 5.52737 6.74546 5.58265 6.72078C5.63793 6.69609 5.68767 6.66052 5.7289 6.61619L8.12851 3.61669C8.21031 3.53163 8.2555 3.41789 8.25438 3.29988C8.25326 3.18187 8.20591 3.06901 8.12249 2.98553H8.12189Z" fill="#46B98C"/>
</svg>
