<svg width="11" height="10" viewBox="0 0 11 10" fill="none" xmlns="http://www.w3.org/2000/svg">
<path d="M10.0415 4.80687C10.0415 6.08225 9.53483 7.30539 8.633 8.20722C7.73117 9.10905 6.50803 9.61569 5.23265 9.61569C3.95727 9.61569 2.73413 9.10905 1.8323 8.20722C0.930471 7.30539 0.423828 6.08225 0.423828 4.80687C0.423828 3.53149 0.930471 2.30835 1.8323 1.40652C2.73413 0.504689 3.95727 -0.00195312 5.23265 -0.00195312C6.50803 -0.00195312 7.73117 0.504689 8.633 1.40652C9.53483 2.30835 10.0415 3.53149 10.0415 4.80687ZM7.6551 2.98553C7.61216 2.94274 7.56103 2.90905 7.50478 2.88648C7.44852 2.8639 7.38829 2.8529 7.32769 2.85413C7.26709 2.85537 7.20735 2.86881 7.15206 2.89366C7.09677 2.91851 7.04706 2.95425 7.00591 2.99875L4.91827 5.65863L3.66017 4.39992C3.5747 4.32029 3.46167 4.27694 3.34487 4.279C3.22808 4.28106 3.11664 4.32837 3.03404 4.41097C2.95145 4.49357 2.90413 4.60501 2.90207 4.7218C2.90001 4.8386 2.94336 4.95163 3.023 5.03709L4.61352 6.62821C4.65636 6.67098 4.70739 6.70468 4.76354 6.72731C4.8197 6.74993 4.87983 6.76101 4.94036 6.75989C5.00089 6.75877 5.06058 6.74546 5.11586 6.72078C5.17113 6.69609 5.22087 6.66052 5.26211 6.61619L7.66171 3.61669C7.74352 3.53163 7.78871 3.41789 7.78758 3.29988C7.78646 3.18187 7.73911 3.06901 7.6557 2.98553H7.6551Z" fill="#46B98C"/>
</svg>
