<svg width="10" height="10" viewBox="0 0 10 10" fill="none" xmlns="http://www.w3.org/2000/svg">
<path d="M9.81882 5.02562C9.81882 6.301 9.31218 7.52414 8.41035 8.42597C7.50852 9.3278 6.28537 9.83444 5.01 9.83444C3.73462 9.83444 2.51147 9.3278 1.60964 8.42597C0.707814 7.52414 0.201172 6.301 0.201172 5.02562C0.201172 3.75024 0.707814 2.5271 1.60964 1.62527C2.51147 0.723439 3.73462 0.216797 5.01 0.216797C6.28537 0.216797 7.50852 0.723439 8.41035 1.62527C9.31218 2.5271 9.81882 3.75024 9.81882 5.02562ZM7.43244 3.20428C7.3895 3.16149 7.33838 3.1278 7.28212 3.10523C7.22587 3.08265 7.16564 3.07165 7.10503 3.07288C7.04443 3.07412 6.9847 3.08756 6.92941 3.11241C6.87412 3.13726 6.82441 3.173 6.78325 3.2175L4.69562 5.87738L3.43751 4.61867C3.35205 4.53904 3.23901 4.49569 3.12222 4.49775C3.00542 4.49981 2.89399 4.54712 2.81139 4.62972C2.72879 4.71232 2.68147 4.82376 2.67941 4.94055C2.67735 5.05735 2.72071 5.17038 2.80034 5.25584L4.39086 6.84696C4.43371 6.88973 4.48473 6.92343 4.54088 6.94606C4.59704 6.96868 4.65718 6.97976 4.71771 6.97864C4.77824 6.97752 4.83792 6.96421 4.8932 6.93953C4.94848 6.91484 4.99822 6.87927 5.03945 6.83494L7.43905 3.83544C7.52086 3.75038 7.56605 3.63664 7.56493 3.51863C7.5638 3.40062 7.51645 3.28776 7.43304 3.20428H7.43244Z" fill="#46B98C"/>
</svg>
