<svg width="10" height="10" viewBox="0 0 10 10" fill="none" xmlns="http://www.w3.org/2000/svg">
<path d="M9.8862 5.02562C9.8862 6.301 9.37956 7.52414 8.47773 8.42597C7.5759 9.3278 6.35276 9.83444 5.07738 9.83444C3.802 9.83444 2.57886 9.3278 1.67703 8.42597C0.775197 7.52414 0.268555 6.301 0.268555 5.02562C0.268555 3.75024 0.775197 2.5271 1.67703 1.62527C2.57886 0.723439 3.802 0.216797 5.07738 0.216797C6.35276 0.216797 7.5759 0.723439 8.47773 1.62527C9.37956 2.5271 9.8862 3.75024 9.8862 5.02562ZM7.49982 3.20428C7.45689 3.16149 7.40576 3.1278 7.34951 3.10523C7.29325 3.08265 7.23302 3.07165 7.17242 3.07288C7.11181 3.07412 7.05208 3.08756 6.99679 3.11241C6.9415 3.13726 6.89179 3.173 6.85063 3.2175L4.763 5.87738L3.50489 4.61867C3.41943 4.53904 3.3064 4.49569 3.1896 4.49775C3.07281 4.49981 2.96137 4.54712 2.87877 4.62972C2.79617 4.71232 2.74886 4.82376 2.7468 4.94055C2.74474 5.05735 2.78809 5.17038 2.86772 5.25584L4.45824 6.84696C4.50109 6.88973 4.55211 6.92343 4.60827 6.94606C4.66442 6.96868 4.72456 6.97976 4.78509 6.97864C4.84562 6.97752 4.9053 6.96421 4.96058 6.93953C5.01586 6.91484 5.0656 6.87927 5.10683 6.83494L7.50644 3.83544C7.58824 3.75038 7.63343 3.63664 7.63231 3.51863C7.63119 3.40062 7.58384 3.28776 7.50042 3.20428H7.49982Z" fill="#46B98C"/>
</svg>
