<svg width="11" height="11" viewBox="0 0 11 11" fill="none" xmlns="http://www.w3.org/2000/svg">
<path d="M10.5083 5.21312C10.5083 6.4885 10.0016 7.71164 9.0998 8.61347C8.19797 9.5153 6.97483 10.0219 5.69945 10.0219C4.42407 10.0219 3.20093 9.5153 2.2991 8.61347C1.39727 7.71164 0.890625 6.4885 0.890625 5.21312C0.890625 3.93774 1.39727 2.7146 2.2991 1.81277C3.20093 0.910939 4.42407 0.404297 5.69945 0.404297C6.97483 0.404297 8.19797 0.910939 9.0998 1.81277C10.0016 2.7146 10.5083 3.93774 10.5083 5.21312ZM8.12189 3.39178C8.07896 3.34899 8.02783 3.3153 7.97158 3.29273C7.91532 3.27015 7.85509 3.25915 7.79449 3.26038C7.73388 3.26162 7.67415 3.27506 7.61886 3.29991C7.56357 3.32476 7.51386 3.3605 7.4727 3.405L5.38507 6.06488L4.12696 4.80617C4.0415 4.72654 3.92847 4.68319 3.81167 4.68525C3.69488 4.68731 3.58344 4.73462 3.50084 4.81722C3.41824 4.89982 3.37093 5.01126 3.36887 5.12805C3.36681 5.24485 3.41016 5.35788 3.48979 5.44334L5.08031 7.03446C5.12316 7.07723 5.17418 7.11093 5.23034 7.13356C5.28649 7.15618 5.34663 7.16726 5.40716 7.16614C5.46769 7.16502 5.52737 7.15171 5.58265 7.12703C5.63793 7.10234 5.68767 7.06677 5.7289 7.02244L8.12851 4.02294C8.21031 3.93788 8.2555 3.82414 8.25438 3.70613C8.25326 3.58812 8.20591 3.47526 8.12249 3.39178H8.12189Z" fill="#46B98C"/>
</svg>
