<svg width="10" height="10" viewBox="0 0 10 10" fill="none" xmlns="http://www.w3.org/2000/svg">
<path d="M9.66355 4.80687C9.66355 6.08225 9.1569 7.30539 8.25507 8.20722C7.35324 9.10905 6.1301 9.61569 4.85472 9.61569C3.57934 9.61569 2.3562 9.10905 1.45437 8.20722C0.552541 7.30539 0.0458984 6.08225 0.0458984 4.80687C0.0458984 3.53149 0.552541 2.30835 1.45437 1.40652C2.3562 0.504689 3.57934 -0.00195312 4.85472 -0.00195312C6.1301 -0.00195312 7.35324 0.504689 8.25507 1.40652C9.1569 2.30835 9.66355 3.53149 9.66355 4.80687ZM7.27717 2.98553C7.23423 2.94274 7.1831 2.90905 7.12685 2.88648C7.07059 2.8639 7.01036 2.8529 6.94976 2.85413C6.88916 2.85537 6.82942 2.86881 6.77413 2.89366C6.71884 2.91851 6.66913 2.95425 6.62798 2.99875L4.54035 5.65863L3.28224 4.39992C3.19677 4.32029 3.08374 4.27694 2.96694 4.279C2.85015 4.28106 2.73871 4.32837 2.65611 4.41097C2.57352 4.49357 2.5262 4.60501 2.52414 4.7218C2.52208 4.8386 2.56543 4.95163 2.64507 5.03709L4.23559 6.62821C4.27843 6.67098 4.32946 6.70468 4.38561 6.72731C4.44177 6.74993 4.5019 6.76101 4.56243 6.75989C4.62296 6.75877 4.68265 6.74546 4.73793 6.72078C4.7932 6.69609 4.84294 6.66052 4.88418 6.61619L7.28378 3.61669C7.36559 3.53163 7.41078 3.41789 7.40965 3.29988C7.40853 3.18187 7.36118 3.06901 7.27777 2.98553H7.27717Z" fill="#46B98C"/>
</svg>
