<svg width="10" height="10" viewBox="0 0 10 10" fill="none" xmlns="http://www.w3.org/2000/svg">
<path d="M9.66355 5.02562C9.66355 6.301 9.1569 7.52414 8.25507 8.42597C7.35324 9.3278 6.1301 9.83444 4.85472 9.83444C3.57934 9.83444 2.3562 9.3278 1.45437 8.42597C0.552541 7.52414 0.0458984 6.301 0.0458984 5.02562C0.0458984 3.75024 0.552541 2.5271 1.45437 1.62527C2.3562 0.723439 3.57934 0.216797 4.85472 0.216797C6.1301 0.216797 7.35324 0.723439 8.25507 1.62527C9.1569 2.5271 9.66355 3.75024 9.66355 5.02562ZM7.27717 3.20428C7.23423 3.16149 7.1831 3.1278 7.12685 3.10523C7.07059 3.08265 7.01036 3.07165 6.94976 3.07288C6.88916 3.07412 6.82942 3.08756 6.77413 3.11241C6.71884 3.13726 6.66913 3.173 6.62798 3.2175L4.54035 5.87738L3.28224 4.61867C3.19677 4.53904 3.08374 4.49569 2.96694 4.49775C2.85015 4.49981 2.73871 4.54712 2.65611 4.62972C2.57352 4.71232 2.5262 4.82376 2.52414 4.94055C2.52208 5.05735 2.56543 5.17038 2.64507 5.25584L4.23559 6.84696C4.27843 6.88973 4.32946 6.92343 4.38561 6.94606C4.44177 6.96868 4.5019 6.97976 4.56243 6.97864C4.62296 6.97752 4.68265 6.96421 4.73793 6.93953C4.7932 6.91484 4.84294 6.87927 4.88418 6.83494L7.28378 3.83544C7.36559 3.75038 7.41078 3.63664 7.40965 3.51863C7.40853 3.40062 7.36118 3.28776 7.27777 3.20428H7.27717Z" fill="#46B98C"/>
</svg>
