<svg width="11" height="10" viewBox="0 0 11 10" fill="none" xmlns="http://www.w3.org/2000/svg">
<path d="M10.1977 5.02562C10.1977 6.301 9.69108 7.52414 8.78925 8.42597C7.88742 9.3278 6.66428 9.83444 5.3889 9.83444C4.11352 9.83444 2.89038 9.3278 1.98855 8.42597C1.08672 7.52414 0.580078 6.301 0.580078 5.02562C0.580078 3.75024 1.08672 2.5271 1.98855 1.62527C2.89038 0.723439 4.11352 0.216797 5.3889 0.216797C6.66428 0.216797 7.88742 0.723439 8.78925 1.62527C9.69108 2.5271 10.1977 3.75024 10.1977 5.02562ZM7.81135 3.20428C7.76841 3.16149 7.71728 3.1278 7.66103 3.10523C7.60477 3.08265 7.54454 3.07165 7.48394 3.07288C7.42334 3.07412 7.3636 3.08756 7.30831 3.11241C7.25302 3.13726 7.20331 3.173 7.16216 3.2175L5.07452 5.87738L3.81642 4.61867C3.73095 4.53904 3.61792 4.49569 3.50112 4.49775C3.38433 4.49981 3.27289 4.54712 3.19029 4.62972C3.1077 4.71232 3.06038 4.82376 3.05832 4.94055C3.05626 5.05735 3.09961 5.17038 3.17925 5.25584L4.76977 6.84696C4.81261 6.88973 4.86364 6.92343 4.91979 6.94606C4.97595 6.96868 5.03608 6.97976 5.09661 6.97864C5.15714 6.97752 5.21683 6.96421 5.27211 6.93953C5.32738 6.91484 5.37712 6.87927 5.41836 6.83494L7.81796 3.83544C7.89977 3.75038 7.94496 3.63664 7.94383 3.51863C7.94271 3.40062 7.89536 3.28776 7.81195 3.20428H7.81135Z" fill="#46B98C"/>
</svg>
