<svg width="10" height="11" viewBox="0 0 10 11" fill="none" xmlns="http://www.w3.org/2000/svg">
<path d="M9.8862 5.21312C9.8862 6.4885 9.37956 7.71164 8.47773 8.61347C7.5759 9.5153 6.35276 10.0219 5.07738 10.0219C3.802 10.0219 2.57886 9.5153 1.67703 8.61347C0.775197 7.71164 0.268555 6.4885 0.268555 5.21312C0.268555 3.93774 0.775197 2.7146 1.67703 1.81277C2.57886 0.910939 3.802 0.404297 5.07738 0.404297C6.35276 0.404297 7.5759 0.910939 8.47773 1.81277C9.37956 2.7146 9.8862 3.93774 9.8862 5.21312ZM7.49982 3.39178C7.45689 3.34899 7.40576 3.3153 7.34951 3.29273C7.29325 3.27015 7.23302 3.25915 7.17242 3.26038C7.11181 3.26162 7.05208 3.27506 6.99679 3.29991C6.9415 3.32476 6.89179 3.3605 6.85063 3.405L4.763 6.06488L3.50489 4.80617C3.41943 4.72654 3.3064 4.68319 3.1896 4.68525C3.07281 4.68731 2.96137 4.73462 2.87877 4.81722C2.79617 4.89982 2.74886 5.01126 2.7468 5.12805C2.74474 5.24485 2.78809 5.35788 2.86772 5.44334L4.45824 7.03446C4.50109 7.07723 4.55211 7.11093 4.60827 7.13356C4.66442 7.15618 4.72456 7.16726 4.78509 7.16614C4.84562 7.16502 4.9053 7.15171 4.96058 7.12703C5.01586 7.10234 5.0656 7.06677 5.10683 7.02244L7.50644 4.02294C7.58824 3.93788 7.63343 3.82414 7.63231 3.70613C7.63119 3.58812 7.58384 3.47526 7.50042 3.39178H7.49982Z" fill="#46B98C"/>
</svg>
