<svg width="11" height="11" viewBox="0 0 11 11" fill="none" xmlns="http://www.w3.org/2000/svg">
<path d="M10.353 5.61937C10.353 6.89475 9.84636 8.11789 8.94453 9.01972C8.0427 9.92155 6.81955 10.4282 5.54418 10.4282C4.2688 10.4282 3.04565 9.92155 2.14382 9.01972C1.24199 8.11789 0.735352 6.89475 0.735352 5.61937C0.735352 4.34399 1.24199 3.12085 2.14382 2.21902C3.04565 1.31719 4.2688 0.810547 5.54418 0.810547C6.81955 0.810547 8.0427 1.31719 8.94453 2.21902C9.84636 3.12085 10.353 4.34399 10.353 5.61937ZM7.96662 3.79803C7.92368 3.75524 7.87256 3.72155 7.8163 3.69898C7.76005 3.6764 7.69982 3.6654 7.63921 3.66663C7.57861 3.66787 7.51888 3.68131 7.46359 3.70616C7.4083 3.73101 7.35859 3.76675 7.31743 3.81125L5.2298 6.47113L3.97169 5.21242C3.88623 5.13279 3.77319 5.08944 3.6564 5.0915C3.5396 5.09356 3.42817 5.14087 3.34557 5.22347C3.26297 5.30607 3.21565 5.41751 3.21359 5.5343C3.21153 5.6511 3.25489 5.76413 3.33452 5.84959L4.92504 7.44071C4.96789 7.48348 5.01891 7.51718 5.07506 7.53981C5.13122 7.56243 5.19136 7.57351 5.25189 7.57239C5.31242 7.57127 5.3721 7.55796 5.42738 7.53328C5.48266 7.50859 5.5324 7.47302 5.57363 7.42869L7.97323 4.42919C8.05504 4.34413 8.10023 4.23039 8.09911 4.11238C8.09798 3.99437 8.05063 3.88151 7.96722 3.79803H7.96662Z" fill="#46B98C"/>
</svg>
