<svg width="10" height="10" viewBox="0 0 10 10" fill="none" xmlns="http://www.w3.org/2000/svg">
<path d="M9.81882 4.80687C9.81882 6.08225 9.31218 7.30539 8.41035 8.20722C7.50852 9.10905 6.28537 9.61569 5.01 9.61569C3.73462 9.61569 2.51147 9.10905 1.60964 8.20722C0.707814 7.30539 0.201172 6.08225 0.201172 4.80687C0.201172 3.53149 0.707814 2.30835 1.60964 1.40652C2.51147 0.504689 3.73462 -0.00195312 5.01 -0.00195312C6.28537 -0.00195312 7.50852 0.504689 8.41035 1.40652C9.31218 2.30835 9.81882 3.53149 9.81882 4.80687ZM7.43244 2.98553C7.3895 2.94274 7.33838 2.90905 7.28212 2.88648C7.22587 2.8639 7.16564 2.8529 7.10503 2.85413C7.04443 2.85537 6.9847 2.86881 6.92941 2.89366C6.87412 2.91851 6.82441 2.95425 6.78325 2.99875L4.69562 5.65863L3.43751 4.39992C3.35205 4.32029 3.23901 4.27694 3.12222 4.279C3.00542 4.28106 2.89399 4.32837 2.81139 4.41097C2.72879 4.49357 2.68147 4.60501 2.67941 4.7218C2.67735 4.8386 2.72071 4.95163 2.80034 5.03709L4.39086 6.62821C4.43371 6.67098 4.48473 6.70468 4.54088 6.72731C4.59704 6.74993 4.65718 6.76101 4.71771 6.75989C4.77824 6.75877 4.83792 6.74546 4.8932 6.72078C4.94848 6.69609 4.99822 6.66052 5.03945 6.61619L7.43905 3.61669C7.52086 3.53163 7.56605 3.41789 7.56493 3.29988C7.5638 3.18187 7.51645 3.06901 7.43304 2.98553H7.43244Z" fill="#46B98C"/>
</svg>
