<svg width="11" height="11" viewBox="0 0 11 11" fill="none" xmlns="http://www.w3.org/2000/svg">
<path d="M10.353 5.21312C10.353 6.4885 9.84636 7.71164 8.94453 8.61347C8.0427 9.5153 6.81955 10.0219 5.54418 10.0219C4.2688 10.0219 3.04565 9.5153 2.14382 8.61347C1.24199 7.71164 0.735352 6.4885 0.735352 5.21312C0.735352 3.93774 1.24199 2.7146 2.14382 1.81277C3.04565 0.910939 4.2688 0.404297 5.54418 0.404297C6.81955 0.404297 8.0427 0.910939 8.94453 1.81277C9.84636 2.7146 10.353 3.93774 10.353 5.21312ZM7.96662 3.39178C7.92368 3.34899 7.87256 3.3153 7.8163 3.29273C7.76005 3.27015 7.69982 3.25915 7.63921 3.26038C7.57861 3.26162 7.51888 3.27506 7.46359 3.29991C7.4083 3.32476 7.35859 3.3605 7.31743 3.405L5.2298 6.06488L3.97169 4.80617C3.88623 4.72654 3.77319 4.68319 3.6564 4.68525C3.5396 4.68731 3.42817 4.73462 3.34557 4.81722C3.26297 4.89982 3.21565 5.01126 3.21359 5.12805C3.21153 5.24485 3.25489 5.35788 3.33452 5.44334L4.92504 7.03446C4.96789 7.07723 5.01891 7.11093 5.07506 7.13356C5.13122 7.15618 5.19136 7.16726 5.25189 7.16614C5.31242 7.16502 5.3721 7.15171 5.42738 7.12703C5.48266 7.10234 5.5324 7.06677 5.57363 7.02244L7.97323 4.02294C8.05504 3.93788 8.10023 3.82414 8.09911 3.70613C8.09798 3.58812 8.05063 3.47526 7.96722 3.39178H7.96662Z" fill="#46B98C"/>
</svg>
