<svg width="11" height="10" viewBox="0 0 11 10" fill="none" xmlns="http://www.w3.org/2000/svg">
<path d="M10.1977 4.80687C10.1977 6.08225 9.69108 7.30539 8.78925 8.20722C7.88742 9.10905 6.66428 9.61569 5.3889 9.61569C4.11352 9.61569 2.89038 9.10905 1.98855 8.20722C1.08672 7.30539 0.580078 6.08225 0.580078 4.80687C0.580078 3.53149 1.08672 2.30835 1.98855 1.40652C2.89038 0.504689 4.11352 -0.00195312 5.3889 -0.00195312C6.66428 -0.00195312 7.88742 0.504689 8.78925 1.40652C9.69108 2.30835 10.1977 3.53149 10.1977 4.80687ZM7.81135 2.98553C7.76841 2.94274 7.71728 2.90905 7.66103 2.88648C7.60477 2.8639 7.54454 2.8529 7.48394 2.85413C7.42334 2.85537 7.3636 2.86881 7.30831 2.89366C7.25302 2.91851 7.20331 2.95425 7.16216 2.99875L5.07452 5.65863L3.81642 4.39992C3.73095 4.32029 3.61792 4.27694 3.50112 4.279C3.38433 4.28106 3.27289 4.32837 3.19029 4.41097C3.1077 4.49357 3.06038 4.60501 3.05832 4.7218C3.05626 4.8386 3.09961 4.95163 3.17925 5.03709L4.76977 6.62821C4.81261 6.67098 4.86364 6.70468 4.91979 6.72731C4.97595 6.74993 5.03608 6.76101 5.09661 6.75989C5.15714 6.75877 5.21683 6.74546 5.27211 6.72078C5.32738 6.69609 5.37712 6.66052 5.41836 6.61619L7.81796 3.61669C7.89977 3.53163 7.94496 3.41789 7.94383 3.29988C7.94271 3.18187 7.89536 3.06901 7.81195 2.98553H7.81135Z" fill="#46B98C"/>
</svg>
