<svg width="10" height="11" viewBox="0 0 10 11" fill="none" xmlns="http://www.w3.org/2000/svg">
<path d="M9.66355 5.61937C9.66355 6.89475 9.1569 8.11789 8.25507 9.01972C7.35324 9.92155 6.1301 10.4282 4.85472 10.4282C3.57934 10.4282 2.3562 9.92155 1.45437 9.01972C0.552541 8.11789 0.0458984 6.89475 0.0458984 5.61937C0.0458984 4.34399 0.552541 3.12085 1.45437 2.21902C2.3562 1.31719 3.57934 0.810547 4.85472 0.810547C6.1301 0.810547 7.35324 1.31719 8.25507 2.21902C9.1569 3.12085 9.66355 4.34399 9.66355 5.61937ZM7.27717 3.79803C7.23423 3.75524 7.1831 3.72155 7.12685 3.69898C7.07059 3.6764 7.01036 3.6654 6.94976 3.66663C6.88916 3.66787 6.82942 3.68131 6.77413 3.70616C6.71884 3.73101 6.66913 3.76675 6.62798 3.81125L4.54035 6.47113L3.28224 5.21242C3.19677 5.13279 3.08374 5.08944 2.96694 5.0915C2.85015 5.09356 2.73871 5.14087 2.65611 5.22347C2.57352 5.30607 2.5262 5.41751 2.52414 5.5343C2.52208 5.6511 2.56543 5.76413 2.64507 5.84959L4.23559 7.44071C4.27843 7.48348 4.32946 7.51718 4.38561 7.53981C4.44177 7.56243 4.5019 7.57351 4.56243 7.57239C4.62296 7.57127 4.68265 7.55796 4.73793 7.53328C4.7932 7.50859 4.84294 7.47302 4.88418 7.42869L7.28378 4.42919C7.36559 4.34413 7.41078 4.23039 7.40965 4.11238C7.40853 3.99437 7.36118 3.88151 7.27777 3.79803H7.27717Z" fill="#46B98C"/>
</svg>
