<svg width="10" height="11" viewBox="0 0 10 11" fill="none" xmlns="http://www.w3.org/2000/svg">
<path d="M9.66355 5.21312C9.66355 6.4885 9.1569 7.71164 8.25507 8.61347C7.35324 9.5153 6.1301 10.0219 4.85472 10.0219C3.57934 10.0219 2.3562 9.5153 1.45437 8.61347C0.552541 7.71164 0.0458984 6.4885 0.0458984 5.21312C0.0458984 3.93774 0.552541 2.7146 1.45437 1.81277C2.3562 0.910939 3.57934 0.404297 4.85472 0.404297C6.1301 0.404297 7.35324 0.910939 8.25507 1.81277C9.1569 2.7146 9.66355 3.93774 9.66355 5.21312ZM7.27717 3.39178C7.23423 3.34899 7.1831 3.3153 7.12685 3.29273C7.07059 3.27015 7.01036 3.25915 6.94976 3.26038C6.88916 3.26162 6.82942 3.27506 6.77413 3.29991C6.71884 3.32476 6.66913 3.3605 6.62798 3.405L4.54035 6.06488L3.28224 4.80617C3.19677 4.72654 3.08374 4.68319 2.96694 4.68525C2.85015 4.68731 2.73871 4.73462 2.65611 4.81722C2.57352 4.89982 2.5262 5.01126 2.52414 5.12805C2.52208 5.24485 2.56543 5.35788 2.64507 5.44334L4.23559 7.03446C4.27843 7.07723 4.32946 7.11093 4.38561 7.13356C4.44177 7.15618 4.5019 7.16726 4.56243 7.16614C4.62296 7.16502 4.68265 7.15171 4.73793 7.12703C4.7932 7.10234 4.84294 7.06677 4.88418 7.02244L7.28378 4.02294C7.36559 3.93788 7.41078 3.82414 7.40965 3.70613C7.40853 3.58812 7.36118 3.47526 7.27777 3.39178H7.27717Z" fill="#46B98C"/>
</svg>
