<svg width="11" height="10" viewBox="0 0 11 10" fill="none" xmlns="http://www.w3.org/2000/svg">
<path d="M10.5083 5.02562C10.5083 6.301 10.0016 7.52414 9.0998 8.42597C8.19797 9.3278 6.97483 9.83444 5.69945 9.83444C4.42407 9.83444 3.20093 9.3278 2.2991 8.42597C1.39727 7.52414 0.890625 6.301 0.890625 5.02562C0.890625 3.75024 1.39727 2.5271 2.2991 1.62527C3.20093 0.723439 4.42407 0.216797 5.69945 0.216797C6.97483 0.216797 8.19797 0.723439 9.0998 1.62527C10.0016 2.5271 10.5083 3.75024 10.5083 5.02562ZM8.12189 3.20428C8.07896 3.16149 8.02783 3.1278 7.97158 3.10523C7.91532 3.08265 7.85509 3.07165 7.79449 3.07288C7.73388 3.07412 7.67415 3.08756 7.61886 3.11241C7.56357 3.13726 7.51386 3.173 7.4727 3.2175L5.38507 5.87738L4.12696 4.61867C4.0415 4.53904 3.92847 4.49569 3.81167 4.49775C3.69488 4.49981 3.58344 4.54712 3.50084 4.62972C3.41824 4.71232 3.37093 4.82376 3.36887 4.94055C3.36681 5.05735 3.41016 5.17038 3.48979 5.25584L5.08031 6.84696C5.12316 6.88973 5.17418 6.92343 5.23034 6.94606C5.28649 6.96868 5.34663 6.97976 5.40716 6.97864C5.46769 6.97752 5.52737 6.96421 5.58265 6.93953C5.63793 6.91484 5.68767 6.87927 5.7289 6.83494L8.12851 3.83544C8.21031 3.75038 8.2555 3.63664 8.25438 3.51863C8.25326 3.40062 8.20591 3.28776 8.12249 3.20428H8.12189Z" fill="#46B98C"/>
</svg>
