<svg width="10" height="11" viewBox="0 0 10 11" fill="none" xmlns="http://www.w3.org/2000/svg">
<path d="M9.81882 5.21312C9.81882 6.4885 9.31218 7.71164 8.41035 8.61347C7.50852 9.5153 6.28537 10.0219 5.01 10.0219C3.73462 10.0219 2.51147 9.5153 1.60964 8.61347C0.707814 7.71164 0.201172 6.4885 0.201172 5.21312C0.201172 3.93774 0.707814 2.7146 1.60964 1.81277C2.51147 0.910939 3.73462 0.404297 5.01 0.404297C6.28537 0.404297 7.50852 0.910939 8.41035 1.81277C9.31218 2.7146 9.81882 3.93774 9.81882 5.21312ZM7.43244 3.39178C7.3895 3.34899 7.33838 3.3153 7.28212 3.29273C7.22587 3.27015 7.16564 3.25915 7.10503 3.26038C7.04443 3.26162 6.9847 3.27506 6.92941 3.29991C6.87412 3.32476 6.82441 3.3605 6.78325 3.405L4.69562 6.06488L3.43751 4.80617C3.35205 4.72654 3.23901 4.68319 3.12222 4.68525C3.00542 4.68731 2.89399 4.73462 2.81139 4.81722C2.72879 4.89982 2.68147 5.01126 2.67941 5.12805C2.67735 5.24485 2.72071 5.35788 2.80034 5.44334L4.39086 7.03446C4.43371 7.07723 4.48473 7.11093 4.54088 7.13356C4.59704 7.15618 4.65718 7.16726 4.71771 7.16614C4.77824 7.16502 4.83792 7.15171 4.8932 7.12703C4.94848 7.10234 4.99822 7.06677 5.03945 7.02244L7.43905 4.02294C7.52086 3.93788 7.56605 3.82414 7.56493 3.70613C7.5638 3.58812 7.51645 3.47526 7.43304 3.39178H7.43244Z" fill="#46B98C"/>
</svg>
