<svg width="11" height="10" viewBox="0 0 11 10" fill="none" xmlns="http://www.w3.org/2000/svg">
<path d="M10.0415 5.02562C10.0415 6.301 9.53483 7.52414 8.633 8.42597C7.73117 9.3278 6.50803 9.83444 5.23265 9.83444C3.95727 9.83444 2.73413 9.3278 1.8323 8.42597C0.930471 7.52414 0.423828 6.301 0.423828 5.02562C0.423828 3.75024 0.930471 2.5271 1.8323 1.62527C2.73413 0.723439 3.95727 0.216797 5.23265 0.216797C6.50803 0.216797 7.73117 0.723439 8.633 1.62527C9.53483 2.5271 10.0415 3.75024 10.0415 5.02562ZM7.6551 3.20428C7.61216 3.16149 7.56103 3.1278 7.50478 3.10523C7.44852 3.08265 7.38829 3.07165 7.32769 3.07288C7.26709 3.07412 7.20735 3.08756 7.15206 3.11241C7.09677 3.13726 7.04706 3.173 7.00591 3.2175L4.91827 5.87738L3.66017 4.61867C3.5747 4.53904 3.46167 4.49569 3.34487 4.49775C3.22808 4.49981 3.11664 4.54712 3.03404 4.62972C2.95145 4.71232 2.90413 4.82376 2.90207 4.94055C2.90001 5.05735 2.94336 5.17038 3.023 5.25584L4.61352 6.84696C4.65636 6.88973 4.70739 6.92343 4.76354 6.94606C4.8197 6.96868 4.87983 6.97976 4.94036 6.97864C5.00089 6.97752 5.06058 6.96421 5.11586 6.93953C5.17113 6.91484 5.22087 6.87927 5.26211 6.83494L7.66171 3.83544C7.74352 3.75038 7.78871 3.63664 7.78758 3.51863C7.78646 3.40062 7.73911 3.28776 7.6557 3.20428H7.6551Z" fill="#46B98C"/>
</svg>
