<svg width="11" height="10" viewBox="0 0 11 10" fill="none" xmlns="http://www.w3.org/2000/svg">
<path d="M10.353 4.80687C10.353 6.08225 9.84636 7.30539 8.94453 8.20722C8.0427 9.10905 6.81955 9.61569 5.54418 9.61569C4.2688 9.61569 3.04565 9.10905 2.14382 8.20722C1.24199 7.30539 0.735352 6.08225 0.735352 4.80687C0.735352 3.53149 1.24199 2.30835 2.14382 1.40652C3.04565 0.504689 4.2688 -0.00195312 5.54418 -0.00195312C6.81955 -0.00195312 8.0427 0.504689 8.94453 1.40652C9.84636 2.30835 10.353 3.53149 10.353 4.80687ZM7.96662 2.98553C7.92368 2.94274 7.87256 2.90905 7.8163 2.88648C7.76005 2.8639 7.69982 2.8529 7.63921 2.85413C7.57861 2.85537 7.51888 2.86881 7.46359 2.89366C7.4083 2.91851 7.35859 2.95425 7.31743 2.99875L5.2298 5.65863L3.97169 4.39992C3.88623 4.32029 3.77319 4.27694 3.6564 4.279C3.5396 4.28106 3.42817 4.32837 3.34557 4.41097C3.26297 4.49357 3.21565 4.60501 3.21359 4.7218C3.21153 4.8386 3.25489 4.95163 3.33452 5.03709L4.92504 6.62821C4.96789 6.67098 5.01891 6.70468 5.07506 6.72731C5.13122 6.74993 5.19136 6.76101 5.25189 6.75989C5.31242 6.75877 5.3721 6.74546 5.42738 6.72078C5.48266 6.69609 5.5324 6.66052 5.57363 6.61619L7.97323 3.61669C8.05504 3.53163 8.10023 3.41789 8.09911 3.29988C8.09798 3.18187 8.05063 3.06901 7.96722 2.98553H7.96662Z" fill="#46B98C"/>
</svg>
