<svg width="11" height="10" viewBox="0 0 11 10" fill="none" xmlns="http://www.w3.org/2000/svg">
<path d="M10.353 5.02562C10.353 6.301 9.84636 7.52414 8.94453 8.42597C8.0427 9.3278 6.81955 9.83444 5.54418 9.83444C4.2688 9.83444 3.04565 9.3278 2.14382 8.42597C1.24199 7.52414 0.735352 6.301 0.735352 5.02562C0.735352 3.75024 1.24199 2.5271 2.14382 1.62527C3.04565 0.723439 4.2688 0.216797 5.54418 0.216797C6.81955 0.216797 8.0427 0.723439 8.94453 1.62527C9.84636 2.5271 10.353 3.75024 10.353 5.02562ZM7.96662 3.20428C7.92368 3.16149 7.87256 3.1278 7.8163 3.10523C7.76005 3.08265 7.69982 3.07165 7.63921 3.07288C7.57861 3.07412 7.51888 3.08756 7.46359 3.11241C7.4083 3.13726 7.35859 3.173 7.31743 3.2175L5.2298 5.87738L3.97169 4.61867C3.88623 4.53904 3.77319 4.49569 3.6564 4.49775C3.5396 4.49981 3.42817 4.54712 3.34557 4.62972C3.26297 4.71232 3.21565 4.82376 3.21359 4.94055C3.21153 5.05735 3.25489 5.17038 3.33452 5.25584L4.92504 6.84696C4.96789 6.88973 5.01891 6.92343 5.07506 6.94606C5.13122 6.96868 5.19136 6.97976 5.25189 6.97864C5.31242 6.97752 5.3721 6.96421 5.42738 6.93953C5.48266 6.91484 5.5324 6.87927 5.57363 6.83494L7.97323 3.83544C8.05504 3.75038 8.10023 3.63664 8.09911 3.51863C8.09798 3.40062 8.05063 3.28776 7.96722 3.20428H7.96662Z" fill="#46B98C"/>
</svg>
