<svg width="10" height="11" viewBox="0 0 10 11" fill="none" xmlns="http://www.w3.org/2000/svg">
<path d="M9.8862 5.61937C9.8862 6.89475 9.37956 8.11789 8.47773 9.01972C7.5759 9.92155 6.35276 10.4282 5.07738 10.4282C3.802 10.4282 2.57886 9.92155 1.67703 9.01972C0.775197 8.11789 0.268555 6.89475 0.268555 5.61937C0.268555 4.34399 0.775197 3.12085 1.67703 2.21902C2.57886 1.31719 3.802 0.810547 5.07738 0.810547C6.35276 0.810547 7.5759 1.31719 8.47773 2.21902C9.37956 3.12085 9.8862 4.34399 9.8862 5.61937ZM7.49982 3.79803C7.45689 3.75524 7.40576 3.72155 7.34951 3.69898C7.29325 3.6764 7.23302 3.6654 7.17242 3.66663C7.11181 3.66787 7.05208 3.68131 6.99679 3.70616C6.9415 3.73101 6.89179 3.76675 6.85063 3.81125L4.763 6.47113L3.50489 5.21242C3.41943 5.13279 3.3064 5.08944 3.1896 5.0915C3.07281 5.09356 2.96137 5.14087 2.87877 5.22347C2.79617 5.30607 2.74886 5.41751 2.7468 5.5343C2.74474 5.6511 2.78809 5.76413 2.86772 5.84959L4.45824 7.44071C4.50109 7.48348 4.55211 7.51718 4.60827 7.53981C4.66442 7.56243 4.72456 7.57351 4.78509 7.57239C4.84562 7.57127 4.9053 7.55796 4.96058 7.53328C5.01586 7.50859 5.0656 7.47302 5.10683 7.42869L7.50644 4.42919C7.58824 4.34413 7.63343 4.23039 7.63231 4.11238C7.63119 3.99437 7.58384 3.88151 7.50042 3.79803H7.49982Z" fill="#46B98C"/>
</svg>
