<svg width="11" height="11" viewBox="0 0 11 11" fill="none" xmlns="http://www.w3.org/2000/svg">
<path d="M10.0415 5.61937C10.0415 6.89475 9.53483 8.11789 8.633 9.01972C7.73117 9.92155 6.50803 10.4282 5.23265 10.4282C3.95727 10.4282 2.73413 9.92155 1.8323 9.01972C0.930471 8.11789 0.423828 6.89475 0.423828 5.61937C0.423828 4.34399 0.930471 3.12085 1.8323 2.21902C2.73413 1.31719 3.95727 0.810547 5.23265 0.810547C6.50803 0.810547 7.73117 1.31719 8.633 2.21902C9.53483 3.12085 10.0415 4.34399 10.0415 5.61937ZM7.6551 3.79803C7.61216 3.75524 7.56103 3.72155 7.50478 3.69898C7.44852 3.6764 7.38829 3.6654 7.32769 3.66663C7.26709 3.66787 7.20735 3.68131 7.15206 3.70616C7.09677 3.73101 7.04706 3.76675 7.00591 3.81125L4.91827 6.47113L3.66017 5.21242C3.5747 5.13279 3.46167 5.08944 3.34487 5.0915C3.22808 5.09356 3.11664 5.14087 3.03404 5.22347C2.95145 5.30607 2.90413 5.41751 2.90207 5.5343C2.90001 5.6511 2.94336 5.76413 3.023 5.84959L4.61352 7.44071C4.65636 7.48348 4.70739 7.51718 4.76354 7.53981C4.8197 7.56243 4.87983 7.57351 4.94036 7.57239C5.00089 7.57127 5.06058 7.55796 5.11586 7.53328C5.17113 7.50859 5.22087 7.47302 5.26211 7.42869L7.66171 4.42919C7.74352 4.34413 7.78871 4.23039 7.78758 4.11238C7.78646 3.99437 7.73911 3.88151 7.6557 3.79803H7.6551Z" fill="#46B98C"/>
</svg>
