<svg width="11" height="11" viewBox="0 0 11 11" fill="none" xmlns="http://www.w3.org/2000/svg">
<path d="M10.1977 5.61937C10.1977 6.89475 9.69108 8.11789 8.78925 9.01972C7.88742 9.92155 6.66428 10.4282 5.3889 10.4282C4.11352 10.4282 2.89038 9.92155 1.98855 9.01972C1.08672 8.11789 0.580078 6.89475 0.580078 5.61937C0.580078 4.34399 1.08672 3.12085 1.98855 2.21902C2.89038 1.31719 4.11352 0.810547 5.3889 0.810547C6.66428 0.810547 7.88742 1.31719 8.78925 2.21902C9.69108 3.12085 10.1977 4.34399 10.1977 5.61937ZM7.81135 3.79803C7.76841 3.75524 7.71728 3.72155 7.66103 3.69898C7.60477 3.6764 7.54454 3.6654 7.48394 3.66663C7.42334 3.66787 7.3636 3.68131 7.30831 3.70616C7.25302 3.73101 7.20331 3.76675 7.16216 3.81125L5.07452 6.47113L3.81642 5.21242C3.73095 5.13279 3.61792 5.08944 3.50112 5.0915C3.38433 5.09356 3.27289 5.14087 3.19029 5.22347C3.1077 5.30607 3.06038 5.41751 3.05832 5.5343C3.05626 5.6511 3.09961 5.76413 3.17925 5.84959L4.76977 7.44071C4.81261 7.48348 4.86364 7.51718 4.91979 7.53981C4.97595 7.56243 5.03608 7.57351 5.09661 7.57239C5.15714 7.57127 5.21683 7.55796 5.27211 7.53328C5.32738 7.50859 5.37712 7.47302 5.41836 7.42869L7.81796 4.42919C7.89977 4.34413 7.94496 4.23039 7.94383 4.11238C7.94271 3.99437 7.89536 3.88151 7.81195 3.79803H7.81135Z" fill="#46B98C"/>
</svg>
