<svg width="11" height="11" viewBox="0 0 11 11" fill="none" xmlns="http://www.w3.org/2000/svg">
<path d="M10.5083 5.61937C10.5083 6.89475 10.0016 8.11789 9.0998 9.01972C8.19797 9.92155 6.97483 10.4282 5.69945 10.4282C4.42407 10.4282 3.20093 9.92155 2.2991 9.01972C1.39727 8.11789 0.890625 6.89475 0.890625 5.61937C0.890625 4.34399 1.39727 3.12085 2.2991 2.21902C3.20093 1.31719 4.42407 0.810547 5.69945 0.810547C6.97483 0.810547 8.19797 1.31719 9.0998 2.21902C10.0016 3.12085 10.5083 4.34399 10.5083 5.61937ZM8.12189 3.79803C8.07896 3.75524 8.02783 3.72155 7.97158 3.69898C7.91532 3.6764 7.85509 3.6654 7.79449 3.66663C7.73388 3.66787 7.67415 3.68131 7.61886 3.70616C7.56357 3.73101 7.51386 3.76675 7.4727 3.81125L5.38507 6.47113L4.12696 5.21242C4.0415 5.13279 3.92847 5.08944 3.81167 5.0915C3.69488 5.09356 3.58344 5.14087 3.50084 5.22347C3.41824 5.30607 3.37093 5.41751 3.36887 5.5343C3.36681 5.6511 3.41016 5.76413 3.48979 5.84959L5.08031 7.44071C5.12316 7.48348 5.17418 7.51718 5.23034 7.53981C5.28649 7.56243 5.34663 7.57351 5.40716 7.57239C5.46769 7.57127 5.52737 7.55796 5.58265 7.53328C5.63793 7.50859 5.68767 7.47302 5.7289 7.42869L8.12851 4.42919C8.21031 4.34413 8.2555 4.23039 8.25438 4.11238C8.25326 3.99437 8.20591 3.88151 8.12249 3.79803H8.12189Z" fill="#46B98C"/>
</svg>
