<svg width="11" height="11" viewBox="0 0 11 11" fill="none" xmlns="http://www.w3.org/2000/svg">
<path d="M10.1977 5.21312C10.1977 6.4885 9.69108 7.71164 8.78925 8.61347C7.88742 9.5153 6.66428 10.0219 5.3889 10.0219C4.11352 10.0219 2.89038 9.5153 1.98855 8.61347C1.08672 7.71164 0.580078 6.4885 0.580078 5.21312C0.580078 3.93774 1.08672 2.7146 1.98855 1.81277C2.89038 0.910939 4.11352 0.404297 5.3889 0.404297C6.66428 0.404297 7.88742 0.910939 8.78925 1.81277C9.69108 2.7146 10.1977 3.93774 10.1977 5.21312ZM7.81135 3.39178C7.76841 3.34899 7.71728 3.3153 7.66103 3.29273C7.60477 3.27015 7.54454 3.25915 7.48394 3.26038C7.42334 3.26162 7.3636 3.27506 7.30831 3.29991C7.25302 3.32476 7.20331 3.3605 7.16216 3.405L5.07452 6.06488L3.81642 4.80617C3.73095 4.72654 3.61792 4.68319 3.50112 4.68525C3.38433 4.68731 3.27289 4.73462 3.19029 4.81722C3.1077 4.89982 3.06038 5.01126 3.05832 5.12805C3.05626 5.24485 3.09961 5.35788 3.17925 5.44334L4.76977 7.03446C4.81261 7.07723 4.86364 7.11093 4.91979 7.13356C4.97595 7.15618 5.03608 7.16726 5.09661 7.16614C5.15714 7.16502 5.21683 7.15171 5.27211 7.12703C5.32738 7.10234 5.37712 7.06677 5.41836 7.02244L7.81796 4.02294C7.89977 3.93788 7.94496 3.82414 7.94383 3.70613C7.94271 3.58812 7.89536 3.47526 7.81195 3.39178H7.81135Z" fill="#46B98C"/>
</svg>
