<svg width="30" height="31" viewBox="0 0 30 31" fill="none" xmlns="http://www.w3.org/2000/svg">
<path d="M14.73 30.378C22.8662 30.378 29.46 23.7841 29.46 15.648C29.46 7.5118 22.8662 0.917969 14.73 0.917969C6.59383 0.917969 0 7.5118 0 15.648C0 23.7813 6.59383 30.378 14.73 30.378Z" stroke="#250A20" stroke-width="0.5"/>
<mask id="path-2-inside-1_15764_7176" fill="white">
<path d="M25.9163 18.6385C25.3164 17.9395 24.6994 17.2547 24.0768 16.5811L23.1062 15.5454L22.1185 14.5237C21.4563 13.8502 20.7912 13.1767 20.112 12.5173L19.0933 11.5296L18.3009 10.7825C18.649 10.4231 18.9914 10.0637 19.3366 9.70147C19.7611 9.25716 20.18 8.81003 20.596 8.35723C21.4308 7.4573 22.2572 6.54605 23.0552 5.60933C22.1128 6.40172 21.1931 7.21675 20.2875 8.04594C19.8319 8.45911 19.3819 8.87229 18.9319 9.29395C18.482 9.71279 18.032 10.1288 17.5905 10.5561L17.3528 10.7853L17.5905 11.0316L18.366 11.8296L17.667 12.5286H12.2815L11.3901 11.6768C11.5938 11.4645 11.8004 11.2551 12.0014 11.04L12.2419 10.7853L12.0042 10.5505C11.5599 10.1118 11.1212 9.66751 10.6713 9.23452C10.2213 8.80437 9.77699 8.36289 9.32137 7.9384C8.41578 7.07809 7.49604 6.23192 6.548 5.41406C7.33473 6.38757 8.14976 7.33561 8.97894 8.2695C9.38929 8.74211 9.81378 9.19773 10.2326 9.66185C10.5722 10.0411 10.9203 10.4118 11.2656 10.7825C10.6769 11.357 10.1024 11.94 9.51664 12.5201C8.86857 13.1908 8.20919 13.853 7.57245 14.5322L6.61309 15.551L5.66788 16.584C5.06226 17.2547 4.46514 17.931 3.8765 18.6187C3.44918 18.2848 3.02185 17.9565 2.58887 17.6282C2.99638 18.0386 3.40673 18.4432 3.8199 18.8451L3.88499 18.9102L3.96423 18.8394C4.29251 18.5536 4.61796 18.2621 4.94057 17.9706L6.57064 19.6007C6.265 19.9092 6.07822 20.3308 6.07822 20.7978C6.07822 21.7402 6.84514 22.5071 7.78752 22.5071C7.88657 22.5071 7.97996 22.4958 8.07335 22.4816C8.0592 22.5722 8.04788 22.6627 8.04788 22.7561C8.04788 23.6985 8.8148 24.4654 9.75718 24.4654C9.85057 24.4654 9.94396 24.4541 10.0317 24.44C10.0232 24.505 10.0175 24.573 10.0175 24.6409C10.0175 25.5436 10.7505 26.2794 11.6533 26.2794C11.7693 26.2794 11.8825 26.2653 11.9929 26.2426C11.9872 26.2936 11.9844 26.3417 11.9844 26.3926C11.9844 27.1822 12.6268 27.8246 13.4163 27.8246C13.7899 27.8246 14.1295 27.6803 14.387 27.4426C14.4097 27.4793 14.4295 27.5105 14.4493 27.5359C14.721 27.9067 15.1483 28.1246 15.6039 28.1246C15.6237 28.1246 15.6407 28.1246 15.6605 28.1246C16.4501 28.0935 17.067 27.4284 17.0387 26.6388C17.0359 26.5907 17.033 26.5398 17.0302 26.4832C17.1123 26.4945 17.1943 26.5002 17.2764 26.5002C17.3019 26.5002 17.3274 26.5002 17.3528 26.5002C17.7886 26.4832 18.1933 26.2992 18.4905 25.9766C18.7876 25.6568 18.9433 25.238 18.9263 24.8022C18.9235 24.7371 18.9206 24.6635 18.915 24.5843C18.9829 24.5956 19.0508 24.6013 19.1187 24.6013C19.1357 24.6013 19.1527 24.6013 19.1697 24.6013C20.112 24.5645 20.8478 23.7693 20.8111 22.8297C20.8082 22.7335 20.7969 22.6401 20.7856 22.5524C20.845 22.558 20.9073 22.5609 20.9695 22.5609C20.9978 22.5609 21.0233 22.5609 21.0516 22.5609C21.9911 22.5241 22.7298 21.7288 22.693 20.7893C22.6873 20.645 22.6562 20.4214 22.5968 20.2063L24.8919 18.0244C25.206 18.2961 25.5201 18.5678 25.8399 18.8338L25.9107 18.8932L25.9644 18.8338C26.2672 18.497 26.5644 18.1518 26.8644 17.8093C26.5446 18.0867 26.2248 18.364 25.9107 18.647L25.9163 18.6385ZM6.84231 20.795C6.84231 20.2714 7.26681 19.8469 7.79035 19.8469C8.3139 19.8469 8.73839 20.2714 8.73839 20.795C8.73839 21.3185 8.31107 21.743 7.79035 21.743C7.26681 21.743 6.84231 21.3157 6.84231 20.795ZM8.81197 22.7505C8.81197 22.2269 9.23647 21.8024 9.76001 21.8024C10.2836 21.8024 10.7081 22.2269 10.7081 22.7505C10.7081 23.274 10.2807 23.6985 9.76001 23.6985C9.23647 23.6985 8.81197 23.274 8.81197 22.7505ZM10.7816 24.6381C10.7816 24.1541 11.175 23.7608 11.6589 23.7608C12.1428 23.7608 12.5362 24.1541 12.5362 24.6381C12.5362 25.122 12.1428 25.5153 11.6589 25.5153C11.175 25.5153 10.7816 25.122 10.7816 24.6381ZM13.4248 27.0633C13.0541 27.0633 12.7513 26.7605 12.7513 26.3898C12.7513 26.0191 13.0541 25.7163 13.4248 25.7163C13.7956 25.7163 14.0984 26.0191 14.0984 26.3898C14.0984 26.7605 13.7956 27.0633 13.4248 27.0633ZM21.0261 21.7968C20.8393 21.8024 20.5705 21.7741 20.3667 21.5987L20.3328 21.5647L19.3112 20.5912C19.2687 20.5403 19.2263 20.4865 19.1782 20.4412C19.0565 20.3252 18.9178 20.229 18.7565 20.1526C18.5952 20.079 18.4169 20.0224 18.1877 20.0195C18.199 20.2488 18.2669 20.4242 18.3461 20.5827C18.4282 20.7327 18.5273 20.8629 18.6433 20.9761L18.632 20.9874L19.8177 22.1194C19.9564 22.2467 20.047 22.5212 20.0583 22.8523C20.0781 23.3759 19.6677 23.8174 19.147 23.8372C18.8442 23.8542 18.5895 23.6391 18.4537 23.5117L17.2651 22.3769C17.1434 22.2609 17.0047 22.1647 16.8434 22.0883C16.6821 22.0147 16.5038 21.9581 16.2746 21.9552C16.2888 22.1845 16.3538 22.3599 16.4331 22.5184C16.5152 22.6741 16.6199 22.8099 16.7416 22.9259L17.9216 24.0523C17.9245 24.0551 17.9245 24.0551 17.9273 24.0579L18.0094 24.1372C18.1396 24.2588 18.1622 24.5305 18.1735 24.8277C18.182 25.0626 18.0999 25.2861 17.9415 25.4587C17.783 25.6314 17.5651 25.7304 17.3302 25.7389C17.0585 25.7502 16.801 25.671 16.6538 25.5352L16.0227 24.9324L16.0058 24.9494C15.9803 24.9211 15.9577 24.8899 15.9294 24.8645C15.8077 24.7484 15.669 24.6522 15.5077 24.5758C15.3464 24.5022 15.1681 24.4456 14.9389 24.4428C14.9502 24.672 15.0181 24.8475 15.0973 25.006C15.1794 25.1616 15.2841 25.2974 15.403 25.4135C15.4483 25.4559 15.4964 25.4927 15.5473 25.5295L16.1756 26.1294C16.2689 26.2257 16.2803 26.5115 16.2859 26.67C16.3001 27.0407 16.0086 27.3548 15.6379 27.369C15.4143 27.3803 15.202 27.2728 15.069 27.0945C14.9756 26.9643 14.8625 26.687 14.8568 26.5709H14.8455C14.854 26.5143 14.8568 26.4549 14.8568 26.3955C14.8568 25.6059 14.2144 24.9635 13.4248 24.9635C13.3711 24.9635 13.3173 24.9663 13.2635 24.972C13.2862 24.8673 13.2975 24.7569 13.2975 24.6437C13.2975 23.741 12.5645 23.0052 11.6618 23.0052C11.5882 23.0052 11.5174 23.0108 11.4467 23.0221C11.4608 22.9372 11.4693 22.8467 11.4693 22.7561C11.4693 21.8137 10.7024 21.0497 9.76001 21.0497C9.6638 21.0497 9.56758 21.061 9.47419 21.0751C9.48834 20.9846 9.49966 20.894 9.49966 20.8006C9.49966 19.8582 8.73273 19.0913 7.79035 19.0913C7.59509 19.0913 7.40831 19.1253 7.23285 19.1875L5.50374 17.4612C5.68486 17.2943 5.86597 17.1301 6.04709 16.9632L7.06588 16.0038L8.07052 15.0303C8.74405 14.3822 9.39495 13.7144 10.0572 13.0578C10.326 12.7805 10.5949 12.5031 10.8665 12.2286L11.9815 13.2955H13.8493L9.9666 17.2037L10.1336 17.4612C11.1326 19.0121 12.8362 18.7461 13.5946 18.3867L13.6654 18.3527L13.7191 18.2933C13.7305 18.2819 14.7266 17.1556 15.5926 16.5953C16.1925 16.2076 17.5424 16.4594 18.1169 16.6151L21.7959 20.2176C21.861 20.345 21.9289 20.6223 21.9345 20.8204C21.9544 21.344 21.544 21.7854 21.0233 21.8053L21.0261 21.7968ZM22.1949 19.5356L18.5131 15.9302L18.4226 15.9019C18.2018 15.8368 16.218 15.2765 15.1794 15.9472C14.3417 16.4906 13.4446 17.4528 13.2069 17.7159C12.9154 17.832 11.7523 18.2084 10.9486 17.2801L14.9162 13.287H17.9811L18.898 12.3701L19.58 13.055C20.2479 13.7229 20.9299 14.3794 21.6119 15.0331L22.6449 16.0066L23.692 16.9632C23.8986 17.15 24.108 17.3311 24.3174 17.5178L22.1892 19.5413L22.1949 19.5356Z"/>
</mask>
<path d="M25.9163 18.6385C25.3164 17.9395 24.6994 17.2547 24.0768 16.5811L23.1062 15.5454L22.1185 14.5237C21.4563 13.8502 20.7912 13.1767 20.112 12.5173L19.0933 11.5296L18.3009 10.7825C18.649 10.4231 18.9914 10.0637 19.3366 9.70147C19.7611 9.25716 20.18 8.81003 20.596 8.35723C21.4308 7.4573 22.2572 6.54605 23.0552 5.60933C22.1128 6.40172 21.1931 7.21675 20.2875 8.04594C19.8319 8.45911 19.3819 8.87229 18.9319 9.29395C18.482 9.71279 18.032 10.1288 17.5905 10.5561L17.3528 10.7853L17.5905 11.0316L18.366 11.8296L17.667 12.5286H12.2815L11.3901 11.6768C11.5938 11.4645 11.8004 11.2551 12.0014 11.04L12.2419 10.7853L12.0042 10.5505C11.5599 10.1118 11.1212 9.66751 10.6713 9.23452C10.2213 8.80437 9.77699 8.36289 9.32137 7.9384C8.41578 7.07809 7.49604 6.23192 6.548 5.41406C7.33473 6.38757 8.14976 7.33561 8.97894 8.2695C9.38929 8.74211 9.81378 9.19773 10.2326 9.66185C10.5722 10.0411 10.9203 10.4118 11.2656 10.7825C10.6769 11.357 10.1024 11.94 9.51664 12.5201C8.86857 13.1908 8.20919 13.853 7.57245 14.5322L6.61309 15.551L5.66788 16.584C5.06226 17.2547 4.46514 17.931 3.8765 18.6187C3.44918 18.2848 3.02185 17.9565 2.58887 17.6282C2.99638 18.0386 3.40673 18.4432 3.8199 18.8451L3.88499 18.9102L3.96423 18.8394C4.29251 18.5536 4.61796 18.2621 4.94057 17.9706L6.57064 19.6007C6.265 19.9092 6.07822 20.3308 6.07822 20.7978C6.07822 21.7402 6.84514 22.5071 7.78752 22.5071C7.88657 22.5071 7.97996 22.4958 8.07335 22.4816C8.0592 22.5722 8.04788 22.6627 8.04788 22.7561C8.04788 23.6985 8.8148 24.4654 9.75718 24.4654C9.85057 24.4654 9.94396 24.4541 10.0317 24.44C10.0232 24.505 10.0175 24.573 10.0175 24.6409C10.0175 25.5436 10.7505 26.2794 11.6533 26.2794C11.7693 26.2794 11.8825 26.2653 11.9929 26.2426C11.9872 26.2936 11.9844 26.3417 11.9844 26.3926C11.9844 27.1822 12.6268 27.8246 13.4163 27.8246C13.7899 27.8246 14.1295 27.6803 14.387 27.4426C14.4097 27.4793 14.4295 27.5105 14.4493 27.5359C14.721 27.9067 15.1483 28.1246 15.6039 28.1246C15.6237 28.1246 15.6407 28.1246 15.6605 28.1246C16.4501 28.0935 17.067 27.4284 17.0387 26.6388C17.0359 26.5907 17.033 26.5398 17.0302 26.4832C17.1123 26.4945 17.1943 26.5002 17.2764 26.5002C17.3019 26.5002 17.3274 26.5002 17.3528 26.5002C17.7886 26.4832 18.1933 26.2992 18.4905 25.9766C18.7876 25.6568 18.9433 25.238 18.9263 24.8022C18.9235 24.7371 18.9206 24.6635 18.915 24.5843C18.9829 24.5956 19.0508 24.6013 19.1187 24.6013C19.1357 24.6013 19.1527 24.6013 19.1697 24.6013C20.112 24.5645 20.8478 23.7693 20.8111 22.8297C20.8082 22.7335 20.7969 22.6401 20.7856 22.5524C20.845 22.558 20.9073 22.5609 20.9695 22.5609C20.9978 22.5609 21.0233 22.5609 21.0516 22.5609C21.9911 22.5241 22.7298 21.7288 22.693 20.7893C22.6873 20.645 22.6562 20.4214 22.5968 20.2063L24.8919 18.0244C25.206 18.2961 25.5201 18.5678 25.8399 18.8338L25.9107 18.8932L25.9644 18.8338C26.2672 18.497 26.5644 18.1518 26.8644 17.8093C26.5446 18.0867 26.2248 18.364 25.9107 18.647L25.9163 18.6385ZM6.84231 20.795C6.84231 20.2714 7.26681 19.8469 7.79035 19.8469C8.3139 19.8469 8.73839 20.2714 8.73839 20.795C8.73839 21.3185 8.31107 21.743 7.79035 21.743C7.26681 21.743 6.84231 21.3157 6.84231 20.795ZM8.81197 22.7505C8.81197 22.2269 9.23647 21.8024 9.76001 21.8024C10.2836 21.8024 10.7081 22.2269 10.7081 22.7505C10.7081 23.274 10.2807 23.6985 9.76001 23.6985C9.23647 23.6985 8.81197 23.274 8.81197 22.7505ZM10.7816 24.6381C10.7816 24.1541 11.175 23.7608 11.6589 23.7608C12.1428 23.7608 12.5362 24.1541 12.5362 24.6381C12.5362 25.122 12.1428 25.5153 11.6589 25.5153C11.175 25.5153 10.7816 25.122 10.7816 24.6381ZM13.4248 27.0633C13.0541 27.0633 12.7513 26.7605 12.7513 26.3898C12.7513 26.0191 13.0541 25.7163 13.4248 25.7163C13.7956 25.7163 14.0984 26.0191 14.0984 26.3898C14.0984 26.7605 13.7956 27.0633 13.4248 27.0633ZM21.0261 21.7968C20.8393 21.8024 20.5705 21.7741 20.3667 21.5987L20.3328 21.5647L19.3112 20.5912C19.2687 20.5403 19.2263 20.4865 19.1782 20.4412C19.0565 20.3252 18.9178 20.229 18.7565 20.1526C18.5952 20.079 18.4169 20.0224 18.1877 20.0195C18.199 20.2488 18.2669 20.4242 18.3461 20.5827C18.4282 20.7327 18.5273 20.8629 18.6433 20.9761L18.632 20.9874L19.8177 22.1194C19.9564 22.2467 20.047 22.5212 20.0583 22.8523C20.0781 23.3759 19.6677 23.8174 19.147 23.8372C18.8442 23.8542 18.5895 23.6391 18.4537 23.5117L17.2651 22.3769C17.1434 22.2609 17.0047 22.1647 16.8434 22.0883C16.6821 22.0147 16.5038 21.9581 16.2746 21.9552C16.2888 22.1845 16.3538 22.3599 16.4331 22.5184C16.5152 22.6741 16.6199 22.8099 16.7416 22.9259L17.9216 24.0523C17.9245 24.0551 17.9245 24.0551 17.9273 24.0579L18.0094 24.1372C18.1396 24.2588 18.1622 24.5305 18.1735 24.8277C18.182 25.0626 18.0999 25.2861 17.9415 25.4587C17.783 25.6314 17.5651 25.7304 17.3302 25.7389C17.0585 25.7502 16.801 25.671 16.6538 25.5352L16.0227 24.9324L16.0058 24.9494C15.9803 24.9211 15.9577 24.8899 15.9294 24.8645C15.8077 24.7484 15.669 24.6522 15.5077 24.5758C15.3464 24.5022 15.1681 24.4456 14.9389 24.4428C14.9502 24.672 15.0181 24.8475 15.0973 25.006C15.1794 25.1616 15.2841 25.2974 15.403 25.4135C15.4483 25.4559 15.4964 25.4927 15.5473 25.5295L16.1756 26.1294C16.2689 26.2257 16.2803 26.5115 16.2859 26.67C16.3001 27.0407 16.0086 27.3548 15.6379 27.369C15.4143 27.3803 15.202 27.2728 15.069 27.0945C14.9756 26.9643 14.8625 26.687 14.8568 26.5709H14.8455C14.854 26.5143 14.8568 26.4549 14.8568 26.3955C14.8568 25.6059 14.2144 24.9635 13.4248 24.9635C13.3711 24.9635 13.3173 24.9663 13.2635 24.972C13.2862 24.8673 13.2975 24.7569 13.2975 24.6437C13.2975 23.741 12.5645 23.0052 11.6618 23.0052C11.5882 23.0052 11.5174 23.0108 11.4467 23.0221C11.4608 22.9372 11.4693 22.8467 11.4693 22.7561C11.4693 21.8137 10.7024 21.0497 9.76001 21.0497C9.6638 21.0497 9.56758 21.061 9.47419 21.0751C9.48834 20.9846 9.49966 20.894 9.49966 20.8006C9.49966 19.8582 8.73273 19.0913 7.79035 19.0913C7.59509 19.0913 7.40831 19.1253 7.23285 19.1875L5.50374 17.4612C5.68486 17.2943 5.86597 17.1301 6.04709 16.9632L7.06588 16.0038L8.07052 15.0303C8.74405 14.3822 9.39495 13.7144 10.0572 13.0578C10.326 12.7805 10.5949 12.5031 10.8665 12.2286L11.9815 13.2955H13.8493L9.9666 17.2037L10.1336 17.4612C11.1326 19.0121 12.8362 18.7461 13.5946 18.3867L13.6654 18.3527L13.7191 18.2933C13.7305 18.2819 14.7266 17.1556 15.5926 16.5953C16.1925 16.2076 17.5424 16.4594 18.1169 16.6151L21.7959 20.2176C21.861 20.345 21.9289 20.6223 21.9345 20.8204C21.9544 21.344 21.544 21.7854 21.0233 21.8053L21.0261 21.7968ZM22.1949 19.5356L18.5131 15.9302L18.4226 15.9019C18.2018 15.8368 16.218 15.2765 15.1794 15.9472C14.3417 16.4906 13.4446 17.4528 13.2069 17.7159C12.9154 17.832 11.7523 18.2084 10.9486 17.2801L14.9162 13.287H17.9811L18.898 12.3701L19.58 13.055C20.2479 13.7229 20.9299 14.3794 21.6119 15.0331L22.6449 16.0066L23.692 16.9632C23.8986 17.15 24.108 17.3311 24.3174 17.5178L22.1892 19.5413L22.1949 19.5356Z" stroke="#250A20" mask="url(#path-2-inside-1_15764_7176)"/>
<path d="M26.057 16.2848C26.057 16.3976 25.9661 16.4876 25.8542 16.4876C25.7432 16.4876 25.6514 16.3958 25.6514 16.2848C25.6514 16.172 25.7422 16.082 25.8542 16.082C25.9669 16.082 26.057 16.1728 26.057 16.2848Z" fill="#837550" stroke="#250A20" stroke-width="0.5"/>
<path d="M3.89624 16.2338C3.89624 16.3345 3.81467 16.4168 3.71326 16.4168C3.61255 16.4168 3.53027 16.3352 3.53027 16.2338C3.53027 16.1331 3.61185 16.0508 3.71326 16.0508C3.81397 16.0508 3.89624 16.1324 3.89624 16.2338Z" stroke="#250A20" stroke-width="0.5"/>
</svg>
