<svg width="30" height="30" viewBox="0 0 30 30" fill="none" xmlns="http://www.w3.org/2000/svg">
<path d="M14.73 29.917C22.8662 29.917 29.46 23.3232 29.46 15.187C29.46 7.05369 22.8662 0.457031 14.73 0.457031C6.59383 0.457031 0 7.05086 0 15.187C0 23.3232 6.59383 29.917 14.73 29.917Z" stroke="#250A20" stroke-width="0.5"/>
<path d="M17.6614 17.656C17.6614 17.424 17.4803 17.2344 17.2568 17.2344H11.7836C11.56 17.2344 11.3789 17.424 11.3789 17.656C11.3789 17.8881 11.56 18.0777 11.7836 18.0777H17.2568C17.4803 18.0777 17.6614 17.8881 17.6614 17.656Z" fill="#250A20"/>
<path d="M17.4889 19.0779C17.4889 18.8459 17.3078 18.6562 17.0843 18.6562H11.9535C11.7299 18.6562 11.5488 18.8459 11.5488 19.0779C11.5488 19.31 11.7299 19.4996 11.9535 19.4996H17.0843C17.3078 19.4996 17.4889 19.31 17.4889 19.0779Z" fill="#250A20"/>
<path d="M17.3194 20.4998C17.3194 20.2677 17.1382 20.0781 16.9147 20.0781H12.1264C11.9028 20.0781 11.7217 20.2677 11.7217 20.4998C11.7217 20.7318 11.9028 20.9215 12.1264 20.9215H16.9147C17.1382 20.9215 17.3194 20.7318 17.3194 20.4998Z" fill="#250A20"/>
<path d="M16.9773 21.9217C16.9773 21.6896 16.7962 21.5 16.5726 21.5H12.4691C12.2456 21.5 12.0645 21.6896 12.0645 21.9217C12.0645 22.1537 12.2456 22.3433 12.4691 22.3433H16.5726C16.7962 22.3433 16.9773 22.1537 16.9773 21.9217Z" fill="#250A20"/>
<path d="M16.2304 22.9219H12.809C12.5854 22.9219 12.4043 23.1115 12.4043 23.3435C12.4043 23.5756 12.5854 23.7652 12.809 23.7652H13.4514C13.525 23.9237 13.8278 24.4755 14.5183 24.4755C15.2116 24.4755 15.5116 23.9237 15.5852 23.7652H16.2276C16.4512 23.7652 16.6323 23.5756 16.6323 23.3435C16.6323 23.1115 16.4512 22.9219 16.2276 22.9219H16.2304Z" fill="#250A20"/>
<path d="M12.1239 7.77693C12.3362 7.77693 12.6022 7.85333 12.9135 7.94106C13.3465 8.06558 13.887 8.2184 14.5181 8.2184C15.152 8.2184 15.6925 8.06558 16.1255 7.93823C16.434 7.8505 16.6972 7.7741 16.9122 7.7741C17.4273 7.7741 18.9017 8.28349 18.9017 10.5503C18.9017 12.0502 18.3669 13.1284 17.9735 13.918C17.8518 14.1613 17.7471 14.3736 17.6679 14.5717C17.6254 14.6792 17.5264 14.7471 17.4047 14.7471C17.099 14.7471 16.8472 15.0047 16.8472 15.3245V15.814H12.1862V15.3245C12.1862 15.0075 11.9343 14.7471 11.623 14.7471C11.5098 14.7471 11.408 14.6792 11.3683 14.5717C11.2919 14.3764 11.1872 14.167 11.0599 13.9151C10.6693 13.1284 10.1316 12.053 10.1316 10.5503C10.1316 8.28349 11.6061 7.7741 12.1211 7.7741L12.1239 7.77693ZM10.6184 14.8943C10.7514 15.2339 11.0316 15.4801 11.3768 15.565V16.2385C11.3768 16.4706 11.5579 16.6602 11.7815 16.6602H17.2547C17.4782 16.6602 17.6594 16.4706 17.6594 16.2385V15.565C18.0018 15.4829 18.2848 15.2367 18.4178 14.8943C18.4857 14.7245 18.5904 14.5123 18.6923 14.3057C19.097 13.4935 19.7111 12.2624 19.7111 10.5531C19.7111 7.59864 17.6367 6.93359 16.9094 6.93359C16.5868 6.93359 16.2585 7.02698 15.9076 7.12886C15.5001 7.24772 15.0388 7.3779 14.5153 7.3779C13.9917 7.3779 13.5304 7.24489 13.1257 7.12886C12.7748 7.02981 12.4466 6.93359 12.1239 6.93359C11.3966 6.93359 9.32227 7.59864 9.32227 10.5531C9.32227 12.2596 9.93354 13.4906 10.3439 14.3085C10.4571 14.5349 10.5533 14.7302 10.6184 14.8915V14.8943Z" fill="#250A20"/>
<path d="M11.2235 10.8099C11.4244 10.8099 11.5914 10.6401 11.5914 10.4279C11.5914 9.77699 12.1008 9.25062 12.7262 9.25062C12.9271 9.25062 13.0912 9.08082 13.0912 8.8714C13.0912 8.66199 12.9271 8.49219 12.7262 8.49219C11.6961 8.49219 10.8584 9.36099 10.8584 10.4307C10.8584 10.6401 11.0225 10.8128 11.2263 10.8128L11.2235 10.8099Z" fill="#250A20"/>
<path d="M11.2241 11.125C10.9864 11.125 10.7939 11.3259 10.7939 11.5721C10.7939 11.8212 10.9864 12.0221 11.2241 12.0221C11.4618 12.0221 11.6571 11.8212 11.6571 11.5721C11.6571 11.3259 11.4646 11.125 11.2241 11.125Z" fill="#250A20"/>
</svg>
