<svg width="29" height="29" viewBox="0 0 29 29" fill="none" xmlns="http://www.w3.org/2000/svg">
<path d="M5.27986 11.8797C5.30694 11.8634 5.33943 11.8472 5.3665 11.8363C5.42607 11.8093 5.48563 11.7822 5.5452 11.7551C5.57228 11.7443 5.60477 11.728 5.63184 11.7172C5.65892 11.7064 5.69141 11.6955 5.71848 11.6847C5.74556 11.6739 5.77263 11.6631 5.79971 11.6522C5.82678 11.6414 5.85386 11.636 5.88094 11.6251C5.90801 11.6143 5.93509 11.6035 5.96216 11.5927C5.98924 11.5818 6.01631 11.5764 6.03797 11.5656C6.06505 11.5548 6.08671 11.5493 6.11378 11.5385C6.14086 11.5331 6.16252 11.5223 6.18418 11.5168C6.27624 11.4844 6.35746 11.4627 6.42244 11.441C6.49284 11.4194 6.54699 11.4031 6.5849 11.3923C6.6228 11.3815 6.63905 11.3706 6.63905 11.3706C6.63905 11.3706 6.61739 11.3652 6.57948 11.3544C6.56324 11.349 6.53616 11.3436 6.50908 11.3327C6.48201 11.3273 6.44952 11.3165 6.41703 11.3111C6.34663 11.2948 6.25999 11.2786 6.1571 11.2678C6.13003 11.2623 6.10837 11.2623 6.07588 11.2569C6.0488 11.2569 6.02173 11.2515 5.99465 11.2515C5.93509 11.2461 5.87552 11.2461 5.81595 11.2461C5.78346 11.2461 5.75097 11.2461 5.71848 11.2461C5.68599 11.2461 5.6535 11.2515 5.6156 11.2515C5.5452 11.2569 5.47481 11.2678 5.39899 11.2786C5.36109 11.284 5.32318 11.2894 5.29069 11.3002C5.25279 11.3057 5.21488 11.3165 5.17698 11.3219C5.10116 11.3436 5.02535 11.3652 4.94413 11.3923C4.78709 11.4465 4.63005 11.5168 4.47843 11.6089C4.32681 11.701 4.18602 11.8093 4.05605 11.9338C3.92609 12.0584 3.81779 12.1991 3.72032 12.3454C3.62285 12.4916 3.55245 12.6486 3.4983 12.8002C3.47123 12.876 3.44957 12.9518 3.42791 13.0277C3.41708 13.0656 3.41166 13.1035 3.40083 13.1414C3.39542 13.1793 3.38459 13.2118 3.37917 13.2497C3.36834 13.3201 3.35751 13.3905 3.35209 13.4609C3.35209 13.4934 3.34668 13.5258 3.34668 13.5583C3.34668 13.5908 3.34668 13.6233 3.34668 13.6558C3.34668 13.7208 3.34668 13.7749 3.35209 13.8345C3.35209 13.8616 3.35751 13.8887 3.35751 13.9157C3.35751 13.9428 3.36292 13.9699 3.36834 13.9915C3.37917 14.089 3.39542 14.1756 3.41166 14.246C3.41708 14.2785 3.42791 14.311 3.43332 14.3381C3.43874 14.3652 3.44957 14.3868 3.45498 14.4031C3.46581 14.441 3.47123 14.4572 3.47123 14.4572C3.47123 14.4572 3.47664 14.4356 3.49289 14.4031C3.50913 14.3652 3.51996 14.311 3.54704 14.246C3.5687 14.1811 3.59577 14.0998 3.62826 14.0078C3.63909 13.9861 3.64451 13.959 3.64992 13.9374C3.65534 13.9157 3.66617 13.8887 3.677 13.867C3.68783 13.8399 3.69324 13.8183 3.70407 13.7912C3.71491 13.7641 3.72574 13.737 3.73657 13.7154C3.7474 13.6883 3.75823 13.6612 3.76364 13.6341C3.77447 13.6071 3.7853 13.58 3.79613 13.5529C3.81779 13.4988 3.84487 13.4392 3.86653 13.385C3.8936 13.3255 3.92068 13.2713 3.94775 13.2118C3.964 13.1847 3.98024 13.1522 3.99107 13.1251C4.00732 13.098 4.02356 13.0656 4.03981 13.0385C4.10479 12.9248 4.17519 12.8111 4.26183 12.7027C4.34305 12.5944 4.43511 12.4916 4.52717 12.3995C4.62464 12.3074 4.72752 12.2154 4.84124 12.1396C4.94954 12.0584 5.06867 11.988 5.18239 11.923C5.20947 11.9067 5.24196 11.8905 5.26903 11.8742L5.27986 11.8797Z" fill="#250A20" stroke="#250A20" stroke-width="0.2" stroke-miterlimit="10" stroke-linecap="round" stroke-linejoin="round"/>
<path d="M9.54214 8.92374C9.44467 9.01579 9.29305 9.01579 9.20099 8.92374L8.6649 8.39847C8.56743 8.30642 8.56743 8.15479 8.6649 8.05732C8.76237 7.96527 8.91399 7.96527 9.01146 8.05732L9.54756 8.58259C9.64503 8.67464 9.64503 8.82626 9.54756 8.92374H9.54214Z" fill="#250A20" stroke="#250A20" stroke-width="0.2" stroke-miterlimit="10" stroke-linecap="round" stroke-linejoin="round"/>
<path d="M10.1155 8.92374C10.213 9.01579 10.3646 9.01579 10.4621 8.92374L10.9982 8.39847C11.0957 8.30642 11.0957 8.15479 10.9982 8.05732C10.9007 7.96527 10.7491 7.96527 10.657 8.05732L10.121 8.58259C10.0235 8.67464 10.0235 8.82626 10.121 8.92374H10.1155Z" fill="#250A20" stroke="#250A20" stroke-width="0.2" stroke-miterlimit="10" stroke-linecap="round" stroke-linejoin="round"/>
<path d="M9.54214 9.56123C9.44467 9.46917 9.29305 9.46917 9.20099 9.56123L8.6649 10.0865C8.56743 10.1785 8.56743 10.3302 8.6649 10.4276C8.76237 10.5197 8.91399 10.5197 9.01146 10.4276L9.54756 9.90238C9.64503 9.81032 9.64503 9.6587 9.54756 9.56123H9.54214Z" fill="#250A20" stroke="#250A20" stroke-width="0.2" stroke-miterlimit="10" stroke-linecap="round" stroke-linejoin="round"/>
<path d="M10.1155 9.56123C10.213 9.46917 10.3646 9.46917 10.4621 9.56123L10.9982 10.0865C11.0903 10.1785 11.0903 10.3302 10.9982 10.4222C10.9007 10.5143 10.7491 10.5143 10.657 10.4222L10.121 9.89696C10.0235 9.80491 10.0235 9.65329 10.121 9.55581L10.1155 9.56123Z" fill="#250A20" stroke="#250A20" stroke-width="0.2" stroke-miterlimit="10" stroke-linecap="round" stroke-linejoin="round"/>
<path d="M22.2668 22.0919C22.3372 22.0215 22.4563 22.0215 22.5322 22.0919L22.9437 22.498C23.0195 22.5684 23.0195 22.6875 22.9437 22.7579C22.8679 22.8283 22.7542 22.8283 22.6784 22.7579L22.2668 22.3518C22.191 22.2814 22.191 22.1623 22.2668 22.0919Z" fill="#250A20" stroke="#250A20" stroke-width="0.2" stroke-miterlimit="10" stroke-linecap="round" stroke-linejoin="round"/>
<path d="M21.8234 22.0919C21.7476 22.0215 21.6339 22.0215 21.5581 22.0919L21.1465 22.498C21.0762 22.5684 21.0762 22.6875 21.1465 22.7579C21.2224 22.8283 21.3361 22.8283 21.4119 22.7579L21.8234 22.3518C21.8938 22.2814 21.8938 22.1623 21.8234 22.0919Z" fill="#250A20" stroke="#250A20" stroke-width="0.2" stroke-miterlimit="10" stroke-linecap="round" stroke-linejoin="round"/>
<path d="M22.2668 21.6056C22.3372 21.676 22.4563 21.676 22.5322 21.6056L22.9437 21.1994C23.0195 21.129 23.0195 21.0099 22.9437 20.9395C22.8679 20.8691 22.7542 20.8691 22.6784 20.9395L22.2668 21.3456C22.191 21.416 22.191 21.5352 22.2668 21.6056Z" fill="#250A20" stroke="#250A20" stroke-width="0.2" stroke-miterlimit="10" stroke-linecap="round" stroke-linejoin="round"/>
<path d="M21.8234 21.6056C21.7476 21.676 21.6339 21.676 21.5581 21.6056L21.1465 21.1994C21.0762 21.129 21.0762 21.0099 21.1465 20.9395C21.2224 20.8691 21.3361 20.8691 21.4119 20.9395L21.8234 21.3456C21.8938 21.416 21.8938 21.5352 21.8234 21.6056Z" fill="#250A20" stroke="#250A20" stroke-width="0.2" stroke-miterlimit="10" stroke-linecap="round" stroke-linejoin="round"/>
<path d="M24.2112 12.8793C24.1029 12.8305 23.9783 12.8468 23.8863 12.9226C23.8592 12.9442 21.1463 15.1319 14.7294 15.1319C11.3883 15.1319 9.07605 14.5309 7.72228 14.0273C6.26021 13.4803 5.57791 12.928 5.56708 12.9226C5.47502 12.8468 5.35048 12.8305 5.24217 12.8793C5.13387 12.928 5.06348 13.0363 5.06348 13.15C5.06348 13.8973 5.32882 14.7691 5.83783 15.6626C6.34143 16.5507 7.05622 17.4225 7.90639 18.186C8.81612 19.0091 9.87748 19.6914 10.9659 20.1625C12.2005 20.6932 13.4623 20.964 14.7294 20.964C15.9965 20.964 17.2636 20.6932 18.4929 20.1625C19.5813 19.6914 20.6372 19.0091 21.5524 18.186C22.4026 17.4225 23.1173 16.5453 23.6209 15.6626C24.1245 14.7691 24.3953 13.8973 24.3953 13.15C24.3953 13.0309 24.3249 12.928 24.2166 12.8793H24.2112ZM22.63 16.0796C22.5975 16.1012 22.5542 16.1283 22.5 16.1662C22.4405 16.2095 22.3646 16.2529 22.278 16.307C22.2347 16.3341 22.1859 16.3612 22.1372 16.3882C22.0885 16.4153 22.0343 16.4478 21.9802 16.4749C21.926 16.5074 21.8665 16.5344 21.8069 16.5669C21.7473 16.5994 21.6823 16.6319 21.6174 16.659C21.5524 16.6915 21.482 16.7186 21.4116 16.751C21.3412 16.7835 21.2708 16.8106 21.195 16.8431C21.0488 16.9027 20.8917 16.9622 20.7293 17.0164C20.6481 17.0435 20.5668 17.0705 20.4856 17.0976C20.4044 17.1247 20.3232 17.1463 20.2365 17.1734C20.0687 17.2222 19.9062 17.2655 19.7383 17.298C19.5705 17.3359 19.408 17.3684 19.2456 17.3954C19.0831 17.4225 18.9315 17.4496 18.7799 17.4658C18.6337 17.4875 18.4929 17.4983 18.3629 17.5146C18.103 17.5362 17.881 17.5471 17.7293 17.5471C17.5777 17.5471 17.4857 17.5471 17.4857 17.5471C17.4857 17.5471 17.5723 17.5579 17.7239 17.5741C17.8755 17.5904 18.0976 17.6012 18.3629 17.6066C18.4929 17.6066 18.6391 17.6066 18.7907 17.6066C18.9423 17.6066 19.1048 17.5958 19.2672 17.585C19.4351 17.5741 19.603 17.5579 19.7762 17.5362C19.9495 17.5146 20.1282 17.4875 20.3015 17.4604C20.3881 17.4442 20.4748 17.4279 20.5614 17.4117C20.6481 17.39 20.7347 17.3738 20.8213 17.3575C20.9946 17.3196 21.1625 17.2763 21.325 17.2276C21.4062 17.2059 21.4874 17.1788 21.5632 17.1572C21.639 17.1301 21.7148 17.1084 21.7906 17.0814C21.7961 17.0814 21.8015 17.076 21.8069 17.076C21.5957 17.3034 21.3737 17.5254 21.1354 17.7366C20.2744 18.5109 19.2726 19.1608 18.2438 19.6048C17.0904 20.103 15.9045 20.3575 14.724 20.3575C13.5435 20.3575 12.3576 20.103 11.2042 19.6048C10.1753 19.1608 9.17893 18.5109 8.31252 17.7366C8.07426 17.5254 7.85224 17.3034 7.64105 17.076C7.64647 17.076 7.65188 17.0814 7.6573 17.0814C7.73311 17.1084 7.80351 17.1301 7.88473 17.1572C7.96054 17.1843 8.04177 17.2059 8.123 17.2276C8.28545 17.2763 8.45331 17.3196 8.6266 17.3575C8.71324 17.3792 8.79988 17.3954 8.88652 17.4117C8.97316 17.4279 9.0598 17.4442 9.14644 17.4604C9.32514 17.4875 9.49843 17.5146 9.67171 17.5362C9.84499 17.5579 10.0183 17.5741 10.1807 17.585C10.3486 17.5958 10.5056 17.6012 10.6573 17.6066C10.8089 17.612 10.9551 17.612 11.085 17.6066C11.3504 17.6012 11.567 17.5904 11.724 17.5741C11.8756 17.5579 11.9623 17.5471 11.9623 17.5471C11.9623 17.5471 11.8756 17.5525 11.7186 17.5471C11.567 17.5471 11.345 17.5362 11.085 17.5146C10.9551 17.5037 10.8143 17.4875 10.6627 17.4658C10.5165 17.4496 10.3594 17.4225 10.197 17.3954C10.0345 17.3684 9.87207 17.3359 9.7042 17.298C9.53633 17.2601 9.36846 17.2167 9.20601 17.1734C9.12478 17.1518 9.04356 17.1247 8.95692 17.0976C8.87569 17.0705 8.79446 17.0435 8.71324 17.0164C8.5562 16.9622 8.39916 16.9027 8.25296 16.8431C8.18256 16.8106 8.10675 16.7835 8.03635 16.751C7.96596 16.7186 7.89556 16.6915 7.83058 16.659C7.7656 16.6265 7.70062 16.594 7.64105 16.5669C7.58149 16.5344 7.52192 16.5074 7.46777 16.4749C7.41362 16.4478 7.35947 16.4153 7.31073 16.3882C7.262 16.3612 7.21326 16.3341 7.16994 16.307C7.0833 16.2529 7.00749 16.2095 6.94792 16.1662C6.89377 16.1283 6.85045 16.1012 6.81796 16.0796C6.25479 15.289 5.87574 14.4821 5.73495 13.7619C6.10859 13.9839 6.67717 14.2818 7.45694 14.5742C8.86486 15.1049 11.2637 15.733 14.7186 15.733C18.1788 15.733 20.5777 15.1049 21.9802 14.5742C22.7599 14.2818 23.3285 13.9839 23.7022 13.7619C23.5614 14.4875 23.1769 15.2944 22.6192 16.0796H22.63Z" fill="#250A20" stroke="#250A20" stroke-width="0.2" stroke-miterlimit="10" stroke-linecap="round" stroke-linejoin="round"/>
<path d="M26.1016 13.6223C26.1016 13.5899 26.0962 13.5574 26.0962 13.5249C26.0907 13.4545 26.0799 13.3895 26.0691 13.3137C26.0637 13.2758 26.0583 13.2433 26.0474 13.2054C26.042 13.1675 26.0312 13.1296 26.0204 13.0917C25.9987 13.0159 25.977 12.94 25.95 12.8642C25.8958 12.7126 25.82 12.5556 25.7279 12.4094C25.6359 12.2632 25.5222 12.1224 25.3922 11.9978C25.2622 11.8733 25.1215 11.765 24.9698 11.6675C24.8182 11.5754 24.6612 11.505 24.5041 11.4509C24.4283 11.4238 24.3471 11.4022 24.2713 11.3805C24.2334 11.3697 24.1955 11.3643 24.1576 11.3534C24.1197 11.348 24.0818 11.3372 24.0439 11.3318C23.968 11.3209 23.8976 11.3101 23.8272 11.3101C23.7948 11.3047 23.7623 11.3047 23.7244 11.3047C23.6919 11.3047 23.6594 11.3047 23.6269 11.3047C23.5619 11.3047 23.5023 11.3047 23.4428 11.3101C23.4157 11.3101 23.3832 11.3155 23.3561 11.3155C23.3291 11.3209 23.302 11.3209 23.2803 11.3263C23.1774 11.3372 23.0908 11.3534 23.0204 11.3697C22.9825 11.3751 22.9554 11.3859 22.9229 11.3913C22.8959 11.3967 22.8742 11.4076 22.8525 11.413C22.8146 11.4238 22.793 11.4292 22.793 11.4292C22.793 11.4292 22.8146 11.4346 22.8525 11.4509C22.8904 11.4671 22.9446 11.478 23.0096 11.4996C23.0746 11.5213 23.1612 11.5484 23.2532 11.5754C23.2749 11.5809 23.302 11.5917 23.3236 11.5971C23.3453 11.6079 23.3724 11.6133 23.3995 11.6242C23.4265 11.635 23.4482 11.6404 23.4753 11.6513C23.5023 11.6621 23.5294 11.6729 23.5565 11.6783C23.5836 11.6892 23.6106 11.7 23.6377 11.7108C23.6648 11.7216 23.6919 11.7325 23.7189 11.7433C23.7785 11.765 23.8327 11.792 23.8922 11.8137C23.9518 11.8354 24.0114 11.8679 24.0709 11.8949C24.098 11.9112 24.1305 11.922 24.1576 11.9383C24.1846 11.9545 24.2171 11.9707 24.2442 11.987C24.3633 12.052 24.4771 12.1224 24.5854 12.2036C24.6937 12.2848 24.802 12.3715 24.8994 12.4635C24.9969 12.561 25.0835 12.6585 25.1648 12.7668C25.246 12.8751 25.3218 12.9888 25.3868 13.1025C25.403 13.1296 25.4193 13.1566 25.4355 13.1891C25.4518 13.2162 25.4626 13.2487 25.4788 13.2758C25.5059 13.3353 25.5384 13.3895 25.5601 13.4491C25.5709 13.4761 25.5871 13.5086 25.598 13.5357C25.6142 13.5628 25.6196 13.5899 25.6305 13.6169C25.6413 13.644 25.6521 13.6711 25.663 13.6982C25.6738 13.7252 25.6846 13.7523 25.6955 13.7794C25.7063 13.8065 25.7171 13.8335 25.7225 13.8552C25.7334 13.8823 25.7388 13.9039 25.7496 13.931C25.7604 13.9581 25.7658 13.9797 25.7767 14.0014C25.7821 14.0231 25.7929 14.0501 25.7983 14.0718C25.8308 14.1638 25.8525 14.2397 25.8741 14.3046C25.8958 14.3696 25.9121 14.4238 25.9283 14.4617C25.9391 14.4996 25.95 14.5158 25.95 14.5158C25.95 14.5158 25.9554 14.4942 25.9662 14.4617C25.9716 14.4454 25.977 14.4184 25.9879 14.3913C25.9933 14.3642 26.0041 14.3317 26.0095 14.2992C26.0258 14.2288 26.042 14.1422 26.0528 14.0447C26.0583 14.0176 26.0583 13.996 26.0637 13.9689C26.0637 13.9418 26.0691 13.9148 26.0691 13.8877C26.0745 13.8335 26.0745 13.774 26.0745 13.709C26.0745 13.6765 26.0745 13.644 26.0745 13.6115L26.1016 13.6223Z" fill="#250A20" stroke="#250A20" stroke-width="0.2" stroke-miterlimit="10" stroke-linecap="round" stroke-linejoin="round"/>
<path d="M14.7295 28.9746C22.5976 28.9746 28.9766 22.5956 28.9766 14.7275C28.9766 6.85943 22.5976 0.480469 14.7295 0.480469C6.86138 0.480469 0.482422 6.85943 0.482422 14.7275C0.482422 22.5956 6.86138 28.9746 14.7295 28.9746Z" stroke="#250A20" stroke-width="0.5"/>
</svg>
