<svg width="15" height="15" viewBox="0 0 15 15" fill="none" xmlns="http://www.w3.org/2000/svg">
<path d="M8.58256 5.35104C8.58256 5.231 8.53488 5.11588 8.45 5.031C8.36512 4.94612 8.25 4.89844 8.12996 4.89844C8.00992 4.89844 7.8948 4.94612 7.80992 5.031C7.72504 5.11588 7.67736 5.231 7.67736 5.35104V6.70885H6.31955C6.19951 6.70885 6.08439 6.75653 5.99951 6.84141C5.91463 6.92629 5.86694 7.04141 5.86694 7.16145C5.86694 7.28149 5.91463 7.39661 5.99951 7.48149C6.08439 7.56637 6.19951 7.61406 6.31955 7.61406H7.67736V8.97186C7.67736 9.0919 7.72504 9.20702 7.80992 9.2919C7.8948 9.37678 8.00992 9.42447 8.12996 9.42447C8.25 9.42447 8.36512 9.37678 8.45 9.2919C8.53488 9.20702 8.58256 9.0919 8.58256 8.97186V7.61406H9.94037C10.0604 7.61406 10.1755 7.56637 10.2604 7.48149C10.3453 7.39661 10.393 7.28149 10.393 7.16145C10.393 7.04141 10.3453 6.92629 10.2604 6.84141C10.1755 6.75653 10.0604 6.70885 9.94037 6.70885H8.58256V5.35104Z" fill="#363330"/>
<path d="M0.888394 1.27734C0.768356 1.27734 0.653235 1.32503 0.568355 1.40991C0.483476 1.49479 0.435791 1.60991 0.435791 1.72995C0.435791 1.84998 0.483476 1.96511 0.568355 2.04999C0.653235 2.13486 0.768356 2.18255 0.888394 2.18255H1.89317L2.25616 3.63722L3.61216 10.8653C3.63157 10.969 3.68662 11.0627 3.76777 11.1301C3.84893 11.1975 3.9511 11.2345 4.05662 11.2346H4.96182C4.48167 11.2346 4.02118 11.4253 3.68167 11.7649C3.34215 12.1044 3.15141 12.5649 3.15141 13.045C3.15141 13.5252 3.34215 13.9857 3.68167 14.3252C4.02118 14.6647 4.48167 14.8554 4.96182 14.8554C5.44197 14.8554 5.90246 14.6647 6.24198 14.3252C6.58149 13.9857 6.77223 13.5252 6.77223 13.045C6.77223 12.5649 6.58149 12.1044 6.24198 11.7649C5.90246 11.4253 5.44197 11.2346 4.96182 11.2346H11.2983C10.8181 11.2346 10.3576 11.4253 10.0181 11.7649C9.67859 12.1044 9.48785 12.5649 9.48785 13.045C9.48785 13.5252 9.67859 13.9857 10.0181 14.3252C10.3576 14.6647 10.8181 14.8554 11.2983 14.8554C11.7784 14.8554 12.2389 14.6647 12.5784 14.3252C12.9179 13.9857 13.1087 13.5252 13.1087 13.045C13.1087 12.5649 12.9179 12.1044 12.5784 11.7649C12.2389 11.4253 11.7784 11.2346 11.2983 11.2346H12.2035C12.309 11.2345 12.4112 11.1975 12.4923 11.1301C12.5735 11.0627 12.6285 10.969 12.6479 10.8653L14.0057 3.62364C14.018 3.55832 14.0157 3.4911 13.999 3.42677C13.9823 3.36244 13.9517 3.30257 13.9092 3.25142C13.8668 3.20027 13.8136 3.15909 13.7535 3.1308C13.6934 3.10251 13.6277 3.08782 13.5613 3.08776H3.05184L2.68523 1.62042C2.6608 1.52246 2.60431 1.43548 2.52476 1.37332C2.44521 1.31115 2.34716 1.27737 2.2462 1.27734H0.888394ZM4.43228 10.3294L3.24374 3.99296H13.0163L11.8278 10.3294H4.43228ZM5.86703 13.045C5.86703 13.2851 5.77166 13.5153 5.6019 13.6851C5.43214 13.8549 5.2019 13.9502 4.96182 13.9502C4.72175 13.9502 4.4915 13.8549 4.32174 13.6851C4.15198 13.5153 4.05662 13.2851 4.05662 13.045C4.05662 12.8049 4.15198 12.5747 4.32174 12.4049C4.4915 12.2352 4.72175 12.1398 4.96182 12.1398C5.2019 12.1398 5.43214 12.2352 5.6019 12.4049C5.77166 12.5747 5.86703 12.8049 5.86703 13.045ZM12.2035 13.045C12.2035 13.2851 12.1081 13.5153 11.9383 13.6851C11.7686 13.8549 11.5383 13.9502 11.2983 13.9502C11.0582 13.9502 10.8279 13.8549 10.6582 13.6851C10.4884 13.5153 10.3931 13.2851 10.3931 13.045C10.3931 12.8049 10.4884 12.5747 10.6582 12.4049C10.8279 12.2352 11.0582 12.1398 11.2983 12.1398C11.5383 12.1398 11.7686 12.2352 11.9383 12.4049C12.1081 12.5747 12.2035 12.8049 12.2035 13.045Z" fill="#363330"/>
</svg>
