<svg width="15" height="15" viewBox="0 0 15 15" fill="none" xmlns="http://www.w3.org/2000/svg">
<path d="M8.51908 5.25534C8.51908 5.1353 8.4714 5.02018 8.38652 4.9353C8.30164 4.85042 8.18652 4.80273 8.06648 4.80273C7.94644 4.80273 7.83132 4.85042 7.74644 4.9353C7.66156 5.02018 7.61388 5.1353 7.61388 5.25534V6.61315H6.25607C6.13603 6.61315 6.02091 6.66083 5.93603 6.74571C5.85115 6.83059 5.80347 6.94571 5.80347 7.06575C5.80347 7.18579 5.85115 7.30091 5.93603 7.38579C6.02091 7.47067 6.13603 7.51835 6.25607 7.51835H7.61388V8.87616C7.61388 8.9962 7.66156 9.11132 7.74644 9.1962C7.83132 9.28108 7.94644 9.32876 8.06648 9.32876C8.18652 9.32876 8.30164 9.28108 8.38652 9.1962C8.4714 9.11132 8.51908 8.9962 8.51908 8.87616V7.51835H9.87689C9.99693 7.51835 10.1121 7.47067 10.1969 7.38579C10.2818 7.30091 10.3295 7.18579 10.3295 7.06575C10.3295 6.94571 10.2818 6.83059 10.1969 6.74571C10.1121 6.66083 9.99693 6.61315 9.87689 6.61315H8.51908V5.25534Z" fill="#363330"/>
<path d="M0.824917 1.18164C0.70488 1.18164 0.589758 1.22933 0.504879 1.3142C0.419999 1.39908 0.372314 1.51421 0.372314 1.63424C0.372314 1.75428 0.419999 1.8694 0.504879 1.95428C0.589758 2.03916 0.70488 2.08685 0.824917 2.08685H1.8297L2.19268 3.54151L3.54868 10.7696C3.5681 10.8733 3.62314 10.967 3.7043 11.0344C3.78545 11.1018 3.88762 11.1388 3.99314 11.1389H4.89834C4.41819 11.1389 3.95771 11.3296 3.61819 11.6692C3.27867 12.0087 3.08793 12.4692 3.08793 12.9493C3.08793 13.4295 3.27867 13.89 3.61819 14.2295C3.95771 14.569 4.41819 14.7597 4.89834 14.7597C5.3785 14.7597 5.83898 14.569 6.1785 14.2295C6.51802 13.89 6.70876 13.4295 6.70876 12.9493C6.70876 12.4692 6.51802 12.0087 6.1785 11.6692C5.83898 11.3296 5.3785 11.1389 4.89834 11.1389H11.2348C10.7546 11.1389 10.2942 11.3296 9.95463 11.6692C9.61511 12.0087 9.42437 12.4692 9.42437 12.9493C9.42437 13.4295 9.61511 13.89 9.95463 14.2295C10.2942 14.569 10.7546 14.7597 11.2348 14.7597C11.7149 14.7597 12.1754 14.569 12.5149 14.2295C12.8545 13.89 13.0452 13.4295 13.0452 12.9493C13.0452 12.4692 12.8545 12.0087 12.5149 11.6692C12.1754 11.3296 11.7149 11.1389 11.2348 11.1389H12.14C12.2455 11.1388 12.3477 11.1018 12.4288 11.0344C12.51 10.967 12.565 10.8733 12.5844 10.7696L13.9423 3.52793C13.9545 3.46261 13.9522 3.3954 13.9355 3.33107C13.9188 3.26674 13.8882 3.20687 13.8458 3.15572C13.8033 3.10456 13.7502 3.06338 13.69 3.0351C13.6299 3.00681 13.5643 2.99211 13.4978 2.99205H2.98836L2.62175 1.52471C2.59732 1.42676 2.54084 1.33978 2.46129 1.27761C2.38174 1.21545 2.28369 1.18167 2.18273 1.18164H0.824917ZM4.3688 10.2337L3.18026 3.89726H12.9529L11.7643 10.2337H4.3688ZM5.80355 12.9493C5.80355 13.1894 5.70818 13.4196 5.53842 13.5894C5.36866 13.7592 5.13842 13.8545 4.89834 13.8545C4.65827 13.8545 4.42803 13.7592 4.25827 13.5894C4.08851 13.4196 3.99314 13.1894 3.99314 12.9493C3.99314 12.7092 4.08851 12.479 4.25827 12.3092C4.42803 12.1395 4.65827 12.0441 4.89834 12.0441C5.13842 12.0441 5.36866 12.1395 5.53842 12.3092C5.70818 12.479 5.80355 12.7092 5.80355 12.9493ZM12.14 12.9493C12.14 13.1894 12.0446 13.4196 11.8749 13.5894C11.7051 13.7592 11.4749 13.8545 11.2348 13.8545C10.9947 13.8545 10.7645 13.7592 10.5947 13.5894C10.425 13.4196 10.3296 13.1894 10.3296 12.9493C10.3296 12.7092 10.425 12.479 10.5947 12.3092C10.7645 12.1395 10.9947 12.0441 11.2348 12.0441C11.4749 12.0441 11.7051 12.1395 11.8749 12.3092C12.0446 12.479 12.14 12.7092 12.14 12.9493Z" fill="#363330"/>
</svg>
