<svg width="15" height="15" viewBox="0 0 15 15" fill="none" xmlns="http://www.w3.org/2000/svg">
<path d="M8.58256 5.09518C8.58256 4.97514 8.53488 4.86002 8.45 4.77514C8.36512 4.69026 8.25 4.64258 8.12996 4.64258C8.00992 4.64258 7.8948 4.69026 7.80992 4.77514C7.72504 4.86002 7.67736 4.97514 7.67736 5.09518V6.45299H6.31955C6.19951 6.45299 6.08439 6.50068 5.99951 6.58555C5.91463 6.67043 5.86694 6.78556 5.86694 6.90559C5.86694 7.02563 5.91463 7.14075 5.99951 7.22563C6.08439 7.31051 6.19951 7.3582 6.31955 7.3582H7.67736V8.71601C7.67736 8.83604 7.72504 8.95116 7.80992 9.03604C7.8948 9.12092 8.00992 9.16861 8.12996 9.16861C8.25 9.16861 8.36512 9.12092 8.45 9.03604C8.53488 8.95116 8.58256 8.83604 8.58256 8.71601V7.3582H9.94037C10.0604 7.3582 10.1755 7.31051 10.2604 7.22563C10.3453 7.14075 10.393 7.02563 10.393 6.90559C10.393 6.78556 10.3453 6.67043 10.2604 6.58555C10.1755 6.50068 10.0604 6.45299 9.94037 6.45299H8.58256V5.09518Z" fill="#363330"/>
<path d="M0.888394 1.02148C0.768356 1.02148 0.653235 1.06917 0.568355 1.15405C0.483476 1.23893 0.435791 1.35405 0.435791 1.47409C0.435791 1.59413 0.483476 1.70925 0.568355 1.79413C0.653235 1.87901 0.768356 1.92669 0.888394 1.92669H1.89317L2.25616 3.38136L3.61216 10.6094C3.63157 10.7131 3.68662 10.8068 3.76777 10.8743C3.84893 10.9417 3.9511 10.9787 4.05662 10.9788H4.96182C4.48167 10.9788 4.02118 11.1695 3.68167 11.509C3.34215 11.8485 3.15141 12.309 3.15141 12.7892C3.15141 13.2693 3.34215 13.7298 3.68167 14.0693C4.02118 14.4088 4.48167 14.5996 4.96182 14.5996C5.44197 14.5996 5.90246 14.4088 6.24198 14.0693C6.58149 13.7298 6.77223 13.2693 6.77223 12.7892C6.77223 12.309 6.58149 11.8485 6.24198 11.509C5.90246 11.1695 5.44197 10.9788 4.96182 10.9788H11.2983C10.8181 10.9788 10.3576 11.1695 10.0181 11.509C9.67859 11.8485 9.48785 12.309 9.48785 12.7892C9.48785 13.2693 9.67859 13.7298 10.0181 14.0693C10.3576 14.4088 10.8181 14.5996 11.2983 14.5996C11.7784 14.5996 12.2389 14.4088 12.5784 14.0693C12.9179 13.7298 13.1087 13.2693 13.1087 12.7892C13.1087 12.309 12.9179 11.8485 12.5784 11.509C12.2389 11.1695 11.7784 10.9788 11.2983 10.9788H12.2035C12.309 10.9787 12.4112 10.9417 12.4923 10.8743C12.5735 10.8068 12.6285 10.7131 12.6479 10.6094L14.0057 3.36778C14.018 3.30246 14.0157 3.23524 13.999 3.17091C13.9823 3.10658 13.9517 3.04671 13.9092 2.99556C13.8668 2.94441 13.8136 2.90323 13.7535 2.87494C13.6934 2.84665 13.6277 2.83196 13.5613 2.8319H3.05184L2.68523 1.36456C2.6608 1.2666 2.60431 1.17962 2.52476 1.11746C2.44521 1.05529 2.34716 1.02151 2.2462 1.02148H0.888394ZM4.43228 10.0735L3.24374 3.7371H13.0163L11.8278 10.0735H4.43228ZM5.86703 12.7892C5.86703 13.0292 5.77166 13.2595 5.6019 13.4292C5.43214 13.599 5.2019 13.6944 4.96182 13.6944C4.72175 13.6944 4.4915 13.599 4.32174 13.4292C4.15198 13.2595 4.05662 13.0292 4.05662 12.7892C4.05662 12.5491 4.15198 12.3188 4.32174 12.1491C4.4915 11.9793 4.72175 11.884 4.96182 11.884C5.2019 11.884 5.43214 11.9793 5.6019 12.1491C5.77166 12.3188 5.86703 12.5491 5.86703 12.7892ZM12.2035 12.7892C12.2035 13.0292 12.1081 13.2595 11.9383 13.4292C11.7686 13.599 11.5383 13.6944 11.2983 13.6944C11.0582 13.6944 10.8279 13.599 10.6582 13.4292C10.4884 13.2595 10.3931 13.0292 10.3931 12.7892C10.3931 12.5491 10.4884 12.3188 10.6582 12.1491C10.8279 11.9793 11.0582 11.884 11.2983 11.884C11.5383 11.884 11.7686 11.9793 11.9383 12.1491C12.1081 12.3188 12.2035 12.5491 12.2035 12.7892Z" fill="#363330"/>
</svg>
