<svg width="30" height="33" viewBox="0 0 30 33" fill="none" xmlns="http://www.w3.org/2000/svg">
<path d="M26.9633 28.9348C26.7269 28.1612 26.4046 27.3016 26.0178 26.4421C25.631 25.5825 25.1797 24.7015 24.6855 23.8204C24.621 23.9279 24.5566 24.0568 24.4706 24.1642C24.4061 24.2717 24.3202 24.4006 24.2557 24.5081C24.1698 24.6155 24.1053 24.723 24.0193 24.8304C23.9334 24.9378 23.8474 25.0453 23.7615 25.1527L23.74 25.1742L23.7185 25.1957L23.697 25.2172L23.6755 25.2387L23.5896 25.3246C23.654 25.518 23.74 25.7544 23.8474 26.0123C23.9334 26.2702 24.0408 26.5495 24.1268 26.8074C24.2127 27.0652 24.2772 27.3231 24.2987 27.5165C24.3202 27.7099 24.3202 27.8818 24.2342 27.9463C24.2127 27.9678 24.1913 27.9893 24.1483 28.0108C24.1268 28.0322 24.0838 28.0537 24.0408 28.0537C23.9979 28.0752 23.9764 28.0752 23.9334 28.0752C23.8904 28.0752 23.8474 28.0752 23.8045 28.0752C23.74 28.0752 23.654 28.0537 23.5681 28.0537C23.4821 28.0322 23.3962 28.0108 23.3102 27.9893C23.2243 27.9678 23.1168 27.9248 23.0308 27.8818C22.9234 27.8388 22.816 27.7959 22.7085 27.7529C22.5796 27.6884 22.4292 27.624 22.2787 27.538C22.1283 27.452 21.9779 27.3661 21.8275 27.2801C21.6771 27.1942 21.5051 27.1082 21.3547 27.0008C21.1828 26.8933 21.0324 26.8074 20.8605 26.6999C21.5051 26.0553 22.1283 25.3461 22.687 24.6155C23.2457 23.8634 23.7615 23.0898 24.2127 22.2732C24.664 21.4566 25.0508 20.6186 25.3731 19.7375C25.6955 18.878 25.9533 17.9754 26.1253 17.0729C26.5335 15.0315 26.5121 13.119 26.1253 11.4213C25.7599 9.7452 25.0508 8.26247 24.0623 7.08058C23.0953 5.89869 21.8704 4.99616 20.4522 4.41596C19.0554 3.83576 17.4437 3.59938 15.7246 3.70682C14.5857 3.79278 13.4468 4.02916 12.3509 4.39447C11.2549 4.75978 10.202 5.25402 9.192 5.85571C8.18203 6.4574 7.21503 7.16653 6.33398 7.98311C5.43145 8.7782 4.61487 9.68073 3.86276 10.6477C3.66936 10.2824 3.49745 9.91711 3.36851 9.61627C3.23958 9.29393 3.13214 9.01458 3.08916 8.75671C3.02469 8.49885 3.0032 8.28396 3.02469 8.09056C3.04618 7.89716 3.11065 7.74673 3.1966 7.63929C3.21809 7.59631 3.26107 7.57482 3.32554 7.53185C3.36851 7.48887 3.43298 7.46738 3.49745 7.44589C3.56191 7.4244 3.64787 7.40291 3.73382 7.38142C3.81978 7.35993 3.90574 7.35993 3.99169 7.33845C4.09914 7.33845 4.20658 7.33845 4.31402 7.35993C4.42147 7.38142 4.52891 7.40291 4.65785 7.44589C4.76529 7.48887 4.89422 7.53185 5.00167 7.6178C5.10911 7.68227 5.23805 7.76822 5.34549 7.87567C5.45294 7.74673 5.58187 7.6178 5.68931 7.48887C5.81825 7.35993 5.92569 7.25249 6.05463 7.12356C6.18356 7.01611 6.31249 6.88718 6.44143 6.77973C6.57036 6.67229 6.72078 6.56485 6.8712 6.4574C6.89269 6.4574 6.89269 6.43591 6.91418 6.43591C6.93567 6.43591 6.93567 6.41442 6.95716 6.41442C6.97865 6.41442 6.97865 6.39293 7.00014 6.39293C7.02163 6.39293 7.02163 6.37145 7.04311 6.37145C6.78525 6.13507 6.50589 5.94167 6.22654 5.79125C5.94718 5.64082 5.64634 5.51189 5.34549 5.42593C5.04465 5.33998 4.7438 5.27551 4.44296 5.25402C4.14211 5.23253 3.86276 5.21105 3.5834 5.23253C3.39 5.25402 3.21809 5.27551 3.04618 5.297C2.87427 5.33998 2.72385 5.38296 2.57342 5.42593C2.423 5.46891 2.29407 5.53338 2.18662 5.61933C2.07918 5.6838 1.97174 5.76976 1.90727 5.85571C1.67089 6.11358 1.54196 6.43591 1.47749 6.82271C1.41302 7.20951 1.43451 7.68227 1.54196 8.198C1.6494 8.71373 1.82131 9.29393 2.05769 9.9386C2.31556 10.5618 2.6164 11.2494 3.02469 11.98C2.76682 12.3883 2.50896 12.7966 2.27258 13.2264C2.0362 13.6562 1.82131 14.086 1.62791 14.5372C1.43451 14.9885 1.24111 15.4398 1.09069 15.9125C0.918779 16.3853 0.789846 16.858 0.660913 17.3308C0.188157 19.1573 0.0377348 20.9194 0.188157 22.5526C0.338579 24.2072 0.811335 25.7114 1.56345 27.0223C2.31556 28.3546 3.36851 29.4505 4.65785 30.2671C5.96867 31.0837 7.53736 31.5994 9.32094 31.7068C9.85816 31.7283 10.3739 31.7283 10.9111 31.6854C11.4483 31.6424 11.9856 31.5779 12.5228 31.4705C13.06 31.363 13.5972 31.2126 14.1344 31.0407C14.6717 30.8688 15.1874 30.6539 15.7246 30.4175L14.4568 28.0322C14.0915 28.1827 13.7262 28.3116 13.3394 28.419C12.974 28.5265 12.5872 28.6124 12.2219 28.6769C11.8566 28.7414 11.4698 28.7844 11.1045 28.8273C10.7392 28.8488 10.3524 28.8488 9.98709 28.8488C8.54734 28.7844 7.27949 28.3976 6.22654 27.7529C5.17358 27.1082 4.31402 26.2272 3.69085 25.1742C3.06767 24.1213 2.68087 22.8964 2.53045 21.5641C2.38002 20.2533 2.48747 18.8135 2.87427 17.3308C3.26107 15.848 3.88425 14.4513 4.67934 13.1619C5.47442 11.8941 6.46291 10.7337 7.55885 9.7452C8.65478 8.75671 9.87965 7.94013 11.169 7.33845C12.4798 6.73676 13.8551 6.37145 15.2304 6.28549C16.6272 6.19953 17.9165 6.43591 19.0554 6.90867C20.1943 7.40291 21.1828 8.15502 21.9349 9.10053C22.7085 10.0675 23.2672 11.2709 23.5466 12.6247C23.8259 14 23.8259 15.5257 23.5036 17.1589C23.3532 17.868 23.1598 18.5771 22.9019 19.2648C22.6441 19.9524 22.3432 20.6186 21.9779 21.2632C21.6341 21.9079 21.2258 22.5311 20.7745 23.1113C20.3447 23.6915 19.8505 24.2502 19.3562 24.7659C19.3562 24.594 19.3777 24.4221 19.3777 24.2287C19.3777 24.0568 19.3992 23.8634 19.3992 23.713C19.3992 23.5411 19.4207 23.3906 19.4207 23.2617C19.4207 23.1328 19.4207 23.0253 19.4207 22.9609C19.4207 22.8964 19.4207 22.8319 19.3992 22.789C19.3777 22.746 19.3777 22.703 19.3562 22.6815C19.3348 22.66 19.3133 22.6385 19.2918 22.6385C19.2703 22.617 19.2273 22.617 19.2058 22.617C19.1843 22.617 19.1628 22.617 19.1414 22.617C19.1199 22.617 19.0984 22.617 19.0769 22.6385C19.0554 22.6385 19.0554 22.66 19.0339 22.66H19.0124L14.5857 24.0998C14.5857 24.0998 14.5427 24.1213 14.4998 24.1428C14.4568 24.1642 14.3923 24.2072 14.3493 24.2502C14.3064 24.3147 14.2634 24.3791 14.2419 24.4651C14.2419 24.551 14.2634 24.68 14.3278 24.8304C14.3278 24.8304 14.3278 24.8519 14.3493 24.8519C14.3493 24.8519 14.3493 24.8734 14.3708 24.8734C14.3708 24.8734 14.3708 24.8949 14.3923 24.8949C14.3923 24.8949 14.3923 24.9164 14.4138 24.9164C14.6072 25.3246 14.8866 25.8619 15.2304 26.4636C15.5527 27.0867 15.918 27.7744 16.2833 28.4405C16.6486 29.1282 17.014 29.7943 17.3363 30.3745C17.6586 30.9547 17.9165 31.449 18.0884 31.7498C18.1099 31.7713 18.1099 31.7928 18.1314 31.8358C18.1529 31.8573 18.1529 31.8788 18.1744 31.9002C18.1959 31.9217 18.1958 31.9432 18.1958 31.9647C18.1958 31.9862 18.2173 32.0077 18.2173 32.0077C18.2603 32.0936 18.3033 32.1581 18.3463 32.2011C18.3892 32.2656 18.4322 32.3085 18.4537 32.33C18.4967 32.373 18.5182 32.3945 18.5612 32.416C18.6041 32.4375 18.6256 32.4375 18.6471 32.4375C18.7116 32.4375 18.7546 32.416 18.7975 32.3945C18.8405 32.373 18.8835 32.3085 18.905 32.2656C18.9265 32.2226 18.9694 32.1581 18.9909 32.1151C19.0124 32.0722 19.0124 32.0077 19.0339 31.9647C19.0339 31.9432 19.0339 31.9432 19.0339 31.9217C19.0339 31.9002 19.0339 31.8788 19.0339 31.8358C19.0339 31.8143 19.0339 31.7713 19.0339 31.7498C19.0339 31.7068 19.0339 31.6854 19.0339 31.6424C19.0339 31.492 19.0554 31.32 19.0554 31.1481C19.0554 30.9762 19.0769 30.7828 19.0769 30.6109C19.0769 30.439 19.0984 30.2886 19.0984 30.1811C19.0984 30.0737 19.1199 29.9877 19.1199 29.9877C19.7216 30.353 20.3447 30.6969 20.9249 31.0407C21.5266 31.363 22.1068 31.6854 22.687 31.9432C23.2457 32.2011 23.8045 32.4375 24.2987 32.5879C24.7929 32.7598 25.2657 32.8458 25.6525 32.8887C25.717 32.8887 25.7599 32.8887 25.8244 32.8887C25.8674 32.8887 25.9319 32.8887 25.9748 32.8887C26.0178 32.8887 26.0823 32.8887 26.1253 32.8672C26.1682 32.8672 26.2112 32.8458 26.2757 32.8458C26.3401 32.8243 26.4046 32.8243 26.4691 32.8028C26.5335 32.7813 26.598 32.7598 26.6625 32.7168C26.7269 32.6953 26.7699 32.6524 26.8344 32.6094C26.8774 32.5664 26.9418 32.5234 26.9848 32.4804C27.2642 32.1796 27.3931 31.7068 27.3931 31.1052C27.3931 30.525 27.2427 29.8158 27.0278 29.0207L26.9633 28.9348Z" fill="#929392"/>
<path d="M10.9541 13.8289C11.2764 13.8289 11.5128 13.9149 11.7062 14.0868C11.8996 14.2587 11.9856 14.4951 11.9856 14.8174C11.9856 15.1398 11.8781 15.3976 11.6847 15.5695C11.4698 15.7415 11.212 15.8489 10.8682 15.8489C10.0946 15.8489 9.70776 15.5051 9.70776 14.8389H8.56885V14.9249C8.56885 15.5481 8.78374 16.0208 9.19203 16.3431C9.60031 16.687 10.159 16.8374 10.8682 16.8374C11.5128 16.8374 12.05 16.6655 12.5013 16.3002C12.9526 15.9563 13.1675 15.4406 13.1675 14.8174C13.1675 14.6025 13.1245 14.3877 13.06 14.1943C12.9956 14.0009 12.9096 13.8504 12.8451 13.743C12.7592 13.6355 12.6732 13.5281 12.5658 13.4636C12.4583 13.3777 12.3724 13.3347 12.3294 13.3132C12.2864 13.2917 12.2434 13.2702 12.222 13.2702L12.3079 13.2273C12.3724 13.2058 12.4368 13.1413 12.5228 13.0553C12.6088 12.9694 12.6947 12.8834 12.7592 12.776C12.8451 12.6685 12.9096 12.5181 12.9741 12.3462C13.0385 12.1743 13.06 11.9809 13.06 11.7875C13.06 11.2073 12.8666 10.756 12.4798 10.4337C12.093 10.1114 11.5558 9.93945 10.8896 9.93945C10.2235 9.93945 9.70776 10.0899 9.29947 10.4337C8.89118 10.756 8.69778 11.2073 8.69778 11.7875V11.852H9.8152C9.8152 11.5296 9.92265 11.2933 10.0946 11.1428C10.288 10.9924 10.5458 10.9065 10.8896 10.9065C11.2335 10.9065 11.5128 10.9924 11.6847 11.1428C11.8566 11.3147 11.9641 11.5296 11.9641 11.809C11.9641 12.1098 11.8781 12.3677 11.6847 12.5396C11.4913 12.7115 11.255 12.7975 10.9541 12.7975H9.8152V13.786L11.0186 13.8075L10.9541 13.8289ZM18.5827 16.7514V15.6985H15.8321L17.4223 14.1298C17.852 13.7215 18.1529 13.3347 18.3248 12.9909C18.4967 12.6471 18.5827 12.2817 18.5827 11.9164C18.5827 11.3147 18.3893 10.8205 18.024 10.4982C17.6372 10.1543 17.1214 9.98243 16.4338 9.98243C15.7461 9.98243 15.2089 10.1543 14.8006 10.4982C14.3923 10.842 14.1989 11.3147 14.1989 11.9379V12.0024H15.3378C15.3378 11.3362 15.6817 10.9924 16.4123 10.9924C17.0999 10.9924 17.4438 11.3147 17.4438 11.9594C17.4438 12.2173 17.3793 12.4537 17.2718 12.69C17.1644 12.9264 16.9495 13.1843 16.6702 13.4636L14.3494 15.72V16.7729H18.6256L18.5827 16.7514Z" fill="#929392"/>
<path d="M10.0734 22.4034V17.3535H9.2353V21.2L7.23683 17.3535H5.99048V22.4034H6.82855V18.5784L8.8485 22.4034H10.0734ZM11.8355 21.9307C11.8355 21.8017 11.7925 21.7158 11.7065 21.6298C11.6206 21.5653 11.5131 21.5224 11.3627 21.5224C11.2338 21.5224 11.1263 21.5653 11.0404 21.6298C10.9544 21.6943 10.9114 21.8017 10.9114 21.9307V22.0811C10.9114 22.21 10.9544 22.296 11.0404 22.3819C11.1263 22.4464 11.2338 22.4894 11.3842 22.4894C11.5346 22.4894 11.6421 22.4464 11.728 22.3819C11.814 22.3175 11.8569 22.21 11.8569 22.0811L11.8355 21.9307ZM15.639 21.0496H14.8439C14.8439 21.5224 14.586 21.7587 14.0918 21.7587C13.5975 21.7587 13.3612 21.5009 13.3612 21.0066V20.2545C13.3612 19.7388 13.5975 19.5024 14.0918 19.5024C14.586 19.5024 14.8439 19.7388 14.8439 20.2115H15.639V20.1471C15.639 19.7173 15.5101 19.3735 15.2307 19.1371C14.9513 18.9007 14.586 18.7718 14.1133 18.7718C13.6405 18.7718 13.2752 18.9007 12.9959 19.1371C12.7165 19.395 12.5661 19.7388 12.5661 20.1686V21.0496C12.5661 21.4794 12.7165 21.8232 12.9959 22.0811C13.2752 22.3174 13.6405 22.4464 14.1133 22.4464C14.586 22.4464 14.9728 22.3389 15.2522 22.1026C15.5315 21.8662 15.682 21.5224 15.682 21.0926L15.6605 21.0496H15.639ZM21.3121 22.4034V19.8892C21.3121 19.5454 21.2261 19.2875 21.0542 19.0941C20.8823 18.9007 20.6244 18.8148 20.3236 18.8148C20.0442 18.8148 19.7649 18.9007 19.507 19.0511L19.1202 19.2875C18.9698 18.9652 18.6904 18.8148 18.2821 18.8148C18.0243 18.8148 17.7664 18.8792 17.53 19.0296L17.2077 19.223V18.8577H16.3911V22.4249H17.2077V19.9752L17.6375 19.7173C17.8094 19.6313 17.9598 19.5884 18.0672 19.5884C18.3251 19.5884 18.4325 19.7388 18.4325 20.0396V22.4464H19.2491V19.9967L19.6789 19.7388C19.8508 19.6528 20.0012 19.5884 20.1087 19.5884C20.3665 19.5884 20.4955 19.7388 20.4955 20.0181V22.4464H21.3121V22.4034Z" fill="#929392"/>
<path d="M23.5897 12.9049C26.9849 12.9049 29.757 10.1544 29.757 6.73762C29.757 3.32089 27.0064 0.570312 23.5897 0.570312C20.1729 0.570312 17.4224 3.32089 17.4224 6.73762C17.4224 10.1329 20.1729 12.9049 23.5897 12.9049Z" fill="#929392"/>
<path d="M23.5897 12.9049C26.9849 12.9049 29.757 10.1544 29.757 6.73762C29.757 3.32089 27.0064 0.570312 23.5897 0.570312C20.1729 0.570312 17.4224 3.32089 17.4224 6.73762C17.4224 10.1329 20.1729 12.9049 23.5897 12.9049Z" stroke="white" stroke-width="0.623178"/>
<path d="M25.7814 10.2611V9.59499H24.2772V3.70703H23.5036C23.0308 4.13681 22.5795 4.43765 22.1283 4.58808V5.29721C22.6225 5.21125 23.0953 4.95339 23.5251 4.52361V9.61648H21.6125V10.2826H25.7814V10.2611Z" fill="#FEFEFE"/>
</svg>
