<svg width="17" height="17" viewBox="0 0 17 17" fill="none" xmlns="http://www.w3.org/2000/svg">
<path d="M8.57068 4.39844C8.70329 4.39844 8.83047 4.45112 8.92424 4.54489C9.01801 4.63866 9.07069 4.76584 9.07069 4.89845V7.89854H12.0708C12.2034 7.89854 12.3306 7.95122 12.4243 8.045C12.5181 8.13877 12.5708 8.26595 12.5708 8.39856C12.5708 8.53117 12.5181 8.65835 12.4243 8.75212C12.3306 8.84589 12.2034 8.89857 12.0708 8.89857H9.07069V11.8987C9.07069 12.0313 9.01801 12.1585 8.92424 12.2522C8.83047 12.346 8.70329 12.3987 8.57068 12.3987C8.43807 12.3987 8.31089 12.346 8.21711 12.2522C8.12334 12.1585 8.07066 12.0313 8.07066 11.8987V8.89857H5.07057C4.93796 8.89857 4.81078 8.84589 4.71701 8.75212C4.62324 8.65835 4.57056 8.53117 4.57056 8.39856C4.57056 8.26595 4.62324 8.13877 4.71701 8.045C4.81078 7.95122 4.93796 7.89854 5.07057 7.89854H8.07066V4.89845C8.07066 4.76584 8.12334 4.63866 8.21711 4.54489C8.31089 4.45112 8.43807 4.39844 8.57068 4.39844Z" fill="#CFCCC9"/>
</svg>
