<svg width="17" height="17" viewBox="0 0 17 17" fill="none" xmlns="http://www.w3.org/2000/svg">
<path d="M8.57068 4.69336C8.70329 4.69336 8.83047 4.74604 8.92424 4.83981C9.01801 4.93358 9.07069 5.06076 9.07069 5.19337V8.19347H12.0708C12.2034 8.19347 12.3306 8.24615 12.4243 8.33992C12.5181 8.43369 12.5708 8.56087 12.5708 8.69348C12.5708 8.82609 12.5181 8.95327 12.4243 9.04705C12.3306 9.14082 12.2034 9.1935 12.0708 9.1935H9.07069V12.1936C9.07069 12.3262 9.01801 12.4534 8.92424 12.5472C8.83047 12.6409 8.70329 12.6936 8.57068 12.6936C8.43807 12.6936 8.31089 12.6409 8.21711 12.5472C8.12334 12.4534 8.07066 12.3262 8.07066 12.1936V9.1935H5.07057C4.93796 9.1935 4.81078 9.14082 4.71701 9.04705C4.62324 8.95327 4.57056 8.82609 4.57056 8.69348C4.57056 8.56087 4.62324 8.43369 4.71701 8.33992C4.81078 8.24615 4.93796 8.19347 5.07057 8.19347H8.07066V5.19337C8.07066 5.06076 8.12334 4.93358 8.21711 4.83981C8.31089 4.74604 8.43807 4.69336 8.57068 4.69336Z" fill="#CFCCC9"/>
</svg>
