<svg width="17" height="16" viewBox="0 0 17 16" fill="none" xmlns="http://www.w3.org/2000/svg">
<path d="M4.10968 3.72066V7.60895C4.10968 8.19338 4.58378 8.67047 5.1712 8.67047H9.05949M15.0678 5.48888V1.60059C15.0678 1.01615 14.5937 0.539062 14.0063 0.539062H5.1712C4.58677 0.539062 4.10968 1.01317 4.10968 1.60059V3.01397M9.7632 8.66749H10.8098L12.6943 10.5431C12.918 10.7637 13.2966 10.6057 13.2966 10.2926V8.66749H14.0033C14.5878 8.66749 15.0649 8.19338 15.0649 7.60597V6.19258M6.22975 11.1394V12.5528C6.22975 13.1372 6.70385 13.6143 7.29127 13.6143H11.2869L13.7857 15.6241C14.0182 15.8089 14.3612 15.6449 14.3612 15.3497V13.6143H15.7745C16.359 13.6143 16.8361 13.1402 16.8361 12.5528V6.54444C16.8361 5.96 16.362 5.48291 15.7745 5.48291H9.76618M6.23273 8.66451V10.4327M9.05949 5.48589H7.29127C6.70684 5.48589 6.22975 5.96 6.22975 6.54742V7.9608M1.63477 3.01397H8.70465C9.28909 3.01397 9.76618 3.48808 9.76618 4.0755V10.0839C9.76618 10.6683 9.29207 11.1454 8.70465 11.1454H4.35717L2.59789 12.9822C2.37724 13.2118 1.9896 13.0567 1.9896 12.7377V11.1454H1.63477C1.05033 11.1454 0.573242 10.6713 0.573242 10.0839V4.0755C0.573242 3.49106 1.04735 3.01397 1.63477 3.01397Z" stroke="white" stroke-width="0.70669" stroke-miterlimit="10"/>
</svg>
