<svg width="34" height="34" viewBox="0 0 34 34" fill="none" xmlns="http://www.w3.org/2000/svg">
<path d="M17.125 33.25C26.3077 33.25 33.75 25.8077 33.75 16.625C33.75 7.44232 26.3077 0 17.125 0C7.94232 0 0.5 7.44232 0.5 16.625C0.5 25.8077 7.94232 33.25 17.125 33.25Z" stroke="#250A20" stroke-width="0.761951"/>
<path d="M17.1402 7.97655L18.3844 9.22076H17.6516V13.4953C17.4913 13.6327 17.3311 13.7854 17.186 13.938C17.1631 13.9609 17.1479 13.9838 17.125 13.9991C17.1097 13.9762 17.0868 13.9533 17.0715 13.938C16.9341 13.793 16.7815 13.6556 16.6364 13.5182V9.21312H15.9037L17.1479 7.96892L17.1402 7.97655ZM17.1402 7.37354L16.8349 7.67886L15.5907 8.92306L14.8579 9.65585H15.8884H16.1937V13.5335V13.7319L16.3387 13.8617C16.4914 13.9915 16.6212 14.1212 16.7433 14.251C16.7509 14.2586 16.7586 14.2663 16.7662 14.2739C16.7738 14.2892 16.7891 14.2968 16.7967 14.3121L17.1097 14.6556L17.4226 14.3121C17.4303 14.2968 17.4455 14.2892 17.4532 14.2739C17.4608 14.2663 17.4684 14.2586 17.4761 14.251C17.6135 14.106 17.7585 13.9686 17.9112 13.8388L18.0638 13.709V13.5106V9.66348H18.3692H19.3996L18.6669 8.9307L17.4226 7.68649L17.1173 7.38117L17.1402 7.37354Z" fill="#250A20"/>
<path d="M10.2704 12.6023V13.335H11.6901C13.5526 13.3503 15.0029 13.8923 16.0029 14.9456C16.0868 15.0372 16.1708 15.1288 16.2471 15.2281C16.0563 15.5639 15.896 15.9227 15.7586 16.312C15.6136 16.0677 15.4457 15.8463 15.2625 15.6479C15.2319 15.6173 15.2014 15.5868 15.1709 15.5563C14.9953 15.3807 14.7968 15.2281 14.5907 15.0907C14.4686 15.0067 14.3389 14.938 14.2015 14.8693C14.0641 14.8006 13.9267 14.7395 13.774 14.6861C13.629 14.6327 13.4687 14.5869 13.3084 14.5411C13.1481 14.5029 12.9802 14.4647 12.8046 14.4418C12.4611 14.3884 12.0871 14.3579 11.6901 14.3579H10.2704V15.0907L9.02618 13.8465L10.2704 12.6023ZM10.6978 11.5718L9.96506 12.3046L8.72085 13.5488L8.41553 13.8541L8.72085 14.1594L9.96506 15.4036L10.6978 16.1364V15.1059V14.8006H11.6901C12.0642 14.8006 12.4153 14.8311 12.7435 14.8846C12.9038 14.9075 13.0565 14.938 13.2091 14.9762C13.3542 15.0143 13.4992 15.0525 13.629 15.1059C13.7587 15.1517 13.8885 15.2052 14.0106 15.2662C14.1328 15.3273 14.2473 15.3884 14.3541 15.4647C14.5373 15.5792 14.7052 15.7166 14.8655 15.8769L14.8884 15.8998C14.9113 15.915 14.9266 15.9379 14.9495 15.9608C15.1098 16.1288 15.2548 16.3272 15.3922 16.5486L15.8579 17.3195L16.1632 16.4723C16.2929 16.1135 16.4456 15.77 16.6288 15.4494L16.7662 15.1975L16.583 14.9762C16.4838 14.854 16.3998 14.7548 16.3158 14.6708C15.2396 13.5259 13.6824 12.9457 11.6978 12.9305H10.6978V12.6252V11.5947V11.5718Z" fill="#250A20"/>
<path d="M23.972 12.6024L25.2162 13.8466L23.972 15.0908V14.358H22.5523C22.1553 14.358 21.7813 14.3885 21.4378 14.442C21.2623 14.4725 21.102 14.503 20.9417 14.5412C20.7814 14.5794 20.6287 14.6328 20.476 14.6862C20.331 14.7397 20.186 14.8007 20.0486 14.8694C19.9112 14.9381 19.7814 15.0068 19.6593 15.0908C19.4608 15.2206 19.2776 15.3656 19.1097 15.5259C19.0639 15.564 19.0257 15.6098 18.9876 15.648C18.5678 16.0907 18.2472 16.6556 18.0258 17.3502C17.9953 17.4342 17.9724 17.5258 17.9495 17.6174C17.9037 17.8006 17.8579 17.9838 17.8197 18.1822C17.7281 18.6707 17.6747 19.2051 17.6518 19.7852V24.3651C17.6518 24.4719 17.6212 24.5712 17.5678 24.6475C17.4762 24.7849 17.3236 24.8689 17.1404 24.8689C16.9648 24.8689 16.8121 24.7773 16.7129 24.6475C16.6595 24.5635 16.6289 24.4643 16.6289 24.3651V19.7775C16.6289 19.7699 16.6289 19.7699 16.6289 19.7623C16.6824 17.6479 17.232 16.0297 18.2395 14.9534C19.2318 13.9 20.6821 13.3581 22.5446 13.3428H23.972V12.61V12.6024ZM23.5446 11.5719V12.6024V12.9077H22.5446C20.56 12.923 19.0028 13.5107 17.9266 14.6481C16.835 15.8007 16.2549 17.5181 16.1938 19.7394C16.1938 19.747 16.1938 19.7546 16.1938 19.7623V24.3498C16.1938 24.5406 16.2473 24.7162 16.3541 24.8765C16.5297 25.136 16.8198 25.2887 17.1327 25.2887C17.4457 25.2887 17.7357 25.136 17.9113 24.8765C18.0182 24.7238 18.0716 24.5406 18.0716 24.3498V19.7775C18.0869 19.228 18.1403 18.7165 18.2243 18.2509C18.2624 18.0677 18.3006 17.8922 18.3464 17.7242C18.3693 17.6403 18.3922 17.5563 18.4227 17.48C18.6288 16.854 18.9189 16.335 19.2853 15.9381C19.3234 15.8999 19.3616 15.8617 19.3921 15.8312C19.5448 15.6862 19.7051 15.5564 19.8807 15.4495C19.9875 15.3808 20.1097 15.3122 20.2242 15.2511C20.3463 15.19 20.476 15.1366 20.6058 15.0908C20.7432 15.045 20.8806 14.9992 21.0256 14.961C21.1707 14.9229 21.331 14.8923 21.4913 14.8694C21.8118 14.816 22.1706 14.7931 22.5446 14.7855H23.5369V15.0908V16.1213L24.2697 15.3885L25.5139 14.1443L25.8193 13.839L25.5139 13.5336L24.2697 12.2894L23.5369 11.5566L23.5446 11.5719Z" fill="#250A20"/>
<path d="M17.125 29.8913C9.81243 29.8913 3.86621 23.9451 3.86621 16.6326C3.86621 9.32 9.81243 3.37378 17.125 3.37378C24.4376 3.37378 30.3838 9.32 30.3838 16.6326C30.3838 23.9451 24.4376 29.8913 17.125 29.8913ZM17.125 3.90047C10.1101 3.90047 4.40053 9.61006 4.40053 16.6249C4.40053 23.6398 10.1101 29.3494 17.125 29.3494C24.1399 29.3494 29.8495 23.6398 29.8495 16.6249C29.8495 9.61006 24.1399 3.90047 17.125 3.90047Z" fill="#250A20"/>
<path d="M17.1251 27.9527C10.8812 27.9527 5.80518 22.8766 5.80518 16.6327C5.80518 10.3888 10.8812 5.31274 17.1251 5.31274C23.3691 5.31274 28.4451 10.3888 28.4451 16.6327C28.4451 22.8766 23.3691 27.9527 17.1251 27.9527ZM17.1251 5.84706C11.1789 5.84706 6.3395 10.6865 6.3395 16.6327C6.3395 22.5789 11.1789 27.4184 17.1251 27.4184C23.0714 27.4184 27.9108 22.5789 27.9108 16.6327C27.9108 10.6865 23.0714 5.84706 17.1251 5.84706Z" fill="#250A20"/>
</svg>
