<svg width="21" height="20" viewBox="0 0 21 20" fill="none" xmlns="http://www.w3.org/2000/svg">
<path d="M10.8625 5.09766C11.0268 5.09766 11.1843 5.1629 11.3004 5.27904C11.4166 5.39518 11.4818 5.5527 11.4818 5.71695V9.43268H15.1975C15.3618 9.43268 15.5193 9.49793 15.6354 9.61407C15.7516 9.73021 15.8168 9.88773 15.8168 10.052C15.8168 10.2162 15.7516 10.3737 15.6354 10.4899C15.5193 10.606 15.3618 10.6713 15.1975 10.6713H11.4818V14.387C11.4818 14.5512 11.4166 14.7088 11.3004 14.8249C11.1843 14.941 11.0268 15.0063 10.8625 15.0063C10.6983 15.0063 10.5408 14.941 10.4246 14.8249C10.3085 14.7088 10.2432 14.5512 10.2432 14.387V10.6713H6.52749C6.36325 10.6713 6.20573 10.606 6.08959 10.4899C5.97345 10.3737 5.9082 10.2162 5.9082 10.052C5.9082 9.88773 5.97345 9.73021 6.08959 9.61407C6.20573 9.49793 6.36325 9.43268 6.52749 9.43268H10.2432V5.71695C10.2432 5.5527 10.3085 5.39518 10.4246 5.27904C10.5408 5.1629 10.6983 5.09766 10.8625 5.09766Z" fill="#363330"/>
</svg>
