<svg width="15" height="15" viewBox="0 0 15 15" fill="none" xmlns="http://www.w3.org/2000/svg">
<path d="M8.20387 5.45772C8.20387 5.3463 8.15961 5.23944 8.08082 5.16065C8.00203 5.08186 7.89517 5.0376 7.78374 5.0376C7.67232 5.0376 7.56545 5.08186 7.48667 5.16065C7.40788 5.23944 7.36361 5.3463 7.36361 5.45772V6.71811H6.10323C5.99181 6.71811 5.88495 6.76237 5.80616 6.84116C5.72737 6.91995 5.68311 7.02681 5.68311 7.13823C5.68311 7.24966 5.72737 7.35652 5.80616 7.43531C5.88495 7.5141 5.99181 7.55836 6.10323 7.55836H7.36361V8.81874C7.36361 8.93017 7.40788 9.03703 7.48667 9.11582C7.56545 9.19461 7.67232 9.23887 7.78374 9.23887C7.89517 9.23887 8.00203 9.19461 8.08082 9.11582C8.15961 9.03703 8.20387 8.93017 8.20387 8.81874V7.55836H9.46425C9.57567 7.55836 9.68254 7.5141 9.76132 7.43531C9.84011 7.35652 9.88438 7.24966 9.88438 7.13823C9.88438 7.02681 9.84011 6.91995 9.76132 6.84116C9.68254 6.76237 9.57567 6.71811 9.46425 6.71811H8.20387V5.45772Z" fill="#363330"/>
<path d="M1.06173 1.67676C0.950304 1.67676 0.843443 1.72102 0.764654 1.79981C0.685865 1.8786 0.641602 1.98546 0.641602 2.09688C0.641602 2.20831 0.685865 2.31517 0.764654 2.39396C0.843443 2.47275 0.950304 2.51701 1.06173 2.51701H1.99441L2.33135 3.8673L3.59005 10.5767C3.60808 10.673 3.65917 10.76 3.7345 10.8226C3.80983 10.8852 3.90467 10.9195 4.00262 10.9196H4.84287C4.39717 10.9196 3.96973 11.0966 3.65457 11.4118C3.33942 11.7269 3.16236 12.1544 3.16236 12.6001C3.16236 13.0458 3.33942 13.4732 3.65457 13.7884C3.96973 14.1035 4.39717 14.2806 4.84287 14.2806C5.28857 14.2806 5.71602 14.1035 6.03117 13.7884C6.34633 13.4732 6.52338 13.0458 6.52338 12.6001C6.52338 12.1544 6.34633 11.7269 6.03117 11.4118C5.71602 11.0966 5.28857 10.9196 4.84287 10.9196H10.7247C10.279 10.9196 9.85151 11.0966 9.53635 11.4118C9.2212 11.7269 9.04414 12.1544 9.04414 12.6001C9.04414 13.0458 9.2212 13.4732 9.53635 13.7884C9.85151 14.1035 10.279 14.2806 10.7247 14.2806C11.1704 14.2806 11.5978 14.1035 11.913 13.7884C12.2281 13.4732 12.4052 13.0458 12.4052 12.6001C12.4052 12.1544 12.2281 11.7269 11.913 11.4118C11.5978 11.0966 11.1704 10.9196 10.7247 10.9196H11.5649C11.6629 10.9195 11.7577 10.8852 11.833 10.8226C11.9084 10.76 11.9594 10.673 11.9775 10.5767L13.2379 3.8547C13.2492 3.79406 13.2471 3.73167 13.2316 3.67196C13.2161 3.61224 13.1877 3.55667 13.1483 3.50919C13.1089 3.4617 13.0595 3.42348 13.0037 3.39722C12.9479 3.37096 12.887 3.35732 12.8253 3.35727H3.06994L2.72963 1.99521C2.70695 1.90429 2.65452 1.82355 2.58068 1.76585C2.50684 1.70814 2.41582 1.67678 2.32211 1.67676H1.06173ZM4.35132 10.0793L3.24807 4.19752H12.3195L11.2162 10.0793H4.35132ZM5.68313 12.6001C5.68313 12.8229 5.5946 13.0366 5.43702 13.1942C5.27944 13.3518 5.06572 13.4403 4.84287 13.4403C4.62002 13.4403 4.4063 13.3518 4.24872 13.1942C4.09115 13.0366 4.00262 12.8229 4.00262 12.6001C4.00262 12.3772 4.09115 12.1635 4.24872 12.0059C4.4063 11.8483 4.62002 11.7598 4.84287 11.7598C5.06572 11.7598 5.27944 11.8483 5.43702 12.0059C5.5946 12.1635 5.68313 12.3772 5.68313 12.6001ZM11.5649 12.6001C11.5649 12.8229 11.4764 13.0366 11.3188 13.1942C11.1612 13.3518 10.9475 13.4403 10.7247 13.4403C10.5018 13.4403 10.2881 13.3518 10.1305 13.1942C9.97293 13.0366 9.8844 12.8229 9.8844 12.6001C9.8844 12.3772 9.97293 12.1635 10.1305 12.0059C10.2881 11.8483 10.5018 11.7598 10.7247 11.7598C10.9475 11.7598 11.1612 11.8483 11.3188 12.0059C11.4764 12.1635 11.5649 12.3772 11.5649 12.6001Z" fill="#363330"/>
</svg>
