<svg width="17" height="17" viewBox="0 0 17 17" fill="none" xmlns="http://www.w3.org/2000/svg">
<path d="M8.50745 4.86914C8.64006 4.86914 8.76724 4.92182 8.86101 5.01559C8.95478 5.10936 9.00746 5.23654 9.00746 5.36916V8.36925H12.0076C12.1402 8.36925 12.2673 8.42193 12.3611 8.5157C12.4549 8.60947 12.5076 8.73665 12.5076 8.86926C12.5076 9.00187 12.4549 9.12906 12.3611 9.22283C12.2673 9.3166 12.1402 9.36928 12.0076 9.36928H9.00746V12.3694C9.00746 12.502 8.95478 12.6292 8.86101 12.7229C8.76724 12.8167 8.64006 12.8694 8.50745 12.8694C8.37483 12.8694 8.24765 12.8167 8.15388 12.7229C8.06011 12.6292 8.00743 12.502 8.00743 12.3694V9.36928H5.00734C4.87473 9.36928 4.74755 9.3166 4.65378 9.22283C4.56 9.12906 4.50732 9.00187 4.50732 8.86926C4.50732 8.73665 4.56 8.60947 4.65378 8.5157C4.74755 8.42193 4.87473 8.36925 5.00734 8.36925H8.00743V5.36916C8.00743 5.23654 8.06011 5.10936 8.15388 5.01559C8.24765 4.92182 8.37483 4.86914 8.50745 4.86914Z" fill="#CFCCC9"/>
</svg>
