<svg width="22" height="22" viewBox="0 0 22 22" fill="none" xmlns="http://www.w3.org/2000/svg">
<path d="M11.9301 7.56942C11.9301 7.39553 11.861 7.22876 11.738 7.1058C11.6151 6.98284 11.4483 6.91376 11.2744 6.91376C11.1005 6.91376 10.9337 6.98284 10.8108 7.1058C10.6878 7.22876 10.6187 7.39553 10.6187 7.56942V9.5364H8.65175C8.47786 9.5364 8.31109 9.60548 8.18813 9.72844C8.06517 9.8514 7.99609 10.0182 7.99609 10.1921C7.99609 10.366 8.06517 10.5327 8.18813 10.6557C8.31109 10.7786 8.47786 10.8477 8.65175 10.8477H10.6187V12.8147C10.6187 12.9886 10.6878 13.1554 10.8108 13.2783C10.9337 13.4013 11.1005 13.4704 11.2744 13.4704C11.4483 13.4704 11.6151 13.4013 11.738 13.2783C11.861 13.1554 11.9301 12.9886 11.9301 12.8147V10.8477H13.897C14.0709 10.8477 14.2377 10.7786 14.3607 10.6557C14.4836 10.5327 14.5527 10.366 14.5527 10.1921C14.5527 10.0182 14.4836 9.8514 14.3607 9.72844C14.2377 9.60548 14.0709 9.5364 13.897 9.5364H11.9301V7.56942Z" fill="#363330"/>
<path d="M0.784078 1.66846C0.610186 1.66846 0.443417 1.73754 0.320456 1.8605C0.197496 1.98346 0.128418 2.15023 0.128418 2.32412C0.128418 2.49801 0.197496 2.66478 0.320456 2.78774C0.443417 2.9107 0.610186 2.97978 0.784078 2.97978H2.23964L2.76548 5.08707L4.72984 15.558C4.75797 15.7082 4.83771 15.8439 4.95527 15.9416C5.07284 16.0393 5.22084 16.0928 5.3737 16.093H6.68502C5.98945 16.093 5.32238 16.3693 4.83053 16.8611C4.33869 17.353 4.06238 18.0201 4.06238 18.7156C4.06238 19.4112 4.33869 20.0783 4.83053 20.5701C5.32238 21.062 5.98945 21.3383 6.68502 21.3383C7.38059 21.3383 8.04767 21.062 8.53951 20.5701C9.03135 20.0783 9.30766 19.4112 9.30766 18.7156C9.30766 18.0201 9.03135 17.353 8.53951 16.8611C8.04767 16.3693 7.38059 16.093 6.68502 16.093H15.8643C15.1687 16.093 14.5016 16.3693 14.0098 16.8611C13.5179 17.353 13.2416 18.0201 13.2416 18.7156C13.2416 19.4112 13.5179 20.0783 14.0098 20.5701C14.5016 21.062 15.1687 21.3383 15.8643 21.3383C16.5598 21.3383 17.2269 21.062 17.7188 20.5701C18.2106 20.0783 18.4869 19.4112 18.4869 18.7156C18.4869 18.0201 18.2106 17.353 17.7188 16.8611C17.2269 16.3693 16.5598 16.093 15.8643 16.093H17.1756C17.3284 16.0928 17.4765 16.0393 17.594 15.9416C17.7116 15.8439 17.7913 15.7082 17.8194 15.558L19.7864 5.0674C19.8041 4.97277 19.8008 4.8754 19.7766 4.78221C19.7525 4.68902 19.7081 4.60229 19.6466 4.52819C19.5852 4.45409 19.5082 4.39443 19.421 4.35345C19.3339 4.31248 19.2388 4.29119 19.1426 4.2911H3.91814L3.38705 2.16545C3.35166 2.02354 3.26983 1.89754 3.15459 1.80749C3.03935 1.71744 2.89731 1.6685 2.75106 1.66846H0.784078ZM5.9179 14.7817L4.19614 5.60242H18.3532L16.6314 14.7817H5.9179ZM7.99634 18.7156C7.99634 19.0634 7.85819 19.397 7.61227 19.6429C7.36635 19.8888 7.03281 20.0269 6.68502 20.0269C6.33724 20.0269 6.0037 19.8888 5.75778 19.6429C5.51186 19.397 5.3737 19.0634 5.3737 18.7156C5.3737 18.3678 5.51186 18.0343 5.75778 17.7884C6.0037 17.5425 6.33724 17.4043 6.68502 17.4043C7.03281 17.4043 7.36635 17.5425 7.61227 17.7884C7.85819 18.0343 7.99634 18.3678 7.99634 18.7156ZM17.1756 18.7156C17.1756 19.0634 17.0374 19.397 16.7915 19.6429C16.5456 19.8888 16.2121 20.0269 15.8643 20.0269C15.5165 20.0269 15.1829 19.8888 14.937 19.6429C14.6911 19.397 14.5529 19.0634 14.5529 18.7156C14.5529 18.3678 14.6911 18.0343 14.937 17.7884C15.1829 17.5425 15.5165 17.4043 15.8643 17.4043C16.2121 17.4043 16.5456 17.5425 16.7915 17.7884C17.0374 18.0343 17.1756 18.3678 17.1756 18.7156Z" fill="#363330"/>
</svg>
