<svg width="12" height="13" viewBox="0 0 12 13" fill="none" xmlns="http://www.w3.org/2000/svg">
<path fill-rule="evenodd" clip-rule="evenodd" d="M0.75 6.7207C0.75 8.11309 1.30312 9.44845 2.28769 10.433C3.27226 11.4176 4.60761 11.9707 6 11.9707C7.39239 11.9707 8.72774 11.4176 9.71231 10.433C10.6969 9.44845 11.25 8.11309 11.25 6.7207C11.25 5.32832 10.6969 3.99296 9.71231 3.00839C8.72774 2.02383 7.39239 1.4707 6 1.4707C4.60761 1.4707 3.27226 2.02383 2.28769 3.00839C1.30312 3.99296 0.75 5.32832 0.75 6.7207V6.7207ZM12 6.7207C12 8.312 11.3679 9.83813 10.2426 10.9633C9.11742 12.0886 7.5913 12.7207 6 12.7207C4.4087 12.7207 2.88258 12.0886 1.75736 10.9633C0.632141 9.83813 0 8.312 0 6.7207C0 5.1294 0.632141 3.60328 1.75736 2.47806C2.88258 1.35284 4.4087 0.720703 6 0.720703C7.5913 0.720703 9.11742 1.35284 10.2426 2.47806C11.3679 3.60328 12 5.1294 12 6.7207V6.7207ZM4.3905 8.82295C4.32018 8.89337 4.22478 8.93297 4.12527 8.93304C4.02575 8.93311 3.93029 8.89364 3.85988 8.82333C3.78946 8.75301 3.74986 8.65761 3.74979 8.55809C3.74972 8.45858 3.78918 8.36312 3.8595 8.2927L6.93225 5.2207H4.85625C4.75679 5.2207 4.66141 5.18119 4.59108 5.11087C4.52076 5.04054 4.48125 4.94516 4.48125 4.8457C4.48125 4.74625 4.52076 4.65086 4.59108 4.58054C4.66141 4.51021 4.75679 4.4707 4.85625 4.4707H7.8375C7.93696 4.4707 8.03234 4.51021 8.10267 4.58054C8.17299 4.65086 8.2125 4.74625 8.2125 4.8457V7.82695C8.2125 7.92641 8.17299 8.02179 8.10267 8.09212C8.03234 8.16244 7.93696 8.20195 7.8375 8.20195C7.73804 8.20195 7.64266 8.16244 7.57234 8.09212C7.50201 8.02179 7.4625 7.92641 7.4625 7.82695V5.75095L4.3905 8.82295V8.82295Z" fill="white"/>
</svg>
