<svg width="33" height="33" viewBox="0 0 33 33" fill="none" xmlns="http://www.w3.org/2000/svg">
<path d="M32.5254 16.3984C32.5254 16.3984 26.5254 5.39844 16.5254 5.39844C6.52539 5.39844 0.525391 16.3984 0.525391 16.3984C0.525391 16.3984 6.52539 27.3984 16.5254 27.3984C26.5254 27.3984 32.5254 16.3984 32.5254 16.3984ZM2.87139 16.3984C3.83842 14.9287 4.95067 13.5598 6.19139 12.3124C8.76539 9.73444 12.2854 7.39844 16.5254 7.39844C20.7654 7.39844 24.2834 9.73444 26.8614 12.3124C28.1021 13.5598 29.2144 14.9287 30.1814 16.3984C30.0654 16.5724 29.9374 16.7644 29.7914 16.9744C29.1214 17.9344 28.1314 19.2144 26.8614 20.4844C24.2834 23.0624 20.7634 25.3984 16.5254 25.3984C12.2854 25.3984 8.76739 23.0624 6.18939 20.4844C4.94868 19.2371 3.83643 17.8682 2.86939 16.3984H2.87139Z" fill="white"/>
<path d="M16.5254 11.3984C15.1993 11.3984 13.9275 11.9252 12.9899 12.8629C12.0522 13.8006 11.5254 15.0724 11.5254 16.3984C11.5254 17.7245 12.0522 18.9963 12.9899 19.934C13.9275 20.8717 15.1993 21.3984 16.5254 21.3984C17.8515 21.3984 19.1232 20.8717 20.0609 19.934C20.9986 18.9963 21.5254 17.7245 21.5254 16.3984C21.5254 15.0724 20.9986 13.8006 20.0609 12.8629C19.1232 11.9252 17.8515 11.3984 16.5254 11.3984ZM9.52539 16.3984C9.52539 14.5419 10.2629 12.7614 11.5756 11.4487C12.8884 10.1359 14.6689 9.39844 16.5254 9.39844C18.3819 9.39844 20.1624 10.1359 21.4751 11.4487C22.7879 12.7614 23.5254 14.5419 23.5254 16.3984C23.5254 18.255 22.7879 20.0354 21.4751 21.3482C20.1624 22.6609 18.3819 23.3984 16.5254 23.3984C14.6689 23.3984 12.8884 22.6609 11.5756 21.3482C10.2629 20.0354 9.52539 18.255 9.52539 16.3984Z" fill="white"/>
</svg>
