<svg width="24" height="27" viewBox="0 0 24 27" fill="none" xmlns="http://www.w3.org/2000/svg">
<path d="M21.0381 23.0012C20.8601 22.3961 20.6038 21.7339 20.2976 21.0504C19.9915 20.3741 19.6426 19.6835 19.2653 19.0071C19.2154 19.0997 19.1585 19.1851 19.1015 19.2777C19.0446 19.3631 18.9876 19.4556 18.9306 19.5411C18.8737 19.6265 18.8096 19.712 18.7527 19.7974C18.6886 19.8828 18.6245 19.9611 18.5604 20.0466C18.5533 20.0537 18.5533 20.0537 18.5462 20.0608C18.5391 20.0679 18.5391 20.0751 18.5319 20.0751C18.5248 20.0822 18.5248 20.0822 18.5177 20.0893C18.5106 20.0964 18.5106 20.0964 18.5035 20.1035L18.4465 20.1676C18.4963 20.3171 18.5675 20.5093 18.6387 20.7087C18.7099 20.908 18.7954 21.1216 18.8594 21.3281C18.9235 21.5346 18.9805 21.7268 19.0018 21.8834C19.0232 22.0401 19.0161 22.1611 18.9591 22.2252C18.9378 22.2465 18.9164 22.2608 18.895 22.275C18.8737 22.2893 18.8452 22.3035 18.8167 22.3106C18.7882 22.3177 18.7598 22.3249 18.7242 22.3249C18.6886 22.332 18.6601 22.332 18.6174 22.332C18.5604 22.332 18.5035 22.3249 18.4394 22.3106C18.3753 22.2964 18.3041 22.2821 18.2329 22.2537C18.1617 22.2323 18.0834 22.2038 18.0051 22.1682C17.9268 22.1397 17.8413 22.1042 17.763 22.0614C17.6562 22.0116 17.5423 21.9546 17.4284 21.8977C17.3145 21.8336 17.1934 21.7695 17.0724 21.6983C16.9514 21.6271 16.8303 21.5559 16.7022 21.4776C16.574 21.3993 16.4459 21.321 16.3177 21.2427C16.8303 20.7372 17.3074 20.189 17.7488 19.6123C18.1902 19.0356 18.5889 18.4233 18.9449 17.7825C19.3009 17.1489 19.607 16.4796 19.8562 15.8033C20.1125 15.1269 20.3047 14.4292 20.4471 13.7172C20.7604 12.1224 20.7462 10.6344 20.4542 9.30303C20.1695 7.99301 19.6141 6.83963 18.8452 5.90695C18.0905 4.98852 17.1365 4.27655 16.0187 3.8209C14.9223 3.37236 13.6763 3.18013 12.3236 3.27268C11.4337 3.33676 10.5508 3.51475 9.68934 3.80666C8.8421 4.09144 8.00911 4.48302 7.21882 4.95292C6.42854 5.42282 5.68098 5.97815 4.98325 6.6118C4.28553 7.23833 3.63764 7.93605 3.06095 8.69074C2.90432 8.39883 2.76905 8.12828 2.66937 7.8791C2.56969 7.62991 2.49138 7.40208 2.44866 7.20273C2.40594 7.00338 2.38458 6.82539 2.40594 6.68299C2.42018 6.5406 2.47002 6.41957 2.54834 6.33413C2.56969 6.30565 2.60529 6.27717 2.64801 6.25582C2.69073 6.22734 2.73345 6.20598 2.7904 6.18462C2.84024 6.16326 2.90432 6.1419 2.96839 6.12766C3.03247 6.11342 3.10367 6.1063 3.17486 6.09918C3.25318 6.09206 3.33862 6.09918 3.41693 6.1063C3.50237 6.12054 3.5878 6.1419 3.68036 6.17038C3.7658 6.19886 3.85835 6.24158 3.95091 6.29853C4.04346 6.35549 4.1289 6.41957 4.22145 6.505C4.30689 6.39821 4.39944 6.29853 4.492 6.19886C4.58455 6.09918 4.68423 6.00663 4.7839 5.91407C4.88358 5.82152 4.98325 5.73608 5.09005 5.65065C5.19684 5.56521 5.30364 5.48689 5.41755 5.40858C5.42467 5.40146 5.43891 5.39434 5.44603 5.39434C5.45315 5.38722 5.46739 5.3801 5.47451 5.37298C5.48163 5.36586 5.49587 5.35874 5.50299 5.35162C5.51011 5.3445 5.51723 5.33738 5.53147 5.33026C5.33212 5.15227 5.11141 5.00276 4.8907 4.88172C4.66287 4.76069 4.43504 4.66813 4.19297 4.59694C3.95803 4.52574 3.72308 4.48302 3.49525 4.45455C3.26742 4.43319 3.03959 4.42607 2.83312 4.44031C2.68361 4.44743 2.54122 4.46878 2.40594 4.49726C2.27067 4.52574 2.14964 4.56134 2.03572 4.60406C1.92181 4.64678 1.81501 4.69661 1.72958 4.74645C1.64414 4.80341 1.56582 4.86037 1.50887 4.92444C1.33088 5.11667 1.22408 5.37298 1.17424 5.67912C1.12441 5.98527 1.14577 6.34837 1.21696 6.75419C1.29528 7.16001 1.43055 7.61567 1.62278 8.10692C1.81501 8.59818 2.0642 9.13927 2.37034 9.70173C2.16388 10.0221 1.97164 10.3425 1.78653 10.6771C1.60142 11.0117 1.43767 11.3535 1.28104 11.7023C1.12441 12.0512 0.982014 12.4072 0.85386 12.7703C0.725706 13.1334 0.611792 13.5036 0.512117 13.8738C0.134776 15.3049 0.0279809 16.679 0.149015 17.9463C0.277169 19.2349 0.640271 20.4168 1.22408 21.4349C1.81501 22.4744 2.63377 23.343 3.63764 23.9766C4.66287 24.6245 5.88745 25.0232 7.27578 25.1086C7.68872 25.13 8.10878 25.13 8.52172 25.1015C8.94178 25.073 9.36184 25.009 9.7819 24.9235C10.202 24.8381 10.622 24.7242 11.035 24.5889C11.455 24.4536 11.868 24.2899 12.2738 24.1048L11.2913 22.2465C11.0065 22.3605 10.7146 22.4601 10.4227 22.5456C10.1308 22.631 9.83885 22.7022 9.54695 22.752C9.25504 22.8019 8.96314 22.8446 8.67123 22.866C8.37933 22.8873 8.08742 22.8873 7.79552 22.8731C6.67773 22.8232 5.68098 22.5171 4.84798 22.0116C4.0221 21.5132 3.35286 20.8226 2.86872 19.9967C2.38458 19.178 2.07132 18.2239 1.96452 17.1845C1.85061 16.1521 1.93605 15.0343 2.23507 13.8738C2.5341 12.7205 3.01823 11.6169 3.64476 10.6202C4.26417 9.62341 5.03309 8.71921 5.88745 7.95029C6.74893 7.18137 7.70296 6.5406 8.71395 6.07783C9.73206 5.60793 10.8071 5.32314 11.8893 5.25907C12.9857 5.19499 13.9967 5.37298 14.8724 5.7432C15.7624 6.12054 16.5242 6.71147 17.1223 7.45904C17.7274 8.22084 18.1546 9.15351 18.3753 10.2143C18.596 11.2823 18.596 12.4784 18.3326 13.7528C18.2187 14.3081 18.062 14.8563 17.8627 15.3974C17.6633 15.9314 17.4213 16.4511 17.1436 16.9566C16.8659 17.455 16.5527 17.9392 16.2109 18.3948C15.8692 18.8505 15.4919 19.2848 15.0932 19.6835C15.1003 19.5482 15.1074 19.4129 15.1145 19.2705C15.1216 19.1281 15.1288 18.9929 15.1359 18.8647C15.143 18.7366 15.1501 18.6155 15.1501 18.5158C15.1572 18.4162 15.1572 18.3307 15.1572 18.2738C15.1572 18.2239 15.1501 18.1741 15.143 18.1385C15.1359 18.1029 15.1216 18.0744 15.1003 18.0602C15.086 18.0388 15.0647 18.0246 15.0433 18.0175C15.022 18.0104 15.0006 18.0032 14.9792 18.0032C14.9579 18.0032 14.9436 18.0032 14.9223 18.0104C14.908 18.0104 14.8867 18.0175 14.8796 18.0246C14.8653 18.0317 14.8511 18.0317 14.844 18.0388C14.8368 18.046 14.8297 18.046 14.8297 18.046L11.3767 19.1709C11.3696 19.1709 11.3411 19.178 11.3055 19.1993C11.2699 19.2207 11.2201 19.2421 11.1845 19.2848C11.1417 19.3275 11.1133 19.3844 11.1062 19.4556C11.099 19.534 11.1133 19.6265 11.1773 19.7404C11.1773 19.7475 11.1845 19.7547 11.1845 19.7618C11.1845 19.7689 11.1916 19.776 11.1916 19.7831C11.1916 19.7903 11.1987 19.7974 11.1987 19.8045C11.1987 19.8116 11.2058 19.8187 11.2058 19.8259C11.3625 20.1391 11.5832 20.5663 11.8395 21.0433C12.0958 21.5275 12.3806 22.0614 12.6654 22.5954C12.9501 23.1294 13.2349 23.6562 13.4841 24.1048C13.7333 24.5604 13.9398 24.9378 14.0608 25.1727C14.075 25.1941 14.0822 25.2154 14.0893 25.2297C14.0964 25.251 14.1106 25.2653 14.1178 25.2795C14.1249 25.2938 14.132 25.308 14.1391 25.3222C14.1462 25.3365 14.1534 25.3507 14.1605 25.3578C14.189 25.4219 14.2246 25.4717 14.253 25.5145C14.2815 25.5572 14.31 25.5928 14.3385 25.6213C14.367 25.6497 14.3954 25.664 14.4239 25.6782C14.4524 25.6925 14.4737 25.6996 14.5022 25.6996C14.5449 25.6996 14.5877 25.6853 14.6233 25.664C14.6589 25.6355 14.6873 25.5999 14.7158 25.5643C14.7443 25.5287 14.7585 25.4789 14.7728 25.4361C14.787 25.3934 14.7941 25.3578 14.8012 25.3222C14.8012 25.3151 14.8012 25.3009 14.8012 25.2795C14.8012 25.2653 14.8012 25.2439 14.8084 25.2226C14.8084 25.2012 14.8155 25.1727 14.8155 25.1442C14.8155 25.1158 14.8226 25.0873 14.8226 25.0588C14.8297 24.9449 14.8368 24.8096 14.844 24.6672C14.8511 24.5248 14.8582 24.3824 14.8653 24.2472C14.8724 24.1119 14.8796 23.998 14.8796 23.9054C14.8867 23.82 14.8867 23.7559 14.8867 23.7488C15.3566 24.0336 15.8336 24.3112 16.3035 24.5675C16.7734 24.8239 17.2362 25.0659 17.6776 25.2724C18.119 25.4789 18.5462 25.6497 18.9378 25.7779C19.3293 25.906 19.6924 25.9844 20.0057 26.0057C20.0484 26.0057 20.0911 26.0128 20.1339 26.0128C20.1766 26.0128 20.2193 26.0128 20.2549 26.0128C20.2976 26.0128 20.3332 26.0057 20.3688 26.0057C20.4044 25.9986 20.4471 25.9986 20.4827 25.9844C20.5397 25.9772 20.5895 25.963 20.6394 25.9416C20.6892 25.9274 20.739 25.906 20.7818 25.8847C20.8245 25.8633 20.8672 25.8348 20.9099 25.8064C20.9526 25.7779 20.9882 25.7423 21.0238 25.7067C21.2445 25.4717 21.3442 25.1015 21.3442 24.6387C21.3371 24.176 21.2374 23.6206 21.0523 23.0083L21.0381 23.0012Z" fill="#FDC600"/>
<path d="M10.3656 13.4965V12.692H9.22644V8.24931H8.3792C8.0161 8.58393 7.63164 8.80464 7.2187 8.92567V9.75867C7.42517 9.73019 7.63164 9.659 7.83099 9.5522C8.03746 9.44541 8.20121 9.33149 8.32224 9.21758V12.6848H6.87695V13.4894L10.3727 13.4965H10.3656ZM13.6121 11.9017C13.6121 12.1722 13.5267 12.3858 13.3558 12.5425C13.185 12.6991 12.9643 12.7774 12.6937 12.7774C12.1028 12.7774 11.8037 12.514 11.8037 12.0014H10.8996V12.0654C10.8996 12.5425 11.0633 12.9127 11.3837 13.1761C11.7112 13.4395 12.1384 13.5677 12.6866 13.5677C13.185 13.5677 13.6193 13.4111 13.9752 13.1049C14.3383 12.8059 14.5092 12.3929 14.5092 11.8803C14.5092 11.3606 14.3526 10.969 14.0464 10.6985C13.7332 10.4279 13.3274 10.2998 12.8147 10.2998H12.0031V9.06807H14.3383V8.24219H11.1416V11.0616H12.7435C13.0141 11.0616 13.2277 11.1328 13.3843 11.2823C13.5409 11.4318 13.6193 11.6383 13.6193 11.8946L13.6121 11.9159V11.9017Z" fill="#FDC600"/>
<path d="M8.03726 17.8981V13.9609H7.37513V16.9654L5.81593 13.9609H4.84766V17.8981H5.50978V14.9007L7.08323 17.8981H8.03726ZM9.2832 17.5279C9.2832 17.4282 9.25472 17.357 9.18352 17.3001C9.11232 17.2502 9.02689 17.2217 8.91297 17.2217C8.80618 17.2217 8.72074 17.2502 8.65667 17.3001C8.58547 17.357 8.55699 17.4282 8.55699 17.5279V17.6418C8.55699 17.7415 8.59259 17.8198 8.66379 17.8696C8.72786 17.9195 8.82042 17.9479 8.92721 17.9479C9.04113 17.9479 9.12656 17.9195 9.19776 17.8696C9.26896 17.8198 9.29744 17.7415 9.29744 17.6418L9.29032 17.5279H9.2832ZM12.1168 16.8373H11.4974C11.4974 17.2075 11.2981 17.3926 10.9065 17.3926C10.522 17.3926 10.3298 17.2004 10.3298 16.8017V16.2179C10.3298 15.8192 10.522 15.6269 10.9065 15.6269C11.2981 15.6269 11.4974 15.812 11.4974 16.1894H12.1168V16.1395C12.1168 15.7978 12.01 15.5344 11.7893 15.3493C11.5757 15.1642 11.2838 15.0716 10.9136 15.0716C10.5505 15.0716 10.2586 15.1642 10.0379 15.3635C9.81717 15.5629 9.71038 15.8334 9.71038 16.1751V16.8658C9.71038 17.2075 9.82429 17.478 10.0379 17.6632C10.2515 17.8554 10.5434 17.9479 10.9136 17.9479C11.2838 17.9479 11.5828 17.8554 11.7964 17.6703C12.0171 17.4852 12.1239 17.2217 12.1239 16.88L12.1168 16.8444V16.8373ZM16.4242 17.8981V15.9331C16.4242 15.6625 16.3601 15.4561 16.2177 15.3066C16.0825 15.157 15.8902 15.0858 15.6482 15.0858C15.4275 15.0858 15.2139 15.1499 15.0074 15.2781L14.7012 15.4632C14.5873 15.214 14.3666 15.0858 14.0391 15.0858C13.8398 15.0858 13.6404 15.1428 13.4553 15.2567L13.2061 15.4062V15.1143H12.5796V17.9052H13.2204V15.9829L13.555 15.7764C13.6903 15.7053 13.7971 15.6697 13.8896 15.6697C14.0818 15.6697 14.1815 15.7836 14.1815 16.0114V17.8981H14.8223V15.9758L15.1569 15.7693C15.2922 15.691 15.399 15.6554 15.4915 15.6554C15.6838 15.6554 15.7834 15.7693 15.7834 15.9972V17.891H16.4313L16.4242 17.8981Z" fill="#FDC600"/>
<path d="M18.3971 10.4838C21.0599 10.4838 23.2172 8.3265 23.2172 5.66375C23.2172 3.001 21.0599 0.84375 18.3971 0.84375C15.7344 0.84375 13.5771 3.001 13.5771 5.66375C13.5771 8.3265 15.7344 10.4838 18.3971 10.4838Z" fill="#FDC600"/>
<path d="M18.3971 10.4838C21.0599 10.4838 23.2172 8.3265 23.2172 5.66375C23.2172 3.001 21.0599 0.84375 18.3971 0.84375C15.7344 0.84375 13.5771 3.001 13.5771 5.66375C13.5771 8.3265 15.7344 10.4838 18.3971 10.4838Z" stroke="white" stroke-width="0.484136"/>
<path d="M20.1131 8.4159V7.89617H18.9312V3.29688H18.326C17.9629 3.6315 17.6069 3.85933 17.251 3.98036V4.52857C17.6425 4.45738 18.0056 4.25803 18.3474 3.9234V7.90329H16.8594V8.43014L20.1131 8.42302V8.4159Z" fill="#FEFEFE"/>
</svg>
