<svg width="14" height="15" viewBox="0 0 14 15" fill="none" xmlns="http://www.w3.org/2000/svg">
<path d="M7.93287 5.55294C7.93287 5.44151 7.88861 5.33465 7.80982 5.25586C7.73103 5.17708 7.62417 5.13281 7.51274 5.13281C7.40132 5.13281 7.29446 5.17708 7.21567 5.25586C7.13688 5.33465 7.09262 5.44151 7.09262 5.55294V6.81332H5.83224C5.72081 6.81332 5.61395 6.85758 5.53516 6.93637C5.45637 7.01516 5.41211 7.12202 5.41211 7.23345C5.41211 7.34487 5.45637 7.45173 5.53516 7.53052C5.61395 7.60931 5.72081 7.65357 5.83224 7.65357H7.09262V8.91396C7.09262 9.02538 7.13688 9.13224 7.21567 9.21103C7.29446 9.28982 7.40132 9.33408 7.51274 9.33408C7.62417 9.33408 7.73103 9.28982 7.80982 9.21103C7.88861 9.13224 7.93287 9.02538 7.93287 8.91396V7.65357H9.19325C9.30468 7.65357 9.41154 7.60931 9.49033 7.53052C9.56912 7.45173 9.61338 7.34487 9.61338 7.23345C9.61338 7.12202 9.56912 7.01516 9.49033 6.93637C9.41154 6.85758 9.30468 6.81332 9.19325 6.81332H7.93287V5.55294Z" fill="#363330"/>
<path d="M0.790733 1.77197C0.679308 1.77197 0.572447 1.81624 0.493658 1.89503C0.414869 1.97381 0.370605 2.08068 0.370605 2.1921C0.370605 2.30352 0.414869 2.41039 0.493658 2.48917C0.572447 2.56796 0.679308 2.61223 0.790733 2.61223H1.72341L2.06036 3.96252L3.31906 10.6719C3.33708 10.7682 3.38817 10.8552 3.46351 10.9178C3.53884 10.9804 3.63368 11.0147 3.73162 11.0148H4.57188C4.12618 11.0148 3.69873 11.1918 3.38358 11.507C3.06842 11.8221 2.89137 12.2496 2.89137 12.6953C2.89137 13.141 3.06842 13.5684 3.38358 13.8836C3.69873 14.1987 4.12618 14.3758 4.57188 14.3758C5.01758 14.3758 5.44502 14.1987 5.76018 13.8836C6.07533 13.5684 6.25239 13.141 6.25239 12.6953C6.25239 12.2496 6.07533 11.8221 5.76018 11.507C5.44502 11.1918 5.01758 11.0148 4.57188 11.0148H10.4537C10.008 11.0148 9.58051 11.1918 9.26536 11.507C8.9502 11.8221 8.77315 12.2496 8.77315 12.6953C8.77315 13.141 8.9502 13.5684 9.26536 13.8836C9.58051 14.1987 10.008 14.3758 10.4537 14.3758C10.8994 14.3758 11.3268 14.1987 11.642 13.8836C11.9571 13.5684 12.1342 13.141 12.1342 12.6953C12.1342 12.2496 11.9571 11.8221 11.642 11.507C11.3268 11.1918 10.8994 11.0148 10.4537 11.0148H11.2939C11.3919 11.0147 11.4867 10.9804 11.562 10.9178C11.6374 10.8552 11.6885 10.7682 11.7065 10.6719L12.9669 3.94991C12.9782 3.88928 12.9761 3.82689 12.9606 3.76717C12.9451 3.70746 12.9167 3.65188 12.8773 3.6044C12.8379 3.55692 12.7885 3.51869 12.7327 3.49244C12.6769 3.46618 12.616 3.45254 12.5543 3.45248H2.79894L2.45864 2.09043C2.43596 1.9995 2.38353 1.91876 2.30969 1.86106C2.23584 1.80336 2.14483 1.772 2.05111 1.77197H0.790733ZM4.08033 10.1745L2.97707 4.29274H12.0485L10.9452 10.1745H4.08033ZM5.41213 12.6953C5.41213 12.9181 5.3236 13.1318 5.16603 13.2894C5.00845 13.447 4.79473 13.5355 4.57188 13.5355C4.34903 13.5355 4.13531 13.447 3.97773 13.2894C3.82015 13.1318 3.73162 12.9181 3.73162 12.6953C3.73162 12.4724 3.82015 12.2587 3.97773 12.1011C4.13531 11.9435 4.34903 11.855 4.57188 11.855C4.79473 11.855 5.00845 11.9435 5.16603 12.1011C5.3236 12.2587 5.41213 12.4724 5.41213 12.6953ZM11.2939 12.6953C11.2939 12.9181 11.2054 13.1318 11.0478 13.2894C10.8902 13.447 10.6765 13.5355 10.4537 13.5355C10.2308 13.5355 10.0171 13.447 9.85951 13.2894C9.70193 13.1318 9.6134 12.9181 9.6134 12.6953C9.6134 12.4724 9.70193 12.2587 9.85951 12.1011C10.0171 11.9435 10.2308 11.855 10.4537 11.855C10.6765 11.855 10.8902 11.9435 11.0478 12.1011C11.2054 12.2587 11.2939 12.4724 11.2939 12.6953Z" fill="#363330"/>
</svg>
