<svg width="15" height="15" viewBox="0 0 15 15" fill="none" xmlns="http://www.w3.org/2000/svg">
<path d="M8.33375 5.39864C8.33375 5.28722 8.28949 5.18036 8.2107 5.10157C8.13191 5.02278 8.02505 4.97852 7.91362 4.97852C7.8022 4.97852 7.69534 5.02278 7.61655 5.10157C7.53776 5.18036 7.4935 5.28722 7.4935 5.39864V6.65902H6.23312C6.12169 6.65902 6.01483 6.70329 5.93604 6.78208C5.85725 6.86087 5.81299 6.96773 5.81299 7.07915C5.81299 7.19058 5.85725 7.29744 5.93604 7.37623C6.01483 7.45501 6.12169 7.49928 6.23312 7.49928H7.4935V8.75966C7.4935 8.87108 7.53776 8.97795 7.61655 9.05673C7.69534 9.13552 7.8022 9.17979 7.91362 9.17979C8.02505 9.17979 8.13191 9.13552 8.2107 9.05673C8.28949 8.97795 8.33375 8.87108 8.33375 8.75966V7.49928H9.59413C9.70556 7.49928 9.81242 7.45501 9.89121 7.37623C9.97 7.29744 10.0143 7.19058 10.0143 7.07915C10.0143 6.96773 9.97 6.86087 9.89121 6.78208C9.81242 6.70329 9.70556 6.65902 9.59413 6.65902H8.33375V5.39864Z" fill="#363330"/>
<path d="M1.19161 1.61768C1.08019 1.61768 0.973326 1.66194 0.894537 1.74073C0.815748 1.81952 0.771484 1.92638 0.771484 2.0378C0.771484 2.14923 0.815748 2.25609 0.894537 2.33488C0.973326 2.41367 1.08019 2.45793 1.19161 2.45793H2.12429L2.46124 3.80822L3.71994 10.5176C3.73796 10.6139 3.78905 10.7009 3.86439 10.7635C3.93972 10.8261 4.03455 10.8604 4.1325 10.8605H4.97276C4.52706 10.8605 4.09961 11.0375 3.78446 11.3527C3.4693 11.6678 3.29225 12.0953 3.29225 12.541C3.29225 12.9867 3.4693 13.4141 3.78446 13.7293C4.09961 14.0444 4.52706 14.2215 4.97276 14.2215C5.41845 14.2215 5.8459 14.0444 6.16105 13.7293C6.47621 13.4141 6.65326 12.9867 6.65326 12.541C6.65326 12.0953 6.47621 11.6678 6.16105 11.3527C5.8459 11.0375 5.41845 10.8605 4.97276 10.8605H10.8545C10.4088 10.8605 9.98139 11.0375 9.66624 11.3527C9.35108 11.6678 9.17403 12.0953 9.17403 12.541C9.17403 12.9867 9.35108 13.4141 9.66624 13.7293C9.98139 14.0444 10.4088 14.2215 10.8545 14.2215C11.3002 14.2215 11.7277 14.0444 12.0428 13.7293C12.358 13.4141 12.535 12.9867 12.535 12.541C12.535 12.0953 12.358 11.6678 12.0428 11.3527C11.7277 11.0375 11.3002 10.8605 10.8545 10.8605H11.6948C11.7927 10.8604 11.8876 10.8261 11.9629 10.7635C12.0382 10.7009 12.0893 10.6139 12.1074 10.5176L13.3677 3.79561C13.3791 3.73498 13.3769 3.67259 13.3615 3.61287C13.346 3.55316 13.3175 3.49759 13.2782 3.45011C13.2388 3.40262 13.1894 3.3644 13.1336 3.33814C13.0778 3.31188 13.0169 3.29824 12.9552 3.29818H3.19982L2.85952 1.93613C2.83684 1.8452 2.78441 1.76447 2.71057 1.70676C2.63672 1.64906 2.54571 1.6177 2.45199 1.61768H1.19161ZM4.48121 10.0202L3.37795 4.13844H12.4493L11.3461 10.0202H4.48121ZM5.81301 12.541C5.81301 12.7638 5.72448 12.9776 5.56691 13.1351C5.40933 13.2927 5.1956 13.3812 4.97276 13.3812C4.74991 13.3812 4.53618 13.2927 4.37861 13.1351C4.22103 12.9776 4.1325 12.7638 4.1325 12.541C4.1325 12.3181 4.22103 12.1044 4.37861 11.9468C4.53618 11.7893 4.74991 11.7007 4.97276 11.7007C5.1956 11.7007 5.40933 11.7893 5.56691 11.9468C5.72448 12.1044 5.81301 12.3181 5.81301 12.541ZM11.6948 12.541C11.6948 12.7638 11.6063 12.9776 11.4487 13.1351C11.2911 13.2927 11.0774 13.3812 10.8545 13.3812C10.6317 13.3812 10.418 13.2927 10.2604 13.1351C10.1028 12.9776 10.0143 12.7638 10.0143 12.541C10.0143 12.3181 10.1028 12.1044 10.2604 11.9468C10.418 11.7893 10.6317 11.7007 10.8545 11.7007C11.0774 11.7007 11.2911 11.7893 11.4487 11.9468C11.6063 12.1044 11.6948 12.3181 11.6948 12.541Z" fill="#363330"/>
</svg>
