<svg width="15" height="15" viewBox="0 0 15 15" fill="none" xmlns="http://www.w3.org/2000/svg">
<path d="M8.33375 5.31222C8.33375 5.20079 8.28949 5.09393 8.2107 5.01514C8.13191 4.93635 8.02505 4.89209 7.91362 4.89209C7.8022 4.89209 7.69534 4.93635 7.61655 5.01514C7.53776 5.09393 7.4935 5.20079 7.4935 5.31222V6.5726H6.23312C6.12169 6.5726 6.01483 6.61686 5.93604 6.69565C5.85725 6.77444 5.81299 6.8813 5.81299 6.99273C5.81299 7.10415 5.85725 7.21101 5.93604 7.2898C6.01483 7.36859 6.12169 7.41285 6.23312 7.41285H7.4935V8.67323C7.4935 8.78466 7.53776 8.89152 7.61655 8.97031C7.69534 9.0491 7.8022 9.09336 7.91362 9.09336C8.02505 9.09336 8.13191 9.0491 8.2107 8.97031C8.28949 8.89152 8.33375 8.78466 8.33375 8.67323V7.41285H9.59413C9.70556 7.41285 9.81242 7.36859 9.89121 7.2898C9.97 7.21101 10.0143 7.10415 10.0143 6.99273C10.0143 6.8813 9.97 6.77444 9.89121 6.69565C9.81242 6.61686 9.70556 6.5726 9.59413 6.5726H8.33375V5.31222Z" fill="#363330"/>
<path d="M1.19161 1.53125C1.08019 1.53125 0.973326 1.57551 0.894537 1.6543C0.815748 1.73309 0.771484 1.83995 0.771484 1.95138C0.771484 2.0628 0.815748 2.16966 0.894537 2.24845C0.973326 2.32724 1.08019 2.3715 1.19161 2.3715H2.12429L2.46124 3.72179L3.71994 10.4312C3.73796 10.5275 3.78905 10.6144 3.86439 10.677C3.93972 10.7396 4.03455 10.774 4.1325 10.774H4.97276C4.52706 10.774 4.09961 10.9511 3.78446 11.2663C3.4693 11.5814 3.29225 12.0089 3.29225 12.4546C3.29225 12.9003 3.4693 13.3277 3.78446 13.6429C4.09961 13.958 4.52706 14.1351 4.97276 14.1351C5.41845 14.1351 5.8459 13.958 6.16105 13.6429C6.47621 13.3277 6.65326 12.9003 6.65326 12.4546C6.65326 12.0089 6.47621 11.5814 6.16105 11.2663C5.8459 10.9511 5.41845 10.774 4.97276 10.774H10.8545C10.4088 10.774 9.98139 10.9511 9.66624 11.2663C9.35108 11.5814 9.17403 12.0089 9.17403 12.4546C9.17403 12.9003 9.35108 13.3277 9.66624 13.6429C9.98139 13.958 10.4088 14.1351 10.8545 14.1351C11.3002 14.1351 11.7277 13.958 12.0428 13.6429C12.358 13.3277 12.535 12.9003 12.535 12.4546C12.535 12.0089 12.358 11.5814 12.0428 11.2663C11.7277 10.9511 11.3002 10.774 10.8545 10.774H11.6948C11.7927 10.774 11.8876 10.7396 11.9629 10.677C12.0382 10.6144 12.0893 10.5275 12.1074 10.4312L13.3677 3.70919C13.3791 3.64855 13.3769 3.58616 13.3615 3.52645C13.346 3.46673 13.3175 3.41116 13.2782 3.36368C13.2388 3.3162 13.1894 3.27797 13.1336 3.25171C13.0778 3.22546 13.0169 3.21182 12.9552 3.21176H3.19982L2.85952 1.84971C2.83684 1.75878 2.78441 1.67804 2.71057 1.62034C2.63672 1.56263 2.54571 1.53128 2.45199 1.53125H1.19161ZM4.48121 9.93379L3.37795 4.05201H12.4493L11.3461 9.93379H4.48121ZM5.81301 12.4546C5.81301 12.6774 5.72448 12.8911 5.56691 13.0487C5.40933 13.2063 5.1956 13.2948 4.97276 13.2948C4.74991 13.2948 4.53618 13.2063 4.37861 13.0487C4.22103 12.8911 4.1325 12.6774 4.1325 12.4546C4.1325 12.2317 4.22103 12.018 4.37861 11.8604C4.53618 11.7028 4.74991 11.6143 4.97276 11.6143C5.1956 11.6143 5.40933 11.7028 5.56691 11.8604C5.72448 12.018 5.81301 12.2317 5.81301 12.4546ZM11.6948 12.4546C11.6948 12.6774 11.6063 12.8911 11.4487 13.0487C11.2911 13.2063 11.0774 13.2948 10.8545 13.2948C10.6317 13.2948 10.418 13.2063 10.2604 13.0487C10.1028 12.8911 10.0143 12.6774 10.0143 12.4546C10.0143 12.2317 10.1028 12.018 10.2604 11.8604C10.418 11.7028 10.6317 11.6143 10.8545 11.6143C11.0774 11.6143 11.2911 11.7028 11.4487 11.8604C11.6063 12.018 11.6948 12.2317 11.6948 12.4546Z" fill="#363330"/>
</svg>
