<svg width="14" height="14" viewBox="0 0 14 14" fill="none" xmlns="http://www.w3.org/2000/svg">
<path d="M7.62232 5.11593C7.62232 5.0045 7.57806 4.89764 7.49927 4.81885C7.42048 4.74006 7.31362 4.6958 7.2022 4.6958C7.09077 4.6958 6.98391 4.74006 6.90512 4.81885C6.82633 4.89764 6.78207 5.0045 6.78207 5.11593V6.37631H5.52169C5.41026 6.37631 5.3034 6.42057 5.22461 6.49936C5.14583 6.57815 5.10156 6.68501 5.10156 6.79644C5.10156 6.90786 5.14583 7.01472 5.22461 7.09351C5.3034 7.1723 5.41026 7.21656 5.52169 7.21656H6.78207V8.47694C6.78207 8.58837 6.82633 8.69523 6.90512 8.77402C6.98391 8.85281 7.09077 8.89707 7.2022 8.89707C7.31362 8.89707 7.42048 8.85281 7.49927 8.77402C7.57806 8.69523 7.62232 8.58837 7.62232 8.47694V7.21656H8.88271C8.99413 7.21656 9.10099 7.1723 9.17978 7.09351C9.25857 7.01472 9.30283 6.90786 9.30283 6.79644C9.30283 6.68501 9.25857 6.57815 9.17978 6.49936C9.10099 6.42057 8.99413 6.37631 8.88271 6.37631H7.62232V5.11593Z" fill="#363330"/>
<path d="M0.480186 1.33496C0.368761 1.33496 0.2619 1.37922 0.183111 1.45801C0.104322 1.5368 0.0600586 1.64366 0.0600586 1.75509C0.0600586 1.86651 0.104322 1.97337 0.183111 2.05216C0.2619 2.13095 0.368761 2.17522 0.480186 2.17522H1.41287L1.74981 3.5255L3.00851 10.2349C3.02653 10.3312 3.07763 10.4182 3.15296 10.4808C3.22829 10.5434 3.32313 10.5777 3.42108 10.5778H4.26133C3.81563 10.5778 3.38819 10.7548 3.07303 11.07C2.75787 11.3851 2.58082 11.8126 2.58082 12.2583C2.58082 12.704 2.75787 13.1314 3.07303 13.4466C3.38819 13.7617 3.81563 13.9388 4.26133 13.9388C4.70703 13.9388 5.13447 13.7617 5.44963 13.4466C5.76479 13.1314 5.94184 12.704 5.94184 12.2583C5.94184 11.8126 5.76479 11.3851 5.44963 11.07C5.13447 10.7548 4.70703 10.5778 4.26133 10.5778H10.1431C9.69741 10.5778 9.26997 10.7548 8.95481 11.07C8.63965 11.3851 8.4626 11.8126 8.4626 12.2583C8.4626 12.704 8.63965 13.1314 8.95481 13.4466C9.26997 13.7617 9.69741 13.9388 10.1431 13.9388C10.5888 13.9388 11.0163 13.7617 11.3314 13.4466C11.6466 13.1314 11.8236 12.704 11.8236 12.2583C11.8236 11.8126 11.6466 11.3851 11.3314 11.07C11.0163 10.7548 10.5888 10.5778 10.1431 10.5778H10.9834C11.0813 10.5777 11.1761 10.5434 11.2515 10.4808C11.3268 10.4182 11.3779 10.3312 11.3959 10.2349L12.6563 3.5129C12.6677 3.45226 12.6655 3.38987 12.65 3.33016C12.6346 3.27045 12.6061 3.21487 12.5667 3.16739C12.5274 3.11991 12.478 3.08168 12.4222 3.05542C12.3664 3.02917 12.3054 3.01553 12.2437 3.01547H2.48839L2.14809 1.65342C2.12541 1.56249 2.07298 1.48175 1.99914 1.42405C1.9253 1.36635 1.83428 1.33499 1.74057 1.33496H0.480186ZM3.76978 9.7375L2.66653 3.85572H11.7379L10.6347 9.7375H3.76978ZM5.10158 12.2583C5.10158 12.4811 5.01306 12.6948 4.85548 12.8524C4.6979 13.01 4.48418 13.0985 4.26133 13.0985C4.03848 13.0985 3.82476 13.01 3.66718 12.8524C3.5096 12.6948 3.42108 12.4811 3.42108 12.2583C3.42108 12.0354 3.5096 11.8217 3.66718 11.6641C3.82476 11.5065 4.03848 11.418 4.26133 11.418C4.48418 11.418 4.6979 11.5065 4.85548 11.6641C5.01306 11.8217 5.10158 12.0354 5.10158 12.2583ZM10.9834 12.2583C10.9834 12.4811 10.8948 12.6948 10.7373 12.8524C10.5797 13.01 10.366 13.0985 10.1431 13.0985C9.92026 13.0985 9.70654 13.01 9.54896 12.8524C9.39138 12.6948 9.30286 12.4811 9.30286 12.2583C9.30286 12.0354 9.39138 11.8217 9.54896 11.6641C9.70654 11.5065 9.92026 11.418 10.1431 11.418C10.366 11.418 10.5797 11.5065 10.7373 11.6641C10.8948 11.8217 10.9834 12.0354 10.9834 12.2583Z" fill="#363330"/>
</svg>
