<svg width="14" height="14" viewBox="0 0 14 14" fill="none" xmlns="http://www.w3.org/2000/svg">
<path d="M7.77174 4.82687C7.77174 4.71544 7.72748 4.60858 7.64869 4.52979C7.5699 4.451 7.46304 4.40674 7.35161 4.40674C7.24019 4.40674 7.13333 4.451 7.05454 4.52979C6.97575 4.60858 6.93148 4.71544 6.93148 4.82687V6.08725H5.6711C5.55968 6.08725 5.45282 6.13151 5.37403 6.2103C5.29524 6.28909 5.25098 6.39595 5.25098 6.50737C5.25098 6.6188 5.29524 6.72566 5.37403 6.80445C5.45282 6.88324 5.55968 6.9275 5.6711 6.9275H6.93148V8.18788C6.93148 8.29931 6.97575 8.40617 7.05454 8.48496C7.13333 8.56375 7.24019 8.60801 7.35161 8.60801C7.46304 8.60801 7.5699 8.56375 7.64869 8.48496C7.72748 8.40617 7.77174 8.29931 7.77174 8.18788V6.9275H9.03212C9.14355 6.9275 9.25041 6.88324 9.3292 6.80445C9.40798 6.72566 9.45225 6.6188 9.45225 6.50737C9.45225 6.39595 9.40798 6.28909 9.3292 6.2103C9.25041 6.13151 9.14355 6.08725 9.03212 6.08725H7.77174V4.82687Z" fill="#363330"/>
<path d="M0.6296 1.0459C0.518175 1.0459 0.411314 1.09016 0.332525 1.16895C0.253736 1.24774 0.209473 1.3546 0.209473 1.46603C0.209473 1.57745 0.253736 1.68431 0.332525 1.7631C0.411314 1.84189 0.518175 1.88615 0.6296 1.88615H1.56228L1.89922 3.23644L3.15792 9.94587C3.17595 10.0421 3.22704 10.1291 3.30237 10.1917C3.37771 10.2543 3.47254 10.2886 3.57049 10.2887H4.41074C3.96505 10.2887 3.5376 10.4657 3.22244 10.7809C2.90729 11.0961 2.73024 11.5235 2.73024 11.9692C2.73024 12.4149 2.90729 12.8423 3.22244 13.1575C3.5376 13.4727 3.96505 13.6497 4.41074 13.6497C4.85644 13.6497 5.28389 13.4727 5.59904 13.1575C5.9142 12.8423 6.09125 12.4149 6.09125 11.9692C6.09125 11.5235 5.9142 11.0961 5.59904 10.7809C5.28389 10.4657 4.85644 10.2887 4.41074 10.2887H10.2925C9.84682 10.2887 9.41938 10.4657 9.10423 10.7809C8.78907 11.0961 8.61201 11.5235 8.61201 11.9692C8.61201 12.4149 8.78907 12.8423 9.10423 13.1575C9.41938 13.4727 9.84682 13.6497 10.2925 13.6497C10.7382 13.6497 11.1657 13.4727 11.4808 13.1575C11.796 12.8423 11.973 12.4149 11.973 11.9692C11.973 11.5235 11.796 11.0961 11.4808 10.7809C11.1657 10.4657 10.7382 10.2887 10.2925 10.2887H11.1328C11.2307 10.2886 11.3256 10.2543 11.4009 10.1917C11.4762 10.1291 11.5273 10.0421 11.5453 9.94587L12.8057 3.22384C12.8171 3.1632 12.8149 3.10081 12.7995 3.0411C12.784 2.98138 12.7555 2.92581 12.7161 2.87833C12.6768 2.83085 12.6274 2.79262 12.5716 2.76636C12.5158 2.74011 12.4548 2.72646 12.3932 2.72641H2.63781L2.2975 1.36435C2.27483 1.27343 2.2224 1.19269 2.14855 1.13499C2.07471 1.07728 1.9837 1.04592 1.88998 1.0459H0.6296ZM3.9192 9.44844L2.81594 3.56666H11.8873L10.7841 9.44844H3.9192ZM5.251 11.9692C5.251 12.1921 5.16247 12.4058 5.00489 12.5634C4.84731 12.7209 4.63359 12.8095 4.41074 12.8095C4.18789 12.8095 3.97417 12.7209 3.81659 12.5634C3.65902 12.4058 3.57049 12.1921 3.57049 11.9692C3.57049 11.7464 3.65902 11.5326 3.81659 11.3751C3.97417 11.2175 4.18789 11.1289 4.41074 11.1289C4.63359 11.1289 4.84731 11.2175 5.00489 11.3751C5.16247 11.5326 5.251 11.7464 5.251 11.9692ZM11.1328 11.9692C11.1328 12.1921 11.0443 12.4058 10.8867 12.5634C10.7291 12.7209 10.5154 12.8095 10.2925 12.8095C10.0697 12.8095 9.85595 12.7209 9.69837 12.5634C9.5408 12.4058 9.45227 12.1921 9.45227 11.9692C9.45227 11.7464 9.5408 11.5326 9.69837 11.3751C9.85595 11.2175 10.0697 11.1289 10.2925 11.1289C10.5154 11.1289 10.7291 11.2175 10.8867 11.3751C11.0443 11.5326 11.1328 11.7464 11.1328 11.9692Z" fill="#363330"/>
</svg>
