<svg width="17" height="17" viewBox="0 0 17 17" fill="none" xmlns="http://www.w3.org/2000/svg">
<path d="M8.50745 4.70996C8.64006 4.70996 8.76724 4.76264 8.86101 4.85641C8.95478 4.95018 9.00746 5.07736 9.00746 5.20998V8.21007H12.0076C12.1402 8.21007 12.2673 8.26275 12.3611 8.35652C12.4549 8.45029 12.5076 8.57747 12.5076 8.71008C12.5076 8.84269 12.4549 8.96988 12.3611 9.06365C12.2673 9.15742 12.1402 9.2101 12.0076 9.2101H9.00746V12.2102C9.00746 12.3428 8.95478 12.47 8.86101 12.5638C8.76724 12.6575 8.64006 12.7102 8.50745 12.7102C8.37483 12.7102 8.24765 12.6575 8.15388 12.5638C8.06011 12.47 8.00743 12.3428 8.00743 12.2102V9.2101H5.00734C4.87473 9.2101 4.74755 9.15742 4.65378 9.06365C4.56 8.96988 4.50732 8.84269 4.50732 8.71008C4.50732 8.57747 4.56 8.45029 4.65378 8.35652C4.74755 8.26275 4.87473 8.21007 5.00734 8.21007H8.00743V5.20998C8.00743 5.07736 8.06011 4.95018 8.15388 4.85641C8.24765 4.76264 8.37483 4.70996 8.50745 4.70996Z" fill="#CFCCC9"/>
</svg>
