<svg width="15" height="14" viewBox="0 0 15 14" fill="none" xmlns="http://www.w3.org/2000/svg">
<path d="M8.33424 5.13326C8.33424 5.02184 8.28998 4.91498 8.21119 4.83619C8.1324 4.7574 8.02554 4.71313 7.91411 4.71313C7.80269 4.71313 7.69583 4.7574 7.61704 4.83619C7.53825 4.91498 7.49398 5.02184 7.49398 5.13326V6.39364H6.2336C6.12218 6.39364 6.01532 6.43791 5.93653 6.5167C5.85774 6.59548 5.81348 6.70235 5.81348 6.81377C5.81348 6.92519 5.85774 7.03206 5.93653 7.11084C6.01532 7.18963 6.12218 7.2339 6.2336 7.2339H7.49398V8.49428C7.49398 8.6057 7.53825 8.71256 7.61704 8.79135C7.69583 8.87014 7.80269 8.91441 7.91411 8.91441C8.02554 8.91441 8.1324 8.87014 8.21119 8.79135C8.28998 8.71256 8.33424 8.6057 8.33424 8.49428V7.2339H9.59462C9.70605 7.2339 9.81291 7.18963 9.8917 7.11084C9.97048 7.03206 10.0147 6.92519 10.0147 6.81377C10.0147 6.70235 9.97048 6.59548 9.8917 6.5167C9.81291 6.43791 9.70605 6.39364 9.59462 6.39364H8.33424V5.13326Z" fill="#363330"/>
<path d="M1.19161 1.35211C1.08019 1.35211 0.973326 1.39638 0.894537 1.47516C0.815748 1.55395 0.771484 1.66081 0.771484 1.77224C0.771484 1.88366 0.815748 1.99052 0.894537 2.06931C0.973326 2.1481 1.08019 2.19237 1.19161 2.19237H2.12429L2.46124 3.54265L3.71994 10.2521C3.73796 10.3484 3.78905 10.4353 3.86439 10.4979C3.93972 10.5605 4.03455 10.5948 4.1325 10.5949H4.97276C4.52706 10.5949 4.09961 10.772 3.78446 11.0871C3.4693 11.4023 3.29225 11.8297 3.29225 12.2754C3.29225 12.7211 3.4693 13.1486 3.78446 13.4637C4.09961 13.7789 4.52706 13.9559 4.97276 13.9559C5.41845 13.9559 5.8459 13.7789 6.16105 13.4637C6.47621 13.1486 6.65326 12.7211 6.65326 12.2754C6.65326 11.8297 6.47621 11.4023 6.16105 11.0871C5.8459 10.772 5.41845 10.5949 4.97276 10.5949H10.8545C10.4088 10.5949 9.98139 10.772 9.66624 11.0871C9.35108 11.4023 9.17403 11.8297 9.17403 12.2754C9.17403 12.7211 9.35108 13.1486 9.66624 13.4637C9.98139 13.7789 10.4088 13.9559 10.8545 13.9559C11.3002 13.9559 11.7277 13.7789 12.0428 13.4637C12.358 13.1486 12.535 12.7211 12.535 12.2754C12.535 11.8297 12.358 11.4023 12.0428 11.0871C11.7277 10.772 11.3002 10.5949 10.8545 10.5949H11.6948C11.7927 10.5948 11.8876 10.5605 11.9629 10.4979C12.0382 10.4353 12.0893 10.3484 12.1074 10.2521L13.3677 3.53005C13.3791 3.46942 13.3769 3.40702 13.3615 3.34731C13.346 3.2876 13.3175 3.23202 13.2782 3.18454C13.2388 3.13706 13.1894 3.09883 13.1336 3.07258C13.0778 3.04632 13.0169 3.03268 12.9552 3.03262H3.19982L2.85952 1.67057C2.83684 1.57964 2.78441 1.4989 2.71057 1.4412C2.63672 1.3835 2.54571 1.35214 2.45199 1.35211H1.19161ZM4.48121 9.75465L3.37795 3.87287H12.4493L11.3461 9.75465H4.48121ZM5.81301 12.2754C5.81301 12.4983 5.72448 12.712 5.56691 12.8696C5.40933 13.0271 5.1956 13.1157 4.97276 13.1157C4.74991 13.1157 4.53618 13.0271 4.37861 12.8696C4.22103 12.712 4.1325 12.4983 4.1325 12.2754C4.1325 12.0526 4.22103 11.8388 4.37861 11.6813C4.53618 11.5237 4.74991 11.4352 4.97276 11.4352C5.1956 11.4352 5.40933 11.5237 5.56691 11.6813C5.72448 11.8388 5.81301 12.0526 5.81301 12.2754ZM11.6948 12.2754C11.6948 12.4983 11.6063 12.712 11.4487 12.8696C11.2911 13.0271 11.0774 13.1157 10.8545 13.1157C10.6317 13.1157 10.418 13.0271 10.2604 12.8696C10.1028 12.712 10.0143 12.4983 10.0143 12.2754C10.0143 12.0526 10.1028 11.8388 10.2604 11.6813C10.418 11.5237 10.6317 11.4352 10.8545 11.4352C11.0774 11.4352 11.2911 11.5237 11.4487 11.6813C11.6063 11.8388 11.6948 12.0526 11.6948 12.2754Z" fill="#363330"/>
</svg>
