<svg width="15" height="15" viewBox="0 0 15 15" fill="none" xmlns="http://www.w3.org/2000/svg">
<path d="M8.33424 5.4562C8.33424 5.34477 8.28998 5.23791 8.21119 5.15912C8.1324 5.08034 8.02554 5.03607 7.91411 5.03607C7.80269 5.03607 7.69583 5.08034 7.61704 5.15912C7.53825 5.23791 7.49398 5.34477 7.49398 5.4562V6.71658H6.2336C6.12218 6.71658 6.01532 6.76084 5.93653 6.83963C5.85774 6.91842 5.81348 7.02528 5.81348 7.13671C5.81348 7.24813 5.85774 7.35499 5.93653 7.43378C6.01532 7.51257 6.12218 7.55683 6.2336 7.55683H7.49398V8.81722C7.49398 8.92864 7.53825 9.0355 7.61704 9.11429C7.69583 9.19308 7.80269 9.23734 7.91411 9.23734C8.02554 9.23734 8.1324 9.19308 8.21119 9.11429C8.28998 9.0355 8.33424 8.92864 8.33424 8.81722V7.55683H9.59462C9.70605 7.55683 9.81291 7.51257 9.8917 7.43378C9.97048 7.35499 10.0147 7.24813 10.0147 7.13671C10.0147 7.02528 9.97048 6.91842 9.8917 6.83963C9.81291 6.76084 9.70605 6.71658 9.59462 6.71658H8.33424V5.4562Z" fill="#363330"/>
<path d="M1.19161 1.67505C1.08019 1.67505 0.973326 1.71931 0.894537 1.7981C0.815748 1.87689 0.771484 1.98375 0.771484 2.09518C0.771484 2.2066 0.815748 2.31346 0.894537 2.39225C0.973326 2.47104 1.08019 2.5153 1.19161 2.5153H2.12429L2.46124 3.86559L3.71994 10.575C3.73796 10.6713 3.78905 10.7582 3.86439 10.8208C3.93972 10.8834 4.03455 10.9178 4.1325 10.9178H4.97276C4.52706 10.9178 4.09961 11.0949 3.78446 11.4101C3.4693 11.7252 3.29225 12.1527 3.29225 12.5984C3.29225 13.0441 3.4693 13.4715 3.78446 13.7867C4.09961 14.1018 4.52706 14.2789 4.97276 14.2789C5.41845 14.2789 5.8459 14.1018 6.16105 13.7867C6.47621 13.4715 6.65326 13.0441 6.65326 12.5984C6.65326 12.1527 6.47621 11.7252 6.16105 11.4101C5.8459 11.0949 5.41845 10.9178 4.97276 10.9178H10.8545C10.4088 10.9178 9.98139 11.0949 9.66624 11.4101C9.35108 11.7252 9.17403 12.1527 9.17403 12.5984C9.17403 13.0441 9.35108 13.4715 9.66624 13.7867C9.98139 14.1018 10.4088 14.2789 10.8545 14.2789C11.3002 14.2789 11.7277 14.1018 12.0428 13.7867C12.358 13.4715 12.535 13.0441 12.535 12.5984C12.535 12.1527 12.358 11.7252 12.0428 11.4101C11.7277 11.0949 11.3002 10.9178 10.8545 10.9178H11.6948C11.7927 10.9178 11.8876 10.8834 11.9629 10.8208C12.0382 10.7582 12.0893 10.6713 12.1074 10.575L13.3677 3.85299C13.3791 3.79235 13.3769 3.72996 13.3615 3.67025C13.346 3.61053 13.3175 3.55496 13.2782 3.50748C13.2388 3.46 13.1894 3.42177 13.1336 3.39551C13.0778 3.36926 13.0169 3.35561 12.9552 3.35556H3.19982L2.85952 1.99351C2.83684 1.90258 2.78441 1.82184 2.71057 1.76414C2.63672 1.70643 2.54571 1.67507 2.45199 1.67505H1.19161ZM4.48121 10.0776L3.37795 4.19581H12.4493L11.3461 10.0776H4.48121ZM5.81301 12.5984C5.81301 12.8212 5.72448 13.0349 5.56691 13.1925C5.40933 13.3501 5.1956 13.4386 4.97276 13.4386C4.74991 13.4386 4.53618 13.3501 4.37861 13.1925C4.22103 13.0349 4.1325 12.8212 4.1325 12.5984C4.1325 12.3755 4.22103 12.1618 4.37861 12.0042C4.53618 11.8466 4.74991 11.7581 4.97276 11.7581C5.1956 11.7581 5.40933 11.8466 5.56691 12.0042C5.72448 12.1618 5.81301 12.3755 5.81301 12.5984ZM11.6948 12.5984C11.6948 12.8212 11.6063 13.0349 11.4487 13.1925C11.2911 13.3501 11.0774 13.4386 10.8545 13.4386C10.6317 13.4386 10.418 13.3501 10.2604 13.1925C10.1028 13.0349 10.0143 12.8212 10.0143 12.5984C10.0143 12.3755 10.1028 12.1618 10.2604 12.0042C10.418 11.8466 10.6317 11.7581 10.8545 11.7581C11.0774 11.7581 11.2911 11.8466 11.4487 12.0042C11.6063 12.1618 11.6948 12.3755 11.6948 12.5984Z" fill="#363330"/>
</svg>
