<svg width="15" height="15" viewBox="0 0 15 15" fill="none" xmlns="http://www.w3.org/2000/svg">
<path d="M8.33424 5.45382C8.33424 5.34239 8.28998 5.23553 8.21119 5.15674C8.1324 5.07795 8.02554 5.03369 7.91411 5.03369C7.80269 5.03369 7.69583 5.07795 7.61704 5.15674C7.53825 5.23553 7.49398 5.34239 7.49398 5.45382V6.7142H6.2336C6.12218 6.7142 6.01532 6.75846 5.93653 6.83725C5.85774 6.91604 5.81348 7.0229 5.81348 7.13433C5.81348 7.24575 5.85774 7.35261 5.93653 7.4314C6.01532 7.51019 6.12218 7.55445 6.2336 7.55445H7.49398V8.81484C7.49398 8.92626 7.53825 9.03312 7.61704 9.11191C7.69583 9.1907 7.80269 9.23496 7.91411 9.23496C8.02554 9.23496 8.1324 9.1907 8.21119 9.11191C8.28998 9.03312 8.33424 8.92626 8.33424 8.81484V7.55445H9.59462C9.70605 7.55445 9.81291 7.51019 9.8917 7.4314C9.97048 7.35261 10.0147 7.24575 10.0147 7.13433C10.0147 7.0229 9.97048 6.91604 9.8917 6.83725C9.81291 6.75846 9.70605 6.7142 9.59462 6.7142H8.33424V5.45382Z" fill="#363330"/>
<path d="M1.19161 1.67267C1.08019 1.67267 0.973326 1.71693 0.894537 1.79572C0.815748 1.87451 0.771484 1.98137 0.771484 2.0928C0.771484 2.20422 0.815748 2.31108 0.894537 2.38987C0.973326 2.46866 1.08019 2.51292 1.19161 2.51292H2.12429L2.46124 3.86321L3.71994 10.5726C3.73796 10.6689 3.78905 10.7559 3.86439 10.8185C3.93972 10.8811 4.03455 10.9154 4.1325 10.9155H4.97276C4.52706 10.9155 4.09961 11.0925 3.78446 11.4077C3.4693 11.7228 3.29225 12.1503 3.29225 12.596C3.29225 13.0417 3.4693 13.4691 3.78446 13.7843C4.09961 14.0994 4.52706 14.2765 4.97276 14.2765C5.41845 14.2765 5.8459 14.0994 6.16105 13.7843C6.47621 13.4691 6.65326 13.0417 6.65326 12.596C6.65326 12.1503 6.47621 11.7228 6.16105 11.4077C5.8459 11.0925 5.41845 10.9155 4.97276 10.9155H10.8545C10.4088 10.9155 9.98139 11.0925 9.66624 11.4077C9.35108 11.7228 9.17403 12.1503 9.17403 12.596C9.17403 13.0417 9.35108 13.4691 9.66624 13.7843C9.98139 14.0994 10.4088 14.2765 10.8545 14.2765C11.3002 14.2765 11.7277 14.0994 12.0428 13.7843C12.358 13.4691 12.535 13.0417 12.535 12.596C12.535 12.1503 12.358 11.7228 12.0428 11.4077C11.7277 11.0925 11.3002 10.9155 10.8545 10.9155H11.6948C11.7927 10.9154 11.8876 10.8811 11.9629 10.8185C12.0382 10.7559 12.0893 10.6689 12.1074 10.5726L13.3677 3.85061C13.3791 3.78997 13.3769 3.72758 13.3615 3.66787C13.346 3.60815 13.3175 3.55258 13.2782 3.5051C13.2388 3.45762 13.1894 3.41939 13.1336 3.39313C13.0778 3.36688 13.0169 3.35323 12.9552 3.35318H3.19982L2.85952 1.99112C2.83684 1.9002 2.78441 1.81946 2.71057 1.76176C2.63672 1.70405 2.54571 1.67269 2.45199 1.67267H1.19161ZM4.48121 10.0752L3.37795 4.19343H12.4493L11.3461 10.0752H4.48121ZM5.81301 12.596C5.81301 12.8188 5.72448 13.0325 5.56691 13.1901C5.40933 13.3477 5.1956 13.4362 4.97276 13.4362C4.74991 13.4362 4.53618 13.3477 4.37861 13.1901C4.22103 13.0325 4.1325 12.8188 4.1325 12.596C4.1325 12.3731 4.22103 12.1594 4.37861 12.0018C4.53618 11.8442 4.74991 11.7557 4.97276 11.7557C5.1956 11.7557 5.40933 11.8442 5.56691 12.0018C5.72448 12.1594 5.81301 12.3731 5.81301 12.596ZM11.6948 12.596C11.6948 12.8188 11.6063 13.0325 11.4487 13.1901C11.2911 13.3477 11.0774 13.4362 10.8545 13.4362C10.6317 13.4362 10.418 13.3477 10.2604 13.1901C10.1028 13.0325 10.0143 12.8188 10.0143 12.596C10.0143 12.3731 10.1028 12.1594 10.2604 12.0018C10.418 11.8442 10.6317 11.7557 10.8545 11.7557C11.0774 11.7557 11.2911 11.8442 11.4487 12.0018C11.6063 12.1594 11.6948 12.3731 11.6948 12.596Z" fill="#363330"/>
</svg>
