<svg width="17" height="16" viewBox="0 0 17 16" fill="none" xmlns="http://www.w3.org/2000/svg">
<path d="M3.60968 4.02114V7.90942C3.60968 8.49386 4.08378 8.97095 4.6712 8.97095H8.55949M14.5678 5.78935V1.90106C14.5678 1.31663 14.0937 0.839539 13.5063 0.839539H4.6712C4.08677 0.839539 3.60968 1.31365 3.60968 1.90106V3.31445M9.2632 8.96797H10.3098L12.1943 10.8435C12.418 11.0642 12.7966 10.9061 12.7966 10.5931V8.96797H13.5033C14.0878 8.96797 14.5649 8.49386 14.5649 7.90644V6.49306M5.72975 11.4399V12.8533C5.72975 13.4377 6.20385 13.9148 6.79127 13.9148H10.7869L13.2857 15.9245C13.5182 16.1094 13.8612 15.9454 13.8612 15.6502V13.9148H15.2745C15.859 13.9148 16.3361 13.4407 16.3361 12.8533V6.84492C16.3361 6.26048 15.862 5.78339 15.2745 5.78339H9.26618M5.73273 8.96499V10.7332M8.55949 5.78637H6.79127C6.20684 5.78637 5.72975 6.26048 5.72975 6.8479V8.26128M1.13477 3.31445H8.20465C8.78909 3.31445 9.26618 3.78855 9.26618 4.37597V10.3843C9.26618 10.9688 8.79207 11.4459 8.20465 11.4459H3.85717L2.09789 13.2827C1.87724 13.5123 1.4896 13.3572 1.4896 13.0381V11.4459H1.13477C0.550333 11.4459 0.0732422 10.9717 0.0732422 10.3843V4.37597C0.0732422 3.79154 0.547351 3.31445 1.13477 3.31445Z" stroke="white" stroke-width="0.70669" stroke-miterlimit="10"/>
</svg>
