<svg width="34" height="35" viewBox="0 0 34 35" fill="none" xmlns="http://www.w3.org/2000/svg">
<path d="M17.1636 2.20279C25.5341 2.20279 32.3451 9.01379 32.3451 17.3854C32.3451 25.757 25.5341 32.568 17.1636 32.568C8.79096 32.568 1.97996 25.757 1.97996 17.3854C1.97996 9.01379 8.79096 2.20279 17.1636 2.20279ZM17.1923 0.720703H17.135C7.94436 0.736617 0.5 8.19053 0.5 17.3843C0.5 26.5866 7.96028 34.0469 17.1636 34.0469C26.3648 34.0469 33.8251 26.5866 33.8251 17.3843C33.8251 8.19053 26.3797 0.735556 17.1923 0.720703Z" fill="#250A20"/>
<path d="M17.1637 6.46124C23.1875 6.46124 28.0867 11.3605 28.0867 17.3843C28.0867 23.4081 23.1864 28.3074 17.1637 28.3074C11.1409 28.3074 6.23953 23.4081 6.23953 17.3843C6.23953 11.3605 11.1409 6.46124 17.1637 6.46124ZM17.1637 5.72073C10.7208 5.72073 5.49902 10.9436 5.49902 17.3843C5.49902 23.8272 10.7197 29.05 17.1637 29.05C23.6044 29.05 28.8272 23.8272 28.8272 17.3843C28.8272 10.9436 23.6055 5.72073 17.1637 5.72073Z" fill="#250A20"/>
<path d="M22.3711 17.3875C22.3711 17.2178 22.5101 17.0788 22.6798 17.0788H25.2981L24.9321 16.891C24.7793 16.8136 24.7199 16.6279 24.7984 16.4762C24.8759 16.3245 25.0615 16.2651 25.2133 16.3425L26.7123 17.1138C26.8407 17.1785 26.9065 17.3217 26.8725 17.4597C26.8386 17.5986 26.7144 17.6962 26.5723 17.6962H22.6798C22.5101 17.6962 22.3711 17.5583 22.3711 17.3875Z" fill="#250A20"/>
<path d="M7.44629 17.3811C7.44629 17.3578 7.44841 17.3323 7.45478 17.3079C7.48873 17.17 7.61179 17.0745 7.75289 17.0745H11.5721C11.7429 17.0745 11.8809 17.2124 11.8809 17.3822C11.8809 17.553 11.7429 17.6909 11.5721 17.6909H9.00157L9.36122 17.8808C9.51293 17.9593 9.57022 18.1471 9.49065 18.2967C9.41214 18.4473 9.22542 18.5057 9.07584 18.4261L7.61179 17.6559C7.50782 17.6007 7.44629 17.4957 7.44629 17.3822V17.3811Z" fill="#250A20"/>
<path d="M14.892 17.6464C15.084 17.6464 15.2379 17.6983 15.3546 17.8034C15.4713 17.9084 15.5286 18.0548 15.5286 18.2394C15.5286 18.4357 15.466 18.5884 15.3408 18.6998C15.2156 18.8102 15.0533 18.8664 14.8549 18.8664C14.386 18.8664 14.1526 18.6627 14.1526 18.2564H13.4619V18.3052C13.4619 18.6754 13.586 18.9608 13.8343 19.1624C14.0815 19.364 14.4178 19.4647 14.8443 19.4647C15.2294 19.4647 15.5561 19.3565 15.8267 19.1422C16.0961 18.929 16.2319 18.6288 16.2319 18.2405C16.2319 18.1025 16.2107 17.9763 16.1693 17.8596C16.128 17.7429 16.0823 17.6538 16.0304 17.5901C15.9805 17.5275 15.92 17.4702 15.8543 17.4193C15.7864 17.3684 15.7386 17.3366 15.7121 17.327C15.6856 17.3175 15.6643 17.3069 15.6495 17.2994L15.6983 17.2719C15.7354 17.2538 15.7779 17.222 15.8299 17.1743C15.8808 17.1265 15.9306 17.0713 15.9805 17.0077C16.0293 16.944 16.0707 16.8602 16.1057 16.7541C16.1407 16.6491 16.1566 16.5367 16.1566 16.4178C16.1566 16.073 16.0389 15.8014 15.8033 15.6073C15.5689 15.411 15.2453 15.3124 14.84 15.3124C14.4454 15.3124 14.1239 15.41 13.8788 15.6052C13.6348 15.7993 13.5128 16.0741 13.5128 16.4284V16.4666H14.1876C14.1876 16.2778 14.2449 16.1356 14.3594 16.0423C14.473 15.9489 14.6332 15.9012 14.8358 15.9012C15.0458 15.9012 15.2039 15.951 15.3121 16.0497C15.4193 16.1505 15.4723 16.2842 15.4723 16.456C15.4723 16.6406 15.4172 16.786 15.3036 16.8921C15.1922 16.9971 15.0437 17.048 14.8591 17.048H14.1674V17.6485H14.8973L14.892 17.6464ZM17.5432 19.0287C17.5432 18.9279 17.5082 18.8484 17.4403 18.7953C17.3703 18.7412 17.2801 18.7136 17.1666 18.7136C17.0573 18.7136 16.9682 18.7412 16.8982 18.7953C16.8271 18.8484 16.7921 18.9279 16.7921 19.0287V19.1422C16.7921 19.2451 16.8271 19.3236 16.8982 19.3777C16.9682 19.4308 17.0584 19.4584 17.1666 19.4584C17.2801 19.4584 17.3703 19.4308 17.4403 19.3777C17.5082 19.3236 17.5432 19.2451 17.5432 19.1422V19.0287ZM20.867 16.526C20.867 16.1558 20.7408 15.8587 20.4872 15.637C20.2326 15.4132 19.9027 15.3018 19.4963 15.3018C19.09 15.3018 18.7601 15.4132 18.5055 15.637C18.2519 15.8587 18.1256 16.1568 18.1256 16.526V18.2468C18.1256 18.616 18.2519 18.912 18.5055 19.1348C18.7601 19.3587 19.09 19.47 19.4963 19.47C19.9027 19.47 20.2326 19.3587 20.4872 19.1348C20.7408 18.911 20.867 18.615 20.867 18.2468V16.526ZM20.1764 18.1917C20.1764 18.4049 20.1159 18.5715 19.9939 18.6913C19.873 18.8112 19.7064 18.8717 19.4963 18.8717C19.2863 18.8717 19.1208 18.8123 18.9988 18.6913C18.8768 18.5715 18.8163 18.4049 18.8163 18.1917V16.5791C18.8163 16.3616 18.8768 16.194 18.9988 16.0752C19.1208 15.9574 19.2863 15.899 19.4963 15.899C19.7064 15.899 19.873 15.9574 19.9939 16.0752C20.117 16.194 20.1764 16.3616 20.1764 16.5791V18.1917Z" fill="#250A20"/>
</svg>
