<svg width="28" height="30" viewBox="0 0 28 30" fill="none" xmlns="http://www.w3.org/2000/svg">
<path d="M25.1274 26.2873C24.9183 25.584 24.6142 24.8237 24.2721 24.0254C23.9299 23.2461 23.5118 22.4478 23.0746 21.6684C23.0176 21.7825 22.9415 21.8775 22.8845 21.9726C22.8275 22.0676 22.7514 22.1817 22.6944 22.2767C22.6184 22.3717 22.5614 22.4668 22.4853 22.5808C22.4093 22.6758 22.3333 22.7709 22.2572 22.8659L22.2382 22.8849L22.2192 22.9039L22.2002 22.923L22.1812 22.942L22.1052 23.018C22.1622 23.1891 22.2382 23.4172 22.3333 23.6452C22.4283 23.8733 22.5043 24.1204 22.5804 24.3675C22.6564 24.5956 22.7134 24.8237 22.7514 25.0138C22.7705 25.2039 22.7705 25.3369 22.6944 25.413C22.6754 25.432 22.6564 25.451 22.6184 25.47C22.5994 25.489 22.5614 25.508 22.5234 25.508C22.4853 25.527 22.4473 25.527 22.4283 25.527C22.3903 25.527 22.3523 25.527 22.3143 25.527C22.2572 25.527 22.1812 25.508 22.1052 25.508C22.0292 25.489 21.9531 25.47 21.8771 25.451C21.8011 25.432 21.706 25.3939 21.611 25.3559C21.5159 25.3179 21.4209 25.2799 21.3259 25.2229C21.2118 25.1659 21.0788 25.1088 20.9457 25.0328C20.8127 24.9568 20.6796 24.8807 20.5466 24.8047C20.4135 24.7287 20.2614 24.6336 20.1094 24.5576C19.9573 24.4626 19.8053 24.3675 19.6722 24.2915C20.2614 23.7023 20.8127 23.075 21.3259 22.4097C21.8391 21.7445 22.2953 21.0222 22.7134 20.2999C23.1316 19.5586 23.4737 18.7983 23.7779 18C24.063 17.2207 24.3101 16.4033 24.4621 15.586C24.8233 13.7423 24.8043 12.0126 24.4621 10.4729C24.139 8.95232 23.4927 7.62179 22.5994 6.53835C21.725 5.47392 20.6226 4.65659 19.3301 4.12438C18.0566 3.61117 16.612 3.38308 15.0533 3.47812C14.0269 3.55415 13.0005 3.76323 12.0121 4.08636C11.0237 4.40949 10.0733 4.86568 9.14196 5.4169C8.2296 5.96812 7.35524 6.61438 6.55692 7.33667C5.7586 8.05896 4.9983 8.87629 4.33303 9.75064C4.14295 9.40851 3.99089 9.10438 3.87684 8.80026C3.7628 8.51515 3.66776 8.24904 3.61074 8.02095C3.55371 7.79286 3.53471 7.58377 3.55371 7.4127C3.57272 7.24163 3.62974 7.10858 3.72478 7.01354C3.74379 6.97553 3.80081 6.95652 3.83883 6.9185C3.87684 6.88049 3.93387 6.86148 4.0099 6.84247C4.06692 6.82347 4.14295 6.80446 4.21898 6.78545C4.29501 6.76644 4.37104 6.76644 4.44707 6.74743C4.54211 6.74743 4.63715 6.74743 4.73219 6.76644C4.82723 6.78545 4.94127 6.80446 5.03631 6.84247C5.13135 6.88049 5.24539 6.9185 5.34043 6.99453C5.45448 7.05156 5.54952 7.12759 5.64456 7.24163C5.73959 7.12759 5.85364 6.99453 5.96769 6.88049C6.08173 6.76644 6.19578 6.6524 6.30982 6.55736C6.42387 6.46232 6.53792 6.34827 6.67097 6.25324C6.78502 6.1582 6.91807 6.06316 7.05112 5.96812C7.07013 5.96812 7.07013 5.94911 7.08914 5.94911C7.10815 5.94911 7.10815 5.93011 7.12715 5.93011C7.14616 5.93011 7.14616 5.9111 7.16517 5.9111C7.18418 5.9111 7.18418 5.89209 7.20318 5.89209C6.97509 5.68301 6.72799 5.51194 6.46188 5.35988C6.19578 5.22682 5.92967 5.11278 5.66356 5.03675C5.39746 4.96072 5.11234 4.90369 4.84623 4.86568C4.58013 4.82766 4.31402 4.82766 4.08593 4.84667C3.91486 4.86568 3.74379 4.88468 3.59173 4.90369C3.43967 4.94171 3.28761 4.97972 3.15455 5.01774C3.0215 5.05575 2.90745 5.11278 2.79341 5.18881C2.69837 5.24583 2.60333 5.32186 2.5273 5.39789C2.31822 5.62598 2.20417 5.9111 2.14715 6.27224C2.09012 6.63339 2.10913 7.05156 2.20417 7.50774C2.29921 7.98293 2.45127 8.49614 2.67936 9.06637C2.90745 9.6366 3.19257 10.2639 3.55371 10.9101C3.30661 11.2713 3.09753 11.6514 2.86944 12.0506C2.66035 12.4307 2.47028 12.8299 2.2802 13.229C2.09012 13.6282 1.93806 14.0464 1.786 14.4645C1.63394 14.8827 1.50089 15.3199 1.38684 15.7381C0.949664 17.3917 0.816611 18.9884 0.968672 20.452C1.12073 21.9346 1.5389 23.3221 2.20417 24.5006C2.88845 25.6981 3.83883 26.7055 4.9983 27.4468C6.17677 28.1881 7.60234 28.6633 9.21799 28.7583C9.69319 28.7773 10.1874 28.7773 10.6626 28.7393C11.1568 28.7013 11.632 28.6252 12.1262 28.5302C12.6204 28.4352 13.0956 28.3021 13.5707 28.1501C14.0459 27.998 14.5401 27.8079 14.9963 27.5798L13.8559 25.432C13.5327 25.565 13.1906 25.6791 12.8485 25.7741C12.5063 25.8691 12.1642 25.9452 11.8411 26.0212C11.4989 26.0782 11.1568 26.1352 10.8146 26.1543C10.4725 26.1733 10.1304 26.1733 9.80723 26.1733C8.51471 26.1162 7.35524 25.7551 6.40486 25.1659C5.45448 24.5956 4.67516 23.7973 4.10494 22.8279C3.53471 21.8775 3.19257 20.7751 3.05951 19.5776C2.92646 18.3801 3.0215 17.0876 3.36364 15.7381C3.70577 14.4075 4.276 13.134 4.9983 11.9745C5.72059 10.8151 6.59494 9.76965 7.60234 8.87629C8.59074 7.98293 9.71219 7.24163 10.8717 6.70942C12.0501 6.17721 13.2856 5.83507 14.5401 5.75904C15.8137 5.68301 16.9731 5.89209 17.9995 6.32927C19.0259 6.76644 19.9193 7.45072 20.6036 8.32507C21.3069 9.19942 21.8011 10.2829 22.0482 11.5184C22.2953 12.7539 22.2953 14.1414 22.0101 15.605C21.8771 16.2513 21.687 16.8785 21.4589 17.5058C21.2308 18.133 20.9457 18.7223 20.6226 19.3115C20.2995 19.9007 19.9383 20.452 19.5392 20.9842C19.14 21.5164 18.7028 22.0106 18.2466 22.4858C18.2466 22.3337 18.2656 22.1626 18.2656 22.0106C18.2656 21.8585 18.2846 21.6875 18.2846 21.5354C18.2846 21.3833 18.3037 21.2503 18.3037 21.1362C18.3037 21.0222 18.3037 20.9271 18.3037 20.8511C18.3037 20.7941 18.3037 20.7371 18.2846 20.6991C18.2656 20.661 18.2656 20.623 18.2466 20.604C18.2276 20.585 18.2086 20.566 18.1896 20.547C18.1706 20.528 18.1326 20.528 18.1136 20.528C18.0946 20.528 18.0756 20.528 18.0566 20.528C18.0375 20.528 18.0185 20.528 17.9995 20.547C17.9805 20.547 17.9615 20.566 17.9615 20.566H17.9425L13.9509 21.8775C13.9509 21.8775 13.9129 21.8965 13.8559 21.9155C13.8178 21.9346 13.7608 21.9726 13.7038 22.0106C13.6658 22.0676 13.6278 22.1246 13.6088 22.2197C13.6088 22.3147 13.6278 22.4097 13.6848 22.5428C13.6848 22.5428 13.6848 22.5618 13.7038 22.5618C13.7038 22.5618 13.7038 22.5808 13.7228 22.5808C13.7228 22.5808 13.7228 22.5998 13.7418 22.5998C13.7418 22.5998 13.7418 22.6188 13.7608 22.6188C13.9319 22.98 14.198 23.4742 14.4831 24.0254C14.7872 24.5766 15.1104 25.2039 15.4335 25.8121C15.7756 26.4394 16.0988 27.0476 16.3839 27.5608C16.669 28.093 16.9161 28.5302 17.0492 28.7963C17.0682 28.8153 17.0682 28.8343 17.0872 28.8723C17.1062 28.8914 17.1062 28.9104 17.1252 28.9294C17.1442 28.9484 17.1442 28.9674 17.1442 28.9864C17.1442 29.0054 17.1632 29.0244 17.1632 29.0244C17.2012 29.1004 17.2392 29.1575 17.2772 29.1955C17.3153 29.2525 17.3533 29.2905 17.3723 29.3095C17.4103 29.3475 17.4293 29.3665 17.4673 29.3856C17.5053 29.4046 17.5243 29.4046 17.5624 29.4046C17.6194 29.4046 17.6574 29.3856 17.6954 29.3665C17.7334 29.3475 17.7714 29.2905 17.8095 29.2525C17.8475 29.2145 17.8665 29.1575 17.8855 29.1004C17.9045 29.0434 17.9045 29.0054 17.9235 28.9674C17.9235 28.9484 17.9235 28.9484 17.9235 28.9294C17.9235 28.9104 17.9235 28.8914 17.9235 28.8533C17.9235 28.8343 17.9235 28.7963 17.9235 28.7583C17.9235 28.7203 17.9235 28.7013 17.9235 28.6633C17.9235 28.5302 17.9425 28.3781 17.9425 28.2071C17.9425 28.036 17.9615 27.8649 17.9615 27.7129C17.9615 27.5608 17.9805 27.4278 17.9805 27.3137C17.9805 27.2187 17.9995 27.1427 17.9995 27.1236C18.5508 27.4468 19.102 27.7699 19.6342 28.074C20.1854 28.3781 20.7176 28.6443 21.2308 28.8914C21.744 29.1385 22.2382 29.3285 22.6944 29.4806C23.1506 29.6327 23.5688 29.7277 23.9299 29.7467C23.9869 29.7467 24.025 29.7467 24.082 29.7467C24.139 29.7467 24.177 29.7467 24.215 29.7467C24.2531 29.7467 24.3101 29.7467 24.3481 29.7277C24.3861 29.7277 24.4431 29.7087 24.4811 29.7087C24.5382 29.6897 24.6142 29.6707 24.6712 29.6517C24.7282 29.6327 24.7853 29.6136 24.8423 29.5756C24.8993 29.5566 24.9373 29.5186 24.9944 29.4806C25.0324 29.4426 25.0894 29.4046 25.1274 29.3665C25.3935 29.1004 25.5076 28.6633 25.4886 28.131C25.4886 27.5988 25.3555 26.9526 25.1464 26.2493L25.1274 26.2873Z" fill="#833376"/>
<path d="M12.5439 15.2869V14.3365H10.0539L11.4985 12.9299C11.8786 12.5498 12.1447 12.2076 12.3158 11.8845C12.4679 11.5614 12.5439 11.2382 12.5439 10.8961C12.5439 10.3449 12.3728 9.9077 12.0307 9.60357C11.6885 9.29945 11.2134 9.14739 10.5861 9.14739C9.97786 9.14739 9.48366 9.29945 9.12251 9.60357C8.76137 9.9077 8.57129 10.3449 8.57129 10.8961V10.9531H9.61671C9.61671 10.3449 9.93984 10.0408 10.5861 10.0408C11.1943 10.0408 11.5175 10.3259 11.5175 10.9151C11.5175 11.1432 11.4605 11.3713 11.3464 11.5804C11.2324 11.7895 11.0613 12.0175 10.8142 12.2837L8.70434 14.3175V15.2679H12.5819L12.5439 15.2869ZM17.6189 10.9531C17.6189 10.4019 17.4289 9.94571 17.0487 9.62258C16.6686 9.28044 16.1744 9.10938 15.5471 9.10938C14.9389 9.10938 14.4447 9.28044 14.0455 9.60357C13.6653 9.94571 13.4753 10.3829 13.4753 10.9341V13.5192C13.4753 14.0704 13.6653 14.5075 14.0455 14.8497C14.4256 15.1918 14.9198 15.3439 15.5471 15.3439C16.1553 15.3439 16.6495 15.1728 17.0487 14.8307C17.4289 14.4885 17.6189 14.0514 17.6189 13.5001V10.9531ZM16.5735 13.4241C16.5735 13.7472 16.4785 13.9943 16.3074 14.1654C16.1363 14.3365 15.8892 14.4315 15.5661 14.4315C15.243 14.4315 14.9959 14.3365 14.8248 14.1654C14.6537 13.9943 14.5587 13.7282 14.5587 13.4241V11.0101C14.5587 10.687 14.6537 10.4399 14.8248 10.2498C14.9959 10.0788 15.262 9.98373 15.5851 9.98373C15.9082 9.98373 16.1553 10.0788 16.3264 10.2498C16.5165 10.4209 16.5925 10.687 16.5925 11.0101L16.5735 13.4241Z" fill="#833376"/>
<path d="M9.82616 20.3821V15.8203H9.06585V19.2987L7.26012 15.8203H6.13867V20.3821H6.89898V16.9228L8.72371 20.3821H9.82616ZM11.4228 19.945C11.4228 19.8309 11.3848 19.7359 11.3088 19.6789C11.2327 19.6218 11.1187 19.5838 11.0046 19.5838C10.8906 19.5838 10.7765 19.6218 10.7005 19.6789C10.6245 19.7359 10.5865 19.8309 10.5865 19.945V20.078C10.5865 20.1921 10.6245 20.2871 10.7005 20.3441C10.7765 20.4012 10.8906 20.4392 11.0046 20.4392C11.1377 20.4392 11.2327 20.4012 11.3088 20.3441C11.3848 20.2871 11.4228 20.1921 11.4228 20.078L11.4038 19.945H11.4228ZM14.8632 19.1467H14.1409C14.1409 19.5838 13.9128 19.7929 13.4566 19.7929C13.0194 19.7929 12.7914 19.5648 12.7914 19.1086V18.4434C12.7914 17.9872 13.0194 17.7591 13.4566 17.7591C13.9128 17.7591 14.1409 17.9682 14.1409 18.4054H14.8632V18.3483C14.8632 17.9492 14.7491 17.645 14.483 17.436C14.2359 17.2269 13.8938 17.1128 13.4756 17.1128C13.0575 17.1128 12.7153 17.2269 12.4682 17.455C12.2211 17.6831 12.0881 17.9872 12.0881 18.3863V19.1847C12.0881 19.5838 12.2211 19.8879 12.4682 20.116C12.7153 20.3441 13.0575 20.4392 13.4756 20.4392C13.9128 20.4392 14.2549 20.3441 14.502 20.116C14.7491 19.907 14.8822 19.6028 14.8822 19.2037L14.8632 19.1657V19.1467ZM19.9953 20.3821V18.1012C19.9953 17.7971 19.9192 17.55 19.7482 17.3789C19.5961 17.2079 19.368 17.1128 19.0829 17.1128C18.8168 17.1128 18.5887 17.1889 18.3416 17.3409L17.9804 17.55C17.8474 17.2649 17.5813 17.1128 17.2201 17.1128C16.992 17.1128 16.764 17.1889 16.5359 17.3029L16.2507 17.474V17.1318H15.5285V20.3631H16.2698V18.1392L16.6499 17.8921C16.802 17.8161 16.935 17.7781 17.0301 17.7781C17.2582 17.7781 17.3722 17.9112 17.3722 18.1773V20.3631H18.1135V18.1392L18.5127 17.8921C18.6647 17.7971 18.7978 17.7591 18.8928 17.7591C19.1209 17.7591 19.2349 17.8921 19.2349 18.1583V20.3441H19.9762L19.9953 20.3821Z" fill="#833376"/>
<path d="M22.0677 11.8054C25.147 11.8054 27.656 9.3154 27.656 6.21716C27.656 3.13792 25.166 0.628906 22.0677 0.628906C18.9885 0.628906 16.4795 3.11891 16.4795 6.21716C16.4795 9.2964 18.9695 11.8054 22.0677 11.8054Z" fill="#833376"/>
<path d="M22.0677 11.8054C25.147 11.8054 27.656 9.3154 27.656 6.21716C27.656 3.13792 25.166 0.628906 22.0677 0.628906C18.9885 0.628906 16.4795 3.11891 16.4795 6.21716C16.4795 9.2964 18.9695 11.8054 22.0677 11.8054Z" stroke="white" stroke-width="1.08344"/>
<path d="M24.0438 9.39523V8.78699H22.6752V3.46484H21.972C21.5538 3.864 21.1356 4.1111 20.7365 4.26317V4.90943C21.1926 4.83339 21.6108 4.6053 22.01 4.20614V8.80599H20.2803V9.41424H24.0438V9.39523Z" fill="#FEFEFE"/>
</svg>
