<svg width="15" height="15" viewBox="0 0 15 15" fill="none" xmlns="http://www.w3.org/2000/svg">
<path d="M8.34874 5.35104C8.34874 5.231 8.30105 5.11588 8.21617 5.031C8.13129 4.94612 8.01617 4.89844 7.89613 4.89844C7.77609 4.89844 7.66097 4.94612 7.57609 5.031C7.49121 5.11588 7.44353 5.231 7.44353 5.35104V6.70885H6.08572C5.96568 6.70885 5.85056 6.75653 5.76568 6.84141C5.6808 6.92629 5.63312 7.04141 5.63312 7.16145C5.63312 7.28149 5.6808 7.39661 5.76568 7.48149C5.85056 7.56637 5.96568 7.61406 6.08572 7.61406H7.44353V8.97186C7.44353 9.0919 7.49121 9.20702 7.57609 9.2919C7.66097 9.37678 7.77609 9.42447 7.89613 9.42447C8.01617 9.42447 8.13129 9.37678 8.21617 9.2919C8.30105 9.20702 8.34874 9.0919 8.34874 8.97186V7.61406H9.70654C9.82658 7.61406 9.9417 7.56637 10.0266 7.48149C10.1115 7.39661 10.1591 7.28149 10.1591 7.16145C10.1591 7.04141 10.1115 6.92629 10.0266 6.84141C9.9417 6.75653 9.82658 6.70885 9.70654 6.70885H8.34874V5.35104Z" fill="#363330"/>
<path d="M0.654507 1.27734C0.53447 1.27734 0.419348 1.32503 0.334469 1.40991C0.249589 1.49479 0.201904 1.60991 0.201904 1.72995C0.201904 1.84998 0.249589 1.96511 0.334469 2.04999C0.419348 2.13486 0.53447 2.18255 0.654507 2.18255H1.65929L2.02227 3.63722L3.37827 10.8653C3.39769 10.969 3.45273 11.0627 3.53389 11.1301C3.61504 11.1975 3.71721 11.2345 3.82273 11.2346H4.72793C4.24778 11.2346 3.7873 11.4253 3.44778 11.7649C3.10826 12.1044 2.91752 12.5649 2.91752 13.045C2.91752 13.5252 3.10826 13.9857 3.44778 14.3252C3.7873 14.6647 4.24778 14.8554 4.72793 14.8554C5.20809 14.8554 5.66857 14.6647 6.00809 14.3252C6.34761 13.9857 6.53835 13.5252 6.53835 13.045C6.53835 12.5649 6.34761 12.1044 6.00809 11.7649C5.66857 11.4253 5.20809 11.2346 4.72793 11.2346H11.0644C10.5842 11.2346 10.1237 11.4253 9.78422 11.7649C9.4447 12.1044 9.25396 12.5649 9.25396 13.045C9.25396 13.5252 9.4447 13.9857 9.78422 14.3252C10.1237 14.6647 10.5842 14.8554 11.0644 14.8554C11.5445 14.8554 12.005 14.6647 12.3445 14.3252C12.684 13.9857 12.8748 13.5252 12.8748 13.045C12.8748 12.5649 12.684 12.1044 12.3445 11.7649C12.005 11.4253 11.5445 11.2346 11.0644 11.2346H11.9696C12.0751 11.2345 12.1773 11.1975 12.2584 11.1301C12.3396 11.0627 12.3946 10.969 12.414 10.8653L13.7718 3.62364C13.7841 3.55832 13.7818 3.4911 13.7651 3.42677C13.7484 3.36244 13.7178 3.30257 13.6753 3.25142C13.6329 3.20027 13.5798 3.15909 13.5196 3.1308C13.4595 3.10251 13.3938 3.08782 13.3274 3.08776H2.81795L2.45134 1.62042C2.42691 1.52246 2.37043 1.43548 2.29088 1.37332C2.21133 1.31115 2.11328 1.27737 2.01232 1.27734H0.654507ZM4.19839 10.3294L3.00985 3.99296H12.7825L11.5939 10.3294H4.19839ZM5.63314 13.045C5.63314 13.2851 5.53777 13.5153 5.36801 13.6851C5.19825 13.8549 4.96801 13.9502 4.72793 13.9502C4.48786 13.9502 4.25762 13.8549 4.08786 13.6851C3.9181 13.5153 3.82273 13.2851 3.82273 13.045C3.82273 12.8049 3.9181 12.5747 4.08786 12.4049C4.25762 12.2352 4.48786 12.1398 4.72793 12.1398C4.96801 12.1398 5.19825 12.2352 5.36801 12.4049C5.53777 12.5747 5.63314 12.8049 5.63314 13.045ZM11.9696 13.045C11.9696 13.2851 11.8742 13.5153 11.7045 13.6851C11.5347 13.8549 11.3045 13.9502 11.0644 13.9502C10.8243 13.9502 10.5941 13.8549 10.4243 13.6851C10.2545 13.5153 10.1592 13.2851 10.1592 13.045C10.1592 12.8049 10.2545 12.5747 10.4243 12.4049C10.5941 12.2352 10.8243 12.1398 11.0644 12.1398C11.3045 12.1398 11.5347 12.2352 11.7045 12.4049C11.8742 12.5747 11.9696 12.8049 11.9696 13.045Z" fill="#363330"/>
</svg>
