<svg width="15" height="16" viewBox="0 0 15 16" fill="none" xmlns="http://www.w3.org/2000/svg">
<path d="M8.51915 5.70456C8.51915 5.58452 8.47146 5.4694 8.38658 5.38452C8.3017 5.29964 8.18658 5.25195 8.06654 5.25195C7.94651 5.25195 7.83138 5.29964 7.7465 5.38452C7.66162 5.4694 7.61394 5.58452 7.61394 5.70456V7.06237H6.25613C6.13609 7.06237 6.02097 7.11005 5.93609 7.19493C5.85121 7.27981 5.80353 7.39493 5.80353 7.51497C5.80353 7.63501 5.85121 7.75013 5.93609 7.83501C6.02097 7.91989 6.13609 7.96757 6.25613 7.96757H7.61394V9.32538C7.61394 9.44542 7.66162 9.56054 7.7465 9.64542C7.83138 9.7303 7.94651 9.77798 8.06654 9.77798C8.18658 9.77798 8.3017 9.7303 8.38658 9.64542C8.47146 9.56054 8.51915 9.44542 8.51915 9.32538V7.96757H9.87696C9.99699 7.96757 10.1121 7.91989 10.197 7.83501C10.2819 7.75013 10.3296 7.63501 10.3296 7.51497C10.3296 7.39493 10.2819 7.27981 10.197 7.19493C10.1121 7.11005 9.99699 7.06237 9.87696 7.06237H8.51915V5.70456Z" fill="#363330"/>
<path d="M0.824917 1.63086C0.70488 1.63086 0.589758 1.67854 0.504879 1.76342C0.419999 1.8483 0.372314 1.96342 0.372314 2.08346C0.372314 2.2035 0.419999 2.31862 0.504879 2.4035C0.589758 2.48838 0.70488 2.53607 0.824917 2.53607H1.8297L2.19268 3.99073L3.54868 11.2188C3.5681 11.3225 3.62314 11.4162 3.7043 11.4836C3.78545 11.5511 3.88762 11.588 3.99314 11.5881H4.89834C4.41819 11.5881 3.95771 11.7789 3.61819 12.1184C3.27867 12.4579 3.08793 12.9184 3.08793 13.3985C3.08793 13.8787 3.27867 14.3392 3.61819 14.6787C3.95771 15.0182 4.41819 15.209 4.89834 15.209C5.3785 15.209 5.83898 15.0182 6.1785 14.6787C6.51802 14.3392 6.70876 13.8787 6.70876 13.3985C6.70876 12.9184 6.51802 12.4579 6.1785 12.1184C5.83898 11.7789 5.3785 11.5881 4.89834 11.5881H11.2348C10.7546 11.5881 10.2942 11.7789 9.95463 12.1184C9.61511 12.4579 9.42437 12.9184 9.42437 13.3985C9.42437 13.8787 9.61511 14.3392 9.95463 14.6787C10.2942 15.0182 10.7546 15.209 11.2348 15.209C11.7149 15.209 12.1754 15.0182 12.5149 14.6787C12.8545 14.3392 13.0452 13.8787 13.0452 13.3985C13.0452 12.9184 12.8545 12.4579 12.5149 12.1184C12.1754 11.7789 11.7149 11.5881 11.2348 11.5881H12.14C12.2455 11.588 12.3477 11.5511 12.4288 11.4836C12.51 11.4162 12.565 11.3225 12.5844 11.2188L13.9423 3.97715C13.9545 3.91183 13.9522 3.84462 13.9355 3.78029C13.9188 3.71596 13.8882 3.65609 13.8458 3.60494C13.8033 3.55378 13.7502 3.5126 13.69 3.48431C13.6299 3.45603 13.5643 3.44133 13.4978 3.44127H2.98836L2.62175 1.97393C2.59732 1.87597 2.54084 1.789 2.46129 1.72683C2.38174 1.66467 2.28369 1.63089 2.18273 1.63086H0.824917ZM4.3688 10.6829L3.18026 4.34648H12.9529L11.7643 10.6829H4.3688ZM5.80355 13.3985C5.80355 13.6386 5.70818 13.8689 5.53842 14.0386C5.36866 14.2084 5.13842 14.3037 4.89834 14.3037C4.65827 14.3037 4.42803 14.2084 4.25827 14.0386C4.08851 13.8689 3.99314 13.6386 3.99314 13.3985C3.99314 13.1585 4.08851 12.9282 4.25827 12.7585C4.42803 12.5887 4.65827 12.4933 4.89834 12.4933C5.13842 12.4933 5.36866 12.5887 5.53842 12.7585C5.70818 12.9282 5.80355 13.1585 5.80355 13.3985ZM12.14 13.3985C12.14 13.6386 12.0446 13.8689 11.8749 14.0386C11.7051 14.2084 11.4749 14.3037 11.2348 14.3037C10.9947 14.3037 10.7645 14.2084 10.5947 14.0386C10.425 13.8689 10.3296 13.6386 10.3296 13.3985C10.3296 13.1585 10.425 12.9282 10.5947 12.7585C10.7645 12.5887 10.9947 12.4933 11.2348 12.4933C11.4749 12.4933 11.7051 12.5887 11.8749 12.7585C12.0446 12.9282 12.14 13.1585 12.14 13.3985Z" fill="#363330"/>
</svg>
