<svg width="15" height="15" viewBox="0 0 15 15" fill="none" xmlns="http://www.w3.org/2000/svg">
<path d="M8.51915 5.25338C8.51915 5.13335 8.47146 5.01823 8.38658 4.93335C8.3017 4.84847 8.18658 4.80078 8.06654 4.80078C7.94651 4.80078 7.83138 4.84847 7.7465 4.93335C7.66162 5.01823 7.61394 5.13335 7.61394 5.25338V6.61119H6.25613C6.13609 6.61119 6.02097 6.65888 5.93609 6.74376C5.85121 6.82864 5.80353 6.94376 5.80353 7.0638C5.80353 7.18383 5.85121 7.29896 5.93609 7.38383C6.02097 7.46871 6.13609 7.5164 6.25613 7.5164H7.61394V8.87421C7.61394 8.99425 7.66162 9.10937 7.7465 9.19425C7.83138 9.27913 7.94651 9.32681 8.06654 9.32681C8.18658 9.32681 8.3017 9.27913 8.38658 9.19425C8.47146 9.10937 8.51915 8.99425 8.51915 8.87421V7.5164H9.87696C9.99699 7.5164 10.1121 7.46871 10.197 7.38383C10.2819 7.29896 10.3296 7.18383 10.3296 7.0638C10.3296 6.94376 10.2819 6.82864 10.197 6.74376C10.1121 6.65888 9.99699 6.61119 9.87696 6.61119H8.51915V5.25338Z" fill="#363330"/>
<path d="M0.824917 1.17969C0.70488 1.17969 0.589758 1.22737 0.504879 1.31225C0.419999 1.39713 0.372314 1.51225 0.372314 1.63229C0.372314 1.75233 0.419999 1.86745 0.504879 1.95233C0.589758 2.03721 0.70488 2.08489 0.824917 2.08489H1.8297L2.19268 3.53956L3.54868 10.7676C3.5681 10.8713 3.62314 10.965 3.7043 11.0325C3.78545 11.0999 3.88762 11.1369 3.99314 11.137H4.89834C4.41819 11.137 3.95771 11.3277 3.61819 11.6672C3.27867 12.0067 3.08793 12.4672 3.08793 12.9474C3.08793 13.4275 3.27867 13.888 3.61819 14.2275C3.95771 14.567 4.41819 14.7578 4.89834 14.7578C5.3785 14.7578 5.83898 14.567 6.1785 14.2275C6.51802 13.888 6.70876 13.4275 6.70876 12.9474C6.70876 12.4672 6.51802 12.0067 6.1785 11.6672C5.83898 11.3277 5.3785 11.137 4.89834 11.137H11.2348C10.7546 11.137 10.2942 11.3277 9.95463 11.6672C9.61511 12.0067 9.42437 12.4672 9.42437 12.9474C9.42437 13.4275 9.61511 13.888 9.95463 14.2275C10.2942 14.567 10.7546 14.7578 11.2348 14.7578C11.7149 14.7578 12.1754 14.567 12.5149 14.2275C12.8545 13.888 13.0452 13.4275 13.0452 12.9474C13.0452 12.4672 12.8545 12.0067 12.5149 11.6672C12.1754 11.3277 11.7149 11.137 11.2348 11.137H12.14C12.2455 11.1369 12.3477 11.0999 12.4288 11.0325C12.51 10.965 12.565 10.8713 12.5844 10.7676L13.9423 3.52598C13.9545 3.46066 13.9522 3.39345 13.9355 3.32912C13.9188 3.26479 13.8882 3.20492 13.8458 3.15376C13.8033 3.10261 13.7502 3.06143 13.69 3.03314C13.6299 3.00486 13.5643 2.99016 13.4978 2.9901H2.98836L2.62175 1.52276C2.59732 1.4248 2.54084 1.33783 2.46129 1.27566C2.38174 1.2135 2.28369 1.17972 2.18273 1.17969H0.824917ZM4.3688 10.2317L3.18026 3.89531H12.9529L11.7643 10.2317H4.3688ZM5.80355 12.9474C5.80355 13.1874 5.70818 13.4177 5.53842 13.5874C5.36866 13.7572 5.13842 13.8526 4.89834 13.8526C4.65827 13.8526 4.42803 13.7572 4.25827 13.5874C4.08851 13.4177 3.99314 13.1874 3.99314 12.9474C3.99314 12.7073 4.08851 12.477 4.25827 12.3073C4.42803 12.1375 4.65827 12.0422 4.89834 12.0422C5.13842 12.0422 5.36866 12.1375 5.53842 12.3073C5.70818 12.477 5.80355 12.7073 5.80355 12.9474ZM12.14 12.9474C12.14 13.1874 12.0446 13.4177 11.8749 13.5874C11.7051 13.7572 11.4749 13.8526 11.2348 13.8526C10.9947 13.8526 10.7645 13.7572 10.5947 13.5874C10.425 13.4177 10.3296 13.1874 10.3296 12.9474C10.3296 12.7073 10.425 12.477 10.5947 12.3073C10.7645 12.1375 10.9947 12.0422 11.2348 12.0422C11.4749 12.0422 11.7051 12.1375 11.8749 12.3073C12.0446 12.477 12.14 12.7073 12.14 12.9474Z" fill="#363330"/>
</svg>
