<svg width="15" height="16" viewBox="0 0 15 16" fill="none" xmlns="http://www.w3.org/2000/svg">
<path d="M8.32316 5.51315C8.32316 5.39311 8.27548 5.27799 8.1906 5.19311C8.10572 5.10823 7.9906 5.06055 7.87056 5.06055C7.75052 5.06055 7.6354 5.10823 7.55052 5.19311C7.46564 5.27799 7.41796 5.39311 7.41796 5.51315V6.87096H6.06015C5.94011 6.87096 5.82499 6.91864 5.74011 7.00352C5.65523 7.0884 5.60754 7.20352 5.60754 7.32356C5.60754 7.4436 5.65523 7.55872 5.74011 7.6436C5.82499 7.72848 5.94011 7.77617 6.06015 7.77617H7.41796V9.13397C7.41796 9.25401 7.46564 9.36913 7.55052 9.45401C7.6354 9.53889 7.75052 9.58658 7.87056 9.58658C7.9906 9.58658 8.10572 9.53889 8.1906 9.45401C8.27548 9.36913 8.32316 9.25401 8.32316 9.13397V7.77617H9.68097C9.80101 7.77617 9.91613 7.72848 10.001 7.6436C10.0859 7.55872 10.1336 7.4436 10.1336 7.32356C10.1336 7.20352 10.0859 7.0884 10.001 7.00352C9.91613 6.91864 9.80101 6.87096 9.68097 6.87096H8.32316V5.51315Z" fill="#363330"/>
<path d="M0.628934 1.43945C0.508896 1.43945 0.393774 1.48714 0.308895 1.57202C0.224015 1.6569 0.176331 1.77202 0.176331 1.89206C0.176331 2.01209 0.224015 2.12722 0.308895 2.21209C0.393774 2.29697 0.508896 2.34466 0.628934 2.34466H1.63371L1.9967 3.79933L3.3527 11.0274C3.37211 11.1311 3.42716 11.2248 3.50831 11.2922C3.58947 11.3597 3.69164 11.3966 3.79715 11.3967H4.70236C4.22221 11.3967 3.76172 11.5875 3.42221 11.927C3.08269 12.2665 2.89195 12.727 2.89195 13.2071C2.89195 13.6873 3.08269 14.1478 3.42221 14.4873C3.76172 14.8268 4.22221 15.0175 4.70236 15.0175C5.18251 15.0175 5.643 14.8268 5.98252 14.4873C6.32203 14.1478 6.51277 13.6873 6.51277 13.2071C6.51277 12.727 6.32203 12.2665 5.98252 11.927C5.643 11.5875 5.18251 11.3967 4.70236 11.3967H11.0388C10.5587 11.3967 10.0982 11.5875 9.75865 11.927C9.41913 12.2665 9.22839 12.727 9.22839 13.2071C9.22839 13.6873 9.41913 14.1478 9.75865 14.4873C10.0982 14.8268 10.5587 15.0175 11.0388 15.0175C11.519 15.0175 11.9794 14.8268 12.319 14.4873C12.6585 14.1478 12.8492 13.6873 12.8492 13.2071C12.8492 12.727 12.6585 12.2665 12.319 11.927C11.9794 11.5875 11.519 11.3967 11.0388 11.3967H11.944C12.0495 11.3966 12.1517 11.3597 12.2329 11.2922C12.314 11.2248 12.3691 11.1311 12.3885 11.0274L13.7463 3.78575C13.7585 3.72042 13.7562 3.65321 13.7395 3.58888C13.7228 3.52455 13.6922 3.46468 13.6498 3.41353C13.6073 3.36238 13.5542 3.32119 13.494 3.29291C13.4339 3.26462 13.3683 3.24993 13.3018 3.24987H2.79238L2.42577 1.78253C2.40134 1.68457 2.34485 1.59759 2.2653 1.53543C2.18575 1.47326 2.0877 1.43948 1.98674 1.43945H0.628934ZM4.17282 10.4915L2.98428 4.15507H12.7569L11.5683 10.4915H4.17282ZM5.60757 13.2071C5.60757 13.4472 5.5122 13.6774 5.34244 13.8472C5.17268 14.017 4.94244 14.1123 4.70236 14.1123C4.46229 14.1123 4.23204 14.017 4.06228 13.8472C3.89252 13.6774 3.79715 13.4472 3.79715 13.2071C3.79715 12.9671 3.89252 12.7368 4.06228 12.5671C4.23204 12.3973 4.46229 12.3019 4.70236 12.3019C4.94244 12.3019 5.17268 12.3973 5.34244 12.5671C5.5122 12.7368 5.60757 12.9671 5.60757 13.2071ZM11.944 13.2071C11.944 13.4472 11.8486 13.6774 11.6789 13.8472C11.5091 14.017 11.2789 14.1123 11.0388 14.1123C10.7987 14.1123 10.5685 14.017 10.3987 13.8472C10.229 13.6774 10.1336 13.4472 10.1336 13.2071C10.1336 12.9671 10.229 12.7368 10.3987 12.5671C10.5685 12.3973 10.7987 12.3019 11.0388 12.3019C11.2789 12.3019 11.5091 12.3973 11.6789 12.5671C11.8486 12.7368 11.944 12.9671 11.944 13.2071Z" fill="#363330"/>
</svg>
