<svg width="15" height="15" viewBox="0 0 15 15" fill="none" xmlns="http://www.w3.org/2000/svg">
<path d="M8.26115 5.35104C8.26115 5.231 8.21347 5.11588 8.12859 5.031C8.04371 4.94612 7.92859 4.89844 7.80855 4.89844C7.68851 4.89844 7.57339 4.94612 7.48851 5.031C7.40363 5.11588 7.35594 5.231 7.35594 5.35104V6.70885H5.99814C5.8781 6.70885 5.76298 6.75653 5.6781 6.84141C5.59322 6.92629 5.54553 7.04141 5.54553 7.16145C5.54553 7.28149 5.59322 7.39661 5.6781 7.48149C5.76298 7.56637 5.8781 7.61406 5.99814 7.61406H7.35594V8.97186C7.35594 9.0919 7.40363 9.20702 7.48851 9.2919C7.57339 9.37678 7.68851 9.42447 7.80855 9.42447C7.92859 9.42447 8.04371 9.37678 8.12859 9.2919C8.21347 9.20702 8.26115 9.0919 8.26115 8.97186V7.61406H9.61896C9.739 7.61406 9.85412 7.56637 9.939 7.48149C10.0239 7.39661 10.0716 7.28149 10.0716 7.16145C10.0716 7.04141 10.0239 6.92629 9.939 6.84141C9.85412 6.75653 9.739 6.70885 9.61896 6.70885H8.26115V5.35104Z" fill="#363330"/>
<path d="M0.566922 1.27734C0.446884 1.27734 0.331763 1.32503 0.246883 1.40991C0.162004 1.49479 0.114319 1.60991 0.114319 1.72995C0.114319 1.84998 0.162004 1.96511 0.246883 2.04999C0.331763 2.13486 0.446884 2.18255 0.566922 2.18255H1.5717L1.93469 3.63722L3.29069 10.8653C3.3101 10.969 3.36515 11.0627 3.4463 11.1301C3.52746 11.1975 3.62963 11.2345 3.73514 11.2346H4.64035C4.1602 11.2346 3.69971 11.4253 3.36019 11.7649C3.02068 12.1044 2.82994 12.5649 2.82994 13.045C2.82994 13.5252 3.02068 13.9857 3.36019 14.3252C3.69971 14.6647 4.1602 14.8554 4.64035 14.8554C5.1205 14.8554 5.58099 14.6647 5.9205 14.3252C6.26002 13.9857 6.45076 13.5252 6.45076 13.045C6.45076 12.5649 6.26002 12.1044 5.9205 11.7649C5.58099 11.4253 5.1205 11.2346 4.64035 11.2346H10.9768C10.4966 11.2346 10.0362 11.4253 9.69664 11.7649C9.35712 12.1044 9.16638 12.5649 9.16638 13.045C9.16638 13.5252 9.35712 13.9857 9.69664 14.3252C10.0362 14.6647 10.4966 14.8554 10.9768 14.8554C11.4569 14.8554 11.9174 14.6647 12.2569 14.3252C12.5965 13.9857 12.7872 13.5252 12.7872 13.045C12.7872 12.5649 12.5965 12.1044 12.2569 11.7649C11.9174 11.4253 11.4569 11.2346 10.9768 11.2346H11.882C11.9875 11.2345 12.0897 11.1975 12.1708 11.1301C12.252 11.0627 12.307 10.969 12.3265 10.8653L13.6843 3.62364C13.6965 3.55832 13.6942 3.4911 13.6775 3.42677C13.6608 3.36244 13.6302 3.30257 13.5878 3.25142C13.5453 3.20027 13.4922 3.15909 13.432 3.1308C13.3719 3.10251 13.3063 3.08782 13.2398 3.08776H2.73036L2.36376 1.62042C2.33932 1.52246 2.28284 1.43548 2.20329 1.37332C2.12374 1.31115 2.02569 1.27737 1.92473 1.27734H0.566922ZM4.1108 10.3294L2.92227 3.99296H12.6949L11.5063 10.3294H4.1108ZM5.54556 13.045C5.54556 13.2851 5.45019 13.5153 5.28043 13.6851C5.11067 13.8549 4.88042 13.9502 4.64035 13.9502C4.40027 13.9502 4.17003 13.8549 4.00027 13.6851C3.83051 13.5153 3.73514 13.2851 3.73514 13.045C3.73514 12.8049 3.83051 12.5747 4.00027 12.4049C4.17003 12.2352 4.40027 12.1398 4.64035 12.1398C4.88042 12.1398 5.11067 12.2352 5.28043 12.4049C5.45019 12.5747 5.54556 12.8049 5.54556 13.045ZM11.882 13.045C11.882 13.2851 11.7866 13.5153 11.6169 13.6851C11.4471 13.8549 11.2169 13.9502 10.9768 13.9502C10.7367 13.9502 10.5065 13.8549 10.3367 13.6851C10.167 13.5153 10.0716 13.2851 10.0716 13.045C10.0716 12.8049 10.167 12.5747 10.3367 12.4049C10.5065 12.2352 10.7367 12.1398 10.9768 12.1398C11.2169 12.1398 11.4471 12.2352 11.6169 12.4049C11.7866 12.5747 11.882 12.8049 11.882 13.045Z" fill="#363330"/>
</svg>
