<svg width="15" height="15" viewBox="0 0 15 15" fill="none" xmlns="http://www.w3.org/2000/svg">
<path d="M8.26115 5.31002C8.26115 5.18999 8.21347 5.07487 8.12859 4.98999C8.04371 4.90511 7.92859 4.85742 7.80855 4.85742C7.68851 4.85742 7.57339 4.90511 7.48851 4.98999C7.40363 5.07487 7.35594 5.18999 7.35594 5.31002V6.66783H5.99814C5.8781 6.66783 5.76298 6.71552 5.6781 6.8004C5.59322 6.88528 5.54553 7.0004 5.54553 7.12044C5.54553 7.24047 5.59322 7.3556 5.6781 7.44048C5.76298 7.52536 5.8781 7.57304 5.99814 7.57304H7.35594V8.93085C7.35594 9.05089 7.40363 9.16601 7.48851 9.25089C7.57339 9.33577 7.68851 9.38345 7.80855 9.38345C7.92859 9.38345 8.04371 9.33577 8.12859 9.25089C8.21347 9.16601 8.26115 9.05089 8.26115 8.93085V7.57304H9.61896C9.739 7.57304 9.85412 7.52536 9.939 7.44048C10.0239 7.3556 10.0716 7.24047 10.0716 7.12044C10.0716 7.0004 10.0239 6.88528 9.939 6.8004C9.85412 6.71552 9.739 6.66783 9.61896 6.66783H8.26115V5.31002Z" fill="#363330"/>
<path d="M0.566922 1.23633C0.446884 1.23633 0.331763 1.28401 0.246883 1.36889C0.162004 1.45377 0.114319 1.56889 0.114319 1.68893C0.114319 1.80897 0.162004 1.92409 0.246883 2.00897C0.331763 2.09385 0.446884 2.14153 0.566922 2.14153H1.5717L1.93469 3.5962L3.29069 10.8243C3.3101 10.928 3.36515 11.0217 3.4463 11.0891C3.52746 11.1565 3.62963 11.1935 3.73514 11.1936H4.64035C4.1602 11.1936 3.69971 11.3843 3.36019 11.7239C3.02068 12.0634 2.82994 12.5239 2.82994 13.004C2.82994 13.4842 3.02068 13.9446 3.36019 14.2842C3.69971 14.6237 4.1602 14.8144 4.64035 14.8144C5.1205 14.8144 5.58099 14.6237 5.9205 14.2842C6.26002 13.9446 6.45076 13.4842 6.45076 13.004C6.45076 12.5239 6.26002 12.0634 5.9205 11.7239C5.58099 11.3843 5.1205 11.1936 4.64035 11.1936H10.9768C10.4966 11.1936 10.0362 11.3843 9.69664 11.7239C9.35712 12.0634 9.16638 12.5239 9.16638 13.004C9.16638 13.4842 9.35712 13.9446 9.69664 14.2842C10.0362 14.6237 10.4966 14.8144 10.9768 14.8144C11.4569 14.8144 11.9174 14.6237 12.2569 14.2842C12.5965 13.9446 12.7872 13.4842 12.7872 13.004C12.7872 12.5239 12.5965 12.0634 12.2569 11.7239C11.9174 11.3843 11.4569 11.1936 10.9768 11.1936H11.882C11.9875 11.1935 12.0897 11.1565 12.1708 11.0891C12.252 11.0217 12.307 10.928 12.3265 10.8243L13.6843 3.58262C13.6965 3.5173 13.6942 3.45009 13.6775 3.38576C13.6608 3.32143 13.6302 3.26156 13.5878 3.2104C13.5453 3.15925 13.4922 3.11807 13.432 3.08978C13.3719 3.0615 13.3063 3.0468 13.2398 3.04674H2.73036L2.36376 1.5794C2.33932 1.48144 2.28284 1.39447 2.20329 1.3323C2.12374 1.27014 2.02569 1.23636 1.92473 1.23633H0.566922ZM4.1108 10.2884L2.92227 3.95195H12.6949L11.5063 10.2884H4.1108ZM5.54556 13.004C5.54556 13.2441 5.45019 13.4743 5.28043 13.6441C5.11067 13.8138 4.88042 13.9092 4.64035 13.9092C4.40027 13.9092 4.17003 13.8138 4.00027 13.6441C3.83051 13.4743 3.73514 13.2441 3.73514 13.004C3.73514 12.7639 3.83051 12.5337 4.00027 12.3639C4.17003 12.1942 4.40027 12.0988 4.64035 12.0988C4.88042 12.0988 5.11067 12.1942 5.28043 12.3639C5.45019 12.5337 5.54556 12.7639 5.54556 13.004ZM11.882 13.004C11.882 13.2441 11.7866 13.4743 11.6169 13.6441C11.4471 13.8138 11.2169 13.9092 10.9768 13.9092C10.7367 13.9092 10.5065 13.8138 10.3367 13.6441C10.167 13.4743 10.0716 13.2441 10.0716 13.004C10.0716 12.7639 10.167 12.5337 10.3367 12.3639C10.5065 12.1942 10.7367 12.0988 10.9768 12.0988C11.2169 12.0988 11.4471 12.1942 11.6169 12.3639C11.7866 12.5337 11.882 12.7639 11.882 13.004Z" fill="#363330"/>
</svg>
