<svg width="17" height="17" viewBox="0 0 17 17" fill="none" xmlns="http://www.w3.org/2000/svg">
<path d="M8.74176 4.25391C8.87437 4.25391 9.00155 4.30659 9.09532 4.40036C9.1891 4.49413 9.24178 4.62131 9.24178 4.75392V7.75401H12.2419C12.3745 7.75401 12.5017 7.80669 12.5954 7.90046C12.6892 7.99423 12.7419 8.12142 12.7419 8.25403C12.7419 8.38664 12.6892 8.51382 12.5954 8.60759C12.5017 8.70136 12.3745 8.75404 12.2419 8.75404H9.24178V11.7541C9.24178 11.8867 9.1891 12.0139 9.09532 12.1077C9.00155 12.2015 8.87437 12.2541 8.74176 12.2541C8.60915 12.2541 8.48197 12.2015 8.3882 12.1077C8.29442 12.0139 8.24174 11.8867 8.24174 11.7541V8.75404H5.24165C5.10904 8.75404 4.98186 8.70136 4.88809 8.60759C4.79432 8.51382 4.74164 8.38664 4.74164 8.25403C4.74164 8.12142 4.79432 7.99423 4.88809 7.90046C4.98186 7.80669 5.10904 7.75401 5.24165 7.75401H8.24174V4.75392C8.24174 4.62131 8.29442 4.49413 8.3882 4.40036C8.48197 4.30659 8.60915 4.25391 8.74176 4.25391Z" fill="#CFCCC9"/>
</svg>
