<svg width="17" height="17" viewBox="0 0 17 17" fill="none" xmlns="http://www.w3.org/2000/svg">
<path d="M8.74176 4.95898C8.87437 4.95898 9.00155 5.01166 9.09532 5.10544C9.1891 5.19921 9.24178 5.32639 9.24178 5.459V8.45909H12.2419C12.3745 8.45909 12.5017 8.51177 12.5954 8.60554C12.6892 8.69931 12.7419 8.82649 12.7419 8.95911C12.7419 9.09172 12.6892 9.2189 12.5954 9.31267C12.5017 9.40644 12.3745 9.45912 12.2419 9.45912H9.24178V12.4592C9.24178 12.5918 9.1891 12.719 9.09532 12.8128C9.00155 12.9065 8.87437 12.9592 8.74176 12.9592C8.60915 12.9592 8.48197 12.9065 8.3882 12.8128C8.29442 12.719 8.24174 12.5918 8.24174 12.4592V9.45912H5.24165C5.10904 9.45912 4.98186 9.40644 4.88809 9.31267C4.79432 9.2189 4.74164 9.09172 4.74164 8.95911C4.74164 8.82649 4.79432 8.69931 4.88809 8.60554C4.98186 8.51177 5.10904 8.45909 5.24165 8.45909H8.24174V5.459C8.24174 5.32639 8.29442 5.19921 8.3882 5.10544C8.48197 5.01166 8.60915 4.95898 8.74176 4.95898Z" fill="#CFCCC9"/>
</svg>
