<svg width="136" height="34" viewBox="0 0 136 34" fill="none" xmlns="http://www.w3.org/2000/svg">
<path d="M0 25.3854V14.0859H2.09304L8.37807 22.1604V14.0859H10.3915V25.3854H8.29848L2.0164 17.1371V25.3854H0Z" fill="#46B98C"/>
<path d="M18.8962 22.0473H13.4661C13.4661 23.1646 14.377 23.7218 16.2018 23.7218C17.039 23.7218 17.8762 23.6422 18.7135 23.4859V25.1456C17.9824 25.3048 17.039 25.3844 15.8834 25.3844C12.8765 25.3844 11.3701 23.9694 11.3701 21.1394C11.3701 18.4361 12.7468 17.0859 15.5031 17.0859C18.2536 17.0859 19.3826 18.7397 18.8933 22.0503L18.8962 22.0473ZM13.4661 20.5144H16.927C17.0007 19.3234 16.4465 18.7279 15.2673 18.7279C14.1589 18.7279 13.5604 19.3234 13.4632 20.5144H13.4661Z" fill="#46B98C"/>
<path d="M19.2734 21.2352C19.2734 18.4169 20.6708 17.0078 23.4625 17.0078C26.2542 17.0078 27.6515 18.4169 27.6515 21.2352C27.6515 24.0475 26.2571 25.4566 23.4625 25.4566C20.6796 25.4566 19.2852 24.0505 19.2734 21.2352ZM23.4625 23.8028C24.8598 23.8028 25.5555 22.9361 25.5555 21.2027C25.5555 19.5136 24.8569 18.6646 23.4625 18.6646C22.0681 18.6646 21.3665 19.5106 21.3665 21.2027C21.3665 22.9361 22.0651 23.8028 23.4625 23.8028Z" fill="#46B98C"/>
<path d="M28.6299 25.3884V14.0859H33.4498C35.5988 14.0859 36.6748 14.991 36.6748 16.7981C36.6748 18.838 35.1773 20.0998 32.1792 20.5832L31.8785 19.351C34.0394 19.009 35.1183 18.1777 35.1183 16.86C35.1183 15.8164 34.5169 15.2946 33.3171 15.2946H30.0921V25.3854H28.6299V25.3884Z" fill="#46B98C"/>
<path d="M37.3809 21.2337C37.3809 18.4685 38.6986 17.0859 41.3341 17.0859C43.9666 17.0859 45.2873 18.4685 45.2873 21.2337C45.2873 23.993 43.9695 25.3756 41.3341 25.3756C38.8165 25.3756 37.4988 23.9959 37.3809 21.2337ZM41.3341 24.1964C42.9938 24.1964 43.8221 23.2 43.8221 21.2013C43.8221 19.2468 42.9938 18.2681 41.3341 18.2681C39.6744 18.2681 38.843 19.2468 38.843 21.2013C38.843 23.2 39.6744 24.1964 41.3341 24.1964Z" fill="#46B98C"/>
<path d="M46.5771 25.3844V17.0859H47.5647L47.8271 18.1443C48.5552 17.4397 49.3217 17.0859 50.1353 17.0859V18.3034C49.3541 18.3034 48.6584 18.6542 48.0393 19.3559V25.3844H46.5771Z" fill="#46B98C"/>
<path d="M50.8369 21.2337C50.8369 18.4685 52.1546 17.0859 54.7901 17.0859C57.4226 17.0859 58.7404 18.4685 58.7404 21.2337C58.7404 23.993 57.4226 25.3756 54.7901 25.3756C52.2726 25.3756 50.9548 23.9959 50.8369 21.2337ZM54.7901 24.1964C56.4498 24.1964 57.2782 23.2 57.2782 21.2013C57.2782 19.2468 56.4498 18.2681 54.7901 18.2681C53.1304 18.2681 52.2991 19.2468 52.2991 21.2013C52.2991 23.2 53.1304 24.1964 54.7901 24.1964Z" fill="#46B98C"/>
<path d="M60.0386 24.9845V23.7199C60.9613 24.0353 61.9194 24.1945 62.9158 24.1945C64.2394 24.1945 64.8997 23.7994 64.8997 23.0094C64.8997 22.2724 64.4634 21.901 63.5967 21.901H62.4117C60.5692 21.901 59.6465 21.0844 59.6465 19.4512C59.6465 17.8711 60.8492 17.0781 63.2577 17.0781C64.1421 17.0781 65.0471 17.2108 65.9669 17.4732V18.7378C65.0442 18.4224 64.1421 18.2632 63.2577 18.2632C61.7189 18.2632 60.9495 18.6582 60.9495 19.4483C60.9495 20.1853 61.4359 20.5538 62.4117 20.5538H63.5967C65.4392 20.5538 66.3619 21.3703 66.3619 23.0035C66.3619 24.5836 65.2122 25.3737 62.9158 25.3737C61.9194 25.3737 60.9613 25.241 60.0386 24.9786V24.9845Z" fill="#46B98C"/>
<path d="M122.375 7.6234C119.398 7.55559 117.691 7.46421 113.652 3.82644C111.598 1.97513 108.16 0 103.087 0C93.68 0 86.0566 7.58507 86.0566 16.9389C86.0566 26.2957 93.683 33.8778 103.087 33.8778C106.975 33.8778 111.415 31.4811 111.415 31.4811C112.52 30.8857 114.292 30.9446 115.353 31.6197C115.353 31.6197 118.92 33.8778 122.375 33.8778C129.666 33.8778 135.573 27.9996 135.573 20.7506C135.573 13.5016 129.663 7.78848 122.375 7.62045V7.6234Z" fill="#66B3E4"/>
<path d="M95.0294 18.7115C93.8944 18.7115 93.3255 19.1094 93.3255 19.9054C93.3255 20.7485 93.8207 21.17 94.8142 21.17C95.7163 21.17 96.4356 20.9784 96.9692 20.5952V18.85C96.4503 18.7557 95.8047 18.7085 95.0294 18.7085V18.7115ZM92.0166 19.926C92.0166 18.4137 93.0218 17.6561 95.0294 17.6561C95.7693 17.6561 96.4149 17.7033 96.9692 17.7946V17.0989C96.9692 16.2971 96.3029 15.8962 94.9675 15.8962C94.204 15.8962 93.4228 16.0111 92.618 16.2499V15.1946C93.4228 14.9617 94.204 14.8438 94.9675 14.8438C97.1726 14.8438 98.2751 15.6309 98.2751 17.2051V22.2284H97.6118L97.0871 21.7095C96.4444 22.0544 95.6809 22.2284 94.8113 22.2284C92.9481 22.2284 92.0166 21.4619 92.0166 19.926Z" fill="white"/>
<path d="M105.329 22.0191C104.716 22.1606 104.056 22.2313 103.351 22.2313C100.666 22.2313 99.3213 20.9519 99.3213 18.396C99.3213 16.0288 100.666 14.8438 103.351 14.8438C104.059 14.8438 104.719 14.9145 105.329 15.056V16.1114C104.716 15.9699 104.103 15.9021 103.493 15.9021C101.582 15.9021 100.63 16.7334 100.63 18.396C100.63 20.2503 101.582 21.173 103.493 21.173C104.103 21.173 104.719 21.1052 105.329 20.9607V22.0161V22.0191Z" fill="white"/>
<path d="M111.161 16.0966C110.713 15.9846 110.159 15.9286 109.498 15.9286C107.918 15.9286 107.131 16.7806 107.131 18.4815C107.131 20.2297 107.877 21.1022 109.369 21.1022C110.047 21.1022 110.645 20.9755 111.158 20.722V16.0966H111.161ZM112.467 24.9022H111.161V21.8776C110.604 22.1104 110.005 22.2284 109.366 22.2284C107.019 22.2284 105.843 20.9843 105.843 18.4933C105.843 16.0613 107.081 14.8438 109.551 14.8438C110.559 14.8438 111.529 14.944 112.467 15.1474V24.8992V24.9022Z" fill="white"/>
<path d="M120.265 14.8389V22.2235H119.369L119.142 21.2802C118.243 21.911 117.335 22.2235 116.427 22.2235C114.72 22.2235 113.868 21.3037 113.868 19.4701V14.8359H115.177V19.4937C115.177 20.5903 115.722 21.1357 116.816 21.1357C117.565 21.1357 118.278 20.8262 118.959 20.2042V14.8359H120.265V14.8389Z" fill="white"/>
<path d="M124.318 18.7115C123.184 18.7115 122.618 19.1094 122.618 19.9054C122.618 20.7485 123.11 21.17 124.1 21.17C125.002 21.17 125.722 20.9784 126.255 20.5952V18.85C125.736 18.7557 125.091 18.7085 124.316 18.7085L124.318 18.7115ZM121.309 19.926C121.309 18.4137 122.311 17.6561 124.318 17.6561C125.055 17.6561 125.707 17.7033 126.258 17.7946V17.0989C126.258 16.2971 125.589 15.8962 124.257 15.8962C123.49 15.8962 122.709 16.0111 121.907 16.2499V15.1946C122.709 14.9617 123.49 14.8438 124.257 14.8438C126.462 14.8438 127.567 15.6309 127.567 17.2051V22.2284H126.898L126.373 21.7095C125.731 22.0544 124.97 22.2284 124.1 22.2284C122.237 22.2284 121.306 21.4619 121.306 19.926H121.309Z" fill="white"/>
<path d="M77.4281 21.8495H77.0625C77.0625 22.4774 76.6174 22.7958 75.7153 22.7958C75.3115 22.7958 74.9901 22.6926 74.7602 22.4833C74.5303 22.2769 74.4182 21.9674 74.4182 21.5606V21.1715H77.4428V20.5612C77.4517 20.0424 77.3013 19.6297 76.9888 19.329C76.6764 19.0253 76.2725 18.875 75.7713 18.875C75.2702 18.875 74.8545 19.0253 74.5361 19.329C74.2178 19.6326 74.0615 20.0365 74.0615 20.5524V21.5724C74.0615 22.0558 74.2119 22.4391 74.5214 22.7191C74.8339 22.9962 75.2378 23.1407 75.7478 23.1407C76.2636 23.1407 76.6764 23.0287 76.9888 22.8076C77.2984 22.5835 77.4576 22.274 77.4576 21.8819L77.4251 21.8495H77.4281ZM77.1009 20.8059H74.4448V20.5524C74.4448 20.1161 74.5627 19.78 74.8103 19.5589C75.0579 19.3349 75.3822 19.2258 75.789 19.2258C76.1958 19.2258 76.5142 19.3378 76.753 19.5589C76.9918 19.783 77.1126 20.1161 77.1126 20.5524L77.1038 20.8059H77.1009Z" fill="#46B98C"/>
<path d="M69.948 18.0835C70.5465 18.0835 71.0565 17.8712 71.478 17.4526C71.8996 17.0311 72.1089 16.5152 72.1089 15.9079C72.1089 15.2918 71.8966 14.7759 71.478 14.3661C71.0565 13.9564 70.5465 13.75 69.9421 13.75C69.3378 13.75 68.8278 13.9564 68.4063 14.372C67.9847 14.7877 67.7754 15.3036 67.7754 15.9167C67.7754 16.527 67.9847 17.0429 68.4063 17.4615C68.8278 17.883 69.3437 18.0923 69.948 18.0923V18.0805V18.0835ZM69.948 17.8447C69.4144 17.8447 68.9664 17.659 68.6008 17.2846C68.2353 16.9132 68.0525 16.4592 68.0525 15.9197C68.0525 15.3773 68.2353 14.9233 68.6008 14.5577C68.9664 14.1922 69.4144 14.0065 69.948 14.0065C70.4787 14.0065 70.9297 14.1892 71.2952 14.5489C71.6608 14.9085 71.8436 15.3655 71.8436 15.9138C71.8436 16.4562 71.6608 16.9102 71.2952 17.2816C70.9297 17.6531 70.4787 17.8359 69.9539 17.8359L69.948 17.8418V17.8447ZM70.9798 17.1077L70.4521 16.0111C70.5789 15.961 70.6909 15.8784 70.7794 15.7664C70.8678 15.6544 70.912 15.5158 70.912 15.3566C70.912 15.1562 70.8472 14.994 70.7115 14.8673C70.5789 14.7405 70.4256 14.6786 70.2428 14.6786H69.1462V17.1048H69.4056V16.0582H70.2045L70.7027 17.1048H70.9798V17.1077ZM69.4056 15.8106V14.9233H70.2369C70.3519 14.9233 70.4521 14.9616 70.5288 15.0383C70.6054 15.1149 70.6437 15.221 70.6437 15.3596C70.6437 15.4981 70.6054 15.6102 70.5199 15.6927C70.4374 15.7752 70.3372 15.8136 70.2163 15.8136L69.4027 15.8077L69.4056 15.8106Z" fill="#46B98C"/>
<path d="M129.736 17.94V15.3252H130.65V15.0186H128.498V15.3252H129.394V17.94H129.736ZM133.598 17.94V15.0156H133.109L132.354 17.5597L131.62 15.0156H131.113V17.94H131.425V15.4961L132.159 17.94H132.531L133.286 15.4814V17.94H133.598Z" fill="white"/>
</svg>
