<svg width="27" height="30" viewBox="0 0 27 30" fill="none" xmlns="http://www.w3.org/2000/svg">
<path d="M24.48 25.7908C24.2666 25.0895 23.9921 24.3273 23.6263 23.5345C23.2909 22.7722 22.864 21.949 22.4371 21.1867C22.3761 21.2782 22.3152 21.4002 22.2542 21.4916C22.1932 21.5831 22.1322 21.7051 22.0407 21.7965C21.9798 21.888 21.8883 21.9795 21.8273 22.1014C21.7663 22.1929 21.6749 22.2844 21.6139 22.3759C21.6139 22.3759 21.6139 22.3759 21.6139 22.4063C21.6139 22.4063 21.6139 22.4063 21.5834 22.4368C21.5834 22.4368 21.5834 22.4368 21.5529 22.4673C21.5529 22.4673 21.5529 22.4673 21.5224 22.4978L21.4614 22.5588C21.5224 22.7417 21.5834 22.9552 21.6749 23.1686C21.7663 23.4125 21.8578 23.6565 21.9188 23.8699C21.9798 24.1138 22.0712 24.3273 22.0712 24.5102C22.1017 24.6931 22.1017 24.8456 22.0103 24.9066C21.9798 24.9371 21.9493 24.9371 21.9493 24.9676C21.9188 24.9981 21.8883 24.9981 21.8578 24.9981C21.8273 24.9981 21.7968 25.0285 21.7663 25.0285C21.7358 25.0285 21.6749 25.0285 21.6444 25.0285C21.5834 25.0285 21.5224 25.0285 21.4309 24.9981C21.37 24.9676 21.2785 24.9676 21.187 24.9371C21.0955 24.9066 21.0041 24.8761 20.9126 24.8456C20.8211 24.8151 20.7296 24.7541 20.6382 24.7236C20.5162 24.6627 20.3942 24.6017 20.2418 24.5407C20.1198 24.4797 19.9674 24.3882 19.8454 24.3273C19.693 24.2358 19.571 24.1748 19.4185 24.0833C19.2661 23.9919 19.1136 23.9004 18.9612 23.8089C19.5405 23.2296 20.0893 22.5893 20.6077 21.9185C21.126 21.2477 21.5834 20.5464 21.9798 19.8146C22.3761 19.0829 22.742 18.3206 23.0469 17.5278C23.3518 16.7351 23.5653 15.9423 23.7177 15.1191C24.0836 13.2896 24.0531 11.5517 23.7177 10.0271C23.3823 8.50261 22.742 7.19151 21.8578 6.12434C21.0041 5.05716 19.8759 4.23391 18.5953 3.71557C17.3452 3.19723 15.8816 2.9838 14.3266 3.07527C13.2899 3.13625 12.2837 3.34968 11.308 3.68508C10.3323 4.02048 9.35663 4.44735 8.4724 4.99618C7.55768 5.54501 6.70394 6.18532 5.88069 6.91709C5.08794 7.64887 4.32567 8.44163 3.65488 9.32585C3.47193 8.99046 3.31948 8.68555 3.19751 8.38064C3.07555 8.10623 2.98408 7.83181 2.95359 7.61838C2.89261 7.37445 2.89261 7.19151 2.89261 7.00856C2.9231 6.82562 2.95359 6.70366 3.04506 6.61219C3.07555 6.58169 3.10604 6.5512 3.16702 6.52071C3.22801 6.49022 3.2585 6.45973 3.31948 6.42924C3.38046 6.39875 3.44144 6.36826 3.53291 6.36826C3.59389 6.33777 3.68537 6.33777 3.77684 6.33777C3.86831 6.33777 3.95978 6.33777 4.05125 6.33777C4.14273 6.33777 4.26469 6.36826 4.35616 6.39875C4.44763 6.42924 4.56959 6.49022 4.66107 6.5512C4.75254 6.61219 4.8745 6.70366 4.96597 6.79513C5.05745 6.67317 5.17941 6.5512 5.27088 6.42924C5.39284 6.30728 5.48431 6.21581 5.60628 6.09384C5.72824 6.00237 5.8502 5.88041 5.97217 5.78894C6.09413 5.69747 6.21609 5.60599 6.33805 5.51452C6.33805 5.51452 6.36854 5.51452 6.36854 5.48403L6.39903 5.45354C6.39903 5.45354 6.42953 5.45354 6.42953 5.42305C6.42953 5.42305 6.46002 5.42305 6.46002 5.39256C6.21609 5.17912 5.97217 5.02667 5.72824 4.87422C5.48431 4.72176 5.2099 4.63029 4.93548 4.53882C4.66107 4.44735 4.38665 4.41686 4.14273 4.38637C3.86831 4.35588 3.62438 4.35588 3.38046 4.35588C3.19752 4.35588 3.04506 4.38637 2.89261 4.41686C2.74015 4.44735 2.5877 4.47784 2.46574 4.53882C2.34378 4.5998 2.22181 4.63029 2.09985 4.69127C2.00838 4.75226 1.91691 4.81324 1.85593 4.90471C1.64249 5.11814 1.52053 5.42305 1.45955 5.78894C1.39857 6.15483 1.42906 6.5512 1.52053 7.03906C1.612 7.49642 1.76445 8.01476 1.97789 8.59408C2.19132 9.1734 2.49623 9.78321 2.83163 10.4235C2.5877 10.7894 2.37427 11.1553 2.16083 11.5517C1.9474 11.9481 1.76445 12.3444 1.58151 12.7408C1.39857 13.1372 1.24611 13.5641 1.09366 13.9604C0.941206 14.3873 0.819243 14.8142 0.69728 15.241C0.270411 16.8875 0.148449 18.4731 0.270411 19.9366C0.422864 21.4306 0.849734 22.7722 1.52053 23.9614C2.19132 25.1505 3.13653 26.1567 4.29518 26.8885C5.48431 27.6203 6.88689 28.1081 8.50289 28.1996C8.99074 28.2301 9.4481 28.2301 9.93595 28.1996C10.4238 28.1691 10.9117 28.1081 11.3995 27.9861C11.8874 27.8947 12.3752 27.7727 12.8326 27.5898C13.3204 27.4373 13.7778 27.2544 14.2656 27.0409L13.1375 24.9066C12.8021 25.0285 12.4667 25.1505 12.1313 25.242C11.7959 25.3335 11.4605 25.4249 11.1251 25.4859C10.7897 25.5469 10.4543 25.5774 10.1189 25.6079C9.7835 25.6384 9.4481 25.6384 9.1127 25.6079C7.8321 25.5469 6.67345 25.181 5.72824 24.6017C4.78303 24.0224 4.02076 23.2296 3.44144 22.2844C2.89261 21.3392 2.52672 20.2415 2.40476 19.0524C2.28279 17.8632 2.37427 16.5826 2.70966 15.241C3.04506 13.8995 3.62438 12.6493 4.32567 11.4907C5.05745 10.332 5.91118 9.29536 6.91738 8.41114C7.89308 7.52691 9.02123 6.79513 10.1799 6.2463C11.3385 5.69747 12.5886 5.36207 13.8388 5.30109C15.0889 5.24011 16.278 5.42305 17.2842 5.84992C18.3209 6.27679 19.2051 6.97807 19.8759 7.83181C20.5772 8.71604 21.065 9.78321 21.309 11.0028C21.5529 12.2225 21.5529 13.625 21.248 15.0886C21.126 15.7289 20.9431 16.3692 20.6992 16.979C20.4552 17.5888 20.1808 18.1986 19.8759 18.778C19.571 19.3573 19.2051 19.9061 18.8087 20.4245C18.4124 20.9428 17.9855 21.4611 17.5281 21.9185C17.5281 21.766 17.5586 21.6136 17.5586 21.4306C17.5586 21.2782 17.5586 21.1257 17.5891 20.9733C17.5891 20.8208 17.5891 20.6989 17.6196 20.5769C17.6196 20.4549 17.6196 20.3635 17.6196 20.3025C17.6196 20.2415 17.6196 20.1805 17.5891 20.15C17.5891 20.1195 17.5586 20.0891 17.5586 20.0586C17.5281 20.0281 17.5281 20.0281 17.4976 19.9976C17.4671 19.9976 17.4367 19.9976 17.4367 19.9671C17.4062 19.9671 17.4062 19.9671 17.3757 19.9671C17.3452 19.9671 17.3452 19.9671 17.3147 19.9671C17.2842 19.9671 17.2842 19.9671 17.2842 19.9671C17.2842 19.9671 17.2842 19.9671 17.2537 19.9671L13.2594 21.2782C13.2594 21.2782 13.2289 21.2782 13.168 21.3087C13.1375 21.3392 13.0765 21.3697 13.0155 21.4002C12.9545 21.4611 12.924 21.5221 12.924 21.6136C12.924 21.7051 12.924 21.7965 13.0155 21.949V21.9795V22.01V22.0405V22.071C13.1985 22.4368 13.4424 22.9247 13.7473 23.4735C14.0522 24.0224 14.3876 24.6627 14.6925 25.2725C15.0279 25.8823 15.3633 26.4921 15.6377 27.0104C15.9121 27.5288 16.156 27.9861 16.3085 28.2301C16.3085 28.2606 16.339 28.291 16.339 28.291C16.339 28.3215 16.3695 28.3215 16.3695 28.352C16.3695 28.3825 16.4 28.3825 16.4 28.413C16.4 28.4435 16.4305 28.4435 16.4305 28.4435C16.461 28.5045 16.4914 28.5655 16.5524 28.6264C16.5829 28.6874 16.6134 28.7179 16.6439 28.7484C16.6744 28.7789 16.7049 28.8094 16.7354 28.8094C16.7659 28.8094 16.7964 28.8399 16.8268 28.8399C16.8878 28.8399 16.9183 28.8399 16.9488 28.8094C16.9793 28.7789 17.0098 28.7484 17.0403 28.6874C17.0708 28.6569 17.1013 28.596 17.1013 28.535C17.1317 28.474 17.1317 28.4435 17.1317 28.413C17.1317 28.413 17.1317 28.3825 17.1317 28.352C17.1317 28.3215 17.1317 28.3215 17.1317 28.291C17.1317 28.2606 17.1317 28.2301 17.1317 28.1996C17.1317 28.1691 17.1317 28.1386 17.1317 28.1081C17.1317 27.9861 17.1622 27.8032 17.1622 27.6507C17.1622 27.4983 17.1927 27.3153 17.1927 27.1629C17.1927 27.0104 17.2232 26.858 17.2232 26.7665C17.2232 26.675 17.2232 26.5836 17.2232 26.5836C17.7721 26.919 18.3209 27.2239 18.8697 27.5288C19.4185 27.8337 19.9369 28.1081 20.4552 28.352C20.9736 28.596 21.4614 28.7789 21.9188 28.9314C22.3761 29.0838 22.7725 29.1753 23.1384 29.2058C23.1994 29.2058 23.2299 29.2058 23.2909 29.2058C23.3518 29.2058 23.3823 29.2058 23.4433 29.2058C23.4738 29.2058 23.5348 29.2058 23.5653 29.2058C23.5958 29.2058 23.6567 29.2058 23.6872 29.1753C23.7482 29.1753 23.8092 29.1448 23.8702 29.1143C23.9312 29.0838 23.9921 29.0838 24.0226 29.0533C24.0836 29.0228 24.1141 28.9923 24.1751 28.9618C24.2361 28.9314 24.2666 28.9009 24.2971 28.8399C24.541 28.5655 24.6629 28.1386 24.6629 27.6203C24.6629 27.1019 24.541 26.4616 24.3275 25.7298L24.48 25.7908Z" fill="#FDC600"/>
<path d="M12.192 14.8388V13.9241H10.8809V8.80165H9.90518C9.47831 9.19803 9.05144 9.44195 8.56359 9.59441V10.5396C8.80751 10.5091 9.05144 10.4177 9.26487 10.2957C9.5088 10.1737 9.69174 10.0518 9.81371 9.89931V13.8936H8.13672V14.8083H12.1615L12.192 14.8388ZM16.918 10.5396C16.918 9.99079 16.7351 9.53343 16.3387 9.19803C15.9423 8.86263 15.4545 8.67969 14.8447 8.67969C14.2349 8.67969 13.747 8.83214 13.3506 9.16754C12.9847 9.50294 12.7713 9.9298 12.7713 10.4786V13.0399C12.7713 13.5887 12.9542 14.0156 13.3506 14.351C13.747 14.6863 14.2349 14.8388 14.8447 14.8388C15.4545 14.8388 15.9423 14.6559 16.3387 14.3205C16.7046 13.9851 16.918 13.5277 16.918 12.9789V10.4481V10.5396ZM15.8813 13.0094C15.8813 13.3143 15.7899 13.5887 15.6069 13.7411C15.424 13.9241 15.1801 14.0156 14.8752 14.0156C14.5702 14.0156 14.3263 13.9241 14.1434 13.7411C13.9604 13.5582 13.869 13.3143 13.869 13.0094V10.6006C13.869 10.2652 13.9604 10.0213 14.1434 9.83833C14.3263 9.65539 14.5702 9.56392 14.9056 9.56392C15.2106 9.56392 15.485 9.65539 15.6679 9.83833C15.8509 10.0213 15.9423 10.2652 15.9423 10.6006L15.9118 13.0094H15.8813Z" fill="#FDC600"/>
<path d="M9.50968 19.9103V15.3672H8.74742V18.8126L6.94847 15.3672H5.82031V19.9103H6.58258V16.4649L8.38153 19.9103H9.47919H9.50968ZM10.9427 19.4834C10.9427 19.3615 10.9123 19.27 10.8208 19.209C10.7293 19.148 10.6378 19.1175 10.5159 19.1175C10.3939 19.1175 10.3024 19.148 10.211 19.209C10.1195 19.27 10.089 19.3615 10.089 19.4834V19.6054C10.089 19.7274 10.1195 19.8188 10.211 19.8798C10.3024 19.9408 10.3939 19.9713 10.5159 19.9713C10.6378 19.9713 10.7598 19.9408 10.8208 19.8798C10.9123 19.8188 10.9427 19.7274 10.9427 19.6054V19.4834ZM14.2052 18.6907H13.504C13.504 19.1175 13.2905 19.331 12.8332 19.331C12.3758 19.331 12.1624 19.1175 12.1624 18.6602V17.9894C12.1624 17.532 12.3758 17.3186 12.8332 17.3186C13.2905 17.3186 13.504 17.532 13.504 17.9589H14.2052V17.8979C14.2052 17.5015 14.0833 17.1966 13.8394 16.9832C13.5954 16.7698 13.26 16.6478 12.8332 16.6478C12.4063 16.6478 12.0709 16.7698 11.827 16.9832C11.583 17.1966 11.4611 17.532 11.4611 17.9284V18.7212C11.4611 19.1175 11.583 19.4224 11.827 19.6359C12.0709 19.8493 12.4063 19.9713 12.8332 19.9713C13.26 19.9713 13.5954 19.8798 13.8394 19.6664C14.0833 19.4529 14.2052 19.148 14.2052 18.7517V18.7212V18.6907ZM19.1752 19.9103V17.654C19.1752 17.3491 19.0838 17.1052 18.9313 16.9222C18.7788 16.7393 18.5654 16.6783 18.2605 16.6783C18.0166 16.6783 17.7727 16.7393 17.5287 16.8917L17.1628 17.1052C17.0409 16.8307 16.7665 16.6783 16.4006 16.6783C16.1566 16.6783 15.9432 16.7393 15.7298 16.8612L15.4554 17.0442V16.7088H14.7236V19.9103H15.4554V17.6845L15.8517 17.4406C16.0042 17.3491 16.1262 17.3186 16.2481 17.3186C16.4616 17.3186 16.5835 17.4406 16.5835 17.715V19.8798H17.3153V17.654L17.7117 17.4101C17.8641 17.3186 17.9861 17.2881 18.108 17.2881C18.3215 17.2881 18.4434 17.4101 18.4434 17.6845V19.8798H19.1752V19.9103Z" fill="#FDC600"/>
<path d="M21.4311 11.372C24.5107 11.372 26.9804 8.8718 26.9804 5.82274C26.9804 2.74318 24.4802 0.273438 21.4311 0.273438C18.3516 0.273438 15.8818 2.77367 15.8818 5.82274C15.8818 8.9023 18.3821 11.372 21.4311 11.372Z" fill="#FDC600"/>
<path d="M21.4311 11.372C24.5107 11.372 26.9804 8.8718 26.9804 5.82274C26.9804 2.74318 24.4802 0.273438 21.4311 0.273438C18.3516 0.273438 15.8818 2.77367 15.8818 5.82274C15.8818 8.90229 18.3821 11.372 21.4311 11.372Z" stroke="white" stroke-width="1.3111"/>
<path d="M21.7069 6.24839C22.0728 6.24839 22.3472 6.33987 22.5302 6.52281C22.7436 6.70575 22.8351 6.98017 22.8351 7.31557C22.8351 7.65097 22.7131 7.95587 22.4997 8.13882C22.2558 8.32176 21.9814 8.44372 21.6155 8.44372C21.2191 8.44372 20.9142 8.35225 20.6703 8.16931C20.4568 7.98636 20.3349 7.74244 20.3349 7.40704H19.6641V7.46802C19.6641 7.95587 19.847 8.35225 20.1824 8.62667C20.5178 8.90108 21.0057 9.05354 21.585 9.05354C22.1033 9.05354 22.5607 8.90108 22.9266 8.59618C23.3229 8.29127 23.5059 7.8644 23.5059 7.31557C23.5059 7.10213 23.4754 6.91919 23.4144 6.73624C23.3534 6.5533 23.2925 6.43134 23.201 6.33987C23.1095 6.24839 23.018 6.15692 22.9266 6.09594C22.8351 6.03496 22.7436 5.97398 22.7131 5.97398C22.6826 5.94349 22.6521 5.94349 22.6217 5.94349L22.7131 5.88251C22.7741 5.85202 22.8351 5.82153 22.9266 5.73005C23.018 5.66907 23.079 5.5776 23.1705 5.48613C23.262 5.39466 23.3229 5.27269 23.3839 5.12024C23.4449 4.96779 23.4754 4.78484 23.4754 4.6019C23.4754 4.14454 23.3229 3.74816 22.9875 3.47374C22.6521 3.19933 22.2253 3.04688 21.646 3.04688C21.1276 3.04688 20.6703 3.16884 20.3349 3.44325C19.9995 3.71767 19.8165 4.08356 19.8165 4.54092V4.57141H20.4568C20.4568 4.2665 20.5483 4.02258 20.7617 3.87012C20.9752 3.68718 21.2496 3.6262 21.6155 3.6262C21.9814 3.6262 22.2863 3.71767 22.4692 3.90061C22.6521 4.08356 22.7436 4.32748 22.7436 4.6019C22.7436 4.9373 22.6521 5.21171 22.4387 5.39466C22.2253 5.5776 21.9814 5.66907 21.646 5.66907H20.7617V6.27889H21.6764L21.7069 6.24839Z" fill="#FEFEFE"/>
</svg>
