<svg width="33" height="36" viewBox="0 0 33 36" fill="none" xmlns="http://www.w3.org/2000/svg">
<path d="M29.2091 30.9728C28.95 30.1522 28.6044 29.2452 28.1725 28.295C27.7406 27.3881 27.2656 26.4379 26.7473 25.4877C26.6609 25.6173 26.6177 25.7468 26.5313 25.8764C26.4449 26.006 26.3586 26.1355 26.3154 26.2219C26.229 26.3515 26.1426 26.4379 26.0562 26.5674C25.9699 26.697 25.8835 26.7834 25.7971 26.913C25.7971 26.913 25.7971 26.913 25.7971 26.9562C25.7971 26.9562 25.7971 26.9562 25.7971 26.9993C25.7971 26.9993 25.7971 26.9993 25.7971 27.0425L25.7107 27.1289C25.7971 27.3449 25.8835 27.604 25.9699 27.8631C26.0562 28.1223 26.1858 28.4246 26.2722 28.7269C26.3586 28.9861 26.4449 29.2884 26.4881 29.5044C26.5313 29.7203 26.4881 29.8931 26.4449 29.9795C26.4018 30.0226 26.4018 30.0226 26.3586 30.0658C26.3154 30.0658 26.2722 30.109 26.2722 30.109C26.229 30.109 26.1858 30.109 26.1426 30.1522C26.0994 30.1522 26.0562 30.1522 26.013 30.1522C25.9267 30.1522 25.8403 30.1522 25.7539 30.109C25.6675 30.109 25.5811 30.0658 25.4516 30.0226C25.3652 29.9795 25.2356 29.9363 25.1492 29.8931C25.0197 29.8499 24.9333 29.8067 24.8037 29.7635C24.6742 29.6771 24.5014 29.6339 24.3286 29.5476C24.1559 29.4612 24.0263 29.3748 23.8535 29.2884C23.6808 29.202 23.508 29.0725 23.3353 28.9861C23.1625 28.8997 22.9897 28.7701 22.817 28.6406C23.508 27.9495 24.1991 27.1721 24.8037 26.3947C25.4084 25.6173 25.9699 24.7535 26.4449 23.8897C26.92 23.0259 27.3519 22.1189 27.6975 21.1687C28.043 20.2185 28.3021 19.2683 28.5181 18.3181C28.95 16.1154 28.95 14.0855 28.5181 12.2283C28.1294 10.4144 27.3519 8.85952 26.3154 7.56382C25.2788 6.31131 23.9399 5.31794 22.4283 4.71328C20.9166 4.10862 19.189 3.80629 17.3318 3.93586C16.1225 4.02224 14.9132 4.28138 13.7039 4.67009C12.5378 5.0588 11.3716 5.57708 10.2919 6.26812C9.21212 6.91597 8.17556 7.69339 7.22538 8.55719C6.27519 9.42099 5.3682 10.3712 4.59078 11.4077C4.37483 11.019 4.20207 10.6303 4.0725 10.2848C3.94293 9.93927 3.81336 9.63694 3.77017 9.3778C3.72698 9.11866 3.68379 8.85952 3.72698 8.64357C3.72698 8.42762 3.81336 8.29805 3.89974 8.16848C3.94293 8.12529 3.98612 8.0821 4.02931 8.03891C4.0725 7.99572 4.15888 7.95253 4.24526 7.95253C4.33164 7.90934 4.41802 7.90934 4.5044 7.86615C4.59078 7.86615 4.67716 7.82296 4.80673 7.82296C4.89311 7.82296 5.02268 7.82296 5.15225 7.82296C5.28182 7.82296 5.41139 7.86615 5.49777 7.90934C5.62734 7.95253 5.75691 7.99572 5.88648 8.0821C6.01605 8.16848 6.14562 8.25486 6.27519 8.38443C6.40476 8.25486 6.53433 8.0821 6.6639 7.95253C6.79348 7.82296 6.92304 7.69339 7.05261 7.56382C7.18219 7.43425 7.31176 7.30468 7.48452 7.2183C7.61409 7.08873 7.78685 7.00235 7.95961 6.87278C7.95961 6.87278 8.0028 6.87278 8.0028 6.82959C8.0028 6.82959 8.04599 6.82959 8.04599 6.7864C8.04599 6.7864 8.08918 6.7864 8.08918 6.74321C8.08918 6.74321 8.13237 6.74321 8.13237 6.70002C7.87323 6.44088 7.5709 6.26812 7.26857 6.09536C6.96624 5.9226 6.62071 5.79303 6.31838 5.70665C6.01605 5.62027 5.67053 5.53389 5.3682 5.53389C5.06587 5.4907 4.76354 5.4907 4.46121 5.53389C4.24526 5.53389 4.0725 5.57708 3.85655 5.62027C3.68379 5.66346 3.51103 5.70665 3.33827 5.74984C3.16551 5.79303 3.03594 5.87941 2.90637 5.96579C2.7768 6.05217 2.69042 6.13855 2.60404 6.22493C2.3449 6.48407 2.21533 6.82959 2.12895 7.26149C2.04257 7.69339 2.08576 8.16848 2.17214 8.72995C2.25852 9.29142 2.47447 9.89608 2.73361 10.5871C2.99275 11.2782 3.33827 12.0124 3.77017 12.7898C3.46784 13.2217 3.2087 13.6968 2.94956 14.1287C2.69042 14.6038 2.47447 15.0789 2.25852 15.554C2.04257 16.0291 1.82662 16.5042 1.65386 17.0224C1.4811 17.5407 1.30834 18.0158 1.17877 18.5341C0.660488 20.4776 0.487728 22.378 0.660488 24.1488C0.833248 25.9196 1.35153 27.5608 2.12895 28.9429C2.94956 30.3682 4.0725 31.5775 5.45458 32.4413C6.87985 33.3483 8.56427 33.8666 10.4646 33.9961C11.0261 34.0393 11.5876 34.0393 12.1922 33.9961C12.7537 33.9529 13.3584 33.8666 13.9198 33.737C14.4813 33.6074 15.086 33.4778 15.6474 33.2619C16.2089 33.0891 16.7704 32.83 17.3318 32.5709L15.993 30.0226C15.6042 30.1954 15.2155 30.325 14.7836 30.4545C14.3949 30.5841 13.963 30.6705 13.5743 30.7569C13.1856 30.8433 12.7537 30.8864 12.365 30.9296C11.9763 30.9728 11.5444 30.9728 11.1557 30.9296C9.60083 30.8433 8.26194 30.4545 7.09581 29.7203C5.97286 29.0293 5.02268 28.0791 4.37483 26.9562C3.72698 25.8332 3.29508 24.5375 3.12232 23.069C2.94956 21.6438 3.07913 20.1321 3.51103 18.4909C3.89974 16.8929 4.59078 15.3812 5.45458 13.9991C6.31838 12.6171 7.35495 11.3645 8.52108 10.328C9.68721 9.24823 11.0261 8.38443 12.4082 7.73658C13.7903 7.08873 15.3019 6.70002 16.7704 6.61364C18.282 6.52726 19.6641 6.7864 20.8734 7.26149C22.0828 7.77977 23.1625 8.60038 23.9831 9.63694C24.8037 10.6735 25.4084 11.9692 25.7107 13.4377C26.013 14.9061 26.013 16.5473 25.6675 18.3181C25.4948 19.0956 25.2788 19.8298 25.0197 20.564C24.7605 21.2983 24.415 22.0325 24.0263 22.7235C23.6376 23.4146 23.2057 24.0624 22.7306 24.7103C22.2555 25.3581 21.7372 25.9196 21.219 26.4811C21.219 26.3083 21.219 26.0923 21.2621 25.9196C21.2621 25.7468 21.2621 25.5309 21.3053 25.3581C21.3053 25.1854 21.3053 25.0126 21.3053 24.883C21.3053 24.7535 21.3053 24.6239 21.3053 24.5375C21.3053 24.4511 21.3053 24.4079 21.3053 24.3647C21.3053 24.3216 21.2621 24.2784 21.2621 24.2352C21.219 24.192 21.219 24.192 21.1758 24.192C21.1326 24.192 21.1326 24.192 21.0894 24.192C21.0462 24.192 21.0462 24.192 21.003 24.192C20.9598 24.192 20.9598 24.192 20.9598 24.192H20.9166L16.1657 25.7468C16.1657 25.7468 16.1225 25.7468 16.0793 25.79C16.0361 25.8332 15.9498 25.8332 15.9066 25.9196C15.8634 25.9628 15.8202 26.0492 15.8202 26.1787C15.8202 26.2651 15.8202 26.3947 15.9066 26.5674C15.9066 26.5674 15.9066 26.5674 15.9066 26.6106C15.9066 26.6106 15.9066 26.6106 15.9066 26.6538C15.9066 26.6538 15.9066 26.6538 15.9066 26.697C15.9066 26.697 15.9066 26.697 15.9066 26.7402C16.1225 27.1721 16.4249 27.7336 16.7704 28.4246C17.1159 29.0725 17.5046 29.8067 17.8933 30.5409C18.282 31.2752 18.6707 32.0094 19.0163 32.614C19.3618 33.2619 19.6209 33.7802 19.7937 34.0825C19.7937 34.1257 19.8369 34.1257 19.8369 34.1689C19.8369 34.2121 19.8801 34.2121 19.8801 34.2553C19.8801 34.2985 19.9233 34.2985 19.9233 34.2985C19.9233 34.2985 19.9232 34.3416 19.9664 34.3416C20.0096 34.428 20.0528 34.5144 20.096 34.5576C20.1392 34.6008 20.1824 34.644 20.2256 34.6872C20.2688 34.7304 20.312 34.7304 20.3552 34.7735C20.3983 34.7735 20.4415 34.8167 20.4415 34.8167C20.4847 34.8167 20.5711 34.8167 20.6143 34.7735C20.6575 34.7304 20.7007 34.6872 20.7439 34.644C20.787 34.6008 20.787 34.5144 20.8302 34.4712C20.8302 34.428 20.8734 34.3416 20.8734 34.2985V34.2553C20.8734 34.2121 20.8734 34.2121 20.8734 34.1689C20.8734 34.1257 20.8734 34.0825 20.8734 34.0825C20.8734 34.0393 20.8734 33.9961 20.8734 33.9529C20.8734 33.7802 20.8734 33.6074 20.9166 33.3915C20.9166 33.1755 20.9166 33.0028 20.9598 32.83C20.9598 32.6572 20.9598 32.4845 21.003 32.3549C21.003 32.2253 21.003 32.139 21.003 32.139C21.6509 32.5277 22.2987 32.9164 22.9466 33.2619C23.5944 33.6074 24.2423 33.9529 24.8469 34.2121C25.4516 34.5144 26.0562 34.7304 26.5745 34.9031C27.0928 35.0759 27.6111 35.2054 28.043 35.2054C28.0862 35.2054 28.1725 35.2054 28.2157 35.2054C28.2589 35.2054 28.3453 35.2054 28.3885 35.2054C28.4317 35.2054 28.5181 35.2054 28.5613 35.2054C28.6044 35.2054 28.6476 35.2054 28.734 35.1623C28.8204 35.1623 28.8636 35.1191 28.95 35.1191C29.0363 35.0759 29.0795 35.0759 29.1659 35.0327C29.2091 34.9895 29.2955 34.9463 29.3387 34.9031C29.3819 34.8599 29.4251 34.8167 29.5114 34.7735C29.8138 34.428 29.9433 33.9529 29.9433 33.3051C29.9433 32.6572 29.8138 31.923 29.5546 31.0592L29.2091 30.9728Z" fill="#FDC600"/>
<path d="M14.5243 17.8892V16.7662H12.9695V10.6333H11.8034C11.3283 11.1083 10.7668 11.4107 10.2053 11.5834V12.7496C10.5077 12.7064 10.7668 12.62 11.0691 12.4472C11.3715 12.3177 11.5874 12.1449 11.7602 11.9721V16.7231H9.77344V17.846H14.5675L14.5243 17.8892ZM20.1822 12.7496C20.1822 12.1017 19.9663 11.5402 19.4912 11.1515C19.0161 10.7628 18.4546 10.5469 17.7204 10.5469C16.9862 10.5469 16.3815 10.7628 15.9496 11.1515C15.4745 11.5402 15.2586 12.0585 15.2586 12.7496V15.8161C15.2586 16.4639 15.4745 16.9822 15.9496 17.4141C16.4247 17.8028 16.9862 18.0188 17.7204 18.0188C18.4546 18.0188 19.0593 17.8028 19.4912 17.4141C19.9231 17.0254 20.1822 16.4639 20.1822 15.8161V12.7928V12.7496ZM18.9297 15.6865C18.9297 16.0752 18.8433 16.3775 18.6274 16.5935C18.4114 16.8094 18.1091 16.8958 17.7636 16.8958C17.3749 16.8958 17.1157 16.8094 16.8998 16.5935C16.6838 16.3775 16.5975 16.0752 16.5975 15.6865V12.7928C16.5975 12.404 16.6838 12.1017 16.8998 11.8858C17.1157 11.6698 17.4181 11.5834 17.8068 11.5834C18.1955 11.5834 18.4978 11.6698 18.7138 11.8858C18.9297 12.1017 19.0161 12.404 19.0161 12.7928L18.9729 15.6865H18.9297Z" fill="#FDC600"/>
<path d="M11.2853 23.9847V18.5859H10.3783V22.7322L8.21877 18.5859H6.87988V23.9847H7.78687V19.8816L9.94638 23.9847H11.2421H11.2853ZM13.0129 23.4664C13.0129 23.3368 12.9697 23.2073 12.8833 23.1641C12.7969 23.0777 12.6673 23.0345 12.4946 23.0345C12.365 23.0345 12.2354 23.0777 12.1491 23.1641C12.0627 23.2505 12.0195 23.3368 12.0195 23.4664V23.6392C12.0195 23.7687 12.0627 23.8983 12.1491 23.9415C12.2354 24.0279 12.365 24.0711 12.4946 24.0711C12.6673 24.0711 12.7537 24.0279 12.8833 23.9415C12.9697 23.8551 13.0129 23.7687 13.0129 23.6392V23.4664ZM16.9 22.5162H16.0362C16.0362 23.0345 15.777 23.2937 15.2156 23.2937C14.6973 23.2937 14.4381 23.0345 14.4381 22.473V21.6524C14.4381 21.091 14.6973 20.8318 15.2156 20.8318C15.7338 20.8318 16.0362 21.091 16.0362 21.6092H16.9V21.5229C16.9 21.0478 16.7704 20.7022 16.4681 20.4431C16.1657 20.184 15.777 20.0544 15.2588 20.0544C14.7405 20.0544 14.3518 20.184 14.0494 20.4431C13.7471 20.7022 13.6175 21.091 13.6175 21.5661V22.5162C13.6175 22.9913 13.7903 23.3368 14.0494 23.596C14.3518 23.8551 14.7405 23.9847 15.2588 23.9847C15.777 23.9847 16.1657 23.8551 16.4681 23.596C16.7704 23.3368 16.9 22.9913 16.9 22.5162ZM22.817 23.9847V21.2637C22.817 20.875 22.7306 20.6159 22.5147 20.3999C22.3419 20.184 22.0828 20.0976 21.7373 20.0976C21.4349 20.0976 21.1326 20.184 20.8735 20.3567L20.4416 20.6159C20.2688 20.2703 19.9665 20.0976 19.5346 20.0976C19.2754 20.0976 18.9731 20.184 18.714 20.3135L18.3684 20.5295V20.1408H17.5046V23.9847H18.3684V21.3501L18.8435 21.0478C19.0163 20.9614 19.189 20.9182 19.3186 20.9182C19.5778 20.9182 19.7073 21.091 19.7073 21.3933V23.9847H20.5711V21.3501L21.0462 21.0478C21.219 20.9614 21.3917 20.875 21.5213 20.875C21.7805 20.875 21.91 21.0478 21.91 21.3501V23.9415H22.817V23.9847Z" fill="#FDC600"/>
<path d="M25.5819 13.74C29.2531 13.74 32.2332 10.7599 32.2332 7.08877C32.2332 3.41761 29.2531 0.4375 25.5819 0.4375C21.9108 0.4375 18.9307 3.41761 18.9307 7.08877C18.9307 10.7599 21.9108 13.74 25.5819 13.74Z" fill="#FDC600"/>
<path d="M25.5819 13.74C29.2531 13.74 32.2332 10.7599 32.2332 7.08877C32.2332 3.41761 29.2531 0.4375 25.5819 0.4375C21.9108 0.4375 18.9307 3.41761 18.9307 7.08877C18.9307 10.7599 21.9108 13.74 25.5819 13.74Z" stroke="white" stroke-width="1.12294"/>
<path d="M25.883 7.6601C26.3149 7.6601 26.6173 7.78967 26.8764 8.00562C27.1356 8.22157 27.2651 8.56709 27.2651 8.9558C27.2651 9.3877 27.1356 9.69003 26.8764 9.94917C26.6173 10.1651 26.2718 10.2947 25.8399 10.2947C25.3648 10.2947 24.9761 10.2083 24.7169 9.99236C24.4578 9.77641 24.3282 9.47408 24.3282 9.04218H23.5508V9.12856C23.5508 9.73322 23.7667 10.1651 24.1554 10.5106C24.5873 10.8562 25.1488 11.0289 25.8399 11.0289C26.4445 11.0289 27.006 10.8562 27.4379 10.4675C27.913 10.0787 28.1289 9.60365 28.1289 8.9558C28.1289 8.69666 28.0857 8.48071 27.9994 8.26476C27.913 8.04881 27.8266 7.87605 27.7402 7.78967C27.6538 7.6601 27.5243 7.57372 27.3947 7.48734C27.2651 7.40096 27.1787 7.35777 27.1356 7.31458C27.0924 7.31458 27.0492 7.27139 27.006 7.27139L27.0924 7.2282C27.1787 7.18501 27.2219 7.14182 27.3515 7.05544C27.4379 6.96906 27.5243 6.88268 27.6538 6.75311C27.7402 6.62354 27.8266 6.49397 27.913 6.32121C27.9994 6.14845 27.9994 5.9325 27.9994 5.71655C27.9994 5.15508 27.8266 4.72318 27.4379 4.37766C27.0492 4.03213 26.5309 3.85938 25.8399 3.85938C25.192 3.85938 24.6737 4.03214 24.285 4.33447C23.8963 4.6368 23.6804 5.11189 23.6804 5.63017V5.67336H24.4578C24.4578 5.28465 24.5873 5.02551 24.8465 4.80956C25.1056 4.59361 25.4511 4.50723 25.883 4.50723C26.3149 4.50723 26.6605 4.59361 26.9196 4.80956C27.1356 5.02551 27.2651 5.32784 27.2651 5.67336C27.2651 6.06207 27.1356 6.40759 26.8764 6.62354C26.6173 6.83949 26.3149 6.96906 25.9262 6.96906H24.8465V7.6601H25.9694H25.883Z" fill="#FEFEFE"/>
</svg>
