<svg width="6" height="6" viewBox="0 0 6 6" fill="none" xmlns="http://www.w3.org/2000/svg">
<path d="M2.87554 5.79406C4.4109 5.79406 5.6671 4.53785 5.6671 3.0025C5.6671 1.46714 4.4109 0.210938 2.87554 0.210938C1.34019 0.210938 0.0839844 1.46714 0.0839844 3.0025C0.0839844 4.53785 1.34019 5.79406 2.87554 5.79406Z" fill="#FDC600"/>
<path d="M3.85305 4.53946V4.19052H2.52706L3.36453 3.28326C3.5739 3.0739 3.64369 2.93432 3.71347 2.79474C3.78326 2.65516 3.85305 2.51558 3.85305 2.30622C3.85305 2.02706 3.78326 1.88748 3.64369 1.67812C3.50411 1.53854 3.29474 1.46875 2.9458 1.46875C2.66664 1.46875 2.45727 1.53854 2.24791 1.67812C2.10833 1.81769 1.96875 2.02706 1.96875 2.23643H2.31769C2.31769 2.09685 2.38748 1.95727 2.45727 1.88748C2.52706 1.81769 2.73643 1.74791 2.87601 1.74791C3.08537 1.74791 3.22495 1.81769 3.29474 1.88748C3.36453 1.95727 3.43432 2.09685 3.43432 2.23643C3.43432 2.37601 3.43432 2.51558 3.36453 2.58537C3.29474 2.72495 3.22495 2.86453 3.08537 3.00411L2.03854 4.05094V4.39989H3.78326L3.85305 4.53946Z" fill="#FEFEFE"/>
</svg>
