<svg width="32" height="36" viewBox="0 0 32 36" fill="none" xmlns="http://www.w3.org/2000/svg">
<path d="M28.8361 30.9728C28.5769 30.1522 28.2314 29.2452 27.7995 28.295C27.3676 27.3881 26.8925 26.4379 26.3742 25.4877C26.2878 25.6173 26.2447 25.7468 26.1583 25.8764C26.0719 26.006 25.9855 26.1355 25.9423 26.2219C25.8559 26.3515 25.7696 26.4379 25.6832 26.5674C25.5968 26.697 25.5104 26.7834 25.424 26.913C25.424 26.913 25.424 26.913 25.424 26.9562C25.424 26.9562 25.424 26.9562 25.424 26.9993C25.424 26.9993 25.424 26.9993 25.424 27.0425L25.3377 27.1289C25.424 27.3449 25.5104 27.604 25.5968 27.8631C25.6832 28.1223 25.8128 28.4246 25.8991 28.7269C25.9855 28.9861 26.0719 29.2884 26.1151 29.5044C26.1583 29.7203 26.1151 29.8931 26.0719 29.9795C26.0287 30.0226 26.0287 30.0226 25.9855 30.0658C25.9423 30.0658 25.8991 30.109 25.8991 30.109C25.8559 30.109 25.8128 30.109 25.7696 30.1522C25.7264 30.1522 25.6832 30.1522 25.64 30.1522C25.5536 30.1522 25.4672 30.1522 25.3809 30.109C25.2945 30.109 25.2081 30.0658 25.0785 30.0226C24.9921 29.9795 24.8626 29.9363 24.7762 29.8931C24.6466 29.8499 24.5602 29.8067 24.4307 29.7635C24.3011 29.6771 24.1283 29.6339 23.9556 29.5476C23.7828 29.4612 23.6533 29.3748 23.4805 29.2884C23.3077 29.202 23.135 29.0725 22.9622 28.9861C22.7895 28.8997 22.6167 28.7701 22.4439 28.6406C23.135 27.9495 23.826 27.1721 24.4307 26.3947C25.0353 25.6173 25.5968 24.7535 26.0719 23.8897C26.547 23.0259 26.9789 22.1189 27.3244 21.1687C27.6699 20.2185 27.9291 19.2683 28.145 18.3181C28.5769 16.1154 28.5769 14.0855 28.145 12.2283C27.7563 10.4144 26.9789 8.85952 25.9423 7.56382C24.9058 6.31131 23.5669 5.31794 22.0552 4.71328C20.5436 4.10862 18.816 3.80629 16.9588 3.93586C15.7495 4.02224 14.5402 4.28138 13.3308 4.67009C12.1647 5.0588 10.9986 5.57708 9.91882 6.26812C8.83907 6.91597 7.80251 7.69339 6.85233 8.55719C5.90215 9.42099 4.99516 10.3712 4.21774 11.4077C4.00179 11.019 3.82903 10.6303 3.69946 10.2848C3.56988 9.93927 3.44031 9.63694 3.39712 9.3778C3.35393 9.11866 3.31074 8.85952 3.35393 8.64357C3.35393 8.42762 3.44031 8.29805 3.52669 8.16848C3.56988 8.12529 3.61307 8.0821 3.65627 8.03891C3.69946 7.99572 3.78583 7.95253 3.87222 7.95253C3.9586 7.90934 4.04498 7.90934 4.13136 7.86615C4.21774 7.86615 4.30412 7.82296 4.43369 7.82296C4.52007 7.82296 4.64964 7.82296 4.77921 7.82296C4.90878 7.82296 5.03835 7.86615 5.12473 7.90934C5.2543 7.95253 5.38387 7.99572 5.51344 8.0821C5.64301 8.16848 5.77258 8.25486 5.90215 8.38443C6.03172 8.25486 6.16129 8.0821 6.29086 7.95253C6.42043 7.82296 6.55 7.69339 6.67957 7.56382C6.80914 7.43425 6.93871 7.30468 7.11147 7.2183C7.24104 7.08873 7.4138 7.00235 7.58656 6.87278C7.58656 6.87278 7.62975 6.87278 7.62975 6.82959C7.62975 6.82959 7.67294 6.82959 7.67294 6.7864C7.67294 6.7864 7.71613 6.7864 7.71613 6.74321C7.71613 6.74321 7.75932 6.74321 7.75932 6.70002C7.50018 6.44088 7.19785 6.26812 6.89552 6.09536C6.59319 5.9226 6.24767 5.79303 5.94534 5.70665C5.64301 5.62027 5.29749 5.53389 4.99516 5.53389C4.69283 5.4907 4.3905 5.4907 4.08817 5.53389C3.87222 5.53389 3.69945 5.57708 3.4835 5.62027C3.31074 5.66346 3.13798 5.70665 2.96522 5.74984C2.79246 5.79303 2.66289 5.87941 2.53332 5.96579C2.40375 6.05217 2.31737 6.13855 2.23099 6.22493C1.97185 6.48407 1.84228 6.82959 1.7559 7.26149C1.66952 7.69339 1.71271 8.16848 1.79909 8.72995C1.88547 9.29142 2.10142 9.89608 2.36056 10.5871C2.6197 11.2782 2.96522 12.0124 3.39712 12.7898C3.09479 13.2217 2.83565 13.6968 2.57651 14.1287C2.31737 14.6038 2.10142 15.0789 1.88547 15.554C1.66952 16.0291 1.45357 16.5042 1.28081 17.0224C1.10805 17.5407 0.935292 18.0158 0.805722 18.5341C0.287441 20.4776 0.114681 22.378 0.287441 24.1488C0.460201 25.9196 0.978482 27.5608 1.7559 28.9429C2.57651 30.3682 3.69946 31.5775 5.08154 32.4413C6.50681 33.3483 8.19122 33.8666 10.0916 33.9961C10.6531 34.0393 11.2145 34.0393 11.8192 33.9961C12.3807 33.9529 12.9853 33.8666 13.5468 33.737C14.1083 33.6074 14.7129 33.4778 15.2744 33.2619C15.8359 33.0891 16.3973 32.83 16.9588 32.5709L15.6199 30.0226C15.2312 30.1954 14.8425 30.325 14.4106 30.4545C14.0219 30.5841 13.59 30.6705 13.2013 30.7569C12.8126 30.8433 12.3807 30.8864 11.9919 30.9296C11.6032 30.9728 11.1713 30.9728 10.7826 30.9296C9.22778 30.8433 7.88889 30.4545 6.72276 29.7203C5.59982 29.0293 4.64964 28.0791 4.00179 26.9562C3.35393 25.8332 2.92203 24.5375 2.74927 23.069C2.57651 21.6438 2.70608 20.1321 3.13798 18.4909C3.52669 16.8929 4.21774 15.3812 5.08154 13.9991C5.94534 12.6171 6.9819 11.3645 8.14803 10.328C9.31416 9.24823 10.6531 8.38443 12.0351 7.73658C13.4172 7.08873 14.9289 6.70002 16.3973 6.61364C17.909 6.52726 19.2911 6.7864 20.5004 7.26149C21.7097 7.77977 22.7895 8.60038 23.6101 9.63694C24.4307 10.6735 25.0353 11.9692 25.3377 13.4377C25.64 14.9061 25.64 16.5473 25.2945 18.3181C25.1217 19.0956 24.9058 19.8298 24.6466 20.564C24.3875 21.2983 24.042 22.0325 23.6533 22.7235C23.2645 23.4146 22.8326 24.0624 22.3576 24.7103C21.8825 25.3581 21.3642 25.9196 20.8459 26.4811C20.8459 26.3083 20.8459 26.0923 20.8891 25.9196C20.8891 25.7468 20.8891 25.5309 20.9323 25.3581C20.9323 25.1854 20.9323 25.0126 20.9323 24.883C20.9323 24.7535 20.9323 24.6239 20.9323 24.5375C20.9323 24.4511 20.9323 24.4079 20.9323 24.3647C20.9323 24.3216 20.8891 24.2784 20.8891 24.2352C20.8459 24.192 20.8459 24.192 20.8027 24.192C20.7595 24.192 20.7595 24.192 20.7163 24.192C20.6731 24.192 20.6731 24.192 20.63 24.192C20.5868 24.192 20.5868 24.192 20.5868 24.192H20.5436L15.7927 25.7468C15.7927 25.7468 15.7495 25.7468 15.7063 25.79C15.6631 25.8332 15.5767 25.8332 15.5335 25.9196C15.4903 25.9628 15.4471 26.0492 15.4471 26.1787C15.4471 26.2651 15.4471 26.3947 15.5335 26.5674C15.5335 26.5674 15.5335 26.5674 15.5335 26.6106C15.5335 26.6106 15.5335 26.6106 15.5335 26.6538C15.5335 26.6538 15.5335 26.6538 15.5335 26.697C15.5335 26.697 15.5335 26.697 15.5335 26.7402C15.7495 27.1721 16.0518 27.7336 16.3973 28.4246C16.7428 29.0725 17.1316 29.8067 17.5203 30.5409C17.909 31.2752 18.2977 32.0094 18.6432 32.614C18.9887 33.2619 19.2479 33.7802 19.4206 34.0825C19.4206 34.1257 19.4638 34.1257 19.4638 34.1689C19.4638 34.2121 19.507 34.2121 19.507 34.2553C19.507 34.2985 19.5502 34.2985 19.5502 34.2985C19.5502 34.2985 19.5502 34.3416 19.5934 34.3416C19.6366 34.428 19.6798 34.5144 19.723 34.5576C19.7662 34.6008 19.8093 34.644 19.8525 34.6872C19.8957 34.7304 19.9389 34.7304 19.9821 34.7735C20.0253 34.7735 20.0685 34.8167 20.0685 34.8167C20.1117 34.8167 20.1981 34.8167 20.2412 34.7735C20.2844 34.7304 20.3276 34.6872 20.3708 34.644C20.414 34.6008 20.414 34.5144 20.4572 34.4712C20.4572 34.428 20.5004 34.3416 20.5004 34.2985V34.2553C20.5004 34.2121 20.5004 34.2121 20.5004 34.1689C20.5004 34.1257 20.5004 34.0825 20.5004 34.0825C20.5004 34.0393 20.5004 33.9961 20.5004 33.9529C20.5004 33.7802 20.5004 33.6074 20.5436 33.3915C20.5436 33.1755 20.5436 33.0028 20.5868 32.83C20.5868 32.6572 20.5868 32.4845 20.63 32.3549C20.63 32.2253 20.63 32.139 20.63 32.139C21.2778 32.5277 21.9257 32.9164 22.5735 33.2619C23.2214 33.6074 23.8692 33.9529 24.4739 34.2121C25.0785 34.5144 25.6832 34.7304 26.2015 34.9031C26.7198 35.0759 27.238 35.2054 27.6699 35.2054C27.7131 35.2054 27.7995 35.2054 27.8427 35.2054C27.8859 35.2054 27.9723 35.2054 28.0154 35.2054C28.0586 35.2054 28.145 35.2054 28.1882 35.2054C28.2314 35.2054 28.2746 35.2054 28.361 35.1623C28.4474 35.1623 28.4905 35.1191 28.5769 35.1191C28.6633 35.0759 28.7065 35.0759 28.7929 35.0327C28.8361 34.9895 28.9224 34.9463 28.9656 34.9031C29.0088 34.8599 29.052 34.8167 29.1384 34.7735C29.4407 34.428 29.5703 33.9529 29.5703 33.3051C29.5703 32.6572 29.4407 31.923 29.1816 31.0592L28.8361 30.9728Z" fill="#FDC600"/>
<path d="M14.1513 17.8892V16.7662H12.5965V10.6333H11.4303C10.9552 11.1083 10.3938 11.4107 9.83229 11.5834V12.7496C10.1346 12.7064 10.3938 12.62 10.6961 12.4472C10.9984 12.3177 11.2144 12.1449 11.3871 11.9721V16.7231H9.40039V17.846H14.1945L14.1513 17.8892ZM19.8092 12.7496C19.8092 12.1017 19.5932 11.5402 19.1182 11.1515C18.6431 10.7628 18.0816 10.5469 17.3474 10.5469C16.6131 10.5469 16.0085 10.7628 15.5766 11.1515C15.1015 11.5402 14.8855 12.0585 14.8855 12.7496V15.8161C14.8855 16.4639 15.1015 16.9822 15.5766 17.4141C16.0517 17.8028 16.6131 18.0188 17.3474 18.0188C18.0816 18.0188 18.6863 17.8028 19.1182 17.4141C19.5501 17.0254 19.8092 16.4639 19.8092 15.8161V12.7928V12.7496ZM18.5567 15.6865C18.5567 16.0752 18.4703 16.3775 18.2544 16.5935C18.0384 16.8094 17.7361 16.8958 17.3906 16.8958C17.0018 16.8958 16.7427 16.8094 16.5267 16.5935C16.3108 16.3775 16.2244 16.0752 16.2244 15.6865V12.7928C16.2244 12.404 16.3108 12.1017 16.5267 11.8858C16.7427 11.6698 17.045 11.5834 17.4337 11.5834C17.8224 11.5834 18.1248 11.6698 18.3407 11.8858C18.5567 12.1017 18.6431 12.404 18.6431 12.7928L18.5999 15.6865H18.5567Z" fill="#FDC600"/>
<path d="M10.9122 23.9847V18.5859H10.0052V22.7322L7.84573 18.5859H6.50684V23.9847H7.41383V19.8816L9.57333 23.9847H10.869H10.9122ZM12.6398 23.4664C12.6398 23.3368 12.5966 23.2073 12.5103 23.1641C12.4239 23.0777 12.2943 23.0345 12.1215 23.0345C11.992 23.0345 11.8624 23.0777 11.776 23.1641C11.6896 23.2505 11.6465 23.3368 11.6465 23.4664V23.6392C11.6465 23.7687 11.6896 23.8983 11.776 23.9415C11.8624 24.0279 11.992 24.0711 12.1215 24.0711C12.2943 24.0711 12.3807 24.0279 12.5103 23.9415C12.5966 23.8551 12.6398 23.7687 12.6398 23.6392V23.4664ZM16.5269 22.5162H15.6631C15.6631 23.0345 15.404 23.2937 14.8425 23.2937C14.3242 23.2937 14.0651 23.0345 14.0651 22.473V21.6524C14.0651 21.091 14.3242 20.8318 14.8425 20.8318C15.3608 20.8318 15.6631 21.091 15.6631 21.6092H16.5269V21.5229C16.5269 21.0478 16.3974 20.7022 16.095 20.4431C15.7927 20.184 15.404 20.0544 14.8857 20.0544C14.3674 20.0544 13.9787 20.184 13.6764 20.4431C13.3741 20.7022 13.2445 21.091 13.2445 21.5661V22.5162C13.2445 22.9913 13.4172 23.3368 13.6764 23.596C13.9787 23.8551 14.3674 23.9847 14.8857 23.9847C15.404 23.9847 15.7927 23.8551 16.095 23.596C16.3974 23.3368 16.5269 22.9913 16.5269 22.5162ZM22.444 23.9847V21.2637C22.444 20.875 22.3576 20.6159 22.1416 20.3999C21.9689 20.184 21.7097 20.0976 21.3642 20.0976C21.0619 20.0976 20.7596 20.184 20.5004 20.3567L20.0685 20.6159C19.8958 20.2703 19.5934 20.0976 19.1615 20.0976C18.9024 20.0976 18.6 20.184 18.3409 20.3135L17.9954 20.5295V20.1408H17.1316V23.9847H17.9954V21.3501L18.4705 21.0478C18.6432 20.9614 18.816 20.9182 18.9456 20.9182C19.2047 20.9182 19.3343 21.091 19.3343 21.3933V23.9847H20.1981V21.3501L20.6732 21.0478C20.8459 20.9614 21.0187 20.875 21.1483 20.875C21.4074 20.875 21.537 21.0478 21.537 21.3501V23.9415H22.444V23.9847Z" fill="#FDC600"/>
<path d="M25.2089 13.74C28.88 13.74 31.8602 10.7599 31.8602 7.08877C31.8602 3.41761 28.88 0.4375 25.2089 0.4375C21.5377 0.4375 18.5576 3.41761 18.5576 7.08877C18.5576 10.7599 21.5377 13.74 25.2089 13.74Z" fill="#FDC600"/>
<path d="M25.2089 13.74C28.88 13.74 31.8602 10.7599 31.8602 7.08877C31.8602 3.41761 28.88 0.4375 25.2089 0.4375C21.5377 0.4375 18.5576 3.41761 18.5576 7.08877C18.5576 10.7599 21.5377 13.74 25.2089 13.74Z" stroke="white" stroke-width="1.12294"/>
<path d="M25.51 7.6601C25.9419 7.6601 26.2442 7.78967 26.5034 8.00562C26.7625 8.22157 26.8921 8.56709 26.8921 8.9558C26.8921 9.3877 26.7625 9.69003 26.5034 9.94917C26.2442 10.1651 25.8987 10.2947 25.4668 10.2947C24.9917 10.2947 24.603 10.2083 24.3439 9.99236C24.0847 9.77641 23.9552 9.47408 23.9552 9.04218H23.1777V9.12856C23.1777 9.73322 23.3937 10.1651 23.7824 10.5106C24.2143 10.8562 24.7758 11.0289 25.4668 11.0289C26.0715 11.0289 26.6329 10.8562 27.0648 10.4675C27.5399 10.0787 27.7559 9.60365 27.7559 8.9558C27.7559 8.69666 27.7127 8.48071 27.6263 8.26476C27.5399 8.04881 27.4536 7.87605 27.3672 7.78967C27.2808 7.6601 27.1512 7.57372 27.0217 7.48734C26.8921 7.40096 26.8057 7.35777 26.7625 7.31458C26.7193 7.31458 26.6761 7.27139 26.6329 7.27139L26.7193 7.2282C26.8057 7.18501 26.8489 7.14182 26.9785 7.05544C27.0648 6.96906 27.1512 6.88268 27.2808 6.75311C27.3672 6.62354 27.4536 6.49397 27.5399 6.32121C27.6263 6.14845 27.6263 5.9325 27.6263 5.71655C27.6263 5.15508 27.4535 4.72318 27.0648 4.37766C26.6761 4.03213 26.1578 3.85938 25.4668 3.85938C24.819 3.85938 24.3007 4.03214 23.912 4.33447C23.5233 4.6368 23.3073 5.11189 23.3073 5.63017V5.67336H24.0847C24.0847 5.28465 24.2143 5.02551 24.4734 4.80956C24.7326 4.59361 25.0781 4.50723 25.51 4.50723C25.9419 4.50723 26.2874 4.59361 26.5466 4.80956C26.7625 5.02551 26.8921 5.32784 26.8921 5.67336C26.8921 6.06207 26.7625 6.40759 26.5034 6.62354C26.2442 6.83949 25.9419 6.96906 25.5532 6.96906H24.4734V7.6601H25.5964H25.51Z" fill="#FEFEFE"/>
</svg>
