<svg width="27" height="29" viewBox="0 0 27 29" fill="none" xmlns="http://www.w3.org/2000/svg">
<path d="M24.0869 25.3284C23.872 24.6569 23.6034 23.9048 23.2542 23.1528C22.9051 22.4007 22.529 21.6218 22.0993 20.8697C22.0456 20.9772 21.9918 21.0846 21.9113 21.1652C21.8576 21.2726 21.777 21.3532 21.7233 21.4606C21.6695 21.5681 21.589 21.6487 21.5084 21.7561C21.4278 21.8635 21.3741 21.9441 21.2935 22.0247C21.2935 22.0247 21.2935 22.0247 21.2667 22.0515C21.2667 22.0515 21.2667 22.0515 21.2398 22.0784C21.2398 22.0784 21.2398 22.0784 21.2129 22.1053C21.2129 22.1053 21.2129 22.1053 21.1861 22.1321L21.1324 22.2127C21.1861 22.3739 21.2667 22.5887 21.3472 22.8305C21.4278 23.0453 21.5084 23.2871 21.589 23.5288C21.6695 23.7437 21.7233 23.9854 21.7501 24.1466C21.777 24.3346 21.777 24.4689 21.6964 24.5226C21.6695 24.5494 21.6427 24.5763 21.6158 24.5763C21.589 24.6032 21.5621 24.6032 21.5352 24.6032C21.5084 24.6032 21.4815 24.63 21.4278 24.63C21.4009 24.63 21.3472 24.63 21.3204 24.63C21.2667 24.63 21.1861 24.63 21.1324 24.6032C21.0518 24.5763 20.9712 24.5763 20.9175 24.5494C20.8369 24.5226 20.7563 24.4957 20.6757 24.4689C20.5952 24.442 20.4877 24.3883 20.4072 24.3346C20.2997 24.2809 20.1654 24.2271 20.0311 24.1466C19.8968 24.066 19.7625 24.0123 19.6282 23.9317C19.4939 23.8511 19.3596 23.7705 19.2254 23.69C19.0911 23.6094 18.9299 23.5019 18.7956 23.4214C19.3597 22.8573 19.8968 22.2396 20.4072 21.5949C20.8906 20.9503 21.3472 20.252 21.7501 19.5536C22.153 18.8284 22.5022 18.1032 22.7708 17.3243C23.0662 16.5723 23.2811 15.7934 23.4422 14.9876C23.7914 13.2149 23.7646 11.5227 23.4422 10.0455C23.1199 8.56824 22.5022 7.279 21.6427 6.23149C20.81 5.21084 19.7357 4.40507 18.4733 3.89475C17.2378 3.38442 15.8411 3.16955 14.337 3.27698C13.3432 3.35756 12.3494 3.54558 11.3825 3.86789C10.4424 4.1902 9.50234 4.61994 8.61598 5.15713C7.72963 5.69431 6.897 6.31207 6.11808 7.01041C5.33916 7.70875 4.61397 8.48766 3.96935 9.34716C3.78133 9.02485 3.64704 8.70254 3.5396 8.43395C3.43216 8.16535 3.35158 7.89676 3.29787 7.68189C3.24415 7.46702 3.21729 7.25214 3.24415 7.09099C3.27101 6.92983 3.32473 6.79554 3.4053 6.6881C3.43216 6.66124 3.45902 6.63438 3.51274 6.60752C3.56646 6.58066 3.62018 6.5538 3.67389 6.52694C3.72761 6.50009 3.80819 6.47323 3.86191 6.47323C3.94249 6.44637 4.02306 6.44637 4.10364 6.44637C4.18422 6.44637 4.29166 6.44637 4.37223 6.44637C4.47967 6.47323 4.56025 6.47323 4.66768 6.52694C4.77512 6.5538 4.8557 6.60752 4.96314 6.66124C5.07057 6.71496 5.17801 6.79554 5.25859 6.90297C5.36602 6.79554 5.4466 6.66124 5.55404 6.5538C5.66147 6.44637 5.76891 6.33893 5.87635 6.23149C5.98378 6.12406 6.09122 6.04348 6.22552 5.93604C6.33295 5.82861 6.46725 5.74803 6.60154 5.66745L6.6284 5.64059L6.65526 5.61373L6.68212 5.58687C6.68212 5.58687 6.70898 5.58687 6.70898 5.56001C6.49411 5.372 6.25238 5.18399 5.98378 5.04969C5.74205 4.91539 5.47346 4.80796 5.20487 4.72738C4.93628 4.6468 4.66768 4.59308 4.42595 4.56622C4.15736 4.53937 3.91563 4.53937 3.67389 4.53937C3.51274 4.53937 3.35158 4.56622 3.19043 4.59308C3.02927 4.61994 2.89498 4.67366 2.76068 4.70052C2.62639 4.75424 2.51895 4.80796 2.41151 4.86168C2.30408 4.91539 2.2235 4.99597 2.16978 5.04969C1.98177 5.26456 1.84747 5.56001 1.79375 5.88232C1.74003 6.23149 1.76689 6.63438 1.84747 7.09099C1.92805 7.54759 2.0892 8.05792 2.30408 8.5951C2.51895 9.15914 2.78754 9.75004 3.13671 10.3947C2.89498 10.7438 2.68011 11.1199 2.49209 11.4959C2.27722 11.8719 2.0892 12.2479 1.92805 12.6508C1.74003 13.0537 1.60574 13.4298 1.44458 13.8595C1.31029 14.2624 1.17599 14.6921 1.06856 15.095C0.638808 16.7066 0.531372 18.2375 0.665668 19.6611C0.799963 21.1115 1.22971 22.4276 1.87433 23.5825C2.54581 24.7375 3.45902 25.7044 4.58711 26.4296C5.74205 27.1548 7.11187 27.6114 8.6697 27.692C9.12631 27.7188 9.60977 27.7188 10.0664 27.692C10.5498 27.6651 11.0064 27.5845 11.4899 27.504C11.9734 27.3965 12.43 27.2891 12.8866 27.1279C13.3432 26.9668 13.8267 26.7788 14.2833 26.5907L13.182 24.4957C12.8597 24.63 12.5374 24.7375 12.2151 24.8449C11.8928 24.9523 11.5705 25.0061 11.2213 25.0866C10.899 25.1403 10.5767 25.1941 10.2275 25.2209C9.90522 25.2478 9.58291 25.2478 9.2606 25.2209C7.99822 25.1672 6.897 24.818 5.95692 24.254C5.04371 23.69 4.29166 22.911 3.72761 21.9978C3.19043 21.0846 2.84126 20.0102 2.70696 18.8553C2.57267 17.7004 2.68011 16.438 3.00242 15.1487C3.32473 13.8595 3.88877 12.624 4.58711 11.4959C5.28545 10.3678 6.14494 9.37402 7.11187 8.51452C8.0788 7.65503 9.15317 6.92983 10.2813 6.41951C11.4093 5.90918 12.618 5.56001 13.8535 5.5063C15.089 5.42572 16.2171 5.64059 17.2109 6.04348C18.2047 6.47323 19.0642 7.11785 19.7357 7.97734C20.4072 8.83683 20.8906 9.88434 21.1324 11.0661C21.3741 12.2748 21.3741 13.6178 21.0786 15.0413C20.9443 15.6591 20.7832 16.2768 20.5415 16.8946C20.3266 17.4855 20.058 18.0764 19.7357 18.6404C19.4134 19.2045 19.0642 19.7417 18.6882 20.252C18.3121 20.7623 17.8824 21.2458 17.4527 21.7024C17.4527 21.5412 17.4795 21.4069 17.4795 21.2458C17.4795 21.0846 17.5064 20.9235 17.5064 20.7892C17.5064 20.6549 17.5064 20.5206 17.5332 20.3863C17.5332 20.2788 17.5332 20.1714 17.5332 20.1177C17.5332 20.064 17.5332 20.0102 17.5064 19.9565C17.5064 19.9297 17.4795 19.876 17.4527 19.876C17.4258 19.8491 17.4258 19.8491 17.3989 19.8222C17.3721 19.8222 17.3452 19.7954 17.3184 19.7954C17.2915 19.7954 17.2646 19.7954 17.2646 19.7954C17.2378 19.7954 17.2378 19.7954 17.2109 19.8222C17.1841 19.8222 17.1841 19.8222 17.1841 19.8491H17.1572L13.2895 21.1115C13.2895 21.1115 13.2626 21.1115 13.2089 21.1383C13.1552 21.1652 13.1015 21.1921 13.0746 21.2458C13.0209 21.2995 12.994 21.3532 12.994 21.4338C12.994 21.5144 12.994 21.6218 13.0746 21.7561V21.783V21.8098V21.8367V21.8635C13.2358 22.2127 13.5044 22.6962 13.7729 23.2333C14.0684 23.7705 14.3907 24.3883 14.713 24.9792C15.0353 25.5701 15.3576 26.161 15.6262 26.6713C15.8948 27.1816 16.1365 27.6114 16.2708 27.88C16.2708 27.9068 16.2977 27.9337 16.2977 27.9337C16.2977 27.9606 16.3246 27.9874 16.3246 27.9874C16.3246 28.0143 16.3514 28.0143 16.3514 28.0411C16.3514 28.068 16.3783 28.068 16.3783 28.0949C16.4051 28.1754 16.4589 28.2292 16.4857 28.256C16.5126 28.3097 16.5663 28.3366 16.5932 28.3634C16.62 28.3903 16.6469 28.4172 16.6737 28.444C16.7006 28.4709 16.7275 28.4709 16.7543 28.4709C16.808 28.4709 16.8349 28.4709 16.8886 28.444C16.9155 28.4172 16.9692 28.3634 16.996 28.3366C17.0229 28.2829 17.0498 28.256 17.0766 28.2023C17.1035 28.1486 17.1035 28.1217 17.1035 28.068C17.1035 28.068 17.1035 28.0411 17.1035 28.0143C17.1035 27.9874 17.1035 27.9606 17.1035 27.9606C17.1035 27.9337 17.1035 27.9068 17.1035 27.88C17.1035 27.8531 17.1035 27.8263 17.1035 27.7725C17.1035 27.6383 17.1303 27.504 17.1303 27.3428C17.1303 27.1816 17.1572 27.0205 17.1572 26.8593C17.1572 26.6982 17.1841 26.5639 17.1841 26.4833C17.1841 26.3759 17.1841 26.3222 17.1841 26.2953C17.7212 26.6176 18.2584 26.9131 18.7687 27.2085C19.3059 27.504 19.8163 27.7725 20.2997 27.9874C20.7832 28.2292 21.2667 28.4172 21.6964 28.5515C22.1261 28.6858 22.529 28.7932 22.8782 28.7932C22.9319 28.7932 22.9856 28.7932 23.0125 28.7932C23.0662 28.7932 23.0931 28.7932 23.1468 28.7932C23.2005 28.7932 23.2274 28.7932 23.2811 28.7932C23.3348 28.7932 23.3617 28.7932 23.4154 28.7663C23.4691 28.7663 23.5228 28.7395 23.6034 28.7126C23.6571 28.6858 23.7108 28.6589 23.7646 28.632C23.8183 28.6052 23.872 28.5783 23.8989 28.5515C23.9526 28.5246 23.9794 28.4709 24.0331 28.444C24.2749 28.1754 24.3823 27.7725 24.3823 27.2354C24.3823 26.725 24.248 26.1073 24.06 25.4089L24.0869 25.3284Z" fill="#FDC600"/>
<path d="M10.1463 12.0874C10.4149 12.0874 10.6566 12.168 10.8178 12.3291C10.9789 12.4903 11.0595 12.7051 11.0595 12.9737C11.0595 13.2692 10.9789 13.4841 10.7909 13.6452C10.6029 13.8064 10.3612 13.8869 10.0926 13.8869C9.42108 13.8869 9.07191 13.5915 9.07191 13.0006H8.07812V13.0812C8.07812 13.6184 8.26614 14.0212 8.61531 14.3167C8.99134 14.6121 9.4748 14.7464 10.0926 14.7464C10.6566 14.7464 11.1401 14.5853 11.5161 14.2898C11.919 13.9675 12.107 13.5378 12.107 12.9737C12.107 12.7857 12.0801 12.5977 11.9996 12.4365C11.9458 12.2754 11.8653 12.1411 11.8115 12.0337C11.731 11.9531 11.6504 11.8456 11.5698 11.7919C11.4624 11.7114 11.4087 11.6845 11.3549 11.6576C11.3012 11.6308 11.2744 11.6308 11.2475 11.6308L11.3281 11.6039C11.3818 11.5771 11.4355 11.5233 11.5161 11.4696C11.5967 11.389 11.6504 11.3085 11.731 11.2279C11.8116 11.1473 11.8653 11.013 11.919 10.8519C11.9727 10.6907 11.9996 10.5295 11.9996 10.3684C11.9996 9.85807 11.8384 9.48204 11.4892 9.18659C11.1401 8.89114 10.6835 8.75684 10.0926 8.75684C9.52852 8.75684 9.04506 8.89114 8.69589 9.18659C8.34672 9.48204 8.1587 9.85807 8.1587 10.3684V10.4221H9.12563C9.12563 10.1535 9.20621 9.93865 9.36737 9.80435C9.52852 9.67006 9.77025 9.58948 10.0657 9.58948C10.388 9.58948 10.6029 9.67006 10.764 9.80435C10.9252 9.93865 11.0058 10.1535 11.0058 10.3953C11.0058 10.6638 10.9252 10.8787 10.764 11.0399C10.6029 11.201 10.388 11.2816 10.1194 11.2816H9.12563V12.1411L10.1731 12.168L10.1463 12.0874ZM16.6193 14.639V13.7258H14.202L15.5987 12.356C15.9747 11.9799 16.2433 11.6576 16.3776 11.3622C16.5388 11.0399 16.5925 10.7444 16.5925 10.4221C16.5925 9.88493 16.4313 9.48204 16.0822 9.15973C15.7598 8.86428 15.2764 8.70312 14.6855 8.70312C14.0946 8.70312 13.6111 8.86428 13.2619 9.15973C12.9128 9.45518 12.7248 9.88493 12.7248 10.4221V10.4758H13.7186C13.7186 9.88493 14.0409 9.58948 14.6586 9.58948C15.2495 9.58948 15.545 9.88493 15.545 10.449C15.545 10.6638 15.4913 10.8787 15.3838 11.0936C15.2764 11.3085 15.1152 11.5233 14.8735 11.7651L12.8322 13.7526V14.6659H16.5925L16.6193 14.639Z" fill="#FDC600"/>
<path d="M9.50196 19.608V15.2031H8.7499V18.5605L7.00405 15.2031H5.92969V19.608H6.68174V16.2506L8.45445 19.608H9.52882H9.50196ZM10.8986 19.2051C10.8986 19.0977 10.8718 19.0171 10.7912 18.9365C10.7106 18.8828 10.6032 18.856 10.4957 18.856C10.3883 18.856 10.2809 18.8828 10.2003 18.9365C10.1197 18.9903 10.0929 19.0708 10.0929 19.2051V19.3394C10.0929 19.4469 10.1466 19.5275 10.2003 19.608C10.2809 19.6617 10.3883 19.6886 10.4957 19.6886C10.63 19.6886 10.7106 19.6617 10.7912 19.608C10.8718 19.5543 10.8986 19.4737 10.8986 19.3394V19.2051ZM14.068 18.4262H13.3697C13.3697 18.8291 13.1548 19.044 12.6982 19.044C12.2685 19.044 12.0536 18.8291 12.0536 18.3725V17.7279C12.0536 17.2713 12.2685 17.0564 12.6982 17.0564C13.1279 17.0564 13.3697 17.2713 13.3697 17.6742H14.068V17.6205C14.068 17.2444 13.9606 16.949 13.692 16.7341C13.4503 16.5192 13.1279 16.4118 12.6982 16.4118C12.2953 16.4118 11.973 16.5192 11.7313 16.7341C11.4895 16.949 11.3552 17.2444 11.3552 17.6473V18.4262C11.3552 18.8023 11.4895 19.0977 11.7313 19.3126C11.973 19.5275 12.2953 19.6349 12.6982 19.6349C13.1011 19.6349 13.4503 19.5275 13.692 19.3394C13.9337 19.1246 14.068 18.8291 14.068 18.4531V18.3994V18.4262ZM18.9027 19.608V17.4056C18.9027 17.1101 18.8221 16.8684 18.6609 16.7072C18.4998 16.5461 18.2849 16.4655 18.0163 16.4655C17.7746 16.4655 17.5328 16.5461 17.2911 16.6804L16.9419 16.8953C16.8077 16.6267 16.5659 16.4655 16.1899 16.4655C15.975 16.4655 15.7333 16.5192 15.5453 16.6535L15.2767 16.8147V16.4924H14.5783V19.608H15.3035V17.4593L15.6796 17.2176C15.8407 17.137 15.9482 17.1101 16.0556 17.1101C16.2705 17.1101 16.3779 17.2444 16.3779 17.4862V19.608H17.1031V17.4593L17.4791 17.2176C17.6403 17.137 17.7477 17.0833 17.8552 17.0833C18.07 17.0833 18.1775 17.2176 18.1775 17.4593V19.5812H18.9027V19.608Z" fill="#FDC600"/>
<path d="M21.1057 11.2818C24.0871 11.2818 26.5044 8.86444 26.5044 5.88307C26.5044 2.9017 24.0871 0.484375 21.1057 0.484375C18.1244 0.484375 15.707 2.9017 15.707 5.88307C15.707 8.86444 18.1244 11.2818 21.1057 11.2818Z" fill="#FDC600"/>
<path d="M21.1057 11.2818C24.0871 11.2818 26.5044 8.86443 26.5044 5.88307C26.5044 2.9017 24.0871 0.484375 21.1057 0.484375C18.1244 0.484375 15.707 2.9017 15.707 5.88307C15.707 8.86443 18.1244 11.2818 21.1057 11.2818Z" stroke="white" stroke-width="1.08511"/>
<path d="M23.0391 8.97442V8.38352H21.723V3.22656H21.0515C20.6486 3.60259 20.2457 3.87118 19.8428 3.97862V4.59638C20.2726 4.5158 20.7023 4.30093 21.0784 3.9249V8.38352H19.4131V8.97442H23.0659H23.0391Z" fill="#FEFEFE"/>
</svg>
