<svg width="20" height="21" viewBox="0 0 20 21" fill="none" xmlns="http://www.w3.org/2000/svg">
<path d="M9.89536 20.277C15.3689 20.277 19.7643 15.8816 19.7643 10.4081C19.7643 4.9345 15.3689 0.539062 9.89536 0.539062C4.4218 0.539062 0.0263672 4.9345 0.0263672 10.4081C0.0263672 15.8816 4.4218 20.277 9.89536 20.277Z" fill="#FDC600"/>
<path d="M10.0601 10.8173C10.7236 10.8173 11.2212 10.9832 11.5529 11.3149C11.9675 11.6466 12.1334 12.1442 12.1334 12.8077C12.1334 13.4712 11.8846 13.9687 11.47 14.3834C11.0553 14.7981 10.4748 14.9639 9.8113 14.9639C9.14784 14.9639 8.56731 14.7981 8.15264 14.4663C7.73798 14.1346 7.57212 13.72 7.57212 13.1394H6.32812V13.2224C6.32812 14.1346 6.65986 14.7981 7.24038 15.2957C7.82091 15.7933 8.65024 16.0421 9.72837 16.0421C10.6406 16.0421 11.47 15.7103 12.2163 15.1298C12.8798 14.5493 13.2945 13.72 13.2945 12.7248C13.2945 11.7296 12.9627 10.9832 12.3822 10.4026C11.8017 9.90505 10.9724 9.65625 10.0601 9.65625H7.98678V6.50481H12.8798V5.34375H6.90865V10.6514H10.0601V10.8173Z" fill="#FEFEFE"/>
</svg>
