<svg width="16" height="16" viewBox="0 0 16 16" fill="none" xmlns="http://www.w3.org/2000/svg">
<path d="M7.9884 15.0588C11.8775 15.0588 15.0373 11.899 15.0373 8.00989C15.0373 4.12081 11.8775 0.960938 7.9884 0.960938C4.09933 0.960938 0.939453 4.12081 0.939453 8.00989C0.939453 11.899 4.09933 15.0588 7.9884 15.0588Z" fill="#FDC600"/>
<path d="M8.35245 8.25714C8.83858 8.25714 9.20318 8.37867 9.44625 8.62174C9.68932 8.86481 9.81085 9.22941 9.81085 9.71554C9.81085 10.2017 9.68932 10.5663 9.32472 10.8093C8.96012 11.0524 8.59552 11.1739 8.10938 11.1739C7.62325 11.1739 7.25865 11.0524 6.89405 10.8093C6.65098 10.5663 6.52945 10.3232 6.52945 9.83708H5.67871V9.95861C5.67871 10.5663 5.92178 11.0524 6.40791 11.417C6.89405 11.7816 7.38018 11.9031 8.23092 11.9031C8.96012 11.9031 9.44625 11.6601 10.0539 11.2955C10.5401 10.8093 10.7831 10.3232 10.7831 9.59401C10.7831 8.86481 10.5401 8.37867 10.1755 7.89254C9.68932 7.52794 9.20318 7.28487 8.47398 7.28487H7.01558V4.97573H10.5401V4.125H6.16485V8.01407H8.35245V8.25714Z" fill="#FEFEFE"/>
</svg>
