<svg width="26" height="29" viewBox="0 0 26 29" fill="none" xmlns="http://www.w3.org/2000/svg">
<path d="M23.506 25.3934C23.2915 24.7071 23.0341 23.9779 22.6909 23.2057C22.3478 22.4336 21.9617 21.6615 21.5327 20.9322C21.4898 21.018 21.4041 21.1467 21.3612 21.2325C21.3183 21.3183 21.2325 21.447 21.1896 21.5328C21.1038 21.6186 21.0609 21.7044 20.9751 21.8331C20.8893 21.9189 20.8464 22.0046 20.7606 22.0904L20.6748 22.1762C20.7177 22.3478 20.8035 22.5623 20.8893 22.7768C20.9751 22.9913 21.0609 23.2486 21.1467 23.4631C21.2325 23.6776 21.2754 23.8921 21.3183 24.0637C21.3612 24.2352 21.3183 24.3639 21.2754 24.4497C21.2754 24.4926 21.2325 24.4926 21.1896 24.4926C21.1467 24.4926 21.1467 24.5355 21.1038 24.5355C21.0609 24.5355 21.0609 24.5355 21.018 24.5355C20.9751 24.5355 20.9322 24.5355 20.8893 24.5355C20.8464 24.5355 20.7606 24.5355 20.6748 24.4926C20.589 24.4926 20.5461 24.4497 20.4603 24.4497C20.3746 24.4068 20.2888 24.4068 20.203 24.3639C20.1172 24.321 20.0314 24.2781 19.9456 24.2352C19.8169 24.1923 19.6882 24.1066 19.5595 24.0637C19.4308 23.9779 19.3021 23.935 19.1735 23.8492C19.0448 23.7634 18.9161 23.6776 18.7445 23.5918C18.6158 23.506 18.4442 23.4202 18.3155 23.3344C18.8732 22.7768 19.4308 22.1762 19.9027 21.4899C20.3745 20.8465 20.8464 20.1601 21.2325 19.4309C21.6185 18.7016 21.9617 17.9724 22.262 17.2003C22.5623 16.4282 22.7767 15.656 22.9054 14.8839C23.2486 13.1252 23.2486 11.4522 22.9054 9.95085C22.6051 8.49238 21.9617 7.2055 21.1038 6.1331C20.2459 5.1036 19.1735 4.33147 17.9295 3.81671C16.6855 3.30196 15.3128 3.08748 13.8115 3.21617C12.8248 3.30196 11.8382 3.47355 10.8516 3.81671C9.90791 4.11699 8.9642 4.58884 8.10628 5.1036C7.24836 5.61835 6.39044 6.26179 5.61831 6.94813C4.84618 7.63446 4.11694 8.44949 3.4735 9.26451C3.30192 8.92135 3.13033 8.62107 3.04454 8.3637C2.91585 8.10632 2.83006 7.84894 2.78717 7.59157C2.74427 7.37709 2.70137 7.16261 2.74427 6.99102C2.74427 6.81944 2.83006 6.69075 2.91585 6.60496C2.95875 6.56206 3.00165 6.56206 3.04454 6.51917C3.08744 6.47627 3.13033 6.47627 3.21613 6.43337C3.25902 6.39048 3.34481 6.39048 3.43061 6.39048C3.5164 6.39048 3.5593 6.34758 3.64509 6.34758C3.73088 6.34758 3.81667 6.34758 3.90246 6.34758C3.98826 6.34758 4.11694 6.39048 4.20274 6.43337C4.28853 6.47627 4.41722 6.51917 4.50301 6.56206C4.5888 6.60496 4.71749 6.69075 4.80328 6.77654C4.88907 6.64785 5.01776 6.56206 5.10355 6.43337C5.18935 6.30469 5.31803 6.21889 5.44672 6.1331C5.57541 6.04731 5.6612 5.91862 5.78989 5.83283C5.91858 5.74704 6.04727 5.66124 6.17595 5.57545C6.17595 5.57545 6.17595 5.57545 6.21885 5.57545C6.21885 5.57545 6.21885 5.57545 6.26175 5.53256C6.26175 5.53256 6.26175 5.53256 6.30464 5.53256C6.30464 5.53256 6.30464 5.53256 6.34754 5.53256C6.13306 5.31808 5.87568 5.14649 5.61831 5.0178C5.36093 4.88912 5.10355 4.76043 4.84618 4.71753C4.5888 4.63174 4.33142 4.58884 4.07405 4.54595C3.81667 4.50305 3.5593 4.50305 3.34482 4.54595C3.17323 4.54595 3.00165 4.58884 2.87296 4.58884C2.74427 4.63174 2.57269 4.67464 2.444 4.71753C2.31531 4.76043 2.18662 4.80332 2.10083 4.88912C2.01504 4.93201 1.92924 5.0178 1.84345 5.1036C1.62897 5.31808 1.54318 5.61835 1.45739 5.96152C1.41449 6.30469 1.41449 6.69075 1.50028 7.16261C1.58608 7.63446 1.75766 8.10632 1.97214 8.66397C2.18662 9.22162 2.48689 9.82216 2.78717 10.4656C2.57269 10.8088 2.35821 11.1948 2.14373 11.538C1.92924 11.9241 1.75766 12.3101 1.58608 12.6962C1.41449 13.0823 1.24291 13.4683 1.11422 13.8973C0.985532 14.2834 0.856844 14.7123 0.728155 15.1413C0.299195 16.7284 0.170507 18.2727 0.342091 19.6883C0.470779 21.1467 0.89974 22.4336 1.54318 23.5918C2.18662 24.75 3.13033 25.7366 4.24563 26.4229C5.40383 27.1522 6.7765 27.5811 8.32076 27.6669C8.79261 27.7098 9.26447 27.7098 9.69343 27.6669C10.1653 27.624 10.6371 27.5811 11.109 27.4524C11.5809 27.3667 12.0527 27.238 12.5246 27.0664C12.9964 26.8948 13.4683 26.7232 13.8972 26.5087L12.7819 24.4497C12.4817 24.5784 12.1385 24.7071 11.7953 24.7929C11.4522 24.8787 11.1519 24.9645 10.8087 25.0074C10.4656 25.0503 10.1653 25.0932 9.82212 25.1361C9.47895 25.179 9.17868 25.179 8.83551 25.1361C7.59153 25.0932 6.47623 24.75 5.53251 24.1494C4.6317 23.5918 3.85957 22.8197 3.30192 21.9189C2.74427 21.018 2.4011 19.9456 2.27241 18.7874C2.14373 17.6292 2.22952 16.3853 2.57269 15.0984C2.91585 13.8115 3.43061 12.5675 4.15984 11.4522C4.84618 10.3369 5.7041 9.30741 6.64781 8.44949C7.59153 7.59157 8.66393 6.86233 9.82212 6.34758C10.9803 5.83283 12.1814 5.48966 13.3825 5.44676C14.6265 5.36097 15.7418 5.57545 16.7284 6.00441C17.715 6.43337 18.5729 7.07681 19.2593 7.93474C19.9456 8.79266 20.4174 9.82216 20.6748 11.0233C20.9322 12.2243 20.9322 13.5541 20.6319 14.9697C20.5032 15.6131 20.3317 16.2137 20.1172 16.8142C19.9027 17.4148 19.6024 18.0153 19.3021 18.573C19.0019 19.1306 18.6587 19.6883 18.2726 20.203C17.8866 20.7178 17.4576 21.1896 17.0287 21.6615C17.0287 21.5328 17.0287 21.3612 17.0716 21.1896C17.0716 21.018 17.0716 20.8893 17.1145 20.7178C17.1145 20.5891 17.1145 20.4604 17.1145 20.3317C17.1145 20.203 17.1145 20.1172 17.1145 20.0743C17.1145 20.0314 17.1145 19.9456 17.1145 19.9456C17.1145 19.9027 17.0716 19.8598 17.0716 19.8598C17.0716 19.8169 17.0287 19.8169 17.0287 19.8169C16.9858 19.8169 16.9858 19.8169 16.9429 19.8169C16.9 19.8169 16.9 19.8169 16.9 19.8169H16.8571H16.8142L12.9535 21.0609C12.9535 21.0609 12.9106 21.0609 12.8677 21.1038C12.8248 21.1038 12.7819 21.1467 12.7391 21.1896C12.6962 21.2325 12.6533 21.3183 12.6533 21.4041C12.6533 21.4899 12.6533 21.5757 12.7391 21.7044C12.7391 21.7044 12.7391 21.7044 12.7391 21.7473C12.7391 21.7473 12.7391 21.7473 12.7391 21.7902C12.7391 21.7902 12.7391 21.7902 12.7391 21.8331C12.7391 21.8331 12.7391 21.8331 12.7391 21.876C12.9106 22.2191 13.168 22.691 13.4254 23.2486C13.7257 23.8063 14.0259 24.4068 14.3691 24.9645C14.6694 25.565 15.0125 26.1656 15.2699 26.6374C15.5273 27.1522 15.7847 27.5811 15.9134 27.8385C15.9134 27.8814 15.9563 27.8814 15.9563 27.9243L15.9992 27.9672C15.9992 27.9672 15.9992 28.0101 16.042 28.0101C16.042 28.0101 16.042 28.053 16.0849 28.053C16.1278 28.1388 16.1707 28.1817 16.1707 28.2246C16.2136 28.2675 16.2565 28.3104 16.2565 28.3533C16.2994 28.3962 16.2994 28.3962 16.3423 28.4391C16.3852 28.4391 16.3852 28.4391 16.4281 28.4819C16.471 28.4819 16.5139 28.4819 16.5568 28.4391C16.5997 28.3962 16.6426 28.3533 16.6426 28.3104C16.6855 28.2675 16.6855 28.2246 16.7284 28.1817C16.7284 28.1388 16.7713 28.0959 16.7713 28.053V28.0101C16.7713 28.0101 16.7713 27.9672 16.7713 27.9243C16.7713 27.8814 16.7713 27.8814 16.7713 27.8385C16.7713 27.7956 16.7713 27.7956 16.7713 27.7527C16.7713 27.624 16.7713 27.4524 16.8142 27.3238C16.8142 27.1522 16.8142 27.0235 16.8571 26.8519C16.8571 26.7232 16.8571 26.5516 16.8571 26.4658C16.8571 26.38 16.8571 26.2942 16.8571 26.2942C17.3718 26.5945 17.9295 26.9377 18.4442 27.1951C18.959 27.4953 19.4737 27.7527 19.9885 27.9672C20.5032 28.1817 20.9751 28.3962 21.4041 28.5248C21.833 28.6535 22.262 28.7393 22.6051 28.7822C22.648 28.7822 22.6909 28.7822 22.7338 28.7822C22.7767 28.7822 22.8196 28.7822 22.8625 28.7822C22.9054 28.7822 22.9483 28.7822 22.9912 28.7822C23.0341 28.7822 23.077 28.7822 23.1199 28.7822C23.1628 28.7822 23.2486 28.7393 23.2915 28.7393C23.3344 28.7393 23.4202 28.6964 23.4631 28.6535C23.506 28.6106 23.5489 28.6106 23.5918 28.5677C23.6347 28.5248 23.6775 28.4819 23.7204 28.4391C23.9778 28.1817 24.0636 27.7527 24.0636 27.238C24.0636 26.7232 23.9349 26.1227 23.7204 25.4363L23.506 25.3934Z" fill="#FDC600"/>
<path d="M11.5803 14.7596V13.8588H10.2934V8.88281H9.3497C8.96364 9.26888 8.53468 9.52625 8.06282 9.65494V10.5987C8.2773 10.5558 8.53468 10.47 8.74916 10.3842C8.96364 10.2555 9.17812 10.1268 9.30681 9.99811V13.8588H7.67676V14.7596H11.5803ZM15.2265 12.9579C15.2265 13.2582 15.1407 13.5156 14.9262 13.6872C14.7546 13.8588 14.4972 13.9445 14.197 13.9445C13.5535 13.9445 13.2103 13.6443 13.2103 13.0866H12.1808V13.1724C12.1808 13.7301 12.3524 14.1161 12.7385 14.4164C13.0817 14.7167 13.5964 14.8454 14.197 14.8454C14.7546 14.8454 15.2265 14.6738 15.6554 14.3306C16.0415 13.9874 16.256 13.5156 16.256 12.9579C16.256 12.4003 16.0844 11.9284 15.7412 11.6282C15.398 11.3279 14.9262 11.1992 14.3685 11.1992H13.4677V9.82653H16.0844V8.88281H12.524V12.0142H14.3256C14.6259 12.0142 14.8833 12.1 15.0549 12.2716C15.2265 12.4432 15.3123 12.6577 15.3123 12.9579V13.0008L15.2265 12.9579Z" fill="#FDC600"/>
<path d="M8.96467 19.6917V15.2734H8.23544V18.6193L6.4767 15.2734H5.4043V19.6917H6.13353V16.3458L7.89227 19.6917H8.96467ZM10.3802 19.2628C10.3802 19.1341 10.3373 19.0483 10.2516 19.0054C10.1658 18.9625 10.08 18.9196 9.95128 18.9196C9.82259 18.9196 9.7368 18.9625 9.65101 19.0054C9.56521 19.0483 9.52232 19.1341 9.52232 19.2628V19.3915C9.52232 19.5201 9.56521 19.6059 9.65101 19.6488C9.7368 19.6917 9.82259 19.7346 9.95128 19.7346C10.08 19.7346 10.1658 19.6917 10.2516 19.6488C10.3373 19.6059 10.3802 19.5201 10.3802 19.3915V19.2628ZM13.5545 18.4906H12.8682C12.8682 18.9196 12.6537 19.0912 12.2248 19.0912C11.7958 19.0912 11.5813 18.8767 11.5813 18.4477V17.8043C11.5813 17.3753 11.7958 17.1609 12.2248 17.1609C12.6537 17.1609 12.8682 17.3753 12.8682 17.8043H13.5545V17.7614C13.5545 17.3753 13.4259 17.0751 13.2114 16.8606C12.954 16.6461 12.6537 16.5603 12.2248 16.5603C11.7958 16.5603 11.4955 16.689 11.2382 16.9035C10.9808 17.118 10.8521 17.4182 10.8521 17.8043V18.5764C10.8521 18.9625 10.9808 19.2628 11.2382 19.4773C11.4955 19.6917 11.7958 19.7775 12.2248 19.7775C12.6537 19.7775 12.954 19.6917 13.2114 19.4773C13.4688 19.2628 13.5974 18.9625 13.5974 18.5764V18.5335L13.5545 18.4906ZM18.3589 19.6917V17.504C18.3589 17.2038 18.2731 16.9893 18.1444 16.8177C17.9728 16.6461 17.7584 16.5603 17.501 16.5603C17.2436 16.5603 17.0291 16.6461 16.7718 16.7748L16.4286 16.9893C16.2999 16.7319 16.0425 16.5603 15.6994 16.5603C15.4849 16.5603 15.2704 16.6461 15.0559 16.7319L14.7985 16.9035V16.5603H14.1122V19.6917H14.8414V17.5469L15.2275 17.3324C15.3562 17.2467 15.4849 17.2038 15.6136 17.2038C15.828 17.2038 15.9567 17.3324 15.9567 17.5898V19.6917H16.686V17.5469L17.072 17.3324C17.2007 17.2467 17.3294 17.2038 17.4581 17.2038C17.6726 17.2038 17.8013 17.3324 17.8013 17.5898V19.6917H18.5305H18.3589Z" fill="#FDC600"/>
<path d="M20.5455 11.4114C23.5054 11.4114 25.9504 9.00919 25.9504 6.00647C25.9504 3.04664 23.5483 0.601562 20.5455 0.601562C17.5857 0.601562 15.1406 3.00374 15.1406 6.00647C15.1406 8.96629 17.5428 11.4114 20.5455 11.4114Z" fill="#FDC600"/>
<path d="M20.5455 11.4114C23.5054 11.4114 25.9504 9.00919 25.9504 6.00647C25.9504 3.04664 23.5483 0.601562 20.5455 0.601562C17.5857 0.601562 15.1406 3.00374 15.1406 6.00647C15.1406 8.96629 17.5428 11.4114 20.5455 11.4114Z" stroke="white" stroke-width="1.28688"/>
<path d="M22.4765 9.08784V8.4444H19.8599L21.5328 6.77146C21.876 6.42829 22.1334 6.08512 22.2621 5.78485C22.3907 5.48457 22.4765 5.1843 22.4765 4.88403C22.4765 4.41217 22.3478 4.02611 22.0476 3.72584C21.7473 3.42556 21.3183 3.29688 20.7607 3.29688C20.2459 3.29688 19.817 3.42556 19.4738 3.72584C19.1306 3.98321 19.002 4.36928 19.002 4.84113V4.88403H19.6454C19.6454 4.54086 19.7312 4.32638 19.9457 4.1548C20.1601 3.98321 20.4175 3.89742 20.7607 3.89742C21.1468 3.89742 21.4041 3.98321 21.5757 4.1548C21.7473 4.32638 21.8331 4.58376 21.8331 4.88403C21.8331 5.14141 21.7902 5.35589 21.6615 5.61326C21.5328 5.82774 21.3612 6.08512 21.1039 6.38539L19.0877 8.4873V9.08784H22.5194H22.4765Z" fill="#FEFEFE"/>
</svg>
