<svg width="33" height="35" viewBox="0 0 33 35" fill="none" xmlns="http://www.w3.org/2000/svg">
<path d="M29.0587 30.6759C28.7996 29.8553 28.4541 28.9483 28.0222 27.9982C27.5903 27.0912 27.1152 26.141 26.5969 25.1908C26.5105 25.3204 26.4673 25.45 26.3809 25.5795C26.2946 25.7091 26.2082 25.8387 26.165 25.925C26.0786 26.0546 25.9922 26.141 25.9058 26.2706C25.8195 26.4001 25.7331 26.4865 25.6467 26.6161C25.6467 26.6161 25.6467 26.6161 25.6467 26.6593C25.6467 26.6593 25.6467 26.6593 25.6467 26.7025C25.6467 26.7025 25.6467 26.7025 25.6467 26.7457L25.5603 26.832C25.6467 27.048 25.7331 27.3071 25.8195 27.5663C25.9058 27.8254 26.0354 28.1277 26.1218 28.4301C26.2082 28.6892 26.2946 28.9915 26.3377 29.2075C26.3809 29.4234 26.3377 29.5962 26.2946 29.6826C26.2514 29.7258 26.2514 29.7258 26.2082 29.769C26.165 29.769 26.1218 29.8121 26.1218 29.8121C26.0786 29.8121 26.0354 29.8121 25.9922 29.8553C25.949 29.8553 25.9058 29.8553 25.8627 29.8553C25.7763 29.8553 25.6899 29.8553 25.6035 29.8121C25.5171 29.8121 25.4308 29.769 25.3012 29.7258C25.2148 29.6826 25.0852 29.6394 24.9989 29.5962C24.8693 29.553 24.7829 29.5098 24.6533 29.4666C24.5238 29.3802 24.351 29.3371 24.1782 29.2507C24.0055 29.1643 23.8759 29.0779 23.7032 28.9915C23.5304 28.9052 23.3576 28.7756 23.1849 28.6892C23.0121 28.6028 22.8394 28.4733 22.6666 28.3437C23.3576 27.6526 24.0487 26.8752 24.6533 26.0978C25.258 25.3204 25.8195 24.4566 26.2946 23.5928C26.7696 22.729 27.2015 21.822 27.5471 20.8718C27.8926 19.9216 28.1517 18.9714 28.3677 18.0213C28.7996 15.8186 28.7996 13.7886 28.3677 11.9315C27.979 10.1175 27.2015 8.56265 26.165 7.26694C25.1284 6.01443 23.7895 5.02106 22.2779 4.4164C20.7662 3.81174 19.0386 3.50941 17.1815 3.63898C15.9721 3.72536 14.7628 3.9845 13.5535 4.37321C12.3874 4.76192 11.2212 5.2802 10.1415 5.97124C9.06173 6.61909 8.02517 7.39651 7.07499 8.26032C6.1248 9.12412 5.21781 10.0743 4.44039 11.1109C4.22444 10.7221 4.05168 10.3334 3.92211 9.98792C3.79254 9.6424 3.66297 9.34007 3.61978 9.08093C3.57659 8.82179 3.5334 8.56265 3.57659 8.3467C3.57659 8.13075 3.66297 8.00118 3.74935 7.87161C3.79254 7.82842 3.83573 7.78523 3.87892 7.74204C3.92211 7.69885 4.00849 7.65566 4.09487 7.65566C4.18125 7.61247 4.26763 7.61247 4.35401 7.56928C4.44039 7.56928 4.52677 7.52609 4.65634 7.52609C4.74272 7.52609 4.87229 7.52609 5.00186 7.52609C5.13143 7.52609 5.261 7.56928 5.34738 7.61247C5.47695 7.65566 5.60652 7.69885 5.73609 7.78523C5.86566 7.87161 5.99523 7.95799 6.1248 8.08756C6.25437 7.95799 6.38394 7.78523 6.51351 7.65566C6.64308 7.52609 6.77265 7.39651 6.90222 7.26694C7.03179 7.13737 7.16136 7.0078 7.33413 6.92142C7.4637 6.79185 7.63646 6.70547 7.80922 6.5759C7.80922 6.5759 7.85241 6.5759 7.85241 6.53271C7.85241 6.53271 7.8956 6.53271 7.8956 6.48952C7.8956 6.48952 7.93879 6.48952 7.93879 6.44633C7.93879 6.44633 7.98198 6.44633 7.98198 6.40314C7.72284 6.144 7.42051 5.97124 7.11818 5.79848C6.81584 5.62572 6.47032 5.49615 6.16799 5.40977C5.86566 5.32339 5.52014 5.23701 5.21781 5.23701C4.91548 5.19382 4.61315 5.19382 4.31082 5.23701C4.09487 5.23701 3.92211 5.2802 3.70616 5.32339C3.5334 5.36658 3.36064 5.40977 3.18788 5.45296C3.01512 5.49615 2.88555 5.58253 2.75598 5.66891C2.62641 5.75529 2.54003 5.84167 2.45365 5.92805C2.19451 6.18719 2.06494 6.53271 1.97856 6.96461C1.89218 7.39652 1.93537 7.87161 2.02175 8.43308C2.10813 8.99455 2.32408 9.59921 2.58322 10.2902C2.84236 10.9813 3.18788 11.7155 3.61978 12.4929C3.31745 12.9248 3.05831 13.3999 2.79917 13.8318C2.54003 14.3069 2.32408 14.782 2.10813 15.2571C1.89218 15.7322 1.67623 16.2073 1.50347 16.7256C1.33071 17.2438 1.15795 17.7189 1.02838 18.2372C0.510098 20.1808 0.337337 22.0811 0.510098 23.8519C0.682858 25.6227 1.20114 27.2639 1.97856 28.646C2.79917 30.0713 3.92211 31.2806 5.30419 32.1444C6.72946 33.0514 8.41388 33.5697 10.3142 33.6993C10.8757 33.7424 11.4372 33.7424 12.0418 33.6993C12.6033 33.6561 13.208 33.5697 13.7694 33.4401C14.3309 33.3105 14.9356 33.181 15.497 32.965C16.0585 32.7923 16.62 32.5331 17.1815 32.274L15.8426 29.7258C15.4539 29.8985 15.0651 30.0281 14.6332 30.1577C14.2445 30.2872 13.8126 30.3736 13.4239 30.46C13.0352 30.5464 12.6033 30.5896 12.2146 30.6328C11.8259 30.6759 11.394 30.6759 11.0053 30.6328C9.45044 30.5464 8.11155 30.1577 6.94541 29.4234C5.82247 28.7324 4.87229 27.7822 4.22444 26.6593C3.57659 25.5363 3.14469 24.2406 2.97193 22.7722C2.79917 21.3469 2.92874 19.8352 3.36064 18.194C3.74935 16.596 4.44039 15.0843 5.30419 13.7023C6.16799 12.3202 7.20455 11.0677 8.37069 10.0311C9.53682 8.95136 10.8757 8.08756 12.2578 7.4397C13.6399 6.79185 15.1515 6.40314 16.62 6.31676C18.1316 6.23038 19.5137 6.48952 20.723 6.96461C21.9324 7.4829 23.0121 8.30351 23.8327 9.34007C24.6533 10.3766 25.258 11.6723 25.5603 13.1408C25.8627 14.6093 25.8627 16.2505 25.5171 18.0213C25.3444 18.7987 25.1284 19.5329 24.8693 20.2671C24.6101 21.0014 24.2646 21.7356 23.8759 22.4267C23.4872 23.1177 23.0553 23.7655 22.5802 24.4134C22.1051 25.0612 21.5868 25.6227 21.0686 26.1842C21.0686 26.0114 21.0686 25.7955 21.1118 25.6227C21.1118 25.45 21.1117 25.234 21.1549 25.0612C21.1549 24.8885 21.1549 24.7157 21.1549 24.5862C21.1549 24.4566 21.1549 24.327 21.1549 24.2406C21.1549 24.1543 21.1549 24.1111 21.1549 24.0679C21.1549 24.0247 21.1118 23.9815 21.1118 23.9383C21.0686 23.8951 21.0686 23.8951 21.0254 23.8951C20.9822 23.8951 20.9822 23.8951 20.939 23.8951C20.8958 23.8951 20.8958 23.8951 20.8526 23.8951C20.8094 23.8951 20.8094 23.8951 20.8094 23.8951H20.7662L16.0153 25.45C16.0153 25.45 15.9721 25.45 15.9289 25.4931C15.8858 25.5363 15.7994 25.5363 15.7562 25.6227C15.713 25.6659 15.6698 25.7523 15.6698 25.8819C15.6698 25.9682 15.6698 26.0978 15.7562 26.2706C15.7562 26.2706 15.7562 26.2706 15.7562 26.3138C15.7562 26.3138 15.7562 26.3138 15.7562 26.3569C15.7562 26.3569 15.7562 26.3569 15.7562 26.4001C15.7562 26.4001 15.7562 26.4001 15.7562 26.4433C15.9721 26.8752 16.2745 27.4367 16.62 28.1277C16.9655 28.7756 17.3542 29.5098 17.7429 30.244C18.1316 30.9783 18.5203 31.7125 18.8659 32.3172C19.2114 32.965 19.4705 33.4833 19.6433 33.7856C19.6433 33.8288 19.6865 33.8288 19.6865 33.872C19.6865 33.9152 19.7297 33.9152 19.7297 33.9584C19.7297 34.0016 19.7729 34.0016 19.7729 34.0016C19.7729 34.0016 19.7729 34.0448 19.816 34.0448C19.8592 34.1312 19.9024 34.2175 19.9456 34.2607C19.9888 34.3039 20.032 34.3471 20.0752 34.3903C20.1184 34.4335 20.1616 34.4335 20.2048 34.4767C20.2479 34.4767 20.2911 34.5199 20.2911 34.5199C20.3343 34.5199 20.4207 34.5199 20.4639 34.4767C20.5071 34.4335 20.5503 34.3903 20.5935 34.3471C20.6367 34.3039 20.6367 34.2175 20.6798 34.1743C20.6798 34.1312 20.723 34.0448 20.723 34.0016V33.9584C20.723 33.9152 20.723 33.9152 20.723 33.872C20.723 33.8288 20.723 33.7856 20.723 33.7856C20.723 33.7424 20.723 33.6993 20.723 33.6561C20.723 33.4833 20.723 33.3105 20.7662 33.0946C20.7662 32.8786 20.7662 32.7059 20.8094 32.5331C20.8094 32.3604 20.8094 32.1876 20.8526 32.058C20.8526 31.9285 20.8526 31.8421 20.8526 31.8421C21.5005 32.2308 22.1483 32.6195 22.7962 32.965C23.444 33.3105 24.0919 33.6561 24.6965 33.9152C25.3012 34.2175 25.9058 34.4335 26.4241 34.6062C26.9424 34.779 27.4607 34.9086 27.8926 34.9086C27.9358 34.9086 28.0222 34.9086 28.0653 34.9086C28.1085 34.9086 28.1949 34.9086 28.2381 34.9086C28.2813 34.9086 28.3677 34.9086 28.4109 34.9086C28.4541 34.9086 28.4972 34.9086 28.5836 34.8654C28.67 34.8654 28.7132 34.8222 28.7996 34.8222C28.886 34.779 28.9291 34.779 29.0155 34.7358C29.0587 34.6926 29.1451 34.6494 29.1883 34.6062C29.2315 34.5631 29.2747 34.5199 29.361 34.4767C29.6634 34.1312 29.7929 33.6561 29.7929 33.0082C29.7929 32.3604 29.6634 31.6261 29.4042 30.7623L29.0587 30.6759Z" fill="#FDC600"/>
<path d="M14.374 17.5923V16.4694H12.8191V10.3364H11.653C11.1779 10.8115 10.6164 11.1138 10.0549 11.2866V12.4527C10.3573 12.4095 10.6164 12.3231 10.9187 12.1504C11.2211 12.0208 11.437 11.848 11.6098 11.6753V16.4262H9.62305V17.5491H14.4171L14.374 17.5923ZM20.0318 12.4527C20.0318 11.8048 19.8159 11.2434 19.3408 10.8547C18.8657 10.4659 18.3042 10.25 17.57 10.25C16.8358 10.25 16.2311 10.4659 15.7992 10.8547C15.3241 11.2434 15.1082 11.7617 15.1082 12.4527V15.5192C15.1082 16.167 15.3241 16.6853 15.7992 17.1172C16.2743 17.5059 16.8358 17.7219 17.57 17.7219C18.3042 17.7219 18.9089 17.5059 19.3408 17.1172C19.7727 16.7285 20.0318 16.167 20.0318 15.5192V12.4959V12.4527ZM18.7793 15.3896C18.7793 15.7783 18.693 16.0807 18.477 16.2966C18.2611 16.5126 17.9587 16.5989 17.6132 16.5989C17.2245 16.5989 16.9654 16.5126 16.7494 16.2966C16.5335 16.0807 16.4471 15.7783 16.4471 15.3896V12.4959C16.4471 12.1072 16.5335 11.8048 16.7494 11.5889C16.9654 11.3729 17.2677 11.2866 17.6564 11.2866C18.0451 11.2866 18.3474 11.3729 18.5634 11.5889C18.7793 11.8048 18.8657 12.1072 18.8657 12.4959L18.8225 15.3896H18.7793Z" fill="#FDC600"/>
<path d="M11.1349 23.6878V18.2891H10.2279V22.4353L8.06838 18.2891H6.72949V23.6878H7.63648V19.5848L9.79599 23.6878H11.0917H11.1349ZM12.8625 23.1695C12.8625 23.04 12.8193 22.9104 12.7329 22.8672C12.6465 22.7808 12.517 22.7376 12.3442 22.7376C12.2146 22.7376 12.0851 22.7808 11.9987 22.8672C11.9123 22.9536 11.8691 23.04 11.8691 23.1695V23.3423C11.8691 23.4719 11.9123 23.6014 11.9987 23.6446C12.0851 23.731 12.2146 23.7742 12.3442 23.7742C12.517 23.7742 12.6033 23.731 12.7329 23.6446C12.8193 23.5582 12.8625 23.4719 12.8625 23.3423V23.1695ZM16.7496 22.2194H15.8858C15.8858 22.7376 15.6266 22.9968 15.0652 22.9968C14.5469 22.9968 14.2878 22.7376 14.2878 22.1762V21.3556C14.2878 20.7941 14.5469 20.5349 15.0652 20.5349C15.5835 20.5349 15.8858 20.7941 15.8858 21.3124H16.7496V21.226C16.7496 20.7509 16.62 20.4054 16.3177 20.1462C16.0154 19.8871 15.6266 19.7575 15.1084 19.7575C14.5901 19.7575 14.2014 19.8871 13.899 20.1462C13.5967 20.4054 13.4671 20.7941 13.4671 21.2692V22.2194C13.4671 22.6944 13.6399 23.04 13.899 23.2991C14.2014 23.5582 14.5901 23.6878 15.1084 23.6878C15.6266 23.6878 16.0154 23.5582 16.3177 23.2991C16.62 23.04 16.7496 22.6944 16.7496 22.2194ZM22.6666 23.6878V20.9668C22.6666 20.5781 22.5802 20.319 22.3643 20.103C22.1915 19.8871 21.9324 19.8007 21.5869 19.8007C21.2845 19.8007 20.9822 19.8871 20.7231 20.0599L20.2912 20.319C20.1184 19.9735 19.8161 19.8007 19.3842 19.8007C19.125 19.8007 18.8227 19.8871 18.5636 20.0167L18.218 20.2326V19.8439H17.3542V23.6878H18.218V21.0532L18.6931 20.7509C18.8659 20.6645 19.0387 20.6213 19.1682 20.6213C19.4274 20.6213 19.5569 20.7941 19.5569 21.0964V23.6878H20.4207V21.0532L20.8958 20.7509C21.0686 20.6645 21.2413 20.5781 21.3709 20.5781C21.6301 20.5781 21.7596 20.7509 21.7596 21.0532V23.6446H22.6666V23.6878Z" fill="#FDC600"/>
<path d="M25.4315 13.4432C29.1027 13.4432 32.0828 10.463 32.0828 6.79189C32.0828 3.12074 29.1027 0.140625 25.4315 0.140625C21.7604 0.140625 18.7803 3.12074 18.7803 6.79189C18.7803 10.463 21.7604 13.4432 25.4315 13.4432Z" fill="#FDC600"/>
<path d="M25.4315 13.4432C29.1027 13.4432 32.0828 10.463 32.0828 6.79189C32.0828 3.12074 29.1027 0.140625 25.4315 0.140625C21.7604 0.140625 18.7803 3.12074 18.7803 6.79189C18.7803 10.463 21.7604 13.4432 25.4315 13.4432Z" stroke="white" stroke-width="1.12294"/>
<path d="M25.7327 7.36322C26.1646 7.36322 26.4669 7.49279 26.726 7.70874C26.9852 7.9247 27.1147 8.27021 27.1147 8.65893C27.1147 9.09083 26.9852 9.39316 26.726 9.6523C26.4669 9.86825 26.1214 9.99782 25.6895 9.99782C25.2144 9.99782 24.8257 9.91144 24.5665 9.69549C24.3074 9.47954 24.1778 9.17721 24.1778 8.74531H23.4004V8.83169C23.4004 9.43635 23.6163 9.86825 24.0051 10.2138C24.437 10.5593 24.9984 10.732 25.6895 10.732C26.2941 10.732 26.8556 10.5593 27.2875 10.1706C27.7626 9.78187 27.9785 9.30678 27.9785 8.65893C27.9785 8.39979 27.9353 8.18384 27.849 7.96789C27.7626 7.75194 27.6762 7.57917 27.5898 7.49279C27.5034 7.36322 27.3739 7.27684 27.2443 7.19046C27.1147 7.10408 27.0284 7.06089 26.9852 7.0177C26.942 7.0177 26.8988 6.97451 26.8556 6.97451L26.942 6.93132C27.0284 6.88813 27.0715 6.84494 27.2011 6.75856C27.2875 6.67218 27.3739 6.5858 27.5034 6.45623C27.5898 6.32666 27.6762 6.19709 27.7626 6.02433C27.849 5.85157 27.849 5.63562 27.849 5.41967C27.849 4.8582 27.6762 4.4263 27.2875 4.08078C26.8988 3.73526 26.3805 3.5625 25.6895 3.5625C25.0416 3.5625 24.5233 3.73526 24.1346 4.03759C23.7459 4.33992 23.53 4.81501 23.53 5.33329V5.37648H24.3074C24.3074 4.98777 24.437 4.72863 24.6961 4.51268C24.9552 4.29673 25.3008 4.21035 25.7327 4.21035C26.1646 4.21035 26.5101 4.29673 26.7692 4.51268C26.9852 4.72863 27.1147 5.03096 27.1147 5.37648C27.1147 5.76519 26.9852 6.11071 26.726 6.32666C26.4669 6.54261 26.1646 6.67218 25.7758 6.67218H24.6961V7.36322H25.819H25.7327Z" fill="#FEFEFE"/>
</svg>
