<svg width="16" height="15" viewBox="0 0 16 15" fill="none" xmlns="http://www.w3.org/2000/svg">
<path d="M7.9884 14.176C11.8775 14.176 15.0373 11.0161 15.0373 7.12707C15.0373 3.238 11.8775 0.078125 7.9884 0.078125C4.09933 0.078125 0.939453 3.238 0.939453 7.12707C0.939453 11.0161 4.09933 14.176 7.9884 14.176Z" fill="#FDC600"/>
<path d="M8.35245 7.37433C8.83858 7.37433 9.20318 7.49586 9.44625 7.73893C9.68932 7.982 9.81085 8.3466 9.81085 8.83273C9.81085 9.31887 9.68932 9.68347 9.32472 9.92653C8.96012 10.1696 8.59552 10.2911 8.10938 10.2911C7.62325 10.2911 7.25865 10.1696 6.89405 9.92653C6.65098 9.68347 6.52945 9.4404 6.52945 8.95427H5.67871V9.0758C5.67871 9.68347 5.92178 10.1696 6.40791 10.5342C6.89405 10.8988 7.38018 11.0203 8.23092 11.0203C8.96012 11.0203 9.44625 10.7773 10.0539 10.4127C10.5401 9.92653 10.7831 9.4404 10.7831 8.7112C10.7831 7.982 10.5401 7.49586 10.1755 7.00973C9.68932 6.64513 9.20318 6.40206 8.47398 6.40206H7.01558V4.09292H10.5401V3.24219H6.16485V7.13126H8.35245V7.37433Z" fill="#FEFEFE"/>
</svg>
