<svg width="28" height="30" viewBox="0 0 28 30" fill="none" xmlns="http://www.w3.org/2000/svg">
<path d="M24.98 25.6268C24.7666 24.9255 24.4921 24.1632 24.1263 23.3704C23.7909 22.6082 23.364 21.7849 22.9371 21.0227C22.8761 21.1141 22.8152 21.2361 22.7542 21.3276C22.6932 21.419 22.6322 21.541 22.5407 21.6325C22.4798 21.7239 22.3883 21.8154 22.3273 21.9374C22.2663 22.0289 22.1749 22.1203 22.1139 22.2118C22.1139 22.2118 22.1139 22.2118 22.1139 22.2423C22.1139 22.2423 22.1139 22.2423 22.0834 22.2728C22.0834 22.2728 22.0834 22.2728 22.0529 22.3033C22.0529 22.3033 22.0529 22.3033 22.0224 22.3338L21.9614 22.3947C22.0224 22.5777 22.0834 22.7911 22.1749 23.0046C22.2663 23.2485 22.3578 23.4924 22.4188 23.7058C22.4798 23.9498 22.5712 24.1632 22.5712 24.3461C22.6017 24.5291 22.6017 24.6815 22.5103 24.7425C22.4798 24.773 22.4493 24.773 22.4493 24.8035C22.4188 24.834 22.3883 24.834 22.3578 24.834C22.3273 24.834 22.2968 24.8645 22.2663 24.8645C22.2358 24.8645 22.1749 24.8645 22.1444 24.8645C22.0834 24.8645 22.0224 24.8645 21.9309 24.834C21.87 24.8035 21.7785 24.8035 21.687 24.773C21.5955 24.7425 21.5041 24.712 21.4126 24.6815C21.3211 24.651 21.2296 24.5901 21.1382 24.5596C21.0162 24.4986 20.8942 24.4376 20.7418 24.3766C20.6198 24.3157 20.4674 24.2242 20.3454 24.1632C20.193 24.0717 20.071 24.0107 19.9185 23.9193C19.7661 23.8278 19.6136 23.7363 19.4612 23.6449C20.0405 23.0655 20.5893 22.4252 21.1077 21.7544C21.626 21.0836 22.0834 20.3824 22.4798 19.6506C22.8761 18.9188 23.242 18.1565 23.5469 17.3638C23.8518 16.571 24.0653 15.7783 24.2177 14.955C24.5836 13.1256 24.5531 11.3876 24.2177 9.86308C23.8823 8.33854 23.242 7.02745 22.3578 5.96027C21.5041 4.8931 20.3759 4.06985 19.0953 3.55151C17.8452 3.03317 16.3816 2.81973 14.8266 2.91121C13.7899 2.97219 12.7837 3.18562 11.808 3.52102C10.8323 3.85642 9.85663 4.28329 8.9724 4.83212C8.05768 5.38095 7.20394 6.02125 6.38069 6.75303C5.58794 7.48481 4.82567 8.27756 4.15488 9.16179C3.97193 8.8264 3.81948 8.52149 3.69751 8.21658C3.57555 7.94217 3.48408 7.66775 3.45359 7.45432C3.39261 7.21039 3.39261 7.02745 3.39261 6.8445C3.4231 6.66156 3.45359 6.53959 3.54506 6.44812C3.57555 6.41763 3.60604 6.38714 3.66702 6.35665C3.72801 6.32616 3.7585 6.29567 3.81948 6.26518C3.88046 6.23469 3.94144 6.2042 4.03291 6.2042C4.09389 6.17371 4.18537 6.17371 4.27684 6.17371C4.36831 6.17371 4.45978 6.17371 4.55125 6.17371C4.64273 6.17371 4.76469 6.2042 4.85616 6.23469C4.94763 6.26518 5.06959 6.32616 5.16107 6.38714C5.25254 6.44812 5.3745 6.53959 5.46597 6.63107C5.55745 6.5091 5.67941 6.38714 5.77088 6.26518C5.89284 6.14322 5.98431 6.05174 6.10628 5.92978C6.22824 5.83831 6.3502 5.71635 6.47217 5.62488C6.59413 5.5334 6.71609 5.44193 6.83805 5.35046C6.83805 5.35046 6.86854 5.35046 6.86854 5.31997L6.89903 5.28948C6.89903 5.28948 6.92953 5.28948 6.92953 5.25899C6.92953 5.25899 6.96002 5.25899 6.96002 5.2285C6.71609 5.01506 6.47217 4.86261 6.22824 4.71016C5.98431 4.5577 5.7099 4.46623 5.43548 4.37476C5.16107 4.28329 4.88665 4.2528 4.64273 4.2223C4.36831 4.19181 4.12438 4.19181 3.88046 4.19181C3.69752 4.19181 3.54506 4.2223 3.39261 4.2528C3.24015 4.28329 3.0877 4.31378 2.96574 4.37476C2.84378 4.43574 2.72181 4.46623 2.59985 4.52721C2.50838 4.58819 2.41691 4.64917 2.35593 4.74065C2.14249 4.95408 2.02053 5.25899 1.95955 5.62488C1.89857 5.99076 1.92906 6.38714 2.02053 6.87499C2.112 7.33235 2.26445 7.85069 2.47789 8.43002C2.69132 9.00934 2.99623 9.61915 3.33163 10.2595C3.0877 10.6253 2.87427 10.9912 2.66083 11.3876C2.4474 11.784 2.26445 12.1804 2.08151 12.5767C1.89857 12.9731 1.74611 13.4 1.59366 13.7964C1.44121 14.2232 1.31924 14.6501 1.19728 15.077C0.770411 16.7235 0.648449 18.309 0.770411 19.7725C0.922864 21.2666 1.34973 22.6082 2.02053 23.7973C2.69132 24.9864 3.63653 25.9926 4.79518 26.7244C5.98431 27.4562 7.38689 27.944 9.00289 28.0355C9.49074 28.066 9.9481 28.066 10.436 28.0355C10.9238 28.005 11.4117 27.944 11.8995 27.8221C12.3874 27.7306 12.8752 27.6086 13.3326 27.4257C13.8204 27.2732 14.2778 27.0903 14.7656 26.8769L13.6375 24.7425C13.3021 24.8645 12.9667 24.9864 12.6313 25.0779C12.2959 25.1694 11.9605 25.2609 11.6251 25.3218C11.2897 25.3828 10.9543 25.4133 10.6189 25.4438C10.2835 25.4743 9.9481 25.4743 9.6127 25.4438C8.3321 25.3828 7.17345 25.0169 6.22824 24.4376C5.28303 23.8583 4.52076 23.0655 3.94144 22.1203C3.39261 21.1751 3.02672 20.0774 2.90476 18.8883C2.78279 17.6992 2.87427 16.4186 3.20966 15.077C3.54506 13.7354 4.12438 12.4853 4.82567 11.3266C5.55745 10.168 6.41118 9.1313 7.41738 8.24707C8.39308 7.36284 9.52123 6.63107 10.6799 6.08224C11.8385 5.5334 13.0886 5.19801 14.3388 5.13702C15.5889 5.07604 16.778 5.25899 17.7842 5.68586C18.8209 6.11273 19.7051 6.81401 20.3759 7.66775C21.0772 8.55198 21.565 9.61915 21.809 10.8388C22.0529 12.0584 22.0529 13.461 21.748 14.9245C21.626 15.5648 21.4431 16.2051 21.1992 16.8149C20.9552 17.4248 20.6808 18.0346 20.3759 18.6139C20.071 19.1932 19.7051 19.7421 19.3087 20.2604C18.9124 20.7787 18.4855 21.2971 18.0281 21.7544C18.0281 21.602 18.0586 21.4495 18.0586 21.2666C18.0586 21.1141 18.0586 20.9617 18.0891 20.8092C18.0891 20.6568 18.0891 20.5348 18.1196 20.4128C18.1196 20.2909 18.1196 20.1994 18.1196 20.1384C18.1196 20.0774 18.1196 20.0165 18.0891 19.986C18.0891 19.9555 18.0586 19.925 18.0586 19.8945C18.0281 19.864 18.0281 19.864 17.9976 19.8335C17.9671 19.8335 17.9367 19.8335 17.9367 19.803C17.9062 19.803 17.9062 19.803 17.8757 19.803C17.8452 19.803 17.8452 19.803 17.8147 19.803C17.7842 19.803 17.7842 19.803 17.7842 19.803C17.7842 19.803 17.7842 19.803 17.7537 19.803L13.7594 21.1141C13.7594 21.1141 13.7289 21.1141 13.668 21.1446C13.6375 21.1751 13.5765 21.2056 13.5155 21.2361C13.4545 21.2971 13.424 21.3581 13.424 21.4495C13.424 21.541 13.424 21.6325 13.5155 21.7849V21.8154V21.8459V21.8764V21.9069C13.6985 22.2728 13.9424 22.7606 14.2473 23.3095C14.5522 23.8583 14.8876 24.4986 15.1925 25.1084C15.5279 25.7182 15.8633 26.328 16.1377 26.8464C16.4121 27.3647 16.656 27.8221 16.8085 28.066C16.8085 28.0965 16.839 28.127 16.839 28.127C16.839 28.1575 16.8695 28.1575 16.8695 28.188C16.8695 28.2185 16.9 28.2185 16.9 28.2489C16.9 28.2794 16.9305 28.2794 16.9305 28.2794C16.961 28.3404 16.9914 28.4014 17.0524 28.4624C17.0829 28.5234 17.1134 28.5539 17.1439 28.5843C17.1744 28.6148 17.2049 28.6453 17.2354 28.6453C17.2659 28.6453 17.2964 28.6758 17.3268 28.6758C17.3878 28.6758 17.4183 28.6758 17.4488 28.6453C17.4793 28.6148 17.5098 28.5843 17.5403 28.5234C17.5708 28.4929 17.6013 28.4319 17.6013 28.3709C17.6317 28.3099 17.6317 28.2794 17.6317 28.2489C17.6317 28.2489 17.6317 28.2185 17.6317 28.188C17.6317 28.1575 17.6317 28.1575 17.6317 28.127C17.6317 28.0965 17.6317 28.066 17.6317 28.0355C17.6317 28.005 17.6317 27.9745 17.6317 27.944C17.6317 27.8221 17.6622 27.6391 17.6622 27.4867C17.6622 27.3342 17.6927 27.1513 17.6927 26.9988C17.6927 26.8464 17.7232 26.6939 17.7232 26.6025C17.7232 26.511 17.7232 26.4195 17.7232 26.4195C18.2721 26.7549 18.8209 27.0598 19.3697 27.3647C19.9185 27.6696 20.4369 27.944 20.9552 28.188C21.4736 28.4319 21.9614 28.6148 22.4188 28.7673C22.8761 28.9197 23.2725 29.0112 23.6384 29.0417C23.6994 29.0417 23.7299 29.0417 23.7909 29.0417C23.8518 29.0417 23.8823 29.0417 23.9433 29.0417C23.9738 29.0417 24.0348 29.0417 24.0653 29.0417C24.0958 29.0417 24.1567 29.0417 24.1872 29.0112C24.2482 29.0112 24.3092 28.9807 24.3702 28.9502C24.4312 28.9197 24.4921 28.9197 24.5226 28.8892C24.5836 28.8588 24.6141 28.8283 24.6751 28.7978C24.7361 28.7673 24.7666 28.7368 24.7971 28.6758C25.041 28.4014 25.1629 27.9745 25.1629 27.4562C25.1629 26.9378 25.041 26.2975 24.8275 25.5658L24.98 25.6268Z" fill="#FDC600"/>
<path d="M12.692 14.6747V13.76H11.3809V8.63759H10.4052C9.97831 9.03397 9.55144 9.27789 9.06359 9.43034V10.3756C9.30751 10.3451 9.55144 10.2536 9.76487 10.1316C10.0088 10.0097 10.1917 9.88771 10.3137 9.73525V13.7295H8.63672V14.6442H12.6615L12.692 14.6747ZM17.418 10.3756C17.418 9.82672 17.2351 9.36936 16.8387 9.03397C16.4423 8.69857 15.9545 8.51562 15.3447 8.51562C14.7349 8.51562 14.247 8.66808 13.8506 9.00348C13.4847 9.33887 13.2713 9.76574 13.2713 10.3146V12.8758C13.2713 13.4246 13.4542 13.8515 13.8506 14.1869C14.247 14.5223 14.7349 14.6747 15.3447 14.6747C15.9545 14.6747 16.4423 14.4918 16.8387 14.1564C17.2046 13.821 17.418 13.3636 17.418 12.8148V10.2841V10.3756ZM16.3813 12.8453C16.3813 13.1502 16.2899 13.4246 16.1069 13.5771C15.924 13.76 15.6801 13.8515 15.3752 13.8515C15.0702 13.8515 14.8263 13.76 14.6434 13.5771C14.4604 13.3941 14.369 13.1502 14.369 12.8453V10.4365C14.369 10.1011 14.4604 9.85721 14.6434 9.67427C14.8263 9.49133 15.0702 9.39985 15.4056 9.39985C15.7106 9.39985 15.985 9.49133 16.1679 9.67427C16.3509 9.85721 16.4423 10.1011 16.4423 10.4365L16.4118 12.8453H16.3813Z" fill="#FDC600"/>
<path d="M10.0097 19.7462V15.2031H9.24742V18.6486L7.44847 15.2031H6.32031V19.7462H7.08258V16.3008L8.88153 19.7462H9.97919H10.0097ZM11.4427 19.3194C11.4427 19.1974 11.4123 19.1059 11.3208 19.0449C11.2293 18.984 11.1378 18.9535 11.0159 18.9535C10.8939 18.9535 10.8024 18.984 10.711 19.0449C10.6195 19.1059 10.589 19.1974 10.589 19.3194V19.4413C10.589 19.5633 10.6195 19.6548 10.711 19.7157C10.8024 19.7767 10.8939 19.8072 11.0159 19.8072C11.1378 19.8072 11.2598 19.7767 11.3208 19.7157C11.4123 19.6548 11.4427 19.5633 11.4427 19.4413V19.3194ZM14.7052 18.5266H14.004C14.004 18.9535 13.7905 19.1669 13.3332 19.1669C12.8758 19.1669 12.6624 18.9535 12.6624 18.4961V17.8253C12.6624 17.368 12.8758 17.1545 13.3332 17.1545C13.7905 17.1545 14.004 17.368 14.004 17.7948H14.7052V17.7338C14.7052 17.3375 14.5833 17.0326 14.3394 16.8191C14.0954 16.6057 13.76 16.4837 13.3332 16.4837C12.9063 16.4837 12.5709 16.6057 12.327 16.8191C12.083 17.0326 11.9611 17.368 11.9611 17.7643V18.5571C11.9611 18.9535 12.083 19.2584 12.327 19.4718C12.5709 19.6853 12.9063 19.8072 13.3332 19.8072C13.76 19.8072 14.0954 19.7157 14.3394 19.5023C14.5833 19.2889 14.7052 18.984 14.7052 18.5876V18.5571V18.5266ZM19.6752 19.7462V17.4899C19.6752 17.185 19.5838 16.9411 19.4313 16.7581C19.2788 16.5752 19.0654 16.5142 18.7605 16.5142C18.5166 16.5142 18.2727 16.5752 18.0287 16.7277L17.6628 16.9411C17.5409 16.6667 17.2665 16.5142 16.9006 16.5142C16.6566 16.5142 16.4432 16.5752 16.2298 16.6972L15.9554 16.8801V16.5447H15.2236V19.7462H15.9554V17.5204L16.3517 17.2765C16.5042 17.185 16.6262 17.1545 16.7481 17.1545C16.9616 17.1545 17.0835 17.2765 17.0835 17.5509V19.7157H17.8153V17.4899L18.2117 17.246C18.3641 17.1545 18.4861 17.124 18.608 17.124C18.8215 17.124 18.9434 17.246 18.9434 17.5204V19.7157H19.6752V19.7462Z" fill="#FDC600"/>
<path d="M21.9311 11.208C25.0107 11.208 27.4804 8.70774 27.4804 5.65868C27.4804 2.57912 24.9802 0.109375 21.9311 0.109375C18.8516 0.109375 16.3818 2.60961 16.3818 5.65868C16.3818 8.73823 18.8821 11.208 21.9311 11.208Z" fill="#FDC600"/>
<path d="M21.9311 11.208C25.0107 11.208 27.4804 8.70774 27.4804 5.65868C27.4804 2.57912 24.9802 0.109375 21.9311 0.109375C18.8516 0.109375 16.3818 2.60961 16.3818 5.65868C16.3818 8.73823 18.8821 11.208 21.9311 11.208Z" stroke="white" stroke-width="1.3111"/>
<path d="M22.2069 6.08433C22.5728 6.08433 22.8472 6.1758 23.0302 6.35875C23.2436 6.54169 23.3351 6.81611 23.3351 7.15151C23.3351 7.4869 23.2131 7.79181 22.9997 7.97475C22.7558 8.1577 22.4814 8.27966 22.1155 8.27966C21.7191 8.27966 21.4142 8.18819 21.1703 8.00524C20.9568 7.8223 20.8349 7.57837 20.8349 7.24298H20.1641V7.30396C20.1641 7.79181 20.347 8.18819 20.6824 8.4626C21.0178 8.73702 21.5057 8.88947 22.085 8.88947C22.6033 8.88947 23.0607 8.73702 23.4266 8.43211C23.8229 8.12721 24.0059 7.70034 24.0059 7.15151C24.0059 6.93807 23.9754 6.75513 23.9144 6.57218C23.8534 6.38924 23.7925 6.26728 23.701 6.1758C23.6095 6.08433 23.518 5.99286 23.4266 5.93188C23.3351 5.8709 23.2436 5.80992 23.2131 5.80992C23.1826 5.77943 23.1521 5.77943 23.1217 5.77943L23.2131 5.71844C23.2741 5.68795 23.3351 5.65746 23.4266 5.56599C23.518 5.50501 23.579 5.41354 23.6705 5.32207C23.762 5.23059 23.8229 5.10863 23.8839 4.95618C23.9449 4.80372 23.9754 4.62078 23.9754 4.43784C23.9754 3.98048 23.8229 3.5841 23.4875 3.30968C23.1521 3.03527 22.7253 2.88281 22.146 2.88281C21.6276 2.88281 21.1703 3.00478 20.8349 3.27919C20.4995 3.55361 20.3165 3.9195 20.3165 4.37686V4.40735H20.9568C20.9568 4.10244 21.0483 3.85851 21.2617 3.70606C21.4752 3.52312 21.7496 3.46214 22.1155 3.46214C22.4814 3.46214 22.7863 3.55361 22.9692 3.73655C23.1521 3.91949 23.2436 4.16342 23.2436 4.43784C23.2436 4.77323 23.1521 5.04765 22.9387 5.23059C22.7253 5.41354 22.4814 5.50501 22.146 5.50501H21.2617V6.11482H22.1764L22.2069 6.08433Z" fill="#FEFEFE"/>
</svg>
