<svg width="26" height="29" viewBox="0 0 26 29" fill="none" xmlns="http://www.w3.org/2000/svg">
<path d="M23.506 25.62C23.2915 24.9337 23.0341 24.2044 22.6909 23.4323C22.3478 22.6602 21.9617 21.888 21.5327 21.1588C21.4898 21.2446 21.4041 21.3733 21.3612 21.4591C21.3183 21.5449 21.2325 21.6736 21.1896 21.7593C21.1038 21.8451 21.0609 21.9309 20.9751 22.0596C20.8893 22.1454 20.8464 22.2312 20.7606 22.317L20.6748 22.4028C20.7177 22.5744 20.8035 22.7889 20.8893 23.0033C20.9751 23.2178 21.0609 23.4752 21.1467 23.6897C21.2325 23.9042 21.2754 24.1186 21.3183 24.2902C21.3612 24.4618 21.3183 24.5905 21.2754 24.6763C21.2754 24.7192 21.2325 24.7192 21.1896 24.7192C21.1467 24.7192 21.1467 24.7621 21.1038 24.7621C21.0609 24.7621 21.0609 24.7621 21.018 24.7621C20.9751 24.7621 20.9322 24.7621 20.8893 24.7621C20.8464 24.7621 20.7606 24.7621 20.6748 24.7192C20.589 24.7192 20.5461 24.6763 20.4603 24.6763C20.3746 24.6334 20.2888 24.6334 20.203 24.5905C20.1172 24.5476 20.0314 24.5047 19.9456 24.4618C19.8169 24.4189 19.6882 24.3331 19.5595 24.2902C19.4308 24.2044 19.3021 24.1615 19.1735 24.0757C19.0448 23.9899 18.9161 23.9042 18.7445 23.8184C18.6158 23.7326 18.4442 23.6468 18.3155 23.561C18.8732 23.0033 19.4308 22.4028 19.9027 21.7165C20.3745 21.073 20.8464 20.3867 21.2325 19.6574C21.6185 18.9282 21.9617 18.199 22.262 17.4268C22.5623 16.6547 22.7767 15.8826 22.9054 15.1105C23.2486 13.3517 23.2486 11.6788 22.9054 10.1774C22.6051 8.71895 21.9617 7.43207 21.1038 6.35966C20.2459 5.33016 19.1735 4.55803 17.9295 4.04328C16.6855 3.52852 15.3128 3.31404 13.8115 3.44273C12.8248 3.52852 11.8382 3.70011 10.8516 4.04328C9.90791 4.34355 8.9642 4.81541 8.10628 5.33016C7.24836 5.84491 6.39044 6.48835 5.61831 7.17469C4.84618 7.86103 4.11694 8.67605 3.4735 9.49108C3.30192 9.14791 3.13033 8.84764 3.04454 8.59026C2.91585 8.33288 2.83006 8.07551 2.78717 7.81813C2.74427 7.60365 2.70137 7.38917 2.74427 7.21758C2.74427 7.046 2.83006 6.91731 2.91585 6.83152C2.95875 6.78862 3.00165 6.78862 3.04454 6.74573C3.08744 6.70283 3.13033 6.70283 3.21613 6.65994C3.25902 6.61704 3.34481 6.61704 3.43061 6.61704C3.5164 6.61704 3.5593 6.57414 3.64509 6.57414C3.73088 6.57414 3.81667 6.57414 3.90246 6.57414C3.98826 6.57414 4.11694 6.61704 4.20274 6.65994C4.28853 6.70283 4.41722 6.74573 4.50301 6.78862C4.5888 6.83152 4.71749 6.91731 4.80328 7.0031C4.88907 6.87442 5.01776 6.78862 5.10355 6.65994C5.18935 6.53125 5.31803 6.44546 5.44672 6.35966C5.57541 6.27387 5.6612 6.14518 5.78989 6.05939C5.91858 5.9736 6.04727 5.88781 6.17595 5.80201C6.17595 5.80201 6.17595 5.80201 6.21885 5.80201C6.21885 5.80201 6.21885 5.80201 6.26175 5.75912C6.26175 5.75912 6.26175 5.75912 6.30464 5.75912C6.30464 5.75912 6.30464 5.75912 6.34754 5.75912C6.13306 5.54464 5.87568 5.37305 5.61831 5.24437C5.36093 5.11568 5.10355 4.98699 4.84618 4.94409C4.5888 4.8583 4.33142 4.81541 4.07405 4.77251C3.81667 4.72961 3.5593 4.72961 3.34482 4.77251C3.17323 4.77251 3.00165 4.81541 2.87296 4.81541C2.74427 4.8583 2.57269 4.9012 2.444 4.94409C2.31531 4.98699 2.18662 5.02989 2.10083 5.11568C2.01504 5.15857 1.92924 5.24437 1.84345 5.33016C1.62897 5.54464 1.54318 5.84491 1.45739 6.18808C1.41449 6.53125 1.41449 6.91731 1.50028 7.38917C1.58608 7.86103 1.75766 8.33288 1.97214 8.89053C2.18662 9.44818 2.48689 10.0487 2.78717 10.6922C2.57269 11.0353 2.35821 11.4214 2.14373 11.7646C1.92924 12.1506 1.75766 12.5367 1.58608 12.9228C1.41449 13.3088 1.24291 13.6949 1.11422 14.1239C0.985532 14.5099 0.856844 14.9389 0.728155 15.3678C0.299195 16.955 0.170507 18.4992 0.342091 19.9148C0.470779 21.3733 0.89974 22.6602 1.54318 23.8184C2.18662 24.9766 3.13033 25.9632 4.24563 26.6495C5.40383 27.3787 6.7765 27.8077 8.32076 27.8935C8.79261 27.9364 9.26447 27.9364 9.69343 27.8935C10.1653 27.8506 10.6371 27.8077 11.109 27.679C11.5809 27.5932 12.0527 27.4645 12.5246 27.2929C12.9964 27.1214 13.4683 26.9498 13.8972 26.7353L12.7819 24.6763C12.4817 24.805 12.1385 24.9337 11.7953 25.0194C11.4522 25.1052 11.1519 25.191 10.8087 25.2339C10.4656 25.2768 10.1653 25.3197 9.82212 25.3626C9.47895 25.4055 9.17868 25.4055 8.83551 25.3626C7.59153 25.3197 6.47623 24.9766 5.53251 24.376C4.6317 23.8184 3.85957 23.0462 3.30192 22.1454C2.74427 21.2446 2.4011 20.1722 2.27241 19.014C2.14373 17.8558 2.22952 16.6118 2.57269 15.3249C2.91585 14.0381 3.43061 12.7941 4.15984 11.6788C4.84618 10.5635 5.7041 9.53397 6.64781 8.67605C7.59153 7.81813 8.66393 7.0889 9.82212 6.57414C10.9803 6.05939 12.1814 5.71622 13.3825 5.67333C14.6265 5.58753 15.7418 5.80201 16.7284 6.23098C17.715 6.65994 18.5729 7.30338 19.2593 8.1613C19.9456 9.01922 20.4174 10.0487 20.6748 11.2498C20.9322 12.4509 20.9322 13.7807 20.6319 15.1963C20.5032 15.8397 20.3317 16.4402 20.1172 17.0408C19.9027 17.6413 19.6024 18.2419 19.3021 18.7995C19.0019 19.3572 18.6587 19.9148 18.2726 20.4296C17.8866 20.9443 17.4576 21.4162 17.0287 21.888C17.0287 21.7593 17.0287 21.5878 17.0716 21.4162C17.0716 21.2446 17.0716 21.1159 17.1145 20.9443C17.1145 20.8156 17.1145 20.6869 17.1145 20.5583C17.1145 20.4296 17.1145 20.3438 17.1145 20.3009C17.1145 20.258 17.1145 20.1722 17.1145 20.1722C17.1145 20.1293 17.0716 20.0864 17.0716 20.0864C17.0716 20.0435 17.0287 20.0435 17.0287 20.0435C16.9858 20.0435 16.9858 20.0435 16.9429 20.0435C16.9 20.0435 16.9 20.0435 16.9 20.0435H16.8571H16.8142L12.9535 21.2875C12.9535 21.2875 12.9106 21.2875 12.8677 21.3304C12.8248 21.3304 12.7819 21.3733 12.7391 21.4162C12.6962 21.4591 12.6533 21.5449 12.6533 21.6307C12.6533 21.7165 12.6533 21.8022 12.7391 21.9309C12.7391 21.9309 12.7391 21.9309 12.7391 21.9738C12.7391 21.9738 12.7391 21.9738 12.7391 22.0167C12.7391 22.0167 12.7391 22.0167 12.7391 22.0596C12.7391 22.0596 12.7391 22.0596 12.7391 22.1025C12.9106 22.4457 13.168 22.9175 13.4254 23.4752C13.7257 24.0328 14.0259 24.6334 14.3691 25.191C14.6694 25.7916 15.0125 26.3921 15.2699 26.864C15.5273 27.3787 15.7847 27.8077 15.9134 28.0651C15.9134 28.108 15.9563 28.108 15.9563 28.1509L15.9992 28.1938C15.9992 28.1938 15.9992 28.2367 16.042 28.2367C16.042 28.2367 16.042 28.2796 16.0849 28.2796C16.1278 28.3653 16.1707 28.4082 16.1707 28.4511C16.2136 28.494 16.2565 28.5369 16.2565 28.5798C16.2994 28.6227 16.2994 28.6227 16.3423 28.6656C16.3852 28.6656 16.3852 28.6656 16.4281 28.7085C16.471 28.7085 16.5139 28.7085 16.5568 28.6656C16.5997 28.6227 16.6426 28.5798 16.6426 28.5369C16.6855 28.494 16.6855 28.4511 16.7284 28.4082C16.7284 28.3653 16.7713 28.3224 16.7713 28.2796V28.2367C16.7713 28.2367 16.7713 28.1938 16.7713 28.1509C16.7713 28.108 16.7713 28.108 16.7713 28.0651C16.7713 28.0222 16.7713 28.0222 16.7713 27.9793C16.7713 27.8506 16.7713 27.679 16.8142 27.5503C16.8142 27.3787 16.8142 27.25 16.8571 27.0785C16.8571 26.9498 16.8571 26.7782 16.8571 26.6924C16.8571 26.6066 16.8571 26.5208 16.8571 26.5208C17.3718 26.8211 17.9295 27.1643 18.4442 27.4216C18.959 27.7219 19.4737 27.9793 19.9885 28.1938C20.5032 28.4082 20.9751 28.6227 21.4041 28.7514C21.833 28.8801 22.262 28.9659 22.6051 29.0088C22.648 29.0088 22.6909 29.0088 22.7338 29.0088C22.7767 29.0088 22.8196 29.0088 22.8625 29.0088C22.9054 29.0088 22.9483 29.0088 22.9912 29.0088C23.0341 29.0088 23.077 29.0088 23.1199 29.0088C23.1628 29.0088 23.2486 28.9659 23.2915 28.9659C23.3344 28.9659 23.4202 28.923 23.4631 28.8801C23.506 28.8372 23.5489 28.8372 23.5918 28.7943C23.6347 28.7514 23.6775 28.7085 23.7204 28.6656C23.9778 28.4082 24.0636 27.9793 24.0636 27.4645C24.0636 26.9498 23.9349 26.3492 23.7204 25.6629L23.506 25.62Z" fill="#FDC600"/>
<path d="M11.5803 14.9861V14.0853H10.2934V9.10938H9.3497C8.96364 9.49544 8.53468 9.75282 8.06282 9.8815V10.8252C8.2773 10.7823 8.53468 10.6965 8.74916 10.6107C8.96364 10.482 9.17812 10.3534 9.30681 10.2247V14.0853H7.67676V14.9861H11.5803ZM15.2265 13.1845C15.2265 13.4848 15.1407 13.7422 14.9262 13.9137C14.7546 14.0853 14.4972 14.1711 14.197 14.1711C13.5535 14.1711 13.2103 13.8708 13.2103 13.3132H12.1808V13.399C12.1808 13.9566 12.3524 14.3427 12.7385 14.643C13.0817 14.9432 13.5964 15.0719 14.197 15.0719C14.7546 15.0719 15.2265 14.9003 15.6554 14.5572C16.0415 14.214 16.256 13.7421 16.256 13.1845C16.256 12.6269 16.0844 12.155 15.7412 11.8547C15.398 11.5545 14.9262 11.4258 14.3685 11.4258H13.4677V10.0531H16.0844V9.10938H12.524V12.2408H14.3256C14.6259 12.2408 14.8833 12.3266 15.0549 12.4982C15.2265 12.6697 15.3123 12.8842 15.3123 13.1845V13.2274L15.2265 13.1845Z" fill="#FDC600"/>
<path d="M8.96467 19.9183V15.5H8.23544V18.8459L6.4767 15.5H5.4043V19.9183H6.13353V16.5724L7.89227 19.9183H8.96467ZM10.3802 19.4893C10.3802 19.3606 10.3373 19.2749 10.2516 19.232C10.1658 19.1891 10.08 19.1462 9.95128 19.1462C9.82259 19.1462 9.7368 19.1891 9.65101 19.232C9.56521 19.2749 9.52232 19.3606 9.52232 19.4893V19.618C9.52232 19.7467 9.56521 19.8325 9.65101 19.8754C9.7368 19.9183 9.82259 19.9612 9.95128 19.9612C10.08 19.9612 10.1658 19.9183 10.2516 19.8754C10.3373 19.8325 10.3802 19.7467 10.3802 19.618V19.4893ZM13.5545 18.7172H12.8682C12.8682 19.1462 12.6537 19.3177 12.2248 19.3177C11.7958 19.3177 11.5813 19.1033 11.5813 18.6743V18.0309C11.5813 17.6019 11.7958 17.3874 12.2248 17.3874C12.6537 17.3874 12.8682 17.6019 12.8682 18.0309H13.5545V17.988C13.5545 17.6019 13.4259 17.3016 13.2114 17.0872C12.954 16.8727 12.6537 16.7869 12.2248 16.7869C11.7958 16.7869 11.4955 16.9156 11.2382 17.1301C10.9808 17.3445 10.8521 17.6448 10.8521 18.0309V18.803C10.8521 19.1891 10.9808 19.4893 11.2382 19.7038C11.4955 19.9183 11.7958 20.0041 12.2248 20.0041C12.6537 20.0041 12.954 19.9183 13.2114 19.7038C13.4688 19.4893 13.5974 19.1891 13.5974 18.803V18.7601L13.5545 18.7172ZM18.3589 19.9183V17.7306C18.3589 17.4303 18.2731 17.2158 18.1444 17.0443C17.9728 16.8727 17.7584 16.7869 17.501 16.7869C17.2436 16.7869 17.0291 16.8727 16.7718 17.0014L16.4286 17.2158C16.2999 16.9585 16.0425 16.7869 15.6994 16.7869C15.4849 16.7869 15.2704 16.8727 15.0559 16.9585L14.7985 17.1301V16.7869H14.1122V19.9183H14.8414V17.7735L15.2275 17.559C15.3562 17.4732 15.4849 17.4303 15.6136 17.4303C15.828 17.4303 15.9567 17.559 15.9567 17.8164V19.9183H16.686V17.7735L17.072 17.559C17.2007 17.4732 17.3294 17.4303 17.4581 17.4303C17.6726 17.4303 17.8013 17.559 17.8013 17.8164V19.9183H18.5305H18.3589Z" fill="#FDC600"/>
<path d="M20.5455 11.6379C23.5054 11.6379 25.9504 9.23575 25.9504 6.23303C25.9504 3.2732 23.5483 0.828125 20.5455 0.828125C17.5857 0.828125 15.1406 3.2303 15.1406 6.23303C15.1406 9.19286 17.5428 11.6379 20.5455 11.6379Z" fill="#FDC600"/>
<path d="M20.5455 11.6379C23.5054 11.6379 25.9504 9.23575 25.9504 6.23303C25.9504 3.2732 23.5483 0.828125 20.5455 0.828125C17.5857 0.828125 15.1406 3.2303 15.1406 6.23303C15.1406 9.19286 17.5428 11.6379 20.5455 11.6379Z" stroke="white" stroke-width="1.28688"/>
<path d="M22.4765 9.31441V8.67097H19.8599L21.5328 6.99802C21.876 6.65485 22.1334 6.31168 22.2621 6.01141C22.3907 5.71114 22.4765 5.41086 22.4765 5.11059C22.4765 4.63874 22.3478 4.25267 22.0476 3.9524C21.7473 3.65213 21.3183 3.52344 20.7607 3.52344C20.2459 3.52344 19.817 3.65213 19.4738 3.9524C19.1306 4.20977 19.002 4.59584 19.002 5.0677V5.11059H19.6454C19.6454 4.76742 19.7312 4.55294 19.9457 4.38136C20.1601 4.20977 20.4175 4.12398 20.7607 4.12398C21.1468 4.12398 21.4041 4.20977 21.5757 4.38136C21.7473 4.55294 21.8331 4.81032 21.8331 5.11059C21.8331 5.36797 21.7902 5.58245 21.6615 5.83982C21.5328 6.0543 21.3612 6.31168 21.1039 6.61195L19.0877 8.71386V9.31441H22.5194H22.4765Z" fill="#FEFEFE"/>
</svg>
