<svg width="17" height="17" viewBox="0 0 17 17" fill="none" xmlns="http://www.w3.org/2000/svg">
<path d="M8.77063 4.36719C8.90324 4.36719 9.03042 4.41987 9.12419 4.51364C9.21797 4.60741 9.27064 4.73459 9.27064 4.8672V7.86729H12.2707C12.4033 7.86729 12.5305 7.91997 12.6243 8.01375C12.7181 8.10752 12.7708 8.2347 12.7708 8.36731C12.7708 8.49992 12.7181 8.6271 12.6243 8.72087C12.5305 8.81464 12.4033 8.86732 12.2707 8.86732H9.27064V11.8674C9.27064 12 9.21797 12.1272 9.12419 12.221C9.03042 12.3148 8.90324 12.3674 8.77063 12.3674C8.63802 12.3674 8.51084 12.3148 8.41707 12.221C8.32329 12.1272 8.27061 12 8.27061 11.8674V8.86732H5.27052C5.13791 8.86732 5.01073 8.81464 4.91696 8.72087C4.82319 8.6271 4.77051 8.49992 4.77051 8.36731C4.77051 8.2347 4.82319 8.10752 4.91696 8.01375C5.01073 7.91997 5.13791 7.86729 5.27052 7.86729H8.27061V4.8672C8.27061 4.73459 8.32329 4.60741 8.41707 4.51364C8.51084 4.41987 8.63802 4.36719 8.77063 4.36719Z" fill="#CFCCC9"/>
</svg>
