<svg width="17" height="17" viewBox="0 0 17 17" fill="none" xmlns="http://www.w3.org/2000/svg">
<path d="M8.60852 4.67969C8.74113 4.67969 8.86831 4.73237 8.96208 4.82614C9.05586 4.91991 9.10854 5.04709 9.10854 5.1797V8.17979H12.1086C12.2412 8.17979 12.3684 8.23247 12.4622 8.32625C12.556 8.42002 12.6086 8.5472 12.6086 8.67981C12.6086 8.81242 12.556 8.9396 12.4622 9.03337C12.3684 9.12714 12.2412 9.17982 12.1086 9.17982H9.10854V12.1799C9.10854 12.3125 9.05586 12.4397 8.96208 12.5335C8.86831 12.6273 8.74113 12.6799 8.60852 12.6799C8.47591 12.6799 8.34873 12.6273 8.25496 12.5335C8.16119 12.4397 8.1085 12.3125 8.1085 12.1799V9.17982H5.10841C4.9758 9.17982 4.84862 9.12714 4.75485 9.03337C4.66108 8.9396 4.6084 8.81242 4.6084 8.67981C4.6084 8.5472 4.66108 8.42002 4.75485 8.32625C4.84862 8.23247 4.9758 8.17979 5.10841 8.17979H8.1085V5.1797C8.1085 5.04709 8.16119 4.91991 8.25496 4.82614C8.34873 4.73237 8.47591 4.67969 8.60852 4.67969Z" fill="#CFCCC9"/>
</svg>
