<svg width="17" height="17" viewBox="0 0 17 17" fill="none" xmlns="http://www.w3.org/2000/svg">
<path d="M8.77063 4.78906C8.90324 4.78906 9.03042 4.84174 9.12419 4.93551C9.21797 5.02928 9.27064 5.15647 9.27064 5.28908V8.28917H12.2707C12.4033 8.28917 12.5305 8.34185 12.6243 8.43562C12.7181 8.52939 12.7708 8.65657 12.7708 8.78918C12.7708 8.9218 12.7181 9.04898 12.6243 9.14275C12.5305 9.23652 12.4033 9.2892 12.2707 9.2892H9.27064V12.2893C9.27064 12.4219 9.21797 12.5491 9.12419 12.6429C9.03042 12.7366 8.90324 12.7893 8.77063 12.7893C8.63802 12.7893 8.51084 12.7366 8.41707 12.6429C8.32329 12.5491 8.27061 12.4219 8.27061 12.2893V9.2892H5.27052C5.13791 9.2892 5.01073 9.23652 4.91696 9.14275C4.82319 9.04898 4.77051 8.9218 4.77051 8.78918C4.77051 8.65657 4.82319 8.52939 4.91696 8.43562C5.01073 8.34185 5.13791 8.28917 5.27052 8.28917H8.27061V5.28908C8.27061 5.15647 8.32329 5.02928 8.41707 4.93551C8.51084 4.84174 8.63802 4.78906 8.77063 4.78906Z" fill="#CFCCC9"/>
</svg>
