<svg width="17" height="17" viewBox="0 0 17 17" fill="none" xmlns="http://www.w3.org/2000/svg">
<path d="M8.41418 4.59375C8.5468 4.59375 8.67398 4.64643 8.76775 4.7402C8.86152 4.83397 8.9142 4.96115 8.9142 5.09377V8.09386H11.9143C12.0469 8.09386 12.1741 8.14654 12.2679 8.24031C12.3616 8.33408 12.4143 8.46126 12.4143 8.59387C12.4143 8.72648 12.3616 8.85366 12.2679 8.94744C12.1741 9.04121 12.0469 9.09389 11.9143 9.09389H8.9142V12.094C8.9142 12.2266 8.86152 12.3538 8.76775 12.4475C8.67398 12.5413 8.5468 12.594 8.41418 12.594C8.28157 12.594 8.15439 12.5413 8.06062 12.4475C7.96685 12.3538 7.91417 12.2266 7.91417 12.094V9.09389H4.91408C4.78147 9.09389 4.65428 9.04121 4.56051 8.94744C4.46674 8.85366 4.41406 8.72648 4.41406 8.59387C4.41406 8.46126 4.46674 8.33408 4.56051 8.24031C4.65428 8.14654 4.78147 8.09386 4.91408 8.09386H7.91417V5.09377C7.91417 4.96115 7.96685 4.83397 8.06062 4.7402C8.15439 4.64643 8.28157 4.59375 8.41418 4.59375Z" fill="#CFCCC9"/>
</svg>
