<svg width="15" height="16" viewBox="0 0 15 16" fill="none" xmlns="http://www.w3.org/2000/svg">
<path d="M8.51908 5.84127C8.51908 5.72124 8.4714 5.60612 8.38652 5.52124C8.30164 5.43636 8.18652 5.38867 8.06648 5.38867C7.94644 5.38867 7.83132 5.43636 7.74644 5.52124C7.66156 5.60612 7.61388 5.72124 7.61388 5.84127V7.19908H6.25607C6.13603 7.19908 6.02091 7.24677 5.93603 7.33165C5.85115 7.41653 5.80347 7.53165 5.80347 7.65169C5.80347 7.77172 5.85115 7.88685 5.93603 7.97173C6.02091 8.05661 6.13603 8.10429 6.25607 8.10429H7.61388V9.4621C7.61388 9.58214 7.66156 9.69726 7.74644 9.78214C7.83132 9.86702 7.94644 9.9147 8.06648 9.9147C8.18652 9.9147 8.30164 9.86702 8.38652 9.78214C8.4714 9.69726 8.51908 9.58214 8.51908 9.4621V8.10429H9.87689C9.99693 8.10429 10.1121 8.05661 10.1969 7.97173C10.2818 7.88685 10.3295 7.77172 10.3295 7.65169C10.3295 7.53165 10.2818 7.41653 10.1969 7.33165C10.1121 7.24677 9.99693 7.19908 9.87689 7.19908H8.51908V5.84127Z" fill="#363330"/>
<path d="M0.824917 1.76758C0.70488 1.76758 0.589758 1.81526 0.504879 1.90014C0.419999 1.98502 0.372314 2.10014 0.372314 2.22018C0.372314 2.34022 0.419999 2.45534 0.504879 2.54022C0.589758 2.6251 0.70488 2.67278 0.824917 2.67278H1.8297L2.19268 4.12745L3.54868 11.3555C3.5681 11.4592 3.62314 11.5529 3.7043 11.6203C3.78545 11.6878 3.88762 11.7247 3.99314 11.7248H4.89834C4.41819 11.7248 3.95771 11.9156 3.61819 12.2551C3.27867 12.5946 3.08793 13.0551 3.08793 13.5353C3.08793 14.0154 3.27867 14.4759 3.61819 14.8154C3.95771 15.1549 4.41819 15.3457 4.89834 15.3457C5.3785 15.3457 5.83898 15.1549 6.1785 14.8154C6.51802 14.4759 6.70876 14.0154 6.70876 13.5353C6.70876 13.0551 6.51802 12.5946 6.1785 12.2551C5.83898 11.9156 5.3785 11.7248 4.89834 11.7248H11.2348C10.7546 11.7248 10.2942 11.9156 9.95463 12.2551C9.61511 12.5946 9.42437 13.0551 9.42437 13.5353C9.42437 14.0154 9.61511 14.4759 9.95463 14.8154C10.2942 15.1549 10.7546 15.3457 11.2348 15.3457C11.7149 15.3457 12.1754 15.1549 12.5149 14.8154C12.8545 14.4759 13.0452 14.0154 13.0452 13.5353C13.0452 13.0551 12.8545 12.5946 12.5149 12.2551C12.1754 11.9156 11.7149 11.7248 11.2348 11.7248H12.14C12.2455 11.7247 12.3477 11.6878 12.4288 11.6203C12.51 11.5529 12.565 11.4592 12.5844 11.3555L13.9423 4.11387C13.9545 4.04855 13.9522 3.98134 13.9355 3.91701C13.9188 3.85268 13.8882 3.79281 13.8458 3.74165C13.8033 3.6905 13.7502 3.64932 13.69 3.62103C13.6299 3.59275 13.5643 3.57805 13.4978 3.57799H2.98836L2.62175 2.11065C2.59732 2.01269 2.54084 1.92572 2.46129 1.86355C2.38174 1.80139 2.28369 1.76761 2.18273 1.76758H0.824917ZM4.3688 10.8196L3.18026 4.4832H12.9529L11.7643 10.8196H4.3688ZM5.80355 13.5353C5.80355 13.7753 5.70818 14.0056 5.53842 14.1753C5.36866 14.3451 5.13842 14.4405 4.89834 14.4405C4.65827 14.4405 4.42803 14.3451 4.25827 14.1753C4.08851 14.0056 3.99314 13.7753 3.99314 13.5353C3.99314 13.2952 4.08851 13.0649 4.25827 12.8952C4.42803 12.7254 4.65827 12.6301 4.89834 12.6301C5.13842 12.6301 5.36866 12.7254 5.53842 12.8952C5.70818 13.0649 5.80355 13.2952 5.80355 13.5353ZM12.14 13.5353C12.14 13.7753 12.0446 14.0056 11.8749 14.1753C11.7051 14.3451 11.4749 14.4405 11.2348 14.4405C10.9947 14.4405 10.7645 14.3451 10.5947 14.1753C10.425 14.0056 10.3296 13.7753 10.3296 13.5353C10.3296 13.2952 10.425 13.0649 10.5947 12.8952C10.7645 12.7254 10.9947 12.6301 11.2348 12.6301C11.4749 12.6301 11.7051 12.7254 11.8749 12.8952C12.0446 13.0649 12.14 13.2952 12.14 13.5353Z" fill="#363330"/>
</svg>
