<svg width="15" height="15" viewBox="0 0 15 15" fill="none" xmlns="http://www.w3.org/2000/svg">
<path d="M8.51908 5.35104C8.51908 5.231 8.4714 5.11588 8.38652 5.031C8.30164 4.94612 8.18652 4.89844 8.06648 4.89844C7.94644 4.89844 7.83132 4.94612 7.74644 5.031C7.66156 5.11588 7.61388 5.231 7.61388 5.35104V6.70885H6.25607C6.13603 6.70885 6.02091 6.75653 5.93603 6.84141C5.85115 6.92629 5.80347 7.04141 5.80347 7.16145C5.80347 7.28149 5.85115 7.39661 5.93603 7.48149C6.02091 7.56637 6.13603 7.61406 6.25607 7.61406H7.61388V8.97186C7.61388 9.0919 7.66156 9.20702 7.74644 9.2919C7.83132 9.37678 7.94644 9.42447 8.06648 9.42447C8.18652 9.42447 8.30164 9.37678 8.38652 9.2919C8.4714 9.20702 8.51908 9.0919 8.51908 8.97186V7.61406H9.87689C9.99693 7.61406 10.1121 7.56637 10.1969 7.48149C10.2818 7.39661 10.3295 7.28149 10.3295 7.16145C10.3295 7.04141 10.2818 6.92629 10.1969 6.84141C10.1121 6.75653 9.99693 6.70885 9.87689 6.70885H8.51908V5.35104Z" fill="#363330"/>
<path d="M0.824917 1.27734C0.70488 1.27734 0.589758 1.32503 0.504879 1.40991C0.419999 1.49479 0.372314 1.60991 0.372314 1.72995C0.372314 1.84998 0.419999 1.96511 0.504879 2.04999C0.589758 2.13486 0.70488 2.18255 0.824917 2.18255H1.8297L2.19268 3.63722L3.54868 10.8653C3.5681 10.969 3.62314 11.0627 3.7043 11.1301C3.78545 11.1975 3.88762 11.2345 3.99314 11.2346H4.89834C4.41819 11.2346 3.95771 11.4253 3.61819 11.7649C3.27867 12.1044 3.08793 12.5649 3.08793 13.045C3.08793 13.5252 3.27867 13.9857 3.61819 14.3252C3.95771 14.6647 4.41819 14.8554 4.89834 14.8554C5.3785 14.8554 5.83898 14.6647 6.1785 14.3252C6.51802 13.9857 6.70876 13.5252 6.70876 13.045C6.70876 12.5649 6.51802 12.1044 6.1785 11.7649C5.83898 11.4253 5.3785 11.2346 4.89834 11.2346H11.2348C10.7546 11.2346 10.2942 11.4253 9.95463 11.7649C9.61511 12.1044 9.42437 12.5649 9.42437 13.045C9.42437 13.5252 9.61511 13.9857 9.95463 14.3252C10.2942 14.6647 10.7546 14.8554 11.2348 14.8554C11.7149 14.8554 12.1754 14.6647 12.5149 14.3252C12.8545 13.9857 13.0452 13.5252 13.0452 13.045C13.0452 12.5649 12.8545 12.1044 12.5149 11.7649C12.1754 11.4253 11.7149 11.2346 11.2348 11.2346H12.14C12.2455 11.2345 12.3477 11.1975 12.4288 11.1301C12.51 11.0627 12.565 10.969 12.5844 10.8653L13.9423 3.62364C13.9545 3.55832 13.9522 3.4911 13.9355 3.42677C13.9188 3.36244 13.8882 3.30257 13.8458 3.25142C13.8033 3.20027 13.7502 3.15909 13.69 3.1308C13.6299 3.10251 13.5643 3.08782 13.4978 3.08776H2.98836L2.62175 1.62042C2.59732 1.52246 2.54084 1.43548 2.46129 1.37332C2.38174 1.31115 2.28369 1.27737 2.18273 1.27734H0.824917ZM4.3688 10.3294L3.18026 3.99296H12.9529L11.7643 10.3294H4.3688V10.3294ZM5.80355 13.045C5.80355 13.2851 5.70818 13.5153 5.53842 13.6851C5.36866 13.8549 5.13842 13.9502 4.89834 13.9502C4.65827 13.9502 4.42803 13.8549 4.25827 13.6851C4.08851 13.5153 3.99314 13.2851 3.99314 13.045C3.99314 12.8049 4.08851 12.5747 4.25827 12.4049C4.42803 12.2352 4.65827 12.1398 4.89834 12.1398C5.13842 12.1398 5.36866 12.2352 5.53842 12.4049C5.70818 12.5747 5.80355 12.8049 5.80355 13.045V13.045ZM12.14 13.045C12.14 13.2851 12.0446 13.5153 11.8749 13.6851C11.7051 13.8549 11.4749 13.9502 11.2348 13.9502C10.9947 13.9502 10.7645 13.8549 10.5947 13.6851C10.425 13.5153 10.3296 13.2851 10.3296 13.045C10.3296 12.8049 10.425 12.5747 10.5947 12.4049C10.7645 12.2352 10.9947 12.1398 11.2348 12.1398C11.4749 12.1398 11.7051 12.2352 11.8749 12.4049C12.0446 12.5747 12.14 12.8049 12.14 13.045V13.045Z" fill="#363330"/>
</svg>
