<svg width="16" height="15" viewBox="0 0 16 15" fill="none" xmlns="http://www.w3.org/2000/svg">
<path d="M8.93144 4.99167C8.93144 4.87163 8.88375 4.75651 8.79887 4.67163C8.71399 4.58675 8.59887 4.53906 8.47884 4.53906C8.3588 4.53906 8.24368 4.58675 8.1588 4.67163C8.07392 4.75651 8.02623 4.87163 8.02623 4.99167V6.34947H6.66842C6.54839 6.34947 6.43326 6.39716 6.34838 6.48204C6.26351 6.56692 6.21582 6.68204 6.21582 6.80208C6.21582 6.92212 6.26351 7.03724 6.34838 7.12212C6.43326 7.207 6.54839 7.25468 6.66842 7.25468H8.02623V8.61249C8.02623 8.73253 8.07392 8.84765 8.1588 8.93253C8.24368 9.01741 8.3588 9.06509 8.47884 9.06509C8.59887 9.06509 8.71399 9.01741 8.79887 8.93253C8.88375 8.84765 8.93144 8.73253 8.93144 8.61249V7.25468H10.2892C10.4093 7.25468 10.5244 7.207 10.6093 7.12212C10.6942 7.03724 10.7419 6.92212 10.7419 6.80208C10.7419 6.68204 10.6942 6.56692 10.6093 6.48204C10.5244 6.39716 10.4093 6.34947 10.2892 6.34947H8.93144V4.99167Z" fill="#363330"/>
<path d="M1.23727 0.917969C1.11723 0.917969 1.00211 0.965654 0.917232 1.05053C0.832353 1.13541 0.784668 1.25053 0.784668 1.37057C0.784668 1.49061 0.832353 1.60573 0.917232 1.69061C1.00211 1.77549 1.11723 1.82317 1.23727 1.82317H2.24205L2.60504 3.27784L3.96104 10.5059C3.98045 10.6096 4.03549 10.7033 4.11665 10.7707C4.19781 10.8382 4.29997 10.8751 4.40549 10.8752H5.3107C4.83055 10.8752 4.37006 11.066 4.03054 11.4055C3.69103 11.745 3.50029 12.2055 3.50029 12.6856C3.50029 13.1658 3.69103 13.6263 4.03054 13.9658C4.37006 14.3053 4.83055 14.4961 5.3107 14.4961C5.79085 14.4961 6.25133 14.3053 6.59085 13.9658C6.93037 13.6263 7.12111 13.1658 7.12111 12.6856C7.12111 12.2055 6.93037 11.745 6.59085 11.4055C6.25133 11.066 5.79085 10.8752 5.3107 10.8752H11.6471C11.167 10.8752 10.7065 11.066 10.367 11.4055C10.0275 11.745 9.83673 12.2055 9.83673 12.6856C9.83673 13.1658 10.0275 13.6263 10.367 13.9658C10.7065 14.3053 11.167 14.4961 11.6471 14.4961C12.1273 14.4961 12.5878 14.3053 12.9273 13.9658C13.2668 13.6263 13.4576 13.1658 13.4576 12.6856C13.4576 12.2055 13.2668 11.745 12.9273 11.4055C12.5878 11.066 12.1273 10.8752 11.6471 10.8752H12.5523C12.6579 10.8751 12.76 10.8382 12.8412 10.7707C12.9223 10.7033 12.9774 10.6096 12.9968 10.5059L14.3546 3.26426C14.3668 3.19894 14.3645 3.13173 14.3479 3.0674C14.3312 3.00307 14.3005 2.9432 14.2581 2.89205C14.2157 2.84089 14.1625 2.79971 14.1024 2.77142C14.0422 2.74314 13.9766 2.72844 13.9102 2.72838H3.40071L3.0341 1.26104C3.00967 1.16308 2.95319 1.07611 2.87364 1.01394C2.79409 0.951779 2.69604 0.917997 2.59508 0.917969H1.23727ZM4.78115 9.97003L3.59262 3.63359H13.3652L12.1767 9.97003H4.78115ZM6.2159 12.6856C6.2159 12.9257 6.12053 13.156 5.95078 13.3257C5.78102 13.4955 5.55077 13.5909 5.3107 13.5909C5.07062 13.5909 4.84038 13.4955 4.67062 13.3257C4.50086 13.156 4.40549 12.9257 4.40549 12.6856C4.40549 12.4456 4.50086 12.2153 4.67062 12.0456C4.84038 11.8758 5.07062 11.7804 5.3107 11.7804C5.55077 11.7804 5.78102 11.8758 5.95078 12.0456C6.12053 12.2153 6.2159 12.4456 6.2159 12.6856ZM12.5523 12.6856C12.5523 12.9257 12.457 13.156 12.2872 13.3257C12.1175 13.4955 11.8872 13.5909 11.6471 13.5909C11.4071 13.5909 11.1768 13.4955 11.0071 13.3257C10.8373 13.156 10.7419 12.9257 10.7419 12.6856C10.7419 12.4456 10.8373 12.2153 11.0071 12.0456C11.1768 11.8758 11.4071 11.7804 11.6471 11.7804C11.8872 11.7804 12.1175 11.8758 12.2872 12.0456C12.457 12.2153 12.5523 12.4456 12.5523 12.6856Z" fill="#363330"/>
</svg>
