<svg width="15" height="16" viewBox="0 0 15 16" fill="none" xmlns="http://www.w3.org/2000/svg">
<path d="M8.51908 5.63815C8.51908 5.51811 8.4714 5.40299 8.38652 5.31811C8.30164 5.23323 8.18652 5.18555 8.06648 5.18555C7.94644 5.18555 7.83132 5.23323 7.74644 5.31811C7.66156 5.40299 7.61388 5.51811 7.61388 5.63815V6.99596H6.25607C6.13603 6.99596 6.02091 7.04364 5.93603 7.12852C5.85115 7.2134 5.80347 7.32852 5.80347 7.44856C5.80347 7.5686 5.85115 7.68372 5.93603 7.7686C6.02091 7.85348 6.13603 7.90117 6.25607 7.90117H7.61388V9.25897C7.61388 9.37901 7.66156 9.49413 7.74644 9.57901C7.83132 9.66389 7.94644 9.71158 8.06648 9.71158C8.18652 9.71158 8.30164 9.66389 8.38652 9.57901C8.4714 9.49413 8.51908 9.37901 8.51908 9.25897V7.90117H9.87689C9.99693 7.90117 10.1121 7.85348 10.1969 7.7686C10.2818 7.68372 10.3295 7.5686 10.3295 7.44856C10.3295 7.32852 10.2818 7.2134 10.1969 7.12852C10.1121 7.04364 9.99693 6.99596 9.87689 6.99596H8.51908V5.63815Z" fill="#363330"/>
<path d="M0.824917 1.56445C0.70488 1.56445 0.589758 1.61214 0.504879 1.69702C0.419999 1.7819 0.372314 1.89702 0.372314 2.01706C0.372314 2.13709 0.419999 2.25222 0.504879 2.33709C0.589758 2.42197 0.70488 2.46966 0.824917 2.46966H1.8297L2.19268 3.92433L3.54868 11.1524C3.5681 11.2561 3.62314 11.3498 3.7043 11.4172C3.78545 11.4847 3.88762 11.5216 3.99314 11.5217H4.89834C4.41819 11.5217 3.95771 11.7125 3.61819 12.052C3.27867 12.3915 3.08793 12.852 3.08793 13.3321C3.08793 13.8123 3.27867 14.2728 3.61819 14.6123C3.95771 14.9518 4.41819 15.1425 4.89834 15.1425C5.3785 15.1425 5.83898 14.9518 6.1785 14.6123C6.51802 14.2728 6.70876 13.8123 6.70876 13.3321C6.70876 12.852 6.51802 12.3915 6.1785 12.052C5.83898 11.7125 5.3785 11.5217 4.89834 11.5217H11.2348C10.7546 11.5217 10.2942 11.7125 9.95463 12.052C9.61511 12.3915 9.42437 12.852 9.42437 13.3321C9.42437 13.8123 9.61511 14.2728 9.95463 14.6123C10.2942 14.9518 10.7546 15.1425 11.2348 15.1425C11.7149 15.1425 12.1754 14.9518 12.5149 14.6123C12.8545 14.2728 13.0452 13.8123 13.0452 13.3321C13.0452 12.852 12.8545 12.3915 12.5149 12.052C12.1754 11.7125 11.7149 11.5217 11.2348 11.5217H12.14C12.2455 11.5216 12.3477 11.4847 12.4288 11.4172C12.51 11.3498 12.565 11.2561 12.5844 11.1524L13.9423 3.91075C13.9545 3.84542 13.9522 3.77821 13.9355 3.71388C13.9188 3.64955 13.8882 3.58968 13.8458 3.53853C13.8033 3.48738 13.7502 3.44619 13.69 3.41791C13.6299 3.38962 13.5643 3.37493 13.4978 3.37487H2.98836L2.62175 1.90753C2.59732 1.80957 2.54084 1.72259 2.46129 1.66043C2.38174 1.59826 2.28369 1.56448 2.18273 1.56445H0.824917ZM4.3688 10.6165L3.18026 4.28007H12.9529L11.7643 10.6165H4.3688ZM5.80355 13.3321C5.80355 13.5722 5.70818 13.8024 5.53842 13.9722C5.36866 14.142 5.13842 14.2373 4.89834 14.2373C4.65827 14.2373 4.42803 14.142 4.25827 13.9722C4.08851 13.8024 3.99314 13.5722 3.99314 13.3321C3.99314 13.0921 4.08851 12.8618 4.25827 12.6921C4.42803 12.5223 4.65827 12.4269 4.89834 12.4269C5.13842 12.4269 5.36866 12.5223 5.53842 12.6921C5.70818 12.8618 5.80355 13.0921 5.80355 13.3321ZM12.14 13.3321C12.14 13.5722 12.0446 13.8024 11.8749 13.9722C11.7051 14.142 11.4749 14.2373 11.2348 14.2373C10.9947 14.2373 10.7645 14.142 10.5947 13.9722C10.425 13.8024 10.3296 13.5722 10.3296 13.3321C10.3296 13.0921 10.425 12.8618 10.5947 12.6921C10.7645 12.5223 10.9947 12.4269 11.2348 12.4269C11.4749 12.4269 11.7051 12.5223 11.8749 12.6921C12.0446 12.8618 12.14 13.0921 12.14 13.3321Z" fill="#363330"/>
</svg>
