<svg width="17" height="17" viewBox="0 0 17 17" fill="none" xmlns="http://www.w3.org/2000/svg">
<path d="M8.41248 4.28711C8.54509 4.28711 8.67227 4.33979 8.76604 4.43356C8.85981 4.52733 8.91249 4.65451 8.91249 4.78712V7.78722H11.9126C12.0452 7.78722 12.1724 7.8399 12.2661 7.93367C12.3599 8.02744 12.4126 8.15462 12.4126 8.28723C12.4126 8.41984 12.3599 8.54702 12.2661 8.6408C12.1724 8.73457 12.0452 8.78725 11.9126 8.78725H8.91249V11.7873C8.91249 11.9199 8.85981 12.0471 8.76604 12.1409C8.67227 12.2347 8.54509 12.2874 8.41248 12.2874C8.27986 12.2874 8.15268 12.2347 8.05891 12.1409C7.96514 12.0471 7.91246 11.9199 7.91246 11.7873V8.78725H4.91237C4.77976 8.78725 4.65258 8.73457 4.5588 8.6408C4.46503 8.54702 4.41235 8.41984 4.41235 8.28723C4.41235 8.15462 4.46503 8.02744 4.5588 7.93367C4.65258 7.8399 4.77976 7.78722 4.91237 7.78722H7.91246V4.78712C7.91246 4.65451 7.96514 4.52733 8.05891 4.43356C8.15268 4.33979 8.27986 4.28711 8.41248 4.28711Z" fill="#CFCCC9"/>
</svg>
