<svg width="33" height="33" viewBox="0 0 33 33" fill="none" xmlns="http://www.w3.org/2000/svg">
<path d="M15.9545 8.23013C11.8358 6.61146 10.2528 11.3962 4.51465 9.16569V23.5897C10.2528 25.8202 11.8358 21.0369 15.9545 22.6556C20.0918 21.0369 21.9079 25.8929 27.6267 23.6446V9.2199C21.9079 11.4504 20.0918 6.6122 15.9545 8.23087V8.23013ZM15.6315 21.7728C12.0689 20.7667 9.60529 24.8497 5.1443 23.1568V10.0819C9.60455 11.7734 12.0689 7.70815 15.6315 8.71573V21.7728ZM26.9808 23.1568C22.5019 24.8497 20.0361 20.7667 16.4765 21.7728V8.71573C20.0361 7.70815 22.5019 11.7734 26.9808 10.0819V23.1568Z" fill="#250A20"/>
<path d="M15.9543 8.23103L16.0093 8.09218C15.3759 7.84344 14.7953 7.74023 14.2503 7.74023C13.0593 7.74098 12.0539 8.22584 11.0033 8.69362C9.94965 9.16288 8.85073 9.62101 7.45482 9.62101C6.61949 9.62101 5.67651 9.45692 4.56868 9.027L4.36523 8.9483V23.6916L4.46028 23.7287C5.5978 24.1712 6.58014 24.3435 7.45482 24.3435C8.9183 24.3435 10.0677 23.8608 11.1236 23.3901C12.1809 22.9179 13.1439 22.462 14.2495 22.4627C14.7574 22.4627 15.2979 22.557 15.8994 22.7939L15.9543 22.8154L16.0085 22.7939C16.6048 22.5607 17.146 22.4672 17.6584 22.4672C18.7959 22.4657 19.8027 22.9349 20.9039 23.4205C22.0035 23.9039 23.196 24.3992 24.6892 24.3992C25.5706 24.3992 26.5551 24.2262 27.6815 23.7829L27.7758 23.7458V9.00176L27.5724 9.08121C26.4794 9.50741 25.5386 9.67002 24.6974 9.67002C23.2703 9.67002 22.1261 9.20075 21.0294 8.7196C19.9334 8.23994 18.885 7.74469 17.6628 7.74395C17.1119 7.74395 16.529 7.84567 15.9001 8.09218L15.9543 8.23103L16.0085 8.36988C16.6062 8.13599 17.149 8.04244 17.6636 8.04169C18.8004 8.04095 19.8079 8.50873 20.9098 8.9921C22.0095 9.47399 23.2034 9.96776 24.6981 9.96776C25.5772 9.96776 26.5588 9.79624 27.6815 9.3589L27.6273 9.22006H27.4781V23.6448H27.6273L27.5724 23.5059C26.4757 23.9366 25.5319 24.1007 24.6892 24.1014C23.2636 24.1014 22.1209 23.6307 21.0234 23.148C19.929 22.6676 18.8798 22.1709 17.6576 22.1702C17.1089 22.1702 16.5275 22.2719 15.9001 22.5177L15.9543 22.6565L16.0093 22.5177C15.3759 22.2689 14.7945 22.1657 14.2495 22.1657C13.0585 22.1664 12.0539 22.6513 11.0025 23.1183C9.94965 23.5876 8.85073 24.0457 7.45482 24.0457C6.61949 24.0457 5.67576 23.8824 4.56868 23.4517L4.51448 23.5906H4.66372V9.16734H4.51448L4.46028 9.30619C5.5978 9.74798 6.58014 9.92024 7.45482 9.92024C8.91756 9.92024 10.0684 9.43761 11.1243 8.96686C12.1824 8.49388 13.1447 8.03872 14.2503 8.03947C14.7574 8.03947 15.2987 8.13451 15.9001 8.37062L15.9551 8.39216L16.0093 8.37062L15.9551 8.23178L15.9543 8.23103ZM15.6313 21.7737L15.6722 21.6304C15.2586 21.5138 14.8584 21.4633 14.4678 21.4633C13.2308 21.4648 12.1133 21.9675 10.9713 22.4568C9.82862 22.9476 8.66139 23.4265 7.32562 23.4257C6.66627 23.4257 5.9646 23.3099 5.19759 23.0188L5.14487 23.1584H5.29411V10.0836H5.14487L5.09215 10.2232C5.89332 10.5269 6.63657 10.6501 7.3323 10.6501C8.73936 10.6494 9.94668 10.1512 11.0887 9.66482C12.2329 9.17625 13.3125 8.70253 14.4626 8.70401C14.8279 8.70401 15.2022 8.75153 15.5912 8.86142L15.6321 8.71812H15.4828V21.7751H15.6321H15.7813V8.60526L15.6729 8.57407C15.2571 8.45676 14.8547 8.40552 14.4634 8.40552C13.2286 8.40701 12.1133 8.90597 10.9728 9.39083C9.83159 9.87792 8.66659 10.3524 7.3323 10.3524C6.67147 10.3524 5.96757 10.2365 5.19833 9.94474L4.99637 9.86827V23.2616L5.09215 23.298C5.89109 23.601 6.63137 23.7242 7.32636 23.7242C8.73564 23.7242 9.94593 23.2215 11.0894 22.7308C12.2351 22.2385 13.3169 21.7603 14.4686 21.7618C14.8324 21.7618 15.2044 21.8093 15.5912 21.9177L15.7813 21.9712V21.7744H15.6321L15.6313 21.7737ZM26.9806 23.1577L26.9279 23.0181C26.1579 23.3092 25.4532 23.425 24.7917 23.425C23.4507 23.4257 22.2812 22.9468 21.137 22.456C19.9936 21.9675 18.8753 21.464 17.6391 21.4625C17.25 21.4625 16.8498 21.513 16.4362 21.6296L16.477 21.7729H16.6263V8.71589H16.477L16.5179 8.8592C16.9062 8.7493 17.2797 8.70178 17.645 8.70178C18.7952 8.7003 19.8748 9.17476 21.0197 9.66259C22.1639 10.1489 23.3742 10.6472 24.7857 10.6479C25.4837 10.6479 26.2299 10.5254 27.034 10.221L26.9821 10.0814H26.8328V23.1562H26.9821H27.1313V9.86604L26.9301 9.94252C26.1571 10.2343 25.4503 10.3494 24.7865 10.3502C23.4485 10.3502 22.2805 9.87569 21.137 9.3886C19.9958 8.90375 18.8798 8.40478 17.6458 8.40404C17.2545 8.40404 16.852 8.45527 16.4369 8.57259L16.3285 8.60377V21.9704L16.5186 21.917C16.9047 21.8078 17.276 21.761 17.6398 21.761C18.7914 21.7603 19.8725 22.2377 21.0197 22.73C22.1654 23.2208 23.3787 23.7227 24.7924 23.7235C25.4889 23.7235 26.2321 23.601 27.034 23.2973L27.1306 23.2609V23.1577H26.9813H26.9806Z" fill="#250A20"/>
<path d="M23.1307 12.9802C23.1307 13.6633 22.5545 14.2388 21.8729 14.2388C21.1697 14.2388 20.6113 13.6633 20.6113 12.9802C20.6113 12.2778 21.1697 11.7031 21.8729 11.7031C22.5545 11.7031 23.1307 12.2778 23.1307 12.9802Z" fill="#250A20"/>
<path d="M23.1305 12.9803H23.0562C23.0562 13.3003 22.9211 13.5966 22.7043 13.8126C22.4882 14.0287 22.1919 14.1638 21.8726 14.1638C21.2118 14.1623 20.6869 13.6218 20.6861 12.9803C20.6861 12.3187 21.2118 11.7789 21.8726 11.7782C22.5112 11.7789 23.0547 12.3202 23.0555 12.9803H23.1297H23.204C23.2032 12.237 22.5959 11.6296 21.8719 11.6289C21.1272 11.6289 20.5376 12.2385 20.5361 12.9803C20.5361 13.7042 21.1272 14.3131 21.8719 14.3131C22.5959 14.3116 23.2032 13.7057 23.204 12.9803H23.1297H23.1305Z" fill="#250A20"/>
<path d="M24.5538 19.5442V20.3358H19.3369V19.5442H20.4678V15.7671H19.3369V14.9941H23.2744V19.5442H24.5538Z" fill="#250A20"/>
<path d="M24.5536 19.545H24.4786V20.2615H19.411V19.6193H20.5425V15.6936H19.411V15.0692H23.2V19.6193H24.5536V19.545H24.4786H24.5536V19.4708H23.3492V14.9199H19.2617V15.8421H20.3933V19.4708H19.2617V20.4108H24.6278V19.4708H24.5536V19.545Z" fill="#250A20"/>
<path d="M16.0709 32.1417C24.9466 32.1417 32.1417 24.9466 32.1417 16.0709C32.1417 7.19517 24.9466 0 16.0709 0C7.19517 0 0 7.19517 0 16.0709C0 24.9466 7.19517 32.1417 16.0709 32.1417Z" stroke="#250A20" stroke-width="1.36" stroke-miterlimit="22.9256"/>
</svg>
