<svg width="21" height="21" viewBox="0 0 21 21" fill="none" xmlns="http://www.w3.org/2000/svg">
<path d="M10.3713 5.71094C10.5356 5.71094 10.6931 5.77618 10.8092 5.89232C10.9254 6.00846 10.9906 6.16598 10.9906 6.33023V10.046H14.7063C14.8706 10.046 15.0281 10.1112 15.1442 10.2273C15.2604 10.3435 15.3256 10.501 15.3256 10.6653C15.3256 10.8295 15.2604 10.987 15.1442 11.1032C15.0281 11.2193 14.8706 11.2845 14.7063 11.2845H10.9906V15.0003C10.9906 15.1645 10.9254 15.322 10.8092 15.4382C10.6931 15.5543 10.5356 15.6196 10.3713 15.6196C10.2071 15.6196 10.0495 15.5543 9.9334 15.4382C9.81726 15.322 9.75202 15.1645 9.75202 15.0003V11.2845H6.03628C5.87204 11.2845 5.71452 11.2193 5.59838 11.1032C5.48224 10.987 5.41699 10.8295 5.41699 10.6653C5.41699 10.501 5.48224 10.3435 5.59838 10.2273C5.71452 10.1112 5.87204 10.046 6.03628 10.046H9.75202V6.33023C9.75202 6.16598 9.81726 6.00846 9.9334 5.89232C10.0495 5.77618 10.2071 5.71094 10.3713 5.71094Z" fill="#363330"/>
</svg>
