<svg width="21" height="21" viewBox="0 0 21 21" fill="none" xmlns="http://www.w3.org/2000/svg">
<path d="M10.7903 5.71094C10.9545 5.71094 11.112 5.77618 11.2282 5.89232C11.3443 6.00846 11.4095 6.16598 11.4095 6.33023V10.046H15.1253C15.2895 10.046 15.447 10.1112 15.5632 10.2273C15.6793 10.3435 15.7446 10.501 15.7446 10.6653C15.7446 10.8295 15.6793 10.987 15.5632 11.1032C15.447 11.2193 15.2895 11.2845 15.1253 11.2845H11.4095V15.0003C11.4095 15.1645 11.3443 15.322 11.2282 15.4382C11.112 15.5543 10.9545 15.6196 10.7903 15.6196C10.626 15.6196 10.4685 15.5543 10.3523 15.4382C10.2362 15.322 10.171 15.1645 10.171 15.0003V11.2845H6.45523C6.29098 11.2845 6.13346 11.2193 6.01732 11.1032C5.90118 10.987 5.83594 10.8295 5.83594 10.6653C5.83594 10.501 5.90118 10.3435 6.01732 10.2273C6.13346 10.1112 6.29098 10.046 6.45523 10.046H10.171V6.33023C10.171 6.16598 10.2362 6.00846 10.3523 5.89232C10.4685 5.77618 10.626 5.71094 10.7903 5.71094Z" fill="#363330"/>
</svg>
