<svg width="21" height="21" viewBox="0 0 21 21" fill="none" xmlns="http://www.w3.org/2000/svg">
<path d="M10.8449 5.24219C11.0092 5.24219 11.1667 5.30743 11.2828 5.42357C11.399 5.53971 11.4642 5.69723 11.4642 5.86148V9.57721H15.18C15.3442 9.57721 15.5017 9.64246 15.6179 9.7586C15.734 9.87474 15.7993 10.0323 15.7993 10.1965C15.7993 10.3607 15.734 10.5183 15.6179 10.6344C15.5017 10.7505 15.3442 10.8158 15.18 10.8158H11.4642V14.5315C11.4642 14.6958 11.399 14.8533 11.2828 14.9694C11.1667 15.0856 11.0092 15.1508 10.8449 15.1508C10.6807 15.1508 10.5232 15.0856 10.407 14.9694C10.2909 14.8533 10.2257 14.6958 10.2257 14.5315V10.8158H6.50991C6.34567 10.8158 6.18815 10.7505 6.07201 10.6344C5.95587 10.5183 5.89062 10.3607 5.89062 10.1965C5.89062 10.0323 5.95587 9.87474 6.07201 9.7586C6.18815 9.64246 6.34567 9.57721 6.50991 9.57721H10.2257V5.86148C10.2257 5.69723 10.2909 5.53971 10.407 5.42357C10.5232 5.30743 10.6807 5.24219 10.8449 5.24219Z" fill="#363330"/>
</svg>
