<svg width="21" height="21" viewBox="0 0 21 21" fill="none" xmlns="http://www.w3.org/2000/svg">
<path d="M10.3176 5.71094C10.4818 5.71094 10.6394 5.77618 10.7555 5.89232C10.8716 6.00846 10.9369 6.16598 10.9369 6.33023V10.046H14.6526C14.8169 10.046 14.9744 10.1112 15.0905 10.2273C15.2067 10.3435 15.2719 10.501 15.2719 10.6653C15.2719 10.8295 15.2067 10.987 15.0905 11.1032C14.9744 11.2193 14.8169 11.2845 14.6526 11.2845H10.9369V15.0003C10.9369 15.1645 10.8716 15.322 10.7555 15.4382C10.6394 15.5543 10.4818 15.6196 10.3176 15.6196C10.1534 15.6196 9.99583 15.5543 9.87969 15.4382C9.76355 15.322 9.69831 15.1645 9.69831 15.0003V11.2845H5.98257C5.81832 11.2845 5.66081 11.2193 5.54467 11.1032C5.42853 10.987 5.36328 10.8295 5.36328 10.6653C5.36328 10.501 5.42853 10.3435 5.54467 10.2273C5.66081 10.1112 5.81832 10.046 5.98257 10.046H9.69831V6.33023C9.69831 6.16598 9.76355 6.00846 9.87969 5.89232C9.99583 5.77618 10.1534 5.71094 10.3176 5.71094Z" fill="#363330"/>
</svg>
