<svg width="21" height="21" viewBox="0 0 21 21" fill="none" xmlns="http://www.w3.org/2000/svg">
<path d="M10.2629 5.71094C10.4272 5.71094 10.5847 5.77618 10.7008 5.89232C10.817 6.00846 10.8822 6.16598 10.8822 6.33023V10.046H14.5979C14.7622 10.046 14.9197 10.1112 15.0358 10.2273C15.152 10.3435 15.2172 10.501 15.2172 10.6653C15.2172 10.8295 15.152 10.987 15.0358 11.1032C14.9197 11.2193 14.7622 11.2845 14.5979 11.2845H10.8822V15.0003C10.8822 15.1645 10.817 15.322 10.7008 15.4382C10.5847 15.5543 10.4272 15.6196 10.2629 15.6196C10.0987 15.6196 9.94114 15.5543 9.82501 15.4382C9.70887 15.322 9.64362 15.1645 9.64362 15.0003V11.2845H5.92788C5.76364 11.2845 5.60612 11.2193 5.48998 11.1032C5.37384 10.987 5.30859 10.8295 5.30859 10.6653C5.30859 10.501 5.37384 10.3435 5.48998 10.2273C5.60612 10.1112 5.76364 10.046 5.92788 10.046H9.64362V6.33023C9.64362 6.16598 9.70887 6.00846 9.82501 5.89232C9.94114 5.77618 10.0987 5.71094 10.2629 5.71094Z" fill="#363330"/>
</svg>
