<svg width="21" height="21" viewBox="0 0 21 21" fill="none" xmlns="http://www.w3.org/2000/svg">
<path d="M10.3176 5.24219C10.4818 5.24219 10.6394 5.30743 10.7555 5.42357C10.8716 5.53971 10.9369 5.69723 10.9369 5.86148V9.57721H14.6526C14.8169 9.57721 14.9744 9.64246 15.0905 9.7586C15.2067 9.87474 15.2719 10.0323 15.2719 10.1965C15.2719 10.3607 15.2067 10.5183 15.0905 10.6344C14.9744 10.7505 14.8169 10.8158 14.6526 10.8158H10.9369V14.5315C10.9369 14.6958 10.8716 14.8533 10.7555 14.9694C10.6394 15.0856 10.4818 15.1508 10.3176 15.1508C10.1534 15.1508 9.99583 15.0856 9.87969 14.9694C9.76355 14.8533 9.69831 14.6958 9.69831 14.5315V10.8158H5.98257C5.81832 10.8158 5.66081 10.7505 5.54467 10.6344C5.42853 10.5183 5.36328 10.3607 5.36328 10.1965C5.36328 10.0323 5.42853 9.87474 5.54467 9.7586C5.66081 9.64246 5.81832 9.57721 5.98257 9.57721H9.69831V5.86148C9.69831 5.69723 9.76355 5.53971 9.87969 5.42357C9.99583 5.30743 10.1534 5.24219 10.3176 5.24219Z" fill="#363330"/>
</svg>
