<svg width="21" height="21" viewBox="0 0 21 21" fill="none" xmlns="http://www.w3.org/2000/svg">
<path d="M10.8449 5.71094C11.0092 5.71094 11.1667 5.77618 11.2828 5.89232C11.399 6.00846 11.4642 6.16598 11.4642 6.33023V10.046H15.18C15.3442 10.046 15.5017 10.1112 15.6179 10.2273C15.734 10.3435 15.7993 10.501 15.7993 10.6653C15.7993 10.8295 15.734 10.987 15.6179 11.1032C15.5017 11.2193 15.3442 11.2845 15.18 11.2845H11.4642V15.0003C11.4642 15.1645 11.399 15.322 11.2828 15.4382C11.1667 15.5543 11.0092 15.6196 10.8449 15.6196C10.6807 15.6196 10.5232 15.5543 10.407 15.4382C10.2909 15.322 10.2257 15.1645 10.2257 15.0003V11.2845H6.50991C6.34567 11.2845 6.18815 11.2193 6.07201 11.1032C5.95587 10.987 5.89062 10.8295 5.89062 10.6653C5.89062 10.501 5.95587 10.3435 6.07201 10.2273C6.18815 10.1112 6.34567 10.046 6.50991 10.046H10.2257V6.33023C10.2257 6.16598 10.2909 6.00846 10.407 5.89232C10.5232 5.77618 10.6807 5.71094 10.8449 5.71094Z" fill="#363330"/>
</svg>
