<svg width="21" height="21" viewBox="0 0 21 21" fill="none" xmlns="http://www.w3.org/2000/svg">
<path d="M10.3713 5.24219C10.5356 5.24219 10.6931 5.30743 10.8092 5.42357C10.9254 5.53971 10.9906 5.69723 10.9906 5.86148V9.57721H14.7063C14.8706 9.57721 15.0281 9.64246 15.1442 9.7586C15.2604 9.87474 15.3256 10.0323 15.3256 10.1965C15.3256 10.3607 15.2604 10.5183 15.1442 10.6344C15.0281 10.7505 14.8706 10.8158 14.7063 10.8158H10.9906V14.5315C10.9906 14.6958 10.9254 14.8533 10.8092 14.9694C10.6931 15.0856 10.5356 15.1508 10.3713 15.1508C10.2071 15.1508 10.0495 15.0856 9.9334 14.9694C9.81726 14.8533 9.75202 14.6958 9.75202 14.5315V10.8158H6.03628C5.87204 10.8158 5.71452 10.7505 5.59838 10.6344C5.48224 10.5183 5.41699 10.3607 5.41699 10.1965C5.41699 10.0323 5.48224 9.87474 5.59838 9.7586C5.71452 9.64246 5.87204 9.57721 6.03628 9.57721H9.75202V5.86148C9.75202 5.69723 9.81726 5.53971 9.9334 5.42357C10.0495 5.30743 10.2071 5.24219 10.3713 5.24219Z" fill="#363330"/>
</svg>
