<svg width="21" height="21" viewBox="0 0 21 21" fill="none" xmlns="http://www.w3.org/2000/svg">
<path d="M10.2629 5.24219C10.4272 5.24219 10.5847 5.30743 10.7008 5.42357C10.817 5.53971 10.8822 5.69723 10.8822 5.86148V9.57721H14.5979C14.7622 9.57721 14.9197 9.64246 15.0358 9.7586C15.152 9.87474 15.2172 10.0323 15.2172 10.1965C15.2172 10.3607 15.152 10.5183 15.0358 10.6344C14.9197 10.7505 14.7622 10.8158 14.5979 10.8158H10.8822V14.5315C10.8822 14.6958 10.817 14.8533 10.7008 14.9694C10.5847 15.0856 10.4272 15.1508 10.2629 15.1508C10.0987 15.1508 9.94114 15.0856 9.82501 14.9694C9.70887 14.8533 9.64362 14.6958 9.64362 14.5315V10.8158H5.92788C5.76364 10.8158 5.60612 10.7505 5.48998 10.6344C5.37384 10.5183 5.30859 10.3607 5.30859 10.1965C5.30859 10.0323 5.37384 9.87474 5.48998 9.7586C5.60612 9.64246 5.76364 9.57721 5.92788 9.57721H9.64362V5.86148C9.64362 5.69723 9.70887 5.53971 9.82501 5.42357C9.94114 5.30743 10.0987 5.24219 10.2629 5.24219Z" fill="#363330"/>
</svg>
