<svg width="21" height="21" viewBox="0 0 21 21" fill="none" xmlns="http://www.w3.org/2000/svg">
<path d="M10.7903 5.24219C10.9545 5.24219 11.112 5.30743 11.2282 5.42357C11.3443 5.53971 11.4095 5.69723 11.4095 5.86148V9.57721H15.1253C15.2895 9.57721 15.447 9.64246 15.5632 9.7586C15.6793 9.87474 15.7446 10.0323 15.7446 10.1965C15.7446 10.3607 15.6793 10.5183 15.5632 10.6344C15.447 10.7505 15.2895 10.8158 15.1253 10.8158H11.4095V14.5315C11.4095 14.6958 11.3443 14.8533 11.2282 14.9694C11.112 15.0856 10.9545 15.1508 10.7903 15.1508C10.626 15.1508 10.4685 15.0856 10.3523 14.9694C10.2362 14.8533 10.171 14.6958 10.171 14.5315V10.8158H6.45523C6.29098 10.8158 6.13346 10.7505 6.01732 10.6344C5.90118 10.5183 5.83594 10.3607 5.83594 10.1965C5.83594 10.0323 5.90118 9.87474 6.01732 9.7586C6.13346 9.64246 6.29098 9.57721 6.45523 9.57721H10.171V5.86148C10.171 5.69723 10.2362 5.53971 10.3523 5.42357C10.4685 5.30743 10.626 5.24219 10.7903 5.24219Z" fill="#363330"/>
</svg>
