<svg width="15" height="15" viewBox="0 0 15 15" fill="none" xmlns="http://www.w3.org/2000/svg">
<path d="M8.33424 5.60372C8.33424 5.4923 8.28998 5.38544 8.21119 5.30665C8.1324 5.22786 8.02554 5.18359 7.91411 5.18359C7.80269 5.18359 7.69583 5.22786 7.61704 5.30665C7.53825 5.38544 7.49398 5.4923 7.49398 5.60372V6.8641H6.2336C6.12218 6.8641 6.01532 6.90837 5.93653 6.98715C5.85774 7.06594 5.81348 7.1728 5.81348 7.28423C5.81348 7.39565 5.85774 7.50251 5.93653 7.5813C6.01532 7.66009 6.12218 7.70436 6.2336 7.70436H7.49398V8.96474C7.49398 9.07616 7.53825 9.18302 7.61704 9.26181C7.69583 9.3406 7.80269 9.38486 7.91411 9.38486C8.02554 9.38486 8.1324 9.3406 8.21119 9.26181C8.28998 9.18302 8.33424 9.07616 8.33424 8.96474V7.70436H9.59462C9.70605 7.70436 9.81291 7.66009 9.8917 7.5813C9.97048 7.50251 10.0147 7.39565 10.0147 7.28423C10.0147 7.1728 9.97048 7.06594 9.8917 6.98715C9.81291 6.90837 9.70605 6.8641 9.59462 6.8641H8.33424V5.60372Z" fill="#363330"/>
<path d="M1.19161 1.82031C1.08019 1.82031 0.973326 1.86458 0.894537 1.94336C0.815748 2.02215 0.771484 2.12901 0.771484 2.24044C0.771484 2.35186 0.815748 2.45873 0.894537 2.53751C0.973326 2.6163 1.08019 2.66057 1.19161 2.66057H2.12429L2.46124 4.01086L3.71994 10.7203C3.73796 10.8166 3.78905 10.9035 3.86439 10.9661C3.93972 11.0287 4.03455 11.063 4.1325 11.0631H4.97276C4.52706 11.0631 4.09961 11.2402 3.78446 11.5553C3.4693 11.8705 3.29225 12.2979 3.29225 12.7436C3.29225 13.1893 3.4693 13.6168 3.78446 13.9319C4.09961 14.2471 4.52706 14.4241 4.97276 14.4241C5.41845 14.4241 5.8459 14.2471 6.16105 13.9319C6.47621 13.6168 6.65326 13.1893 6.65326 12.7436C6.65326 12.2979 6.47621 11.8705 6.16105 11.5553C5.8459 11.2402 5.41845 11.0631 4.97276 11.0631H10.8545C10.4088 11.0631 9.98139 11.2402 9.66624 11.5553C9.35108 11.8705 9.17403 12.2979 9.17403 12.7436C9.17403 13.1893 9.35108 13.6168 9.66624 13.9319C9.98139 14.2471 10.4088 14.4241 10.8545 14.4241C11.3002 14.4241 11.7277 14.2471 12.0428 13.9319C12.358 13.6168 12.535 13.1893 12.535 12.7436C12.535 12.2979 12.358 11.8705 12.0428 11.5553C11.7277 11.2402 11.3002 11.0631 10.8545 11.0631H11.6948C11.7927 11.063 11.8876 11.0287 11.9629 10.9661C12.0382 10.9035 12.0893 10.8166 12.1074 10.7203L13.3677 3.99825C13.3791 3.93762 13.3769 3.87523 13.3615 3.81551C13.346 3.7558 13.3175 3.70022 13.2782 3.65274C13.2388 3.60526 13.1894 3.56703 13.1336 3.54078C13.0778 3.51452 13.0169 3.50088 12.9552 3.50082H3.19982L2.85952 2.13877C2.83684 2.04784 2.78441 1.9671 2.71057 1.9094C2.63672 1.8517 2.54571 1.82034 2.45199 1.82031H1.19161ZM4.48121 10.2229L3.37795 4.34107H12.4493L11.3461 10.2229H4.48121ZM5.81301 12.7436C5.81301 12.9665 5.72448 13.1802 5.56691 13.3378C5.40933 13.4953 5.1956 13.5839 4.97276 13.5839C4.74991 13.5839 4.53618 13.4953 4.37861 13.3378C4.22103 13.1802 4.1325 12.9665 4.1325 12.7436C4.1325 12.5208 4.22103 12.307 4.37861 12.1495C4.53618 11.9919 4.74991 11.9034 4.97276 11.9034C5.1956 11.9034 5.40933 11.9919 5.56691 12.1495C5.72448 12.307 5.81301 12.5208 5.81301 12.7436ZM11.6948 12.7436C11.6948 12.9665 11.6063 13.1802 11.4487 13.3378C11.2911 13.4953 11.0774 13.5839 10.8545 13.5839C10.6317 13.5839 10.418 13.4953 10.2604 13.3378C10.1028 13.1802 10.0143 12.9665 10.0143 12.7436C10.0143 12.5208 10.1028 12.307 10.2604 12.1495C10.418 11.9919 10.6317 11.9034 10.8545 11.9034C11.0774 11.9034 11.2911 11.9919 11.4487 12.1495C11.6063 12.307 11.6948 12.5208 11.6948 12.7436Z" fill="#363330"/>
</svg>
