<svg width="14" height="15" viewBox="0 0 14 15" fill="none" xmlns="http://www.w3.org/2000/svg">
<path d="M7.8401 5.45528C7.8401 5.34386 7.79584 5.237 7.71705 5.15821C7.63826 5.07942 7.5314 5.03516 7.41997 5.03516C7.30855 5.03516 7.20169 5.07942 7.1229 5.15821C7.04411 5.237 6.99984 5.34386 6.99984 5.45528V6.71566H5.73946C5.62804 6.71566 5.52118 6.75993 5.44239 6.83872C5.3636 6.91751 5.31934 7.02437 5.31934 7.13579C5.31934 7.24722 5.3636 7.35408 5.44239 7.43287C5.52118 7.51166 5.62804 7.55592 5.73946 7.55592H6.99984V8.8163C6.99984 8.92772 7.04411 9.03459 7.1229 9.11338C7.20169 9.19216 7.30855 9.23643 7.41997 9.23643C7.5314 9.23643 7.63826 9.19216 7.71705 9.11338C7.79584 9.03459 7.8401 8.92772 7.8401 8.8163V7.55592H9.10048C9.2119 7.55592 9.31877 7.51166 9.39755 7.43287C9.47634 7.35408 9.52061 7.24722 9.52061 7.13579C9.52061 7.02437 9.47634 6.91751 9.39755 6.83872C9.31877 6.75993 9.2119 6.71566 9.10048 6.71566H7.8401V5.45528Z" fill="#363330"/>
<path d="M0.697471 1.67188C0.586046 1.67188 0.479185 1.71614 0.400396 1.79493C0.321607 1.87372 0.277344 1.98058 0.277344 2.092C0.277344 2.20343 0.321607 2.31029 0.400396 2.38908C0.479185 2.46787 0.586046 2.51213 0.697471 2.51213H1.63015L1.9671 3.86242L3.2258 10.5718C3.24382 10.6681 3.29491 10.7551 3.37024 10.8177C3.44558 10.8803 3.54041 10.9146 3.63836 10.9147H4.47861C4.03292 10.9147 3.60547 11.0917 3.29032 11.4069C2.97516 11.722 2.79811 12.1495 2.79811 12.5952C2.79811 13.0409 2.97516 13.4683 3.29032 13.7835C3.60547 14.0986 4.03292 14.2757 4.47861 14.2757C4.92431 14.2757 5.35176 14.0986 5.66691 13.7835C5.98207 13.4683 6.15912 13.0409 6.15912 12.5952C6.15912 12.1495 5.98207 11.722 5.66691 11.4069C5.35176 11.0917 4.92431 10.9147 4.47861 10.9147H10.3604C9.9147 10.9147 9.48725 11.0917 9.1721 11.4069C8.85694 11.722 8.67989 12.1495 8.67989 12.5952C8.67989 13.0409 8.85694 13.4683 9.1721 13.7835C9.48725 14.0986 9.9147 14.2757 10.3604 14.2757C10.8061 14.2757 11.2335 14.0986 11.5487 13.7835C11.8638 13.4683 12.0409 13.0409 12.0409 12.5952C12.0409 12.1495 11.8638 11.722 11.5487 11.4069C11.2335 11.0917 10.8061 10.9147 10.3604 10.9147H11.2006C11.2986 10.9146 11.3934 10.8803 11.4688 10.8177C11.5441 10.7551 11.5952 10.6681 11.6132 10.5718L12.8736 3.84981C12.8849 3.78918 12.8828 3.72679 12.8673 3.66707C12.8518 3.60736 12.8234 3.55179 12.784 3.5043C12.7446 3.45682 12.6953 3.41859 12.6395 3.39234C12.5836 3.36608 12.5227 3.35244 12.461 3.35238H2.70568L2.36538 1.99033C2.3427 1.8994 2.29027 1.81867 2.21642 1.76096C2.14258 1.70326 2.05157 1.6719 1.95785 1.67188H0.697471ZM3.98707 10.0744L2.88381 4.19264H11.9552L10.8519 10.0744H3.98707ZM5.31887 12.5952C5.31887 12.818 5.23034 13.0318 5.07276 13.1893C4.91519 13.3469 4.70146 13.4354 4.47861 13.4354C4.25577 13.4354 4.04204 13.3469 3.88447 13.1893C3.72689 13.0318 3.63836 12.818 3.63836 12.5952C3.63836 12.3723 3.72689 12.1586 3.88447 12.001C4.04204 11.8435 4.25577 11.7549 4.47861 11.7549C4.70146 11.7549 4.91519 11.8435 5.07276 12.001C5.23034 12.1586 5.31887 12.3723 5.31887 12.5952ZM11.2006 12.5952C11.2006 12.818 11.1121 13.0318 10.9545 13.1893C10.797 13.3469 10.5832 13.4354 10.3604 13.4354C10.1375 13.4354 9.92382 13.3469 9.76625 13.1893C9.60867 13.0318 9.52014 12.818 9.52014 12.5952C9.52014 12.3723 9.60867 12.1586 9.76625 12.001C9.92382 11.8435 10.1375 11.7549 10.3604 11.7549C10.5832 11.7549 10.797 11.8435 10.9545 12.001C11.1121 12.1586 11.2006 12.3723 11.2006 12.5952Z" fill="#363330"/>
</svg>
