<svg width="14" height="15" viewBox="0 0 14 15" fill="none" xmlns="http://www.w3.org/2000/svg">
<path d="M7.8401 5.60372C7.8401 5.4923 7.79584 5.38544 7.71705 5.30665C7.63826 5.22786 7.5314 5.18359 7.41997 5.18359C7.30855 5.18359 7.20169 5.22786 7.1229 5.30665C7.04411 5.38544 6.99984 5.4923 6.99984 5.60372V6.8641H5.73946C5.62804 6.8641 5.52118 6.90837 5.44239 6.98715C5.3636 7.06594 5.31934 7.1728 5.31934 7.28423C5.31934 7.39565 5.3636 7.50251 5.44239 7.5813C5.52118 7.66009 5.62804 7.70436 5.73946 7.70436H6.99984V8.96474C6.99984 9.07616 7.04411 9.18302 7.1229 9.26181C7.20169 9.3406 7.30855 9.38486 7.41997 9.38486C7.5314 9.38486 7.63826 9.3406 7.71705 9.26181C7.79584 9.18302 7.8401 9.07616 7.8401 8.96474V7.70436H9.10048C9.2119 7.70436 9.31877 7.66009 9.39755 7.5813C9.47634 7.50251 9.52061 7.39565 9.52061 7.28423C9.52061 7.1728 9.47634 7.06594 9.39755 6.98715C9.31877 6.90837 9.2119 6.8641 9.10048 6.8641H7.8401V5.60372Z" fill="#363330"/>
<path d="M0.697471 1.82031C0.586046 1.82031 0.479185 1.86458 0.400396 1.94336C0.321607 2.02215 0.277344 2.12901 0.277344 2.24044C0.277344 2.35186 0.321607 2.45873 0.400396 2.53751C0.479185 2.6163 0.586046 2.66057 0.697471 2.66057H1.63015L1.9671 4.01086L3.2258 10.7203C3.24382 10.8166 3.29491 10.9035 3.37024 10.9661C3.44558 11.0287 3.54041 11.063 3.63836 11.0631H4.47861C4.03292 11.0631 3.60547 11.2402 3.29032 11.5553C2.97516 11.8705 2.79811 12.2979 2.79811 12.7436C2.79811 13.1893 2.97516 13.6168 3.29032 13.9319C3.60547 14.2471 4.03292 14.4241 4.47861 14.4241C4.92431 14.4241 5.35176 14.2471 5.66691 13.9319C5.98207 13.6168 6.15912 13.1893 6.15912 12.7436C6.15912 12.2979 5.98207 11.8705 5.66691 11.5553C5.35176 11.2402 4.92431 11.0631 4.47861 11.0631H10.3604C9.9147 11.0631 9.48725 11.2402 9.1721 11.5553C8.85694 11.8705 8.67989 12.2979 8.67989 12.7436C8.67989 13.1893 8.85694 13.6168 9.1721 13.9319C9.48725 14.2471 9.9147 14.4241 10.3604 14.4241C10.8061 14.4241 11.2335 14.2471 11.5487 13.9319C11.8638 13.6168 12.0409 13.1893 12.0409 12.7436C12.0409 12.2979 11.8638 11.8705 11.5487 11.5553C11.2335 11.2402 10.8061 11.0631 10.3604 11.0631H11.2006C11.2986 11.063 11.3934 11.0287 11.4688 10.9661C11.5441 10.9035 11.5952 10.8166 11.6132 10.7203L12.8736 3.99825C12.8849 3.93762 12.8828 3.87523 12.8673 3.81551C12.8518 3.7558 12.8234 3.70022 12.784 3.65274C12.7446 3.60526 12.6953 3.56703 12.6395 3.54078C12.5836 3.51452 12.5227 3.50088 12.461 3.50082H2.70568L2.36538 2.13877C2.3427 2.04784 2.29027 1.9671 2.21642 1.9094C2.14258 1.8517 2.05157 1.82034 1.95785 1.82031H0.697471ZM3.98707 10.2229L2.88381 4.34107H11.9552L10.8519 10.2229H3.98707ZM5.31887 12.7436C5.31887 12.9665 5.23034 13.1802 5.07276 13.3378C4.91519 13.4953 4.70146 13.5839 4.47861 13.5839C4.25577 13.5839 4.04204 13.4953 3.88447 13.3378C3.72689 13.1802 3.63836 12.9665 3.63836 12.7436C3.63836 12.5208 3.72689 12.307 3.88447 12.1495C4.04204 11.9919 4.25577 11.9034 4.47861 11.9034C4.70146 11.9034 4.91519 11.9919 5.07276 12.1495C5.23034 12.307 5.31887 12.5208 5.31887 12.7436ZM11.2006 12.7436C11.2006 12.9665 11.1121 13.1802 10.9545 13.3378C10.797 13.4953 10.5832 13.5839 10.3604 13.5839C10.1375 13.5839 9.92382 13.4953 9.76625 13.3378C9.60867 13.1802 9.52014 12.9665 9.52014 12.7436C9.52014 12.5208 9.60867 12.307 9.76625 12.1495C9.92382 11.9919 10.1375 11.9034 10.3604 11.9034C10.5832 11.9034 10.797 11.9919 10.9545 12.1495C11.1121 12.307 11.2006 12.5208 11.2006 12.7436Z" fill="#363330"/>
</svg>
