<svg width="14" height="15" viewBox="0 0 14 15" fill="none" xmlns="http://www.w3.org/2000/svg">
<path d="M8.05494 5.592C8.05494 5.48058 8.01068 5.37372 7.93189 5.29493C7.8531 5.21614 7.74624 5.17188 7.63482 5.17188C7.52339 5.17188 7.41653 5.21614 7.33774 5.29493C7.25895 5.37372 7.21469 5.48058 7.21469 5.592V6.85238H5.95431C5.84288 6.85238 5.73602 6.89665 5.65723 6.97544C5.57844 7.05422 5.53418 7.16109 5.53418 7.27251C5.53418 7.38394 5.57844 7.4908 5.65723 7.56959C5.73602 7.64837 5.84288 7.69264 5.95431 7.69264H7.21469V8.95302C7.21469 9.06444 7.25895 9.1713 7.33774 9.25009C7.41653 9.32888 7.52339 9.37315 7.63482 9.37315C7.74624 9.37315 7.8531 9.32888 7.93189 9.25009C8.01068 9.1713 8.05494 9.06444 8.05494 8.95302V7.69264H9.31532C9.42675 7.69264 9.53361 7.64837 9.6124 7.56959C9.69119 7.4908 9.73545 7.38394 9.73545 7.27251C9.73545 7.16109 9.69119 7.05422 9.6124 6.97544C9.53361 6.89665 9.42675 6.85238 9.31532 6.85238H8.05494V5.592Z" fill="#363330"/>
<path d="M0.912315 1.80859C0.80089 1.80859 0.694029 1.85286 0.61524 1.93165C0.536451 2.01044 0.492188 2.1173 0.492188 2.22872C0.492188 2.34015 0.536451 2.44701 0.61524 2.5258C0.694029 2.60458 0.80089 2.64885 0.912315 2.64885H1.845L2.18194 3.99914L3.44064 10.7086C3.45866 10.8048 3.50976 10.8918 3.58509 10.9544C3.66042 11.017 3.75526 11.0513 3.8532 11.0514H4.69346C4.24776 11.0514 3.82032 11.2284 3.50516 11.5436C3.19 11.8588 3.01295 12.2862 3.01295 12.7319C3.01295 13.1776 3.19 13.605 3.50516 13.9202C3.82032 14.2354 4.24776 14.4124 4.69346 14.4124C5.13916 14.4124 5.5666 14.2354 5.88176 13.9202C6.19691 13.605 6.37397 13.1776 6.37397 12.7319C6.37397 12.2862 6.19691 11.8588 5.88176 11.5436C5.5666 11.2284 5.13916 11.0514 4.69346 11.0514H10.5752C10.1295 11.0514 9.7021 11.2284 9.38694 11.5436C9.07178 11.8588 8.89473 12.2862 8.89473 12.7319C8.89473 13.1776 9.07178 13.605 9.38694 13.9202C9.7021 14.2354 10.1295 14.4124 10.5752 14.4124C11.0209 14.4124 11.4484 14.2354 11.7635 13.9202C12.0787 13.605 12.2557 13.1776 12.2557 12.7319C12.2557 12.2862 12.0787 11.8588 11.7635 11.5436C11.4484 11.2284 11.0209 11.0514 10.5752 11.0514H11.4155C11.5134 11.0513 11.6083 11.017 11.6836 10.9544C11.7589 10.8918 11.81 10.8048 11.8281 10.7086L13.0884 3.98653C13.0998 3.9259 13.0976 3.86351 13.0822 3.80379C13.0667 3.74408 13.0382 3.68851 12.9989 3.64102C12.9595 3.59354 12.9101 3.55531 12.8543 3.52906C12.7985 3.5028 12.7376 3.48916 12.6759 3.4891H2.92052L2.58022 2.12705C2.55754 2.03612 2.50511 1.95539 2.43127 1.89768C2.35743 1.83998 2.26641 1.80862 2.1727 1.80859H0.912315ZM4.20191 10.2111L3.09866 4.32936H12.17L11.0668 10.2111H4.20191ZM5.53371 12.7319C5.53371 12.9547 5.44519 13.1685 5.28761 13.326C5.13003 13.4836 4.91631 13.5722 4.69346 13.5722C4.47061 13.5722 4.25689 13.4836 4.09931 13.326C3.94173 13.1685 3.8532 12.9547 3.8532 12.7319C3.8532 12.509 3.94173 12.2953 4.09931 12.1377C4.25689 11.9802 4.47061 11.8916 4.69346 11.8916C4.91631 11.8916 5.13003 11.9802 5.28761 12.1377C5.44519 12.2953 5.53371 12.509 5.53371 12.7319ZM11.4155 12.7319C11.4155 12.9547 11.327 13.1685 11.1694 13.326C11.0118 13.4836 10.7981 13.5722 10.5752 13.5722C10.3524 13.5722 10.1387 13.4836 9.98109 13.326C9.82351 13.1685 9.73498 12.9547 9.73498 12.7319C9.73498 12.509 9.82351 12.2953 9.98109 12.1377C10.1387 11.9802 10.3524 11.8916 10.5752 11.8916C10.7981 11.8916 11.0118 11.9802 11.1694 12.1377C11.327 12.2953 11.4155 12.509 11.4155 12.7319Z" fill="#363330"/>
</svg>
