<svg width="15" height="14" viewBox="0 0 15 14" fill="none" xmlns="http://www.w3.org/2000/svg">
<path d="M8.33424 4.88106C8.33424 4.76964 8.28998 4.66278 8.21119 4.58399C8.1324 4.5052 8.02554 4.46094 7.91411 4.46094C7.80269 4.46094 7.69583 4.5052 7.61704 4.58399C7.53825 4.66278 7.49398 4.76964 7.49398 4.88106V6.14145H6.2336C6.12218 6.14145 6.01532 6.18571 5.93653 6.2645C5.85774 6.34329 5.81348 6.45015 5.81348 6.56157C5.81348 6.673 5.85774 6.77986 5.93653 6.85865C6.01532 6.93744 6.12218 6.9817 6.2336 6.9817H7.49398V8.24208C7.49398 8.35351 7.53825 8.46037 7.61704 8.53916C7.69583 8.61795 7.80269 8.66221 7.91411 8.66221C8.02554 8.66221 8.1324 8.61795 8.21119 8.53916C8.28998 8.46037 8.33424 8.35351 8.33424 8.24208V6.9817H9.59462C9.70605 6.9817 9.81291 6.93744 9.8917 6.85865C9.97048 6.77986 10.0147 6.673 10.0147 6.56157C10.0147 6.45015 9.97048 6.34329 9.8917 6.2645C9.81291 6.18571 9.70605 6.14145 9.59462 6.14145H8.33424V4.88106Z" fill="#363330"/>
<path d="M1.19161 1.09766C1.08019 1.09766 0.973326 1.14192 0.894537 1.22071C0.815748 1.2995 0.771484 1.40636 0.771484 1.51778C0.771484 1.62921 0.815748 1.73607 0.894537 1.81486C0.973326 1.89365 1.08019 1.93791 1.19161 1.93791H2.12429L2.46124 3.2882L3.71994 9.99763C3.73796 10.0939 3.78905 10.1809 3.86439 10.2435C3.93972 10.3061 4.03455 10.3404 4.1325 10.3405H4.97276C4.52706 10.3405 4.09961 10.5175 3.78446 10.8327C3.4693 11.1478 3.29225 11.5753 3.29225 12.021C3.29225 12.4667 3.4693 12.8941 3.78446 13.2093C4.09961 13.5244 4.52706 13.7015 4.97276 13.7015C5.41845 13.7015 5.8459 13.5244 6.16105 13.2093C6.47621 12.8941 6.65326 12.4667 6.65326 12.021C6.65326 11.5753 6.47621 11.1478 6.16105 10.8327C5.8459 10.5175 5.41845 10.3405 4.97276 10.3405H10.8545C10.4088 10.3405 9.98139 10.5175 9.66624 10.8327C9.35108 11.1478 9.17403 11.5753 9.17403 12.021C9.17403 12.4667 9.35108 12.8941 9.66624 13.2093C9.98139 13.5244 10.4088 13.7015 10.8545 13.7015C11.3002 13.7015 11.7277 13.5244 12.0428 13.2093C12.358 12.8941 12.535 12.4667 12.535 12.021C12.535 11.5753 12.358 11.1478 12.0428 10.8327C11.7277 10.5175 11.3002 10.3405 10.8545 10.3405H11.6948C11.7927 10.3404 11.8876 10.3061 11.9629 10.2435C12.0382 10.1809 12.0893 10.0939 12.1074 9.99763L13.3677 3.2756C13.3791 3.21496 13.3769 3.15257 13.3615 3.09285C13.346 3.03314 13.3175 2.97757 13.2782 2.93009C13.2388 2.8826 13.1894 2.84438 13.1336 2.81812C13.0778 2.79186 13.0169 2.77822 12.9552 2.77816H3.19982L2.85952 1.41611C2.83684 1.32518 2.78441 1.24445 2.71057 1.18674C2.63672 1.12904 2.54571 1.09768 2.45199 1.09766H1.19161ZM4.48121 9.5002L3.37795 3.61842H12.4493L11.3461 9.5002H4.48121ZM5.81301 12.021C5.81301 12.2438 5.72448 12.4575 5.56691 12.6151C5.40933 12.7727 5.1956 12.8612 4.97276 12.8612C4.74991 12.8612 4.53618 12.7727 4.37861 12.6151C4.22103 12.4575 4.1325 12.2438 4.1325 12.021C4.1325 11.7981 4.22103 11.5844 4.37861 11.4268C4.53618 11.2692 4.74991 11.1807 4.97276 11.1807C5.1956 11.1807 5.40933 11.2692 5.56691 11.4268C5.72448 11.5844 5.81301 11.7981 5.81301 12.021ZM11.6948 12.021C11.6948 12.2438 11.6063 12.4575 11.4487 12.6151C11.2911 12.7727 11.0774 12.8612 10.8545 12.8612C10.6317 12.8612 10.418 12.7727 10.2604 12.6151C10.1028 12.4575 10.0143 12.2438 10.0143 12.021C10.0143 11.7981 10.1028 11.5844 10.2604 11.4268C10.418 11.2692 10.6317 11.1807 10.8545 11.1807C11.0774 11.1807 11.2911 11.2692 11.4487 11.4268C11.6063 11.5844 11.6948 11.7981 11.6948 12.021Z" fill="#363330"/>
</svg>
