<svg width="14" height="14" viewBox="0 0 14 14" fill="none" xmlns="http://www.w3.org/2000/svg">
<path d="M7.8401 4.88106C7.8401 4.76964 7.79584 4.66278 7.71705 4.58399C7.63826 4.5052 7.5314 4.46094 7.41997 4.46094C7.30855 4.46094 7.20169 4.5052 7.1229 4.58399C7.04411 4.66278 6.99984 4.76964 6.99984 4.88106V6.14145H5.73946C5.62804 6.14145 5.52118 6.18571 5.44239 6.2645C5.3636 6.34329 5.31934 6.45015 5.31934 6.56157C5.31934 6.673 5.3636 6.77986 5.44239 6.85865C5.52118 6.93744 5.62804 6.9817 5.73946 6.9817H6.99984V8.24208C6.99984 8.35351 7.04411 8.46037 7.1229 8.53916C7.20169 8.61795 7.30855 8.66221 7.41997 8.66221C7.5314 8.66221 7.63826 8.61795 7.71705 8.53916C7.79584 8.46037 7.8401 8.35351 7.8401 8.24208V6.9817H9.10048C9.2119 6.9817 9.31877 6.93744 9.39755 6.85865C9.47634 6.77986 9.52061 6.673 9.52061 6.56157C9.52061 6.45015 9.47634 6.34329 9.39755 6.2645C9.31877 6.18571 9.2119 6.14145 9.10048 6.14145H7.8401V4.88106Z" fill="#363330"/>
<path d="M0.697471 1.09766C0.586046 1.09766 0.479185 1.14192 0.400396 1.22071C0.321607 1.2995 0.277344 1.40636 0.277344 1.51778C0.277344 1.62921 0.321607 1.73607 0.400396 1.81486C0.479185 1.89365 0.586046 1.93791 0.697471 1.93791H1.63015L1.9671 3.2882L3.2258 9.99763C3.24382 10.0939 3.29491 10.1809 3.37024 10.2435C3.44558 10.3061 3.54041 10.3404 3.63836 10.3405H4.47861C4.03292 10.3405 3.60547 10.5175 3.29032 10.8327C2.97516 11.1478 2.79811 11.5753 2.79811 12.021C2.79811 12.4667 2.97516 12.8941 3.29032 13.2093C3.60547 13.5244 4.03292 13.7015 4.47861 13.7015C4.92431 13.7015 5.35176 13.5244 5.66691 13.2093C5.98207 12.8941 6.15912 12.4667 6.15912 12.021C6.15912 11.5753 5.98207 11.1478 5.66691 10.8327C5.35176 10.5175 4.92431 10.3405 4.47861 10.3405H10.3604C9.9147 10.3405 9.48725 10.5175 9.1721 10.8327C8.85694 11.1478 8.67989 11.5753 8.67989 12.021C8.67989 12.4667 8.85694 12.8941 9.1721 13.2093C9.48725 13.5244 9.9147 13.7015 10.3604 13.7015C10.8061 13.7015 11.2335 13.5244 11.5487 13.2093C11.8638 12.8941 12.0409 12.4667 12.0409 12.021C12.0409 11.5753 11.8638 11.1478 11.5487 10.8327C11.2335 10.5175 10.8061 10.3405 10.3604 10.3405H11.2006C11.2986 10.3404 11.3934 10.3061 11.4688 10.2435C11.5441 10.1809 11.5952 10.0939 11.6132 9.99763L12.8736 3.2756C12.8849 3.21496 12.8828 3.15257 12.8673 3.09285C12.8518 3.03314 12.8234 2.97757 12.784 2.93009C12.7446 2.8826 12.6953 2.84438 12.6395 2.81812C12.5836 2.79186 12.5227 2.77822 12.461 2.77816H2.70568L2.36538 1.41611C2.3427 1.32518 2.29027 1.24445 2.21642 1.18674C2.14258 1.12904 2.05157 1.09768 1.95785 1.09766H0.697471ZM3.98707 9.5002L2.88381 3.61842H11.9552L10.8519 9.5002H3.98707ZM5.31887 12.021C5.31887 12.2438 5.23034 12.4575 5.07276 12.6151C4.91519 12.7727 4.70146 12.8612 4.47861 12.8612C4.25577 12.8612 4.04204 12.7727 3.88447 12.6151C3.72689 12.4575 3.63836 12.2438 3.63836 12.021C3.63836 11.7981 3.72689 11.5844 3.88447 11.4268C4.04204 11.2692 4.25577 11.1807 4.47861 11.1807C4.70146 11.1807 4.91519 11.2692 5.07276 11.4268C5.23034 11.5844 5.31887 11.7981 5.31887 12.021ZM11.2006 12.021C11.2006 12.2438 11.1121 12.4575 10.9545 12.6151C10.797 12.7727 10.5832 12.8612 10.3604 12.8612C10.1375 12.8612 9.92382 12.7727 9.76625 12.6151C9.60867 12.4575 9.52014 12.2438 9.52014 12.021C9.52014 11.7981 9.60867 11.5844 9.76625 11.4268C9.92382 11.2692 10.1375 11.1807 10.3604 11.1807C10.5832 11.1807 10.797 11.2692 10.9545 11.4268C11.1121 11.5844 11.2006 11.7981 11.2006 12.021Z" fill="#363330"/>
</svg>
