<svg width="15" height="14" viewBox="0 0 15 14" fill="none" xmlns="http://www.w3.org/2000/svg">
<path d="M8.33424 5.0295C8.33424 4.91808 8.28998 4.81122 8.21119 4.73243C8.1324 4.65364 8.02554 4.60938 7.91411 4.60938C7.80269 4.60938 7.69583 4.65364 7.61704 4.73243C7.53825 4.81122 7.49398 4.91808 7.49398 5.0295V6.28988H6.2336C6.12218 6.28988 6.01532 6.33415 5.93653 6.41294C5.85774 6.49172 5.81348 6.59859 5.81348 6.71001C5.81348 6.82144 5.85774 6.9283 5.93653 7.00709C6.01532 7.08587 6.12218 7.13014 6.2336 7.13014H7.49398V8.39052C7.49398 8.50194 7.53825 8.6088 7.61704 8.68759C7.69583 8.76638 7.80269 8.81065 7.91411 8.81065C8.02554 8.81065 8.1324 8.76638 8.21119 8.68759C8.28998 8.6088 8.33424 8.50194 8.33424 8.39052V7.13014H9.59462C9.70605 7.13014 9.81291 7.08587 9.8917 7.00709C9.97048 6.9283 10.0147 6.82144 10.0147 6.71001C10.0147 6.59859 9.97048 6.49172 9.8917 6.41294C9.81291 6.33415 9.70605 6.28988 9.59462 6.28988H8.33424V5.0295Z" fill="#363330"/>
<path d="M1.19161 1.24609C1.08019 1.24609 0.973326 1.29036 0.894537 1.36915C0.815748 1.44794 0.771484 1.5548 0.771484 1.66622C0.771484 1.77765 0.815748 1.88451 0.894537 1.9633C0.973326 2.04208 1.08019 2.08635 1.19161 2.08635H2.12429L2.46124 3.43664L3.71994 10.1461C3.73796 10.2423 3.78905 10.3293 3.86439 10.3919C3.93972 10.4545 4.03455 10.4888 4.1325 10.4889H4.97276C4.52706 10.4889 4.09961 10.6659 3.78446 10.9811C3.4693 11.2963 3.29225 11.7237 3.29225 12.1694C3.29225 12.6151 3.4693 13.0425 3.78446 13.3577C4.09961 13.6729 4.52706 13.8499 4.97276 13.8499C5.41845 13.8499 5.8459 13.6729 6.16105 13.3577C6.47621 13.0425 6.65326 12.6151 6.65326 12.1694C6.65326 11.7237 6.47621 11.2963 6.16105 10.9811C5.8459 10.6659 5.41845 10.4889 4.97276 10.4889H10.8545C10.4088 10.4889 9.98139 10.6659 9.66624 10.9811C9.35108 11.2963 9.17403 11.7237 9.17403 12.1694C9.17403 12.6151 9.35108 13.0425 9.66624 13.3577C9.98139 13.6729 10.4088 13.8499 10.8545 13.8499C11.3002 13.8499 11.7277 13.6729 12.0428 13.3577C12.358 13.0425 12.535 12.6151 12.535 12.1694C12.535 11.7237 12.358 11.2963 12.0428 10.9811C11.7277 10.6659 11.3002 10.4889 10.8545 10.4889H11.6948C11.7927 10.4888 11.8876 10.4545 11.9629 10.3919C12.0382 10.3293 12.0893 10.2423 12.1074 10.1461L13.3677 3.42403C13.3791 3.3634 13.3769 3.30101 13.3615 3.24129C13.346 3.18158 13.3175 3.12601 13.2782 3.07852C13.2388 3.03104 13.1894 2.99281 13.1336 2.96656C13.0778 2.9403 13.0169 2.92666 12.9552 2.9266H3.19982L2.85952 1.56455C2.83684 1.47362 2.78441 1.39289 2.71057 1.33518C2.63672 1.27748 2.54571 1.24612 2.45199 1.24609H1.19161ZM4.48121 9.64864L3.37795 3.76686H12.4493L11.3461 9.64864H4.48121ZM5.81301 12.1694C5.81301 12.3922 5.72448 12.606 5.56691 12.7635C5.40933 12.9211 5.1956 13.0097 4.97276 13.0097C4.74991 13.0097 4.53618 12.9211 4.37861 12.7635C4.22103 12.606 4.1325 12.3922 4.1325 12.1694C4.1325 11.9465 4.22103 11.7328 4.37861 11.5752C4.53618 11.4177 4.74991 11.3291 4.97276 11.3291C5.1956 11.3291 5.40933 11.4177 5.56691 11.5752C5.72448 11.7328 5.81301 11.9465 5.81301 12.1694ZM11.6948 12.1694C11.6948 12.3922 11.6063 12.606 11.4487 12.7635C11.2911 12.9211 11.0774 13.0097 10.8545 13.0097C10.6317 13.0097 10.418 12.9211 10.2604 12.7635C10.1028 12.606 10.0143 12.3922 10.0143 12.1694C10.0143 11.9465 10.1028 11.7328 10.2604 11.5752C10.418 11.4177 10.6317 11.3291 10.8545 11.3291C11.0774 11.3291 11.2911 11.4177 11.4487 11.5752C11.6063 11.7328 11.6948 11.9465 11.6948 12.1694Z" fill="#363330"/>
</svg>
