<svg width="15" height="15" viewBox="0 0 15 15" fill="none" xmlns="http://www.w3.org/2000/svg">
<path d="M8.33424 5.45528C8.33424 5.34386 8.28998 5.237 8.21119 5.15821C8.1324 5.07942 8.02554 5.03516 7.91411 5.03516C7.80269 5.03516 7.69583 5.07942 7.61704 5.15821C7.53825 5.237 7.49398 5.34386 7.49398 5.45528V6.71566H6.2336C6.12218 6.71566 6.01532 6.75993 5.93653 6.83872C5.85774 6.91751 5.81348 7.02437 5.81348 7.13579C5.81348 7.24722 5.85774 7.35408 5.93653 7.43287C6.01532 7.51166 6.12218 7.55592 6.2336 7.55592H7.49398V8.8163C7.49398 8.92772 7.53825 9.03459 7.61704 9.11338C7.69583 9.19216 7.80269 9.23643 7.91411 9.23643C8.02554 9.23643 8.1324 9.19216 8.21119 9.11338C8.28998 9.03459 8.33424 8.92772 8.33424 8.8163V7.55592H9.59462C9.70605 7.55592 9.81291 7.51166 9.8917 7.43287C9.97048 7.35408 10.0147 7.24722 10.0147 7.13579C10.0147 7.02437 9.97048 6.91751 9.8917 6.83872C9.81291 6.75993 9.70605 6.71566 9.59462 6.71566H8.33424V5.45528Z" fill="#363330"/>
<path d="M1.19161 1.67188C1.08019 1.67188 0.973326 1.71614 0.894537 1.79493C0.815748 1.87372 0.771484 1.98058 0.771484 2.092C0.771484 2.20343 0.815748 2.31029 0.894537 2.38908C0.973326 2.46787 1.08019 2.51213 1.19161 2.51213H2.12429L2.46124 3.86242L3.71994 10.5718C3.73796 10.6681 3.78905 10.7551 3.86439 10.8177C3.93972 10.8803 4.03455 10.9146 4.1325 10.9147H4.97276C4.52706 10.9147 4.09961 11.0917 3.78446 11.4069C3.4693 11.722 3.29225 12.1495 3.29225 12.5952C3.29225 13.0409 3.4693 13.4683 3.78446 13.7835C4.09961 14.0986 4.52706 14.2757 4.97276 14.2757C5.41845 14.2757 5.8459 14.0986 6.16105 13.7835C6.47621 13.4683 6.65326 13.0409 6.65326 12.5952C6.65326 12.1495 6.47621 11.722 6.16105 11.4069C5.8459 11.0917 5.41845 10.9147 4.97276 10.9147H10.8545C10.4088 10.9147 9.98139 11.0917 9.66624 11.4069C9.35108 11.722 9.17403 12.1495 9.17403 12.5952C9.17403 13.0409 9.35108 13.4683 9.66624 13.7835C9.98139 14.0986 10.4088 14.2757 10.8545 14.2757C11.3002 14.2757 11.7277 14.0986 12.0428 13.7835C12.358 13.4683 12.535 13.0409 12.535 12.5952C12.535 12.1495 12.358 11.722 12.0428 11.4069C11.7277 11.0917 11.3002 10.9147 10.8545 10.9147H11.6948C11.7927 10.9146 11.8876 10.8803 11.9629 10.8177C12.0382 10.7551 12.0893 10.6681 12.1074 10.5718L13.3677 3.84981C13.3791 3.78918 13.3769 3.72679 13.3615 3.66707C13.346 3.60736 13.3175 3.55179 13.2782 3.5043C13.2388 3.45682 13.1894 3.41859 13.1336 3.39234C13.0778 3.36608 13.0169 3.35244 12.9552 3.35238H3.19982L2.85952 1.99033C2.83684 1.8994 2.78441 1.81867 2.71057 1.76096C2.63672 1.70326 2.54571 1.6719 2.45199 1.67188H1.19161ZM4.48121 10.0744L3.37795 4.19264H12.4493L11.3461 10.0744H4.48121ZM5.81301 12.5952C5.81301 12.818 5.72448 13.0318 5.56691 13.1893C5.40933 13.3469 5.1956 13.4354 4.97276 13.4354C4.74991 13.4354 4.53618 13.3469 4.37861 13.1893C4.22103 13.0318 4.1325 12.818 4.1325 12.5952C4.1325 12.3723 4.22103 12.1586 4.37861 12.001C4.53618 11.8435 4.74991 11.7549 4.97276 11.7549C5.1956 11.7549 5.40933 11.8435 5.56691 12.001C5.72448 12.1586 5.81301 12.3723 5.81301 12.5952ZM11.6948 12.5952C11.6948 12.818 11.6063 13.0318 11.4487 13.1893C11.2911 13.3469 11.0774 13.4354 10.8545 13.4354C10.6317 13.4354 10.418 13.3469 10.2604 13.1893C10.1028 13.0318 10.0143 12.818 10.0143 12.5952C10.0143 12.3723 10.1028 12.1586 10.2604 12.001C10.418 11.8435 10.6317 11.7549 10.8545 11.7549C11.0774 11.7549 11.2911 11.8435 11.4487 12.001C11.6063 12.1586 11.6948 12.3723 11.6948 12.5952Z" fill="#363330"/>
</svg>
