<svg width="15" height="15" viewBox="0 0 15 15" fill="none" xmlns="http://www.w3.org/2000/svg">
<path d="M8.33424 5.39669C8.33424 5.28526 8.28998 5.1784 8.21119 5.09961C8.1324 5.02083 8.02554 4.97656 7.91411 4.97656C7.80269 4.97656 7.69583 5.02083 7.61704 5.09961C7.53825 5.1784 7.49398 5.28526 7.49398 5.39669V6.65707H6.2336C6.12218 6.65707 6.01532 6.70133 5.93653 6.78012C5.85774 6.85891 5.81348 6.96577 5.81348 7.0772C5.81348 7.18862 5.85774 7.29548 5.93653 7.37427C6.01532 7.45306 6.12218 7.49732 6.2336 7.49732H7.49398V8.75771C7.49398 8.86913 7.53825 8.97599 7.61704 9.05478C7.69583 9.13357 7.80269 9.17783 7.91411 9.17783C8.02554 9.17783 8.1324 9.13357 8.21119 9.05478C8.28998 8.97599 8.33424 8.86913 8.33424 8.75771V7.49732H9.59462C9.70605 7.49732 9.81291 7.45306 9.8917 7.37427C9.97048 7.29548 10.0147 7.18862 10.0147 7.0772C10.0147 6.96577 9.97048 6.85891 9.8917 6.78012C9.81291 6.70133 9.70605 6.65707 9.59462 6.65707H8.33424V5.39669Z" fill="#363330"/>
<path d="M1.19161 1.61328C1.08019 1.61328 0.973326 1.65754 0.894537 1.73633C0.815748 1.81512 0.771484 1.92198 0.771484 2.03341C0.771484 2.14483 0.815748 2.25169 0.894537 2.33048C0.973326 2.40927 1.08019 2.45354 1.19161 2.45354H2.12429L2.46124 3.80382L3.71994 10.5133C3.73796 10.6095 3.78905 10.6965 3.86439 10.7591C3.93972 10.8217 4.03455 10.856 4.1325 10.8561H4.97276C4.52706 10.8561 4.09961 11.0331 3.78446 11.3483C3.4693 11.6634 3.29225 12.0909 3.29225 12.5366C3.29225 12.9823 3.4693 13.4097 3.78446 13.7249C4.09961 14.04 4.52706 14.2171 4.97276 14.2171C5.41845 14.2171 5.8459 14.04 6.16105 13.7249C6.47621 13.4097 6.65326 12.9823 6.65326 12.5366C6.65326 12.0909 6.47621 11.6634 6.16105 11.3483C5.8459 11.0331 5.41845 10.8561 4.97276 10.8561H10.8545C10.4088 10.8561 9.98139 11.0331 9.66624 11.3483C9.35108 11.6634 9.17403 12.0909 9.17403 12.5366C9.17403 12.9823 9.35108 13.4097 9.66624 13.7249C9.98139 14.04 10.4088 14.2171 10.8545 14.2171C11.3002 14.2171 11.7277 14.04 12.0428 13.7249C12.358 13.4097 12.535 12.9823 12.535 12.5366C12.535 12.0909 12.358 11.6634 12.0428 11.3483C11.7277 11.0331 11.3002 10.8561 10.8545 10.8561H11.6948C11.7927 10.856 11.8876 10.8217 11.9629 10.7591C12.0382 10.6965 12.0893 10.6095 12.1074 10.5133L13.3677 3.79122C13.3791 3.73058 13.3769 3.66819 13.3615 3.60848C13.346 3.54877 13.3175 3.49319 13.2782 3.44571C13.2388 3.39823 13.1894 3.36 13.1336 3.33374C13.0778 3.30749 13.0169 3.29385 12.9552 3.29379H3.19982L2.85952 1.93174C2.83684 1.84081 2.78441 1.76007 2.71057 1.70237C2.63672 1.64467 2.54571 1.61331 2.45199 1.61328H1.19161ZM4.48121 10.0158L3.37795 4.13404H12.4493L11.3461 10.0158H4.48121ZM5.81301 12.5366C5.81301 12.7594 5.72448 12.9732 5.56691 13.1307C5.40933 13.2883 5.1956 13.3768 4.97276 13.3768C4.74991 13.3768 4.53618 13.2883 4.37861 13.1307C4.22103 12.9732 4.1325 12.7594 4.1325 12.5366C4.1325 12.3137 4.22103 12.1 4.37861 11.9424C4.53618 11.7849 4.74991 11.6963 4.97276 11.6963C5.1956 11.6963 5.40933 11.7849 5.56691 11.9424C5.72448 12.1 5.81301 12.3137 5.81301 12.5366ZM11.6948 12.5366C11.6948 12.7594 11.6063 12.9732 11.4487 13.1307C11.2911 13.2883 11.0774 13.3768 10.8545 13.3768C10.6317 13.3768 10.418 13.2883 10.2604 13.1307C10.1028 12.9732 10.0143 12.7594 10.0143 12.5366C10.0143 12.3137 10.1028 12.1 10.2604 11.9424C10.418 11.7849 10.6317 11.6963 10.8545 11.6963C11.0774 11.6963 11.2911 11.7849 11.4487 11.9424C11.6063 12.1 11.6948 12.3137 11.6948 12.5366Z" fill="#363330"/>
</svg>
