<svg width="14" height="15" viewBox="0 0 14 15" fill="none" xmlns="http://www.w3.org/2000/svg">
<path d="M7.8401 5.39669C7.8401 5.28526 7.79584 5.1784 7.71705 5.09961C7.63826 5.02083 7.5314 4.97656 7.41997 4.97656C7.30855 4.97656 7.20169 5.02083 7.1229 5.09961C7.04411 5.1784 6.99984 5.28526 6.99984 5.39669V6.65707H5.73946C5.62804 6.65707 5.52118 6.70133 5.44239 6.78012C5.3636 6.85891 5.31934 6.96577 5.31934 7.0772C5.31934 7.18862 5.3636 7.29548 5.44239 7.37427C5.52118 7.45306 5.62804 7.49732 5.73946 7.49732H6.99984V8.75771C6.99984 8.86913 7.04411 8.97599 7.1229 9.05478C7.20169 9.13357 7.30855 9.17783 7.41997 9.17783C7.5314 9.17783 7.63826 9.13357 7.71705 9.05478C7.79584 8.97599 7.8401 8.86913 7.8401 8.75771V7.49732H9.10048C9.2119 7.49732 9.31877 7.45306 9.39755 7.37427C9.47634 7.29548 9.52061 7.18862 9.52061 7.0772C9.52061 6.96577 9.47634 6.85891 9.39755 6.78012C9.31877 6.70133 9.2119 6.65707 9.10048 6.65707H7.8401V5.39669Z" fill="#363330"/>
<path d="M0.697471 1.61328C0.586046 1.61328 0.479185 1.65754 0.400396 1.73633C0.321607 1.81512 0.277344 1.92198 0.277344 2.03341C0.277344 2.14483 0.321607 2.25169 0.400396 2.33048C0.479185 2.40927 0.586046 2.45354 0.697471 2.45354H1.63015L1.9671 3.80382L3.2258 10.5133C3.24382 10.6095 3.29491 10.6965 3.37024 10.7591C3.44558 10.8217 3.54041 10.856 3.63836 10.8561H4.47861C4.03292 10.8561 3.60547 11.0331 3.29032 11.3483C2.97516 11.6634 2.79811 12.0909 2.79811 12.5366C2.79811 12.9823 2.97516 13.4097 3.29032 13.7249C3.60547 14.04 4.03292 14.2171 4.47861 14.2171C4.92431 14.2171 5.35176 14.04 5.66691 13.7249C5.98207 13.4097 6.15912 12.9823 6.15912 12.5366C6.15912 12.0909 5.98207 11.6634 5.66691 11.3483C5.35176 11.0331 4.92431 10.8561 4.47861 10.8561H10.3604C9.9147 10.8561 9.48725 11.0331 9.1721 11.3483C8.85694 11.6634 8.67989 12.0909 8.67989 12.5366C8.67989 12.9823 8.85694 13.4097 9.1721 13.7249C9.48725 14.04 9.9147 14.2171 10.3604 14.2171C10.8061 14.2171 11.2335 14.04 11.5487 13.7249C11.8638 13.4097 12.0409 12.9823 12.0409 12.5366C12.0409 12.0909 11.8638 11.6634 11.5487 11.3483C11.2335 11.0331 10.8061 10.8561 10.3604 10.8561H11.2006C11.2986 10.856 11.3934 10.8217 11.4688 10.7591C11.5441 10.6965 11.5952 10.6095 11.6132 10.5133L12.8736 3.79122C12.8849 3.73058 12.8828 3.66819 12.8673 3.60848C12.8518 3.54877 12.8234 3.49319 12.784 3.44571C12.7446 3.39823 12.6953 3.36 12.6395 3.33374C12.5836 3.30749 12.5227 3.29385 12.461 3.29379H2.70568L2.36538 1.93174C2.3427 1.84081 2.29027 1.76007 2.21642 1.70237C2.14258 1.64467 2.05157 1.61331 1.95785 1.61328H0.697471ZM3.98707 10.0158L2.88381 4.13404H11.9552L10.8519 10.0158H3.98707ZM5.31887 12.5366C5.31887 12.7594 5.23034 12.9732 5.07276 13.1307C4.91519 13.2883 4.70146 13.3768 4.47861 13.3768C4.25577 13.3768 4.04204 13.2883 3.88447 13.1307C3.72689 12.9732 3.63836 12.7594 3.63836 12.5366C3.63836 12.3137 3.72689 12.1 3.88447 11.9424C4.04204 11.7849 4.25577 11.6963 4.47861 11.6963C4.70146 11.6963 4.91519 11.7849 5.07276 11.9424C5.23034 12.1 5.31887 12.3137 5.31887 12.5366ZM11.2006 12.5366C11.2006 12.7594 11.1121 12.9732 10.9545 13.1307C10.797 13.2883 10.5832 13.3768 10.3604 13.3768C10.1375 13.3768 9.92382 13.2883 9.76625 13.1307C9.60867 12.9732 9.52014 12.7594 9.52014 12.5366C9.52014 12.3137 9.60867 12.1 9.76625 11.9424C9.92382 11.7849 10.1375 11.6963 10.3604 11.6963C10.5832 11.6963 10.797 11.7849 10.9545 11.9424C11.1121 12.1 11.2006 12.3137 11.2006 12.5366Z" fill="#363330"/>
</svg>
