<svg width="14" height="14" viewBox="0 0 14 14" fill="none" xmlns="http://www.w3.org/2000/svg">
<path d="M7.8401 5.0295C7.8401 4.91808 7.79584 4.81122 7.71705 4.73243C7.63826 4.65364 7.5314 4.60938 7.41997 4.60938C7.30855 4.60938 7.20169 4.65364 7.1229 4.73243C7.04411 4.81122 6.99984 4.91808 6.99984 5.0295V6.28988H5.73946C5.62804 6.28988 5.52118 6.33415 5.44239 6.41294C5.3636 6.49172 5.31934 6.59859 5.31934 6.71001C5.31934 6.82144 5.3636 6.9283 5.44239 7.00709C5.52118 7.08587 5.62804 7.13014 5.73946 7.13014H6.99984V8.39052C6.99984 8.50194 7.04411 8.6088 7.1229 8.68759C7.20169 8.76638 7.30855 8.81065 7.41997 8.81065C7.5314 8.81065 7.63826 8.76638 7.71705 8.68759C7.79584 8.6088 7.8401 8.50194 7.8401 8.39052V7.13014H9.10048C9.2119 7.13014 9.31877 7.08587 9.39755 7.00709C9.47634 6.9283 9.52061 6.82144 9.52061 6.71001C9.52061 6.59859 9.47634 6.49172 9.39755 6.41294C9.31877 6.33415 9.2119 6.28988 9.10048 6.28988H7.8401V5.0295Z" fill="#363330"/>
<path d="M0.697471 1.24609C0.586046 1.24609 0.479185 1.29036 0.400396 1.36915C0.321607 1.44794 0.277344 1.5548 0.277344 1.66622C0.277344 1.77765 0.321607 1.88451 0.400396 1.9633C0.479185 2.04208 0.586046 2.08635 0.697471 2.08635H1.63015L1.9671 3.43664L3.2258 10.1461C3.24382 10.2423 3.29491 10.3293 3.37024 10.3919C3.44558 10.4545 3.54041 10.4888 3.63836 10.4889H4.47861C4.03292 10.4889 3.60547 10.6659 3.29032 10.9811C2.97516 11.2963 2.79811 11.7237 2.79811 12.1694C2.79811 12.6151 2.97516 13.0425 3.29032 13.3577C3.60547 13.6729 4.03292 13.8499 4.47861 13.8499C4.92431 13.8499 5.35176 13.6729 5.66691 13.3577C5.98207 13.0425 6.15912 12.6151 6.15912 12.1694C6.15912 11.7237 5.98207 11.2963 5.66691 10.9811C5.35176 10.6659 4.92431 10.4889 4.47861 10.4889H10.3604C9.9147 10.4889 9.48725 10.6659 9.1721 10.9811C8.85694 11.2963 8.67989 11.7237 8.67989 12.1694C8.67989 12.6151 8.85694 13.0425 9.1721 13.3577C9.48725 13.6729 9.9147 13.8499 10.3604 13.8499C10.8061 13.8499 11.2335 13.6729 11.5487 13.3577C11.8638 13.0425 12.0409 12.6151 12.0409 12.1694C12.0409 11.7237 11.8638 11.2963 11.5487 10.9811C11.2335 10.6659 10.8061 10.4889 10.3604 10.4889H11.2006C11.2986 10.4888 11.3934 10.4545 11.4688 10.3919C11.5441 10.3293 11.5952 10.2423 11.6132 10.1461L12.8736 3.42403C12.8849 3.3634 12.8828 3.30101 12.8673 3.24129C12.8518 3.18158 12.8234 3.12601 12.784 3.07852C12.7446 3.03104 12.6953 2.99281 12.6395 2.96656C12.5836 2.9403 12.5227 2.92666 12.461 2.9266H2.70568L2.36538 1.56455C2.3427 1.47362 2.29027 1.39289 2.21642 1.33518C2.14258 1.27748 2.05157 1.24612 1.95785 1.24609H0.697471ZM3.98707 9.64864L2.88381 3.76686H11.9552L10.8519 9.64864H3.98707ZM5.31887 12.1694C5.31887 12.3922 5.23034 12.606 5.07276 12.7635C4.91519 12.9211 4.70146 13.0097 4.47861 13.0097C4.25577 13.0097 4.04204 12.9211 3.88447 12.7635C3.72689 12.606 3.63836 12.3922 3.63836 12.1694C3.63836 11.9465 3.72689 11.7328 3.88447 11.5752C4.04204 11.4177 4.25577 11.3291 4.47861 11.3291C4.70146 11.3291 4.91519 11.4177 5.07276 11.5752C5.23034 11.7328 5.31887 11.9465 5.31887 12.1694ZM11.2006 12.1694C11.2006 12.3922 11.1121 12.606 10.9545 12.7635C10.797 12.9211 10.5832 13.0097 10.3604 13.0097C10.1375 13.0097 9.92382 12.9211 9.76625 12.7635C9.60867 12.606 9.52014 12.3922 9.52014 12.1694C9.52014 11.9465 9.60867 11.7328 9.76625 11.5752C9.92382 11.4177 10.1375 11.3291 10.3604 11.3291C10.5832 11.3291 10.797 11.4177 10.9545 11.5752C11.1121 11.7328 11.2006 11.9465 11.2006 12.1694Z" fill="#363330"/>
</svg>
