<svg width="16" height="16" viewBox="0 0 16 16" fill="none" xmlns="http://www.w3.org/2000/svg">
<path d="M9.02681 5.67917C9.02681 5.55913 8.97912 5.44401 8.89424 5.35913C8.80936 5.27425 8.69424 5.22656 8.5742 5.22656C8.45416 5.22656 8.33904 5.27425 8.25416 5.35913C8.16928 5.44401 8.1216 5.55913 8.1216 5.67917V7.03697H6.76379C6.64375 7.03697 6.52863 7.08466 6.44375 7.16954C6.35887 7.25442 6.31119 7.36954 6.31119 7.48958C6.31119 7.60962 6.35887 7.72474 6.44375 7.80962C6.52863 7.8945 6.64375 7.94218 6.76379 7.94218H8.1216V9.29999C8.1216 9.42003 8.16928 9.53515 8.25416 9.62003C8.33904 9.70491 8.45416 9.75259 8.5742 9.75259C8.69424 9.75259 8.80936 9.70491 8.89424 9.62003C8.97912 9.53515 9.02681 9.42003 9.02681 9.29999V7.94218H10.3846C10.5047 7.94218 10.6198 7.8945 10.7047 7.80962C10.7895 7.72474 10.8372 7.60962 10.8372 7.48958C10.8372 7.36954 10.7895 7.25442 10.7047 7.16954C10.6198 7.08466 10.5047 7.03697 10.3846 7.03697H9.02681V5.67917Z" fill="#363330"/>
<path d="M1.33255 1.60547C1.21251 1.60547 1.09739 1.65315 1.01251 1.73803C0.927629 1.82291 0.879944 1.93803 0.879944 2.05807C0.879944 2.17811 0.927629 2.29323 1.01251 2.37811C1.09739 2.46299 1.21251 2.51067 1.33255 2.51067H2.33733L2.70031 3.96534L4.05631 11.1934C4.07573 11.2971 4.13077 11.3908 4.21193 11.4582C4.29308 11.5257 4.39525 11.5626 4.50077 11.5627H5.40597C4.92582 11.5627 4.46534 11.7535 4.12582 12.093C3.7863 12.4325 3.59556 12.893 3.59556 13.3731C3.59556 13.8533 3.7863 14.3138 4.12582 14.6533C4.46534 14.9928 4.92582 15.1836 5.40597 15.1836C5.88613 15.1836 6.34661 14.9928 6.68613 14.6533C7.02565 14.3138 7.21639 13.8533 7.21639 13.3731C7.21639 12.893 7.02565 12.4325 6.68613 12.093C6.34661 11.7535 5.88613 11.5627 5.40597 11.5627H11.7424C11.2623 11.5627 10.8018 11.7535 10.4623 12.093C10.1227 12.4325 9.932 12.893 9.932 13.3731C9.932 13.8533 10.1227 14.3138 10.4623 14.6533C10.8018 14.9928 11.2623 15.1836 11.7424 15.1836C12.2226 15.1836 12.6831 14.9928 13.0226 14.6533C13.3621 14.3138 13.5528 13.8533 13.5528 13.3731C13.5528 12.893 13.3621 12.4325 13.0226 12.093C12.6831 11.7535 12.2226 11.5627 11.7424 11.5627H12.6476C12.7531 11.5626 12.8553 11.5257 12.9365 11.4582C13.0176 11.3908 13.0727 11.2971 13.0921 11.1934L14.4499 3.95176C14.4621 3.88644 14.4598 3.81923 14.4431 3.7549C14.4265 3.69057 14.3958 3.6307 14.3534 3.57955C14.311 3.52839 14.2578 3.48721 14.1977 3.45892C14.1375 3.43064 14.0719 3.41594 14.0054 3.41588H3.49599L3.12938 1.94854C3.10495 1.85058 3.04847 1.76361 2.96892 1.70144C2.88937 1.63928 2.79131 1.6055 2.69036 1.60547H1.33255ZM4.87643 10.6575L3.68789 4.32109H13.4605L12.272 10.6575H4.87643ZM6.31118 13.3731C6.31118 13.6132 6.21581 13.8435 6.04605 14.0132C5.87629 14.183 5.64605 14.2784 5.40597 14.2784C5.1659 14.2784 4.93566 14.183 4.7659 14.0132C4.59614 13.8435 4.50077 13.6132 4.50077 13.3731C4.50077 13.1331 4.59614 12.9028 4.7659 12.7331C4.93566 12.5633 5.1659 12.4679 5.40597 12.4679C5.64605 12.4679 5.87629 12.5633 6.04605 12.7331C6.21581 12.9028 6.31118 13.1331 6.31118 13.3731ZM12.6476 13.3731C12.6476 13.6132 12.5523 13.8435 12.3825 14.0132C12.2127 14.183 11.9825 14.2784 11.7424 14.2784C11.5023 14.2784 11.2721 14.183 11.1023 14.0132C10.9326 13.8435 10.8372 13.6132 10.8372 13.3731C10.8372 13.1331 10.9326 12.9028 11.1023 12.7331C11.2721 12.5633 11.5023 12.4679 11.7424 12.4679C11.9825 12.4679 12.2127 12.5633 12.3825 12.7331C12.5523 12.9028 12.6476 13.1331 12.6476 13.3731Z" fill="#363330"/>
</svg>
