<svg width="16" height="15" viewBox="0 0 16 15" fill="none" xmlns="http://www.w3.org/2000/svg">
<path d="M9.02629 5.38424C9.02629 5.26421 8.9786 5.14908 8.89372 5.06421C8.80884 4.97933 8.69372 4.93164 8.57368 4.93164C8.45365 4.93164 8.33852 4.97933 8.25364 5.06421C8.16877 5.14908 8.12108 5.26421 8.12108 5.38424V6.74205H6.76327C6.64323 6.74205 6.52811 6.78974 6.44323 6.87462C6.35835 6.9595 6.31067 7.07462 6.31067 7.19466C6.31067 7.31469 6.35835 7.42981 6.44323 7.51469C6.52811 7.59957 6.64323 7.64726 6.76327 7.64726H8.12108V9.00507C8.12108 9.12511 8.16877 9.24023 8.25364 9.32511C8.33852 9.40999 8.45365 9.45767 8.57368 9.45767C8.69372 9.45767 8.80884 9.40999 8.89372 9.32511C8.9786 9.24023 9.02629 9.12511 9.02629 9.00507V7.64726H10.3841C10.5041 7.64726 10.6193 7.59957 10.7041 7.51469C10.789 7.42981 10.8367 7.31469 10.8367 7.19466C10.8367 7.07462 10.789 6.9595 10.7041 6.87462C10.6193 6.78974 10.5041 6.74205 10.3841 6.74205H9.02629V5.38424Z" fill="#363330"/>
<path d="M1.33204 1.31055C1.21201 1.31055 1.09688 1.35823 1.012 1.44311C0.927125 1.52799 0.87944 1.64311 0.87944 1.76315C0.87944 1.88319 0.927125 1.99831 1.012 2.08319C1.09688 2.16807 1.21201 2.21575 1.33204 2.21575H2.33682L2.69981 3.67042L4.05581 10.8985C4.07522 11.0022 4.13027 11.0959 4.21142 11.1633C4.29258 11.2308 4.39475 11.2677 4.50026 11.2678H5.40547C4.92532 11.2678 4.46483 11.4586 4.12532 11.7981C3.7858 12.1376 3.59506 12.5981 3.59506 13.0782C3.59506 13.5584 3.7858 14.0189 4.12532 14.3584C4.46483 14.6979 4.92532 14.8886 5.40547 14.8886C5.88562 14.8886 6.34611 14.6979 6.68563 14.3584C7.02514 14.0189 7.21588 13.5584 7.21588 13.0782C7.21588 12.5981 7.02514 12.1376 6.68563 11.7981C6.34611 11.4586 5.88562 11.2678 5.40547 11.2678H11.7419C11.2618 11.2678 10.8013 11.4586 10.4618 11.7981C10.1222 12.1376 9.9315 12.5981 9.9315 13.0782C9.9315 13.5584 10.1222 14.0189 10.4618 14.3584C10.8013 14.6979 11.2618 14.8886 11.7419 14.8886C12.2221 14.8886 12.6825 14.6979 13.0221 14.3584C13.3616 14.0189 13.5523 13.5584 13.5523 13.0782C13.5523 12.5981 13.3616 12.1376 13.0221 11.7981C12.6825 11.4586 12.2221 11.2678 11.7419 11.2678H12.6471C12.7526 11.2677 12.8548 11.2308 12.936 11.1633C13.0171 11.0959 13.0722 11.0022 13.0916 10.8985L14.4494 3.65684C14.4616 3.59152 14.4593 3.5243 14.4426 3.45997C14.4259 3.39564 14.3953 3.33578 14.3529 3.28462C14.3105 3.23347 14.2573 3.19229 14.1972 3.164C14.137 3.13572 14.0714 3.12102 14.0049 3.12096H3.49549L3.12888 1.65362C3.10445 1.55566 3.04796 1.46869 2.96841 1.40652C2.88886 1.34436 2.79081 1.31057 2.68985 1.31055H1.33204ZM4.87592 10.3626L3.68739 4.02617H13.46L12.2715 10.3626H4.87592ZM6.31068 13.0782C6.31068 13.3183 6.21531 13.5485 6.04555 13.7183C5.87579 13.8881 5.64555 13.9834 5.40547 13.9834C5.16539 13.9834 4.93515 13.8881 4.76539 13.7183C4.59563 13.5485 4.50026 13.3183 4.50026 13.0782C4.50026 12.8382 4.59563 12.6079 4.76539 12.4381C4.93515 12.2684 5.16539 12.173 5.40547 12.173C5.64555 12.173 5.87579 12.2684 6.04555 12.4381C6.21531 12.6079 6.31068 12.8382 6.31068 13.0782ZM12.6471 13.0782C12.6471 13.3183 12.5517 13.5485 12.382 13.7183C12.2122 13.8881 11.982 13.9834 11.7419 13.9834C11.5018 13.9834 11.2716 13.8881 11.1018 13.7183C10.9321 13.5485 10.8367 13.3183 10.8367 13.0782C10.8367 12.8382 10.9321 12.6079 11.1018 12.4381C11.2716 12.2684 11.5018 12.173 11.7419 12.173C11.982 12.173 12.2122 12.2684 12.382 12.4381C12.5517 12.6079 12.6471 12.8382 12.6471 13.0782Z" fill="#363330"/>
</svg>
