<svg width="15" height="15" viewBox="0 0 15 15" fill="none" xmlns="http://www.w3.org/2000/svg">
<path d="M8.51918 5.42526C8.51918 5.30522 8.47149 5.1901 8.38661 5.10522C8.30173 5.02034 8.18661 4.97266 8.06657 4.97266C7.94654 4.97266 7.83141 5.02034 7.74653 5.10522C7.66165 5.1901 7.61397 5.30522 7.61397 5.42526V6.78307H6.25616C6.13612 6.78307 6.021 6.83075 5.93612 6.91563C5.85124 7.00051 5.80356 7.11563 5.80356 7.23567C5.80356 7.35571 5.85124 7.47083 5.93612 7.55571C6.021 7.64059 6.13612 7.68827 6.25616 7.68827H7.61397V9.04608C7.61397 9.16612 7.66165 9.28124 7.74653 9.36612C7.83141 9.451 7.94654 9.49869 8.06657 9.49869C8.18661 9.49869 8.30173 9.451 8.38661 9.36612C8.47149 9.28124 8.51918 9.16612 8.51918 9.04608V7.68827H9.87699C9.99702 7.68827 10.1121 7.64059 10.197 7.55571C10.2819 7.47083 10.3296 7.35571 10.3296 7.23567C10.3296 7.11563 10.2819 7.00051 10.197 6.91563C10.1121 6.83075 9.99702 6.78307 9.87699 6.78307H8.51918V5.42526Z" fill="#363330"/>
<path d="M0.824917 1.35156C0.70488 1.35156 0.589758 1.39925 0.504879 1.48413C0.419999 1.56901 0.372314 1.68413 0.372314 1.80417C0.372314 1.9242 0.419999 2.03932 0.504879 2.1242C0.589758 2.20908 0.70488 2.25677 0.824917 2.25677H1.8297L2.19268 3.71143L3.54868 10.9395C3.5681 11.0432 3.62314 11.1369 3.7043 11.2043C3.78545 11.2718 3.88762 11.3087 3.99314 11.3088H4.89834C4.41819 11.3088 3.95771 11.4996 3.61819 11.8391C3.27867 12.1786 3.08793 12.6391 3.08793 13.1192C3.08793 13.5994 3.27867 14.0599 3.61819 14.3994C3.95771 14.7389 4.41819 14.9297 4.89834 14.9297C5.3785 14.9297 5.83898 14.7389 6.1785 14.3994C6.51802 14.0599 6.70876 13.5994 6.70876 13.1192C6.70876 12.6391 6.51802 12.1786 6.1785 11.8391C5.83898 11.4996 5.3785 11.3088 4.89834 11.3088H11.2348C10.7546 11.3088 10.2942 11.4996 9.95463 11.8391C9.61511 12.1786 9.42437 12.6391 9.42437 13.1192C9.42437 13.5994 9.61511 14.0599 9.95463 14.3994C10.2942 14.7389 10.7546 14.9297 11.2348 14.9297C11.7149 14.9297 12.1754 14.7389 12.5149 14.3994C12.8545 14.0599 13.0452 13.5994 13.0452 13.1192C13.0452 12.6391 12.8545 12.1786 12.5149 11.8391C12.1754 11.4996 11.7149 11.3088 11.2348 11.3088H12.14C12.2455 11.3087 12.3477 11.2718 12.4288 11.2043C12.51 11.1369 12.565 11.0432 12.5844 10.9395L13.9423 3.69786C13.9545 3.63253 13.9522 3.56532 13.9355 3.50099C13.9188 3.43666 13.8882 3.37679 13.8458 3.32564C13.8033 3.27449 13.7502 3.2333 13.69 3.20502C13.6299 3.17673 13.5643 3.16204 13.4978 3.16197H2.98836L2.62175 1.69464C2.59732 1.59668 2.54084 1.5097 2.46129 1.44754C2.38174 1.38537 2.28369 1.35159 2.18273 1.35156H0.824917ZM4.3688 10.4036L3.18026 4.06718H12.9529L11.7643 10.4036H4.3688ZM5.80355 13.1192C5.80355 13.3593 5.70818 13.5896 5.53842 13.7593C5.36866 13.9291 5.13842 14.0244 4.89834 14.0244C4.65827 14.0244 4.42803 13.9291 4.25827 13.7593C4.08851 13.5896 3.99314 13.3593 3.99314 13.1192C3.99314 12.8792 4.08851 12.6489 4.25827 12.4792C4.42803 12.3094 4.65827 12.214 4.89834 12.214C5.13842 12.214 5.36866 12.3094 5.53842 12.4792C5.70818 12.6489 5.80355 12.8792 5.80355 13.1192ZM12.14 13.1192C12.14 13.3593 12.0446 13.5896 11.8749 13.7593C11.7051 13.9291 11.4749 14.0244 11.2348 14.0244C10.9947 14.0244 10.7645 13.9291 10.5947 13.7593C10.425 13.5896 10.3296 13.3593 10.3296 13.1192C10.3296 12.8792 10.425 12.6489 10.5947 12.4792C10.7645 12.3094 10.9947 12.214 11.2348 12.214C11.4749 12.214 11.7051 12.3094 11.8749 12.4792C12.0446 12.6489 12.14 12.8792 12.14 13.1192Z" fill="#363330"/>
</svg>
