<svg width="16" height="15" viewBox="0 0 16 15" fill="none" xmlns="http://www.w3.org/2000/svg">
<path d="M9.08885 5.2319C9.08885 5.11186 9.04116 4.99674 8.95628 4.91186C8.8714 4.82698 8.75628 4.7793 8.63625 4.7793C8.51621 4.7793 8.40109 4.82698 8.31621 4.91186C8.23133 4.99674 8.18364 5.11186 8.18364 5.2319V6.58971H6.82583C6.7058 6.58971 6.59067 6.63739 6.50579 6.72227C6.42091 6.80715 6.37323 6.92227 6.37323 7.04231C6.37323 7.16235 6.42091 7.27747 6.50579 7.36235C6.59067 7.44723 6.7058 7.49492 6.82583 7.49492H8.18364V8.85272C8.18364 8.97276 8.23133 9.08788 8.31621 9.17276C8.40109 9.25764 8.51621 9.30533 8.63625 9.30533C8.75628 9.30533 8.8714 9.25764 8.95628 9.17276C9.04116 9.08788 9.08885 8.97276 9.08885 8.85272V7.49492H10.4467C10.5667 7.49492 10.6818 7.44723 10.7667 7.36235C10.8516 7.27747 10.8993 7.16235 10.8993 7.04231C10.8993 6.92227 10.8516 6.80715 10.7667 6.72227C10.6818 6.63739 10.5667 6.58971 10.4467 6.58971H9.08885V5.2319Z" fill="#363330"/>
<path d="M1.39459 1.1582C1.27455 1.1582 1.15943 1.20589 1.07455 1.29077C0.989671 1.37565 0.941986 1.49077 0.941986 1.61081C0.941986 1.73084 0.989671 1.84597 1.07455 1.93084C1.15943 2.01572 1.27455 2.06341 1.39459 2.06341H2.39937L2.76236 3.51808L4.11835 10.7461C4.13777 10.8499 4.19281 10.9435 4.27397 11.011C4.35512 11.0784 4.45729 11.1154 4.56281 11.1155H5.46802C4.98786 11.1155 4.52738 11.3062 4.18786 11.6457C3.84834 11.9852 3.6576 12.4457 3.6576 12.9259C3.6576 13.406 3.84834 13.8665 4.18786 14.206C4.52738 14.5456 4.98786 14.7363 5.46802 14.7363C5.94817 14.7363 6.40865 14.5456 6.74817 14.206C7.08769 13.8665 7.27843 13.406 7.27843 12.9259C7.27843 12.4457 7.08769 11.9852 6.74817 11.6457C6.40865 11.3062 5.94817 11.1155 5.46802 11.1155H11.8045C11.3243 11.1155 10.8638 11.3062 10.5243 11.6457C10.1848 11.9852 9.99405 12.4457 9.99405 12.9259C9.99405 13.406 10.1848 13.8665 10.5243 14.206C10.8638 14.5456 11.3243 14.7363 11.8045 14.7363C12.2846 14.7363 12.7451 14.5456 13.0846 14.206C13.4241 13.8665 13.6149 13.406 13.6149 12.9259C13.6149 12.4457 13.4241 11.9852 13.0846 11.6457C12.7451 11.3062 12.2846 11.1155 11.8045 11.1155H12.7097C12.8152 11.1154 12.9174 11.0784 12.9985 11.011C13.0797 10.9435 13.1347 10.8499 13.1541 10.7461L14.5119 3.5045C14.5242 3.43917 14.5219 3.37196 14.5052 3.30763C14.4885 3.2433 14.4579 3.18343 14.4154 3.13228C14.373 3.08113 14.3198 3.03994 14.2597 3.01166C14.1996 2.98337 14.1339 2.96868 14.0675 2.96862H3.55803L3.19142 1.50128C3.16699 1.40332 3.11051 1.31634 3.03096 1.25418C2.95141 1.19201 2.85336 1.15823 2.7524 1.1582H1.39459ZM4.93847 10.2103L3.74994 3.87382H13.5225L12.334 10.2103H4.93847ZM6.37322 12.9259C6.37322 13.166 6.27785 13.3962 6.10809 13.566C5.93833 13.7357 5.70809 13.8311 5.46802 13.8311C5.22794 13.8311 4.9977 13.7357 4.82794 13.566C4.65818 13.3962 4.56281 13.166 4.56281 12.9259C4.56281 12.6858 4.65818 12.4556 4.82794 12.2858C4.9977 12.116 5.22794 12.0207 5.46802 12.0207C5.70809 12.0207 5.93833 12.116 6.10809 12.2858C6.27785 12.4556 6.37322 12.6858 6.37322 12.9259ZM12.7097 12.9259C12.7097 13.166 12.6143 13.3962 12.4445 13.566C12.2748 13.7357 12.0445 13.8311 11.8045 13.8311C11.5644 13.8311 11.3341 13.7357 11.1644 13.566C10.9946 13.3962 10.8993 13.166 10.8993 12.9259C10.8993 12.6858 10.9946 12.4556 11.1644 12.2858C11.3341 12.116 11.5644 12.0207 11.8045 12.0207C12.0445 12.0207 12.2748 12.116 12.4445 12.2858C12.6143 12.4556 12.7097 12.6858 12.7097 12.9259Z" fill="#363330"/>
</svg>
