<svg width="15" height="15" viewBox="0 0 15 15" fill="none" xmlns="http://www.w3.org/2000/svg">
<path d="M8.51918 5.47018C8.51918 5.35014 8.47149 5.23502 8.38661 5.15014C8.30173 5.06526 8.18661 5.01758 8.06657 5.01758C7.94654 5.01758 7.83141 5.06526 7.74653 5.15014C7.66165 5.23502 7.61397 5.35014 7.61397 5.47018V6.82799H6.25616C6.13612 6.82799 6.021 6.87568 5.93612 6.96055C5.85124 7.04543 5.80356 7.16056 5.80356 7.28059C5.80356 7.40063 5.85124 7.51575 5.93612 7.60063C6.021 7.68551 6.13612 7.7332 6.25616 7.7332H7.61397V9.09101C7.61397 9.21104 7.66165 9.32616 7.74653 9.41104C7.83141 9.49592 7.94654 9.54361 8.06657 9.54361C8.18661 9.54361 8.30173 9.49592 8.38661 9.41104C8.47149 9.32616 8.51918 9.21104 8.51918 9.09101V7.7332H9.87699C9.99702 7.7332 10.1121 7.68551 10.197 7.60063C10.2819 7.51575 10.3296 7.40063 10.3296 7.28059C10.3296 7.16056 10.2819 7.04543 10.197 6.96055C10.1121 6.87568 9.99702 6.82799 9.87699 6.82799H8.51918V5.47018Z" fill="#363330"/>
<path d="M0.824917 1.39648C0.70488 1.39648 0.589758 1.44417 0.504879 1.52905C0.419999 1.61393 0.372314 1.72905 0.372314 1.84909C0.372314 1.96913 0.419999 2.08425 0.504879 2.16913C0.589758 2.25401 0.70488 2.30169 0.824917 2.30169H1.8297L2.19268 3.75636L3.54868 10.9844C3.5681 11.0881 3.62314 11.1818 3.7043 11.2493C3.78545 11.3167 3.88762 11.3537 3.99314 11.3538H4.89834C4.41819 11.3538 3.95771 11.5445 3.61819 11.884C3.27867 12.2235 3.08793 12.684 3.08793 13.1642C3.08793 13.6443 3.27867 14.1048 3.61819 14.4443C3.95771 14.7838 4.41819 14.9746 4.89834 14.9746C5.3785 14.9746 5.83898 14.7838 6.1785 14.4443C6.51802 14.1048 6.70876 13.6443 6.70876 13.1642C6.70876 12.684 6.51802 12.2235 6.1785 11.884C5.83898 11.5445 5.3785 11.3538 4.89834 11.3538H11.2348C10.7546 11.3538 10.2942 11.5445 9.95463 11.884C9.61511 12.2235 9.42437 12.684 9.42437 13.1642C9.42437 13.6443 9.61511 14.1048 9.95463 14.4443C10.2942 14.7838 10.7546 14.9746 11.2348 14.9746C11.7149 14.9746 12.1754 14.7838 12.5149 14.4443C12.8545 14.1048 13.0452 13.6443 13.0452 13.1642C13.0452 12.684 12.8545 12.2235 12.5149 11.884C12.1754 11.5445 11.7149 11.3538 11.2348 11.3538H12.14C12.2455 11.3537 12.3477 11.3167 12.4288 11.2493C12.51 11.1818 12.565 11.0881 12.5844 10.9844L13.9423 3.74278C13.9545 3.67746 13.9522 3.61024 13.9355 3.54591C13.9188 3.48158 13.8882 3.42171 13.8458 3.37056C13.8033 3.31941 13.7502 3.27823 13.69 3.24994C13.6299 3.22165 13.5643 3.20696 13.4978 3.2069H2.98836L2.62175 1.73956C2.59732 1.6416 2.54084 1.55462 2.46129 1.49246C2.38174 1.43029 2.28369 1.39651 2.18273 1.39648H0.824917ZM4.3688 10.4485L3.18026 4.1121H12.9529L11.7643 10.4485H4.3688ZM5.80355 13.1642C5.80355 13.4042 5.70818 13.6345 5.53842 13.8042C5.36866 13.974 5.13842 14.0694 4.89834 14.0694C4.65827 14.0694 4.42803 13.974 4.25827 13.8042C4.08851 13.6345 3.99314 13.4042 3.99314 13.1642C3.99314 12.9241 4.08851 12.6938 4.25827 12.5241C4.42803 12.3543 4.65827 12.259 4.89834 12.259C5.13842 12.259 5.36866 12.3543 5.53842 12.5241C5.70818 12.6938 5.80355 12.9241 5.80355 13.1642ZM12.14 13.1642C12.14 13.4042 12.0446 13.6345 11.8749 13.8042C11.7051 13.974 11.4749 14.0694 11.2348 14.0694C10.9947 14.0694 10.7645 13.974 10.5947 13.8042C10.425 13.6345 10.3296 13.4042 10.3296 13.1642C10.3296 12.9241 10.425 12.6938 10.5947 12.5241C10.7645 12.3543 10.9947 12.259 11.2348 12.259C11.4749 12.259 11.7051 12.3543 11.8749 12.5241C12.0446 12.6938 12.14 12.9241 12.14 13.1642Z" fill="#363330"/>
</svg>
