<svg width="16" height="16" viewBox="0 0 16 16" fill="none" xmlns="http://www.w3.org/2000/svg">
<path d="M9.02629 5.67917C9.02629 5.55913 8.9786 5.44401 8.89372 5.35913C8.80884 5.27425 8.69372 5.22656 8.57368 5.22656C8.45365 5.22656 8.33852 5.27425 8.25364 5.35913C8.16877 5.44401 8.12108 5.55913 8.12108 5.67917V7.03697H6.76327C6.64323 7.03697 6.52811 7.08466 6.44323 7.16954C6.35835 7.25442 6.31067 7.36954 6.31067 7.48958C6.31067 7.60962 6.35835 7.72474 6.44323 7.80962C6.52811 7.8945 6.64323 7.94218 6.76327 7.94218H8.12108V9.29999C8.12108 9.42003 8.16877 9.53515 8.25364 9.62003C8.33852 9.70491 8.45365 9.75259 8.57368 9.75259C8.69372 9.75259 8.80884 9.70491 8.89372 9.62003C8.9786 9.53515 9.02629 9.42003 9.02629 9.29999V7.94218H10.3841C10.5041 7.94218 10.6193 7.8945 10.7041 7.80962C10.789 7.72474 10.8367 7.60962 10.8367 7.48958C10.8367 7.36954 10.789 7.25442 10.7041 7.16954C10.6193 7.08466 10.5041 7.03697 10.3841 7.03697H9.02629V5.67917Z" fill="#363330"/>
<path d="M1.33204 1.60547C1.21201 1.60547 1.09688 1.65315 1.012 1.73803C0.927125 1.82291 0.87944 1.93803 0.87944 2.05807C0.87944 2.17811 0.927125 2.29323 1.012 2.37811C1.09688 2.46299 1.21201 2.51067 1.33204 2.51067H2.33682L2.69981 3.96534L4.05581 11.1934C4.07522 11.2971 4.13027 11.3908 4.21142 11.4582C4.29258 11.5257 4.39475 11.5626 4.50026 11.5627H5.40547C4.92532 11.5627 4.46483 11.7535 4.12532 12.093C3.7858 12.4325 3.59506 12.893 3.59506 13.3731C3.59506 13.8533 3.7858 14.3138 4.12532 14.6533C4.46483 14.9928 4.92532 15.1836 5.40547 15.1836C5.88562 15.1836 6.34611 14.9928 6.68563 14.6533C7.02514 14.3138 7.21588 13.8533 7.21588 13.3731C7.21588 12.893 7.02514 12.4325 6.68563 12.093C6.34611 11.7535 5.88562 11.5627 5.40547 11.5627H11.7419C11.2618 11.5627 10.8013 11.7535 10.4618 12.093C10.1222 12.4325 9.9315 12.893 9.9315 13.3731C9.9315 13.8533 10.1222 14.3138 10.4618 14.6533C10.8013 14.9928 11.2618 15.1836 11.7419 15.1836C12.2221 15.1836 12.6825 14.9928 13.0221 14.6533C13.3616 14.3138 13.5523 13.8533 13.5523 13.3731C13.5523 12.893 13.3616 12.4325 13.0221 12.093C12.6825 11.7535 12.2221 11.5627 11.7419 11.5627H12.6471C12.7526 11.5626 12.8548 11.5257 12.936 11.4582C13.0171 11.3908 13.0722 11.2971 13.0916 11.1934L14.4494 3.95176C14.4616 3.88644 14.4593 3.81923 14.4426 3.7549C14.4259 3.69057 14.3953 3.6307 14.3529 3.57955C14.3105 3.52839 14.2573 3.48721 14.1972 3.45892C14.137 3.43064 14.0714 3.41594 14.0049 3.41588H3.49549L3.12888 1.94854C3.10445 1.85058 3.04796 1.76361 2.96841 1.70144C2.88886 1.63928 2.79081 1.6055 2.68985 1.60547H1.33204ZM4.87592 10.6575L3.68739 4.32109H13.46L12.2715 10.6575H4.87592ZM6.31068 13.3731C6.31068 13.6132 6.21531 13.8435 6.04555 14.0132C5.87579 14.183 5.64555 14.2784 5.40547 14.2784C5.16539 14.2784 4.93515 14.183 4.76539 14.0132C4.59563 13.8435 4.50026 13.6132 4.50026 13.3731C4.50026 13.1331 4.59563 12.9028 4.76539 12.7331C4.93515 12.5633 5.16539 12.4679 5.40547 12.4679C5.64555 12.4679 5.87579 12.5633 6.04555 12.7331C6.21531 12.9028 6.31068 13.1331 6.31068 13.3731ZM12.6471 13.3731C12.6471 13.6132 12.5517 13.8435 12.382 14.0132C12.2122 14.183 11.982 14.2784 11.7419 14.2784C11.5018 14.2784 11.2716 14.183 11.1018 14.0132C10.9321 13.8435 10.8367 13.6132 10.8367 13.3731C10.8367 13.1331 10.9321 12.9028 11.1018 12.7331C11.2716 12.5633 11.5018 12.4679 11.7419 12.4679C11.982 12.4679 12.2122 12.5633 12.382 12.7331C12.5517 12.9028 12.6471 13.1331 12.6471 13.3731Z" fill="#363330"/>
</svg>
