<svg width="17" height="17" viewBox="0 0 17 17" fill="none" xmlns="http://www.w3.org/2000/svg">
<path d="M8.50738 4.97461C8.64 4.97461 8.76718 5.02729 8.86095 5.12106C8.95472 5.21483 9.0074 5.34201 9.0074 5.47462V8.47472H12.0075C12.1401 8.47472 12.2673 8.5274 12.3611 8.62117C12.4548 8.71494 12.5075 8.84212 12.5075 8.97473C12.5075 9.10734 12.4548 9.23452 12.3611 9.3283C12.2673 9.42207 12.1401 9.47475 12.0075 9.47475H9.0074V12.4748C9.0074 12.6074 8.95472 12.7346 8.86095 12.8284C8.76718 12.9222 8.64 12.9749 8.50738 12.9749C8.37477 12.9749 8.24759 12.9222 8.15382 12.8284C8.06005 12.7346 8.00737 12.6074 8.00737 12.4748V9.47475H5.00728C4.87467 9.47475 4.74749 9.42207 4.65371 9.3283C4.55994 9.23452 4.50726 9.10734 4.50726 8.97473C4.50726 8.84212 4.55994 8.71494 4.65371 8.62117C4.74749 8.5274 4.87467 8.47472 5.00728 8.47472H8.00737V5.47462C8.00737 5.34201 8.06005 5.21483 8.15382 5.12106C8.24759 5.02729 8.37477 4.97461 8.50738 4.97461Z" fill="#CFCCC9"/>
</svg>
