<svg width="17" height="17" viewBox="0 0 17 17" fill="none" xmlns="http://www.w3.org/2000/svg">
<path d="M8.50738 4.67969C8.64 4.67969 8.76718 4.73237 8.86095 4.82614C8.95472 4.91991 9.0074 5.04709 9.0074 5.1797V8.17979H12.0075C12.1401 8.17979 12.2673 8.23247 12.3611 8.32625C12.4548 8.42002 12.5075 8.5472 12.5075 8.67981C12.5075 8.81242 12.4548 8.9396 12.3611 9.03337C12.2673 9.12714 12.1401 9.17982 12.0075 9.17982H9.0074V12.1799C9.0074 12.3125 8.95472 12.4397 8.86095 12.5335C8.76718 12.6273 8.64 12.6799 8.50738 12.6799C8.37477 12.6799 8.24759 12.6273 8.15382 12.5335C8.06005 12.4397 8.00737 12.3125 8.00737 12.1799V9.17982H5.00728C4.87467 9.17982 4.74749 9.12714 4.65371 9.03337C4.55994 8.9396 4.50726 8.81242 4.50726 8.67981C4.50726 8.5472 4.55994 8.42002 4.65371 8.32625C4.74749 8.23247 4.87467 8.17979 5.00728 8.17979H8.00737V5.1797C8.00737 5.04709 8.06005 4.91991 8.15382 4.82614C8.24759 4.73237 8.37477 4.67969 8.50738 4.67969Z" fill="#CFCCC9"/>
</svg>
