<svg width="22" height="22" viewBox="0 0 22 22" fill="none" xmlns="http://www.w3.org/2000/svg">
<path d="M11.8998 7.56936C11.8998 7.39546 11.8307 7.2287 11.7077 7.10573C11.5848 6.98277 11.418 6.9137 11.2441 6.9137C11.0702 6.9137 10.9035 6.98277 10.7805 7.10573C10.6575 7.2287 10.5885 7.39546 10.5885 7.56936V9.53634H8.62148C8.44759 9.53634 8.28082 9.60542 8.15786 9.72838C8.0349 9.85134 7.96582 10.0181 7.96582 10.192C7.96582 10.3659 8.0349 10.5327 8.15786 10.6556C8.28082 10.7786 8.44759 10.8477 8.62148 10.8477H10.5885V12.8146C10.5885 12.9885 10.6575 13.1553 10.7805 13.2783C10.9035 13.4012 11.0702 13.4703 11.2441 13.4703C11.418 13.4703 11.5848 13.4012 11.7077 13.2783C11.8307 13.1553 11.8998 12.9885 11.8998 12.8146V10.8477H13.8668C14.0407 10.8477 14.2074 10.7786 14.3304 10.6556C14.4533 10.5327 14.5224 10.3659 14.5224 10.192C14.5224 10.0181 14.4533 9.85134 14.3304 9.72838C14.2074 9.60542 14.0407 9.53634 13.8668 9.53634H11.8998V7.56936Z" fill="#363330"/>
<path d="M0.753805 1.6684C0.579913 1.6684 0.413143 1.73747 0.290183 1.86043C0.167223 1.98339 0.0981445 2.15016 0.0981445 2.32406C0.0981445 2.49795 0.167223 2.66472 0.290183 2.78768C0.413143 2.91064 0.579913 2.97972 0.753805 2.97972H2.20937L2.73521 5.08701L4.69957 15.5579C4.7277 15.7082 4.80743 15.8439 4.925 15.9415C5.04257 16.0392 5.19057 16.0928 5.34343 16.0929H6.65475C5.95918 16.0929 5.2921 16.3692 4.80026 16.8611C4.30842 17.3529 4.03211 18.02 4.03211 18.7156C4.03211 19.4111 4.30842 20.0782 4.80026 20.5701C5.2921 21.0619 5.95918 21.3382 6.65475 21.3382C7.35032 21.3382 8.0174 21.0619 8.50924 20.5701C9.00108 20.0782 9.27739 19.4111 9.27739 18.7156C9.27739 18.02 9.00108 17.3529 8.50924 16.8611C8.0174 16.3692 7.35032 16.0929 6.65475 16.0929H15.834C15.1384 16.0929 14.4713 16.3692 13.9795 16.8611C13.4877 17.3529 13.2114 18.02 13.2114 18.7156C13.2114 19.4111 13.4877 20.0782 13.9795 20.5701C14.4713 21.0619 15.1384 21.3382 15.834 21.3382C16.5296 21.3382 17.1966 21.0619 17.6885 20.5701C18.1803 20.0782 18.4566 19.4111 18.4566 18.7156C18.4566 18.02 18.1803 17.3529 17.6885 16.8611C17.1966 16.3692 16.5296 16.0929 15.834 16.0929H17.1453C17.2982 16.0928 17.4462 16.0392 17.5637 15.9415C17.6813 15.8439 17.761 15.7082 17.7892 15.5579L19.7562 5.06734C19.7739 4.97271 19.7705 4.87534 19.7464 4.78215C19.7222 4.68896 19.6778 4.60223 19.6164 4.52813C19.5549 4.45403 19.4779 4.39437 19.3908 4.35339C19.3036 4.31242 19.2086 4.29113 19.1123 4.29104H3.88786L3.35678 2.16539C3.32138 2.02348 3.23956 1.89748 3.12432 1.80743C3.00908 1.71737 2.86704 1.66844 2.72079 1.6684H0.753805ZM5.88763 14.7816L4.16586 5.60236H18.3229L16.6011 14.7816H5.88763ZM7.96607 18.7156C7.96607 19.0634 7.82791 19.3969 7.58199 19.6428C7.33607 19.8887 7.00253 20.0269 6.65475 20.0269C6.30696 20.0269 5.97343 19.8887 5.72751 19.6428C5.48159 19.3969 5.34343 19.0634 5.34343 18.7156C5.34343 18.3678 5.48159 18.0342 5.72751 17.7883C5.97343 17.5424 6.30696 17.4042 6.65475 17.4042C7.00253 17.4042 7.33607 17.5424 7.58199 17.7883C7.82791 18.0342 7.96607 18.3678 7.96607 18.7156ZM17.1453 18.7156C17.1453 19.0634 17.0072 19.3969 16.7612 19.6428C16.5153 19.8887 16.1818 20.0269 15.834 20.0269C15.4862 20.0269 15.1527 19.8887 14.9068 19.6428C14.6608 19.3969 14.5227 19.0634 14.5227 18.7156C14.5227 18.3678 14.6608 18.0342 14.9068 17.7883C15.1527 17.5424 15.4862 17.4042 15.834 17.4042C16.1818 17.4042 16.5153 17.5424 16.7612 17.7883C17.0072 18.0342 17.1453 18.3678 17.1453 18.7156Z" fill="#363330"/>
</svg>
