<svg width="22" height="21" viewBox="0 0 22 21" fill="none" xmlns="http://www.w3.org/2000/svg">
<path d="M11.9301 7.21432C11.9301 7.04042 11.861 6.87365 11.738 6.75069C11.6151 6.62773 11.4483 6.55865 11.2744 6.55865C11.1005 6.55865 10.9337 6.62773 10.8108 6.75069C10.6878 6.87365 10.6187 7.04042 10.6187 7.21432V9.1813H8.65175C8.47786 9.1813 8.31109 9.25038 8.18813 9.37334C8.06517 9.4963 7.99609 9.66306 7.99609 9.83696C7.99609 10.0108 8.06517 10.1776 8.18813 10.3006C8.31109 10.4235 8.47786 10.4926 8.65175 10.4926H10.6187V12.4596C10.6187 12.6335 10.6878 12.8003 10.8108 12.9232C10.9337 13.0462 11.1005 13.1153 11.2744 13.1153C11.4483 13.1153 11.6151 13.0462 11.738 12.9232C11.861 12.8003 11.9301 12.6335 11.9301 12.4596V10.4926H13.897C14.0709 10.4926 14.2377 10.4235 14.3607 10.3006C14.4836 10.1776 14.5527 10.0108 14.5527 9.83696C14.5527 9.66306 14.4836 9.4963 14.3607 9.37334C14.2377 9.25038 14.0709 9.1813 13.897 9.1813H11.9301V7.21432Z" fill="#363330"/>
<path d="M0.784078 1.31335C0.610186 1.31335 0.443417 1.38243 0.320456 1.50539C0.197496 1.62835 0.128418 1.79512 0.128418 1.96901C0.128418 2.14291 0.197496 2.30968 0.320456 2.43264C0.443417 2.5556 0.610186 2.62468 0.784078 2.62468H2.23964L2.76548 4.73197L4.72984 15.2029C4.75797 15.3531 4.83771 15.4888 4.95527 15.5865C5.07284 15.6842 5.22084 15.7377 5.3737 15.7379H6.68502C5.98945 15.7379 5.32238 16.0142 4.83053 16.506C4.33869 16.9979 4.06238 17.665 4.06238 18.3605C4.06238 19.0561 4.33869 19.7232 4.83053 20.215C5.32238 20.7069 5.98945 20.9832 6.68502 20.9832C7.38059 20.9832 8.04767 20.7069 8.53951 20.215C9.03135 19.7232 9.30766 19.0561 9.30766 18.3605C9.30766 17.665 9.03135 16.9979 8.53951 16.506C8.04767 16.0142 7.38059 15.7379 6.68502 15.7379H15.8643C15.1687 15.7379 14.5016 16.0142 14.0098 16.506C13.5179 16.9979 13.2416 17.665 13.2416 18.3605C13.2416 19.0561 13.5179 19.7232 14.0098 20.215C14.5016 20.7069 15.1687 20.9832 15.8643 20.9832C16.5598 20.9832 17.2269 20.7069 17.7188 20.215C18.2106 19.7232 18.4869 19.0561 18.4869 18.3605C18.4869 17.665 18.2106 16.9979 17.7188 16.506C17.2269 16.0142 16.5598 15.7379 15.8643 15.7379H17.1756C17.3284 15.7377 17.4765 15.6842 17.594 15.5865C17.7116 15.4888 17.7913 15.3531 17.8194 15.2029L19.7864 4.7123C19.8041 4.61767 19.8008 4.5203 19.7766 4.42711C19.7525 4.33392 19.7081 4.24719 19.6466 4.17309C19.5852 4.09899 19.5082 4.03933 19.421 3.99835C19.3339 3.95737 19.2388 3.93609 19.1426 3.936H3.91814L3.38705 1.81035C3.35166 1.66844 3.26983 1.54244 3.15459 1.45239C3.03935 1.36233 2.89731 1.31339 2.75106 1.31335H0.784078ZM5.9179 14.4266L4.19614 5.24732H18.3532L16.6314 14.4266H5.9179ZM7.99634 18.3605C7.99634 18.7083 7.85819 19.0418 7.61227 19.2878C7.36635 19.5337 7.03281 19.6718 6.68502 19.6718C6.33724 19.6718 6.0037 19.5337 5.75778 19.2878C5.51186 19.0418 5.3737 18.7083 5.3737 18.3605C5.3737 18.0127 5.51186 17.6792 5.75778 17.4333C6.0037 17.1874 6.33724 17.0492 6.68502 17.0492C7.03281 17.0492 7.36635 17.1874 7.61227 17.4333C7.85819 17.6792 7.99634 18.0127 7.99634 18.3605ZM17.1756 18.3605C17.1756 18.7083 17.0374 19.0418 16.7915 19.2878C16.5456 19.5337 16.2121 19.6718 15.8643 19.6718C15.5165 19.6718 15.1829 19.5337 14.937 19.2878C14.6911 19.0418 14.5529 18.7083 14.5529 18.3605C14.5529 18.0127 14.6911 17.6792 14.937 17.4333C15.1829 17.1874 15.5165 17.0492 15.8643 17.0492C16.2121 17.0492 16.5456 17.1874 16.7915 17.4333C17.0374 17.6792 17.1756 18.0127 17.1756 18.3605Z" fill="#363330"/>
</svg>
