<svg width="14" height="14" viewBox="0 0 14 14" fill="none" xmlns="http://www.w3.org/2000/svg">
<path d="M7.61158 4.74435C7.61158 4.63292 7.56732 4.52606 7.48853 4.44727C7.40974 4.36848 7.30288 4.32422 7.19146 4.32422C7.08003 4.32422 6.97317 4.36848 6.89438 4.44727C6.81559 4.52606 6.77133 4.63292 6.77133 4.74435V6.00473H5.51095C5.39952 6.00473 5.29266 6.04899 5.21387 6.12778C5.13508 6.20657 5.09082 6.31343 5.09082 6.42485C5.09082 6.53628 5.13508 6.64314 5.21387 6.72193C5.29266 6.80072 5.39952 6.84498 5.51095 6.84498H6.77133V8.10536C6.77133 8.21679 6.81559 8.32365 6.89438 8.40244C6.97317 8.48123 7.08003 8.52549 7.19146 8.52549C7.30288 8.52549 7.40974 8.48123 7.48853 8.40244C7.56732 8.32365 7.61158 8.21679 7.61158 8.10536V6.84498H8.87196C8.98339 6.84498 9.09025 6.80072 9.16904 6.72193C9.24783 6.64314 9.29209 6.53628 9.29209 6.42485C9.29209 6.31343 9.24783 6.20657 9.16904 6.12778C9.09025 6.04899 8.98339 6.00473 8.87196 6.00473H7.61158V4.74435Z" fill="#363330"/>
<path d="M0.468955 0.960938C0.357531 0.960938 0.25067 1.0052 0.171881 1.08399C0.0930914 1.16278 0.0488281 1.26964 0.0488281 1.38106C0.0488281 1.49249 0.0930914 1.59935 0.171881 1.67814C0.25067 1.75693 0.357531 1.80119 0.468955 1.80119H1.40164L1.73858 3.15148L2.99728 9.86091C3.0153 9.95718 3.0664 10.0441 3.14173 10.1067C3.21706 10.1693 3.3119 10.2036 3.40985 10.2037H4.2501C3.8044 10.2037 3.37696 10.3808 3.0618 10.6959C2.74664 11.0111 2.56959 11.4385 2.56959 11.8842C2.56959 12.3299 2.74664 12.7574 3.0618 13.0725C3.37696 13.3877 3.8044 13.5648 4.2501 13.5648C4.6958 13.5648 5.12324 13.3877 5.4384 13.0725C5.75355 12.7574 5.93061 12.3299 5.93061 11.8842C5.93061 11.4385 5.75355 11.0111 5.4384 10.6959C5.12324 10.3808 4.6958 10.2037 4.2501 10.2037H10.1319C9.68618 10.2037 9.25874 10.3808 8.94358 10.6959C8.62842 11.0111 8.45137 11.4385 8.45137 11.8842C8.45137 12.3299 8.62842 12.7574 8.94358 13.0725C9.25874 13.3877 9.68618 13.5648 10.1319 13.5648C10.5776 13.5648 11.005 13.3877 11.3202 13.0725C11.6353 12.7574 11.8124 12.3299 11.8124 11.8842C11.8124 11.4385 11.6353 11.0111 11.3202 10.6959C11.005 10.3808 10.5776 10.2037 10.1319 10.2037H10.9721C11.0701 10.2036 11.1649 10.1693 11.2402 10.1067C11.3156 10.0441 11.3667 9.95718 11.3847 9.86091L12.6451 3.13888C12.6564 3.07824 12.6543 3.01585 12.6388 2.95614C12.6233 2.89642 12.5949 2.84085 12.5555 2.79337C12.5161 2.74588 12.4668 2.70766 12.4109 2.6814C12.3551 2.65514 12.2942 2.6415 12.2325 2.64145H2.47716L2.13686 1.27939C2.11418 1.18846 2.06175 1.10773 1.98791 1.05003C1.91407 0.992322 1.82305 0.960963 1.72934 0.960938H0.468955ZM3.75855 9.36348L2.6553 3.4817H11.7267L10.6234 9.36348H3.75855ZM5.09035 11.8842C5.09035 12.1071 5.00183 12.3208 4.84425 12.4784C4.68667 12.636 4.47295 12.7245 4.2501 12.7245C4.02725 12.7245 3.81353 12.636 3.65595 12.4784C3.49837 12.3208 3.40985 12.1071 3.40985 11.8842C3.40985 11.6614 3.49837 11.4477 3.65595 11.2901C3.81353 11.1325 4.02725 11.044 4.2501 11.044C4.47295 11.044 4.68667 11.1325 4.84425 11.2901C5.00183 11.4477 5.09035 11.6614 5.09035 11.8842ZM10.9721 11.8842C10.9721 12.1071 10.8836 12.3208 10.726 12.4784C10.5684 12.636 10.3547 12.7245 10.1319 12.7245C9.90903 12.7245 9.69531 12.636 9.53773 12.4784C9.38015 12.3208 9.29163 12.1071 9.29163 11.8842C9.29163 11.6614 9.38015 11.4477 9.53773 11.2901C9.69531 11.1325 9.90903 11.044 10.1319 11.044C10.3547 11.044 10.5684 11.1325 10.726 11.2901C10.8836 11.4477 10.9721 11.6614 10.9721 11.8842Z" fill="#363330"/>
</svg>
