<svg width="27" height="30" viewBox="0 0 27 30" fill="none" xmlns="http://www.w3.org/2000/svg">
<path d="M24.3325 25.6584C24.1234 24.9551 23.8193 24.1948 23.4771 23.3965C23.135 22.6172 22.7168 21.8189 22.2797 21.0395C22.2226 21.1536 22.1466 21.2486 22.0896 21.3437C22.0326 21.4387 21.9565 21.5527 21.8995 21.6478C21.8235 21.7428 21.7664 21.8379 21.6904 21.9519C21.6144 22.0469 21.5384 22.142 21.4623 22.237L21.4433 22.256L21.4243 22.275L21.4053 22.294L21.3863 22.3131L21.3103 22.3891C21.3673 22.5602 21.4433 22.7882 21.5384 23.0163C21.6334 23.2444 21.7094 23.4915 21.7855 23.7386C21.8615 23.9667 21.9185 24.1948 21.9565 24.3849C21.9755 24.575 21.9755 24.708 21.8995 24.784C21.8805 24.8031 21.8615 24.8221 21.8235 24.8411C21.8045 24.8601 21.7664 24.8791 21.7284 24.8791C21.6904 24.8981 21.6524 24.8981 21.6334 24.8981C21.5954 24.8981 21.5574 24.8981 21.5193 24.8981C21.4623 24.8981 21.3863 24.8791 21.3103 24.8791C21.2342 24.8601 21.1582 24.8411 21.0822 24.8221C21.0061 24.8031 20.9111 24.765 20.8161 24.727C20.721 24.689 20.626 24.651 20.531 24.594C20.4169 24.5369 20.2839 24.4799 20.1508 24.4039C20.0177 24.3279 19.8847 24.2518 19.7516 24.1758C19.6186 24.0998 19.4665 24.0047 19.3145 23.9287C19.1624 23.8337 19.0103 23.7386 18.8773 23.6626C19.4665 23.0734 20.0177 22.4461 20.531 21.7808C21.0442 21.1156 21.5003 20.3933 21.9185 19.671C22.3367 18.9297 22.6788 18.1694 22.9829 17.3711C23.2681 16.5917 23.5152 15.7744 23.6672 14.9571C24.0284 13.1133 24.0094 11.3836 23.6672 9.84403C23.3441 8.32342 22.6978 6.99288 21.8045 5.90944C20.9301 4.84502 19.8277 4.02769 18.5351 3.49547C17.2616 2.98227 15.8171 2.75417 14.2584 2.84921C13.232 2.92524 12.2056 3.13433 11.2172 3.45746C10.2288 3.78059 9.27842 4.23677 8.34704 4.78799C7.43467 5.33921 6.56032 5.98547 5.762 6.70777C4.96368 7.43006 4.20337 8.24739 3.53811 9.12174C3.34803 8.7796 3.19597 8.47548 3.08192 8.17136C2.96788 7.88624 2.87284 7.62013 2.81581 7.39204C2.75879 7.16395 2.73978 6.95487 2.75879 6.7838C2.7778 6.61273 2.83482 6.47967 2.92986 6.38464C2.94887 6.34662 3.00589 6.32761 3.04391 6.2896C3.08192 6.25158 3.13894 6.23257 3.21498 6.21357C3.272 6.19456 3.34803 6.17555 3.42406 6.15654C3.50009 6.13754 3.57612 6.13754 3.65215 6.11853C3.74719 6.11853 3.84223 6.11853 3.93727 6.13754C4.0323 6.15654 4.14635 6.17555 4.24139 6.21357C4.33643 6.25158 4.45047 6.2896 4.54551 6.36563C4.65956 6.42265 4.7546 6.49868 4.84963 6.61273C4.94467 6.49868 5.05872 6.36563 5.17276 6.25158C5.28681 6.13754 5.40086 6.02349 5.5149 5.92845C5.62895 5.83341 5.74299 5.71937 5.87605 5.62433C5.99009 5.52929 6.12315 5.43425 6.2562 5.33921C6.27521 5.33921 6.27521 5.32021 6.29422 5.32021C6.31322 5.32021 6.31322 5.3012 6.33223 5.3012C6.35124 5.3012 6.35124 5.28219 6.37025 5.28219C6.38925 5.28219 6.38925 5.26318 6.40826 5.26318C6.18017 5.0541 5.93307 4.88303 5.66696 4.73097C5.40086 4.59792 5.13475 4.48387 4.86864 4.40784C4.60253 4.33181 4.31742 4.27479 4.05131 4.23677C3.7852 4.19876 3.5191 4.19876 3.29101 4.21776C3.11994 4.23677 2.94887 4.25578 2.79681 4.27479C2.64475 4.3128 2.49268 4.35082 2.35963 4.38883C2.22658 4.42685 2.11253 4.48387 1.99848 4.5599C1.90345 4.61692 1.80841 4.69295 1.73238 4.76899C1.52329 4.99708 1.40925 5.28219 1.35222 5.64334C1.2952 6.00448 1.31421 6.42265 1.40925 6.87884C1.50429 7.35403 1.65635 7.86723 1.88444 8.43746C2.11253 9.00769 2.39765 9.63494 2.75879 10.2812C2.51169 10.6424 2.30261 11.0225 2.07452 11.4217C1.86543 11.8018 1.67535 12.201 1.48528 12.6001C1.2952 12.9993 1.14314 13.4175 0.991079 13.8356C0.839018 14.2538 0.705964 14.691 0.591918 15.1091C0.154742 16.7628 0.0216888 18.3595 0.17375 19.823C0.325811 21.3056 0.74398 22.6932 1.40925 23.8717C2.09352 25.0692 3.04391 26.0766 4.20337 26.8179C5.38185 27.5592 6.80742 28.0344 8.42307 28.1294C8.89826 28.1484 9.39246 28.1484 9.86765 28.1104C10.3619 28.0724 10.837 27.9963 11.3312 27.9013C11.8254 27.8063 12.3006 27.6732 12.7758 27.5212C13.251 27.3691 13.7452 27.179 14.2014 26.9509L13.0609 24.8031C12.7378 24.9361 12.3957 25.0502 12.0535 25.1452C11.7114 25.2402 11.3693 25.3163 11.0461 25.3923C10.704 25.4493 10.3619 25.5063 10.0197 25.5253C9.67758 25.5444 9.33544 25.5444 9.01231 25.5444C7.71979 25.4873 6.56032 25.1262 5.60994 24.5369C4.65956 23.9667 3.88024 23.1684 3.31001 22.199C2.73978 21.2486 2.39765 20.1462 2.26459 18.9487C2.13154 17.7512 2.22658 16.4587 2.56871 15.1091C2.91085 13.7786 3.48108 12.5051 4.20337 11.3456C4.92566 10.1862 5.80002 9.14075 6.80742 8.24739C7.79582 7.35403 8.91727 6.61273 10.0767 6.08051C11.2552 5.5483 12.4907 5.20616 13.7452 5.13013C15.0187 5.0541 16.1782 5.26318 17.2046 5.70036C18.231 6.13754 19.1244 6.82181 19.8087 7.69616C20.5119 8.57052 21.0061 9.65395 21.2532 10.8895C21.5003 12.1249 21.5003 13.5125 21.2152 14.9761C21.0822 15.6224 20.8921 16.2496 20.664 16.8769C20.4359 17.5041 20.1508 18.0934 19.8277 18.6826C19.5045 19.2718 19.1434 19.823 18.7442 20.3553C18.3451 20.8875 17.9079 21.3817 17.4517 21.8569C17.4517 21.7048 17.4707 21.5337 17.4707 21.3817C17.4707 21.2296 17.4897 21.0585 17.4897 20.9065C17.4897 20.7544 17.5087 20.6214 17.5087 20.5073C17.5087 20.3933 17.5087 20.2982 17.5087 20.2222C17.5087 20.1652 17.5087 20.1082 17.4897 20.0701C17.4707 20.0321 17.4707 19.9941 17.4517 19.9751C17.4327 19.9561 17.4137 19.9371 17.3947 19.9181C17.3757 19.8991 17.3377 19.8991 17.3187 19.8991C17.2996 19.8991 17.2806 19.8991 17.2616 19.8991C17.2426 19.8991 17.2236 19.8991 17.2046 19.9181C17.1856 19.9181 17.1666 19.9371 17.1666 19.9371H17.1476L13.156 21.2486C13.156 21.2486 13.118 21.2676 13.0609 21.2866C13.0229 21.3056 12.9659 21.3437 12.9089 21.3817C12.8709 21.4387 12.8328 21.4957 12.8138 21.5908C12.8138 21.6858 12.8328 21.7808 12.8899 21.9139C12.8899 21.9139 12.8899 21.9329 12.9089 21.9329C12.9089 21.9329 12.9089 21.9519 12.9279 21.9519C12.9279 21.9519 12.9279 21.9709 12.9469 21.9709C12.9469 21.9709 12.9469 21.9899 12.9659 21.9899C13.137 22.3511 13.4031 22.8453 13.6882 23.3965C13.9923 23.9477 14.3154 24.575 14.6386 25.1832C14.9807 25.8105 15.3038 26.4187 15.589 26.9319C15.8741 27.4641 16.1212 27.9013 16.2542 28.1674C16.2732 28.1864 16.2732 28.2054 16.2922 28.2434C16.3113 28.2624 16.3113 28.2815 16.3303 28.3005C16.3493 28.3195 16.3493 28.3385 16.3493 28.3575C16.3493 28.3765 16.3683 28.3955 16.3683 28.3955C16.4063 28.4715 16.4443 28.5286 16.4823 28.5666C16.5203 28.6236 16.5583 28.6616 16.5774 28.6806C16.6154 28.7186 16.6344 28.7376 16.6724 28.7566C16.7104 28.7757 16.7294 28.7757 16.7674 28.7757C16.8245 28.7757 16.8625 28.7566 16.9005 28.7376C16.9385 28.7186 16.9765 28.6616 17.0145 28.6236C17.0525 28.5856 17.0716 28.5286 17.0906 28.4715C17.1096 28.4145 17.1096 28.3765 17.1286 28.3385C17.1286 28.3195 17.1286 28.3195 17.1286 28.3005C17.1286 28.2815 17.1286 28.2624 17.1286 28.2244C17.1286 28.2054 17.1286 28.1674 17.1286 28.1294C17.1286 28.0914 17.1286 28.0724 17.1286 28.0344C17.1286 27.9013 17.1476 27.7492 17.1476 27.5782C17.1476 27.4071 17.1666 27.236 17.1666 27.084C17.1666 26.9319 17.1856 26.7989 17.1856 26.6848C17.1856 26.5898 17.2046 26.5137 17.2046 26.4947C17.7558 26.8179 18.3071 27.141 18.8393 27.4451C19.3905 27.7492 19.9227 28.0153 20.4359 28.2624C20.9491 28.5095 21.4433 28.6996 21.8995 28.8517C22.3557 29.0037 22.7739 29.0988 23.135 29.1178C23.192 29.1178 23.23 29.1178 23.2871 29.1178C23.3441 29.1178 23.3821 29.1178 23.4201 29.1178C23.4581 29.1178 23.5152 29.1178 23.5532 29.0988C23.5912 29.0988 23.6482 29.0798 23.6862 29.0798C23.7432 29.0608 23.8193 29.0418 23.8763 29.0228C23.9333 29.0037 23.9903 28.9847 24.0474 28.9467C24.1044 28.9277 24.1424 28.8897 24.1994 28.8517C24.2374 28.8137 24.2945 28.7757 24.3325 28.7376C24.5986 28.4715 24.7126 28.0344 24.6936 27.5021C24.6936 26.9699 24.5606 26.3237 24.3515 25.6204L24.3325 25.6584Z" fill="#833376"/>
<path d="M11.749 14.658V13.7076H9.25896L10.7035 12.301C11.0837 11.9209 11.3498 11.5787 11.5209 11.2556C11.6729 10.9325 11.749 10.6093 11.749 10.2672C11.749 9.71597 11.5779 9.27879 11.2358 8.97467C10.8936 8.67055 10.4184 8.51848 9.79118 8.51848C9.18293 8.51848 8.68873 8.67055 8.32759 8.97467C7.96644 9.27879 7.77637 9.71597 7.77637 10.2672V10.3242H8.82179C8.82179 9.71597 9.14492 9.41184 9.79118 9.41184C10.3994 9.41184 10.7226 9.69696 10.7226 10.2862C10.7226 10.5143 10.6655 10.7424 10.5515 10.9515C10.4374 11.1605 10.2664 11.3886 10.0193 11.6547L7.90942 13.6886V14.6389H11.787L11.749 14.658ZM16.824 10.3242C16.824 9.77299 16.6339 9.31681 16.2538 8.99368C15.8736 8.65154 15.3794 8.48047 14.7522 8.48047C14.1439 8.48047 13.6497 8.65154 13.2506 8.97467C12.8704 9.31681 12.6803 9.75398 12.6803 10.3052V12.8902C12.6803 13.4415 12.8704 13.8786 13.2506 14.2208C13.6307 14.5629 14.1249 14.715 14.7522 14.715C15.3604 14.715 15.8546 14.5439 16.2538 14.2018C16.6339 13.8596 16.824 13.4225 16.824 12.8712V10.3242ZM15.7786 12.7952C15.7786 13.1183 15.6836 13.3654 15.5125 13.5365C15.3414 13.7076 15.0943 13.8026 14.7712 13.8026C14.4481 13.8026 14.201 13.7076 14.0299 13.5365C13.8588 13.3654 13.7638 13.0993 13.7638 12.7952V10.3812C13.7638 10.0581 13.8588 9.81101 14.0299 9.62093C14.201 9.44986 14.4671 9.35482 14.7902 9.35482C15.1133 9.35482 15.3604 9.44986 15.5315 9.62093C15.7216 9.792 15.7976 10.0581 15.7976 10.3812L15.7786 12.7952Z" fill="#833376"/>
<path d="M9.03123 19.7532V15.1914H8.27093V18.6698L6.4652 15.1914H5.34375V19.7532H6.10406V16.2939L7.92879 19.7532H9.03123ZM10.6279 19.3161C10.6279 19.202 10.5899 19.107 10.5138 19.05C10.4378 18.9929 10.3238 18.9549 10.2097 18.9549C10.0957 18.9549 9.98162 18.9929 9.90559 19.05C9.82956 19.107 9.79154 19.202 9.79154 19.3161V19.4491C9.79154 19.5632 9.82956 19.6582 9.90559 19.7152C9.98162 19.7722 10.0957 19.8103 10.2097 19.8103C10.3428 19.8103 10.4378 19.7722 10.5138 19.7152C10.5899 19.6582 10.6279 19.5632 10.6279 19.4491L10.6089 19.3161H10.6279ZM14.0683 18.5177H13.346C13.346 18.9549 13.1179 19.164 12.6617 19.164C12.2245 19.164 11.9964 18.9359 11.9964 18.4797V17.8145C11.9964 17.3583 12.2245 17.1302 12.6617 17.1302C13.1179 17.1302 13.346 17.3393 13.346 17.7764H14.0683V17.7194C14.0683 17.3203 13.9542 17.0161 13.6881 16.8071C13.441 16.598 13.0989 16.4839 12.6807 16.4839C12.2625 16.4839 11.9204 16.598 11.6733 16.8261C11.4262 17.0542 11.2931 17.3583 11.2931 17.7574V18.5558C11.2931 18.9549 11.4262 19.259 11.6733 19.4871C11.9204 19.7152 12.2625 19.8103 12.6807 19.8103C13.1179 19.8103 13.46 19.7152 13.7071 19.4871C13.9542 19.2781 14.0873 18.9739 14.0873 18.5748L14.0683 18.5368V18.5177ZM19.2003 19.7532V17.4723C19.2003 17.1682 19.1243 16.9211 18.9532 16.75C18.8012 16.579 18.5731 16.4839 18.288 16.4839C18.0219 16.4839 17.7938 16.56 17.5467 16.712L17.1855 16.9211C17.0525 16.636 16.7864 16.4839 16.4252 16.4839C16.1971 16.4839 15.969 16.56 15.7409 16.674L15.4558 16.8451V16.5029H14.7335V19.7342H15.4748V17.5103L15.855 17.2632C16.007 17.1872 16.1401 17.1492 16.2351 17.1492C16.4632 17.1492 16.5773 17.2822 16.5773 17.5484V19.7342H17.3186V17.5103L17.7177 17.2632C17.8698 17.1682 18.0028 17.1302 18.0979 17.1302C18.326 17.1302 18.44 17.2632 18.44 17.5293V19.7152H19.1813L19.2003 19.7532Z" fill="#833376"/>
<path d="M21.2728 11.1765C24.3521 11.1765 26.8611 8.6865 26.8611 5.58825C26.8611 2.50901 24.3711 0 21.2728 0C18.1936 0 15.6846 2.49 15.6846 5.58825C15.6846 8.66749 18.1746 11.1765 21.2728 11.1765Z" fill="#833376"/>
<path d="M21.2728 11.1765C24.3521 11.1765 26.8611 8.6865 26.8611 5.58825C26.8611 2.50901 24.3711 0 21.2728 0C18.1936 0 15.6846 2.49 15.6846 5.58825C15.6846 8.66749 18.1746 11.1765 21.2728 11.1765Z" stroke="white" stroke-width="1.08344"/>
<path d="M23.2489 8.76633V8.15808H21.8803V2.83594H21.177C20.7589 3.2351 20.3407 3.4822 19.9415 3.63426V4.28052C20.3977 4.20449 20.8159 3.9764 21.215 3.57724V8.17709H19.4854V8.78533H23.2489V8.76633Z" fill="#FEFEFE"/>
</svg>
