<svg width="27" height="30" viewBox="0 0 27 30" fill="none" xmlns="http://www.w3.org/2000/svg">
<path d="M24.3325 26.4787C24.1234 25.7754 23.8193 25.0151 23.4771 24.2168C23.135 23.4375 22.7168 22.6392 22.2797 21.8599C22.2226 21.9739 22.1466 22.0689 22.0896 22.164C22.0326 22.259 21.9565 22.3731 21.8995 22.4681C21.8235 22.5631 21.7664 22.6582 21.6904 22.7722C21.6144 22.8673 21.5384 22.9623 21.4623 23.0573L21.4433 23.0763L21.4243 23.0953L21.4053 23.1144L21.3863 23.1334L21.3103 23.2094C21.3673 23.3805 21.4433 23.6086 21.5384 23.8366C21.6334 24.0647 21.7094 24.3118 21.7855 24.5589C21.8615 24.787 21.9185 25.0151 21.9565 25.2052C21.9755 25.3953 21.9755 25.5283 21.8995 25.6044C21.8805 25.6234 21.8615 25.6424 21.8235 25.6614C21.8045 25.6804 21.7664 25.6994 21.7284 25.6994C21.6904 25.7184 21.6524 25.7184 21.6334 25.7184C21.5954 25.7184 21.5574 25.7184 21.5193 25.7184C21.4623 25.7184 21.3863 25.6994 21.3103 25.6994C21.2342 25.6804 21.1582 25.6614 21.0822 25.6424C21.0061 25.6234 20.9111 25.5854 20.8161 25.5473C20.721 25.5093 20.626 25.4713 20.531 25.4143C20.4169 25.3573 20.2839 25.3002 20.1508 25.2242C20.0177 25.1482 19.8847 25.0721 19.7516 24.9961C19.6186 24.9201 19.4665 24.825 19.3145 24.749C19.1624 24.654 19.0103 24.5589 18.8773 24.4829C19.4665 23.8937 20.0177 23.2664 20.531 22.6012C21.0442 21.9359 21.5003 21.2136 21.9185 20.4913C22.3367 19.75 22.6788 18.9897 22.9829 18.1914C23.2681 17.4121 23.5152 16.5947 23.6672 15.7774C24.0284 13.9337 24.0094 12.204 23.6672 10.6643C23.3441 9.14373 22.6978 7.81319 21.8045 6.72976C20.9301 5.66533 19.8277 4.848 18.5351 4.31578C17.2616 3.80258 15.8171 3.57449 14.2584 3.66952C13.232 3.74555 12.2056 3.95464 11.2172 4.27777C10.2288 4.6009 9.27842 5.05708 8.34704 5.60831C7.43467 6.15953 6.56032 6.80579 5.762 7.52808C4.96368 8.25037 4.20337 9.0677 3.53811 9.94205C3.34803 9.59991 3.19597 9.29579 3.08192 8.99167C2.96788 8.70655 2.87284 8.44045 2.81581 8.21235C2.75879 7.98426 2.73978 7.77518 2.75879 7.60411C2.7778 7.43304 2.83482 7.29999 2.92986 7.20495C2.94887 7.16693 3.00589 7.14793 3.04391 7.10991C3.08192 7.07189 3.13894 7.05289 3.21498 7.03388C3.272 7.01487 3.34803 6.99586 3.42406 6.97686C3.50009 6.95785 3.57612 6.95785 3.65215 6.93884C3.74719 6.93884 3.84223 6.93884 3.93727 6.95785C4.0323 6.97686 4.14635 6.99586 4.24139 7.03388C4.33643 7.07189 4.45047 7.10991 4.54551 7.18594C4.65956 7.24296 4.7546 7.31899 4.84963 7.43304C4.94467 7.31899 5.05872 7.18594 5.17276 7.07189C5.28681 6.95785 5.40086 6.8438 5.5149 6.74876C5.62895 6.65373 5.74299 6.53968 5.87605 6.44464C5.99009 6.3496 6.12315 6.25457 6.2562 6.15953C6.27521 6.15953 6.27521 6.14052 6.29422 6.14052C6.31322 6.14052 6.31322 6.12151 6.33223 6.12151C6.35124 6.12151 6.35124 6.1025 6.37025 6.1025C6.38925 6.1025 6.38925 6.0835 6.40826 6.0835C6.18017 5.87441 5.93307 5.70334 5.66696 5.55128C5.40086 5.41823 5.13475 5.30418 4.86864 5.22815C4.60253 5.15212 4.31742 5.0951 4.05131 5.05708C3.7852 5.01907 3.5191 5.01907 3.29101 5.03808C3.11994 5.05708 2.94887 5.07609 2.79681 5.0951C2.64475 5.13311 2.49268 5.17113 2.35963 5.20914C2.22658 5.24716 2.11253 5.30418 1.99848 5.38021C1.90345 5.43724 1.80841 5.51327 1.73238 5.5893C1.52329 5.81739 1.40925 6.1025 1.35222 6.46365C1.2952 6.8248 1.31421 7.24296 1.40925 7.69915C1.50429 8.17434 1.65635 8.68754 1.88444 9.25777C2.11253 9.828 2.39765 10.4553 2.75879 11.1015C2.51169 11.4627 2.30261 11.8428 2.07452 12.242C1.86543 12.6221 1.67535 13.0213 1.48528 13.4205C1.2952 13.8196 1.14314 14.2378 0.991079 14.6559C0.839018 15.0741 0.705964 15.5113 0.591918 15.9295C0.154742 17.5831 0.0216888 19.1798 0.17375 20.6434C0.325811 22.126 0.74398 23.5135 1.40925 24.692C2.09352 25.8895 3.04391 26.8969 4.20337 27.6382C5.38185 28.3795 6.80742 28.8547 8.42307 28.9497C8.89826 28.9687 9.39246 28.9687 9.86765 28.9307C10.3619 28.8927 10.837 28.8167 11.3312 28.7216C11.8254 28.6266 12.3006 28.4935 12.7758 28.3415C13.251 28.1894 13.7452 27.9993 14.2014 27.7712L13.0609 25.6234C12.7378 25.7564 12.3957 25.8705 12.0535 25.9655C11.7114 26.0605 11.3693 26.1366 11.0461 26.2126C10.704 26.2696 10.3619 26.3267 10.0197 26.3457C9.67758 26.3647 9.33544 26.3647 9.01231 26.3647C7.71979 26.3076 6.56032 25.9465 5.60994 25.3573C4.65956 24.787 3.88024 23.9887 3.31001 23.0193C2.73978 22.0689 2.39765 20.9665 2.26459 19.769C2.13154 18.5715 2.22658 17.279 2.56871 15.9295C2.91085 14.5989 3.48108 13.3254 4.20337 12.1659C4.92566 11.0065 5.80002 9.96106 6.80742 9.0677C7.79582 8.17434 8.91727 7.43304 10.0767 6.90083C11.2552 6.36861 12.4907 6.02647 13.7452 5.95044C15.0187 5.87441 16.1782 6.0835 17.2046 6.52067C18.231 6.95785 19.1244 7.64212 19.8087 8.51648C20.5119 9.39083 21.0061 10.4743 21.2532 11.7098C21.5003 12.9453 21.5003 14.3328 21.2152 15.7964C21.0822 16.4427 20.8921 17.0699 20.664 17.6972C20.4359 18.3244 20.1508 18.9137 19.8277 19.5029C19.5045 20.0921 19.1434 20.6434 18.7442 21.1756C18.3451 21.7078 17.9079 22.202 17.4517 22.6772C17.4517 22.5251 17.4707 22.354 17.4707 22.202C17.4707 22.0499 17.4897 21.8789 17.4897 21.7268C17.4897 21.5747 17.5087 21.4417 17.5087 21.3276C17.5087 21.2136 17.5087 21.1186 17.5087 21.0425C17.5087 20.9855 17.5087 20.9285 17.4897 20.8905C17.4707 20.8524 17.4707 20.8144 17.4517 20.7954C17.4327 20.7764 17.4137 20.7574 17.3947 20.7384C17.3757 20.7194 17.3377 20.7194 17.3187 20.7194C17.2996 20.7194 17.2806 20.7194 17.2616 20.7194C17.2426 20.7194 17.2236 20.7194 17.2046 20.7384C17.1856 20.7384 17.1666 20.7574 17.1666 20.7574H17.1476L13.156 22.0689C13.156 22.0689 13.118 22.0879 13.0609 22.107C13.0229 22.126 12.9659 22.164 12.9089 22.202C12.8709 22.259 12.8328 22.316 12.8138 22.4111C12.8138 22.5061 12.8328 22.6012 12.8899 22.7342C12.8899 22.7342 12.8899 22.7532 12.9089 22.7532C12.9089 22.7532 12.9089 22.7722 12.9279 22.7722C12.9279 22.7722 12.9279 22.7912 12.9469 22.7912C12.9469 22.7912 12.9469 22.8102 12.9659 22.8102C13.137 23.1714 13.4031 23.6656 13.6882 24.2168C13.9923 24.768 14.3154 25.3953 14.6386 26.0035C14.9807 26.6308 15.3038 27.239 15.589 27.7522C15.8741 28.2844 16.1212 28.7216 16.2542 28.9877C16.2732 29.0067 16.2732 29.0257 16.2922 29.0638C16.3113 29.0828 16.3113 29.1018 16.3303 29.1208C16.3493 29.1398 16.3493 29.1588 16.3493 29.1778C16.3493 29.1968 16.3683 29.2158 16.3683 29.2158C16.4063 29.2918 16.4443 29.3489 16.4823 29.3869C16.5203 29.4439 16.5583 29.4819 16.5774 29.5009C16.6154 29.5389 16.6344 29.558 16.6724 29.577C16.7104 29.596 16.7294 29.596 16.7674 29.596C16.8245 29.596 16.8625 29.577 16.9005 29.558C16.9385 29.5389 16.9765 29.4819 17.0145 29.4439C17.0525 29.4059 17.0716 29.3489 17.0906 29.2918C17.1096 29.2348 17.1096 29.1968 17.1286 29.1588C17.1286 29.1398 17.1286 29.1398 17.1286 29.1208C17.1286 29.1018 17.1286 29.0828 17.1286 29.0447C17.1286 29.0257 17.1286 28.9877 17.1286 28.9497C17.1286 28.9117 17.1286 28.8927 17.1286 28.8547C17.1286 28.7216 17.1476 28.5696 17.1476 28.3985C17.1476 28.2274 17.1666 28.0563 17.1666 27.9043C17.1666 27.7522 17.1856 27.6192 17.1856 27.5051C17.1856 27.4101 17.2046 27.3341 17.2046 27.315C17.7558 27.6382 18.3071 27.9613 18.8393 28.2654C19.3905 28.5696 19.9227 28.8357 20.4359 29.0828C20.9491 29.3299 21.4433 29.5199 21.8995 29.672C22.3557 29.8241 22.7739 29.9191 23.135 29.9381C23.192 29.9381 23.23 29.9381 23.2871 29.9381C23.3441 29.9381 23.3821 29.9381 23.4201 29.9381C23.4581 29.9381 23.5152 29.9381 23.5532 29.9191C23.5912 29.9191 23.6482 29.9001 23.6862 29.9001C23.7432 29.8811 23.8193 29.8621 23.8763 29.8431C23.9333 29.8241 23.9903 29.8051 24.0474 29.767C24.1044 29.748 24.1424 29.71 24.1994 29.672C24.2374 29.634 24.2945 29.596 24.3325 29.558C24.5986 29.2918 24.7126 28.8547 24.6936 28.3225C24.6936 27.7902 24.5606 27.144 24.3515 26.4407L24.3325 26.4787Z" fill="#833376"/>
<path d="M11.749 15.4783V14.5279H9.25896L10.7035 13.1213C11.0837 12.7412 11.3498 12.399 11.5209 12.0759C11.6729 11.7528 11.749 11.4296 11.749 11.0875C11.749 10.5363 11.5779 10.0991 11.2358 9.79498C10.8936 9.49086 10.4184 9.3388 9.79118 9.3388C9.18293 9.3388 8.68873 9.49086 8.32759 9.79498C7.96644 10.0991 7.77637 10.5363 7.77637 11.0875V11.1445H8.82179C8.82179 10.5363 9.14492 10.2322 9.79118 10.2322C10.3994 10.2322 10.7226 10.5173 10.7226 11.1065C10.7226 11.3346 10.6655 11.5627 10.5515 11.7718C10.4374 11.9809 10.2664 12.209 10.0193 12.4751L7.90942 14.5089V15.4593H11.787L11.749 15.4783ZM16.824 11.1445C16.824 10.5933 16.6339 10.1371 16.2538 9.81399C15.8736 9.47185 15.3794 9.30078 14.7522 9.30078C14.1439 9.30078 13.6497 9.47185 13.2506 9.79498C12.8704 10.1371 12.6803 10.5743 12.6803 11.1255V13.7106C12.6803 14.2618 12.8704 14.699 13.2506 15.0411C13.6307 15.3832 14.1249 15.5353 14.7522 15.5353C15.3604 15.5353 15.8546 15.3642 16.2538 15.0221C16.6339 14.6799 16.824 14.2428 16.824 13.6916V11.1445ZM15.7786 13.6155C15.7786 13.9387 15.6836 14.1857 15.5125 14.3568C15.3414 14.5279 15.0943 14.6229 14.7712 14.6229C14.4481 14.6229 14.201 14.5279 14.0299 14.3568C13.8588 14.1857 13.7638 13.9196 13.7638 13.6155V11.2015C13.7638 10.8784 13.8588 10.6313 14.0299 10.4412C14.201 10.2702 14.4671 10.1751 14.7902 10.1751C15.1133 10.1751 15.3604 10.2702 15.5315 10.4412C15.7216 10.6123 15.7976 10.8784 15.7976 11.2015L15.7786 13.6155Z" fill="#833376"/>
<path d="M9.03123 20.5736V16.0117H8.27093V19.4901L6.4652 16.0117H5.34375V20.5736H6.10406V17.1142L7.92879 20.5736H9.03123ZM10.6279 20.1364C10.6279 20.0223 10.5899 19.9273 10.5138 19.8703C10.4378 19.8132 10.3238 19.7752 10.2097 19.7752C10.0957 19.7752 9.98162 19.8132 9.90559 19.8703C9.82956 19.9273 9.79154 20.0223 9.79154 20.1364V20.2694C9.79154 20.3835 9.82956 20.4785 9.90559 20.5355C9.98162 20.5926 10.0957 20.6306 10.2097 20.6306C10.3428 20.6306 10.4378 20.5926 10.5138 20.5355C10.5899 20.4785 10.6279 20.3835 10.6279 20.2694L10.6089 20.1364H10.6279ZM14.0683 19.3381H13.346C13.346 19.7752 13.1179 19.9843 12.6617 19.9843C12.2245 19.9843 11.9964 19.7562 11.9964 19.3V18.6348C11.9964 18.1786 12.2245 17.9505 12.6617 17.9505C13.1179 17.9505 13.346 18.1596 13.346 18.5968H14.0683V18.5397C14.0683 18.1406 13.9542 17.8365 13.6881 17.6274C13.441 17.4183 13.0989 17.3042 12.6807 17.3042C12.2625 17.3042 11.9204 17.4183 11.6733 17.6464C11.4262 17.8745 11.2931 18.1786 11.2931 18.5778V19.3761C11.2931 19.7752 11.4262 20.0794 11.6733 20.3074C11.9204 20.5355 12.2625 20.6306 12.6807 20.6306C13.1179 20.6306 13.46 20.5355 13.7071 20.3074C13.9542 20.0984 14.0873 19.7942 14.0873 19.3951L14.0683 19.3571V19.3381ZM19.2003 20.5736V18.2926C19.2003 17.9885 19.1243 17.7414 18.9532 17.5703C18.8012 17.3993 18.5731 17.3042 18.288 17.3042C18.0219 17.3042 17.7938 17.3803 17.5467 17.5323L17.1855 17.7414C17.0525 17.4563 16.7864 17.3042 16.4252 17.3042C16.1971 17.3042 15.969 17.3803 15.7409 17.4943L15.4558 17.6654V17.3232H14.7335V20.5545H15.4748V18.3307L15.855 18.0836C16.007 18.0075 16.1401 17.9695 16.2351 17.9695C16.4632 17.9695 16.5773 18.1026 16.5773 18.3687V20.5545H17.3186V18.3307L17.7177 18.0836C17.8698 17.9885 18.0028 17.9505 18.0979 17.9505C18.326 17.9505 18.44 18.0836 18.44 18.3497V20.5355H19.1813L19.2003 20.5736Z" fill="#833376"/>
<path d="M21.2728 11.9968C24.3521 11.9968 26.8611 9.50681 26.8611 6.40856C26.8611 3.32932 24.3711 0.820312 21.2728 0.820312C18.1936 0.820312 15.6846 3.31032 15.6846 6.40856C15.6846 9.4878 18.1746 11.9968 21.2728 11.9968Z" fill="#833376"/>
<path d="M21.2728 11.9968C24.3521 11.9968 26.8611 9.50681 26.8611 6.40856C26.8611 3.32932 24.3711 0.820312 21.2728 0.820312C18.1936 0.820312 15.6846 3.31032 15.6846 6.40856C15.6846 9.4878 18.1746 11.9968 21.2728 11.9968Z" stroke="white" stroke-width="1.08344"/>
<path d="M23.2489 9.58664V8.97839H21.8803V3.65625H21.177C20.7589 4.05541 20.3407 4.30251 19.9415 4.45457V5.10083C20.3977 5.0248 20.8159 4.79671 21.215 4.39755V8.9974H19.4854V9.60565H23.2489V9.58664Z" fill="#FEFEFE"/>
</svg>
