<svg width="17" height="17" viewBox="0 0 17 17" fill="none" xmlns="http://www.w3.org/2000/svg">
<path d="M8.50696 4.62109C8.63957 4.62109 8.76675 4.67377 8.86052 4.76754C8.95429 4.86132 9.00697 4.9885 9.00697 5.12111V8.1212H12.0071C12.1397 8.1212 12.2669 8.17388 12.3606 8.26765C12.4544 8.36142 12.5071 8.4886 12.5071 8.62122C12.5071 8.75383 12.4544 8.88101 12.3606 8.97478C12.2669 9.06855 12.1397 9.12123 12.0071 9.12123H9.00697V12.1213C9.00697 12.2539 8.95429 12.3811 8.86052 12.4749C8.76675 12.5687 8.63957 12.6213 8.50696 12.6213C8.37435 12.6213 8.24716 12.5687 8.15339 12.4749C8.05962 12.3811 8.00694 12.2539 8.00694 12.1213V9.12123H5.00685C4.87424 9.12123 4.74706 9.06855 4.65329 8.97478C4.55952 8.88101 4.50684 8.75383 4.50684 8.62122C4.50684 8.4886 4.55952 8.36142 4.65329 8.26765C4.74706 8.17388 4.87424 8.1212 5.00685 8.1212H8.00694V5.12111C8.00694 4.9885 8.05962 4.86132 8.15339 4.76754C8.24716 4.67377 8.37435 4.62109 8.50696 4.62109Z" fill="#CFCCC9"/>
</svg>
