<svg width="15" height="16" viewBox="0 0 15 16" fill="none" xmlns="http://www.w3.org/2000/svg">
<path d="M8.51917 5.93307C8.51917 5.81303 8.47148 5.69791 8.3866 5.61303C8.30173 5.52815 8.1866 5.48047 8.06657 5.48047C7.94653 5.48047 7.83141 5.52815 7.74653 5.61303C7.66165 5.69791 7.61396 5.81303 7.61396 5.93307V7.29088H6.25615C6.13612 7.29088 6.02099 7.33857 5.93612 7.42345C5.85124 7.50832 5.80355 7.62345 5.80355 7.74348C5.80355 7.86352 5.85124 7.97864 5.93612 8.06352C6.02099 8.1484 6.13612 8.19609 6.25615 8.19609H7.61396V9.5539C7.61396 9.67393 7.66165 9.78906 7.74653 9.87393C7.83141 9.95881 7.94653 10.0065 8.06657 10.0065C8.1866 10.0065 8.30173 9.95881 8.3866 9.87393C8.47148 9.78906 8.51917 9.67393 8.51917 9.5539V8.19609H9.87698C9.99702 8.19609 10.1121 8.1484 10.197 8.06352C10.2819 7.97864 10.3296 7.86352 10.3296 7.74348C10.3296 7.62345 10.2819 7.50832 10.197 7.42345C10.1121 7.33857 9.99702 7.29088 9.87698 7.29088H8.51917V5.93307Z" fill="#363330"/>
<path d="M0.824917 1.85938C0.70488 1.85938 0.589758 1.90706 0.504879 1.99194C0.419999 2.07682 0.372314 2.19194 0.372314 2.31198C0.372314 2.43202 0.419999 2.54714 0.504879 2.63202C0.589758 2.7169 0.70488 2.76458 0.824917 2.76458H1.8297L2.19268 4.21925L3.54868 11.4473C3.5681 11.551 3.62314 11.6447 3.7043 11.7121C3.78545 11.7796 3.88762 11.8165 3.99314 11.8166H4.89834C4.41819 11.8166 3.95771 12.0074 3.61819 12.3469C3.27867 12.6864 3.08793 13.1469 3.08793 13.6271C3.08793 14.1072 3.27867 14.5677 3.61819 14.9072C3.95771 15.2467 4.41819 15.4375 4.89834 15.4375C5.3785 15.4375 5.83898 15.2467 6.1785 14.9072C6.51802 14.5677 6.70876 14.1072 6.70876 13.6271C6.70876 13.1469 6.51802 12.6864 6.1785 12.3469C5.83898 12.0074 5.3785 11.8166 4.89834 11.8166H11.2348C10.7546 11.8166 10.2942 12.0074 9.95463 12.3469C9.61511 12.6864 9.42437 13.1469 9.42437 13.6271C9.42437 14.1072 9.61511 14.5677 9.95463 14.9072C10.2942 15.2467 10.7546 15.4375 11.2348 15.4375C11.7149 15.4375 12.1754 15.2467 12.5149 14.9072C12.8545 14.5677 13.0452 14.1072 13.0452 13.6271C13.0452 13.1469 12.8545 12.6864 12.5149 12.3469C12.1754 12.0074 11.7149 11.8166 11.2348 11.8166H12.14C12.2455 11.8165 12.3477 11.7796 12.4288 11.7121C12.51 11.6447 12.565 11.551 12.5844 11.4473L13.9423 4.20567C13.9545 4.14035 13.9522 4.07313 13.9355 4.0088C13.9188 3.94447 13.8882 3.8846 13.8458 3.83345C13.8033 3.7823 13.7502 3.74112 13.69 3.71283C13.6299 3.68454 13.5643 3.66985 13.4978 3.66979H2.98836L2.62175 2.20245C2.59732 2.10449 2.54084 2.01751 2.46129 1.95535C2.38174 1.89319 2.28369 1.8594 2.18273 1.85938H0.824917ZM4.3688 10.9114L3.18026 4.57499H12.9529L11.7643 10.9114H4.3688ZM5.80355 13.6271C5.80355 13.8671 5.70818 14.0974 5.53842 14.2671C5.36866 14.4369 5.13842 14.5323 4.89834 14.5323C4.65827 14.5323 4.42803 14.4369 4.25827 14.2671C4.08851 14.0974 3.99314 13.8671 3.99314 13.6271C3.99314 13.387 4.08851 13.1567 4.25827 12.987C4.42803 12.8172 4.65827 12.7218 4.89834 12.7218C5.13842 12.7218 5.36866 12.8172 5.53842 12.987C5.70818 13.1567 5.80355 13.387 5.80355 13.6271ZM12.14 13.6271C12.14 13.8671 12.0446 14.0974 11.8749 14.2671C11.7051 14.4369 11.4749 14.5323 11.2348 14.5323C10.9947 14.5323 10.7645 14.4369 10.5947 14.2671C10.425 14.0974 10.3296 13.8671 10.3296 13.6271C10.3296 13.387 10.425 13.1567 10.5947 12.987C10.7645 12.8172 10.9947 12.7218 11.2348 12.7218C11.4749 12.7218 11.7051 12.8172 11.8749 12.987C12.0446 13.1567 12.14 13.387 12.14 13.6271Z" fill="#363330"/>
</svg>
