<svg width="16" height="15" viewBox="0 0 16 15" fill="none" xmlns="http://www.w3.org/2000/svg">
<path d="M9.00354 5.1401C9.00354 5.02007 8.95586 4.90494 8.87098 4.82006C8.7861 4.73518 8.67098 4.6875 8.55094 4.6875C8.4309 4.6875 8.31578 4.73518 8.2309 4.82006C8.14602 4.90494 8.09834 5.02007 8.09834 5.1401V6.49791H6.74053C6.62049 6.49791 6.50537 6.5456 6.42049 6.63048C6.33561 6.71536 6.28793 6.83048 6.28793 6.95052C6.28793 7.07055 6.33561 7.18567 6.42049 7.27055C6.50537 7.35543 6.62049 7.40312 6.74053 7.40312H8.09834V8.76093C8.09834 8.88096 8.14602 8.99609 8.2309 9.08097C8.31578 9.16585 8.4309 9.21353 8.55094 9.21353C8.67098 9.21353 8.7861 9.16585 8.87098 9.08097C8.95586 8.99609 9.00354 8.88096 9.00354 8.76093V7.40312H10.3614C10.4814 7.40312 10.5965 7.35543 10.6814 7.27055C10.7663 7.18567 10.814 7.07055 10.814 6.95052C10.814 6.83048 10.7663 6.71536 10.6814 6.63048C10.5965 6.5456 10.4814 6.49791 10.3614 6.49791H9.00354V5.1401Z" fill="#363330"/>
<path d="M1.30929 1.06641C1.18925 1.06641 1.07413 1.11409 0.989254 1.19897C0.904374 1.28385 0.856689 1.39897 0.856689 1.51901C0.856689 1.63905 0.904374 1.75417 0.989254 1.83905C1.07413 1.92393 1.18925 1.97161 1.30929 1.97161H2.31407L2.67706 3.42628L4.03306 10.6543C4.05247 10.7581 4.10752 10.8517 4.18867 10.9192C4.26983 10.9866 4.372 11.0236 4.47751 11.0237H5.38272C4.90257 11.0237 4.44208 11.2144 4.10256 11.5539C3.76305 11.8934 3.57231 12.3539 3.57231 12.8341C3.57231 13.3142 3.76305 13.7747 4.10256 14.1142C4.44208 14.4538 4.90257 14.6445 5.38272 14.6445C5.86287 14.6445 6.32336 14.4538 6.66287 14.1142C7.00239 13.7747 7.19313 13.3142 7.19313 12.8341C7.19313 12.3539 7.00239 11.8934 6.66287 11.5539C6.32336 11.2144 5.86287 11.0237 5.38272 11.0237H11.7192C11.239 11.0237 10.7785 11.2144 10.439 11.5539C10.0995 11.8934 9.90875 12.3539 9.90875 12.8341C9.90875 13.3142 10.0995 13.7747 10.439 14.1142C10.7785 14.4538 11.239 14.6445 11.7192 14.6445C12.1993 14.6445 12.6598 14.4538 12.9993 14.1142C13.3388 13.7747 13.5296 13.3142 13.5296 12.8341C13.5296 12.3539 13.3388 11.8934 12.9993 11.5539C12.6598 11.2144 12.1993 11.0237 11.7192 11.0237H12.6244C12.7299 11.0236 12.8321 10.9866 12.9132 10.9192C12.9944 10.8517 13.0494 10.7581 13.0688 10.6543L14.4266 3.4127C14.4389 3.34738 14.4366 3.28016 14.4199 3.21583C14.4032 3.1515 14.3726 3.09164 14.3301 3.04048C14.2877 2.98933 14.2345 2.94815 14.1744 2.91986C14.1143 2.89158 14.0486 2.87688 13.9822 2.87682H3.47273L3.10613 1.40948C3.08169 1.31152 3.02521 1.22454 2.94566 1.16238C2.86611 1.10022 2.76806 1.06643 2.6671 1.06641H1.30929ZM4.85317 10.1185L3.66464 3.78202H13.4372L12.2487 10.1185H4.85317ZM6.28793 12.8341C6.28793 13.0742 6.19256 13.3044 6.0228 13.4742C5.85304 13.6439 5.6228 13.7393 5.38272 13.7393C5.14264 13.7393 4.9124 13.6439 4.74264 13.4742C4.57288 13.3044 4.47751 13.0742 4.47751 12.8341C4.47751 12.594 4.57288 12.3638 4.74264 12.194C4.9124 12.0242 5.14264 11.9289 5.38272 11.9289C5.6228 11.9289 5.85304 12.0242 6.0228 12.194C6.19256 12.3638 6.28793 12.594 6.28793 12.8341ZM12.6244 12.8341C12.6244 13.0742 12.529 13.3044 12.3592 13.4742C12.1895 13.6439 11.9592 13.7393 11.7192 13.7393C11.4791 13.7393 11.2488 13.6439 11.0791 13.4742C10.9093 13.3044 10.814 13.0742 10.814 12.8341C10.814 12.594 10.9093 12.3638 11.0791 12.194C11.2488 12.0242 11.4791 11.9289 11.7192 11.9289C11.9592 11.9289 12.1895 12.0242 12.3592 12.194C12.529 12.3638 12.6244 12.594 12.6244 12.8341Z" fill="#363330"/>
</svg>
