<svg width="16" height="16" viewBox="0 0 16 16" fill="none" xmlns="http://www.w3.org/2000/svg">
<path d="M8.77796 5.75338C8.77796 5.63335 8.73027 5.51823 8.64539 5.43335C8.56051 5.34847 8.44539 5.30078 8.32535 5.30078C8.20532 5.30078 8.0902 5.34847 8.00532 5.43335C7.92044 5.51823 7.87275 5.63335 7.87275 5.75338V7.11119H6.51494C6.39491 7.11119 6.27978 7.15888 6.1949 7.24376C6.11002 7.32864 6.06234 7.44376 6.06234 7.5638C6.06234 7.68383 6.11002 7.79896 6.1949 7.88383C6.27978 7.96871 6.39491 8.0164 6.51494 8.0164H7.87275V9.37421C7.87275 9.49425 7.92044 9.60937 8.00532 9.69425C8.0902 9.77913 8.20532 9.82681 8.32535 9.82681C8.44539 9.82681 8.56051 9.77913 8.64539 9.69425C8.73027 9.60937 8.77796 9.49425 8.77796 9.37421V8.0164H10.1358C10.2558 8.0164 10.3709 7.96871 10.4558 7.88383C10.5407 7.79896 10.5884 7.68383 10.5884 7.5638C10.5884 7.44376 10.5407 7.32864 10.4558 7.24376C10.3709 7.15888 10.2558 7.11119 10.1358 7.11119H8.77796V5.75338Z" fill="#363330"/>
<path d="M1.08371 1.67969C0.963669 1.67969 0.848547 1.72737 0.763668 1.81225C0.678788 1.89713 0.631104 2.01225 0.631104 2.13229C0.631104 2.25233 0.678788 2.36745 0.763668 2.45233C0.848547 2.53721 0.963669 2.58489 1.08371 2.58489H2.08849L2.45147 4.03956L3.80747 11.2676C3.82689 11.3713 3.88193 11.465 3.96309 11.5325C4.04424 11.5999 4.14641 11.6369 4.25193 11.637H5.15713C4.67698 11.637 4.2165 11.8277 3.87698 12.1672C3.53746 12.5067 3.34672 12.9672 3.34672 13.4474C3.34672 13.9275 3.53746 14.388 3.87698 14.7275C4.2165 15.067 4.67698 15.2578 5.15713 15.2578C5.63728 15.2578 6.09777 15.067 6.43729 14.7275C6.77681 14.388 6.96755 13.9275 6.96755 13.4474C6.96755 12.9672 6.77681 12.5067 6.43729 12.1672C6.09777 11.8277 5.63728 11.637 5.15713 11.637H11.4936C11.0134 11.637 10.5529 11.8277 10.2134 12.1672C9.8739 12.5067 9.68316 12.9672 9.68316 13.4474C9.68316 13.9275 9.8739 14.388 10.2134 14.7275C10.5529 15.067 11.0134 15.2578 11.4936 15.2578C11.9737 15.2578 12.4342 15.067 12.7737 14.7275C13.1132 14.388 13.304 13.9275 13.304 13.4474C13.304 12.9672 13.1132 12.5067 12.7737 12.1672C12.4342 11.8277 11.9737 11.637 11.4936 11.637H12.3988C12.5043 11.6369 12.6065 11.5999 12.6876 11.5325C12.7688 11.465 12.8238 11.3713 12.8432 11.2676L14.201 4.02598C14.2133 3.96066 14.211 3.89345 14.1943 3.82912C14.1776 3.76479 14.147 3.70492 14.1045 3.65376C14.0621 3.60261 14.009 3.56143 13.9488 3.53314C13.8887 3.50486 13.823 3.49016 13.7566 3.4901H3.24715L2.88054 2.02276C2.85611 1.9248 2.79963 1.83783 2.72008 1.77566C2.64053 1.7135 2.54247 1.67972 2.44152 1.67969H1.08371ZM4.62759 10.7317L3.43905 4.39531H13.2117L12.0231 10.7317H4.62759ZM6.06234 13.4474C6.06234 13.6874 5.96697 13.9177 5.79721 14.0874C5.62745 14.2572 5.39721 14.3526 5.15713 14.3526C4.91706 14.3526 4.68682 14.2572 4.51706 14.0874C4.3473 13.9177 4.25193 13.6874 4.25193 13.4474C4.25193 13.2073 4.3473 12.977 4.51706 12.8073C4.68682 12.6375 4.91706 12.5422 5.15713 12.5422C5.39721 12.5422 5.62745 12.6375 5.79721 12.8073C5.96697 12.977 6.06234 13.2073 6.06234 13.4474ZM12.3988 13.4474C12.3988 13.6874 12.3034 13.9177 12.1337 14.0874C11.9639 14.2572 11.7337 14.3526 11.4936 14.3526C11.2535 14.3526 11.0233 14.2572 10.8535 14.0874C10.6837 13.9177 10.5884 13.6874 10.5884 13.4474C10.5884 13.2073 10.6837 12.977 10.8535 12.8073C11.0233 12.6375 11.2535 12.5422 11.4936 12.5422C11.7337 12.5422 11.9639 12.6375 12.1337 12.8073C12.3034 12.977 12.3988 13.2073 12.3988 13.4474Z" fill="#363330"/>
</svg>
