<svg width="15" height="16" viewBox="0 0 15 16" fill="none" xmlns="http://www.w3.org/2000/svg">
<path d="M8.27649 5.54635C8.27649 5.42632 8.22881 5.31119 8.14393 5.22631C8.05905 5.14143 7.94393 5.09375 7.82389 5.09375C7.70385 5.09375 7.58873 5.14143 7.50385 5.22631C7.41897 5.31119 7.37129 5.42632 7.37129 5.54635V6.90416H6.01348C5.89344 6.90416 5.77832 6.95185 5.69344 7.03673C5.60856 7.12161 5.56087 7.23673 5.56087 7.35677C5.56087 7.4768 5.60856 7.59192 5.69344 7.6768C5.77832 7.76168 5.89344 7.80937 6.01348 7.80937H7.37129V9.16718C7.37129 9.28721 7.41897 9.40234 7.50385 9.48722C7.58873 9.5721 7.70385 9.61978 7.82389 9.61978C7.94393 9.61978 8.05905 9.5721 8.14393 9.48722C8.22881 9.40234 8.27649 9.28721 8.27649 9.16718V7.80937H9.6343C9.75434 7.80937 9.86946 7.76168 9.95434 7.6768C10.0392 7.59192 10.0869 7.4768 10.0869 7.35677C10.0869 7.23673 10.0392 7.12161 9.95434 7.03673C9.86946 6.95185 9.75434 6.90416 9.6343 6.90416H8.27649V5.54635Z" fill="#363330"/>
<path d="M0.582242 1.47266C0.462204 1.47266 0.347083 1.52034 0.262203 1.60522C0.177324 1.6901 0.129639 1.80522 0.129639 1.92526C0.129639 2.0453 0.177324 2.16042 0.262203 2.2453C0.347083 2.33018 0.462204 2.37786 0.582242 2.37786H1.58702L1.95001 3.83253L3.30601 11.0606C3.32542 11.1643 3.38047 11.258 3.46162 11.3254C3.54278 11.3929 3.64494 11.4298 3.75046 11.4299H4.65567C4.17552 11.4299 3.71503 11.6207 3.37551 11.9602C3.036 12.2997 2.84526 12.7602 2.84526 13.2403C2.84526 13.7205 3.036 14.181 3.37551 14.5205C3.71503 14.86 4.17552 15.0507 4.65567 15.0507C5.13582 15.0507 5.59631 14.86 5.93582 14.5205C6.27534 14.181 6.46608 13.7205 6.46608 13.2403C6.46608 12.7602 6.27534 12.2997 5.93582 11.9602C5.59631 11.6207 5.13582 11.4299 4.65567 11.4299H10.9921C10.512 11.4299 10.0515 11.6207 9.71196 11.9602C9.37244 12.2997 9.1817 12.7602 9.1817 13.2403C9.1817 13.7205 9.37244 14.181 9.71196 14.5205C10.0515 14.86 10.512 15.0507 10.9921 15.0507C11.4723 15.0507 11.9327 14.86 12.2723 14.5205C12.6118 14.181 12.8025 13.7205 12.8025 13.2403C12.8025 12.7602 12.6118 12.2997 12.2723 11.9602C11.9327 11.6207 11.4723 11.4299 10.9921 11.4299H11.8973C12.0028 11.4298 12.105 11.3929 12.1862 11.3254C12.2673 11.258 12.3224 11.1643 12.3418 11.0606L13.6996 3.81895C13.7118 3.75363 13.7095 3.68641 13.6928 3.62208C13.6761 3.55775 13.6455 3.49789 13.6031 3.44673C13.5607 3.39558 13.5075 3.3544 13.4473 3.32611C13.3872 3.29783 13.3216 3.28313 13.2551 3.28307H2.74568L2.37908 1.81573C2.35464 1.71777 2.29816 1.63079 2.21861 1.56863C2.13906 1.50647 2.04101 1.47268 1.94005 1.47266H0.582242ZM4.12612 10.5247L2.93759 4.18827H12.7102L11.5217 10.5247H4.12612ZM5.56087 13.2403C5.56087 13.4804 5.46551 13.7107 5.29575 13.8804C5.12599 14.0502 4.89574 14.1455 4.65567 14.1455C4.41559 14.1455 4.18535 14.0502 4.01559 13.8804C3.84583 13.7107 3.75046 13.4804 3.75046 13.2403C3.75046 13.0003 3.84583 12.77 4.01559 12.6003C4.18535 12.4305 4.41559 12.3351 4.65567 12.3351C4.89574 12.3351 5.12599 12.4305 5.29575 12.6003C5.46551 12.77 5.56087 13.0003 5.56087 13.2403ZM11.8973 13.2403C11.8973 13.4804 11.8019 13.7107 11.6322 13.8804C11.4624 14.0502 11.2322 14.1455 10.9921 14.1455C10.752 14.1455 10.5218 14.0502 10.352 13.8804C10.1823 13.7107 10.0869 13.4804 10.0869 13.2403C10.0869 13.0003 10.1823 12.77 10.352 12.6003C10.5218 12.4305 10.752 12.3351 10.9921 12.3351C11.2322 12.3351 11.4624 12.4305 11.6322 12.6003C11.8019 12.77 11.8973 13.0003 11.8973 13.2403Z" fill="#363330"/>
</svg>
