<svg width="15" height="16" viewBox="0 0 15 16" fill="none" xmlns="http://www.w3.org/2000/svg">
<path d="M8.51917 5.68698C8.51917 5.56694 8.47148 5.45182 8.3866 5.36694C8.30173 5.28206 8.1866 5.23438 8.06657 5.23438C7.94653 5.23438 7.83141 5.28206 7.74653 5.36694C7.66165 5.45182 7.61396 5.56694 7.61396 5.68698V7.04479H6.25615C6.13612 7.04479 6.02099 7.09247 5.93612 7.17735C5.85124 7.26223 5.80355 7.37735 5.80355 7.49739C5.80355 7.61743 5.85124 7.73255 5.93612 7.81743C6.02099 7.90231 6.13612 7.94999 6.25615 7.94999H7.61396V9.3078C7.61396 9.42784 7.66165 9.54296 7.74653 9.62784C7.83141 9.71272 7.94653 9.76041 8.06657 9.76041C8.1866 9.76041 8.30173 9.71272 8.3866 9.62784C8.47148 9.54296 8.51917 9.42784 8.51917 9.3078V7.94999H9.87698C9.99702 7.94999 10.1121 7.90231 10.197 7.81743C10.2819 7.73255 10.3296 7.61743 10.3296 7.49739C10.3296 7.37735 10.2819 7.26223 10.197 7.17735C10.1121 7.09247 9.99702 7.04479 9.87698 7.04479H8.51917V5.68698Z" fill="#363330"/>
<path d="M0.824917 1.61328C0.70488 1.61328 0.589758 1.66097 0.504879 1.74585C0.419999 1.83073 0.372314 1.94585 0.372314 2.06588C0.372314 2.18592 0.419999 2.30104 0.504879 2.38592C0.589758 2.4708 0.70488 2.51849 0.824917 2.51849H1.8297L2.19268 3.97315L3.54868 11.2012C3.5681 11.3049 3.62314 11.3986 3.7043 11.4661C3.78545 11.5335 3.88762 11.5704 3.99314 11.5705H4.89834C4.41819 11.5705 3.95771 11.7613 3.61819 12.1008C3.27867 12.4403 3.08793 12.9008 3.08793 13.381C3.08793 13.8611 3.27867 14.3216 3.61819 14.6611C3.95771 15.0006 4.41819 15.1914 4.89834 15.1914C5.3785 15.1914 5.83898 15.0006 6.1785 14.6611C6.51802 14.3216 6.70876 13.8611 6.70876 13.381C6.70876 12.9008 6.51802 12.4403 6.1785 12.1008C5.83898 11.7613 5.3785 11.5705 4.89834 11.5705H11.2348C10.7546 11.5705 10.2942 11.7613 9.95463 12.1008C9.61511 12.4403 9.42437 12.9008 9.42437 13.381C9.42437 13.8611 9.61511 14.3216 9.95463 14.6611C10.2942 15.0006 10.7546 15.1914 11.2348 15.1914C11.7149 15.1914 12.1754 15.0006 12.5149 14.6611C12.8545 14.3216 13.0452 13.8611 13.0452 13.381C13.0452 12.9008 12.8545 12.4403 12.5149 12.1008C12.1754 11.7613 11.7149 11.5705 11.2348 11.5705H12.14C12.2455 11.5704 12.3477 11.5335 12.4288 11.4661C12.51 11.3986 12.565 11.3049 12.5844 11.2012L13.9423 3.95958C13.9545 3.89425 13.9522 3.82704 13.9355 3.76271C13.9188 3.69838 13.8882 3.63851 13.8458 3.58736C13.8033 3.53621 13.7502 3.49502 13.69 3.46674C13.6299 3.43845 13.5643 3.42375 13.4978 3.42369H2.98836L2.62175 1.95635C2.59732 1.8584 2.54084 1.77142 2.46129 1.70926C2.38174 1.64709 2.28369 1.61331 2.18273 1.61328H0.824917ZM4.3688 10.6653L3.18026 4.3289H12.9529L11.7643 10.6653H4.3688ZM5.80355 13.381C5.80355 13.621 5.70818 13.8513 5.53842 14.021C5.36866 14.1908 5.13842 14.2862 4.89834 14.2862C4.65827 14.2862 4.42803 14.1908 4.25827 14.021C4.08851 13.8513 3.99314 13.621 3.99314 13.381C3.99314 13.1409 4.08851 12.9106 4.25827 12.7409C4.42803 12.5711 4.65827 12.4758 4.89834 12.4758C5.13842 12.4758 5.36866 12.5711 5.53842 12.7409C5.70818 12.9106 5.80355 13.1409 5.80355 13.381ZM12.14 13.381C12.14 13.621 12.0446 13.8513 11.8749 14.021C11.7051 14.1908 11.4749 14.2862 11.2348 14.2862C10.9947 14.2862 10.7645 14.1908 10.5947 14.021C10.425 13.8513 10.3296 13.621 10.3296 13.381C10.3296 13.1409 10.425 12.9106 10.5947 12.7409C10.7645 12.5711 10.9947 12.4758 11.2348 12.4758C11.4749 12.4758 11.7051 12.5711 11.8749 12.7409C12.0446 12.9106 12.14 13.1409 12.14 13.381Z" fill="#363330"/>
</svg>
