<svg width="80" height="35" viewBox="0 0 80 35" fill="none" xmlns="http://www.w3.org/2000/svg">
<path d="M17.1771 0.789062C7.97444 0.789062 0.484375 8.27913 0.484375 17.4839C0.484375 26.6866 7.97231 34.1767 17.1771 34.1767C26.3819 34.1767 33.8699 26.6866 33.8699 17.4839C33.8699 8.27913 26.3819 0.789062 17.1771 0.789062ZM17.1771 32.9953C8.62464 32.9953 1.66579 26.0364 1.66579 17.4839C1.66579 8.93145 8.62464 1.9726 17.1771 1.9726C25.7296 1.9726 32.6885 8.93145 32.6885 17.4839C32.6885 26.0364 25.7296 32.9953 17.1771 32.9953Z" fill="#3C1635"/>
<path d="M22.2916 13.6999L22.3171 13.6851V12.0234H12.3134L11.5803 13.2983H20.3155L6.57632 21.7106L6.55294 21.7255L6.54657 22.9791H25.5618V21.7042H9.02201L22.2916 13.6999Z" fill="#3C1635"/>
<path d="M27.727 13.8711H26.4669V22.976H26.9599C27.1979 22.976 27.387 22.9059 27.5208 22.7636C27.7439 22.5298 27.7291 22.192 27.727 22.1792V13.8711Z" fill="#3C1635"/>
<path d="M27.1044 13.2718C27.4444 13.2718 27.7249 12.9956 27.7249 12.6535C27.7249 12.3135 27.4465 12.0352 27.1044 12.0352C26.7644 12.0352 26.4861 12.3135 26.4861 12.6535C26.4861 12.9956 26.7644 13.2718 27.1044 13.2718Z" fill="#3C1635"/>
<path d="M46.5403 21.7203V14.8719L44.3305 21.7203H43.1002L40.9116 14.8847V21.7203H39.7387L39.7493 13.2422H41.6298L43.7377 20.0905L45.8795 13.2422H47.726V21.7203H46.5403Z" fill="#3C1635"/>
<path d="M53.3207 21.7209V20.9347L52.6365 21.3554C52.1584 21.6444 51.6824 21.7847 51.2128 21.7783C50.6519 21.7783 50.2035 21.6062 49.8742 21.2598C49.5448 20.9135 49.3791 20.4524 49.3791 19.8744V15.7267H50.5414V19.7363C50.5414 20.0317 50.6221 20.2696 50.7815 20.4481C50.9408 20.6266 51.1576 20.7159 51.4317 20.7159C51.6888 20.7159 51.9905 20.616 52.3326 20.4184L53.3122 19.8383V15.7246H54.4511V21.7167H53.3228L53.3207 21.7209Z" fill="#3C1635"/>
<path d="M56.0894 13.2422H57.2623V21.7203H56.0894V13.2422Z" fill="#3C1635"/>
<path d="M61.5013 21.7204C60.8171 21.7204 60.2796 21.5461 59.8843 21.1977C59.4891 20.8471 59.2915 20.3392 59.2915 19.6699V16.7313H58.3353V15.7283H59.3043V14.1113H60.4665V15.7283H62.2089V16.7313H60.4665V19.6125C60.4665 20.0078 60.5558 20.2861 60.7343 20.4497C60.9128 20.6133 61.1911 20.6941 61.5715 20.6941H62.2557V21.7204H61.5035H61.5013Z" fill="#3C1635"/>
<path d="M64.7247 14.0077C64.7247 14.1819 64.6609 14.3222 64.5356 14.4284C64.4102 14.5346 64.2529 14.5878 64.0638 14.5878C63.8577 14.5878 63.6962 14.5368 63.573 14.4348C63.4519 14.3328 63.3903 14.1904 63.3903 14.0077V13.7676C63.3903 13.5848 63.4519 13.4425 63.573 13.3405C63.6941 13.2385 63.8577 13.1875 64.0638 13.1875C64.2529 13.1875 64.4102 13.2406 64.5356 13.3469C64.6609 13.4531 64.7247 13.5955 64.7247 13.7697V14.0098V14.0077ZM63.471 15.7267H64.6439V21.7209H63.471V15.7267Z" fill="#3C1635"/>
<path d="M72.0171 21.7203L69.3845 16.9352L67.1066 19.7485V21.7203H66.5712V13.2422H67.1066V18.9963L71.7537 13.2422H72.4379L69.7606 16.4911L72.6312 21.7203H72.0171Z" fill="#3C1635"/>
<path d="M74.6711 13.6891C74.6711 13.7954 74.635 13.8804 74.5627 13.9462C74.4905 14.0121 74.4012 14.044 74.295 14.044C74.1802 14.044 74.0868 14.0121 74.0166 13.9462C73.9444 13.8825 73.9083 13.7975 73.9083 13.6891V13.5404C73.9083 13.4342 73.9444 13.347 74.0166 13.2833C74.0889 13.2195 74.1824 13.1855 74.295 13.1855C74.4012 13.1855 74.4905 13.2174 74.5627 13.2833C74.635 13.347 74.6711 13.432 74.6711 13.5404V13.6891ZM74.0103 15.7842H74.5797V21.721H74.0103V15.7842Z" fill="#3C1635"/>
<path d="M78.8762 21.7209C78.2684 21.7209 77.7989 21.5487 77.4631 21.2024C77.1295 20.856 76.9617 20.3652 76.9617 19.7278V16.2855H75.8801V15.784H76.9744V14.1543H77.5099V15.784H79.4456V16.2855H77.5099V19.715C77.5099 20.2462 77.6246 20.6244 77.852 20.8475C78.0793 21.0707 78.4363 21.1833 78.9229 21.1833H79.5051V21.7187H78.8783L78.8762 21.7209Z" fill="#3C1635"/>
</svg>
