<svg width="68" height="45" viewBox="0 0 68 45" fill="none" xmlns="http://www.w3.org/2000/svg">
<path d="M18.9989 39.6901C19.9198 39.6901 20.6613 38.9486 20.6613 38.0277C20.6613 37.1068 19.9198 36.3652 18.9989 36.3652C18.078 36.3652 17.3365 37.1068 17.3365 38.0277C17.3365 38.9486 18.078 39.6901 18.9989 39.6901Z" fill="#853376"/>
<path d="M18.963 43.9721C22.2998 43.9721 25.0028 41.2691 25.0028 37.9323C25.0028 34.5955 22.2998 31.8926 18.963 31.8926C15.6262 31.8926 12.9232 34.5955 12.9232 37.9323C12.9232 41.2691 15.6262 43.9721 18.963 43.9721Z" stroke="#853376" stroke-width="2.00926" stroke-miterlimit="10"/>
<path d="M45.7891 43.9604V40.492C55.8354 40.492 64.004 32.3234 64.004 22.2771C64.004 12.2307 55.8354 4.06212 45.7891 4.06212V0.59375C57.737 0.59375 67.4724 10.3172 67.4724 22.2771C67.4724 34.225 57.749 43.9604 45.7891 43.9604Z" fill="#853376"/>
<path d="M45.5379 40.934C35.1567 40.934 26.737 32.5142 26.737 22.133C26.737 11.7518 35.1567 3.33203 45.5379 3.33203C55.9191 3.33203 64.3389 11.7518 64.3389 22.133C64.3389 32.5142 55.9191 40.934 45.5379 40.934Z" fill="#F7F6F7"/>
<path d="M46.5904 20.6139C47.5113 20.6139 48.2528 19.8724 48.2528 18.9515C48.2528 18.0306 47.5113 17.2891 46.5904 17.2891C45.6695 17.2891 44.928 18.0306 44.928 18.9515C44.928 19.8724 45.6695 20.6139 46.5904 20.6139Z" fill="#853376"/>
<path d="M12.3253 27.1683C12.6362 27.1324 13.2223 27.0248 13.7007 26.6899C13.7605 26.654 13.7724 26.5703 13.7246 26.5225L13.4854 26.2115C13.4495 26.1637 13.3777 26.1517 13.3299 26.1876C12.7678 26.5584 11.9545 26.5942 11.6675 26.5464C11.6436 26.5464 11.6196 26.5225 11.5957 26.5105C11.0097 25.769 9.92132 23.8913 9.32333 22.8269C9.27549 22.7551 9.33529 22.6594 9.41901 22.6594C9.86153 22.6236 10.4117 22.5398 10.8303 22.2887C10.8901 22.2528 10.902 22.181 10.8662 22.1212L10.6509 21.7983C10.615 21.7505 10.5552 21.7385 10.4954 21.7624C10.0648 22.0016 9.35921 22.0495 8.94061 22.0495C8.90473 22.0495 8.85689 22.0256 8.84493 21.9897C8.29478 21.0807 7.62502 19.813 7.6011 19.3346C7.57718 18.617 6.68019 17.3014 6.22571 16.6914C6.18983 16.6436 6.20179 16.5718 6.23767 16.536C6.66823 16.1413 7.20643 15.6988 7.4217 15.639C7.76854 15.5313 8.24694 15.3639 8.46222 15.2921C8.52202 15.2682 8.5579 15.2084 8.53398 15.1486L8.40242 14.7898C8.3785 14.73 8.3187 14.6941 8.2589 14.7181C8.04362 14.7898 7.57718 14.9573 7.24231 15.0529C6.95527 15.1367 6.48883 15.5074 6.10611 15.8303C6.03435 15.8901 5.93867 15.8543 5.91476 15.7705C5.73536 14.8975 5.40048 13.5699 4.93404 13.0915C4.52741 12.6849 4.43173 11.5965 4.41977 11.0942C4.41977 11.0344 4.37193 10.9746 4.30017 10.9746H4.10881H3.91745C3.85765 10.9746 3.79785 11.0224 3.79785 11.0942C3.79785 11.5367 3.86961 12.9121 4.49153 13.534C4.86228 13.9048 5.20912 15.3041 5.38852 16.2968C5.40048 16.3566 5.3646 16.4044 5.31676 16.4283L4.71876 16.6556C4.65896 16.6795 4.62309 16.7512 4.64701 16.811L4.77856 17.1698C4.80248 17.2296 4.87424 17.2655 4.93404 17.2416L5.56792 17.0024C5.61576 16.9904 5.67556 17.0024 5.69948 17.0383C6.24963 17.7798 6.96723 18.904 6.97919 19.3824C7.00311 20.0522 7.79246 21.4634 8.24694 22.2408C8.27086 22.2887 8.27086 22.3485 8.22302 22.3844L7.8403 22.7432C7.79246 22.791 7.79246 22.8628 7.8403 22.9106L8.10342 23.1857C8.15126 23.2335 8.22302 23.2335 8.27086 23.1857L8.52202 22.9584C8.58182 22.9106 8.66553 22.9226 8.70141 22.9824C9.08413 23.676 10.1366 25.5298 10.8781 26.5703C10.914 26.6182 10.902 26.6899 10.8542 26.7258C10.7824 26.7856 10.6987 26.8693 10.615 26.953C10.5672 27.0009 10.5791 27.0726 10.627 27.1205L10.914 27.3716C10.9618 27.4075 11.0336 27.4075 11.0695 27.3597C11.1532 27.276 11.2489 27.1803 11.3206 27.1324C11.3326 27.1444 11.3326 27.1444 11.3446 27.1564C11.8947 27.7065 13.007 30.3257 13.4375 31.4261C13.4615 31.4859 13.5332 31.5098 13.593 31.4859L13.9518 31.3423C14.0116 31.3184 14.0355 31.2467 14.0116 31.1869C13.7844 30.6128 12.9233 28.4959 12.2296 27.3358C12.1817 27.264 12.2296 27.1683 12.3133 27.1564L12.3253 27.1683Z" fill="#929292"/>
<path d="M12.3253 27.1683C12.6362 27.1324 13.2223 27.0248 13.7007 26.6899C13.7605 26.654 13.7724 26.5703 13.7246 26.5225L13.4854 26.2115C13.4495 26.1637 13.3777 26.1517 13.3299 26.1876C12.7678 26.5584 11.9545 26.5942 11.6675 26.5464C11.6436 26.5464 11.6196 26.5225 11.5957 26.5105C11.0097 25.769 9.92132 23.8913 9.32333 22.8269C9.27549 22.7551 9.33529 22.6594 9.41901 22.6594C9.86153 22.6236 10.4117 22.5398 10.8303 22.2887C10.8901 22.2528 10.902 22.181 10.8662 22.1212L10.6509 21.7983C10.615 21.7505 10.5552 21.7385 10.4954 21.7624C10.0648 22.0016 9.35921 22.0495 8.94061 22.0495C8.90473 22.0495 8.85689 22.0256 8.84493 21.9897C8.29478 21.0807 7.62502 19.813 7.6011 19.3346C7.57718 18.617 6.68019 17.3014 6.22571 16.6914C6.18983 16.6436 6.20179 16.5718 6.23767 16.536C6.66823 16.1413 7.20643 15.6988 7.4217 15.639C7.76854 15.5313 8.24694 15.3639 8.46222 15.2921C8.52202 15.2682 8.5579 15.2084 8.53398 15.1486L8.40242 14.7898C8.3785 14.73 8.3187 14.6941 8.2589 14.7181C8.04362 14.7898 7.57718 14.9573 7.24231 15.0529C6.95527 15.1367 6.48883 15.5074 6.10611 15.8303C6.03435 15.8901 5.93868 15.8543 5.91476 15.7705C5.73536 14.8975 5.40048 13.5699 4.93404 13.0915C4.52741 12.6849 4.43173 11.5965 4.41977 11.0942C4.41977 11.0344 4.37193 10.9746 4.30017 10.9746H4.10881H3.91745C3.85765 10.9746 3.79785 11.0224 3.79785 11.0942C3.79785 11.5367 3.86961 12.9121 4.49153 13.534C4.86228 13.9048 5.20912 15.3041 5.38852 16.2968C5.40048 16.3566 5.3646 16.4044 5.31676 16.4283L4.71876 16.6556C4.65897 16.6795 4.62309 16.7512 4.64701 16.811L4.77856 17.1698C4.80248 17.2296 4.87424 17.2655 4.93404 17.2416L5.56792 17.0024C5.61576 16.9904 5.67556 17.0024 5.69948 17.0383C6.24963 17.7798 6.96723 18.904 6.97919 19.3824C7.00311 20.0522 7.79246 21.4634 8.24694 22.2408C8.27086 22.2887 8.27086 22.3485 8.22302 22.3844L7.8403 22.7432C7.79246 22.791 7.79246 22.8628 7.8403 22.9106L8.10342 23.1857C8.15126 23.2335 8.22302 23.2335 8.27086 23.1857L8.52202 22.9584C8.58182 22.9106 8.66554 22.9226 8.70141 22.9824C9.08413 23.676 10.1366 25.5298 10.8781 26.5703C10.914 26.6182 10.902 26.6899 10.8542 26.7258C10.7824 26.7856 10.6987 26.8693 10.615 26.953C10.5672 27.0009 10.5791 27.0726 10.627 27.1205L10.914 27.3716C10.9618 27.4075 11.0336 27.4075 11.0695 27.3597C11.1532 27.276 11.2489 27.1803 11.3206 27.1324C11.3326 27.1444 11.3326 27.1444 11.3446 27.1564C11.8947 27.7065 13.007 30.3257 13.4375 31.4261C13.4615 31.4859 13.5332 31.5098 13.593 31.4859L13.9518 31.3423C14.0116 31.3184 14.0355 31.2467 14.0116 31.1869C13.7844 30.6128 12.9233 28.4959 12.2296 27.3358C12.1817 27.264 12.2296 27.1683 12.3133 27.1564L12.3253 27.1683Z" stroke="#929392" stroke-width="0.908953" stroke-miterlimit="10"/>
<path d="M48.7671 16.2125C48.7791 15.8179 49.0422 15.6504 49.4967 15.0166C49.5206 14.9807 49.5684 14.9687 49.6043 14.9807L50.1305 15.172C50.1784 15.196 50.2382 15.1601 50.2501 15.1122L50.3578 14.8132C50.3817 14.7654 50.3458 14.7056 50.298 14.6817L49.8076 14.4903C49.7598 14.4784 49.7359 14.4305 49.7478 14.3827C49.8913 13.5455 50.1784 12.3734 50.4893 12.0744C51.0036 11.5482 51.0634 10.4 51.0634 10.0293C51.0634 9.96947 51.0156 9.93359 50.9677 9.93359L50.6448 9.94555C50.597 9.94555 50.5491 9.99339 50.5491 10.0412C50.5491 10.4718 50.4654 11.3688 50.1305 11.7156C49.7359 12.1103 49.4608 13.2345 49.3173 13.9641C49.3053 14.0358 49.2096 14.0717 49.1618 14.0239C48.8508 13.7488 48.4681 13.4378 48.2289 13.3661C47.9538 13.2824 47.5591 13.1388 47.3917 13.079C47.3439 13.0671 47.2841 13.091 47.2721 13.1388L47.1645 13.4378C47.1406 13.4857 47.1764 13.5455 47.2243 13.5574C47.4037 13.6172 47.7983 13.7608 48.0854 13.8445C48.2648 13.9043 48.7073 14.2631 49.0661 14.598C49.102 14.6338 49.1139 14.6936 49.0781 14.7295C48.7073 15.2438 48.3007 15.5667 48.2767 16.1767C48.2767 16.1767 48.7791 16.3321 48.791 16.2006L48.7671 16.2125Z" fill="#929292"/>
<path d="M48.7671 16.2125C48.7791 15.8179 49.0422 15.6504 49.4967 15.0166C49.5206 14.9807 49.5684 14.9687 49.6043 14.9807L50.1305 15.172C50.1784 15.196 50.2382 15.1601 50.2501 15.1122L50.3578 14.8132C50.3817 14.7654 50.3458 14.7056 50.298 14.6817L49.8076 14.4903C49.7598 14.4784 49.7359 14.4305 49.7478 14.3827C49.8913 13.5455 50.1784 12.3734 50.4893 12.0744C51.0036 11.5482 51.0634 10.4 51.0634 10.0293C51.0634 9.96947 51.0156 9.93359 50.9677 9.93359L50.6448 9.94555C50.597 9.94555 50.5491 9.99339 50.5491 10.0412C50.5491 10.4718 50.4654 11.3688 50.1305 11.7156C49.7359 12.1103 49.4608 13.2345 49.3173 13.9641C49.3053 14.0358 49.2096 14.0717 49.1618 14.0239C48.8508 13.7488 48.4681 13.4378 48.2289 13.3661C47.9538 13.2824 47.5591 13.1388 47.3917 13.079C47.3439 13.0671 47.2841 13.091 47.2721 13.1388L47.1645 13.4378C47.1406 13.4857 47.1764 13.5455 47.2243 13.5574C47.4037 13.6172 47.7983 13.7608 48.0854 13.8445C48.2648 13.9043 48.7073 14.2631 49.0661 14.598C49.102 14.6338 49.1139 14.6936 49.0781 14.7295C48.7073 15.2438 48.3007 15.5667 48.2767 16.1767C48.2767 16.1767 48.7791 16.3321 48.791 16.2006L48.7671 16.2125Z" stroke="#929392" stroke-width="0.908953" stroke-miterlimit="10"/>
<path d="M22.24 40.9713L22.0845 41.3301C22.0606 41.3899 22.0845 41.4617 22.1443 41.4856C22.5988 41.665 24.345 42.3228 26.1629 42.3228C26.3303 42.3228 26.4978 42.3228 26.6771 42.3108C26.7369 42.3108 26.7848 42.251 26.7848 42.1793L26.7489 41.7965C26.7489 41.7367 26.6891 41.6889 26.6293 41.6889C24.7875 41.8205 22.85 41.1029 22.3955 40.9115C22.3357 40.8876 22.2759 40.9115 22.24 40.9713Z" fill="#929292"/>
<path d="M22.24 40.9713L22.0845 41.3301C22.0606 41.3899 22.0845 41.4617 22.1443 41.4856C22.5988 41.665 24.345 42.3228 26.1629 42.3228C26.3303 42.3228 26.4978 42.3228 26.6771 42.3108C26.7369 42.3108 26.7848 42.251 26.7848 42.1793L26.7489 41.7965C26.7489 41.7367 26.6891 41.6889 26.6293 41.6889C24.7875 41.8205 22.85 41.1029 22.3955 40.9115C22.3357 40.8876 22.2759 40.9115 22.24 40.9713Z" stroke="#929392" stroke-width="0.908953" stroke-miterlimit="10"/>
<path d="M13.5691 34.9552L13.2462 35.1704C13.1864 35.2063 13.1744 35.29 13.2222 35.3379C13.5212 35.7206 14.191 36.211 15.1239 36.211C15.375 36.211 15.6621 36.1751 15.9611 36.0914C16.0209 36.0674 16.0567 36.0076 16.0448 35.9478L15.9252 35.5771C15.9013 35.5173 15.8415 35.4814 15.7817 35.5053C14.5976 35.8402 13.9279 35.2063 13.7365 34.9791C13.7006 34.9312 13.6289 34.9312 13.581 34.9552H13.5691Z" fill="#929292"/>
<path d="M13.5691 34.9552L13.2462 35.1704C13.1864 35.2063 13.1744 35.29 13.2222 35.3379C13.5212 35.7206 14.191 36.211 15.1239 36.211C15.375 36.211 15.6621 36.1751 15.9611 36.0914C16.0209 36.0674 16.0567 36.0076 16.0448 35.9478L15.9252 35.5771C15.9013 35.5173 15.8415 35.4814 15.7817 35.5053C14.5976 35.8402 13.9279 35.2063 13.7365 34.9791C13.7006 34.9312 13.6289 34.9312 13.581 34.9552H13.5691Z" stroke="#929392" stroke-width="0.908953" stroke-miterlimit="10"/>
<path d="M10.2921 28.7581L9.90934 28.7939C9.83758 28.8059 9.78974 28.8657 9.8017 28.9255C9.8615 29.2962 10.1366 30.4085 11.1771 31.0185C11.2369 31.0544 11.3086 31.0304 11.3445 30.9706L11.5239 30.6358C11.5478 30.576 11.5359 30.5162 11.4761 30.4803C10.6987 30.0138 10.4715 29.1527 10.4117 28.8418C10.3997 28.782 10.3519 28.7461 10.2921 28.7461V28.7581Z" fill="#929292"/>
<path d="M10.2921 28.7581L9.90934 28.7939C9.83758 28.8059 9.78974 28.8657 9.8017 28.9255C9.8615 29.2962 10.1366 30.4085 11.1771 31.0185C11.2369 31.0544 11.3086 31.0304 11.3445 30.9706L11.5239 30.6358C11.5478 30.576 11.5359 30.5162 11.4761 30.4803C10.6987 30.0138 10.4715 29.1527 10.4117 28.8418C10.3997 28.782 10.3519 28.7461 10.2921 28.7461V28.7581Z" stroke="#929392" stroke-width="0.908953" stroke-miterlimit="10"/>
<path d="M8.39045 25.5293L8.37849 25.4934C8.37849 25.4815 8.36653 25.4575 8.35457 25.4456L7.0629 23.8549C7.02702 23.8071 6.9433 23.7951 6.89546 23.843L6.59646 24.0822C6.54862 24.118 6.53666 24.2018 6.5845 24.2496L7.79245 25.7446C7.80441 25.7565 7.80441 25.7685 7.81637 25.7805C7.90009 26.0675 8.23497 26.9765 8.92864 27.4548C8.98844 27.4907 9.0602 27.4788 9.09608 27.419L9.28744 27.0841C9.32332 27.0362 9.2994 26.9645 9.25156 26.9286C8.64161 26.4981 8.39045 25.5532 8.37849 25.5413L8.39045 25.5293Z" fill="#929292"/>
<path d="M8.39045 25.5293L8.37849 25.4934C8.37849 25.4815 8.36653 25.4575 8.35457 25.4456L7.0629 23.8549C7.02702 23.8071 6.9433 23.7951 6.89546 23.843L6.59646 24.0822C6.54862 24.118 6.53666 24.2018 6.5845 24.2496L7.79245 25.7446C7.80441 25.7565 7.80441 25.7685 7.81637 25.7805C7.90009 26.0675 8.23497 26.9765 8.92864 27.4548C8.98844 27.4907 9.0602 27.4788 9.09608 27.419L9.28744 27.0841C9.32332 27.0362 9.2994 26.9645 9.25156 26.9286C8.64161 26.4981 8.39045 25.5532 8.37849 25.5413L8.39045 25.5293Z" stroke="#929392" stroke-width="0.908953" stroke-miterlimit="10"/>
<path d="M4.50348 18.3073L4.13272 18.1996C4.06097 18.1757 4.00117 18.2236 3.98921 18.2834C3.92941 18.5704 3.86961 19.3 4.4078 19.9936C4.44368 20.0415 4.5274 20.0534 4.57524 20.0056L4.86228 19.7544C4.91012 19.7186 4.91012 19.6468 4.87424 19.599C4.51544 19.1325 4.55132 18.6422 4.5872 18.4388C4.59916 18.379 4.56328 18.3312 4.50348 18.3073Z" fill="#929292"/>
<path d="M4.50348 18.3073L4.13272 18.1996C4.06097 18.1757 4.00117 18.2236 3.98921 18.2834C3.92941 18.5704 3.86961 19.3 4.4078 19.9936C4.44368 20.0415 4.5274 20.0534 4.57524 20.0056L4.86228 19.7544C4.91012 19.7186 4.91012 19.6468 4.87424 19.599C4.51544 19.1325 4.55132 18.6422 4.5872 18.4388C4.59916 18.379 4.56328 18.3312 4.50348 18.3073Z" stroke="#929392" stroke-width="0.908953" stroke-miterlimit="10"/>
<path d="M54.1849 13.9653C54.7829 12.5181 54.5198 11.0949 53.4195 9.82715C52.5823 8.8584 51.5538 8.34412 51.5059 8.3202H51.494C51.4461 8.29628 50.4295 7.81789 49.0422 7.79397C47.7505 7.77005 45.9087 8.16472 44.4257 10.1381C43.6124 11.2265 43.5287 12.6019 44.1745 14.2045C44.2104 14.2882 44.1865 14.3958 44.1027 14.4556C43.732 14.7427 43.122 15.2689 42.6197 16.0104C41.9619 16.9792 41.3759 18.4981 42.0456 20.4117C42.0935 20.5313 42.0217 20.6628 41.8902 20.6867C41.1486 20.8422 40.0125 21.2608 39.546 22.3253C39.0796 23.3897 39.3188 24.49 39.546 25.1239C39.5819 25.2315 39.5341 25.3511 39.4264 25.387C38.8045 25.6381 37.8477 26.1763 37.465 27.2169C37.0823 28.2813 37.3454 29.3816 37.5487 29.9916C37.5846 30.0872 37.5487 30.1949 37.453 30.2427C36.9507 30.5417 36.1733 31.1636 36.1374 32.1085C36.1255 32.2998 36.1255 32.4912 36.1374 32.6586C36.1374 33.6034 36.1374 34.0699 35.1926 34.3689C33.8292 34.7994 33.4225 35.1463 32.7528 35.9715C32.7049 36.0313 32.6332 36.0552 32.5614 36.0433C31.8797 35.9715 30.1694 35.828 29.404 36.0433C29.105 36.127 28.8897 36.3542 28.6984 36.5575C28.5788 36.6771 28.4711 36.7848 28.3635 36.8685C28.0286 37.0957 27.6698 37.2273 27.4785 37.2991C27.4306 37.311 27.3828 37.311 27.3349 37.2991C27.1436 37.2273 26.7968 37.0957 26.4499 36.8685C26.3423 36.7967 26.2346 36.6891 26.115 36.5575C25.9237 36.3542 25.7084 36.127 25.4094 36.0433C24.644 35.84 22.9337 35.9715 22.252 36.0433C22.1802 36.0552 22.1085 36.0194 22.0606 35.9715C21.3909 35.1343 20.9962 34.7875 19.6208 34.3689C18.676 34.0699 18.676 33.6034 18.676 32.6586C18.676 32.4792 18.676 32.2998 18.676 32.1085C18.6401 31.1517 17.8747 30.5417 17.3604 30.2427C17.2767 30.1949 17.2408 30.0872 17.2647 29.9916C17.48 29.3936 17.7431 28.2813 17.3484 27.2288C16.9657 26.1763 16.0089 25.6381 15.387 25.399C15.2794 25.3631 15.2315 25.2435 15.2674 25.1358C15.4946 24.502 15.7338 23.4016 15.2674 22.3372C14.789 21.2608 13.6648 20.8542 12.9233 20.6987C12.7917 20.6748 12.7199 20.5432 12.7678 20.4236C13.4495 18.51 12.8515 16.9911 12.1937 16.0224C11.6914 15.2809 11.0934 14.7546 10.7107 14.4676C10.6389 14.4078 10.603 14.3121 10.6389 14.2164C11.2967 12.6019 11.213 11.2384 10.3878 10.1501C8.90473 8.17669 7.06291 7.78201 5.77124 7.80593C4.38389 7.82985 3.35534 8.30824 3.31946 8.33216C3.27162 8.35608 2.25502 8.88232 1.40587 9.83911C0.30556 11.1069 0.0424416 12.5301 0.640437 13.9772C0.652397 14.0131 0.664357 14.061 0.652397 14.0968C0.604557 14.3719 0.532798 14.934 0.664357 15.5559C0.819836 16.2855 1.27431 17.2184 2.55402 17.7566C2.6497 17.7925 2.69754 17.9001 2.68558 17.9958C2.63774 18.223 2.5899 18.51 2.57794 18.833C2.56598 19.7539 2.8889 20.5313 3.53473 21.0814C3.57061 21.1173 3.60649 21.1651 3.60649 21.213C3.69021 21.811 4.02509 23.4375 5.28088 24.0834C5.35264 24.1192 5.40048 24.203 5.40048 24.2867C5.35264 24.8847 5.37656 26.0448 6.05828 27.0255C6.54863 27.7311 7.27819 28.2095 8.24694 28.4487C8.34262 28.4726 8.40242 28.5564 8.40242 28.652C8.40242 29.2261 8.48614 30.2188 8.98845 31.0679C9.50273 31.941 10.3878 32.4912 10.8901 32.7543C10.9738 32.7902 11.0097 32.8859 11.0097 32.9696C10.9618 33.3164 10.9499 33.8666 11.0814 34.5602C11.2608 35.4812 11.7512 37.1077 13.0429 37.5981C13.7605 37.8731 14.5379 38.0525 14.9684 38.1482C15.0402 38.1602 15.1 38.22 15.1239 38.2917C15.2315 38.6505 17.8029 41.784 20.0514 42.0352C20.1112 42.0471 20.171 42.0711 20.2068 42.1309C20.6494 42.8245 22.264 44.5468 27.3828 44.164C27.3948 44.164 27.4067 44.164 27.4187 44.164C27.9329 44.1999 28.3994 44.2239 28.8539 44.2239C32.8485 44.2239 34.1999 42.7647 34.5946 42.1428C34.6305 42.083 34.6903 42.0471 34.7501 42.0471C37.0105 41.796 38.2424 40.7555 38.8882 39.8944C39.3547 39.2724 39.5819 38.6625 39.6895 38.3037C39.7135 38.2319 39.7733 38.1721 39.845 38.1602C40.2756 38.0645 40.3234 37.4306 41.053 37.1555C41.6868 36.9163 42.1533 36.3901 42.4642 35.7921C42.6197 35.4931 42.7393 35.1702 42.835 34.8473C43.0981 33.9622 43.5526 32.9696 44.3898 32.4912C44.5453 32.3955 44.7007 32.2759 44.8443 32.1683C45.215 31.8693 45.5619 31.5105 45.801 31.0919C46.3034 30.2427 46.3871 29.25 46.3871 28.676C46.3871 28.5803 46.4588 28.4966 46.5426 28.4726C47.5113 28.2334 48.2409 27.7551 48.7312 27.0494C49.4129 26.0687 49.4369 24.9086 49.389 24.3106C49.3771 24.2269 49.4249 24.1432 49.5086 24.1073C50.7644 23.4495 51.0993 21.8229 51.183 21.2369C51.195 21.1891 51.2189 21.1412 51.2548 21.1053C51.9006 20.5552 52.2235 19.7778 52.2116 18.8569C52.2116 18.534 52.1637 18.2469 52.1039 18.0197C52.08 17.924 52.1398 17.8164 52.2355 17.7805C53.5152 17.2423 53.9697 16.3094 54.1251 15.5799C54.2567 14.958 54.1849 14.3958 54.1371 14.1208C54.1251 14.0849 54.1371 14.037 54.1491 14.0012L54.1849 13.9653ZM53.5271 14.037L53.5391 14.0729C53.563 14.1686 54.1969 16.5606 51.6375 17.326L51.5298 17.3619C51.4102 17.3978 51.3504 17.5293 51.3983 17.6489L51.4342 17.7446C51.4461 17.7685 52.1876 19.6702 50.7644 20.7346L50.7285 20.7585C50.6807 20.7944 50.6448 20.8542 50.6448 20.914V20.9618C50.6448 20.9857 50.4654 23.1983 49.0063 23.6648L48.9226 23.6887C48.8149 23.7246 48.7551 23.8202 48.7791 23.9279L48.791 24.0116C48.791 24.0236 49.0781 25.5425 48.2767 26.6906C47.8103 27.3604 47.0688 27.779 46.0642 27.9345L45.9685 27.9464C45.8608 27.9703 45.7771 28.066 45.7891 28.1856L45.801 28.2813C45.801 28.2932 45.9565 29.7045 45.3227 30.7689C45.0476 31.2234 44.6529 31.5942 44.2104 31.8932C44.0669 31.9889 43.9233 32.0965 43.7679 32.1683C43.0742 32.4912 42.5958 33.2566 42.4523 33.9981C42.3327 34.644 41.926 36.1748 40.8736 36.5695C40.1081 36.8565 39.9646 37.5024 39.6058 37.5741C39.558 37.5861 39.5101 37.5741 39.4623 37.5502C39.1513 37.3828 38.3979 36.9403 37.8836 36.2227C37.8118 36.127 37.6922 36.1031 37.5965 36.1629L37.4291 36.2585C37.3215 36.3183 37.2976 36.4619 37.3693 36.5695C37.5726 36.8685 38.9241 37.9569 38.9839 37.9927C38.9839 37.9927 39.1155 38.1482 39.0796 38.2439C38.9719 38.5668 38.7686 39.0452 38.3979 39.5356C37.6085 40.5761 36.4125 41.198 34.8697 41.4013C34.774 41.4133 34.6664 41.3535 34.6425 41.2578C34.6185 41.186 34.5946 41.1143 34.5707 41.0306C34.5468 40.9588 34.2597 40.1216 34.2119 39.9781C34.0325 39.4279 33.8531 38.818 33.7574 38.4831C33.7215 38.3755 33.6139 38.3037 33.4943 38.3396L33.3029 38.3874C33.1833 38.4113 33.1235 38.5429 33.1475 38.6505C33.3627 39.3801 33.9009 41.0425 34.1043 41.6405C34.1282 41.7003 34.1162 41.7721 34.0803 41.8199C33.9368 42.0352 33.6259 42.4059 33.0159 42.7408C32.1428 43.2312 30.4684 43.7694 27.4545 43.5302H27.4306H27.4067C24.3928 43.7694 22.7184 43.2312 21.8454 42.7408C21.2354 42.394 20.9244 42.0232 20.7809 41.8199C20.745 41.7601 20.7331 41.7003 20.757 41.6405C20.9484 41.0425 21.4985 39.3801 21.7138 38.6505C21.7497 38.5309 21.6779 38.4113 21.5583 38.3874L21.367 38.3396C21.2593 38.3157 21.1397 38.3755 21.1038 38.4831C20.9244 39.0811 20.3862 40.7316 20.2188 41.2578C20.1829 41.3535 20.0872 41.4133 19.9916 41.4013C18.6162 41.2219 15.8774 38.5429 15.7697 38.2319C15.7458 38.1482 15.7697 38.0525 15.8415 37.9927C16.1644 37.7535 17.0494 37.0359 17.4561 36.5815C17.5398 36.4858 17.5159 36.3303 17.4082 36.2585L17.2528 36.1629C17.1571 36.1031 17.0255 36.127 16.9657 36.2227C16.4514 36.9403 15.7099 37.3828 15.387 37.5502C15.3392 37.5741 15.2913 37.5741 15.2435 37.5741C14.8847 37.5024 14.0355 37.311 13.2581 37.012C12.2057 36.6173 11.811 35.0745 11.6794 34.4406C11.4761 33.4121 11.6675 32.7304 11.6675 32.7304L11.6914 32.6467C11.7273 32.539 11.6675 32.4314 11.5718 32.3835L11.4881 32.3477C11.4761 32.3477 10.1486 31.8095 9.52665 30.745C8.89277 29.6806 9.04825 28.2693 9.04825 28.2574L9.06021 28.1617C9.07217 28.0541 9.00041 27.9464 8.88081 27.9225L8.78513 27.9105C7.7805 27.7431 7.02703 27.3245 6.57255 26.6667C5.7832 25.5186 6.05828 24.0116 6.05828 23.9877L6.07024 23.904C6.09415 23.7963 6.03436 23.6887 5.92672 23.6648L5.843 23.6408C4.38389 23.1744 4.20449 20.9618 4.20449 20.9379V20.8901C4.20449 20.8303 4.16861 20.7705 4.12077 20.7346L4.08489 20.7107C2.66166 19.6462 3.37926 17.8044 3.41514 17.7207L3.45102 17.625C3.49886 17.5054 3.43906 17.3739 3.31946 17.338L3.21182 17.3021C0.652397 16.5367 1.27431 14.1566 1.31019 14.049L1.32215 14.0131C1.33411 13.9653 1.33411 13.9174 1.31019 13.8696L1.29823 13.8337C0.712196 12.566 0.903555 11.3461 1.88427 10.2218C2.62578 9.37268 3.54669 8.88232 3.60649 8.84644C3.66629 8.82252 4.61113 8.39196 5.83104 8.38C7.4815 8.35608 8.85689 9.06172 9.92133 10.4849C10.6628 11.4657 10.6628 12.7573 9.93329 14.3121L9.89741 14.3958C9.84957 14.4915 9.88545 14.6111 9.98113 14.6709L10.0529 14.7188C10.0648 14.7188 11.0097 15.3168 11.7153 16.3573C12.6362 17.7207 12.7199 19.2037 11.9665 20.7585L11.9067 20.8901C11.8469 21.0216 11.9425 21.1891 12.0861 21.1891L12.2296 21.201C12.2535 21.201 14.1671 21.2967 14.7292 22.5764C15.3033 23.88 14.5259 25.3511 14.5259 25.375L14.4661 25.4827C14.3943 25.6023 14.4661 25.7577 14.6096 25.7936L14.7292 25.8175C14.7412 25.8175 16.3438 26.1883 16.7983 27.4321C17.2647 28.7118 16.5591 30.159 16.5591 30.171L16.5112 30.2666C16.4514 30.3743 16.5112 30.5178 16.6189 30.5537L16.7146 30.5896C16.7265 30.5896 18.0421 31.1397 18.078 32.1324C18.0899 32.3118 18.0899 32.4912 18.078 32.6586C18.078 33.6154 18.066 34.5244 19.4534 34.9549C20.7809 35.3735 21.0201 35.6366 21.7616 36.5815L21.7975 36.6293C21.8454 36.6891 21.9171 36.713 21.9889 36.713H22.0487C22.7065 36.6293 24.5603 36.4738 25.2539 36.6652C25.3855 36.7011 25.529 36.8565 25.6725 37.012C25.8041 37.1555 25.9476 37.2991 26.115 37.4067C26.7011 37.7894 27.2991 37.9569 27.323 37.9688L27.3469 37.9808C27.3828 37.9927 27.4187 37.9927 27.4545 37.9808L27.4785 37.9688C27.5024 37.9569 28.1004 37.8014 28.6864 37.4067C28.8539 37.2991 28.9974 37.1555 29.1289 37.012C29.2725 36.8565 29.416 36.7011 29.5475 36.6652C30.2412 36.4738 32.095 36.6413 32.7528 36.713H32.8126C32.8843 36.725 32.9561 36.6891 33.0039 36.6293L33.0398 36.5815C33.7813 35.6366 34.0325 35.3735 35.3481 34.9549C36.7354 34.5244 36.7235 33.6154 36.7235 32.6586C36.7235 32.4912 36.7235 32.3118 36.7235 32.1324C36.7594 31.1397 38.0749 30.6015 38.0869 30.5896L38.1826 30.5537C38.3022 30.5058 38.35 30.3743 38.2902 30.2666L38.2424 30.171C38.2304 30.159 37.5368 28.7118 37.9912 27.4321C38.4457 26.1883 40.0364 25.8175 40.0603 25.8175L40.1919 25.7936C40.3234 25.7577 40.3952 25.6142 40.3354 25.4827L40.2756 25.375C40.2636 25.3631 39.4982 23.892 40.0723 22.5764C40.6344 21.3087 42.548 21.201 42.5719 21.201L42.7154 21.1891C42.8709 21.1891 42.9665 21.0216 42.8948 20.8901L42.835 20.7585C42.0815 19.2037 42.1652 17.7207 43.0861 16.3573C43.7918 15.3168 44.7366 14.7307 44.7486 14.7188L44.8203 14.6709C44.916 14.6111 44.9519 14.4915 44.9041 14.3958L44.8682 14.3121C44.1386 12.7573 44.1386 11.4657 44.8801 10.4849C45.9446 9.07368 47.32 8.36804 48.9704 8.38C50.1903 8.39196 51.1232 8.82252 51.183 8.84644C51.2428 8.88232 52.1757 9.37268 52.9052 10.2218C53.8859 11.3461 54.0773 12.566 53.4913 13.8337L53.4793 13.8696C53.4554 13.9174 53.4554 13.9653 53.4674 14.0131L53.5271 14.037Z" fill="#929292"/>
<path d="M54.1849 13.9653C54.7829 12.5181 54.5198 11.0949 53.4195 9.82715C52.5823 8.8584 51.5538 8.34412 51.5059 8.3202H51.494C51.4461 8.29628 50.4295 7.81789 49.0422 7.79397C47.7505 7.77005 45.9087 8.16472 44.4257 10.1381C43.6124 11.2265 43.5287 12.6019 44.1745 14.2045C44.2104 14.2882 44.1865 14.3958 44.1027 14.4556C43.732 14.7427 43.122 15.2689 42.6197 16.0104C41.9619 16.9792 41.3759 18.4981 42.0456 20.4117C42.0935 20.5313 42.0217 20.6628 41.8902 20.6867C41.1486 20.8422 40.0125 21.2608 39.546 22.3253C39.0796 23.3897 39.3188 24.49 39.546 25.1239C39.5819 25.2315 39.5341 25.3511 39.4264 25.387C38.8045 25.6381 37.8477 26.1763 37.465 27.2169C37.0823 28.2813 37.3454 29.3816 37.5487 29.9916C37.5846 30.0872 37.5487 30.1949 37.453 30.2427C36.9507 30.5417 36.1733 31.1636 36.1374 32.1085C36.1255 32.2998 36.1255 32.4912 36.1374 32.6586C36.1374 33.6034 36.1374 34.0699 35.1926 34.3689C33.8292 34.7994 33.4225 35.1463 32.7528 35.9715C32.7049 36.0313 32.6332 36.0552 32.5614 36.0433C31.8797 35.9715 30.1694 35.828 29.404 36.0433C29.105 36.127 28.8897 36.3542 28.6984 36.5575C28.5788 36.6771 28.4711 36.7848 28.3635 36.8685C28.0286 37.0957 27.6698 37.2273 27.4785 37.2991C27.4306 37.311 27.3828 37.311 27.335 37.2991C27.1436 37.2273 26.7968 37.0957 26.4499 36.8685C26.3423 36.7967 26.2346 36.6891 26.115 36.5575C25.9237 36.3542 25.7084 36.127 25.4094 36.0433C24.644 35.84 22.9337 35.9715 22.252 36.0433C22.1802 36.0552 22.1085 36.0194 22.0606 35.9715C21.3909 35.1343 20.9962 34.7875 19.6208 34.3689C18.676 34.0699 18.676 33.6034 18.676 32.6586C18.676 32.4792 18.676 32.2998 18.676 32.1085C18.6401 31.1517 17.8747 30.5417 17.3604 30.2427C17.2767 30.1949 17.2408 30.0872 17.2647 29.9916C17.48 29.3936 17.7431 28.2813 17.3484 27.2288C16.9657 26.1763 16.0089 25.6381 15.387 25.399C15.2794 25.3631 15.2315 25.2435 15.2674 25.1358C15.4946 24.502 15.7338 23.4016 15.2674 22.3372C14.789 21.2608 13.6648 20.8542 12.9233 20.6987C12.7917 20.6748 12.7199 20.5432 12.7678 20.4236C13.4495 18.51 12.8515 16.9911 12.1937 16.0224C11.6914 15.2809 11.0934 14.7546 10.7107 14.4676C10.6389 14.4078 10.603 14.3121 10.6389 14.2164C11.2967 12.6019 11.213 11.2384 10.3878 10.1501C8.90473 8.17669 7.06291 7.78201 5.77124 7.80593C4.38389 7.82985 3.35534 8.30824 3.31946 8.33216C3.27162 8.35608 2.25502 8.88232 1.40587 9.83911C0.30556 11.1069 0.0424416 12.5301 0.640437 13.9772C0.652397 14.0131 0.664357 14.061 0.652397 14.0968C0.604557 14.3719 0.532798 14.934 0.664357 15.5559C0.819836 16.2855 1.27431 17.2184 2.55402 17.7566C2.6497 17.7925 2.69754 17.9001 2.68558 17.9958C2.63774 18.223 2.5899 18.51 2.57794 18.833C2.56598 19.7539 2.8889 20.5313 3.53473 21.0814C3.57061 21.1173 3.60649 21.1651 3.60649 21.213C3.69021 21.811 4.02509 23.4375 5.28088 24.0834C5.35264 24.1192 5.40048 24.203 5.40048 24.2867C5.35264 24.8847 5.37656 26.0448 6.05828 27.0255C6.54863 27.7311 7.27819 28.2095 8.24694 28.4487C8.34262 28.4726 8.40242 28.5564 8.40242 28.652C8.40242 29.2261 8.48614 30.2188 8.98845 31.0679C9.50273 31.941 10.3878 32.4912 10.8901 32.7543C10.9738 32.7902 11.0097 32.8859 11.0097 32.9696C10.9618 33.3164 10.9499 33.8666 11.0814 34.5602C11.2608 35.4812 11.7512 37.1077 13.0429 37.5981C13.7605 37.8731 14.5379 38.0525 14.9684 38.1482C15.0402 38.1602 15.1 38.22 15.1239 38.2917C15.2315 38.6505 17.8029 41.784 20.0514 42.0352C20.1112 42.0471 20.171 42.0711 20.2068 42.1309C20.6494 42.8245 22.264 44.5468 27.3828 44.164C27.3948 44.164 27.4067 44.164 27.4187 44.164C27.9329 44.1999 28.3994 44.2238 28.8539 44.2238C32.8485 44.2238 34.1999 42.7647 34.5946 42.1428C34.6305 42.083 34.6903 42.0471 34.7501 42.0471C37.0105 41.796 38.2424 40.7555 38.8882 39.8944C39.3547 39.2724 39.5819 38.6625 39.6895 38.3037C39.7135 38.2319 39.7733 38.1721 39.845 38.1602C40.2756 38.0645 40.3234 37.4306 41.053 37.1555C41.6868 36.9163 42.1533 36.3901 42.4642 35.7921C42.6197 35.4931 42.7393 35.1702 42.835 34.8473C43.0981 33.9622 43.5526 32.9696 44.3898 32.4912C44.5453 32.3955 44.7007 32.2759 44.8443 32.1683C45.215 31.8693 45.5619 31.5105 45.801 31.0919C46.3034 30.2427 46.3871 29.25 46.3871 28.676C46.3871 28.5803 46.4588 28.4966 46.5426 28.4726C47.5113 28.2334 48.2409 27.7551 48.7312 27.0494C49.4129 26.0687 49.4369 24.9086 49.389 24.3106C49.3771 24.2269 49.4249 24.1432 49.5086 24.1073C50.7644 23.4495 51.0993 21.8229 51.183 21.2369C51.195 21.1891 51.2189 21.1412 51.2548 21.1053C51.9006 20.5552 52.2235 19.7778 52.2116 18.8569C52.2116 18.534 52.1637 18.2469 52.1039 18.0197C52.08 17.924 52.1398 17.8164 52.2355 17.7805C53.5152 17.2423 53.9697 16.3094 54.1251 15.5799C54.2567 14.958 54.1849 14.3958 54.1371 14.1208C54.1251 14.0849 54.1371 14.037 54.1491 14.0012L54.1849 13.9653ZM53.5271 14.037L53.5391 14.0729C53.563 14.1686 54.1969 16.5606 51.6375 17.326L51.5298 17.3619C51.4102 17.3978 51.3504 17.5293 51.3983 17.6489L51.4342 17.7446C51.4461 17.7685 52.1876 19.6702 50.7644 20.7346L50.7285 20.7585C50.6807 20.7944 50.6448 20.8542 50.6448 20.914V20.9618C50.6448 20.9857 50.4654 23.1983 49.0063 23.6648L48.9226 23.6887C48.8149 23.7246 48.7551 23.8202 48.7791 23.9279L48.791 24.0116C48.791 24.0236 49.0781 25.5425 48.2767 26.6906C47.8103 27.3604 47.0688 27.779 46.0642 27.9345L45.9685 27.9464C45.8608 27.9703 45.7771 28.066 45.7891 28.1856L45.801 28.2813C45.801 28.2932 45.9565 29.7045 45.3227 30.769C45.0476 31.2234 44.6529 31.5942 44.2104 31.8932C44.0669 31.9889 43.9233 32.0965 43.7679 32.1683C43.0742 32.4912 42.5958 33.2566 42.4523 33.9981C42.3327 34.644 41.926 36.1748 40.8736 36.5695C40.1081 36.8565 39.9646 37.5024 39.6058 37.5741C39.558 37.5861 39.5101 37.5741 39.4623 37.5502C39.1513 37.3828 38.3979 36.9403 37.8836 36.2227C37.8118 36.127 37.6922 36.1031 37.5966 36.1629L37.4291 36.2585C37.3215 36.3183 37.2976 36.4619 37.3693 36.5695C37.5726 36.8685 38.9241 37.9569 38.9839 37.9927C38.9839 37.9927 39.1155 38.1482 39.0796 38.2439C38.9719 38.5668 38.7686 39.0452 38.3979 39.5356C37.6085 40.5761 36.4125 41.198 34.8697 41.4013C34.774 41.4133 34.6664 41.3535 34.6425 41.2578C34.6185 41.186 34.5946 41.1143 34.5707 41.0306C34.5468 40.9588 34.2597 40.1216 34.2119 39.9781C34.0325 39.4279 33.8531 38.818 33.7574 38.4831C33.7215 38.3755 33.6139 38.3037 33.4943 38.3396L33.3029 38.3874C33.1833 38.4113 33.1235 38.5429 33.1475 38.6505C33.3627 39.3801 33.9009 41.0425 34.1043 41.6405C34.1282 41.7003 34.1162 41.7721 34.0803 41.8199C33.9368 42.0352 33.6259 42.4059 33.0159 42.7408C32.1428 43.2312 30.4684 43.7694 27.4545 43.5302H27.4306H27.4067C24.3928 43.7694 22.7184 43.2312 21.8454 42.7408C21.2354 42.394 20.9244 42.0232 20.7809 41.8199C20.745 41.7601 20.7331 41.7003 20.757 41.6405C20.9484 41.0425 21.4985 39.3801 21.7138 38.6505C21.7497 38.5309 21.6779 38.4113 21.5583 38.3874L21.367 38.3396C21.2593 38.3157 21.1397 38.3755 21.1038 38.4831C20.9244 39.0811 20.3862 40.7316 20.2188 41.2578C20.1829 41.3535 20.0872 41.4133 19.9916 41.4013C18.6162 41.2219 15.8774 38.5429 15.7697 38.2319C15.7458 38.1482 15.7697 38.0525 15.8415 37.9927C16.1644 37.7535 17.0494 37.0359 17.4561 36.5815C17.5398 36.4858 17.5159 36.3303 17.4082 36.2585L17.2527 36.1629C17.1571 36.1031 17.0255 36.127 16.9657 36.2227C16.4514 36.9403 15.7099 37.3828 15.387 37.5502C15.3392 37.5741 15.2913 37.5741 15.2435 37.5741C14.8847 37.5024 14.0355 37.311 13.2581 37.012C12.2057 36.6173 11.811 35.0745 11.6794 34.4406C11.4761 33.4121 11.6675 32.7304 11.6675 32.7304L11.6914 32.6467C11.7273 32.539 11.6675 32.4314 11.5718 32.3835L11.4881 32.3477C11.4761 32.3477 10.1486 31.8095 9.52665 30.745C8.89277 29.6806 9.04825 28.2693 9.04825 28.2574L9.06021 28.1617C9.07217 28.0541 9.00041 27.9464 8.88081 27.9225L8.78513 27.9105C7.7805 27.7431 7.02703 27.3245 6.57255 26.6667C5.7832 25.5186 6.05828 24.0116 6.05828 23.9877L6.07024 23.904C6.09416 23.7963 6.03436 23.6887 5.92672 23.6648L5.843 23.6408C4.38389 23.1744 4.20449 20.9618 4.20449 20.9379V20.8901C4.20449 20.8303 4.16861 20.7705 4.12077 20.7346L4.08489 20.7107C2.66166 19.6462 3.37926 17.8044 3.41514 17.7207L3.45102 17.625C3.49886 17.5054 3.43906 17.3739 3.31946 17.338L3.21182 17.3021C0.652397 16.5367 1.27431 14.1566 1.31019 14.049L1.32215 14.0131C1.33411 13.9653 1.33411 13.9174 1.31019 13.8696L1.29823 13.8337C0.712196 12.566 0.903555 11.3461 1.88427 10.2218C2.62578 9.37268 3.54669 8.88232 3.60649 8.84644C3.66629 8.82252 4.61113 8.39196 5.83104 8.38C7.4815 8.35608 8.85689 9.06172 9.92133 10.4849C10.6628 11.4657 10.6628 12.7573 9.93329 14.3121L9.89741 14.3958C9.84957 14.4915 9.88545 14.6111 9.98113 14.6709L10.0529 14.7188C10.0648 14.7188 11.0097 15.3168 11.7153 16.3573C12.6362 17.7207 12.7199 19.2037 11.9665 20.7585L11.9067 20.8901C11.8469 21.0216 11.9425 21.1891 12.0861 21.1891L12.2296 21.201C12.2535 21.201 14.1671 21.2967 14.7292 22.5764C15.3033 23.88 14.5259 25.3511 14.5259 25.375L14.4661 25.4827C14.3943 25.6023 14.4661 25.7577 14.6096 25.7936L14.7292 25.8175C14.7412 25.8175 16.3438 26.1883 16.7983 27.4321C17.2647 28.7118 16.5591 30.159 16.5591 30.171L16.5112 30.2666C16.4514 30.3743 16.5112 30.5178 16.6189 30.5537L16.7146 30.5896C16.7265 30.5896 18.0421 31.1397 18.078 32.1324C18.0899 32.3118 18.0899 32.4912 18.078 32.6586C18.078 33.6154 18.066 34.5244 19.4534 34.9549C20.7809 35.3735 21.0201 35.6366 21.7616 36.5815L21.7975 36.6293C21.8454 36.6891 21.9171 36.713 21.9889 36.713H22.0487C22.7065 36.6293 24.5603 36.4738 25.2539 36.6652C25.3855 36.7011 25.529 36.8565 25.6725 37.012C25.8041 37.1555 25.9476 37.2991 26.115 37.4067C26.7011 37.7894 27.2991 37.9569 27.323 37.9688L27.3469 37.9808C27.3828 37.9927 27.4187 37.9927 27.4545 37.9808L27.4785 37.9688C27.5024 37.9569 28.1004 37.8014 28.6864 37.4067C28.8539 37.2991 28.9974 37.1555 29.1289 37.012C29.2725 36.8565 29.416 36.7011 29.5475 36.6652C30.2412 36.4738 32.095 36.6413 32.7528 36.713H32.8126C32.8843 36.725 32.9561 36.6891 33.0039 36.6293L33.0398 36.5815C33.7813 35.6366 34.0325 35.3735 35.3481 34.9549C36.7354 34.5244 36.7235 33.6154 36.7235 32.6586C36.7235 32.4912 36.7235 32.3118 36.7235 32.1324C36.7594 31.1397 38.0749 30.6015 38.0869 30.5896L38.1826 30.5537C38.3022 30.5058 38.35 30.3743 38.2902 30.2666L38.2424 30.171C38.2304 30.159 37.5368 28.7118 37.9912 27.4321C38.4457 26.1883 40.0364 25.8175 40.0603 25.8175L40.1919 25.7936C40.3234 25.7577 40.3952 25.6142 40.3354 25.4827L40.2756 25.375C40.2636 25.3631 39.4982 23.892 40.0723 22.5764C40.6344 21.3087 42.548 21.201 42.5719 21.201L42.7154 21.1891C42.8709 21.1891 42.9666 21.0216 42.8948 20.8901L42.835 20.7585C42.0815 19.2037 42.1652 17.7207 43.0861 16.3573C43.7918 15.3168 44.7366 14.7307 44.7486 14.7188L44.8203 14.6709C44.916 14.6111 44.9519 14.4915 44.9041 14.3958L44.8682 14.3121C44.1386 12.7573 44.1386 11.4657 44.8801 10.4849C45.9446 9.07368 47.32 8.36804 48.9704 8.38C50.1903 8.39196 51.1232 8.82252 51.183 8.84644C51.2428 8.88232 52.1757 9.37268 52.9052 10.2218C53.8859 11.3461 54.0773 12.566 53.4913 13.8337L53.4793 13.8696C53.4554 13.9174 53.4554 13.9653 53.4673 14.0131L53.5271 14.037Z" stroke="#929392" stroke-width="0.908953" stroke-miterlimit="10"/>
<path d="M28.1482 41.7829L28.1123 42.1656C28.1004 42.2254 28.1602 42.2852 28.22 42.2971C28.3874 42.3091 28.5548 42.3091 28.7342 42.3091C30.5641 42.3091 32.3102 41.6513 32.7528 41.4719C32.8126 41.448 32.8365 41.3762 32.8126 41.3164L32.6571 40.9576C32.6332 40.8978 32.5614 40.8739 32.5016 40.8978C32.0352 41.0892 30.1096 41.7948 28.2678 41.6752C28.208 41.6752 28.1482 41.7231 28.1362 41.7829H28.1482Z" fill="#929292"/>
<path d="M28.1482 41.7829L28.1123 42.1656C28.1004 42.2254 28.1602 42.2852 28.22 42.2971C28.3874 42.3091 28.5548 42.3091 28.7342 42.3091C30.5641 42.3091 32.3102 41.6513 32.7528 41.4719C32.8126 41.448 32.8365 41.3762 32.8126 41.3164L32.6571 40.9576C32.6332 40.8978 32.5614 40.8739 32.5016 40.8978C32.0352 41.0892 30.1096 41.7948 28.2678 41.6752C28.208 41.6752 28.1482 41.7231 28.1362 41.7829H28.1482Z" stroke="#929392" stroke-width="0.908953" stroke-miterlimit="10"/>
<path d="M43.3851 30.6375L43.5645 30.9723C43.6004 31.0321 43.6722 31.0561 43.732 31.0202C44.7725 30.4102 45.0476 29.298 45.1074 28.9272C45.1193 28.8554 45.0715 28.7956 44.9997 28.7956L44.617 28.7598C44.5572 28.7598 44.4974 28.7956 44.4855 28.8554C44.4257 29.1544 44.2104 30.0156 43.433 30.494C43.3851 30.5298 43.3612 30.5896 43.3851 30.6494V30.6375Z" fill="#929292"/>
<path d="M43.3851 30.6375L43.5645 30.9723C43.6004 31.0321 43.6722 31.0561 43.732 31.0202C44.7725 30.4102 45.0476 29.298 45.1074 28.9272C45.1193 28.8554 45.0715 28.7956 44.9997 28.7956L44.617 28.7598C44.5572 28.7598 44.4974 28.7956 44.4855 28.8554C44.4257 29.1544 44.2104 30.0156 43.433 30.494C43.3851 30.5298 43.3612 30.5896 43.3851 30.6494V30.6375Z" stroke="#929392" stroke-width="0.908953" stroke-miterlimit="10"/>
<path d="M46.5784 25.4109L46.5545 25.4468C46.5426 25.4588 46.5426 25.4707 46.5306 25.4946L46.5186 25.5305C46.5186 25.5425 46.2675 26.4873 45.6456 26.9179C45.5977 26.9538 45.5858 27.0255 45.6097 27.0734L45.801 27.4082C45.8369 27.468 45.9087 27.48 45.9685 27.4441C46.6741 26.9657 46.997 26.0687 47.0807 25.7697C47.0807 25.7578 47.0927 25.7458 47.1047 25.7338L48.3126 24.2389C48.3485 24.191 48.3485 24.1193 48.3007 24.0714L48.0017 23.8322C47.9538 23.7963 47.8821 23.7963 47.8342 23.8442L46.5665 25.399L46.5784 25.4109Z" fill="#929292"/>
<path d="M46.5784 25.4109L46.5545 25.4468C46.5426 25.4588 46.5426 25.4707 46.5306 25.4946L46.5186 25.5305C46.5186 25.5425 46.2675 26.4873 45.6456 26.9179C45.5977 26.9538 45.5858 27.0255 45.6097 27.0734L45.801 27.4082C45.8369 27.468 45.9087 27.48 45.9685 27.4441C46.6741 26.9657 46.997 26.0687 47.0807 25.7697C47.0807 25.7578 47.0927 25.7458 47.1047 25.7338L48.3126 24.2389C48.3485 24.191 48.3485 24.1193 48.3007 24.0714L48.0017 23.8322C47.9538 23.7963 47.8821 23.7963 47.8342 23.8442L46.5665 25.399L46.5784 25.4109Z" stroke="#929392" stroke-width="0.908953" stroke-miterlimit="10"/>
<path d="M45.7293 22.0254C45.4661 22.2048 45.6575 22.3124 45.2628 22.9702C45.2389 23.0061 45.203 23.03 45.1672 23.03C44.7486 23.03 44.0429 22.9822 43.6124 22.743C43.5645 22.7191 43.4928 22.731 43.4569 22.7789L43.2416 23.1018C43.2057 23.1616 43.2177 23.2333 43.2775 23.2692C43.6961 23.5084 44.2462 23.6041 44.6888 23.64C44.7725 23.6519 44.8203 23.7357 44.7844 23.8074C44.1864 24.8838 43.0981 26.7496 42.5121 27.4911C42.5001 27.515 42.4642 27.5269 42.4403 27.5389C42.1652 27.5867 41.34 27.5509 40.7779 27.1801C40.73 27.1442 40.6583 27.1562 40.6224 27.204L40.3832 27.515C40.3473 27.5628 40.3593 27.6465 40.4071 27.6824C40.8855 28.0173 41.4715 28.1249 41.7825 28.1608C41.8662 28.1728 41.9141 28.2685 41.8662 28.3402C41.1725 29.5003 38.8284 34.7029 38.6012 35.277C38.5772 35.3368 38.6012 35.4085 38.6729 35.4324L39.0317 35.576C39.0915 35.5999 39.1633 35.564 39.1872 35.5162C39.6297 34.4159 42.2131 28.711 42.7632 28.1728C42.7752 28.1608 42.7752 28.1608 42.7871 28.1489C42.8589 28.2087 42.9546 28.2924 43.0383 28.3761C43.0861 28.4239 43.1579 28.4239 43.1938 28.3881L43.3373 28.2565L43.4808 28.1249C43.5286 28.0771 43.5286 28.0053 43.4928 27.9575C43.409 27.8738 43.3253 27.7901 43.2536 27.7303C43.2057 27.6944 43.1938 27.6226 43.2296 27.5748C43.9712 26.5343 45.0236 24.6805 45.4063 23.9868C45.4422 23.9151 45.5379 23.9031 45.5857 23.9629L45.8369 24.2021C45.8847 24.2499 45.9565 24.238 46.0043 24.2021L46.2675 23.927C46.3153 23.8792 46.3153 23.8074 46.2675 23.7596L45.8847 23.4008C45.8489 23.3649 45.8369 23.3051 45.8608 23.2573C46.1718 22.731 45.9445 23.0659 46.2555 22.444C46.4469 22.0613 45.7412 22.0852 45.7412 22.0852L45.7293 22.0254Z" fill="#929292"/>
<path d="M45.7293 22.0254C45.4661 22.2048 45.6575 22.3124 45.2628 22.9702C45.2389 23.0061 45.203 23.03 45.1672 23.03C44.7486 23.03 44.0429 22.9822 43.6124 22.743C43.5645 22.7191 43.4928 22.731 43.4569 22.7789L43.2416 23.1018C43.2057 23.1616 43.2177 23.2333 43.2775 23.2692C43.6961 23.5084 44.2462 23.6041 44.6888 23.64C44.7725 23.6519 44.8203 23.7357 44.7844 23.8074C44.1864 24.8838 43.0981 26.7496 42.5121 27.4911C42.5001 27.515 42.4642 27.5269 42.4403 27.5389C42.1652 27.5867 41.34 27.5509 40.7779 27.1801C40.73 27.1442 40.6583 27.1562 40.6224 27.204L40.3832 27.515C40.3473 27.5628 40.3593 27.6465 40.4071 27.6824C40.8855 28.0173 41.4715 28.1249 41.7825 28.1608C41.8662 28.1728 41.9141 28.2685 41.8662 28.3402C41.1725 29.5003 38.8284 34.7029 38.6012 35.277C38.5772 35.3368 38.6012 35.4085 38.6729 35.4324L39.0317 35.576C39.0915 35.5999 39.1633 35.564 39.1872 35.5162C39.6297 34.4159 42.2131 28.711 42.7632 28.1728C42.7752 28.1608 42.7752 28.1608 42.7871 28.1489C42.8589 28.2087 42.9546 28.2924 43.0383 28.3761C43.0861 28.4239 43.1579 28.4239 43.1938 28.3881L43.3373 28.2565L43.4808 28.1249C43.5286 28.0771 43.5286 28.0053 43.4928 27.9575C43.409 27.8738 43.3253 27.7901 43.2536 27.7303C43.2057 27.6944 43.1938 27.6226 43.2296 27.5748C43.9712 26.5343 45.0236 24.6805 45.4063 23.9868C45.4422 23.9151 45.5379 23.9031 45.5857 23.9629L45.8369 24.2021C45.8847 24.2499 45.9565 24.238 46.0043 24.2021L46.2675 23.927C46.3153 23.8792 46.3153 23.8074 46.2675 23.7596L45.8847 23.4008C45.8489 23.3649 45.8369 23.3051 45.8608 23.2573C46.1718 22.731 45.9445 23.0659 46.2555 22.444C46.4469 22.0613 45.7412 22.0852 45.7412 22.0852L45.7293 22.0254Z" stroke="#929392" stroke-width="0.908953" stroke-miterlimit="10"/>
<path d="M46.3034 24.9682C49.6402 24.9682 52.3431 22.2652 52.3431 18.9284C52.3431 15.5916 49.6402 12.8887 46.3034 12.8887C42.9665 12.8887 40.2636 15.5916 40.2636 18.9284C40.2636 22.2652 42.9665 24.9682 46.3034 24.9682Z" stroke="#853376" stroke-width="2.00926" stroke-miterlimit="10"/>
</svg>
