<svg width="60" height="45" viewBox="0 0 60 45" fill="none" xmlns="http://www.w3.org/2000/svg">
<path d="M37.4233 44.4944V40.9789C47.6324 40.9789 55.9431 32.6682 55.9431 22.4591C55.9431 12.25 47.6324 3.93935 37.4233 3.93935V0.423828C49.573 0.423828 59.4586 10.3095 59.4586 22.4591C59.4586 34.6087 49.573 44.4944 37.4233 44.4944Z" fill="#853376"/>
<path d="M37.1702 41.4149C26.6096 41.4149 18.0458 32.8511 18.0458 22.2904C18.0458 11.7298 26.6096 3.16602 37.1702 3.16602C47.7309 3.16602 56.2947 11.7298 56.2947 22.2904C56.2947 32.8511 47.7309 41.4149 37.1702 41.4149Z" fill="#F7F6F7"/>
<path d="M7.24614 33.1029C6.81022 31.9498 6.75397 30.9936 6.73991 30.9233C6.72585 30.5999 6.97896 30.3327 7.28833 30.3186C7.61176 30.3045 7.87894 30.5436 7.893 30.867C7.893 30.8952 8.07581 33.806 10.3398 35.2966C10.607 35.4794 10.6773 35.8309 10.5085 36.0981C10.3257 36.3653 9.97419 36.4497 9.70701 36.2669C8.37111 35.395 7.63988 34.1576 7.23208 33.1029H7.24614ZM7.93519 30.1921C7.61176 29.3624 7.49926 28.6593 7.58363 28.0687C7.5977 27.8437 7.73832 27.6328 7.96331 27.5484C8.25861 27.4359 8.5961 27.5765 8.7086 27.8859C8.75079 27.9843 8.75079 28.139 8.73672 28.2374C8.65235 28.7999 8.93359 29.728 9.5242 30.8389C9.67888 31.1201 9.56639 31.4717 9.28514 31.6264C9.0039 31.7811 8.65235 31.6686 8.49767 31.3873C8.27267 30.9655 8.08987 30.5577 7.94925 30.1921H7.93519ZM9.4117 33.4966C9.39764 33.4826 9.39764 33.4545 9.39764 33.4404C9.31327 33.131 9.49608 32.8076 9.80544 32.7232C9.80544 32.7232 13.9397 31.6123 18.0599 30.5014C20.127 29.953 22.1941 29.3905 23.741 28.9827C24.9644 28.6593 25.7097 28.4624 26.1596 28.364C26.1878 28.3499 26.2299 28.3218 26.2581 28.3218L26.2721 28.3499C26.8768 28.2515 26.919 28.378 27.0315 28.6874C27.1299 28.9827 26.9752 29.3061 26.6799 29.4186C26.6377 29.4327 26.6096 29.4468 26.5674 29.4468C25.8784 29.6155 14.4881 32.667 10.1148 33.8482C9.8195 33.9326 9.5242 33.7638 9.42577 33.4966H9.4117ZM10.9163 35.0294C10.832 34.8044 10.8882 34.5513 11.071 34.3825C11.3101 34.1716 11.6757 34.1997 11.8866 34.4388C12.0694 34.6497 13.1663 35.6481 13.7991 35.2685C13.8131 35.2685 13.8272 35.2544 13.8413 35.2544C13.4616 34.9732 13.1803 34.6919 13.11 34.6216C12.885 34.3825 12.8991 34.0169 13.1241 33.806C13.3631 33.581 13.7288 33.5951 13.9538 33.8201C14.3756 34.2701 15.4865 35.1138 16.0068 34.7763C16.0209 34.7622 16.049 34.7482 16.0631 34.7482C15.585 34.3825 15.3037 34.031 15.2756 33.9888C15.0787 33.7357 15.1209 33.3701 15.374 33.1732C15.6271 32.9763 15.9928 33.0185 16.1896 33.2716C16.2037 33.2998 17.1599 34.4669 18.2567 34.3263C18.313 34.3122 18.3692 34.3263 18.4255 34.3263C17.8771 33.9326 17.5677 33.4966 17.5677 33.4966C17.3849 33.2295 17.4411 32.8638 17.7083 32.681C17.9755 32.4982 18.3271 32.5685 18.5239 32.8217C18.538 32.8357 19.3536 33.9185 20.5067 33.806C20.8301 33.7779 21.1114 34.0029 21.1395 34.3263C21.1676 34.6497 20.9426 34.931 20.6192 34.9591C19.902 35.0294 19.2833 34.8325 18.8052 34.5654C18.8614 34.6357 18.8895 34.72 18.9036 34.8185C18.9458 35.1419 18.7208 35.4231 18.3974 35.4653C17.8489 35.5356 17.3287 35.4231 16.8927 35.2403C16.8927 35.4231 16.8084 35.62 16.6396 35.7325C16.0068 36.1684 15.2897 36.0559 14.6569 35.7747C14.6569 35.9716 14.5584 36.1825 14.3756 36.295C12.7866 37.2372 11.0148 35.2544 11.0007 35.2263C10.9585 35.17 10.9163 35.1138 10.8882 35.0575L10.9163 35.0294ZM9.87575 29.2921C9.25702 27.6749 9.59451 26.9015 9.69295 26.7328C9.84763 26.4515 10.1992 26.3531 10.4804 26.5078C10.7476 26.6625 10.8601 27 10.7195 27.2671C10.6914 27.3234 10.4382 28.153 11.5351 30.0514C11.6898 30.3327 11.5913 30.6842 11.3241 30.8389C11.0429 30.9936 10.6914 30.8952 10.5367 30.628C10.2554 30.1217 10.0445 29.6858 9.88981 29.278L9.87575 29.2921ZM11.9148 28.0968C11.3382 26.5922 11.4648 25.9594 11.5773 25.7203C11.7179 25.425 12.0554 25.2984 12.3507 25.4391C12.6179 25.5656 12.7444 25.875 12.66 26.1562C12.646 26.2406 12.5757 27.0281 13.7288 29.2358C13.8834 29.5311 13.7709 29.8686 13.4756 30.0233C13.1944 30.178 12.8428 30.0655 12.6882 29.7702C12.3507 29.1093 12.0976 28.5609 11.9148 28.0827V28.0968ZM14.1366 27.3234C13.4475 25.5094 13.5741 24.75 13.6163 24.5953C13.7006 24.286 14.0241 24.1032 14.3334 24.1875C14.6287 24.2719 14.8115 24.5813 14.7412 24.8766C14.7272 24.9328 14.6428 25.8891 15.8662 28.364C16.0209 28.6593 15.8943 28.9968 15.599 29.1374C15.3037 29.278 14.9662 29.1655 14.8256 28.8702C14.5303 28.2796 14.3053 27.7593 14.1366 27.3093V27.3234ZM16.1615 26.2969C15.4584 24.4547 15.585 23.8219 15.6553 23.5407C15.6693 23.3298 15.8099 23.1329 16.0209 23.0485C16.3162 22.936 16.6537 23.0766 16.7662 23.386C16.8365 23.5829 16.7943 23.7376 16.7802 23.8219C16.724 24.0188 16.6677 24.8625 18.0599 27.7312C18.2005 28.0265 18.0739 28.364 17.7927 28.5046C17.4974 28.6452 17.1599 28.5187 17.0193 28.2374C16.6537 27.4781 16.3724 26.8312 16.1615 26.2969ZM19.7333 32.4701C19.6489 32.2451 19.7051 31.9779 19.902 31.8233C20.1411 31.6123 20.5067 31.6404 20.7176 31.8936C21.5051 32.8217 22.4332 33.3982 22.616 33.2998C22.8972 33.131 23.2488 33.2295 23.4175 33.4966C23.5863 33.7779 23.4878 34.1294 23.2207 34.2982C22.0113 35.0153 20.3239 33.2154 19.8458 32.6529C19.8036 32.5967 19.7614 32.5404 19.7473 32.4842L19.7333 32.4701ZM18.088 25.1578C17.3427 23.2173 17.5818 22.4579 17.7083 22.247C17.863 21.9657 18.2146 21.8673 18.4958 22.022C18.763 22.1626 18.8614 22.486 18.7489 22.7673C18.7208 22.8657 18.5521 23.8782 20.1833 26.8875C20.3379 27.1687 20.2254 27.5203 19.9442 27.6749C19.663 27.8296 19.3114 27.7171 19.1567 27.4359C18.6645 26.5359 18.3271 25.7766 18.0739 25.1438L18.088 25.1578ZM21.9973 31.8514C21.8848 31.5561 22.0254 31.2186 22.3348 31.1061C22.616 30.9936 22.9254 31.1201 23.066 31.3873C23.2628 31.7108 24.4159 32.9342 25.3018 32.6248C24.6691 32.0764 24.2613 31.3873 24.1909 31.2045C24.0784 30.9092 24.2191 30.5717 24.5284 30.4592C24.8237 30.3467 25.1472 30.4874 25.2737 30.7686C25.3159 30.853 26.2862 32.5264 27.383 32.1607C27.6924 32.0623 28.0158 32.2311 28.1283 32.5264C28.2408 32.8357 28.0721 33.1591 27.7627 33.2716C27.158 33.4826 26.6096 33.3982 26.1175 33.1873C26.1175 33.4263 25.9768 33.6513 25.7378 33.7357C23.9097 34.4388 22.1379 32.2311 21.9973 31.8795V31.8514ZM20.2957 24.4547C19.452 22.247 19.677 21.3048 19.7614 21.0939C19.8739 20.7986 20.2114 20.6439 20.5067 20.7423C20.802 20.8548 20.9567 21.1783 20.8582 21.4736C20.8442 21.5439 20.577 22.8798 22.5035 26.4375C22.6582 26.7187 22.5457 27.0703 22.2644 27.225C21.9832 27.3796 21.6316 27.2671 21.477 26.9859C20.9426 26.0016 20.5629 25.1578 20.2817 24.4547H20.2957ZM22.5879 24.1032C21.6457 21.6564 21.7301 20.2642 21.7301 20.1799C21.7582 19.8564 22.0254 19.6174 22.3488 19.6455C22.6722 19.6736 22.9113 19.9408 22.8832 20.2642C22.8832 20.2923 22.7707 22.7251 25.1894 26.8172C25.3581 27.0843 25.2597 27.4499 24.9784 27.6187C24.6972 27.7874 24.3456 27.689 24.1769 27.4078C23.4457 26.1703 22.9254 25.0594 22.5597 24.1172L22.5879 24.1032ZM26.3424 30.6702C26.2581 30.4452 26.3143 30.178 26.5112 30.0092C26.7502 29.7983 27.1159 29.8264 27.3268 30.0796C27.9736 30.8248 29.3095 31.7951 29.6048 31.6545C29.7033 31.542 29.8298 31.4717 29.9705 31.4576C29.2674 30.9373 28.3955 29.9671 27.2143 28.1812C24.0925 23.4985 23.7269 19.2096 23.7128 19.0268C23.6847 18.7033 23.9238 18.4221 24.2472 18.408C24.5706 18.3799 24.8519 18.619 24.8659 18.9424C24.8659 18.9846 25.2315 23.1188 28.1705 27.5343C30.4204 30.9092 31.2642 30.8952 31.7142 30.8952H31.7985C32.122 30.8952 32.3751 31.1623 32.3751 31.4717C32.3751 31.7951 32.1079 32.0482 31.7985 32.0482H31.7282C31.3767 32.0482 31.0111 32.0201 30.5892 31.8233C30.6595 32.0061 30.6314 32.2311 30.4767 32.3998C30.2376 32.681 29.9142 32.8217 29.5345 32.8217C28.1986 32.8076 26.4409 30.853 26.4268 30.8248C26.3846 30.7686 26.3565 30.7123 26.3284 30.6561L26.3424 30.6702ZM27.2565 22.9782C26.6377 21.3611 26.2721 20.0674 26.1737 19.7158C25.8503 18.5065 26.0612 17.9299 26.1456 17.7893C26.3003 17.5081 26.6518 17.3956 26.9331 17.5362C27.2143 17.6768 27.3268 18.0143 27.2002 18.2955C27.1862 18.3377 27.1018 18.6752 27.2987 19.4064C28.1846 22.6688 30.7017 29.1374 33.8516 30.2061C34.161 30.3045 34.3156 30.642 34.2172 30.9373C34.1188 31.2467 33.7813 31.4014 33.486 31.303C30.5611 30.3186 28.4377 26.0578 27.2565 22.9641V22.9782ZM29.3517 22.0782C28.508 19.8845 27.9033 17.6346 28.1565 17.0581C28.283 16.7628 28.6346 16.6362 28.9299 16.7628C29.197 16.8893 29.3377 17.1846 29.2533 17.4518C29.197 18.5768 32.1782 28.2655 36.1578 29.2921C36.4671 29.3765 36.6499 29.6858 36.5796 29.9952C36.4953 30.3045 36.1859 30.5014 35.8765 30.417C33.4157 29.7843 31.5173 26.789 30.3501 24.3844C30.0126 23.6813 29.6611 22.8798 29.3517 22.0782ZM31.4751 20.8689C30.7439 18.9846 30.3501 17.3956 30.2939 16.7768C30.2798 16.6081 30.2376 16.2706 30.5048 16.0456C30.7439 15.8347 31.1236 15.8628 31.3204 16.1159C31.447 16.2706 31.4892 16.4675 31.447 16.6362C31.5173 17.6627 33.8938 26.1422 38.3655 28.5609C38.6468 28.7155 38.7593 29.0671 38.6046 29.3483C38.4499 29.6296 38.0983 29.7421 37.8171 29.5874C34.7938 27.9562 32.6844 24.0047 31.4892 20.883L31.4751 20.8689ZM33.5422 19.5471C32.6563 17.2268 32.4594 15.7081 32.4454 15.6097C32.4032 15.2862 32.6282 15.005 32.9516 14.9628C33.275 14.9206 33.5563 15.1456 33.5985 15.4691C33.5985 15.4972 34.0203 18.6049 36.3265 22.711C38.9983 27.464 40.2639 27.6328 40.278 27.6468C40.6014 27.6609 40.8545 27.9281 40.8404 28.2515C40.8264 28.5749 40.5592 28.828 40.2358 28.814C39.0264 28.7718 37.3249 26.8593 35.314 23.2876C34.5406 21.9095 33.9641 20.6298 33.5422 19.5471ZM35.8765 18.7736C34.9766 16.4112 34.7375 14.8363 34.7234 14.7519C34.6813 14.4285 34.9062 14.1332 35.2156 14.091C35.539 14.0488 35.8343 14.2738 35.8765 14.5831C35.8765 14.6113 36.2984 17.4518 38.2108 21.1501C40.3061 25.2 41.6279 26.3953 42.556 26.9718C42.8232 27.1406 42.9076 27.5062 42.7388 27.7734C42.5701 28.0406 42.2045 28.1249 41.9373 27.9562C40.3623 26.9578 38.9421 25.0735 37.1843 21.6845C36.6359 20.6298 36.214 19.6455 35.8765 18.7736ZM38.7593 18.3658C38.0562 16.5237 37.6202 14.766 37.7187 13.4863C37.7468 13.1629 38.028 12.9238 38.3515 12.9519C38.6749 12.9801 38.8999 13.2613 38.8858 13.5847C38.5624 17.269 43.5122 25.4531 44.6794 26.0578C44.9184 26.0016 45.1856 26.114 45.3122 26.3531C45.4669 26.6484 45.3684 26.9859 45.0872 27.1406C44.8763 27.2531 44.5106 27.3374 44.0325 27.014C42.7669 26.1844 40.2076 22.1064 38.7733 18.3658H38.7593ZM41.881 19.8845C41.417 18.6752 39.1952 12.5863 41.0233 11.8832C42.8513 11.1801 45.27 17.1846 45.734 18.394C46.1981 19.6033 48.4199 25.6922 46.5918 26.3953C44.7638 27.0984 42.3451 21.0939 41.881 19.8845ZM41.4873 13.0926C41.3748 13.7957 41.656 16.0597 42.9779 19.4767C44.2857 22.8938 45.5794 24.7641 46.1418 25.2141C46.2543 24.511 45.9731 22.247 44.6513 18.8299C43.3435 15.4128 42.0498 13.5426 41.4873 13.0926Z" fill="#929292"/>
<path d="M42.2185 29.9824L23.0238 37.351" stroke="#929292" stroke-width="1.53277" stroke-miterlimit="10"/>
<path d="M22.3769 37.5898L7.4852 43.3131" stroke="#929292" stroke-width="1.53277" stroke-miterlimit="10" stroke-dasharray="4.9 4.9"/>
<path d="M35.4547 12.3496L16.2599 19.7181" stroke="#929292" stroke-width="1.53277" stroke-miterlimit="10"/>
<path d="M15.6131 19.9707L0.721313 25.6799" stroke="#929292" stroke-width="1.53277" stroke-miterlimit="10" stroke-dasharray="4.9 4.9"/>
<path d="M0.833807 25.9473C0.622876 26.9597 0.946303 30.18 2.8025 34.9892C4.64463 39.7984 6.55707 42.414 7.4008 43.0327C7.61173 42.0202 7.2883 38.8 5.43211 33.9908C3.58997 29.1815 1.67753 26.566 0.833807 25.9473Z" fill="#853376"/>
<path d="M0.833807 25.9473C0.622876 26.9597 0.946303 30.18 2.8025 34.9892C4.64463 39.7984 6.55707 42.414 7.4008 43.0327C7.61173 42.0202 7.2883 38.8 5.43211 33.9908C3.58997 29.1815 1.67753 26.566 0.833807 25.9473Z" stroke="#853376" stroke-width="2.039" stroke-miterlimit="10"/>
</svg>
