<svg width="59" height="45" viewBox="0 0 59 45" fill="none" xmlns="http://www.w3.org/2000/svg">
<path d="M36.262 44.5978V41.051C46.5374 41.051 54.9008 32.6876 54.9008 22.4122C54.9008 12.1367 46.5374 3.77334 36.262 3.77334V0.226562C48.4933 0.226562 58.4476 10.1809 58.4476 22.4122C58.4476 34.6434 48.4933 44.5978 36.262 44.5978Z" fill="#853376"/>
<path d="M36.0138 41.5037C25.3881 41.5037 16.762 32.8922 16.762 22.2518C16.762 11.6261 25.3735 3 36.0138 3C46.6396 3 55.2657 11.6115 55.2657 22.2518C55.2657 32.8776 46.6542 41.5037 36.0138 41.5037Z" fill="#F7F6F7"/>
<path d="M37.0648 30.207C36.7145 30.207 36.4371 30.4843 36.4371 30.8346C36.4371 31.1849 36.7145 31.4623 37.0648 31.4623C37.4151 31.4623 37.6924 31.1849 37.6924 30.8346C37.6924 30.4843 37.4151 30.207 37.0648 30.207Z" fill="#929292"/>
<path d="M37.0648 30.207C36.7145 30.207 36.4371 30.4843 36.4371 30.8346C36.4371 31.1849 36.7145 31.4623 37.0648 31.4623C37.4151 31.4623 37.6924 31.1849 37.6924 30.8346C37.6924 30.4843 37.4151 30.207 37.0648 30.207Z" stroke="#929392" stroke-width="0.510853" stroke-miterlimit="10"/>
<path d="M35.3863 30.207C35.036 30.207 34.7586 30.4843 34.7586 30.8346C34.7586 31.1849 35.036 31.4623 35.3863 31.4623C35.7366 31.4623 36.0139 31.1849 36.0139 30.8346C36.0139 30.4843 35.7366 30.207 35.3863 30.207Z" fill="#929292"/>
<path d="M35.3863 30.207C35.036 30.207 34.7586 30.4843 34.7586 30.8346C34.7586 31.1849 35.036 31.4623 35.3863 31.4623C35.7366 31.4623 36.0139 31.1849 36.0139 30.8346C36.0139 30.4843 35.7366 30.207 35.3863 30.207Z" stroke="#929392" stroke-width="0.510853" stroke-miterlimit="10"/>
<path d="M33.7223 30.207C33.372 30.207 33.0947 30.4843 33.0947 30.8346C33.0947 31.1849 33.372 31.4623 33.7223 31.4623C34.0726 31.4623 34.3499 31.1849 34.3499 30.8346C34.3499 30.4843 34.0726 30.207 33.7223 30.207Z" fill="#929292"/>
<path d="M33.7223 30.207C33.372 30.207 33.0947 30.4843 33.0947 30.8346C33.0947 31.1849 33.372 31.4623 33.7223 31.4623C34.0726 31.4623 34.3499 31.1849 34.3499 30.8346C34.3499 30.4843 34.0726 30.207 33.7223 30.207Z" stroke="#929392" stroke-width="0.510853" stroke-miterlimit="10"/>
<path d="M37.2399 7.2168H2.5749C1.33426 7.2168 0.327148 8.22391 0.327148 9.46455V30.7744C0.327148 32.015 1.33426 33.0222 2.5749 33.0222H14.4705L13.2882 38.408H10.9237C10.0917 38.408 9.40573 39.094 9.40573 39.926C9.40573 40.7579 10.0917 41.4439 10.9237 41.4439H28.8619C29.6939 41.4439 30.3799 40.7579 30.3799 39.926C30.3799 39.094 29.6939 38.408 28.8619 38.408H26.4098L25.4757 33.0222H37.2107C38.4514 33.0222 39.4585 32.015 39.4585 30.7744V9.46455C39.4585 8.22391 38.4514 7.2168 37.2107 7.2168H37.2399ZM2.5749 8.19471H37.2399C37.9405 8.19471 38.5097 8.76395 38.5097 9.46455V28.585H1.30507V9.46455C1.30507 8.76395 1.8743 8.19471 2.5749 8.19471ZM29.4166 39.9406C29.4166 40.2325 29.183 40.466 28.8765 40.466H10.9383C10.6464 40.466 10.4128 40.2325 10.4128 39.9406C10.4128 39.6486 10.6464 39.4005 10.9383 39.4005H28.8765C29.1684 39.4005 29.4166 39.634 29.4166 39.9406ZM25.4319 38.4226H14.3099L15.4922 33.0367H24.4978L25.4319 38.4226ZM37.2399 32.0442H2.5749C1.8743 32.0442 1.30507 31.475 1.30507 30.7744V29.563H38.5097V30.7744C38.5097 31.475 37.9405 32.0442 37.2399 32.0442Z" fill="#929292"/>
<path d="M37.2399 7.2168H2.5749C1.33426 7.2168 0.327148 8.22391 0.327148 9.46455V30.7744C0.327148 32.015 1.33426 33.0222 2.5749 33.0222H14.4705L13.2882 38.408H10.9237C10.0917 38.408 9.40573 39.094 9.40573 39.926C9.40573 40.7579 10.0917 41.4439 10.9237 41.4439H28.8619C29.6939 41.4439 30.3799 40.7579 30.3799 39.926C30.3799 39.094 29.6939 38.408 28.8619 38.408H26.4098L25.4757 33.0222H37.2107C38.4513 33.0222 39.4585 32.015 39.4585 30.7744V9.46455C39.4585 8.22391 38.4513 7.2168 37.2107 7.2168H37.2399ZM2.5749 8.19471H37.2399C37.9405 8.19471 38.5097 8.76395 38.5097 9.46455V28.585H1.30507V9.46455C1.30507 8.76395 1.8743 8.19471 2.5749 8.19471ZM29.4166 39.9406C29.4166 40.2325 29.183 40.466 28.8765 40.466H10.9383C10.6464 40.466 10.4128 40.2325 10.4128 39.9406C10.4128 39.6486 10.6464 39.4005 10.9383 39.4005H28.8765C29.1684 39.4005 29.4166 39.634 29.4166 39.9406ZM25.4319 38.4226H14.3099L15.4922 33.0367H24.4978L25.4319 38.4226ZM37.2399 32.0442H2.5749C1.8743 32.0442 1.30507 31.475 1.30507 30.7744V29.563H38.5097V30.7744C38.5097 31.475 37.9405 32.0442 37.2399 32.0442Z" stroke="#929392" stroke-width="0.510853" stroke-miterlimit="10"/>
<path d="M6.77847 14.4291C7.0266 14.3999 7.46448 14.3124 7.84397 14.0642C7.88775 14.035 7.90235 13.9766 7.85856 13.9329L7.68341 13.6993C7.65422 13.6555 7.59584 13.6555 7.56665 13.6847C7.12877 13.9766 6.50115 14.0058 6.29681 13.9621C6.28222 13.9621 6.25303 13.9475 6.23843 13.9329C5.78596 13.3636 4.93941 11.904 4.48694 11.0721C4.45774 11.0137 4.48694 10.9407 4.55992 10.9407C4.89562 10.9115 5.33349 10.8386 5.6546 10.6488C5.69839 10.6196 5.71298 10.5612 5.68379 10.5174L5.50864 10.2693C5.47945 10.2255 5.43566 10.2255 5.39188 10.2401C5.05617 10.4299 4.51613 10.4591 4.19502 10.4591C4.16583 10.4591 4.13664 10.4445 4.12204 10.4153C3.69876 9.71468 3.17331 8.72216 3.15872 8.35727C3.15872 8.19672 3.08574 7.99237 2.99817 7.77344H2.47272C2.60408 8.02157 2.69165 8.2405 2.69165 8.38646C2.70625 8.89731 3.31927 10.0066 3.66957 10.605C3.68417 10.6342 3.68417 10.6926 3.65498 10.7218L3.36306 10.9991C3.33387 11.0283 3.31927 11.0867 3.36306 11.1305L3.5674 11.3494C3.59659 11.3786 3.65498 11.3932 3.69876 11.3494L3.88851 11.1743C3.9323 11.1305 4.00528 11.1451 4.03447 11.2034C4.32638 11.7435 5.14375 13.1739 5.71298 13.9912C5.74217 14.035 5.72758 14.0788 5.69839 14.108C5.64 14.1518 5.58162 14.2102 5.50864 14.2832C5.47945 14.3269 5.47945 14.3853 5.50864 14.4145L5.72758 14.6189C5.75677 14.6481 5.81515 14.6481 5.85894 14.6189C5.93192 14.5459 6.0049 14.4875 6.04869 14.4437L6.06328 14.4583C6.48656 14.8816 7.33311 16.9104 7.68341 17.7716C7.69801 17.8153 7.75639 17.8445 7.80018 17.8153L8.0775 17.7132C8.12129 17.6986 8.15048 17.6402 8.12129 17.5964C7.94614 17.1585 7.28933 15.5092 6.74928 14.6043C6.72009 14.5459 6.74928 14.4729 6.82226 14.4729L6.77847 14.4291Z" fill="#929292"/>
<path d="M6.77847 14.4291C7.0266 14.3999 7.46448 14.3124 7.84397 14.0642C7.88775 14.035 7.90235 13.9766 7.85856 13.9329L7.68341 13.6993C7.65422 13.6555 7.59584 13.6555 7.56665 13.6847C7.12877 13.9766 6.50115 14.0058 6.29681 13.9621C6.28222 13.9621 6.25303 13.9475 6.23843 13.9329C5.78596 13.3636 4.93941 11.904 4.48694 11.0721C4.45774 11.0137 4.48694 10.9407 4.55991 10.9407C4.89562 10.9115 5.33349 10.8386 5.6546 10.6488C5.69839 10.6196 5.71298 10.5612 5.68379 10.5174L5.50864 10.2693C5.47945 10.2255 5.43566 10.2255 5.39188 10.2401C5.05617 10.4299 4.51613 10.4591 4.19502 10.4591C4.16583 10.4591 4.13664 10.4445 4.12204 10.4153C3.69876 9.71468 3.17332 8.72216 3.15872 8.35727C3.15872 8.19672 3.08574 7.99237 2.99817 7.77344M2.47272 7.77344C2.60408 8.02157 2.69165 8.2405 2.69165 8.38646C2.70625 8.89731 3.31927 10.0066 3.66957 10.605C3.68417 10.6342 3.68417 10.6926 3.65498 10.7218L3.36306 10.9991C3.33387 11.0283 3.31927 11.0867 3.36306 11.1305L3.5674 11.3494C3.59659 11.3786 3.65498 11.3932 3.69876 11.3494L3.88851 11.1743C3.9323 11.1305 4.00528 11.1451 4.03447 11.2034C4.32638 11.7435 5.14375 13.1739 5.71298 13.9912C5.74217 14.035 5.72758 14.0788 5.69839 14.108C5.64 14.1518 5.58162 14.2102 5.50864 14.2832C5.47945 14.3269 5.47945 14.3853 5.50864 14.4145L5.72758 14.6189C5.75677 14.6481 5.81515 14.6481 5.85894 14.6189C5.93192 14.5459 6.0049 14.4875 6.04869 14.4437L6.06328 14.4583C6.48656 14.8816 7.33311 16.9104 7.68341 17.7716C7.69801 17.8153 7.75639 17.8445 7.80018 17.8153L8.0775 17.7132C8.12129 17.6986 8.15048 17.6402 8.12129 17.5964C7.94614 17.1585 7.28933 15.5092 6.74928 14.6043C6.72009 14.5459 6.74928 14.4729 6.82226 14.4729" stroke="#929392" stroke-width="0.919535" stroke-miterlimit="10"/>
<path d="M34.1164 7.77138C34.0142 7.99032 33.9558 8.19466 33.9558 8.35521C33.9412 8.72011 33.4158 9.71262 32.9925 10.4132C32.9779 10.4424 32.9487 10.457 32.9195 10.457C32.5984 10.457 32.0584 10.4132 31.7227 10.2381C31.6789 10.2089 31.6351 10.2235 31.6059 10.2673L31.4308 10.5154C31.4016 10.5592 31.4162 10.6176 31.46 10.6467C31.7811 10.8365 32.2043 10.9095 32.5546 10.9387C32.6276 10.9387 32.6568 11.0116 32.6276 11.07C32.1606 11.902 31.3286 13.3616 30.8761 13.9308C30.8615 13.9454 30.8469 13.96 30.8177 13.96C30.5988 14.0038 29.9712 13.9746 29.5479 13.6827C29.5041 13.6535 29.4603 13.6681 29.4311 13.6973L29.256 13.9308C29.2268 13.9746 29.2268 14.033 29.2706 14.0622C29.6355 14.3103 30.088 14.3979 30.3361 14.4271C30.3945 14.4417 30.4383 14.5 30.4091 14.5584C29.869 15.4634 29.2122 17.0981 29.0371 17.5506C29.0225 17.5943 29.0371 17.6527 29.0808 17.6673L29.3582 17.7695C29.402 17.7841 29.4603 17.7695 29.4749 17.7257C29.8106 16.8792 30.6718 14.8503 31.0951 14.4125L31.1097 14.3979C31.168 14.4417 31.241 14.5146 31.2994 14.573C31.3286 14.6022 31.387 14.6168 31.4308 14.573L31.5475 14.4708L31.6643 14.3687C31.7081 14.3395 31.7081 14.2811 31.6643 14.2373C31.6059 14.1643 31.5329 14.106 31.4746 14.0622C31.4454 14.033 31.4308 13.9746 31.46 13.9454C32.0292 13.1426 32.832 11.6976 33.1385 11.1576C33.1677 11.0992 33.2406 11.0992 33.2844 11.143L33.4742 11.3182C33.5034 11.3473 33.5618 11.3473 33.6055 11.3182L33.8099 11.0992C33.8391 11.0554 33.8391 11.0116 33.8099 10.9679L33.518 10.6905C33.4888 10.6613 33.4742 10.6176 33.5034 10.5738C33.8537 9.97534 34.4667 8.88066 34.4813 8.35521C34.4813 8.20925 34.5689 7.99032 34.7002 7.74219H34.1748L34.1164 7.77138Z" fill="#929292"/>
<path d="M34.1164 7.77138C34.0142 7.99032 33.9558 8.19466 33.9558 8.35521C33.9412 8.72011 33.4158 9.71262 32.9925 10.4132C32.9779 10.4424 32.9487 10.457 32.9195 10.457C32.5984 10.457 32.0584 10.4132 31.7227 10.2381C31.6789 10.2089 31.6351 10.2235 31.6059 10.2673L31.4308 10.5154C31.4016 10.5592 31.4162 10.6176 31.46 10.6467C31.7811 10.8365 32.2043 10.9095 32.5546 10.9387C32.6276 10.9387 32.6568 11.0116 32.6276 11.07C32.1606 11.902 31.3286 13.3616 30.8761 13.9308C30.8615 13.9454 30.8469 13.96 30.8177 13.96C30.5988 14.0038 29.9712 13.9746 29.5479 13.6827C29.5041 13.6535 29.4603 13.6681 29.4311 13.6973L29.256 13.9308C29.2268 13.9746 29.2268 14.033 29.2706 14.0622C29.6355 14.3103 30.088 14.3979 30.3361 14.4271C30.3945 14.4417 30.4383 14.5 30.4091 14.5584C29.869 15.4634 29.2122 17.0981 29.0371 17.5506C29.0225 17.5943 29.0371 17.6527 29.0808 17.6673L29.3582 17.7695C29.402 17.7841 29.4603 17.7695 29.4749 17.7257C29.8106 16.8792 30.6718 14.8503 31.0951 14.4125L31.1097 14.3979C31.168 14.4417 31.241 14.5146 31.2994 14.573C31.3286 14.6022 31.387 14.6168 31.4308 14.573L31.5475 14.4708L31.6643 14.3687C31.7081 14.3395 31.7081 14.2811 31.6643 14.2373C31.6059 14.1643 31.5329 14.106 31.4746 14.0622C31.4454 14.033 31.4308 13.9746 31.46 13.9454C32.0292 13.1426 32.832 11.6976 33.1385 11.1576C33.1677 11.0992 33.2406 11.0992 33.2844 11.143L33.4742 11.3182C33.5034 11.3473 33.5618 11.3473 33.6055 11.3182L33.8099 11.0992C33.8391 11.0554 33.8391 11.0116 33.8099 10.9679L33.518 10.6905C33.4888 10.6613 33.4742 10.6176 33.5034 10.5738C33.8537 9.97534 34.4667 8.88066 34.4813 8.35521C34.4813 8.20925 34.5689 7.99032 34.7002 7.74219" stroke="#929392" stroke-width="0.919535" stroke-miterlimit="10"/>
<path d="M14.5289 25.2007L14.4121 25.4634C14.3975 25.5072 14.4121 25.5656 14.4559 25.5802C14.8062 25.7115 16.1344 26.1932 17.5356 26.1932C17.667 26.1932 17.7983 26.1932 17.9297 26.1786C17.9735 26.1786 18.0173 26.1348 18.0173 26.091L17.9881 25.8137C17.9881 25.7699 17.9443 25.7261 17.8859 25.7407C16.4847 25.8429 14.9959 25.3029 14.6456 25.1715C14.6018 25.1569 14.5435 25.1715 14.5289 25.2153V25.2007Z" fill="#929292"/>
<path d="M14.5289 25.2007L14.4121 25.4634C14.3975 25.5072 14.4121 25.5656 14.4559 25.5802C14.8062 25.7115 16.1344 26.1932 17.5356 26.1932C17.667 26.1932 17.7983 26.1932 17.9297 26.1786C17.9735 26.1786 18.0173 26.1348 18.0173 26.091L17.9881 25.8137C17.9881 25.7699 17.9443 25.7261 17.8859 25.7407C16.4847 25.8429 14.9959 25.3029 14.6456 25.1715C14.6018 25.1569 14.5435 25.1715 14.5289 25.2153V25.2007Z" stroke="#929392" stroke-width="0.919535" stroke-miterlimit="10"/>
<path d="M7.78559 20.5159L7.53746 20.6765C7.49368 20.7057 7.47908 20.764 7.52287 20.8078C7.7564 21.0851 8.25266 21.45 8.96785 21.45C9.1576 21.45 9.37653 21.4209 9.59547 21.3625C9.63926 21.3479 9.66845 21.3041 9.65385 21.2457L9.56628 20.983C9.55168 20.9392 9.5079 20.91 9.46411 20.9246C8.57377 21.1727 8.06291 20.7057 7.91695 20.5305C7.88776 20.5013 7.84398 20.4867 7.80019 20.5159H7.78559Z" fill="#929292"/>
<path d="M7.78559 20.5159L7.53746 20.6765C7.49368 20.7057 7.47908 20.764 7.52287 20.8078C7.7564 21.0851 8.25266 21.45 8.96785 21.45C9.1576 21.45 9.37653 21.4209 9.59547 21.3625C9.63926 21.3479 9.66845 21.3041 9.65385 21.2457L9.56628 20.983C9.55168 20.9392 9.5079 20.91 9.46411 20.9246C8.57377 21.1727 8.06291 20.7057 7.91695 20.5305C7.88776 20.5013 7.84398 20.4867 7.80019 20.5159H7.78559Z" stroke="#929392" stroke-width="0.919535" stroke-miterlimit="10"/>
<path d="M5.23131 15.6973L4.9394 15.7265C4.89561 15.7265 4.85182 15.7848 4.86642 15.8286C4.91021 16.1059 5.11455 16.9525 5.88812 17.405C5.93191 17.4342 5.9903 17.4196 6.00489 17.3758L6.13625 17.1131C6.15085 17.0693 6.15085 17.0255 6.10706 16.9963C5.52323 16.646 5.36268 15.9892 5.31889 15.7702C5.31889 15.7265 5.2751 15.6973 5.23131 15.6973Z" fill="#929292"/>
<path d="M5.23131 15.6973L4.9394 15.7265C4.89561 15.7265 4.85182 15.7848 4.86642 15.8286C4.91021 16.1059 5.11455 16.9525 5.88812 17.405C5.93191 17.4342 5.9903 17.4196 6.00489 17.3758L6.13625 17.1131C6.15085 17.0693 6.15085 17.0255 6.10706 16.9963C5.52323 16.646 5.36268 15.9892 5.31889 15.7702C5.31889 15.7265 5.2751 15.6973 5.23131 15.6973Z" stroke="#929392" stroke-width="0.919535" stroke-miterlimit="10"/>
<path d="M3.74254 13.1583L3.72794 13.1291C3.72794 13.1145 3.71335 13.0999 3.71335 13.0999L2.73543 11.8885C2.70624 11.8447 2.64785 11.8447 2.60407 11.8739L2.38513 12.0636C2.34134 12.0928 2.34134 12.1512 2.37053 12.195L3.29007 13.3334C3.30466 13.348 3.30466 13.348 3.30466 13.3626C3.37764 13.5816 3.61118 14.2822 4.15122 14.6325C4.19501 14.6617 4.25339 14.6471 4.28258 14.6033L4.42854 14.3551C4.45773 14.3114 4.44314 14.2676 4.39935 14.2384C3.93228 13.9027 3.74254 13.1875 3.74254 13.1729V13.1583Z" fill="#929292"/>
<path d="M3.74254 13.1583L3.72794 13.1291C3.72794 13.1145 3.71335 13.0999 3.71335 13.0999L2.73543 11.8885C2.70624 11.8447 2.64785 11.8447 2.60407 11.8739L2.38513 12.0636C2.34134 12.0928 2.34134 12.1512 2.37053 12.195L3.29007 13.3334C3.30466 13.348 3.30466 13.348 3.30466 13.3626C3.37764 13.5816 3.61118 14.2822 4.15122 14.6325C4.19501 14.6617 4.25339 14.6471 4.28258 14.6033L4.42854 14.3551C4.45773 14.3114 4.44314 14.2676 4.39935 14.2384C3.93228 13.9027 3.74254 13.1875 3.74254 13.1729V13.1583Z" stroke="#929392" stroke-width="0.919535" stroke-miterlimit="10"/>
<path d="M0.91098 8.72242L0.998555 8.64944C1.02775 8.62025 1.04234 8.56187 1.01315 8.53268C0.983959 8.48889 0.940172 8.43051 0.925576 8.38672V8.72242H0.91098Z" fill="#929292"/>
<path d="M0.91098 8.72242L0.998555 8.64944C1.02775 8.62025 1.04234 8.56187 1.01315 8.53268C0.983959 8.48889 0.940172 8.43051 0.925576 8.38672" stroke="#929392" stroke-width="0.919535" stroke-miterlimit="10"/>
<path d="M29.6501 7.77344C29.6355 8.21131 29.6939 8.67838 29.8836 9.18923C29.9128 9.2768 29.8544 9.37897 29.7669 9.40817C29.1976 9.52493 28.3219 9.84604 27.9424 10.678C27.5775 11.51 27.7672 12.3565 27.9424 12.8528C27.9716 12.9403 27.9278 13.0279 27.8548 13.0571C27.3731 13.2469 26.6288 13.6701 26.3368 14.4729C26.0303 15.2903 26.2347 16.1514 26.4098 16.6185C26.439 16.6915 26.4098 16.779 26.3368 16.8082C25.9428 17.0418 25.3443 17.5234 25.3151 18.2532C25.3151 18.3992 25.3151 18.5451 25.3151 18.6911C25.3151 19.4209 25.3151 19.7858 24.5854 20.0193C23.5199 20.355 23.2133 20.6177 22.7025 21.2599C22.6733 21.3037 22.6149 21.3329 22.5565 21.3183C22.0311 21.2599 20.7029 21.1578 20.1044 21.3183C19.8709 21.3767 19.7104 21.5665 19.5498 21.7124C19.4622 21.8 19.3747 21.8876 19.2871 21.9459C19.0244 22.1211 18.747 22.2233 18.6011 22.2817C18.5719 22.2962 18.5281 22.2962 18.4989 22.2817C18.3529 22.2233 18.0756 22.1211 17.8129 21.9459C17.7253 21.8876 17.6524 21.8 17.5502 21.7124C17.4042 21.5519 17.2291 21.3767 16.9955 21.3183C16.3971 21.1578 15.0835 21.2745 14.5434 21.3183C14.4851 21.3183 14.4267 21.3037 14.3975 21.2599C13.8866 20.6177 13.5655 20.3404 12.5146 20.0193C11.7848 19.7858 11.7848 19.4209 11.7848 18.6911C11.7848 18.5597 11.7848 18.4138 11.7848 18.2532C11.7557 17.5088 11.1572 17.0418 10.7631 16.8082C10.6902 16.7644 10.661 16.6915 10.6902 16.6185C10.8507 16.1514 11.0551 15.2903 10.7631 14.4729C10.4712 13.6555 9.72684 13.2469 9.24518 13.0571C9.1576 13.0279 9.12841 12.9403 9.1576 12.8528C9.33275 12.3565 9.5225 11.51 9.1576 10.678C8.79271 9.84604 7.91696 9.52493 7.33313 9.40817C7.23096 9.39357 7.17257 9.2768 7.21636 9.18923C7.39151 8.67838 7.46449 8.21131 7.44989 7.77344H6.96823C6.98283 8.32808 6.85147 8.89731 6.57415 9.46655L6.53036 9.56872C6.47198 9.67089 6.55955 9.80225 6.67632 9.80225H6.79308C6.80768 9.80225 8.29645 9.87523 8.71973 10.8677C9.1722 11.8895 8.57377 13.0279 8.55917 13.0425L8.51539 13.1301C8.457 13.2323 8.51539 13.349 8.61756 13.3636L8.71973 13.3928C8.73432 13.3928 9.97497 13.6847 10.3253 14.6481C10.6902 15.6406 10.1355 16.7644 10.1355 16.779L10.1063 16.852C10.0625 16.9396 10.1063 17.0418 10.1939 17.071L10.2669 17.1001C10.2815 17.1001 11.2886 17.5234 11.3178 18.297C11.3178 18.443 11.3178 18.5743 11.3178 18.7057C11.3178 19.4501 11.3178 20.1507 12.3833 20.4864C13.405 20.8075 13.5947 21.0118 14.1786 21.7416L14.2077 21.7708C14.2369 21.8146 14.2953 21.8438 14.3537 21.8292H14.3975C14.9083 21.7708 16.3387 21.6394 16.8788 21.7854C16.9809 21.8146 17.0977 21.9314 17.1999 22.0481C17.3021 22.1503 17.4042 22.2671 17.5356 22.3546C17.9881 22.6611 18.4551 22.7779 18.4697 22.7925H18.4843C18.5135 22.8071 18.5427 22.8071 18.5719 22.7925H18.5865C18.6011 22.7925 19.0681 22.6611 19.5206 22.3546C19.652 22.2671 19.7541 22.1503 19.8563 22.0481C19.9731 21.9314 20.0898 21.8146 20.1774 21.7854C20.7175 21.6394 22.1624 21.7708 22.6587 21.8292H22.7025C22.7609 21.8438 22.8193 21.8146 22.8485 21.7708L22.8776 21.7416C23.4469 21.0118 23.6366 20.8075 24.6729 20.4864C25.7384 20.1507 25.7384 19.4501 25.7384 18.7057C25.7384 18.5743 25.7384 18.4284 25.7384 18.297C25.7676 17.5234 26.7893 17.1147 26.7893 17.1001L26.8623 17.071C26.9499 17.0418 26.9937 16.925 26.9499 16.8374L26.9061 16.7644C26.9061 16.7498 26.3514 15.6406 26.7163 14.6335C27.0666 13.6701 28.3073 13.3782 28.3219 13.3782L28.424 13.3636C28.5262 13.3344 28.5846 13.2177 28.5262 13.1301L28.4824 13.0425C28.4824 13.0279 27.8694 11.8895 28.3219 10.8677C28.7597 9.87523 30.2339 9.80225 30.2485 9.80225H30.3653C30.4821 9.80225 30.555 9.67089 30.5112 9.56872L30.4675 9.46655C30.1901 8.88272 30.0588 8.31348 30.0734 7.77344H29.5917H29.6501ZM0.91098 11.6705C1.05694 11.8165 1.21749 11.9478 1.40724 12.05C1.46562 12.0792 1.49481 12.1376 1.49481 12.2106C1.46562 12.6776 1.48022 13.5826 2.00566 14.3415C2.38516 14.8962 2.95439 15.2611 3.69878 15.4508C3.77176 15.4654 3.83014 15.5384 3.83014 15.6114C3.83014 16.0493 3.88852 16.8228 4.28261 17.4796C4.69129 18.151 5.3627 18.5889 5.75678 18.7933C5.81517 18.8225 5.85895 18.8954 5.84436 18.9538C5.81517 19.2311 5.80057 19.6544 5.90274 20.1945C6.0341 20.9096 6.42819 22.1795 7.4207 22.559C7.97534 22.7633 8.58837 22.9093 8.90947 22.9823C8.96786 22.9968 9.01164 23.0406 9.02624 23.099C9.11381 23.3763 11.0988 25.8138 12.8503 26.0036C12.8941 26.0036 12.9379 26.0328 12.9671 26.0766C13.3028 26.6166 14.5726 27.9594 18.5281 27.6529C18.5427 27.6529 18.5427 27.6529 18.5573 27.6529C18.9514 27.6821 19.3163 27.6967 19.6666 27.6967C22.7609 27.6967 23.8118 26.5582 24.1183 26.0766C24.1475 26.0328 24.1913 26.0036 24.2351 26.0036C25.9865 25.8138 26.9353 24.9965 27.4315 24.3397C27.7964 23.858 27.9716 23.3763 28.0592 23.099C28.0737 23.0406 28.1175 22.9968 28.1759 22.9823C28.5116 22.9093 28.5554 22.413 29.11 22.2087C29.6063 22.0189 29.9712 21.6102 30.2047 21.1432C30.3215 20.9096 30.4237 20.6615 30.4966 20.4134C30.701 19.7274 31.0513 18.9538 31.7081 18.5889C31.8395 18.5159 31.9562 18.4284 32.0584 18.3408C32.3503 18.1073 32.613 17.8299 32.8028 17.5088C33.1969 16.852 33.2552 16.0784 33.2552 15.6406C33.2552 15.5676 33.299 15.4946 33.3866 15.48C34.131 15.2903 34.7002 14.9254 35.0797 14.3707C35.6052 13.6118 35.6198 12.7068 35.5906 12.2397C35.5906 12.1668 35.6198 12.1084 35.6782 12.0792C36.6561 11.5683 36.9042 10.3131 36.9772 9.84604C36.9772 9.80225 37.0064 9.77306 37.0356 9.74387C37.5318 9.306 37.7799 8.70757 37.7799 7.99237C37.7799 7.9194 37.7799 7.86101 37.7654 7.78803H37.2837C37.3275 8.28429 37.2545 8.98489 36.6123 9.45195L36.5831 9.46655C36.5393 9.49574 36.5247 9.53953 36.5247 9.58332V9.61251C36.5247 9.6271 36.3787 11.3494 35.2549 11.7143L35.1965 11.7289C35.1235 11.7581 35.0651 11.8311 35.0797 11.9186L35.0943 11.9916C35.0943 12.0062 35.3133 13.1739 34.7002 14.0642C34.3353 14.5751 33.7661 14.9108 32.9779 15.0421L32.905 15.0567C32.8174 15.0713 32.759 15.1443 32.7736 15.2319L32.7882 15.3049C32.7882 15.3195 32.905 16.4141 32.4233 17.2315C32.219 17.5818 31.8978 17.8737 31.5621 18.1073C31.46 18.1802 31.3432 18.2678 31.2264 18.3262C30.6864 18.5743 30.3069 19.1727 30.2047 19.742C30.1026 20.2382 29.796 21.4351 28.9787 21.7416C28.3803 21.9605 28.2781 22.4714 28.0008 22.5298C27.957 22.5444 27.9278 22.5298 27.8986 22.5152C27.6505 22.3838 27.0666 22.0481 26.6725 21.4935C26.6288 21.4205 26.5266 21.4059 26.4536 21.4497L26.3223 21.5227C26.2347 21.5665 26.2201 21.6832 26.2785 21.7562C26.439 21.9897 27.4753 22.8363 27.5337 22.8655C27.5337 22.8655 27.6359 22.9823 27.6067 23.0552C27.5191 23.3034 27.3731 23.6828 27.0812 24.0623C26.4682 24.8651 25.5487 25.3614 24.3372 25.5073C24.2642 25.5219 24.1767 25.4781 24.1621 25.3906C24.1475 25.3322 24.1329 25.2738 24.1037 25.2154C24.0891 25.157 23.8556 24.5148 23.8264 24.398C23.6804 23.9748 23.5491 23.4931 23.4761 23.245C23.4469 23.1574 23.3593 23.1136 23.2717 23.1282L23.1258 23.172C23.0382 23.2012 22.9798 23.2888 23.009 23.3763C23.1696 23.9456 23.5928 25.23 23.7534 25.6971C23.768 25.7409 23.768 25.7992 23.7388 25.843C23.6366 26.0036 23.3885 26.2955 22.9068 26.5582C22.2354 26.9377 20.9364 27.361 18.6011 27.1712H18.5865H18.5719C16.2366 27.361 14.9375 26.9377 14.2661 26.5582C13.7845 26.2955 13.5509 26.0036 13.4488 25.843C13.4196 25.7992 13.4196 25.7555 13.4342 25.6971C13.5801 25.23 14.0034 23.9456 14.1786 23.3763C14.2077 23.2888 14.1494 23.2012 14.0618 23.172L13.9158 23.1282C13.8283 23.099 13.7407 23.1574 13.7115 23.245C13.5655 23.712 13.1568 24.9819 13.0255 25.4052C12.9963 25.4781 12.9233 25.5219 12.8503 25.5219C11.7848 25.3906 9.65386 23.3034 9.58088 23.0552C9.56628 22.9823 9.58088 22.9093 9.63926 22.8801C9.88739 22.6903 10.5734 22.1357 10.8945 21.7854C10.9675 21.7124 10.9383 21.5957 10.8507 21.5373L10.7339 21.4643C10.661 21.4205 10.5588 21.4351 10.515 21.5081C10.1209 22.0627 9.53709 22.413 9.28896 22.5298C9.25977 22.5444 9.21598 22.559 9.18679 22.5444C8.90947 22.486 8.25266 22.34 7.65423 22.1065C6.83687 21.8 6.53036 20.6031 6.42819 20.1069C6.28223 19.3041 6.42819 18.7787 6.42819 18.7787L6.44278 18.7057C6.47198 18.6181 6.42819 18.5305 6.34061 18.5013L6.28223 18.4722C6.26764 18.4722 5.24593 18.0489 4.76427 17.2315C4.28261 16.4141 4.39937 15.3195 4.39937 15.3049L4.41397 15.2319C4.42857 15.1443 4.37018 15.0713 4.28261 15.0567L4.20963 15.0421C3.43605 14.9108 2.85222 14.5897 2.48733 14.0642C1.8743 13.1739 2.09324 11.9916 2.09324 11.9916L2.10783 11.9186C2.12243 11.8311 2.07864 11.7581 1.99107 11.7289L1.93269 11.7143C1.48022 11.5683 1.1883 11.2034 0.998555 10.824V11.6705H0.91098Z" fill="#929292"/>
<path d="M29.6501 7.77344C29.6355 8.21131 29.6939 8.67838 29.8836 9.18923C29.9128 9.2768 29.8544 9.37897 29.7669 9.40817C29.1976 9.52493 28.3219 9.84604 27.9424 10.678C27.5775 11.51 27.7672 12.3565 27.9424 12.8528C27.9716 12.9403 27.9278 13.0279 27.8548 13.0571C27.3731 13.2469 26.6288 13.6701 26.3368 14.4729C26.0303 15.2903 26.2347 16.1514 26.4098 16.6185C26.439 16.6915 26.4098 16.779 26.3368 16.8082C25.9428 17.0418 25.3443 17.5234 25.3151 18.2532C25.3151 18.3992 25.3151 18.5451 25.3151 18.6911C25.3151 19.4209 25.3151 19.7858 24.5854 20.0193C23.5199 20.355 23.2133 20.6177 22.7025 21.2599C22.6733 21.3037 22.6149 21.3329 22.5565 21.3183C22.0311 21.2599 20.7029 21.1578 20.1044 21.3183C19.8709 21.3767 19.7104 21.5665 19.5498 21.7124C19.4622 21.8 19.3747 21.8876 19.2871 21.9459C19.0244 22.1211 18.747 22.2233 18.6011 22.2817C18.5719 22.2962 18.5281 22.2962 18.4989 22.2817C18.3529 22.2233 18.0756 22.1211 17.8129 21.9459C17.7253 21.8876 17.6524 21.8 17.5502 21.7124C17.4042 21.5519 17.2291 21.3767 16.9955 21.3183C16.3971 21.1578 15.0835 21.2745 14.5434 21.3183C14.4851 21.3183 14.4267 21.3037 14.3975 21.2599C13.8866 20.6177 13.5655 20.3404 12.5146 20.0193C11.7848 19.7858 11.7848 19.4209 11.7848 18.6911C11.7848 18.5597 11.7848 18.4138 11.7848 18.2532C11.7557 17.5088 11.1572 17.0418 10.7631 16.8082C10.6902 16.7644 10.661 16.6915 10.6902 16.6185C10.8507 16.1514 11.0551 15.2903 10.7631 14.4729C10.4712 13.6555 9.72684 13.2469 9.24518 13.0571C9.1576 13.0279 9.12841 12.9403 9.1576 12.8528C9.33275 12.3565 9.5225 11.51 9.1576 10.678C8.79271 9.84604 7.91696 9.52493 7.33313 9.40817C7.23096 9.39357 7.17257 9.2768 7.21636 9.18923C7.39151 8.67838 7.46449 8.21131 7.44989 7.77344M0.91098 11.6705C1.05694 11.8165 1.21749 11.9478 1.40724 12.05C1.46562 12.0792 1.49481 12.1376 1.49481 12.2106C1.46562 12.6776 1.48022 13.5826 2.00566 14.3415C2.38516 14.8962 2.95439 15.2611 3.69878 15.4508C3.77176 15.4654 3.83014 15.5384 3.83014 15.6114C3.83014 16.0493 3.88852 16.8228 4.28261 17.4796C4.69129 18.151 5.3627 18.5889 5.75678 18.7933C5.81517 18.8225 5.85895 18.8954 5.84436 18.9538C5.81517 19.2311 5.80057 19.6544 5.90274 20.1945C6.0341 20.9096 6.42819 22.1795 7.4207 22.559C7.97534 22.7633 8.58837 22.9093 8.90947 22.9823C8.96786 22.9968 9.01164 23.0406 9.02624 23.099C9.11381 23.3763 11.0988 25.8138 12.8503 26.0036C12.8941 26.0036 12.9379 26.0328 12.9671 26.0766C13.3028 26.6166 14.5726 27.9594 18.5281 27.6529C18.5427 27.6529 18.5427 27.6529 18.5573 27.6529C18.9514 27.6821 19.3163 27.6967 19.6666 27.6967C22.7609 27.6967 23.8118 26.5582 24.1183 26.0766C24.1475 26.0328 24.1913 26.0036 24.2351 26.0036C25.9865 25.8138 26.9353 24.9965 27.4315 24.3397C27.7964 23.858 27.9716 23.3763 28.0592 23.099C28.0737 23.0406 28.1175 22.9968 28.1759 22.9823C28.5116 22.9093 28.5554 22.413 29.11 22.2087C29.6063 22.0189 29.9712 21.6102 30.2047 21.1432C30.3215 20.9096 30.4237 20.6615 30.4966 20.4134C30.701 19.7274 31.0513 18.9538 31.7081 18.5889C31.8395 18.5159 31.9562 18.4284 32.0584 18.3408C32.3503 18.1073 32.613 17.8299 32.8028 17.5088C33.1969 16.852 33.2553 16.0784 33.2553 15.6406C33.2553 15.5676 33.299 15.4946 33.3866 15.48C34.131 15.2903 34.7002 14.9254 35.0797 14.3707C35.6052 13.6118 35.6198 12.7068 35.5906 12.2397C35.5906 12.1668 35.6198 12.1084 35.6782 12.0792C36.6561 11.5683 36.9042 10.3131 36.9772 9.84604C36.9772 9.80225 37.0064 9.77306 37.0356 9.74387C37.5318 9.306 37.7799 8.70757 37.7799 7.99237C37.7799 7.9194 37.7799 7.86101 37.7653 7.78803M37.2837 7.78803C37.3275 8.28429 37.2545 8.98489 36.6123 9.45195L36.5831 9.46655C36.5393 9.49574 36.5247 9.53953 36.5247 9.58332V9.61251C36.5247 9.6271 36.3788 11.3494 35.2549 11.7143L35.1965 11.7289C35.1235 11.7581 35.0651 11.8311 35.0797 11.9186L35.0943 11.9916C35.0943 12.0062 35.3133 13.1739 34.7002 14.0642C34.3353 14.5751 33.7661 14.9108 32.9779 15.0421L32.905 15.0567C32.8174 15.0713 32.759 15.1443 32.7736 15.2319L32.7882 15.3049C32.7882 15.3195 32.905 16.4141 32.4233 17.2315C32.2189 17.5818 31.8978 17.8737 31.5621 18.1073C31.46 18.1802 31.3432 18.2678 31.2264 18.3262C30.6864 18.5743 30.3069 19.1727 30.2047 19.742C30.1026 20.2382 29.796 21.4351 28.9787 21.7416C28.3803 21.9605 28.2781 22.4714 28.0008 22.5298C27.957 22.5444 27.9278 22.5298 27.8986 22.5152C27.6505 22.3838 27.0666 22.0481 26.6725 21.4935C26.6288 21.4205 26.5266 21.4059 26.4536 21.4497L26.3223 21.5227C26.2347 21.5665 26.2201 21.6832 26.2785 21.7562C26.439 21.9897 27.4753 22.8363 27.5337 22.8655C27.5337 22.8655 27.6359 22.9823 27.6067 23.0552C27.5191 23.3034 27.3731 23.6828 27.0812 24.0623C26.4682 24.8651 25.5487 25.3614 24.3372 25.5073C24.2642 25.5219 24.1767 25.4781 24.1621 25.3906C24.1475 25.3322 24.1329 25.2738 24.1037 25.2154C24.0891 25.157 23.8556 24.5148 23.8264 24.398C23.6804 23.9748 23.5491 23.4931 23.4761 23.245C23.4469 23.1574 23.3593 23.1136 23.2717 23.1282L23.1258 23.172C23.0382 23.2012 22.9798 23.2888 23.009 23.3763C23.1696 23.9456 23.5928 25.23 23.7534 25.6971C23.768 25.7409 23.768 25.7992 23.7388 25.843C23.6366 26.0036 23.3885 26.2955 22.9068 26.5582C22.2354 26.9377 20.9364 27.361 18.6011 27.1712H18.5865H18.5719C16.2366 27.361 14.9375 26.9377 14.2661 26.5582C13.7845 26.2955 13.5509 26.0036 13.4488 25.843C13.4196 25.7992 13.4196 25.7555 13.4342 25.6971C13.5801 25.23 14.0034 23.9456 14.1786 23.3763C14.2077 23.2888 14.1494 23.2012 14.0618 23.172L13.9158 23.1282C13.8283 23.099 13.7407 23.1574 13.7115 23.245C13.5655 23.712 13.1568 24.9819 13.0255 25.4052C12.9963 25.4781 12.9233 25.5219 12.8503 25.5219C11.7848 25.3906 9.65386 23.3034 9.58088 23.0552C9.56628 22.9823 9.58088 22.9093 9.63926 22.8801C9.88739 22.6903 10.5734 22.1357 10.8945 21.7854C10.9675 21.7124 10.9383 21.5957 10.8507 21.5373L10.7339 21.4643C10.661 21.4205 10.5588 21.4351 10.515 21.5081C10.1209 22.0627 9.53709 22.413 9.28896 22.5298C9.25977 22.5444 9.21598 22.559 9.18679 22.5444C8.90947 22.486 8.25266 22.34 7.65423 22.1065C6.83687 21.8 6.53036 20.6031 6.42819 20.1069C6.28223 19.3041 6.42819 18.7787 6.42819 18.7787L6.44278 18.7057C6.47198 18.6181 6.42819 18.5305 6.34061 18.5013L6.28223 18.4722C6.26764 18.4722 5.24593 18.0489 4.76427 17.2315C4.28261 16.4141 4.39937 15.3195 4.39937 15.3049L4.41397 15.2319C4.42857 15.1443 4.37018 15.0713 4.28261 15.0567L4.20963 15.0421C3.43605 14.9108 2.85222 14.5897 2.48733 14.0642C1.8743 13.1739 2.09324 11.9916 2.09324 11.9916L2.10783 11.9186C2.12243 11.8311 2.07864 11.7581 1.99107 11.7289L1.93269 11.7143C1.48022 11.5683 1.1883 11.2034 0.998555 10.824M7.05581 7.77344C7.0704 8.32808 6.93904 8.89731 6.66172 9.46655L6.61793 9.56872C6.55955 9.67089 6.64713 9.80225 6.76389 9.80225H6.88066C6.89525 9.80225 8.38402 9.87523 8.8073 10.8677C9.25977 11.8895 8.66134 13.0279 8.64675 13.0425L8.60296 13.1301C8.54458 13.2323 8.60296 13.349 8.70513 13.3636L8.8073 13.3928C8.8219 13.3928 10.0625 13.6847 10.4128 14.6481C10.7777 15.6406 10.2231 16.7644 10.2231 16.779L10.1939 16.852C10.1501 16.9396 10.1939 17.0418 10.2815 17.071L10.3545 17.1001C10.3691 17.1001 11.3762 17.5234 11.4054 18.297C11.4054 18.443 11.4054 18.5743 11.4054 18.7057C11.4054 19.4501 11.4054 20.1507 12.4708 20.4864C13.4926 20.8075 13.6823 21.0118 14.2661 21.7416L14.2953 21.7708C14.3245 21.8146 14.3829 21.8438 14.4413 21.8292H14.4851C14.9959 21.7708 16.4263 21.6394 16.9663 21.7854C17.0685 21.8146 17.1853 21.9314 17.2875 22.0481C17.3896 22.1503 17.4918 22.2671 17.6232 22.3546C18.0756 22.6611 18.5427 22.7779 18.5573 22.7925H18.5719C18.6011 22.8071 18.6303 22.8071 18.6595 22.7925H18.6741C18.6887 22.7925 19.1557 22.6611 19.6082 22.3546C19.7395 22.2671 19.8417 22.1503 19.9439 22.0481C20.0607 21.9314 20.1774 21.8146 20.265 21.7854C20.805 21.6394 22.25 21.7708 22.7463 21.8292H22.7901C22.8485 21.8438 22.9068 21.8146 22.936 21.7708L22.9652 21.7416C23.5345 21.0118 23.7242 20.8075 24.7605 20.4864C25.826 20.1507 25.826 19.4501 25.826 18.7057C25.826 18.5743 25.826 18.4284 25.826 18.297C25.8552 17.5234 26.8769 17.1147 26.8769 17.1001L26.9499 17.071C27.0374 17.0418 27.0812 16.925 27.0374 16.8374L26.9937 16.7644C26.9937 16.7498 26.439 15.6406 26.8039 14.6335C27.1542 13.6701 28.3949 13.3782 28.4094 13.3782L28.5116 13.3636C28.6138 13.3344 28.6722 13.2177 28.6138 13.1301L28.57 13.0425C28.57 13.0279 27.957 11.8895 28.4094 10.8677C28.8473 9.87523 30.3215 9.80225 30.3361 9.80225H30.4529C30.5696 9.80225 30.6426 9.67089 30.5988 9.56872L30.555 9.46655C30.2777 8.88272 30.1463 8.31348 30.1609 7.77344" stroke="#929392" stroke-width="0.919535" stroke-miterlimit="10"/>
<path d="M19.1119 25.798L19.0827 26.0753C19.0827 26.1191 19.1119 26.1629 19.1703 26.1629C19.3017 26.1775 19.433 26.1775 19.5644 26.1775C20.9656 26.1775 22.2938 25.6958 22.6441 25.5498C22.6879 25.5353 22.7171 25.4769 22.6879 25.4331L22.5711 25.1704C22.5565 25.1266 22.4981 25.112 22.4544 25.1266C22.1041 25.2579 20.6153 25.798 19.2141 25.6958C19.1703 25.6958 19.1265 25.725 19.1119 25.7688V25.798Z" fill="#929292"/>
<path d="M19.1119 25.798L19.0827 26.0753C19.0827 26.1191 19.1119 26.1629 19.1703 26.1629C19.3017 26.1775 19.433 26.1775 19.5644 26.1775C20.9656 26.1775 22.2938 25.6958 22.6441 25.5498C22.6879 25.5353 22.7171 25.4769 22.6879 25.4331L22.5711 25.1704C22.5565 25.1266 22.4981 25.112 22.4544 25.1266C22.1041 25.2579 20.6153 25.798 19.2141 25.6958C19.1703 25.6958 19.1265 25.725 19.1119 25.7688V25.798Z" stroke="#929392" stroke-width="0.919535" stroke-miterlimit="10"/>
<path d="M30.9345 17.1287L31.0659 17.3914C31.0951 17.4352 31.1389 17.4498 31.1827 17.4206C31.9562 16.9535 32.1606 16.1216 32.2044 15.8443C32.219 15.8005 32.1752 15.7421 32.1314 15.7421L31.8395 15.7129C31.7957 15.7129 31.7519 15.7421 31.7519 15.7859C31.7081 16.0048 31.5476 16.6616 30.9637 17.0119C30.9199 17.0411 30.9053 17.0849 30.9345 17.1287Z" fill="#929292"/>
<path d="M30.9345 17.1287L31.0659 17.3914C31.0951 17.4352 31.1389 17.4498 31.1827 17.4206C31.9562 16.9535 32.1606 16.1216 32.2044 15.8443C32.219 15.8005 32.1752 15.7421 32.1314 15.7421L31.8395 15.7129C31.7957 15.7129 31.7519 15.7421 31.7519 15.7859C31.7081 16.0048 31.5476 16.6616 30.9637 17.0119C30.9199 17.0411 30.9053 17.0849 30.9345 17.1287Z" stroke="#929392" stroke-width="0.919535" stroke-miterlimit="10"/>
<path d="M33.4012 13.0697L33.3866 13.0989C33.372 13.1135 33.372 13.1135 33.372 13.1281V13.1573C33.372 13.1719 33.1823 13.8871 32.7152 14.2228C32.6714 14.2519 32.6714 14.2957 32.686 14.3395L32.832 14.5876C32.8612 14.6314 32.9195 14.646 32.9633 14.6168C33.4888 14.2519 33.7369 13.5659 33.8099 13.347C33.8099 13.3324 33.8245 13.3324 33.8245 13.3178L34.744 12.1793C34.7732 12.1356 34.7732 12.0772 34.7294 12.048L34.5105 11.8582C34.4667 11.829 34.4229 11.829 34.3791 11.8728L33.4304 13.0697H33.4012Z" fill="#929292"/>
<path d="M33.4012 13.0697L33.3866 13.0989C33.372 13.1135 33.372 13.1135 33.372 13.1281V13.1573C33.372 13.1719 33.1823 13.8871 32.7152 14.2228C32.6714 14.2519 32.6714 14.2957 32.686 14.3395L32.832 14.5876C32.8612 14.6314 32.9195 14.646 32.9633 14.6168C33.4888 14.2519 33.7369 13.5659 33.8099 13.347C33.8099 13.3324 33.8245 13.3324 33.8245 13.3178L34.744 12.1793C34.7732 12.1356 34.7732 12.0772 34.7294 12.048L34.5105 11.8582C34.4667 11.829 34.4229 11.829 34.3791 11.8728L33.4304 13.0697H33.4012Z" stroke="#929392" stroke-width="0.919535" stroke-miterlimit="10"/>
<path d="M36.3057 7.77344C36.3203 7.94859 36.2912 8.2551 36.0868 8.54701C36.0576 8.5908 36.0576 8.63459 36.1014 8.66378L36.3057 8.85353C36.3349 8.88272 36.3933 8.88272 36.4225 8.83893C36.7144 8.44484 36.7582 8.03616 36.7436 7.77344H36.3057Z" fill="#929292"/>
<path d="M36.3057 7.77344C36.3203 7.94859 36.2912 8.2551 36.0868 8.54701C36.0576 8.5908 36.0576 8.63459 36.1014 8.66378L36.3057 8.85353C36.3349 8.88272 36.3933 8.88272 36.4225 8.83893C36.7144 8.44484 36.7582 8.03616 36.7436 7.77344" stroke="#929392" stroke-width="0.919535" stroke-miterlimit="10"/>
<path d="M28.0883 19.9316L33.6931 21.7269C33.8099 21.7707 33.8829 21.8583 33.8975 21.975C33.9121 22.0918 33.8537 22.2086 33.7515 22.267L32.3065 23.1573L35.1819 26.0327C35.2987 26.1494 35.2987 26.3392 35.1819 26.4559L34.2332 27.4047C34.1164 27.5214 33.9267 27.5214 33.8099 27.4047L30.9345 24.5293L30.0442 25.9743C29.9858 26.0765 29.869 26.1348 29.7523 26.1202C29.6355 26.1057 29.5333 26.0327 29.5041 25.9159L27.7088 20.3111C27.6797 20.1944 27.7088 20.0922 27.7818 20.0046C27.8694 19.917 27.9716 19.9024 28.0883 19.9316Z" fill="#853376"/>
</svg>
