<svg width="33" height="34" viewBox="0 0 33 34" fill="none" xmlns="http://www.w3.org/2000/svg">
<path d="M16.3093 26.8237C21.7347 26.8237 26.144 22.4708 26.2351 17.067H32.3974C32.3059 25.8731 25.137 32.9855 16.3093 32.9855C7.47929 32.9855 0.312672 25.8731 0.221219 17.067H6.38356C6.47459 22.4708 10.8839 26.8237 16.3093 26.8237Z" fill="white" stroke="#CFCCC9" stroke-width="0.341059"/>
<path d="M16.3093 0.587891C25.2881 0.587891 32.5688 7.86862 32.5688 16.8474H26.066C26.066 11.4592 21.6975 7.09074 16.3093 7.09074C10.9211 7.09074 6.55266 11.4592 6.55266 16.8474H0.0498047C0.0498047 7.86862 7.32816 0.587891 16.3093 0.587891Z" fill="#837550"/>
<path d="M3.28226 20.2286C5.09414 20.2286 6.56451 18.7582 6.56451 16.9463C6.56451 15.1344 5.09414 13.6641 3.28226 13.6641C1.47038 13.6641 0 15.1344 0 16.9463C0 18.7582 1.47038 20.2286 3.28226 20.2286Z" fill="white"/>
<path d="M29.3389 20.2286C31.1508 20.2286 32.6212 18.7582 32.6212 16.9463C32.6212 15.1344 31.1508 13.6641 29.3389 13.6641C27.527 13.6641 26.0566 15.1344 26.0566 16.9463C26.0566 18.7582 27.527 20.2286 29.3389 20.2286Z" fill="white"/>
</svg>
