<svg width="137" height="35" viewBox="0 0 137 35" fill="none" xmlns="http://www.w3.org/2000/svg">
<path d="M0.5 26.1081V14.8086H2.59304L8.87807 22.883V14.8086H10.8915V26.1081H8.79848L2.5164 17.8597V26.1081H0.5Z" fill="#46B98C"/>
<path d="M19.3953 22.771H13.9651C13.9651 23.8882 14.876 24.4454 16.7008 24.4454C17.538 24.4454 18.3753 24.3658 19.2125 24.2096V25.8693C18.4814 26.0285 17.538 26.108 16.3825 26.108C13.3755 26.108 11.8691 24.693 11.8691 21.863C11.8691 19.1597 13.2458 17.8096 16.0022 17.8096C18.7526 17.8096 19.8817 19.4634 19.3923 22.7739L19.3953 22.771ZM13.9651 21.238H17.426C17.4997 20.0471 16.9455 19.4516 15.7663 19.4516C14.6579 19.4516 14.0595 20.0471 13.9622 21.238H13.9651Z" fill="#46B98C"/>
<path d="M19.7734 21.9549C19.7734 19.1367 21.1708 17.7275 23.9625 17.7275C26.7542 17.7275 28.1515 19.1367 28.1515 21.9549C28.1515 24.7672 26.7571 26.1764 23.9625 26.1764C21.1796 26.1764 19.7852 24.7702 19.7734 21.9549ZM23.9625 24.5226C25.3598 24.5226 26.0555 23.6559 26.0555 21.9225C26.0555 20.2333 25.3569 19.3843 23.9625 19.3843C22.5681 19.3843 21.8665 20.2303 21.8665 21.9225C21.8665 23.6559 22.5651 24.5226 23.9625 24.5226Z" fill="#46B98C"/>
<path d="M29.1309 26.1042V14.8018H33.9508C36.0998 14.8018 37.1758 15.7068 37.1758 17.5139C37.1758 19.5539 35.6783 20.8156 32.6802 21.299L32.3795 20.0668C34.5403 19.7248 35.6193 18.8935 35.6193 17.5758C35.6193 16.5322 35.0179 16.0104 33.8181 16.0104H30.593V26.1012H29.1309V26.1042Z" fill="#46B98C"/>
<path d="M37.8809 21.9573C37.8809 19.1922 39.1986 17.8096 41.8341 17.8096C44.4666 17.8096 45.7873 19.1922 45.7873 21.9573C45.7873 24.7166 44.4695 26.0992 41.8341 26.0992C39.3165 26.0992 37.9988 24.7196 37.8809 21.9573ZM41.8341 24.92C43.4938 24.92 44.3221 23.9236 44.3221 21.9249C44.3221 19.9704 43.4938 18.9917 41.8341 18.9917C40.1744 18.9917 39.343 19.9704 39.343 21.9249C39.343 23.9236 40.1744 24.92 41.8341 24.92Z" fill="#46B98C"/>
<path d="M47.0781 26.108V17.8096H48.0657L48.3281 18.8679C49.0562 18.1633 49.8227 17.8096 50.6363 17.8096V19.0271C49.8551 19.0271 49.1594 19.3779 48.5403 20.0795V26.108H47.0781Z" fill="#46B98C"/>
<path d="M51.3369 21.9573C51.3369 19.1922 52.6546 17.8096 55.2901 17.8096C57.9226 17.8096 59.2404 19.1922 59.2404 21.9573C59.2404 24.7166 57.9226 26.0992 55.2901 26.0992C52.7726 26.0992 51.4548 24.7196 51.3369 21.9573ZM55.2901 24.92C56.9498 24.92 57.7782 23.9236 57.7782 21.9249C57.7782 19.9704 56.9498 18.9917 55.2901 18.9917C53.6304 18.9917 52.7991 19.9704 52.7991 21.9249C52.7991 23.9236 53.6304 24.92 55.2901 24.92Z" fill="#46B98C"/>
<path d="M60.5376 25.7121V24.4474C61.4603 24.7628 62.4184 24.922 63.4148 24.922C64.7384 24.922 65.3988 24.527 65.3988 23.7369C65.3988 23 64.9625 22.6285 64.0958 22.6285H62.9107C61.0682 22.6285 60.1455 21.8119 60.1455 20.1788C60.1455 18.5987 61.3483 17.8057 63.7567 17.8057C64.6411 17.8057 65.5462 17.9383 66.4659 18.2007V19.4654C65.5432 19.1499 64.6411 18.9907 63.7567 18.9907C62.2179 18.9907 61.4485 19.3858 61.4485 20.1758C61.4485 20.9128 61.9349 21.2813 62.9107 21.2813H64.0958C65.9382 21.2813 66.8609 22.0979 66.8609 23.731C66.8609 25.3111 65.7112 26.1012 63.4148 26.1012C62.4184 26.1012 61.4603 25.9685 60.5376 25.7062V25.7121Z" fill="#46B98C"/>
<path d="M122.875 8.3441C119.898 8.2763 118.191 8.18491 114.152 4.54714C112.098 2.69583 108.66 0.720703 103.587 0.720703C94.18 0.720703 86.5566 8.30578 86.5566 17.6596C86.5566 27.0164 94.183 34.5985 103.587 34.5985C107.475 34.5985 111.915 32.2019 111.915 32.2019C113.02 31.6064 114.792 31.6653 115.853 32.3404C115.853 32.3404 119.42 34.5985 122.875 34.5985C130.166 34.5985 136.073 28.7203 136.073 21.4713C136.073 14.2223 130.163 8.50919 122.875 8.34115V8.3441Z" fill="#66B3E4"/>
<path d="M95.5294 19.4351C94.3944 19.4351 93.8255 19.8331 93.8255 20.629C93.8255 21.4721 94.3207 21.8937 95.3142 21.8937C96.2163 21.8937 96.9356 21.7021 97.4692 21.3188V19.5736C96.9503 19.4793 96.3047 19.4321 95.5294 19.4321V19.4351ZM92.5166 20.6496C92.5166 19.1373 93.5218 18.3797 95.5294 18.3797C96.2693 18.3797 96.9149 18.4269 97.4692 18.5183V17.8226C97.4692 17.0207 96.8029 16.6198 95.4675 16.6198C94.704 16.6198 93.9228 16.7348 93.118 16.9736V15.9182C93.9228 15.6853 94.704 15.5674 95.4675 15.5674C97.6726 15.5674 98.7751 16.3545 98.7751 17.9287V22.952H98.1118L97.5871 22.4332C96.9444 22.7781 96.1809 22.952 95.3113 22.952C93.4481 22.952 92.5166 22.1855 92.5166 20.6496Z" fill="white"/>
<path d="M105.829 22.7349C105.216 22.8764 104.556 22.9471 103.851 22.9471C101.166 22.9471 99.8213 21.6677 99.8213 19.1119C99.8213 16.7446 101.166 15.5596 103.851 15.5596C104.559 15.5596 105.219 15.6303 105.829 15.7718V16.8272C105.216 16.6857 104.603 16.6179 103.993 16.6179C102.082 16.6179 101.13 17.4492 101.13 19.1119C101.13 20.9661 102.082 21.8888 103.993 21.8888C104.603 21.8888 105.219 21.821 105.829 21.6766V22.7319V22.7349Z" fill="white"/>
<path d="M111.661 16.8124C111.213 16.7004 110.659 16.6444 109.998 16.6444C108.418 16.6444 107.631 17.4964 107.631 19.1973C107.631 20.9455 108.377 21.8181 109.869 21.8181C110.547 21.8181 111.145 21.6913 111.658 21.4378V16.8124H111.661ZM112.967 25.618H111.661V22.5934C111.104 22.8263 110.505 22.9442 109.866 22.9442C107.519 22.9442 106.343 21.7002 106.343 19.2091C106.343 16.7771 107.581 15.5596 110.051 15.5596C111.059 15.5596 112.029 15.6598 112.967 15.8632V25.615V25.618Z" fill="white"/>
<path d="M120.764 15.5625V22.9471H119.868L119.641 22.0038C118.742 22.6346 117.834 22.9471 116.926 22.9471C115.219 22.9471 114.367 22.0274 114.367 20.1937V15.5596H115.676V20.2173C115.676 21.314 116.221 21.8593 117.315 21.8593C118.064 21.8593 118.777 21.5498 119.458 20.9278V15.5596H120.764V15.5625Z" fill="white"/>
<path d="M124.817 19.4351C123.683 19.4351 123.117 19.8331 123.117 20.629C123.117 21.4721 123.609 21.8937 124.599 21.8937C125.501 21.8937 126.221 21.7021 126.754 21.3188V19.5736C126.235 19.4793 125.59 19.4321 124.815 19.4321L124.817 19.4351ZM121.808 20.6496C121.808 19.1373 122.81 18.3797 124.817 18.3797C125.554 18.3797 126.206 18.4269 126.757 18.5183V17.8226C126.757 17.0207 126.088 16.6198 124.756 16.6198C123.989 16.6198 123.208 16.7348 122.406 16.9736V15.9182C123.208 15.6853 123.989 15.5674 124.756 15.5674C126.961 15.5674 128.066 16.3545 128.066 17.9287V22.952H127.397L126.872 22.4332C126.23 22.7781 125.469 22.952 124.599 22.952C122.736 22.952 121.805 22.1855 121.805 20.6496H121.808Z" fill="white"/>
<path d="M77.9281 22.5663H77.5625C77.5625 23.1942 77.1174 23.5126 76.2153 23.5126C75.8115 23.5126 75.4901 23.4094 75.2602 23.2001C75.0303 22.9937 74.9182 22.6842 74.9182 22.2774V21.8883H77.9428V21.278C77.9517 20.7592 77.8013 20.3465 77.4888 20.0458C77.1764 19.7421 76.7725 19.5918 76.2713 19.5918C75.7702 19.5918 75.3545 19.7421 75.0361 20.0458C74.7178 20.3494 74.5615 20.7533 74.5615 21.2692V22.2892C74.5615 22.7726 74.7119 23.1559 75.0214 23.4359C75.3339 23.713 75.7378 23.8575 76.2478 23.8575C76.7636 23.8575 77.1764 23.7455 77.4888 23.5244C77.7984 23.3003 77.9576 22.9908 77.9576 22.5987L77.9251 22.5663H77.9281ZM77.6009 21.5227H74.9448V21.2692C74.9448 20.8329 75.0627 20.4968 75.3103 20.2757C75.5579 20.0517 75.8822 19.9426 76.289 19.9426C76.6958 19.9426 77.0142 20.0546 77.253 20.2757C77.4918 20.4998 77.6126 20.8329 77.6126 21.2692L77.6038 21.5227H77.6009Z" fill="#46B98C"/>
<path d="M70.448 18.8022C71.0465 18.8022 71.5565 18.59 71.978 18.1714C72.3996 17.7498 72.6089 17.2339 72.6089 16.6266C72.6089 16.0105 72.3966 15.4946 71.978 15.0849C71.5565 14.6751 71.0465 14.4688 70.4421 14.4688C69.8378 14.4688 69.3278 14.6751 68.9063 15.0908C68.4847 15.5064 68.2754 16.0223 68.2754 16.6355C68.2754 17.2457 68.4847 17.7616 68.9063 18.1802C69.3278 18.6018 69.8437 18.8111 70.448 18.8111V18.7993V18.8022ZM70.448 18.5635C69.9144 18.5635 69.4664 18.3777 69.1008 18.0033C68.7353 17.6319 68.5525 17.1779 68.5525 16.6384C68.5525 16.096 68.7353 15.642 69.1008 15.2765C69.4664 14.9109 69.9144 14.7252 70.448 14.7252C70.9787 14.7252 71.4297 14.908 71.7952 15.2676C72.1608 15.6273 72.3436 16.0842 72.3436 16.6325C72.3436 17.175 72.1608 17.629 71.7952 18.0004C71.4297 18.3718 70.9787 18.5546 70.4539 18.5546L70.448 18.5605V18.5635ZM71.4798 17.8265L70.9521 16.7298C71.0789 16.6797 71.1909 16.5972 71.2794 16.4851C71.3678 16.3731 71.412 16.2346 71.412 16.0754C71.412 15.8749 71.3472 15.7128 71.2115 15.586C71.0789 15.4593 70.9256 15.3974 70.7428 15.3974H69.6462V17.8235H69.9056V16.777H70.7045L71.2027 17.8235H71.4798V17.8265ZM69.9056 16.5294V15.642H70.7369C70.8519 15.642 70.9521 15.6804 71.0288 15.757C71.1054 15.8337 71.1437 15.9398 71.1437 16.0783C71.1437 16.2169 71.1054 16.3289 71.0199 16.4114C70.9374 16.494 70.8372 16.5323 70.7163 16.5323L69.9027 16.5264L69.9056 16.5294Z" fill="#46B98C"/>
<path d="M130.236 18.6597V16.0449H131.15V15.7383H128.998V16.0449H129.894V18.6597H130.236ZM134.098 18.6597V15.7354H133.609L132.854 18.2794L132.12 15.7354H131.613V18.6597H131.925V16.2159L132.659 18.6597H133.031L133.786 16.2011V18.6597H134.098Z" fill="white"/>
</svg>
