<svg width="21" height="21" viewBox="0 0 21 21" fill="none" xmlns="http://www.w3.org/2000/svg">
<path d="M10.5881 5.52344C10.7523 5.52344 10.9099 5.58868 11.026 5.70482C11.1421 5.82096 11.2074 5.97848 11.2074 6.14273V9.85846H14.9231C15.0874 9.85846 15.2449 9.92371 15.361 10.0398C15.4772 10.156 15.5424 10.3135 15.5424 10.4778C15.5424 10.642 15.4772 10.7995 15.361 10.9157C15.2449 11.0318 15.0874 11.097 14.9231 11.097H11.2074V14.8128C11.2074 14.977 11.1421 15.1345 11.026 15.2507C10.9099 15.3668 10.7523 15.4321 10.5881 15.4321C10.4239 15.4321 10.2663 15.3668 10.1502 15.2507C10.0341 15.1345 9.96881 14.977 9.96881 14.8128V11.097H6.25308C6.08883 11.097 5.93131 11.0318 5.81517 10.9157C5.69904 10.7995 5.63379 10.642 5.63379 10.4778C5.63379 10.3135 5.69904 10.156 5.81517 10.0398C5.93131 9.92371 6.08883 9.85846 6.25308 9.85846H9.96881V6.14273C9.96881 5.97848 10.0341 5.82096 10.1502 5.70482C10.2663 5.58868 10.4239 5.52344 10.5881 5.52344Z" fill="#363330"/>
</svg>
