<svg width="32" height="31" viewBox="0 0 32 31" fill="none" xmlns="http://www.w3.org/2000/svg">
<path d="M31.2094 15.6688C31.2094 15.6688 25.5008 5.20312 15.9865 5.20312C6.47224 5.20312 0.763672 15.6688 0.763672 15.6688C0.763672 15.6688 6.47224 26.1345 15.9865 26.1345C25.5008 26.1345 31.2094 15.6688 31.2094 15.6688ZM2.99572 15.6688C3.91578 14.2705 4.97401 12.9681 6.15446 11.7813C8.60343 9.32851 11.9525 7.10598 15.9865 7.10598C20.0206 7.10598 23.3677 9.32851 25.8205 11.7813C27.0009 12.9681 28.0591 14.2705 28.9792 15.6688C28.8688 15.8344 28.7471 16.017 28.6081 16.2168C27.9707 17.1302 27.0288 18.348 25.8205 19.5564C23.3677 22.0091 20.0187 24.2317 15.9865 24.2317C11.9525 24.2317 8.60534 22.0091 6.15256 19.5564C4.97211 18.3696 3.91389 17.0672 2.99382 15.6688H2.99572Z" fill="white"/>
<path d="M15.9871 10.9107C14.7255 10.9107 13.5155 11.4119 12.6233 12.304C11.7312 13.1961 11.23 14.4061 11.23 15.6678C11.23 16.9295 11.7312 18.1395 12.6233 19.0316C13.5155 19.9237 14.7255 20.4249 15.9871 20.4249C17.2488 20.4249 18.4588 19.9237 19.3509 19.0316C20.2431 18.1395 20.7443 16.9295 20.7443 15.6678C20.7443 14.4061 20.2431 13.1961 19.3509 12.304C18.4588 11.4119 17.2488 10.9107 15.9871 10.9107ZM9.32715 15.6678C9.32715 13.9015 10.0288 12.2075 11.2778 10.9585C12.5268 9.70949 14.2208 9.00781 15.9871 9.00781C17.7535 9.00781 19.4475 9.70949 20.6965 10.9585C21.9455 12.2075 22.6471 13.9015 22.6471 15.6678C22.6471 17.4341 21.9455 19.1281 20.6965 20.3771C19.4475 21.6261 17.7535 22.3278 15.9871 22.3278C14.2208 22.3278 12.5268 21.6261 11.2778 20.3771C10.0288 19.1281 9.32715 17.4341 9.32715 15.6678Z" fill="white"/>
</svg>
