<svg width="17" height="17" viewBox="0 0 17 17" fill="none" xmlns="http://www.w3.org/2000/svg">
<path d="M8.34507 16.1276C12.7319 16.1276 16.2136 12.5764 16.2136 8.25913C16.2136 3.87226 12.6623 0.390625 8.34507 0.390625C3.9582 0.390625 0.476562 3.9419 0.476562 8.25913C0.476562 12.646 4.02783 16.1276 8.34507 16.1276Z" fill="#FCB8C4"/>
<path d="M10.9224 12.7133V11.808H7.02292L9.46007 9.30126C9.9475 8.7442 10.3653 8.3264 10.5742 7.83897C10.7831 7.42118 10.8527 7.00338 10.8527 6.51595C10.8527 5.81962 10.6438 5.26256 10.226 4.77513C9.80823 4.35734 9.18154 4.14844 8.34594 4.14844C7.57998 4.14844 6.95329 4.35734 6.46586 4.77513C5.97843 5.19293 5.76953 5.74999 5.76953 6.37669V6.44632H6.74439C6.74439 5.95889 6.88366 5.61073 7.16219 5.33219C7.44072 5.1233 7.85851 4.98403 8.34594 4.98403C8.90301 4.98403 9.3208 5.1233 9.5297 5.40183C9.80823 5.68036 9.9475 6.02852 9.9475 6.51595C9.9475 6.86412 9.87787 7.21228 9.66897 7.56044C9.5297 7.90861 9.25117 8.25677 8.83337 8.67457L5.83916 11.7384V12.6436H10.8527L10.9224 12.7133Z" fill="#FEFEFE"/>
</svg>
