<svg width="26" height="28" viewBox="0 0 26 28" fill="none" xmlns="http://www.w3.org/2000/svg">
<path d="M23.4958 24.6378C23.3079 23.9934 23.0394 23.2684 22.6903 22.5435C22.3681 21.8185 21.9922 21.0667 21.5625 20.3417C21.5088 20.4491 21.4551 20.5296 21.3746 20.637C21.3209 20.7444 21.2403 20.825 21.1866 20.9324C21.1329 21.013 21.0524 21.1204 20.9987 21.2009C20.9181 21.2815 20.8644 21.3889 20.7839 21.4694C20.7839 21.4694 20.7839 21.4694 20.757 21.4963C20.757 21.4963 20.757 21.4963 20.7302 21.5231C20.7302 21.5231 20.7302 21.5231 20.7033 21.55C20.7033 21.55 20.7033 21.55 20.6765 21.5768L20.6228 21.6574C20.6765 21.8185 20.757 22.0333 20.8376 22.2481C20.9181 22.4629 20.9987 22.7046 21.0792 22.9194C21.1598 23.1342 21.2135 23.349 21.2403 23.5101C21.2672 23.6712 21.2672 23.8055 21.1866 23.886C21.1598 23.9129 21.1329 23.9129 21.1061 23.9397C21.0792 23.9666 21.0524 23.9666 21.0255 23.9666C20.9987 23.9666 20.9718 23.9934 20.9181 23.9934C20.8913 23.9934 20.8376 23.9934 20.8107 23.9934C20.757 23.9934 20.6765 23.9934 20.6228 23.9666C20.5422 23.9397 20.4885 23.9397 20.408 23.9129C20.3274 23.886 20.2468 23.8592 20.1663 23.8323C20.0857 23.8055 20.0052 23.7518 19.8978 23.7249C19.7904 23.6712 19.6561 23.6175 19.5487 23.537C19.4145 23.4833 19.3071 23.4027 19.1728 23.3221C19.0385 23.2416 18.9043 23.161 18.77 23.0805C18.6358 22.9999 18.5015 22.9194 18.3673 22.812C18.9311 22.275 19.4413 21.6842 19.8978 21.0398C20.3811 20.4222 20.8107 19.751 21.1866 19.0797C21.5625 18.3816 21.8848 17.6834 22.1801 16.9316C22.4486 16.2066 22.6634 15.4548 22.8245 14.6761C23.1736 12.9577 23.1468 11.3466 22.8245 9.92349C22.5023 8.50038 21.9116 7.26524 21.0792 6.27175C20.2737 5.27826 19.2265 4.52643 18.0182 4.01626C16.8368 3.53295 15.4942 3.31814 14.0443 3.42554C13.0776 3.47924 12.1378 3.69405 11.1981 3.98941C10.2851 4.28477 9.37218 4.71439 8.5398 5.22456C7.68057 5.73473 6.87504 6.32545 6.12321 7.02358C5.37138 7.69485 4.67325 8.44668 4.05568 9.27907C3.89457 8.95685 3.73347 8.66149 3.62606 8.39298C3.51866 8.12447 3.43811 7.88281 3.3844 7.668C3.3307 7.4532 3.3307 7.26524 3.3307 7.10413C3.35755 6.94303 3.3844 6.80877 3.49181 6.72822C3.51866 6.70137 3.54551 6.67452 3.59921 6.64767C3.65291 6.62081 3.70662 6.59396 3.76032 6.56711C3.81402 6.54026 3.86772 6.51341 3.94828 6.51341C4.02883 6.48656 4.08253 6.48656 4.16308 6.48656C4.24364 6.48656 4.32419 6.48656 4.43159 6.48656C4.51215 6.48656 4.61955 6.51341 4.7001 6.56711C4.80751 6.59396 4.88806 6.64767 4.99547 6.70137C5.10287 6.75507 5.18342 6.83562 5.29083 6.91618C5.39823 6.80877 5.47878 6.70137 5.58619 6.59396C5.69359 6.48656 5.801 6.37915 5.9084 6.2986C6.0158 6.1912 6.12321 6.11064 6.23061 6.00324C6.33802 5.92269 6.47227 5.81528 6.57968 5.73473C6.57968 5.73473 6.60653 5.73473 6.60653 5.70788L6.63338 5.68103C6.63338 5.68103 6.66023 5.68103 6.66023 5.65418C6.66023 5.65418 6.68708 5.65418 6.68708 5.62733C6.47227 5.43937 6.23061 5.27826 5.98895 5.14401C5.74729 5.00975 5.50564 4.90235 5.23712 4.84865C4.99547 4.76809 4.72696 4.71439 4.4853 4.68754C4.24364 4.66069 4.00198 4.66069 3.76032 4.66069C3.59921 4.66069 3.43811 4.68754 3.30385 4.71439C3.1696 4.74124 3.03534 4.79494 2.90109 4.8218C2.76683 4.8755 2.65943 4.9292 2.57887 4.9829C2.47147 5.0366 2.39092 5.11716 2.33721 5.17086C2.14926 5.38567 2.015 5.65418 1.98815 5.97639C1.93445 6.2986 1.9613 6.70137 2.04185 7.13098C2.12241 7.5606 2.25666 8.07077 2.47147 8.58094C2.68628 9.11796 2.95479 9.68183 3.277 10.2994C3.06219 10.6485 2.84738 10.9975 2.65943 11.3466C2.47147 11.6957 2.28351 12.0716 2.12241 12.4475C1.9613 12.8234 1.80019 13.1993 1.66594 13.6021C1.53168 14.0048 1.39743 14.3808 1.29003 14.7835C0.88726 16.314 0.753005 17.8177 0.88726 19.1871C1.02151 20.5833 1.42428 21.8453 2.04185 22.9462C2.68628 24.074 3.54551 25.0138 4.6464 25.685C5.74729 26.3832 7.06299 26.8128 8.56665 26.8933C9.02312 26.9202 9.45273 26.9202 9.9092 26.8933C10.3657 26.8665 10.8221 26.7859 11.2786 26.7054C11.7351 26.6248 12.1915 26.4906 12.6212 26.3563C13.0776 26.1952 13.5072 26.0341 13.9637 25.8193L12.9165 23.8055C12.6212 23.9397 12.2989 24.0471 11.9767 24.1277C11.6545 24.2082 11.3592 24.2888 11.0369 24.3425C10.7147 24.3962 10.3925 24.4499 10.0972 24.4499C9.77495 24.4767 9.47959 24.4767 9.15737 24.4499C7.94908 24.3962 6.87504 24.074 5.98895 23.5101C5.10287 22.9731 4.37789 22.2213 3.84087 21.3352C3.3307 20.4491 2.98164 19.4287 2.87424 18.301C2.76683 17.2001 2.84738 15.9918 3.1696 14.7298C3.49181 13.4947 4.00198 12.2864 4.67325 11.2123C5.34453 10.1383 6.17691 9.17166 7.08985 8.33928C8.02963 7.5069 9.04997 6.80877 10.1509 6.32545C11.2518 5.81528 12.4063 5.51992 13.5878 5.43937C14.7692 5.35882 15.8433 5.54677 16.8099 5.97639C17.7766 6.37915 18.5821 7.02358 19.2265 7.82911C19.8709 8.66149 20.3542 9.65498 20.5691 10.8096C20.8107 11.9642 20.8107 13.253 20.5154 14.6224C20.3811 15.2131 20.22 15.8039 20.0052 16.3946C19.7904 16.9853 19.5219 17.5223 19.2265 18.0862C18.9311 18.6232 18.5821 19.1334 18.233 19.6436C17.8571 20.1269 17.4543 20.6102 17.0247 21.0398C17.0247 20.9056 17.0516 20.7444 17.0516 20.5833C17.0516 20.4222 17.0784 20.288 17.0784 20.1537C17.0784 20.0195 17.0784 19.8852 17.1053 19.7778C17.1053 19.6704 17.1053 19.5899 17.1053 19.5093C17.1053 19.4556 17.1053 19.4019 17.0784 19.375C17.0784 19.3482 17.0516 19.3213 17.0247 19.2945C16.9979 19.2676 16.9979 19.2676 16.971 19.2408C16.9442 19.2408 16.9173 19.2139 16.8905 19.2139C16.8636 19.2139 16.8368 19.2139 16.8368 19.2139C16.8099 19.2139 16.8099 19.2139 16.7831 19.2408C16.7562 19.2408 16.7562 19.2408 16.7562 19.2676H16.7294L12.9971 20.4759C12.9971 20.4759 12.9702 20.4759 12.9165 20.5028C12.8628 20.5296 12.836 20.5565 12.7823 20.6102C12.7286 20.6639 12.7017 20.7176 12.7017 20.7982C12.7017 20.8787 12.7017 20.9861 12.7823 21.0935V21.1204V21.1472V21.1741V21.2009C12.9434 21.55 13.185 22.0064 13.4535 22.5166C13.722 23.0268 14.0443 23.6175 14.3396 24.1814C14.6618 24.7453 14.9572 25.336 15.2257 25.8193C15.4942 26.3026 15.709 26.7322 15.8433 26.9739C15.8433 27.0007 15.8701 27.0276 15.8701 27.0276C15.8701 27.0544 15.897 27.0544 15.897 27.0813C15.897 27.1081 15.9238 27.1081 15.9238 27.135C15.9238 27.1618 15.9507 27.1618 15.9507 27.1887C15.9775 27.2424 16.0312 27.2961 16.0581 27.3498C16.0849 27.4035 16.1118 27.4304 16.1655 27.4572C16.1923 27.4841 16.2192 27.5109 16.246 27.5109C16.2729 27.5109 16.2997 27.5378 16.3266 27.5378C16.3803 27.5378 16.4072 27.5378 16.4609 27.5109C16.4877 27.4841 16.5414 27.4572 16.5683 27.4035C16.5951 27.3498 16.622 27.323 16.622 27.2692C16.6488 27.2155 16.6488 27.1887 16.6488 27.1618C16.6488 27.1618 16.6488 27.135 16.6488 27.1081C16.6488 27.0813 16.6488 27.0813 16.6488 27.0544C16.6488 27.0276 16.6488 27.0007 16.6488 26.9739C16.6488 26.947 16.6488 26.9202 16.6488 26.8665C16.6488 26.7322 16.6757 26.598 16.6757 26.4369C16.6757 26.2758 16.7025 26.1147 16.7025 25.9804C16.7025 25.8461 16.7294 25.7119 16.7294 25.6045C16.7294 25.4971 16.7294 25.4434 16.7294 25.4434C17.2395 25.7387 17.7497 26.061 18.2599 26.3295C18.77 26.598 19.2534 26.8665 19.7367 27.0813C20.22 27.2961 20.6765 27.4841 21.0792 27.6183C21.5088 27.7526 21.8848 27.8331 22.2338 27.86C22.2875 27.86 22.3144 27.86 22.3681 27.86C22.4218 27.86 22.4486 27.86 22.5023 27.86C22.556 27.86 22.5829 27.86 22.6366 27.86C22.6903 27.86 22.7171 27.86 22.744 27.8331C22.7977 27.8331 22.8514 27.8063 22.9051 27.7794C22.9588 27.7526 23.0125 27.7526 23.0662 27.7257C23.1199 27.6989 23.1468 27.672 23.2005 27.6452C23.2542 27.6183 23.281 27.5646 23.3079 27.5378C23.5495 27.2692 23.6569 26.8933 23.6569 26.3832C23.6569 25.873 23.5495 25.2823 23.3347 24.6378H23.4958Z" fill="#FCB8C4"/>
<path d="M11.7611 14.3789V13.4928H9.45192L10.7945 12.1771C11.1435 11.8281 11.412 11.5059 11.5463 11.2105C11.6806 10.9151 11.7611 10.6198 11.7611 10.2976C11.7611 9.78741 11.6 9.38464 11.2778 9.08928C10.9556 8.79392 10.4991 8.65966 9.93523 8.65966C9.37136 8.65966 8.9149 8.79392 8.56583 9.08928C8.21677 9.38464 8.05566 9.78741 8.05566 10.2976V10.3513H9.0223C9.0223 9.78741 9.31766 9.49205 9.90838 9.49205C10.4723 9.49205 10.7676 9.76056 10.7676 10.2976C10.7676 10.5124 10.7139 10.7272 10.6065 10.9151C10.4991 11.1031 10.338 11.3179 10.0963 11.5596L8.13622 13.466V14.3521H11.7343L11.7611 14.3789ZM16.4869 10.3513C16.4869 9.84111 16.2989 9.41149 15.9499 9.11613C15.6008 8.79392 15.1175 8.63281 14.5536 8.63281C13.9897 8.63281 13.5064 8.79392 13.1574 9.08928C12.8083 9.41149 12.6203 9.81426 12.6203 10.3244V12.741C12.6203 13.2512 12.8083 13.6808 13.1574 13.9762C13.5064 14.2984 13.9897 14.4326 14.5536 14.4326C15.1175 14.4326 15.6008 14.2715 15.9499 13.9493C16.2989 13.6271 16.4869 13.2243 16.4869 12.7142V10.3513ZM15.5202 12.6605C15.5202 12.9558 15.4397 13.1975 15.2786 13.3586C15.1175 13.5197 14.8758 13.6003 14.5805 13.6003C14.2851 13.6003 14.0434 13.5197 13.8823 13.3586C13.7212 13.1975 13.6407 12.9558 13.6407 12.6605V10.405C13.6407 10.1096 13.7212 9.86796 13.8823 9.70685C14.0434 9.54575 14.2851 9.46519 14.5805 9.46519C14.8758 9.46519 15.1175 9.54575 15.2786 9.70685C15.4397 9.86796 15.5202 10.1096 15.5202 10.405L15.4934 12.6605H15.5202Z" fill="#FCB8C4"/>
<path d="M9.23869 19.1331V14.8906H8.51371V18.1396L6.84895 14.8906H5.80176V19.1331H6.52674V15.911L8.21835 19.1331H9.23869ZM10.7155 18.7303C10.7155 18.6229 10.6886 18.5424 10.6081 18.4887C10.5275 18.435 10.447 18.4081 10.3127 18.4081C10.2053 18.4081 10.0979 18.435 10.0442 18.4887C9.96367 18.5424 9.93681 18.6229 9.93681 18.7303V18.8377C9.93681 18.9451 9.96367 19.0257 10.0442 19.0794C10.1248 19.1331 10.2053 19.1599 10.3396 19.1599C10.447 19.1599 10.5544 19.1331 10.6349 19.0794C10.7155 19.0257 10.7423 18.9451 10.7423 18.8377V18.7303H10.7155ZM13.9108 17.9785H13.2395C13.2395 18.3813 13.0247 18.5692 12.5951 18.5692C12.1655 18.5692 11.9775 18.3544 11.9775 17.9248V17.3072C11.9775 16.8776 12.1923 16.6628 12.5951 16.6628C13.0247 16.6628 13.2395 16.8508 13.2395 17.2804H13.9108V17.2267C13.9108 16.8508 13.8034 16.5822 13.5617 16.3674C13.32 16.1795 13.0247 16.0721 12.6219 16.0721C12.2192 16.0721 11.9238 16.1795 11.6821 16.3943C11.4405 16.6091 11.3331 16.9045 11.3331 17.2804V18.0322C11.3331 18.4081 11.4405 18.6766 11.6821 18.8914C11.9238 19.1062 12.2192 19.1868 12.6219 19.1868C13.0247 19.1868 13.3469 19.0794 13.5617 18.8914C13.8034 18.7035 13.9108 18.4081 13.9108 18.0322V17.9785ZM18.6902 19.1331V17.0119C18.6902 16.7165 18.6097 16.5017 18.4754 16.3406C18.3143 16.1795 18.1264 16.0989 17.8579 16.0989C17.6162 16.0989 17.4014 16.1795 17.1597 16.3137L16.8375 16.5017C16.7033 16.2332 16.4616 16.0989 16.1126 16.0989C15.8977 16.0989 15.6829 16.1526 15.4681 16.2869L15.1996 16.448V16.1258H14.5283V19.1331H15.2265V17.0656L15.5755 16.8507C15.7098 16.7702 15.844 16.7433 15.9246 16.7433C16.1394 16.7433 16.2468 16.8776 16.2468 17.1193V19.1599H16.9449V17.0924L17.3208 16.8776C17.4551 16.797 17.5894 16.7702 17.6699 16.7702C17.8847 16.7702 17.9921 16.9045 17.9921 17.1461V19.1868H18.6902V19.1331Z" fill="#FCB8C4"/>
<path d="M20.6227 11.1301C23.4957 11.1301 25.8049 8.79408 25.8049 5.94787C25.8049 3.07481 23.4689 0.765625 20.6227 0.765625C17.7496 0.765625 15.4404 3.10166 15.4404 5.94787C15.4404 8.82093 17.7765 11.1301 20.6227 11.1301Z" fill="#FCB8C4"/>
<path d="M20.6227 11.1301C23.4957 11.1301 25.8049 8.79408 25.8049 5.94787C25.8049 3.07481 23.4689 0.765625 20.6227 0.765625C17.7496 0.765625 15.4404 3.10166 15.4404 5.94787C15.4404 8.82093 17.7765 11.1301 20.6227 11.1301Z" stroke="white" stroke-width="1.10089"/>
<path d="M22.476 8.9024V8.33853H21.214V3.37109H20.5696C20.1668 3.74701 19.7909 3.98867 19.415 4.09607V4.68679C19.8446 4.60624 20.2205 4.39143 20.5964 4.04237V8.33853H18.9854V8.9024H22.5028H22.476Z" fill="#FEFEFE"/>
</svg>
