<svg width="17" height="17" viewBox="0 0 17 17" fill="none" xmlns="http://www.w3.org/2000/svg">
<path d="M8.16636 16.194C12.5532 16.194 16.0349 12.6428 16.0349 8.32553C16.0349 3.93867 12.4836 0.457031 8.16636 0.457031C3.77949 0.457031 0.297852 4.0083 0.297852 8.32553C0.297852 12.7124 3.84912 16.194 8.16636 16.194Z" fill="#FCB8C4"/>
<path d="M10.7436 12.7797V11.8744H6.84421L9.28136 9.36767C9.76879 8.81061 10.1866 8.39281 10.3955 7.90538C10.6044 7.48758 10.674 7.06979 10.674 6.58236C10.674 5.88603 10.4651 5.32897 10.0473 4.84154C9.62952 4.42374 9.00283 4.21484 8.16723 4.21484C7.40127 4.21484 6.77458 4.42374 6.28715 4.84154C5.79972 5.25934 5.59082 5.8164 5.59082 6.44309V6.51273H6.56568C6.56568 6.0253 6.70494 5.67713 6.98348 5.3986C7.26201 5.1897 7.6798 5.05044 8.16723 5.05044C8.7243 5.05044 9.14209 5.1897 9.35099 5.46823C9.62952 5.74676 9.76879 6.09493 9.76879 6.58236C9.76879 6.93052 9.69915 7.27869 9.49026 7.62685C9.35099 7.97501 9.07246 8.32318 8.65466 8.74097L5.66045 11.8048V12.71H10.674L10.7436 12.7797Z" fill="#FEFEFE"/>
</svg>
