<svg width="34" height="33" viewBox="0 0 34 33" fill="none" xmlns="http://www.w3.org/2000/svg">
<path d="M16.7949 32.5899C25.7923 32.5899 33.0899 25.2964 33.0899 16.2949C33.0899 7.29759 25.7964 0 16.7949 0C7.79759 0 0.5 7.2935 0.5 16.2949C0.5 25.2923 7.7935 32.5899 16.7949 32.5899Z" stroke="#250A20" stroke-width="1.35659"/>
<path d="M10.8865 8.85435C10.7844 8.9565 10.6209 8.9565 10.5188 8.85435L9.94673 8.28639C9.84458 8.18424 9.84458 8.0208 9.94673 7.91865C10.0489 7.8165 10.2123 7.8165 10.3145 7.91865L10.8865 8.49069C10.9887 8.59284 10.9887 8.75628 10.8865 8.85843V8.85435Z" fill="#250A20"/>
<path d="M11.4995 8.85428C11.6016 8.95643 11.7651 8.95643 11.8672 8.85428L12.4392 8.28224C12.5414 8.18009 12.5414 8.01665 12.4392 7.9145C12.3371 7.81235 12.1737 7.81235 12.0715 7.9145L11.4995 8.48654C11.3973 8.58869 11.3973 8.75213 11.4995 8.85428Z" fill="#250A20"/>
<path d="M10.8865 9.54487C10.7844 9.44272 10.6209 9.44272 10.5188 9.54487L9.94673 10.1169C9.84458 10.2191 9.84458 10.3825 9.94673 10.4847C10.0489 10.5868 10.2123 10.5868 10.3145 10.4847L10.8865 9.91261C10.9887 9.81046 10.9887 9.64702 10.8865 9.54487Z" fill="#250A20"/>
<path d="M11.4995 9.54487C11.6016 9.44272 11.7651 9.44272 11.8672 9.54487L12.4392 10.1169C12.5414 10.2191 12.5414 10.3825 12.4392 10.4847C12.3371 10.5868 12.1737 10.5868 12.0715 10.4847L11.4995 9.91261C11.3973 9.81046 11.3973 9.64702 11.4995 9.54487Z" fill="#250A20"/>
<path d="M8.80285 25.1371C8.88049 25.0594 9.00715 25.0594 9.08479 25.1371L9.52608 25.5784C9.60371 25.656 9.60371 25.7827 9.52608 25.8603C9.44844 25.9379 9.32178 25.9379 9.24414 25.8603L8.80285 25.419C8.72522 25.3414 8.72522 25.2147 8.80285 25.1371Z" fill="#250A20"/>
<path d="M8.33272 25.1371C8.25508 25.0594 8.12842 25.0594 8.05078 25.1371L7.60949 25.5784C7.53186 25.656 7.53186 25.7827 7.60949 25.8603C7.68713 25.9379 7.81379 25.9379 7.89143 25.8603L8.33272 25.419C8.41035 25.3414 8.41035 25.2147 8.33272 25.1371Z" fill="#250A20"/>
<path d="M8.80285 24.6059C8.88049 24.6835 9.00715 24.6835 9.08479 24.6059L9.52608 24.1646C9.60371 24.087 9.60371 23.9603 9.52608 23.8827C9.44844 23.8051 9.32178 23.8051 9.24414 23.8827L8.80285 24.324C8.72522 24.4016 8.72522 24.5283 8.80285 24.6059Z" fill="#250A20"/>
<path d="M8.33272 24.6059C8.25508 24.6835 8.12842 24.6835 8.05078 24.6059L7.60949 24.1646C7.53186 24.087 7.53186 23.9603 7.60949 23.8827C7.68713 23.8051 7.81379 23.8051 7.89143 23.8827L8.33272 24.324C8.41035 24.4016 8.41035 24.5283 8.33272 24.6059Z" fill="#250A20"/>
<path d="M30.9163 10.7381C30.9694 10.685 31.0552 10.685 31.1083 10.7381L31.4025 11.0323C31.4557 11.0854 31.4557 11.1712 31.4025 11.2243C31.3494 11.2774 31.2636 11.2774 31.2105 11.2243L30.9163 10.9301C30.8632 10.877 30.8632 10.7912 30.9163 10.7381Z" fill="#250A20"/>
<path d="M30.5974 10.7381C30.5442 10.685 30.4584 10.685 30.4053 10.7381L30.1111 11.0323C30.058 11.0854 30.058 11.1712 30.1111 11.2243C30.1642 11.2774 30.2501 11.2774 30.3032 11.2243L30.5974 10.9301C30.6505 10.877 30.6505 10.7912 30.5974 10.7381Z" fill="#250A20"/>
<path d="M30.9163 10.3784C30.9694 10.4315 31.0552 10.4315 31.1083 10.3784L31.4025 10.0842C31.4557 10.0311 31.4557 9.94525 31.4025 9.89213C31.3494 9.83902 31.2636 9.83902 31.2105 9.89213L30.9163 10.1863C30.8632 10.2394 30.8632 10.3252 30.9163 10.3784Z" fill="#250A20"/>
<path d="M30.5974 10.3784C30.5442 10.4315 30.4584 10.4315 30.4053 10.3784L30.1111 10.0842C30.058 10.0311 30.058 9.94525 30.1111 9.89213C30.1642 9.83902 30.2501 9.83902 30.3032 9.89213L30.5974 10.1863C30.6505 10.2394 30.6505 10.3252 30.5974 10.3784Z" fill="#250A20"/>
<path d="M25.4775 17.9212C25.4448 17.9457 25.3958 17.9784 25.3386 18.0192C25.2732 18.0642 25.1915 18.1132 25.1016 18.1704C25.0566 18.199 25.0035 18.2276 24.9504 18.2603C24.8973 18.293 24.8401 18.3257 24.7829 18.3584C24.7216 18.391 24.6603 18.4237 24.5949 18.4605C24.5296 18.4932 24.4601 18.5259 24.3906 18.5627C24.3212 18.5953 24.2476 18.628 24.1741 18.6648C24.1005 18.7016 24.0229 18.7302 23.9412 18.767C23.7818 18.8323 23.6184 18.8936 23.4468 18.9549C23.361 18.9835 23.2751 19.0121 23.1893 19.0407C23.0995 19.0652 23.0136 19.0938 22.9238 19.1184C22.7481 19.1674 22.5683 19.2164 22.3885 19.2573C22.2128 19.2981 22.033 19.3308 21.8655 19.3635C21.6939 19.3921 21.5263 19.4207 21.3711 19.4411C21.2117 19.4616 21.0605 19.4779 20.9216 19.4902C20.6438 19.5147 20.4109 19.527 20.2474 19.527C20.084 19.531 19.99 19.527 19.99 19.527C19.99 19.527 20.084 19.5392 20.2474 19.5556C20.4109 19.5719 20.6438 19.5842 20.9257 19.5923C21.0687 19.5964 21.2199 19.5964 21.3833 19.5923C21.5468 19.5882 21.7143 19.5801 21.8941 19.5678C22.0698 19.5556 22.2537 19.5392 22.4416 19.5147C22.6255 19.4943 22.8134 19.4657 23.0014 19.433C23.0954 19.4166 23.1893 19.4003 23.2833 19.3799C23.3773 19.3594 23.4672 19.339 23.5612 19.3186C23.745 19.2736 23.9248 19.2287 24.0964 19.1796C24.1822 19.1551 24.268 19.1306 24.3498 19.102C24.4315 19.0734 24.5132 19.0489 24.5908 19.0203C24.5949 19.0162 24.6031 19.0162 24.6072 19.0162C24.3825 19.2614 24.1414 19.5024 23.8921 19.7313C22.9728 20.573 21.9023 21.2717 20.8072 21.7538C19.5773 22.2932 18.3107 22.5669 17.0522 22.5669C15.7937 22.5669 14.527 22.2932 13.2972 21.7538C12.198 21.2717 11.1316 20.573 10.2122 19.7313C9.95889 19.4984 9.72191 19.2614 9.49718 19.0162C9.50126 19.0203 9.50943 19.0203 9.51352 19.0203C9.59115 19.0489 9.67287 19.0734 9.75459 19.102C9.83631 19.1306 9.92212 19.1551 10.0079 19.1796C10.1795 19.2287 10.3593 19.2777 10.5432 19.3186C10.6331 19.339 10.7271 19.3594 10.821 19.3799C10.915 19.3962 11.009 19.4166 11.103 19.433C11.2909 19.4657 11.4789 19.4943 11.6628 19.5147C11.8466 19.5392 12.0305 19.5515 12.2062 19.5678C12.3819 19.5801 12.5535 19.5882 12.7169 19.5923C12.8804 19.5964 13.0316 19.5964 13.1746 19.5923C13.4565 19.5882 13.6894 19.5719 13.8528 19.5556C14.0163 19.5392 14.1103 19.527 14.1103 19.527C14.1103 19.527 14.0163 19.531 13.8528 19.527C13.6894 19.5229 13.4565 19.5147 13.1787 19.4902C13.0397 19.4779 12.8886 19.4616 12.7292 19.4411C12.5698 19.4207 12.4064 19.3962 12.2348 19.3635C12.0632 19.3308 11.8875 19.2981 11.7118 19.2573C11.5361 19.2164 11.3563 19.1715 11.1765 19.1184C11.0866 19.0938 11.0008 19.0652 10.9109 19.0407C10.8251 19.0121 10.7393 18.9835 10.6535 18.9549C10.4819 18.8936 10.3185 18.8323 10.1591 18.767C10.0815 18.7343 10.0038 18.7016 9.93029 18.6648C9.85674 18.6321 9.7832 18.5994 9.71373 18.5627C9.64427 18.5259 9.57481 18.4932 9.50943 18.4605C9.44406 18.4278 9.38277 18.391 9.32148 18.3584C9.26019 18.3257 9.20707 18.293 9.15395 18.2603C9.10083 18.2276 9.0518 18.199 9.00277 18.1704C8.90879 18.1132 8.82707 18.0601 8.7617 18.0192C8.70449 17.9784 8.65546 17.9457 8.62277 17.9212C8.02622 17.0672 7.61762 16.1928 7.46644 15.4083C7.86686 15.6493 8.47568 15.9681 9.30513 16.2868C10.8047 16.8588 13.3666 17.5452 17.0563 17.5452C20.7459 17.5452 23.3078 16.8629 24.8115 16.2868C25.645 15.9681 26.2498 15.6493 26.6502 15.4083C26.499 16.1928 26.0904 17.0631 25.4938 17.9212H25.4775ZM27.165 14.4562C27.0506 14.4031 26.9158 14.4195 26.8177 14.5012C26.7891 14.5257 23.888 16.8956 17.0399 16.8956C13.4728 16.8956 11.0049 16.2459 9.56255 15.6984C8.0017 15.1059 7.27031 14.5094 7.26622 14.5012C7.16816 14.4195 7.03332 14.4031 6.91891 14.4562C6.80451 14.5094 6.73096 14.6238 6.73096 14.7504C6.73096 15.5595 7.01698 16.4992 7.55633 17.4717C8.09159 18.4319 8.85567 19.3799 9.76277 20.2052C10.7352 21.096 11.863 21.8355 13.0275 22.3463C14.3432 22.9224 15.6956 23.2166 17.0481 23.2166C18.4006 23.2166 19.753 22.9224 21.0687 22.3463C22.2291 21.8355 23.361 21.096 24.3334 20.2052C25.2405 19.3758 26.0046 18.4319 26.5399 17.4717C27.0792 16.5033 27.3652 15.5595 27.3652 14.7504C27.3652 14.6238 27.2917 14.5094 27.1773 14.4562H27.165Z" fill="#250A20"/>
<path d="M6.96004 13.3979C6.99273 13.3816 7.02133 13.3652 7.05402 13.3489C7.11939 13.3203 7.18068 13.2876 7.24197 13.2631C7.27466 13.2508 7.30326 13.2345 7.33595 13.2222C7.36455 13.21 7.39724 13.1977 7.42584 13.1855C7.45445 13.1732 7.48713 13.1609 7.51574 13.1487C7.54434 13.1364 7.57702 13.1283 7.60563 13.116C7.63423 13.1037 7.66283 13.0915 7.69143 13.0833C7.72004 13.0751 7.74864 13.067 7.77315 13.0547C7.80176 13.0465 7.82627 13.0343 7.85079 13.0261C7.8753 13.0179 7.9039 13.0098 7.92433 13.0016C8.0224 12.9689 8.1082 12.9444 8.18175 12.9158C8.2553 12.8913 8.3125 12.8749 8.35336 12.8627C8.39422 12.8504 8.41465 12.8422 8.41465 12.8422C8.41465 12.8422 8.39422 12.8341 8.35336 12.8218C8.33293 12.8177 8.30842 12.8096 8.27982 12.8014C8.25121 12.7932 8.21853 12.785 8.17767 12.7769C8.10003 12.7605 8.00605 12.7401 7.89982 12.7319C7.87122 12.7278 7.8467 12.7237 7.81401 12.7237C7.78541 12.7197 7.75681 12.7197 7.72412 12.7197C7.66283 12.7156 7.59746 12.7156 7.52799 12.7156C7.49531 12.7156 7.45853 12.7156 7.42584 12.7156C7.38907 12.7197 7.3523 12.7197 7.31961 12.7237C7.24606 12.7278 7.16843 12.7401 7.09079 12.7523C7.04993 12.7564 7.01316 12.7646 6.9723 12.7728C6.93144 12.781 6.89058 12.7891 6.84972 12.7973C6.768 12.8177 6.68628 12.8422 6.60456 12.8749C6.43703 12.9321 6.26951 13.0098 6.11015 13.1119C5.9508 13.21 5.79553 13.3326 5.66069 13.4674C5.52586 13.6022 5.40328 13.7575 5.30521 13.9169C5.20306 14.0762 5.12543 14.2437 5.06822 14.4072C5.03554 14.4889 5.01511 14.5706 4.99059 14.6523C4.97833 14.6932 4.97016 14.7341 4.96199 14.7708C4.95382 14.8117 4.94564 14.8485 4.94156 14.8893C4.9293 14.967 4.91704 15.0405 4.91296 15.1141C4.90887 15.1508 4.90887 15.1876 4.90479 15.2203C4.90479 15.2571 4.90479 15.2898 4.90479 15.3224C4.90479 15.3919 4.90478 15.4532 4.90887 15.5145C4.91296 15.5431 4.91296 15.5758 4.91296 15.6044C4.91704 15.633 4.91704 15.6616 4.92113 15.6861C4.93339 15.7923 4.95382 15.8863 4.97016 15.9599C4.97833 15.9966 4.9865 16.0334 4.99468 16.062C5.00285 16.0906 5.01102 16.1151 5.01511 16.1356C5.02736 16.1764 5.03554 16.1968 5.03554 16.1968C5.03554 16.1968 5.04371 16.1764 5.05597 16.1356C5.07231 16.0947 5.08865 16.0375 5.11317 15.968C5.13769 15.8945 5.1622 15.8087 5.19898 15.7106C5.20715 15.6861 5.21532 15.6616 5.22349 15.6371C5.23166 15.6125 5.23984 15.5839 5.25209 15.5594C5.26435 15.5349 5.27252 15.5063 5.2807 15.4777C5.28887 15.4491 5.30113 15.4205 5.31338 15.3919C5.32564 15.3633 5.33381 15.3347 5.34607 15.3061C5.35833 15.2775 5.37059 15.2489 5.38285 15.2162C5.40736 15.1549 5.43188 15.0936 5.46048 15.0323C5.48908 14.971 5.51768 14.9098 5.55037 14.8444C5.56672 14.8117 5.58306 14.7831 5.5994 14.7504C5.61575 14.7177 5.63618 14.6891 5.65252 14.6564C5.72198 14.5338 5.79962 14.4113 5.88951 14.2928C5.97532 14.1743 6.06929 14.064 6.17553 13.9618C6.27768 13.8597 6.39209 13.7657 6.50649 13.6799C6.62499 13.5941 6.74757 13.5164 6.87015 13.447C6.90284 13.4306 6.93144 13.4102 6.96413 13.3939L6.96004 13.3979Z" fill="#250A20"/>
<path d="M29.1797 15.2899C29.1757 15.2531 29.1757 15.2204 29.1716 15.1836C29.1675 15.1101 29.1552 15.0365 29.1471 14.9589C29.143 14.918 29.1307 14.8813 29.1225 14.8404C29.1144 14.7996 29.1062 14.7628 29.0939 14.7219C29.0735 14.6402 29.049 14.5585 29.0204 14.4768C28.9632 14.3092 28.8855 14.1417 28.7834 13.9864C28.6812 13.8271 28.5628 13.6759 28.4279 13.537C28.289 13.4021 28.1378 13.2836 27.9785 13.1815C27.8191 13.0793 27.6516 13.0058 27.4841 12.9445C27.4023 12.9159 27.3165 12.8914 27.2389 12.871C27.198 12.8587 27.1572 12.8505 27.1163 12.8464C27.0755 12.8383 27.0387 12.8301 26.9978 12.8219C26.9202 12.8097 26.8426 12.7974 26.769 12.7974C26.7322 12.7933 26.6955 12.7933 26.6628 12.7892C26.626 12.7892 26.5933 12.7852 26.5606 12.7852C26.4912 12.7852 26.4299 12.7852 26.3686 12.7892C26.3359 12.7892 26.3073 12.7933 26.2787 12.7933C26.2501 12.7974 26.2215 12.7974 26.197 12.8015C26.0907 12.8138 25.9967 12.8342 25.9191 12.8464C25.8823 12.8546 25.8456 12.8628 25.817 12.871C25.7884 12.8791 25.7638 12.8873 25.7434 12.8914C25.7026 12.9036 25.6821 12.9118 25.6821 12.9118C25.6821 12.9118 25.7026 12.92 25.7434 12.9323C25.7843 12.9486 25.8415 12.9649 25.915 12.9854C25.9886 13.0099 26.0744 13.0344 26.1724 13.0712C26.197 13.0793 26.2215 13.0875 26.246 13.0957C26.2705 13.1039 26.2991 13.112 26.3236 13.1243C26.3481 13.1325 26.3767 13.1447 26.4054 13.1529C26.434 13.1611 26.4626 13.1733 26.4912 13.1856C26.5198 13.1978 26.5484 13.206 26.581 13.2183C26.6096 13.2305 26.6423 13.2428 26.6709 13.255C26.7322 13.2796 26.7935 13.3041 26.8548 13.3327C26.9161 13.3613 26.9774 13.3899 27.0428 13.4185C27.0755 13.4348 27.1041 13.4512 27.1367 13.4675C27.1694 13.4839 27.198 13.5043 27.2307 13.5206C27.3533 13.5901 27.48 13.6677 27.5944 13.7535C27.7129 13.8393 27.8232 13.9333 27.9253 14.0355C28.0275 14.1376 28.1215 14.2479 28.2114 14.3664C28.3013 14.4808 28.3748 14.6034 28.4483 14.7301C28.4647 14.7628 28.4851 14.7914 28.5015 14.8241C28.5178 14.8568 28.5342 14.8894 28.5505 14.918C28.5791 14.9793 28.6118 15.0406 28.6404 15.106C28.6526 15.1387 28.669 15.1673 28.6812 15.2C28.6976 15.2286 28.7058 15.2613 28.718 15.2899C28.7303 15.3185 28.7425 15.3512 28.7548 15.3798C28.7671 15.4084 28.7752 15.437 28.7875 15.4656C28.7957 15.4942 28.8079 15.5228 28.8202 15.5514C28.8283 15.58 28.8406 15.6086 28.8488 15.6331C28.8569 15.6576 28.8692 15.6862 28.8774 15.7107C28.8855 15.7352 28.8937 15.7638 28.9019 15.7843C28.9346 15.8823 28.9632 15.9681 28.9877 16.0376C29.0122 16.1112 29.0286 16.1684 29.0408 16.2092C29.0531 16.2501 29.0612 16.2705 29.0612 16.2705C29.0612 16.2705 29.0694 16.2501 29.0817 16.2092C29.0858 16.1888 29.0939 16.1643 29.1021 16.1357C29.1103 16.1071 29.1184 16.0744 29.1266 16.0376C29.143 15.96 29.1634 15.866 29.1716 15.7598C29.1757 15.7352 29.1797 15.7066 29.1797 15.678C29.1838 15.6494 29.1838 15.6208 29.1838 15.5881C29.1879 15.5269 29.1879 15.4615 29.1879 15.3961C29.1879 15.3634 29.1879 15.3266 29.1879 15.294L29.1797 15.2899Z" fill="#250A20"/>
</svg>
