<svg width="15" height="15" viewBox="0 0 15 15" fill="none" xmlns="http://www.w3.org/2000/svg">
<path d="M8.15184 5.02877C8.15184 4.90874 8.10415 4.79362 8.01927 4.70874C7.93439 4.62386 7.81927 4.57617 7.69923 4.57617C7.5792 4.57617 7.46407 4.62386 7.37919 4.70874C7.29431 4.79362 7.24663 4.90874 7.24663 5.02877V6.38658H5.88882C5.76878 6.38658 5.65366 6.43427 5.56878 6.51915C5.4839 6.60403 5.43622 6.71915 5.43622 6.83919C5.43622 6.95922 5.4839 7.07435 5.56878 7.15923C5.65366 7.24411 5.76878 7.29179 5.88882 7.29179H7.24663V8.6496C7.24663 8.76964 7.29431 8.88476 7.37919 8.96964C7.46407 9.05452 7.5792 9.1022 7.69923 9.1022C7.81927 9.1022 7.93439 9.05452 8.01927 8.96964C8.10415 8.88476 8.15184 8.76964 8.15184 8.6496V7.29179H9.50965C9.62968 7.29179 9.7448 7.24411 9.82968 7.15923C9.91456 7.07435 9.96225 6.95922 9.96225 6.83919C9.96225 6.71915 9.91456 6.60403 9.82968 6.51915C9.7448 6.43427 9.62968 6.38658 9.50965 6.38658H8.15184V5.02877Z" fill="#363330"/>
<path d="M0.457608 0.955078C0.33757 0.955078 0.222449 1.00276 0.137569 1.08764C0.0526897 1.17252 0.00500488 1.28764 0.00500488 1.40768C0.00500488 1.52772 0.0526897 1.64284 0.137569 1.72772C0.222449 1.8126 0.33757 1.86028 0.457608 1.86028H1.46239L1.82537 3.31495L3.18137 10.543C3.20079 10.6467 3.25583 10.7404 3.33699 10.8078C3.41814 10.8753 3.52031 10.9122 3.62583 10.9123H4.53103C4.05088 10.9123 3.5904 11.1031 3.25088 11.4426C2.91136 11.7821 2.72062 12.2426 2.72062 12.7228C2.72062 13.2029 2.91136 13.6634 3.25088 14.0029C3.5904 14.3424 4.05088 14.5332 4.53103 14.5332C5.01119 14.5332 5.47167 14.3424 5.81119 14.0029C6.15071 13.6634 6.34145 13.2029 6.34145 12.7228C6.34145 12.2426 6.15071 11.7821 5.81119 11.4426C5.47167 11.1031 5.01119 10.9123 4.53103 10.9123H10.8675C10.3873 10.9123 9.92684 11.1031 9.58732 11.4426C9.2478 11.7821 9.05707 12.2426 9.05707 12.7228C9.05707 13.2029 9.2478 13.6634 9.58732 14.0029C9.92684 14.3424 10.3873 14.5332 10.8675 14.5332C11.3476 14.5332 11.8081 14.3424 12.1476 14.0029C12.4871 13.6634 12.6779 13.2029 12.6779 12.7228C12.6779 12.2426 12.4871 11.7821 12.1476 11.4426C11.8081 11.1031 11.3476 10.9123 10.8675 10.9123H11.7727C11.8782 10.9122 11.9804 10.8753 12.0615 10.8078C12.1427 10.7404 12.1977 10.6467 12.2171 10.543L13.5749 3.30137C13.5872 3.23605 13.5849 3.16884 13.5682 3.10451C13.5515 3.04018 13.5209 2.98031 13.4784 2.92915C13.436 2.878 13.3829 2.83682 13.3227 2.80853C13.2626 2.78025 13.1969 2.76555 13.1305 2.76549H2.62105L2.25444 1.29815C2.23001 1.20019 2.17353 1.11322 2.09398 1.05105C2.01443 0.988888 1.91638 0.955106 1.81542 0.955078H0.457608ZM4.00149 10.0071L2.81295 3.6707H12.5856L11.397 10.0071H4.00149ZM5.43624 12.7228C5.43624 12.9628 5.34087 13.1931 5.17111 13.3628C5.00135 13.5326 4.77111 13.628 4.53103 13.628C4.29096 13.628 4.06072 13.5326 3.89096 13.3628C3.7212 13.1931 3.62583 12.9628 3.62583 12.7228C3.62583 12.4827 3.7212 12.2524 3.89096 12.0827C4.06072 11.9129 4.29096 11.8176 4.53103 11.8176C4.77111 11.8176 5.00135 11.9129 5.17111 12.0827C5.34087 12.2524 5.43624 12.4827 5.43624 12.7228ZM11.7727 12.7228C11.7727 12.9628 11.6773 13.1931 11.5076 13.3628C11.3378 13.5326 11.1076 13.628 10.8675 13.628C10.6274 13.628 10.3972 13.5326 10.2274 13.3628C10.0576 13.1931 9.96227 12.9628 9.96227 12.7228C9.96227 12.4827 10.0576 12.2524 10.2274 12.0827C10.3972 11.9129 10.6274 11.8176 10.8675 11.8176C11.1076 11.8176 11.3378 11.9129 11.5076 12.0827C11.6773 12.2524 11.7727 12.4827 11.7727 12.7228Z" fill="#363330"/>
</svg>
