<svg width="15" height="15" viewBox="0 0 15 15" fill="none" xmlns="http://www.w3.org/2000/svg">
<path d="M8.21788 5.35104C8.21788 5.231 8.17019 5.11588 8.08531 5.031C8.00043 4.94612 7.88531 4.89844 7.76527 4.89844C7.64524 4.89844 7.53011 4.94612 7.44523 5.031C7.36035 5.11588 7.31267 5.231 7.31267 5.35104V6.70885H5.95486C5.83482 6.70885 5.7197 6.75653 5.63482 6.84141C5.54994 6.92629 5.50226 7.04141 5.50226 7.16145C5.50226 7.28149 5.54994 7.39661 5.63482 7.48149C5.7197 7.56637 5.83482 7.61406 5.95486 7.61406H7.31267V8.97186C7.31267 9.0919 7.36035 9.20702 7.44523 9.2919C7.53011 9.37678 7.64524 9.42447 7.76527 9.42447C7.88531 9.42447 8.00043 9.37678 8.08531 9.2919C8.17019 9.20702 8.21788 9.0919 8.21788 8.97186V7.61406H9.57569C9.69572 7.61406 9.81084 7.56637 9.89572 7.48149C9.9806 7.39661 10.0283 7.28149 10.0283 7.16145C10.0283 7.04141 9.9806 6.92629 9.89572 6.84141C9.81084 6.75653 9.69572 6.70885 9.57569 6.70885H8.21788V5.35104Z" fill="#363330"/>
<path d="M0.523648 1.27734C0.40361 1.27734 0.288489 1.32503 0.203609 1.40991C0.11873 1.49479 0.0710449 1.60991 0.0710449 1.72995C0.0710449 1.84998 0.11873 1.96511 0.203609 2.04999C0.288489 2.13486 0.40361 2.18255 0.523648 2.18255H1.52843L1.89141 3.63722L3.24741 10.8653C3.26683 10.969 3.32187 11.0627 3.40303 11.1301C3.48418 11.1975 3.58635 11.2345 3.69187 11.2346H4.59707C4.11692 11.2346 3.65644 11.4253 3.31692 11.7649C2.9774 12.1044 2.78666 12.5649 2.78666 13.045C2.78666 13.5252 2.9774 13.9857 3.31692 14.3252C3.65644 14.6647 4.11692 14.8554 4.59707 14.8554C5.07723 14.8554 5.53771 14.6647 5.87723 14.3252C6.21675 13.9857 6.40749 13.5252 6.40749 13.045C6.40749 12.5649 6.21675 12.1044 5.87723 11.7649C5.53771 11.4253 5.07723 11.2346 4.59707 11.2346H10.9335C10.4534 11.2346 9.99288 11.4253 9.65336 11.7649C9.31384 12.1044 9.12311 12.5649 9.12311 13.045C9.12311 13.5252 9.31384 13.9857 9.65336 14.3252C9.99288 14.6647 10.4534 14.8554 10.9335 14.8554C11.4137 14.8554 11.8742 14.6647 12.2137 14.3252C12.5532 13.9857 12.7439 13.5252 12.7439 13.045C12.7439 12.5649 12.5532 12.1044 12.2137 11.7649C11.8742 11.4253 11.4137 11.2346 10.9335 11.2346H11.8387C11.9442 11.2345 12.0464 11.1975 12.1276 11.1301C12.2087 11.0627 12.2638 10.969 12.2832 10.8653L13.641 3.62364C13.6532 3.55832 13.6509 3.4911 13.6342 3.42677C13.6176 3.36244 13.5869 3.30257 13.5445 3.25142C13.5021 3.20027 13.4489 3.15909 13.3888 3.1308C13.3286 3.10251 13.263 3.08782 13.1965 3.08776H2.68709L2.32048 1.62042C2.29605 1.52246 2.23957 1.43548 2.16002 1.37332C2.08047 1.31115 1.98242 1.27737 1.88146 1.27734H0.523648ZM4.06753 10.3294L2.87899 3.99296H12.6516L11.4631 10.3294H4.06753ZM5.50228 13.045C5.50228 13.2851 5.40691 13.5153 5.23715 13.6851C5.06739 13.8549 4.83715 13.9502 4.59707 13.9502C4.357 13.9502 4.12676 13.8549 3.957 13.6851C3.78724 13.5153 3.69187 13.2851 3.69187 13.045C3.69187 12.8049 3.78724 12.5747 3.957 12.4049C4.12676 12.2352 4.357 12.1398 4.59707 12.1398C4.83715 12.1398 5.06739 12.2352 5.23715 12.4049C5.40691 12.5747 5.50228 12.8049 5.50228 13.045ZM11.8387 13.045C11.8387 13.2851 11.7434 13.5153 11.5736 13.6851C11.4038 13.8549 11.1736 13.9502 10.9335 13.9502C10.6934 13.9502 10.4632 13.8549 10.2934 13.6851C10.1237 13.5153 10.0283 13.2851 10.0283 13.045C10.0283 12.8049 10.1237 12.5747 10.2934 12.4049C10.4632 12.2352 10.6934 12.1398 10.9335 12.1398C11.1736 12.1398 11.4038 12.2352 11.5736 12.4049C11.7434 12.5747 11.8387 12.8049 11.8387 13.045Z" fill="#363330"/>
</svg>
