<svg width="15" height="15" viewBox="0 0 15 15" fill="none" xmlns="http://www.w3.org/2000/svg">
<path d="M8.33384 5.11667C8.33384 4.99663 8.28616 4.88151 8.20128 4.79663C8.1164 4.71175 8.00128 4.66406 7.88124 4.66406C7.7612 4.66406 7.64608 4.71175 7.5612 4.79663C7.47632 4.88151 7.42864 4.99663 7.42864 5.11667V6.47447H6.07083C5.95079 6.47447 5.83567 6.52216 5.75079 6.60704C5.66591 6.69192 5.61823 6.80704 5.61823 6.92708C5.61823 7.04712 5.66591 7.16224 5.75079 7.24712C5.83567 7.332 5.95079 7.37968 6.07083 7.37968H7.42864V8.73749C7.42864 8.85753 7.47632 8.97265 7.5612 9.05753C7.64608 9.14241 7.7612 9.19009 7.88124 9.19009C8.00128 9.19009 8.1164 9.14241 8.20128 9.05753C8.28616 8.97265 8.33384 8.85753 8.33384 8.73749V7.37968H9.69165C9.81169 7.37968 9.92681 7.332 10.0117 7.24712C10.0966 7.16224 10.1443 7.04712 10.1443 6.92708C10.1443 6.80704 10.0966 6.69192 10.0117 6.60704C9.92681 6.52216 9.81169 6.47447 9.69165 6.47447H8.33384V5.11667Z" fill="#363330"/>
<path d="M0.639615 1.04297C0.519577 1.04297 0.404456 1.09065 0.319576 1.17553C0.234697 1.26041 0.187012 1.37553 0.187012 1.49557C0.187012 1.61561 0.234697 1.73073 0.319576 1.81561C0.404456 1.90049 0.519577 1.94817 0.639615 1.94817H1.64439L2.00738 3.40284L3.36338 10.6309C3.3828 10.7346 3.43784 10.8283 3.51899 10.8957C3.60015 10.9632 3.70232 11.0001 3.80784 11.0002H4.71304C4.23289 11.0002 3.77241 11.191 3.43289 11.5305C3.09337 11.87 2.90263 12.3305 2.90263 12.8106C2.90263 13.2908 3.09337 13.7513 3.43289 14.0908C3.77241 14.4303 4.23289 14.6211 4.71304 14.6211C5.19319 14.6211 5.65368 14.4303 5.9932 14.0908C6.33271 13.7513 6.52345 13.2908 6.52345 12.8106C6.52345 12.3305 6.33271 11.87 5.9932 11.5305C5.65368 11.191 5.19319 11.0002 4.71304 11.0002H11.0495C10.5693 11.0002 10.1088 11.191 9.76933 11.5305C9.42981 11.87 9.23907 12.3305 9.23907 12.8106C9.23907 13.2908 9.42981 13.7513 9.76933 14.0908C10.1088 14.4303 10.5693 14.6211 11.0495 14.6211C11.5296 14.6211 11.9901 14.4303 12.3296 14.0908C12.6692 13.7513 12.8599 13.2908 12.8599 12.8106C12.8599 12.3305 12.6692 11.87 12.3296 11.5305C11.9901 11.191 11.5296 11.0002 11.0495 11.0002H11.9547C12.0602 11.0001 12.1624 10.9632 12.2435 10.8957C12.3247 10.8283 12.3797 10.7346 12.3991 10.6309L13.757 3.38926C13.7692 3.32394 13.7669 3.25673 13.7502 3.1924C13.7335 3.12807 13.7029 3.0682 13.6605 3.01705C13.618 2.96589 13.5649 2.92471 13.5047 2.89642C13.4446 2.86814 13.379 2.85344 13.3125 2.85338H2.80306L2.43645 1.38604C2.41202 1.28808 2.35553 1.20111 2.27598 1.13894C2.19643 1.07678 2.09838 1.043 1.99742 1.04297H0.639615ZM4.1835 10.095L2.99496 3.75859H12.7676L11.579 10.095H4.1835ZM5.61825 12.8106C5.61825 13.0507 5.52288 13.281 5.35312 13.4507C5.18336 13.6205 4.95312 13.7159 4.71304 13.7159C4.47297 13.7159 4.24272 13.6205 4.07296 13.4507C3.90321 13.281 3.80784 13.0507 3.80784 12.8106C3.80784 12.5706 3.90321 12.3403 4.07296 12.1706C4.24272 12.0008 4.47297 11.9054 4.71304 11.9054C4.95312 11.9054 5.18336 12.0008 5.35312 12.1706C5.52288 12.3403 5.61825 12.5706 5.61825 12.8106ZM11.9547 12.8106C11.9547 13.0507 11.8593 13.281 11.6896 13.4507C11.5198 13.6205 11.2896 13.7159 11.0495 13.7159C10.8094 13.7159 10.5792 13.6205 10.4094 13.4507C10.2396 13.281 10.1443 13.0507 10.1443 12.8106C10.1443 12.5706 10.2396 12.3403 10.4094 12.1706C10.5792 12.0008 10.8094 11.9054 11.0495 11.9054C11.2896 11.9054 11.5198 12.0008 11.6896 12.1706C11.8593 12.3403 11.9547 12.5706 11.9547 12.8106Z" fill="#363330"/>
</svg>
