<svg width="31" height="34" viewBox="0 0 31 34" fill="none" xmlns="http://www.w3.org/2000/svg">
<path d="M27.6829 29.2317C27.4465 28.4581 27.1242 27.5985 26.7374 26.7389C26.3506 25.8794 25.8993 24.9983 25.4051 24.1173C25.3406 24.2247 25.2762 24.3537 25.1902 24.4611C25.1257 24.5686 25.0398 24.6975 24.9753 24.8049C24.8894 24.9124 24.8249 25.0198 24.7389 25.1273C24.653 25.2347 24.567 25.3422 24.4811 25.4496L24.4596 25.4711L24.4381 25.4926L24.4166 25.5141L24.3951 25.5356L24.3092 25.6215C24.3736 25.8149 24.4596 26.0513 24.567 26.3092C24.653 26.567 24.7604 26.8464 24.8464 27.1043C24.9323 27.3621 24.9968 27.62 25.0183 27.8134C25.0398 28.0068 25.0398 28.1787 24.9538 28.2432C24.9323 28.2647 24.9109 28.2861 24.8679 28.3076C24.8464 28.3291 24.8034 28.3506 24.7604 28.3506C24.7175 28.3721 24.696 28.3721 24.653 28.3721C24.61 28.3721 24.567 28.3721 24.5241 28.3721C24.4596 28.3721 24.3736 28.3506 24.2877 28.3506C24.2017 28.3291 24.1158 28.3076 24.0298 28.2861C23.9439 28.2647 23.8364 28.2217 23.7505 28.1787C23.643 28.1357 23.5356 28.0927 23.4281 28.0498C23.2992 27.9853 23.1488 27.9208 22.9983 27.8349C22.8479 27.7489 22.6975 27.663 22.5471 27.577C22.3967 27.4911 22.2247 27.4051 22.0743 27.2977C21.9024 27.1902 21.752 27.1043 21.5801 26.9968C22.2247 26.3521 22.8479 25.643 23.4066 24.9124C23.9653 24.1603 24.4811 23.3867 24.9323 22.5701C25.3836 21.7535 25.7704 20.9155 26.0927 20.0344C26.4151 19.1749 26.6729 18.2723 26.8449 17.3698C27.2531 15.3283 27.2317 13.4158 26.8449 11.7182C26.4795 10.0421 25.7704 8.55934 24.7819 7.37745C23.8149 6.19556 22.5901 5.29303 21.1718 4.71283C19.775 4.13263 18.1633 3.89625 16.4442 4.0037C15.3053 4.08965 14.1664 4.32603 13.0705 4.69134C11.9745 5.05665 10.9216 5.5509 9.91161 6.15259C8.90163 6.75428 7.93463 7.46341 7.05359 8.27999C6.15105 9.07508 5.33447 9.97761 4.58236 10.9446C4.38896 10.5793 4.21705 10.214 4.08812 9.91314C3.95918 9.59081 3.85174 9.31145 3.80876 9.05359C3.7443 8.79572 3.72281 8.58083 3.7443 8.38743C3.76578 8.19403 3.83025 8.04361 3.91621 7.93617C3.9377 7.89319 3.98067 7.8717 4.04514 7.82872C4.08812 7.78574 4.15258 7.76425 4.21705 7.74276C4.28152 7.72128 4.36747 7.69979 4.45343 7.6783C4.53938 7.65681 4.62534 7.65681 4.7113 7.63532C4.81874 7.63532 4.92618 7.63532 5.03363 7.65681C5.14107 7.6783 5.24852 7.69979 5.37745 7.74276C5.4849 7.78574 5.61383 7.82872 5.72127 7.91468C5.82872 7.97914 5.95765 8.0651 6.0651 8.17254C6.17254 8.04361 6.30147 7.91468 6.40892 7.78574C6.53785 7.65681 6.6453 7.54937 6.77423 7.42043C6.90316 7.31299 7.0321 7.18405 7.16103 7.07661C7.28996 6.96916 7.44039 6.86172 7.59081 6.75428C7.6123 6.75428 7.6123 6.73279 7.63379 6.73279C7.65527 6.73279 7.65527 6.7113 7.67676 6.7113C7.69825 6.7113 7.69825 6.68981 7.71974 6.68981C7.74123 6.68981 7.74123 6.66832 7.76272 6.66832C7.50485 6.43194 7.2255 6.23854 6.94614 6.08812C6.66678 5.9377 6.36594 5.80876 6.0651 5.72281C5.76425 5.63685 5.46341 5.57239 5.16256 5.5509C4.86172 5.52941 4.58236 5.50792 4.30301 5.52941C4.10961 5.5509 3.9377 5.57239 3.76578 5.59388C3.59387 5.63685 3.44345 5.67983 3.29303 5.72281C3.14261 5.76579 3.01367 5.83025 2.90623 5.91621C2.79878 5.98068 2.69134 6.06663 2.62687 6.15259C2.3905 6.41045 2.26156 6.73279 2.1971 7.11959C2.13263 7.50639 2.15412 7.97914 2.26156 8.49488C2.36901 9.01061 2.54092 9.59081 2.7773 10.2355C3.03516 10.8587 3.33601 11.5463 3.7443 12.2769C3.48643 12.6852 3.22856 13.0935 2.99218 13.5233C2.75581 13.9531 2.54092 14.3828 2.34752 14.8341C2.15412 15.2854 1.96072 15.7366 1.8103 16.2094C1.63838 16.6821 1.50945 17.1549 1.38052 17.6277C0.907762 19.4542 0.757339 21.2163 0.907762 22.8495C1.05818 24.5041 1.53094 26.0083 2.28305 27.3191C3.03516 28.6515 4.08812 29.7474 5.37745 30.564C6.68827 31.3805 8.25696 31.8963 10.0405 32.0037C10.5778 32.0252 11.0935 32.0252 11.6307 31.9822C12.1679 31.9393 12.7052 31.8748 13.2424 31.7673C13.7796 31.6599 14.3168 31.5095 14.8541 31.3376C15.3913 31.1657 15.907 30.9508 16.4442 30.7144L15.1764 28.3291C14.8111 28.4795 14.4458 28.6085 14.059 28.7159C13.6937 28.8234 13.3069 28.9093 12.9415 28.9738C12.5762 29.0383 12.1894 29.0812 11.8241 29.1242C11.4588 29.1457 11.072 29.1457 10.7067 29.1457C9.26694 29.0812 7.9991 28.6944 6.94614 28.0498C5.89318 27.4051 5.03363 26.5241 4.41045 25.4711C3.78727 24.4181 3.40047 23.1933 3.25005 21.861C3.09963 20.5501 3.20707 19.1104 3.59387 17.6277C3.98067 16.1449 4.60385 14.7481 5.39894 13.4588C6.19403 12.191 7.18252 11.0306 8.27845 10.0421C9.37439 9.05359 10.5993 8.23701 11.8886 7.63532C13.1994 7.03363 14.5747 6.66832 15.95 6.58236C17.3468 6.49641 18.6361 6.73279 19.775 7.20554C20.9139 7.69979 21.9024 8.4519 22.6545 9.39741C23.4281 10.3644 23.9868 11.5678 24.2662 12.9216C24.5455 14.2969 24.5455 15.8226 24.2232 17.4557C24.0728 18.1649 23.8794 18.874 23.6215 19.5617C23.3637 20.2493 23.0628 20.9155 22.6975 21.5601C22.3537 22.2048 21.9454 22.828 21.4941 23.4082C21.0643 23.9884 20.5701 24.5471 20.0759 25.0628C20.0759 24.8909 20.0973 24.719 20.0973 24.5256C20.0973 24.3537 20.1188 24.1603 20.1188 24.0099C20.1188 23.8379 20.1403 23.6875 20.1403 23.5586C20.1403 23.4297 20.1403 23.3222 20.1403 23.2577C20.1403 23.1933 20.1403 23.1288 20.1188 23.0858C20.0973 23.0429 20.0973 22.9999 20.0759 22.9784C20.0544 22.9569 20.0329 22.9354 20.0114 22.9354C19.9899 22.9139 19.9469 22.9139 19.9254 22.9139C19.9039 22.9139 19.8825 22.9139 19.861 22.9139C19.8395 22.9139 19.818 22.9139 19.7965 22.9354C19.775 22.9354 19.775 22.9569 19.7535 22.9569H19.732L15.3053 24.3967C15.3053 24.3967 15.2623 24.4181 15.2194 24.4396C15.1764 24.4611 15.1119 24.5041 15.0689 24.5471C15.026 24.6115 14.983 24.676 14.9615 24.762C14.9615 24.8479 14.983 24.9769 15.0475 25.1273C15.0475 25.1273 15.0475 25.1488 15.0689 25.1488C15.0689 25.1488 15.0689 25.1703 15.0904 25.1703C15.0904 25.1703 15.0904 25.1917 15.1119 25.1917C15.1119 25.1917 15.1119 25.2132 15.1334 25.2132C15.3268 25.6215 15.6062 26.1587 15.95 26.7604C16.2723 27.3836 16.6376 28.0713 17.0029 28.7374C17.3683 29.4251 17.7336 30.0912 18.0559 30.6714C18.3782 31.2516 18.6361 31.7459 18.808 32.0467C18.8295 32.0682 18.8295 32.0897 18.851 32.1327C18.8725 32.1541 18.8725 32.1756 18.894 32.1971C18.9155 32.2186 18.9155 32.2401 18.9155 32.2616C18.9155 32.2831 18.9369 32.3046 18.9369 32.3046C18.9799 32.3905 19.0229 32.455 19.0659 32.498C19.1089 32.5624 19.1518 32.6054 19.1733 32.6269C19.2163 32.6699 19.2378 32.6914 19.2808 32.7129C19.3237 32.7343 19.3452 32.7343 19.3667 32.7343C19.4312 32.7343 19.4742 32.7129 19.5171 32.6914C19.5601 32.6699 19.6031 32.6054 19.6246 32.5624C19.6461 32.5195 19.6891 32.455 19.7105 32.412C19.732 32.369 19.732 32.3046 19.7535 32.2616C19.7535 32.2401 19.7535 32.2401 19.7535 32.2186C19.7535 32.1971 19.7535 32.1756 19.7535 32.1327C19.7535 32.1112 19.7535 32.0682 19.7535 32.0467C19.7535 32.0037 19.7535 31.9822 19.7535 31.9393C19.7535 31.7888 19.775 31.6169 19.775 31.445C19.775 31.2731 19.7965 31.0797 19.7965 30.9078C19.7965 30.7359 19.818 30.5855 19.818 30.478C19.818 30.3706 19.8395 30.2846 19.8395 30.2846C20.4412 30.6499 21.0643 30.9937 21.6445 31.3376C22.2462 31.6599 22.8264 31.9822 23.4066 32.2401C23.9653 32.498 24.5241 32.7343 25.0183 32.8848C25.5125 33.0567 25.9853 33.1426 26.3721 33.1856C26.4366 33.1856 26.4795 33.1856 26.544 33.1856C26.587 33.1856 26.6515 33.1856 26.6944 33.1856C26.7374 33.1856 26.8019 33.1856 26.8449 33.1641C26.8878 33.1641 26.9308 33.1426 26.9953 33.1426C27.0597 33.1211 27.1242 33.1211 27.1887 33.0997C27.2531 33.0782 27.3176 33.0567 27.3821 33.0137C27.4465 32.9922 27.4895 32.9492 27.554 32.9063C27.597 32.8633 27.6614 32.8203 27.7044 32.7773C27.9838 32.4765 28.1127 32.0037 28.1127 31.402C28.1127 30.8218 27.9623 30.1127 27.7474 29.3176L27.6829 29.2317Z" fill="#929392"/>
<path d="M11.6736 14.1258C11.9959 14.1258 12.2323 14.2118 12.4257 14.3837C12.6191 14.5556 12.7051 14.792 12.7051 15.1143C12.7051 15.4366 12.5976 15.6945 12.4042 15.8664C12.1893 16.0383 11.9315 16.1458 11.5876 16.1458C10.814 16.1458 10.4272 15.802 10.4272 15.1358H9.28833V15.2218C9.28833 15.8449 9.50322 16.3177 9.91151 16.64C10.3198 16.9838 10.8785 17.1343 11.5876 17.1343C12.2323 17.1343 12.7695 16.9624 13.2208 16.597C13.6721 16.2532 13.887 15.7375 13.887 15.1143C13.887 14.8994 13.844 14.6845 13.7795 14.4911C13.715 14.2977 13.6291 14.1473 13.5646 14.0399C13.4787 13.9324 13.3927 13.825 13.2853 13.7605C13.1778 13.6746 13.0919 13.6316 13.0489 13.6101C13.0059 13.5886 12.9629 13.5671 12.9414 13.5671L13.0274 13.5241C13.0919 13.5026 13.1563 13.4382 13.2423 13.3522C13.3282 13.2663 13.4142 13.1803 13.4787 13.0729C13.5646 12.9654 13.6291 12.815 13.6936 12.6431C13.758 12.4712 13.7795 12.2778 13.7795 12.0844C13.7795 11.5042 13.5861 11.0529 13.1993 10.7306C12.8125 10.4082 12.2753 10.2363 11.6091 10.2363C10.943 10.2363 10.4272 10.3868 10.019 10.7306C9.61066 11.0529 9.41726 11.5042 9.41726 12.0844V12.1488H10.5347C10.5347 11.8265 10.6421 11.5901 10.814 11.4397C11.0074 11.2893 11.2653 11.2033 11.6091 11.2033C11.953 11.2033 12.2323 11.2893 12.4042 11.4397C12.5761 11.6116 12.6836 11.8265 12.6836 12.1059C12.6836 12.4067 12.5976 12.6646 12.4042 12.8365C12.2108 13.0084 11.9744 13.0944 11.6736 13.0944H10.5347V14.0828L11.7381 14.1043L11.6736 14.1258ZM19.3022 17.0483V15.9954H16.5516L18.1418 14.4267C18.5715 14.0184 18.8724 13.6316 19.0443 13.2878C19.2162 12.9439 19.3022 12.5786 19.3022 12.2133C19.3022 11.6116 19.1088 11.1174 18.7434 10.795C18.3566 10.4512 17.8409 10.2793 17.1533 10.2793C16.4656 10.2793 15.9284 10.4512 15.5201 10.795C15.1118 11.1389 14.9184 11.6116 14.9184 12.2348V12.2993H16.0573C16.0573 11.6331 16.4012 11.2893 17.1318 11.2893C17.8194 11.2893 18.1632 11.6116 18.1632 12.2563C18.1632 12.5142 18.0988 12.7505 17.9913 12.9869C17.8839 13.2233 17.669 13.4812 17.3896 13.7605L15.0688 16.0168V17.0698H19.3451L19.3022 17.0483Z" fill="#929392"/>
<path d="M10.7929 22.7003V17.6504H9.95478V21.4969L7.95632 17.6504H6.70996V22.7003H7.54803V18.8753L9.56798 22.7003H10.7929ZM12.5549 22.2275C12.5549 22.0986 12.512 22.0126 12.426 21.9267C12.3401 21.8622 12.2326 21.8192 12.0822 21.8192C11.9533 21.8192 11.8458 21.8622 11.7599 21.9267C11.6739 21.9911 11.6309 22.0986 11.6309 22.2275V22.3779C11.6309 22.5069 11.6739 22.5928 11.7599 22.6788C11.8458 22.7433 11.9533 22.7862 12.1037 22.7862C12.2541 22.7862 12.3615 22.7433 12.4475 22.6788C12.5335 22.6143 12.5764 22.5069 12.5764 22.3779L12.5549 22.2275ZM16.3585 21.3465H15.5634C15.5634 21.8192 15.3055 22.0556 14.8113 22.0556C14.317 22.0556 14.0807 21.7977 14.0807 21.3035V20.5514C14.0807 20.0357 14.317 19.7993 14.8113 19.7993C15.3055 19.7993 15.5634 20.0357 15.5634 20.5084H16.3585V20.4439C16.3585 20.0142 16.2295 19.6703 15.9502 19.434C15.6708 19.1976 15.3055 19.0687 14.8328 19.0687C14.36 19.0687 13.9947 19.1976 13.7153 19.434C13.436 19.6918 13.2856 20.0357 13.2856 20.4654V21.3465C13.2856 21.7763 13.436 22.1201 13.7153 22.3779C13.9947 22.6143 14.36 22.7433 14.8328 22.7433C15.3055 22.7433 15.6923 22.6358 15.9717 22.3994C16.251 22.1631 16.4015 21.8192 16.4015 21.3895L16.38 21.3465H16.3585ZM22.0315 22.7003V20.1861C22.0315 19.8423 21.9456 19.5844 21.7737 19.391C21.6018 19.1976 21.3439 19.1116 21.0431 19.1116C20.7637 19.1116 20.4843 19.1976 20.2265 19.348L19.8397 19.5844C19.6893 19.2621 19.4099 19.1116 19.0016 19.1116C18.7437 19.1116 18.4859 19.1761 18.2495 19.3265L17.9272 19.5199V19.1546H17.1106V22.7218H17.9272V20.272L18.3569 20.0142C18.5289 19.9282 18.6793 19.8852 18.7867 19.8852C19.0446 19.8852 19.152 20.0357 19.152 20.3365V22.7433H19.9686V20.2935L20.3984 20.0357C20.5703 19.9497 20.7207 19.8852 20.8282 19.8852C21.086 19.8852 21.215 20.0357 21.215 20.315V22.7433H22.0315V22.7003Z" fill="#929392"/>
<path d="M24.3092 13.2018C27.7044 13.2018 30.4765 10.4512 30.4765 7.0345C30.4765 3.61777 27.7259 0.867188 24.3092 0.867188C20.8924 0.867188 18.1418 3.61777 18.1418 7.0345C18.1418 10.4297 20.8924 13.2018 24.3092 13.2018Z" fill="#929392"/>
<path d="M24.3092 13.2018C27.7044 13.2018 30.4765 10.4512 30.4765 7.0345C30.4765 3.61777 27.7259 0.867188 24.3092 0.867188C20.8924 0.867188 18.1418 3.61777 18.1418 7.0345C18.1418 10.4297 20.8924 13.2018 24.3092 13.2018Z" stroke="white" stroke-width="0.623178"/>
<path d="M26.5009 10.558V9.89186H24.9967V4.00391H24.2231C23.7504 4.43368 23.2991 4.73453 22.8478 4.88495V5.59408C23.3421 5.50813 23.8148 5.25026 24.2446 4.82048V9.91335H22.3321V10.5795H26.5009V10.558Z" fill="#FEFEFE"/>
</svg>
