<svg width="14" height="15" viewBox="0 0 14 15" fill="none" xmlns="http://www.w3.org/2000/svg">
<path d="M7.56471 5.23263C7.56471 5.1212 7.52044 5.01434 7.44166 4.93555C7.36287 4.85676 7.25601 4.8125 7.14458 4.8125C7.03316 4.8125 6.92629 4.85676 6.84751 4.93555C6.76872 5.01434 6.72445 5.1212 6.72445 5.23263V6.49301H5.46407C5.35265 6.49301 5.24579 6.53727 5.167 6.61606C5.08821 6.69485 5.04395 6.80171 5.04395 6.91314C5.04395 7.02456 5.08821 7.13142 5.167 7.21021C5.24579 7.289 5.35265 7.33326 5.46407 7.33326H6.72445V8.59364C6.72445 8.70507 6.76872 8.81193 6.84751 8.89072C6.92629 8.96951 7.03316 9.01377 7.14458 9.01377C7.25601 9.01377 7.36287 8.96951 7.44166 8.89072C7.52044 8.81193 7.56471 8.70507 7.56471 8.59364V7.33326H8.82509C8.93651 7.33326 9.04338 7.289 9.12216 7.21021C9.20095 7.13142 9.24522 7.02456 9.24522 6.91314C9.24522 6.80171 9.20095 6.69485 9.12216 6.61606C9.04338 6.53727 8.93651 6.49301 8.82509 6.49301H7.56471V5.23263Z" fill="#363330"/>
<path d="M0.42208 1.44922C0.310656 1.44922 0.203795 1.49348 0.125006 1.57227C0.0462164 1.65106 0.00195313 1.75792 0.00195312 1.86935C0.00195313 1.98077 0.0462164 2.08763 0.125006 2.16642C0.203795 2.24521 0.310656 2.28947 0.42208 2.28947H1.35476L1.6917 3.63976L2.95041 10.3492C2.96843 10.4455 3.01952 10.5324 3.09485 10.595C3.17019 10.6576 3.26502 10.6919 3.36297 10.692H4.20322C3.75753 10.692 3.33008 10.8691 3.01493 11.1842C2.69977 11.4994 2.52272 11.9268 2.52272 12.3725C2.52272 12.8182 2.69977 13.2457 3.01493 13.5608C3.33008 13.876 3.75753 14.053 4.20322 14.053C4.64892 14.053 5.07637 13.876 5.39152 13.5608C5.70668 13.2457 5.88373 12.8182 5.88373 12.3725C5.88373 11.9268 5.70668 11.4994 5.39152 11.1842C5.07637 10.8691 4.64892 10.692 4.20322 10.692H10.085C9.63931 10.692 9.21186 10.8691 8.89671 11.1842C8.58155 11.4994 8.4045 11.9268 8.4045 12.3725C8.4045 12.8182 8.58155 13.2457 8.89671 13.5608C9.21186 13.876 9.63931 14.053 10.085 14.053C10.5307 14.053 10.9581 13.876 11.2733 13.5608C11.5885 13.2457 11.7655 12.8182 11.7655 12.3725C11.7655 11.9268 11.5885 11.4994 11.2733 11.1842C10.9581 10.8691 10.5307 10.692 10.085 10.692H10.9253C11.0232 10.6919 11.118 10.6576 11.1934 10.595C11.2687 10.5324 11.3198 10.4455 11.3378 10.3492L12.5982 3.62716C12.6096 3.56652 12.6074 3.50413 12.5919 3.44442C12.5765 3.3847 12.548 3.32913 12.5086 3.28165C12.4692 3.23417 12.4199 3.19594 12.3641 3.16968C12.3082 3.14343 12.2473 3.12978 12.1856 3.12973H2.43029L2.08998 1.76768C2.06731 1.67675 2.01488 1.59601 1.94103 1.53831C1.86719 1.4806 1.77618 1.44924 1.68246 1.44922H0.42208ZM3.71168 9.85176L2.60842 3.96998H11.6798L10.5766 9.85176H3.71168ZM5.04348 12.3725C5.04348 12.5954 4.95495 12.8091 4.79737 12.9667C4.6398 13.1243 4.42607 13.2128 4.20322 13.2128C3.98038 13.2128 3.76665 13.1243 3.60908 12.9667C3.4515 12.8091 3.36297 12.5954 3.36297 12.3725C3.36297 12.1497 3.4515 11.936 3.60908 11.7784C3.76665 11.6208 3.98038 11.5323 4.20322 11.5323C4.42607 11.5323 4.6398 11.6208 4.79737 11.7784C4.95495 11.936 5.04348 12.1497 5.04348 12.3725ZM10.9253 12.3725C10.9253 12.5954 10.8367 12.8091 10.6792 12.9667C10.5216 13.1243 10.3079 13.2128 10.085 13.2128C9.86215 13.2128 9.64843 13.1243 9.49086 12.9667C9.33328 12.8091 9.24475 12.5954 9.24475 12.3725C9.24475 12.1497 9.33328 11.936 9.49086 11.7784C9.64843 11.6208 9.86215 11.5323 10.085 11.5323C10.3079 11.5323 10.5216 11.6208 10.6792 11.7784C10.8367 11.936 10.9253 12.1497 10.9253 12.3725Z" fill="#363330"/>
</svg>
