<svg width="15" height="15" viewBox="0 0 15 15" fill="none" xmlns="http://www.w3.org/2000/svg">
<path d="M8.22096 5.59981C8.22096 5.48839 8.17669 5.38153 8.09791 5.30274C8.01912 5.22395 7.91226 5.17969 7.80083 5.17969C7.68941 5.17969 7.58254 5.22395 7.50376 5.30274C7.42497 5.38153 7.3807 5.48839 7.3807 5.59981V6.8602H6.12032C6.0089 6.8602 5.90204 6.90446 5.82325 6.98325C5.74446 7.06204 5.7002 7.1689 5.7002 7.28032C5.7002 7.39175 5.74446 7.49861 5.82325 7.5774C5.90204 7.65619 6.0089 7.70045 6.12032 7.70045H7.3807V8.96083C7.3807 9.07226 7.42497 9.17912 7.50376 9.25791C7.58254 9.3367 7.68941 9.38096 7.80083 9.38096C7.91226 9.38096 8.01912 9.3367 8.09791 9.25791C8.17669 9.17912 8.22096 9.07226 8.22096 8.96083V7.70045H9.48134C9.59276 7.70045 9.69963 7.65619 9.77841 7.5774C9.8572 7.49861 9.90147 7.39175 9.90147 7.28032C9.90147 7.1689 9.8572 7.06204 9.77841 6.98325C9.69963 6.90446 9.59276 6.8602 9.48134 6.8602H8.22096V5.59981Z" fill="#363330"/>
<path d="M1.07833 1.81641C0.966906 1.81641 0.860045 1.86067 0.781256 1.93946C0.702466 2.01825 0.658203 2.12511 0.658203 2.23653C0.658203 2.34796 0.702466 2.45482 0.781256 2.53361C0.860045 2.6124 0.966906 2.65666 1.07833 2.65666H2.01101L2.34795 4.00695L3.60666 10.7164C3.62468 10.8127 3.67577 10.8996 3.7511 10.9622C3.82644 11.0248 3.92127 11.0591 4.01922 11.0592H4.85947C4.41378 11.0592 3.98633 11.2363 3.67118 11.5514C3.35602 11.8666 3.17897 12.294 3.17897 12.7397C3.17897 13.1854 3.35602 13.6129 3.67118 13.928C3.98633 14.2432 4.41378 14.4202 4.85947 14.4202C5.30517 14.4202 5.73262 14.2432 6.04777 13.928C6.36293 13.6129 6.53998 13.1854 6.53998 12.7397C6.53998 12.294 6.36293 11.8666 6.04777 11.5514C5.73262 11.2363 5.30517 11.0592 4.85947 11.0592H10.7413C10.2956 11.0592 9.86811 11.2363 9.55296 11.5514C9.2378 11.8666 9.06075 12.294 9.06075 12.7397C9.06075 13.1854 9.2378 13.6129 9.55296 13.928C9.86811 14.2432 10.2956 14.4202 10.7413 14.4202C11.187 14.4202 11.6144 14.2432 11.9296 13.928C12.2447 13.6129 12.4218 13.1854 12.4218 12.7397C12.4218 12.294 12.2447 11.8666 11.9296 11.5514C11.6144 11.2363 11.187 11.0592 10.7413 11.0592H11.5815C11.6795 11.0591 11.7743 11.0248 11.8496 10.9622C11.925 10.8996 11.9761 10.8127 11.9941 10.7164L13.2545 3.99435C13.2658 3.93371 13.2637 3.87132 13.2482 3.8116C13.2327 3.75189 13.2043 3.69632 13.1649 3.64884C13.1255 3.60135 13.0761 3.56313 13.0203 3.53687C12.9645 3.51061 12.9036 3.49697 12.8419 3.49691H3.08654L2.74623 2.13486C2.72356 2.04393 2.67113 1.9632 2.59728 1.90549C2.52344 1.84779 2.43243 1.81643 2.33871 1.81641H1.07833ZM4.36793 10.2189L3.26467 4.33717H12.3361L11.2328 10.2189H4.36793ZM5.69973 12.7397C5.69973 12.9626 5.6112 13.1763 5.45362 13.3339C5.29605 13.4914 5.08232 13.58 4.85947 13.58C4.63663 13.58 4.4229 13.4914 4.26533 13.3339C4.10775 13.1763 4.01922 12.9626 4.01922 12.7397C4.01922 12.5169 4.10775 12.3031 4.26533 12.1456C4.4229 11.988 4.63663 11.8995 4.85947 11.8995C5.08232 11.8995 5.29605 11.988 5.45362 12.1456C5.6112 12.3031 5.69973 12.5169 5.69973 12.7397ZM11.5815 12.7397C11.5815 12.9626 11.493 13.1763 11.3354 13.3339C11.1778 13.4914 10.9641 13.58 10.7413 13.58C10.5184 13.58 10.3047 13.4914 10.1471 13.3339C9.98953 13.1763 9.901 12.9626 9.901 12.7397C9.901 12.5169 9.98953 12.3031 10.1471 12.1456C10.3047 11.988 10.5184 11.8995 10.7413 11.8995C10.9641 11.8995 11.1778 11.988 11.3354 12.1456C11.493 12.3031 11.5815 12.5169 11.5815 12.7397Z" fill="#363330"/>
</svg>
