<svg width="14" height="15" viewBox="0 0 14 15" fill="none" xmlns="http://www.w3.org/2000/svg">
<path d="M7.56471 5.48653C7.56471 5.37511 7.52044 5.26825 7.44166 5.18946C7.36287 5.11067 7.25601 5.06641 7.14458 5.06641C7.03316 5.06641 6.92629 5.11067 6.84751 5.18946C6.76872 5.26825 6.72445 5.37511 6.72445 5.48653V6.74691H5.46407C5.35265 6.74691 5.24579 6.79118 5.167 6.86997C5.08821 6.94876 5.04395 7.05562 5.04395 7.16704C5.04395 7.27847 5.08821 7.38533 5.167 7.46412C5.24579 7.54291 5.35265 7.58717 5.46407 7.58717H6.72445V8.84755C6.72445 8.95897 6.76872 9.06584 6.84751 9.14463C6.92629 9.22341 7.03316 9.26768 7.14458 9.26768C7.25601 9.26768 7.36287 9.22341 7.44166 9.14463C7.52044 9.06584 7.56471 8.95897 7.56471 8.84755V7.58717H8.82509C8.93651 7.58717 9.04338 7.54291 9.12216 7.46412C9.20095 7.38533 9.24522 7.27847 9.24522 7.16704C9.24522 7.05562 9.20095 6.94876 9.12216 6.86997C9.04338 6.79118 8.93651 6.74691 8.82509 6.74691H7.56471V5.48653Z" fill="#363330"/>
<path d="M0.42208 1.70312C0.310656 1.70313 0.203795 1.74739 0.125006 1.82618C0.0462164 1.90497 0.00195313 2.01183 0.00195312 2.12325C0.00195313 2.23468 0.0462164 2.34154 0.125006 2.42033C0.203795 2.49912 0.310656 2.54338 0.42208 2.54338H1.35476L1.6917 3.89367L2.95041 10.6031C2.96843 10.6994 3.01952 10.7863 3.09485 10.8489C3.17019 10.9115 3.26502 10.9458 3.36297 10.9459H4.20322C3.75753 10.9459 3.33008 11.123 3.01493 11.4381C2.69977 11.7533 2.52272 12.1807 2.52272 12.6264C2.52272 13.0721 2.69977 13.4996 3.01493 13.8147C3.33008 14.1299 3.75753 14.3069 4.20322 14.3069C4.64892 14.3069 5.07637 14.1299 5.39152 13.8147C5.70668 13.4996 5.88373 13.0721 5.88373 12.6264C5.88373 12.1807 5.70668 11.7533 5.39152 11.4381C5.07637 11.123 4.64892 10.9459 4.20322 10.9459H10.085C9.63931 10.9459 9.21186 11.123 8.89671 11.4381C8.58155 11.7533 8.4045 12.1807 8.4045 12.6264C8.4045 13.0721 8.58155 13.4996 8.89671 13.8147C9.21186 14.1299 9.63931 14.3069 10.085 14.3069C10.5307 14.3069 10.9581 14.1299 11.2733 13.8147C11.5885 13.4996 11.7655 13.0721 11.7655 12.6264C11.7655 12.1807 11.5885 11.7533 11.2733 11.4381C10.9581 11.123 10.5307 10.9459 10.085 10.9459H10.9253C11.0232 10.9458 11.118 10.9115 11.1934 10.8489C11.2687 10.7863 11.3198 10.6994 11.3378 10.6031L12.5982 3.88106C12.6096 3.82043 12.6074 3.75804 12.5919 3.69832C12.5765 3.63861 12.548 3.58304 12.5086 3.53555C12.4692 3.48807 12.4199 3.44984 12.3641 3.42359C12.3082 3.39733 12.2473 3.38369 12.1856 3.38363H2.43029L2.08998 2.02158C2.06731 1.93065 2.01488 1.84992 1.94103 1.79221C1.86719 1.73451 1.77618 1.70315 1.68246 1.70312H0.42208ZM3.71168 10.1057L2.60842 4.22389H11.6798L10.5766 10.1057H3.71168ZM5.04348 12.6264C5.04348 12.8493 4.95495 13.063 4.79737 13.2206C4.6398 13.3782 4.42607 13.4667 4.20322 13.4667C3.98038 13.4667 3.76665 13.3782 3.60908 13.2206C3.4515 13.063 3.36297 12.8493 3.36297 12.6264C3.36297 12.4036 3.4515 12.1899 3.60908 12.0323C3.76665 11.8747 3.98038 11.7862 4.20322 11.7862C4.42607 11.7862 4.6398 11.8747 4.79737 12.0323C4.95495 12.1899 5.04348 12.4036 5.04348 12.6264ZM10.9253 12.6264C10.9253 12.8493 10.8367 13.063 10.6792 13.2206C10.5216 13.3782 10.3079 13.4667 10.085 13.4667C9.86215 13.4667 9.64843 13.3782 9.49086 13.2206C9.33328 13.063 9.24475 12.8493 9.24475 12.6264C9.24475 12.4036 9.33328 12.1899 9.49086 12.0323C9.64843 11.8747 9.86215 11.7862 10.085 11.7862C10.3079 11.7862 10.5216 11.8747 10.6792 12.0323C10.8367 12.1899 10.9253 12.4036 10.9253 12.6264Z" fill="#363330"/>
</svg>
