<svg width="15" height="14" viewBox="0 0 15 14" fill="none" xmlns="http://www.w3.org/2000/svg">
<path d="M8.33424 5.06466C8.33424 4.95323 8.28998 4.84637 8.21119 4.76758C8.1324 4.68879 8.02554 4.64453 7.91411 4.64453C7.80269 4.64453 7.69583 4.68879 7.61704 4.76758C7.53825 4.84637 7.49398 4.95323 7.49398 5.06466V6.32504H6.2336C6.12218 6.32504 6.01532 6.3693 5.93653 6.44809C5.85774 6.52688 5.81348 6.63374 5.81348 6.74517C5.81348 6.85659 5.85774 6.96345 5.93653 7.04224C6.01532 7.12103 6.12218 7.16529 6.2336 7.16529H7.49398V8.42568C7.49398 8.5371 7.53825 8.64396 7.61704 8.72275C7.69583 8.80154 7.80269 8.8458 7.91411 8.8458C8.02554 8.8458 8.1324 8.80154 8.21119 8.72275C8.28998 8.64396 8.33424 8.5371 8.33424 8.42568V7.16529H9.59462C9.70605 7.16529 9.81291 7.12103 9.8917 7.04224C9.97048 6.96345 10.0147 6.85659 10.0147 6.74517C10.0147 6.63374 9.97048 6.52688 9.8917 6.44809C9.81291 6.3693 9.70605 6.32504 9.59462 6.32504H8.33424V5.06466Z" fill="#363330"/>
<path d="M1.19161 1.28125C1.08019 1.28125 0.973326 1.32551 0.894537 1.4043C0.815748 1.48309 0.771484 1.58995 0.771484 1.70138C0.771484 1.8128 0.815748 1.91966 0.894537 1.99845C0.973326 2.07724 1.08019 2.1215 1.19161 2.1215H2.12429L2.46124 3.47179L3.71994 10.1812C3.73796 10.2775 3.78905 10.3644 3.86439 10.427C3.93972 10.4896 4.03455 10.524 4.1325 10.524H4.97276C4.52706 10.524 4.09961 10.7011 3.78446 11.0163C3.4693 11.3314 3.29225 11.7589 3.29225 12.2046C3.29225 12.6503 3.4693 13.0777 3.78446 13.3929C4.09961 13.708 4.52706 13.8851 4.97276 13.8851C5.41845 13.8851 5.8459 13.708 6.16105 13.3929C6.47621 13.0777 6.65326 12.6503 6.65326 12.2046C6.65326 11.7589 6.47621 11.3314 6.16105 11.0163C5.8459 10.7011 5.41845 10.524 4.97276 10.524H10.8545C10.4088 10.524 9.98139 10.7011 9.66624 11.0163C9.35108 11.3314 9.17403 11.7589 9.17403 12.2046C9.17403 12.6503 9.35108 13.0777 9.66624 13.3929C9.98139 13.708 10.4088 13.8851 10.8545 13.8851C11.3002 13.8851 11.7277 13.708 12.0428 13.3929C12.358 13.0777 12.535 12.6503 12.535 12.2046C12.535 11.7589 12.358 11.3314 12.0428 11.0163C11.7277 10.7011 11.3002 10.524 10.8545 10.524H11.6948C11.7927 10.524 11.8876 10.4896 11.9629 10.427C12.0382 10.3644 12.0893 10.2775 12.1074 10.1812L13.3677 3.45919C13.3791 3.39855 13.3769 3.33616 13.3615 3.27645C13.346 3.21673 13.3175 3.16116 13.2782 3.11368C13.2388 3.0662 13.1894 3.02797 13.1336 3.00171C13.0778 2.97546 13.0169 2.96182 12.9552 2.96176H3.19982L2.85952 1.59971C2.83684 1.50878 2.78441 1.42804 2.71057 1.37034C2.63672 1.31263 2.54571 1.28128 2.45199 1.28125H1.19161ZM4.48121 9.68379L3.37795 3.80201H12.4493L11.3461 9.68379H4.48121ZM5.81301 12.2046C5.81301 12.4274 5.72448 12.6411 5.56691 12.7987C5.40933 12.9563 5.1956 13.0448 4.97276 13.0448C4.74991 13.0448 4.53618 12.9563 4.37861 12.7987C4.22103 12.6411 4.1325 12.4274 4.1325 12.2046C4.1325 11.9817 4.22103 11.768 4.37861 11.6104C4.53618 11.4528 4.74991 11.3643 4.97276 11.3643C5.1956 11.3643 5.40933 11.4528 5.56691 11.6104C5.72448 11.768 5.81301 11.9817 5.81301 12.2046ZM11.6948 12.2046C11.6948 12.4274 11.6063 12.6411 11.4487 12.7987C11.2911 12.9563 11.0774 13.0448 10.8545 13.0448C10.6317 13.0448 10.418 12.9563 10.2604 12.7987C10.1028 12.6411 10.0143 12.4274 10.0143 12.2046C10.0143 11.9817 10.1028 11.768 10.2604 11.6104C10.418 11.4528 10.6317 11.3643 10.8545 11.3643C11.0774 11.3643 11.2911 11.4528 11.4487 11.6104C11.6063 11.768 11.6948 11.9817 11.6948 12.2046Z" fill="#363330"/>
</svg>
