<svg width="14" height="14" viewBox="0 0 14 14" fill="none" xmlns="http://www.w3.org/2000/svg">
<path d="M8.011 4.79903C8.011 4.68761 7.96673 4.58075 7.88794 4.50196C7.80916 4.42317 7.70229 4.37891 7.59087 4.37891C7.47945 4.37891 7.37258 4.42317 7.29379 4.50196C7.21501 4.58075 7.17074 4.68761 7.17074 4.79903V6.05941H5.91036C5.79894 6.05941 5.69208 6.10368 5.61329 6.18247C5.5345 6.26126 5.49023 6.36812 5.49023 6.47954C5.49023 6.59097 5.5345 6.69783 5.61329 6.77662C5.69208 6.85541 5.79894 6.89967 5.91036 6.89967H7.17074V8.16005C7.17074 8.27147 7.21501 8.37834 7.29379 8.45713C7.37258 8.53591 7.47945 8.58018 7.59087 8.58018C7.70229 8.58018 7.80916 8.53591 7.88794 8.45713C7.96673 8.37834 8.011 8.27147 8.011 8.16005V6.89967H9.27138C9.3828 6.89967 9.48966 6.85541 9.56845 6.77662C9.64724 6.69783 9.69151 6.59097 9.69151 6.47954C9.69151 6.36812 9.64724 6.26126 9.56845 6.18247C9.48966 6.10368 9.3828 6.05941 9.27138 6.05941H8.011V4.79903Z" fill="#363330"/>
<path d="M0.868369 1.01562C0.756945 1.01563 0.650084 1.05989 0.571295 1.13868C0.492505 1.21747 0.448242 1.32433 0.448242 1.43575C0.448242 1.54718 0.492505 1.65404 0.571295 1.73283C0.650084 1.81162 0.756945 1.85588 0.868369 1.85588H1.80105L2.13799 3.20617L3.39669 9.9156C3.41472 10.0119 3.46581 10.0988 3.54114 10.1614C3.61648 10.224 3.71131 10.2583 3.80926 10.2584H4.64951C4.20381 10.2584 3.77637 10.4355 3.46121 10.7506C3.14606 11.0658 2.969 11.4932 2.969 11.9389C2.969 12.3846 3.14606 12.8121 3.46121 13.1272C3.77637 13.4424 4.20381 13.6194 4.64951 13.6194C5.09521 13.6194 5.52266 13.4424 5.83781 13.1272C6.15297 12.8121 6.33002 12.3846 6.33002 11.9389C6.33002 11.4932 6.15297 11.0658 5.83781 10.7506C5.52266 10.4355 5.09521 10.2584 4.64951 10.2584H10.5313C10.0856 10.2584 9.65815 10.4355 9.34299 10.7506C9.02784 11.0658 8.85078 11.4932 8.85078 11.9389C8.85078 12.3846 9.02784 12.8121 9.34299 13.1272C9.65815 13.4424 10.0856 13.6194 10.5313 13.6194C10.977 13.6194 11.4044 13.4424 11.7196 13.1272C12.0347 12.8121 12.2118 12.3846 12.2118 11.9389C12.2118 11.4932 12.0347 11.0658 11.7196 10.7506C11.4044 10.4355 10.977 10.2584 10.5313 10.2584H11.3715C11.4695 10.2583 11.5643 10.224 11.6397 10.1614C11.715 10.0988 11.7661 10.0119 11.7841 9.9156L13.0445 3.19356C13.0558 3.13293 13.0537 3.07054 13.0382 3.01082C13.0227 2.95111 12.9943 2.89554 12.9549 2.84805C12.9155 2.80057 12.8662 2.76234 12.8104 2.73609C12.7545 2.70983 12.6936 2.69619 12.6319 2.69613H2.87658L2.53627 1.33408C2.5136 1.24315 2.46117 1.16242 2.38732 1.10471C2.31348 1.04701 2.22247 1.01565 2.12875 1.01562H0.868369ZM4.15796 9.41817L3.05471 3.53639H12.1261L11.0228 9.41817H4.15796ZM5.48977 11.9389C5.48977 12.1618 5.40124 12.3755 5.24366 12.5331C5.08608 12.6907 4.87236 12.7792 4.64951 12.7792C4.42666 12.7792 4.21294 12.6907 4.05536 12.5331C3.89779 12.3755 3.80926 12.1618 3.80926 11.9389C3.80926 11.7161 3.89779 11.5024 4.05536 11.3448C4.21294 11.1872 4.42666 11.0987 4.64951 11.0987C4.87236 11.0987 5.08608 11.1872 5.24366 11.3448C5.40124 11.5024 5.48977 11.7161 5.48977 11.9389ZM11.3715 11.9389C11.3715 12.1618 11.283 12.3755 11.1254 12.5331C10.9679 12.6907 10.7541 12.7792 10.5313 12.7792C10.3084 12.7792 10.0947 12.6907 9.93714 12.5331C9.77957 12.3755 9.69104 12.1618 9.69104 11.9389C9.69104 11.7161 9.77957 11.5024 9.93714 11.3448C10.0947 11.1872 10.3084 11.0987 10.5313 11.0987C10.7541 11.0987 10.9679 11.1872 11.1254 11.3448C11.283 11.5024 11.3715 11.7161 11.3715 11.9389Z" fill="#363330"/>
</svg>
