<svg width="15" height="14" viewBox="0 0 15 14" fill="none" xmlns="http://www.w3.org/2000/svg">
<path d="M8.48463 5.05685C8.48463 4.94542 8.44037 4.83856 8.36158 4.75977C8.28279 4.68098 8.17593 4.63672 8.0645 4.63672C7.95308 4.63672 7.84622 4.68098 7.76743 4.75977C7.68864 4.83856 7.64438 4.94542 7.64438 5.05685V6.31723H6.38399C6.27257 6.31723 6.16571 6.36149 6.08692 6.44028C6.00813 6.51907 5.96387 6.62593 5.96387 6.73735C5.96387 6.84878 6.00813 6.95564 6.08692 7.03443C6.16571 7.11322 6.27257 7.15748 6.38399 7.15748H7.64438V8.41786C7.64438 8.52929 7.68864 8.63615 7.76743 8.71494C7.84622 8.79373 7.95308 8.83799 8.0645 8.83799C8.17593 8.83799 8.28279 8.79373 8.36158 8.71494C8.44037 8.63615 8.48463 8.52929 8.48463 8.41786V7.15748H9.74501C9.85644 7.15748 9.9633 7.11322 10.0421 7.03443C10.1209 6.95564 10.1651 6.84878 10.1651 6.73735C10.1651 6.62593 10.1209 6.51907 10.0421 6.44028C9.9633 6.36149 9.85644 6.31723 9.74501 6.31723H8.48463V5.05685Z" fill="#363330"/>
<path d="M1.342 1.27344C1.23058 1.27344 1.12372 1.3177 1.04493 1.39649C0.966138 1.47528 0.921875 1.58214 0.921875 1.69356C0.921875 1.80499 0.966138 1.91185 1.04493 1.99064C1.12372 2.06943 1.23058 2.11369 1.342 2.11369H2.27468L2.61163 3.46398L3.87033 10.1734C3.88835 10.2697 3.93944 10.3566 4.01478 10.4192C4.09011 10.4818 4.18495 10.5161 4.28289 10.5162H5.12315C4.67745 10.5162 4.25 10.6933 3.93485 11.0084C3.61969 11.3236 3.44264 11.751 3.44264 12.1967C3.44264 12.6424 3.61969 13.0699 3.93485 13.385C4.25 13.7002 4.67745 13.8773 5.12315 13.8773C5.56884 13.8773 5.99629 13.7002 6.31145 13.385C6.6266 13.0699 6.80365 12.6424 6.80365 12.1967C6.80365 11.751 6.6266 11.3236 6.31145 11.0084C5.99629 10.6933 5.56884 10.5162 5.12315 10.5162H11.0049C10.5592 10.5162 10.1318 10.6933 9.81663 11.0084C9.50147 11.3236 9.32442 11.751 9.32442 12.1967C9.32442 12.6424 9.50147 13.0699 9.81663 13.385C10.1318 13.7002 10.5592 13.8773 11.0049 13.8773C11.4506 13.8773 11.8781 13.7002 12.1932 13.385C12.5084 13.0699 12.6854 12.6424 12.6854 12.1967C12.6854 11.751 12.5084 11.3236 12.1932 11.0084C11.8781 10.6933 11.4506 10.5162 11.0049 10.5162H11.8452C11.9431 10.5161 12.038 10.4818 12.1133 10.4192C12.1886 10.3566 12.2397 10.2697 12.2577 10.1734L13.5181 3.45138C13.5295 3.39074 13.5273 3.32835 13.5119 3.26864C13.4964 3.20892 13.4679 3.15335 13.4285 3.10587C13.3892 3.05838 13.3398 3.02016 13.284 2.9939C13.2282 2.96764 13.1672 2.954 13.1056 2.95395H3.35021L3.00991 1.59189C2.98723 1.50096 2.9348 1.42023 2.86096 1.36253C2.78711 1.30482 2.6961 1.27346 2.60238 1.27344H1.342ZM4.6316 9.67598L3.52834 3.7942H12.5997L11.4965 9.67598H4.6316ZM5.9634 12.1967C5.9634 12.4196 5.87487 12.6333 5.7173 12.7909C5.55972 12.9485 5.346 13.037 5.12315 13.037C4.9003 13.037 4.68658 12.9485 4.529 12.7909C4.37142 12.6333 4.28289 12.4196 4.28289 12.1967C4.28289 11.9739 4.37142 11.7602 4.529 11.6026C4.68658 11.445 4.9003 11.3565 5.12315 11.3565C5.346 11.3565 5.55972 11.445 5.7173 11.6026C5.87487 11.7602 5.9634 11.9739 5.9634 12.1967ZM11.8452 12.1967C11.8452 12.4196 11.7567 12.6333 11.5991 12.7909C11.4415 12.9485 11.2278 13.037 11.0049 13.037C10.7821 13.037 10.5684 12.9485 10.4108 12.7909C10.2532 12.6333 10.1647 12.4196 10.1647 12.1967C10.1647 11.9739 10.2532 11.7602 10.4108 11.6026C10.5684 11.445 10.7821 11.3565 11.0049 11.3565C11.2278 11.3565 11.4415 11.445 11.5991 11.6026C11.7567 11.7602 11.8452 11.9739 11.8452 12.1967Z" fill="#363330"/>
</svg>
