<svg width="14" height="14" viewBox="0 0 14 14" fill="none" xmlns="http://www.w3.org/2000/svg">
<path d="M7.61158 4.92794C7.61158 4.81651 7.56732 4.70965 7.48853 4.63086C7.40974 4.55208 7.30288 4.50781 7.19146 4.50781C7.08003 4.50781 6.97317 4.55208 6.89438 4.63086C6.81559 4.70965 6.77133 4.81651 6.77133 4.92794V6.18832H5.51095C5.39952 6.18832 5.29266 6.23258 5.21387 6.31137C5.13508 6.39016 5.09082 6.49702 5.09082 6.60845C5.09082 6.71987 5.13508 6.82673 5.21387 6.90552C5.29266 6.98431 5.39952 7.02857 5.51095 7.02857H6.77133V8.28896C6.77133 8.40038 6.81559 8.50724 6.89438 8.58603C6.97317 8.66482 7.08003 8.70908 7.19146 8.70908C7.30288 8.70908 7.40974 8.66482 7.48853 8.58603C7.56732 8.50724 7.61158 8.40038 7.61158 8.28896V7.02857H8.87196C8.98339 7.02857 9.09025 6.98431 9.16904 6.90552C9.24783 6.82673 9.29209 6.71987 9.29209 6.60845C9.29209 6.49702 9.24783 6.39016 9.16904 6.31137C9.09025 6.23258 8.98339 6.18832 8.87196 6.18832H7.61158V4.92794Z" fill="#363330"/>
<path d="M0.468955 1.14453C0.357531 1.14453 0.25067 1.18879 0.171881 1.26758C0.0930914 1.34637 0.0488281 1.45323 0.0488281 1.56466C0.0488281 1.67608 0.0930914 1.78294 0.171881 1.86173C0.25067 1.94052 0.357531 1.98479 0.468955 1.98479H1.40164L1.73858 3.33507L2.99728 10.0445C3.0153 10.1408 3.0664 10.2277 3.14173 10.2903C3.21706 10.3529 3.3119 10.3872 3.40985 10.3873H4.2501C3.8044 10.3873 3.37696 10.5644 3.0618 10.8795C2.74664 11.1947 2.56959 11.6221 2.56959 12.0678C2.56959 12.5135 2.74664 12.941 3.0618 13.2561C3.37696 13.5713 3.8044 13.7483 4.2501 13.7483C4.6958 13.7483 5.12324 13.5713 5.4384 13.2561C5.75355 12.941 5.93061 12.5135 5.93061 12.0678C5.93061 11.6221 5.75355 11.1947 5.4384 10.8795C5.12324 10.5644 4.6958 10.3873 4.2501 10.3873H10.1319C9.68618 10.3873 9.25874 10.5644 8.94358 10.8795C8.62842 11.1947 8.45137 11.6221 8.45137 12.0678C8.45137 12.5135 8.62842 12.941 8.94358 13.2561C9.25874 13.5713 9.68618 13.7483 10.1319 13.7483C10.5776 13.7483 11.005 13.5713 11.3202 13.2561C11.6353 12.941 11.8124 12.5135 11.8124 12.0678C11.8124 11.6221 11.6353 11.1947 11.3202 10.8795C11.005 10.5644 10.5776 10.3873 10.1319 10.3873H10.9721C11.0701 10.3872 11.1649 10.3529 11.2402 10.2903C11.3156 10.2277 11.3667 10.1408 11.3847 10.0445L12.6451 3.32247C12.6564 3.26183 12.6543 3.19944 12.6388 3.13973C12.6233 3.08002 12.5949 3.02444 12.5555 2.97696C12.5161 2.92948 12.4668 2.89125 12.4109 2.86499C12.3551 2.83874 12.2942 2.8251 12.2325 2.82504H2.47716L2.13686 1.46299C2.11418 1.37206 2.06175 1.29132 1.98791 1.23362C1.91407 1.17592 1.82305 1.14456 1.72934 1.14453H0.468955ZM3.75855 9.54707L2.6553 3.66529H11.7267L10.6234 9.54707H3.75855ZM5.09035 12.0678C5.09035 12.2907 5.00183 12.5044 4.84425 12.662C4.68667 12.8196 4.47295 12.9081 4.2501 12.9081C4.02725 12.9081 3.81353 12.8196 3.65595 12.662C3.49837 12.5044 3.40985 12.2907 3.40985 12.0678C3.40985 11.845 3.49837 11.6313 3.65595 11.4737C3.81353 11.3161 4.02725 11.2276 4.2501 11.2276C4.47295 11.2276 4.68667 11.3161 4.84425 11.4737C5.00183 11.6313 5.09035 11.845 5.09035 12.0678ZM10.9721 12.0678C10.9721 12.2907 10.8836 12.5044 10.726 12.662C10.5684 12.8196 10.3547 12.9081 10.1319 12.9081C9.90903 12.9081 9.69531 12.8196 9.53773 12.662C9.38015 12.5044 9.29163 12.2907 9.29163 12.0678C9.29163 11.845 9.38015 11.6313 9.53773 11.4737C9.69531 11.3161 9.90903 11.2276 10.1319 11.2276C10.3547 11.2276 10.5684 11.3161 10.726 11.4737C10.8836 11.6313 10.9721 11.845 10.9721 12.0678Z" fill="#363330"/>
</svg>
