<svg width="32" height="33" viewBox="0 0 32 33" fill="none" xmlns="http://www.w3.org/2000/svg">
<path d="M28.1864 28.9891C27.9473 28.2033 27.6056 27.3491 27.2298 26.4608C26.854 25.6067 26.3756 24.6842 25.8973 23.8301C25.829 23.9326 25.7607 24.0692 25.6923 24.1717C25.624 24.2742 25.5557 24.4109 25.4873 24.5134C25.419 24.6159 25.3165 24.7184 25.2482 24.855C25.1798 24.9575 25.0774 25.06 25.009 25.1625C25.009 25.1625 25.009 25.1625 24.9749 25.1967C24.9749 25.1967 24.9749 25.1967 24.9407 25.2309C24.9407 25.2309 24.9407 25.2309 24.9065 25.265C24.9065 25.265 24.9065 25.265 24.8724 25.2992L24.804 25.3675C24.8724 25.5725 24.9407 25.8117 25.0432 26.085C25.1457 26.3583 25.2482 26.6317 25.3165 26.905C25.3848 27.1783 25.4532 27.4175 25.4873 27.6225C25.5215 27.8274 25.5215 27.9983 25.419 28.0666C25.3848 28.1008 25.3848 28.1008 25.3507 28.1349C25.3165 28.1691 25.2823 28.1691 25.2482 28.1691C25.214 28.1691 25.1798 28.2033 25.1457 28.2033C25.1115 28.2033 25.0432 28.2033 25.009 28.2033C24.9407 28.2033 24.8724 28.2033 24.7699 28.1691C24.7015 28.1349 24.599 28.1349 24.4965 28.1008C24.394 28.0666 24.2915 28.0324 24.189 27.9983C24.0865 27.9641 23.9841 27.8958 23.8816 27.8616C23.7449 27.7933 23.6082 27.7249 23.4374 27.6566C23.3007 27.5883 23.1299 27.4858 22.9933 27.4175C22.8224 27.315 22.6858 27.2466 22.5149 27.1441C22.3441 27.0416 22.1733 26.9391 22.0025 26.8366C22.6516 26.1875 23.3007 25.47 23.8474 24.7184C24.4282 23.9667 24.9407 23.1809 25.3848 22.361C25.829 21.541 26.239 20.6869 26.5806 19.7986C26.9223 18.9102 27.1614 18.0219 27.3323 17.0995C27.7423 15.0495 27.7081 13.1021 27.3323 11.3938C26.9565 9.68556 26.239 8.21645 25.2482 6.98649C24.2574 5.79069 23.0274 4.86823 21.5925 4.28741C20.1575 3.7066 18.5517 3.46744 16.8093 3.56994C15.6477 3.63827 14.5202 3.87743 13.3927 4.25325C12.2995 4.62907 11.2062 5.14155 10.1812 5.72236C9.15623 6.33734 8.19959 7.05482 7.27712 7.87479C6.38882 8.69476 5.53468 9.58307 4.78304 10.5739C4.57805 10.198 4.40722 9.85639 4.27056 9.51473C4.1339 9.20724 4.0314 8.89976 3.99724 8.62643C3.9289 8.35311 3.9289 8.14811 3.9289 7.94312C3.96307 7.73813 3.99724 7.60147 4.09973 7.49897C4.1339 7.4648 4.16806 7.43064 4.23639 7.39647C4.30473 7.36231 4.33889 7.32814 4.40722 7.29398C4.47555 7.25981 4.54388 7.22565 4.64638 7.22565C4.71471 7.19148 4.81721 7.19148 4.9197 7.19148C5.0222 7.19148 5.1247 7.19148 5.22719 7.19148C5.32969 7.19148 5.46635 7.22565 5.56885 7.25981C5.67135 7.29398 5.80801 7.36231 5.9105 7.43064C6.013 7.49897 6.14966 7.60147 6.25216 7.70396C6.35466 7.5673 6.49132 7.43064 6.59381 7.29398C6.73048 7.15731 6.83297 7.05482 6.96963 6.91816C7.1063 6.81566 7.24296 6.679 7.37962 6.5765C7.51628 6.474 7.65294 6.37151 7.82377 6.26901C7.82377 6.26901 7.85794 6.26901 7.85794 6.23485L7.8921 6.20068C7.8921 6.20068 7.92627 6.20068 7.92627 6.16651C7.92627 6.16651 7.96043 6.16651 7.96043 6.13235C7.68711 5.89319 7.41379 5.72236 7.14046 5.55154C6.83297 5.38071 6.55965 5.27821 6.25216 5.17572C5.94467 5.07322 5.63718 5.03905 5.36386 5.00489C5.05637 4.97072 4.78304 4.97072 4.50972 4.97072C4.30472 4.97072 4.1339 5.00489 3.96307 5.03905C3.79224 5.07322 3.62142 5.10738 3.48475 5.17572C3.34809 5.24405 3.21143 5.27821 3.07477 5.34654C2.97227 5.41487 2.86977 5.4832 2.80144 5.5857C2.56228 5.82486 2.42562 6.16651 2.35729 6.5765C2.28896 6.98649 2.32313 7.43064 2.42562 7.97729C2.52812 8.48977 2.69895 9.10475 2.93811 9.71973C3.17726 10.3689 3.51892 11.0522 3.89474 11.7697C3.62142 12.1796 3.38226 12.5896 3.1431 13.0338C2.90394 13.4779 2.69895 13.9221 2.49395 14.3662C2.28896 14.8104 2.11813 15.2887 1.94731 15.7329C1.77648 16.2112 1.63982 16.6895 1.50315 17.1678C1.02484 19.0127 0.888175 20.7894 1.02484 22.4293C1.19566 24.1034 1.67398 25.6409 2.42562 26.9391C3.17726 28.2716 4.23639 29.3991 5.56885 30.219C6.9013 31.039 8.47292 31.5856 10.2837 31.6881C10.8303 31.7223 11.3428 31.7223 11.8895 31.6881C12.4361 31.654 12.9828 31.5856 13.5294 31.449C14.0761 31.3465 14.6227 31.1757 15.1694 31.0048C15.716 30.834 16.2285 30.629 16.7751 30.3899L15.511 27.9983C15.1352 28.1349 14.7594 28.2716 14.3835 28.3741C14.0077 28.4766 13.6319 28.5791 13.2561 28.6474C12.8803 28.7157 12.5044 28.7499 12.1286 28.7841C11.7528 28.8182 11.377 28.8182 11.0012 28.7841C9.56621 28.7157 8.26792 28.3058 7.17463 27.6566C6.1155 27.0075 5.22719 26.1192 4.61221 25.06C3.99724 24.0009 3.58725 22.771 3.45059 21.4043C3.31393 20.0719 3.41642 18.6369 3.79224 17.0995C4.16806 15.5962 4.81721 14.1954 5.60301 12.8971C6.42299 11.5988 7.41379 10.4372 8.50708 9.4464C9.63454 8.4556 10.8645 7.60147 12.1628 7.02065C13.4952 6.40567 14.8619 6.02985 16.2626 5.96152C17.6976 5.89319 18.9959 6.09818 20.1234 6.5765C21.285 7.05482 22.2758 7.84062 23.0274 8.79726C23.8132 9.78806 24.3599 10.9839 24.6332 12.3505C24.9065 13.7513 24.9065 15.2887 24.5649 16.9286C24.4282 17.6461 24.2232 18.3636 23.9499 19.0469C23.6766 19.7302 23.3691 20.4135 23.0274 21.0627C22.6516 21.7118 22.2758 22.3268 21.8316 22.9418C21.3875 23.5226 20.9092 24.1034 20.3967 24.6159C20.3967 24.4451 20.4308 24.2742 20.4308 24.0692C20.4308 23.8984 20.465 23.7276 20.465 23.5568C20.465 23.3859 20.465 23.2493 20.4992 23.1126C20.4992 22.9759 20.4992 22.8734 20.4992 22.8051C20.4992 22.7368 20.4992 22.6685 20.465 22.6343C20.465 22.6001 20.4308 22.566 20.4308 22.5318C20.3967 22.4976 20.3967 22.4976 20.3625 22.4635C20.3283 22.4635 20.2942 22.4635 20.2942 22.4293C20.26 22.4293 20.26 22.4293 20.2258 22.4293C20.1917 22.4293 20.1917 22.4293 20.1575 22.4293C20.1234 22.4293 20.1234 22.4293 20.1234 22.4293C20.1234 22.4293 20.1234 22.4293 20.0892 22.4293L15.6135 23.8984C15.6135 23.8984 15.5793 23.8984 15.511 23.9326C15.4768 23.9667 15.4085 24.0009 15.3402 24.0351C15.2718 24.1034 15.2377 24.1717 15.2377 24.2742C15.2377 24.3767 15.2377 24.4792 15.3402 24.6501V24.6842V24.7184V24.7525V24.7867C15.5452 25.1967 15.8185 25.7433 16.1602 26.3583C16.5018 26.9733 16.8776 27.6908 17.2193 28.3741C17.5951 29.0574 17.9709 29.7407 18.2784 30.3215C18.5859 30.9023 18.8592 31.4148 19.0301 31.7223C19.0301 31.7565 19.0642 31.7906 19.0642 31.7906C19.0642 31.8248 19.0984 31.8248 19.0984 31.859C19.0984 31.8931 19.1326 31.8931 19.1326 31.9273C19.1326 31.9615 19.1667 31.9615 19.1667 31.9615C19.2009 32.0298 19.2351 32.0981 19.3034 32.1665C19.3375 32.2348 19.3717 32.269 19.4059 32.3031C19.44 32.3373 19.4742 32.3715 19.5084 32.3715C19.5425 32.3715 19.5767 32.4056 19.6109 32.4056C19.6792 32.4056 19.7134 32.4056 19.7475 32.3715C19.7817 32.3373 19.8159 32.3031 19.85 32.2348C19.8842 32.2006 19.9184 32.1323 19.9184 32.064C19.9525 31.9956 19.9525 31.9615 19.9525 31.9273C19.9525 31.9273 19.9525 31.8931 19.9525 31.859C19.9525 31.8248 19.9525 31.8248 19.9525 31.7906C19.9525 31.7565 19.9525 31.7223 19.9525 31.6881C19.9525 31.654 19.9525 31.6198 19.9525 31.5856C19.9525 31.449 19.9867 31.244 19.9867 31.0732C19.9867 30.9023 20.0209 30.6973 20.0209 30.5265C20.0209 30.3557 20.055 30.1849 20.055 30.0824C20.055 29.9799 20.055 29.8774 20.055 29.8774C20.67 30.2532 21.285 30.5949 21.9 30.9365C22.5149 31.2782 23.0958 31.5856 23.6766 31.859C24.2574 32.1323 24.804 32.3373 25.3165 32.5081C25.829 32.6789 26.2731 32.7814 26.6831 32.8156C26.7515 32.8156 26.7856 32.8156 26.854 32.8156C26.9223 32.8156 26.9565 32.8156 27.0248 32.8156C27.0589 32.8156 27.1273 32.8156 27.1614 32.8156C27.1956 32.8156 27.2639 32.8156 27.2981 32.7814C27.3664 32.7814 27.4348 32.7473 27.5031 32.7131C27.5714 32.6789 27.6398 32.6789 27.6739 32.6448C27.7423 32.6106 27.7764 32.5764 27.8448 32.5423C27.8789 32.5081 27.9473 32.474 27.9814 32.4056C28.2547 32.0981 28.3914 31.6198 28.3914 31.039C28.3914 30.4582 28.2547 29.7065 28.0156 28.9207L28.1864 28.9891Z" fill="#833376"/>
<path d="M11.9912 13.7171C12.2987 13.7171 12.572 13.8196 12.7428 13.9904C12.9478 14.1613 13.0503 14.4004 13.0503 14.7079C13.0503 15.0496 12.9478 15.2887 12.7428 15.4595C12.5378 15.6304 12.2645 15.7329 11.9228 15.7329C11.137 15.7329 10.7271 15.3912 10.7271 14.7079H9.56543V14.7762C9.56543 15.3912 9.77042 15.8695 10.2146 16.2112C10.6246 16.5528 11.2054 16.7237 11.9228 16.7237C12.572 16.7237 13.1186 16.5528 13.5628 16.177C14.0069 15.8354 14.2461 15.3229 14.2461 14.6737C14.2461 14.4346 14.2119 14.2296 14.1436 14.0588C14.0753 13.8538 14.0069 13.7171 13.9044 13.6146C13.8361 13.5121 13.7336 13.4096 13.597 13.3071C13.4945 13.2388 13.392 13.1705 13.3578 13.1363C13.3236 13.1021 13.2895 13.1021 13.2553 13.1021L13.3236 13.068C13.392 13.0338 13.4603 12.9996 13.5286 12.8971C13.597 12.8288 13.6995 12.7263 13.7678 12.6238C13.8361 12.5213 13.9386 12.3505 13.9728 12.1797C14.0411 12.0088 14.0411 11.8038 14.0411 11.5988C14.0411 11.018 13.8361 10.5739 13.4603 10.2322C13.0503 9.89057 12.5378 9.75391 11.8545 9.75391C11.2054 9.75391 10.6587 9.92473 10.2487 10.2322C9.83875 10.5739 9.63376 11.018 9.63376 11.5988V11.6672H10.7612C10.7612 11.3597 10.8637 11.1205 11.0687 10.9497C11.2737 10.7789 11.5129 10.7105 11.8545 10.7105C12.1962 10.7105 12.4695 10.7789 12.6745 10.9497C12.8453 11.1205 12.9478 11.3255 12.9478 11.633C12.9478 11.9405 12.8453 12.1797 12.6745 12.3505C12.4695 12.5213 12.2303 12.6238 11.9228 12.6238H10.7612V13.6146L11.9912 13.6488V13.7171ZM19.7126 16.6895V15.6304H16.911L18.5168 14.0588C18.9609 13.6488 19.2343 13.2388 19.4051 12.8971C19.5759 12.5555 19.6784 12.1797 19.6784 11.8038C19.6784 11.1889 19.4734 10.7105 19.0976 10.3689C18.7218 10.0272 18.1751 9.8564 17.4918 9.8564C16.8085 9.8564 16.2619 10.0272 15.8519 10.3689C15.4419 10.7105 15.2369 11.1889 15.2369 11.838V11.9063H16.3985C16.3985 11.223 16.7402 10.8814 17.4918 10.8814C18.1751 10.8814 18.5168 11.223 18.5168 11.8722C18.5168 12.1455 18.4485 12.3846 18.346 12.6238C18.2435 12.863 18.0385 13.1021 17.731 13.4096L15.3736 15.6987V16.7578H19.7126V16.6895Z" fill="#833376"/>
<path d="M11.1038 22.3953V17.3047H10.2496V21.1996L8.23385 17.3047H6.96973V22.3953H7.82386V18.5005L9.87379 22.3953H11.1038ZM12.8804 21.917C12.8804 21.7804 12.8462 21.6779 12.7437 21.6095C12.6412 21.5412 12.5387 21.507 12.402 21.507C12.2654 21.507 12.1629 21.5412 12.0604 21.6095C11.9579 21.6779 11.9237 21.7804 11.9237 21.917V22.0537C11.9237 22.1904 11.9579 22.2929 12.0604 22.3612C12.1629 22.4295 12.2654 22.4637 12.402 22.4637C12.5387 22.4637 12.6754 22.4295 12.7437 22.3612C12.8462 22.2929 12.8804 22.1904 12.8804 22.0537V21.917ZM16.7069 21.0287H15.9211C15.9211 21.507 15.6819 21.7462 15.1694 21.7462C14.657 21.7462 14.4178 21.507 14.4178 20.9946V20.2429C14.4178 19.7304 14.657 19.4913 15.1694 19.4913C15.6819 19.4913 15.9211 19.7304 15.9211 20.2088H16.7069V20.1404C16.7069 19.6963 16.5702 19.3546 16.2969 19.1155C16.0236 18.8763 15.6478 18.7396 15.1694 18.7396C14.6911 18.7396 14.3153 18.8763 14.042 19.1155C13.7687 19.3546 13.632 19.7304 13.632 20.1746V21.0629C13.632 21.507 13.7687 21.8487 14.042 22.0879C14.3153 22.327 14.6911 22.4637 15.1694 22.4637C15.6478 22.4637 16.0236 22.3612 16.2969 22.122C16.5702 21.8829 16.7069 21.5412 16.7069 21.0971V21.0629V21.0287ZM22.4467 22.3953V19.8329C22.4467 19.4913 22.3442 19.218 22.1734 19.013C22.0025 18.808 21.7634 18.7396 21.4217 18.7396C21.1484 18.7396 20.8751 18.808 20.6018 18.9788L20.1918 19.218C20.0551 18.9105 19.7476 18.7396 19.3376 18.7396C19.0643 18.7396 18.8252 18.808 18.586 18.9446L18.2785 19.1496V18.7738H17.4585V22.3953H18.2785V19.9013L18.7227 19.6279C18.8935 19.5254 19.0302 19.4913 19.1668 19.4913C19.406 19.4913 19.5426 19.6279 19.5426 19.9354V22.3953H20.3626V19.9013L20.8068 19.6279C20.9776 19.5254 21.1142 19.4913 21.2509 19.4913C21.4901 19.4913 21.6267 19.6279 21.6267 19.9354V22.3953H22.4467Z" fill="#833376"/>
<path d="M24.7699 12.7936C28.2206 12.7936 31.0222 9.99207 31.0222 6.54135C31.0222 3.09063 28.2206 0.289062 24.7699 0.289062C21.3191 0.289062 18.5176 3.09063 18.5176 6.54135C18.5176 9.99207 21.3191 12.7936 24.7699 12.7936Z" fill="#833376"/>
<path d="M24.7699 12.7936C28.2206 12.7936 31.0222 9.99207 31.0222 6.54135C31.0222 3.09063 28.2206 0.289062 24.7699 0.289062C21.3191 0.289062 18.5176 3.09063 18.5176 6.54135C18.5176 9.99207 21.3191 12.7936 24.7699 12.7936Z" stroke="white" stroke-width="1.22996"/>
<path d="M26.9904 10.0969V9.41355H25.453V3.46875H24.6672C24.1889 3.9129 23.7447 4.18623 23.2664 4.35705V5.07453C23.7789 4.97203 24.2572 4.73287 24.6672 4.28872V9.44771H22.7539V10.131H26.9563L26.9904 10.0969Z" fill="#FEFEFE"/>
</svg>
