<svg width="34" height="36" viewBox="0 0 34 36" fill="none" xmlns="http://www.w3.org/2000/svg">
<path d="M30.3302 31.4321C30.0782 30.5794 29.7294 29.6491 29.2836 28.6994C28.8572 27.7497 28.3727 26.7806 27.83 25.8309C27.7525 25.9666 27.6749 26.0829 27.5974 26.1992C27.5199 26.3154 27.4424 26.4511 27.3648 26.5674C27.2873 26.6837 27.1904 26.8 27.1129 26.9163C27.016 27.0326 26.9384 27.1488 26.8415 27.2651L26.8222 27.2845L26.8028 27.3039L26.7834 27.3233L26.764 27.3427L26.6865 27.4396C26.764 27.6528 26.8609 27.9241 26.9578 28.1954C27.0547 28.4862 27.171 28.7769 27.2679 29.0676C27.3648 29.3583 27.4424 29.6297 27.4617 29.8429C27.5005 30.0561 27.4811 30.2305 27.4036 30.3274C27.3842 30.3468 27.3454 30.3855 27.3067 30.4049C27.2679 30.4243 27.2292 30.4437 27.1904 30.4631C27.1516 30.4825 27.1129 30.4825 27.0547 30.4825C27.016 30.4825 26.9578 30.4825 26.9191 30.4825C26.8415 30.4825 26.764 30.4631 26.6671 30.4437C26.5702 30.4243 26.4733 30.4049 26.3764 30.3662C26.2795 30.3274 26.1632 30.2886 26.0663 30.2499C25.95 30.2111 25.8337 30.153 25.7174 30.0948C25.5624 30.0173 25.4073 29.9398 25.2523 29.8622C25.0972 29.7847 24.9228 29.6878 24.7677 29.5909C24.5933 29.494 24.4189 29.3971 24.2444 29.2808C24.07 29.1645 23.8955 29.0676 23.7017 28.9513C24.4188 28.2342 25.0972 27.4783 25.698 26.6643C26.3182 25.8503 26.8803 24.9975 27.3648 24.106C27.8687 23.2144 28.2951 22.2841 28.644 21.3344C28.9929 20.3847 29.2836 19.3963 29.4774 18.4078C29.9232 16.1789 29.9038 14.0857 29.4968 12.2251C29.0898 10.3839 28.3145 8.77523 27.2485 7.45729C26.2019 6.15873 24.8452 5.17028 23.2753 4.53069C21.7442 3.91049 19.9999 3.61976 18.1005 3.75543C16.8601 3.83296 15.6197 4.1043 14.418 4.49193C13.2164 4.89894 12.0535 5.44162 10.9487 6.10059C9.844 6.75956 8.7974 7.53482 7.80895 8.42636C6.83987 9.29853 5.92895 10.287 5.11493 11.3336C4.90173 10.9266 4.70791 10.5389 4.57224 10.1901C4.43657 9.84121 4.32029 9.53111 4.26214 9.24038C4.204 8.96904 4.18462 8.71708 4.204 8.50389C4.22338 8.29069 4.28152 8.13564 4.39781 8.01935C4.43657 7.98059 4.47534 7.94183 4.53348 7.90306C4.59163 7.8643 4.64977 7.82554 4.7273 7.80616C4.80482 7.76739 4.88235 7.74801 4.97925 7.72863C5.07616 7.70925 5.17307 7.68987 5.26998 7.68987C5.38627 7.68987 5.50255 7.68987 5.61884 7.70925C5.73513 7.72863 5.8708 7.74801 5.98709 7.80616C6.10338 7.84492 6.23905 7.90306 6.35534 7.98059C6.49101 8.05812 6.6073 8.15502 6.74297 8.27131C6.85926 8.11626 6.99493 7.98059 7.1306 7.84492C7.26627 7.70925 7.40194 7.57358 7.53761 7.45729C7.67328 7.341 7.82833 7.20533 7.964 7.08904C8.11905 6.97275 8.2741 6.85647 8.42915 6.74018C8.44853 6.74018 8.44853 6.7208 8.46792 6.7208C8.4873 6.70141 8.4873 6.70141 8.50668 6.70141C8.52606 6.70141 8.52606 6.68203 8.54544 6.68203C8.56482 6.68203 8.56482 6.66265 8.5842 6.66265C8.29348 6.41069 8.00276 6.1975 7.67328 6.02306C7.36317 5.84863 7.03369 5.71296 6.7042 5.61605C6.37472 5.51915 6.04523 5.461 5.71575 5.42224C5.38627 5.38348 5.07616 5.38348 4.78544 5.40286C4.57224 5.42224 4.37843 5.44162 4.18462 5.48038C3.9908 5.51915 3.81637 5.55791 3.66132 5.61605C3.50626 5.6742 3.35121 5.73234 3.23492 5.80987C3.11864 5.88739 3.00235 5.96492 2.92482 6.06183C2.67286 6.33317 2.51781 6.68203 2.45967 7.12781C2.40152 7.5542 2.4209 8.05812 2.51781 8.63956C2.6341 9.20162 2.80853 9.84121 3.07987 10.5389C3.35121 11.2367 3.70008 11.9732 4.12647 12.7678C3.83575 13.2136 3.56441 13.6787 3.31245 14.1439C3.06049 14.609 2.80853 15.0936 2.59534 15.5781C2.38214 16.0627 2.16894 16.5666 1.99451 17.0705C1.82008 17.5744 1.64565 18.0977 1.50998 18.621C0.986676 20.6173 0.831624 22.5554 1.00606 24.3385C1.18049 26.141 1.70379 27.8078 2.51781 29.242C3.35121 30.6956 4.49472 31.9167 5.90956 32.8082C7.34379 33.7192 9.06874 34.2812 11.0069 34.3975C11.5883 34.4363 12.1698 34.4169 12.7512 34.3781C13.3327 34.3394 13.9335 34.2425 14.5149 34.1262C15.0964 34.0099 15.6972 33.8548 16.2786 33.661C16.8601 33.4672 17.4415 33.2346 18.023 32.9827L16.6469 30.3662C16.2399 30.5212 15.8329 30.6763 15.4259 30.7926C15.0188 30.9088 14.6118 31.0058 14.2048 31.0833C13.7978 31.1608 13.3908 31.2189 12.9644 31.2383C12.5574 31.2577 12.1504 31.2771 11.7434 31.2577C10.1735 31.1802 8.77802 30.7538 7.61513 30.0367C6.45225 29.3389 5.52194 28.3699 4.84358 27.207C4.16523 26.0635 3.71946 24.7262 3.56441 23.2532C3.40936 21.7996 3.52565 20.2297 3.95204 18.6016C4.35905 16.9736 5.05678 15.4424 5.92895 14.047C6.80111 12.6515 7.86709 11.3723 9.06874 10.3064C10.2704 9.221 11.6271 8.32946 13.0419 7.67049C14.4762 7.01152 15.9685 6.60451 17.4997 6.52698C19.0308 6.43007 20.4457 6.68203 21.6861 7.20533C22.9459 7.74801 24.0118 8.56203 24.8452 9.60863C25.698 10.6746 26.2989 11.9925 26.609 13.4655C26.9191 14.9579 26.9191 16.6441 26.5508 18.4272C26.3958 19.2024 26.1632 19.9777 25.8918 20.7336C25.6011 21.4895 25.2716 22.2066 24.884 22.9237C24.4964 23.6214 24.0506 24.2998 23.5661 24.9394C23.0815 25.5789 22.5582 26.1798 21.9962 26.7418C22.0155 26.548 22.0156 26.3542 22.0349 26.1604C22.0543 25.9666 22.0543 25.7728 22.0543 25.5983C22.0543 25.4239 22.0737 25.2495 22.0737 25.1138C22.0737 24.9781 22.0737 24.8618 22.0737 24.7843C22.0737 24.7068 22.0737 24.6486 22.0543 24.5905C22.0349 24.5517 22.0155 24.513 21.9962 24.4742C21.9768 24.4548 21.938 24.4354 21.9186 24.4161C21.8993 24.3967 21.8605 24.3967 21.8217 24.3967C21.8024 24.3967 21.7636 24.3967 21.7442 24.3967C21.7248 24.3967 21.7054 24.4161 21.6861 24.4161C21.6667 24.4161 21.6473 24.4354 21.6473 24.4354C21.6279 24.4354 21.6279 24.4548 21.6279 24.4548L16.7826 26.0247C16.7826 26.0247 16.7244 26.0441 16.6857 26.0635C16.6275 26.0829 16.5694 26.1216 16.5112 26.1798C16.4531 26.2379 16.4143 26.3154 16.3949 26.4317C16.3949 26.5286 16.4143 26.6643 16.4918 26.8387C16.4918 26.8581 16.5112 26.8581 16.5112 26.8581C16.5112 26.8775 16.5112 26.8775 16.5306 26.8775C16.5306 26.8969 16.5306 26.8969 16.55 26.9163C16.55 26.9163 16.55 26.9356 16.5694 26.955C16.7826 27.4008 17.0927 27.9822 17.4609 28.6606C17.8098 29.3389 18.2168 30.0948 18.6238 30.8313C19.0308 31.5872 19.4184 32.3237 19.7673 32.9439C20.1162 33.5835 20.4069 34.1068 20.5813 34.4363C20.6007 34.4557 20.6201 34.4944 20.6201 34.5138C20.6395 34.5332 20.6395 34.5719 20.6588 34.5913C20.6782 34.6107 20.6782 34.6301 20.6976 34.6495C20.717 34.6688 20.717 34.6882 20.717 34.7076C20.7558 34.7851 20.8139 34.8627 20.8527 34.9208C20.8914 34.979 20.9302 35.0371 20.969 35.0759C21.0077 35.1146 21.0465 35.134 21.0852 35.1534C21.124 35.1728 21.1628 35.1728 21.1821 35.1728C21.2403 35.1728 21.2984 35.1534 21.3372 35.1146C21.3953 35.0759 21.4341 35.0371 21.4729 34.979C21.5116 34.9208 21.531 34.8627 21.5504 34.8045C21.5698 34.7464 21.5892 34.6882 21.5892 34.6495C21.5892 34.6301 21.5892 34.6107 21.5892 34.5913C21.5892 34.5719 21.5892 34.5332 21.5892 34.5138C21.5892 34.475 21.5892 34.4557 21.5892 34.4169C21.5892 34.3781 21.5892 34.3394 21.5892 34.3006C21.6085 34.1455 21.6085 33.9517 21.6279 33.7579C21.6473 33.5641 21.6473 33.3509 21.6667 33.1765C21.6861 32.9827 21.6861 32.8276 21.6861 32.6919C21.6861 32.5757 21.7054 32.4787 21.7054 32.4787C22.3644 32.8858 23.0428 33.2734 23.6824 33.6222C24.3413 33.9905 24.9809 34.32 25.6011 34.6107C26.2213 34.9014 26.8221 35.1534 27.3648 35.3278C27.9075 35.5022 28.4114 35.6185 28.8572 35.6379C28.9153 35.6379 28.9735 35.6379 29.0316 35.6379C29.0898 35.6379 29.1479 35.6379 29.2061 35.6379C29.2642 35.6379 29.3224 35.6379 29.3611 35.6185C29.4193 35.6185 29.458 35.5992 29.5162 35.5992C29.5937 35.5798 29.6712 35.5604 29.7294 35.541C29.8069 35.5216 29.865 35.4829 29.9232 35.4635C29.9813 35.4247 30.0395 35.386 30.0976 35.3472C30.1558 35.3084 30.2139 35.2503 30.2527 35.2115C30.5628 34.882 30.6984 34.3587 30.6984 33.7192C30.6984 33.0796 30.5434 32.3043 30.2914 31.4321H30.3302Z" fill="#833376"/>
<path d="M15.2326 18.0944V16.9702H13.6433V10.7294H12.4611C11.9571 11.1946 11.4145 11.5047 10.833 11.6791V12.842C11.1237 12.8032 11.4145 12.7063 11.6858 12.5513C11.9765 12.3962 12.2091 12.2412 12.3642 12.0861V16.9509H10.3291V18.075L15.2326 18.0944ZM21.2215 12.842C21.2215 12.1636 20.9889 11.621 20.5237 11.214C20.0586 10.8069 19.4578 10.5938 18.7213 10.5938C17.9848 10.5938 17.3839 10.7876 16.9188 11.1946C16.4536 11.6016 16.2211 12.1443 16.2211 12.8032V15.9236C16.2211 16.602 16.4536 17.1253 16.9188 17.5323C17.3839 17.9393 17.9848 18.1331 18.7213 18.1331C19.4578 18.1331 20.0586 17.9199 20.5237 17.5129C20.9889 17.1059 21.2215 16.5632 21.2215 15.8849V12.8032V12.842ZM19.9617 15.8267C19.9617 16.2144 19.8648 16.5245 19.6322 16.7377C19.419 16.9509 19.1089 17.0672 18.7407 17.0672C18.353 17.0672 18.0623 16.9509 17.8491 16.7377C17.6359 16.5245 17.5196 16.2144 17.5196 15.8267V12.9001C17.5196 12.5125 17.6165 12.2024 17.8491 11.9892C18.0623 11.776 18.3724 11.6597 18.76 11.6597C19.1477 11.6597 19.4578 11.776 19.671 11.9892C19.8842 12.2024 20.0004 12.5125 20.0004 12.9001L19.9811 15.8267H19.9617Z" fill="#833376"/>
<path d="M11.8218 24.2776V18.7539H10.8915V22.9597L8.70143 18.7539H7.34473V24.2776H8.27504V20.0718L10.4845 24.2776H11.8218ZM13.76 23.7543C13.76 23.6186 13.7212 23.5024 13.6243 23.4248C13.5274 23.3473 13.3917 23.3085 13.2367 23.3085C13.0816 23.3085 12.9653 23.3473 12.8684 23.4248C12.7715 23.5024 12.7328 23.5993 12.7328 23.7543V23.9094C12.7328 24.045 12.7909 24.1613 12.8878 24.2195C12.9847 24.297 13.101 24.3358 13.2561 24.3358C13.4111 24.3358 13.5468 24.297 13.6437 24.2195C13.7406 24.1419 13.7794 24.045 13.7794 23.9094L13.76 23.7543ZM17.9076 22.7852H17.0355C17.0355 23.3085 16.7641 23.5605 16.202 23.5605C15.6594 23.5605 15.388 23.2892 15.388 22.7271V21.9131C15.388 21.351 15.6594 21.0797 16.202 21.0797C16.7447 21.0797 17.0355 21.3316 17.0355 21.8743H17.9076V21.7968C17.9076 21.3123 17.7526 20.944 17.4618 20.6921C17.1517 20.4401 16.7447 20.3044 16.2408 20.3044C15.7369 20.3044 15.3105 20.4401 15.0198 20.7114C14.7097 20.9828 14.5546 21.3704 14.5546 21.8549V22.824C14.5546 23.3085 14.7097 23.6768 15.0198 23.9481C15.3299 24.2195 15.7369 24.3551 16.2408 24.3551C16.7641 24.3551 17.1711 24.2389 17.4812 23.9675C17.7913 23.7156 17.9464 23.3279 17.9464 22.8628L17.927 22.8046L17.9076 22.7852ZM24.1291 24.2776V21.5255C24.1291 21.1378 24.0322 20.8471 23.8383 20.6533C23.6445 20.4401 23.3732 20.3432 23.0437 20.3432C22.7336 20.3432 22.4429 20.4401 22.1522 20.6145L21.7258 20.8665C21.5707 20.5176 21.2606 20.3432 20.7955 20.3432C20.5047 20.3432 20.2334 20.4207 19.9814 20.5758L19.6326 20.789V20.3819H18.741V24.297H19.6326V21.603L20.0977 21.3123C20.2915 21.2153 20.4466 21.1572 20.5629 21.1572C20.8342 21.1572 20.9699 21.3123 20.9699 21.6417V24.297H21.8614V21.603L22.3266 21.3123C22.5204 21.2153 22.6755 21.1572 22.7917 21.1572C23.0631 21.1572 23.1988 21.3123 23.1988 21.6417V24.297H24.1097L24.1291 24.2776Z" fill="#833376"/>
<path d="M26.6284 13.8681C30.369 13.8681 33.3925 10.8446 33.3925 7.10397C33.3925 3.36335 30.369 0.339844 26.6284 0.339844C22.8878 0.339844 19.8643 3.36335 19.8643 7.10397C19.8643 10.8446 22.8878 13.8681 26.6284 13.8681Z" fill="#833376"/>
<path d="M26.6284 13.8681C30.369 13.8681 33.3925 10.8446 33.3925 7.10397C33.3925 3.36335 30.369 0.339844 26.6284 0.339844C22.8878 0.339844 19.8643 3.36335 19.8643 7.10397C19.8643 10.8446 22.8878 13.8681 26.6284 13.8681Z" stroke="white" stroke-width="1.31794"/>
<path d="M28.8375 10.9596V10.1843H25.5232L27.6164 8.07176C28.0622 7.62599 28.3723 7.21898 28.5467 6.85073C28.7212 6.48249 28.7987 6.11424 28.7987 5.72661C28.7987 5.12578 28.6243 4.62187 28.2366 4.25362C27.8684 3.88537 27.3257 3.71094 26.6086 3.71094C25.9496 3.71094 25.4069 3.88537 24.9806 4.23424C24.5735 4.5831 24.3604 5.04826 24.3604 5.6297V5.70723H25.1744C25.1744 5.30022 25.2907 4.99011 25.5426 4.77692C25.7946 4.5831 26.1434 4.46681 26.5892 4.46681C27.0544 4.46681 27.4032 4.56372 27.6358 4.7963C27.8684 5.0095 27.9847 5.3196 27.9847 5.72661C27.9847 6.05609 27.9265 6.34681 27.7715 6.61816C27.6358 6.90888 27.3839 7.21898 27.0544 7.56785L24.5154 10.1843V10.9596L28.8181 10.979L28.8375 10.9596Z" fill="#FEFEFE"/>
</svg>
