<svg width="34" height="36" viewBox="0 0 34 36" fill="none" xmlns="http://www.w3.org/2000/svg">
<path d="M30.0636 31.5962C29.8116 30.7434 29.4628 29.8131 29.017 28.8634C28.5906 27.9137 28.1061 26.9447 27.5634 25.995C27.4859 26.1306 27.4083 26.2469 27.3308 26.3632C27.2533 26.4795 27.1758 26.6152 27.0982 26.7315C27.0207 26.8477 26.9238 26.964 26.8463 27.0803C26.7494 27.1966 26.6718 27.3129 26.5749 27.4292L26.5555 27.4486L26.5362 27.468L26.5168 27.4873L26.4974 27.5067L26.4199 27.6036C26.4974 27.8168 26.5943 28.0882 26.6912 28.3595C26.7881 28.6502 26.9044 28.9409 27.0013 29.2317C27.0982 29.5224 27.1758 29.7937 27.1951 30.0069C27.2339 30.2201 27.2145 30.3946 27.137 30.4915C27.1176 30.5108 27.0788 30.5496 27.0401 30.569C27.0013 30.5884 26.9626 30.6078 26.9238 30.6271C26.885 30.6465 26.8463 30.6465 26.7881 30.6465C26.7494 30.6465 26.6912 30.6465 26.6525 30.6465C26.5749 30.6465 26.4974 30.6271 26.4005 30.6078C26.3036 30.5884 26.2067 30.569 26.1098 30.5302C26.0129 30.4915 25.8966 30.4527 25.7997 30.4139C25.6834 30.3752 25.5671 30.317 25.4508 30.2589C25.2958 30.1814 25.1407 30.1038 24.9857 30.0263C24.8306 29.9488 24.6562 29.8519 24.5011 29.755C24.3267 29.6581 24.1523 29.5612 23.9778 29.4449C23.8034 29.3286 23.6289 29.2317 23.4351 29.1154C24.1522 28.3983 24.8306 27.6424 25.4314 26.8284C26.0516 26.0143 26.6137 25.1616 27.0982 24.27C27.6021 23.3785 28.0285 22.4482 28.3774 21.4985C28.7263 20.5488 29.017 19.5603 29.2108 18.5719C29.6566 16.343 29.6372 14.2498 29.2302 12.3892C28.8232 10.548 28.0479 8.93929 26.9819 7.62135C25.9353 6.3228 24.5786 5.33434 23.0087 4.69475C21.4776 4.07455 19.7333 3.78383 17.8339 3.9195C16.5935 3.99702 15.3531 4.26836 14.1514 4.65599C12.9498 5.063 11.7869 5.60568 10.6821 6.26465C9.5774 6.92362 8.5308 7.69888 7.54235 8.59043C6.57327 9.46259 5.66234 10.451 4.84832 11.4976C4.63513 11.0906 4.44131 10.703 4.30564 10.3541C4.16997 10.0053 4.05368 9.69517 3.99554 9.40445C3.9374 9.13311 3.91801 8.88115 3.9374 8.66795C3.95678 8.45476 4.01492 8.2997 4.13121 8.18341C4.16997 8.14465 4.20874 8.10589 4.26688 8.06713C4.32502 8.02836 4.38317 7.9896 4.46069 7.97022C4.53822 7.93146 4.61575 7.91207 4.71265 7.89269C4.80956 7.87331 4.90647 7.85393 5.00338 7.85393C5.11966 7.85393 5.23595 7.85393 5.35224 7.87331C5.46853 7.89269 5.6042 7.91207 5.72049 7.97022C5.83678 8.00898 5.97245 8.06713 6.08874 8.14465C6.22441 8.22218 6.3407 8.31909 6.47637 8.43537C6.59265 8.28032 6.72832 8.14465 6.86399 8.00898C6.99966 7.87331 7.13533 7.73764 7.27101 7.62135C7.40668 7.50506 7.56173 7.36939 7.6974 7.25311C7.85245 7.13682 8.0075 7.02053 8.16255 6.90424C8.18193 6.90424 8.18193 6.88486 8.20131 6.88486C8.2207 6.86548 8.2207 6.86548 8.24008 6.86548C8.25946 6.86548 8.25946 6.84609 8.27884 6.84609C8.29822 6.84609 8.29822 6.82671 8.3176 6.82671C8.02688 6.57475 7.73616 6.36156 7.40667 6.18713C7.09657 6.01269 6.76709 5.87702 6.4376 5.78012C6.10812 5.68321 5.77863 5.62506 5.44915 5.5863C5.11966 5.54754 4.80956 5.54754 4.51884 5.56692C4.30564 5.5863 4.11183 5.60568 3.91801 5.64444C3.7242 5.68321 3.54977 5.72197 3.39471 5.78012C3.23966 5.83826 3.08461 5.8964 2.96832 5.97393C2.85203 6.05146 2.73575 6.12898 2.65822 6.22589C2.40626 6.49723 2.25121 6.84609 2.19306 7.29187C2.13492 7.71826 2.1543 8.22218 2.25121 8.80362C2.3675 9.36568 2.54193 10.0053 2.81327 10.703C3.08461 11.4007 3.43348 12.1372 3.85987 12.9319C3.56915 13.3776 3.29781 13.8428 3.04585 14.308C2.79389 14.7731 2.54193 15.2576 2.32873 15.7422C2.11554 16.2267 1.90234 16.7306 1.72791 17.2346C1.55348 17.7385 1.37904 18.2618 1.24337 18.7851C0.720074 20.7814 0.565023 22.7195 0.739456 24.5026C0.913889 26.3051 1.43719 27.9719 2.25121 29.4061C3.08461 30.8597 4.22812 32.0807 5.64296 32.9723C7.07719 33.8832 8.80214 34.4453 10.7403 34.5616C11.3217 34.6003 11.9032 34.5809 12.4846 34.5422C13.0661 34.5034 13.6669 34.4065 14.2483 34.2902C14.8298 34.1739 15.4306 34.0189 16.012 33.8251C16.5935 33.6313 17.1749 33.3987 17.7564 33.1467L16.3803 30.5302C15.9733 30.6853 15.5663 30.8403 15.1593 30.9566C14.7522 31.0729 14.3452 31.1698 13.9382 31.2473C13.5312 31.3249 13.1242 31.383 12.6978 31.4024C12.2908 31.4218 11.8838 31.4412 11.4768 31.4218C9.90688 31.3442 8.51142 30.9179 7.34853 30.2007C6.18564 29.503 5.25533 28.5339 4.57698 27.371C3.89863 26.2275 3.45286 24.8902 3.29781 23.4172C3.14276 21.9636 3.25904 20.3937 3.68544 18.7657C4.09245 17.1376 4.79018 15.6065 5.66234 14.211C6.53451 12.8156 7.60049 11.5364 8.80214 10.4704C10.0038 9.38506 11.3605 8.49352 12.7753 7.83455C14.2096 7.17558 15.7019 6.76857 17.2331 6.69104C18.7642 6.59414 20.1791 6.84609 21.4195 7.36939C22.6793 7.91207 23.7452 8.7261 24.5786 9.77269C25.4314 10.8387 26.0322 12.1566 26.3424 13.6296C26.6525 15.122 26.6525 16.8082 26.2842 18.5913C26.1292 19.3665 25.8966 20.1418 25.6252 20.8976C25.3345 21.6535 25.005 22.3706 24.6174 23.0877C24.2298 23.7855 23.784 24.4638 23.2995 25.1034C22.8149 25.743 22.2916 26.3438 21.7296 26.9059C21.7489 26.7121 21.7489 26.5183 21.7683 26.3245C21.7877 26.1306 21.7877 25.9368 21.7877 25.7624C21.7877 25.588 21.8071 25.4135 21.8071 25.2779C21.8071 25.1422 21.8071 25.0259 21.8071 24.9484C21.8071 24.8708 21.8071 24.8127 21.7877 24.7546C21.7683 24.7158 21.7489 24.677 21.7296 24.6383C21.7102 24.6189 21.6714 24.5995 21.652 24.5801C21.6327 24.5607 21.5939 24.5607 21.5551 24.5607C21.5358 24.5607 21.497 24.5607 21.4776 24.5607C21.4582 24.5607 21.4388 24.5801 21.4195 24.5801C21.4001 24.5801 21.3807 24.5995 21.3807 24.5995C21.3613 24.5995 21.3613 24.6189 21.3613 24.6189L16.516 26.1888C16.516 26.1888 16.4578 26.2082 16.419 26.2275C16.3609 26.2469 16.3028 26.2857 16.2446 26.3438C16.1865 26.402 16.1477 26.4795 16.1283 26.5958C16.1283 26.6927 16.1477 26.8284 16.2252 27.0028C16.2252 27.0222 16.2446 27.0222 16.2446 27.0222C16.2446 27.0416 16.2446 27.0416 16.264 27.0416C16.264 27.0609 16.264 27.0609 16.2834 27.0803C16.2834 27.0803 16.2834 27.0997 16.3028 27.1191C16.516 27.5649 16.8261 28.1463 17.1943 28.8247C17.5432 29.503 17.9502 30.2589 18.3572 30.9954C18.7642 31.7513 19.1518 32.4878 19.5007 33.108C19.8496 33.7475 20.1403 34.2708 20.3147 34.6003C20.3341 34.6197 20.3535 34.6585 20.3535 34.6779C20.3729 34.6972 20.3729 34.736 20.3922 34.7554C20.4116 34.7748 20.4116 34.7941 20.431 34.8135C20.4504 34.8329 20.4504 34.8523 20.4504 34.8717C20.4892 34.9492 20.5473 35.0267 20.5861 35.0849C20.6248 35.143 20.6636 35.2012 20.7024 35.2399C20.7411 35.2787 20.7799 35.2981 20.8186 35.3174C20.8574 35.3368 20.8962 35.3368 20.9155 35.3368C20.9737 35.3368 21.0318 35.3174 21.0706 35.2787C21.1287 35.2399 21.1675 35.2012 21.2063 35.143C21.245 35.0849 21.2644 35.0267 21.2838 34.9686C21.3032 34.9104 21.3226 34.8523 21.3226 34.8135C21.3226 34.7941 21.3226 34.7748 21.3226 34.7554C21.3226 34.736 21.3226 34.6972 21.3226 34.6779C21.3226 34.6391 21.3226 34.6197 21.3226 34.5809C21.3226 34.5422 21.3226 34.5034 21.3226 34.4647C21.3419 34.3096 21.3419 34.1158 21.3613 33.922C21.3807 33.7282 21.3807 33.515 21.4001 33.3405C21.4195 33.1467 21.4195 32.9917 21.4195 32.856C21.4195 32.7397 21.4388 32.6428 21.4388 32.6428C22.0978 33.0498 22.7762 33.4374 23.4158 33.7863C24.0747 34.1546 24.7143 34.484 25.3345 34.7748C25.9547 35.0655 26.5555 35.3174 27.0982 35.4919C27.6409 35.6663 28.1448 35.7826 28.5906 35.802C28.6487 35.802 28.7069 35.802 28.765 35.802C28.8232 35.802 28.8813 35.802 28.9395 35.802C28.9976 35.802 29.0558 35.802 29.0945 35.7826C29.1527 35.7826 29.1914 35.7632 29.2496 35.7632C29.3271 35.7438 29.4046 35.7245 29.4628 35.7051C29.5403 35.6857 29.5984 35.6469 29.6566 35.6276C29.7147 35.5888 29.7729 35.55 29.831 35.5113C29.8892 35.4725 29.9473 35.4144 29.9861 35.3756C30.2962 35.0461 30.4318 34.5228 30.4318 33.8832C30.4318 33.2436 30.2768 32.4684 30.0248 31.5962H30.0636Z" fill="#833376"/>
<path d="M14.966 18.2584V17.1343H13.3767V10.8935H12.1945C11.6905 11.3586 11.1479 11.6687 10.5664 11.8432V13.0061C10.8571 12.9673 11.1479 12.8704 11.4192 12.7153C11.7099 12.5603 11.9425 12.4052 12.0976 12.2502V17.1149H10.0625V18.2391L14.966 18.2584ZM20.9549 13.0061C20.9549 12.3277 20.7223 11.785 20.2571 11.378C19.792 10.971 19.1912 10.7578 18.4547 10.7578C17.7182 10.7578 17.1173 10.9516 16.6522 11.3586C16.187 11.7656 15.9545 12.3083 15.9545 12.9673V16.0877C15.9545 16.7661 16.187 17.2894 16.6522 17.6964C17.1173 18.1034 17.7182 18.2972 18.4547 18.2972C19.1912 18.2972 19.792 18.084 20.2571 17.677C20.7223 17.27 20.9549 16.7273 20.9549 16.0489V12.9673V13.0061ZM19.6951 15.9908C19.6951 16.3784 19.5982 16.6885 19.3656 16.9017C19.1524 17.1149 18.8423 17.2312 18.474 17.2312C18.0864 17.2312 17.7957 17.1149 17.5825 16.9017C17.3693 16.6885 17.253 16.3784 17.253 15.9908V13.0642C17.253 12.6766 17.3499 12.3665 17.5825 12.1533C17.7957 11.9401 18.1058 11.8238 18.4934 11.8238C18.8811 11.8238 19.1912 11.9401 19.4044 12.1533C19.6176 12.3665 19.7338 12.6766 19.7338 13.0642L19.7145 15.9908H19.6951Z" fill="#833376"/>
<path d="M11.5552 24.4417V18.918H10.6249V23.1237L8.43483 18.918H7.07812V24.4417H8.00843V20.2359L10.2179 24.4417H11.5552ZM13.4934 23.9184C13.4934 23.7827 13.4546 23.6664 13.3577 23.5889C13.2608 23.5114 13.1251 23.4726 12.9701 23.4726C12.815 23.4726 12.6987 23.5114 12.6018 23.5889C12.5049 23.6664 12.4662 23.7633 12.4662 23.9184V24.0734C12.4662 24.2091 12.5243 24.3254 12.6212 24.3835C12.7181 24.4611 12.8344 24.4998 12.9895 24.4998C13.1445 24.4998 13.2802 24.4611 13.3771 24.3835C13.474 24.306 13.5128 24.2091 13.5128 24.0734L13.4934 23.9184ZM17.641 22.9493H16.7689C16.7689 23.4726 16.4975 23.7246 15.9354 23.7246C15.3928 23.7246 15.1214 23.4532 15.1214 22.8912V22.0771C15.1214 21.5151 15.3928 21.2437 15.9354 21.2437C16.4781 21.2437 16.7689 21.4957 16.7689 22.0384H17.641V21.9609C17.641 21.4763 17.486 21.1081 17.1952 20.8561C16.8851 20.6042 16.4781 20.4685 15.9742 20.4685C15.4703 20.4685 15.0439 20.6042 14.7532 20.8755C14.4431 21.1468 14.288 21.5345 14.288 22.019V22.9881C14.288 23.4726 14.4431 23.8409 14.7532 24.1122C15.0633 24.3835 15.4703 24.5192 15.9742 24.5192C16.4975 24.5192 16.9045 24.4029 17.2146 24.1316C17.5247 23.8796 17.6798 23.492 17.6798 23.0268L17.6604 22.9687L17.641 22.9493ZM23.8625 24.4417V21.6895C23.8625 21.3019 23.7656 21.0112 23.5717 20.8174C23.3779 20.6042 23.1066 20.5072 22.7771 20.5072C22.467 20.5072 22.1763 20.6042 21.8856 20.7786L21.4592 21.0305C21.3041 20.6817 20.994 20.5072 20.5289 20.5072C20.2381 20.5072 19.9668 20.5848 19.7148 20.7398L19.366 20.953V20.546H18.4744V24.4611H19.366V21.767L19.8311 21.4763C20.0249 21.3794 20.18 21.3213 20.2963 21.3213C20.5676 21.3213 20.7033 21.4763 20.7033 21.8058V24.4611H21.5948V21.767L22.06 21.4763C22.2538 21.3794 22.4089 21.3213 22.5251 21.3213C22.7965 21.3213 22.9321 21.4763 22.9321 21.8058V24.4611H23.8431L23.8625 24.4417Z" fill="#833376"/>
<path d="M26.3618 14.0322C30.1024 14.0322 33.1259 11.0087 33.1259 7.26803C33.1259 3.52741 30.1024 0.503906 26.3618 0.503906C22.6212 0.503906 19.5977 3.52741 19.5977 7.26803C19.5977 11.0087 22.6212 14.0322 26.3618 14.0322Z" fill="#833376"/>
<path d="M26.3618 14.0322C30.1024 14.0322 33.1259 11.0087 33.1259 7.26803C33.1259 3.52741 30.1024 0.503906 26.3618 0.503906C22.6212 0.503906 19.5977 3.52741 19.5977 7.26803C19.5977 11.0087 22.6212 14.0322 26.3618 14.0322Z" stroke="white" stroke-width="1.31794"/>
<path d="M28.5709 11.1237V10.3484H25.2566L27.3498 8.23583C27.7956 7.79005 28.1057 7.38304 28.2801 7.0148C28.4546 6.64655 28.5321 6.2783 28.5321 5.89067C28.5321 5.28985 28.3577 4.78593 27.97 4.41768C27.6018 4.04943 27.0591 3.875 26.342 3.875C25.683 3.875 25.1403 4.04943 24.714 4.3983C24.3069 4.74717 24.0938 5.21232 24.0938 5.79376V5.87129H24.9078C24.9078 5.46428 25.0241 5.15418 25.276 4.94098C25.528 4.74717 25.8768 4.63088 26.3226 4.63088C26.7878 4.63088 27.1366 4.72778 27.3692 4.96036C27.6018 5.17356 27.7181 5.48366 27.7181 5.89067C27.7181 6.22016 27.6599 6.51088 27.5049 6.78222C27.3692 7.07294 27.1173 7.38304 26.7878 7.73191L24.2488 10.3484V11.1237L28.5515 11.143L28.5709 11.1237Z" fill="#FEFEFE"/>
</svg>
