<svg width="33" height="37" viewBox="0 0 33 37" fill="none" xmlns="http://www.w3.org/2000/svg">
<path d="M29.8302 31.8657C29.5782 31.013 29.2294 30.0826 28.7836 29.133C28.3572 28.1833 27.8727 27.2142 27.33 26.2645C27.2525 26.4002 27.1749 26.5165 27.0974 26.6327C27.0199 26.749 26.9424 26.8847 26.8648 27.001C26.7873 27.1173 26.6904 27.2336 26.6129 27.3499C26.516 27.4661 26.4384 27.5824 26.3415 27.6987L26.3222 27.7181L26.3028 27.7375L26.2834 27.7569L26.264 27.7763L26.1865 27.8732C26.264 28.0864 26.3609 28.3577 26.4578 28.629C26.5547 28.9198 26.671 29.2105 26.7679 29.5012C26.8648 29.7919 26.9424 30.0633 26.9617 30.2765C27.0005 30.4897 26.9811 30.6641 26.9036 30.761C26.8842 30.7804 26.8454 30.8191 26.8067 30.8385C26.7679 30.8579 26.7292 30.8773 26.6904 30.8967C26.6516 30.916 26.6129 30.916 26.5547 30.916C26.516 30.916 26.4578 30.916 26.4191 30.916C26.3415 30.916 26.264 30.8967 26.1671 30.8773C26.0702 30.8579 25.9733 30.8385 25.8764 30.7998C25.7795 30.761 25.6632 30.7222 25.5663 30.6835C25.45 30.6447 25.3337 30.5866 25.2174 30.5284C25.0624 30.4509 24.9073 30.3734 24.7523 30.2958C24.5972 30.2183 24.4228 30.1214 24.2677 30.0245C24.0933 29.9276 23.9189 29.8307 23.7444 29.7144C23.57 29.5981 23.3955 29.5012 23.2017 29.3849C23.9188 28.6678 24.5972 27.9119 25.198 27.0979C25.8182 26.2839 26.3803 25.4311 26.8648 24.5396C27.3687 23.648 27.7951 22.7177 28.144 21.768C28.4929 20.8183 28.7836 19.8299 28.9774 18.8414C29.4232 16.6125 29.4038 14.5193 28.9968 12.6587C28.5898 10.8175 27.8145 9.20882 26.7485 7.89088C25.7019 6.59233 24.3452 5.60387 22.7753 4.96429C21.2442 4.34408 19.4999 4.05336 17.6005 4.18903C16.3601 4.26655 15.1197 4.53789 13.918 4.92552C12.7164 5.33253 11.5535 5.87521 10.4487 6.53418C9.344 7.19315 8.2974 7.96841 7.30895 8.85996C6.33987 9.73212 5.42895 10.7206 4.61493 11.7672C4.40173 11.3602 4.20791 10.9725 4.07224 10.6237C3.93657 10.2748 3.82029 9.9647 3.76214 9.67398C3.704 9.40264 3.68462 9.15068 3.704 8.93748C3.72338 8.72429 3.78152 8.56923 3.89781 8.45295C3.93657 8.41418 3.97534 8.37542 4.03348 8.33666C4.09163 8.29789 4.14977 8.25913 4.2273 8.23975C4.30482 8.20099 4.38235 8.18161 4.47925 8.16222C4.57616 8.14284 4.67307 8.12346 4.76998 8.12346C4.88627 8.12346 5.00255 8.12346 5.11884 8.14284C5.23513 8.16222 5.3708 8.18161 5.48709 8.23975C5.60338 8.27851 5.73905 8.33666 5.85534 8.41418C5.99101 8.49171 6.1073 8.58862 6.24297 8.70491C6.35926 8.54985 6.49493 8.41418 6.6306 8.27851C6.76627 8.14284 6.90194 8.00717 7.03761 7.89088C7.17328 7.7746 7.32833 7.63893 7.464 7.52264C7.61905 7.40635 7.7741 7.29006 7.92915 7.17377C7.94853 7.17377 7.94853 7.15439 7.96792 7.15439C7.9873 7.13501 7.9873 7.13501 8.00668 7.13501C8.02606 7.13501 8.02606 7.11563 8.04544 7.11563C8.06482 7.11563 8.06482 7.09624 8.0842 7.09624C7.79348 6.84429 7.50276 6.63109 7.17328 6.45666C6.86317 6.28222 6.53369 6.14655 6.2042 6.04965C5.87472 5.95274 5.54523 5.89459 5.21575 5.85583C4.88627 5.81707 4.57616 5.81707 4.28544 5.83645C4.07224 5.85583 3.87843 5.87521 3.68462 5.91398C3.4908 5.95274 3.31637 5.9915 3.16132 6.04965C3.00626 6.10779 2.85121 6.16594 2.73492 6.24346C2.61864 6.32099 2.50235 6.39851 2.42482 6.49542C2.17286 6.76676 2.01781 7.11563 1.95967 7.5614C1.90152 7.98779 1.9209 8.49171 2.01781 9.07315C2.1341 9.63521 2.30853 10.2748 2.57987 10.9725C2.85121 11.6703 3.20008 12.4068 3.62647 13.2014C3.33575 13.6472 3.06441 14.1123 2.81245 14.5775C2.56049 15.0426 2.30853 15.5272 2.09534 16.0117C1.88214 16.4962 1.66894 17.0002 1.49451 17.5041C1.32008 18.008 1.14565 18.5313 1.00998 19.0546C0.486676 21.0509 0.331624 22.989 0.506058 24.7721C0.680491 26.5746 1.20379 28.2414 2.01781 29.6756C2.85121 31.1292 3.99472 32.3503 5.40956 33.2418C6.84379 34.1527 8.56874 34.7148 10.5069 34.8311C11.0883 34.8699 11.6698 34.8505 12.2512 34.8117C12.8327 34.773 13.4335 34.676 14.0149 34.5598C14.5964 34.4435 15.1972 34.2884 15.7786 34.0946C16.3601 33.9008 16.9415 33.6682 17.523 33.4163L16.1469 30.7998C15.7399 30.9548 15.3329 31.1099 14.9259 31.2262C14.5188 31.3424 14.1118 31.4393 13.7048 31.5169C13.2978 31.5944 12.8908 31.6525 12.4644 31.6719C12.0574 31.6913 11.6504 31.7107 11.2434 31.6913C9.67348 31.6138 8.27802 31.1874 7.11513 30.4703C5.95225 29.7725 5.02194 28.8035 4.34358 27.6406C3.66523 26.4971 3.21946 25.1598 3.06441 23.6868C2.90936 22.2332 3.02565 20.6633 3.45204 19.0352C3.85905 17.4072 4.55678 15.876 5.42895 14.4806C6.30111 13.0851 7.36709 11.8059 8.56874 10.74C9.77039 9.6546 11.1271 8.76305 12.5419 8.10408C13.9762 7.44511 15.4685 7.0381 16.9997 6.96057C18.5308 6.86367 19.9457 7.11563 21.1861 7.63893C22.4459 8.18161 23.5118 8.99563 24.3452 10.0422C25.198 11.1082 25.7989 12.4261 26.109 13.8991C26.4191 15.3915 26.4191 17.0777 26.0508 18.8608C25.8958 19.636 25.6632 20.4113 25.3918 21.1672C25.1011 21.9231 24.7716 22.6402 24.384 23.3573C23.9964 24.055 23.5506 24.7334 23.0661 25.373C22.5815 26.0125 22.0582 26.6134 21.4962 27.1754C21.5155 26.9816 21.5156 26.7878 21.5349 26.594C21.5543 26.4002 21.5543 26.2064 21.5543 26.0319C21.5543 25.8575 21.5737 25.6831 21.5737 25.5474C21.5737 25.4117 21.5737 25.2954 21.5737 25.2179C21.5737 25.1404 21.5737 25.0822 21.5543 25.0241C21.5349 24.9853 21.5155 24.9466 21.4962 24.9078C21.4768 24.8884 21.438 24.869 21.4186 24.8497C21.3993 24.8303 21.3605 24.8303 21.3217 24.8303C21.3024 24.8303 21.2636 24.8303 21.2442 24.8303C21.2248 24.8303 21.2054 24.8497 21.1861 24.8497C21.1667 24.8497 21.1473 24.869 21.1473 24.869C21.1279 24.869 21.1279 24.8884 21.1279 24.8884L16.2826 26.4583C16.2826 26.4583 16.2244 26.4777 16.1857 26.4971C16.1275 26.5165 16.0694 26.5552 16.0112 26.6134C15.9531 26.6715 15.9143 26.749 15.8949 26.8653C15.8949 26.9622 15.9143 27.0979 15.9918 27.2723C15.9918 27.2917 16.0112 27.2917 16.0112 27.2917C16.0112 27.3111 16.0112 27.3111 16.0306 27.3111C16.0306 27.3305 16.0306 27.3305 16.05 27.3499C16.05 27.3499 16.05 27.3692 16.0694 27.3886C16.2826 27.8344 16.5927 28.4158 16.9609 29.0942C17.3098 29.7725 17.7168 30.5284 18.1238 31.2649C18.5308 32.0208 18.9184 32.7573 19.2673 33.3775C19.6162 34.0171 19.9069 34.5404 20.0813 34.8699C20.1007 34.8892 20.1201 34.928 20.1201 34.9474C20.1395 34.9668 20.1395 35.0055 20.1588 35.0249C20.1782 35.0443 20.1782 35.0637 20.1976 35.0831C20.217 35.1024 20.217 35.1218 20.217 35.1412C20.2558 35.2187 20.3139 35.2963 20.3527 35.3544C20.3914 35.4125 20.4302 35.4707 20.469 35.5095C20.5077 35.5482 20.5465 35.5676 20.5852 35.587C20.624 35.6064 20.6628 35.6064 20.6821 35.6064C20.7403 35.6064 20.7984 35.587 20.8372 35.5482C20.8953 35.5095 20.9341 35.4707 20.9729 35.4125C21.0116 35.3544 21.031 35.2963 21.0504 35.2381C21.0698 35.18 21.0892 35.1218 21.0892 35.0831C21.0892 35.0637 21.0892 35.0443 21.0892 35.0249C21.0892 35.0055 21.0892 34.9668 21.0892 34.9474C21.0892 34.9086 21.0892 34.8892 21.0892 34.8505C21.0892 34.8117 21.0892 34.773 21.0892 34.7342C21.1085 34.5791 21.1085 34.3853 21.1279 34.1915C21.1473 33.9977 21.1473 33.7845 21.1667 33.6101C21.1861 33.4163 21.1861 33.2612 21.1861 33.1255C21.1861 33.0092 21.2054 32.9123 21.2054 32.9123C21.8644 33.3193 22.5428 33.707 23.1824 34.0558C23.8413 34.4241 24.4809 34.7536 25.1011 35.0443C25.7213 35.335 26.3221 35.587 26.8648 35.7614C27.4075 35.9358 27.9114 36.0521 28.3572 36.0715C28.4153 36.0715 28.4735 36.0715 28.5316 36.0715C28.5898 36.0715 28.6479 36.0715 28.7061 36.0715C28.7642 36.0715 28.8224 36.0715 28.8611 36.0521C28.9193 36.0521 28.958 36.0328 29.0162 36.0328C29.0937 36.0134 29.1712 35.994 29.2294 35.9746C29.3069 35.9552 29.365 35.9165 29.4232 35.8971C29.4813 35.8583 29.5395 35.8196 29.5976 35.7808C29.6558 35.742 29.7139 35.6839 29.7527 35.6451C30.0628 35.3156 30.1984 34.7923 30.1984 34.1527C30.1984 33.5132 30.0434 32.7379 29.7914 31.8657H29.8302Z" fill="#833376"/>
<path d="M14.7326 18.528V17.4038H13.1433V11.163H11.9611C11.4571 11.6282 10.9145 11.9383 10.333 12.1127V13.2756C10.6237 13.2368 10.9145 13.1399 11.1858 12.9849C11.4765 12.8298 11.7091 12.6748 11.8642 12.5197V17.3845H9.8291V18.5086L14.7326 18.528ZM20.7215 13.2756C20.7215 12.5972 20.4889 12.0546 20.0237 11.6476C19.5586 11.2405 18.9578 11.0273 18.2213 11.0273C17.4848 11.0273 16.8839 11.2212 16.4188 11.6282C15.9536 12.0352 15.7211 12.5779 15.7211 13.2368V16.3572C15.7211 17.0356 15.9536 17.5589 16.4188 17.9659C16.8839 18.3729 17.4848 18.5667 18.2213 18.5667C18.9578 18.5667 19.5586 18.3535 20.0237 17.9465C20.4889 17.5395 20.7215 16.9968 20.7215 16.3185V13.2368V13.2756ZM19.4617 16.2603C19.4617 16.648 19.3648 16.9581 19.1322 17.1713C18.919 17.3845 18.6089 17.5007 18.2407 17.5007C17.853 17.5007 17.5623 17.3845 17.3491 17.1713C17.1359 16.9581 17.0196 16.648 17.0196 16.2603V13.3337C17.0196 12.9461 17.1165 12.636 17.3491 12.4228C17.5623 12.2096 17.8724 12.0933 18.26 12.0933C18.6477 12.0933 18.9578 12.2096 19.171 12.4228C19.3842 12.636 19.5004 12.9461 19.5004 13.3337L19.4811 16.2603H19.4617Z" fill="#833376"/>
<path d="M11.3218 24.7112V19.1875H10.3915V23.3933L8.20143 19.1875H6.84473V24.7112H7.77504V20.5054L9.98452 24.7112H11.3218ZM13.26 24.1879C13.26 24.0522 13.2212 23.936 13.1243 23.8584C13.0274 23.7809 12.8917 23.7421 12.7367 23.7421C12.5816 23.7421 12.4653 23.7809 12.3684 23.8584C12.2715 23.936 12.2328 24.0329 12.2328 24.1879V24.343C12.2328 24.4786 12.2909 24.5949 12.3878 24.6531C12.4847 24.7306 12.601 24.7694 12.7561 24.7694C12.9111 24.7694 13.0468 24.7306 13.1437 24.6531C13.2406 24.5755 13.2794 24.4786 13.2794 24.343L13.26 24.1879ZM17.4076 23.2188H16.5355C16.5355 23.7421 16.2641 23.9941 15.702 23.9941C15.1594 23.9941 14.888 23.7228 14.888 23.1607V22.3467C14.888 21.7846 15.1594 21.5133 15.702 21.5133C16.2447 21.5133 16.5355 21.7652 16.5355 22.3079H17.4076V22.2304C17.4076 21.7459 17.2526 21.3776 16.9618 21.1256C16.6517 20.8737 16.2447 20.738 15.7408 20.738C15.2369 20.738 14.8105 20.8737 14.5198 21.145C14.2097 21.4164 14.0546 21.804 14.0546 22.2885V23.2576C14.0546 23.7421 14.2097 24.1104 14.5198 24.3817C14.8299 24.6531 15.2369 24.7887 15.7408 24.7887C16.2641 24.7887 16.6711 24.6725 16.9812 24.4011C17.2913 24.1492 17.4464 23.7615 17.4464 23.2964L17.427 23.2382L17.4076 23.2188ZM23.6291 24.7112V21.959C23.6291 21.5714 23.5322 21.2807 23.3383 21.0869C23.1445 20.8737 22.8732 20.7768 22.5437 20.7768C22.2336 20.7768 21.9429 20.8737 21.6522 21.0481L21.2258 21.3001C21.0707 20.9512 20.7606 20.7768 20.2955 20.7768C20.0047 20.7768 19.7334 20.8543 19.4814 21.0094L19.1326 21.2226V20.8155H18.241V24.7306H19.1326V22.0366L19.5977 21.7459C19.7915 21.6489 19.9466 21.5908 20.0629 21.5908C20.3342 21.5908 20.4699 21.7459 20.4699 22.0753V24.7306H21.3614V22.0366L21.8266 21.7459C22.0204 21.6489 22.1755 21.5908 22.2917 21.5908C22.5631 21.5908 22.6988 21.7459 22.6988 22.0753V24.7306H23.6097L23.6291 24.7112Z" fill="#833376"/>
<path d="M26.1284 14.3017C29.869 14.3017 32.8925 11.2782 32.8925 7.53756C32.8925 3.79694 29.869 0.773438 26.1284 0.773438C22.3878 0.773438 19.3643 3.79694 19.3643 7.53756C19.3643 11.2782 22.3878 14.3017 26.1284 14.3017Z" fill="#833376"/>
<path d="M26.1284 14.3017C29.869 14.3017 32.8925 11.2782 32.8925 7.53756C32.8925 3.79694 29.869 0.773438 26.1284 0.773438C22.3878 0.773438 19.3643 3.79694 19.3643 7.53756C19.3643 11.2782 22.3878 14.3017 26.1284 14.3017Z" stroke="white" stroke-width="1.31794"/>
<path d="M28.3375 11.3932V10.6179H25.0232L27.1164 8.50536C27.5622 8.05958 27.8723 7.65257 28.0467 7.28433C28.2212 6.91608 28.2987 6.54783 28.2987 6.1602C28.2987 5.55938 28.1243 5.05546 27.7366 4.68721C27.3684 4.31896 26.8257 4.14453 26.1086 4.14453C25.4496 4.14453 24.9069 4.31896 24.4806 4.66783C24.0735 5.0167 23.8604 5.48185 23.8604 6.0633V6.14082H24.6744C24.6744 5.73381 24.7907 5.42371 25.0426 5.21051C25.2946 5.0167 25.6434 4.90041 26.0892 4.90041C26.5544 4.90041 26.9032 4.99732 27.1358 5.22989C27.3684 5.44309 27.4847 5.75319 27.4847 6.1602C27.4847 6.48969 27.4265 6.78041 27.2715 7.05175C27.1358 7.34247 26.8839 7.65257 26.5544 8.00144L24.0154 10.6179V11.3932L28.3181 11.4126L28.3375 11.3932Z" fill="#FEFEFE"/>
</svg>
