<svg width="33" height="36" viewBox="0 0 33 36" fill="none" xmlns="http://www.w3.org/2000/svg">
<path d="M29.8302 31.1782C29.5782 30.3255 29.2294 29.3951 28.7836 28.4455C28.3572 27.4958 27.8727 26.5267 27.33 25.577C27.2525 25.7127 27.1749 25.829 27.0974 25.9452C27.0199 26.0615 26.9424 26.1972 26.8648 26.3135C26.7873 26.4298 26.6904 26.5461 26.6129 26.6624C26.516 26.7786 26.4384 26.8949 26.3415 27.0112L26.3222 27.0306L26.3028 27.05L26.2834 27.0694L26.264 27.0888L26.1865 27.1857C26.264 27.3989 26.3609 27.6702 26.4578 27.9415C26.5547 28.2323 26.671 28.523 26.7679 28.8137C26.8648 29.1044 26.9424 29.3758 26.9617 29.589C27.0005 29.8022 26.9811 29.9766 26.9036 30.0735C26.8842 30.0929 26.8454 30.1316 26.8067 30.151C26.7679 30.1704 26.7292 30.1898 26.6904 30.2092C26.6516 30.2285 26.6129 30.2285 26.5547 30.2285C26.516 30.2285 26.4578 30.2285 26.4191 30.2285C26.3415 30.2285 26.264 30.2092 26.1671 30.1898C26.0702 30.1704 25.9733 30.151 25.8764 30.1123C25.7795 30.0735 25.6632 30.0347 25.5663 29.996C25.45 29.9572 25.3337 29.8991 25.2174 29.8409C25.0624 29.7634 24.9073 29.6859 24.7523 29.6083C24.5972 29.5308 24.4228 29.4339 24.2677 29.337C24.0933 29.2401 23.9189 29.1432 23.7444 29.0269C23.57 28.9106 23.3955 28.8137 23.2017 28.6974C23.9188 27.9803 24.5972 27.2244 25.198 26.4104C25.8182 25.5964 26.3803 24.7436 26.8648 23.8521C27.3687 22.9605 27.7951 22.0302 28.144 21.0805C28.4929 20.1308 28.7836 19.1424 28.9774 18.1539C29.4232 15.925 29.4038 13.8318 28.9968 11.9712C28.5898 10.13 27.8145 8.52132 26.7485 7.20338C25.7019 5.90483 24.3452 4.91637 22.7753 4.27679C21.2442 3.65658 19.4999 3.36586 17.6005 3.50153C16.3601 3.57905 15.1197 3.85039 13.918 4.23802C12.7164 4.64503 11.5535 5.18771 10.4487 5.84668C9.344 6.50565 8.2974 7.28091 7.30895 8.17246C6.33987 9.04462 5.42895 10.0331 4.61493 11.0797C4.40173 10.6727 4.20791 10.285 4.07224 9.93617C3.93657 9.5873 3.82029 9.2772 3.76214 8.98648C3.704 8.71514 3.68462 8.46318 3.704 8.24998C3.72338 8.03679 3.78152 7.88173 3.89781 7.76545C3.93657 7.72668 3.97534 7.68792 4.03348 7.64916C4.09163 7.61039 4.14977 7.57163 4.2273 7.55225C4.30482 7.51349 4.38235 7.49411 4.47925 7.47472C4.57616 7.45534 4.67307 7.43596 4.76998 7.43596C4.88627 7.43596 5.00255 7.43596 5.11884 7.45534C5.23513 7.47472 5.3708 7.49411 5.48709 7.55225C5.60338 7.59101 5.73905 7.64916 5.85534 7.72668C5.99101 7.80421 6.1073 7.90112 6.24297 8.01741C6.35926 7.86235 6.49493 7.72668 6.6306 7.59101C6.76627 7.45534 6.90194 7.31967 7.03761 7.20338C7.17328 7.0871 7.32833 6.95143 7.464 6.83514C7.61905 6.71885 7.7741 6.60256 7.92915 6.48627C7.94853 6.48627 7.94853 6.46689 7.96792 6.46689C7.9873 6.44751 7.9873 6.44751 8.00668 6.44751C8.02606 6.44751 8.02606 6.42813 8.04544 6.42813C8.06482 6.42813 8.06482 6.40874 8.0842 6.40874C7.79348 6.15679 7.50276 5.94359 7.17328 5.76916C6.86317 5.59472 6.53369 5.45905 6.2042 5.36215C5.87472 5.26524 5.54523 5.20709 5.21575 5.16833C4.88627 5.12957 4.57616 5.12957 4.28544 5.14895C4.07224 5.16833 3.87843 5.18771 3.68462 5.22648C3.4908 5.26524 3.31637 5.304 3.16132 5.36215C3.00626 5.42029 2.85121 5.47844 2.73492 5.55596C2.61864 5.63349 2.50235 5.71101 2.42482 5.80792C2.17286 6.07926 2.01781 6.42813 1.95967 6.8739C1.90152 7.30029 1.9209 7.80421 2.01781 8.38565C2.1341 8.94771 2.30853 9.5873 2.57987 10.285C2.85121 10.9828 3.20008 11.7193 3.62647 12.5139C3.33575 12.9597 3.06441 13.4248 2.81245 13.89C2.56049 14.3551 2.30853 14.8397 2.09534 15.3242C1.88214 15.8087 1.66894 16.3127 1.49451 16.8166C1.32008 17.3205 1.14565 17.8438 1.00998 18.3671C0.486676 20.3634 0.331624 22.3015 0.506058 24.0846C0.680491 25.8871 1.20379 27.5539 2.01781 28.9881C2.85121 30.4417 3.99472 31.6628 5.40956 32.5543C6.84379 33.4652 8.56874 34.0273 10.5069 34.1436C11.0883 34.1824 11.6698 34.163 12.2512 34.1242C12.8327 34.0855 13.4335 33.9885 14.0149 33.8723C14.5964 33.756 15.1972 33.6009 15.7786 33.4071C16.3601 33.2133 16.9415 32.9807 17.523 32.7288L16.1469 30.1123C15.7399 30.2673 15.3329 30.4224 14.9259 30.5387C14.5188 30.6549 14.1118 30.7518 13.7048 30.8294C13.2978 30.9069 12.8908 30.965 12.4644 30.9844C12.0574 31.0038 11.6504 31.0232 11.2434 31.0038C9.67348 30.9263 8.27802 30.4999 7.11513 29.7828C5.95225 29.085 5.02194 28.116 4.34358 26.9531C3.66523 25.8096 3.21946 24.4723 3.06441 22.9993C2.90936 21.5457 3.02565 19.9758 3.45204 18.3477C3.85905 16.7197 4.55678 15.1885 5.42895 13.7931C6.30111 12.3976 7.36709 11.1184 8.56874 10.0525C9.77039 8.9671 11.1271 8.07555 12.5419 7.41658C13.9762 6.75761 15.4685 6.3506 16.9997 6.27307C18.5308 6.17617 19.9457 6.42813 21.1861 6.95143C22.4459 7.49411 23.5118 8.30813 24.3452 9.35473C25.198 10.4207 25.7989 11.7386 26.109 13.2116C26.4191 14.704 26.4191 16.3902 26.0508 18.1733C25.8958 18.9485 25.6632 19.7238 25.3918 20.4797C25.1011 21.2356 24.7716 21.9527 24.384 22.6698C23.9964 23.3675 23.5506 24.0459 23.0661 24.6855C22.5815 25.325 22.0582 25.9259 21.4962 26.4879C21.5155 26.2941 21.5156 26.1003 21.5349 25.9065C21.5543 25.7127 21.5543 25.5189 21.5543 25.3444C21.5543 25.17 21.5737 24.9956 21.5737 24.8599C21.5737 24.7242 21.5737 24.6079 21.5737 24.5304C21.5737 24.4529 21.5737 24.3947 21.5543 24.3366C21.5349 24.2978 21.5155 24.2591 21.4962 24.2203C21.4768 24.2009 21.438 24.1815 21.4186 24.1622C21.3993 24.1428 21.3605 24.1428 21.3217 24.1428C21.3024 24.1428 21.2636 24.1428 21.2442 24.1428C21.2248 24.1428 21.2054 24.1622 21.1861 24.1622C21.1667 24.1622 21.1473 24.1815 21.1473 24.1815C21.1279 24.1815 21.1279 24.2009 21.1279 24.2009L16.2826 25.7708C16.2826 25.7708 16.2244 25.7902 16.1857 25.8096C16.1275 25.829 16.0694 25.8677 16.0112 25.9259C15.9531 25.984 15.9143 26.0615 15.8949 26.1778C15.8949 26.2747 15.9143 26.4104 15.9918 26.5848C15.9918 26.6042 16.0112 26.6042 16.0112 26.6042C16.0112 26.6236 16.0112 26.6236 16.0306 26.6236C16.0306 26.643 16.0306 26.643 16.05 26.6624C16.05 26.6624 16.05 26.6817 16.0694 26.7011C16.2826 27.1469 16.5927 27.7283 16.9609 28.4067C17.3098 29.085 17.7168 29.8409 18.1238 30.5774C18.5308 31.3333 18.9184 32.0698 19.2673 32.69C19.6162 33.3296 19.9069 33.8529 20.0813 34.1824C20.1007 34.2017 20.1201 34.2405 20.1201 34.2599C20.1395 34.2793 20.1395 34.318 20.1588 34.3374C20.1782 34.3568 20.1782 34.3762 20.1976 34.3956C20.217 34.4149 20.217 34.4343 20.217 34.4537C20.2558 34.5312 20.3139 34.6088 20.3527 34.6669C20.3914 34.725 20.4302 34.7832 20.469 34.822C20.5077 34.8607 20.5465 34.8801 20.5852 34.8995C20.624 34.9189 20.6628 34.9189 20.6821 34.9189C20.7403 34.9189 20.7984 34.8995 20.8372 34.8607C20.8953 34.822 20.9341 34.7832 20.9729 34.725C21.0116 34.6669 21.031 34.6088 21.0504 34.5506C21.0698 34.4925 21.0892 34.4343 21.0892 34.3956C21.0892 34.3762 21.0892 34.3568 21.0892 34.3374C21.0892 34.318 21.0892 34.2793 21.0892 34.2599C21.0892 34.2211 21.0892 34.2017 21.0892 34.163C21.0892 34.1242 21.0892 34.0855 21.0892 34.0467C21.1085 33.8916 21.1085 33.6978 21.1279 33.504C21.1473 33.3102 21.1473 33.097 21.1667 32.9226C21.1861 32.7288 21.1861 32.5737 21.1861 32.438C21.1861 32.3217 21.2054 32.2248 21.2054 32.2248C21.8644 32.6318 22.5428 33.0195 23.1824 33.3683C23.8413 33.7366 24.4809 34.0661 25.1011 34.3568C25.7213 34.6475 26.3221 34.8995 26.8648 35.0739C27.4075 35.2483 27.9114 35.3646 28.3572 35.384C28.4153 35.384 28.4735 35.384 28.5316 35.384C28.5898 35.384 28.6479 35.384 28.7061 35.384C28.7642 35.384 28.8224 35.384 28.8611 35.3646C28.9193 35.3646 28.958 35.3453 29.0162 35.3453C29.0937 35.3259 29.1712 35.3065 29.2294 35.2871C29.3069 35.2677 29.365 35.229 29.4232 35.2096C29.4813 35.1708 29.5395 35.1321 29.5976 35.0933C29.6558 35.0545 29.7139 34.9964 29.7527 34.9576C30.0628 34.6281 30.1984 34.1048 30.1984 33.4652C30.1984 32.8257 30.0434 32.0504 29.7914 31.1782H29.8302Z" fill="#833376"/>
<path d="M14.7326 17.8405V16.7163H13.1433V10.4755H11.9611C11.4571 10.9407 10.9145 11.2508 10.333 11.4252V12.5881C10.6237 12.5493 10.9145 12.4524 11.1858 12.2974C11.4765 12.1423 11.7091 11.9873 11.8642 11.8322V16.697H9.8291V17.8211L14.7326 17.8405ZM20.7215 12.5881C20.7215 11.9097 20.4889 11.3671 20.0237 10.9601C19.5586 10.553 18.9578 10.3398 18.2213 10.3398C17.4848 10.3398 16.8839 10.5337 16.4188 10.9407C15.9536 11.3477 15.7211 11.8904 15.7211 12.5493V15.6697C15.7211 16.3481 15.9536 16.8714 16.4188 17.2784C16.8839 17.6854 17.4848 17.8792 18.2213 17.8792C18.9578 17.8792 19.5586 17.666 20.0237 17.259C20.4889 16.852 20.7215 16.3093 20.7215 15.631V12.5493V12.5881ZM19.4617 15.5728C19.4617 15.9605 19.3648 16.2706 19.1322 16.4838C18.919 16.697 18.6089 16.8132 18.2407 16.8132C17.853 16.8132 17.5623 16.697 17.3491 16.4838C17.1359 16.2706 17.0196 15.9605 17.0196 15.5728V12.6462C17.0196 12.2586 17.1165 11.9485 17.3491 11.7353C17.5623 11.5221 17.8724 11.4058 18.26 11.4058C18.6477 11.4058 18.9578 11.5221 19.171 11.7353C19.3842 11.9485 19.5004 12.2586 19.5004 12.6462L19.4811 15.5728H19.4617Z" fill="#833376"/>
<path d="M11.3218 24.0237V18.5H10.3915V22.7058L8.20143 18.5H6.84473V24.0237H7.77504V19.8179L9.98452 24.0237H11.3218ZM13.26 23.5004C13.26 23.3647 13.2212 23.2485 13.1243 23.1709C13.0274 23.0934 12.8917 23.0546 12.7367 23.0546C12.5816 23.0546 12.4653 23.0934 12.3684 23.1709C12.2715 23.2485 12.2328 23.3454 12.2328 23.5004V23.6555C12.2328 23.7911 12.2909 23.9074 12.3878 23.9656C12.4847 24.0431 12.601 24.0819 12.7561 24.0819C12.9111 24.0819 13.0468 24.0431 13.1437 23.9656C13.2406 23.888 13.2794 23.7911 13.2794 23.6555L13.26 23.5004ZM17.4076 22.5313H16.5355C16.5355 23.0546 16.2641 23.3066 15.702 23.3066C15.1594 23.3066 14.888 23.0353 14.888 22.4732V21.6592C14.888 21.0971 15.1594 20.8258 15.702 20.8258C16.2447 20.8258 16.5355 21.0777 16.5355 21.6204H17.4076V21.5429C17.4076 21.0584 17.2526 20.6901 16.9618 20.4381C16.6517 20.1862 16.2447 20.0505 15.7408 20.0505C15.2369 20.0505 14.8105 20.1862 14.5198 20.4575C14.2097 20.7289 14.0546 21.1165 14.0546 21.601V22.5701C14.0546 23.0546 14.2097 23.4229 14.5198 23.6942C14.8299 23.9656 15.2369 24.1012 15.7408 24.1012C16.2641 24.1012 16.6711 23.985 16.9812 23.7136C17.2913 23.4617 17.4464 23.074 17.4464 22.6089L17.427 22.5507L17.4076 22.5313ZM23.6291 24.0237V21.2715C23.6291 20.8839 23.5322 20.5932 23.3383 20.3994C23.1445 20.1862 22.8732 20.0893 22.5437 20.0893C22.2336 20.0893 21.9429 20.1862 21.6522 20.3606L21.2258 20.6126C21.0707 20.2637 20.7606 20.0893 20.2955 20.0893C20.0047 20.0893 19.7334 20.1668 19.4814 20.3219L19.1326 20.5351V20.128H18.241V24.0431H19.1326V21.3491L19.5977 21.0584C19.7915 20.9614 19.9466 20.9033 20.0629 20.9033C20.3342 20.9033 20.4699 21.0584 20.4699 21.3878V24.0431H21.3614V21.3491L21.8266 21.0584C22.0204 20.9614 22.1755 20.9033 22.2917 20.9033C22.5631 20.9033 22.6988 21.0584 22.6988 21.3878V24.0431H23.6097L23.6291 24.0237Z" fill="#833376"/>
<path d="M26.1284 13.6142C29.869 13.6142 32.8925 10.5907 32.8925 6.85006C32.8925 3.10944 29.869 0.0859375 26.1284 0.0859375C22.3878 0.0859375 19.3643 3.10944 19.3643 6.85006C19.3643 10.5907 22.3878 13.6142 26.1284 13.6142Z" fill="#833376"/>
<path d="M26.1284 13.6142C29.869 13.6142 32.8925 10.5907 32.8925 6.85006C32.8925 3.10944 29.869 0.0859375 26.1284 0.0859375C22.3878 0.0859375 19.3643 3.10944 19.3643 6.85006C19.3643 10.5907 22.3878 13.6142 26.1284 13.6142Z" stroke="white" stroke-width="1.31794"/>
<path d="M28.3375 10.7057V9.93044H25.0232L27.1164 7.81786C27.5622 7.37208 27.8723 6.96507 28.0467 6.59683C28.2212 6.22858 28.2987 5.86033 28.2987 5.4727C28.2987 4.87188 28.1243 4.36796 27.7366 3.99971C27.3684 3.63146 26.8257 3.45703 26.1086 3.45703C25.4496 3.45703 24.9069 3.63146 24.4806 3.98033C24.0735 4.3292 23.8604 4.79435 23.8604 5.3758V5.45332H24.6744C24.6744 5.04631 24.7907 4.73621 25.0426 4.52301C25.2946 4.3292 25.6434 4.21291 26.0892 4.21291C26.5544 4.21291 26.9032 4.30982 27.1358 4.54239C27.3684 4.75559 27.4847 5.06569 27.4847 5.4727C27.4847 5.80219 27.4265 6.09291 27.2715 6.36425C27.1358 6.65497 26.8839 6.96507 26.5544 7.31394L24.0154 9.93044V10.7057L28.3181 10.7251L28.3375 10.7057Z" fill="#FEFEFE"/>
</svg>
