<svg width="33" height="36" viewBox="0 0 33 36" fill="none" xmlns="http://www.w3.org/2000/svg">
<path d="M29.8302 31.1196C29.5782 30.2669 29.2294 29.3366 28.7836 28.3869C28.3572 27.4372 27.8727 26.4681 27.33 25.5184C27.2525 25.6541 27.1749 25.7704 27.0974 25.8867C27.0199 26.0029 26.9424 26.1386 26.8648 26.2549C26.7873 26.3712 26.6904 26.4875 26.6129 26.6038C26.516 26.7201 26.4384 26.8363 26.3415 26.9526L26.3222 26.972L26.3028 26.9914L26.2834 27.0108L26.264 27.0302L26.1865 27.1271C26.264 27.3403 26.3609 27.6116 26.4578 27.8829C26.5547 28.1737 26.671 28.4644 26.7679 28.7551C26.8648 29.0458 26.9424 29.3172 26.9617 29.5304C27.0005 29.7436 26.9811 29.918 26.9036 30.0149C26.8842 30.0343 26.8454 30.073 26.8067 30.0924C26.7679 30.1118 26.7292 30.1312 26.6904 30.1506C26.6516 30.17 26.6129 30.17 26.5547 30.17C26.516 30.17 26.4578 30.17 26.4191 30.17C26.3415 30.17 26.264 30.1506 26.1671 30.1312C26.0702 30.1118 25.9733 30.0924 25.8764 30.0537C25.7795 30.0149 25.6632 29.9761 25.5663 29.9374C25.45 29.8986 25.3337 29.8405 25.2174 29.7823C25.0624 29.7048 24.9073 29.6273 24.7523 29.5497C24.5972 29.4722 24.4228 29.3753 24.2677 29.2784C24.0933 29.1815 23.9189 29.0846 23.7444 28.9683C23.57 28.852 23.3955 28.7551 23.2017 28.6388C23.9188 27.9217 24.5972 27.1658 25.198 26.3518C25.8182 25.5378 26.3803 24.685 26.8648 23.7935C27.3687 22.9019 27.7951 21.9716 28.144 21.0219C28.4929 20.0722 28.7836 19.0838 28.9774 18.0953C29.4232 15.8664 29.4038 13.7732 28.9968 11.9126C28.5898 10.0714 27.8145 8.46273 26.7485 7.14479C25.7019 5.84623 24.3452 4.85778 22.7753 4.21819C21.2442 3.59799 19.4999 3.30726 17.6005 3.44293C16.3601 3.52046 15.1197 3.7918 13.918 4.17943C12.7164 4.58644 11.5535 5.12912 10.4487 5.78809C9.344 6.44706 8.2974 7.22232 7.30895 8.11386C6.33987 8.98603 5.42895 9.97448 4.61493 11.0211C4.40173 10.6141 4.20791 10.2264 4.07224 9.87757C3.93657 9.52871 3.82029 9.21861 3.76214 8.92788C3.704 8.65654 3.68462 8.40458 3.704 8.19139C3.72338 7.97819 3.78152 7.82314 3.89781 7.70685C3.93657 7.66809 3.97534 7.62933 4.03348 7.59056C4.09163 7.5518 4.14977 7.51304 4.2273 7.49366C4.30482 7.45489 4.38235 7.43551 4.47925 7.41613C4.57616 7.39675 4.67307 7.37737 4.76998 7.37737C4.88627 7.37737 5.00255 7.37737 5.11884 7.39675C5.23513 7.41613 5.3708 7.43551 5.48709 7.49366C5.60338 7.53242 5.73905 7.59056 5.85534 7.66809C5.99101 7.74562 6.1073 7.84252 6.24297 7.95881C6.35926 7.80376 6.49493 7.66809 6.6306 7.53242C6.76627 7.39675 6.90194 7.26108 7.03761 7.14479C7.17328 7.0285 7.32833 6.89283 7.464 6.77654C7.61905 6.66025 7.7741 6.54397 7.92915 6.42768C7.94853 6.42768 7.94853 6.4083 7.96792 6.4083C7.9873 6.38891 7.9873 6.38891 8.00668 6.38891C8.02606 6.38891 8.02606 6.36953 8.04544 6.36953C8.06482 6.36953 8.06482 6.35015 8.0842 6.35015C7.79348 6.09819 7.50276 5.885 7.17328 5.71056C6.86317 5.53613 6.53369 5.40046 6.2042 5.30355C5.87472 5.20665 5.54523 5.1485 5.21575 5.10974C4.88627 5.07098 4.57616 5.07098 4.28544 5.09036C4.07224 5.10974 3.87843 5.12912 3.68462 5.16788C3.4908 5.20665 3.31637 5.24541 3.16132 5.30355C3.00626 5.3617 2.85121 5.41984 2.73492 5.49737C2.61864 5.57489 2.50235 5.65242 2.42482 5.74933C2.17286 6.02067 2.01781 6.36953 1.95967 6.81531C1.90152 7.2417 1.9209 7.74562 2.01781 8.32706C2.1341 8.88912 2.30853 9.52871 2.57987 10.2264C2.85121 10.9242 3.20008 11.6607 3.62647 12.4553C3.33575 12.9011 3.06441 13.3662 2.81245 13.8314C2.56049 14.2965 2.30853 14.7811 2.09534 15.2656C1.88214 15.7502 1.66894 16.2541 1.49451 16.758C1.32008 17.2619 1.14565 17.7852 1.00998 18.3085C0.486676 20.3048 0.331624 22.2429 0.506058 24.026C0.680491 25.8285 1.20379 27.4953 2.01781 28.9295C2.85121 30.3831 3.99472 31.6042 5.40956 32.4957C6.84379 33.4067 8.56874 33.9687 10.5069 34.085C11.0883 34.1238 11.6698 34.1044 12.2512 34.0656C12.8327 34.0269 13.4335 33.93 14.0149 33.8137C14.5964 33.6974 15.1972 33.5423 15.7786 33.3485C16.3601 33.1547 16.9415 32.9221 17.523 32.6702L16.1469 30.0537C15.7399 30.2087 15.3329 30.3638 14.9259 30.4801C14.5188 30.5963 14.1118 30.6933 13.7048 30.7708C13.2978 30.8483 12.8908 30.9064 12.4644 30.9258C12.0574 30.9452 11.6504 30.9646 11.2434 30.9452C9.67348 30.8677 8.27802 30.4413 7.11513 29.7242C5.95225 29.0264 5.02194 28.0574 4.34358 26.8945C3.66523 25.751 3.21946 24.4137 3.06441 22.9407C2.90936 21.4871 3.02565 19.9172 3.45204 18.2891C3.85905 16.6611 4.55678 15.1299 5.42895 13.7345C6.30111 12.339 7.36709 11.0598 8.56874 9.99386C9.77039 8.9085 11.1271 8.01696 12.5419 7.35799C13.9762 6.69902 15.4685 6.29201 16.9997 6.21448C18.5308 6.11757 19.9457 6.36953 21.1861 6.89283C22.4459 7.43551 23.5118 8.24953 24.3452 9.29613C25.198 10.3621 25.7989 11.68 26.109 13.153C26.4191 14.6454 26.4191 16.3316 26.0508 18.1147C25.8958 18.8899 25.6632 19.6652 25.3918 20.4211C25.1011 21.177 24.7716 21.8941 24.384 22.6112C23.9964 23.3089 23.5506 23.9873 23.0661 24.6269C22.5815 25.2664 22.0582 25.8673 21.4962 26.4293C21.5155 26.2355 21.5156 26.0417 21.5349 25.8479C21.5543 25.6541 21.5543 25.4603 21.5543 25.2858C21.5543 25.1114 21.5737 24.937 21.5737 24.8013C21.5737 24.6656 21.5737 24.5493 21.5737 24.4718C21.5737 24.3943 21.5737 24.3361 21.5543 24.278C21.5349 24.2392 21.5155 24.2005 21.4962 24.1617C21.4768 24.1423 21.438 24.1229 21.4186 24.1036C21.3993 24.0842 21.3605 24.0842 21.3217 24.0842C21.3024 24.0842 21.2636 24.0842 21.2442 24.0842C21.2248 24.0842 21.2054 24.1036 21.1861 24.1036C21.1667 24.1036 21.1473 24.1229 21.1473 24.1229C21.1279 24.1229 21.1279 24.1423 21.1279 24.1423L16.2826 25.7122C16.2826 25.7122 16.2244 25.7316 16.1857 25.751C16.1275 25.7704 16.0694 25.8091 16.0112 25.8673C15.9531 25.9254 15.9143 26.0029 15.8949 26.1192C15.8949 26.2161 15.9143 26.3518 15.9918 26.5262C15.9918 26.5456 16.0112 26.5456 16.0112 26.5456C16.0112 26.565 16.0112 26.565 16.0306 26.565C16.0306 26.5844 16.0306 26.5844 16.05 26.6038C16.05 26.6038 16.05 26.6231 16.0694 26.6425C16.2826 27.0883 16.5927 27.6697 16.9609 28.3481C17.3098 29.0264 17.7168 29.7823 18.1238 30.5188C18.5308 31.2747 18.9184 32.0112 19.2673 32.6314C19.6162 33.271 19.9069 33.7943 20.0813 34.1238C20.1007 34.1432 20.1201 34.1819 20.1201 34.2013C20.1395 34.2207 20.1395 34.2594 20.1588 34.2788C20.1782 34.2982 20.1782 34.3176 20.1976 34.337C20.217 34.3563 20.217 34.3757 20.217 34.3951C20.2558 34.4726 20.3139 34.5502 20.3527 34.6083C20.3914 34.6665 20.4302 34.7246 20.469 34.7634C20.5077 34.8021 20.5465 34.8215 20.5852 34.8409C20.624 34.8603 20.6628 34.8603 20.6821 34.8603C20.7403 34.8603 20.7984 34.8409 20.8372 34.8021C20.8953 34.7634 20.9341 34.7246 20.9729 34.6665C21.0116 34.6083 21.031 34.5502 21.0504 34.492C21.0698 34.4339 21.0892 34.3757 21.0892 34.337C21.0892 34.3176 21.0892 34.2982 21.0892 34.2788C21.0892 34.2594 21.0892 34.2207 21.0892 34.2013C21.0892 34.1625 21.0892 34.1432 21.0892 34.1044C21.0892 34.0656 21.0892 34.0269 21.0892 33.9881C21.1085 33.833 21.1085 33.6392 21.1279 33.4454C21.1473 33.2516 21.1473 33.0384 21.1667 32.864C21.1861 32.6702 21.1861 32.5151 21.1861 32.3794C21.1861 32.2632 21.2054 32.1662 21.2054 32.1662C21.8644 32.5733 22.5428 32.9609 23.1824 33.3097C23.8413 33.678 24.4809 34.0075 25.1011 34.2982C25.7213 34.5889 26.3221 34.8409 26.8648 35.0153C27.4075 35.1897 27.9114 35.306 28.3572 35.3254C28.4153 35.3254 28.4735 35.3254 28.5316 35.3254C28.5898 35.3254 28.6479 35.3254 28.7061 35.3254C28.7642 35.3254 28.8224 35.3254 28.8611 35.306C28.9193 35.306 28.958 35.2867 29.0162 35.2867C29.0937 35.2673 29.1712 35.2479 29.2294 35.2285C29.3069 35.2091 29.365 35.1704 29.4232 35.151C29.4813 35.1122 29.5395 35.0735 29.5976 35.0347C29.6558 34.9959 29.7139 34.9378 29.7527 34.899C30.0628 34.5695 30.1984 34.0462 30.1984 33.4067C30.1984 32.7671 30.0434 31.9918 29.7914 31.1196H29.8302Z" fill="#833376"/>
<path d="M14.7326 17.7819V16.6577H13.1433V10.4169H11.9611C11.4571 10.8821 10.9145 11.1922 10.333 11.3666V12.5295C10.6237 12.4907 10.9145 12.3938 11.1858 12.2388C11.4765 12.0837 11.7091 11.9287 11.8642 11.7736V16.6384H9.8291V17.7625L14.7326 17.7819ZM20.7215 12.5295C20.7215 11.8511 20.4889 11.3085 20.0237 10.9015C19.5586 10.4944 18.9578 10.2812 18.2213 10.2812C17.4848 10.2812 16.8839 10.4751 16.4188 10.8821C15.9536 11.2891 15.7211 11.8318 15.7211 12.4907V15.6111C15.7211 16.2895 15.9536 16.8128 16.4188 17.2198C16.8839 17.6268 17.4848 17.8206 18.2213 17.8206C18.9578 17.8206 19.5586 17.6074 20.0237 17.2004C20.4889 16.7934 20.7215 16.2507 20.7215 15.5724V12.4907V12.5295ZM19.4617 15.5142C19.4617 15.9019 19.3648 16.212 19.1322 16.4252C18.919 16.6384 18.6089 16.7547 18.2407 16.7547C17.853 16.7547 17.5623 16.6384 17.3491 16.4252C17.1359 16.212 17.0196 15.9019 17.0196 15.5142V12.5876C17.0196 12.2 17.1165 11.8899 17.3491 11.6767C17.5623 11.4635 17.8724 11.3472 18.26 11.3472C18.6477 11.3472 18.9578 11.4635 19.171 11.6767C19.3842 11.8899 19.5004 12.2 19.5004 12.5876L19.4811 15.5142H19.4617Z" fill="#833376"/>
<path d="M11.3218 23.9651V18.4414H10.3915V22.6472L8.20143 18.4414H6.84473V23.9651H7.77504V19.7593L9.98452 23.9651H11.3218ZM13.26 23.4418C13.26 23.3061 13.2212 23.1899 13.1243 23.1123C13.0274 23.0348 12.8917 22.996 12.7367 22.996C12.5816 22.996 12.4653 23.0348 12.3684 23.1123C12.2715 23.1899 12.2328 23.2868 12.2328 23.4418V23.5969C12.2328 23.7325 12.2909 23.8488 12.3878 23.907C12.4847 23.9845 12.601 24.0233 12.7561 24.0233C12.9111 24.0233 13.0468 23.9845 13.1437 23.907C13.2406 23.8294 13.2794 23.7325 13.2794 23.5969L13.26 23.4418ZM17.4076 22.4727H16.5355C16.5355 22.996 16.2641 23.248 15.702 23.248C15.1594 23.248 14.888 22.9767 14.888 22.4146V21.6006C14.888 21.0385 15.1594 20.7672 15.702 20.7672C16.2447 20.7672 16.5355 21.0191 16.5355 21.5618H17.4076V21.4843C17.4076 20.9998 17.2526 20.6315 16.9618 20.3796C16.6517 20.1276 16.2447 19.9919 15.7408 19.9919C15.2369 19.9919 14.8105 20.1276 14.5198 20.3989C14.2097 20.6703 14.0546 21.0579 14.0546 21.5424V22.5115C14.0546 22.996 14.2097 23.3643 14.5198 23.6356C14.8299 23.907 15.2369 24.0426 15.7408 24.0426C16.2641 24.0426 16.6711 23.9264 16.9812 23.655C17.2913 23.4031 17.4464 23.0154 17.4464 22.5503L17.427 22.4921L17.4076 22.4727ZM23.6291 23.9651V21.213C23.6291 20.8253 23.5322 20.5346 23.3383 20.3408C23.1445 20.1276 22.8732 20.0307 22.5437 20.0307C22.2336 20.0307 21.9429 20.1276 21.6522 20.302L21.2258 20.554C21.0707 20.2051 20.7606 20.0307 20.2955 20.0307C20.0047 20.0307 19.7334 20.1082 19.4814 20.2633L19.1326 20.4765V20.0694H18.241V23.9845H19.1326V21.2905L19.5977 20.9998C19.7915 20.9028 19.9466 20.8447 20.0629 20.8447C20.3342 20.8447 20.4699 20.9998 20.4699 21.3292V23.9845H21.3614V21.2905L21.8266 20.9998C22.0204 20.9028 22.1755 20.8447 22.2917 20.8447C22.5631 20.8447 22.6988 20.9998 22.6988 21.3292V23.9845H23.6097L23.6291 23.9651Z" fill="#833376"/>
<path d="M26.1284 13.5556C29.869 13.5556 32.8925 10.5321 32.8925 6.79147C32.8925 3.05085 29.869 0.0273438 26.1284 0.0273438C22.3878 0.0273438 19.3643 3.05085 19.3643 6.79147C19.3643 10.5321 22.3878 13.5556 26.1284 13.5556Z" fill="#833376"/>
<path d="M26.1284 13.5556C29.869 13.5556 32.8925 10.5321 32.8925 6.79147C32.8925 3.05085 29.869 0.0273438 26.1284 0.0273438C22.3878 0.0273438 19.3643 3.05085 19.3643 6.79147C19.3643 10.5321 22.3878 13.5556 26.1284 13.5556Z" stroke="white" stroke-width="1.31794"/>
<path d="M28.3375 10.6471V9.87184H25.0232L27.1164 7.75926C27.5622 7.31349 27.8723 6.90648 28.0467 6.53823C28.2212 6.16999 28.2987 5.80174 28.2987 5.41411C28.2987 4.81328 28.1243 4.30937 27.7366 3.94112C27.3684 3.57287 26.8257 3.39844 26.1086 3.39844C25.4496 3.39844 24.9069 3.57287 24.4806 3.92174C24.0735 4.2706 23.8604 4.73576 23.8604 5.3172V5.39473H24.6744C24.6744 4.98772 24.7907 4.67761 25.0426 4.46442C25.2946 4.2706 25.6434 4.15431 26.0892 4.15431C26.5544 4.15431 26.9032 4.25122 27.1358 4.4838C27.3684 4.697 27.4847 5.0071 27.4847 5.41411C27.4847 5.74359 27.4265 6.03431 27.2715 6.30566C27.1358 6.59638 26.8839 6.90648 26.5544 7.25535L24.0154 9.87184V10.6471L28.3181 10.6665L28.3375 10.6471Z" fill="#FEFEFE"/>
</svg>
