<svg width="34" height="36" viewBox="0 0 34 36" fill="none" xmlns="http://www.w3.org/2000/svg">
<path d="M30.3341 31.6509C30.0821 30.7981 29.7333 29.8678 29.2875 28.9181C28.8611 27.9684 28.3766 26.9993 27.8339 26.0497C27.7564 26.1853 27.6788 26.3016 27.6013 26.4179C27.5238 26.5342 27.4463 26.6699 27.3687 26.7861C27.2912 26.9024 27.1943 27.0187 27.1168 27.135C27.0199 27.2513 26.9423 27.3676 26.8454 27.4839L26.8261 27.5033L26.8067 27.5226L26.7873 27.542L26.7679 27.5614L26.6904 27.6583C26.7679 27.8715 26.8648 28.1429 26.9617 28.4142C27.0586 28.7049 27.1749 28.9956 27.2718 29.2864C27.3687 29.5771 27.4463 29.8484 27.4656 30.0616C27.5044 30.2748 27.485 30.4492 27.4075 30.5462C27.3881 30.5655 27.3494 30.6043 27.3106 30.6237C27.2718 30.6431 27.2331 30.6624 27.1943 30.6818C27.1555 30.7012 27.1168 30.7012 27.0586 30.7012C27.0199 30.7012 26.9617 30.7012 26.923 30.7012C26.8454 30.7012 26.7679 30.6818 26.671 30.6624C26.5741 30.6431 26.4772 30.6237 26.3803 30.5849C26.2834 30.5462 26.1671 30.5074 26.0702 30.4686C25.9539 30.4299 25.8376 30.3717 25.7213 30.3136C25.5663 30.236 25.4112 30.1585 25.2562 30.081C25.1011 30.0035 24.9267 29.9066 24.7716 29.8097C24.5972 29.7127 24.4228 29.6158 24.2483 29.4996C24.0739 29.3833 23.8995 29.2864 23.7056 29.1701C24.4228 28.453 25.1011 27.6971 25.7019 26.8831C26.3221 26.069 26.8842 25.2163 27.3687 24.3247C27.8727 23.4332 28.299 22.5028 28.6479 21.5532C28.9968 20.6035 29.2875 19.615 29.4813 18.6266C29.9271 16.3977 29.9077 14.3045 29.5007 12.4439C29.0937 10.6026 28.3184 8.99398 27.2524 7.67604C26.2058 6.37748 24.8491 5.38903 23.2793 4.74944C21.7481 4.12924 20.0038 3.83851 18.1044 3.97418C16.864 4.05171 15.6236 4.32305 14.4219 4.71068C13.2203 5.11769 12.0574 5.66037 10.9526 6.31934C9.8479 6.97831 8.80131 7.75357 7.81285 8.64511C6.84378 9.51728 5.93285 10.5057 5.11883 11.5523C4.90564 11.1453 4.71182 10.7577 4.57615 10.4088C4.44048 10.06 4.32419 9.74986 4.26605 9.45913C4.2079 9.18779 4.18852 8.93583 4.2079 8.72264C4.22728 8.50944 4.28543 8.35439 4.40172 8.2381C4.44048 8.19934 4.47924 8.16058 4.53739 8.12181C4.59553 8.08305 4.65368 8.04429 4.7312 8.02491C4.80873 7.98614 4.88625 7.96676 4.98316 7.94738C5.08007 7.928 5.17698 7.90862 5.27388 7.90862C5.39017 7.90862 5.50646 7.90862 5.62275 7.928C5.73904 7.94738 5.87471 7.96676 5.991 8.02491C6.10729 8.06367 6.24296 8.12181 6.35924 8.19934C6.49491 8.27687 6.6112 8.37377 6.74687 8.49006C6.86316 8.33501 6.99883 8.19934 7.1345 8.06367C7.27017 7.928 7.40584 7.79233 7.54151 7.67604C7.67718 7.55975 7.83223 7.42408 7.9679 7.30779C8.12296 7.1915 8.27801 7.07522 8.43306 6.95893C8.45244 6.95893 8.45244 6.93955 8.47182 6.93955C8.4912 6.92016 8.4912 6.92016 8.51059 6.92016C8.52997 6.92016 8.52997 6.90078 8.54935 6.90078C8.56873 6.90078 8.56873 6.8814 8.58811 6.8814C8.29739 6.62944 8.00667 6.41625 7.67718 6.24181C7.36708 6.06738 7.03759 5.93171 6.70811 5.8348C6.37863 5.7379 6.04914 5.67975 5.71966 5.64099C5.39017 5.60223 5.08007 5.60223 4.78935 5.62161C4.57615 5.64099 4.38234 5.66037 4.18852 5.69913C3.99471 5.7379 3.82027 5.77666 3.66522 5.8348C3.51017 5.89295 3.35512 5.95109 3.23883 6.02862C3.12254 6.10614 3.00625 6.18367 2.92873 6.28058C2.67677 6.55192 2.52172 6.90078 2.46357 7.34656C2.40543 7.77295 2.42481 8.27687 2.52172 8.85831C2.63801 9.42037 2.81244 10.06 3.08378 10.7577C3.35512 11.4554 3.70399 12.1919 4.13038 12.9866C3.83966 13.4323 3.56832 13.8975 3.31636 14.3626C3.0644 14.8278 2.81244 15.3123 2.59924 15.7969C2.38605 16.2814 2.17285 16.7853 1.99842 17.2892C1.82398 17.7932 1.64955 18.3165 1.51388 18.8398C0.990582 20.836 0.835531 22.7742 1.00996 24.5573C1.1844 26.3598 1.7077 28.0266 2.52172 29.4608C3.35512 30.9144 4.49862 32.1354 5.91347 33.027C7.3477 33.9379 9.07265 34.5 11.0108 34.6163C11.5922 34.655 12.1737 34.6356 12.7551 34.5969C13.3366 34.5581 13.9374 34.4612 14.5188 34.3449C15.1003 34.2286 15.7011 34.0736 16.2825 33.8798C16.864 33.6859 17.4454 33.4534 18.0269 33.2014L16.6508 30.5849C16.2438 30.74 15.8368 30.895 15.4298 31.0113C15.0228 31.1276 14.6157 31.2245 14.2087 31.302C13.8017 31.3796 13.3947 31.4377 12.9683 31.4571C12.5613 31.4765 12.1543 31.4958 11.7473 31.4765C10.1774 31.3989 8.78193 30.9725 7.61904 30.2554C6.45615 29.5577 5.52584 28.5886 4.84749 27.4257C4.16914 26.2822 3.72337 24.9449 3.56832 23.4719C3.41326 22.0183 3.52955 20.4484 3.95594 18.8204C4.36295 17.1923 5.06069 15.6612 5.93285 14.2657C6.80502 12.8703 7.871 11.5911 9.07265 10.5251C10.2743 9.43975 11.631 8.54821 13.0458 7.88924C14.4801 7.23027 15.9724 6.82326 17.5036 6.74573C19.0347 6.64882 20.4496 6.90078 21.69 7.42408C22.9498 7.96676 24.0157 8.78078 24.8491 9.82738C25.7019 10.8934 26.3028 12.2113 26.6129 13.6843C26.923 15.1767 26.923 16.8628 26.5547 18.6459C26.3997 19.4212 26.1671 20.1965 25.8957 20.9523C25.605 21.7082 25.2755 22.4253 24.8879 23.1424C24.5003 23.8402 24.0545 24.5185 23.57 25.1581C23.0854 25.7977 22.5621 26.3985 22.0001 26.9606C22.0195 26.7668 22.0195 26.573 22.0388 26.3791C22.0582 26.1853 22.0582 25.9915 22.0582 25.8171C22.0582 25.6426 22.0776 25.4682 22.0776 25.3325C22.0776 25.1969 22.0776 25.0806 22.0776 25.0031C22.0776 24.9255 22.0776 24.8674 22.0582 24.8092C22.0388 24.7705 22.0195 24.7317 22.0001 24.693C21.9807 24.6736 21.9419 24.6542 21.9225 24.6348C21.9032 24.6154 21.8644 24.6154 21.8256 24.6154C21.8063 24.6154 21.7675 24.6154 21.7481 24.6154C21.7287 24.6154 21.7094 24.6348 21.69 24.6348C21.6706 24.6348 21.6512 24.6542 21.6512 24.6542C21.6318 24.6542 21.6318 24.6736 21.6318 24.6736L16.7865 26.2435C16.7865 26.2435 16.7283 26.2629 16.6896 26.2822C16.6314 26.3016 16.5733 26.3404 16.5151 26.3985C16.457 26.4567 16.4182 26.5342 16.3988 26.6505C16.3988 26.7474 16.4182 26.8831 16.4957 27.0575C16.4957 27.0769 16.5151 27.0769 16.5151 27.0769C16.5151 27.0963 16.5151 27.0963 16.5345 27.0963C16.5345 27.1156 16.5345 27.1156 16.5539 27.135C16.5539 27.135 16.5539 27.1544 16.5733 27.1738C16.7865 27.6196 17.0966 28.201 17.4648 28.8793C17.8137 29.5577 18.2207 30.3136 18.6277 31.0501C19.0347 31.8059 19.4223 32.5424 19.7712 33.1626C20.1201 33.8022 20.4108 34.3255 20.5852 34.655C20.6046 34.6744 20.624 34.7132 20.624 34.7325C20.6434 34.7519 20.6434 34.7907 20.6628 34.8101C20.6821 34.8295 20.6821 34.8488 20.7015 34.8682C20.7209 34.8876 20.7209 34.907 20.7209 34.9264C20.7597 35.0039 20.8178 35.0814 20.8566 35.1396C20.8953 35.1977 20.9341 35.2558 20.9729 35.2946C21.0116 35.3334 21.0504 35.3528 21.0891 35.3721C21.1279 35.3915 21.1667 35.3915 21.1861 35.3915C21.2442 35.3915 21.3023 35.3721 21.3411 35.3334C21.3993 35.2946 21.438 35.2558 21.4768 35.1977C21.5155 35.1396 21.5349 35.0814 21.5543 35.0233C21.5737 34.9651 21.5931 34.907 21.5931 34.8682C21.5931 34.8488 21.5931 34.8295 21.5931 34.8101C21.5931 34.7907 21.5931 34.7519 21.5931 34.7325C21.5931 34.6938 21.5931 34.6744 21.5931 34.6356C21.5931 34.5969 21.5931 34.5581 21.5931 34.5194C21.6124 34.3643 21.6124 34.1705 21.6318 33.9767C21.6512 33.7829 21.6512 33.5697 21.6706 33.3952C21.69 33.2014 21.69 33.0464 21.69 32.9107C21.69 32.7944 21.7094 32.6975 21.7094 32.6975C22.3683 33.1045 23.0467 33.4921 23.6863 33.841C24.3452 34.2092 24.9848 34.5387 25.605 34.8295C26.2252 35.1202 26.8261 35.3721 27.3687 35.5466C27.9114 35.721 28.4153 35.8373 28.8611 35.8567C28.9193 35.8567 28.9774 35.8567 29.0355 35.8567C29.0937 35.8567 29.1518 35.8567 29.21 35.8567C29.2681 35.8567 29.3263 35.8567 29.365 35.8373C29.4232 35.8373 29.4619 35.8179 29.5201 35.8179C29.5976 35.7985 29.6751 35.7791 29.7333 35.7598C29.8108 35.7404 29.8689 35.7016 29.9271 35.6822C29.9852 35.6435 30.0434 35.6047 30.1015 35.5659C30.1597 35.5272 30.2178 35.469 30.2566 35.4303C30.5667 35.1008 30.7023 34.5775 30.7023 33.9379C30.7023 33.2983 30.5473 32.5231 30.2953 31.6509H30.3341Z" fill="#833376"/>
<path d="M15.2365 18.3131V17.189H13.6472V10.9482H12.465C11.961 11.4133 11.4184 11.7234 10.8369 11.8979V13.0607C11.1276 13.022 11.4184 12.9251 11.6897 12.77C11.9804 12.615 12.213 12.4599 12.3681 12.3049V17.1696H10.333V18.2937L15.2365 18.3131ZM21.2254 13.0607C21.2254 12.3824 20.9928 11.8397 20.5277 11.4327C20.0625 11.0257 19.4617 10.8125 18.7252 10.8125C17.9887 10.8125 17.3879 11.0063 16.9227 11.4133C16.4575 11.8203 16.225 12.363 16.225 13.022V16.1424C16.225 16.8207 16.4575 17.344 16.9227 17.7511C17.3879 18.1581 17.9887 18.3519 18.7252 18.3519C19.4617 18.3519 20.0625 18.1387 20.5277 17.7317C20.9928 17.3247 21.2254 16.782 21.2254 16.1036V13.022V13.0607ZM19.9656 16.0455C19.9656 16.4331 19.8687 16.7432 19.6361 16.9564C19.4229 17.1696 19.1128 17.2859 18.7446 17.2859C18.3569 17.2859 18.0662 17.1696 17.853 16.9564C17.6398 16.7432 17.5235 16.4331 17.5235 16.0455V13.1189C17.5235 12.7313 17.6204 12.4212 17.853 12.208C18.0662 11.9948 18.3763 11.8785 18.7639 11.8785C19.1516 11.8785 19.4617 11.9948 19.6749 12.208C19.8881 12.4212 20.0044 12.7313 20.0044 13.1189L19.985 16.0455H19.9656Z" fill="#833376"/>
<path d="M11.8257 24.4964V18.9727H10.8954V23.1784L8.70533 18.9727H7.34863V24.4964H8.27894V20.2906L10.4884 24.4964H11.8257ZM13.7639 23.9731C13.7639 23.8374 13.7251 23.7211 13.6282 23.6436C13.5313 23.5661 13.3956 23.5273 13.2406 23.5273C13.0855 23.5273 12.9693 23.5661 12.8723 23.6436C12.7754 23.7211 12.7367 23.818 12.7367 23.9731V24.1281C12.7367 24.2638 12.7948 24.3801 12.8917 24.4382C12.9886 24.5158 13.1049 24.5545 13.26 24.5545C13.415 24.5545 13.5507 24.5158 13.6476 24.4382C13.7445 24.3607 13.7833 24.2638 13.7833 24.1281L13.7639 23.9731ZM17.9115 23.004H17.0394C17.0394 23.5273 16.768 23.7793 16.206 23.7793C15.6633 23.7793 15.3919 23.5079 15.3919 22.9459V22.1318C15.3919 21.5698 15.6633 21.2984 16.206 21.2984C16.7486 21.2984 17.0394 21.5504 17.0394 22.0931H17.9115V22.0155C17.9115 21.531 17.7565 21.1628 17.4658 20.9108C17.1556 20.6588 16.7486 20.5232 16.2447 20.5232C15.7408 20.5232 15.3144 20.6588 15.0237 20.9302C14.7136 21.2015 14.5585 21.5892 14.5585 22.0737V23.0428C14.5585 23.5273 14.7136 23.8955 15.0237 24.1669C15.3338 24.4382 15.7408 24.5739 16.2447 24.5739C16.768 24.5739 17.175 24.4576 17.4851 24.1863C17.7952 23.9343 17.9503 23.5467 17.9503 23.0815L17.9309 23.0234L17.9115 23.004ZM24.133 24.4964V21.7442C24.133 21.3566 24.0361 21.0659 23.8422 20.872C23.6484 20.6588 23.3771 20.5619 23.0476 20.5619C22.7375 20.5619 22.4468 20.6588 22.1561 20.8333L21.7297 21.0852C21.5746 20.7364 21.2645 20.5619 20.7994 20.5619C20.5086 20.5619 20.2373 20.6395 19.9853 20.7945L19.6365 21.0077V20.6007H18.7449V24.5158H19.6365V21.8217L20.1016 21.531C20.2954 21.4341 20.4505 21.376 20.5668 21.376C20.8381 21.376 20.9738 21.531 20.9738 21.8605V24.5158H21.8653V21.8217L22.3305 21.531C22.5243 21.4341 22.6794 21.376 22.7956 21.376C23.067 21.376 23.2027 21.531 23.2027 21.8605V24.5158H24.1136L24.133 24.4964Z" fill="#833376"/>
<path d="M26.6323 14.0868C30.3729 14.0868 33.3964 11.0633 33.3964 7.32272C33.3964 3.5821 30.3729 0.558594 26.6323 0.558594C22.8917 0.558594 19.8682 3.5821 19.8682 7.32272C19.8682 11.0633 22.8917 14.0868 26.6323 14.0868Z" fill="#833376"/>
<path d="M26.6323 14.0868C30.3729 14.0868 33.3964 11.0633 33.3964 7.32272C33.3964 3.5821 30.3729 0.558594 26.6323 0.558594C22.8917 0.558594 19.8682 3.5821 19.8682 7.32272C19.8682 11.0633 22.8917 14.0868 26.6323 14.0868Z" stroke="white" stroke-width="1.31794"/>
<path d="M28.8414 11.1784V10.4031H25.5271L27.6203 8.29051C28.0661 7.84474 28.3762 7.43773 28.5507 7.06948C28.7251 6.70124 28.8026 6.33299 28.8026 5.94536C28.8026 5.34453 28.6282 4.84062 28.2405 4.47237C27.8723 4.10412 27.3296 3.92969 26.6125 3.92969C25.9535 3.92969 25.4109 4.10412 24.9845 4.45299C24.5775 4.80185 24.3643 5.26701 24.3643 5.84845V5.92598H25.1783C25.1783 5.51897 25.2946 5.20886 25.5465 4.99567C25.7985 4.80185 26.1474 4.68556 26.5931 4.68556C27.0583 4.68556 27.4071 4.78247 27.6397 5.01505C27.8723 5.22825 27.9886 5.53835 27.9886 5.94536C27.9886 6.27484 27.9304 6.56556 27.7754 6.83691C27.6397 7.12763 27.3878 7.43773 27.0583 7.7866L24.5193 10.4031V11.1784L28.822 11.1977L28.8414 11.1784Z" fill="#FEFEFE"/>
</svg>
