<svg width="17" height="16" viewBox="0 0 17 16" fill="none" xmlns="http://www.w3.org/2000/svg">
<path d="M8.50696 4C8.63957 4 8.76675 4.05268 8.86052 4.14645C8.95429 4.24022 9.00697 4.3674 9.00697 4.50002V7.50011H12.0071C12.1397 7.50011 12.2669 7.55279 12.3606 7.64656C12.4544 7.74033 12.5071 7.86751 12.5071 8.00012C12.5071 8.13273 12.4544 8.25991 12.3606 8.35369C12.2669 8.44746 12.1397 8.50014 12.0071 8.50014H9.00697V11.5002C9.00697 11.6328 8.95429 11.76 8.86052 11.8538C8.76675 11.9476 8.63957 12.0002 8.50696 12.0002C8.37435 12.0002 8.24716 11.9476 8.15339 11.8538C8.05962 11.76 8.00694 11.6328 8.00694 11.5002V8.50014H5.00685C4.87424 8.50014 4.74706 8.44746 4.65329 8.35369C4.55952 8.25991 4.50684 8.13273 4.50684 8.00012C4.50684 7.86751 4.55952 7.74033 4.65329 7.64656C4.74706 7.55279 4.87424 7.50011 5.00685 7.50011H8.00694V4.50002C8.00694 4.3674 8.05962 4.24022 8.15339 4.14645C8.24716 4.05268 8.37435 4 8.50696 4Z" fill="#CFCCC9"/>
</svg>
