<svg width="17" height="17" viewBox="0 0 17 17" fill="none" xmlns="http://www.w3.org/2000/svg">
<path d="M8.0802 4.25781C8.21281 4.25781 8.33999 4.31049 8.43376 4.40426C8.52754 4.49803 8.58021 4.62522 8.58021 4.75783V7.75792H11.5803C11.7129 7.75792 11.8401 7.8106 11.9339 7.90437C12.0276 7.99814 12.0803 8.12532 12.0803 8.25793C12.0803 8.39055 12.0276 8.51773 11.9339 8.6115C11.8401 8.70527 11.7129 8.75795 11.5803 8.75795H8.58021V11.758C8.58021 11.8907 8.52754 12.0178 8.43376 12.1116C8.33999 12.2054 8.21281 12.2581 8.0802 12.2581C7.94759 12.2581 7.82041 12.2054 7.72664 12.1116C7.63286 12.0178 7.58018 11.8907 7.58018 11.758V8.75795H4.58009C4.44748 8.75795 4.3203 8.70527 4.22653 8.6115C4.13276 8.51773 4.08008 8.39055 4.08008 8.25793C4.08008 8.12532 4.13276 7.99814 4.22653 7.90437C4.3203 7.8106 4.44748 7.75792 4.58009 7.75792H7.58018V4.75783C7.58018 4.62522 7.63286 4.49803 7.72664 4.40426C7.82041 4.31049 7.94759 4.25781 8.0802 4.25781Z" fill="#CFCCC9"/>
</svg>
