<svg width="17" height="17" viewBox="0 0 17 17" fill="none" xmlns="http://www.w3.org/2000/svg">
<path d="M8.50696 4.70703C8.63957 4.70703 8.76675 4.75971 8.86052 4.85348C8.95429 4.94725 9.00697 5.07443 9.00697 5.20705V8.20714H12.0071C12.1397 8.20714 12.2669 8.25982 12.3606 8.35359C12.4544 8.44736 12.5071 8.57454 12.5071 8.70715C12.5071 8.83977 12.4544 8.96695 12.3606 9.06072C12.2669 9.15449 12.1397 9.20717 12.0071 9.20717H9.00697V12.2073C9.00697 12.3399 8.95429 12.4671 8.86052 12.5608C8.76675 12.6546 8.63957 12.7073 8.50696 12.7073C8.37435 12.7073 8.24716 12.6546 8.15339 12.5608C8.05962 12.4671 8.00694 12.3399 8.00694 12.2073V9.20717H5.00685C4.87424 9.20717 4.74706 9.15449 4.65329 9.06072C4.55952 8.96695 4.50684 8.83977 4.50684 8.70715C4.50684 8.57454 4.55952 8.44736 4.65329 8.35359C4.74706 8.25982 4.87424 8.20714 5.00685 8.20714H8.00694V5.20705C8.00694 5.07443 8.05962 4.94725 8.15339 4.85348C8.24716 4.75971 8.37435 4.70703 8.50696 4.70703Z" fill="#CFCCC9"/>
</svg>
