<svg width="14" height="15" viewBox="0 0 14 15" fill="none" xmlns="http://www.w3.org/2000/svg">
<path d="M7.84693 5.23263C7.84693 5.1212 7.80267 5.01434 7.72388 4.93555C7.64509 4.85676 7.53823 4.8125 7.42681 4.8125C7.31538 4.8125 7.20852 4.85676 7.12973 4.93555C7.05094 5.01434 7.00668 5.1212 7.00668 5.23263V6.49301H5.7463C5.63487 6.49301 5.52801 6.53727 5.44922 6.61606C5.37044 6.69485 5.32617 6.80171 5.32617 6.91314C5.32617 7.02456 5.37044 7.13142 5.44922 7.21021C5.52801 7.289 5.63487 7.33326 5.7463 7.33326H7.00668V8.59364C7.00668 8.70507 7.05094 8.81193 7.12973 8.89072C7.20852 8.96951 7.31538 9.01377 7.42681 9.01377C7.53823 9.01377 7.64509 8.96951 7.72388 8.89072C7.80267 8.81193 7.84693 8.70507 7.84693 8.59364V7.33326H9.10732C9.21874 7.33326 9.3256 7.289 9.40439 7.21021C9.48318 7.13142 9.52744 7.02456 9.52744 6.91314C9.52744 6.80171 9.48318 6.69485 9.40439 6.61606C9.3256 6.53727 9.21874 6.49301 9.10732 6.49301H7.84693V5.23263Z" fill="#363330"/>
<path d="M0.704307 1.44922C0.592882 1.44922 0.486021 1.49348 0.407232 1.57227C0.328443 1.65106 0.28418 1.75792 0.28418 1.86935C0.28418 1.98077 0.328443 2.08763 0.407232 2.16642C0.486021 2.24521 0.592882 2.28947 0.704307 2.28947H1.63699L1.97393 3.63976L3.23263 10.3492C3.25065 10.4455 3.30175 10.5324 3.37708 10.595C3.45241 10.6576 3.54725 10.6919 3.6452 10.692H4.48545C4.03975 10.692 3.61231 10.8691 3.29715 11.1842C2.982 11.4994 2.80494 11.9268 2.80494 12.3725C2.80494 12.8182 2.982 13.2457 3.29715 13.5608C3.61231 13.876 4.03975 14.053 4.48545 14.053C4.93115 14.053 5.35859 13.876 5.67375 13.5608C5.98891 13.2457 6.16596 12.8182 6.16596 12.3725C6.16596 11.9268 5.98891 11.4994 5.67375 11.1842C5.35859 10.8691 4.93115 10.692 4.48545 10.692H10.3672C9.92153 10.692 9.49409 10.8691 9.17893 11.1842C8.86378 11.4994 8.68672 11.9268 8.68672 12.3725C8.68672 12.8182 8.86378 13.2457 9.17893 13.5608C9.49409 13.876 9.92153 14.053 10.3672 14.053C10.8129 14.053 11.2404 13.876 11.5555 13.5608C11.8707 13.2457 12.0477 12.8182 12.0477 12.3725C12.0477 11.9268 11.8707 11.4994 11.5555 11.1842C11.2404 10.8691 10.8129 10.692 10.3672 10.692H11.2075C11.3054 10.6919 11.4003 10.6576 11.4756 10.595C11.5509 10.5324 11.602 10.4455 11.62 10.3492L12.8804 3.62716C12.8918 3.56652 12.8896 3.50413 12.8742 3.44442C12.8587 3.3847 12.8302 3.32913 12.7909 3.28165C12.7515 3.23417 12.7021 3.19594 12.6463 3.16968C12.5905 3.14343 12.5296 3.12978 12.4679 3.12973H2.71251L2.37221 1.76768C2.34953 1.67675 2.2971 1.59601 2.22326 1.53831C2.14942 1.4806 2.0584 1.44924 1.96469 1.44922H0.704307ZM3.9939 9.85176L2.89065 3.96998H11.962L10.8588 9.85176H3.9939ZM5.32571 12.3725C5.32571 12.5954 5.23718 12.8091 5.0796 12.9667C4.92202 13.1243 4.7083 13.2128 4.48545 13.2128C4.2626 13.2128 4.04888 13.1243 3.8913 12.9667C3.73372 12.8091 3.6452 12.5954 3.6452 12.3725C3.6452 12.1497 3.73372 11.936 3.8913 11.7784C4.04888 11.6208 4.2626 11.5323 4.48545 11.5323C4.7083 11.5323 4.92202 11.6208 5.0796 11.7784C5.23718 11.936 5.32571 12.1497 5.32571 12.3725ZM11.2075 12.3725C11.2075 12.5954 11.119 12.8091 10.9614 12.9667C10.8038 13.1243 10.5901 13.2128 10.3672 13.2128C10.1444 13.2128 9.93066 13.1243 9.77308 12.9667C9.6155 12.8091 9.52698 12.5954 9.52698 12.3725C9.52698 12.1497 9.6155 11.936 9.77308 11.7784C9.93066 11.6208 10.1444 11.5323 10.3672 11.5323C10.5901 11.5323 10.8038 11.6208 10.9614 11.7784C11.119 11.936 11.2075 12.1497 11.2075 12.3725Z" fill="#363330"/>
</svg>
