<svg width="15" height="14" viewBox="0 0 15 14" fill="none" xmlns="http://www.w3.org/2000/svg">
<path d="M8.33424 4.85763C8.33424 4.7462 8.28998 4.63934 8.21119 4.56055C8.1324 4.48176 8.02554 4.4375 7.91411 4.4375C7.80269 4.4375 7.69583 4.48176 7.61704 4.56055C7.53825 4.63934 7.49398 4.7462 7.49398 4.85763V6.11801H6.2336C6.12218 6.11801 6.01532 6.16227 5.93653 6.24106C5.85774 6.31985 5.81348 6.42671 5.81348 6.53814C5.81348 6.64956 5.85774 6.75642 5.93653 6.83521C6.01532 6.914 6.12218 6.95826 6.2336 6.95826H7.49398V8.21864C7.49398 8.33007 7.53825 8.43693 7.61704 8.51572C7.69583 8.59451 7.80269 8.63877 7.91411 8.63877C8.02554 8.63877 8.1324 8.59451 8.21119 8.51572C8.28998 8.43693 8.33424 8.33007 8.33424 8.21864V6.95826H9.59462C9.70605 6.95826 9.81291 6.914 9.8917 6.83521C9.97048 6.75642 10.0147 6.64956 10.0147 6.53814C10.0147 6.42671 9.97048 6.31985 9.8917 6.24106C9.81291 6.16227 9.70605 6.11801 9.59462 6.11801H8.33424V4.85763Z" fill="#363330"/>
<path d="M1.19161 1.07422C1.08019 1.07422 0.973326 1.11848 0.894537 1.19727C0.815748 1.27606 0.771484 1.38292 0.771484 1.49435C0.771484 1.60577 0.815748 1.71263 0.894537 1.79142C0.973326 1.87021 1.08019 1.91447 1.19161 1.91447H2.12429L2.46124 3.26476L3.71994 9.97419C3.73796 10.0705 3.78905 10.1574 3.86439 10.22C3.93972 10.2826 4.03455 10.3169 4.1325 10.317H4.97276C4.52706 10.317 4.09961 10.4941 3.78446 10.8092C3.4693 11.1244 3.29225 11.5518 3.29225 11.9975C3.29225 12.4432 3.4693 12.8707 3.78446 13.1858C4.09961 13.501 4.52706 13.678 4.97276 13.678C5.41845 13.678 5.8459 13.501 6.16105 13.1858C6.47621 12.8707 6.65326 12.4432 6.65326 11.9975C6.65326 11.5518 6.47621 11.1244 6.16105 10.8092C5.8459 10.4941 5.41845 10.317 4.97276 10.317H10.8545C10.4088 10.317 9.98139 10.4941 9.66624 10.8092C9.35108 11.1244 9.17403 11.5518 9.17403 11.9975C9.17403 12.4432 9.35108 12.8707 9.66624 13.1858C9.98139 13.501 10.4088 13.678 10.8545 13.678C11.3002 13.678 11.7277 13.501 12.0428 13.1858C12.358 12.8707 12.535 12.4432 12.535 11.9975C12.535 11.5518 12.358 11.1244 12.0428 10.8092C11.7277 10.4941 11.3002 10.317 10.8545 10.317H11.6948C11.7927 10.3169 11.8876 10.2826 11.9629 10.22C12.0382 10.1574 12.0893 10.0705 12.1074 9.97419L13.3677 3.25216C13.3791 3.19152 13.3769 3.12913 13.3615 3.06942C13.346 3.0097 13.3175 2.95413 13.2782 2.90665C13.2388 2.85917 13.1894 2.82094 13.1336 2.79468C13.0778 2.76843 13.0169 2.75478 12.9552 2.75473H3.19982L2.85952 1.39268C2.83684 1.30175 2.78441 1.22101 2.71057 1.16331C2.63672 1.1056 2.54571 1.07424 2.45199 1.07422H1.19161ZM4.48121 9.47676L3.37795 3.59498H12.4493L11.3461 9.47676H4.48121ZM5.81301 11.9975C5.81301 12.2204 5.72448 12.4341 5.56691 12.5917C5.40933 12.7493 5.1956 12.8378 4.97276 12.8378C4.74991 12.8378 4.53618 12.7493 4.37861 12.5917C4.22103 12.4341 4.1325 12.2204 4.1325 11.9975C4.1325 11.7747 4.22103 11.561 4.37861 11.4034C4.53618 11.2458 4.74991 11.1573 4.97276 11.1573C5.1956 11.1573 5.40933 11.2458 5.56691 11.4034C5.72448 11.561 5.81301 11.7747 5.81301 11.9975ZM11.6948 11.9975C11.6948 12.2204 11.6063 12.4341 11.4487 12.5917C11.2911 12.7493 11.0774 12.8378 10.8545 12.8378C10.6317 12.8378 10.418 12.7493 10.2604 12.5917C10.1028 12.4341 10.0143 12.2204 10.0143 11.9975C10.0143 11.7747 10.1028 11.561 10.2604 11.4034C10.418 11.2458 10.6317 11.1573 10.8545 11.1573C11.0774 11.1573 11.2911 11.2458 11.4487 11.4034C11.6063 11.561 11.6948 11.7747 11.6948 11.9975Z" fill="#363330"/>
</svg>
