<svg width="32" height="36" viewBox="0 0 32 36" fill="none" xmlns="http://www.w3.org/2000/svg">
<path d="M28.9804 31.2848C28.7325 30.4418 28.373 29.5368 27.9515 28.5946C27.53 27.6649 27.0465 26.7103 26.5258 25.7805C26.4515 25.9045 26.3771 26.0285 26.3027 26.1524C26.2283 26.2764 26.1415 26.4004 26.0671 26.5119C25.9804 26.6359 25.906 26.7475 25.8192 26.8591C25.7324 26.9706 25.6456 27.0946 25.5465 27.2062C25.5465 27.2186 25.5341 27.2186 25.5217 27.231C25.5093 27.2434 25.5093 27.2434 25.5093 27.2558C25.4969 27.2682 25.4969 27.2682 25.4969 27.2806C25.4845 27.2929 25.4845 27.2929 25.4721 27.3053L25.3853 27.3921C25.4473 27.6029 25.5465 27.8632 25.658 28.1359C25.7572 28.4087 25.8688 28.7062 25.968 28.9913C26.0547 29.2765 26.1291 29.5368 26.1663 29.7599C26.1911 29.9831 26.1787 30.1442 26.1043 30.231C26.0795 30.2558 26.0547 30.2806 26.0176 30.3054C25.9804 30.3302 25.9556 30.3426 25.906 30.355C25.8688 30.3674 25.8316 30.3798 25.782 30.3798C25.7324 30.3798 25.6952 30.3922 25.6332 30.3798C25.5589 30.3798 25.4721 30.3674 25.3853 30.3426C25.2985 30.3178 25.1994 30.293 25.1002 30.2682C25.001 30.231 24.9018 30.1938 24.7903 30.1566C24.6787 30.1071 24.5671 30.0575 24.4555 30.0079C24.3068 29.9459 24.158 29.8591 23.9969 29.7847C23.8357 29.698 23.6745 29.6112 23.5134 29.512C23.3522 29.4128 23.1787 29.3137 23.0051 29.2145C22.8315 29.1029 22.658 29.0037 22.472 28.8922C23.1787 28.1979 23.8357 27.4417 24.4431 26.6359C25.0506 25.8301 25.6085 24.9871 26.0919 24.1069C26.5754 23.2267 26.9969 22.3094 27.3564 21.3672C27.7035 20.425 27.9763 19.4705 28.1746 18.4911C28.6085 16.2968 28.5837 14.239 28.187 12.3918C27.7903 10.5818 27.0217 8.99504 25.968 7.70575C24.9266 6.44127 23.6001 5.44951 22.0629 4.82966C20.5505 4.20981 18.8273 3.93708 16.9554 4.07345C15.7281 4.16023 14.5132 4.40816 13.3231 4.80487C12.1454 5.20157 11.0048 5.73464 9.91391 6.39168C8.82298 7.03632 7.79403 7.81733 6.82707 8.68511C5.8601 9.5529 4.96752 10.5199 4.17412 11.5612C3.95097 11.1521 3.77742 10.7802 3.62865 10.4331C3.49229 10.086 3.38071 9.77605 3.31873 9.50331C3.25674 9.23058 3.23195 8.98264 3.25674 8.78429C3.28154 8.58594 3.34352 8.42478 3.45509 8.30081C3.49229 8.26362 3.54187 8.22643 3.59146 8.18924C3.65345 8.15205 3.71543 8.11485 3.78981 8.09006C3.86419 8.06527 3.93858 8.02808 4.03775 8.01568C4.12453 7.99089 4.22371 7.97849 4.32288 7.97849C4.43445 7.96609 4.54603 7.97849 4.6576 7.99089C4.76917 8.00328 4.89314 8.04047 5.01711 8.07766C5.14108 8.11485 5.26505 8.17684 5.38902 8.25122C5.51299 8.3256 5.63696 8.42478 5.76093 8.53635C5.8849 8.38759 6.00887 8.25122 6.13284 8.11485C6.25681 7.97849 6.39317 7.85452 6.52954 7.71815C6.66591 7.59418 6.80227 7.47021 6.95104 7.35864C7.0998 7.24707 7.24856 7.13549 7.40972 7.02392C7.42212 7.01153 7.43452 7.01153 7.44691 6.99913C7.45931 6.98673 7.47171 6.97433 7.4841 6.97433C7.4965 6.96194 7.5089 6.96194 7.5213 6.94954C7.53369 6.93714 7.54609 6.93714 7.55849 6.92475C7.28575 6.67681 6.97583 6.46606 6.66591 6.3049C6.35598 6.14374 6.03366 6.00737 5.71134 5.9082C5.38902 5.80902 5.0667 5.74704 4.74438 5.70984C4.43445 5.67265 4.12453 5.67265 3.827 5.68505C3.61625 5.69745 3.4179 5.72224 3.23195 5.75943C3.04599 5.79662 2.87244 5.84621 2.71128 5.9082C2.55012 5.97018 2.41375 6.03217 2.28978 6.10655C2.16581 6.18093 2.06663 6.26771 1.97986 6.35449C1.73192 6.62722 1.58315 6.97433 1.52117 7.39583C1.45918 7.81733 1.48398 8.31321 1.58315 8.87107C1.68233 9.42893 1.88068 10.0612 2.14102 10.743C2.41375 11.4248 2.74847 12.1687 3.16996 12.9497C2.88483 13.3836 2.6121 13.8422 2.36416 14.3009C2.11622 14.7596 1.88068 15.2307 1.65754 15.7142C1.44679 16.1977 1.24844 16.6812 1.06248 17.1894C0.888924 17.6853 0.727764 18.206 0.591397 18.7143C0.0707249 20.6854 -0.0780386 22.5821 0.0955188 24.3425C0.269076 26.1152 0.777351 27.7516 1.58315 29.1649C2.40135 30.5905 3.52948 31.793 4.91793 32.6732C6.33119 33.5658 8.02957 34.1237 9.9511 34.2352C10.5214 34.2724 11.0916 34.26 11.6743 34.2228C12.2569 34.1857 12.8396 34.0989 13.4099 33.9749C13.9925 33.8509 14.5628 33.7022 15.1454 33.5162C15.7157 33.3303 16.2859 33.1071 16.8562 32.8468L15.4925 30.2806C15.0958 30.4418 14.6991 30.5781 14.29 30.6897C13.8933 30.8013 13.4842 30.9005 13.0751 30.9748C12.666 31.0492 12.2693 31.0988 11.8602 31.1236C11.4635 31.1484 11.0544 31.1608 10.6577 31.136C9.10811 31.0616 7.74444 30.6401 6.59152 29.9459C5.451 29.2641 4.53363 28.3095 3.8518 27.169C3.18236 26.0409 2.74847 24.7268 2.5997 23.2887C2.45094 21.8631 2.56251 20.3259 2.97161 18.7143C3.38071 17.115 4.05015 15.6026 4.91793 14.2266C5.77332 12.8505 6.82707 11.5984 8.01717 10.5447C9.20728 9.47852 10.5338 8.59834 11.9222 7.95369C13.3231 7.30905 14.8107 6.91235 16.3107 6.82557C17.8232 6.73879 19.2116 6.97433 20.4265 7.49501C21.6538 8.01568 22.7076 8.83388 23.5382 9.86283C24.3688 10.9166 24.9638 12.2058 25.2737 13.6687C25.5713 15.1439 25.5837 16.7927 25.2118 18.5531C25.0506 19.3217 24.8398 20.0779 24.5547 20.8217C24.282 21.5656 23.9473 22.2846 23.563 22.9664C23.1787 23.6606 22.7448 24.3177 22.2737 24.9499C21.8026 25.5822 21.2819 26.1772 20.7365 26.7351C20.7488 26.5491 20.7612 26.3632 20.7612 26.1648C20.7736 25.9789 20.7736 25.7805 20.786 25.607C20.7984 25.4334 20.7984 25.2598 20.8108 25.1235C20.8108 24.9871 20.8232 24.8631 20.8232 24.7888C20.8232 24.7144 20.8232 24.6524 20.7984 24.6028C20.786 24.5532 20.7612 24.516 20.7488 24.4912C20.7241 24.4664 20.6993 24.4416 20.6745 24.4293C20.6497 24.4169 20.6125 24.4169 20.5877 24.4045C20.5629 24.4045 20.5381 24.4045 20.5133 24.4169C20.4885 24.4169 20.4637 24.4293 20.4513 24.4293C20.4265 24.4416 20.4141 24.4416 20.4017 24.4416C20.3893 24.4416 20.3893 24.454 20.3893 24.454L15.6165 26.0037C15.6041 26.0037 15.5669 26.0161 15.5173 26.0409C15.4677 26.0656 15.4058 26.1028 15.3438 26.1648C15.2942 26.2268 15.2446 26.3012 15.2322 26.4004C15.2198 26.4995 15.2446 26.6359 15.3314 26.7971C15.3314 26.8095 15.3438 26.8095 15.3438 26.8219C15.3438 26.8343 15.3562 26.8343 15.3562 26.8467C15.3562 26.8591 15.3686 26.8715 15.3686 26.8715C15.3686 26.8838 15.381 26.8962 15.381 26.8962C15.5917 27.3301 15.9016 27.9128 16.2488 28.5822C16.5959 29.2517 16.9926 29.9955 17.3893 30.7269C17.786 31.4583 18.1827 32.1897 18.5174 32.8096C18.8645 33.4418 19.1372 33.9625 19.3232 34.2848C19.3356 34.3096 19.348 34.3468 19.3728 34.3716C19.3852 34.3964 19.3976 34.4212 19.41 34.446C19.4224 34.4708 19.4348 34.4956 19.4472 34.508C19.4596 34.5328 19.472 34.5452 19.472 34.5576C19.5216 34.6443 19.5587 34.7063 19.5959 34.7683C19.6331 34.8303 19.6827 34.8799 19.7199 34.9171C19.7571 34.9543 19.7943 34.9791 19.8315 35.0039C19.8687 35.0163 19.9059 35.0286 19.9307 35.0286C19.9926 35.0286 20.0422 35.0163 20.0918 34.9791C20.1414 34.9419 20.1786 34.8923 20.2158 34.8427C20.253 34.7931 20.2778 34.7311 20.3026 34.6691C20.3274 34.6072 20.3398 34.5576 20.3398 34.5204C20.3398 34.508 20.3398 34.4832 20.3398 34.4584C20.3398 34.4336 20.3398 34.4088 20.3398 34.3716C20.3398 34.3468 20.3397 34.3096 20.3521 34.2724C20.3521 34.2352 20.3521 34.1981 20.3645 34.1485C20.3769 33.9873 20.3893 33.8013 20.3893 33.603C20.4017 33.4046 20.4141 33.2063 20.4265 33.0203C20.4389 32.8344 20.4513 32.6732 20.4513 32.5493C20.4637 32.4253 20.4637 32.3509 20.4637 32.3261C21.1208 32.7228 21.7778 33.1071 22.4224 33.4542C23.0671 33.8137 23.7117 34.1485 24.3192 34.4336C24.9266 34.7187 25.5093 34.9543 26.0547 35.1278C26.6002 35.3014 27.0961 35.413 27.53 35.4377C27.592 35.4377 27.654 35.4377 27.7035 35.4377C27.7655 35.4377 27.8151 35.4377 27.8771 35.4377C27.9267 35.4377 27.9887 35.4254 28.0383 35.4254C28.0878 35.413 28.1374 35.413 28.187 35.4006C28.2614 35.3882 28.3358 35.3634 28.3978 35.3386C28.4722 35.3138 28.5341 35.289 28.5961 35.2518C28.6581 35.2146 28.7201 35.1898 28.7697 35.1402C28.8193 35.103 28.8813 35.0534 28.9184 35.0039C29.2284 34.6815 29.3647 34.1733 29.3523 33.5286C29.3523 32.8964 29.2036 32.1278 28.9556 31.2848H28.9804Z" fill="#9B8959"/>
<path d="M14.2401 18.1552V17.0395H12.6657V10.903H11.5004C11.0045 11.3617 10.4714 11.6716 9.88875 11.8452V12.9981C10.1739 12.9609 10.459 12.8617 10.7317 12.713C11.0169 12.5642 11.24 12.4155 11.4012 12.2543V17.0395H9.40527V18.1552L14.2277 18.1676L14.2401 18.1552ZM18.7278 15.9486C18.7278 16.3329 18.6038 16.618 18.3807 16.8412C18.1451 17.0519 17.8476 17.1635 17.4633 17.1635C16.6451 17.1635 16.236 16.804 16.236 16.0973H14.9839V16.1841C14.9839 16.8412 15.207 17.3494 15.6533 17.709C16.0996 18.0685 16.6947 18.242 17.4509 18.242C18.1451 18.242 18.7402 18.0313 19.2361 17.6098C19.7319 17.1883 19.9799 16.6304 19.9799 15.9114C19.9799 15.2048 19.7691 14.6593 19.3352 14.2874C18.9013 13.9155 18.3435 13.7295 17.6369 13.7295H16.5211V12.0311H19.7443V10.8906H15.331V14.7833H17.5377C17.922 14.7833 18.2071 14.8824 18.4179 15.0808C18.6286 15.2791 18.7402 15.5643 18.7402 15.9238L18.7278 15.9486Z" fill="#9B8959"/>
<path d="M11.0298 24.243V18.8008H10.1125V22.9414L7.96778 18.8008H6.62891V24.243H7.54628V20.1025L9.71575 24.243H11.0298ZM12.753 23.7348C12.753 23.5984 12.7034 23.4992 12.6166 23.4248C12.5175 23.3505 12.3935 23.3133 12.2447 23.3133C12.096 23.3133 11.9844 23.3505 11.8852 23.4248C11.786 23.4992 11.7488 23.5984 11.7488 23.7348V23.8835C11.7488 24.0199 11.7984 24.1315 11.8976 24.1935C11.9968 24.2678 12.1208 24.305 12.2571 24.305C12.4059 24.305 12.5299 24.2678 12.629 24.1935C12.7282 24.1191 12.7654 24.0199 12.7654 23.8835L12.753 23.7348ZM16.658 22.7802H15.8027C15.8027 23.2885 15.5299 23.5488 14.9969 23.5488C14.4638 23.5488 14.2034 23.2761 14.2034 22.7306V21.9248C14.2034 21.3793 14.4638 21.1066 14.9969 21.1066C15.5423 21.1066 15.8027 21.367 15.8027 21.8752H16.658V21.8132C16.658 21.3422 16.5093 20.9702 16.2118 20.7223C15.9142 20.462 15.5175 20.338 14.9969 20.338C14.4886 20.338 14.0919 20.4744 13.7943 20.7347C13.4968 21.0074 13.3357 21.3793 13.3357 21.8504V22.805C13.3357 23.2761 13.4844 23.648 13.7943 23.9083C14.0919 24.1687 14.4886 24.305 14.9969 24.305C15.5051 24.305 15.9142 24.1811 16.2118 23.9207C16.5093 23.6604 16.6704 23.3009 16.6704 22.8298L16.658 22.7802ZM22.6086 24.243V21.5281C22.6086 21.1562 22.5094 20.8711 22.3235 20.6603C22.1375 20.462 21.8648 20.3504 21.53 20.3504C21.2201 20.3504 20.935 20.4372 20.6499 20.6107L20.2284 20.8711C20.0672 20.524 19.7573 20.3504 19.311 20.3504C19.0383 20.3504 18.7655 20.4372 18.5052 20.5859L18.1581 20.7967V20.4H17.2903V24.2554H18.1705V21.6025L18.6292 21.3174C18.8151 21.2182 18.9639 21.1686 19.0878 21.1686C19.3606 21.1686 19.4846 21.3298 19.4846 21.6397V24.243H20.3647V21.5901L20.8358 21.305C21.0218 21.2058 21.1705 21.1562 21.2945 21.1562C21.5672 21.1562 21.7036 21.3174 21.7036 21.6273V24.243H22.5962H22.6086Z" fill="#9B8959"/>
<path d="M25.3359 14.0018C29.0054 14.0018 31.993 11.0266 31.993 7.34467C31.993 3.67517 29.0178 0.6875 25.3359 0.6875C21.6664 0.6875 18.6787 3.66277 18.6787 7.34467C18.6787 11.0142 21.654 14.0018 25.3359 14.0018Z" fill="#9B8959"/>
<path d="M25.3359 14.0018C29.0054 14.0018 31.993 11.0266 31.993 7.34467C31.993 3.67517 29.0178 0.6875 25.3359 0.6875C21.6664 0.6875 18.6787 3.66277 18.6787 7.34467C18.6787 11.0142 21.654 14.0018 25.3359 14.0018Z" stroke="white" stroke-width="0.669436"/>
<path d="M27.4926 11.1381V10.3695H24.2322L26.3025 8.2744C26.7364 7.82811 27.0463 7.43141 27.2199 7.0719C27.3935 6.71238 27.4802 6.34048 27.4802 5.95617C27.4802 5.36112 27.2943 4.87763 26.9348 4.51812C26.5629 4.15861 26.0298 3.97266 25.3356 3.97266C24.6785 3.97266 24.1455 4.14621 23.7364 4.48093C23.3273 4.82805 23.1289 5.27434 23.1289 5.85699V5.93138H23.9223C23.9223 5.52228 24.0463 5.22475 24.2942 5.0264C24.5422 4.82805 24.8893 4.71647 25.3232 4.71647C25.7819 4.71647 26.129 4.81565 26.3521 5.03879C26.5753 5.26194 26.6992 5.55947 26.6992 5.94377C26.6992 6.2537 26.6372 6.55122 26.4885 6.82396C26.3521 7.09669 26.1042 7.41901 25.7695 7.76612L23.2653 10.3447V11.1133L27.505 11.1257L27.4926 11.1381Z" fill="#FEFEFE"/>
</svg>
