<svg width="17" height="17" viewBox="0 0 17 17" fill="none" xmlns="http://www.w3.org/2000/svg">
<path d="M8.0802 4.8125C8.21281 4.8125 8.33999 4.86518 8.43376 4.95895C8.52754 5.05272 8.58021 5.1799 8.58021 5.31252V8.31261H11.5803C11.7129 8.31261 11.8401 8.36529 11.9339 8.45906C12.0276 8.55283 12.0803 8.68001 12.0803 8.81262C12.0803 8.94523 12.0276 9.07241 11.9339 9.16619C11.8401 9.25996 11.7129 9.31264 11.5803 9.31264H8.58021V12.3127C8.58021 12.4453 8.52754 12.5725 8.43376 12.6663C8.33999 12.7601 8.21281 12.8127 8.0802 12.8127C7.94759 12.8127 7.82041 12.7601 7.72664 12.6663C7.63286 12.5725 7.58018 12.4453 7.58018 12.3127V9.31264H4.58009C4.44748 9.31264 4.3203 9.25996 4.22653 9.16619C4.13276 9.07241 4.08008 8.94523 4.08008 8.81262C4.08008 8.68001 4.13276 8.55283 4.22653 8.45906C4.3203 8.36529 4.44748 8.31261 4.58009 8.31261H7.58018V5.31252C7.58018 5.1799 7.63286 5.05272 7.72664 4.95895C7.82041 4.86518 7.94759 4.8125 8.0802 4.8125Z" fill="#CFCCC9"/>
</svg>
