<svg width="17" height="17" viewBox="0 0 17 17" fill="none" xmlns="http://www.w3.org/2000/svg">
<path d="M8.50696 4.55469C8.63957 4.55469 8.76675 4.60737 8.86052 4.70114C8.95429 4.79491 9.00697 4.92209 9.00697 5.0547V8.05479H12.0071C12.1397 8.05479 12.2669 8.10747 12.3606 8.20125C12.4544 8.29502 12.5071 8.4222 12.5071 8.55481C12.5071 8.68742 12.4544 8.8146 12.3606 8.90837C12.2669 9.00214 12.1397 9.05482 12.0071 9.05482H9.00697V12.0549C9.00697 12.1875 8.95429 12.3147 8.86052 12.4085C8.76675 12.5023 8.63957 12.5549 8.50696 12.5549C8.37435 12.5549 8.24716 12.5023 8.15339 12.4085C8.05962 12.3147 8.00694 12.1875 8.00694 12.0549V9.05482H5.00685C4.87424 9.05482 4.74706 9.00214 4.65329 8.90837C4.55952 8.8146 4.50684 8.68742 4.50684 8.55481C4.50684 8.4222 4.55952 8.29502 4.65329 8.20125C4.74706 8.10747 4.87424 8.05479 5.00685 8.05479H8.00694V5.0547C8.00694 4.92209 8.05962 4.79491 8.15339 4.70114C8.24716 4.60737 8.37435 4.55469 8.50696 4.55469Z" fill="#CFCCC9"/>
</svg>
