<svg width="21" height="20" viewBox="0 0 21 20" fill="none" xmlns="http://www.w3.org/2000/svg">
<path d="M10.8625 5.09375C11.0268 5.09375 11.1843 5.159 11.3004 5.27514C11.4166 5.39128 11.4818 5.54879 11.4818 5.71304V9.42878H15.1975C15.3618 9.42878 15.5193 9.49402 15.6354 9.61016C15.7516 9.7263 15.8168 9.88382 15.8168 10.0481C15.8168 10.2123 15.7516 10.3698 15.6354 10.486C15.5193 10.6021 15.3618 10.6674 15.1975 10.6674H11.4818V14.3831C11.4818 14.5473 11.4166 14.7049 11.3004 14.821C11.1843 14.9371 11.0268 15.0024 10.8625 15.0024C10.6983 15.0024 10.5408 14.9371 10.4246 14.821C10.3085 14.7049 10.2432 14.5473 10.2432 14.3831V10.6674H6.52749C6.36325 10.6674 6.20573 10.6021 6.08959 10.486C5.97345 10.3698 5.9082 10.2123 5.9082 10.0481C5.9082 9.88382 5.97345 9.7263 6.08959 9.61016C6.20573 9.49402 6.36325 9.42878 6.52749 9.42878H10.2432V5.71304C10.2432 5.54879 10.3085 5.39128 10.4246 5.27514C10.5408 5.159 10.6983 5.09375 10.8625 5.09375Z" fill="#363330"/>
</svg>
