<svg width="32" height="32" viewBox="0 0 32 32" fill="none" xmlns="http://www.w3.org/2000/svg">
<path d="M31.2094 16.1063C31.2094 16.1063 25.5008 5.64062 15.9865 5.64062C6.47224 5.64062 0.763672 16.1063 0.763672 16.1063C0.763672 16.1063 6.47224 26.572 15.9865 26.572C25.5008 26.572 31.2094 16.1063 31.2094 16.1063ZM2.99572 16.1063C3.91578 14.708 4.97401 13.4056 6.15446 12.2188C8.60343 9.76601 11.9525 7.54348 15.9865 7.54348C20.0206 7.54348 23.3677 9.76601 25.8205 12.2188C27.0009 13.4056 28.0591 14.708 28.9792 16.1063C28.8688 16.2719 28.7471 16.4545 28.6081 16.6543C27.9707 17.5677 27.0288 18.7855 25.8205 19.9939C23.3677 22.4466 20.0187 24.6692 15.9865 24.6692C11.9525 24.6692 8.60534 22.4466 6.15256 19.9939C4.97211 18.8071 3.91389 17.5047 2.99382 16.1063H2.99572Z" fill="white"/>
<path d="M15.9871 11.3482C14.7255 11.3482 13.5155 11.8494 12.6233 12.7415C11.7312 13.6336 11.23 14.8436 11.23 16.1053C11.23 17.367 11.7312 18.577 12.6233 19.4691C13.5155 20.3612 14.7255 20.8624 15.9871 20.8624C17.2488 20.8624 18.4588 20.3612 19.3509 19.4691C20.2431 18.577 20.7443 17.367 20.7443 16.1053C20.7443 14.8436 20.2431 13.6336 19.3509 12.7415C18.4588 11.8494 17.2488 11.3482 15.9871 11.3482ZM9.32715 16.1053C9.32715 14.339 10.0288 12.645 11.2778 11.396C12.5268 10.147 14.2208 9.44531 15.9871 9.44531C17.7535 9.44531 19.4475 10.147 20.6965 11.396C21.9455 12.645 22.6471 14.339 22.6471 16.1053C22.6471 17.8716 21.9455 19.5656 20.6965 20.8146C19.4475 22.0636 17.7535 22.7653 15.9871 22.7653C14.2208 22.7653 12.5268 22.0636 11.2778 20.8146C10.0288 19.5656 9.32715 17.8716 9.32715 16.1053Z" fill="white"/>
</svg>
