<svg width="21" height="20" viewBox="0 0 21 20" fill="none" xmlns="http://www.w3.org/2000/svg">
<path d="M10.8625 5C11.0268 5 11.1843 5.06525 11.3004 5.18139C11.4166 5.29753 11.4818 5.45504 11.4818 5.61929V9.33503H15.1975C15.3618 9.33503 15.5193 9.40027 15.6354 9.51641C15.7516 9.63255 15.8168 9.79007 15.8168 9.95432C15.8168 10.1186 15.7516 10.2761 15.6354 10.3922C15.5193 10.5084 15.3618 10.5736 15.1975 10.5736H11.4818V14.2893C11.4818 14.4536 11.4166 14.6111 11.3004 14.7272C11.1843 14.8434 11.0268 14.9086 10.8625 14.9086C10.6983 14.9086 10.5408 14.8434 10.4246 14.7272C10.3085 14.6111 10.2432 14.4536 10.2432 14.2893V10.5736H6.52749C6.36325 10.5736 6.20573 10.5084 6.08959 10.3922C5.97345 10.2761 5.9082 10.1186 5.9082 9.95432C5.9082 9.79007 5.97345 9.63255 6.08959 9.51641C6.20573 9.40027 6.36325 9.33503 6.52749 9.33503H10.2432V5.61929C10.2432 5.45504 10.3085 5.29753 10.4246 5.18139C10.5408 5.06525 10.6983 5 10.8625 5Z" fill="#363330"/>
</svg>
