<svg width="21" height="21" viewBox="0 0 21 21" fill="none" xmlns="http://www.w3.org/2000/svg">
<path d="M10.5881 5.42969C10.7523 5.42969 10.9099 5.49493 11.026 5.61107C11.1421 5.72721 11.2074 5.88473 11.2074 6.04898V9.76471H14.9231C15.0874 9.76471 15.2449 9.82996 15.361 9.9461C15.4772 10.0622 15.5424 10.2198 15.5424 10.384C15.5424 10.5482 15.4772 10.7058 15.361 10.8219C15.2449 10.938 15.0874 11.0033 14.9231 11.0033H11.2074V14.719C11.2074 14.8833 11.1421 15.0408 11.026 15.1569C10.9099 15.2731 10.7523 15.3383 10.5881 15.3383C10.4239 15.3383 10.2663 15.2731 10.1502 15.1569C10.0341 15.0408 9.96881 14.8833 9.96881 14.719V11.0033H6.25308C6.08883 11.0033 5.93131 10.938 5.81517 10.8219C5.69904 10.7058 5.63379 10.5482 5.63379 10.384C5.63379 10.2198 5.69904 10.0622 5.81517 9.9461C5.93131 9.82996 6.08883 9.76471 6.25308 9.76471H9.96881V6.04898C9.96881 5.88473 10.0341 5.72721 10.1502 5.61107C10.2663 5.49493 10.4239 5.42969 10.5881 5.42969Z" fill="#363330"/>
</svg>
