<svg width="21" height="21" viewBox="0 0 21 21" fill="none" xmlns="http://www.w3.org/2000/svg">
<path d="M10.3147 5.42969C10.4789 5.42969 10.6364 5.49493 10.7526 5.61107C10.8687 5.72721 10.934 5.88473 10.934 6.04898V9.76471H14.6497C14.8139 9.76471 14.9715 9.82996 15.0876 9.9461C15.2037 10.0622 15.269 10.2198 15.269 10.384C15.269 10.5482 15.2037 10.7058 15.0876 10.8219C14.9715 10.938 14.8139 11.0033 14.6497 11.0033H10.934V14.719C10.934 14.8833 10.8687 15.0408 10.7526 15.1569C10.6364 15.2731 10.4789 15.3383 10.3147 15.3383C10.1504 15.3383 9.9929 15.2731 9.87676 15.1569C9.76062 15.0408 9.69538 14.8833 9.69538 14.719V11.0033H5.97964C5.8154 11.0033 5.65788 10.938 5.54174 10.8219C5.4256 10.7058 5.36035 10.5482 5.36035 10.384C5.36035 10.2198 5.4256 10.0622 5.54174 9.9461C5.65788 9.82996 5.8154 9.76471 5.97964 9.76471H9.69538V6.04898C9.69538 5.88473 9.76062 5.72721 9.87676 5.61107C9.9929 5.49493 10.1504 5.42969 10.3147 5.42969Z" fill="#363330"/>
</svg>
