<svg width="15" height="14" viewBox="0 0 15 14" fill="none" xmlns="http://www.w3.org/2000/svg">
<path d="M8.33375 4.91036C8.33375 4.79894 8.28949 4.69208 8.2107 4.61329C8.13191 4.5345 8.02505 4.49023 7.91362 4.49023C7.8022 4.49023 7.69534 4.5345 7.61655 4.61329C7.53776 4.69208 7.4935 4.79894 7.4935 4.91036V6.17074H6.23312C6.12169 6.17074 6.01483 6.21501 5.93604 6.2938C5.85725 6.37258 5.81299 6.47945 5.81299 6.59087C5.81299 6.70229 5.85725 6.80916 5.93604 6.88794C6.01483 6.96673 6.12169 7.011 6.23312 7.011H7.4935V8.27138C7.4935 8.3828 7.53776 8.48966 7.61655 8.56845C7.69534 8.64724 7.8022 8.69151 7.91362 8.69151C8.02505 8.69151 8.13191 8.64724 8.2107 8.56845C8.28949 8.48966 8.33375 8.3828 8.33375 8.27138V7.011H9.59413C9.70556 7.011 9.81242 6.96673 9.89121 6.88794C9.97 6.80916 10.0143 6.70229 10.0143 6.59087C10.0143 6.47945 9.97 6.37258 9.89121 6.2938C9.81242 6.21501 9.70556 6.17074 9.59413 6.17074H8.33375V4.91036Z" fill="#363330"/>
<path d="M1.19161 1.12939C1.08019 1.12939 0.973326 1.17366 0.894537 1.25245C0.815748 1.33124 0.771484 1.4381 0.771484 1.54952C0.771484 1.66095 0.815748 1.76781 0.894537 1.8466C0.973326 1.92539 1.08019 1.96965 1.19161 1.96965H2.12429L2.46124 3.31994L3.71994 10.0294C3.73796 10.1256 3.78905 10.2126 3.86439 10.2752C3.93972 10.3378 4.03455 10.3721 4.1325 10.3722H4.97276C4.52706 10.3722 4.09961 10.5492 3.78446 10.8644C3.4693 11.1796 3.29225 11.607 3.29225 12.0527C3.29225 12.4984 3.4693 12.9258 3.78446 13.241C4.09961 13.5562 4.52706 13.7332 4.97276 13.7332C5.41845 13.7332 5.8459 13.5562 6.16105 13.241C6.47621 12.9258 6.65326 12.4984 6.65326 12.0527C6.65326 11.607 6.47621 11.1796 6.16105 10.8644C5.8459 10.5492 5.41845 10.3722 4.97276 10.3722H10.8545C10.4088 10.3722 9.98139 10.5492 9.66624 10.8644C9.35108 11.1796 9.17403 11.607 9.17403 12.0527C9.17403 12.4984 9.35108 12.9258 9.66624 13.241C9.98139 13.5562 10.4088 13.7332 10.8545 13.7332C11.3002 13.7332 11.7277 13.5562 12.0428 13.241C12.358 12.9258 12.535 12.4984 12.535 12.0527C12.535 11.607 12.358 11.1796 12.0428 10.8644C11.7277 10.5492 11.3002 10.3722 10.8545 10.3722H11.6948C11.7927 10.3721 11.8876 10.3378 11.9629 10.2752C12.0382 10.2126 12.0893 10.1256 12.1074 10.0294L13.3677 3.30733C13.3791 3.2467 13.3769 3.18431 13.3615 3.12459C13.346 3.06488 13.3175 3.00931 13.2782 2.96182C13.2388 2.91434 13.1894 2.87611 13.1336 2.84986C13.0778 2.8236 13.0169 2.80996 12.9552 2.8099H3.19982L2.85952 1.44785C2.83684 1.35692 2.78441 1.27619 2.71057 1.21848C2.63672 1.16078 2.54571 1.12942 2.45199 1.12939H1.19161ZM4.48121 9.53194L3.37795 3.65016H12.4493L11.3461 9.53194H4.48121ZM5.81301 12.0527C5.81301 12.2755 5.72448 12.4893 5.56691 12.6468C5.40933 12.8044 5.1956 12.893 4.97276 12.893C4.74991 12.893 4.53618 12.8044 4.37861 12.6468C4.22103 12.4893 4.1325 12.2755 4.1325 12.0527C4.1325 11.8298 4.22103 11.6161 4.37861 11.4585C4.53618 11.301 4.74991 11.2124 4.97276 11.2124C5.1956 11.2124 5.40933 11.301 5.56691 11.4585C5.72448 11.6161 5.81301 11.8298 5.81301 12.0527ZM11.6948 12.0527C11.6948 12.2755 11.6063 12.4893 11.4487 12.6468C11.2911 12.8044 11.0774 12.893 10.8545 12.893C10.6317 12.893 10.418 12.8044 10.2604 12.6468C10.1028 12.4893 10.0143 12.2755 10.0143 12.0527C10.0143 11.8298 10.1028 11.6161 10.2604 11.4585C10.418 11.301 10.6317 11.2124 10.8545 11.2124C11.0774 11.2124 11.2911 11.301 11.4487 11.4585C11.6063 11.6161 11.6948 11.8298 11.6948 12.0527Z" fill="#363330"/>
</svg>
