<svg width="14" height="15" viewBox="0 0 14 15" fill="none" xmlns="http://www.w3.org/2000/svg">
<path d="M7.90357 5.46505C7.90357 5.35362 7.85931 5.24676 7.78052 5.16797C7.70173 5.08919 7.59487 5.04492 7.48345 5.04492C7.37202 5.04492 7.26516 5.08919 7.18637 5.16797C7.10758 5.24676 7.06332 5.35362 7.06332 5.46505V6.72543H5.80294C5.69151 6.72543 5.58465 6.76969 5.50586 6.84848C5.42708 6.92727 5.38281 7.03413 5.38281 7.14556C5.38281 7.25698 5.42708 7.36384 5.50586 7.44263C5.58465 7.52142 5.69151 7.56568 5.80294 7.56568H7.06332V8.82607C7.06332 8.93749 7.10758 9.04435 7.18637 9.12314C7.26516 9.20193 7.37202 9.24619 7.48345 9.24619C7.59487 9.24619 7.70173 9.20193 7.78052 9.12314C7.85931 9.04435 7.90357 8.93749 7.90357 8.82607V7.56568H9.16396C9.27538 7.56568 9.38224 7.52142 9.46103 7.44263C9.53982 7.36384 9.58408 7.25698 9.58408 7.14556C9.58408 7.03413 9.53982 6.92727 9.46103 6.84848C9.38224 6.76969 9.27538 6.72543 9.16396 6.72543H7.90357V5.46505Z" fill="#363330"/>
<path d="M0.761436 1.68408C0.650011 1.68408 0.54315 1.72835 0.464361 1.80713C0.385572 1.88592 0.341309 1.99278 0.341309 2.10421C0.341309 2.21563 0.385572 2.32249 0.464361 2.40128C0.54315 2.48007 0.650011 2.52434 0.761436 2.52434H1.69412L2.03106 3.87462L3.28976 10.5841C3.30778 10.6803 3.35888 10.7673 3.43421 10.8299C3.50954 10.8925 3.60438 10.9268 3.70233 10.9269H4.54258C4.09688 10.9269 3.66944 11.1039 3.35428 11.4191C3.03912 11.7342 2.86207 12.1617 2.86207 12.6074C2.86207 13.0531 3.03912 13.4805 3.35428 13.7957C3.66944 14.1108 4.09688 14.2879 4.54258 14.2879C4.98828 14.2879 5.41572 14.1108 5.73088 13.7957C6.04604 13.4805 6.22309 13.0531 6.22309 12.6074C6.22309 12.1617 6.04604 11.7342 5.73088 11.4191C5.41572 11.1039 4.98828 10.9269 4.54258 10.9269H10.4244C9.97866 10.9269 9.55122 11.1039 9.23606 11.4191C8.9209 11.7342 8.74385 12.1617 8.74385 12.6074C8.74385 13.0531 8.9209 13.4805 9.23606 13.7957C9.55122 14.1108 9.97866 14.2879 10.4244 14.2879C10.8701 14.2879 11.2975 14.1108 11.6127 13.7957C11.9278 13.4805 12.1049 13.0531 12.1049 12.6074C12.1049 12.1617 11.9278 11.7342 11.6127 11.4191C11.2975 11.1039 10.8701 10.9269 10.4244 10.9269H11.2646C11.3626 10.9268 11.4574 10.8925 11.5327 10.8299C11.6081 10.7673 11.6592 10.6803 11.6772 10.5841L12.9376 3.86202C12.9489 3.80139 12.9468 3.73899 12.9313 3.67928C12.9158 3.61957 12.8874 3.56399 12.848 3.51651C12.8086 3.46903 12.7592 3.4308 12.7034 3.40455C12.6476 3.37829 12.5867 3.36465 12.525 3.36459H2.76964L2.42934 2.00254C2.40666 1.91161 2.35423 1.83087 2.28039 1.77317C2.20655 1.71547 2.11553 1.68411 2.02182 1.68408H0.761436ZM4.05103 10.0866L2.94778 4.20484H12.0192L10.9159 10.0866H4.05103ZM5.38283 12.6074C5.38283 12.8302 5.29431 13.044 5.13673 13.2015C4.97915 13.3591 4.76543 13.4476 4.54258 13.4476C4.31973 13.4476 4.10601 13.3591 3.94843 13.2015C3.79085 13.044 3.70233 12.8302 3.70233 12.6074C3.70233 12.3845 3.79085 12.1708 3.94843 12.0132C4.10601 11.8557 4.31973 11.7671 4.54258 11.7671C4.76543 11.7671 4.97915 11.8557 5.13673 12.0132C5.29431 12.1708 5.38283 12.3845 5.38283 12.6074ZM11.2646 12.6074C11.2646 12.8302 11.1761 13.044 11.0185 13.2015C10.8609 13.3591 10.6472 13.4476 10.4244 13.4476C10.2015 13.4476 9.98779 13.3591 9.83021 13.2015C9.67263 13.044 9.58411 12.8302 9.58411 12.6074C9.58411 12.3845 9.67263 12.1708 9.83021 12.0132C9.98779 11.8557 10.2015 11.7671 10.4244 11.7671C10.6472 11.7671 10.8609 11.8557 11.0185 12.0132C11.1761 12.1708 11.2646 12.3845 11.2646 12.6074Z" fill="#363330"/>
</svg>
