<svg width="14" height="14" viewBox="0 0 14 14" fill="none" xmlns="http://www.w3.org/2000/svg">
<path d="M7.84742 4.75655C7.84742 4.64513 7.80316 4.53827 7.72437 4.45948C7.64558 4.38069 7.53872 4.33643 7.4273 4.33643C7.31587 4.33643 7.20901 4.38069 7.13022 4.45948C7.05143 4.53827 7.00717 4.64513 7.00717 4.75655V6.01693H5.74679C5.63536 6.01693 5.5285 6.0612 5.44971 6.13999C5.37092 6.21878 5.32666 6.32564 5.32666 6.43706C5.32666 6.54849 5.37092 6.65535 5.44971 6.73414C5.5285 6.81293 5.63536 6.85719 5.74679 6.85719H7.00717V8.11757C7.00717 8.22899 7.05143 8.33586 7.13022 8.41464C7.20901 8.49343 7.31587 8.5377 7.4273 8.5377C7.53872 8.5377 7.64558 8.49343 7.72437 8.41464C7.80316 8.33586 7.84742 8.22899 7.84742 8.11757V6.85719H9.1078C9.21923 6.85719 9.32609 6.81293 9.40488 6.73414C9.48367 6.65535 9.52793 6.54849 9.52793 6.43706C9.52793 6.32564 9.48367 6.21878 9.40488 6.13999C9.32609 6.0612 9.21923 6.01693 9.1078 6.01693H7.84742V4.75655Z" fill="#363330"/>
<path d="M0.705283 0.975586C0.593859 0.975586 0.486998 1.01985 0.408209 1.09864C0.32942 1.17743 0.285156 1.28429 0.285156 1.39571C0.285156 1.50714 0.32942 1.614 0.408209 1.69279C0.486998 1.77158 0.593859 1.81584 0.705283 1.81584H1.63797L1.97491 3.16613L3.23361 9.87556C3.25163 9.97183 3.30272 10.0588 3.37806 10.1214C3.45339 10.184 3.54823 10.2183 3.64617 10.2184H4.48643C4.04073 10.2184 3.61328 10.3954 3.29813 10.7106C2.98297 11.0257 2.80592 11.4532 2.80592 11.8989C2.80592 12.3446 2.98297 12.772 3.29813 13.0872C3.61328 13.4023 4.04073 13.5794 4.48643 13.5794C4.93213 13.5794 5.35957 13.4023 5.67473 13.0872C5.98988 12.772 6.16694 12.3446 6.16694 11.8989C6.16694 11.4532 5.98988 11.0257 5.67473 10.7106C5.35957 10.3954 4.93213 10.2184 4.48643 10.2184H10.3682C9.92251 10.2184 9.49506 10.3954 9.17991 10.7106C8.86475 11.0257 8.6877 11.4532 8.6877 11.8989C8.6877 12.3446 8.86475 12.772 9.17991 13.0872C9.49506 13.4023 9.92251 13.5794 10.3682 13.5794C10.8139 13.5794 11.2413 13.4023 11.5565 13.0872C11.8717 12.772 12.0487 12.3446 12.0487 11.8989C12.0487 11.4532 11.8717 11.0257 11.5565 10.7106C11.2413 10.3954 10.8139 10.2184 10.3682 10.2184H11.2085C11.3064 10.2183 11.4012 10.184 11.4766 10.1214C11.5519 10.0588 11.603 9.97183 11.621 9.87556L12.8814 3.15352C12.8928 3.09289 12.8906 3.0305 12.8751 2.97078C12.8597 2.91107 12.8312 2.8555 12.7918 2.80802C12.7524 2.76053 12.7031 2.72231 12.6473 2.69605C12.5915 2.66979 12.5305 2.65615 12.4688 2.65609H2.71349L2.37319 1.29404C2.35051 1.20311 2.29808 1.12238 2.22424 1.06467C2.15039 1.00697 2.05938 0.975612 1.96566 0.975586H0.705283ZM3.99488 9.37813L2.89162 3.49635H11.963L10.8598 9.37813H3.99488ZM5.32668 11.8989C5.32668 12.1217 5.23815 12.3355 5.08058 12.493C4.923 12.6506 4.70928 12.7391 4.48643 12.7391C4.26358 12.7391 4.04986 12.6506 3.89228 12.493C3.7347 12.3355 3.64617 12.1217 3.64617 11.8989C3.64617 11.676 3.7347 11.4623 3.89228 11.3047C4.04986 11.1472 4.26358 11.0586 4.48643 11.0586C4.70928 11.0586 4.923 11.1472 5.08058 11.3047C5.23815 11.4623 5.32668 11.676 5.32668 11.8989ZM11.2085 11.8989C11.2085 12.1217 11.1199 12.3355 10.9624 12.493C10.8048 12.6506 10.5911 12.7391 10.3682 12.7391C10.1454 12.7391 9.93164 12.6506 9.77406 12.493C9.61648 12.3355 9.52795 12.1217 9.52795 11.8989C9.52795 11.676 9.61648 11.4623 9.77406 11.3047C9.93164 11.1472 10.1454 11.0586 10.3682 11.0586C10.5911 11.0586 10.8048 11.1472 10.9624 11.3047C11.1199 11.4623 11.2085 11.676 11.2085 11.8989Z" fill="#363330"/>
</svg>
