<svg width="31" height="34" viewBox="0 0 31 34" fill="none" xmlns="http://www.w3.org/2000/svg">
<path d="M27.5412 29.0876C27.3048 28.314 26.9825 27.4545 26.5957 26.5949C26.2089 25.7353 25.7576 24.8543 25.2634 23.9733C25.1989 24.0807 25.1344 24.2096 25.0485 24.3171C24.984 24.4245 24.8981 24.5535 24.8336 24.6609C24.7476 24.7683 24.6832 24.8758 24.5972 24.9832C24.5113 25.0907 24.4253 25.1981 24.3394 25.3056L24.3179 25.3271L24.2964 25.3485L24.2749 25.37L24.2534 25.3915L24.1674 25.4775C24.2319 25.6709 24.3179 25.9073 24.4253 26.1651C24.5113 26.423 24.6187 26.7023 24.7047 26.9602C24.7906 27.2181 24.8551 27.4759 24.8766 27.6693C24.8981 27.8627 24.8981 28.0347 24.8121 28.0991C24.7906 28.1206 24.7691 28.1421 24.7262 28.1636C24.7047 28.1851 24.6617 28.2066 24.6187 28.2066C24.5757 28.2281 24.5542 28.2281 24.5113 28.2281C24.4683 28.2281 24.4253 28.2281 24.3823 28.2281C24.3179 28.2281 24.2319 28.2066 24.146 28.2066C24.06 28.1851 23.974 28.1636 23.8881 28.1421C23.8021 28.1206 23.6947 28.0776 23.6087 28.0347C23.5013 27.9917 23.3938 27.9487 23.2864 27.9057C23.1575 27.8413 23.007 27.7768 22.8566 27.6908C22.7062 27.6049 22.5558 27.5189 22.4054 27.433C22.2549 27.347 22.083 27.2611 21.9326 27.1536C21.7607 27.0462 21.6103 26.9602 21.4384 26.8528C22.083 26.2081 22.7062 25.499 23.2649 24.7683C23.8236 24.0162 24.3394 23.2426 24.7906 22.4261C25.2419 21.6095 25.6287 20.7714 25.951 19.8904C26.2734 19.0308 26.5312 18.1283 26.7031 17.2257C27.1114 15.1843 27.0899 13.2718 26.7031 11.5742C26.3378 9.89803 25.6287 8.4153 24.6402 7.23341C23.6732 6.05152 22.4483 5.14899 21.0301 4.56879C19.6333 3.98859 18.0216 3.75221 16.3025 3.85965C15.1636 3.94561 14.0247 4.18199 12.9288 4.5473C11.8328 4.91261 10.7799 5.40685 9.76988 6.00854C8.75991 6.61023 7.79291 7.31937 6.91186 8.13594C6.00933 8.93103 5.19275 9.83357 4.44064 10.8006C4.24724 10.4353 4.07533 10.0699 3.94639 9.7691C3.81746 9.44677 3.71002 9.16741 3.66704 8.90954C3.60257 8.65168 3.58108 8.43679 3.60257 8.24339C3.62406 8.04999 3.68853 7.89957 3.77448 7.79212C3.79597 7.74914 3.83895 7.72766 3.90342 7.68468C3.94639 7.6417 4.01086 7.62021 4.07533 7.59872C4.13979 7.57723 4.22575 7.55574 4.31171 7.53426C4.39766 7.51277 4.48362 7.51277 4.56957 7.49128C4.67702 7.49128 4.78446 7.49128 4.89191 7.51277C4.99935 7.53426 5.10679 7.55574 5.23573 7.59872C5.34317 7.6417 5.47211 7.68468 5.57955 7.77063C5.68699 7.8351 5.81593 7.92106 5.92337 8.0285C6.03082 7.89957 6.15975 7.77063 6.26719 7.6417C6.39613 7.51277 6.50357 7.40532 6.63251 7.27639C6.76144 7.16894 6.89037 7.04001 7.01931 6.93257C7.14824 6.82512 7.29866 6.71768 7.44908 6.61023C7.47057 6.61023 7.47057 6.58874 7.49206 6.58874C7.51355 6.58874 7.51355 6.56725 7.53504 6.56725C7.55653 6.56725 7.55653 6.54577 7.57802 6.54577C7.59951 6.54577 7.59951 6.52428 7.621 6.52428C7.36313 6.2879 7.08377 6.0945 6.80442 5.94408C6.52506 5.79365 6.22422 5.66472 5.92337 5.57877C5.62253 5.49281 5.32168 5.42834 5.02084 5.40685C4.71999 5.38537 4.44064 5.36388 4.16128 5.38537C3.96788 5.40685 3.79597 5.42834 3.62406 5.44983C3.45215 5.49281 3.30173 5.53579 3.1513 5.57877C3.00088 5.62174 2.87195 5.68621 2.7645 5.77217C2.65706 5.83663 2.54962 5.92259 2.48515 6.00854C2.24877 6.26641 2.11984 6.58874 2.05537 6.97554C1.9909 7.36234 2.01239 7.8351 2.11984 8.35083C2.22728 8.86657 2.39919 9.44677 2.63557 10.0914C2.89344 10.7146 3.19428 11.4023 3.60257 12.1329C3.34471 12.5412 3.08684 12.9495 2.85046 13.3792C2.61408 13.809 2.39919 14.2388 2.20579 14.6901C2.01239 15.1413 1.81899 15.5926 1.66857 16.0653C1.49666 16.5381 1.36773 17.0109 1.23879 17.4836C0.766038 19.3102 0.615616 21.0723 0.766038 22.7054C0.91646 24.3601 1.38922 25.8643 2.14133 27.1751C2.89344 28.5074 3.94639 29.6033 5.23573 30.4199C6.54655 31.2365 8.11524 31.7522 9.89882 31.8597C10.436 31.8812 10.9518 31.8812 11.489 31.8382C12.0262 31.7952 12.5634 31.7307 13.1007 31.6233C13.6379 31.5159 14.1751 31.3654 14.7123 31.1935C15.2496 31.0216 15.7653 30.8067 16.3025 30.5703L15.0347 28.1851C14.6694 28.3355 14.304 28.4644 13.9172 28.5719C13.5519 28.6793 13.1651 28.7653 12.7998 28.8297C12.4345 28.8942 12.0477 28.9372 11.6824 28.9802C11.3171 29.0017 10.9303 29.0017 10.565 29.0017C9.12522 28.9372 7.85737 28.5504 6.80442 27.9057C5.75146 27.2611 4.89191 26.38 4.26873 25.3271C3.64555 24.2741 3.25875 23.0492 3.10833 21.7169C2.95791 20.4061 3.06535 18.9663 3.45215 17.4836C3.83895 16.0009 4.46213 14.6041 5.25722 13.3148C6.05231 12.0469 7.04079 10.8865 8.13673 9.89803C9.23266 8.90954 10.4575 8.09297 11.7469 7.49128C13.0577 6.88959 14.433 6.52428 15.8083 6.43832C17.205 6.35237 18.4944 6.58874 19.6333 7.0615C20.7722 7.55574 21.7607 8.30786 22.5128 9.25337C23.2864 10.2204 23.8451 11.4237 24.1245 12.7775C24.4038 14.1528 24.4038 15.6785 24.0815 17.3117C23.9311 18.0208 23.7377 18.73 23.4798 19.4176C23.2219 20.1053 22.9211 20.7714 22.5558 21.4161C22.212 22.0607 21.8037 22.6839 21.3524 23.2641C20.9226 23.8443 20.4284 24.403 19.9341 24.9188C19.9341 24.7469 19.9556 24.5749 19.9556 24.3815C19.9556 24.2096 19.9771 24.0162 19.9771 23.8658C19.9771 23.6939 19.9986 23.5435 19.9986 23.4145C19.9986 23.2856 19.9986 23.1782 19.9986 23.1137C19.9986 23.0492 19.9986 22.9848 19.9771 22.9418C19.9556 22.8988 19.9556 22.8558 19.9341 22.8343C19.9126 22.8129 19.8912 22.7914 19.8697 22.7914C19.8482 22.7699 19.8052 22.7699 19.7837 22.7699C19.7622 22.7699 19.7407 22.7699 19.7192 22.7699C19.6978 22.7699 19.6763 22.7699 19.6548 22.7914C19.6333 22.7914 19.6333 22.8129 19.6118 22.8129H19.5903L15.1636 24.2526C15.1636 24.2526 15.1206 24.2741 15.0776 24.2956C15.0347 24.3171 14.9702 24.3601 14.9272 24.403C14.8842 24.4675 14.8413 24.532 14.8198 24.6179C14.8198 24.7039 14.8413 24.8328 14.9057 24.9832C14.9057 24.9832 14.9057 25.0047 14.9272 25.0047C14.9272 25.0047 14.9272 25.0262 14.9487 25.0262C14.9487 25.0262 14.9487 25.0477 14.9702 25.0477C14.9702 25.0477 14.9702 25.0692 14.9917 25.0692C15.1851 25.4775 15.4644 26.0147 15.8083 26.6164C16.1306 27.2396 16.4959 27.9272 16.8612 28.5934C17.2265 29.281 17.5918 29.9472 17.9142 30.5274C18.2365 31.1076 18.4944 31.6018 18.6663 31.9027C18.6878 31.9241 18.6878 31.9456 18.7093 31.9886C18.7308 32.0101 18.7308 32.0316 18.7522 32.0531C18.7737 32.0746 18.7737 32.0961 18.7737 32.1175C18.7737 32.139 18.7952 32.1605 18.7952 32.1605C18.8382 32.2465 18.8812 32.3109 18.9242 32.3539C18.9671 32.4184 19.0101 32.4614 19.0316 32.4829C19.0746 32.5258 19.0961 32.5473 19.139 32.5688C19.182 32.5903 19.2035 32.5903 19.225 32.5903C19.2895 32.5903 19.3324 32.5688 19.3754 32.5473C19.4184 32.5258 19.4614 32.4614 19.4829 32.4184C19.5044 32.3754 19.5473 32.3109 19.5688 32.268C19.5903 32.225 19.5903 32.1605 19.6118 32.1175C19.6118 32.0961 19.6118 32.0961 19.6118 32.0746C19.6118 32.0531 19.6118 32.0316 19.6118 31.9886C19.6118 31.9671 19.6118 31.9241 19.6118 31.9027C19.6118 31.8597 19.6118 31.8382 19.6118 31.7952C19.6118 31.6448 19.6333 31.4729 19.6333 31.301C19.6333 31.1291 19.6548 30.9357 19.6548 30.7637C19.6548 30.5918 19.6763 30.4414 19.6763 30.334C19.6763 30.2265 19.6978 30.1406 19.6978 30.1406C20.2994 30.5059 20.9226 30.8497 21.5028 31.1935C22.1045 31.5159 22.6847 31.8382 23.2649 32.0961C23.8236 32.3539 24.3823 32.5903 24.8766 32.7407C25.3708 32.9126 25.8436 32.9986 26.2304 33.0416C26.2948 33.0416 26.3378 33.0416 26.4023 33.0416C26.4453 33.0416 26.5097 33.0416 26.5527 33.0416C26.5957 33.0416 26.6602 33.0416 26.7031 33.0201C26.7461 33.0201 26.7891 32.9986 26.8536 32.9986C26.918 32.9771 26.9825 32.9771 27.047 32.9556C27.1114 32.9341 27.1759 32.9126 27.2404 32.8697C27.3048 32.8482 27.3478 32.8052 27.4123 32.7622C27.4552 32.7192 27.5197 32.6763 27.5627 32.6333C27.842 32.3324 27.971 31.8597 27.971 31.258C27.971 30.6778 27.8206 29.9687 27.6057 29.1736L27.5412 29.0876Z" fill="#929392"/>
<path d="M11.5318 13.9813C11.8541 13.9813 12.0905 14.0672 12.2839 14.2392C12.4773 14.4111 12.5632 14.6474 12.5632 14.9698C12.5632 15.2921 12.4558 15.55 12.2624 15.7219C12.0475 15.8938 11.7896 16.0012 11.4458 16.0012C10.6722 16.0012 10.2854 15.6574 10.2854 14.9913H9.14648V15.0772C9.14648 15.7004 9.36137 16.1732 9.76966 16.4955C10.178 16.8393 10.7367 16.9897 11.4458 16.9897C12.0905 16.9897 12.6277 16.8178 13.079 16.4525C13.5302 16.1087 13.7451 15.593 13.7451 14.9698C13.7451 14.7549 13.7021 14.54 13.6377 14.3466C13.5732 14.1532 13.4872 14.0028 13.4228 13.8953C13.3368 13.7879 13.2509 13.6804 13.1434 13.616C13.036 13.53 12.95 13.487 12.907 13.4656C12.8641 13.4441 12.8211 13.4226 12.7996 13.4226L12.8856 13.3796C12.95 13.3581 13.0145 13.2936 13.1004 13.2077C13.1864 13.1217 13.2724 13.0358 13.3368 12.9283C13.4228 12.8209 13.4872 12.6705 13.5517 12.4986C13.6162 12.3266 13.6377 12.1332 13.6377 11.9398C13.6377 11.3596 13.4443 10.9084 13.0575 10.586C12.6707 10.2637 12.1334 10.0918 11.4673 10.0918C10.8011 10.0918 10.2854 10.2422 9.87711 10.586C9.46882 10.9084 9.27542 11.3596 9.27542 11.9398V12.0043H10.3928C10.3928 11.682 10.5003 11.4456 10.6722 11.2952C10.8656 11.1448 11.1235 11.0588 11.4673 11.0588C11.8111 11.0588 12.0905 11.1448 12.2624 11.2952C12.4343 11.4671 12.5417 11.682 12.5417 11.9613C12.5417 12.2622 12.4558 12.52 12.2624 12.692C12.069 12.8639 11.8326 12.9498 11.5318 12.9498H10.3928V13.9383L11.5962 13.9598L11.5318 13.9813ZM19.1603 16.9038V15.8508H16.4097L17.9999 14.2821C18.4297 13.8738 18.7305 13.487 18.9024 13.1432C19.0744 12.7994 19.1603 12.4341 19.1603 12.0688C19.1603 11.4671 18.9669 10.9728 18.6016 10.6505C18.2148 10.3067 17.6991 10.1348 17.0114 10.1348C16.3238 10.1348 15.7866 10.3067 15.3783 10.6505C14.97 10.9943 14.7766 11.4671 14.7766 12.0903V12.1547H15.9155C15.9155 11.4886 16.2593 11.1448 16.9899 11.1448C17.6776 11.1448 18.0214 11.4671 18.0214 12.1118C18.0214 12.3696 17.9569 12.606 17.8495 12.8424C17.742 13.0788 17.5272 13.3366 17.2478 13.616L14.927 15.8723V16.9253H19.2033L19.1603 16.9038Z" fill="#929392"/>
<path d="M10.6512 22.5553V17.5054H9.81318V21.3519L7.81472 17.5054H6.56836V22.5553H7.40643V18.7302L9.42638 22.5553H10.6512ZM12.4133 22.0825C12.4133 21.9536 12.3704 21.8676 12.2844 21.7817C12.1984 21.7172 12.091 21.6742 11.9406 21.6742C11.8116 21.6742 11.7042 21.7172 11.6182 21.7817C11.5323 21.8461 11.4893 21.9536 11.4893 22.0825V22.2329C11.4893 22.3619 11.5323 22.4478 11.6182 22.5338C11.7042 22.5982 11.8116 22.6412 11.9621 22.6412C12.1125 22.6412 12.2199 22.5982 12.3059 22.5338C12.3918 22.4693 12.4348 22.3619 12.4348 22.2329L12.4133 22.0825ZM16.2169 21.2015H15.4218C15.4218 21.6742 15.1639 21.9106 14.6697 21.9106C14.1754 21.9106 13.939 21.6527 13.939 21.1585V20.4064C13.939 19.8906 14.1754 19.6543 14.6697 19.6543C15.1639 19.6543 15.4218 19.8906 15.4218 20.3634H16.2169V20.2989C16.2169 19.8691 16.0879 19.5253 15.8086 19.2889C15.5292 19.0526 15.1639 18.9236 14.6912 18.9236C14.2184 18.9236 13.8531 19.0526 13.5737 19.2889C13.2944 19.5468 13.144 19.8906 13.144 20.3204V21.2015C13.144 21.6312 13.2944 21.9751 13.5737 22.2329C13.8531 22.4693 14.2184 22.5982 14.6912 22.5982C15.1639 22.5982 15.5507 22.4908 15.8301 22.2544C16.1094 22.018 16.2599 21.6742 16.2599 21.2444L16.2384 21.2015H16.2169ZM21.8899 22.5553V20.0411C21.8899 19.6972 21.804 19.4394 21.6321 19.246C21.4602 19.0526 21.2023 18.9666 20.9015 18.9666C20.6221 18.9666 20.3427 19.0526 20.0849 19.203L19.6981 19.4394C19.5477 19.117 19.2683 18.9666 18.86 18.9666C18.6021 18.9666 18.3443 19.0311 18.1079 19.1815L17.7856 19.3749V19.0096H16.969V22.5768H17.7856V20.127L18.2153 19.8692C18.3873 19.7832 18.5377 19.7402 18.6451 19.7402C18.903 19.7402 19.0104 19.8906 19.0104 20.1915V22.5982H19.827V20.1485L20.2568 19.8906C20.4287 19.8047 20.5791 19.7402 20.6866 19.7402C20.9444 19.7402 21.0734 19.8906 21.0734 20.17V22.5982H21.8899V22.5553Z" fill="#929392"/>
<path d="M24.1673 13.0573C27.5626 13.0573 30.3346 10.3067 30.3346 6.88997C30.3346 3.47323 27.584 0.722656 24.1673 0.722656C20.7506 0.722656 18 3.47323 18 6.88997C18 10.2852 20.7506 13.0573 24.1673 13.0573Z" fill="#929392"/>
<path d="M24.1673 13.0573C27.5626 13.0573 30.3346 10.3067 30.3346 6.88997C30.3346 3.47323 27.584 0.722656 24.1673 0.722656C20.7506 0.722656 18 3.47323 18 6.88997C18 10.2852 20.7506 13.0573 24.1673 13.0573Z" stroke="white" stroke-width="0.623178"/>
<path d="M26.3593 10.414V9.74782H24.8551V3.85986H24.0815C23.6087 4.28964 23.1574 4.59049 22.7062 4.74091V5.45004C23.2004 5.36409 23.6732 5.10622 24.1029 4.67644V9.76931H22.1904V10.4355H26.3593V10.414Z" fill="#FEFEFE"/>
</svg>
