<svg width="17" height="17" viewBox="0 0 17 17" fill="none" xmlns="http://www.w3.org/2000/svg">
<path d="M8.50745 4.36279C8.64006 4.36279 8.76724 4.41547 8.86101 4.50924C8.95478 4.60302 9.00746 4.7302 9.00746 4.86281V7.8629H12.0076C12.1402 7.8629 12.2673 7.91558 12.3611 8.00935C12.4549 8.10312 12.5076 8.2303 12.5076 8.36291C12.5076 8.49553 12.4549 8.62271 12.3611 8.71648C12.2673 8.81025 12.1402 8.86293 12.0076 8.86293H9.00746V11.863C9.00746 11.9956 8.95478 12.1228 8.86101 12.2166C8.76724 12.3104 8.64006 12.363 8.50745 12.363C8.37483 12.363 8.24765 12.3104 8.15388 12.2166C8.06011 12.1228 8.00743 11.9956 8.00743 11.863V8.86293H5.00734C4.87473 8.86293 4.74755 8.81025 4.65378 8.71648C4.56 8.62271 4.50732 8.49553 4.50732 8.36291C4.50732 8.2303 4.56 8.10312 4.65378 8.00935C4.74755 7.91558 4.87473 7.8629 5.00734 7.8629H8.00743V4.86281C8.00743 4.7302 8.06011 4.60302 8.15388 4.50924C8.24765 4.41547 8.37483 4.36279 8.50745 4.36279Z" fill="#CFCCC9"/>
</svg>
