<svg width="29" height="29" viewBox="0 0 29 29" fill="none" xmlns="http://www.w3.org/2000/svg">
<path d="M5.27986 11.8816C5.30694 11.8654 5.33943 11.8491 5.3665 11.8383C5.42607 11.8112 5.48563 11.7841 5.5452 11.7571C5.57228 11.7462 5.60477 11.73 5.63184 11.7192C5.65892 11.7083 5.69141 11.6975 5.71848 11.6867C5.74556 11.6758 5.77263 11.665 5.79971 11.6542C5.82678 11.6433 5.85386 11.6379 5.88094 11.6271C5.90801 11.6163 5.93509 11.6054 5.96216 11.5946C5.98924 11.5838 6.01631 11.5784 6.03797 11.5675C6.06505 11.5567 6.08671 11.5513 6.11378 11.5405C6.14086 11.535 6.16252 11.5242 6.18418 11.5188C6.27624 11.4863 6.35746 11.4646 6.42244 11.443C6.49284 11.4213 6.54699 11.4051 6.5849 11.3943C6.6228 11.3834 6.63905 11.3726 6.63905 11.3726C6.63905 11.3726 6.61739 11.3672 6.57948 11.3563C6.56324 11.3509 6.53616 11.3455 6.50908 11.3347C6.48201 11.3293 6.44952 11.3184 6.41703 11.313C6.34663 11.2968 6.25999 11.2805 6.1571 11.2697C6.13003 11.2643 6.10837 11.2643 6.07588 11.2589C6.0488 11.2589 6.02173 11.2535 5.99465 11.2535C5.93509 11.248 5.87552 11.248 5.81595 11.248C5.78346 11.248 5.75097 11.248 5.71848 11.248C5.68599 11.248 5.6535 11.2535 5.6156 11.2535C5.5452 11.2589 5.47481 11.2697 5.39899 11.2805C5.36109 11.286 5.32318 11.2914 5.29069 11.3022C5.25279 11.3076 5.21488 11.3184 5.17698 11.3239C5.10116 11.3455 5.02535 11.3672 4.94413 11.3943C4.78709 11.4484 4.63005 11.5188 4.47843 11.6109C4.32681 11.7029 4.18602 11.8112 4.05605 11.9358C3.92609 12.0603 3.81779 12.2011 3.72032 12.3473C3.62285 12.4935 3.55245 12.6506 3.4983 12.8022C3.47123 12.878 3.44957 12.9538 3.42791 13.0296C3.41708 13.0675 3.41166 13.1054 3.40083 13.1433C3.39542 13.1812 3.38459 13.2137 3.37917 13.2516C3.36834 13.322 3.35751 13.3924 3.35209 13.4628C3.35209 13.4953 3.34668 13.5278 3.34668 13.5603C3.34668 13.5928 3.34668 13.6253 3.34668 13.6578C3.34668 13.7227 3.34668 13.7769 3.35209 13.8365C3.35209 13.8635 3.35751 13.8906 3.35751 13.9177C3.35751 13.9448 3.36292 13.9718 3.36834 13.9935C3.37917 14.091 3.39542 14.1776 3.41166 14.248C3.41708 14.2805 3.42791 14.313 3.43332 14.3401C3.43874 14.3671 3.44957 14.3888 3.45498 14.405C3.46581 14.4429 3.47123 14.4592 3.47123 14.4592C3.47123 14.4592 3.47664 14.4375 3.49289 14.405C3.50913 14.3671 3.51996 14.313 3.54704 14.248C3.5687 14.183 3.59577 14.1018 3.62826 14.0097C3.63909 13.9881 3.64451 13.961 3.64992 13.9393C3.65534 13.9177 3.66617 13.8906 3.677 13.8689C3.68783 13.8419 3.69324 13.8202 3.70407 13.7931C3.71491 13.7661 3.72574 13.739 3.73657 13.7173C3.7474 13.6902 3.75823 13.6632 3.76364 13.6361C3.77447 13.609 3.7853 13.5819 3.79613 13.5549C3.81779 13.5007 3.84487 13.4412 3.86653 13.387C3.8936 13.3274 3.92068 13.2733 3.94775 13.2137C3.964 13.1866 3.98024 13.1542 3.99107 13.1271C4.00732 13.1 4.02356 13.0675 4.03981 13.0404C4.10479 12.9267 4.17519 12.813 4.26183 12.7047C4.34305 12.5964 4.43511 12.4935 4.52717 12.4015C4.62464 12.3094 4.72752 12.2173 4.84124 12.1415C4.94954 12.0603 5.06867 11.9899 5.18239 11.9249C5.20947 11.9087 5.24196 11.8924 5.26903 11.8762L5.27986 11.8816Z" fill="#250A20" stroke="#250A20" stroke-width="0.8" stroke-miterlimit="10" stroke-linecap="round" stroke-linejoin="round"/>
<path d="M9.54214 8.92374C9.44467 9.01579 9.29305 9.01579 9.20099 8.92374L8.6649 8.39847C8.56743 8.30642 8.56743 8.15479 8.6649 8.05732C8.76237 7.96527 8.91399 7.96527 9.01146 8.05732L9.54756 8.58259C9.64503 8.67464 9.64503 8.82626 9.54756 8.92374H9.54214Z" fill="#250A20" stroke="#250A20" stroke-miterlimit="10" stroke-linecap="round" stroke-linejoin="round"/>
<path d="M10.1155 8.92374C10.213 9.01579 10.3646 9.01579 10.4621 8.92374L10.9982 8.39847C11.0957 8.30642 11.0957 8.15479 10.9982 8.05732C10.9007 7.96527 10.7491 7.96527 10.657 8.05732L10.121 8.58259C10.0235 8.67464 10.0235 8.82626 10.121 8.92374H10.1155Z" fill="#250A20" stroke="#250A20" stroke-miterlimit="10" stroke-linecap="round" stroke-linejoin="round"/>
<path d="M9.54214 9.56318C9.44467 9.47113 9.29305 9.47113 9.20099 9.56318L8.6649 10.0884C8.56743 10.1805 8.56743 10.3321 8.6649 10.4296C8.76237 10.5217 8.91399 10.5217 9.01146 10.4296L9.54756 9.90433C9.64503 9.81228 9.64503 9.66065 9.54756 9.56318H9.54214Z" fill="#250A20" stroke="#250A20" stroke-miterlimit="10" stroke-linecap="round" stroke-linejoin="round"/>
<path d="M10.1155 9.56318C10.213 9.47113 10.3646 9.47113 10.4621 9.56318L10.9982 10.0884C11.0903 10.1805 11.0903 10.3321 10.9982 10.4242C10.9007 10.5162 10.7491 10.5162 10.657 10.4242L10.121 9.89892C10.0235 9.80686 10.0235 9.65524 10.121 9.55777L10.1155 9.56318Z" fill="#250A20" stroke="#250A20" stroke-miterlimit="10" stroke-linecap="round" stroke-linejoin="round"/>
<path d="M22.2668 22.0938C22.3372 22.0234 22.4563 22.0234 22.5322 22.0938L22.9437 22.4999C23.0195 22.5703 23.0195 22.6895 22.9437 22.7599C22.8679 22.8303 22.7542 22.8303 22.6784 22.7599L22.2668 22.3537C22.191 22.2833 22.191 22.1642 22.2668 22.0938Z" fill="#250A20" stroke="#250A20" stroke-miterlimit="10" stroke-linecap="round" stroke-linejoin="round"/>
<path d="M21.8234 22.0938C21.7476 22.0234 21.6339 22.0234 21.5581 22.0938L21.1465 22.4999C21.0762 22.5703 21.0762 22.6895 21.1465 22.7599C21.2224 22.8303 21.3361 22.8303 21.4119 22.7599L21.8234 22.3537C21.8938 22.2833 21.8938 22.1642 21.8234 22.0938Z" fill="#250A20" stroke="#250A20" stroke-miterlimit="10" stroke-linecap="round" stroke-linejoin="round"/>
<path d="M22.2668 21.6075C22.3372 21.6779 22.4563 21.6779 22.5322 21.6075L22.9437 21.2014C23.0195 21.131 23.0195 21.0119 22.9437 20.9415C22.8679 20.8711 22.7542 20.8711 22.6784 20.9415L22.2668 21.3476C22.191 21.418 22.191 21.5371 22.2668 21.6075Z" fill="#250A20" stroke="#250A20" stroke-miterlimit="10" stroke-linecap="round" stroke-linejoin="round"/>
<path d="M21.8234 21.6075C21.7476 21.6779 21.6339 21.6779 21.5581 21.6075L21.1465 21.2014C21.0762 21.131 21.0762 21.0119 21.1465 20.9415C21.2224 20.8711 21.3361 20.8711 21.4119 20.9415L21.8234 21.3476C21.8938 21.418 21.8938 21.5371 21.8234 21.6075Z" fill="#250A20" stroke="#250A20" stroke-miterlimit="10" stroke-linecap="round" stroke-linejoin="round"/>
<path d="M24.217 12.8558C24.1087 12.8071 23.9842 12.8233 23.8921 12.8992C23.8651 12.9208 21.1521 15.1085 14.7352 15.1085C11.3941 15.1085 9.08191 14.5074 7.72814 14.0038C6.26607 13.4569 5.58377 12.9046 5.57294 12.8992C5.48088 12.8233 5.35633 12.8071 5.24803 12.8558C5.13973 12.9046 5.06934 13.0129 5.06934 13.1266C5.06934 13.8739 5.33467 14.7457 5.84369 15.6392C6.34729 16.5273 7.06208 17.3991 7.91225 18.1626C8.82198 18.9857 9.88334 19.668 10.9718 20.1391C12.2064 20.6698 13.4681 20.9405 14.7352 20.9405C16.0024 20.9405 17.2695 20.6698 18.4987 20.1391C19.5872 19.668 20.6431 18.9857 21.5582 18.1626C22.4084 17.3991 23.1232 16.5218 23.6268 15.6392C24.1304 14.7457 24.4012 13.8739 24.4012 13.1266C24.4012 13.0075 24.3308 12.9046 24.2225 12.8558H24.217ZM22.6358 16.0561C22.6034 16.0778 22.56 16.1049 22.5059 16.1428C22.4463 16.1861 22.3705 16.2294 22.2839 16.2836C22.2405 16.3107 22.1918 16.3377 22.1431 16.3648C22.0943 16.3919 22.0402 16.4244 21.986 16.4514C21.9319 16.4839 21.8723 16.511 21.8128 16.5435C21.7532 16.576 21.6882 16.6085 21.6232 16.6356C21.5582 16.668 21.4878 16.6951 21.4175 16.7276C21.3471 16.7601 21.2767 16.7872 21.2008 16.8197C21.0546 16.8792 20.8976 16.9388 20.7352 16.9929C20.6539 17.02 20.5727 17.0471 20.4915 17.0742C20.4102 17.1013 20.329 17.1229 20.2424 17.15C20.0745 17.1987 19.9121 17.242 19.7442 17.2745C19.5763 17.3124 19.4139 17.3449 19.2514 17.372C19.089 17.3991 18.9373 17.4262 18.7857 17.4424C18.6395 17.4641 18.4987 17.4749 18.3688 17.4911C18.1088 17.5128 17.8868 17.5236 17.7352 17.5236C17.5836 17.5236 17.4915 17.5236 17.4915 17.5236C17.4915 17.5236 17.5782 17.5345 17.7298 17.5507C17.8814 17.5669 18.1034 17.5778 18.3688 17.5832C18.4987 17.5832 18.6449 17.5832 18.7966 17.5832C18.9482 17.5832 19.1106 17.5724 19.2731 17.5615C19.4409 17.5507 19.6088 17.5345 19.7821 17.5128C19.9554 17.4911 20.1341 17.4641 20.3074 17.437C20.394 17.4207 20.4806 17.4045 20.5673 17.3883C20.6539 17.3666 20.7406 17.3503 20.8272 17.3341C21.0005 17.2962 21.1684 17.2529 21.3308 17.2041C21.412 17.1825 21.4933 17.1554 21.5691 17.1337C21.6449 17.1067 21.7207 17.085 21.7965 17.0579C21.8019 17.0579 21.8073 17.0525 21.8128 17.0525C21.6016 17.2799 21.3795 17.502 21.1413 17.7132C20.2803 18.4875 19.2785 19.1373 18.2496 19.5814C17.0962 20.0795 15.9103 20.3341 14.7298 20.3341C13.5493 20.3341 12.3634 20.0795 11.21 19.5814C10.1812 19.1373 9.18479 18.4875 8.31838 17.7132C8.08012 17.502 7.8581 17.2799 7.64691 17.0525C7.65233 17.0525 7.65774 17.0579 7.66316 17.0579C7.73897 17.085 7.80936 17.1067 7.89059 17.1337C7.9664 17.1608 8.04763 17.1825 8.12885 17.2041C8.29131 17.2529 8.45917 17.2962 8.63246 17.3341C8.7191 17.3558 8.80574 17.372 8.89238 17.3883C8.97902 17.4045 9.06566 17.4207 9.1523 17.437C9.331 17.4641 9.50428 17.4911 9.67757 17.5128C9.85085 17.5345 10.0241 17.5507 10.1866 17.5615C10.3545 17.5724 10.5115 17.5778 10.6631 17.5832C10.8147 17.5886 10.9609 17.5886 11.0909 17.5832C11.3562 17.5778 11.5728 17.5669 11.7299 17.5507C11.8815 17.5345 11.9681 17.5236 11.9681 17.5236C11.9681 17.5236 11.8815 17.529 11.7245 17.5236C11.5728 17.5236 11.3508 17.5128 11.0909 17.4911C10.9609 17.4803 10.8201 17.4641 10.6685 17.4424C10.5223 17.4262 10.3653 17.3991 10.2028 17.372C10.0404 17.3449 9.87792 17.3124 9.71006 17.2745C9.54219 17.2366 9.37432 17.1933 9.21187 17.15C9.13064 17.1283 9.04942 17.1013 8.96278 17.0742C8.88155 17.0471 8.80032 17.02 8.7191 16.9929C8.56206 16.9388 8.40502 16.8792 8.25882 16.8197C8.18842 16.7872 8.11261 16.7601 8.04221 16.7276C7.97182 16.6951 7.90142 16.668 7.83644 16.6356C7.77146 16.6031 7.70648 16.5706 7.64691 16.5435C7.58735 16.511 7.52778 16.4839 7.47363 16.4514C7.41948 16.4244 7.36533 16.3919 7.31659 16.3648C7.26786 16.3377 7.21912 16.3107 7.1758 16.2836C7.08916 16.2294 7.01335 16.1861 6.95378 16.1428C6.89963 16.1049 6.85631 16.0778 6.82382 16.0561C6.26065 15.2655 5.8816 14.4587 5.74081 13.7385C6.11445 13.9605 6.68303 14.2583 7.4628 14.5508C8.87072 15.0814 11.2696 15.7096 14.7244 15.7096C18.1847 15.7096 20.5835 15.0814 21.986 14.5508C22.7658 14.2583 23.3344 13.9605 23.708 13.7385C23.5672 14.4641 23.1828 15.271 22.625 16.0561H22.6358Z" fill="#250A20" stroke="#250A20" stroke-width="0.8" stroke-miterlimit="10" stroke-linecap="round" stroke-linejoin="round"/>
<path d="M26.1016 13.6243C26.1016 13.5918 26.0962 13.5593 26.0962 13.5268C26.0907 13.4564 26.0799 13.3914 26.0691 13.3156C26.0637 13.2777 26.0583 13.2452 26.0474 13.2073C26.042 13.1694 26.0312 13.1315 26.0204 13.0936C25.9987 13.0178 25.977 12.942 25.95 12.8662C25.8958 12.7146 25.82 12.5575 25.7279 12.4113C25.6359 12.2651 25.5222 12.1243 25.3922 11.9998C25.2622 11.8752 25.1215 11.7669 24.9698 11.6695C24.8182 11.5774 24.6612 11.507 24.5041 11.4528C24.4283 11.4258 24.3471 11.4041 24.2713 11.3825C24.2334 11.3716 24.1955 11.3662 24.1576 11.3554C24.1197 11.35 24.0818 11.3391 24.0439 11.3337C23.968 11.3229 23.8976 11.3121 23.8272 11.3121C23.7948 11.3066 23.7623 11.3066 23.7244 11.3066C23.6919 11.3066 23.6594 11.3066 23.6269 11.3066C23.5619 11.3066 23.5023 11.3066 23.4428 11.3121C23.4157 11.3121 23.3832 11.3175 23.3561 11.3175C23.3291 11.3229 23.302 11.3229 23.2803 11.3283C23.1774 11.3391 23.0908 11.3554 23.0204 11.3716C22.9825 11.377 22.9554 11.3879 22.9229 11.3933C22.8959 11.3987 22.8742 11.4095 22.8525 11.4149C22.8146 11.4258 22.793 11.4312 22.793 11.4312C22.793 11.4312 22.8146 11.4366 22.8525 11.4528C22.8904 11.4691 22.9446 11.4799 23.0096 11.5016C23.0746 11.5232 23.1612 11.5503 23.2532 11.5774C23.2749 11.5828 23.302 11.5936 23.3236 11.5991C23.3453 11.6099 23.3724 11.6153 23.3995 11.6261C23.4265 11.637 23.4482 11.6424 23.4753 11.6532C23.5023 11.664 23.5294 11.6749 23.5565 11.6803C23.5836 11.6911 23.6106 11.7019 23.6377 11.7128C23.6648 11.7236 23.6919 11.7344 23.7189 11.7453C23.7785 11.7669 23.8327 11.794 23.8922 11.8157C23.9518 11.8373 24.0114 11.8698 24.0709 11.8969C24.098 11.9131 24.1305 11.924 24.1576 11.9402C24.1846 11.9564 24.2171 11.9727 24.2442 11.9889C24.3633 12.0539 24.4771 12.1243 24.5854 12.2055C24.6937 12.2868 24.802 12.3734 24.8994 12.4655C24.9969 12.5629 25.0835 12.6604 25.1648 12.7687C25.246 12.877 25.3218 12.9907 25.3868 13.1044C25.403 13.1315 25.4193 13.1586 25.4355 13.1911C25.4518 13.2182 25.4626 13.2507 25.4788 13.2777C25.5059 13.3373 25.5384 13.3914 25.5601 13.451C25.5709 13.4781 25.5871 13.5106 25.598 13.5377C25.6142 13.5647 25.6196 13.5918 25.6305 13.6189C25.6413 13.646 25.6521 13.673 25.663 13.7001C25.6738 13.7272 25.6846 13.7543 25.6955 13.7813C25.7063 13.8084 25.7171 13.8355 25.7225 13.8571C25.7334 13.8842 25.7388 13.9059 25.7496 13.933C25.7604 13.96 25.7658 13.9817 25.7767 14.0033C25.7821 14.025 25.7929 14.0521 25.7983 14.0737C25.8308 14.1658 25.8525 14.2416 25.8741 14.3066C25.8958 14.3716 25.9121 14.4257 25.9283 14.4636C25.9391 14.5015 25.95 14.5178 25.95 14.5178C25.95 14.5178 25.9554 14.4961 25.9662 14.4636C25.9716 14.4474 25.977 14.4203 25.9879 14.3932C25.9933 14.3662 26.0041 14.3337 26.0095 14.3012C26.0258 14.2308 26.042 14.1441 26.0528 14.0467C26.0583 14.0196 26.0583 13.9979 26.0637 13.9709C26.0637 13.9438 26.0691 13.9167 26.0691 13.8896C26.0745 13.8355 26.0745 13.7759 26.0745 13.7109C26.0745 13.6784 26.0745 13.646 26.0745 13.6135L26.1016 13.6243Z" fill="#250A20" stroke="#250A20" stroke-width="0.8" stroke-miterlimit="10" stroke-linecap="round" stroke-linejoin="round"/>
<path d="M14.7295 28.9766C22.5976 28.9766 28.9766 22.5976 28.9766 14.7295C28.9766 6.86138 22.5976 0.482422 14.7295 0.482422C6.86138 0.482422 0.482422 6.86138 0.482422 14.7295C0.482422 22.5976 6.86138 28.9766 14.7295 28.9766Z" stroke="#250A20" stroke-width="1.2"/>
</svg>
