<svg width="17" height="16" viewBox="0 0 17 16" fill="none" xmlns="http://www.w3.org/2000/svg">
<path d="M4.10968 3.2773V7.16559C4.10968 7.75002 4.58378 8.22711 5.1712 8.22711H9.05949M15.0678 5.04552V1.15723C15.0678 0.572794 14.5937 0.0957031 14.0063 0.0957031H5.1712C4.58677 0.0957031 4.10968 0.569812 4.10968 1.15723V2.57061M9.7632 8.22413H10.8098L12.6943 10.0997C12.918 10.3203 13.2966 10.1623 13.2966 9.84922V8.22413H14.0033C14.5878 8.22413 15.0649 7.75002 15.0649 7.16261V5.74923M6.22975 10.6961V12.1094C6.22975 12.6939 6.70385 13.171 7.29127 13.171H11.2869L13.7857 15.1807C14.0182 15.3656 14.3612 15.2016 14.3612 14.9064V13.171H15.7745C16.359 13.171 16.8361 12.6969 16.8361 12.1094V6.10108C16.8361 5.51664 16.362 5.03955 15.7745 5.03955H9.76618M6.23273 8.22115V9.98937M9.05949 5.04254H7.29127C6.70684 5.04254 6.22975 5.51664 6.22975 6.10406V7.51744M1.63477 2.57061H8.70465C9.28909 2.57061 9.76618 3.04472 9.76618 3.63214V9.64049C9.76618 10.2249 9.29207 10.702 8.70465 10.702H4.35717L2.59789 12.5388C2.37724 12.7684 1.9896 12.6134 1.9896 12.2943V10.702H1.63477C1.05033 10.702 0.573242 10.2279 0.573242 9.64049V3.63214C0.573242 3.0477 1.04735 2.57061 1.63477 2.57061Z" stroke="white" stroke-width="0.70669" stroke-miterlimit="10"/>
</svg>
