<svg width="29" height="29" viewBox="0 0 29 29" fill="none" xmlns="http://www.w3.org/2000/svg">
<path d="M14.7295 28.9766C22.5976 28.9766 28.9766 22.5976 28.9766 14.7295C28.9766 6.86138 22.5976 0.482422 14.7295 0.482422C6.86138 0.482422 0.482422 6.86138 0.482422 14.7295C0.482422 22.5976 6.86138 28.9766 14.7295 28.9766Z" stroke="#250A20" stroke-width="1.2"/>
<path d="M14.2527 22.679C14.2527 22.679 8.74012 18.0166 8.13904 21.3794C7.7654 23.8216 12.0596 24.6339 14.74 24.6339C17.805 24.6339 21.5522 23.8866 21.341 21.6123C21.1082 18.8235 16.4349 21.3794 15.222 21.7043M15.7689 19.0997V13.6575C15.7689 12.5799 16.2833 11.2099 17.7671 13.4138C19.2454 15.6178 18.5847 17.4751 22.2778 17.4751M13.7003 19.0997V13.6575C13.7003 12.5799 13.1859 11.2099 11.7022 13.4138C10.2238 15.6178 10.8845 17.4751 7.19141 17.4751M17.8916 7.52764C17.8916 9.27129 16.4783 10.6846 14.7346 10.6846C12.991 10.6846 11.5722 9.27129 11.5722 7.52764C11.5722 5.78398 12.9855 4.36523 14.7346 4.36523C16.4783 4.36523 17.8916 5.77857 17.8916 7.52764Z" stroke="#250A20" stroke-width="1.2" stroke-miterlimit="10" stroke-linecap="round" stroke-linejoin="round"/>
</svg>
