<svg width="52" height="55" viewBox="0 0 52 55" fill="none" xmlns="http://www.w3.org/2000/svg">
<path d="M51.3936 48.493V31.9375H0V48.493C0 51.8591 11.5063 54.5872 25.6968 54.5872C39.8872 54.5872 51.3936 51.8591 51.3936 48.493Z" fill="#EEBCCC"/>
<path d="M51.3936 34.5512V31.9331H48.9075C44.7824 29.8761 35.9381 28.457 25.6968 28.457C15.4555 28.457 6.6222 29.8761 2.48608 31.9331H0V34.5512C0 34.5512 0 34.5512 0 34.5622C0 37.9283 11.5063 40.6564 25.6968 40.6564C39.8872 40.6564 51.3936 37.9283 51.3936 34.5622C51.3936 34.5622 51.3936 34.5622 51.3936 34.5512Z" fill="#DCAEBD"/>
<path d="M25.6968 38.036C39.8872 38.036 51.3936 35.3079 51.3936 31.9418C51.3936 28.5757 39.8872 25.8477 25.6968 25.8477C11.5063 25.8477 0 28.5757 0 31.9418C0 35.3079 11.5063 38.036 25.6968 38.036Z" fill="#E5B5C4"/>
<path d="M19.5909 29.6267L19.5469 29.6487L22.209 32.6848L24.904 29.6267H24.937V27.6797L19.5909 29.6267Z" fill="#7B3972"/>
<path d="M19.4922 28.9275L24.9374 26.9474V24.5273L19.4922 26.5074V28.9275Z" fill="#7B3972"/>
<path d="M17.0735 12.918V17.7472L18.9546 17.7582V19.0782V22.8733V23.8084H19.4936V24.3364V25.7774L24.5097 23.9844L24.8727 23.8524H24.9277V23.8084H25.4778V22.8403V18.9572V17.7692L27.3588 17.7802V12.918C27.3588 12.918 17.2495 12.786 17.0625 12.918H17.0735Z" fill="#7B3972"/>
<path d="M23.9035 13.0904V0H20.5264V13.0904H23.9035Z" fill="#7B3972"/>
<path d="M27.0166 29.8967H34.3208V24.1875H27.0166V29.8967Z" fill="#7B3972"/>
<path d="M28.3806 24.5327V22.2227H27.0166V24.5327H28.3806Z" fill="#7B3972"/>
<path d="M31.3504 24.5327V22.2227H29.9863V24.5327H31.3504Z" fill="#7B3972"/>
<path d="M34.3221 24.5327V22.2227H32.958V24.5327H34.3221Z" fill="#7B3972"/>
</svg>
