<svg width="16" height="16" viewBox="0 0 16 16" fill="none" xmlns="http://www.w3.org/2000/svg">
<path d="M8.75322 5.65768C8.75322 5.53764 8.70553 5.42252 8.62065 5.33764C8.53577 5.25276 8.42065 5.20508 8.30061 5.20508C8.18057 5.20508 8.06545 5.25276 7.98057 5.33764C7.89569 5.42252 7.84801 5.53764 7.84801 5.65768V7.01549H6.4902C6.37016 7.01549 6.25504 7.06318 6.17016 7.14805C6.08528 7.23293 6.0376 7.34806 6.0376 7.46809C6.0376 7.58813 6.08528 7.70325 6.17016 7.78813C6.25504 7.87301 6.37016 7.9207 6.4902 7.9207H7.84801V9.27851C7.84801 9.39854 7.89569 9.51366 7.98057 9.59854C8.06545 9.68342 8.18057 9.73111 8.30061 9.73111C8.42065 9.73111 8.53577 9.68342 8.62065 9.59854C8.70553 9.51366 8.75322 9.39854 8.75322 9.27851V7.9207H10.111C10.2311 7.9207 10.3462 7.87301 10.4311 7.78813C10.5159 7.70325 10.5636 7.58813 10.5636 7.46809C10.5636 7.34806 10.5159 7.23293 10.4311 7.14805C10.3462 7.06318 10.2311 7.01549 10.111 7.01549H8.75322V5.65768Z" fill="#363330"/>
<path d="M1.05905 1.58398C0.939011 1.58398 0.823889 1.63167 0.73901 1.71655C0.65413 1.80143 0.606445 1.91655 0.606445 2.03659C0.606445 2.15663 0.65413 2.27175 0.73901 2.35663C0.823889 2.44151 0.939011 2.48919 1.05905 2.48919H2.06383L2.42681 3.94386L3.78281 11.1719C3.80223 11.2756 3.85727 11.3693 3.93843 11.4368C4.01958 11.5042 4.12175 11.5412 4.22727 11.5413H5.13248C4.65232 11.5413 4.19184 11.732 3.85232 12.0715C3.5128 12.411 3.32206 12.8715 3.32206 13.3517C3.32206 13.8318 3.5128 14.2923 3.85232 14.6318C4.19184 14.9713 4.65232 15.1621 5.13248 15.1621C5.61263 15.1621 6.07311 14.9713 6.41263 14.6318C6.75215 14.2923 6.94289 13.8318 6.94289 13.3517C6.94289 12.8715 6.75215 12.411 6.41263 12.0715C6.07311 11.732 5.61263 11.5413 5.13248 11.5413H11.4689C10.9888 11.5413 10.5283 11.732 10.1888 12.0715C9.84925 12.411 9.65851 12.8715 9.65851 13.3517C9.65851 13.8318 9.84925 14.2923 10.1888 14.6318C10.5283 14.9713 10.9888 15.1621 11.4689 15.1621C11.9491 15.1621 12.4096 14.9713 12.7491 14.6318C13.0886 14.2923 13.2793 13.8318 13.2793 13.3517C13.2793 12.8715 13.0886 12.411 12.7491 12.0715C12.4096 11.732 11.9491 11.5413 11.4689 11.5413H12.3741C12.4796 11.5412 12.5818 11.5042 12.663 11.4368C12.7441 11.3693 12.7992 11.2756 12.8186 11.1719L14.1764 3.93028C14.1886 3.86496 14.1863 3.79774 14.1696 3.73341C14.153 3.66908 14.1223 3.60921 14.0799 3.55806C14.0375 3.50691 13.9843 3.46573 13.9242 3.43744C13.864 3.40915 13.7984 3.39446 13.7319 3.3944L3.22249 3.3944L2.85588 1.92706C2.83145 1.8291 2.77497 1.74212 2.69542 1.67996C2.61587 1.61779 2.51782 1.58401 2.41686 1.58398H1.05905ZM4.60293 10.636L3.41439 4.2996L13.187 4.2996L11.9985 10.636H4.60293ZM6.03768 13.3517C6.03768 13.5917 5.94231 13.822 5.77255 13.9917C5.60279 14.1615 5.37255 14.2569 5.13248 14.2569C4.8924 14.2569 4.66216 14.1615 4.4924 13.9917C4.32264 13.822 4.22727 13.5917 4.22727 13.3517C4.22727 13.1116 4.32264 12.8813 4.4924 12.7116C4.66216 12.5418 4.8924 12.4465 5.13248 12.4465C5.37255 12.4465 5.60279 12.5418 5.77255 12.7116C5.94231 12.8813 6.03768 13.1116 6.03768 13.3517ZM12.3741 13.3517C12.3741 13.5917 12.2788 13.822 12.109 13.9917C11.9392 14.1615 11.709 14.2569 11.4689 14.2569C11.2288 14.2569 10.9986 14.1615 10.8288 13.9917C10.6591 13.822 10.5637 13.5917 10.5637 13.3517C10.5637 13.1116 10.6591 12.8813 10.8288 12.7116C10.9986 12.5418 11.2288 12.4465 11.4689 12.4465C11.709 12.4465 11.9392 12.5418 12.109 12.7116C12.2788 12.8813 12.3741 13.1116 12.3741 13.3517Z" fill="#363330"/>
</svg>
