<svg width="30" height="34" viewBox="0 0 30 34" fill="none" xmlns="http://www.w3.org/2000/svg">
<path d="M27.1813 29.2317C26.945 28.4581 26.6226 27.5985 26.2358 26.7389C25.849 25.8794 25.3978 24.9983 24.9035 24.1173C24.839 24.2247 24.7746 24.3537 24.6886 24.4611C24.6242 24.5686 24.5382 24.6975 24.4737 24.8049C24.3878 24.9124 24.3233 25.0198 24.2374 25.1273C24.1514 25.2347 24.0654 25.3422 23.9795 25.4496L23.958 25.4711L23.9365 25.4926L23.915 25.5141L23.8935 25.5356L23.8076 25.6215C23.872 25.8149 23.958 26.0513 24.0654 26.3092C24.1514 26.567 24.2588 26.8464 24.3448 27.1043C24.4308 27.3621 24.4952 27.62 24.5167 27.8134C24.5382 28.0068 24.5382 28.1787 24.4522 28.2432C24.4308 28.2647 24.4093 28.2861 24.3663 28.3076C24.3448 28.3291 24.3018 28.3506 24.2588 28.3506C24.2159 28.3721 24.1944 28.3721 24.1514 28.3721C24.1084 28.3721 24.0654 28.3721 24.0225 28.3721C23.958 28.3721 23.872 28.3506 23.7861 28.3506C23.7001 28.3291 23.6142 28.3076 23.5282 28.2861C23.4423 28.2647 23.3348 28.2217 23.2489 28.1787C23.1414 28.1357 23.034 28.0927 22.9265 28.0498C22.7976 27.9853 22.6472 27.9208 22.4968 27.8349C22.3463 27.7489 22.1959 27.663 22.0455 27.577C21.8951 27.4911 21.7232 27.4051 21.5727 27.2977C21.4008 27.1902 21.2504 27.1043 21.0785 26.9968C21.7232 26.3521 22.3463 25.643 22.905 24.9124C23.4638 24.1603 23.9795 23.3867 24.4308 22.5701C24.882 21.7535 25.2688 20.9155 25.5912 20.0344C25.9135 19.1749 26.1714 18.2723 26.3433 17.3698C26.7516 15.3283 26.7301 13.4158 26.3433 11.7182C25.978 10.0421 25.2688 8.55934 24.2803 7.37745C23.3133 6.19556 22.0885 5.29303 20.6702 4.71283C19.2734 4.13263 17.6618 3.89625 15.9426 4.0037C14.8037 4.08965 13.6648 4.32603 12.5689 4.69134C11.473 5.05665 10.42 5.5509 9.41002 6.15259C8.40004 6.75428 7.43304 7.46341 6.552 8.27999C5.64947 9.07508 4.83289 9.97761 4.08078 10.9446C3.88738 10.5793 3.71546 10.214 3.58653 9.91314C3.4576 9.59081 3.35015 9.31145 3.30718 9.05359C3.24271 8.79572 3.22122 8.58083 3.24271 8.38743C3.2642 8.19403 3.32866 8.04361 3.41462 7.93617C3.43611 7.89319 3.47909 7.8717 3.54355 7.82872C3.58653 7.78574 3.651 7.76425 3.71546 7.74276C3.77993 7.72128 3.86589 7.69979 3.95184 7.6783C4.0378 7.65681 4.12375 7.65681 4.20971 7.63532C4.31715 7.63532 4.4246 7.63532 4.53204 7.65681C4.63949 7.6783 4.74693 7.69979 4.87586 7.74276C4.98331 7.78574 5.11224 7.82872 5.21969 7.91468C5.32713 7.97914 5.45606 8.0651 5.56351 8.17254C5.67095 8.04361 5.79989 7.91468 5.90733 7.78574C6.03626 7.65681 6.14371 7.54937 6.27264 7.42043C6.40158 7.31299 6.53051 7.18405 6.65944 7.07661C6.78838 6.96916 6.9388 6.86172 7.08922 6.75428C7.11071 6.75428 7.11071 6.73279 7.1322 6.73279C7.15369 6.73279 7.15369 6.7113 7.17518 6.7113C7.19667 6.7113 7.19667 6.68981 7.21815 6.68981C7.23964 6.68981 7.23964 6.66832 7.26113 6.66832C7.00326 6.43194 6.72391 6.23854 6.44455 6.08812C6.1652 5.9377 5.86435 5.80876 5.56351 5.72281C5.26266 5.63685 4.96182 5.57239 4.66098 5.5509C4.36013 5.52941 4.08078 5.50792 3.80142 5.52941C3.60802 5.5509 3.43611 5.57239 3.2642 5.59388C3.09229 5.63685 2.94186 5.67983 2.79144 5.72281C2.64102 5.76579 2.51209 5.83025 2.40464 5.91621C2.2972 5.98068 2.18975 6.06663 2.12529 6.15259C1.88891 6.41045 1.75997 6.73279 1.69551 7.11959C1.63104 7.50639 1.65253 7.97914 1.75997 8.49488C1.86742 9.01061 2.03933 9.59081 2.27571 10.2355C2.53358 10.8587 2.83442 11.5463 3.24271 12.2769C2.98484 12.6852 2.72698 13.0935 2.4906 13.5233C2.25422 13.9531 2.03933 14.3828 1.84593 14.8341C1.65253 15.2854 1.45913 15.7366 1.30871 16.2094C1.1368 16.6821 1.00786 17.1549 0.87893 17.6277C0.406175 19.4542 0.255752 21.2163 0.406175 22.8495C0.556597 24.5041 1.02935 26.0083 1.78146 27.3191C2.53358 28.6515 3.58653 29.7474 4.87586 30.564C6.18669 31.3805 7.75538 31.8963 9.53895 32.0037C10.0762 32.0252 10.5919 32.0252 11.1291 31.9822C11.6664 31.9393 12.2036 31.8748 12.7408 31.7673C13.278 31.6599 13.8152 31.5095 14.3525 31.3376C14.8897 31.1657 15.4054 30.9508 15.9426 30.7144L14.6748 28.3291C14.3095 28.4795 13.9442 28.6085 13.5574 28.7159C13.1921 28.8234 12.8053 28.9093 12.44 28.9738C12.0746 29.0383 11.6878 29.0812 11.3225 29.1242C10.9572 29.1457 10.5704 29.1457 10.2051 29.1457C8.76535 29.0812 7.49751 28.6944 6.44455 28.0498C5.3916 27.4051 4.53204 26.5241 3.90886 25.4711C3.28569 24.4181 2.89889 23.1933 2.74846 21.861C2.59804 20.5501 2.70549 19.1104 3.09229 17.6277C3.47909 16.1449 4.10226 14.7481 4.89735 13.4588C5.69244 12.191 6.68093 11.0306 7.77687 10.0421C8.8728 9.05359 10.0977 8.23701 11.387 7.63532C12.6978 7.03363 14.0731 6.66832 15.4484 6.58236C16.8452 6.49641 18.1345 6.73279 19.2734 7.20554C20.4123 7.69979 21.4008 8.4519 22.1529 9.39741C22.9265 10.3644 23.4852 11.5678 23.7646 12.9216C24.044 14.2969 24.044 15.8226 23.7216 17.4557C23.5712 18.1649 23.3778 18.874 23.1199 19.5617C22.8621 20.2493 22.5612 20.9155 22.1959 21.5601C21.8521 22.2048 21.4438 22.828 20.9925 23.4082C20.5628 23.9884 20.0685 24.5471 19.5743 25.0628C19.5743 24.8909 19.5958 24.719 19.5958 24.5256C19.5958 24.3537 19.6172 24.1603 19.6172 24.0099C19.6172 23.8379 19.6387 23.6875 19.6387 23.5586C19.6387 23.4297 19.6387 23.3222 19.6387 23.2577C19.6387 23.1933 19.6387 23.1288 19.6172 23.0858C19.5958 23.0429 19.5958 22.9999 19.5743 22.9784C19.5528 22.9569 19.5313 22.9354 19.5098 22.9354C19.4883 22.9139 19.4453 22.9139 19.4238 22.9139C19.4024 22.9139 19.3809 22.9139 19.3594 22.9139C19.3379 22.9139 19.3164 22.9139 19.2949 22.9354C19.2734 22.9354 19.2734 22.9569 19.2519 22.9569H19.2304L14.8037 24.3967C14.8037 24.3967 14.7608 24.4181 14.7178 24.4396C14.6748 24.4611 14.6103 24.5041 14.5674 24.5471C14.5244 24.6115 14.4814 24.676 14.4599 24.762C14.4599 24.8479 14.4814 24.9769 14.5459 25.1273C14.5459 25.1273 14.5459 25.1488 14.5674 25.1488C14.5674 25.1488 14.5674 25.1703 14.5888 25.1703C14.5888 25.1703 14.5888 25.1917 14.6103 25.1917C14.6103 25.1917 14.6103 25.2132 14.6318 25.2132C14.8252 25.6215 15.1046 26.1587 15.4484 26.7604C15.7707 27.3836 16.136 28.0713 16.5014 28.7374C16.8667 29.4251 17.232 30.0912 17.5543 30.6714C17.8766 31.2516 18.1345 31.7459 18.3064 32.0467C18.3279 32.0682 18.3279 32.0897 18.3494 32.1327C18.3709 32.1541 18.3709 32.1756 18.3924 32.1971C18.4139 32.2186 18.4139 32.2401 18.4139 32.2616C18.4139 32.2831 18.4354 32.3046 18.4354 32.3046C18.4783 32.3905 18.5213 32.455 18.5643 32.498C18.6073 32.5624 18.6502 32.6054 18.6717 32.6269C18.7147 32.6699 18.7362 32.6914 18.7792 32.7129C18.8222 32.7343 18.8436 32.7343 18.8651 32.7343C18.9296 32.7343 18.9726 32.7129 19.0156 32.6914C19.0585 32.6699 19.1015 32.6054 19.123 32.5624C19.1445 32.5195 19.1875 32.455 19.209 32.412C19.2304 32.369 19.2304 32.3046 19.2519 32.2616C19.2519 32.2401 19.2519 32.2401 19.2519 32.2186C19.2519 32.1971 19.2519 32.1756 19.2519 32.1327C19.2519 32.1112 19.2519 32.0682 19.2519 32.0467C19.2519 32.0037 19.2519 31.9822 19.2519 31.9393C19.2519 31.7888 19.2734 31.6169 19.2734 31.445C19.2734 31.2731 19.2949 31.0797 19.2949 30.9078C19.2949 30.7359 19.3164 30.5855 19.3164 30.478C19.3164 30.3706 19.3379 30.2846 19.3379 30.2846C19.9396 30.6499 20.5628 30.9937 21.143 31.3376C21.7446 31.6599 22.3248 31.9822 22.905 32.2401C23.4638 32.498 24.0225 32.7343 24.5167 32.8848C25.011 33.0567 25.4837 33.1426 25.8705 33.1856C25.935 33.1856 25.978 33.1856 26.0424 33.1856C26.0854 33.1856 26.1499 33.1856 26.1928 33.1856C26.2358 33.1856 26.3003 33.1856 26.3433 33.1641C26.3862 33.1641 26.4292 33.1426 26.4937 33.1426C26.5582 33.1211 26.6226 33.1211 26.6871 33.0997C26.7516 33.0782 26.816 33.0567 26.8805 33.0137C26.945 32.9922 26.9879 32.9492 27.0524 32.9063C27.0954 32.8633 27.1598 32.8203 27.2028 32.7773C27.4822 32.4765 27.6111 32.0037 27.6111 31.402C27.6111 30.8218 27.4607 30.1127 27.2458 29.3176L27.1813 29.2317Z" fill="#929392"/>
<path d="M11.1721 14.1258C11.4945 14.1258 11.7308 14.2118 11.9242 14.3837C12.1176 14.5556 12.2036 14.792 12.2036 15.1143C12.2036 15.4366 12.0962 15.6945 11.9028 15.8664C11.6879 16.0383 11.43 16.1458 11.0862 16.1458C10.3126 16.1458 9.92578 15.802 9.92578 15.1358H8.78687V15.2218C8.78687 15.8449 9.00175 16.3177 9.41004 16.64C9.81833 16.9838 10.377 17.1343 11.0862 17.1343C11.7308 17.1343 12.2681 16.9624 12.7193 16.597C13.1706 16.2532 13.3855 15.7375 13.3855 15.1143C13.3855 14.8994 13.3425 14.6845 13.278 14.4911C13.2136 14.2977 13.1276 14.1473 13.0632 14.0399C12.9772 13.9324 12.8912 13.825 12.7838 13.7605C12.6764 13.6746 12.5904 13.6316 12.5474 13.6101C12.5044 13.5886 12.4615 13.5671 12.44 13.5671L12.5259 13.5241C12.5904 13.5026 12.6549 13.4382 12.7408 13.3522C12.8268 13.2663 12.9127 13.1803 12.9772 13.0729C13.0632 12.9654 13.1276 12.815 13.1921 12.6431C13.2566 12.4712 13.278 12.2778 13.278 12.0844C13.278 11.5042 13.0846 11.0529 12.6978 10.7306C12.311 10.4082 11.7738 10.2363 11.1077 10.2363C10.4415 10.2363 9.92578 10.3868 9.51749 10.7306C9.1092 11.0529 8.9158 11.5042 8.9158 12.0844V12.1488H10.0332C10.0332 11.8265 10.1407 11.5901 10.3126 11.4397C10.506 11.2893 10.7638 11.2033 11.1077 11.2033C11.4515 11.2033 11.7308 11.2893 11.9028 11.4397C12.0747 11.6116 12.1821 11.8265 12.1821 12.1059C12.1821 12.4067 12.0962 12.6646 11.9028 12.8365C11.7094 13.0084 11.473 13.0944 11.1721 13.0944H10.0332V14.0828L11.2366 14.1043L11.1721 14.1258ZM18.8007 17.0483V15.9954H16.0501L17.6403 14.4267C18.0701 14.0184 18.3709 13.6316 18.5428 13.2878C18.7147 12.9439 18.8007 12.5786 18.8007 12.2133C18.8007 11.6116 18.6073 11.1174 18.242 10.795C17.8552 10.4512 17.3394 10.2793 16.6518 10.2793C15.9642 10.2793 15.4269 10.4512 15.0186 10.795C14.6104 11.1389 14.417 11.6116 14.417 12.2348V12.2993H15.5559C15.5559 11.6331 15.8997 11.2893 16.6303 11.2893C17.318 11.2893 17.6618 11.6116 17.6618 12.2563C17.6618 12.5142 17.5973 12.7505 17.4899 12.9869C17.3824 13.2233 17.1675 13.4812 16.8882 13.7605L14.5674 16.0168V17.0698H18.8437L18.8007 17.0483Z" fill="#929392"/>
<path d="M10.2914 22.7003V17.6504H9.45332V21.4969L7.45485 17.6504H6.2085V22.7003H7.04656V18.8753L9.06652 22.7003H10.2914ZM12.0535 22.2275C12.0535 22.0986 12.0105 22.0126 11.9245 21.9267C11.8386 21.8622 11.7311 21.8192 11.5807 21.8192C11.4518 21.8192 11.3443 21.8622 11.2584 21.9267C11.1724 21.9911 11.1295 22.0986 11.1295 22.2275V22.3779C11.1295 22.5069 11.1724 22.5928 11.2584 22.6788C11.3443 22.7433 11.4518 22.7862 11.6022 22.7862C11.7526 22.7862 11.8601 22.7433 11.946 22.6788C12.032 22.6143 12.075 22.5069 12.075 22.3779L12.0535 22.2275ZM15.857 21.3465H15.0619C15.0619 21.8192 14.8041 22.0556 14.3098 22.0556C13.8156 22.0556 13.5792 21.7977 13.5792 21.3035V20.5514C13.5792 20.0357 13.8156 19.7993 14.3098 19.7993C14.8041 19.7993 15.0619 20.0357 15.0619 20.5084H15.857V20.4439C15.857 20.0142 15.7281 19.6703 15.4487 19.434C15.1694 19.1976 14.8041 19.0687 14.3313 19.0687C13.8585 19.0687 13.4932 19.1976 13.2139 19.434C12.9345 19.6918 12.7841 20.0357 12.7841 20.4654V21.3465C12.7841 21.7763 12.9345 22.1201 13.2139 22.3779C13.4932 22.6143 13.8585 22.7433 14.3313 22.7433C14.8041 22.7433 15.1909 22.6358 15.4702 22.3994C15.7496 22.1631 15.9 21.8192 15.9 21.3895L15.8785 21.3465H15.857ZM21.5301 22.7003V20.1861C21.5301 19.8423 21.4441 19.5844 21.2722 19.391C21.1003 19.1976 20.8424 19.1116 20.5416 19.1116C20.2622 19.1116 19.9829 19.1976 19.725 19.348L19.3382 19.5844C19.1878 19.2621 18.9084 19.1116 18.5001 19.1116C18.2423 19.1116 17.9844 19.1761 17.748 19.3265L17.4257 19.5199V19.1546H16.6091V22.7218H17.4257V20.272L17.8555 20.0142C18.0274 19.9282 18.1778 19.8852 18.2853 19.8852C18.5431 19.8852 18.6506 20.0357 18.6506 20.3365V22.7433H19.4671V20.2935L19.8969 20.0357C20.0688 19.9497 20.2193 19.8852 20.3267 19.8852C20.5846 19.8852 20.7135 20.0357 20.7135 20.315V22.7433H21.5301V22.7003Z" fill="#929392"/>
<path d="M23.8077 13.2018C27.2029 13.2018 29.975 10.4512 29.975 7.0345C29.975 3.61777 27.2244 0.867188 23.8077 0.867188C20.391 0.867188 17.6404 3.61777 17.6404 7.0345C17.6404 10.4297 20.391 13.2018 23.8077 13.2018Z" fill="#929392"/>
<path d="M23.8077 13.2018C27.2029 13.2018 29.975 10.4512 29.975 7.0345C29.975 3.61777 27.2244 0.867188 23.8077 0.867188C20.391 0.867188 17.6404 3.61777 17.6404 7.0345C17.6404 10.4297 20.391 13.2018 23.8077 13.2018Z" stroke="white" stroke-width="0.623178"/>
<path d="M25.9994 10.558V9.89186H24.4952V4.00391H23.7216C23.2488 4.43368 22.7976 4.73453 22.3463 4.88495V5.59408C22.8405 5.50813 23.3133 5.25026 23.7431 4.82048V9.91335H21.8306V10.5795H25.9994V10.558Z" fill="#FEFEFE"/>
</svg>
