<svg width="31" height="34" viewBox="0 0 31 34" fill="none" xmlns="http://www.w3.org/2000/svg">
<path d="M27.6367 29.1457C27.4003 28.3721 27.0779 27.5126 26.6911 26.653C26.3043 25.7935 25.8531 24.9124 25.3588 24.0314C25.2944 24.1388 25.2299 24.2677 25.1439 24.3752C25.0795 24.4826 24.9935 24.6116 24.9291 24.719C24.8431 24.8265 24.7786 24.9339 24.6927 25.0413C24.6067 25.1488 24.5208 25.2562 24.4348 25.3637L24.4133 25.3852L24.3918 25.4067L24.3703 25.4281L24.3489 25.4496L24.2629 25.5356C24.3274 25.729 24.4133 25.9654 24.5208 26.2232C24.6067 26.4811 24.7142 26.7605 24.8001 27.0183C24.8861 27.2762 24.9505 27.5341 24.972 27.7275C24.9935 27.9209 24.9935 28.0928 24.9076 28.1572C24.8861 28.1787 24.8646 28.2002 24.8216 28.2217C24.8001 28.2432 24.7571 28.2647 24.7142 28.2647C24.6712 28.2862 24.6497 28.2862 24.6067 28.2862C24.5637 28.2862 24.5208 28.2862 24.4778 28.2862C24.4133 28.2862 24.3274 28.2647 24.2414 28.2647C24.1555 28.2432 24.0695 28.2217 23.9835 28.2002C23.8976 28.1787 23.7901 28.1357 23.7042 28.0928C23.5967 28.0498 23.4893 28.0068 23.3819 27.9638C23.2529 27.8994 23.1025 27.8349 22.9521 27.7489C22.8017 27.663 22.6512 27.577 22.5008 27.4911C22.3504 27.4051 22.1785 27.3192 22.0281 27.2117C21.8561 27.1043 21.7057 27.0183 21.5338 26.9109C22.1785 26.2662 22.8017 25.5571 23.3604 24.8265C23.9191 24.0743 24.4348 23.3007 24.8861 22.4842C25.3373 21.6676 25.7241 20.8295 26.0465 19.9485C26.3688 19.0889 26.6267 18.1864 26.7986 17.2839C27.2069 15.2424 27.1854 13.3299 26.7986 11.6323C26.4333 9.95614 25.7241 8.47341 24.7357 7.29152C23.7687 6.10963 22.5438 5.20709 21.1255 4.62689C19.7287 4.04669 18.1171 3.81032 16.398 3.91776C15.2591 4.00372 14.1201 4.24009 13.0242 4.6054C11.9283 4.97072 10.8753 5.46496 9.86534 6.06665C8.85537 6.66834 7.88837 7.37747 7.00732 8.19405C6.10479 8.98914 5.28821 9.89167 4.5361 10.8587C4.3427 10.4934 4.17079 10.128 4.04185 9.82721C3.91292 9.50487 3.80548 9.22552 3.7625 8.96765C3.69803 8.70978 3.67654 8.49489 3.69803 8.30149C3.71952 8.10809 3.78399 7.95767 3.86994 7.85023C3.89143 7.80725 3.93441 7.78576 3.99888 7.74278C4.04185 7.69981 4.10632 7.67832 4.17079 7.65683C4.23525 7.63534 4.32121 7.61385 4.40716 7.59236C4.49312 7.57087 4.57908 7.57087 4.66503 7.54938C4.77248 7.54938 4.87992 7.54938 4.98736 7.57087C5.09481 7.59236 5.20225 7.61385 5.33119 7.65683C5.43863 7.69981 5.56756 7.74278 5.67501 7.82874C5.78245 7.89321 5.91139 7.97916 6.01883 8.08661C6.12628 7.95767 6.25521 7.82874 6.36265 7.6998C6.49159 7.57087 6.59903 7.46343 6.72796 7.33449C6.8569 7.22705 6.98583 7.09812 7.11477 6.99067C7.2437 6.88323 7.39412 6.77578 7.54454 6.66834C7.56603 6.66834 7.56603 6.64685 7.58752 6.64685C7.60901 6.64685 7.60901 6.62536 7.6305 6.62536C7.65199 6.62536 7.65199 6.60387 7.67348 6.60387C7.69497 6.60387 7.69497 6.58238 7.71645 6.58238C7.45859 6.346 7.17923 6.1526 6.89988 6.00218C6.62052 5.85176 6.31968 5.72283 6.01883 5.63687C5.71799 5.55092 5.41714 5.48645 5.1163 5.46496C4.81545 5.44347 4.5361 5.42198 4.25674 5.44347C4.06334 5.46496 3.89143 5.48645 3.71952 5.50794C3.54761 5.55092 3.39719 5.59389 3.24676 5.63687C3.09634 5.67985 2.96741 5.74432 2.85996 5.83027C2.75252 5.89474 2.64508 5.98069 2.58061 6.06665C2.34423 6.32452 2.2153 6.64685 2.15083 7.03365C2.08636 7.42045 2.10785 7.89321 2.2153 8.40894C2.32274 8.92467 2.49465 9.50487 2.73103 10.1495C2.9889 10.7727 3.28974 11.4604 3.69803 12.191C3.44016 12.5993 3.1823 13.0076 2.94592 13.4373C2.70954 13.8671 2.49465 14.2969 2.30125 14.7482C2.10785 15.1994 1.91445 15.6507 1.76403 16.1235C1.59212 16.5962 1.46319 17.069 1.33425 17.5417C0.861497 19.3683 0.711075 21.1304 0.861497 22.7635C1.01192 24.4182 1.48467 25.9224 2.23679 27.2332C2.9889 28.5655 4.04185 29.6615 5.33119 30.478C6.64201 31.2946 8.2107 31.8103 9.99428 31.9178C10.5315 31.9393 11.0472 31.9393 11.5845 31.8963C12.1217 31.8533 12.6589 31.7889 13.1961 31.6814C13.7333 31.574 14.2706 31.4235 14.8078 31.2516C15.345 31.0797 15.8607 30.8648 16.398 30.6285L15.1301 28.2432C14.7648 28.3936 14.3995 28.5225 14.0127 28.63C13.6474 28.7374 13.2606 28.8234 12.8953 28.8879C12.53 28.9523 12.1432 28.9953 11.7779 29.0383C11.4125 29.0598 11.0257 29.0598 10.6604 29.0598C9.22068 28.9953 7.95283 28.6085 6.89988 27.9638C5.84692 27.3192 4.98736 26.4381 4.36419 25.3852C3.74101 24.3322 3.35421 23.1073 3.20379 21.775C3.05336 20.4642 3.16081 19.0245 3.54761 17.5417C3.93441 16.059 4.55759 14.6622 5.35268 13.3729C6.14776 12.105 7.13625 10.9446 8.23219 9.95614C9.32812 8.96765 10.553 8.15107 11.8423 7.54938C13.1531 6.94769 14.5284 6.58238 15.9037 6.49643C17.3005 6.41047 18.5898 6.64685 19.7287 7.1196C20.8677 7.61385 21.8561 8.36596 22.6083 9.31147C23.3819 10.2785 23.9406 11.4819 24.2199 12.8357C24.4993 14.2109 24.4993 15.7367 24.1769 17.3698C24.0265 18.0789 23.8331 18.7881 23.5753 19.4757C23.3174 20.1634 23.0165 20.8295 22.6512 21.4742C22.3074 22.1189 21.8991 22.742 21.4479 23.3222C21.0181 23.9024 20.5238 24.4611 20.0296 24.9769C20.0296 24.805 20.0511 24.633 20.0511 24.4396C20.0511 24.2677 20.0726 24.0743 20.0726 23.9239C20.0726 23.752 20.0941 23.6016 20.0941 23.4727C20.0941 23.3437 20.0941 23.2363 20.0941 23.1718C20.0941 23.1073 20.0941 23.0429 20.0726 22.9999C20.0511 22.9569 20.0511 22.9139 20.0296 22.8925C20.0081 22.871 19.9866 22.8495 19.9651 22.8495C19.9436 22.828 19.9007 22.828 19.8792 22.828C19.8577 22.828 19.8362 22.828 19.8147 22.828C19.7932 22.828 19.7717 22.828 19.7502 22.8495C19.7287 22.8495 19.7287 22.871 19.7073 22.871H19.6858L15.2591 24.3107C15.2591 24.3107 15.2161 24.3322 15.1731 24.3537C15.1301 24.3752 15.0657 24.4182 15.0227 24.4611C14.9797 24.5256 14.9367 24.5901 14.9152 24.676C14.9152 24.762 14.9367 24.8909 15.0012 25.0413C15.0012 25.0413 15.0012 25.0628 15.0227 25.0628C15.0227 25.0628 15.0227 25.0843 15.0442 25.0843C15.0442 25.0843 15.0442 25.1058 15.0657 25.1058C15.0657 25.1058 15.0657 25.1273 15.0871 25.1273C15.2805 25.5356 15.5599 26.0728 15.9037 26.6745C16.2261 27.2977 16.5914 27.9853 16.9567 28.6515C17.322 29.3391 17.6873 30.0053 18.0096 30.5855C18.332 31.1657 18.5898 31.6599 18.7617 31.9608C18.7832 31.9823 18.7832 32.0037 18.8047 32.0467C18.8262 32.0682 18.8262 32.0897 18.8477 32.1112C18.8692 32.1327 18.8692 32.1542 18.8692 32.1757C18.8692 32.1971 18.8907 32.2186 18.8907 32.2186C18.9337 32.3046 18.9766 32.3691 19.0196 32.412C19.0626 32.4765 19.1056 32.5195 19.1271 32.541C19.17 32.5839 19.1915 32.6054 19.2345 32.6269C19.2775 32.6484 19.299 32.6484 19.3205 32.6484C19.3849 32.6484 19.4279 32.6269 19.4709 32.6054C19.5139 32.5839 19.5568 32.5195 19.5783 32.4765C19.5998 32.4335 19.6428 32.3691 19.6643 32.3261C19.6858 32.2831 19.6858 32.2186 19.7073 32.1757C19.7073 32.1542 19.7073 32.1542 19.7073 32.1327C19.7073 32.1112 19.7073 32.0897 19.7073 32.0467C19.7073 32.0252 19.7073 31.9823 19.7073 31.9608C19.7073 31.9178 19.7073 31.8963 19.7073 31.8533C19.7073 31.7029 19.7287 31.531 19.7287 31.3591C19.7287 31.1872 19.7502 30.9938 19.7502 30.8218C19.7502 30.6499 19.7717 30.4995 19.7717 30.3921C19.7717 30.2846 19.7932 30.1987 19.7932 30.1987C20.3949 30.564 21.0181 30.9078 21.5983 31.2516C22.2 31.574 22.7802 31.8963 23.3604 32.1542C23.9191 32.412 24.4778 32.6484 24.972 32.7988C25.4663 32.9707 25.939 33.0567 26.3258 33.0997C26.3903 33.0997 26.4333 33.0997 26.4977 33.0997C26.5407 33.0997 26.6052 33.0997 26.6482 33.0997C26.6911 33.0997 26.7556 33.0997 26.7986 33.0782C26.8416 33.0782 26.8845 33.0567 26.949 33.0567C27.0135 33.0352 27.0779 33.0352 27.1424 33.0137C27.2069 32.9922 27.2713 32.9707 27.3358 32.9278C27.4003 32.9063 27.4433 32.8633 27.5077 32.8203C27.5507 32.7773 27.6152 32.7344 27.6581 32.6914C27.9375 32.3905 28.0664 31.9178 28.0664 31.3161C28.0664 30.7359 27.916 30.0268 27.7011 29.2317L27.6367 29.1457Z" fill="#929392"/>
<path d="M11.6275 14.0399C11.9498 14.0399 12.1862 14.1258 12.3796 14.2977C12.573 14.4697 12.6589 14.706 12.6589 15.0284C12.6589 15.3507 12.5515 15.6086 12.3581 15.7805C12.1432 15.9524 11.8853 16.0598 11.5415 16.0598C10.7679 16.0598 10.3811 15.716 10.3811 15.0499H9.24219V15.1358C9.24219 15.759 9.45708 16.2317 9.86537 16.5541C10.2737 16.8979 10.8324 17.0483 11.5415 17.0483C12.1862 17.0483 12.7234 16.8764 13.1747 16.5111C13.6259 16.1673 13.8408 15.6515 13.8408 15.0284C13.8408 14.8135 13.7978 14.5986 13.7334 14.4052C13.6689 14.2118 13.5829 14.0614 13.5185 13.9539C13.4325 13.8465 13.3466 13.739 13.2391 13.6746C13.1317 13.5886 13.0457 13.5456 13.0027 13.5241C12.9598 13.5027 12.9168 13.4812 12.8953 13.4812L12.9813 13.4382C13.0457 13.4167 13.1102 13.3522 13.1961 13.2663C13.2821 13.1803 13.3681 13.0944 13.4325 12.9869C13.5185 12.8795 13.5829 12.7291 13.6474 12.5571C13.7119 12.3852 13.7334 12.1918 13.7334 11.9984C13.7334 11.4182 13.54 10.967 13.1532 10.6446C12.7664 10.3223 12.2291 10.1504 11.563 10.1504C10.8968 10.1504 10.3811 10.3008 9.97281 10.6446C9.56452 10.967 9.37112 11.4182 9.37112 11.9984V12.0629H10.4885C10.4885 11.7406 10.596 11.5042 10.7679 11.3538C10.9613 11.2033 11.2192 11.1174 11.563 11.1174C11.9068 11.1174 12.1862 11.2033 12.3581 11.3538C12.53 11.5257 12.6374 11.7406 12.6374 12.0199C12.6374 12.3208 12.5515 12.5786 12.3581 12.7505C12.1647 12.9225 11.9283 13.0084 11.6275 13.0084H10.4885V13.9969L11.6919 14.0184L11.6275 14.0399ZM19.256 16.9624V15.9094H16.5054L18.0956 14.3407C18.5254 13.9324 18.8262 13.5456 18.9981 13.2018C19.1701 12.858 19.256 12.4927 19.256 12.1274C19.256 11.5257 19.0626 11.0314 18.6973 10.7091C18.3105 10.3653 17.7948 10.1934 17.1071 10.1934C16.4195 10.1934 15.8823 10.3653 15.474 10.7091C15.0657 11.0529 14.8723 11.5257 14.8723 12.1489V12.2133H16.0112C16.0112 11.5472 16.355 11.2033 17.0856 11.2033C17.7733 11.2033 18.1171 11.5257 18.1171 12.1703C18.1171 12.4282 18.0526 12.6646 17.9452 12.901C17.8377 13.1373 17.6229 13.3952 17.3435 13.6746L15.0227 15.9309V16.9839H19.299L19.256 16.9624Z" fill="#929392"/>
<path d="M10.7467 22.6143V17.5645H9.90864V21.411L7.91017 17.5645H6.66382V22.6143H7.50188V18.7893L9.52184 22.6143H10.7467ZM12.5088 22.1416C12.5088 22.0127 12.4658 21.9267 12.3799 21.8407C12.2939 21.7763 12.1865 21.7333 12.036 21.7333C11.9071 21.7333 11.7997 21.7763 11.7137 21.8407C11.6278 21.9052 11.5848 22.0127 11.5848 22.1416V22.292C11.5848 22.4209 11.6278 22.5069 11.7137 22.5929C11.7997 22.6573 11.9071 22.7003 12.0575 22.7003C12.208 22.7003 12.3154 22.6573 12.4014 22.5929C12.4873 22.5284 12.5303 22.4209 12.5303 22.292L12.5088 22.1416ZM16.3123 21.2605H15.5172C15.5172 21.7333 15.2594 21.9697 14.7651 21.9697C14.2709 21.9697 14.0345 21.7118 14.0345 21.2176V20.4655C14.0345 19.9497 14.2709 19.7133 14.7651 19.7133C15.2594 19.7133 15.5172 19.9497 15.5172 20.4225H16.3123V20.358C16.3123 19.9282 16.1834 19.5844 15.904 19.348C15.6247 19.1117 15.2594 18.9827 14.7866 18.9827C14.3139 18.9827 13.9486 19.1117 13.6692 19.348C13.3898 19.6059 13.2394 19.9497 13.2394 20.3795V21.2605C13.2394 21.6903 13.3898 22.0341 13.6692 22.292C13.9486 22.5284 14.3139 22.6573 14.7866 22.6573C15.2594 22.6573 15.6462 22.5499 15.9255 22.3135C16.2049 22.0771 16.3553 21.7333 16.3553 21.3035L16.3338 21.2605H16.3123ZM21.9854 22.6143V20.1001C21.9854 19.7563 21.8994 19.4985 21.7275 19.3051C21.5556 19.1117 21.2978 19.0257 20.9969 19.0257C20.7176 19.0257 20.4382 19.1117 20.1803 19.2621L19.7935 19.4985C19.6431 19.1761 19.3638 19.0257 18.9555 19.0257C18.6976 19.0257 18.4397 19.0902 18.2034 19.2406L17.881 19.434V19.0687H17.0644V22.6358H17.881V20.1861L18.3108 19.9282C18.4827 19.8423 18.6331 19.7993 18.7406 19.7993C18.9984 19.7993 19.1059 19.9497 19.1059 20.2506V22.6573H19.9225V20.2076L20.3522 19.9497C20.5242 19.8638 20.6746 19.7993 20.782 19.7993C21.0399 19.7993 21.1688 19.9497 21.1688 20.2291V22.6573H21.9854V22.6143Z" fill="#929392"/>
<path d="M24.263 13.1159C27.6583 13.1159 30.4303 10.3653 30.4303 6.94856C30.4303 3.53183 27.6797 0.78125 24.263 0.78125C20.8463 0.78125 18.0957 3.53183 18.0957 6.94856C18.0957 10.3438 20.8463 13.1159 24.263 13.1159Z" fill="#929392"/>
<path d="M24.263 13.1159C27.6583 13.1159 30.4303 10.3653 30.4303 6.94856C30.4303 3.53183 27.6797 0.78125 24.263 0.78125C20.8463 0.78125 18.0957 3.53183 18.0957 6.94856C18.0957 10.3438 20.8463 13.1159 24.263 13.1159Z" stroke="white" stroke-width="0.623178"/>
<path d="M26.4547 10.4721V9.80593H24.9505V3.91797H24.1769C23.7042 4.34775 23.2529 4.64859 22.8016 4.79901V5.50815C23.2959 5.42219 23.7686 5.16432 24.1984 4.73455V9.82741H22.2859V10.4936H26.4547V10.4721Z" fill="#FEFEFE"/>
</svg>
