<svg width="16" height="15" viewBox="0 0 16 15" fill="none" xmlns="http://www.w3.org/2000/svg">
<path d="M8.76771 4.97213C8.76771 4.8521 8.72003 4.73698 8.63515 4.6521C8.55027 4.56722 8.43515 4.51953 8.31511 4.51953C8.19507 4.51953 8.07995 4.56722 7.99507 4.6521C7.91019 4.73698 7.86251 4.8521 7.86251 4.97213V6.32994H6.5047C6.38466 6.32994 6.26954 6.37763 6.18466 6.46251C6.09978 6.54739 6.05209 6.66251 6.05209 6.78255C6.05209 6.90258 6.09978 7.01771 6.18466 7.10258C6.26954 7.18746 6.38466 7.23515 6.5047 7.23515H7.86251V8.59296C7.86251 8.713 7.91019 8.82812 7.99507 8.913C8.07995 8.99788 8.19507 9.04556 8.31511 9.04556C8.43515 9.04556 8.55027 8.99788 8.63515 8.913C8.72003 8.82812 8.76771 8.713 8.76771 8.59296V7.23515H10.1255C10.2456 7.23515 10.3607 7.18746 10.4456 7.10258C10.5304 7.01771 10.5781 6.90258 10.5781 6.78255C10.5781 6.66251 10.5304 6.54739 10.4456 6.46251C10.3607 6.37763 10.2456 6.32994 10.1255 6.32994H8.76771V4.97213Z" fill="#363330"/>
<path d="M1.07345 0.898438C0.953415 0.898438 0.838293 0.946122 0.753414 1.031C0.668534 1.11588 0.62085 1.231 0.62085 1.35104C0.62085 1.47108 0.668534 1.5862 0.753414 1.67108C0.838293 1.75596 0.953415 1.80364 1.07345 1.80364H2.07823L2.44122 3.25831L3.79722 10.4864C3.81663 10.5901 3.87168 10.6838 3.95283 10.7512C4.03399 10.8186 4.13616 10.8556 4.24167 10.8557H5.14688C4.66673 10.8557 4.20624 11.0464 3.86672 11.386C3.52721 11.7255 3.33647 12.186 3.33647 12.6661C3.33647 13.1463 3.52721 13.6068 3.86672 13.9463C4.20624 14.2858 4.66673 14.4765 5.14688 14.4765C5.62703 14.4765 6.08752 14.2858 6.42703 13.9463C6.76655 13.6068 6.95729 13.1463 6.95729 12.6661C6.95729 12.186 6.76655 11.7255 6.42703 11.386C6.08752 11.0464 5.62703 10.8557 5.14688 10.8557H11.4833C11.0032 10.8557 10.5427 11.0464 10.2032 11.386C9.86365 11.7255 9.67291 12.186 9.67291 12.6661C9.67291 13.1463 9.86365 13.6068 10.2032 13.9463C10.5427 14.2858 11.0032 14.4765 11.4833 14.4765C11.9635 14.4765 12.424 14.2858 12.7635 13.9463C13.103 13.6068 13.2937 13.1463 13.2937 12.6661C13.2937 12.186 13.103 11.7255 12.7635 11.386C12.424 11.0464 11.9635 10.8557 11.4833 10.8557H12.3885C12.494 10.8556 12.5962 10.8186 12.6774 10.7512C12.7585 10.6838 12.8136 10.5901 12.833 10.4864L14.1908 3.24473C14.203 3.17941 14.2007 3.1122 14.184 3.04787C14.1674 2.98354 14.1367 2.92367 14.0943 2.87251C14.0519 2.82136 13.9987 2.78018 13.9386 2.75189C13.8784 2.72361 13.8128 2.70891 13.7463 2.70885H3.2369L2.87029 1.24151C2.84585 1.14355 2.78937 1.05658 2.70982 0.994412C2.63027 0.932248 2.53222 0.898465 2.43126 0.898438H1.07345ZM4.61733 9.9505L3.4288 3.61406H13.2014L12.0129 9.9505H4.61733ZM6.05209 12.6661C6.05209 12.9062 5.95672 13.1364 5.78696 13.3062C5.6172 13.476 5.38696 13.5713 5.14688 13.5713C4.9068 13.5713 4.67656 13.476 4.5068 13.3062C4.33704 13.1364 4.24167 12.9062 4.24167 12.6661C4.24167 12.426 4.33704 12.1958 4.5068 12.026C4.67656 11.8563 4.9068 11.7609 5.14688 11.7609C5.38696 11.7609 5.6172 11.8563 5.78696 12.026C5.95672 12.1958 6.05209 12.426 6.05209 12.6661ZM12.3885 12.6661C12.3885 12.9062 12.2932 13.1364 12.1234 13.3062C11.9536 13.476 11.7234 13.5713 11.4833 13.5713C11.2432 13.5713 11.013 13.476 10.8432 13.3062C10.6735 13.1364 10.5781 12.9062 10.5781 12.6661C10.5781 12.426 10.6735 12.1958 10.8432 12.026C11.013 11.8563 11.2432 11.7609 11.4833 11.7609C11.7234 11.7609 11.9536 11.8563 12.1234 12.026C12.2932 12.1958 12.3885 12.426 12.3885 12.6661Z" fill="#363330"/>
</svg>
