<svg width="15" height="15" viewBox="0 0 15 15" fill="none" xmlns="http://www.w3.org/2000/svg">
<path d="M8.14003 5.35104C8.14003 5.231 8.09234 5.11588 8.00746 5.031C7.92258 4.94612 7.80746 4.89844 7.68742 4.89844C7.56739 4.89844 7.45226 4.94612 7.36738 5.031C7.2825 5.11588 7.23482 5.231 7.23482 5.35104V6.70885H5.87701C5.75697 6.70885 5.64185 6.75653 5.55697 6.84141C5.47209 6.92629 5.42441 7.04141 5.42441 7.16145C5.42441 7.28149 5.47209 7.39661 5.55697 7.48149C5.64185 7.56637 5.75697 7.61406 5.87701 7.61406H7.23482V8.97186C7.23482 9.0919 7.2825 9.20702 7.36738 9.2919C7.45226 9.37678 7.56739 9.42447 7.68742 9.42447C7.80746 9.42447 7.92258 9.37678 8.00746 9.2919C8.09234 9.20702 8.14003 9.0919 8.14003 8.97186V7.61406H9.49784C9.61787 7.61406 9.73299 7.56637 9.81787 7.48149C9.90275 7.39661 9.95044 7.28149 9.95044 7.16145C9.95044 7.04141 9.90275 6.92629 9.81787 6.84141C9.73299 6.75653 9.61787 6.70885 9.49784 6.70885H8.14003V5.35104Z" fill="#363330"/>
<path d="M0.445767 1.27734C0.325729 1.27734 0.210608 1.32503 0.125728 1.40991C0.0408489 1.49479 -0.00683594 1.60991 -0.00683594 1.72995C-0.00683594 1.84998 0.0408489 1.96511 0.125728 2.04999C0.210608 2.13486 0.325729 2.18255 0.445767 2.18255H1.45055L1.81353 3.63722L3.16953 10.8653C3.18895 10.969 3.24399 11.0627 3.32515 11.1301C3.4063 11.1975 3.50847 11.2345 3.61399 11.2346H4.51919C4.03904 11.2346 3.57856 11.4253 3.23904 11.7649C2.89952 12.1044 2.70878 12.5649 2.70878 13.045C2.70878 13.5252 2.89952 13.9857 3.23904 14.3252C3.57856 14.6647 4.03904 14.8554 4.51919 14.8554C4.99935 14.8554 5.45983 14.6647 5.79935 14.3252C6.13887 13.9857 6.32961 13.5252 6.32961 13.045C6.32961 12.5649 6.13887 12.1044 5.79935 11.7649C5.45983 11.4253 4.99935 11.2346 4.51919 11.2346H10.8556C10.3755 11.2346 9.915 11.4253 9.57548 11.7649C9.23596 12.1044 9.04522 12.5649 9.04522 13.045C9.04522 13.5252 9.23596 13.9857 9.57548 14.3252C9.915 14.6647 10.3755 14.8554 10.8556 14.8554C11.3358 14.8554 11.7963 14.6647 12.1358 14.3252C12.4753 13.9857 12.666 13.5252 12.666 13.045C12.666 12.5649 12.4753 12.1044 12.1358 11.7649C11.7963 11.4253 11.3358 11.2346 10.8556 11.2346H11.7608C11.8664 11.2345 11.9685 11.1975 12.0497 11.1301C12.1308 11.0627 12.1859 10.969 12.2053 10.8653L13.5631 3.62364C13.5753 3.55832 13.573 3.4911 13.5563 3.42677C13.5397 3.36244 13.509 3.30257 13.4666 3.25142C13.4242 3.20027 13.371 3.15909 13.3109 3.1308C13.2507 3.10251 13.1851 3.08782 13.1187 3.08776H2.60921L2.2426 1.62042C2.21817 1.52246 2.16169 1.43548 2.08214 1.37332C2.00259 1.31115 1.90453 1.27737 1.80358 1.27734H0.445767ZM3.98965 10.3294L2.80111 3.99296H12.5737L11.3852 10.3294H3.98965ZM5.4244 13.045C5.4244 13.2851 5.32903 13.5153 5.15927 13.6851C4.98951 13.8549 4.75927 13.9502 4.51919 13.9502C4.27912 13.9502 4.04888 13.8549 3.87912 13.6851C3.70936 13.5153 3.61399 13.2851 3.61399 13.045C3.61399 12.8049 3.70936 12.5747 3.87912 12.4049C4.04888 12.2352 4.27912 12.1398 4.51919 12.1398C4.75927 12.1398 4.98951 12.2352 5.15927 12.4049C5.32903 12.5747 5.4244 12.8049 5.4244 13.045ZM11.7608 13.045C11.7608 13.2851 11.6655 13.5153 11.4957 13.6851C11.326 13.8549 11.0957 13.9502 10.8556 13.9502C10.6156 13.9502 10.3853 13.8549 10.2156 13.6851C10.0458 13.5153 9.95043 13.2851 9.95043 13.045C9.95043 12.8049 10.0458 12.5747 10.2156 12.4049C10.3853 12.2352 10.6156 12.1398 10.8556 12.1398C11.0957 12.1398 11.326 12.2352 11.4957 12.4049C11.6655 12.5747 11.7608 12.8049 11.7608 13.045Z" fill="#363330"/>
</svg>
