<svg width="15" height="16" viewBox="0 0 15 16" fill="none" xmlns="http://www.w3.org/2000/svg">
<path d="M8.26066 5.78268C8.26066 5.66264 8.21298 5.54752 8.1281 5.46264C8.04322 5.37776 7.9281 5.33008 7.80806 5.33008C7.68802 5.33008 7.5729 5.37776 7.48802 5.46264C7.40314 5.54752 7.35546 5.66264 7.35546 5.78268V7.14049H5.99765C5.87761 7.14049 5.76249 7.18818 5.67761 7.27305C5.59273 7.35793 5.54504 7.47306 5.54504 7.59309C5.54504 7.71313 5.59273 7.82825 5.67761 7.91313C5.76249 7.99801 5.87761 8.0457 5.99765 8.0457H7.35546V9.40351C7.35546 9.52354 7.40314 9.63866 7.48802 9.72354C7.5729 9.80842 7.68802 9.85611 7.80806 9.85611C7.9281 9.85611 8.04322 9.80842 8.1281 9.72354C8.21298 9.63866 8.26066 9.52354 8.26066 9.40351V8.0457H9.61847C9.73851 8.0457 9.85363 7.99801 9.93851 7.91313C10.0234 7.82825 10.0711 7.71313 10.0711 7.59309C10.0711 7.47306 10.0234 7.35793 9.93851 7.27305C9.85363 7.18818 9.73851 7.14049 9.61847 7.14049H8.26066V5.78268Z" fill="#363330"/>
<path d="M0.566418 1.70898C0.446381 1.70898 0.331259 1.75667 0.24638 1.84155C0.1615 1.92643 0.113815 2.04155 0.113815 2.16159C0.113815 2.28163 0.1615 2.39675 0.24638 2.48163C0.331259 2.56651 0.446381 2.61419 0.566418 2.61419H1.5712L1.93418 4.06886L3.29018 11.2969C3.3096 11.4006 3.36464 11.4943 3.4458 11.5618C3.52695 11.6292 3.62912 11.6662 3.73464 11.6663H4.63985C4.15969 11.6663 3.69921 11.857 3.35969 12.1965C3.02017 12.536 2.82943 12.9965 2.82943 13.4767C2.82943 13.9568 3.02017 14.4173 3.35969 14.7568C3.69921 15.0963 4.15969 15.2871 4.63985 15.2871C5.12 15.2871 5.58048 15.0963 5.92 14.7568C6.25952 14.4173 6.45026 13.9568 6.45026 13.4767C6.45026 12.9965 6.25952 12.536 5.92 12.1965C5.58048 11.857 5.12 11.6663 4.63985 11.6663H10.9763C10.4961 11.6663 10.0357 11.857 9.69613 12.1965C9.35662 12.536 9.16588 12.9965 9.16588 13.4767C9.16588 13.9568 9.35662 14.4173 9.69613 14.7568C10.0357 15.0963 10.4961 15.2871 10.9763 15.2871C11.4564 15.2871 11.9169 15.0963 12.2564 14.7568C12.596 14.4173 12.7867 13.9568 12.7867 13.4767C12.7867 12.9965 12.596 12.536 12.2564 12.1965C11.9169 11.857 11.4564 11.6663 10.9763 11.6663H11.8815C11.987 11.6662 12.0892 11.6292 12.1703 11.5618C12.2515 11.4943 12.3065 11.4006 12.3259 11.2969L13.6838 4.05528C13.696 3.98996 13.6937 3.92274 13.677 3.85841C13.6603 3.79408 13.6297 3.73421 13.5873 3.68306C13.5448 3.63191 13.4917 3.59073 13.4315 3.56244C13.3714 3.53415 13.3058 3.51946 13.2393 3.5194H2.72986L2.36325 2.05206C2.33882 1.9541 2.28234 1.86712 2.20279 1.80496C2.12324 1.74279 2.02519 1.70901 1.92423 1.70898H0.566418ZM4.1103 10.761L2.92176 4.4246H12.6944L11.5058 10.761H4.1103ZM5.54505 13.4767C5.54505 13.7167 5.44968 13.947 5.27992 14.1167C5.11016 14.2865 4.87992 14.3819 4.63985 14.3819C4.39977 14.3819 4.16953 14.2865 3.99977 14.1167C3.83001 13.947 3.73464 13.7167 3.73464 13.4767C3.73464 13.2366 3.83001 13.0063 3.99977 12.8366C4.16953 12.6668 4.39977 12.5715 4.63985 12.5715C4.87992 12.5715 5.11016 12.6668 5.27992 12.8366C5.44968 13.0063 5.54505 13.2366 5.54505 13.4767ZM11.8815 13.4767C11.8815 13.7167 11.7861 13.947 11.6164 14.1167C11.4466 14.2865 11.2164 14.3819 10.9763 14.3819C10.7362 14.3819 10.506 14.2865 10.3362 14.1167C10.1665 13.947 10.0711 13.7167 10.0711 13.4767C10.0711 13.2366 10.1665 13.0063 10.3362 12.8366C10.506 12.6668 10.7362 12.5715 10.9763 12.5715C11.2164 12.5715 11.4466 12.6668 11.6164 12.8366C11.7861 13.0063 11.8815 13.2366 11.8815 13.4767Z" fill="#363330"/>
</svg>
