<svg width="16" height="16" viewBox="0 0 16 16" fill="none" xmlns="http://www.w3.org/2000/svg">
<path d="M8.69004 5.78268C8.69004 5.66264 8.64236 5.54752 8.55748 5.46264C8.4726 5.37776 8.35748 5.33008 8.23744 5.33008C8.1174 5.33008 8.00228 5.37776 7.9174 5.46264C7.83252 5.54752 7.78484 5.66264 7.78484 5.78268V7.14049H6.42703C6.30699 7.14049 6.19187 7.18818 6.10699 7.27305C6.02211 7.35793 5.97443 7.47306 5.97443 7.59309C5.97443 7.71313 6.02211 7.82825 6.10699 7.91313C6.19187 7.99801 6.30699 8.0457 6.42703 8.0457H7.78484V9.40351C7.78484 9.52354 7.83252 9.63866 7.9174 9.72354C8.00228 9.80842 8.1174 9.85611 8.23744 9.85611C8.35748 9.85611 8.4726 9.80842 8.55748 9.72354C8.64236 9.63866 8.69004 9.52354 8.69004 9.40351V8.0457H10.0479C10.1679 8.0457 10.283 7.99801 10.3679 7.91313C10.4528 7.82825 10.5005 7.71313 10.5005 7.59309C10.5005 7.47306 10.4528 7.35793 10.3679 7.27305C10.283 7.18818 10.1679 7.14049 10.0479 7.14049H8.69004V5.78268Z" fill="#363330"/>
<path d="M0.995801 1.70898C0.875763 1.70898 0.760642 1.75667 0.675762 1.84155C0.590882 1.92643 0.543198 2.04155 0.543198 2.16159C0.543198 2.28163 0.590882 2.39675 0.675762 2.48163C0.760642 2.56651 0.875763 2.61419 0.995801 2.61419H2.00058L2.36357 4.06886L3.71957 11.2969C3.73898 11.4006 3.79402 11.4943 3.87518 11.5618C3.95634 11.6292 4.0585 11.6662 4.16402 11.6663H5.06923C4.58908 11.6663 4.12859 11.857 3.78907 12.1965C3.44955 12.536 3.25882 12.9965 3.25882 13.4767C3.25882 13.9568 3.44955 14.4173 3.78907 14.7568C4.12859 15.0963 4.58908 15.2871 5.06923 15.2871C5.54938 15.2871 6.00986 15.0963 6.34938 14.7568C6.6889 14.4173 6.87964 13.9568 6.87964 13.4767C6.87964 12.9965 6.6889 12.536 6.34938 12.1965C6.00986 11.857 5.54938 11.6663 5.06923 11.6663H11.4057C10.9255 11.6663 10.465 11.857 10.1255 12.1965C9.786 12.536 9.59526 12.9965 9.59526 13.4767C9.59526 13.9568 9.786 14.4173 10.1255 14.7568C10.465 15.0963 10.9255 15.2871 11.4057 15.2871C11.8858 15.2871 12.3463 15.0963 12.6858 14.7568C13.0253 14.4173 13.2161 13.9568 13.2161 13.4767C13.2161 12.9965 13.0253 12.536 12.6858 12.1965C12.3463 11.857 11.8858 11.6663 11.4057 11.6663H12.3109C12.4164 11.6662 12.5186 11.6292 12.5997 11.5618C12.6809 11.4943 12.7359 11.4006 12.7553 11.2969L14.1131 4.05528C14.1254 3.98996 14.1231 3.92274 14.1064 3.85841C14.0897 3.79408 14.0591 3.73421 14.0166 3.68306C13.9742 3.63191 13.921 3.59073 13.8609 3.56244C13.8008 3.53415 13.7351 3.51946 13.6687 3.5194H3.15924L2.79263 2.05206C2.7682 1.9541 2.71172 1.86712 2.63217 1.80496C2.55262 1.74279 2.45457 1.70901 2.35361 1.70898H0.995801ZM4.53968 10.761L3.35115 4.4246H13.1238L11.9352 10.761H4.53968ZM5.97443 13.4767C5.97443 13.7167 5.87906 13.947 5.7093 14.1167C5.53955 14.2865 5.3093 14.3819 5.06923 14.3819C4.82915 14.3819 4.59891 14.2865 4.42915 14.1167C4.25939 13.947 4.16402 13.7167 4.16402 13.4767C4.16402 13.2366 4.25939 13.0063 4.42915 12.8366C4.59891 12.6668 4.82915 12.5715 5.06923 12.5715C5.3093 12.5715 5.53955 12.6668 5.7093 12.8366C5.87906 13.0063 5.97443 13.2366 5.97443 13.4767ZM12.3109 13.4767C12.3109 13.7167 12.2155 13.947 12.0457 14.1167C11.876 14.2865 11.6457 14.3819 11.4057 14.3819C11.1656 14.3819 10.9354 14.2865 10.7656 14.1167C10.5958 13.947 10.5005 13.7167 10.5005 13.4767C10.5005 13.2366 10.5958 13.0063 10.7656 12.8366C10.9354 12.6668 11.1656 12.5715 11.4057 12.5715C11.6457 12.5715 11.876 12.6668 12.0457 12.8366C12.2155 13.0063 12.3109 13.2366 12.3109 13.4767Z" fill="#363330"/>
</svg>
