<svg width="15" height="15" viewBox="0 0 15 15" fill="none" xmlns="http://www.w3.org/2000/svg">
<path d="M8.42884 5.30612C8.42884 5.18608 8.38116 5.07096 8.29628 4.98608C8.2114 4.9012 8.09628 4.85352 7.97624 4.85352C7.8562 4.85352 7.74108 4.9012 7.6562 4.98608C7.57132 5.07096 7.52364 5.18608 7.52364 5.30612V6.66393H6.16583C6.04579 6.66393 5.93067 6.71161 5.84579 6.79649C5.76091 6.88137 5.71323 6.99649 5.71323 7.11653C5.71323 7.23657 5.76091 7.35169 5.84579 7.43657C5.93067 7.52145 6.04579 7.56913 6.16583 7.56913H7.52364V8.92694C7.52364 9.04698 7.57132 9.1621 7.6562 9.24698C7.74108 9.33186 7.8562 9.37955 7.97624 9.37955C8.09628 9.37955 8.2114 9.33186 8.29628 9.24698C8.38116 9.1621 8.42884 9.04698 8.42884 8.92694V7.56913H9.78665C9.90669 7.56913 10.0218 7.52145 10.1067 7.43657C10.1916 7.35169 10.2393 7.23657 10.2393 7.11653C10.2393 6.99649 10.1916 6.88137 10.1067 6.79649C10.0218 6.71161 9.90669 6.66393 9.78665 6.66393H8.42884V5.30612Z" fill="#363330"/>
<path d="M0.734601 1.23242C0.614563 1.23242 0.499442 1.28011 0.414562 1.36499C0.329683 1.44987 0.281998 1.56499 0.281998 1.68502C0.281998 1.80506 0.329683 1.92018 0.414562 2.00506C0.499442 2.08994 0.614563 2.13763 0.734601 2.13763H1.73938L2.10237 3.59229L3.45837 10.8204C3.47778 10.9241 3.53282 11.0178 3.61398 11.0852C3.69514 11.1526 3.7973 11.1896 3.90282 11.1897H4.80803C4.32788 11.1897 3.86739 11.3804 3.52787 11.7199C3.18835 12.0595 2.99762 12.5199 2.99762 13.0001C2.99762 13.4803 3.18835 13.9407 3.52787 14.2803C3.86739 14.6198 4.32788 14.8105 4.80803 14.8105C5.28818 14.8105 5.74866 14.6198 6.08818 14.2803C6.4277 13.9407 6.61844 13.4803 6.61844 13.0001C6.61844 12.5199 6.4277 12.0595 6.08818 11.7199C5.74866 11.3804 5.28818 11.1897 4.80803 11.1897H11.1445C10.6643 11.1897 10.2038 11.3804 9.86432 11.7199C9.5248 12.0595 9.33406 12.5199 9.33406 13.0001C9.33406 13.4803 9.5248 13.9407 9.86432 14.2803C10.2038 14.6198 10.6643 14.8105 11.1445 14.8105C11.6246 14.8105 12.0851 14.6198 12.4246 14.2803C12.7641 13.9407 12.9549 13.4803 12.9549 13.0001C12.9549 12.5199 12.7641 12.0595 12.4246 11.7199C12.0851 11.3804 11.6246 11.1897 11.1445 11.1897H12.0497C12.1552 11.1896 12.2574 11.1526 12.3385 11.0852C12.4197 11.0178 12.4747 10.9241 12.4941 10.8204L13.8519 3.57872C13.8642 3.51339 13.8619 3.44618 13.8452 3.38185C13.8285 3.31752 13.7979 3.25765 13.7554 3.2065C13.713 3.15535 13.6598 3.11416 13.5997 3.08588C13.5396 3.05759 13.4739 3.0429 13.4075 3.04283H2.89804L2.53143 1.57549C2.507 1.47754 2.45052 1.39056 2.37097 1.3284C2.29142 1.26623 2.19337 1.23245 2.09241 1.23242H0.734601ZM4.27848 10.2845L3.08995 3.94804H12.8626L11.674 10.2845H4.27848ZM5.71323 13.0001C5.71323 13.2402 5.61786 13.4704 5.4481 13.6402C5.27835 13.8099 5.0481 13.9053 4.80803 13.9053C4.56795 13.9053 4.33771 13.8099 4.16795 13.6402C3.99819 13.4704 3.90282 13.2402 3.90282 13.0001C3.90282 12.76 3.99819 12.5298 4.16795 12.36C4.33771 12.1903 4.56795 12.0949 4.80803 12.0949C5.0481 12.0949 5.27835 12.1903 5.4481 12.36C5.61786 12.5298 5.71323 12.76 5.71323 13.0001ZM12.0497 13.0001C12.0497 13.2402 11.9543 13.4704 11.7845 13.6402C11.6148 13.8099 11.3845 13.9053 11.1445 13.9053C10.9044 13.9053 10.6742 13.8099 10.5044 13.6402C10.3346 13.4704 10.2393 13.2402 10.2393 13.0001C10.2393 12.76 10.3346 12.5298 10.5044 12.36C10.6742 12.1903 10.9044 12.0949 11.1445 12.0949C11.3845 12.0949 11.6148 12.1903 11.7845 12.36C11.9543 12.5298 12.0497 12.76 12.0497 13.0001Z" fill="#363330"/>
</svg>
