<svg width="15" height="16" viewBox="0 0 15 16" fill="none" xmlns="http://www.w3.org/2000/svg">
<path d="M8.51918 5.78268C8.51918 5.66264 8.47149 5.54752 8.38661 5.46264C8.30173 5.37776 8.18661 5.33008 8.06657 5.33008C7.94654 5.33008 7.83141 5.37776 7.74653 5.46264C7.66165 5.54752 7.61397 5.66264 7.61397 5.78268V7.14049H6.25616C6.13612 7.14049 6.021 7.18818 5.93612 7.27305C5.85124 7.35793 5.80356 7.47306 5.80356 7.59309C5.80356 7.71313 5.85124 7.82825 5.93612 7.91313C6.021 7.99801 6.13612 8.0457 6.25616 8.0457H7.61397V9.40351C7.61397 9.52354 7.66165 9.63866 7.74653 9.72354C7.83141 9.80842 7.94654 9.85611 8.06657 9.85611C8.18661 9.85611 8.30173 9.80842 8.38661 9.72354C8.47149 9.63866 8.51918 9.52354 8.51918 9.40351V8.0457H9.87699C9.99702 8.0457 10.1121 7.99801 10.197 7.91313C10.2819 7.82825 10.3296 7.71313 10.3296 7.59309C10.3296 7.47306 10.2819 7.35793 10.197 7.27305C10.1121 7.18818 9.99702 7.14049 9.87699 7.14049H8.51918V5.78268Z" fill="#363330"/>
<path d="M0.824917 1.70898C0.70488 1.70898 0.589758 1.75667 0.504879 1.84155C0.419999 1.92643 0.372314 2.04155 0.372314 2.16159C0.372314 2.28163 0.419999 2.39675 0.504879 2.48163C0.589758 2.56651 0.70488 2.61419 0.824917 2.61419H1.8297L2.19268 4.06886L3.54868 11.2969C3.5681 11.4006 3.62314 11.4943 3.7043 11.5618C3.78545 11.6292 3.88762 11.6662 3.99314 11.6663H4.89834C4.41819 11.6663 3.95771 11.857 3.61819 12.1965C3.27867 12.536 3.08793 12.9965 3.08793 13.4767C3.08793 13.9568 3.27867 14.4173 3.61819 14.7568C3.95771 15.0963 4.41819 15.2871 4.89834 15.2871C5.3785 15.2871 5.83898 15.0963 6.1785 14.7568C6.51802 14.4173 6.70876 13.9568 6.70876 13.4767C6.70876 12.9965 6.51802 12.536 6.1785 12.1965C5.83898 11.857 5.3785 11.6663 4.89834 11.6663H11.2348C10.7546 11.6663 10.2942 11.857 9.95463 12.1965C9.61511 12.536 9.42437 12.9965 9.42437 13.4767C9.42437 13.9568 9.61511 14.4173 9.95463 14.7568C10.2942 15.0963 10.7546 15.2871 11.2348 15.2871C11.7149 15.2871 12.1754 15.0963 12.5149 14.7568C12.8545 14.4173 13.0452 13.9568 13.0452 13.4767C13.0452 12.9965 12.8545 12.536 12.5149 12.1965C12.1754 11.857 11.7149 11.6663 11.2348 11.6663H12.14C12.2455 11.6662 12.3477 11.6292 12.4288 11.5618C12.51 11.4943 12.565 11.4006 12.5844 11.2969L13.9423 4.05528C13.9545 3.98996 13.9522 3.92274 13.9355 3.85841C13.9188 3.79408 13.8882 3.73421 13.8458 3.68306C13.8033 3.63191 13.7502 3.59073 13.69 3.56244C13.6299 3.53415 13.5643 3.51946 13.4978 3.5194H2.98836L2.62175 2.05206C2.59732 1.9541 2.54084 1.86712 2.46129 1.80496C2.38174 1.74279 2.28369 1.70901 2.18273 1.70898H0.824917ZM4.3688 10.761L3.18026 4.4246H12.9529L11.7643 10.761H4.3688ZM5.80355 13.4767C5.80355 13.7167 5.70818 13.947 5.53842 14.1167C5.36866 14.2865 5.13842 14.3819 4.89834 14.3819C4.65827 14.3819 4.42803 14.2865 4.25827 14.1167C4.08851 13.947 3.99314 13.7167 3.99314 13.4767C3.99314 13.2366 4.08851 13.0063 4.25827 12.8366C4.42803 12.6668 4.65827 12.5715 4.89834 12.5715C5.13842 12.5715 5.36866 12.6668 5.53842 12.8366C5.70818 13.0063 5.80355 13.2366 5.80355 13.4767ZM12.14 13.4767C12.14 13.7167 12.0446 13.947 11.8749 14.1167C11.7051 14.2865 11.4749 14.3819 11.2348 14.3819C10.9947 14.3819 10.7645 14.2865 10.5947 14.1167C10.425 13.947 10.3296 13.7167 10.3296 13.4767C10.3296 13.2366 10.425 13.0063 10.5947 12.8366C10.7645 12.6668 10.9947 12.5715 11.2348 12.5715C11.4749 12.5715 11.7051 12.6668 11.8749 12.8366C12.0446 13.0063 12.14 13.2366 12.14 13.4767Z" fill="#363330"/>
</svg>
