<svg width="15" height="15" viewBox="0 0 15 15" fill="none" xmlns="http://www.w3.org/2000/svg">
<path d="M8.55891 5.2651C8.55891 5.14507 8.51123 5.02994 8.42635 4.94506C8.34147 4.86018 8.22635 4.8125 8.10631 4.8125C7.98627 4.8125 7.87115 4.86018 7.78627 4.94506C7.70139 5.02994 7.6537 5.14507 7.6537 5.2651V6.62291H6.2959C6.17586 6.62291 6.06074 6.6706 5.97586 6.75548C5.89098 6.84036 5.84329 6.95548 5.84329 7.07552C5.84329 7.19555 5.89098 7.31067 5.97586 7.39555C6.06074 7.48043 6.17586 7.52812 6.2959 7.52812H7.6537V8.88593C7.6537 9.00596 7.70139 9.12109 7.78627 9.20597C7.87115 9.29085 7.98627 9.33853 8.10631 9.33853C8.22635 9.33853 8.34147 9.29085 8.42635 9.20597C8.51123 9.12109 8.55891 9.00596 8.55891 8.88593V7.52812H9.91672C10.0368 7.52812 10.1519 7.48043 10.2368 7.39555C10.3216 7.31067 10.3693 7.19555 10.3693 7.07552C10.3693 6.95548 10.3216 6.84036 10.2368 6.75548C10.1519 6.6706 10.0368 6.62291 9.91672 6.62291H8.55891V5.2651Z" fill="#363330"/>
<path d="M0.864651 1.19141C0.744614 1.19141 0.629492 1.23909 0.544613 1.32397C0.459733 1.40885 0.412048 1.52397 0.412048 1.64401C0.412048 1.76405 0.459733 1.87917 0.544613 1.96405C0.629492 2.04893 0.744614 2.09661 0.864651 2.09661H1.86943L2.23242 3.55128L3.58842 10.7793C3.60783 10.8831 3.66287 10.9767 3.74403 11.0442C3.82519 11.1116 3.92735 11.1486 4.03287 11.1487H4.93808C4.45793 11.1487 3.99744 11.3394 3.65792 11.6789C3.31841 12.0184 3.12767 12.4789 3.12767 12.9591C3.12767 13.4392 3.31841 13.8997 3.65792 14.2392C3.99744 14.5788 4.45793 14.7695 4.93808 14.7695C5.41823 14.7695 5.87872 14.5788 6.21823 14.2392C6.55775 13.8997 6.74849 13.4392 6.74849 12.9591C6.74849 12.4789 6.55775 12.0184 6.21823 11.6789C5.87872 11.3394 5.41823 11.1487 4.93808 11.1487H11.2745C10.7944 11.1487 10.3339 11.3394 9.99437 11.6789C9.65485 12.0184 9.46411 12.4789 9.46411 12.9591C9.46411 13.4392 9.65485 13.8997 9.99437 14.2392C10.3339 14.5788 10.7944 14.7695 11.2745 14.7695C11.7547 14.7695 12.2152 14.5788 12.5547 14.2392C12.8942 13.8997 13.0849 13.4392 13.0849 12.9591C13.0849 12.4789 12.8942 12.0184 12.5547 11.6789C12.2152 11.3394 11.7547 11.1487 11.2745 11.1487H12.1797C12.2852 11.1486 12.3874 11.1116 12.4686 11.0442C12.5497 10.9767 12.6048 10.8831 12.6242 10.7793L13.982 3.5377C13.9942 3.47238 13.9919 3.40516 13.9752 3.34083C13.9586 3.2765 13.9279 3.21664 13.8855 3.16548C13.8431 3.11433 13.7899 3.07315 13.7298 3.04486C13.6696 3.01658 13.604 3.00188 13.5375 3.00182H3.02809L2.66149 1.53448C2.63705 1.43652 2.58057 1.34954 2.50102 1.28738C2.42147 1.22522 2.32342 1.19143 2.22246 1.19141H0.864651ZM4.40853 10.2435L3.22 3.90702H12.9926L11.8041 10.2435H4.40853ZM5.84328 12.9591C5.84328 13.1992 5.74791 13.4294 5.57816 13.5992C5.4084 13.7689 5.17815 13.8643 4.93808 13.8643C4.698 13.8643 4.46776 13.7689 4.298 13.5992C4.12824 13.4294 4.03287 13.1992 4.03287 12.9591C4.03287 12.719 4.12824 12.4888 4.298 12.319C4.46776 12.1492 4.698 12.0539 4.93808 12.0539C5.17815 12.0539 5.4084 12.1492 5.57816 12.319C5.74791 12.4888 5.84328 12.719 5.84328 12.9591ZM12.1797 12.9591C12.1797 13.1992 12.0844 13.4294 11.9146 13.5992C11.7448 13.7689 11.5146 13.8643 11.2745 13.8643C11.0344 13.8643 10.8042 13.7689 10.6344 13.5992C10.4647 13.4294 10.3693 13.1992 10.3693 12.9591C10.3693 12.719 10.4647 12.4888 10.6344 12.319C10.8042 12.1492 11.0344 12.0539 11.2745 12.0539C11.5146 12.0539 11.7448 12.1492 11.9146 12.319C12.0844 12.4888 12.1797 12.719 12.1797 12.9591Z" fill="#363330"/>
</svg>
