<svg width="17" height="17" viewBox="0 0 17 17" fill="none" xmlns="http://www.w3.org/2000/svg">
<path d="M8.74176 4.7832C8.87437 4.7832 9.00155 4.83588 9.09532 4.92965C9.1891 5.02343 9.24178 5.15061 9.24178 5.28322V8.28331H12.2419C12.3745 8.28331 12.5017 8.33599 12.5954 8.42976C12.6892 8.52353 12.7419 8.65071 12.7419 8.78332C12.7419 8.91594 12.6892 9.04312 12.5954 9.13689C12.5017 9.23066 12.3745 9.28334 12.2419 9.28334H9.24178V12.2834C9.24178 12.416 9.1891 12.5432 9.09532 12.637C9.00155 12.7308 8.87437 12.7834 8.74176 12.7834C8.60915 12.7834 8.48197 12.7308 8.3882 12.637C8.29442 12.5432 8.24174 12.416 8.24174 12.2834V9.28334H5.24165C5.10904 9.28334 4.98186 9.23066 4.88809 9.13689C4.79432 9.04312 4.74164 8.91594 4.74164 8.78332C4.74164 8.65071 4.79432 8.52353 4.88809 8.42976C4.98186 8.33599 5.10904 8.28331 5.24165 8.28331H8.24174V5.28322C8.24174 5.15061 8.29442 5.02343 8.3882 4.92965C8.48197 4.83588 8.60915 4.7832 8.74176 4.7832Z" fill="#CFCCC9"/>
</svg>
