<svg width="13" height="13" viewBox="0 0 13 13" fill="none" xmlns="http://www.w3.org/2000/svg">
<path d="M10.036 2.04704L9.9708 1.98187C8.89548 1.10206 7.49431 0.613281 6.09313 0.613281C4.69195 0.613281 3.32336 1.10206 2.21546 2.01446L2.15028 2.07963C0.781693 3.22012 0.0322266 4.91457 0.0322266 6.67418C0.0322266 8.30346 0.683937 9.83498 1.85701 10.9755H1.82443L2.15028 11.2362L2.18287 11.2687C3.29078 12.2137 4.69195 12.7025 6.12571 12.7025C9.48202 12.7025 12.2192 9.99791 12.2192 6.67418C12.2192 4.88198 11.4372 3.22012 10.0686 2.07963L10.036 2.04704ZM3.4537 9.93273C3.12785 10.0957 2.83458 10.3238 2.54131 10.5519C1.46599 9.60688 0.846864 8.27087 0.781693 6.8697H2.89975C2.93234 7.9776 3.12785 9.02034 3.4537 9.93273ZM9.61236 10.5844C9.35168 10.3563 9.02582 10.1282 8.73256 9.96532C9.05841 9.05293 9.25392 8.01019 9.28651 6.8697H11.4046C11.3394 8.30346 10.6877 9.63947 9.61236 10.5844ZM3.74697 10.617C3.94249 11.0081 4.17059 11.3339 4.43127 11.6272C3.97507 11.4968 3.55146 11.2687 3.16043 11.0081C3.35595 10.8451 3.55146 10.7148 3.74697 10.617ZM3.38853 3.28529C3.09526 4.13252 2.93234 5.07749 2.89975 6.08765H0.814279C0.944621 4.78423 1.56375 3.57856 2.5739 2.69875C2.83458 2.92685 3.12785 3.12236 3.42112 3.28529H3.38853ZM8.47187 2.56841C8.30894 2.24256 8.14602 1.98187 7.98309 1.72119C8.34153 1.85153 8.66738 2.01446 8.99324 2.20997C8.83031 2.34031 8.66738 2.43807 8.50446 2.56841H8.47187ZM8.99324 11.0406C8.60221 11.3013 8.21119 11.4968 7.75499 11.6272C7.98309 11.3665 8.21119 11.0081 8.4067 10.6496C8.60221 10.78 8.79773 10.9103 8.99324 11.0406ZM6.06054 9.24844C5.34366 9.24844 4.65937 9.37878 4.00766 9.67205C3.6818 8.85741 3.51888 7.91243 3.48629 6.8697H8.73256C8.69997 7.91243 8.50446 8.85741 8.1786 9.67205C7.49431 9.37878 6.81001 9.24844 6.06054 9.24844ZM3.19302 2.24256C3.51888 2.01446 3.84473 1.85153 4.23576 1.72119C4.04024 1.98187 3.87732 2.27514 3.71439 2.601C3.55146 2.50324 3.35595 2.3729 3.19302 2.24256ZM3.48629 6.08765C3.51888 5.17525 3.6818 4.32803 3.97507 3.57856C5.34366 4.1651 6.90777 4.1651 8.24377 3.54598C8.50446 4.29544 8.69997 5.17525 8.73256 6.08765H3.48629ZM4.26834 2.86168C4.72454 1.98187 5.31108 1.4605 5.9302 1.36275H5.96279C6.06054 1.36275 6.1583 1.36275 6.22347 1.36275H6.25606C6.87518 1.42792 7.46172 1.94929 7.91792 2.8291C6.74484 3.35046 5.40883 3.35046 4.23576 2.86168H4.26834ZM7.85275 10.3563C7.36396 11.2362 6.74484 11.6924 6.09313 11.6924C5.44142 11.6924 4.8223 11.2036 4.33351 10.3238C5.47401 9.86756 6.74484 9.86756 7.85275 10.3563ZM9.28651 6.08765C9.25392 5.07749 9.05841 4.09993 8.76514 3.28529C9.05841 3.12236 9.31909 2.92685 9.57978 2.69875C10.5899 3.57856 11.2091 4.78423 11.372 6.08765H9.28651Z" fill="#7B3972"/>
<path d="M10.036 2.04704L9.9708 1.98187C8.89548 1.10206 7.49431 0.613281 6.09313 0.613281C4.69195 0.613281 3.32336 1.10206 2.21546 2.01446L2.15028 2.07963C0.781693 3.22012 0.0322266 4.91457 0.0322266 6.67418C0.0322266 8.30346 0.683937 9.83498 1.85701 10.9755H1.82443L2.15028 11.2362L2.18287 11.2687C3.29078 12.2137 4.69195 12.7025 6.12571 12.7025C9.48202 12.7025 12.2192 9.99791 12.2192 6.67418C12.2192 4.88198 11.4372 3.22012 10.0686 2.07963L10.036 2.04704ZM3.4537 9.93273C3.12785 10.0957 2.83458 10.3238 2.54131 10.5519C1.46599 9.60688 0.846864 8.27087 0.781693 6.8697H2.89975C2.93234 7.9776 3.12785 9.02034 3.4537 9.93273ZM9.61236 10.5844C9.35168 10.3563 9.02582 10.1282 8.73256 9.96532C9.05841 9.05293 9.25392 8.01019 9.28651 6.8697H11.4046C11.3394 8.30346 10.6877 9.63947 9.61236 10.5844ZM3.74697 10.617C3.94249 11.0081 4.17059 11.3339 4.43127 11.6272C3.97507 11.4968 3.55146 11.2687 3.16043 11.0081C3.35595 10.8451 3.55146 10.7148 3.74697 10.617ZM3.38853 3.28529C3.09526 4.13252 2.93234 5.07749 2.89975 6.08765H0.814279C0.944621 4.78423 1.56375 3.57856 2.5739 2.69875C2.83458 2.92685 3.12785 3.12236 3.42112 3.28529H3.38853ZM8.47187 2.56841C8.30894 2.24256 8.14602 1.98187 7.98309 1.72119C8.34153 1.85153 8.66738 2.01446 8.99324 2.20997C8.83031 2.34031 8.66738 2.43807 8.50446 2.56841H8.47187ZM8.99324 11.0406C8.60221 11.3013 8.21119 11.4968 7.75499 11.6272C7.98309 11.3665 8.21119 11.0081 8.4067 10.6496C8.60221 10.78 8.79773 10.9103 8.99324 11.0406ZM6.06054 9.24844C5.34366 9.24844 4.65937 9.37878 4.00766 9.67205C3.6818 8.85741 3.51888 7.91243 3.48629 6.8697H8.73256C8.69997 7.91243 8.50446 8.85741 8.1786 9.67205C7.49431 9.37878 6.81001 9.24844 6.06054 9.24844ZM3.19302 2.24256C3.51888 2.01446 3.84473 1.85153 4.23576 1.72119C4.04024 1.98187 3.87732 2.27514 3.71439 2.601C3.55146 2.50324 3.35595 2.3729 3.19302 2.24256ZM3.48629 6.08765C3.51888 5.17525 3.6818 4.32803 3.97507 3.57856C5.34366 4.1651 6.90777 4.1651 8.24377 3.54598C8.50446 4.29544 8.69997 5.17525 8.73256 6.08765H3.48629ZM4.26834 2.86168C4.72454 1.98187 5.31108 1.4605 5.9302 1.36275H5.96279C6.06054 1.36275 6.1583 1.36275 6.22347 1.36275H6.25606C6.87518 1.42792 7.46172 1.94929 7.91792 2.8291C6.74484 3.35046 5.40883 3.35046 4.23576 2.86168H4.26834ZM7.85275 10.3563C7.36396 11.2362 6.74484 11.6924 6.09313 11.6924C5.44142 11.6924 4.8223 11.2036 4.33351 10.3238C5.47401 9.86756 6.74484 9.86756 7.85275 10.3563ZM9.28651 6.08765C9.25392 5.07749 9.05841 4.09993 8.76514 3.28529C9.05841 3.12236 9.31909 2.92685 9.57978 2.69875C10.5899 3.57856 11.2091 4.78423 11.372 6.08765H9.28651Z" fill="#7B3972"/>
</svg>
