<svg width="15" height="16" viewBox="0 0 15 16" fill="none" xmlns="http://www.w3.org/2000/svg">
<path d="M8.53422 5.80026C8.53422 5.68022 8.48654 5.5651 8.40166 5.48022C8.31678 5.39534 8.20166 5.34766 8.08162 5.34766C7.96158 5.34766 7.84646 5.39534 7.76158 5.48022C7.6767 5.5651 7.62902 5.68022 7.62902 5.80026V7.15807H6.27121C6.15117 7.15807 6.03605 7.20575 5.95117 7.29063C5.86629 7.37551 5.8186 7.49063 5.8186 7.61067C5.8186 7.73071 5.86629 7.84583 5.95117 7.93071C6.03605 8.01559 6.15117 8.06327 6.27121 8.06327H7.62902V9.42108C7.62902 9.54112 7.6767 9.65624 7.76158 9.74112C7.84646 9.826 7.96158 9.87369 8.08162 9.87369C8.20166 9.87369 8.31678 9.826 8.40166 9.74112C8.48654 9.65624 8.53422 9.54112 8.53422 9.42108V8.06327H9.89203C10.0121 8.06327 10.1272 8.01559 10.2121 7.93071C10.2969 7.84583 10.3446 7.73071 10.3446 7.61067C10.3446 7.49063 10.2969 7.37551 10.2121 7.29063C10.1272 7.20575 10.0121 7.15807 9.89203 7.15807H8.53422V5.80026Z" fill="#363330"/>
<path d="M0.840054 1.72656C0.720016 1.72656 0.604895 1.77425 0.520016 1.85913C0.435136 1.94401 0.387451 2.05913 0.387451 2.17917C0.387451 2.2992 0.435136 2.41432 0.520016 2.4992C0.604895 2.58408 0.720016 2.63177 0.840054 2.63177H1.84483L2.20782 4.08643L3.56382 11.3145C3.58323 11.4182 3.63828 11.5119 3.71943 11.5793C3.80059 11.6468 3.90276 11.6837 4.00828 11.6838H4.91348C4.43333 11.6838 3.97284 11.8746 3.63333 12.2141C3.29381 12.5536 3.10307 13.0141 3.10307 13.4942C3.10307 13.9744 3.29381 14.4349 3.63333 14.7744C3.97284 15.1139 4.43333 15.3047 4.91348 15.3047C5.39363 15.3047 5.85412 15.1139 6.19364 14.7744C6.53315 14.4349 6.72389 13.9744 6.72389 13.4942C6.72389 13.0141 6.53315 12.5536 6.19364 12.2141C5.85412 11.8746 5.39363 11.6838 4.91348 11.6838H11.2499C10.7698 11.6838 10.3093 11.8746 9.96977 12.2141C9.63025 12.5536 9.43951 13.0141 9.43951 13.4942C9.43951 13.9744 9.63025 14.4349 9.96977 14.7744C10.3093 15.1139 10.7698 15.3047 11.2499 15.3047C11.7301 15.3047 12.1906 15.1139 12.5301 14.7744C12.8696 14.4349 13.0603 13.9744 13.0603 13.4942C13.0603 13.0141 12.8696 12.5536 12.5301 12.2141C12.1906 11.8746 11.7301 11.6838 11.2499 11.6838H12.1551C12.2606 11.6837 12.3628 11.6468 12.444 11.5793C12.5251 11.5119 12.5802 11.4182 12.5996 11.3145L13.9574 4.07286C13.9696 4.00753 13.9673 3.94032 13.9506 3.87599C13.934 3.81166 13.9033 3.75179 13.8609 3.70064C13.8185 3.64949 13.7653 3.6083 13.7052 3.58002C13.645 3.55173 13.5794 3.53704 13.5129 3.53697H3.0035L2.63689 2.06964C2.61246 1.97168 2.55597 1.8847 2.47642 1.82254C2.39687 1.76037 2.29882 1.72659 2.19786 1.72656H0.840054ZM4.38394 10.7786L3.1954 4.44218H12.968L11.7795 10.7786H4.38394ZM5.81869 13.4942C5.81869 13.7343 5.72332 13.9646 5.55356 14.1343C5.3838 14.3041 5.15356 14.3994 4.91348 14.3994C4.67341 14.3994 4.44316 14.3041 4.2734 14.1343C4.10365 13.9646 4.00828 13.7343 4.00828 13.4942C4.00828 13.2542 4.10365 13.0239 4.2734 12.8542C4.44316 12.6844 4.67341 12.589 4.91348 12.589C5.15356 12.589 5.3838 12.6844 5.55356 12.8542C5.72332 13.0239 5.81869 13.2542 5.81869 13.4942ZM12.1551 13.4942C12.1551 13.7343 12.0598 13.9646 11.89 14.1343C11.7202 14.3041 11.49 14.3994 11.2499 14.3994C11.0098 14.3994 10.7796 14.3041 10.6098 14.1343C10.4401 13.9646 10.3447 13.7343 10.3447 13.4942C10.3447 13.2542 10.4401 13.0239 10.6098 12.8542C10.7796 12.6844 11.0098 12.589 11.2499 12.589C11.49 12.589 11.7202 12.6844 11.89 12.8542C12.0598 13.0239 12.1551 13.2542 12.1551 13.4942Z" fill="#363330"/>
</svg>
