<svg width="15" height="15" viewBox="0 0 15 15" fill="none" xmlns="http://www.w3.org/2000/svg">
<path d="M8.62675 5.11081C8.62675 4.99077 8.57907 4.87565 8.49419 4.79077C8.40931 4.70589 8.29419 4.6582 8.17415 4.6582C8.05411 4.6582 7.93899 4.70589 7.85411 4.79077C7.76923 4.87565 7.72154 4.99077 7.72154 5.11081V6.46862H6.36374C6.2437 6.46862 6.12858 6.5163 6.0437 6.60118C5.95882 6.68606 5.91113 6.80118 5.91113 6.92122C5.91113 7.04126 5.95882 7.15638 6.0437 7.24126C6.12858 7.32614 6.2437 7.37382 6.36374 7.37382H7.72154V8.73163C7.72154 8.85167 7.76923 8.96679 7.85411 9.05167C7.93899 9.13655 8.05411 9.18423 8.17415 9.18423C8.29419 9.18423 8.40931 9.13655 8.49419 9.05167C8.57907 8.96679 8.62675 8.85167 8.62675 8.73163V7.37382H9.98456C10.1046 7.37382 10.2197 7.32614 10.3046 7.24126C10.3895 7.15638 10.4372 7.04126 10.4372 6.92122C10.4372 6.80118 10.3895 6.68606 10.3046 6.60118C10.2197 6.5163 10.1046 6.46862 9.98456 6.46862H8.62675V5.11081Z" fill="#363330"/>
<path d="M0.932583 1.03711C0.812546 1.03711 0.697424 1.08479 0.612545 1.16967C0.527665 1.25455 0.47998 1.36967 0.47998 1.48971C0.47998 1.60975 0.527665 1.72487 0.612545 1.80975C0.697424 1.89463 0.812546 1.94232 0.932583 1.94232H1.93736L2.30035 3.39698L3.65635 10.6251C3.67576 10.7288 3.73081 10.8224 3.81196 10.8899C3.89312 10.9573 3.99529 10.9943 4.1008 10.9944H5.00601C4.52586 10.9944 4.06537 11.1851 3.72586 11.5246C3.38634 11.8642 3.1956 12.3246 3.1956 12.8048C3.1956 13.2849 3.38634 13.7454 3.72586 14.0849C4.06537 14.4245 4.52586 14.6152 5.00601 14.6152C5.48616 14.6152 5.94665 14.4245 6.28617 14.0849C6.62568 13.7454 6.81642 13.2849 6.81642 12.8048C6.81642 12.3246 6.62568 11.8642 6.28617 11.5246C5.94665 11.1851 5.48616 10.9944 5.00601 10.9944H11.3425C10.8623 10.9944 10.4018 11.1851 10.0623 11.5246C9.72278 11.8642 9.53204 12.3246 9.53204 12.8048C9.53204 13.2849 9.72278 13.7454 10.0623 14.0849C10.4018 14.4245 10.8623 14.6152 11.3425 14.6152C11.8226 14.6152 12.2831 14.4245 12.6226 14.0849C12.9621 13.7454 13.1529 13.2849 13.1529 12.8048C13.1529 12.3246 12.9621 11.8642 12.6226 11.5246C12.2831 11.1851 11.8226 10.9944 11.3425 10.9944H12.2477C12.3532 10.9943 12.4553 10.9573 12.5365 10.8899C12.6177 10.8224 12.6727 10.7288 12.6921 10.6251L14.0499 3.3834C14.0622 3.31808 14.0598 3.25087 14.0432 3.18654C14.0265 3.12221 13.9958 3.06234 13.9534 3.01119C13.911 2.96003 13.8578 2.91885 13.7977 2.89056C13.7376 2.86228 13.6719 2.84758 13.6055 2.84752H3.09603L2.72942 1.38018C2.70499 1.28222 2.6485 1.19525 2.56895 1.13308C2.4894 1.07092 2.39135 1.03714 2.29039 1.03711H0.932583ZM4.47646 10.0892L3.28793 3.75273H13.0605L11.872 10.0892H4.47646ZM5.91122 12.8048C5.91122 13.0449 5.81585 13.2751 5.64609 13.4449C5.47633 13.6146 5.24609 13.71 5.00601 13.71C4.76593 13.71 4.53569 13.6146 4.36593 13.4449C4.19617 13.2751 4.1008 13.0449 4.1008 12.8048C4.1008 12.5647 4.19617 12.3345 4.36593 12.1647C4.53569 11.995 4.76593 11.8996 5.00601 11.8996C5.24609 11.8996 5.47633 11.995 5.64609 12.1647C5.81585 12.3345 5.91122 12.5647 5.91122 12.8048ZM12.2477 12.8048C12.2477 13.0449 12.1523 13.2751 11.9825 13.4449C11.8128 13.6146 11.5825 13.71 11.3425 13.71C11.1024 13.71 10.8721 13.6146 10.7024 13.4449C10.5326 13.2751 10.4372 13.0449 10.4372 12.8048C10.4372 12.5647 10.5326 12.3345 10.7024 12.1647C10.8721 11.995 11.1024 11.8996 11.3425 11.8996C11.5825 11.8996 11.8128 11.995 11.9825 12.1647C12.1523 12.3345 12.2477 12.5647 12.2477 12.8048Z" fill="#363330"/>
</svg>
