<svg width="15" height="16" viewBox="0 0 15 16" fill="none" xmlns="http://www.w3.org/2000/svg">
<path d="M8.62333 5.80026C8.62333 5.68022 8.57565 5.5651 8.49077 5.48022C8.40589 5.39534 8.29077 5.34766 8.17073 5.34766C8.05069 5.34766 7.93557 5.39534 7.85069 5.48022C7.76581 5.5651 7.71813 5.68022 7.71813 5.80026V7.15807H6.36032C6.24028 7.15807 6.12516 7.20575 6.04028 7.29063C5.9554 7.37551 5.90771 7.49063 5.90771 7.61067C5.90771 7.73071 5.9554 7.84583 6.04028 7.93071C6.12516 8.01559 6.24028 8.06327 6.36032 8.06327H7.71813V9.42108C7.71813 9.54112 7.76581 9.65624 7.85069 9.74112C7.93557 9.826 8.05069 9.87369 8.17073 9.87369C8.29077 9.87369 8.40589 9.826 8.49077 9.74112C8.57565 9.65624 8.62333 9.54112 8.62333 9.42108V8.06327H9.98114C10.1012 8.06327 10.2163 8.01559 10.3012 7.93071C10.3861 7.84583 10.4337 7.73071 10.4337 7.61067C10.4337 7.49063 10.3861 7.37551 10.3012 7.29063C10.2163 7.20575 10.1012 7.15807 9.98114 7.15807H8.62333V5.80026Z" fill="#363330"/>
<path d="M0.929166 1.72656C0.809128 1.72656 0.694006 1.77425 0.609127 1.85913C0.524247 1.94401 0.476563 2.05913 0.476562 2.17917C0.476563 2.2992 0.524247 2.41432 0.609127 2.4992C0.694006 2.58408 0.809128 2.63177 0.929166 2.63177H1.93394L2.29693 4.08643L3.65293 11.3145C3.67235 11.4182 3.72739 11.5119 3.80854 11.5793C3.8897 11.6468 3.99187 11.6837 4.09739 11.6838H5.00259C4.52244 11.6838 4.06196 11.8746 3.72244 12.2141C3.38292 12.5536 3.19218 13.0141 3.19218 13.4942C3.19218 13.9744 3.38292 14.4349 3.72244 14.7744C4.06196 15.1139 4.52244 15.3047 5.00259 15.3047C5.48274 15.3047 5.94323 15.1139 6.28275 14.7744C6.62227 14.4349 6.813 13.9744 6.813 13.4942C6.813 13.0141 6.62227 12.5536 6.28275 12.2141C5.94323 11.8746 5.48274 11.6838 5.00259 11.6838H11.339C10.8589 11.6838 10.3984 11.8746 10.0589 12.2141C9.71936 12.5536 9.52862 13.0141 9.52862 13.4942C9.52862 13.9744 9.71936 14.4349 10.0589 14.7744C10.3984 15.1139 10.8589 15.3047 11.339 15.3047C11.8192 15.3047 12.2797 15.1139 12.6192 14.7744C12.9587 14.4349 13.1494 13.9744 13.1494 13.4942C13.1494 13.0141 12.9587 12.5536 12.6192 12.2141C12.2797 11.8746 11.8192 11.6838 11.339 11.6838H12.2442C12.3498 11.6837 12.4519 11.6468 12.5331 11.5793C12.6142 11.5119 12.6693 11.4182 12.6887 11.3145L14.0465 4.07286C14.0587 4.00753 14.0564 3.94032 14.0397 3.87599C14.0231 3.81166 13.9924 3.75179 13.95 3.70064C13.9076 3.64949 13.8544 3.6083 13.7943 3.58002C13.7341 3.55173 13.6685 3.53704 13.602 3.53697H3.09261L2.726 2.06964C2.70157 1.97168 2.64509 1.8847 2.56553 1.82254C2.48598 1.76037 2.38793 1.72659 2.28697 1.72656H0.929166ZM4.47305 10.7786L3.28451 4.44218H13.0571L11.8686 10.7786H4.47305ZM5.9078 13.4942C5.9078 13.7343 5.81243 13.9646 5.64267 14.1343C5.47291 14.3041 5.24267 14.3994 5.00259 14.3994C4.76252 14.3994 4.53227 14.3041 4.36252 14.1343C4.19276 13.9646 4.09739 13.7343 4.09739 13.4942C4.09739 13.2542 4.19276 13.0239 4.36252 12.8542C4.53227 12.6844 4.76252 12.589 5.00259 12.589C5.24267 12.589 5.47291 12.6844 5.64267 12.8542C5.81243 13.0239 5.9078 13.2542 5.9078 13.4942ZM12.2442 13.4942C12.2442 13.7343 12.1489 13.9646 11.9791 14.1343C11.8094 14.3041 11.5791 14.3994 11.339 14.3994C11.099 14.3994 10.8687 14.3041 10.699 14.1343C10.5292 13.9646 10.4338 13.7343 10.4338 13.4942C10.4338 13.2542 10.5292 13.0239 10.699 12.8542C10.8687 12.6844 11.099 12.589 11.339 12.589C11.5791 12.589 11.8094 12.6844 11.9791 12.8542C12.1489 13.0239 12.2442 13.2542 12.2442 13.4942Z" fill="#363330"/>
</svg>
