<svg width="15" height="15" viewBox="0 0 15 15" fill="none" xmlns="http://www.w3.org/2000/svg">
<path d="M8.48075 5.42135C8.48075 5.30132 8.43307 5.18619 8.34819 5.10131C8.26331 5.01643 8.14819 4.96875 8.02815 4.96875C7.90811 4.96875 7.79299 5.01643 7.70811 5.10131C7.62323 5.18619 7.57555 5.30132 7.57555 5.42135V6.77916H6.21774C6.0977 6.77916 5.98258 6.82685 5.8977 6.91173C5.81282 6.99661 5.76514 7.11173 5.76514 7.23177C5.76514 7.3518 5.81282 7.46692 5.8977 7.5518C5.98258 7.63668 6.0977 7.68437 6.21774 7.68437H7.57555V9.04218C7.57555 9.16221 7.62323 9.27734 7.70811 9.36222C7.79299 9.4471 7.90811 9.49478 8.02815 9.49478C8.14819 9.49478 8.26331 9.4471 8.34819 9.36222C8.43307 9.27734 8.48075 9.16221 8.48075 9.04218V7.68437H9.83856C9.9586 7.68437 10.0737 7.63668 10.1586 7.5518C10.2435 7.46692 10.2912 7.3518 10.2912 7.23177C10.2912 7.11173 10.2435 6.99661 10.1586 6.91173C10.0737 6.82685 9.9586 6.77916 9.83856 6.77916H8.48075V5.42135Z" fill="#363330"/>
<path d="M0.786587 1.34766C0.66655 1.34766 0.551428 1.39534 0.466549 1.48022C0.381669 1.5651 0.333984 1.68022 0.333984 1.80026C0.333984 1.9203 0.381669 2.03542 0.466549 2.1203C0.551428 2.20518 0.66655 2.25286 0.786587 2.25286H1.79137L2.15435 3.70753L3.51035 10.9356C3.52977 11.0393 3.58481 11.133 3.66597 11.2004C3.74712 11.2679 3.84929 11.3048 3.95481 11.3049H4.86001C4.37986 11.3049 3.91938 11.4957 3.57986 11.8352C3.24034 12.1747 3.0496 12.6352 3.0496 13.1153C3.0496 13.5955 3.24034 14.056 3.57986 14.3955C3.91938 14.735 4.37986 14.9257 4.86001 14.9257C5.34017 14.9257 5.80065 14.735 6.14017 14.3955C6.47969 14.056 6.67043 13.5955 6.67043 13.1153C6.67043 12.6352 6.47969 12.1747 6.14017 11.8352C5.80065 11.4957 5.34017 11.3049 4.86001 11.3049H11.1965C10.7163 11.3049 10.2558 11.4957 9.9163 11.8352C9.57678 12.1747 9.38604 12.6352 9.38604 13.1153C9.38604 13.5955 9.57678 14.056 9.9163 14.3955C10.2558 14.735 10.7163 14.9257 11.1965 14.9257C11.6766 14.9257 12.1371 14.735 12.4766 14.3955C12.8161 14.056 13.0069 13.5955 13.0069 13.1153C13.0069 12.6352 12.8161 12.1747 12.4766 11.8352C12.1371 11.4957 11.6766 11.3049 11.1965 11.3049H12.1017C12.2072 11.3048 12.3093 11.2679 12.3905 11.2004C12.4717 11.133 12.5267 11.0393 12.5461 10.9356L13.9039 3.69395C13.9162 3.62863 13.9138 3.56141 13.8972 3.49708C13.8805 3.43275 13.8499 3.37289 13.8074 3.32173C13.765 3.27058 13.7118 3.2294 13.6517 3.20111C13.5916 3.17283 13.5259 3.15813 13.4595 3.15807H2.95003L2.58342 1.69073C2.55899 1.59277 2.50251 1.50579 2.42296 1.44363C2.34341 1.38147 2.24536 1.34768 2.1444 1.34766H0.786587ZM4.33047 10.3997L3.14193 4.06327H12.9145L11.726 10.3997H4.33047ZM5.76522 13.1153C5.76522 13.3554 5.66985 13.5857 5.50009 13.7554C5.33033 13.9252 5.10009 14.0205 4.86001 14.0205C4.61994 14.0205 4.3897 13.9252 4.21994 13.7554C4.05018 13.5857 3.95481 13.3554 3.95481 13.1153C3.95481 12.8753 4.05018 12.645 4.21994 12.4753C4.3897 12.3055 4.61994 12.2101 4.86001 12.2101C5.10009 12.2101 5.33033 12.3055 5.50009 12.4753C5.66985 12.645 5.76522 12.8753 5.76522 13.1153ZM12.1017 13.1153C12.1017 13.3554 12.0063 13.5857 11.8365 13.7554C11.6668 13.9252 11.4365 14.0205 11.1965 14.0205C10.9564 14.0205 10.7261 13.9252 10.5564 13.7554C10.3866 13.5857 10.2913 13.3554 10.2913 13.1153C10.2913 12.8753 10.3866 12.645 10.5564 12.4753C10.7261 12.3055 10.9564 12.2101 11.1965 12.2101C11.4365 12.2101 11.6668 12.3055 11.8365 12.4753C12.0063 12.645 12.1017 12.8753 12.1017 13.1153Z" fill="#363330"/>
</svg>
