<svg width="31" height="34" viewBox="0 0 31 34" fill="none" xmlns="http://www.w3.org/2000/svg">
<path d="M27.2568 29.1457C27.0204 28.3721 26.6981 27.5126 26.3113 26.653C25.9245 25.7935 25.4732 24.9124 24.979 24.0314C24.9145 24.1388 24.85 24.2677 24.7641 24.3752C24.6996 24.4826 24.6136 24.6116 24.5492 24.719C24.4632 24.8265 24.3988 24.9339 24.3128 25.0413C24.2268 25.1488 24.1409 25.2562 24.0549 25.3637L24.0334 25.3852L24.012 25.4067L23.9905 25.4281L23.969 25.4496L23.883 25.5356C23.9475 25.729 24.0334 25.9654 24.1409 26.2232C24.2268 26.4811 24.3343 26.7605 24.4202 27.0183C24.5062 27.2762 24.5707 27.5341 24.5922 27.7275C24.6136 27.9209 24.6136 28.0928 24.5277 28.1572C24.5062 28.1787 24.4847 28.2002 24.4417 28.2217C24.4202 28.2432 24.3773 28.2647 24.3343 28.2647C24.2913 28.2862 24.2698 28.2862 24.2268 28.2862C24.1839 28.2862 24.1409 28.2862 24.0979 28.2862C24.0334 28.2862 23.9475 28.2647 23.8615 28.2647C23.7756 28.2432 23.6896 28.2217 23.6037 28.2002C23.5177 28.1787 23.4103 28.1357 23.3243 28.0928C23.2169 28.0498 23.1094 28.0068 23.002 27.9638C22.873 27.8994 22.7226 27.8349 22.5722 27.7489C22.4218 27.663 22.2714 27.577 22.1209 27.4911C21.9705 27.4051 21.7986 27.3192 21.6482 27.2117C21.4763 27.1043 21.3258 27.0183 21.1539 26.9109C21.7986 26.2662 22.4218 25.5571 22.9805 24.8265C23.5392 24.0743 24.0549 23.3007 24.5062 22.4842C24.9575 21.6676 25.3443 20.8295 25.6666 19.9485C25.9889 19.0889 26.2468 18.1864 26.4187 17.2839C26.827 15.2424 26.8055 13.3299 26.4187 11.6323C26.0534 9.95614 25.3443 8.47341 24.3558 7.29152C23.3888 6.10963 22.1639 5.20709 20.7456 4.62689C19.3489 4.04669 17.7372 3.81032 16.0181 3.91776C14.8792 4.00372 13.7403 4.24009 12.6443 4.6054C11.5484 4.97072 10.4954 5.46496 9.48546 6.06665C8.47548 6.66834 7.50848 7.37747 6.62744 8.19405C5.7249 8.98914 4.90833 9.89167 4.15621 10.8587C3.96281 10.4934 3.7909 10.128 3.66197 9.82721C3.53304 9.50487 3.42559 9.22552 3.38261 8.96765C3.31815 8.70978 3.29666 8.49489 3.31815 8.30149C3.33964 8.10809 3.4041 7.95767 3.49006 7.85023C3.51155 7.80725 3.55453 7.78576 3.61899 7.74278C3.66197 7.69981 3.72644 7.67832 3.7909 7.65683C3.85537 7.63534 3.94133 7.61385 4.02728 7.59236C4.11324 7.57087 4.19919 7.57087 4.28515 7.54938C4.39259 7.54938 4.50004 7.54938 4.60748 7.57087C4.71493 7.59236 4.82237 7.61385 4.9513 7.65683C5.05875 7.69981 5.18768 7.74278 5.29513 7.82874C5.40257 7.89321 5.5315 7.97916 5.63895 8.08661C5.74639 7.95767 5.87533 7.82874 5.98277 7.6998C6.1117 7.57087 6.21915 7.46343 6.34808 7.33449C6.47702 7.22705 6.60595 7.09812 6.73488 6.99067C6.86382 6.88323 7.01424 6.77578 7.16466 6.66834C7.18615 6.66834 7.18615 6.64685 7.20764 6.64685C7.22913 6.64685 7.22913 6.62536 7.25062 6.62536C7.2721 6.62536 7.2721 6.60387 7.29359 6.60387C7.31508 6.60387 7.31508 6.58238 7.33657 6.58238C7.0787 6.346 6.79935 6.1526 6.51999 6.00218C6.24064 5.85176 5.93979 5.72283 5.63895 5.63687C5.3381 5.55092 5.03726 5.48645 4.73641 5.46496C4.43557 5.44347 4.15621 5.42198 3.87686 5.44347C3.68346 5.46496 3.51155 5.48645 3.33964 5.50794C3.16773 5.55092 3.0173 5.59389 2.86688 5.63687C2.71646 5.67985 2.58753 5.74432 2.48008 5.83027C2.37264 5.89474 2.26519 5.98069 2.20073 6.06665C1.96435 6.32452 1.83541 6.64685 1.77095 7.03365C1.70648 7.42045 1.72797 7.89321 1.83541 8.40894C1.94286 8.92467 2.11477 9.50487 2.35115 10.1495C2.60901 10.7727 2.90986 11.4604 3.31815 12.191C3.06028 12.5993 2.80241 13.0076 2.56604 13.4373C2.32966 13.8671 2.11477 14.2969 1.92137 14.7482C1.72797 15.1994 1.53457 15.6507 1.38415 16.1235C1.21224 16.5962 1.0833 17.069 0.95437 17.5417C0.481614 19.3683 0.331192 21.1304 0.481614 22.7635C0.632036 24.4182 1.10479 25.9224 1.8569 27.2332C2.60901 28.5655 3.66197 29.6615 4.9513 30.478C6.26213 31.2946 7.83082 31.8103 9.61439 31.9178C10.1516 31.9393 10.6673 31.9393 11.2046 31.8963C11.7418 31.8533 12.279 31.7889 12.8162 31.6814C13.3535 31.574 13.8907 31.4235 14.4279 31.2516C14.9651 31.0797 15.4809 30.8648 16.0181 30.6285L14.7502 28.2432C14.3849 28.3936 14.0196 28.5225 13.6328 28.63C13.2675 28.7374 12.8807 28.8234 12.5154 28.8879C12.1501 28.9523 11.7633 28.9953 11.398 29.0383C11.0327 29.0598 10.6459 29.0598 10.2805 29.0598C8.84079 28.9953 7.57295 28.6085 6.51999 27.9638C5.46704 27.3192 4.60748 26.4381 3.9843 25.3852C3.36113 24.3322 2.97433 23.1073 2.8239 21.775C2.67348 20.4642 2.78093 19.0245 3.16773 17.5417C3.55453 16.059 4.1777 14.6622 4.97279 13.3729C5.76788 12.105 6.75637 10.9446 7.8523 9.95614C8.94824 8.96765 10.1731 8.15107 11.4624 7.54938C12.7733 6.94769 14.1486 6.58238 15.5238 6.49643C16.9206 6.41047 18.21 6.64685 19.3489 7.1196C20.4878 7.61385 21.4763 8.36596 22.2284 9.31147C23.002 10.2785 23.5607 11.4819 23.84 12.8357C24.1194 14.2109 24.1194 15.7367 23.7971 17.3698C23.6466 18.0789 23.4532 18.7881 23.1954 19.4757C22.9375 20.1634 22.6367 20.8295 22.2714 21.4742C21.9275 22.1189 21.5192 22.742 21.068 23.3222C20.6382 23.9024 20.144 24.4611 19.6497 24.9769C19.6497 24.805 19.6712 24.633 19.6712 24.4396C19.6712 24.2677 19.6927 24.0743 19.6927 23.9239C19.6927 23.752 19.7142 23.6016 19.7142 23.4727C19.7142 23.3437 19.7142 23.2363 19.7142 23.1718C19.7142 23.1073 19.7142 23.0429 19.6927 22.9999C19.6712 22.9569 19.6712 22.9139 19.6497 22.8925C19.6282 22.871 19.6067 22.8495 19.5852 22.8495C19.5638 22.828 19.5208 22.828 19.4993 22.828C19.4778 22.828 19.4563 22.828 19.4348 22.828C19.4133 22.828 19.3918 22.828 19.3704 22.8495C19.3489 22.8495 19.3489 22.871 19.3274 22.871H19.3059L14.8792 24.3107C14.8792 24.3107 14.8362 24.3322 14.7932 24.3537C14.7502 24.3752 14.6858 24.4182 14.6428 24.4611C14.5998 24.5256 14.5568 24.5901 14.5353 24.676C14.5353 24.762 14.5568 24.8909 14.6213 25.0413C14.6213 25.0413 14.6213 25.0628 14.6428 25.0628C14.6428 25.0628 14.6428 25.0843 14.6643 25.0843C14.6643 25.0843 14.6643 25.1058 14.6858 25.1058C14.6858 25.1058 14.6858 25.1273 14.7073 25.1273C14.9007 25.5356 15.18 26.0728 15.5238 26.6745C15.8462 27.2977 16.2115 27.9853 16.5768 28.6515C16.9421 29.3391 17.3074 30.0053 17.6298 30.5855C17.9521 31.1657 18.21 31.6599 18.3819 31.9608C18.4034 31.9823 18.4034 32.0037 18.4248 32.0467C18.4463 32.0682 18.4463 32.0897 18.4678 32.1112C18.4893 32.1327 18.4893 32.1542 18.4893 32.1757C18.4893 32.1971 18.5108 32.2186 18.5108 32.2186C18.5538 32.3046 18.5968 32.3691 18.6397 32.412C18.6827 32.4765 18.7257 32.5195 18.7472 32.541C18.7902 32.5839 18.8116 32.6054 18.8546 32.6269C18.8976 32.6484 18.9191 32.6484 18.9406 32.6484C19.005 32.6484 19.048 32.6269 19.091 32.6054C19.134 32.5839 19.177 32.5195 19.1984 32.4765C19.2199 32.4335 19.2629 32.3691 19.2844 32.3261C19.3059 32.2831 19.3059 32.2186 19.3274 32.1757C19.3274 32.1542 19.3274 32.1542 19.3274 32.1327C19.3274 32.1112 19.3274 32.0897 19.3274 32.0467C19.3274 32.0252 19.3274 31.9823 19.3274 31.9608C19.3274 31.9178 19.3274 31.8963 19.3274 31.8533C19.3274 31.7029 19.3489 31.531 19.3489 31.3591C19.3489 31.1872 19.3704 30.9938 19.3704 30.8218C19.3704 30.6499 19.3918 30.4995 19.3918 30.3921C19.3918 30.2846 19.4133 30.1987 19.4133 30.1987C20.015 30.564 20.6382 30.9078 21.2184 31.2516C21.8201 31.574 22.4003 31.8963 22.9805 32.1542C23.5392 32.412 24.0979 32.6484 24.5922 32.7988C25.0864 32.9707 25.5592 33.0567 25.946 33.0997C26.0104 33.0997 26.0534 33.0997 26.1179 33.0997C26.1608 33.0997 26.2253 33.0997 26.2683 33.0997C26.3113 33.0997 26.3757 33.0997 26.4187 33.0782C26.4617 33.0782 26.5047 33.0567 26.5691 33.0567C26.6336 33.0352 26.6981 33.0352 26.7625 33.0137C26.827 32.9922 26.8915 32.9707 26.9559 32.9278C27.0204 32.9063 27.0634 32.8633 27.1278 32.8203C27.1708 32.7773 27.2353 32.7344 27.2783 32.6914C27.5576 32.3905 27.6866 31.9178 27.6866 31.3161C27.6866 30.7359 27.5361 30.0268 27.3212 29.2317L27.2568 29.1457Z" fill="#929392"/>
<path d="M11.2476 14.0399C11.5699 14.0399 11.8063 14.1258 11.9997 14.2977C12.1931 14.4697 12.279 14.706 12.279 15.0284C12.279 15.3507 12.1716 15.6086 11.9782 15.7805C11.7633 15.9524 11.5054 16.0598 11.1616 16.0598C10.388 16.0598 10.0012 15.716 10.0012 15.0499H8.8623V15.1358C8.8623 15.759 9.07719 16.2317 9.48548 16.5541C9.89377 16.8979 10.4525 17.0483 11.1616 17.0483C11.8063 17.0483 12.3435 16.8764 12.7948 16.5111C13.246 16.1673 13.4609 15.6515 13.4609 15.0284C13.4609 14.8135 13.4179 14.5986 13.3535 14.4052C13.289 14.2118 13.2031 14.0614 13.1386 13.9539C13.0526 13.8465 12.9667 13.739 12.8592 13.6746C12.7518 13.5886 12.6658 13.5456 12.6229 13.5241C12.5799 13.5027 12.5369 13.4812 12.5154 13.4812L12.6014 13.4382C12.6658 13.4167 12.7303 13.3522 12.8163 13.2663C12.9022 13.1803 12.9882 13.0944 13.0526 12.9869C13.1386 12.8795 13.2031 12.7291 13.2675 12.5571C13.332 12.3852 13.3535 12.1918 13.3535 11.9984C13.3535 11.4182 13.1601 10.967 12.7733 10.6446C12.3865 10.3223 11.8493 10.1504 11.1831 10.1504C10.5169 10.1504 10.0012 10.3008 9.59293 10.6446C9.18464 10.967 8.99124 11.4182 8.99124 11.9984V12.0629H10.1087C10.1087 11.7406 10.2161 11.5042 10.388 11.3538C10.5814 11.2033 10.8393 11.1174 11.1831 11.1174C11.5269 11.1174 11.8063 11.2033 11.9782 11.3538C12.1501 11.5257 12.2575 11.7406 12.2575 12.0199C12.2575 12.3208 12.1716 12.5786 11.9782 12.7505C11.7848 12.9225 11.5484 13.0084 11.2476 13.0084H10.1087V13.9969L11.312 14.0184L11.2476 14.0399ZM18.8761 16.9624V15.9094H16.1255L17.7157 14.3407C18.1455 13.9324 18.4464 13.5456 18.6183 13.2018C18.7902 12.858 18.8761 12.4927 18.8761 12.1274C18.8761 11.5257 18.6827 11.0314 18.3174 10.7091C17.9306 10.3653 17.4149 10.1934 16.7272 10.1934C16.0396 10.1934 15.5024 10.3653 15.0941 10.7091C14.6858 11.0529 14.4924 11.5257 14.4924 12.1489V12.2133H15.6313C15.6313 11.5472 15.9751 11.2033 16.7057 11.2033C17.3934 11.2033 17.7372 11.5257 17.7372 12.1703C17.7372 12.4282 17.6727 12.6646 17.5653 12.901C17.4579 13.1373 17.243 13.3952 16.9636 13.6746L14.6428 15.9309V16.9839H18.9191L18.8761 16.9624Z" fill="#929392"/>
<path d="M10.3668 22.6143V17.5645H9.52876V21.411L7.53029 17.5645H6.28394V22.6143H7.122V18.7893L9.14196 22.6143H10.3668ZM12.1289 22.1416C12.1289 22.0127 12.0859 21.9267 12 21.8407C11.914 21.7763 11.8066 21.7333 11.6562 21.7333C11.5272 21.7333 11.4198 21.7763 11.3338 21.8407C11.2479 21.9052 11.2049 22.0127 11.2049 22.1416V22.292C11.2049 22.4209 11.2479 22.5069 11.3338 22.5929C11.4198 22.6573 11.5272 22.7003 11.6776 22.7003C11.8281 22.7003 11.9355 22.6573 12.0215 22.5929C12.1074 22.5284 12.1504 22.4209 12.1504 22.292L12.1289 22.1416ZM15.9324 21.2605H15.1374C15.1374 21.7333 14.8795 21.9697 14.3852 21.9697C13.891 21.9697 13.6546 21.7118 13.6546 21.2176V20.4655C13.6546 19.9497 13.891 19.7133 14.3852 19.7133C14.8795 19.7133 15.1374 19.9497 15.1374 20.4225H15.9324V20.358C15.9324 19.9282 15.8035 19.5844 15.5242 19.348C15.2448 19.1117 14.8795 18.9827 14.4067 18.9827C13.934 18.9827 13.5687 19.1117 13.2893 19.348C13.01 19.6059 12.8595 19.9497 12.8595 20.3795V21.2605C12.8595 21.6903 13.01 22.0341 13.2893 22.292C13.5687 22.5284 13.934 22.6573 14.4067 22.6573C14.8795 22.6573 15.2663 22.5499 15.5456 22.3135C15.825 22.0771 15.9754 21.7333 15.9754 21.3035L15.9539 21.2605H15.9324ZM21.6055 22.6143V20.1001C21.6055 19.7563 21.5196 19.4985 21.3476 19.3051C21.1757 19.1117 20.9179 19.0257 20.617 19.0257C20.3377 19.0257 20.0583 19.1117 19.8004 19.2621L19.4136 19.4985C19.2632 19.1761 18.9839 19.0257 18.5756 19.0257C18.3177 19.0257 18.0598 19.0902 17.8235 19.2406L17.5011 19.434V19.0687H16.6846V22.6358H17.5011V20.1861L17.9309 19.9282C18.1028 19.8423 18.2532 19.7993 18.3607 19.7993C18.6186 19.7993 18.726 19.9497 18.726 20.2506V22.6573H19.5426V20.2076L19.9724 19.9497C20.1443 19.8638 20.2947 19.7993 20.4021 19.7993C20.66 19.7993 20.7889 19.9497 20.7889 20.2291V22.6573H21.6055V22.6143Z" fill="#929392"/>
<path d="M23.8831 13.1159C27.2784 13.1159 30.0504 10.3653 30.0504 6.94856C30.0504 3.53183 27.2999 0.78125 23.8831 0.78125C20.4664 0.78125 17.7158 3.53183 17.7158 6.94856C17.7158 10.3438 20.4664 13.1159 23.8831 13.1159Z" fill="#929392"/>
<path d="M23.8831 13.1159C27.2784 13.1159 30.0504 10.3653 30.0504 6.94856C30.0504 3.53183 27.2999 0.78125 23.8831 0.78125C20.4664 0.78125 17.7158 3.53183 17.7158 6.94856C17.7158 10.3438 20.4664 13.1159 23.8831 13.1159Z" stroke="white" stroke-width="0.623178"/>
<path d="M26.0749 10.4721V9.80593H24.5706V3.91797H23.797C23.3243 4.34775 22.873 4.64859 22.4217 4.79901V5.50815C22.916 5.42219 23.3887 5.16432 23.8185 4.73455V9.82741H21.906V10.4936H26.0749V10.4721Z" fill="#FEFEFE"/>
</svg>
