<svg width="30" height="34" viewBox="0 0 30 34" fill="none" xmlns="http://www.w3.org/2000/svg">
<path d="M27.1677 29.1457C26.9313 28.3721 26.609 27.5126 26.2222 26.653C25.8354 25.7935 25.3841 24.9124 24.8898 24.0314C24.8254 24.1388 24.7609 24.2677 24.675 24.3752C24.6105 24.4826 24.5245 24.6116 24.4601 24.719C24.3741 24.8265 24.3096 24.9339 24.2237 25.0413C24.1377 25.1488 24.0518 25.2562 23.9658 25.3637L23.9443 25.3852L23.9228 25.4067L23.9014 25.4281L23.8799 25.4496L23.7939 25.5356C23.8584 25.729 23.9443 25.9654 24.0518 26.2232C24.1377 26.4811 24.2452 26.7605 24.3311 27.0183C24.4171 27.2762 24.4816 27.5341 24.503 27.7275C24.5245 27.9209 24.5245 28.0928 24.4386 28.1572C24.4171 28.1787 24.3956 28.2002 24.3526 28.2217C24.3311 28.2432 24.2882 28.2647 24.2452 28.2647C24.2022 28.2862 24.1807 28.2862 24.1377 28.2862C24.0948 28.2862 24.0518 28.2862 24.0088 28.2862C23.9443 28.2862 23.8584 28.2647 23.7724 28.2647C23.6865 28.2432 23.6005 28.2217 23.5146 28.2002C23.4286 28.1787 23.3212 28.1357 23.2352 28.0928C23.1278 28.0498 23.0203 28.0068 22.9129 27.9638C22.7839 27.8994 22.6335 27.8349 22.4831 27.7489C22.3327 27.663 22.1822 27.577 22.0318 27.4911C21.8814 27.4051 21.7095 27.3192 21.5591 27.2117C21.3872 27.1043 21.2367 27.0183 21.0648 26.9109C21.7095 26.2662 22.3327 25.5571 22.8914 24.8265C23.4501 24.0743 23.9658 23.3007 24.4171 22.4842C24.8684 21.6676 25.2552 20.8295 25.5775 19.9485C25.8998 19.0889 26.1577 18.1864 26.3296 17.2839C26.7379 15.2424 26.7164 13.3299 26.3296 11.6323C25.9643 9.95614 25.2552 8.47341 24.2667 7.29152C23.2997 6.10963 22.0748 5.20709 20.6565 4.62689C19.2598 4.04669 17.6481 3.81032 15.929 3.91776C14.7901 4.00372 13.6511 4.24009 12.5552 4.6054C11.4593 4.97072 10.4063 5.46496 9.39635 6.06665C8.38637 6.66834 7.41937 7.37747 6.53833 8.19405C5.63579 8.98914 4.81921 9.89167 4.0671 10.8587C3.8737 10.4934 3.70179 10.128 3.57286 9.82721C3.44393 9.50487 3.33648 9.22552 3.2935 8.96765C3.22904 8.70978 3.20755 8.49489 3.22904 8.30149C3.25053 8.10809 3.31499 7.95767 3.40095 7.85023C3.42244 7.80725 3.46541 7.78576 3.52988 7.74278C3.57286 7.69981 3.63733 7.67832 3.70179 7.65683C3.76626 7.63534 3.85221 7.61385 3.93817 7.59236C4.02413 7.57087 4.11008 7.57087 4.19604 7.54938C4.30348 7.54938 4.41093 7.54938 4.51837 7.57087C4.62581 7.59236 4.73326 7.61385 4.86219 7.65683C4.96964 7.69981 5.09857 7.74278 5.20602 7.82874C5.31346 7.89321 5.44239 7.97916 5.54984 8.08661C5.65728 7.95767 5.78621 7.82874 5.89366 7.6998C6.02259 7.57087 6.13004 7.46343 6.25897 7.33449C6.3879 7.22705 6.51684 7.09812 6.64577 6.99067C6.7747 6.88323 6.92513 6.77578 7.07555 6.66834C7.09704 6.66834 7.09704 6.64685 7.11853 6.64685C7.14002 6.64685 7.14002 6.62536 7.1615 6.62536C7.18299 6.62536 7.18299 6.60387 7.20448 6.60387C7.22597 6.60387 7.22597 6.58238 7.24746 6.58238C6.98959 6.346 6.71024 6.1526 6.43088 6.00218C6.15153 5.85176 5.85068 5.72283 5.54984 5.63687C5.24899 5.55092 4.94815 5.48645 4.6473 5.46496C4.34646 5.44347 4.0671 5.42198 3.78775 5.44347C3.59435 5.46496 3.42244 5.48645 3.25053 5.50794C3.07861 5.55092 2.92819 5.59389 2.77777 5.63687C2.62735 5.67985 2.49841 5.74432 2.39097 5.83027C2.28353 5.89474 2.17608 5.98069 2.11161 6.06665C1.87524 6.32452 1.7463 6.64685 1.68184 7.03365C1.61737 7.42045 1.63886 7.89321 1.7463 8.40894C1.85375 8.92467 2.02566 9.50487 2.26204 10.1495C2.5199 10.7727 2.82075 11.4604 3.22904 12.191C2.97117 12.5993 2.7133 13.0076 2.47693 13.4373C2.24055 13.8671 2.02566 14.2969 1.83226 14.7482C1.63886 15.1994 1.44546 15.6507 1.29504 16.1235C1.12313 16.5962 0.994192 17.069 0.865258 17.5417C0.392503 19.3683 0.242081 21.1304 0.392503 22.7635C0.542925 24.4182 1.01568 25.9224 1.76779 27.2332C2.5199 28.5655 3.57286 29.6615 4.86219 30.478C6.17302 31.2946 7.7417 31.8103 9.52528 31.9178C10.0625 31.9393 10.5782 31.9393 11.1155 31.8963C11.6527 31.8533 12.1899 31.7889 12.7271 31.6814C13.2643 31.574 13.8016 31.4235 14.3388 31.2516C14.876 31.0797 15.3918 30.8648 15.929 30.6285L14.6611 28.2432C14.2958 28.3936 13.9305 28.5225 13.5437 28.63C13.1784 28.7374 12.7916 28.8234 12.4263 28.8879C12.061 28.9523 11.6742 28.9953 11.3089 29.0383C10.9435 29.0598 10.5567 29.0598 10.1914 29.0598C8.75168 28.9953 7.48384 28.6085 6.43088 27.9638C5.37793 27.3192 4.51837 26.4381 3.89519 25.3852C3.27201 24.3322 2.88521 23.1073 2.73479 21.775C2.58437 20.4642 2.69181 19.0245 3.07861 17.5417C3.46541 16.059 4.08859 14.6622 4.88368 13.3729C5.67877 12.105 6.66726 10.9446 7.76319 9.95614C8.85913 8.96765 10.084 8.15107 11.3733 7.54938C12.6841 6.94769 14.0594 6.58238 15.4347 6.49643C16.8315 6.41047 18.1208 6.64685 19.2598 7.1196C20.3987 7.61385 21.3872 8.36596 22.1393 9.31147C22.9129 10.2785 23.4716 11.4819 23.7509 12.8357C24.0303 14.2109 24.0303 15.7367 23.708 17.3698C23.5575 18.0789 23.3641 18.7881 23.1063 19.4757C22.8484 20.1634 22.5476 20.8295 22.1822 21.4742C21.8384 22.1189 21.4301 22.742 20.9789 23.3222C20.5491 23.9024 20.0548 24.4611 19.5606 24.9769C19.5606 24.805 19.5821 24.633 19.5821 24.4396C19.5821 24.2677 19.6036 24.0743 19.6036 23.9239C19.6036 23.752 19.6251 23.6016 19.6251 23.4727C19.6251 23.3437 19.6251 23.2363 19.6251 23.1718C19.6251 23.1073 19.6251 23.0429 19.6036 22.9999C19.5821 22.9569 19.5821 22.9139 19.5606 22.8925C19.5391 22.871 19.5176 22.8495 19.4961 22.8495C19.4746 22.828 19.4317 22.828 19.4102 22.828C19.3887 22.828 19.3672 22.828 19.3457 22.828C19.3242 22.828 19.3027 22.828 19.2812 22.8495C19.2598 22.8495 19.2598 22.871 19.2383 22.871H19.2168L14.7901 24.3107C14.7901 24.3107 14.7471 24.3322 14.7041 24.3537C14.6611 24.3752 14.5967 24.4182 14.5537 24.4611C14.5107 24.5256 14.4677 24.5901 14.4462 24.676C14.4462 24.762 14.4677 24.8909 14.5322 25.0413C14.5322 25.0413 14.5322 25.0628 14.5537 25.0628C14.5537 25.0628 14.5537 25.0843 14.5752 25.0843C14.5752 25.0843 14.5752 25.1058 14.5967 25.1058C14.5967 25.1058 14.5967 25.1273 14.6181 25.1273C14.8116 25.5356 15.0909 26.0728 15.4347 26.6745C15.7571 27.2977 16.1224 27.9853 16.4877 28.6515C16.853 29.3391 17.2183 30.0053 17.5406 30.5855C17.863 31.1657 18.1208 31.6599 18.2928 31.9608C18.3142 31.9823 18.3142 32.0037 18.3357 32.0467C18.3572 32.0682 18.3572 32.0897 18.3787 32.1112C18.4002 32.1327 18.4002 32.1542 18.4002 32.1757C18.4002 32.1971 18.4217 32.2186 18.4217 32.2186C18.4647 32.3046 18.5076 32.3691 18.5506 32.412C18.5936 32.4765 18.6366 32.5195 18.6581 32.541C18.701 32.5839 18.7225 32.6054 18.7655 32.6269C18.8085 32.6484 18.83 32.6484 18.8515 32.6484C18.9159 32.6484 18.9589 32.6269 19.0019 32.6054C19.0449 32.5839 19.0878 32.5195 19.1093 32.4765C19.1308 32.4335 19.1738 32.3691 19.1953 32.3261C19.2168 32.2831 19.2168 32.2186 19.2383 32.1757C19.2383 32.1542 19.2383 32.1542 19.2383 32.1327C19.2383 32.1112 19.2383 32.0897 19.2383 32.0467C19.2383 32.0252 19.2383 31.9823 19.2383 31.9608C19.2383 31.9178 19.2383 31.8963 19.2383 31.8533C19.2383 31.7029 19.2598 31.531 19.2598 31.3591C19.2598 31.1872 19.2812 30.9938 19.2812 30.8218C19.2812 30.6499 19.3027 30.4995 19.3027 30.3921C19.3027 30.2846 19.3242 30.1987 19.3242 30.1987C19.9259 30.564 20.5491 30.9078 21.1293 31.2516C21.731 31.574 22.3112 31.8963 22.8914 32.1542C23.4501 32.412 24.0088 32.6484 24.503 32.7988C24.9973 32.9707 25.47 33.0567 25.8568 33.0997C25.9213 33.0997 25.9643 33.0997 26.0288 33.0997C26.0717 33.0997 26.1362 33.0997 26.1792 33.0997C26.2222 33.0997 26.2866 33.0997 26.3296 33.0782C26.3726 33.0782 26.4156 33.0567 26.48 33.0567C26.5445 33.0352 26.609 33.0352 26.6734 33.0137C26.7379 32.9922 26.8024 32.9707 26.8668 32.9278C26.9313 32.9063 26.9743 32.8633 27.0387 32.8203C27.0817 32.7773 27.1462 32.7344 27.1892 32.6914C27.4685 32.3905 27.5974 31.9178 27.5974 31.3161C27.5974 30.7359 27.447 30.0268 27.2321 29.2317L27.1677 29.1457Z" fill="#929392"/>
<path d="M11.1585 14.0399C11.4808 14.0399 11.7172 14.1258 11.9106 14.2977C12.104 14.4697 12.1899 14.706 12.1899 15.0284C12.1899 15.3507 12.0825 15.6086 11.8891 15.7805C11.6742 15.9524 11.4163 16.0598 11.0725 16.0598C10.2989 16.0598 9.9121 15.716 9.9121 15.0499H8.77319V15.1358C8.77319 15.759 8.98808 16.2317 9.39637 16.5541C9.80466 16.8979 10.3634 17.0483 11.0725 17.0483C11.7172 17.0483 12.2544 16.8764 12.7057 16.5111C13.1569 16.1673 13.3718 15.6515 13.3718 15.0284C13.3718 14.8135 13.3288 14.5986 13.2644 14.4052C13.1999 14.2118 13.1139 14.0614 13.0495 13.9539C12.9635 13.8465 12.8776 13.739 12.7701 13.6746C12.6627 13.5886 12.5767 13.5456 12.5337 13.5241C12.4908 13.5027 12.4478 13.4812 12.4263 13.4812L12.5123 13.4382C12.5767 13.4167 12.6412 13.3522 12.7271 13.2663C12.8131 13.1803 12.8991 13.0944 12.9635 12.9869C13.0495 12.8795 13.1139 12.7291 13.1784 12.5571C13.2429 12.3852 13.2644 12.1918 13.2644 11.9984C13.2644 11.4182 13.071 10.967 12.6842 10.6446C12.2974 10.3223 11.7601 10.1504 11.094 10.1504C10.4278 10.1504 9.9121 10.3008 9.50382 10.6446C9.09553 10.967 8.90213 11.4182 8.90213 11.9984V12.0629H10.0195C10.0195 11.7406 10.127 11.5042 10.2989 11.3538C10.4923 11.2033 10.7502 11.1174 11.094 11.1174C11.4378 11.1174 11.7172 11.2033 11.8891 11.3538C12.061 11.5257 12.1684 11.7406 12.1684 12.0199C12.1684 12.3208 12.0825 12.5786 11.8891 12.7505C11.6957 12.9225 11.4593 13.0084 11.1585 13.0084H10.0195V13.9969L11.2229 14.0184L11.1585 14.0399ZM18.787 16.9624V15.9094H16.0364L17.6266 14.3407C18.0564 13.9324 18.3572 13.5456 18.5292 13.2018C18.7011 12.858 18.787 12.4927 18.787 12.1274C18.787 11.5257 18.5936 11.0314 18.2283 10.7091C17.8415 10.3653 17.3258 10.1934 16.6381 10.1934C15.9505 10.1934 15.4133 10.3653 15.005 10.7091C14.5967 11.0529 14.4033 11.5257 14.4033 12.1489V12.2133H15.5422C15.5422 11.5472 15.886 11.2033 16.6166 11.2033C17.3043 11.2033 17.6481 11.5257 17.6481 12.1703C17.6481 12.4282 17.5836 12.6646 17.4762 12.901C17.3687 13.1373 17.1539 13.3952 16.8745 13.6746L14.5537 15.9309V16.9839H18.83L18.787 16.9624Z" fill="#929392"/>
<path d="M10.2777 22.6143V17.5645H9.43965V21.411L7.44118 17.5645H6.19482V22.6143H7.03289V18.7893L9.05285 22.6143H10.2777ZM12.0398 22.1416C12.0398 22.0127 11.9968 21.9267 11.9109 21.8407C11.8249 21.7763 11.7175 21.7333 11.567 21.7333C11.4381 21.7333 11.3307 21.7763 11.2447 21.8407C11.1588 21.9052 11.1158 22.0127 11.1158 22.1416V22.292C11.1158 22.4209 11.1588 22.5069 11.2447 22.5929C11.3307 22.6573 11.4381 22.7003 11.5885 22.7003C11.739 22.7003 11.8464 22.6573 11.9324 22.5929C12.0183 22.5284 12.0613 22.4209 12.0613 22.292L12.0398 22.1416ZM15.8433 21.2605H15.0482C15.0482 21.7333 14.7904 21.9697 14.2961 21.9697C13.8019 21.9697 13.5655 21.7118 13.5655 21.2176V20.4655C13.5655 19.9497 13.8019 19.7133 14.2961 19.7133C14.7904 19.7133 15.0482 19.9497 15.0482 20.4225H15.8433V20.358C15.8433 19.9282 15.7144 19.5844 15.435 19.348C15.1557 19.1117 14.7904 18.9827 14.3176 18.9827C13.8449 18.9827 13.4796 19.1117 13.2002 19.348C12.9208 19.6059 12.7704 19.9497 12.7704 20.3795V21.2605C12.7704 21.6903 12.9208 22.0341 13.2002 22.292C13.4796 22.5284 13.8449 22.6573 14.3176 22.6573C14.7904 22.6573 15.1772 22.5499 15.4565 22.3135C15.7359 22.0771 15.8863 21.7333 15.8863 21.3035L15.8648 21.2605H15.8433ZM21.5164 22.6143V20.1001C21.5164 19.7563 21.4304 19.4985 21.2585 19.3051C21.0866 19.1117 20.8288 19.0257 20.5279 19.0257C20.2486 19.0257 19.9692 19.1117 19.7113 19.2621L19.3245 19.4985C19.1741 19.1761 18.8948 19.0257 18.4865 19.0257C18.2286 19.0257 17.9707 19.0902 17.7344 19.2406L17.412 19.434V19.0687H16.5954V22.6358H17.412V20.1861L17.8418 19.9282C18.0137 19.8423 18.1641 19.7993 18.2716 19.7993C18.5294 19.7993 18.6369 19.9497 18.6369 20.2506V22.6573H19.4535V20.2076L19.8832 19.9497C20.0552 19.8638 20.2056 19.7993 20.313 19.7993C20.5709 19.7993 20.6998 19.9497 20.6998 20.2291V22.6573H21.5164V22.6143Z" fill="#929392"/>
<path d="M23.794 13.1159C27.1893 13.1159 29.9613 10.3653 29.9613 6.94856C29.9613 3.53183 27.2108 0.78125 23.794 0.78125C20.3773 0.78125 17.6267 3.53183 17.6267 6.94856C17.6267 10.3438 20.3773 13.1159 23.794 13.1159Z" fill="#929392"/>
<path d="M23.794 13.1159C27.1893 13.1159 29.9613 10.3653 29.9613 6.94856C29.9613 3.53183 27.2108 0.78125 23.794 0.78125C20.3773 0.78125 17.6267 3.53183 17.6267 6.94856C17.6267 10.3438 20.3773 13.1159 23.794 13.1159Z" stroke="white" stroke-width="0.623178"/>
<path d="M25.9857 10.4721V9.80593H24.4815V3.91797H23.7079C23.2352 4.34775 22.7839 4.64859 22.3326 4.79901V5.50815C22.8269 5.42219 23.2996 5.16432 23.7294 4.73455V9.82741H21.8169V10.4936H25.9857V10.4721Z" fill="#FEFEFE"/>
</svg>
