<svg width="15" height="14" viewBox="0 0 15 14" fill="none" xmlns="http://www.w3.org/2000/svg">
<path d="M8.33375 4.9255C8.33375 4.81407 8.28949 4.70721 8.2107 4.62842C8.13191 4.54963 8.02505 4.50537 7.91362 4.50537C7.8022 4.50537 7.69534 4.54963 7.61655 4.62842C7.53776 4.70721 7.4935 4.81407 7.4935 4.9255V6.18588H6.23312C6.12169 6.18588 6.01483 6.23014 5.93604 6.30893C5.85725 6.38772 5.81299 6.49458 5.81299 6.60601C5.81299 6.71743 5.85725 6.82429 5.93604 6.90308C6.01483 6.98187 6.12169 7.02613 6.23312 7.02613H7.4935V8.28651C7.4935 8.39794 7.53776 8.5048 7.61655 8.58359C7.69534 8.66238 7.8022 8.70664 7.91362 8.70664C8.02505 8.70664 8.13191 8.66238 8.2107 8.58359C8.28949 8.5048 8.33375 8.39794 8.33375 8.28651V7.02613H9.59413C9.70556 7.02613 9.81242 6.98187 9.89121 6.90308C9.97 6.82429 10.0143 6.71743 10.0143 6.60601C10.0143 6.49458 9.97 6.38772 9.89121 6.30893C9.81242 6.23014 9.70556 6.18588 9.59413 6.18588H8.33375V4.9255Z" fill="#363330"/>
<path d="M1.19161 1.14453C1.08019 1.14453 0.973326 1.18879 0.894537 1.26758C0.815748 1.34637 0.771484 1.45323 0.771484 1.56466C0.771484 1.67608 0.815748 1.78294 0.894537 1.86173C0.973326 1.94052 1.08019 1.98479 1.19161 1.98479H2.12429L2.46124 3.33507L3.71994 10.0445C3.73796 10.1408 3.78905 10.2277 3.86439 10.2903C3.93972 10.3529 4.03455 10.3872 4.1325 10.3873H4.97276C4.52706 10.3873 4.09961 10.5644 3.78446 10.8795C3.4693 11.1947 3.29225 11.6221 3.29225 12.0678C3.29225 12.5135 3.4693 12.941 3.78446 13.2561C4.09961 13.5713 4.52706 13.7483 4.97276 13.7483C5.41845 13.7483 5.8459 13.5713 6.16105 13.2561C6.47621 12.941 6.65326 12.5135 6.65326 12.0678C6.65326 11.6221 6.47621 11.1947 6.16105 10.8795C5.8459 10.5644 5.41845 10.3873 4.97276 10.3873H10.8545C10.4088 10.3873 9.98139 10.5644 9.66624 10.8795C9.35108 11.1947 9.17403 11.6221 9.17403 12.0678C9.17403 12.5135 9.35108 12.941 9.66624 13.2561C9.98139 13.5713 10.4088 13.7483 10.8545 13.7483C11.3002 13.7483 11.7277 13.5713 12.0428 13.2561C12.358 12.941 12.535 12.5135 12.535 12.0678C12.535 11.6221 12.358 11.1947 12.0428 10.8795C11.7277 10.5644 11.3002 10.3873 10.8545 10.3873H11.6948C11.7927 10.3872 11.8876 10.3529 11.9629 10.2903C12.0382 10.2277 12.0893 10.1408 12.1074 10.0445L13.3677 3.32247C13.3791 3.26183 13.3769 3.19944 13.3615 3.13973C13.346 3.08002 13.3175 3.02444 13.2782 2.97696C13.2388 2.92948 13.1894 2.89125 13.1336 2.86499C13.0778 2.83874 13.0169 2.8251 12.9552 2.82504H3.19982L2.85952 1.46299C2.83684 1.37206 2.78441 1.29132 2.71057 1.23362C2.63672 1.17592 2.54571 1.14456 2.45199 1.14453H1.19161ZM4.48121 9.54707L3.37795 3.66529H12.4493L11.3461 9.54707H4.48121ZM5.81301 12.0678C5.81301 12.2907 5.72448 12.5044 5.56691 12.662C5.40933 12.8196 5.1956 12.9081 4.97276 12.9081C4.74991 12.9081 4.53618 12.8196 4.37861 12.662C4.22103 12.5044 4.1325 12.2907 4.1325 12.0678C4.1325 11.845 4.22103 11.6313 4.37861 11.4737C4.53618 11.3161 4.74991 11.2276 4.97276 11.2276C5.1956 11.2276 5.40933 11.3161 5.56691 11.4737C5.72448 11.6313 5.81301 11.845 5.81301 12.0678ZM11.6948 12.0678C11.6948 12.2907 11.6063 12.5044 11.4487 12.662C11.2911 12.8196 11.0774 12.9081 10.8545 12.9081C10.6317 12.9081 10.418 12.8196 10.2604 12.662C10.1028 12.5044 10.0143 12.2907 10.0143 12.0678C10.0143 11.845 10.1028 11.6313 10.2604 11.4737C10.418 11.3161 10.6317 11.2276 10.8545 11.2276C11.0774 11.2276 11.2911 11.3161 11.4487 11.4737C11.6063 11.6313 11.6948 11.845 11.6948 12.0678Z" fill="#363330"/>
</svg>
